solid f23_blank
  facet normal 0.379860155 0.0602534123 0.923079514
    outer loop
      vertex 4.2940169 0.625982383 1.56488494
      vertex 4.29473155 0.685830889 1.56068428
      vertex 3.29358317 0.726515798 1.97001518
    endloop
  endfacet
  facet normal 0.379860155 0.0602534123 0.923079514
    outer loop
      vertex 4.2940169 0.625982383 1.56488494
      vertex 3.29358317 0.726515798 1.97001518
      vertex 3.29286852 0.666667291 1.97421584
    endloop
  endfacet
  facet normal -0.0119108347 -0.997475108 0.0700110114
    outer loop
      vertex 4.2940169 0.625982383 1.56488494
      vertex 3.29286852 0.666667291 1.97421584
      vertex 3.26247971 0.661847018 1.90036948
    endloop
  endfacet
  facet normal -0.0119108347 -0.997475108 0.0700110114
    outer loop
      vertex 4.2940169 0.625982383 1.56488494
      vertex 3.26247971 0.661847018 1.90036948
      vertex 4.26362809 0.62116211 1.49103858
    endloop
  endfacet
  facet normal -0.92496724 0.0375890411 0.37818338
    outer loop
      vertex 3.29286852 0.666667291 1.97421584
      vertex 3.29358317 0.726515798 1.97001518
      vertex 3.26319436 0.721695525 1.89616882
    endloop
  endfacet
  facet normal -0.92496724 0.0375890411 0.37818338
    outer loop
      vertex 3.29286852 0.666667291 1.97421584
      vertex 3.26319436 0.721695525 1.89616882
      vertex 3.26247971 0.661847018 1.90036948
    endloop
  endfacet
  facet normal 0.0119108347 0.997475108 -0.0700110114
    outer loop
      vertex 3.29358317 0.726515798 1.97001518
      vertex 4.29473155 0.685830889 1.56068428
      vertex 4.26434274 0.681010616 1.48683792
    endloop
  endfacet
  facet normal 0.0119108347 0.997475108 -0.0700110114
    outer loop
      vertex 3.29358317 0.726515798 1.97001518
      vertex 4.26434274 0.681010616 1.48683792
      vertex 3.26319436 0.721695525 1.89616882
    endloop
  endfacet
  facet normal 0.92496724 -0.0375890411 -0.37818338
    outer loop
      vertex 4.29473155 0.685830889 1.56068428
      vertex 4.2940169 0.625982383 1.56488494
      vertex 4.26362809 0.62116211 1.49103858
    endloop
  endfacet
  facet normal 0.92496724 -0.0375890411 -0.37818338
    outer loop
      vertex 4.29473155 0.685830889 1.56068428
      vertex 4.26362809 0.62116211 1.49103858
      vertex 4.26434274 0.681010616 1.48683792
    endloop
  endfacet
  facet normal -0.379860155 -0.0602534123 -0.923079514
    outer loop
      vertex 4.26362809 0.62116211 1.49103858
      vertex 3.26247971 0.661847018 1.90036948
      vertex 3.26319436 0.721695525 1.89616882
    endloop
  endfacet
  facet normal -0.379860155 -0.0602534123 -0.923079514
    outer loop
      vertex 4.26362809 0.62116211 1.49103858
      vertex 3.26319436 0.721695525 1.89616882
      vertex 4.26434274 0.681010616 1.48683792
    endloop
  endfacet
endsolid f23_blank
