solid d12_features
  facet normal -0.978580478 -0.187986257 -0.0839131458
    outer loop
      vertex 1.99546845 2.5793018 2.05086768
      vertex 1.99572251 2.5781218 2.05054829
      vertex 1.9916644 2.54335987 2.17574869
    endloop
  endfacet
  facet normal -0.978580478 -0.187986257 -0.0839131458
    outer loop
      vertex 1.99546845 2.5793018 2.05086768
      vertex 1.9916644 2.54335987 2.17574869
      vertex 1.99141033 2.54453987 2.17606808
    endloop
  endfacet
  facet normal 0.0312162848 0.267399467 -0.963079991
    outer loop
      vertex 1.99866677 2.5793018 2.05097134
      vertex 1.99572251 2.5781218 2.05054829
      vertex 1.99546845 2.5793018 2.05086768
    endloop
  endfacet
  facet normal -0.0312162848 -0.267399467 0.963079991
    outer loop
      vertex 1.99460865 2.54453987 2.17617174
      vertex 1.99141033 2.54453987 2.17606808
      vertex 1.9916644 2.54335987 2.17574869
    endloop
  endfacet
  facet normal -0.826220468 -0.535339568 -0.175417463
    outer loop
      vertex 1.99572251 2.5781218 2.05054829
      vertex 1.99642482 2.57712145 2.0502933
      vertex 1.9923667 2.54235952 2.1754937
    endloop
  endfacet
  facet normal -0.826220468 -0.535339568 -0.175417463
    outer loop
      vertex 1.99572251 2.5781218 2.05054829
      vertex 1.9923667 2.54235952 2.1754937
      vertex 1.9916644 2.54335987 2.17574869
    endloop
  endfacet
  facet normal 0.0312162848 0.267399467 -0.963079991
    outer loop
      vertex 1.99866677 2.5793018 2.05097134
      vertex 1.99642482 2.57712145 2.0502933
      vertex 1.99572251 2.5781218 2.05054829
    endloop
  endfacet
  facet normal -0.0312162848 -0.267399467 0.963079991
    outer loop
      vertex 1.99460865 2.54453987 2.17617174
      vertex 1.9916644 2.54335987 2.17574869
      vertex 1.9923667 2.54235952 2.1754937
    endloop
  endfacet
  facet normal -0.548075881 -0.801192282 -0.240216061
    outer loop
      vertex 1.99642482 2.57712145 2.0502933
      vertex 1.99746843 2.57645304 2.05014154
      vertex 1.99341032 2.54169111 2.17534194
    endloop
  endfacet
  facet normal -0.548075881 -0.801192282 -0.240216061
    outer loop
      vertex 1.99642482 2.57712145 2.0502933
      vertex 1.99341032 2.54169111 2.17534194
      vertex 1.9923667 2.54235952 2.1754937
    endloop
  endfacet
  facet normal 0.0312162848 0.267399467 -0.963079991
    outer loop
      vertex 1.99866677 2.5793018 2.05097134
      vertex 1.99746843 2.57645304 2.05014154
      vertex 1.99642482 2.57712145 2.0502933
    endloop
  endfacet
  facet normal -0.0312162848 -0.267399467 0.963079991
    outer loop
      vertex 1.99460865 2.54453987 2.17617174
      vertex 1.9923667 2.54235952 2.1754937
      vertex 1.99341032 2.54169111 2.17534194
    endloop
  endfacet
  facet normal -0.18649171 -0.945070734 -0.268443941
    outer loop
      vertex 1.99746843 2.57645304 2.05014154
      vertex 1.99869449 2.57621832 2.05011612
      vertex 1.99463637 2.54145639 2.17531651
    endloop
  endfacet
  facet normal -0.18649171 -0.945070734 -0.268443941
    outer loop
      vertex 1.99746843 2.57645304 2.05014154
      vertex 1.99463637 2.54145639 2.17531651
      vertex 1.99341032 2.54169111 2.17534194
    endloop
  endfacet
  facet normal 0.0312162848 0.267399467 -0.963079991
    outer loop
      vertex 1.99866677 2.5793018 2.05097134
      vertex 1.99869449 2.57621832 2.05011612
      vertex 1.99746843 2.57645304 2.05014154
    endloop
  endfacet
  facet normal -0.0312162848 -0.267399467 0.963079991
    outer loop
      vertex 1.99460865 2.54453987 2.17617174
      vertex 1.99341032 2.54169111 2.17534194
      vertex 1.99463637 2.54145639 2.17531651
    endloop
  endfacet
  facet normal 0.203484133 -0.945070734 -0.255803665
    outer loop
      vertex 1.99869449 2.57621832 2.05011612
      vertex 1.99991632 2.57645304 2.05022089
      vertex 1.99585821 2.54169111 2.17542129
    endloop
  endfacet
  facet normal 0.203484133 -0.945070734 -0.255803665
    outer loop
      vertex 1.99869449 2.57621832 2.05011612
      vertex 1.99585821 2.54169111 2.17542129
      vertex 1.99463637 2.54145639 2.17531651
    endloop
  endfacet
  facet normal 0.0312162848 0.267399467 -0.963079991
    outer loop
      vertex 1.99866677 2.5793018 2.05097134
      vertex 1.99991632 2.57645304 2.05022089
      vertex 1.99869449 2.57621832 2.05011612
    endloop
  endfacet
  facet normal -0.0312162848 -0.267399467 0.963079991
    outer loop
      vertex 1.99460865 2.54453987 2.17617174
      vertex 1.99463637 2.54145639 2.17531651
      vertex 1.99585821 2.54169111 2.17542129
    endloop
  endfacet
  facet normal 0.562481362 -0.801192282 -0.2042196
    outer loop
      vertex 1.99991632 2.57645304 2.05022089
      vertex 2.00094792 2.57712145 2.05043991
      vertex 1.99688981 2.54235952 2.17564031
    endloop
  endfacet
  facet normal 0.562481362 -0.801192282 -0.2042196
    outer loop
      vertex 1.99991632 2.57645304 2.05022089
      vertex 1.99688981 2.54235952 2.17564031
      vertex 1.99585821 2.54169111 2.17542129
    endloop
  endfacet
  facet normal 0.0312162848 0.267399467 -0.963079991
    outer loop
      vertex 1.99866677 2.5793018 2.05097134
      vertex 2.00094792 2.57712145 2.05043991
      vertex 1.99991632 2.57645304 2.05022089
    endloop
  endfacet
  facet normal -0.0312162848 -0.267399467 0.963079991
    outer loop
      vertex 1.99460865 2.54453987 2.17617174
      vertex 1.99585821 2.54169111 2.17542129
      vertex 1.99688981 2.54235952 2.17564031
    endloop
  endfacet
  facet normal 0.835845902 -0.535339568 -0.121544952
    outer loop
      vertex 2.00094792 2.57712145 2.05043991
      vertex 2.00163224 2.5781218 2.05073984
      vertex 1.99757412 2.54335987 2.17594024
    endloop
  endfacet
  facet normal 0.835845902 -0.535339568 -0.121544952
    outer loop
      vertex 2.00094792 2.57712145 2.05043991
      vertex 1.99757412 2.54335987 2.17594024
      vertex 1.99688981 2.54235952 2.17564031
    endloop
  endfacet
  facet normal 0.0312162848 0.267399467 -0.963079991
    outer loop
      vertex 1.99866677 2.5793018 2.05097134
      vertex 2.00163224 2.5781218 2.05073984
      vertex 2.00094792 2.57712145 2.05043991
    endloop
  endfacet
  facet normal -0.0312162848 -0.267399467 0.963079991
    outer loop
      vertex 1.99460865 2.54453987 2.17617174
      vertex 1.99688981 2.54235952 2.17564031
      vertex 1.99757412 2.54335987 2.17594024
    endloop
  endfacet
  facet normal 0.981960481 -0.187986257 -0.0203661866
    outer loop
      vertex 2.00163224 2.5781218 2.05073984
      vertex 2.00186509 2.5793018 2.05107501
      vertex 1.99780697 2.54453987 2.17627541
    endloop
  endfacet
  facet normal 0.981960481 -0.187986257 -0.0203661866
    outer loop
      vertex 2.00163224 2.5781218 2.05073984
      vertex 1.99780697 2.54453987 2.17627541
      vertex 1.99757412 2.54335987 2.17594024
    endloop
  endfacet
  facet normal 0.0312162848 0.267399467 -0.963079991
    outer loop
      vertex 1.99866677 2.5793018 2.05097134
      vertex 2.00186509 2.5793018 2.05107501
      vertex 2.00163224 2.5781218 2.05073984
    endloop
  endfacet
  facet normal -0.0312162848 -0.267399467 0.963079991
    outer loop
      vertex 1.99460865 2.54453987 2.17617174
      vertex 1.99757412 2.54335987 2.17594024
      vertex 1.99780697 2.54453987 2.17627541
    endloop
  endfacet
  facet normal 0.978580478 0.187986257 0.0839131458
    outer loop
      vertex 2.00186509 2.5793018 2.05107501
      vertex 2.00161102 2.58048179 2.0513944
      vertex 1.99755291 2.54571986 2.1765948
    endloop
  endfacet
  facet normal 0.978580478 0.187986257 0.0839131458
    outer loop
      vertex 2.00186509 2.5793018 2.05107501
      vertex 1.99755291 2.54571986 2.1765948
      vertex 1.99780697 2.54453987 2.17627541
    endloop
  endfacet
  facet normal 0.0312162848 0.267399467 -0.963079991
    outer loop
      vertex 1.99866677 2.5793018 2.05097134
      vertex 2.00161102 2.58048179 2.0513944
      vertex 2.00186509 2.5793018 2.05107501
    endloop
  endfacet
  facet normal -0.0312162848 -0.267399467 0.963079991
    outer loop
      vertex 1.99460865 2.54453987 2.17617174
      vertex 1.99780697 2.54453987 2.17627541
      vertex 1.99755291 2.54571986 2.1765948
    endloop
  endfacet
  facet normal 0.826220468 0.535339568 0.175417463
    outer loop
      vertex 2.00161102 2.58048179 2.0513944
      vertex 2.00090872 2.58148214 2.05164939
      vertex 1.9968506 2.54672021 2.17684979
    endloop
  endfacet
  facet normal 0.826220468 0.535339568 0.175417463
    outer loop
      vertex 2.00161102 2.58048179 2.0513944
      vertex 1.9968506 2.54672021 2.17684979
      vertex 1.99755291 2.54571986 2.1765948
    endloop
  endfacet
  facet normal 0.0312162848 0.267399467 -0.963079991
    outer loop
      vertex 1.99866677 2.5793018 2.05097134
      vertex 2.00090872 2.58148214 2.05164939
      vertex 2.00161102 2.58048179 2.0513944
    endloop
  endfacet
  facet normal -0.0312162848 -0.267399467 0.963079991
    outer loop
      vertex 1.99460865 2.54453987 2.17617174
      vertex 1.99755291 2.54571986 2.1765948
      vertex 1.9968506 2.54672021 2.17684979
    endloop
  endfacet
  facet normal 0.548075881 0.801192282 0.240216061
    outer loop
      vertex 2.00090872 2.58148214 2.05164939
      vertex 1.9998651 2.58215056 2.05180115
      vertex 1.99580698 2.54738863 2.17700154
    endloop
  endfacet
  facet normal 0.548075881 0.801192282 0.240216061
    outer loop
      vertex 2.00090872 2.58148214 2.05164939
      vertex 1.99580698 2.54738863 2.17700154
      vertex 1.9968506 2.54672021 2.17684979
    endloop
  endfacet
  facet normal 0.0312162848 0.267399467 -0.963079991
    outer loop
      vertex 1.99866677 2.5793018 2.05097134
      vertex 1.9998651 2.58215056 2.05180115
      vertex 2.00090872 2.58148214 2.05164939
    endloop
  endfacet
  facet normal -0.0312162848 -0.267399467 0.963079991
    outer loop
      vertex 1.99460865 2.54453987 2.17617174
      vertex 1.9968506 2.54672021 2.17684979
      vertex 1.99580698 2.54738863 2.17700154
    endloop
  endfacet
  facet normal 0.18649171 0.945070734 0.268443941
    outer loop
      vertex 1.9998651 2.58215056 2.05180115
      vertex 1.99863905 2.58238527 2.05182657
      vertex 1.99458093 2.54762334 2.17702697
    endloop
  endfacet
  facet normal 0.18649171 0.945070734 0.268443941
    outer loop
      vertex 1.9998651 2.58215056 2.05180115
      vertex 1.99458093 2.54762334 2.17702697
      vertex 1.99580698 2.54738863 2.17700154
    endloop
  endfacet
  facet normal 0.0312162848 0.267399467 -0.963079991
    outer loop
      vertex 1.99866677 2.5793018 2.05097134
      vertex 1.99863905 2.58238527 2.05182657
      vertex 1.9998651 2.58215056 2.05180115
    endloop
  endfacet
  facet normal -0.0312162848 -0.267399467 0.963079991
    outer loop
      vertex 1.99460865 2.54453987 2.17617174
      vertex 1.99580698 2.54738863 2.17700154
      vertex 1.99458093 2.54762334 2.17702697
    endloop
  endfacet
  facet normal -0.203484133 0.945070734 0.255803665
    outer loop
      vertex 1.99863905 2.58238527 2.05182657
      vertex 1.99741721 2.58215056 2.0517218
      vertex 1.9933591 2.54738863 2.1769222
    endloop
  endfacet
  facet normal -0.203484133 0.945070734 0.255803665
    outer loop
      vertex 1.99863905 2.58238527 2.05182657
      vertex 1.9933591 2.54738863 2.1769222
      vertex 1.99458093 2.54762334 2.17702697
    endloop
  endfacet
  facet normal 0.0312162848 0.267399467 -0.963079991
    outer loop
      vertex 1.99866677 2.5793018 2.05097134
      vertex 1.99741721 2.58215056 2.0517218
      vertex 1.99863905 2.58238527 2.05182657
    endloop
  endfacet
  facet normal -0.0312162848 -0.267399467 0.963079991
    outer loop
      vertex 1.99460865 2.54453987 2.17617174
      vertex 1.99458093 2.54762334 2.17702697
      vertex 1.9933591 2.54738863 2.1769222
    endloop
  endfacet
  facet normal -0.562481362 0.801192282 0.2042196
    outer loop
      vertex 1.99741721 2.58215056 2.0517218
      vertex 1.99638561 2.58148214 2.05150278
      vertex 1.9923275 2.54672021 2.17670318
    endloop
  endfacet
  facet normal -0.562481362 0.801192282 0.2042196
    outer loop
      vertex 1.99741721 2.58215056 2.0517218
      vertex 1.9923275 2.54672021 2.17670318
      vertex 1.9933591 2.54738863 2.1769222
    endloop
  endfacet
  facet normal 0.0312162848 0.267399467 -0.963079991
    outer loop
      vertex 1.99866677 2.5793018 2.05097134
      vertex 1.99638561 2.58148214 2.05150278
      vertex 1.99741721 2.58215056 2.0517218
    endloop
  endfacet
  facet normal -0.0312162848 -0.267399467 0.963079991
    outer loop
      vertex 1.99460865 2.54453987 2.17617174
      vertex 1.9933591 2.54738863 2.1769222
      vertex 1.9923275 2.54672021 2.17670318
    endloop
  endfacet
  facet normal -0.835845902 0.535339568 0.121544952
    outer loop
      vertex 1.99638561 2.58148214 2.05150278
      vertex 1.9957013 2.58048179 2.05120285
      vertex 1.99164318 2.54571986 2.17640325
    endloop
  endfacet
  facet normal -0.835845902 0.535339568 0.121544952
    outer loop
      vertex 1.99638561 2.58148214 2.05150278
      vertex 1.99164318 2.54571986 2.17640325
      vertex 1.9923275 2.54672021 2.17670318
    endloop
  endfacet
  facet normal 0.0312162848 0.267399467 -0.963079991
    outer loop
      vertex 1.99866677 2.5793018 2.05097134
      vertex 1.9957013 2.58048179 2.05120285
      vertex 1.99638561 2.58148214 2.05150278
    endloop
  endfacet
  facet normal -0.0312162848 -0.267399467 0.963079991
    outer loop
      vertex 1.99460865 2.54453987 2.17617174
      vertex 1.9923275 2.54672021 2.17670318
      vertex 1.99164318 2.54571986 2.17640325
    endloop
  endfacet
  facet normal -0.981960481 0.187986257 0.0203661866
    outer loop
      vertex 1.9957013 2.58048179 2.05120285
      vertex 1.99546845 2.5793018 2.05086768
      vertex 1.99141033 2.54453987 2.17606808
    endloop
  endfacet
  facet normal -0.981960481 0.187986257 0.0203661866
    outer loop
      vertex 1.9957013 2.58048179 2.05120285
      vertex 1.99141033 2.54453987 2.17606808
      vertex 1.99164318 2.54571986 2.17640325
    endloop
  endfacet
  facet normal 0.0312162848 0.267399467 -0.963079991
    outer loop
      vertex 1.99866677 2.5793018 2.05097134
      vertex 1.99546845 2.5793018 2.05086768
      vertex 1.9957013 2.58048179 2.05120285
    endloop
  endfacet
  facet normal -0.0312162848 -0.267399467 0.963079991
    outer loop
      vertex 1.99460865 2.54453987 2.17617174
      vertex 1.99164318 2.54571986 2.17640325
      vertex 1.99141033 2.54453987 2.17606808
    endloop
  endfacet
  facet normal -0.978580478 -0.187986257 -0.0839131458
    outer loop
      vertex 1.98066349 2.60456287 2.05740155
      vertex 1.98091755 2.60338287 2.05708216
      vertex 1.97685943 2.56862094 2.18228256
    endloop
  endfacet
  facet normal -0.978580478 -0.187986257 -0.0839131458
    outer loop
      vertex 1.98066349 2.60456287 2.05740155
      vertex 1.97685943 2.56862094 2.18228256
      vertex 1.97660537 2.56980094 2.18260195
    endloop
  endfacet
  facet normal 0.0312162848 0.267399467 -0.963079991
    outer loop
      vertex 1.98386181 2.60456287 2.05750522
      vertex 1.98091755 2.60338287 2.05708216
      vertex 1.98066349 2.60456287 2.05740155
    endloop
  endfacet
  facet normal -0.0312162848 -0.267399467 0.963079991
    outer loop
      vertex 1.97980369 2.56980094 2.18270562
      vertex 1.97660537 2.56980094 2.18260195
      vertex 1.97685943 2.56862094 2.18228256
    endloop
  endfacet
  facet normal -0.826220468 -0.535339568 -0.175417463
    outer loop
      vertex 1.98091755 2.60338287 2.05708216
      vertex 1.98161985 2.60238252 2.05682717
      vertex 1.97756174 2.56762059 2.18202757
    endloop
  endfacet
  facet normal -0.826220468 -0.535339568 -0.175417463
    outer loop
      vertex 1.98091755 2.60338287 2.05708216
      vertex 1.97756174 2.56762059 2.18202757
      vertex 1.97685943 2.56862094 2.18228256
    endloop
  endfacet
  facet normal 0.0312162848 0.267399467 -0.963079991
    outer loop
      vertex 1.98386181 2.60456287 2.05750522
      vertex 1.98161985 2.60238252 2.05682717
      vertex 1.98091755 2.60338287 2.05708216
    endloop
  endfacet
  facet normal -0.0312162848 -0.267399467 0.963079991
    outer loop
      vertex 1.97980369 2.56980094 2.18270562
      vertex 1.97685943 2.56862094 2.18228256
      vertex 1.97756174 2.56762059 2.18202757
    endloop
  endfacet
  facet normal -0.548075881 -0.801192282 -0.240216061
    outer loop
      vertex 1.98161985 2.60238252 2.05682717
      vertex 1.98266347 2.60171411 2.05667542
      vertex 1.97860536 2.56695218 2.18187581
    endloop
  endfacet
  facet normal -0.548075881 -0.801192282 -0.240216061
    outer loop
      vertex 1.98161985 2.60238252 2.05682717
      vertex 1.97860536 2.56695218 2.18187581
      vertex 1.97756174 2.56762059 2.18202757
    endloop
  endfacet
  facet normal 0.0312162848 0.267399467 -0.963079991
    outer loop
      vertex 1.98386181 2.60456287 2.05750522
      vertex 1.98266347 2.60171411 2.05667542
      vertex 1.98161985 2.60238252 2.05682717
    endloop
  endfacet
  facet normal -0.0312162848 -0.267399467 0.963079991
    outer loop
      vertex 1.97980369 2.56980094 2.18270562
      vertex 1.97756174 2.56762059 2.18202757
      vertex 1.97860536 2.56695218 2.18187581
    endloop
  endfacet
  facet normal -0.18649171 -0.945070734 -0.268443941
    outer loop
      vertex 1.98266347 2.60171411 2.05667542
      vertex 1.98388953 2.60147939 2.05664999
      vertex 1.97983141 2.56671746 2.18185039
    endloop
  endfacet
  facet normal -0.18649171 -0.945070734 -0.268443941
    outer loop
      vertex 1.98266347 2.60171411 2.05667542
      vertex 1.97983141 2.56671746 2.18185039
      vertex 1.97860536 2.56695218 2.18187581
    endloop
  endfacet
  facet normal 0.0312162848 0.267399467 -0.963079991
    outer loop
      vertex 1.98386181 2.60456287 2.05750522
      vertex 1.98388953 2.60147939 2.05664999
      vertex 1.98266347 2.60171411 2.05667542
    endloop
  endfacet
  facet normal -0.0312162848 -0.267399467 0.963079991
    outer loop
      vertex 1.97980369 2.56980094 2.18270562
      vertex 1.97860536 2.56695218 2.18187581
      vertex 1.97983141 2.56671746 2.18185039
    endloop
  endfacet
  facet normal 0.203484133 -0.945070734 -0.255803665
    outer loop
      vertex 1.98388953 2.60147939 2.05664999
      vertex 1.98511136 2.60171411 2.05675476
      vertex 1.98105324 2.56695218 2.18195516
    endloop
  endfacet
  facet normal 0.203484133 -0.945070734 -0.255803665
    outer loop
      vertex 1.98388953 2.60147939 2.05664999
      vertex 1.98105324 2.56695218 2.18195516
      vertex 1.97983141 2.56671746 2.18185039
    endloop
  endfacet
  facet normal 0.0312162848 0.267399467 -0.963079991
    outer loop
      vertex 1.98386181 2.60456287 2.05750522
      vertex 1.98511136 2.60171411 2.05675476
      vertex 1.98388953 2.60147939 2.05664999
    endloop
  endfacet
  facet normal -0.0312162848 -0.267399467 0.963079991
    outer loop
      vertex 1.97980369 2.56980094 2.18270562
      vertex 1.97983141 2.56671746 2.18185039
      vertex 1.98105324 2.56695218 2.18195516
    endloop
  endfacet
  facet normal 0.562481362 -0.801192282 -0.2042196
    outer loop
      vertex 1.98511136 2.60171411 2.05675476
      vertex 1.98614296 2.60238252 2.05697378
      vertex 1.98208484 2.56762059 2.18217418
    endloop
  endfacet
  facet normal 0.562481362 -0.801192282 -0.2042196
    outer loop
      vertex 1.98511136 2.60171411 2.05675476
      vertex 1.98208484 2.56762059 2.18217418
      vertex 1.98105324 2.56695218 2.18195516
    endloop
  endfacet
  facet normal 0.0312162848 0.267399467 -0.963079991
    outer loop
      vertex 1.98386181 2.60456287 2.05750522
      vertex 1.98614296 2.60238252 2.05697378
      vertex 1.98511136 2.60171411 2.05675476
    endloop
  endfacet
  facet normal -0.0312162848 -0.267399467 0.963079991
    outer loop
      vertex 1.97980369 2.56980094 2.18270562
      vertex 1.98105324 2.56695218 2.18195516
      vertex 1.98208484 2.56762059 2.18217418
    endloop
  endfacet
  facet normal 0.835845902 -0.535339568 -0.121544952
    outer loop
      vertex 1.98614296 2.60238252 2.05697378
      vertex 1.98682728 2.60338287 2.05727371
      vertex 1.98276916 2.56862094 2.18247411
    endloop
  endfacet
  facet normal 0.835845902 -0.535339568 -0.121544952
    outer loop
      vertex 1.98614296 2.60238252 2.05697378
      vertex 1.98276916 2.56862094 2.18247411
      vertex 1.98208484 2.56762059 2.18217418
    endloop
  endfacet
  facet normal 0.0312162848 0.267399467 -0.963079991
    outer loop
      vertex 1.98386181 2.60456287 2.05750522
      vertex 1.98682728 2.60338287 2.05727371
      vertex 1.98614296 2.60238252 2.05697378
    endloop
  endfacet
  facet normal -0.0312162848 -0.267399467 0.963079991
    outer loop
      vertex 1.97980369 2.56980094 2.18270562
      vertex 1.98208484 2.56762059 2.18217418
      vertex 1.98276916 2.56862094 2.18247411
    endloop
  endfacet
  facet normal 0.981960481 -0.187986257 -0.0203661866
    outer loop
      vertex 1.98682728 2.60338287 2.05727371
      vertex 1.98706013 2.60456287 2.05760888
      vertex 1.98300201 2.56980094 2.18280928
    endloop
  endfacet
  facet normal 0.981960481 -0.187986257 -0.0203661866
    outer loop
      vertex 1.98682728 2.60338287 2.05727371
      vertex 1.98300201 2.56980094 2.18280928
      vertex 1.98276916 2.56862094 2.18247411
    endloop
  endfacet
  facet normal 0.0312162848 0.267399467 -0.963079991
    outer loop
      vertex 1.98386181 2.60456287 2.05750522
      vertex 1.98706013 2.60456287 2.05760888
      vertex 1.98682728 2.60338287 2.05727371
    endloop
  endfacet
  facet normal -0.0312162848 -0.267399467 0.963079991
    outer loop
      vertex 1.97980369 2.56980094 2.18270562
      vertex 1.98276916 2.56862094 2.18247411
      vertex 1.98300201 2.56980094 2.18280928
    endloop
  endfacet
  facet normal 0.978580478 0.187986257 0.0839131458
    outer loop
      vertex 1.98706013 2.60456287 2.05760888
      vertex 1.98680606 2.60574286 2.05792827
      vertex 1.98274794 2.57098093 2.18312867
    endloop
  endfacet
  facet normal 0.978580478 0.187986257 0.0839131458
    outer loop
      vertex 1.98706013 2.60456287 2.05760888
      vertex 1.98274794 2.57098093 2.18312867
      vertex 1.98300201 2.56980094 2.18280928
    endloop
  endfacet
  facet normal 0.0312162848 0.267399467 -0.963079991
    outer loop
      vertex 1.98386181 2.60456287 2.05750522
      vertex 1.98680606 2.60574286 2.05792827
      vertex 1.98706013 2.60456287 2.05760888
    endloop
  endfacet
  facet normal -0.0312162848 -0.267399467 0.963079991
    outer loop
      vertex 1.97980369 2.56980094 2.18270562
      vertex 1.98300201 2.56980094 2.18280928
      vertex 1.98274794 2.57098093 2.18312867
    endloop
  endfacet
  facet normal 0.826220468 0.535339568 0.175417463
    outer loop
      vertex 1.98680606 2.60574286 2.05792827
      vertex 1.98610376 2.60674321 2.05818326
      vertex 1.98204564 2.57198128 2.18338366
    endloop
  endfacet
  facet normal 0.826220468 0.535339568 0.175417463
    outer loop
      vertex 1.98680606 2.60574286 2.05792827
      vertex 1.98204564 2.57198128 2.18338366
      vertex 1.98274794 2.57098093 2.18312867
    endloop
  endfacet
  facet normal 0.0312162848 0.267399467 -0.963079991
    outer loop
      vertex 1.98386181 2.60456287 2.05750522
      vertex 1.98610376 2.60674321 2.05818326
      vertex 1.98680606 2.60574286 2.05792827
    endloop
  endfacet
  facet normal -0.0312162848 -0.267399467 0.963079991
    outer loop
      vertex 1.97980369 2.56980094 2.18270562
      vertex 1.98274794 2.57098093 2.18312867
      vertex 1.98204564 2.57198128 2.18338366
    endloop
  endfacet
  facet normal 0.548075881 0.801192282 0.240216061
    outer loop
      vertex 1.98610376 2.60674321 2.05818326
      vertex 1.98506014 2.60741163 2.05833502
      vertex 1.98100202 2.57264969 2.18353542
    endloop
  endfacet
  facet normal 0.548075881 0.801192282 0.240216061
    outer loop
      vertex 1.98610376 2.60674321 2.05818326
      vertex 1.98100202 2.57264969 2.18353542
      vertex 1.98204564 2.57198128 2.18338366
    endloop
  endfacet
  facet normal 0.0312162848 0.267399467 -0.963079991
    outer loop
      vertex 1.98386181 2.60456287 2.05750522
      vertex 1.98506014 2.60741163 2.05833502
      vertex 1.98610376 2.60674321 2.05818326
    endloop
  endfacet
  facet normal -0.0312162848 -0.267399467 0.963079991
    outer loop
      vertex 1.97980369 2.56980094 2.18270562
      vertex 1.98204564 2.57198128 2.18338366
      vertex 1.98100202 2.57264969 2.18353542
    endloop
  endfacet
  facet normal 0.18649171 0.945070734 0.268443941
    outer loop
      vertex 1.98506014 2.60741163 2.05833502
      vertex 1.98383409 2.60764634 2.05836045
      vertex 1.97977597 2.57288441 2.18356084
    endloop
  endfacet
  facet normal 0.18649171 0.945070734 0.268443941
    outer loop
      vertex 1.98506014 2.60741163 2.05833502
      vertex 1.97977597 2.57288441 2.18356084
      vertex 1.98100202 2.57264969 2.18353542
    endloop
  endfacet
  facet normal 0.0312162848 0.267399467 -0.963079991
    outer loop
      vertex 1.98386181 2.60456287 2.05750522
      vertex 1.98383409 2.60764634 2.05836045
      vertex 1.98506014 2.60741163 2.05833502
    endloop
  endfacet
  facet normal -0.0312162848 -0.267399467 0.963079991
    outer loop
      vertex 1.97980369 2.56980094 2.18270562
      vertex 1.98100202 2.57264969 2.18353542
      vertex 1.97977597 2.57288441 2.18356084
    endloop
  endfacet
  facet normal -0.203484133 0.945070734 0.255803665
    outer loop
      vertex 1.98383409 2.60764634 2.05836045
      vertex 1.98261225 2.60741163 2.05825567
      vertex 1.97855413 2.57264969 2.18345607
    endloop
  endfacet
  facet normal -0.203484133 0.945070734 0.255803665
    outer loop
      vertex 1.98383409 2.60764634 2.05836045
      vertex 1.97855413 2.57264969 2.18345607
      vertex 1.97977597 2.57288441 2.18356084
    endloop
  endfacet
  facet normal 0.0312162848 0.267399467 -0.963079991
    outer loop
      vertex 1.98386181 2.60456287 2.05750522
      vertex 1.98261225 2.60741163 2.05825567
      vertex 1.98383409 2.60764634 2.05836045
    endloop
  endfacet
  facet normal -0.0312162848 -0.267399467 0.963079991
    outer loop
      vertex 1.97980369 2.56980094 2.18270562
      vertex 1.97977597 2.57288441 2.18356084
      vertex 1.97855413 2.57264969 2.18345607
    endloop
  endfacet
  facet normal -0.562481362 0.801192282 0.2042196
    outer loop
      vertex 1.98261225 2.60741163 2.05825567
      vertex 1.98158065 2.60674321 2.05803665
      vertex 1.97752253 2.57198128 2.18323705
    endloop
  endfacet
  facet normal -0.562481362 0.801192282 0.2042196
    outer loop
      vertex 1.98261225 2.60741163 2.05825567
      vertex 1.97752253 2.57198128 2.18323705
      vertex 1.97855413 2.57264969 2.18345607
    endloop
  endfacet
  facet normal 0.0312162848 0.267399467 -0.963079991
    outer loop
      vertex 1.98386181 2.60456287 2.05750522
      vertex 1.98158065 2.60674321 2.05803665
      vertex 1.98261225 2.60741163 2.05825567
    endloop
  endfacet
  facet normal -0.0312162848 -0.267399467 0.963079991
    outer loop
      vertex 1.97980369 2.56980094 2.18270562
      vertex 1.97855413 2.57264969 2.18345607
      vertex 1.97752253 2.57198128 2.18323705
    endloop
  endfacet
  facet normal -0.835845902 0.535339568 0.121544952
    outer loop
      vertex 1.98158065 2.60674321 2.05803665
      vertex 1.98089634 2.60574286 2.05773672
      vertex 1.97683822 2.57098093 2.18293712
    endloop
  endfacet
  facet normal -0.835845902 0.535339568 0.121544952
    outer loop
      vertex 1.98158065 2.60674321 2.05803665
      vertex 1.97683822 2.57098093 2.18293712
      vertex 1.97752253 2.57198128 2.18323705
    endloop
  endfacet
  facet normal 0.0312162848 0.267399467 -0.963079991
    outer loop
      vertex 1.98386181 2.60456287 2.05750522
      vertex 1.98089634 2.60574286 2.05773672
      vertex 1.98158065 2.60674321 2.05803665
    endloop
  endfacet
  facet normal -0.0312162848 -0.267399467 0.963079991
    outer loop
      vertex 1.97980369 2.56980094 2.18270562
      vertex 1.97752253 2.57198128 2.18323705
      vertex 1.97683822 2.57098093 2.18293712
    endloop
  endfacet
  facet normal -0.981960481 0.187986257 0.0203661866
    outer loop
      vertex 1.98089634 2.60574286 2.05773672
      vertex 1.98066349 2.60456287 2.05740155
      vertex 1.97660537 2.56980094 2.18260195
    endloop
  endfacet
  facet normal -0.981960481 0.187986257 0.0203661866
    outer loop
      vertex 1.98089634 2.60574286 2.05773672
      vertex 1.97660537 2.56980094 2.18260195
      vertex 1.97683822 2.57098093 2.18293712
    endloop
  endfacet
  facet normal 0.0312162848 0.267399467 -0.963079991
    outer loop
      vertex 1.98386181 2.60456287 2.05750522
      vertex 1.98066349 2.60456287 2.05740155
      vertex 1.98089634 2.60574286 2.05773672
    endloop
  endfacet
  facet normal -0.0312162848 -0.267399467 0.963079991
    outer loop
      vertex 1.97980369 2.56980094 2.18270562
      vertex 1.97683822 2.57098093 2.18293712
      vertex 1.97660537 2.56980094 2.18260195
    endloop
  endfacet
  facet normal -0.950390624 0.245917439 -0.190479067
    outer loop
      vertex 2.23646704 2.58268368 2.12696614
      vertex 2.2367605 2.58289169 2.12577049
      vertex 2.20619692 2.43966182 2.09335024
    endloop
  endfacet
  facet normal -0.950390624 0.245917439 -0.190479067
    outer loop
      vertex 2.23646704 2.58268368 2.12696614
      vertex 2.20619692 2.43966182 2.09335024
      vertex 2.20590346 2.43945381 2.09454589
    endloop
  endfacet
  facet normal 0.203757223 0.954865779 0.216134997
    outer loop
      vertex 2.23959659 2.58201587 2.12696614
      vertex 2.2367605 2.58289169 2.12577049
      vertex 2.23646704 2.58268368 2.12696614
    endloop
  endfacet
  facet normal -0.203757223 -0.954865779 -0.216134997
    outer loop
      vertex 2.209033 2.438786 2.09454589
      vertex 2.20590346 2.43945381 2.09454589
      vertex 2.20619692 2.43966182 2.09335024
    endloop
  endfacet
  facet normal -0.788103092 0.290953604 -0.542438491
    outer loop
      vertex 2.2367605 2.58289169 2.12577049
      vertex 2.23748573 2.58296637 2.12475688
      vertex 2.20692214 2.4397365 2.09233663
    endloop
  endfacet
  facet normal -0.788103092 0.290953604 -0.542438491
    outer loop
      vertex 2.2367605 2.58289169 2.12577049
      vertex 2.20692214 2.4397365 2.09233663
      vertex 2.20619692 2.43966182 2.09335024
    endloop
  endfacet
  facet normal 0.203757223 0.954865779 0.216134997
    outer loop
      vertex 2.23959659 2.58201587 2.12696614
      vertex 2.23748573 2.58296637 2.12475688
      vertex 2.2367605 2.58289169 2.12577049
    endloop
  endfacet
  facet normal -0.203757223 -0.954865779 -0.216134997
    outer loop
      vertex 2.209033 2.438786 2.09454589
      vertex 2.20619692 2.43966182 2.09335024
      vertex 2.20692214 2.4397365 2.09233663
    endloop
  endfacet
  facet normal -0.505834009 0.29169472 -0.811816572
    outer loop
      vertex 2.23748573 2.58296637 2.12475688
      vertex 2.23853231 2.58289634 2.1240796
      vertex 2.20796873 2.43966648 2.09165935
    endloop
  endfacet
  facet normal -0.505834009 0.29169472 -0.811816572
    outer loop
      vertex 2.23748573 2.58296637 2.12475688
      vertex 2.20796873 2.43966648 2.09165935
      vertex 2.20692214 2.4397365 2.09233663
    endloop
  endfacet
  facet normal 0.203757223 0.954865779 0.216134997
    outer loop
      vertex 2.23959659 2.58201587 2.12696614
      vertex 2.23853231 2.58289634 2.1240796
      vertex 2.23748573 2.58296637 2.12475688
    endloop
  endfacet
  facet normal -0.203757223 -0.954865779 -0.216134997
    outer loop
      vertex 2.209033 2.438786 2.09454589
      vertex 2.20692214 2.4397365 2.09233663
      vertex 2.20796873 2.43966648 2.09165935
    endloop
  endfacet
  facet normal -0.146556283 0.248027959 -0.957602938
    outer loop
      vertex 2.23853231 2.58289634 2.1240796
      vertex 2.23974092 2.58269227 2.12384177
      vertex 2.20917734 2.43946241 2.09142152
    endloop
  endfacet
  facet normal -0.146556283 0.248027959 -0.957602938
    outer loop
      vertex 2.23853231 2.58289634 2.1240796
      vertex 2.20917734 2.43946241 2.09142152
      vertex 2.20796873 2.43966648 2.09165935
    endloop
  endfacet
  facet normal 0.203757223 0.954865779 0.216134997
    outer loop
      vertex 2.23959659 2.58201587 2.12696614
      vertex 2.23974092 2.58269227 2.12384177
      vertex 2.23853231 2.58289634 2.1240796
    endloop
  endfacet
  facet normal -0.203757223 -0.954865779 -0.216134997
    outer loop
      vertex 2.209033 2.438786 2.09454589
      vertex 2.20796873 2.43966648 2.09165935
      vertex 2.20917734 2.43946241 2.09142152
    endloop
  endfacet
  facet normal 0.235033308 0.166601189 -0.957602938
    outer loop
      vertex 2.23974092 2.58269227 2.12384177
      vertex 2.24092756 2.58238523 2.1240796
      vertex 2.21036398 2.43915536 2.09165935
    endloop
  endfacet
  facet normal 0.235033308 0.166601189 -0.957602938
    outer loop
      vertex 2.23974092 2.58269227 2.12384177
      vertex 2.21036398 2.43915536 2.09165935
      vertex 2.20917734 2.43946241 2.09142152
    endloop
  endfacet
  facet normal 0.203757223 0.954865779 0.216134997
    outer loop
      vertex 2.23959659 2.58201587 2.12696614
      vertex 2.24092756 2.58238523 2.1240796
      vertex 2.23974092 2.58269227 2.12384177
    endloop
  endfacet
  facet normal -0.203757223 -0.954865779 -0.216134997
    outer loop
      vertex 2.209033 2.438786 2.09454589
      vertex 2.20917734 2.43946241 2.09142152
      vertex 2.21036398 2.43915536 2.09165935
    endloop
  endfacet
  facet normal 0.580841209 0.0598108989 -0.811816572
    outer loop
      vertex 2.24092756 2.58238523 2.1240796
      vertex 2.24191157 2.58202195 2.12475688
      vertex 2.21134798 2.43879208 2.09233663
    endloop
  endfacet
  facet normal 0.580841209 0.0598108989 -0.811816572
    outer loop
      vertex 2.24092756 2.58238523 2.1240796
      vertex 2.21134798 2.43879208 2.09233663
      vertex 2.21036398 2.43915536 2.09165935
    endloop
  endfacet
  facet normal 0.203757223 0.954865779 0.216134997
    outer loop
      vertex 2.23959659 2.58201587 2.12696614
      vertex 2.24191157 2.58202195 2.12475688
      vertex 2.24092756 2.58238523 2.1240796
    endloop
  endfacet
  facet normal -0.203757223 -0.954865779 -0.216134997
    outer loop
      vertex 2.209033 2.438786 2.09454589
      vertex 2.21036398 2.43915536 2.09165935
      vertex 2.21134798 2.43879208 2.09233663
    endloop
  endfacet
  facet normal 0.838221301 -0.0560850584 -0.542438491
    outer loop
      vertex 2.24191157 2.58202195 2.12475688
      vertex 2.24254314 2.58165774 2.12577049
      vertex 2.21197956 2.43842788 2.09335024
    endloop
  endfacet
  facet normal 0.838221301 -0.0560850584 -0.542438491
    outer loop
      vertex 2.24191157 2.58202195 2.12475688
      vertex 2.21197956 2.43842788 2.09335024
      vertex 2.21134798 2.43879208 2.09233663
    endloop
  endfacet
  facet normal 0.203757223 0.954865779 0.216134997
    outer loop
      vertex 2.23959659 2.58201587 2.12696614
      vertex 2.24254314 2.58165774 2.12577049
      vertex 2.24191157 2.58202195 2.12475688
    endloop
  endfacet
  facet normal -0.203757223 -0.954865779 -0.216134997
    outer loop
      vertex 2.209033 2.438786 2.09454589
      vertex 2.21134798 2.43879208 2.09233663
      vertex 2.21197956 2.43842788 2.09335024
    endloop
  endfacet
  facet normal 0.967989798 -0.163442574 -0.190479067
    outer loop
      vertex 2.24254314 2.58165774 2.12577049
      vertex 2.24272613 2.58134806 2.12696614
      vertex 2.21216254 2.43811819 2.09454589
    endloop
  endfacet
  facet normal 0.967989798 -0.163442574 -0.190479067
    outer loop
      vertex 2.24254314 2.58165774 2.12577049
      vertex 2.21216254 2.43811819 2.09454589
      vertex 2.21197956 2.43842788 2.09335024
    endloop
  endfacet
  facet normal 0.203757223 0.954865779 0.216134997
    outer loop
      vertex 2.23959659 2.58201587 2.12696614
      vertex 2.24272613 2.58134806 2.12696614
      vertex 2.24254314 2.58165774 2.12577049
    endloop
  endfacet
  facet normal -0.203757223 -0.954865779 -0.216134997
    outer loop
      vertex 2.209033 2.438786 2.09454589
      vertex 2.21197956 2.43842788 2.09335024
      vertex 2.21216254 2.43811819 2.09454589
    endloop
  endfacet
  facet normal 0.950390624 -0.245917439 0.190479067
    outer loop
      vertex 2.24272613 2.58134806 2.12696614
      vertex 2.24243267 2.58114005 2.12816178
      vertex 2.21186909 2.43791018 2.09574153
    endloop
  endfacet
  facet normal 0.950390624 -0.245917439 0.190479067
    outer loop
      vertex 2.24272613 2.58134806 2.12696614
      vertex 2.21186909 2.43791018 2.09574153
      vertex 2.21216254 2.43811819 2.09454589
    endloop
  endfacet
  facet normal 0.203757223 0.954865779 0.216134997
    outer loop
      vertex 2.23959659 2.58201587 2.12696614
      vertex 2.24243267 2.58114005 2.12816178
      vertex 2.24272613 2.58134806 2.12696614
    endloop
  endfacet
  facet normal -0.203757223 -0.954865779 -0.216134997
    outer loop
      vertex 2.209033 2.438786 2.09454589
      vertex 2.21216254 2.43811819 2.09454589
      vertex 2.21186909 2.43791018 2.09574153
    endloop
  endfacet
  facet normal 0.788103092 -0.290953604 0.542438491
    outer loop
      vertex 2.24243267 2.58114005 2.12816178
      vertex 2.24170745 2.58106537 2.12917539
      vertex 2.21114386 2.4378355 2.09675515
    endloop
  endfacet
  facet normal 0.788103092 -0.290953604 0.542438491
    outer loop
      vertex 2.24243267 2.58114005 2.12816178
      vertex 2.21114386 2.4378355 2.09675515
      vertex 2.21186909 2.43791018 2.09574153
    endloop
  endfacet
  facet normal 0.203757223 0.954865779 0.216134997
    outer loop
      vertex 2.23959659 2.58201587 2.12696614
      vertex 2.24170745 2.58106537 2.12917539
      vertex 2.24243267 2.58114005 2.12816178
    endloop
  endfacet
  facet normal -0.203757223 -0.954865779 -0.216134997
    outer loop
      vertex 2.209033 2.438786 2.09454589
      vertex 2.21186909 2.43791018 2.09574153
      vertex 2.21114386 2.4378355 2.09675515
    endloop
  endfacet
  facet normal 0.505834009 -0.29169472 0.811816572
    outer loop
      vertex 2.24170745 2.58106537 2.12917539
      vertex 2.24066086 2.5811354 2.12985267
      vertex 2.21009728 2.43790553 2.09743242
    endloop
  endfacet
  facet normal 0.505834009 -0.29169472 0.811816572
    outer loop
      vertex 2.24170745 2.58106537 2.12917539
      vertex 2.21009728 2.43790553 2.09743242
      vertex 2.21114386 2.4378355 2.09675515
    endloop
  endfacet
  facet normal 0.203757223 0.954865779 0.216134997
    outer loop
      vertex 2.23959659 2.58201587 2.12696614
      vertex 2.24066086 2.5811354 2.12985267
      vertex 2.24170745 2.58106537 2.12917539
    endloop
  endfacet
  facet normal -0.203757223 -0.954865779 -0.216134997
    outer loop
      vertex 2.209033 2.438786 2.09454589
      vertex 2.21114386 2.4378355 2.09675515
      vertex 2.21009728 2.43790553 2.09743242
    endloop
  endfacet
  facet normal 0.146556283 -0.248027959 0.957602938
    outer loop
      vertex 2.24066086 2.5811354 2.12985267
      vertex 2.23945225 2.58133947 2.1300905
      vertex 2.20888867 2.4381096 2.09767025
    endloop
  endfacet
  facet normal 0.146556283 -0.248027959 0.957602938
    outer loop
      vertex 2.24066086 2.5811354 2.12985267
      vertex 2.20888867 2.4381096 2.09767025
      vertex 2.21009728 2.43790553 2.09743242
    endloop
  endfacet
  facet normal 0.203757223 0.954865779 0.216134997
    outer loop
      vertex 2.23959659 2.58201587 2.12696614
      vertex 2.23945225 2.58133947 2.1300905
      vertex 2.24066086 2.5811354 2.12985267
    endloop
  endfacet
  facet normal -0.203757223 -0.954865779 -0.216134997
    outer loop
      vertex 2.209033 2.438786 2.09454589
      vertex 2.21009728 2.43790553 2.09743242
      vertex 2.20888867 2.4381096 2.09767025
    endloop
  endfacet
  facet normal -0.235033308 -0.166601189 0.957602938
    outer loop
      vertex 2.23945225 2.58133947 2.1300905
      vertex 2.23826561 2.58164651 2.12985267
      vertex 2.20770203 2.43841665 2.09743242
    endloop
  endfacet
  facet normal -0.235033308 -0.166601189 0.957602938
    outer loop
      vertex 2.23945225 2.58133947 2.1300905
      vertex 2.20770203 2.43841665 2.09743242
      vertex 2.20888867 2.4381096 2.09767025
    endloop
  endfacet
  facet normal 0.203757223 0.954865779 0.216134997
    outer loop
      vertex 2.23959659 2.58201587 2.12696614
      vertex 2.23826561 2.58164651 2.12985267
      vertex 2.23945225 2.58133947 2.1300905
    endloop
  endfacet
  facet normal -0.203757223 -0.954865779 -0.216134997
    outer loop
      vertex 2.209033 2.438786 2.09454589
      vertex 2.20888867 2.4381096 2.09767025
      vertex 2.20770203 2.43841665 2.09743242
    endloop
  endfacet
  facet normal -0.580841209 -0.0598108989 0.811816572
    outer loop
      vertex 2.23826561 2.58164651 2.12985267
      vertex 2.2372816 2.58200979 2.12917539
      vertex 2.20671802 2.43877992 2.09675515
    endloop
  endfacet
  facet normal -0.580841209 -0.0598108989 0.811816572
    outer loop
      vertex 2.23826561 2.58164651 2.12985267
      vertex 2.20671802 2.43877992 2.09675515
      vertex 2.20770203 2.43841665 2.09743242
    endloop
  endfacet
  facet normal 0.203757223 0.954865779 0.216134997
    outer loop
      vertex 2.23959659 2.58201587 2.12696614
      vertex 2.2372816 2.58200979 2.12917539
      vertex 2.23826561 2.58164651 2.12985267
    endloop
  endfacet
  facet normal -0.203757223 -0.954865779 -0.216134997
    outer loop
      vertex 2.209033 2.438786 2.09454589
      vertex 2.20770203 2.43841665 2.09743242
      vertex 2.20671802 2.43877992 2.09675515
    endloop
  endfacet
  facet normal -0.838221301 0.0560850584 0.542438491
    outer loop
      vertex 2.2372816 2.58200979 2.12917539
      vertex 2.23665003 2.58237399 2.12816178
      vertex 2.20608645 2.43914413 2.09574153
    endloop
  endfacet
  facet normal -0.838221301 0.0560850584 0.542438491
    outer loop
      vertex 2.2372816 2.58200979 2.12917539
      vertex 2.20608645 2.43914413 2.09574153
      vertex 2.20671802 2.43877992 2.09675515
    endloop
  endfacet
  facet normal 0.203757223 0.954865779 0.216134997
    outer loop
      vertex 2.23959659 2.58201587 2.12696614
      vertex 2.23665003 2.58237399 2.12816178
      vertex 2.2372816 2.58200979 2.12917539
    endloop
  endfacet
  facet normal -0.203757223 -0.954865779 -0.216134997
    outer loop
      vertex 2.209033 2.438786 2.09454589
      vertex 2.20671802 2.43877992 2.09675515
      vertex 2.20608645 2.43914413 2.09574153
    endloop
  endfacet
  facet normal -0.967989798 0.163442574 0.190479067
    outer loop
      vertex 2.23665003 2.58237399 2.12816178
      vertex 2.23646704 2.58268368 2.12696614
      vertex 2.20590346 2.43945381 2.09454589
    endloop
  endfacet
  facet normal -0.967989798 0.163442574 0.190479067
    outer loop
      vertex 2.23665003 2.58237399 2.12816178
      vertex 2.20590346 2.43945381 2.09454589
      vertex 2.20608645 2.43914413 2.09574153
    endloop
  endfacet
  facet normal 0.203757223 0.954865779 0.216134997
    outer loop
      vertex 2.23959659 2.58201587 2.12696614
      vertex 2.23646704 2.58268368 2.12696614
      vertex 2.23665003 2.58237399 2.12816178
    endloop
  endfacet
  facet normal -0.203757223 -0.954865779 -0.216134997
    outer loop
      vertex 2.209033 2.438786 2.09454589
      vertex 2.20608645 2.43914413 2.09574153
      vertex 2.20590346 2.43945381 2.09454589
    endloop
  endfacet
  facet normal -0.950390624 0.245917439 -0.190479067
    outer loop
      vertex 2.2357192 2.57621464 2.15625081
      vertex 2.23601266 2.57642265 2.15505517
      vertex 2.20544908 2.43319278 2.12263492
    endloop
  endfacet
  facet normal -0.950390624 0.245917439 -0.190479067
    outer loop
      vertex 2.2357192 2.57621464 2.15625081
      vertex 2.20544908 2.43319278 2.12263492
      vertex 2.20515562 2.43298477 2.12383056
    endloop
  endfacet
  facet normal 0.203757223 0.954865779 0.216134997
    outer loop
      vertex 2.23884875 2.57554683 2.15625081
      vertex 2.23601266 2.57642265 2.15505517
      vertex 2.2357192 2.57621464 2.15625081
    endloop
  endfacet
  facet normal -0.203757223 -0.954865779 -0.216134997
    outer loop
      vertex 2.20828516 2.43231696 2.12383056
      vertex 2.20515562 2.43298477 2.12383056
      vertex 2.20544908 2.43319278 2.12263492
    endloop
  endfacet
  facet normal -0.788103092 0.290953604 -0.542438491
    outer loop
      vertex 2.23601266 2.57642265 2.15505517
      vertex 2.23673789 2.57649733 2.15404155
      vertex 2.2061743 2.43326746 2.1216213
    endloop
  endfacet
  facet normal -0.788103092 0.290953604 -0.542438491
    outer loop
      vertex 2.23601266 2.57642265 2.15505517
      vertex 2.2061743 2.43326746 2.1216213
      vertex 2.20544908 2.43319278 2.12263492
    endloop
  endfacet
  facet normal 0.203757223 0.954865779 0.216134997
    outer loop
      vertex 2.23884875 2.57554683 2.15625081
      vertex 2.23673789 2.57649733 2.15404155
      vertex 2.23601266 2.57642265 2.15505517
    endloop
  endfacet
  facet normal -0.203757223 -0.954865779 -0.216134997
    outer loop
      vertex 2.20828516 2.43231696 2.12383056
      vertex 2.20544908 2.43319278 2.12263492
      vertex 2.2061743 2.43326746 2.1216213
    endloop
  endfacet
  facet normal -0.505834009 0.29169472 -0.811816572
    outer loop
      vertex 2.23673789 2.57649733 2.15404155
      vertex 2.23778447 2.5764273 2.15336428
      vertex 2.20722089 2.43319744 2.12094403
    endloop
  endfacet
  facet normal -0.505834009 0.29169472 -0.811816572
    outer loop
      vertex 2.23673789 2.57649733 2.15404155
      vertex 2.20722089 2.43319744 2.12094403
      vertex 2.2061743 2.43326746 2.1216213
    endloop
  endfacet
  facet normal 0.203757223 0.954865779 0.216134997
    outer loop
      vertex 2.23884875 2.57554683 2.15625081
      vertex 2.23778447 2.5764273 2.15336428
      vertex 2.23673789 2.57649733 2.15404155
    endloop
  endfacet
  facet normal -0.203757223 -0.954865779 -0.216134997
    outer loop
      vertex 2.20828516 2.43231696 2.12383056
      vertex 2.2061743 2.43326746 2.1216213
      vertex 2.20722089 2.43319744 2.12094403
    endloop
  endfacet
  facet normal -0.146556283 0.248027959 -0.957602938
    outer loop
      vertex 2.23778447 2.5764273 2.15336428
      vertex 2.23899308 2.57622323 2.15312645
      vertex 2.2084295 2.43299337 2.1207062
    endloop
  endfacet
  facet normal -0.146556283 0.248027959 -0.957602938
    outer loop
      vertex 2.23778447 2.5764273 2.15336428
      vertex 2.2084295 2.43299337 2.1207062
      vertex 2.20722089 2.43319744 2.12094403
    endloop
  endfacet
  facet normal 0.203757223 0.954865779 0.216134997
    outer loop
      vertex 2.23884875 2.57554683 2.15625081
      vertex 2.23899308 2.57622323 2.15312645
      vertex 2.23778447 2.5764273 2.15336428
    endloop
  endfacet
  facet normal -0.203757223 -0.954865779 -0.216134997
    outer loop
      vertex 2.20828516 2.43231696 2.12383056
      vertex 2.20722089 2.43319744 2.12094403
      vertex 2.2084295 2.43299337 2.1207062
    endloop
  endfacet
  facet normal 0.235033308 0.166601189 -0.957602938
    outer loop
      vertex 2.23899308 2.57622323 2.15312645
      vertex 2.24017972 2.57591619 2.15336428
      vertex 2.20961614 2.43268632 2.12094403
    endloop
  endfacet
  facet normal 0.235033308 0.166601189 -0.957602938
    outer loop
      vertex 2.23899308 2.57622323 2.15312645
      vertex 2.20961614 2.43268632 2.12094403
      vertex 2.2084295 2.43299337 2.1207062
    endloop
  endfacet
  facet normal 0.203757223 0.954865779 0.216134997
    outer loop
      vertex 2.23884875 2.57554683 2.15625081
      vertex 2.24017972 2.57591619 2.15336428
      vertex 2.23899308 2.57622323 2.15312645
    endloop
  endfacet
  facet normal -0.203757223 -0.954865779 -0.216134997
    outer loop
      vertex 2.20828516 2.43231696 2.12383056
      vertex 2.2084295 2.43299337 2.1207062
      vertex 2.20961614 2.43268632 2.12094403
    endloop
  endfacet
  facet normal 0.580841209 0.0598108989 -0.811816572
    outer loop
      vertex 2.24017972 2.57591619 2.15336428
      vertex 2.24116373 2.57555291 2.15404155
      vertex 2.21060014 2.43232304 2.1216213
    endloop
  endfacet
  facet normal 0.580841209 0.0598108989 -0.811816572
    outer loop
      vertex 2.24017972 2.57591619 2.15336428
      vertex 2.21060014 2.43232304 2.1216213
      vertex 2.20961614 2.43268632 2.12094403
    endloop
  endfacet
  facet normal 0.203757223 0.954865779 0.216134997
    outer loop
      vertex 2.23884875 2.57554683 2.15625081
      vertex 2.24116373 2.57555291 2.15404155
      vertex 2.24017972 2.57591619 2.15336428
    endloop
  endfacet
  facet normal -0.203757223 -0.954865779 -0.216134997
    outer loop
      vertex 2.20828516 2.43231696 2.12383056
      vertex 2.20961614 2.43268632 2.12094403
      vertex 2.21060014 2.43232304 2.1216213
    endloop
  endfacet
  facet normal 0.838221301 -0.0560850584 -0.542438491
    outer loop
      vertex 2.24116373 2.57555291 2.15404155
      vertex 2.2417953 2.5751887 2.15505517
      vertex 2.21123172 2.43195884 2.12263492
    endloop
  endfacet
  facet normal 0.838221301 -0.0560850584 -0.542438491
    outer loop
      vertex 2.24116373 2.57555291 2.15404155
      vertex 2.21123172 2.43195884 2.12263492
      vertex 2.21060014 2.43232304 2.1216213
    endloop
  endfacet
  facet normal 0.203757223 0.954865779 0.216134997
    outer loop
      vertex 2.23884875 2.57554683 2.15625081
      vertex 2.2417953 2.5751887 2.15505517
      vertex 2.24116373 2.57555291 2.15404155
    endloop
  endfacet
  facet normal -0.203757223 -0.954865779 -0.216134997
    outer loop
      vertex 2.20828516 2.43231696 2.12383056
      vertex 2.21060014 2.43232304 2.1216213
      vertex 2.21123172 2.43195884 2.12263492
    endloop
  endfacet
  facet normal 0.967989798 -0.163442574 -0.190479067
    outer loop
      vertex 2.2417953 2.5751887 2.15505517
      vertex 2.24197829 2.57487902 2.15625081
      vertex 2.2114147 2.43164915 2.12383056
    endloop
  endfacet
  facet normal 0.967989798 -0.163442574 -0.190479067
    outer loop
      vertex 2.2417953 2.5751887 2.15505517
      vertex 2.2114147 2.43164915 2.12383056
      vertex 2.21123172 2.43195884 2.12263492
    endloop
  endfacet
  facet normal 0.203757223 0.954865779 0.216134997
    outer loop
      vertex 2.23884875 2.57554683 2.15625081
      vertex 2.24197829 2.57487902 2.15625081
      vertex 2.2417953 2.5751887 2.15505517
    endloop
  endfacet
  facet normal -0.203757223 -0.954865779 -0.216134997
    outer loop
      vertex 2.20828516 2.43231696 2.12383056
      vertex 2.21123172 2.43195884 2.12263492
      vertex 2.2114147 2.43164915 2.12383056
    endloop
  endfacet
  facet normal 0.950390624 -0.245917439 0.190479067
    outer loop
      vertex 2.24197829 2.57487902 2.15625081
      vertex 2.24168483 2.57467101 2.15744645
      vertex 2.21112125 2.43144114 2.1250262
    endloop
  endfacet
  facet normal 0.950390624 -0.245917439 0.190479067
    outer loop
      vertex 2.24197829 2.57487902 2.15625081
      vertex 2.21112125 2.43144114 2.1250262
      vertex 2.2114147 2.43164915 2.12383056
    endloop
  endfacet
  facet normal 0.203757223 0.954865779 0.216134997
    outer loop
      vertex 2.23884875 2.57554683 2.15625081
      vertex 2.24168483 2.57467101 2.15744645
      vertex 2.24197829 2.57487902 2.15625081
    endloop
  endfacet
  facet normal -0.203757223 -0.954865779 -0.216134997
    outer loop
      vertex 2.20828516 2.43231696 2.12383056
      vertex 2.2114147 2.43164915 2.12383056
      vertex 2.21112125 2.43144114 2.1250262
    endloop
  endfacet
  facet normal 0.788103092 -0.290953604 0.542438491
    outer loop
      vertex 2.24168483 2.57467101 2.15744645
      vertex 2.2409596 2.57459633 2.15846007
      vertex 2.21039602 2.43136646 2.12603982
    endloop
  endfacet
  facet normal 0.788103092 -0.290953604 0.542438491
    outer loop
      vertex 2.24168483 2.57467101 2.15744645
      vertex 2.21039602 2.43136646 2.12603982
      vertex 2.21112125 2.43144114 2.1250262
    endloop
  endfacet
  facet normal 0.203757223 0.954865779 0.216134997
    outer loop
      vertex 2.23884875 2.57554683 2.15625081
      vertex 2.2409596 2.57459633 2.15846007
      vertex 2.24168483 2.57467101 2.15744645
    endloop
  endfacet
  facet normal -0.203757223 -0.954865779 -0.216134997
    outer loop
      vertex 2.20828516 2.43231696 2.12383056
      vertex 2.21112125 2.43144114 2.1250262
      vertex 2.21039602 2.43136646 2.12603982
    endloop
  endfacet
  facet normal 0.505834009 -0.29169472 0.811816572
    outer loop
      vertex 2.2409596 2.57459633 2.15846007
      vertex 2.23991302 2.57466635 2.15913735
      vertex 2.20934944 2.43143649 2.1267171
    endloop
  endfacet
  facet normal 0.505834009 -0.29169472 0.811816572
    outer loop
      vertex 2.2409596 2.57459633 2.15846007
      vertex 2.20934944 2.43143649 2.1267171
      vertex 2.21039602 2.43136646 2.12603982
    endloop
  endfacet
  facet normal 0.203757223 0.954865779 0.216134997
    outer loop
      vertex 2.23884875 2.57554683 2.15625081
      vertex 2.23991302 2.57466635 2.15913735
      vertex 2.2409596 2.57459633 2.15846007
    endloop
  endfacet
  facet normal -0.203757223 -0.954865779 -0.216134997
    outer loop
      vertex 2.20828516 2.43231696 2.12383056
      vertex 2.21039602 2.43136646 2.12603982
      vertex 2.20934944 2.43143649 2.1267171
    endloop
  endfacet
  facet normal 0.146556283 -0.248027959 0.957602938
    outer loop
      vertex 2.23991302 2.57466635 2.15913735
      vertex 2.23870441 2.57487043 2.15937518
      vertex 2.20814083 2.43164056 2.12695493
    endloop
  endfacet
  facet normal 0.146556283 -0.248027959 0.957602938
    outer loop
      vertex 2.23991302 2.57466635 2.15913735
      vertex 2.20814083 2.43164056 2.12695493
      vertex 2.20934944 2.43143649 2.1267171
    endloop
  endfacet
  facet normal 0.203757223 0.954865779 0.216134997
    outer loop
      vertex 2.23884875 2.57554683 2.15625081
      vertex 2.23870441 2.57487043 2.15937518
      vertex 2.23991302 2.57466635 2.15913735
    endloop
  endfacet
  facet normal -0.203757223 -0.954865779 -0.216134997
    outer loop
      vertex 2.20828516 2.43231696 2.12383056
      vertex 2.20934944 2.43143649 2.1267171
      vertex 2.20814083 2.43164056 2.12695493
    endloop
  endfacet
  facet normal -0.235033308 -0.166601189 0.957602938
    outer loop
      vertex 2.23870441 2.57487043 2.15937518
      vertex 2.23751777 2.57517747 2.15913735
      vertex 2.20695419 2.43194761 2.1267171
    endloop
  endfacet
  facet normal -0.235033308 -0.166601189 0.957602938
    outer loop
      vertex 2.23870441 2.57487043 2.15937518
      vertex 2.20695419 2.43194761 2.1267171
      vertex 2.20814083 2.43164056 2.12695493
    endloop
  endfacet
  facet normal 0.203757223 0.954865779 0.216134997
    outer loop
      vertex 2.23884875 2.57554683 2.15625081
      vertex 2.23751777 2.57517747 2.15913735
      vertex 2.23870441 2.57487043 2.15937518
    endloop
  endfacet
  facet normal -0.203757223 -0.954865779 -0.216134997
    outer loop
      vertex 2.20828516 2.43231696 2.12383056
      vertex 2.20814083 2.43164056 2.12695493
      vertex 2.20695419 2.43194761 2.1267171
    endloop
  endfacet
  facet normal -0.580841209 -0.0598108989 0.811816572
    outer loop
      vertex 2.23751777 2.57517747 2.15913735
      vertex 2.23653376 2.57554075 2.15846007
      vertex 2.20597018 2.43231088 2.12603982
    endloop
  endfacet
  facet normal -0.580841209 -0.0598108989 0.811816572
    outer loop
      vertex 2.23751777 2.57517747 2.15913735
      vertex 2.20597018 2.43231088 2.12603982
      vertex 2.20695419 2.43194761 2.1267171
    endloop
  endfacet
  facet normal 0.203757223 0.954865779 0.216134997
    outer loop
      vertex 2.23884875 2.57554683 2.15625081
      vertex 2.23653376 2.57554075 2.15846007
      vertex 2.23751777 2.57517747 2.15913735
    endloop
  endfacet
  facet normal -0.203757223 -0.954865779 -0.216134997
    outer loop
      vertex 2.20828516 2.43231696 2.12383056
      vertex 2.20695419 2.43194761 2.1267171
      vertex 2.20597018 2.43231088 2.12603982
    endloop
  endfacet
  facet normal -0.838221301 0.0560850584 0.542438491
    outer loop
      vertex 2.23653376 2.57554075 2.15846007
      vertex 2.23590219 2.57590495 2.15744645
      vertex 2.20533861 2.43267509 2.1250262
    endloop
  endfacet
  facet normal -0.838221301 0.0560850584 0.542438491
    outer loop
      vertex 2.23653376 2.57554075 2.15846007
      vertex 2.20533861 2.43267509 2.1250262
      vertex 2.20597018 2.43231088 2.12603982
    endloop
  endfacet
  facet normal 0.203757223 0.954865779 0.216134997
    outer loop
      vertex 2.23884875 2.57554683 2.15625081
      vertex 2.23590219 2.57590495 2.15744645
      vertex 2.23653376 2.57554075 2.15846007
    endloop
  endfacet
  facet normal -0.203757223 -0.954865779 -0.216134997
    outer loop
      vertex 2.20828516 2.43231696 2.12383056
      vertex 2.20597018 2.43231088 2.12603982
      vertex 2.20533861 2.43267509 2.1250262
    endloop
  endfacet
  facet normal -0.967989798 0.163442574 0.190479067
    outer loop
      vertex 2.23590219 2.57590495 2.15744645
      vertex 2.2357192 2.57621464 2.15625081
      vertex 2.20515562 2.43298477 2.12383056
    endloop
  endfacet
  facet normal -0.967989798 0.163442574 0.190479067
    outer loop
      vertex 2.23590219 2.57590495 2.15744645
      vertex 2.20515562 2.43298477 2.12383056
      vertex 2.20533861 2.43267509 2.1250262
    endloop
  endfacet
  facet normal 0.203757223 0.954865779 0.216134997
    outer loop
      vertex 2.23884875 2.57554683 2.15625081
      vertex 2.2357192 2.57621464 2.15625081
      vertex 2.23590219 2.57590495 2.15744645
    endloop
  endfacet
  facet normal -0.203757223 -0.954865779 -0.216134997
    outer loop
      vertex 2.20828516 2.43231696 2.12383056
      vertex 2.20533861 2.43267509 2.1250262
      vertex 2.20515562 2.43298477 2.12383056
    endloop
  endfacet
  facet normal -0.979447607 -0.190676469 -0.0657637386
    outer loop
      vertex 2.465779 2.53341522 2.09499513
      vertex 2.46602898 2.53221834 2.09474229
      vertex 2.46383052 2.51318223 2.18267859
    endloop
  endfacet
  facet normal -0.979447607 -0.190676469 -0.0657637386
    outer loop
      vertex 2.465779 2.53341522 2.09499513
      vertex 2.46383052 2.51318223 2.18267859
      vertex 2.46358054 2.51437911 2.18293144
    endloop
  endfacet
  facet normal 0.0244274031 0.211512291 -0.977070035
    outer loop
      vertex 2.468978 2.53341522 2.09507511
      vertex 2.46602898 2.53221834 2.09474229
      vertex 2.465779 2.53341522 2.09499513
    endloop
  endfacet
  facet normal -0.0244274031 -0.211512291 0.977070035
    outer loop
      vertex 2.46677954 2.51437911 2.18301141
      vertex 2.46358054 2.51437911 2.18293144
      vertex 2.46383052 2.51318223 2.18267859
    endloop
  endfacet
  facet normal -0.828272977 -0.543000644 -0.138254028
    outer loop
      vertex 2.46602898 2.53221834 2.09474229
      vertex 2.46672793 2.53120367 2.09454011
      vertex 2.46452946 2.51216757 2.18247641
    endloop
  endfacet
  facet normal -0.828272977 -0.543000644 -0.138254028
    outer loop
      vertex 2.46602898 2.53221834 2.09474229
      vertex 2.46452946 2.51216757 2.18247641
      vertex 2.46383052 2.51318223 2.18267859
    endloop
  endfacet
  facet normal 0.0244274031 0.211512291 -0.977070035
    outer loop
      vertex 2.468978 2.53341522 2.09507511
      vertex 2.46672793 2.53120367 2.09454011
      vertex 2.46602898 2.53221834 2.09474229
    endloop
  endfacet
  facet normal -0.0244274031 -0.211512291 0.977070035
    outer loop
      vertex 2.46677954 2.51437911 2.18301141
      vertex 2.46383052 2.51318223 2.18267859
      vertex 2.46452946 2.51216757 2.18247641
    endloop
  endfacet
  facet normal -0.551001294 -0.812657893 -0.189696395
    outer loop
      vertex 2.46672793 2.53120367 2.09454011
      vertex 2.46776943 2.53052569 2.09441938
      vertex 2.46557096 2.51148959 2.18235569
    endloop
  endfacet
  facet normal -0.551001294 -0.812657893 -0.189696395
    outer loop
      vertex 2.46672793 2.53120367 2.09454011
      vertex 2.46557096 2.51148959 2.18235569
      vertex 2.46452946 2.51216757 2.18247641
    endloop
  endfacet
  facet normal 0.0244274031 0.211512291 -0.977070035
    outer loop
      vertex 2.468978 2.53341522 2.09507511
      vertex 2.46776943 2.53052569 2.09441938
      vertex 2.46672793 2.53120367 2.09454011
    endloop
  endfacet
  facet normal -0.0244274031 -0.211512291 0.977070035
    outer loop
      vertex 2.46677954 2.51437911 2.18301141
      vertex 2.46452946 2.51216757 2.18247641
      vertex 2.46557096 2.51148959 2.18235569
    endloop
  endfacet
  facet normal -0.18984466 -0.958595345 -0.212259205
    outer loop
      vertex 2.46776943 2.53052569 2.09441938
      vertex 2.46899492 2.53028762 2.09439848
      vertex 2.46679645 2.51125151 2.18233479
    endloop
  endfacet
  facet normal -0.18984466 -0.958595345 -0.212259205
    outer loop
      vertex 2.46776943 2.53052569 2.09441938
      vertex 2.46679645 2.51125151 2.18233479
      vertex 2.46557096 2.51148959 2.18235569
    endloop
  endfacet
  facet normal 0.0244274031 0.211512291 -0.977070035
    outer loop
      vertex 2.468978 2.53341522 2.09507511
      vertex 2.46899492 2.53028762 2.09439848
      vertex 2.46776943 2.53052569 2.09441938
    endloop
  endfacet
  facet normal -0.0244274031 -0.211512291 0.977070035
    outer loop
      vertex 2.46677954 2.51437911 2.18301141
      vertex 2.46557096 2.51148959 2.18235569
      vertex 2.46679645 2.51125151 2.18233479
    endloop
  endfacet
  facet normal 0.200214104 -0.958595345 -0.202507476
    outer loop
      vertex 2.46899492 2.53028762 2.09439848
      vertex 2.47021784 2.53052569 2.09448059
      vertex 2.46801937 2.51148959 2.1824169
    endloop
  endfacet
  facet normal 0.200214104 -0.958595345 -0.202507476
    outer loop
      vertex 2.46899492 2.53028762 2.09439848
      vertex 2.46801937 2.51148959 2.1824169
      vertex 2.46679645 2.51125151 2.18233479
    endloop
  endfacet
  facet normal 0.0244274031 0.211512291 -0.977070035
    outer loop
      vertex 2.468978 2.53341522 2.09507511
      vertex 2.47021784 2.53052569 2.09448059
      vertex 2.46899492 2.53028762 2.09439848
    endloop
  endfacet
  facet normal -0.0244274031 -0.211512291 0.977070035
    outer loop
      vertex 2.46677954 2.51437911 2.18301141
      vertex 2.46679645 2.51125151 2.18233479
      vertex 2.46801937 2.51148959 2.1824169
    endloop
  endfacet
  facet normal 0.559792084 -0.812657893 -0.161925819
    outer loop
      vertex 2.47021784 2.53052569 2.09448059
      vertex 2.471252 2.53120367 2.09465321
      vertex 2.46905353 2.51216757 2.18258952
    endloop
  endfacet
  facet normal 0.559792084 -0.812657893 -0.161925819
    outer loop
      vertex 2.47021784 2.53052569 2.09448059
      vertex 2.46905353 2.51216757 2.18258952
      vertex 2.46801937 2.51148959 2.1824169
    endloop
  endfacet
  facet normal 0.0244274031 0.211512291 -0.977070035
    outer loop
      vertex 2.468978 2.53341522 2.09507511
      vertex 2.471252 2.53120367 2.09465321
      vertex 2.47021784 2.53052569 2.09448059
    endloop
  endfacet
  facet normal -0.0244274031 -0.211512291 0.977070035
    outer loop
      vertex 2.46677954 2.51437911 2.18301141
      vertex 2.46801937 2.51148959 2.1824169
      vertex 2.46905353 2.51216757 2.18258952
    endloop
  endfacet
  facet normal 0.834146795 -0.543000644 -0.0966924239
    outer loop
      vertex 2.471252 2.53120367 2.09465321
      vertex 2.47193997 2.53221834 2.09489007
      vertex 2.4697415 2.51318223 2.18282637
    endloop
  endfacet
  facet normal 0.834146795 -0.543000644 -0.0966924239
    outer loop
      vertex 2.471252 2.53120367 2.09465321
      vertex 2.4697415 2.51318223 2.18282637
      vertex 2.46905353 2.51216757 2.18258952
    endloop
  endfacet
  facet normal 0.0244274031 0.211512291 -0.977070035
    outer loop
      vertex 2.468978 2.53341522 2.09507511
      vertex 2.47193997 2.53221834 2.09489007
      vertex 2.471252 2.53120367 2.09465321
    endloop
  endfacet
  facet normal -0.0244274031 -0.211512291 0.977070035
    outer loop
      vertex 2.46677954 2.51437911 2.18301141
      vertex 2.46905353 2.51216757 2.18258952
      vertex 2.4697415 2.51318223 2.18282637
    endloop
  endfacet
  facet normal 0.981510218 -0.190676469 -0.0167384839
    outer loop
      vertex 2.47193997 2.53221834 2.09489007
      vertex 2.472177 2.53341522 2.09515509
      vertex 2.46997854 2.51437911 2.18309139
    endloop
  endfacet
  facet normal 0.981510218 -0.190676469 -0.0167384839
    outer loop
      vertex 2.47193997 2.53221834 2.09489007
      vertex 2.46997854 2.51437911 2.18309139
      vertex 2.4697415 2.51318223 2.18282637
    endloop
  endfacet
  facet normal 0.0244274031 0.211512291 -0.977070035
    outer loop
      vertex 2.468978 2.53341522 2.09507511
      vertex 2.472177 2.53341522 2.09515509
      vertex 2.47193997 2.53221834 2.09489007
    endloop
  endfacet
  facet normal -0.0244274031 -0.211512291 0.977070035
    outer loop
      vertex 2.46677954 2.51437911 2.18301141
      vertex 2.4697415 2.51318223 2.18282637
      vertex 2.46997854 2.51437911 2.18309139
    endloop
  endfacet
  facet normal 0.979447607 0.190676469 0.0657637386
    outer loop
      vertex 2.472177 2.53341522 2.09515509
      vertex 2.47192702 2.5346121 2.09540793
      vertex 2.46972855 2.51557599 2.18334424
    endloop
  endfacet
  facet normal 0.979447607 0.190676469 0.0657637386
    outer loop
      vertex 2.472177 2.53341522 2.09515509
      vertex 2.46972855 2.51557599 2.18334424
      vertex 2.46997854 2.51437911 2.18309139
    endloop
  endfacet
  facet normal 0.0244274031 0.211512291 -0.977070035
    outer loop
      vertex 2.468978 2.53341522 2.09507511
      vertex 2.47192702 2.5346121 2.09540793
      vertex 2.472177 2.53341522 2.09515509
    endloop
  endfacet
  facet normal -0.0244274031 -0.211512291 0.977070035
    outer loop
      vertex 2.46677954 2.51437911 2.18301141
      vertex 2.46997854 2.51437911 2.18309139
      vertex 2.46972855 2.51557599 2.18334424
    endloop
  endfacet
  facet normal 0.828272977 0.543000644 0.138254028
    outer loop
      vertex 2.47192702 2.5346121 2.09540793
      vertex 2.47122808 2.53562677 2.09561011
      vertex 2.46902961 2.51659066 2.18354641
    endloop
  endfacet
  facet normal 0.828272977 0.543000644 0.138254028
    outer loop
      vertex 2.47192702 2.5346121 2.09540793
      vertex 2.46902961 2.51659066 2.18354641
      vertex 2.46972855 2.51557599 2.18334424
    endloop
  endfacet
  facet normal 0.0244274031 0.211512291 -0.977070035
    outer loop
      vertex 2.468978 2.53341522 2.09507511
      vertex 2.47122808 2.53562677 2.09561011
      vertex 2.47192702 2.5346121 2.09540793
    endloop
  endfacet
  facet normal -0.0244274031 -0.211512291 0.977070035
    outer loop
      vertex 2.46677954 2.51437911 2.18301141
      vertex 2.46972855 2.51557599 2.18334424
      vertex 2.46902961 2.51659066 2.18354641
    endloop
  endfacet
  facet normal 0.551001294 0.812657893 0.189696395
    outer loop
      vertex 2.47122808 2.53562677 2.09561011
      vertex 2.47018658 2.53630475 2.09573084
      vertex 2.46798811 2.51726864 2.18366714
    endloop
  endfacet
  facet normal 0.551001294 0.812657893 0.189696395
    outer loop
      vertex 2.47122808 2.53562677 2.09561011
      vertex 2.46798811 2.51726864 2.18366714
      vertex 2.46902961 2.51659066 2.18354641
    endloop
  endfacet
  facet normal 0.0244274031 0.211512291 -0.977070035
    outer loop
      vertex 2.468978 2.53341522 2.09507511
      vertex 2.47018658 2.53630475 2.09573084
      vertex 2.47122808 2.53562677 2.09561011
    endloop
  endfacet
  facet normal -0.0244274031 -0.211512291 0.977070035
    outer loop
      vertex 2.46677954 2.51437911 2.18301141
      vertex 2.46902961 2.51659066 2.18354641
      vertex 2.46798811 2.51726864 2.18366714
    endloop
  endfacet
  facet normal 0.18984466 0.958595345 0.212259205
    outer loop
      vertex 2.47018658 2.53630475 2.09573084
      vertex 2.46896109 2.53654282 2.09575174
      vertex 2.46676262 2.51750671 2.18368804
    endloop
  endfacet
  facet normal 0.18984466 0.958595345 0.212259205
    outer loop
      vertex 2.47018658 2.53630475 2.09573084
      vertex 2.46676262 2.51750671 2.18368804
      vertex 2.46798811 2.51726864 2.18366714
    endloop
  endfacet
  facet normal 0.0244274031 0.211512291 -0.977070035
    outer loop
      vertex 2.468978 2.53341522 2.09507511
      vertex 2.46896109 2.53654282 2.09575174
      vertex 2.47018658 2.53630475 2.09573084
    endloop
  endfacet
  facet normal -0.0244274031 -0.211512291 0.977070035
    outer loop
      vertex 2.46677954 2.51437911 2.18301141
      vertex 2.46798811 2.51726864 2.18366714
      vertex 2.46676262 2.51750671 2.18368804
    endloop
  endfacet
  facet normal -0.200214104 0.958595345 0.202507476
    outer loop
      vertex 2.46896109 2.53654282 2.09575174
      vertex 2.46773817 2.53630475 2.09566963
      vertex 2.4655397 2.51726864 2.18360593
    endloop
  endfacet
  facet normal -0.200214104 0.958595345 0.202507476
    outer loop
      vertex 2.46896109 2.53654282 2.09575174
      vertex 2.4655397 2.51726864 2.18360593
      vertex 2.46676262 2.51750671 2.18368804
    endloop
  endfacet
  facet normal 0.0244274031 0.211512291 -0.977070035
    outer loop
      vertex 2.468978 2.53341522 2.09507511
      vertex 2.46773817 2.53630475 2.09566963
      vertex 2.46896109 2.53654282 2.09575174
    endloop
  endfacet
  facet normal -0.0244274031 -0.211512291 0.977070035
    outer loop
      vertex 2.46677954 2.51437911 2.18301141
      vertex 2.46676262 2.51750671 2.18368804
      vertex 2.4655397 2.51726864 2.18360593
    endloop
  endfacet
  facet normal -0.559792084 0.812657893 0.161925819
    outer loop
      vertex 2.46773817 2.53630475 2.09566963
      vertex 2.46670401 2.53562677 2.09549701
      vertex 2.46450554 2.51659066 2.18343331
    endloop
  endfacet
  facet normal -0.559792084 0.812657893 0.161925819
    outer loop
      vertex 2.46773817 2.53630475 2.09566963
      vertex 2.46450554 2.51659066 2.18343331
      vertex 2.4655397 2.51726864 2.18360593
    endloop
  endfacet
  facet normal 0.0244274031 0.211512291 -0.977070035
    outer loop
      vertex 2.468978 2.53341522 2.09507511
      vertex 2.46670401 2.53562677 2.09549701
      vertex 2.46773817 2.53630475 2.09566963
    endloop
  endfacet
  facet normal -0.0244274031 -0.211512291 0.977070035
    outer loop
      vertex 2.46677954 2.51437911 2.18301141
      vertex 2.4655397 2.51726864 2.18360593
      vertex 2.46450554 2.51659066 2.18343331
    endloop
  endfacet
  facet normal -0.834146795 0.543000644 0.0966924239
    outer loop
      vertex 2.46670401 2.53562677 2.09549701
      vertex 2.46601604 2.5346121 2.09526016
      vertex 2.46381757 2.51557599 2.18319646
    endloop
  endfacet
  facet normal -0.834146795 0.543000644 0.0966924239
    outer loop
      vertex 2.46670401 2.53562677 2.09549701
      vertex 2.46381757 2.51557599 2.18319646
      vertex 2.46450554 2.51659066 2.18343331
    endloop
  endfacet
  facet normal 0.0244274031 0.211512291 -0.977070035
    outer loop
      vertex 2.468978 2.53341522 2.09507511
      vertex 2.46601604 2.5346121 2.09526016
      vertex 2.46670401 2.53562677 2.09549701
    endloop
  endfacet
  facet normal -0.0244274031 -0.211512291 0.977070035
    outer loop
      vertex 2.46677954 2.51437911 2.18301141
      vertex 2.46450554 2.51659066 2.18343331
      vertex 2.46381757 2.51557599 2.18319646
    endloop
  endfacet
  facet normal -0.981510218 0.190676469 0.0167384839
    outer loop
      vertex 2.46601604 2.5346121 2.09526016
      vertex 2.465779 2.53341522 2.09499513
      vertex 2.46358054 2.51437911 2.18293144
    endloop
  endfacet
  facet normal -0.981510218 0.190676469 0.0167384839
    outer loop
      vertex 2.46601604 2.5346121 2.09526016
      vertex 2.46358054 2.51437911 2.18293144
      vertex 2.46381757 2.51557599 2.18319646
    endloop
  endfacet
  facet normal 0.0244274031 0.211512291 -0.977070035
    outer loop
      vertex 2.468978 2.53341522 2.09507511
      vertex 2.465779 2.53341522 2.09499513
      vertex 2.46601604 2.5346121 2.09526016
    endloop
  endfacet
  facet normal -0.0244274031 -0.211512291 0.977070035
    outer loop
      vertex 2.46677954 2.51437911 2.18301141
      vertex 2.46381757 2.51557599 2.18319646
      vertex 2.46358054 2.51437911 2.18293144
    endloop
  endfacet
  facet normal -0.979447607 -0.190676469 -0.0657637386
    outer loop
      vertex 2.44840885 2.50960263 2.08940601
      vertex 2.44865883 2.50840575 2.08915317
      vertex 2.44646037 2.48936964 2.17708947
    endloop
  endfacet
  facet normal -0.979447607 -0.190676469 -0.0657637386
    outer loop
      vertex 2.44840885 2.50960263 2.08940601
      vertex 2.44646037 2.48936964 2.17708947
      vertex 2.44621038 2.49056652 2.17734231
    endloop
  endfacet
  facet normal 0.0244274031 0.211512291 -0.977070035
    outer loop
      vertex 2.45160785 2.50960263 2.08948599
      vertex 2.44865883 2.50840575 2.08915317
      vertex 2.44840885 2.50960263 2.08940601
    endloop
  endfacet
  facet normal -0.0244274031 -0.211512291 0.977070035
    outer loop
      vertex 2.44940938 2.49056652 2.17742229
      vertex 2.44621038 2.49056652 2.17734231
      vertex 2.44646037 2.48936964 2.17708947
    endloop
  endfacet
  facet normal -0.828272977 -0.543000644 -0.138254028
    outer loop
      vertex 2.44865883 2.50840575 2.08915317
      vertex 2.44935778 2.50739108 2.08895099
      vertex 2.44715931 2.48835497 2.17688729
    endloop
  endfacet
  facet normal -0.828272977 -0.543000644 -0.138254028
    outer loop
      vertex 2.44865883 2.50840575 2.08915317
      vertex 2.44715931 2.48835497 2.17688729
      vertex 2.44646037 2.48936964 2.17708947
    endloop
  endfacet
  facet normal 0.0244274031 0.211512291 -0.977070035
    outer loop
      vertex 2.45160785 2.50960263 2.08948599
      vertex 2.44935778 2.50739108 2.08895099
      vertex 2.44865883 2.50840575 2.08915317
    endloop
  endfacet
  facet normal -0.0244274031 -0.211512291 0.977070035
    outer loop
      vertex 2.44940938 2.49056652 2.17742229
      vertex 2.44646037 2.48936964 2.17708947
      vertex 2.44715931 2.48835497 2.17688729
    endloop
  endfacet
  facet normal -0.551001294 -0.812657893 -0.189696395
    outer loop
      vertex 2.44935778 2.50739108 2.08895099
      vertex 2.45039927 2.5067131 2.08883026
      vertex 2.44820081 2.48767699 2.17676656
    endloop
  endfacet
  facet normal -0.551001294 -0.812657893 -0.189696395
    outer loop
      vertex 2.44935778 2.50739108 2.08895099
      vertex 2.44820081 2.48767699 2.17676656
      vertex 2.44715931 2.48835497 2.17688729
    endloop
  endfacet
  facet normal 0.0244274031 0.211512291 -0.977070035
    outer loop
      vertex 2.45160785 2.50960263 2.08948599
      vertex 2.45039927 2.5067131 2.08883026
      vertex 2.44935778 2.50739108 2.08895099
    endloop
  endfacet
  facet normal -0.0244274031 -0.211512291 0.977070035
    outer loop
      vertex 2.44940938 2.49056652 2.17742229
      vertex 2.44715931 2.48835497 2.17688729
      vertex 2.44820081 2.48767699 2.17676656
    endloop
  endfacet
  facet normal -0.18984466 -0.958595345 -0.212259205
    outer loop
      vertex 2.45039927 2.5067131 2.08883026
      vertex 2.45162477 2.50647503 2.08880936
      vertex 2.4494263 2.48743892 2.17674566
    endloop
  endfacet
  facet normal -0.18984466 -0.958595345 -0.212259205
    outer loop
      vertex 2.45039927 2.5067131 2.08883026
      vertex 2.4494263 2.48743892 2.17674566
      vertex 2.44820081 2.48767699 2.17676656
    endloop
  endfacet
  facet normal 0.0244274031 0.211512291 -0.977070035
    outer loop
      vertex 2.45160785 2.50960263 2.08948599
      vertex 2.45162477 2.50647503 2.08880936
      vertex 2.45039927 2.5067131 2.08883026
    endloop
  endfacet
  facet normal -0.0244274031 -0.211512291 0.977070035
    outer loop
      vertex 2.44940938 2.49056652 2.17742229
      vertex 2.44820081 2.48767699 2.17676656
      vertex 2.4494263 2.48743892 2.17674566
    endloop
  endfacet
  facet normal 0.200214104 -0.958595345 -0.202507476
    outer loop
      vertex 2.45162477 2.50647503 2.08880936
      vertex 2.45284768 2.5067131 2.08889147
      vertex 2.45064922 2.48767699 2.17682778
    endloop
  endfacet
  facet normal 0.200214104 -0.958595345 -0.202507476
    outer loop
      vertex 2.45162477 2.50647503 2.08880936
      vertex 2.45064922 2.48767699 2.17682778
      vertex 2.4494263 2.48743892 2.17674566
    endloop
  endfacet
  facet normal 0.0244274031 0.211512291 -0.977070035
    outer loop
      vertex 2.45160785 2.50960263 2.08948599
      vertex 2.45284768 2.5067131 2.08889147
      vertex 2.45162477 2.50647503 2.08880936
    endloop
  endfacet
  facet normal -0.0244274031 -0.211512291 0.977070035
    outer loop
      vertex 2.44940938 2.49056652 2.17742229
      vertex 2.4494263 2.48743892 2.17674566
      vertex 2.45064922 2.48767699 2.17682778
    endloop
  endfacet
  facet normal 0.559792084 -0.812657893 -0.161925819
    outer loop
      vertex 2.45284768 2.5067131 2.08889147
      vertex 2.45388185 2.50739108 2.08906409
      vertex 2.45168338 2.48835497 2.1770004
    endloop
  endfacet
  facet normal 0.559792084 -0.812657893 -0.161925819
    outer loop
      vertex 2.45284768 2.5067131 2.08889147
      vertex 2.45168338 2.48835497 2.1770004
      vertex 2.45064922 2.48767699 2.17682778
    endloop
  endfacet
  facet normal 0.0244274031 0.211512291 -0.977070035
    outer loop
      vertex 2.45160785 2.50960263 2.08948599
      vertex 2.45388185 2.50739108 2.08906409
      vertex 2.45284768 2.5067131 2.08889147
    endloop
  endfacet
  facet normal -0.0244274031 -0.211512291 0.977070035
    outer loop
      vertex 2.44940938 2.49056652 2.17742229
      vertex 2.45064922 2.48767699 2.17682778
      vertex 2.45168338 2.48835497 2.1770004
    endloop
  endfacet
  facet normal 0.834146795 -0.543000644 -0.0966924239
    outer loop
      vertex 2.45388185 2.50739108 2.08906409
      vertex 2.45456981 2.50840575 2.08930094
      vertex 2.45237135 2.48936964 2.17723725
    endloop
  endfacet
  facet normal 0.834146795 -0.543000644 -0.0966924239
    outer loop
      vertex 2.45388185 2.50739108 2.08906409
      vertex 2.45237135 2.48936964 2.17723725
      vertex 2.45168338 2.48835497 2.1770004
    endloop
  endfacet
  facet normal 0.0244274031 0.211512291 -0.977070035
    outer loop
      vertex 2.45160785 2.50960263 2.08948599
      vertex 2.45456981 2.50840575 2.08930094
      vertex 2.45388185 2.50739108 2.08906409
    endloop
  endfacet
  facet normal -0.0244274031 -0.211512291 0.977070035
    outer loop
      vertex 2.44940938 2.49056652 2.17742229
      vertex 2.45168338 2.48835497 2.1770004
      vertex 2.45237135 2.48936964 2.17723725
    endloop
  endfacet
  facet normal 0.981510218 -0.190676469 -0.0167384839
    outer loop
      vertex 2.45456981 2.50840575 2.08930094
      vertex 2.45480685 2.50960263 2.08956597
      vertex 2.45260838 2.49056652 2.17750227
    endloop
  endfacet
  facet normal 0.981510218 -0.190676469 -0.0167384839
    outer loop
      vertex 2.45456981 2.50840575 2.08930094
      vertex 2.45260838 2.49056652 2.17750227
      vertex 2.45237135 2.48936964 2.17723725
    endloop
  endfacet
  facet normal 0.0244274031 0.211512291 -0.977070035
    outer loop
      vertex 2.45160785 2.50960263 2.08948599
      vertex 2.45480685 2.50960263 2.08956597
      vertex 2.45456981 2.50840575 2.08930094
    endloop
  endfacet
  facet normal -0.0244274031 -0.211512291 0.977070035
    outer loop
      vertex 2.44940938 2.49056652 2.17742229
      vertex 2.45237135 2.48936964 2.17723725
      vertex 2.45260838 2.49056652 2.17750227
    endloop
  endfacet
  facet normal 0.979447607 0.190676469 0.0657637386
    outer loop
      vertex 2.45480685 2.50960263 2.08956597
      vertex 2.45455687 2.51079951 2.08981881
      vertex 2.4523584 2.4917634 2.17775512
    endloop
  endfacet
  facet normal 0.979447607 0.190676469 0.0657637386
    outer loop
      vertex 2.45480685 2.50960263 2.08956597
      vertex 2.4523584 2.4917634 2.17775512
      vertex 2.45260838 2.49056652 2.17750227
    endloop
  endfacet
  facet normal 0.0244274031 0.211512291 -0.977070035
    outer loop
      vertex 2.45160785 2.50960263 2.08948599
      vertex 2.45455687 2.51079951 2.08981881
      vertex 2.45480685 2.50960263 2.08956597
    endloop
  endfacet
  facet normal -0.0244274031 -0.211512291 0.977070035
    outer loop
      vertex 2.44940938 2.49056652 2.17742229
      vertex 2.45260838 2.49056652 2.17750227
      vertex 2.4523584 2.4917634 2.17775512
    endloop
  endfacet
  facet normal 0.828272977 0.543000644 0.138254028
    outer loop
      vertex 2.45455687 2.51079951 2.08981881
      vertex 2.45385792 2.51181418 2.09002099
      vertex 2.45165946 2.49277807 2.17795729
    endloop
  endfacet
  facet normal 0.828272977 0.543000644 0.138254028
    outer loop
      vertex 2.45455687 2.51079951 2.08981881
      vertex 2.45165946 2.49277807 2.17795729
      vertex 2.4523584 2.4917634 2.17775512
    endloop
  endfacet
  facet normal 0.0244274031 0.211512291 -0.977070035
    outer loop
      vertex 2.45160785 2.50960263 2.08948599
      vertex 2.45385792 2.51181418 2.09002099
      vertex 2.45455687 2.51079951 2.08981881
    endloop
  endfacet
  facet normal -0.0244274031 -0.211512291 0.977070035
    outer loop
      vertex 2.44940938 2.49056652 2.17742229
      vertex 2.4523584 2.4917634 2.17775512
      vertex 2.45165946 2.49277807 2.17795729
    endloop
  endfacet
  facet normal 0.551001294 0.812657893 0.189696395
    outer loop
      vertex 2.45385792 2.51181418 2.09002099
      vertex 2.45281643 2.51249215 2.09014172
      vertex 2.45061796 2.49345605 2.17807802
    endloop
  endfacet
  facet normal 0.551001294 0.812657893 0.189696395
    outer loop
      vertex 2.45385792 2.51181418 2.09002099
      vertex 2.45061796 2.49345605 2.17807802
      vertex 2.45165946 2.49277807 2.17795729
    endloop
  endfacet
  facet normal 0.0244274031 0.211512291 -0.977070035
    outer loop
      vertex 2.45160785 2.50960263 2.08948599
      vertex 2.45281643 2.51249215 2.09014172
      vertex 2.45385792 2.51181418 2.09002099
    endloop
  endfacet
  facet normal -0.0244274031 -0.211512291 0.977070035
    outer loop
      vertex 2.44940938 2.49056652 2.17742229
      vertex 2.45165946 2.49277807 2.17795729
      vertex 2.45061796 2.49345605 2.17807802
    endloop
  endfacet
  facet normal 0.18984466 0.958595345 0.212259205
    outer loop
      vertex 2.45281643 2.51249215 2.09014172
      vertex 2.45159093 2.51273023 2.09016262
      vertex 2.44939247 2.49369412 2.17809892
    endloop
  endfacet
  facet normal 0.18984466 0.958595345 0.212259205
    outer loop
      vertex 2.45281643 2.51249215 2.09014172
      vertex 2.44939247 2.49369412 2.17809892
      vertex 2.45061796 2.49345605 2.17807802
    endloop
  endfacet
  facet normal 0.0244274031 0.211512291 -0.977070035
    outer loop
      vertex 2.45160785 2.50960263 2.08948599
      vertex 2.45159093 2.51273023 2.09016262
      vertex 2.45281643 2.51249215 2.09014172
    endloop
  endfacet
  facet normal -0.0244274031 -0.211512291 0.977070035
    outer loop
      vertex 2.44940938 2.49056652 2.17742229
      vertex 2.45061796 2.49345605 2.17807802
      vertex 2.44939247 2.49369412 2.17809892
    endloop
  endfacet
  facet normal -0.200214104 0.958595345 0.202507476
    outer loop
      vertex 2.45159093 2.51273023 2.09016262
      vertex 2.45036802 2.51249215 2.09008051
      vertex 2.44816955 2.49345605 2.17801681
    endloop
  endfacet
  facet normal -0.200214104 0.958595345 0.202507476
    outer loop
      vertex 2.45159093 2.51273023 2.09016262
      vertex 2.44816955 2.49345605 2.17801681
      vertex 2.44939247 2.49369412 2.17809892
    endloop
  endfacet
  facet normal 0.0244274031 0.211512291 -0.977070035
    outer loop
      vertex 2.45160785 2.50960263 2.08948599
      vertex 2.45036802 2.51249215 2.09008051
      vertex 2.45159093 2.51273023 2.09016262
    endloop
  endfacet
  facet normal -0.0244274031 -0.211512291 0.977070035
    outer loop
      vertex 2.44940938 2.49056652 2.17742229
      vertex 2.44939247 2.49369412 2.17809892
      vertex 2.44816955 2.49345605 2.17801681
    endloop
  endfacet
  facet normal -0.559792084 0.812657893 0.161925819
    outer loop
      vertex 2.45036802 2.51249215 2.09008051
      vertex 2.44933385 2.51181418 2.08990788
      vertex 2.44713539 2.49277807 2.17784419
    endloop
  endfacet
  facet normal -0.559792084 0.812657893 0.161925819
    outer loop
      vertex 2.45036802 2.51249215 2.09008051
      vertex 2.44713539 2.49277807 2.17784419
      vertex 2.44816955 2.49345605 2.17801681
    endloop
  endfacet
  facet normal 0.0244274031 0.211512291 -0.977070035
    outer loop
      vertex 2.45160785 2.50960263 2.08948599
      vertex 2.44933385 2.51181418 2.08990788
      vertex 2.45036802 2.51249215 2.09008051
    endloop
  endfacet
  facet normal -0.0244274031 -0.211512291 0.977070035
    outer loop
      vertex 2.44940938 2.49056652 2.17742229
      vertex 2.44816955 2.49345605 2.17801681
      vertex 2.44713539 2.49277807 2.17784419
    endloop
  endfacet
  facet normal -0.834146795 0.543000644 0.0966924239
    outer loop
      vertex 2.44933385 2.51181418 2.08990788
      vertex 2.44864589 2.51079951 2.08967103
      vertex 2.44644742 2.4917634 2.17760734
    endloop
  endfacet
  facet normal -0.834146795 0.543000644 0.0966924239
    outer loop
      vertex 2.44933385 2.51181418 2.08990788
      vertex 2.44644742 2.4917634 2.17760734
      vertex 2.44713539 2.49277807 2.17784419
    endloop
  endfacet
  facet normal 0.0244274031 0.211512291 -0.977070035
    outer loop
      vertex 2.45160785 2.50960263 2.08948599
      vertex 2.44864589 2.51079951 2.08967103
      vertex 2.44933385 2.51181418 2.08990788
    endloop
  endfacet
  facet normal -0.0244274031 -0.211512291 0.977070035
    outer loop
      vertex 2.44940938 2.49056652 2.17742229
      vertex 2.44713539 2.49277807 2.17784419
      vertex 2.44644742 2.4917634 2.17760734
    endloop
  endfacet
  facet normal -0.981510218 0.190676469 0.0167384839
    outer loop
      vertex 2.44864589 2.51079951 2.08967103
      vertex 2.44840885 2.50960263 2.08940601
      vertex 2.44621038 2.49056652 2.17734231
    endloop
  endfacet
  facet normal -0.981510218 0.190676469 0.0167384839
    outer loop
      vertex 2.44864589 2.51079951 2.08967103
      vertex 2.44621038 2.49056652 2.17734231
      vertex 2.44644742 2.4917634 2.17760734
    endloop
  endfacet
  facet normal 0.0244274031 0.211512291 -0.977070035
    outer loop
      vertex 2.45160785 2.50960263 2.08948599
      vertex 2.44840885 2.50960263 2.08940601
      vertex 2.44864589 2.51079951 2.08967103
    endloop
  endfacet
  facet normal -0.0244274031 -0.211512291 0.977070035
    outer loop
      vertex 2.44940938 2.49056652 2.17742229
      vertex 2.44644742 2.4917634 2.17760734
      vertex 2.44621038 2.49056652 2.17734231
    endloop
  endfacet
endsolid d12_features
