solid e10_features
  facet normal 0.0495746467 0.991681498 -0.1187862
    outer loop
      vertex 4.61177535 0.142102948 1.29764217
      vertex 4.61239524 0.142016139 1.29717616
      vertex 4.55790699 0.136188303 1.22578241
    endloop
  endfacet
  facet normal 0.0495746467 0.991681498 -0.1187862
    outer loop
      vertex 4.61177535 0.142102948 1.29764217
      vertex 4.55790699 0.136188303 1.22578241
      vertex 4.55728711 0.136275112 1.22624842
    endloop
  endfacet
  facet normal 0.605424927 0.0647537314 0.793263898
    outer loop
      vertex 4.61198805 0.14011429 1.29764217
      vertex 4.61239524 0.142016139 1.29717616
      vertex 4.61177535 0.142102948 1.29764217
    endloop
  endfacet
  facet normal -0.605424927 -0.0647537314 -0.793263898
    outer loop
      vertex 4.55749981 0.134286454 1.22624842
      vertex 4.55728711 0.136275112 1.22624842
      vertex 4.55790699 0.136188303 1.22578241
    endloop
  endfacet
  facet normal 0.349788257 0.873623805 -0.338274478
    outer loop
      vertex 4.61239524 0.142016139 1.29717616
      vertex 4.61295313 0.141639791 1.29678109
      vertex 4.55846489 0.135811955 1.22538734
    endloop
  endfacet
  facet normal 0.349788257 0.873623805 -0.338274478
    outer loop
      vertex 4.61239524 0.142016139 1.29717616
      vertex 4.55846489 0.135811955 1.22538734
      vertex 4.55790699 0.136188303 1.22578241
    endloop
  endfacet
  facet normal 0.605424927 0.0647537314 0.793263898
    outer loop
      vertex 4.61198805 0.14011429 1.29764217
      vertex 4.61295313 0.141639791 1.29678109
      vertex 4.61239524 0.142016139 1.29717616
    endloop
  endfacet
  facet normal -0.605424927 -0.0647537314 -0.793263898
    outer loop
      vertex 4.55749981 0.134286454 1.22624842
      vertex 4.55790699 0.136188303 1.22578241
      vertex 4.55846489 0.135811955 1.22538734
    endloop
  endfacet
  facet normal 0.596749776 0.622564807 -0.506263533
    outer loop
      vertex 4.61295313 0.141639791 1.29678109
      vertex 4.6133641 0.141031199 1.29651711
      vertex 4.55887586 0.135203363 1.22512336
    endloop
  endfacet
  facet normal 0.596749776 0.622564807 -0.506263533
    outer loop
      vertex 4.61295313 0.141639791 1.29678109
      vertex 4.55887586 0.135203363 1.22512336
      vertex 4.55846489 0.135811955 1.22538734
    endloop
  endfacet
  facet normal 0.605424927 0.0647537314 0.793263898
    outer loop
      vertex 4.61198805 0.14011429 1.29764217
      vertex 4.6133641 0.141031199 1.29651711
      vertex 4.61295313 0.141639791 1.29678109
    endloop
  endfacet
  facet normal -0.605424927 -0.0647537314 -0.793263898
    outer loop
      vertex 4.55749981 0.134286454 1.22624842
      vertex 4.55846489 0.135811955 1.22538734
      vertex 4.55887586 0.135203363 1.22512336
    endloop
  endfacet
  facet normal 0.752861552 0.276725961 -0.597178555
    outer loop
      vertex 4.6133641 0.141031199 1.29651711
      vertex 4.61356558 0.140283016 1.29642442
      vertex 4.55907734 0.13445518 1.22503067
    endloop
  endfacet
  facet normal 0.752861552 0.276725961 -0.597178555
    outer loop
      vertex 4.6133641 0.141031199 1.29651711
      vertex 4.55907734 0.13445518 1.22503067
      vertex 4.55887586 0.135203363 1.22512336
    endloop
  endfacet
  facet normal 0.605424927 0.0647537314 0.793263898
    outer loop
      vertex 4.61198805 0.14011429 1.29764217
      vertex 4.61356558 0.140283016 1.29642442
      vertex 4.6133641 0.141031199 1.29651711
    endloop
  endfacet
  facet normal -0.605424927 -0.0647537314 -0.793263898
    outer loop
      vertex 4.55749981 0.134286454 1.22624842
      vertex 4.55887586 0.135203363 1.22512336
      vertex 4.55907734 0.13445518 1.22503067
    endloop
  endfacet
  facet normal 0.79435698 -0.111241904 -0.597178555
    outer loop
      vertex 4.61356558 0.140283016 1.29642442
      vertex 4.61352689 0.139509146 1.29651711
      vertex 4.55903865 0.133681311 1.22512336
    endloop
  endfacet
  facet normal 0.79435698 -0.111241904 -0.597178555
    outer loop
      vertex 4.61356558 0.140283016 1.29642442
      vertex 4.55903865 0.133681311 1.22512336
      vertex 4.55907734 0.13445518 1.22503067
    endloop
  endfacet
  facet normal 0.605424927 0.0647537314 0.793263898
    outer loop
      vertex 4.61198805 0.14011429 1.29764217
      vertex 4.61352689 0.139509146 1.29651711
      vertex 4.61356558 0.140283016 1.29642442
    endloop
  endfacet
  facet normal -0.605424927 -0.0647537314 -0.793263898
    outer loop
      vertex 4.55749981 0.134286454 1.22624842
      vertex 4.55907734 0.13445518 1.22503067
      vertex 4.55903865 0.133681311 1.22512336
    endloop
  endfacet
  facet normal 0.71491876 -0.482274198 -0.506263533
    outer loop
      vertex 4.61352689 0.139509146 1.29651711
      vertex 4.61325393 0.138827404 1.29678109
      vertex 4.55876569 0.132999568 1.22538734
    endloop
  endfacet
  facet normal 0.71491876 -0.482274198 -0.506263533
    outer loop
      vertex 4.61352689 0.139509146 1.29651711
      vertex 4.55876569 0.132999568 1.22538734
      vertex 4.55903865 0.133681311 1.22512336
    endloop
  endfacet
  facet normal 0.605424927 0.0647537314 0.793263898
    outer loop
      vertex 4.61198805 0.14011429 1.29764217
      vertex 4.61325393 0.138827404 1.29678109
      vertex 4.61352689 0.139509146 1.29651711
    endloop
  endfacet
  facet normal -0.605424927 -0.0647537314 -0.793263898
    outer loop
      vertex 4.55749981 0.134286454 1.22624842
      vertex 4.55903865 0.133681311 1.22512336
      vertex 4.55876569 0.132999568 1.22538734
    endloop
  endfacet
  facet normal 0.526640639 -0.779884617 -0.338274478
    outer loop
      vertex 4.61325393 0.138827404 1.29678109
      vertex 4.61278825 0.138341579 1.29717616
      vertex 4.55830001 0.132513743 1.22578241
    endloop
  endfacet
  facet normal 0.526640639 -0.779884617 -0.338274478
    outer loop
      vertex 4.61325393 0.138827404 1.29678109
      vertex 4.55830001 0.132513743 1.22578241
      vertex 4.55876569 0.132999568 1.22538734
    endloop
  endfacet
  facet normal 0.605424927 0.0647537314 0.793263898
    outer loop
      vertex 4.61198805 0.14011429 1.29764217
      vertex 4.61278825 0.138341579 1.29717616
      vertex 4.61325393 0.138827404 1.29678109
    endloop
  endfacet
  facet normal -0.605424927 -0.0647537314 -0.793263898
    outer loop
      vertex 4.55749981 0.134286454 1.22624842
      vertex 4.55876569 0.132999568 1.22538734
      vertex 4.55830001 0.132513743 1.22578241
    endloop
  endfacet
  facet normal 0.258186254 -0.958764672 -0.1187862
    outer loop
      vertex 4.61278825 0.138341579 1.29717616
      vertex 4.61220075 0.138125632 1.29764217
      vertex 4.5577125 0.132297797 1.22624842
    endloop
  endfacet
  facet normal 0.258186254 -0.958764672 -0.1187862
    outer loop
      vertex 4.61278825 0.138341579 1.29717616
      vertex 4.5577125 0.132297797 1.22624842
      vertex 4.55830001 0.132513743 1.22578241
    endloop
  endfacet
  facet normal 0.605424927 0.0647537314 0.793263898
    outer loop
      vertex 4.61198805 0.14011429 1.29764217
      vertex 4.61220075 0.138125632 1.29764217
      vertex 4.61278825 0.138341579 1.29717616
    endloop
  endfacet
  facet normal -0.605424927 -0.0647537314 -0.793263898
    outer loop
      vertex 4.55749981 0.134286454 1.22624842
      vertex 4.55830001 0.132513743 1.22578241
      vertex 4.5577125 0.132297797 1.22624842
    endloop
  endfacet
  facet normal -0.0495746467 -0.991681498 0.1187862
    outer loop
      vertex 4.61220075 0.138125632 1.29764217
      vertex 4.61158086 0.138212441 1.29810819
      vertex 4.55709262 0.132384605 1.22671444
    endloop
  endfacet
  facet normal -0.0495746467 -0.991681498 0.1187862
    outer loop
      vertex 4.61220075 0.138125632 1.29764217
      vertex 4.55709262 0.132384605 1.22671444
      vertex 4.5577125 0.132297797 1.22624842
    endloop
  endfacet
  facet normal 0.605424927 0.0647537314 0.793263898
    outer loop
      vertex 4.61198805 0.14011429 1.29764217
      vertex 4.61158086 0.138212441 1.29810819
      vertex 4.61220075 0.138125632 1.29764217
    endloop
  endfacet
  facet normal -0.605424927 -0.0647537314 -0.793263898
    outer loop
      vertex 4.55749981 0.134286454 1.22624842
      vertex 4.5577125 0.132297797 1.22624842
      vertex 4.55709262 0.132384605 1.22671444
    endloop
  endfacet
  facet normal -0.349788257 -0.873623805 0.338274478
    outer loop
      vertex 4.61158086 0.138212441 1.29810819
      vertex 4.61102297 0.138588789 1.29850326
      vertex 4.55653472 0.132760954 1.22710951
    endloop
  endfacet
  facet normal -0.349788257 -0.873623805 0.338274478
    outer loop
      vertex 4.61158086 0.138212441 1.29810819
      vertex 4.55653472 0.132760954 1.22710951
      vertex 4.55709262 0.132384605 1.22671444
    endloop
  endfacet
  facet normal 0.605424927 0.0647537314 0.793263898
    outer loop
      vertex 4.61198805 0.14011429 1.29764217
      vertex 4.61102297 0.138588789 1.29850326
      vertex 4.61158086 0.138212441 1.29810819
    endloop
  endfacet
  facet normal -0.605424927 -0.0647537314 -0.793263898
    outer loop
      vertex 4.55749981 0.134286454 1.22624842
      vertex 4.55709262 0.132384605 1.22671444
      vertex 4.55653472 0.132760954 1.22710951
    endloop
  endfacet
  facet normal -0.596749776 -0.622564807 0.506263533
    outer loop
      vertex 4.61102297 0.138588789 1.29850326
      vertex 4.610612 0.139197381 1.29876723
      vertex 4.55612375 0.133369545 1.22737348
    endloop
  endfacet
  facet normal -0.596749776 -0.622564807 0.506263533
    outer loop
      vertex 4.61102297 0.138588789 1.29850326
      vertex 4.55612375 0.133369545 1.22737348
      vertex 4.55653472 0.132760954 1.22710951
    endloop
  endfacet
  facet normal 0.605424927 0.0647537314 0.793263898
    outer loop
      vertex 4.61198805 0.14011429 1.29764217
      vertex 4.610612 0.139197381 1.29876723
      vertex 4.61102297 0.138588789 1.29850326
    endloop
  endfacet
  facet normal -0.605424927 -0.0647537314 -0.793263898
    outer loop
      vertex 4.55749981 0.134286454 1.22624842
      vertex 4.55653472 0.132760954 1.22710951
      vertex 4.55612375 0.133369545 1.22737348
    endloop
  endfacet
  facet normal -0.752861552 -0.276725961 0.597178555
    outer loop
      vertex 4.610612 0.139197381 1.29876723
      vertex 4.61041052 0.139945564 1.29885993
      vertex 4.55592228 0.134117728 1.22746618
    endloop
  endfacet
  facet normal -0.752861552 -0.276725961 0.597178555
    outer loop
      vertex 4.610612 0.139197381 1.29876723
      vertex 4.55592228 0.134117728 1.22746618
      vertex 4.55612375 0.133369545 1.22737348
    endloop
  endfacet
  facet normal 0.605424927 0.0647537314 0.793263898
    outer loop
      vertex 4.61198805 0.14011429 1.29764217
      vertex 4.61041052 0.139945564 1.29885993
      vertex 4.610612 0.139197381 1.29876723
    endloop
  endfacet
  facet normal -0.605424927 -0.0647537314 -0.793263898
    outer loop
      vertex 4.55749981 0.134286454 1.22624842
      vertex 4.55612375 0.133369545 1.22737348
      vertex 4.55592228 0.134117728 1.22746618
    endloop
  endfacet
  facet normal -0.79435698 0.111241904 0.597178555
    outer loop
      vertex 4.61041052 0.139945564 1.29885993
      vertex 4.6104492 0.140719434 1.29876723
      vertex 4.55596096 0.134891598 1.22737348
    endloop
  endfacet
  facet normal -0.79435698 0.111241904 0.597178555
    outer loop
      vertex 4.61041052 0.139945564 1.29885993
      vertex 4.55596096 0.134891598 1.22737348
      vertex 4.55592228 0.134117728 1.22746618
    endloop
  endfacet
  facet normal 0.605424927 0.0647537314 0.793263898
    outer loop
      vertex 4.61198805 0.14011429 1.29764217
      vertex 4.6104492 0.140719434 1.29876723
      vertex 4.61041052 0.139945564 1.29885993
    endloop
  endfacet
  facet normal -0.605424927 -0.0647537314 -0.793263898
    outer loop
      vertex 4.55749981 0.134286454 1.22624842
      vertex 4.55592228 0.134117728 1.22746618
      vertex 4.55596096 0.134891598 1.22737348
    endloop
  endfacet
  facet normal -0.71491876 0.482274198 0.506263533
    outer loop
      vertex 4.6104492 0.140719434 1.29876723
      vertex 4.61072217 0.141401176 1.29850326
      vertex 4.55623392 0.13557334 1.22710951
    endloop
  endfacet
  facet normal -0.71491876 0.482274198 0.506263533
    outer loop
      vertex 4.6104492 0.140719434 1.29876723
      vertex 4.55623392 0.13557334 1.22710951
      vertex 4.55596096 0.134891598 1.22737348
    endloop
  endfacet
  facet normal 0.605424927 0.0647537314 0.793263898
    outer loop
      vertex 4.61198805 0.14011429 1.29764217
      vertex 4.61072217 0.141401176 1.29850326
      vertex 4.6104492 0.140719434 1.29876723
    endloop
  endfacet
  facet normal -0.605424927 -0.0647537314 -0.793263898
    outer loop
      vertex 4.55749981 0.134286454 1.22624842
      vertex 4.55596096 0.134891598 1.22737348
      vertex 4.55623392 0.13557334 1.22710951
    endloop
  endfacet
  facet normal -0.526640639 0.779884617 0.338274478
    outer loop
      vertex 4.61072217 0.141401176 1.29850326
      vertex 4.61118785 0.141887002 1.29810819
      vertex 4.5566996 0.136059166 1.22671444
    endloop
  endfacet
  facet normal -0.526640639 0.779884617 0.338274478
    outer loop
      vertex 4.61072217 0.141401176 1.29850326
      vertex 4.5566996 0.136059166 1.22671444
      vertex 4.55623392 0.13557334 1.22710951
    endloop
  endfacet
  facet normal 0.605424927 0.0647537314 0.793263898
    outer loop
      vertex 4.61198805 0.14011429 1.29764217
      vertex 4.61118785 0.141887002 1.29810819
      vertex 4.61072217 0.141401176 1.29850326
    endloop
  endfacet
  facet normal -0.605424927 -0.0647537314 -0.793263898
    outer loop
      vertex 4.55749981 0.134286454 1.22624842
      vertex 4.55623392 0.13557334 1.22710951
      vertex 4.5566996 0.136059166 1.22671444
    endloop
  endfacet
  facet normal -0.258186254 0.958764672 0.1187862
    outer loop
      vertex 4.61118785 0.141887002 1.29810819
      vertex 4.61177535 0.142102948 1.29764217
      vertex 4.55728711 0.136275112 1.22624842
    endloop
  endfacet
  facet normal -0.258186254 0.958764672 0.1187862
    outer loop
      vertex 4.61118785 0.141887002 1.29810819
      vertex 4.55728711 0.136275112 1.22624842
      vertex 4.5566996 0.136059166 1.22671444
    endloop
  endfacet
  facet normal 0.605424927 0.0647537314 0.793263898
    outer loop
      vertex 4.61198805 0.14011429 1.29764217
      vertex 4.61177535 0.142102948 1.29764217
      vertex 4.61118785 0.141887002 1.29810819
    endloop
  endfacet
  facet normal -0.605424927 -0.0647537314 -0.793263898
    outer loop
      vertex 4.55749981 0.134286454 1.22624842
      vertex 4.5566996 0.136059166 1.22671444
      vertex 4.55728711 0.136275112 1.22624842
    endloop
  endfacet
  facet normal 0.0495746467 0.991681498 -0.1187862
    outer loop
      vertex 4.61918939 0.170066685 1.28970106
      vertex 4.61980928 0.169979876 1.28923504
      vertex 4.56532103 0.164152041 1.21784129
    endloop
  endfacet
  facet normal 0.0495746467 0.991681498 -0.1187862
    outer loop
      vertex 4.61918939 0.170066685 1.28970106
      vertex 4.56532103 0.164152041 1.21784129
      vertex 4.56470115 0.164238849 1.21830731
    endloop
  endfacet
  facet normal 0.605424927 0.0647537314 0.793263898
    outer loop
      vertex 4.61940209 0.168078028 1.28970106
      vertex 4.61980928 0.169979876 1.28923504
      vertex 4.61918939 0.170066685 1.28970106
    endloop
  endfacet
  facet normal -0.605424927 -0.0647537314 -0.793263898
    outer loop
      vertex 4.56491385 0.162250192 1.21830731
      vertex 4.56470115 0.164238849 1.21830731
      vertex 4.56532103 0.164152041 1.21784129
    endloop
  endfacet
  facet normal 0.349788257 0.873623805 -0.338274478
    outer loop
      vertex 4.61980928 0.169979876 1.28923504
      vertex 4.62036717 0.169603528 1.28883997
      vertex 4.56587893 0.163775692 1.21744622
    endloop
  endfacet
  facet normal 0.349788257 0.873623805 -0.338274478
    outer loop
      vertex 4.61980928 0.169979876 1.28923504
      vertex 4.56587893 0.163775692 1.21744622
      vertex 4.56532103 0.164152041 1.21784129
    endloop
  endfacet
  facet normal 0.605424927 0.0647537314 0.793263898
    outer loop
      vertex 4.61940209 0.168078028 1.28970106
      vertex 4.62036717 0.169603528 1.28883997
      vertex 4.61980928 0.169979876 1.28923504
    endloop
  endfacet
  facet normal -0.605424927 -0.0647537314 -0.793263898
    outer loop
      vertex 4.56491385 0.162250192 1.21830731
      vertex 4.56532103 0.164152041 1.21784129
      vertex 4.56587893 0.163775692 1.21744622
    endloop
  endfacet
  facet normal 0.596749776 0.622564807 -0.506263533
    outer loop
      vertex 4.62036717 0.169603528 1.28883997
      vertex 4.62077814 0.168994937 1.288576
      vertex 4.5662899 0.163167101 1.21718225
    endloop
  endfacet
  facet normal 0.596749776 0.622564807 -0.506263533
    outer loop
      vertex 4.62036717 0.169603528 1.28883997
      vertex 4.5662899 0.163167101 1.21718225
      vertex 4.56587893 0.163775692 1.21744622
    endloop
  endfacet
  facet normal 0.605424927 0.0647537314 0.793263898
    outer loop
      vertex 4.61940209 0.168078028 1.28970106
      vertex 4.62077814 0.168994937 1.288576
      vertex 4.62036717 0.169603528 1.28883997
    endloop
  endfacet
  facet normal -0.605424927 -0.0647537314 -0.793263898
    outer loop
      vertex 4.56491385 0.162250192 1.21830731
      vertex 4.56587893 0.163775692 1.21744622
      vertex 4.5662899 0.163167101 1.21718225
    endloop
  endfacet
  facet normal 0.752861552 0.276725961 -0.597178555
    outer loop
      vertex 4.62077814 0.168994937 1.288576
      vertex 4.62097962 0.168246754 1.2884833
      vertex 4.56649138 0.162418918 1.21708955
    endloop
  endfacet
  facet normal 0.752861552 0.276725961 -0.597178555
    outer loop
      vertex 4.62077814 0.168994937 1.288576
      vertex 4.56649138 0.162418918 1.21708955
      vertex 4.5662899 0.163167101 1.21718225
    endloop
  endfacet
  facet normal 0.605424927 0.0647537314 0.793263898
    outer loop
      vertex 4.61940209 0.168078028 1.28970106
      vertex 4.62097962 0.168246754 1.2884833
      vertex 4.62077814 0.168994937 1.288576
    endloop
  endfacet
  facet normal -0.605424927 -0.0647537314 -0.793263898
    outer loop
      vertex 4.56491385 0.162250192 1.21830731
      vertex 4.5662899 0.163167101 1.21718225
      vertex 4.56649138 0.162418918 1.21708955
    endloop
  endfacet
  facet normal 0.79435698 -0.111241904 -0.597178555
    outer loop
      vertex 4.62097962 0.168246754 1.2884833
      vertex 4.62094094 0.167472884 1.288576
      vertex 4.56645269 0.161645048 1.21718225
    endloop
  endfacet
  facet normal 0.79435698 -0.111241904 -0.597178555
    outer loop
      vertex 4.62097962 0.168246754 1.2884833
      vertex 4.56645269 0.161645048 1.21718225
      vertex 4.56649138 0.162418918 1.21708955
    endloop
  endfacet
  facet normal 0.605424927 0.0647537314 0.793263898
    outer loop
      vertex 4.61940209 0.168078028 1.28970106
      vertex 4.62094094 0.167472884 1.288576
      vertex 4.62097962 0.168246754 1.2884833
    endloop
  endfacet
  facet normal -0.605424927 -0.0647537314 -0.793263898
    outer loop
      vertex 4.56491385 0.162250192 1.21830731
      vertex 4.56649138 0.162418918 1.21708955
      vertex 4.56645269 0.161645048 1.21718225
    endloop
  endfacet
  facet normal 0.71491876 -0.482274198 -0.506263533
    outer loop
      vertex 4.62094094 0.167472884 1.288576
      vertex 4.62066797 0.166791142 1.28883997
      vertex 4.56617973 0.160963306 1.21744622
    endloop
  endfacet
  facet normal 0.71491876 -0.482274198 -0.506263533
    outer loop
      vertex 4.62094094 0.167472884 1.288576
      vertex 4.56617973 0.160963306 1.21744622
      vertex 4.56645269 0.161645048 1.21718225
    endloop
  endfacet
  facet normal 0.605424927 0.0647537314 0.793263898
    outer loop
      vertex 4.61940209 0.168078028 1.28970106
      vertex 4.62066797 0.166791142 1.28883997
      vertex 4.62094094 0.167472884 1.288576
    endloop
  endfacet
  facet normal -0.605424927 -0.0647537314 -0.793263898
    outer loop
      vertex 4.56491385 0.162250192 1.21830731
      vertex 4.56645269 0.161645048 1.21718225
      vertex 4.56617973 0.160963306 1.21744622
    endloop
  endfacet
  facet normal 0.526640639 -0.779884617 -0.338274478
    outer loop
      vertex 4.62066797 0.166791142 1.28883997
      vertex 4.62020229 0.166305316 1.28923504
      vertex 4.56571405 0.16047748 1.21784129
    endloop
  endfacet
  facet normal 0.526640639 -0.779884617 -0.338274478
    outer loop
      vertex 4.62066797 0.166791142 1.28883997
      vertex 4.56571405 0.16047748 1.21784129
      vertex 4.56617973 0.160963306 1.21744622
    endloop
  endfacet
  facet normal 0.605424927 0.0647537314 0.793263898
    outer loop
      vertex 4.61940209 0.168078028 1.28970106
      vertex 4.62020229 0.166305316 1.28923504
      vertex 4.62066797 0.166791142 1.28883997
    endloop
  endfacet
  facet normal -0.605424927 -0.0647537314 -0.793263898
    outer loop
      vertex 4.56491385 0.162250192 1.21830731
      vertex 4.56617973 0.160963306 1.21744622
      vertex 4.56571405 0.16047748 1.21784129
    endloop
  endfacet
  facet normal 0.258186254 -0.958764672 -0.1187862
    outer loop
      vertex 4.62020229 0.166305316 1.28923504
      vertex 4.61961479 0.16608937 1.28970106
      vertex 4.56512655 0.160261534 1.21830731
    endloop
  endfacet
  facet normal 0.258186254 -0.958764672 -0.1187862
    outer loop
      vertex 4.62020229 0.166305316 1.28923504
      vertex 4.56512655 0.160261534 1.21830731
      vertex 4.56571405 0.16047748 1.21784129
    endloop
  endfacet
  facet normal 0.605424927 0.0647537314 0.793263898
    outer loop
      vertex 4.61940209 0.168078028 1.28970106
      vertex 4.61961479 0.16608937 1.28970106
      vertex 4.62020229 0.166305316 1.28923504
    endloop
  endfacet
  facet normal -0.605424927 -0.0647537314 -0.793263898
    outer loop
      vertex 4.56491385 0.162250192 1.21830731
      vertex 4.56571405 0.16047748 1.21784129
      vertex 4.56512655 0.160261534 1.21830731
    endloop
  endfacet
  facet normal -0.0495746467 -0.991681498 0.1187862
    outer loop
      vertex 4.61961479 0.16608937 1.28970106
      vertex 4.6189949 0.166176179 1.29016707
      vertex 4.56450666 0.160348343 1.21877332
    endloop
  endfacet
  facet normal -0.0495746467 -0.991681498 0.1187862
    outer loop
      vertex 4.61961479 0.16608937 1.28970106
      vertex 4.56450666 0.160348343 1.21877332
      vertex 4.56512655 0.160261534 1.21830731
    endloop
  endfacet
  facet normal 0.605424927 0.0647537314 0.793263898
    outer loop
      vertex 4.61940209 0.168078028 1.28970106
      vertex 4.6189949 0.166176179 1.29016707
      vertex 4.61961479 0.16608937 1.28970106
    endloop
  endfacet
  facet normal -0.605424927 -0.0647537314 -0.793263898
    outer loop
      vertex 4.56491385 0.162250192 1.21830731
      vertex 4.56512655 0.160261534 1.21830731
      vertex 4.56450666 0.160348343 1.21877332
    endloop
  endfacet
  facet normal -0.349788257 -0.873623805 0.338274478
    outer loop
      vertex 4.6189949 0.166176179 1.29016707
      vertex 4.61843701 0.166552527 1.29056214
      vertex 4.56394877 0.160724691 1.21916839
    endloop
  endfacet
  facet normal -0.349788257 -0.873623805 0.338274478
    outer loop
      vertex 4.6189949 0.166176179 1.29016707
      vertex 4.56394877 0.160724691 1.21916839
      vertex 4.56450666 0.160348343 1.21877332
    endloop
  endfacet
  facet normal 0.605424927 0.0647537314 0.793263898
    outer loop
      vertex 4.61940209 0.168078028 1.28970106
      vertex 4.61843701 0.166552527 1.29056214
      vertex 4.6189949 0.166176179 1.29016707
    endloop
  endfacet
  facet normal -0.605424927 -0.0647537314 -0.793263898
    outer loop
      vertex 4.56491385 0.162250192 1.21830731
      vertex 4.56450666 0.160348343 1.21877332
      vertex 4.56394877 0.160724691 1.21916839
    endloop
  endfacet
  facet normal -0.596749776 -0.622564807 0.506263533
    outer loop
      vertex 4.61843701 0.166552527 1.29056214
      vertex 4.61802604 0.167161119 1.29082612
      vertex 4.5635378 0.161333283 1.21943237
    endloop
  endfacet
  facet normal -0.596749776 -0.622564807 0.506263533
    outer loop
      vertex 4.61843701 0.166552527 1.29056214
      vertex 4.5635378 0.161333283 1.21943237
      vertex 4.56394877 0.160724691 1.21916839
    endloop
  endfacet
  facet normal 0.605424927 0.0647537314 0.793263898
    outer loop
      vertex 4.61940209 0.168078028 1.28970106
      vertex 4.61802604 0.167161119 1.29082612
      vertex 4.61843701 0.166552527 1.29056214
    endloop
  endfacet
  facet normal -0.605424927 -0.0647537314 -0.793263898
    outer loop
      vertex 4.56491385 0.162250192 1.21830731
      vertex 4.56394877 0.160724691 1.21916839
      vertex 4.5635378 0.161333283 1.21943237
    endloop
  endfacet
  facet normal -0.752861552 -0.276725961 0.597178555
    outer loop
      vertex 4.61802604 0.167161119 1.29082612
      vertex 4.61782456 0.167909302 1.29091881
      vertex 4.56333632 0.162081466 1.21952506
    endloop
  endfacet
  facet normal -0.752861552 -0.276725961 0.597178555
    outer loop
      vertex 4.61802604 0.167161119 1.29082612
      vertex 4.56333632 0.162081466 1.21952506
      vertex 4.5635378 0.161333283 1.21943237
    endloop
  endfacet
  facet normal 0.605424927 0.0647537314 0.793263898
    outer loop
      vertex 4.61940209 0.168078028 1.28970106
      vertex 4.61782456 0.167909302 1.29091881
      vertex 4.61802604 0.167161119 1.29082612
    endloop
  endfacet
  facet normal -0.605424927 -0.0647537314 -0.793263898
    outer loop
      vertex 4.56491385 0.162250192 1.21830731
      vertex 4.5635378 0.161333283 1.21943237
      vertex 4.56333632 0.162081466 1.21952506
    endloop
  endfacet
  facet normal -0.79435698 0.111241904 0.597178555
    outer loop
      vertex 4.61782456 0.167909302 1.29091881
      vertex 4.61786325 0.168683171 1.29082612
      vertex 4.563375 0.162855336 1.21943237
    endloop
  endfacet
  facet normal -0.79435698 0.111241904 0.597178555
    outer loop
      vertex 4.61782456 0.167909302 1.29091881
      vertex 4.563375 0.162855336 1.21943237
      vertex 4.56333632 0.162081466 1.21952506
    endloop
  endfacet
  facet normal 0.605424927 0.0647537314 0.793263898
    outer loop
      vertex 4.61940209 0.168078028 1.28970106
      vertex 4.61786325 0.168683171 1.29082612
      vertex 4.61782456 0.167909302 1.29091881
    endloop
  endfacet
  facet normal -0.605424927 -0.0647537314 -0.793263898
    outer loop
      vertex 4.56491385 0.162250192 1.21830731
      vertex 4.56333632 0.162081466 1.21952506
      vertex 4.563375 0.162855336 1.21943237
    endloop
  endfacet
  facet normal -0.71491876 0.482274198 0.506263533
    outer loop
      vertex 4.61786325 0.168683171 1.29082612
      vertex 4.61813621 0.169364914 1.29056214
      vertex 4.56364796 0.163537078 1.21916839
    endloop
  endfacet
  facet normal -0.71491876 0.482274198 0.506263533
    outer loop
      vertex 4.61786325 0.168683171 1.29082612
      vertex 4.56364796 0.163537078 1.21916839
      vertex 4.563375 0.162855336 1.21943237
    endloop
  endfacet
  facet normal 0.605424927 0.0647537314 0.793263898
    outer loop
      vertex 4.61940209 0.168078028 1.28970106
      vertex 4.61813621 0.169364914 1.29056214
      vertex 4.61786325 0.168683171 1.29082612
    endloop
  endfacet
  facet normal -0.605424927 -0.0647537314 -0.793263898
    outer loop
      vertex 4.56491385 0.162250192 1.21830731
      vertex 4.563375 0.162855336 1.21943237
      vertex 4.56364796 0.163537078 1.21916839
    endloop
  endfacet
  facet normal -0.526640639 0.779884617 0.338274478
    outer loop
      vertex 4.61813621 0.169364914 1.29056214
      vertex 4.61860189 0.169850739 1.29016707
      vertex 4.56411365 0.164022903 1.21877332
    endloop
  endfacet
  facet normal -0.526640639 0.779884617 0.338274478
    outer loop
      vertex 4.61813621 0.169364914 1.29056214
      vertex 4.56411365 0.164022903 1.21877332
      vertex 4.56364796 0.163537078 1.21916839
    endloop
  endfacet
  facet normal 0.605424927 0.0647537314 0.793263898
    outer loop
      vertex 4.61940209 0.168078028 1.28970106
      vertex 4.61860189 0.169850739 1.29016707
      vertex 4.61813621 0.169364914 1.29056214
    endloop
  endfacet
  facet normal -0.605424927 -0.0647537314 -0.793263898
    outer loop
      vertex 4.56491385 0.162250192 1.21830731
      vertex 4.56364796 0.163537078 1.21916839
      vertex 4.56411365 0.164022903 1.21877332
    endloop
  endfacet
  facet normal -0.258186254 0.958764672 0.1187862
    outer loop
      vertex 4.61860189 0.169850739 1.29016707
      vertex 4.61918939 0.170066685 1.28970106
      vertex 4.56470115 0.164238849 1.21830731
    endloop
  endfacet
  facet normal -0.258186254 0.958764672 0.1187862
    outer loop
      vertex 4.61860189 0.169850739 1.29016707
      vertex 4.56470115 0.164238849 1.21830731
      vertex 4.56411365 0.164022903 1.21877332
    endloop
  endfacet
  facet normal 0.605424927 0.0647537314 0.793263898
    outer loop
      vertex 4.61940209 0.168078028 1.28970106
      vertex 4.61918939 0.170066685 1.28970106
      vertex 4.61860189 0.169850739 1.29016707
    endloop
  endfacet
  facet normal -0.605424927 -0.0647537314 -0.793263898
    outer loop
      vertex 4.56491385 0.162250192 1.21830731
      vertex 4.56411365 0.164022903 1.21877332
      vertex 4.56470115 0.164238849 1.21830731
    endloop
  endfacet
  facet normal 0.729886747 -0.655980798 -0.192235609
    outer loop
      vertex 4.67455561 0.126745191 1.15436537
      vertex 4.67435513 0.126743137 1.1536112
      vertex 4.76937351 0.239959085 1.12804448
    endloop
  endfacet
  facet normal 0.729886747 -0.655980798 -0.192235609
    outer loop
      vertex 4.67455561 0.126745191 1.15436537
      vertex 4.76937351 0.239959085 1.12804448
      vertex 4.76957398 0.239961139 1.12879865
    endloop
  endfacet
  facet normal -0.633455844 -0.754772987 0.170444807
    outer loop
      vertex 4.67302364 0.128030917 1.15436537
      vertex 4.67435513 0.126743137 1.1536112
      vertex 4.67455561 0.126745191 1.15436537
    endloop
  endfacet
  facet normal 0.633455844 0.754772987 -0.170444807
    outer loop
      vertex 4.76804202 0.241246865 1.12879865
      vertex 4.76957398 0.239961139 1.12879865
      vertex 4.76937351 0.239959085 1.12804448
    endloop
  endfacet
  facet normal 0.576014994 -0.607054699 -0.547440699
    outer loop
      vertex 4.67435513 0.126743137 1.1536112
      vertex 4.67395195 0.126937135 1.15297185
      vertex 4.76897032 0.240153083 1.12740513
    endloop
  endfacet
  facet normal 0.576014994 -0.607054699 -0.547440699
    outer loop
      vertex 4.67435513 0.126743137 1.1536112
      vertex 4.76897032 0.240153083 1.12740513
      vertex 4.76937351 0.239959085 1.12804448
    endloop
  endfacet
  facet normal -0.633455844 -0.754772987 0.170444807
    outer loop
      vertex 4.67302364 0.128030917 1.15436537
      vertex 4.67395195 0.126937135 1.15297185
      vertex 4.67435513 0.126743137 1.1536112
    endloop
  endfacet
  facet normal 0.633455844 0.754772987 -0.170444807
    outer loop
      vertex 4.76804202 0.241246865 1.12879865
      vertex 4.76937351 0.239959085 1.12804448
      vertex 4.76897032 0.240153083 1.12740513
    endloop
  endfacet
  facet normal 0.334450181 -0.465710025 -0.819302904
    outer loop
      vertex 4.67395195 0.126937135 1.15297185
      vertex 4.67340744 0.127297652 1.15254465
      vertex 4.76842581 0.2405136 1.12697793
    endloop
  endfacet
  facet normal 0.334450181 -0.465710025 -0.819302904
    outer loop
      vertex 4.67395195 0.126937135 1.15297185
      vertex 4.76842581 0.2405136 1.12697793
      vertex 4.76897032 0.240153083 1.12740513
    endloop
  endfacet
  facet normal -0.633455844 -0.754772987 0.170444807
    outer loop
      vertex 4.67302364 0.128030917 1.15436537
      vertex 4.67340744 0.127297652 1.15254465
      vertex 4.67395195 0.126937135 1.15297185
    endloop
  endfacet
  facet normal 0.633455844 0.754772987 -0.170444807
    outer loop
      vertex 4.76804202 0.241246865 1.12879865
      vertex 4.76897032 0.240153083 1.12740513
      vertex 4.76842581 0.2405136 1.12697793
    endloop
  endfacet
  facet normal 0.0419683589 -0.253465221 -0.96643367
    outer loop
      vertex 4.67340744 0.127297652 1.15254465
      vertex 4.6728045 0.127769801 1.15239464
      vertex 4.76782287 0.240985749 1.12682792
    endloop
  endfacet
  facet normal 0.0419683589 -0.253465221 -0.96643367
    outer loop
      vertex 4.67340744 0.127297652 1.15254465
      vertex 4.76782287 0.240985749 1.12682792
      vertex 4.76842581 0.2405136 1.12697793
    endloop
  endfacet
  facet normal -0.633455844 -0.754772987 0.170444807
    outer loop
      vertex 4.67302364 0.128030917 1.15436537
      vertex 4.6728045 0.127769801 1.15239464
      vertex 4.67340744 0.127297652 1.15254465
    endloop
  endfacet
  facet normal 0.633455844 0.754772987 -0.170444807
    outer loop
      vertex 4.76804202 0.241246865 1.12879865
      vertex 4.76842581 0.2405136 1.12697793
      vertex 4.76782287 0.240985749 1.12682792
    endloop
  endfacet
  facet normal -0.256902765 -0.00263263532 -0.96643367
    outer loop
      vertex 4.6728045 0.127769801 1.15239464
      vertex 4.67223492 0.128281703 1.15254465
      vertex 4.7672533 0.241497651 1.12697793
    endloop
  endfacet
  facet normal -0.256902765 -0.00263263532 -0.96643367
    outer loop
      vertex 4.6728045 0.127769801 1.15239464
      vertex 4.7672533 0.241497651 1.12697793
      vertex 4.76782287 0.240985749 1.12682792
    endloop
  endfacet
  facet normal -0.633455844 -0.754772987 0.170444807
    outer loop
      vertex 4.67302364 0.128030917 1.15436537
      vertex 4.67223492 0.128281703 1.15254465
      vertex 4.6728045 0.127769801 1.15239464
    endloop
  endfacet
  facet normal 0.633455844 0.754772987 -0.170444807
    outer loop
      vertex 4.76804202 0.241246865 1.12879865
      vertex 4.76782287 0.240985749 1.12682792
      vertex 4.7672533 0.241497651 1.12697793
    endloop
  endfacet
  facet normal -0.516662772 0.248600745 -0.819302904
    outer loop
      vertex 4.67223492 0.128281703 1.15254465
      vertex 4.67178542 0.128755425 1.15297185
      vertex 4.7668038 0.241971373 1.12740513
    endloop
  endfacet
  facet normal -0.516662772 0.248600745 -0.819302904
    outer loop
      vertex 4.67223492 0.128281703 1.15254465
      vertex 4.7668038 0.241971373 1.12740513
      vertex 4.7672533 0.241497651 1.12697793
    endloop
  endfacet
  facet normal -0.633455844 -0.754772987 0.170444807
    outer loop
      vertex 4.67302364 0.128030917 1.15436537
      vertex 4.67178542 0.128755425 1.15297185
      vertex 4.67223492 0.128281703 1.15254465
    endloop
  endfacet
  facet normal 0.633455844 0.754772987 -0.170444807
    outer loop
      vertex 4.76804202 0.241246865 1.12879865
      vertex 4.7672533 0.241497651 1.12697793
      vertex 4.7668038 0.241971373 1.12740513
    endloop
  endfacet
  facet normal -0.697765556 0.461986916 -0.547440699
    outer loop
      vertex 4.67178542 0.128755425 1.15297185
      vertex 4.67152443 0.129118848 1.1536112
      vertex 4.76654281 0.242334796 1.12804448
    endloop
  endfacet
  facet normal -0.697765556 0.461986916 -0.547440699
    outer loop
      vertex 4.67178542 0.128755425 1.15297185
      vertex 4.76654281 0.242334796 1.12804448
      vertex 4.7668038 0.241971373 1.12740513
    endloop
  endfacet
  facet normal -0.633455844 -0.754772987 0.170444807
    outer loop
      vertex 4.67302364 0.128030917 1.15436537
      vertex 4.67152443 0.129118848 1.1536112
      vertex 4.67178542 0.128755425 1.15297185
    endloop
  endfacet
  facet normal 0.633455844 0.754772987 -0.170444807
    outer loop
      vertex 4.76804202 0.241246865 1.12879865
      vertex 4.7668038 0.241971373 1.12740513
      vertex 4.76654281 0.242334796 1.12804448
    endloop
  endfacet
  facet normal -0.772639858 0.605039767 -0.192235609
    outer loop
      vertex 4.67152443 0.129118848 1.1536112
      vertex 4.67149168 0.129316642 1.15436537
      vertex 4.76651006 0.24253259 1.12879865
    endloop
  endfacet
  facet normal -0.772639858 0.605039767 -0.192235609
    outer loop
      vertex 4.67152443 0.129118848 1.1536112
      vertex 4.76651006 0.24253259 1.12879865
      vertex 4.76654281 0.242334796 1.12804448
    endloop
  endfacet
  facet normal -0.633455844 -0.754772987 0.170444807
    outer loop
      vertex 4.67302364 0.128030917 1.15436537
      vertex 4.67149168 0.129316642 1.15436537
      vertex 4.67152443 0.129118848 1.1536112
    endloop
  endfacet
  facet normal 0.633455844 0.754772987 -0.170444807
    outer loop
      vertex 4.76804202 0.241246865 1.12879865
      vertex 4.76654281 0.242334796 1.12804448
      vertex 4.76651006 0.24253259 1.12879865
    endloop
  endfacet
  facet normal -0.729886747 0.655980798 0.192235609
    outer loop
      vertex 4.67149168 0.129316642 1.15436537
      vertex 4.67169216 0.129318696 1.15511954
      vertex 4.76671053 0.242534644 1.12955282
    endloop
  endfacet
  facet normal -0.729886747 0.655980798 0.192235609
    outer loop
      vertex 4.67149168 0.129316642 1.15436537
      vertex 4.76671053 0.242534644 1.12955282
      vertex 4.76651006 0.24253259 1.12879865
    endloop
  endfacet
  facet normal -0.633455844 -0.754772987 0.170444807
    outer loop
      vertex 4.67302364 0.128030917 1.15436537
      vertex 4.67169216 0.129318696 1.15511954
      vertex 4.67149168 0.129316642 1.15436537
    endloop
  endfacet
  facet normal 0.633455844 0.754772987 -0.170444807
    outer loop
      vertex 4.76804202 0.241246865 1.12879865
      vertex 4.76651006 0.24253259 1.12879865
      vertex 4.76671053 0.242534644 1.12955282
    endloop
  endfacet
  facet normal -0.576014994 0.607054699 0.547440699
    outer loop
      vertex 4.67169216 0.129318696 1.15511954
      vertex 4.67209534 0.129124698 1.15575889
      vertex 4.76711372 0.242340646 1.13019217
    endloop
  endfacet
  facet normal -0.576014994 0.607054699 0.547440699
    outer loop
      vertex 4.67169216 0.129318696 1.15511954
      vertex 4.76711372 0.242340646 1.13019217
      vertex 4.76671053 0.242534644 1.12955282
    endloop
  endfacet
  facet normal -0.633455844 -0.754772987 0.170444807
    outer loop
      vertex 4.67302364 0.128030917 1.15436537
      vertex 4.67209534 0.129124698 1.15575889
      vertex 4.67169216 0.129318696 1.15511954
    endloop
  endfacet
  facet normal 0.633455844 0.754772987 -0.170444807
    outer loop
      vertex 4.76804202 0.241246865 1.12879865
      vertex 4.76671053 0.242534644 1.12955282
      vertex 4.76711372 0.242340646 1.13019217
    endloop
  endfacet
  facet normal -0.334450181 0.465710025 0.819302904
    outer loop
      vertex 4.67209534 0.129124698 1.15575889
      vertex 4.67263985 0.128764181 1.15618609
      vertex 4.76765823 0.241980129 1.13061937
    endloop
  endfacet
  facet normal -0.334450181 0.465710025 0.819302904
    outer loop
      vertex 4.67209534 0.129124698 1.15575889
      vertex 4.76765823 0.241980129 1.13061937
      vertex 4.76711372 0.242340646 1.13019217
    endloop
  endfacet
  facet normal -0.633455844 -0.754772987 0.170444807
    outer loop
      vertex 4.67302364 0.128030917 1.15436537
      vertex 4.67263985 0.128764181 1.15618609
      vertex 4.67209534 0.129124698 1.15575889
    endloop
  endfacet
  facet normal 0.633455844 0.754772987 -0.170444807
    outer loop
      vertex 4.76804202 0.241246865 1.12879865
      vertex 4.76711372 0.242340646 1.13019217
      vertex 4.76765823 0.241980129 1.13061937
    endloop
  endfacet
  facet normal -0.0419683589 0.253465221 0.96643367
    outer loop
      vertex 4.67263985 0.128764181 1.15618609
      vertex 4.67324279 0.128292032 1.15633611
      vertex 4.76826117 0.24150798 1.13076939
    endloop
  endfacet
  facet normal -0.0419683589 0.253465221 0.96643367
    outer loop
      vertex 4.67263985 0.128764181 1.15618609
      vertex 4.76826117 0.24150798 1.13076939
      vertex 4.76765823 0.241980129 1.13061937
    endloop
  endfacet
  facet normal -0.633455844 -0.754772987 0.170444807
    outer loop
      vertex 4.67302364 0.128030917 1.15436537
      vertex 4.67324279 0.128292032 1.15633611
      vertex 4.67263985 0.128764181 1.15618609
    endloop
  endfacet
  facet normal 0.633455844 0.754772987 -0.170444807
    outer loop
      vertex 4.76804202 0.241246865 1.12879865
      vertex 4.76765823 0.241980129 1.13061937
      vertex 4.76826117 0.24150798 1.13076939
    endloop
  endfacet
  facet normal 0.256902765 0.00263263532 0.96643367
    outer loop
      vertex 4.67324279 0.128292032 1.15633611
      vertex 4.67381236 0.12778013 1.15618609
      vertex 4.76883074 0.240996078 1.13061937
    endloop
  endfacet
  facet normal 0.256902765 0.00263263532 0.96643367
    outer loop
      vertex 4.67324279 0.128292032 1.15633611
      vertex 4.76883074 0.240996078 1.13061937
      vertex 4.76826117 0.24150798 1.13076939
    endloop
  endfacet
  facet normal -0.633455844 -0.754772987 0.170444807
    outer loop
      vertex 4.67302364 0.128030917 1.15436537
      vertex 4.67381236 0.12778013 1.15618609
      vertex 4.67324279 0.128292032 1.15633611
    endloop
  endfacet
  facet normal 0.633455844 0.754772987 -0.170444807
    outer loop
      vertex 4.76804202 0.241246865 1.12879865
      vertex 4.76826117 0.24150798 1.13076939
      vertex 4.76883074 0.240996078 1.13061937
    endloop
  endfacet
  facet normal 0.516662772 -0.248600745 0.819302904
    outer loop
      vertex 4.67381236 0.12778013 1.15618609
      vertex 4.67426186 0.127306408 1.15575889
      vertex 4.76928024 0.240522356 1.13019217
    endloop
  endfacet
  facet normal 0.516662772 -0.248600745 0.819302904
    outer loop
      vertex 4.67381236 0.12778013 1.15618609
      vertex 4.76928024 0.240522356 1.13019217
      vertex 4.76883074 0.240996078 1.13061937
    endloop
  endfacet
  facet normal -0.633455844 -0.754772987 0.170444807
    outer loop
      vertex 4.67302364 0.128030917 1.15436537
      vertex 4.67426186 0.127306408 1.15575889
      vertex 4.67381236 0.12778013 1.15618609
    endloop
  endfacet
  facet normal 0.633455844 0.754772987 -0.170444807
    outer loop
      vertex 4.76804202 0.241246865 1.12879865
      vertex 4.76883074 0.240996078 1.13061937
      vertex 4.76928024 0.240522356 1.13019217
    endloop
  endfacet
  facet normal 0.697765556 -0.461986916 0.547440699
    outer loop
      vertex 4.67426186 0.127306408 1.15575889
      vertex 4.67452286 0.126942986 1.15511954
      vertex 4.76954123 0.240158934 1.12955282
    endloop
  endfacet
  facet normal 0.697765556 -0.461986916 0.547440699
    outer loop
      vertex 4.67426186 0.127306408 1.15575889
      vertex 4.76954123 0.240158934 1.12955282
      vertex 4.76928024 0.240522356 1.13019217
    endloop
  endfacet
  facet normal -0.633455844 -0.754772987 0.170444807
    outer loop
      vertex 4.67302364 0.128030917 1.15436537
      vertex 4.67452286 0.126942986 1.15511954
      vertex 4.67426186 0.127306408 1.15575889
    endloop
  endfacet
  facet normal 0.633455844 0.754772987 -0.170444807
    outer loop
      vertex 4.76804202 0.241246865 1.12879865
      vertex 4.76928024 0.240522356 1.13019217
      vertex 4.76954123 0.240158934 1.12955282
    endloop
  endfacet
  facet normal 0.772639858 -0.605039767 0.192235609
    outer loop
      vertex 4.67452286 0.126942986 1.15511954
      vertex 4.67455561 0.126745191 1.15436537
      vertex 4.76957398 0.239961139 1.12879865
    endloop
  endfacet
  facet normal 0.772639858 -0.605039767 0.192235609
    outer loop
      vertex 4.67452286 0.126942986 1.15511954
      vertex 4.76957398 0.239961139 1.12879865
      vertex 4.76954123 0.240158934 1.12955282
    endloop
  endfacet
  facet normal -0.633455844 -0.754772987 0.170444807
    outer loop
      vertex 4.67302364 0.128030917 1.15436537
      vertex 4.67455561 0.126745191 1.15436537
      vertex 4.67452286 0.126942986 1.15511954
    endloop
  endfacet
  facet normal 0.633455844 0.754772987 -0.170444807
    outer loop
      vertex 4.76804202 0.241246865 1.12879865
      vertex 4.76954123 0.240158934 1.12955282
      vertex 4.76957398 0.239961139 1.12879865
    endloop
  endfacet
  facet normal 0.729886747 -0.655980798 -0.192235609
    outer loop
      vertex 4.70788748 0.12993462 1.12866588
      vertex 4.70768701 0.129932566 1.12791172
      vertex 4.80270538 0.243148514 1.102345
    endloop
  endfacet
  facet normal 0.729886747 -0.655980798 -0.192235609
    outer loop
      vertex 4.70788748 0.12993462 1.12866588
      vertex 4.80270538 0.243148514 1.102345
      vertex 4.80290586 0.243150569 1.10309916
    endloop
  endfacet
  facet normal -0.633455844 -0.754772987 0.170444807
    outer loop
      vertex 4.70635552 0.131220346 1.12866588
      vertex 4.70768701 0.129932566 1.12791172
      vertex 4.70788748 0.12993462 1.12866588
    endloop
  endfacet
  facet normal 0.633455844 0.754772987 -0.170444807
    outer loop
      vertex 4.8013739 0.244436294 1.10309916
      vertex 4.80290586 0.243150569 1.10309916
      vertex 4.80270538 0.243148514 1.102345
    endloop
  endfacet
  facet normal 0.576014994 -0.607054699 -0.547440699
    outer loop
      vertex 4.70768701 0.129932566 1.12791172
      vertex 4.70728382 0.130126564 1.12727236
      vertex 4.8023022 0.243342513 1.10170564
    endloop
  endfacet
  facet normal 0.576014994 -0.607054699 -0.547440699
    outer loop
      vertex 4.70768701 0.129932566 1.12791172
      vertex 4.8023022 0.243342513 1.10170564
      vertex 4.80270538 0.243148514 1.102345
    endloop
  endfacet
  facet normal -0.633455844 -0.754772987 0.170444807
    outer loop
      vertex 4.70635552 0.131220346 1.12866588
      vertex 4.70728382 0.130126564 1.12727236
      vertex 4.70768701 0.129932566 1.12791172
    endloop
  endfacet
  facet normal 0.633455844 0.754772987 -0.170444807
    outer loop
      vertex 4.8013739 0.244436294 1.10309916
      vertex 4.80270538 0.243148514 1.102345
      vertex 4.8023022 0.243342513 1.10170564
    endloop
  endfacet
  facet normal 0.334450181 -0.465710025 -0.819302904
    outer loop
      vertex 4.70728382 0.130126564 1.12727236
      vertex 4.70673931 0.130487081 1.12684516
      vertex 4.80175769 0.243703029 1.10127844
    endloop
  endfacet
  facet normal 0.334450181 -0.465710025 -0.819302904
    outer loop
      vertex 4.70728382 0.130126564 1.12727236
      vertex 4.80175769 0.243703029 1.10127844
      vertex 4.8023022 0.243342513 1.10170564
    endloop
  endfacet
  facet normal -0.633455844 -0.754772987 0.170444807
    outer loop
      vertex 4.70635552 0.131220346 1.12866588
      vertex 4.70673931 0.130487081 1.12684516
      vertex 4.70728382 0.130126564 1.12727236
    endloop
  endfacet
  facet normal 0.633455844 0.754772987 -0.170444807
    outer loop
      vertex 4.8013739 0.244436294 1.10309916
      vertex 4.8023022 0.243342513 1.10170564
      vertex 4.80175769 0.243703029 1.10127844
    endloop
  endfacet
  facet normal 0.0419683589 -0.253465221 -0.96643367
    outer loop
      vertex 4.70673931 0.130487081 1.12684516
      vertex 4.70613637 0.130959231 1.12669515
      vertex 4.80115475 0.244175179 1.10112843
    endloop
  endfacet
  facet normal 0.0419683589 -0.253465221 -0.96643367
    outer loop
      vertex 4.70673931 0.130487081 1.12684516
      vertex 4.80115475 0.244175179 1.10112843
      vertex 4.80175769 0.243703029 1.10127844
    endloop
  endfacet
  facet normal -0.633455844 -0.754772987 0.170444807
    outer loop
      vertex 4.70635552 0.131220346 1.12866588
      vertex 4.70613637 0.130959231 1.12669515
      vertex 4.70673931 0.130487081 1.12684516
    endloop
  endfacet
  facet normal 0.633455844 0.754772987 -0.170444807
    outer loop
      vertex 4.8013739 0.244436294 1.10309916
      vertex 4.80175769 0.243703029 1.10127844
      vertex 4.80115475 0.244175179 1.10112843
    endloop
  endfacet
  facet normal -0.256902765 -0.00263263532 -0.96643367
    outer loop
      vertex 4.70613637 0.130959231 1.12669515
      vertex 4.7055668 0.131471133 1.12684516
      vertex 4.80058518 0.244687081 1.10127844
    endloop
  endfacet
  facet normal -0.256902765 -0.00263263532 -0.96643367
    outer loop
      vertex 4.70613637 0.130959231 1.12669515
      vertex 4.80058518 0.244687081 1.10127844
      vertex 4.80115475 0.244175179 1.10112843
    endloop
  endfacet
  facet normal -0.633455844 -0.754772987 0.170444807
    outer loop
      vertex 4.70635552 0.131220346 1.12866588
      vertex 4.7055668 0.131471133 1.12684516
      vertex 4.70613637 0.130959231 1.12669515
    endloop
  endfacet
  facet normal 0.633455844 0.754772987 -0.170444807
    outer loop
      vertex 4.8013739 0.244436294 1.10309916
      vertex 4.80115475 0.244175179 1.10112843
      vertex 4.80058518 0.244687081 1.10127844
    endloop
  endfacet
  facet normal -0.516662772 0.248600745 -0.819302904
    outer loop
      vertex 4.7055668 0.131471133 1.12684516
      vertex 4.7051173 0.131944855 1.12727236
      vertex 4.80013568 0.245160803 1.10170564
    endloop
  endfacet
  facet normal -0.516662772 0.248600745 -0.819302904
    outer loop
      vertex 4.7055668 0.131471133 1.12684516
      vertex 4.80013568 0.245160803 1.10170564
      vertex 4.80058518 0.244687081 1.10127844
    endloop
  endfacet
  facet normal -0.633455844 -0.754772987 0.170444807
    outer loop
      vertex 4.70635552 0.131220346 1.12866588
      vertex 4.7051173 0.131944855 1.12727236
      vertex 4.7055668 0.131471133 1.12684516
    endloop
  endfacet
  facet normal 0.633455844 0.754772987 -0.170444807
    outer loop
      vertex 4.8013739 0.244436294 1.10309916
      vertex 4.80058518 0.244687081 1.10127844
      vertex 4.80013568 0.245160803 1.10170564
    endloop
  endfacet
  facet normal -0.697765556 0.461986916 -0.547440699
    outer loop
      vertex 4.7051173 0.131944855 1.12727236
      vertex 4.70485631 0.132308277 1.12791172
      vertex 4.79987468 0.245524225 1.102345
    endloop
  endfacet
  facet normal -0.697765556 0.461986916 -0.547440699
    outer loop
      vertex 4.7051173 0.131944855 1.12727236
      vertex 4.79987468 0.245524225 1.102345
      vertex 4.80013568 0.245160803 1.10170564
    endloop
  endfacet
  facet normal -0.633455844 -0.754772987 0.170444807
    outer loop
      vertex 4.70635552 0.131220346 1.12866588
      vertex 4.70485631 0.132308277 1.12791172
      vertex 4.7051173 0.131944855 1.12727236
    endloop
  endfacet
  facet normal 0.633455844 0.754772987 -0.170444807
    outer loop
      vertex 4.8013739 0.244436294 1.10309916
      vertex 4.80013568 0.245160803 1.10170564
      vertex 4.79987468 0.245524225 1.102345
    endloop
  endfacet
  facet normal -0.772639858 0.605039767 -0.192235609
    outer loop
      vertex 4.70485631 0.132308277 1.12791172
      vertex 4.70482356 0.132506071 1.12866588
      vertex 4.79984193 0.245722019 1.10309916
    endloop
  endfacet
  facet normal -0.772639858 0.605039767 -0.192235609
    outer loop
      vertex 4.70485631 0.132308277 1.12791172
      vertex 4.79984193 0.245722019 1.10309916
      vertex 4.79987468 0.245524225 1.102345
    endloop
  endfacet
  facet normal -0.633455844 -0.754772987 0.170444807
    outer loop
      vertex 4.70635552 0.131220346 1.12866588
      vertex 4.70482356 0.132506071 1.12866588
      vertex 4.70485631 0.132308277 1.12791172
    endloop
  endfacet
  facet normal 0.633455844 0.754772987 -0.170444807
    outer loop
      vertex 4.8013739 0.244436294 1.10309916
      vertex 4.79987468 0.245524225 1.102345
      vertex 4.79984193 0.245722019 1.10309916
    endloop
  endfacet
  facet normal -0.729886747 0.655980798 0.192235609
    outer loop
      vertex 4.70482356 0.132506071 1.12866588
      vertex 4.70502403 0.132508126 1.12942005
      vertex 4.80004241 0.245724074 1.10385333
    endloop
  endfacet
  facet normal -0.729886747 0.655980798 0.192235609
    outer loop
      vertex 4.70482356 0.132506071 1.12866588
      vertex 4.80004241 0.245724074 1.10385333
      vertex 4.79984193 0.245722019 1.10309916
    endloop
  endfacet
  facet normal -0.633455844 -0.754772987 0.170444807
    outer loop
      vertex 4.70635552 0.131220346 1.12866588
      vertex 4.70502403 0.132508126 1.12942005
      vertex 4.70482356 0.132506071 1.12866588
    endloop
  endfacet
  facet normal 0.633455844 0.754772987 -0.170444807
    outer loop
      vertex 4.8013739 0.244436294 1.10309916
      vertex 4.79984193 0.245722019 1.10309916
      vertex 4.80004241 0.245724074 1.10385333
    endloop
  endfacet
  facet normal -0.576014994 0.607054699 0.547440699
    outer loop
      vertex 4.70502403 0.132508126 1.12942005
      vertex 4.70542722 0.132314127 1.1300594
      vertex 4.80044559 0.245530075 1.10449268
    endloop
  endfacet
  facet normal -0.576014994 0.607054699 0.547440699
    outer loop
      vertex 4.70502403 0.132508126 1.12942005
      vertex 4.80044559 0.245530075 1.10449268
      vertex 4.80004241 0.245724074 1.10385333
    endloop
  endfacet
  facet normal -0.633455844 -0.754772987 0.170444807
    outer loop
      vertex 4.70635552 0.131220346 1.12866588
      vertex 4.70542722 0.132314127 1.1300594
      vertex 4.70502403 0.132508126 1.12942005
    endloop
  endfacet
  facet normal 0.633455844 0.754772987 -0.170444807
    outer loop
      vertex 4.8013739 0.244436294 1.10309916
      vertex 4.80004241 0.245724074 1.10385333
      vertex 4.80044559 0.245530075 1.10449268
    endloop
  endfacet
  facet normal -0.334450181 0.465710025 0.819302904
    outer loop
      vertex 4.70542722 0.132314127 1.1300594
      vertex 4.70597173 0.131953611 1.13048661
      vertex 4.8009901 0.245169559 1.10491988
    endloop
  endfacet
  facet normal -0.334450181 0.465710025 0.819302904
    outer loop
      vertex 4.70542722 0.132314127 1.1300594
      vertex 4.8009901 0.245169559 1.10491988
      vertex 4.80044559 0.245530075 1.10449268
    endloop
  endfacet
  facet normal -0.633455844 -0.754772987 0.170444807
    outer loop
      vertex 4.70635552 0.131220346 1.12866588
      vertex 4.70597173 0.131953611 1.13048661
      vertex 4.70542722 0.132314127 1.1300594
    endloop
  endfacet
  facet normal 0.633455844 0.754772987 -0.170444807
    outer loop
      vertex 4.8013739 0.244436294 1.10309916
      vertex 4.80044559 0.245530075 1.10449268
      vertex 4.8009901 0.245169559 1.10491988
    endloop
  endfacet
  facet normal -0.0419683589 0.253465221 0.96643367
    outer loop
      vertex 4.70597173 0.131953611 1.13048661
      vertex 4.70657466 0.131481461 1.13063662
      vertex 4.80159304 0.244697409 1.1050699
    endloop
  endfacet
  facet normal -0.0419683589 0.253465221 0.96643367
    outer loop
      vertex 4.70597173 0.131953611 1.13048661
      vertex 4.80159304 0.244697409 1.1050699
      vertex 4.8009901 0.245169559 1.10491988
    endloop
  endfacet
  facet normal -0.633455844 -0.754772987 0.170444807
    outer loop
      vertex 4.70635552 0.131220346 1.12866588
      vertex 4.70657466 0.131481461 1.13063662
      vertex 4.70597173 0.131953611 1.13048661
    endloop
  endfacet
  facet normal 0.633455844 0.754772987 -0.170444807
    outer loop
      vertex 4.8013739 0.244436294 1.10309916
      vertex 4.8009901 0.245169559 1.10491988
      vertex 4.80159304 0.244697409 1.1050699
    endloop
  endfacet
  facet normal 0.256902765 0.00263263532 0.96643367
    outer loop
      vertex 4.70657466 0.131481461 1.13063662
      vertex 4.70714424 0.130969559 1.13048661
      vertex 4.80216262 0.244185507 1.10491988
    endloop
  endfacet
  facet normal 0.256902765 0.00263263532 0.96643367
    outer loop
      vertex 4.70657466 0.131481461 1.13063662
      vertex 4.80216262 0.244185507 1.10491988
      vertex 4.80159304 0.244697409 1.1050699
    endloop
  endfacet
  facet normal -0.633455844 -0.754772987 0.170444807
    outer loop
      vertex 4.70635552 0.131220346 1.12866588
      vertex 4.70714424 0.130969559 1.13048661
      vertex 4.70657466 0.131481461 1.13063662
    endloop
  endfacet
  facet normal 0.633455844 0.754772987 -0.170444807
    outer loop
      vertex 4.8013739 0.244436294 1.10309916
      vertex 4.80159304 0.244697409 1.1050699
      vertex 4.80216262 0.244185507 1.10491988
    endloop
  endfacet
  facet normal 0.516662772 -0.248600745 0.819302904
    outer loop
      vertex 4.70714424 0.130969559 1.13048661
      vertex 4.70759374 0.130495837 1.1300594
      vertex 4.80261212 0.243711785 1.10449268
    endloop
  endfacet
  facet normal 0.516662772 -0.248600745 0.819302904
    outer loop
      vertex 4.70714424 0.130969559 1.13048661
      vertex 4.80261212 0.243711785 1.10449268
      vertex 4.80216262 0.244185507 1.10491988
    endloop
  endfacet
  facet normal -0.633455844 -0.754772987 0.170444807
    outer loop
      vertex 4.70635552 0.131220346 1.12866588
      vertex 4.70759374 0.130495837 1.1300594
      vertex 4.70714424 0.130969559 1.13048661
    endloop
  endfacet
  facet normal 0.633455844 0.754772987 -0.170444807
    outer loop
      vertex 4.8013739 0.244436294 1.10309916
      vertex 4.80216262 0.244185507 1.10491988
      vertex 4.80261212 0.243711785 1.10449268
    endloop
  endfacet
  facet normal 0.697765556 -0.461986916 0.547440699
    outer loop
      vertex 4.70759374 0.130495837 1.1300594
      vertex 4.70785473 0.130132415 1.12942005
      vertex 4.80287311 0.243348363 1.10385333
    endloop
  endfacet
  facet normal 0.697765556 -0.461986916 0.547440699
    outer loop
      vertex 4.70759374 0.130495837 1.1300594
      vertex 4.80287311 0.243348363 1.10385333
      vertex 4.80261212 0.243711785 1.10449268
    endloop
  endfacet
  facet normal -0.633455844 -0.754772987 0.170444807
    outer loop
      vertex 4.70635552 0.131220346 1.12866588
      vertex 4.70785473 0.130132415 1.12942005
      vertex 4.70759374 0.130495837 1.1300594
    endloop
  endfacet
  facet normal 0.633455844 0.754772987 -0.170444807
    outer loop
      vertex 4.8013739 0.244436294 1.10309916
      vertex 4.80261212 0.243711785 1.10449268
      vertex 4.80287311 0.243348363 1.10385333
    endloop
  endfacet
  facet normal 0.772639858 -0.605039767 0.192235609
    outer loop
      vertex 4.70785473 0.130132415 1.12942005
      vertex 4.70788748 0.12993462 1.12866588
      vertex 4.80290586 0.243150569 1.10309916
    endloop
  endfacet
  facet normal 0.772639858 -0.605039767 0.192235609
    outer loop
      vertex 4.70785473 0.130132415 1.12942005
      vertex 4.80290586 0.243150569 1.10309916
      vertex 4.80287311 0.243348363 1.10385333
    endloop
  endfacet
  facet normal -0.633455844 -0.754772987 0.170444807
    outer loop
      vertex 4.70635552 0.131220346 1.12866588
      vertex 4.70788748 0.12993462 1.12866588
      vertex 4.70785473 0.130132415 1.12942005
    endloop
  endfacet
  facet normal 0.633455844 0.754772987 -0.170444807
    outer loop
      vertex 4.8013739 0.244436294 1.10309916
      vertex 4.80287311 0.243348363 1.10385333
      vertex 4.80290586 0.243150569 1.10309916
    endloop
  endfacet
  facet normal 0.417828188 -0.900560193 -0.120045593
    outer loop
      vertex 4.92178856 0.187500294 0.910866389
      vertex 4.92232665 0.187812731 0.910395433
      vertex 4.98739828 0.206445223 0.997104798
    endloop
  endfacet
  facet normal 0.417828188 -0.900560193 -0.120045593
    outer loop
      vertex 4.92178856 0.187500294 0.910866389
      vertex 4.98739828 0.206445223 0.997104798
      vertex 4.98686018 0.206132787 0.997575754
    endloop
  endfacet
  facet normal -0.591560212 -0.169386298 -0.788266959
    outer loop
      vertex 4.92123801 0.189423025 0.910866389
      vertex 4.92232665 0.187812731 0.910395433
      vertex 4.92178856 0.187500294 0.910866389
    endloop
  endfacet
  facet normal 0.591560212 0.169386298 0.788266959
    outer loop
      vertex 4.98630963 0.208055517 0.997575754
      vertex 4.98686018 0.206132787 0.997575754
      vertex 4.98739828 0.206445223 0.997104798
    endloop
  endfacet
  facet normal 0.649901417 -0.678792499 -0.341860924
    outer loop
      vertex 4.92232665 0.187812731 0.910395433
      vertex 4.92269901 0.18837032 0.909996176
      vertex 4.98777064 0.207002813 0.996705541
    endloop
  endfacet
  facet normal 0.649901417 -0.678792499 -0.341860924
    outer loop
      vertex 4.92232665 0.187812731 0.910395433
      vertex 4.98777064 0.207002813 0.996705541
      vertex 4.98739828 0.206445223 0.997104798
    endloop
  endfacet
  facet normal -0.591560212 -0.169386298 -0.788266959
    outer loop
      vertex 4.92123801 0.189423025 0.910866389
      vertex 4.92269901 0.18837032 0.909996176
      vertex 4.92232665 0.187812731 0.910395433
    endloop
  endfacet
  facet normal 0.591560212 0.169386298 0.788266959
    outer loop
      vertex 4.98630963 0.208055517 0.997575754
      vertex 4.98739828 0.206445223 0.997104798
      vertex 4.98777064 0.207002813 0.996705541
    endloop
  endfacet
  facet normal 0.783033046 -0.353684801 -0.511631029
    outer loop
      vertex 4.92269901 0.18837032 0.909996176
      vertex 4.92284895 0.189088174 0.909729401
      vertex 4.98792057 0.207720667 0.996438766
    endloop
  endfacet
  facet normal 0.783033046 -0.353684801 -0.511631029
    outer loop
      vertex 4.92269901 0.18837032 0.909996176
      vertex 4.98792057 0.207720667 0.996438766
      vertex 4.98777064 0.207002813 0.996705541
    endloop
  endfacet
  facet normal -0.591560212 -0.169386298 -0.788266959
    outer loop
      vertex 4.92123801 0.189423025 0.910866389
      vertex 4.92284895 0.189088174 0.909729401
      vertex 4.92269901 0.18837032 0.909996176
    endloop
  endfacet
  facet normal 0.591560212 0.169386298 0.788266959
    outer loop
      vertex 4.98630963 0.208055517 0.997575754
      vertex 4.98777064 0.207002813 0.996705541
      vertex 4.98792057 0.207720667 0.996438766
    endloop
  endfacet
  facet normal 0.796954993 0.0252682026 -0.603509948
    outer loop
      vertex 4.92284895 0.189088174 0.909729401
      vertex 4.92275363 0.189857006 0.909635722
      vertex 4.98782526 0.208489499 0.996345087
    endloop
  endfacet
  facet normal 0.796954993 0.0252682026 -0.603509948
    outer loop
      vertex 4.92284895 0.189088174 0.909729401
      vertex 4.98782526 0.208489499 0.996345087
      vertex 4.98792057 0.207720667 0.996438766
    endloop
  endfacet
  facet normal -0.591560212 -0.169386298 -0.788266959
    outer loop
      vertex 4.92123801 0.189423025 0.910866389
      vertex 4.92275363 0.189857006 0.909635722
      vertex 4.92284895 0.189088174 0.909729401
    endloop
  endfacet
  facet normal 0.591560212 0.169386298 0.788266959
    outer loop
      vertex 4.98630963 0.208055517 0.997575754
      vertex 4.98792057 0.207720667 0.996438766
      vertex 4.98782526 0.208489499 0.996345087
    endloop
  endfacet
  facet normal 0.689547766 0.400374351 -0.603509948
    outer loop
      vertex 4.92275363 0.189857006 0.909635722
      vertex 4.92242758 0.190559768 0.909729401
      vertex 4.9874992 0.209192261 0.996438766
    endloop
  endfacet
  facet normal 0.689547766 0.400374351 -0.603509948
    outer loop
      vertex 4.92275363 0.189857006 0.909635722
      vertex 4.9874992 0.209192261 0.996438766
      vertex 4.98782526 0.208489499 0.996345087
    endloop
  endfacet
  facet normal -0.591560212 -0.169386298 -0.788266959
    outer loop
      vertex 4.92123801 0.189423025 0.910866389
      vertex 4.92242758 0.190559768 0.909729401
      vertex 4.92275363 0.189857006 0.909635722
    endloop
  endfacet
  facet normal 0.591560212 0.169386298 0.788266959
    outer loop
      vertex 4.98630963 0.208055517 0.997575754
      vertex 4.98782526 0.208489499 0.996345087
      vertex 4.9874992 0.209192261 0.996438766
    endloop
  endfacet
  facet normal 0.477163143 0.714527134 -0.511631029
    outer loop
      vertex 4.92242758 0.190559768 0.909729401
      vertex 4.92192042 0.191089472 0.909996176
      vertex 4.98699204 0.209721964 0.996705541
    endloop
  endfacet
  facet normal 0.477163143 0.714527134 -0.511631029
    outer loop
      vertex 4.92242758 0.190559768 0.909729401
      vertex 4.98699204 0.209721964 0.996705541
      vertex 4.9874992 0.209192261 0.996438766
    endloop
  endfacet
  facet normal -0.591560212 -0.169386298 -0.788266959
    outer loop
      vertex 4.92123801 0.189423025 0.910866389
      vertex 4.92192042 0.191089472 0.909996176
      vertex 4.92242758 0.190559768 0.909729401
    endloop
  endfacet
  facet normal 0.591560212 0.169386298 0.788266959
    outer loop
      vertex 4.98630963 0.208055517 0.997575754
      vertex 4.9874992 0.209192261 0.996438766
      vertex 4.98699204 0.209721964 0.996705541
    endloop
  endfacet
  facet normal 0.192134756 0.919899638 -0.341860924
    outer loop
      vertex 4.92192042 0.191089472 0.909996176
      vertex 4.92130937 0.191365474 0.910395433
      vertex 4.98638099 0.209997966 0.997104798
    endloop
  endfacet
  facet normal 0.192134756 0.919899638 -0.341860924
    outer loop
      vertex 4.92192042 0.191089472 0.909996176
      vertex 4.98638099 0.209997966 0.997104798
      vertex 4.98699204 0.209721964 0.996705541
    endloop
  endfacet
  facet normal -0.591560212 -0.169386298 -0.788266959
    outer loop
      vertex 4.92123801 0.189423025 0.910866389
      vertex 4.92130937 0.191365474 0.910395433
      vertex 4.92192042 0.191089472 0.909996176
    endloop
  endfacet
  facet normal 0.591560212 0.169386298 0.788266959
    outer loop
      vertex 4.98630963 0.208055517 0.997575754
      vertex 4.98699204 0.209721964 0.996705541
      vertex 4.98638099 0.209997966 0.997104798
    endloop
  endfacet
  facet normal -0.122144405 0.985225761 -0.120045593
    outer loop
      vertex 4.92130937 0.191365474 0.910395433
      vertex 4.92068746 0.191345755 0.910866389
      vertex 4.98575908 0.209978248 0.997575754
    endloop
  endfacet
  facet normal -0.122144405 0.985225761 -0.120045593
    outer loop
      vertex 4.92130937 0.191365474 0.910395433
      vertex 4.98575908 0.209978248 0.997575754
      vertex 4.98638099 0.209997966 0.997104798
    endloop
  endfacet
  facet normal -0.591560212 -0.169386298 -0.788266959
    outer loop
      vertex 4.92123801 0.189423025 0.910866389
      vertex 4.92068746 0.191345755 0.910866389
      vertex 4.92130937 0.191365474 0.910395433
    endloop
  endfacet
  facet normal 0.591560212 0.169386298 0.788266959
    outer loop
      vertex 4.98630963 0.208055517 0.997575754
      vertex 4.98638099 0.209997966 0.997104798
      vertex 4.98575908 0.209978248 0.997575754
    endloop
  endfacet
  facet normal -0.417828188 0.900560193 0.120045593
    outer loop
      vertex 4.92068746 0.191345755 0.910866389
      vertex 4.92014936 0.191033319 0.911337344
      vertex 4.98522098 0.209665811 0.99804671
    endloop
  endfacet
  facet normal -0.417828188 0.900560193 0.120045593
    outer loop
      vertex 4.92068746 0.191345755 0.910866389
      vertex 4.98522098 0.209665811 0.99804671
      vertex 4.98575908 0.209978248 0.997575754
    endloop
  endfacet
  facet normal -0.591560212 -0.169386298 -0.788266959
    outer loop
      vertex 4.92123801 0.189423025 0.910866389
      vertex 4.92014936 0.191033319 0.911337344
      vertex 4.92068746 0.191345755 0.910866389
    endloop
  endfacet
  facet normal 0.591560212 0.169386298 0.788266959
    outer loop
      vertex 4.98630963 0.208055517 0.997575754
      vertex 4.98575908 0.209978248 0.997575754
      vertex 4.98522098 0.209665811 0.99804671
    endloop
  endfacet
  facet normal -0.649901417 0.678792499 0.341860924
    outer loop
      vertex 4.92014936 0.191033319 0.911337344
      vertex 4.919777 0.190475729 0.911736601
      vertex 4.98484862 0.209108222 0.998445967
    endloop
  endfacet
  facet normal -0.649901417 0.678792499 0.341860924
    outer loop
      vertex 4.92014936 0.191033319 0.911337344
      vertex 4.98484862 0.209108222 0.998445967
      vertex 4.98522098 0.209665811 0.99804671
    endloop
  endfacet
  facet normal -0.591560212 -0.169386298 -0.788266959
    outer loop
      vertex 4.92123801 0.189423025 0.910866389
      vertex 4.919777 0.190475729 0.911736601
      vertex 4.92014936 0.191033319 0.911337344
    endloop
  endfacet
  facet normal 0.591560212 0.169386298 0.788266959
    outer loop
      vertex 4.98630963 0.208055517 0.997575754
      vertex 4.98522098 0.209665811 0.99804671
      vertex 4.98484862 0.209108222 0.998445967
    endloop
  endfacet
  facet normal -0.783033046 0.353684801 0.511631029
    outer loop
      vertex 4.919777 0.190475729 0.911736601
      vertex 4.91962707 0.189757875 0.912003377
      vertex 4.98469869 0.208390368 0.998712742
    endloop
  endfacet
  facet normal -0.783033046 0.353684801 0.511631029
    outer loop
      vertex 4.919777 0.190475729 0.911736601
      vertex 4.98469869 0.208390368 0.998712742
      vertex 4.98484862 0.209108222 0.998445967
    endloop
  endfacet
  facet normal -0.591560212 -0.169386298 -0.788266959
    outer loop
      vertex 4.92123801 0.189423025 0.910866389
      vertex 4.91962707 0.189757875 0.912003377
      vertex 4.919777 0.190475729 0.911736601
    endloop
  endfacet
  facet normal 0.591560212 0.169386298 0.788266959
    outer loop
      vertex 4.98630963 0.208055517 0.997575754
      vertex 4.98484862 0.209108222 0.998445967
      vertex 4.98469869 0.208390368 0.998712742
    endloop
  endfacet
  facet normal -0.796954993 -0.0252682026 0.603509948
    outer loop
      vertex 4.91962707 0.189757875 0.912003377
      vertex 4.91972238 0.188989043 0.912097055
      vertex 4.98479401 0.207621536 0.998806421
    endloop
  endfacet
  facet normal -0.796954993 -0.0252682026 0.603509948
    outer loop
      vertex 4.91962707 0.189757875 0.912003377
      vertex 4.98479401 0.207621536 0.998806421
      vertex 4.98469869 0.208390368 0.998712742
    endloop
  endfacet
  facet normal -0.591560212 -0.169386298 -0.788266959
    outer loop
      vertex 4.92123801 0.189423025 0.910866389
      vertex 4.91972238 0.188989043 0.912097055
      vertex 4.91962707 0.189757875 0.912003377
    endloop
  endfacet
  facet normal 0.591560212 0.169386298 0.788266959
    outer loop
      vertex 4.98630963 0.208055517 0.997575754
      vertex 4.98469869 0.208390368 0.998712742
      vertex 4.98479401 0.207621536 0.998806421
    endloop
  endfacet
  facet normal -0.689547766 -0.400374351 0.603509948
    outer loop
      vertex 4.91972238 0.188989043 0.912097055
      vertex 4.92004844 0.188286281 0.912003377
      vertex 4.98512006 0.206918774 0.998712742
    endloop
  endfacet
  facet normal -0.689547766 -0.400374351 0.603509948
    outer loop
      vertex 4.91972238 0.188989043 0.912097055
      vertex 4.98512006 0.206918774 0.998712742
      vertex 4.98479401 0.207621536 0.998806421
    endloop
  endfacet
  facet normal -0.591560212 -0.169386298 -0.788266959
    outer loop
      vertex 4.92123801 0.189423025 0.910866389
      vertex 4.92004844 0.188286281 0.912003377
      vertex 4.91972238 0.188989043 0.912097055
    endloop
  endfacet
  facet normal 0.591560212 0.169386298 0.788266959
    outer loop
      vertex 4.98630963 0.208055517 0.997575754
      vertex 4.98479401 0.207621536 0.998806421
      vertex 4.98512006 0.206918774 0.998712742
    endloop
  endfacet
  facet normal -0.477163143 -0.714527134 0.511631029
    outer loop
      vertex 4.92004844 0.188286281 0.912003377
      vertex 4.9205556 0.187756577 0.911736601
      vertex 4.98562722 0.20638907 0.998445967
    endloop
  endfacet
  facet normal -0.477163143 -0.714527134 0.511631029
    outer loop
      vertex 4.92004844 0.188286281 0.912003377
      vertex 4.98562722 0.20638907 0.998445967
      vertex 4.98512006 0.206918774 0.998712742
    endloop
  endfacet
  facet normal -0.591560212 -0.169386298 -0.788266959
    outer loop
      vertex 4.92123801 0.189423025 0.910866389
      vertex 4.9205556 0.187756577 0.911736601
      vertex 4.92004844 0.188286281 0.912003377
    endloop
  endfacet
  facet normal 0.591560212 0.169386298 0.788266959
    outer loop
      vertex 4.98630963 0.208055517 0.997575754
      vertex 4.98512006 0.206918774 0.998712742
      vertex 4.98562722 0.20638907 0.998445967
    endloop
  endfacet
  facet normal -0.192134756 -0.919899638 0.341860924
    outer loop
      vertex 4.9205556 0.187756577 0.911736601
      vertex 4.92116665 0.187480576 0.911337344
      vertex 4.98623827 0.206113068 0.99804671
    endloop
  endfacet
  facet normal -0.192134756 -0.919899638 0.341860924
    outer loop
      vertex 4.9205556 0.187756577 0.911736601
      vertex 4.98623827 0.206113068 0.99804671
      vertex 4.98562722 0.20638907 0.998445967
    endloop
  endfacet
  facet normal -0.591560212 -0.169386298 -0.788266959
    outer loop
      vertex 4.92123801 0.189423025 0.910866389
      vertex 4.92116665 0.187480576 0.911337344
      vertex 4.9205556 0.187756577 0.911736601
    endloop
  endfacet
  facet normal 0.591560212 0.169386298 0.788266959
    outer loop
      vertex 4.98630963 0.208055517 0.997575754
      vertex 4.98562722 0.20638907 0.998445967
      vertex 4.98623827 0.206113068 0.99804671
    endloop
  endfacet
  facet normal 0.122144405 -0.985225761 0.120045593
    outer loop
      vertex 4.92116665 0.187480576 0.911337344
      vertex 4.92178856 0.187500294 0.910866389
      vertex 4.98686018 0.206132787 0.997575754
    endloop
  endfacet
  facet normal 0.122144405 -0.985225761 0.120045593
    outer loop
      vertex 4.92116665 0.187480576 0.911337344
      vertex 4.98686018 0.206132787 0.997575754
      vertex 4.98623827 0.206113068 0.99804671
    endloop
  endfacet
  facet normal -0.591560212 -0.169386298 -0.788266959
    outer loop
      vertex 4.92123801 0.189423025 0.910866389
      vertex 4.92178856 0.187500294 0.910866389
      vertex 4.92116665 0.187480576 0.911337344
    endloop
  endfacet
  facet normal 0.591560212 0.169386298 0.788266959
    outer loop
      vertex 4.98630963 0.208055517 0.997575754
      vertex 4.98623827 0.206113068 0.99804671
      vertex 4.98686018 0.206132787 0.997575754
    endloop
  endfacet
  facet normal 0.417828188 -0.900560193 -0.120045593
    outer loop
      vertex 4.93529405 0.161085964 0.906407132
      vertex 4.93583214 0.161398401 0.905936177
      vertex 5.00090377 0.180030894 0.992645542
    endloop
  endfacet
  facet normal 0.417828188 -0.900560193 -0.120045593
    outer loop
      vertex 4.93529405 0.161085964 0.906407132
      vertex 5.00090377 0.180030894 0.992645542
      vertex 5.00036567 0.179718457 0.993116498
    endloop
  endfacet
  facet normal -0.591560212 -0.169386298 -0.788266959
    outer loop
      vertex 4.9347435 0.163008695 0.906407132
      vertex 4.93583214 0.161398401 0.905936177
      vertex 4.93529405 0.161085964 0.906407132
    endloop
  endfacet
  facet normal 0.591560212 0.169386298 0.788266959
    outer loop
      vertex 4.99981512 0.181641188 0.993116498
      vertex 5.00036567 0.179718457 0.993116498
      vertex 5.00090377 0.180030894 0.992645542
    endloop
  endfacet
  facet normal 0.649901417 -0.678792499 -0.341860924
    outer loop
      vertex 4.93583214 0.161398401 0.905936177
      vertex 4.9362045 0.16195599 0.90553692
      vertex 5.00127613 0.180588483 0.992246285
    endloop
  endfacet
  facet normal 0.649901417 -0.678792499 -0.341860924
    outer loop
      vertex 4.93583214 0.161398401 0.905936177
      vertex 5.00127613 0.180588483 0.992246285
      vertex 5.00090377 0.180030894 0.992645542
    endloop
  endfacet
  facet normal -0.591560212 -0.169386298 -0.788266959
    outer loop
      vertex 4.9347435 0.163008695 0.906407132
      vertex 4.9362045 0.16195599 0.90553692
      vertex 4.93583214 0.161398401 0.905936177
    endloop
  endfacet
  facet normal 0.591560212 0.169386298 0.788266959
    outer loop
      vertex 4.99981512 0.181641188 0.993116498
      vertex 5.00090377 0.180030894 0.992645542
      vertex 5.00127613 0.180588483 0.992246285
    endloop
  endfacet
  facet normal 0.783033046 -0.353684801 -0.511631029
    outer loop
      vertex 4.9362045 0.16195599 0.90553692
      vertex 4.93635444 0.162673844 0.905270144
      vertex 5.00142606 0.181306337 0.99197951
    endloop
  endfacet
  facet normal 0.783033046 -0.353684801 -0.511631029
    outer loop
      vertex 4.9362045 0.16195599 0.90553692
      vertex 5.00142606 0.181306337 0.99197951
      vertex 5.00127613 0.180588483 0.992246285
    endloop
  endfacet
  facet normal -0.591560212 -0.169386298 -0.788266959
    outer loop
      vertex 4.9347435 0.163008695 0.906407132
      vertex 4.93635444 0.162673844 0.905270144
      vertex 4.9362045 0.16195599 0.90553692
    endloop
  endfacet
  facet normal 0.591560212 0.169386298 0.788266959
    outer loop
      vertex 4.99981512 0.181641188 0.993116498
      vertex 5.00127613 0.180588483 0.992246285
      vertex 5.00142606 0.181306337 0.99197951
    endloop
  endfacet
  facet normal 0.796954993 0.0252682026 -0.603509948
    outer loop
      vertex 4.93635444 0.162673844 0.905270144
      vertex 4.93625912 0.163442676 0.905176466
      vertex 5.00133074 0.182075169 0.991885831
    endloop
  endfacet
  facet normal 0.796954993 0.0252682026 -0.603509948
    outer loop
      vertex 4.93635444 0.162673844 0.905270144
      vertex 5.00133074 0.182075169 0.991885831
      vertex 5.00142606 0.181306337 0.99197951
    endloop
  endfacet
  facet normal -0.591560212 -0.169386298 -0.788266959
    outer loop
      vertex 4.9347435 0.163008695 0.906407132
      vertex 4.93625912 0.163442676 0.905176466
      vertex 4.93635444 0.162673844 0.905270144
    endloop
  endfacet
  facet normal 0.591560212 0.169386298 0.788266959
    outer loop
      vertex 4.99981512 0.181641188 0.993116498
      vertex 5.00142606 0.181306337 0.99197951
      vertex 5.00133074 0.182075169 0.991885831
    endloop
  endfacet
  facet normal 0.689547766 0.400374351 -0.603509948
    outer loop
      vertex 4.93625912 0.163442676 0.905176466
      vertex 4.93593306 0.164145439 0.905270144
      vertex 5.00100469 0.182777932 0.99197951
    endloop
  endfacet
  facet normal 0.689547766 0.400374351 -0.603509948
    outer loop
      vertex 4.93625912 0.163442676 0.905176466
      vertex 5.00100469 0.182777932 0.99197951
      vertex 5.00133074 0.182075169 0.991885831
    endloop
  endfacet
  facet normal -0.591560212 -0.169386298 -0.788266959
    outer loop
      vertex 4.9347435 0.163008695 0.906407132
      vertex 4.93593306 0.164145439 0.905270144
      vertex 4.93625912 0.163442676 0.905176466
    endloop
  endfacet
  facet normal 0.591560212 0.169386298 0.788266959
    outer loop
      vertex 4.99981512 0.181641188 0.993116498
      vertex 5.00133074 0.182075169 0.991885831
      vertex 5.00100469 0.182777932 0.99197951
    endloop
  endfacet
  facet normal 0.477163143 0.714527134 -0.511631029
    outer loop
      vertex 4.93593306 0.164145439 0.905270144
      vertex 4.93542591 0.164675142 0.90553692
      vertex 5.00049753 0.183307635 0.992246285
    endloop
  endfacet
  facet normal 0.477163143 0.714527134 -0.511631029
    outer loop
      vertex 4.93593306 0.164145439 0.905270144
      vertex 5.00049753 0.183307635 0.992246285
      vertex 5.00100469 0.182777932 0.99197951
    endloop
  endfacet
  facet normal -0.591560212 -0.169386298 -0.788266959
    outer loop
      vertex 4.9347435 0.163008695 0.906407132
      vertex 4.93542591 0.164675142 0.90553692
      vertex 4.93593306 0.164145439 0.905270144
    endloop
  endfacet
  facet normal 0.591560212 0.169386298 0.788266959
    outer loop
      vertex 4.99981512 0.181641188 0.993116498
      vertex 5.00100469 0.182777932 0.99197951
      vertex 5.00049753 0.183307635 0.992246285
    endloop
  endfacet
  facet normal 0.192134756 0.919899638 -0.341860924
    outer loop
      vertex 4.93542591 0.164675142 0.90553692
      vertex 4.93481486 0.164951144 0.905936177
      vertex 4.99988648 0.183583637 0.992645542
    endloop
  endfacet
  facet normal 0.192134756 0.919899638 -0.341860924
    outer loop
      vertex 4.93542591 0.164675142 0.90553692
      vertex 4.99988648 0.183583637 0.992645542
      vertex 5.00049753 0.183307635 0.992246285
    endloop
  endfacet
  facet normal -0.591560212 -0.169386298 -0.788266959
    outer loop
      vertex 4.9347435 0.163008695 0.906407132
      vertex 4.93481486 0.164951144 0.905936177
      vertex 4.93542591 0.164675142 0.90553692
    endloop
  endfacet
  facet normal 0.591560212 0.169386298 0.788266959
    outer loop
      vertex 4.99981512 0.181641188 0.993116498
      vertex 5.00049753 0.183307635 0.992246285
      vertex 4.99988648 0.183583637 0.992645542
    endloop
  endfacet
  facet normal -0.122144405 0.985225761 -0.120045593
    outer loop
      vertex 4.93481486 0.164951144 0.905936177
      vertex 4.93419294 0.164931426 0.906407132
      vertex 4.99926457 0.183563919 0.993116498
    endloop
  endfacet
  facet normal -0.122144405 0.985225761 -0.120045593
    outer loop
      vertex 4.93481486 0.164951144 0.905936177
      vertex 4.99926457 0.183563919 0.993116498
      vertex 4.99988648 0.183583637 0.992645542
    endloop
  endfacet
  facet normal -0.591560212 -0.169386298 -0.788266959
    outer loop
      vertex 4.9347435 0.163008695 0.906407132
      vertex 4.93419294 0.164931426 0.906407132
      vertex 4.93481486 0.164951144 0.905936177
    endloop
  endfacet
  facet normal 0.591560212 0.169386298 0.788266959
    outer loop
      vertex 4.99981512 0.181641188 0.993116498
      vertex 4.99988648 0.183583637 0.992645542
      vertex 4.99926457 0.183563919 0.993116498
    endloop
  endfacet
  facet normal -0.417828188 0.900560193 0.120045593
    outer loop
      vertex 4.93419294 0.164931426 0.906407132
      vertex 4.93365485 0.164618989 0.906878088
      vertex 4.99872647 0.183251482 0.993587454
    endloop
  endfacet
  facet normal -0.417828188 0.900560193 0.120045593
    outer loop
      vertex 4.93419294 0.164931426 0.906407132
      vertex 4.99872647 0.183251482 0.993587454
      vertex 4.99926457 0.183563919 0.993116498
    endloop
  endfacet
  facet normal -0.591560212 -0.169386298 -0.788266959
    outer loop
      vertex 4.9347435 0.163008695 0.906407132
      vertex 4.93365485 0.164618989 0.906878088
      vertex 4.93419294 0.164931426 0.906407132
    endloop
  endfacet
  facet normal 0.591560212 0.169386298 0.788266959
    outer loop
      vertex 4.99981512 0.181641188 0.993116498
      vertex 4.99926457 0.183563919 0.993116498
      vertex 4.99872647 0.183251482 0.993587454
    endloop
  endfacet
  facet normal -0.649901417 0.678792499 0.341860924
    outer loop
      vertex 4.93365485 0.164618989 0.906878088
      vertex 4.93328249 0.1640614 0.907277345
      vertex 4.99835411 0.182693893 0.993986711
    endloop
  endfacet
  facet normal -0.649901417 0.678792499 0.341860924
    outer loop
      vertex 4.93365485 0.164618989 0.906878088
      vertex 4.99835411 0.182693893 0.993986711
      vertex 4.99872647 0.183251482 0.993587454
    endloop
  endfacet
  facet normal -0.591560212 -0.169386298 -0.788266959
    outer loop
      vertex 4.9347435 0.163008695 0.906407132
      vertex 4.93328249 0.1640614 0.907277345
      vertex 4.93365485 0.164618989 0.906878088
    endloop
  endfacet
  facet normal 0.591560212 0.169386298 0.788266959
    outer loop
      vertex 4.99981512 0.181641188 0.993116498
      vertex 4.99872647 0.183251482 0.993587454
      vertex 4.99835411 0.182693893 0.993986711
    endloop
  endfacet
  facet normal -0.783033046 0.353684801 0.511631029
    outer loop
      vertex 4.93328249 0.1640614 0.907277345
      vertex 4.93313255 0.163343546 0.90754412
      vertex 4.99820418 0.181976038 0.994253486
    endloop
  endfacet
  facet normal -0.783033046 0.353684801 0.511631029
    outer loop
      vertex 4.93328249 0.1640614 0.907277345
      vertex 4.99820418 0.181976038 0.994253486
      vertex 4.99835411 0.182693893 0.993986711
    endloop
  endfacet
  facet normal -0.591560212 -0.169386298 -0.788266959
    outer loop
      vertex 4.9347435 0.163008695 0.906407132
      vertex 4.93313255 0.163343546 0.90754412
      vertex 4.93328249 0.1640614 0.907277345
    endloop
  endfacet
  facet normal 0.591560212 0.169386298 0.788266959
    outer loop
      vertex 4.99981512 0.181641188 0.993116498
      vertex 4.99835411 0.182693893 0.993986711
      vertex 4.99820418 0.181976038 0.994253486
    endloop
  endfacet
  facet normal -0.796954993 -0.0252682026 0.603509948
    outer loop
      vertex 4.93313255 0.163343546 0.90754412
      vertex 4.93322787 0.162574714 0.907637799
      vertex 4.99829949 0.181207206 0.994347165
    endloop
  endfacet
  facet normal -0.796954993 -0.0252682026 0.603509948
    outer loop
      vertex 4.93313255 0.163343546 0.90754412
      vertex 4.99829949 0.181207206 0.994347165
      vertex 4.99820418 0.181976038 0.994253486
    endloop
  endfacet
  facet normal -0.591560212 -0.169386298 -0.788266959
    outer loop
      vertex 4.9347435 0.163008695 0.906407132
      vertex 4.93322787 0.162574714 0.907637799
      vertex 4.93313255 0.163343546 0.90754412
    endloop
  endfacet
  facet normal 0.591560212 0.169386298 0.788266959
    outer loop
      vertex 4.99981512 0.181641188 0.993116498
      vertex 4.99820418 0.181976038 0.994253486
      vertex 4.99829949 0.181207206 0.994347165
    endloop
  endfacet
  facet normal -0.689547766 -0.400374351 0.603509948
    outer loop
      vertex 4.93322787 0.162574714 0.907637799
      vertex 4.93355393 0.161871951 0.90754412
      vertex 4.99862555 0.180504444 0.994253486
    endloop
  endfacet
  facet normal -0.689547766 -0.400374351 0.603509948
    outer loop
      vertex 4.93322787 0.162574714 0.907637799
      vertex 4.99862555 0.180504444 0.994253486
      vertex 4.99829949 0.181207206 0.994347165
    endloop
  endfacet
  facet normal -0.591560212 -0.169386298 -0.788266959
    outer loop
      vertex 4.9347435 0.163008695 0.906407132
      vertex 4.93355393 0.161871951 0.90754412
      vertex 4.93322787 0.162574714 0.907637799
    endloop
  endfacet
  facet normal 0.591560212 0.169386298 0.788266959
    outer loop
      vertex 4.99981512 0.181641188 0.993116498
      vertex 4.99829949 0.181207206 0.994347165
      vertex 4.99862555 0.180504444 0.994253486
    endloop
  endfacet
  facet normal -0.477163143 -0.714527134 0.511631029
    outer loop
      vertex 4.93355393 0.161871951 0.90754412
      vertex 4.93406109 0.161342248 0.907277345
      vertex 4.99913271 0.179974741 0.993986711
    endloop
  endfacet
  facet normal -0.477163143 -0.714527134 0.511631029
    outer loop
      vertex 4.93355393 0.161871951 0.90754412
      vertex 4.99913271 0.179974741 0.993986711
      vertex 4.99862555 0.180504444 0.994253486
    endloop
  endfacet
  facet normal -0.591560212 -0.169386298 -0.788266959
    outer loop
      vertex 4.9347435 0.163008695 0.906407132
      vertex 4.93406109 0.161342248 0.907277345
      vertex 4.93355393 0.161871951 0.90754412
    endloop
  endfacet
  facet normal 0.591560212 0.169386298 0.788266959
    outer loop
      vertex 4.99981512 0.181641188 0.993116498
      vertex 4.99862555 0.180504444 0.994253486
      vertex 4.99913271 0.179974741 0.993986711
    endloop
  endfacet
  facet normal -0.192134756 -0.919899638 0.341860924
    outer loop
      vertex 4.93406109 0.161342248 0.907277345
      vertex 4.93467213 0.161066246 0.906878088
      vertex 4.99974376 0.179698739 0.993587454
    endloop
  endfacet
  facet normal -0.192134756 -0.919899638 0.341860924
    outer loop
      vertex 4.93406109 0.161342248 0.907277345
      vertex 4.99974376 0.179698739 0.993587454
      vertex 4.99913271 0.179974741 0.993986711
    endloop
  endfacet
  facet normal -0.591560212 -0.169386298 -0.788266959
    outer loop
      vertex 4.9347435 0.163008695 0.906407132
      vertex 4.93467213 0.161066246 0.906878088
      vertex 4.93406109 0.161342248 0.907277345
    endloop
  endfacet
  facet normal 0.591560212 0.169386298 0.788266959
    outer loop
      vertex 4.99981512 0.181641188 0.993116498
      vertex 4.99913271 0.179974741 0.993986711
      vertex 4.99974376 0.179698739 0.993587454
    endloop
  endfacet
  facet normal 0.122144405 -0.985225761 0.120045593
    outer loop
      vertex 4.93467213 0.161066246 0.906878088
      vertex 4.93529405 0.161085964 0.906407132
      vertex 5.00036567 0.179718457 0.993116498
    endloop
  endfacet
  facet normal 0.122144405 -0.985225761 0.120045593
    outer loop
      vertex 4.93467213 0.161066246 0.906878088
      vertex 5.00036567 0.179718457 0.993116498
      vertex 4.99974376 0.179698739 0.993587454
    endloop
  endfacet
  facet normal -0.591560212 -0.169386298 -0.788266959
    outer loop
      vertex 4.9347435 0.163008695 0.906407132
      vertex 4.93529405 0.161085964 0.906407132
      vertex 4.93467213 0.161066246 0.906878088
    endloop
  endfacet
  facet normal 0.591560212 0.169386298 0.788266959
    outer loop
      vertex 4.99981512 0.181641188 0.993116498
      vertex 4.99974376 0.179698739 0.993587454
      vertex 5.00036567 0.179718457 0.993116498
    endloop
  endfacet
endsolid e10_features
