solid a16
  facet normal -0.102370209 0.99474637 -2.61487933e-07
    outer loop
      vertex 2.12143183 -1.58218038 2.55851698
      vertex 2.17597294 -1.57656753 2.47206068
      vertex 2.08984089 -1.58543146 2.46368957
    endloop
  endfacet
  facet normal -0.102370209 0.99474637 -2.61487933e-07
    outer loop
      vertex 2.12143183 -1.58218038 2.55851698
      vertex 2.08984089 -1.58543146 2.46368957
      vertex 2.03529978 -1.59104431 2.55014586
    endloop
  endfacet
  facet normal -0.714410626 0.564064602 -0.4140635
    outer loop
      vertex 1.77325797 -1.87380755 2.61706519
      vertex 1.6954447 -1.95061421 2.64669037
      vertex 1.77059329 -1.86438215 2.63450265
    endloop
  endfacet
  facet normal -0.714411224 0.564064011 -0.414063272
    outer loop
      vertex 1.77592266 -1.88323295 2.59962773
      vertex 1.69810939 -1.96003962 2.62925315
      vertex 1.77325797 -1.87380755 2.61706519
    endloop
  endfacet
  facet normal -0.714410158 0.564062156 -0.41406764
    outer loop
      vertex 1.63712656 -2.008178 2.66889334
      vertex 1.65129232 -1.97008407 2.69634581
      vertex 1.6927799 -1.94118881 2.66412783
    endloop
  endfacet
  facet normal -0.714410116 0.564062429 -0.414067341
    outer loop
      vertex 1.65129232 -1.97008407 2.69634581
      vertex 1.74729419 -1.87532413 2.65979576
      vertex 1.6927799 -1.94118881 2.66412783
    endloop
  endfacet
  facet normal -0.714408818 0.564061927 -0.414070264
    outer loop
      vertex 1.84329617 -1.78056419 2.62324595
      vertex 1.77059329 -1.86438215 2.63450265
      vertex 1.74729419 -1.87532413 2.65979576
    endloop
  endfacet
  facet normal -0.714410137 0.564064184 -0.414064914
    outer loop
      vertex 1.69810939 -1.96003962 2.62925315
      vertex 1.62296069 -2.0462718 2.64144087
      vertex 1.63712656 -2.008178 2.66889334
    endloop
  endfacet
  facet normal -0.71441074 0.564062299 -0.414066441
    outer loop
      vertex 1.69810939 -1.96003962 2.62925315
      vertex 1.77592266 -1.88323295 2.59962773
      vertex 1.71633673 -1.95410371 2.60589075
    endloop
  endfacet
  facet normal -0.714409994 0.564063987 -0.414065429
    outer loop
      vertex 1.62296069 -2.0462718 2.64144087
      vertex 1.69810939 -1.96003962 2.62925315
      vertex 1.71633673 -1.95410371 2.60589075
    endloop
  endfacet
  facet normal -0.714410235 0.564062013 -0.414067702
    outer loop
      vertex 1.63712656 -2.008178 2.66889334
      vertex 1.6954447 -1.95061421 2.64669037
      vertex 1.69810939 -1.96003962 2.62925315
    endloop
  endfacet
  facet normal -0.714410325 0.564062332 -0.414067111
    outer loop
      vertex 1.6954447 -1.95061421 2.64669037
      vertex 1.63712656 -2.008178 2.66889334
      vertex 1.6927799 -1.94118881 2.66412783
    endloop
  endfacet
  facet normal -0.714410696 0.564064479 -0.414063548
    outer loop
      vertex 1.93929803 -1.68580425 2.58669591
      vertex 1.77325797 -1.87380755 2.61706519
      vertex 1.84329617 -1.78056419 2.62324595
    endloop
  endfacet
  facet normal -0.71441073 0.564064499 -0.41406346
    outer loop
      vertex 1.77059329 -1.86438215 2.63450265
      vertex 1.84329617 -1.78056419 2.62324595
      vertex 1.77325797 -1.87380755 2.61706519
    endloop
  endfacet
  facet normal -0.714410294 0.56406388 -0.414065056
    outer loop
      vertex 1.90308881 -1.76976752 2.53479004
      vertex 1.77325797 -1.87380755 2.61706519
      vertex 1.93929803 -1.68580425 2.58669591
    endloop
  endfacet
  facet normal -0.714410741 0.564062744 -0.414065834
    outer loop
      vertex 1.93929803 -1.68580425 2.58669591
      vertex 2.03529978 -1.59104431 2.55014586
      vertex 1.99646473 -1.67759955 2.49923992
    endloop
  endfacet
  facet normal -0.71440988 0.564061327 -0.414069248
    outer loop
      vertex 1.90308881 -1.76976752 2.53479004
      vertex 1.80971277 -1.86193562 2.57034039
      vertex 1.77592266 -1.88323295 2.59962773
    endloop
  endfacet
  facet normal -0.714410262 0.564064961 -0.414063639
    outer loop
      vertex 1.77325797 -1.87380755 2.61706519
      vertex 1.90308881 -1.76976752 2.53479004
      vertex 1.77592266 -1.88323295 2.59962773
    endloop
  endfacet
  facet normal -0.714410099 0.564063948 -0.414065301
    outer loop
      vertex 1.99646473 -1.67759955 2.49923992
      vertex 1.90308881 -1.76976752 2.53479004
      vertex 1.93929803 -1.68580425 2.58669591
    endloop
  endfacet
  facet normal -0.714409542 0.564063105 -0.414067409
    outer loop
      vertex 1.6954447 -1.95061421 2.64669037
      vertex 1.6927799 -1.94118881 2.66412783
      vertex 1.77059329 -1.86438215 2.63450265
    endloop
  endfacet
  facet normal -0.714409968 0.564062276 -0.414067804
    outer loop
      vertex 1.69810939 -1.96003962 2.62925315
      vertex 1.6954447 -1.95061421 2.64669037
      vertex 1.77325797 -1.87380755 2.61706519
    endloop
  endfacet
  facet normal -0.714409035 0.56406131 -0.41407073
    outer loop
      vertex 1.74729419 -1.87532413 2.65979576
      vertex 1.77059329 -1.86438215 2.63450265
      vertex 1.6927799 -1.94118881 2.66412783
    endloop
  endfacet
  facet normal -0.71440988 0.564061327 -0.414069248
    outer loop
      vertex 1.77592266 -1.88323295 2.59962773
      vertex 1.80971277 -1.86193562 2.57034039
      vertex 1.71633673 -1.95410371 2.60589075
    endloop
  endfacet
  facet normal -0.714409813 0.564063035 -0.414067038
    outer loop
      vertex 2.03529978 -1.59104431 2.55014586
      vertex 2.08984089 -1.58543146 2.46368957
      vertex 1.99646473 -1.67759955 2.49923992
    endloop
  endfacet
  facet normal 0.714410295 -0.564062728 0.414066624
    outer loop
      vertex 2.12143183 -1.58218038 2.55851698
      vertex 1.98231661 -1.71949601 2.61148119
      vertex 2.05091834 -1.70000434 2.51967168
    endloop
  endfacet
  facet normal 0.714410049 -0.564063256 0.414066329
    outer loop
      vertex 1.98231661 -1.71949601 2.61148119
      vertex 1.92586362 -1.82344127 2.56728268
      vertex 2.05091834 -1.70000434 2.51967168
    endloop
  endfacet
  facet normal 0.714410431 -0.56406321 0.414065734
    outer loop
      vertex 1.98231661 -1.71949601 2.61148119
      vertex 1.8432014 -1.85681164 2.6644454
      vertex 1.92586362 -1.82344127 2.56728268
    endloop
  endfacet
  facet normal 0.714409547 -0.564062424 0.414068328
    outer loop
      vertex 1.68992031 -2.03222108 2.68995714
      vertex 1.8432014 -1.85681164 2.6644454
      vertex 1.70408607 -1.99412715 2.71740961
    endloop
  endfacet
  facet normal 0.714410369 -0.564064082 0.414064652
    outer loop
      vertex 1.67575443 -2.07031488 2.66250467
      vertex 1.80080903 -1.94687808 2.61489367
      vertex 1.68992031 -2.03222108 2.68995714
    endloop
  endfacet
  facet normal 0.714410402 -0.564063622 0.414065222
    outer loop
      vertex 1.8432014 -1.85681164 2.6644454
      vertex 1.68992031 -2.03222108 2.68995714
      vertex 1.80080903 -1.94687808 2.61489367
    endloop
  endfacet
  facet normal 0.714409985 -0.564062722 0.414067167
    outer loop
      vertex 2.12143183 -1.58218038 2.55851698
      vertex 2.05091834 -1.70000434 2.51967168
      vertex 2.17597294 -1.57656753 2.47206068
    endloop
  endfacet
  facet normal 0.714410251 -0.564063664 0.414065425
    outer loop
      vertex 1.8432014 -1.85681164 2.6644454
      vertex 1.80080903 -1.94687808 2.61489367
      vertex 1.92586362 -1.82344127 2.56728268
    endloop
  endfacet
  facet normal -0.133235741 0.471271362 0.871866699
    outer loop
      vertex 1.70408607 -1.99412715 2.71740961
      vertex 1.74729419 -1.87532413 2.65979576
      vertex 1.65129232 -1.97008407 2.69634581
    endloop
  endfacet
  facet normal -0.133234368 0.471270278 0.871867495
    outer loop
      vertex 1.93929803 -1.68580425 2.58669591
      vertex 1.84329617 -1.78056419 2.62324595
      vertex 1.98231661 -1.71949601 2.61148119
    endloop
  endfacet
  facet normal -0.133235449 0.471269455 0.871867774
    outer loop
      vertex 1.84329617 -1.78056419 2.62324595
      vertex 1.74729419 -1.87532413 2.65979576
      vertex 1.8432014 -1.85681164 2.6644454
    endloop
  endfacet
  facet normal -0.133235041 0.471270361 0.871867347
    outer loop
      vertex 1.98231661 -1.71949601 2.61148119
      vertex 2.12143183 -1.58218038 2.55851698
      vertex 2.03529978 -1.59104431 2.55014586
    endloop
  endfacet
  facet normal -0.133235766 0.471271368 0.871866692
    outer loop
      vertex 1.70408607 -1.99412715 2.71740961
      vertex 1.8432014 -1.85681164 2.6644454
      vertex 1.74729419 -1.87532413 2.65979576
    endloop
  endfacet
  facet normal -0.133234008 0.471269546 0.871867945
    outer loop
      vertex 1.84329617 -1.78056419 2.62324595
      vertex 1.8432014 -1.85681164 2.6644454
      vertex 1.98231661 -1.71949601 2.61148119
    endloop
  endfacet
  facet normal -0.133234446 0.471270201 0.871867525
    outer loop
      vertex 1.98231661 -1.71949601 2.61148119
      vertex 2.03529978 -1.59104431 2.55014586
      vertex 1.93929803 -1.68580425 2.58669591
    endloop
  endfacet
  facet normal 0.133236472 -0.471270206 -0.871867212
    outer loop
      vertex 1.62296069 -2.0462718 2.64144087
      vertex 1.71633673 -1.95410371 2.60589075
      vertex 1.67575443 -2.07031488 2.66250467
    endloop
  endfacet
  facet normal 0.133234007 -0.471270126 -0.871867632
    outer loop
      vertex 1.80971277 -1.86193562 2.57034039
      vertex 1.80080903 -1.94687808 2.61489367
      vertex 1.71633673 -1.95410371 2.60589075
    endloop
  endfacet
  facet normal 0.133234589 -0.471270137 -0.871867537
    outer loop
      vertex 1.92586362 -1.82344127 2.56728268
      vertex 1.80080903 -1.94687808 2.61489367
      vertex 1.80971277 -1.86193562 2.57034039
    endloop
  endfacet
  facet normal 0.133234684 -0.471269156 -0.871868053
    outer loop
      vertex 1.90308881 -1.76976752 2.53479004
      vertex 1.99646473 -1.67759955 2.49923992
      vertex 2.05091834 -1.70000434 2.51967168
    endloop
  endfacet
  facet normal 0.133234028 -0.471270285 -0.871867543
    outer loop
      vertex 1.99646473 -1.67759955 2.49923992
      vertex 2.08984089 -1.58543146 2.46368957
      vertex 2.05091834 -1.70000434 2.51967168
    endloop
  endfacet
  facet normal 0.133233994 -0.471269667 -0.871867882
    outer loop
      vertex 1.71633673 -1.95410371 2.60589075
      vertex 1.80080903 -1.94687808 2.61489367
      vertex 1.67575443 -2.07031488 2.66250467
    endloop
  endfacet
  facet normal 0.133234804 -0.471270755 -0.87186717
    outer loop
      vertex 1.92586362 -1.82344127 2.56728268
      vertex 1.80971277 -1.86193562 2.57034039
      vertex 1.90308881 -1.76976752 2.53479004
    endloop
  endfacet
  facet normal 0.133235413 -0.471270517 -0.871867205
    outer loop
      vertex 1.90308881 -1.76976752 2.53479004
      vertex 2.05091834 -1.70000434 2.51967168
      vertex 1.92586362 -1.82344127 2.56728268
    endloop
  endfacet
  facet normal 0.133235048 -0.471270499 -0.871867271
    outer loop
      vertex 2.08984089 -1.58543146 2.46368957
      vertex 2.17597294 -1.57656753 2.47206068
      vertex 2.05091834 -1.70000434 2.51967168
    endloop
  endfacet
  facet normal -0.487646073 -0.383773799 0.784167698
    outer loop
      vertex 1.63712656 -2.008178 2.66889334
      vertex 1.62296069 -2.0462718 2.64144087
      vertex 1.67575443 -2.07031488 2.66250467
    endloop
  endfacet
  facet normal -0.487646117 -0.383774013 0.784167566
    outer loop
      vertex 1.68992031 -2.03222108 2.68995714
      vertex 1.70408607 -1.99412715 2.71740961
      vertex 1.65129232 -1.97008407 2.69634581
    endloop
  endfacet
  facet normal -0.487646073 -0.383773799 0.784167698
    outer loop
      vertex 1.63712656 -2.008178 2.66889334
      vertex 1.67575443 -2.07031488 2.66250467
      vertex 1.68992031 -2.03222108 2.68995714
    endloop
  endfacet
  facet normal -0.487646117 -0.383774013 0.784167566
    outer loop
      vertex 1.68992031 -2.03222108 2.68995714
      vertex 1.65129232 -1.97008407 2.69634581
      vertex 1.63712656 -2.008178 2.66889334
    endloop
  endfacet
endsolid a16
