solid b21_features
  facet normal 0.98078528 -0.195090322 0
    outer loop
      vertex -0.96990197 2.2291373 0.101478231
      vertex -0.970145555 2.22791272 0.101478231
      vertex -0.970145555 2.22791272 -0.0285217688
    endloop
  endfacet
  facet normal 0.98078528 -0.195090322 0
    outer loop
      vertex -0.96990197 2.2291373 0.101478231
      vertex -0.970145555 2.22791272 -0.0285217688
      vertex -0.96990197 2.2291373 -0.0285217688
    endloop
  endfacet
  facet normal -0 0 1
    outer loop
      vertex -0.97310197 2.2291373 0.101478231
      vertex -0.970145555 2.22791272 0.101478231
      vertex -0.96990197 2.2291373 0.101478231
    endloop
  endfacet
  facet normal 0 0 -1
    outer loop
      vertex -0.97310197 2.2291373 -0.0285217688
      vertex -0.96990197 2.2291373 -0.0285217688
      vertex -0.970145555 2.22791272 -0.0285217688
    endloop
  endfacet
  facet normal 0.831469612 -0.555570233 0
    outer loop
      vertex -0.970145555 2.22791272 0.101478231
      vertex -0.970839228 2.22687456 0.101478231
      vertex -0.970839228 2.22687456 -0.0285217688
    endloop
  endfacet
  facet normal 0.831469612 -0.555570233 0
    outer loop
      vertex -0.970145555 2.22791272 0.101478231
      vertex -0.970839228 2.22687456 -0.0285217688
      vertex -0.970145555 2.22791272 -0.0285217688
    endloop
  endfacet
  facet normal 0 0 1
    outer loop
      vertex -0.97310197 2.2291373 0.101478231
      vertex -0.970839228 2.22687456 0.101478231
      vertex -0.970145555 2.22791272 0.101478231
    endloop
  endfacet
  facet normal 0 0 -1
    outer loop
      vertex -0.97310197 2.2291373 -0.0285217688
      vertex -0.970145555 2.22791272 -0.0285217688
      vertex -0.970839228 2.22687456 -0.0285217688
    endloop
  endfacet
  facet normal 0.555570233 -0.831469612 0
    outer loop
      vertex -0.970839228 2.22687456 0.101478231
      vertex -0.971877383 2.22618089 0.101478231
      vertex -0.971877383 2.22618089 -0.0285217688
    endloop
  endfacet
  facet normal 0.555570233 -0.831469612 0
    outer loop
      vertex -0.970839228 2.22687456 0.101478231
      vertex -0.971877383 2.22618089 -0.0285217688
      vertex -0.970839228 2.22687456 -0.0285217688
    endloop
  endfacet
  facet normal 0 0 1
    outer loop
      vertex -0.97310197 2.2291373 0.101478231
      vertex -0.971877383 2.22618089 0.101478231
      vertex -0.970839228 2.22687456 0.101478231
    endloop
  endfacet
  facet normal 0 0 -1
    outer loop
      vertex -0.97310197 2.2291373 -0.0285217688
      vertex -0.970839228 2.22687456 -0.0285217688
      vertex -0.971877383 2.22618089 -0.0285217688
    endloop
  endfacet
  facet normal 0.195090322 -0.98078528 0
    outer loop
      vertex -0.971877383 2.22618089 0.101478231
      vertex -0.97310197 2.2259373 0.101478231
      vertex -0.97310197 2.2259373 -0.0285217688
    endloop
  endfacet
  facet normal 0.195090322 -0.98078528 0
    outer loop
      vertex -0.971877383 2.22618089 0.101478231
      vertex -0.97310197 2.2259373 -0.0285217688
      vertex -0.971877383 2.22618089 -0.0285217688
    endloop
  endfacet
  facet normal 0 0 1
    outer loop
      vertex -0.97310197 2.2291373 0.101478231
      vertex -0.97310197 2.2259373 0.101478231
      vertex -0.971877383 2.22618089 0.101478231
    endloop
  endfacet
  facet normal 0 0 -1
    outer loop
      vertex -0.97310197 2.2291373 -0.0285217688
      vertex -0.971877383 2.22618089 -0.0285217688
      vertex -0.97310197 2.2259373 -0.0285217688
    endloop
  endfacet
  facet normal -0.195090322 -0.98078528 0
    outer loop
      vertex -0.97310197 2.2259373 0.101478231
      vertex -0.974326557 2.22618089 0.101478231
      vertex -0.974326557 2.22618089 -0.0285217688
    endloop
  endfacet
  facet normal -0.195090322 -0.98078528 -0
    outer loop
      vertex -0.97310197 2.2259373 0.101478231
      vertex -0.974326557 2.22618089 -0.0285217688
      vertex -0.97310197 2.2259373 -0.0285217688
    endloop
  endfacet
  facet normal 0 0 1
    outer loop
      vertex -0.97310197 2.2291373 0.101478231
      vertex -0.974326557 2.22618089 0.101478231
      vertex -0.97310197 2.2259373 0.101478231
    endloop
  endfacet
  facet normal 0 -0 -1
    outer loop
      vertex -0.97310197 2.2291373 -0.0285217688
      vertex -0.97310197 2.2259373 -0.0285217688
      vertex -0.974326557 2.22618089 -0.0285217688
    endloop
  endfacet
  facet normal -0.555570233 -0.831469612 0
    outer loop
      vertex -0.974326557 2.22618089 0.101478231
      vertex -0.975364712 2.22687456 0.101478231
      vertex -0.975364712 2.22687456 -0.0285217688
    endloop
  endfacet
  facet normal -0.555570233 -0.831469612 -0
    outer loop
      vertex -0.974326557 2.22618089 0.101478231
      vertex -0.975364712 2.22687456 -0.0285217688
      vertex -0.974326557 2.22618089 -0.0285217688
    endloop
  endfacet
  facet normal 0 0 1
    outer loop
      vertex -0.97310197 2.2291373 0.101478231
      vertex -0.975364712 2.22687456 0.101478231
      vertex -0.974326557 2.22618089 0.101478231
    endloop
  endfacet
  facet normal 0 0 -1
    outer loop
      vertex -0.97310197 2.2291373 -0.0285217688
      vertex -0.974326557 2.22618089 -0.0285217688
      vertex -0.975364712 2.22687456 -0.0285217688
    endloop
  endfacet
  facet normal -0.831469612 -0.555570233 0
    outer loop
      vertex -0.975364712 2.22687456 0.101478231
      vertex -0.976058384 2.22791272 0.101478231
      vertex -0.976058384 2.22791272 -0.0285217688
    endloop
  endfacet
  facet normal -0.831469612 -0.555570233 -0
    outer loop
      vertex -0.975364712 2.22687456 0.101478231
      vertex -0.976058384 2.22791272 -0.0285217688
      vertex -0.975364712 2.22687456 -0.0285217688
    endloop
  endfacet
  facet normal 0 0 1
    outer loop
      vertex -0.97310197 2.2291373 0.101478231
      vertex -0.976058384 2.22791272 0.101478231
      vertex -0.975364712 2.22687456 0.101478231
    endloop
  endfacet
  facet normal 0 0 -1
    outer loop
      vertex -0.97310197 2.2291373 -0.0285217688
      vertex -0.975364712 2.22687456 -0.0285217688
      vertex -0.976058384 2.22791272 -0.0285217688
    endloop
  endfacet
  facet normal -0.98078528 -0.195090322 0
    outer loop
      vertex -0.976058384 2.22791272 0.101478231
      vertex -0.97630197 2.2291373 0.101478231
      vertex -0.97630197 2.2291373 -0.0285217688
    endloop
  endfacet
  facet normal -0.98078528 -0.195090322 -0
    outer loop
      vertex -0.976058384 2.22791272 0.101478231
      vertex -0.97630197 2.2291373 -0.0285217688
      vertex -0.976058384 2.22791272 -0.0285217688
    endloop
  endfacet
  facet normal 0 0 1
    outer loop
      vertex -0.97310197 2.2291373 0.101478231
      vertex -0.97630197 2.2291373 0.101478231
      vertex -0.976058384 2.22791272 0.101478231
    endloop
  endfacet
  facet normal -0 0 -1
    outer loop
      vertex -0.97310197 2.2291373 -0.0285217688
      vertex -0.976058384 2.22791272 -0.0285217688
      vertex -0.97630197 2.2291373 -0.0285217688
    endloop
  endfacet
  facet normal -0.98078528 0.195090322 0
    outer loop
      vertex -0.97630197 2.2291373 0.101478231
      vertex -0.976058384 2.23036189 0.101478231
      vertex -0.976058384 2.23036189 -0.0285217688
    endloop
  endfacet
  facet normal -0.98078528 0.195090322 0
    outer loop
      vertex -0.97630197 2.2291373 0.101478231
      vertex -0.976058384 2.23036189 -0.0285217688
      vertex -0.97630197 2.2291373 -0.0285217688
    endloop
  endfacet
  facet normal 0 0 1
    outer loop
      vertex -0.97310197 2.2291373 0.101478231
      vertex -0.976058384 2.23036189 0.101478231
      vertex -0.97630197 2.2291373 0.101478231
    endloop
  endfacet
  facet normal 0 0 -1
    outer loop
      vertex -0.97310197 2.2291373 -0.0285217688
      vertex -0.97630197 2.2291373 -0.0285217688
      vertex -0.976058384 2.23036189 -0.0285217688
    endloop
  endfacet
  facet normal -0.831469612 0.555570233 0
    outer loop
      vertex -0.976058384 2.23036189 0.101478231
      vertex -0.975364712 2.23140004 0.101478231
      vertex -0.975364712 2.23140004 -0.0285217688
    endloop
  endfacet
  facet normal -0.831469612 0.555570233 0
    outer loop
      vertex -0.976058384 2.23036189 0.101478231
      vertex -0.975364712 2.23140004 -0.0285217688
      vertex -0.976058384 2.23036189 -0.0285217688
    endloop
  endfacet
  facet normal 0 0 1
    outer loop
      vertex -0.97310197 2.2291373 0.101478231
      vertex -0.975364712 2.23140004 0.101478231
      vertex -0.976058384 2.23036189 0.101478231
    endloop
  endfacet
  facet normal 0 0 -1
    outer loop
      vertex -0.97310197 2.2291373 -0.0285217688
      vertex -0.976058384 2.23036189 -0.0285217688
      vertex -0.975364712 2.23140004 -0.0285217688
    endloop
  endfacet
  facet normal -0.555570233 0.831469612 0
    outer loop
      vertex -0.975364712 2.23140004 0.101478231
      vertex -0.974326557 2.23209372 0.101478231
      vertex -0.974326557 2.23209372 -0.0285217688
    endloop
  endfacet
  facet normal -0.555570233 0.831469612 0
    outer loop
      vertex -0.975364712 2.23140004 0.101478231
      vertex -0.974326557 2.23209372 -0.0285217688
      vertex -0.975364712 2.23140004 -0.0285217688
    endloop
  endfacet
  facet normal 0 0 1
    outer loop
      vertex -0.97310197 2.2291373 0.101478231
      vertex -0.974326557 2.23209372 0.101478231
      vertex -0.975364712 2.23140004 0.101478231
    endloop
  endfacet
  facet normal 0 0 -1
    outer loop
      vertex -0.97310197 2.2291373 -0.0285217688
      vertex -0.975364712 2.23140004 -0.0285217688
      vertex -0.974326557 2.23209372 -0.0285217688
    endloop
  endfacet
  facet normal -0.195090322 0.98078528 0
    outer loop
      vertex -0.974326557 2.23209372 0.101478231
      vertex -0.97310197 2.2323373 0.101478231
      vertex -0.97310197 2.2323373 -0.0285217688
    endloop
  endfacet
  facet normal -0.195090322 0.98078528 0
    outer loop
      vertex -0.974326557 2.23209372 0.101478231
      vertex -0.97310197 2.2323373 -0.0285217688
      vertex -0.974326557 2.23209372 -0.0285217688
    endloop
  endfacet
  facet normal 0 -0 1
    outer loop
      vertex -0.97310197 2.2291373 0.101478231
      vertex -0.97310197 2.2323373 0.101478231
      vertex -0.974326557 2.23209372 0.101478231
    endloop
  endfacet
  facet normal 0 0 -1
    outer loop
      vertex -0.97310197 2.2291373 -0.0285217688
      vertex -0.974326557 2.23209372 -0.0285217688
      vertex -0.97310197 2.2323373 -0.0285217688
    endloop
  endfacet
  facet normal 0.195090322 0.98078528 0
    outer loop
      vertex -0.97310197 2.2323373 0.101478231
      vertex -0.971877383 2.23209372 0.101478231
      vertex -0.971877383 2.23209372 -0.0285217688
    endloop
  endfacet
  facet normal 0.195090322 0.98078528 0
    outer loop
      vertex -0.97310197 2.2323373 0.101478231
      vertex -0.971877383 2.23209372 -0.0285217688
      vertex -0.97310197 2.2323373 -0.0285217688
    endloop
  endfacet
  facet normal 0 0 1
    outer loop
      vertex -0.97310197 2.2291373 0.101478231
      vertex -0.971877383 2.23209372 0.101478231
      vertex -0.97310197 2.2323373 0.101478231
    endloop
  endfacet
  facet normal 0 0 -1
    outer loop
      vertex -0.97310197 2.2291373 -0.0285217688
      vertex -0.97310197 2.2323373 -0.0285217688
      vertex -0.971877383 2.23209372 -0.0285217688
    endloop
  endfacet
  facet normal 0.555570233 0.831469612 0
    outer loop
      vertex -0.971877383 2.23209372 0.101478231
      vertex -0.970839228 2.23140004 0.101478231
      vertex -0.970839228 2.23140004 -0.0285217688
    endloop
  endfacet
  facet normal 0.555570233 0.831469612 0
    outer loop
      vertex -0.971877383 2.23209372 0.101478231
      vertex -0.970839228 2.23140004 -0.0285217688
      vertex -0.971877383 2.23209372 -0.0285217688
    endloop
  endfacet
  facet normal 0 0 1
    outer loop
      vertex -0.97310197 2.2291373 0.101478231
      vertex -0.970839228 2.23140004 0.101478231
      vertex -0.971877383 2.23209372 0.101478231
    endloop
  endfacet
  facet normal 0 0 -1
    outer loop
      vertex -0.97310197 2.2291373 -0.0285217688
      vertex -0.971877383 2.23209372 -0.0285217688
      vertex -0.970839228 2.23140004 -0.0285217688
    endloop
  endfacet
  facet normal 0.831469612 0.555570233 0
    outer loop
      vertex -0.970839228 2.23140004 0.101478231
      vertex -0.970145555 2.23036189 0.101478231
      vertex -0.970145555 2.23036189 -0.0285217688
    endloop
  endfacet
  facet normal 0.831469612 0.555570233 0
    outer loop
      vertex -0.970839228 2.23140004 0.101478231
      vertex -0.970145555 2.23036189 -0.0285217688
      vertex -0.970839228 2.23140004 -0.0285217688
    endloop
  endfacet
  facet normal 0 0 1
    outer loop
      vertex -0.97310197 2.2291373 0.101478231
      vertex -0.970145555 2.23036189 0.101478231
      vertex -0.970839228 2.23140004 0.101478231
    endloop
  endfacet
  facet normal 0 0 -1
    outer loop
      vertex -0.97310197 2.2291373 -0.0285217688
      vertex -0.970839228 2.23140004 -0.0285217688
      vertex -0.970145555 2.23036189 -0.0285217688
    endloop
  endfacet
  facet normal 0.98078528 0.195090322 0
    outer loop
      vertex -0.970145555 2.23036189 0.101478231
      vertex -0.96990197 2.2291373 0.101478231
      vertex -0.96990197 2.2291373 -0.0285217688
    endloop
  endfacet
  facet normal 0.98078528 0.195090322 0
    outer loop
      vertex -0.970145555 2.23036189 0.101478231
      vertex -0.96990197 2.2291373 -0.0285217688
      vertex -0.970145555 2.23036189 -0.0285217688
    endloop
  endfacet
  facet normal 0 0 1
    outer loop
      vertex -0.97310197 2.2291373 0.101478231
      vertex -0.96990197 2.2291373 0.101478231
      vertex -0.970145555 2.23036189 0.101478231
    endloop
  endfacet
  facet normal 0 0 -1
    outer loop
      vertex -0.97310197 2.2291373 -0.0285217688
      vertex -0.970145555 2.23036189 -0.0285217688
      vertex -0.96990197 2.2291373 -0.0285217688
    endloop
  endfacet
  facet normal 0.98078528 -0.195090322 0
    outer loop
      vertex -0.999761719 2.23203478 0.11408167
      vertex -1.0000053 2.23081019 0.11408167
      vertex -1.0000053 2.23081019 -0.01591833
    endloop
  endfacet
  facet normal 0.98078528 -0.195090322 0
    outer loop
      vertex -0.999761719 2.23203478 0.11408167
      vertex -1.0000053 2.23081019 -0.01591833
      vertex -0.999761719 2.23203478 -0.01591833
    endloop
  endfacet
  facet normal -0 0 1
    outer loop
      vertex -1.00296172 2.23203478 0.11408167
      vertex -1.0000053 2.23081019 0.11408167
      vertex -0.999761719 2.23203478 0.11408167
    endloop
  endfacet
  facet normal 0 0 -1
    outer loop
      vertex -1.00296172 2.23203478 -0.01591833
      vertex -0.999761719 2.23203478 -0.01591833
      vertex -1.0000053 2.23081019 -0.01591833
    endloop
  endfacet
  facet normal 0.831469612 -0.555570233 0
    outer loop
      vertex -1.0000053 2.23081019 0.11408167
      vertex -1.00069898 2.22977204 0.11408167
      vertex -1.00069898 2.22977204 -0.01591833
    endloop
  endfacet
  facet normal 0.831469612 -0.555570233 0
    outer loop
      vertex -1.0000053 2.23081019 0.11408167
      vertex -1.00069898 2.22977204 -0.01591833
      vertex -1.0000053 2.23081019 -0.01591833
    endloop
  endfacet
  facet normal 0 0 1
    outer loop
      vertex -1.00296172 2.23203478 0.11408167
      vertex -1.00069898 2.22977204 0.11408167
      vertex -1.0000053 2.23081019 0.11408167
    endloop
  endfacet
  facet normal 0 0 -1
    outer loop
      vertex -1.00296172 2.23203478 -0.01591833
      vertex -1.0000053 2.23081019 -0.01591833
      vertex -1.00069898 2.22977204 -0.01591833
    endloop
  endfacet
  facet normal 0.555570233 -0.831469612 0
    outer loop
      vertex -1.00069898 2.22977204 0.11408167
      vertex -1.00173713 2.22907836 0.11408167
      vertex -1.00173713 2.22907836 -0.01591833
    endloop
  endfacet
  facet normal 0.555570233 -0.831469612 0
    outer loop
      vertex -1.00069898 2.22977204 0.11408167
      vertex -1.00173713 2.22907836 -0.01591833
      vertex -1.00069898 2.22977204 -0.01591833
    endloop
  endfacet
  facet normal 0 0 1
    outer loop
      vertex -1.00296172 2.23203478 0.11408167
      vertex -1.00173713 2.22907836 0.11408167
      vertex -1.00069898 2.22977204 0.11408167
    endloop
  endfacet
  facet normal 0 0 -1
    outer loop
      vertex -1.00296172 2.23203478 -0.01591833
      vertex -1.00069898 2.22977204 -0.01591833
      vertex -1.00173713 2.22907836 -0.01591833
    endloop
  endfacet
  facet normal 0.195090322 -0.98078528 0
    outer loop
      vertex -1.00173713 2.22907836 0.11408167
      vertex -1.00296172 2.22883478 0.11408167
      vertex -1.00296172 2.22883478 -0.01591833
    endloop
  endfacet
  facet normal 0.195090322 -0.98078528 0
    outer loop
      vertex -1.00173713 2.22907836 0.11408167
      vertex -1.00296172 2.22883478 -0.01591833
      vertex -1.00173713 2.22907836 -0.01591833
    endloop
  endfacet
  facet normal 0 0 1
    outer loop
      vertex -1.00296172 2.23203478 0.11408167
      vertex -1.00296172 2.22883478 0.11408167
      vertex -1.00173713 2.22907836 0.11408167
    endloop
  endfacet
  facet normal 0 0 -1
    outer loop
      vertex -1.00296172 2.23203478 -0.01591833
      vertex -1.00173713 2.22907836 -0.01591833
      vertex -1.00296172 2.22883478 -0.01591833
    endloop
  endfacet
  facet normal -0.195090322 -0.98078528 0
    outer loop
      vertex -1.00296172 2.22883478 0.11408167
      vertex -1.00418631 2.22907836 0.11408167
      vertex -1.00418631 2.22907836 -0.01591833
    endloop
  endfacet
  facet normal -0.195090322 -0.98078528 -0
    outer loop
      vertex -1.00296172 2.22883478 0.11408167
      vertex -1.00418631 2.22907836 -0.01591833
      vertex -1.00296172 2.22883478 -0.01591833
    endloop
  endfacet
  facet normal 0 0 1
    outer loop
      vertex -1.00296172 2.23203478 0.11408167
      vertex -1.00418631 2.22907836 0.11408167
      vertex -1.00296172 2.22883478 0.11408167
    endloop
  endfacet
  facet normal 0 -0 -1
    outer loop
      vertex -1.00296172 2.23203478 -0.01591833
      vertex -1.00296172 2.22883478 -0.01591833
      vertex -1.00418631 2.22907836 -0.01591833
    endloop
  endfacet
  facet normal -0.555570233 -0.831469612 0
    outer loop
      vertex -1.00418631 2.22907836 0.11408167
      vertex -1.00522446 2.22977204 0.11408167
      vertex -1.00522446 2.22977204 -0.01591833
    endloop
  endfacet
  facet normal -0.555570233 -0.831469612 -0
    outer loop
      vertex -1.00418631 2.22907836 0.11408167
      vertex -1.00522446 2.22977204 -0.01591833
      vertex -1.00418631 2.22907836 -0.01591833
    endloop
  endfacet
  facet normal 0 0 1
    outer loop
      vertex -1.00296172 2.23203478 0.11408167
      vertex -1.00522446 2.22977204 0.11408167
      vertex -1.00418631 2.22907836 0.11408167
    endloop
  endfacet
  facet normal 0 0 -1
    outer loop
      vertex -1.00296172 2.23203478 -0.01591833
      vertex -1.00418631 2.22907836 -0.01591833
      vertex -1.00522446 2.22977204 -0.01591833
    endloop
  endfacet
  facet normal -0.831469612 -0.555570233 0
    outer loop
      vertex -1.00522446 2.22977204 0.11408167
      vertex -1.00591813 2.23081019 0.11408167
      vertex -1.00591813 2.23081019 -0.01591833
    endloop
  endfacet
  facet normal -0.831469612 -0.555570233 -0
    outer loop
      vertex -1.00522446 2.22977204 0.11408167
      vertex -1.00591813 2.23081019 -0.01591833
      vertex -1.00522446 2.22977204 -0.01591833
    endloop
  endfacet
  facet normal 0 0 1
    outer loop
      vertex -1.00296172 2.23203478 0.11408167
      vertex -1.00591813 2.23081019 0.11408167
      vertex -1.00522446 2.22977204 0.11408167
    endloop
  endfacet
  facet normal 0 0 -1
    outer loop
      vertex -1.00296172 2.23203478 -0.01591833
      vertex -1.00522446 2.22977204 -0.01591833
      vertex -1.00591813 2.23081019 -0.01591833
    endloop
  endfacet
  facet normal -0.98078528 -0.195090322 0
    outer loop
      vertex -1.00591813 2.23081019 0.11408167
      vertex -1.00616172 2.23203478 0.11408167
      vertex -1.00616172 2.23203478 -0.01591833
    endloop
  endfacet
  facet normal -0.98078528 -0.195090322 -0
    outer loop
      vertex -1.00591813 2.23081019 0.11408167
      vertex -1.00616172 2.23203478 -0.01591833
      vertex -1.00591813 2.23081019 -0.01591833
    endloop
  endfacet
  facet normal 0 0 1
    outer loop
      vertex -1.00296172 2.23203478 0.11408167
      vertex -1.00616172 2.23203478 0.11408167
      vertex -1.00591813 2.23081019 0.11408167
    endloop
  endfacet
  facet normal -0 0 -1
    outer loop
      vertex -1.00296172 2.23203478 -0.01591833
      vertex -1.00591813 2.23081019 -0.01591833
      vertex -1.00616172 2.23203478 -0.01591833
    endloop
  endfacet
  facet normal -0.98078528 0.195090322 0
    outer loop
      vertex -1.00616172 2.23203478 0.11408167
      vertex -1.00591813 2.23325937 0.11408167
      vertex -1.00591813 2.23325937 -0.01591833
    endloop
  endfacet
  facet normal -0.98078528 0.195090322 0
    outer loop
      vertex -1.00616172 2.23203478 0.11408167
      vertex -1.00591813 2.23325937 -0.01591833
      vertex -1.00616172 2.23203478 -0.01591833
    endloop
  endfacet
  facet normal 0 0 1
    outer loop
      vertex -1.00296172 2.23203478 0.11408167
      vertex -1.00591813 2.23325937 0.11408167
      vertex -1.00616172 2.23203478 0.11408167
    endloop
  endfacet
  facet normal 0 0 -1
    outer loop
      vertex -1.00296172 2.23203478 -0.01591833
      vertex -1.00616172 2.23203478 -0.01591833
      vertex -1.00591813 2.23325937 -0.01591833
    endloop
  endfacet
  facet normal -0.831469612 0.555570233 0
    outer loop
      vertex -1.00591813 2.23325937 0.11408167
      vertex -1.00522446 2.23429752 0.11408167
      vertex -1.00522446 2.23429752 -0.01591833
    endloop
  endfacet
  facet normal -0.831469612 0.555570233 0
    outer loop
      vertex -1.00591813 2.23325937 0.11408167
      vertex -1.00522446 2.23429752 -0.01591833
      vertex -1.00591813 2.23325937 -0.01591833
    endloop
  endfacet
  facet normal 0 0 1
    outer loop
      vertex -1.00296172 2.23203478 0.11408167
      vertex -1.00522446 2.23429752 0.11408167
      vertex -1.00591813 2.23325937 0.11408167
    endloop
  endfacet
  facet normal 0 0 -1
    outer loop
      vertex -1.00296172 2.23203478 -0.01591833
      vertex -1.00591813 2.23325937 -0.01591833
      vertex -1.00522446 2.23429752 -0.01591833
    endloop
  endfacet
  facet normal -0.555570233 0.831469612 0
    outer loop
      vertex -1.00522446 2.23429752 0.11408167
      vertex -1.00418631 2.23499119 0.11408167
      vertex -1.00418631 2.23499119 -0.01591833
    endloop
  endfacet
  facet normal -0.555570233 0.831469612 0
    outer loop
      vertex -1.00522446 2.23429752 0.11408167
      vertex -1.00418631 2.23499119 -0.01591833
      vertex -1.00522446 2.23429752 -0.01591833
    endloop
  endfacet
  facet normal 0 0 1
    outer loop
      vertex -1.00296172 2.23203478 0.11408167
      vertex -1.00418631 2.23499119 0.11408167
      vertex -1.00522446 2.23429752 0.11408167
    endloop
  endfacet
  facet normal 0 0 -1
    outer loop
      vertex -1.00296172 2.23203478 -0.01591833
      vertex -1.00522446 2.23429752 -0.01591833
      vertex -1.00418631 2.23499119 -0.01591833
    endloop
  endfacet
  facet normal -0.195090322 0.98078528 0
    outer loop
      vertex -1.00418631 2.23499119 0.11408167
      vertex -1.00296172 2.23523478 0.11408167
      vertex -1.00296172 2.23523478 -0.01591833
    endloop
  endfacet
  facet normal -0.195090322 0.98078528 0
    outer loop
      vertex -1.00418631 2.23499119 0.11408167
      vertex -1.00296172 2.23523478 -0.01591833
      vertex -1.00418631 2.23499119 -0.01591833
    endloop
  endfacet
  facet normal 0 -0 1
    outer loop
      vertex -1.00296172 2.23203478 0.11408167
      vertex -1.00296172 2.23523478 0.11408167
      vertex -1.00418631 2.23499119 0.11408167
    endloop
  endfacet
  facet normal 0 0 -1
    outer loop
      vertex -1.00296172 2.23203478 -0.01591833
      vertex -1.00418631 2.23499119 -0.01591833
      vertex -1.00296172 2.23523478 -0.01591833
    endloop
  endfacet
  facet normal 0.195090322 0.98078528 0
    outer loop
      vertex -1.00296172 2.23523478 0.11408167
      vertex -1.00173713 2.23499119 0.11408167
      vertex -1.00173713 2.23499119 -0.01591833
    endloop
  endfacet
  facet normal 0.195090322 0.98078528 0
    outer loop
      vertex -1.00296172 2.23523478 0.11408167
      vertex -1.00173713 2.23499119 -0.01591833
      vertex -1.00296172 2.23523478 -0.01591833
    endloop
  endfacet
  facet normal 0 0 1
    outer loop
      vertex -1.00296172 2.23203478 0.11408167
      vertex -1.00173713 2.23499119 0.11408167
      vertex -1.00296172 2.23523478 0.11408167
    endloop
  endfacet
  facet normal 0 0 -1
    outer loop
      vertex -1.00296172 2.23203478 -0.01591833
      vertex -1.00296172 2.23523478 -0.01591833
      vertex -1.00173713 2.23499119 -0.01591833
    endloop
  endfacet
  facet normal 0.555570233 0.831469612 0
    outer loop
      vertex -1.00173713 2.23499119 0.11408167
      vertex -1.00069898 2.23429752 0.11408167
      vertex -1.00069898 2.23429752 -0.01591833
    endloop
  endfacet
  facet normal 0.555570233 0.831469612 0
    outer loop
      vertex -1.00173713 2.23499119 0.11408167
      vertex -1.00069898 2.23429752 -0.01591833
      vertex -1.00173713 2.23499119 -0.01591833
    endloop
  endfacet
  facet normal 0 0 1
    outer loop
      vertex -1.00296172 2.23203478 0.11408167
      vertex -1.00069898 2.23429752 0.11408167
      vertex -1.00173713 2.23499119 0.11408167
    endloop
  endfacet
  facet normal 0 0 -1
    outer loop
      vertex -1.00296172 2.23203478 -0.01591833
      vertex -1.00173713 2.23499119 -0.01591833
      vertex -1.00069898 2.23429752 -0.01591833
    endloop
  endfacet
  facet normal 0.831469612 0.555570233 0
    outer loop
      vertex -1.00069898 2.23429752 0.11408167
      vertex -1.0000053 2.23325937 0.11408167
      vertex -1.0000053 2.23325937 -0.01591833
    endloop
  endfacet
  facet normal 0.831469612 0.555570233 0
    outer loop
      vertex -1.00069898 2.23429752 0.11408167
      vertex -1.0000053 2.23325937 -0.01591833
      vertex -1.00069898 2.23429752 -0.01591833
    endloop
  endfacet
  facet normal 0 0 1
    outer loop
      vertex -1.00296172 2.23203478 0.11408167
      vertex -1.0000053 2.23325937 0.11408167
      vertex -1.00069898 2.23429752 0.11408167
    endloop
  endfacet
  facet normal 0 0 -1
    outer loop
      vertex -1.00296172 2.23203478 -0.01591833
      vertex -1.00069898 2.23429752 -0.01591833
      vertex -1.0000053 2.23325937 -0.01591833
    endloop
  endfacet
  facet normal 0.98078528 0.195090322 0
    outer loop
      vertex -1.0000053 2.23325937 0.11408167
      vertex -0.999761719 2.23203478 0.11408167
      vertex -0.999761719 2.23203478 -0.01591833
    endloop
  endfacet
  facet normal 0.98078528 0.195090322 0
    outer loop
      vertex -1.0000053 2.23325937 0.11408167
      vertex -0.999761719 2.23203478 -0.01591833
      vertex -1.0000053 2.23325937 -0.01591833
    endloop
  endfacet
  facet normal 0 0 1
    outer loop
      vertex -1.00296172 2.23203478 0.11408167
      vertex -0.999761719 2.23203478 0.11408167
      vertex -1.0000053 2.23325937 0.11408167
    endloop
  endfacet
  facet normal 0 0 -1
    outer loop
      vertex -1.00296172 2.23203478 -0.01591833
      vertex -1.0000053 2.23325937 -0.01591833
      vertex -0.999761719 2.23203478 -0.01591833
    endloop
  endfacet
  facet normal -0.72568715 -0.662375191 -0.1861109
    outer loop
      vertex -1.00893463 2.43758579 0.157353132
      vertex -1.00851427 2.4374535 0.156184909
      vertex -0.918510251 2.32620725 0.201168784
    endloop
  endfacet
  facet normal -0.72568715 -0.662375191 -0.1861109
    outer loop
      vertex -1.00893463 2.43758579 0.157353132
      vertex -0.918510251 2.32620725 0.201168784
      vertex -0.918930608 2.32633955 0.202337007
    endloop
  endfacet
  facet normal -0.600026819 0.741641629 -0.299892499
    outer loop
      vertex -1.00644687 2.43959852 0.157353132
      vertex -1.00851427 2.4374535 0.156184909
      vertex -1.00893463 2.43758579 0.157353132
    endloop
  endfacet
  facet normal 0.600026819 -0.741641629 0.299892499
    outer loop
      vertex -0.916442851 2.32835228 0.202337007
      vertex -0.918930608 2.32633955 0.202337007
      vertex -0.918510251 2.32620725 0.201168784
    endloop
  endfacet
  facet normal -0.541609879 -0.652502717 -0.529999003
    outer loop
      vertex -1.00851427 2.4374535 0.156184909
      vertex -1.00777917 2.43764776 0.155194538
      vertex -0.91777515 2.32640152 0.200178412
    endloop
  endfacet
  facet normal -0.541609879 -0.652502717 -0.529999003
    outer loop
      vertex -1.00851427 2.4374535 0.156184909
      vertex -0.91777515 2.32640152 0.200178412
      vertex -0.918510251 2.32620725 0.201168784
    endloop
  endfacet
  facet normal -0.600026819 0.741641629 -0.299892499
    outer loop
      vertex -1.00644687 2.43959852 0.157353132
      vertex -1.00777917 2.43764776 0.155194538
      vertex -1.00851427 2.4374535 0.156184909
    endloop
  endfacet
  facet normal 0.600026819 -0.741641629 0.299892499
    outer loop
      vertex -0.916442851 2.32835228 0.202337007
      vertex -0.918510251 2.32620725 0.201168784
      vertex -0.91777515 2.32640152 0.200178412
    endloop
  endfacet
  facet normal -0.275077413 -0.54329262 -0.793199562
    outer loop
      vertex -1.00777917 2.43764776 0.155194538
      vertex -1.00684124 2.43813901 0.154532793
      vertex -0.91683722 2.32689277 0.199516667
    endloop
  endfacet
  facet normal -0.275077413 -0.54329262 -0.793199562
    outer loop
      vertex -1.00777917 2.43764776 0.155194538
      vertex -0.91683722 2.32689277 0.199516667
      vertex -0.91777515 2.32640152 0.200178412
    endloop
  endfacet
  facet normal -0.600026819 0.741641629 -0.299892499
    outer loop
      vertex -1.00644687 2.43959852 0.157353132
      vertex -1.00684124 2.43813901 0.154532793
      vertex -1.00777917 2.43764776 0.155194538
    endloop
  endfacet
  facet normal 0.600026819 -0.741641629 0.299892499
    outer loop
      vertex -0.916442851 2.32835228 0.202337007
      vertex -0.91777515 2.32640152 0.200178412
      vertex -0.91683722 2.32689277 0.199516667
    endloop
  endfacet
  facet normal 0.0333330955 -0.351371147 -0.935642679
    outer loop
      vertex -1.00684124 2.43813901 0.154532793
      vertex -1.00584327 2.43885246 0.154300419
      vertex -0.91583925 2.32760622 0.199284293
    endloop
  endfacet
  facet normal 0.0333330955 -0.351371147 -0.935642679
    outer loop
      vertex -1.00684124 2.43813901 0.154532793
      vertex -0.91583925 2.32760622 0.199284293
      vertex -0.91683722 2.32689277 0.199516667
    endloop
  endfacet
  facet normal -0.600026819 0.741641629 -0.299892499
    outer loop
      vertex -1.00644687 2.43959852 0.157353132
      vertex -1.00584327 2.43885246 0.154300419
      vertex -1.00684124 2.43813901 0.154532793
    endloop
  endfacet
  facet normal 0.600026819 -0.741641629 0.299892499
    outer loop
      vertex -0.916442851 2.32835228 0.202337007
      vertex -0.91683722 2.32689277 0.199516667
      vertex -0.91583925 2.32760622 0.199284293
    endloop
  endfacet
  facet normal 0.336668942 -0.105956601 -0.935642679
    outer loop
      vertex -1.00584327 2.43885246 0.154300419
      vertex -1.0049372 2.43967949 0.154532793
      vertex -0.914933173 2.32843324 0.199516667
    endloop
  endfacet
  facet normal 0.336668942 -0.105956601 -0.935642679
    outer loop
      vertex -1.00584327 2.43885246 0.154300419
      vertex -0.914933173 2.32843324 0.199516667
      vertex -0.91583925 2.32760622 0.199284293
    endloop
  endfacet
  facet normal -0.600026819 0.741641629 -0.299892499
    outer loop
      vertex -1.00644687 2.43959852 0.157353132
      vertex -1.0049372 2.43967949 0.154532793
      vertex -1.00584327 2.43885246 0.154300419
    endloop
  endfacet
  facet normal 0.600026819 -0.741641629 0.299892499
    outer loop
      vertex -0.916442851 2.32835228 0.202337007
      vertex -0.91583925 2.32760622 0.199284293
      vertex -0.914933173 2.32843324 0.199516667
    endloop
  endfacet
  facet normal 0.588749994 0.155588876 -0.793199562
    outer loop
      vertex -1.0049372 2.43967949 0.154532793
      vertex -1.00426095 2.44049419 0.155194538
      vertex -0.91425693 2.32924794 0.200178412
    endloop
  endfacet
  facet normal 0.588749994 0.155588876 -0.793199562
    outer loop
      vertex -1.0049372 2.43967949 0.154532793
      vertex -0.91425693 2.32924794 0.200178412
      vertex -0.914933173 2.32843324 0.199516667
    endloop
  endfacet
  facet normal -0.600026819 0.741641629 -0.299892499
    outer loop
      vertex -1.00644687 2.43959852 0.157353132
      vertex -1.00426095 2.44049419 0.155194538
      vertex -1.0049372 2.43967949 0.154532793
    endloop
  endfacet
  facet normal 0.600026819 -0.741641629 0.299892499
    outer loop
      vertex -0.916442851 2.32835228 0.202337007
      vertex -0.914933173 2.32843324 0.199516667
      vertex -0.91425693 2.32924794 0.200178412
    endloop
  endfacet
  facet normal 0.751199197 0.393447358 -0.529999003
    outer loop
      vertex -1.00426095 2.44049419 0.155194538
      vertex -1.0039175 2.44117253 0.156184909
      vertex -0.913913475 2.32992629 0.201168784
    endloop
  endfacet
  facet normal 0.751199197 0.393447358 -0.529999003
    outer loop
      vertex -1.00426095 2.44049419 0.155194538
      vertex -0.913913475 2.32992629 0.201168784
      vertex -0.91425693 2.32924794 0.200178412
    endloop
  endfacet
  facet normal -0.600026819 0.741641629 -0.299892499
    outer loop
      vertex -1.00644687 2.43959852 0.157353132
      vertex -1.0039175 2.44117253 0.156184909
      vertex -1.00426095 2.44049419 0.155194538
    endloop
  endfacet
  facet normal 0.600026819 -0.741641629 0.299892499
    outer loop
      vertex -0.916442851 2.32835228 0.202337007
      vertex -0.91425693 2.32924794 0.200178412
      vertex -0.913913475 2.32992629 0.201168784
    endloop
  endfacet
  facet normal 0.799285131 0.571407045 -0.1861109
    outer loop
      vertex -1.0039175 2.44117253 0.156184909
      vertex -1.00395912 2.44161125 0.157353132
      vertex -0.913955094 2.330365 0.202337007
    endloop
  endfacet
  facet normal 0.799285131 0.571407045 -0.1861109
    outer loop
      vertex -1.0039175 2.44117253 0.156184909
      vertex -0.913955094 2.330365 0.202337007
      vertex -0.913913475 2.32992629 0.201168784
    endloop
  endfacet
  facet normal -0.600026819 0.741641629 -0.299892499
    outer loop
      vertex -1.00644687 2.43959852 0.157353132
      vertex -1.00395912 2.44161125 0.157353132
      vertex -1.0039175 2.44117253 0.156184909
    endloop
  endfacet
  facet normal 0.600026819 -0.741641629 0.299892499
    outer loop
      vertex -0.916442851 2.32835228 0.202337007
      vertex -0.913913475 2.32992629 0.201168784
      vertex -0.913955094 2.330365 0.202337007
    endloop
  endfacet
  facet normal 0.72568715 0.662375191 0.1861109
    outer loop
      vertex -1.00395912 2.44161125 0.157353132
      vertex -1.00437947 2.44174354 0.158521355
      vertex -0.914375451 2.3304973 0.20350523
    endloop
  endfacet
  facet normal 0.72568715 0.662375191 0.1861109
    outer loop
      vertex -1.00395912 2.44161125 0.157353132
      vertex -0.914375451 2.3304973 0.20350523
      vertex -0.913955094 2.330365 0.202337007
    endloop
  endfacet
  facet normal -0.600026819 0.741641629 -0.299892499
    outer loop
      vertex -1.00644687 2.43959852 0.157353132
      vertex -1.00437947 2.44174354 0.158521355
      vertex -1.00395912 2.44161125 0.157353132
    endloop
  endfacet
  facet normal 0.600026819 -0.741641629 0.299892499
    outer loop
      vertex -0.916442851 2.32835228 0.202337007
      vertex -0.913955094 2.330365 0.202337007
      vertex -0.914375451 2.3304973 0.20350523
    endloop
  endfacet
  facet normal 0.541609879 0.652502717 0.529999003
    outer loop
      vertex -1.00437947 2.44174354 0.158521355
      vertex -1.00511457 2.44154928 0.159511727
      vertex -0.915110552 2.33030303 0.204495601
    endloop
  endfacet
  facet normal 0.541609879 0.652502717 0.529999003
    outer loop
      vertex -1.00437947 2.44174354 0.158521355
      vertex -0.915110552 2.33030303 0.204495601
      vertex -0.914375451 2.3304973 0.20350523
    endloop
  endfacet
  facet normal -0.600026819 0.741641629 -0.299892499
    outer loop
      vertex -1.00644687 2.43959852 0.157353132
      vertex -1.00511457 2.44154928 0.159511727
      vertex -1.00437947 2.44174354 0.158521355
    endloop
  endfacet
  facet normal 0.600026819 -0.741641629 0.299892499
    outer loop
      vertex -0.916442851 2.32835228 0.202337007
      vertex -0.914375451 2.3304973 0.20350523
      vertex -0.915110552 2.33030303 0.204495601
    endloop
  endfacet
  facet normal 0.275077413 0.54329262 0.793199562
    outer loop
      vertex -1.00511457 2.44154928 0.159511727
      vertex -1.00605251 2.44105803 0.160173472
      vertex -0.916048482 2.32981178 0.205157347
    endloop
  endfacet
  facet normal 0.275077413 0.54329262 0.793199562
    outer loop
      vertex -1.00511457 2.44154928 0.159511727
      vertex -0.916048482 2.32981178 0.205157347
      vertex -0.915110552 2.33030303 0.204495601
    endloop
  endfacet
  facet normal -0.600026819 0.741641629 -0.299892499
    outer loop
      vertex -1.00644687 2.43959852 0.157353132
      vertex -1.00605251 2.44105803 0.160173472
      vertex -1.00511457 2.44154928 0.159511727
    endloop
  endfacet
  facet normal 0.600026819 -0.741641629 0.299892499
    outer loop
      vertex -0.916442851 2.32835228 0.202337007
      vertex -0.915110552 2.33030303 0.204495601
      vertex -0.916048482 2.32981178 0.205157347
    endloop
  endfacet
  facet normal -0.0333330955 0.351371147 0.935642679
    outer loop
      vertex -1.00605251 2.44105803 0.160173472
      vertex -1.00705048 2.44034458 0.160405846
      vertex -0.917046452 2.32909834 0.205389721
    endloop
  endfacet
  facet normal -0.0333330955 0.351371147 0.935642679
    outer loop
      vertex -1.00605251 2.44105803 0.160173472
      vertex -0.917046452 2.32909834 0.205389721
      vertex -0.916048482 2.32981178 0.205157347
    endloop
  endfacet
  facet normal -0.600026819 0.741641629 -0.299892499
    outer loop
      vertex -1.00644687 2.43959852 0.157353132
      vertex -1.00705048 2.44034458 0.160405846
      vertex -1.00605251 2.44105803 0.160173472
    endloop
  endfacet
  facet normal 0.600026819 -0.741641629 0.299892499
    outer loop
      vertex -0.916442851 2.32835228 0.202337007
      vertex -0.916048482 2.32981178 0.205157347
      vertex -0.917046452 2.32909834 0.205389721
    endloop
  endfacet
  facet normal -0.336668942 0.105956601 0.935642679
    outer loop
      vertex -1.00705048 2.44034458 0.160405846
      vertex -1.00795655 2.43951755 0.160173472
      vertex -0.917952529 2.32827131 0.205157347
    endloop
  endfacet
  facet normal -0.336668942 0.105956601 0.935642679
    outer loop
      vertex -1.00705048 2.44034458 0.160405846
      vertex -0.917952529 2.32827131 0.205157347
      vertex -0.917046452 2.32909834 0.205389721
    endloop
  endfacet
  facet normal -0.600026819 0.741641629 -0.299892499
    outer loop
      vertex -1.00644687 2.43959852 0.157353132
      vertex -1.00795655 2.43951755 0.160173472
      vertex -1.00705048 2.44034458 0.160405846
    endloop
  endfacet
  facet normal 0.600026819 -0.741641629 0.299892499
    outer loop
      vertex -0.916442851 2.32835228 0.202337007
      vertex -0.917046452 2.32909834 0.205389721
      vertex -0.917952529 2.32827131 0.205157347
    endloop
  endfacet
  facet normal -0.588749994 -0.155588876 0.793199562
    outer loop
      vertex -1.00795655 2.43951755 0.160173472
      vertex -1.00863279 2.43870285 0.159511727
      vertex -0.918628771 2.32745661 0.204495601
    endloop
  endfacet
  facet normal -0.588749994 -0.155588876 0.793199562
    outer loop
      vertex -1.00795655 2.43951755 0.160173472
      vertex -0.918628771 2.32745661 0.204495601
      vertex -0.917952529 2.32827131 0.205157347
    endloop
  endfacet
  facet normal -0.600026819 0.741641629 -0.299892499
    outer loop
      vertex -1.00644687 2.43959852 0.157353132
      vertex -1.00863279 2.43870285 0.159511727
      vertex -1.00795655 2.43951755 0.160173472
    endloop
  endfacet
  facet normal 0.600026819 -0.741641629 0.299892499
    outer loop
      vertex -0.916442851 2.32835228 0.202337007
      vertex -0.917952529 2.32827131 0.205157347
      vertex -0.918628771 2.32745661 0.204495601
    endloop
  endfacet
  facet normal -0.751199197 -0.393447358 0.529999003
    outer loop
      vertex -1.00863279 2.43870285 0.159511727
      vertex -1.00897625 2.43802451 0.158521355
      vertex -0.918972227 2.32677826 0.20350523
    endloop
  endfacet
  facet normal -0.751199197 -0.393447358 0.529999003
    outer loop
      vertex -1.00863279 2.43870285 0.159511727
      vertex -0.918972227 2.32677826 0.20350523
      vertex -0.918628771 2.32745661 0.204495601
    endloop
  endfacet
  facet normal -0.600026819 0.741641629 -0.299892499
    outer loop
      vertex -1.00644687 2.43959852 0.157353132
      vertex -1.00897625 2.43802451 0.158521355
      vertex -1.00863279 2.43870285 0.159511727
    endloop
  endfacet
  facet normal 0.600026819 -0.741641629 0.299892499
    outer loop
      vertex -0.916442851 2.32835228 0.202337007
      vertex -0.918628771 2.32745661 0.204495601
      vertex -0.918972227 2.32677826 0.20350523
    endloop
  endfacet
  facet normal -0.799285131 -0.571407045 0.1861109
    outer loop
      vertex -1.00897625 2.43802451 0.158521355
      vertex -1.00893463 2.43758579 0.157353132
      vertex -0.918930608 2.32633955 0.202337007
    endloop
  endfacet
  facet normal -0.799285131 -0.571407045 0.1861109
    outer loop
      vertex -1.00897625 2.43802451 0.158521355
      vertex -0.918930608 2.32633955 0.202337007
      vertex -0.918972227 2.32677826 0.20350523
    endloop
  endfacet
  facet normal -0.600026819 0.741641629 -0.299892499
    outer loop
      vertex -1.00644687 2.43959852 0.157353132
      vertex -1.00893463 2.43758579 0.157353132
      vertex -1.00897625 2.43802451 0.158521355
    endloop
  endfacet
  facet normal 0.600026819 -0.741641629 0.299892499
    outer loop
      vertex -0.916442851 2.32835228 0.202337007
      vertex -0.918972227 2.32677826 0.20350523
      vertex -0.918930608 2.32633955 0.202337007
    endloop
  endfacet
  facet normal -0.72568715 -0.662375191 -0.1861109
    outer loop
      vertex -0.988822916 2.44543399 0.136522272
      vertex -0.988402559 2.4453017 0.135354049
      vertex -0.898398536 2.33405545 0.180337924
    endloop
  endfacet
  facet normal -0.72568715 -0.662375191 -0.1861109
    outer loop
      vertex -0.988822916 2.44543399 0.136522272
      vertex -0.898398536 2.33405545 0.180337924
      vertex -0.898818894 2.33418775 0.181506146
    endloop
  endfacet
  facet normal -0.600026819 0.741641629 -0.299892499
    outer loop
      vertex -0.986335159 2.44744672 0.136522272
      vertex -0.988402559 2.4453017 0.135354049
      vertex -0.988822916 2.44543399 0.136522272
    endloop
  endfacet
  facet normal 0.600026819 -0.741641629 0.299892499
    outer loop
      vertex -0.896331136 2.33620047 0.181506146
      vertex -0.898818894 2.33418775 0.181506146
      vertex -0.898398536 2.33405545 0.180337924
    endloop
  endfacet
  facet normal -0.541609879 -0.652502717 -0.529999003
    outer loop
      vertex -0.988402559 2.4453017 0.135354049
      vertex -0.987667459 2.44549596 0.134363677
      vertex -0.897663436 2.33424972 0.179347552
    endloop
  endfacet
  facet normal -0.541609879 -0.652502717 -0.529999003
    outer loop
      vertex -0.988402559 2.4453017 0.135354049
      vertex -0.897663436 2.33424972 0.179347552
      vertex -0.898398536 2.33405545 0.180337924
    endloop
  endfacet
  facet normal -0.600026819 0.741641629 -0.299892499
    outer loop
      vertex -0.986335159 2.44744672 0.136522272
      vertex -0.987667459 2.44549596 0.134363677
      vertex -0.988402559 2.4453017 0.135354049
    endloop
  endfacet
  facet normal 0.600026819 -0.741641629 0.299892499
    outer loop
      vertex -0.896331136 2.33620047 0.181506146
      vertex -0.898398536 2.33405545 0.180337924
      vertex -0.897663436 2.33424972 0.179347552
    endloop
  endfacet
  facet normal -0.275077413 -0.54329262 -0.793199562
    outer loop
      vertex -0.987667459 2.44549596 0.134363677
      vertex -0.986729528 2.44598721 0.133701932
      vertex -0.896725505 2.33474097 0.178685807
    endloop
  endfacet
  facet normal -0.275077413 -0.54329262 -0.793199562
    outer loop
      vertex -0.987667459 2.44549596 0.134363677
      vertex -0.896725505 2.33474097 0.178685807
      vertex -0.897663436 2.33424972 0.179347552
    endloop
  endfacet
  facet normal -0.600026819 0.741641629 -0.299892499
    outer loop
      vertex -0.986335159 2.44744672 0.136522272
      vertex -0.986729528 2.44598721 0.133701932
      vertex -0.987667459 2.44549596 0.134363677
    endloop
  endfacet
  facet normal 0.600026819 -0.741641629 0.299892499
    outer loop
      vertex -0.896331136 2.33620047 0.181506146
      vertex -0.897663436 2.33424972 0.179347552
      vertex -0.896725505 2.33474097 0.178685807
    endloop
  endfacet
  facet normal 0.0333330955 -0.351371147 -0.935642679
    outer loop
      vertex -0.986729528 2.44598721 0.133701932
      vertex -0.985731558 2.44670066 0.133469558
      vertex -0.895727535 2.33545441 0.178453433
    endloop
  endfacet
  facet normal 0.0333330955 -0.351371147 -0.935642679
    outer loop
      vertex -0.986729528 2.44598721 0.133701932
      vertex -0.895727535 2.33545441 0.178453433
      vertex -0.896725505 2.33474097 0.178685807
    endloop
  endfacet
  facet normal -0.600026819 0.741641629 -0.299892499
    outer loop
      vertex -0.986335159 2.44744672 0.136522272
      vertex -0.985731558 2.44670066 0.133469558
      vertex -0.986729528 2.44598721 0.133701932
    endloop
  endfacet
  facet normal 0.600026819 -0.741641629 0.299892499
    outer loop
      vertex -0.896331136 2.33620047 0.181506146
      vertex -0.896725505 2.33474097 0.178685807
      vertex -0.895727535 2.33545441 0.178453433
    endloop
  endfacet
  facet normal 0.336668942 -0.105956601 -0.935642679
    outer loop
      vertex -0.985731558 2.44670066 0.133469558
      vertex -0.984825481 2.44752768 0.133701932
      vertex -0.894821458 2.33628144 0.178685807
    endloop
  endfacet
  facet normal 0.336668942 -0.105956601 -0.935642679
    outer loop
      vertex -0.985731558 2.44670066 0.133469558
      vertex -0.894821458 2.33628144 0.178685807
      vertex -0.895727535 2.33545441 0.178453433
    endloop
  endfacet
  facet normal -0.600026819 0.741641629 -0.299892499
    outer loop
      vertex -0.986335159 2.44744672 0.136522272
      vertex -0.984825481 2.44752768 0.133701932
      vertex -0.985731558 2.44670066 0.133469558
    endloop
  endfacet
  facet normal 0.600026819 -0.741641629 0.299892499
    outer loop
      vertex -0.896331136 2.33620047 0.181506146
      vertex -0.895727535 2.33545441 0.178453433
      vertex -0.894821458 2.33628144 0.178685807
    endloop
  endfacet
  facet normal 0.588749994 0.155588876 -0.793199562
    outer loop
      vertex -0.984825481 2.44752768 0.133701932
      vertex -0.984149239 2.44834238 0.134363677
      vertex -0.894145216 2.33709614 0.179347552
    endloop
  endfacet
  facet normal 0.588749994 0.155588876 -0.793199562
    outer loop
      vertex -0.984825481 2.44752768 0.133701932
      vertex -0.894145216 2.33709614 0.179347552
      vertex -0.894821458 2.33628144 0.178685807
    endloop
  endfacet
  facet normal -0.600026819 0.741641629 -0.299892499
    outer loop
      vertex -0.986335159 2.44744672 0.136522272
      vertex -0.984149239 2.44834238 0.134363677
      vertex -0.984825481 2.44752768 0.133701932
    endloop
  endfacet
  facet normal 0.600026819 -0.741641629 0.299892499
    outer loop
      vertex -0.896331136 2.33620047 0.181506146
      vertex -0.894821458 2.33628144 0.178685807
      vertex -0.894145216 2.33709614 0.179347552
    endloop
  endfacet
  facet normal 0.751199197 0.393447358 -0.529999003
    outer loop
      vertex -0.984149239 2.44834238 0.134363677
      vertex -0.983805783 2.44902073 0.135354049
      vertex -0.89380176 2.33777448 0.180337924
    endloop
  endfacet
  facet normal 0.751199197 0.393447358 -0.529999003
    outer loop
      vertex -0.984149239 2.44834238 0.134363677
      vertex -0.89380176 2.33777448 0.180337924
      vertex -0.894145216 2.33709614 0.179347552
    endloop
  endfacet
  facet normal -0.600026819 0.741641629 -0.299892499
    outer loop
      vertex -0.986335159 2.44744672 0.136522272
      vertex -0.983805783 2.44902073 0.135354049
      vertex -0.984149239 2.44834238 0.134363677
    endloop
  endfacet
  facet normal 0.600026819 -0.741641629 0.299892499
    outer loop
      vertex -0.896331136 2.33620047 0.181506146
      vertex -0.894145216 2.33709614 0.179347552
      vertex -0.89380176 2.33777448 0.180337924
    endloop
  endfacet
  facet normal 0.799285131 0.571407045 -0.1861109
    outer loop
      vertex -0.983805783 2.44902073 0.135354049
      vertex -0.983847402 2.44945944 0.136522272
      vertex -0.893843379 2.3382132 0.181506146
    endloop
  endfacet
  facet normal 0.799285131 0.571407045 -0.1861109
    outer loop
      vertex -0.983805783 2.44902073 0.135354049
      vertex -0.893843379 2.3382132 0.181506146
      vertex -0.89380176 2.33777448 0.180337924
    endloop
  endfacet
  facet normal -0.600026819 0.741641629 -0.299892499
    outer loop
      vertex -0.986335159 2.44744672 0.136522272
      vertex -0.983847402 2.44945944 0.136522272
      vertex -0.983805783 2.44902073 0.135354049
    endloop
  endfacet
  facet normal 0.600026819 -0.741641629 0.299892499
    outer loop
      vertex -0.896331136 2.33620047 0.181506146
      vertex -0.89380176 2.33777448 0.180337924
      vertex -0.893843379 2.3382132 0.181506146
    endloop
  endfacet
  facet normal 0.72568715 0.662375191 0.1861109
    outer loop
      vertex -0.983847402 2.44945944 0.136522272
      vertex -0.98426776 2.44959174 0.137690495
      vertex -0.894263737 2.33834549 0.182674369
    endloop
  endfacet
  facet normal 0.72568715 0.662375191 0.1861109
    outer loop
      vertex -0.983847402 2.44945944 0.136522272
      vertex -0.894263737 2.33834549 0.182674369
      vertex -0.893843379 2.3382132 0.181506146
    endloop
  endfacet
  facet normal -0.600026819 0.741641629 -0.299892499
    outer loop
      vertex -0.986335159 2.44744672 0.136522272
      vertex -0.98426776 2.44959174 0.137690495
      vertex -0.983847402 2.44945944 0.136522272
    endloop
  endfacet
  facet normal 0.600026819 -0.741641629 0.299892499
    outer loop
      vertex -0.896331136 2.33620047 0.181506146
      vertex -0.893843379 2.3382132 0.181506146
      vertex -0.894263737 2.33834549 0.182674369
    endloop
  endfacet
  facet normal 0.541609879 0.652502717 0.529999003
    outer loop
      vertex -0.98426776 2.44959174 0.137690495
      vertex -0.98500286 2.44939747 0.138680866
      vertex -0.894998837 2.33815123 0.183664741
    endloop
  endfacet
  facet normal 0.541609879 0.652502717 0.529999003
    outer loop
      vertex -0.98426776 2.44959174 0.137690495
      vertex -0.894998837 2.33815123 0.183664741
      vertex -0.894263737 2.33834549 0.182674369
    endloop
  endfacet
  facet normal -0.600026819 0.741641629 -0.299892499
    outer loop
      vertex -0.986335159 2.44744672 0.136522272
      vertex -0.98500286 2.44939747 0.138680866
      vertex -0.98426776 2.44959174 0.137690495
    endloop
  endfacet
  facet normal 0.600026819 -0.741641629 0.299892499
    outer loop
      vertex -0.896331136 2.33620047 0.181506146
      vertex -0.894263737 2.33834549 0.182674369
      vertex -0.894998837 2.33815123 0.183664741
    endloop
  endfacet
  facet normal 0.275077413 0.54329262 0.793199562
    outer loop
      vertex -0.98500286 2.44939747 0.138680866
      vertex -0.985940791 2.44890622 0.139342611
      vertex -0.895936768 2.33765998 0.184326486
    endloop
  endfacet
  facet normal 0.275077413 0.54329262 0.793199562
    outer loop
      vertex -0.98500286 2.44939747 0.138680866
      vertex -0.895936768 2.33765998 0.184326486
      vertex -0.894998837 2.33815123 0.183664741
    endloop
  endfacet
  facet normal -0.600026819 0.741641629 -0.299892499
    outer loop
      vertex -0.986335159 2.44744672 0.136522272
      vertex -0.985940791 2.44890622 0.139342611
      vertex -0.98500286 2.44939747 0.138680866
    endloop
  endfacet
  facet normal 0.600026819 -0.741641629 0.299892499
    outer loop
      vertex -0.896331136 2.33620047 0.181506146
      vertex -0.894998837 2.33815123 0.183664741
      vertex -0.895936768 2.33765998 0.184326486
    endloop
  endfacet
  facet normal -0.0333330955 0.351371147 0.935642679
    outer loop
      vertex -0.985940791 2.44890622 0.139342611
      vertex -0.986938761 2.44819278 0.139574985
      vertex -0.896934738 2.33694653 0.18455886
    endloop
  endfacet
  facet normal -0.0333330955 0.351371147 0.935642679
    outer loop
      vertex -0.985940791 2.44890622 0.139342611
      vertex -0.896934738 2.33694653 0.18455886
      vertex -0.895936768 2.33765998 0.184326486
    endloop
  endfacet
  facet normal -0.600026819 0.741641629 -0.299892499
    outer loop
      vertex -0.986335159 2.44744672 0.136522272
      vertex -0.986938761 2.44819278 0.139574985
      vertex -0.985940791 2.44890622 0.139342611
    endloop
  endfacet
  facet normal 0.600026819 -0.741641629 0.299892499
    outer loop
      vertex -0.896331136 2.33620047 0.181506146
      vertex -0.895936768 2.33765998 0.184326486
      vertex -0.896934738 2.33694653 0.18455886
    endloop
  endfacet
  facet normal -0.336668942 0.105956601 0.935642679
    outer loop
      vertex -0.986938761 2.44819278 0.139574985
      vertex -0.987844838 2.44736575 0.139342611
      vertex -0.897840815 2.3361195 0.184326486
    endloop
  endfacet
  facet normal -0.336668942 0.105956601 0.935642679
    outer loop
      vertex -0.986938761 2.44819278 0.139574985
      vertex -0.897840815 2.3361195 0.184326486
      vertex -0.896934738 2.33694653 0.18455886
    endloop
  endfacet
  facet normal -0.600026819 0.741641629 -0.299892499
    outer loop
      vertex -0.986335159 2.44744672 0.136522272
      vertex -0.987844838 2.44736575 0.139342611
      vertex -0.986938761 2.44819278 0.139574985
    endloop
  endfacet
  facet normal 0.600026819 -0.741641629 0.299892499
    outer loop
      vertex -0.896331136 2.33620047 0.181506146
      vertex -0.896934738 2.33694653 0.18455886
      vertex -0.897840815 2.3361195 0.184326486
    endloop
  endfacet
  facet normal -0.588749994 -0.155588876 0.793199562
    outer loop
      vertex -0.987844838 2.44736575 0.139342611
      vertex -0.98852108 2.44655105 0.138680866
      vertex -0.898517057 2.3353048 0.183664741
    endloop
  endfacet
  facet normal -0.588749994 -0.155588876 0.793199562
    outer loop
      vertex -0.987844838 2.44736575 0.139342611
      vertex -0.898517057 2.3353048 0.183664741
      vertex -0.897840815 2.3361195 0.184326486
    endloop
  endfacet
  facet normal -0.600026819 0.741641629 -0.299892499
    outer loop
      vertex -0.986335159 2.44744672 0.136522272
      vertex -0.98852108 2.44655105 0.138680866
      vertex -0.987844838 2.44736575 0.139342611
    endloop
  endfacet
  facet normal 0.600026819 -0.741641629 0.299892499
    outer loop
      vertex -0.896331136 2.33620047 0.181506146
      vertex -0.897840815 2.3361195 0.184326486
      vertex -0.898517057 2.3353048 0.183664741
    endloop
  endfacet
  facet normal -0.751199197 -0.393447358 0.529999003
    outer loop
      vertex -0.98852108 2.44655105 0.138680866
      vertex -0.988864535 2.44587271 0.137690495
      vertex -0.898860513 2.33462646 0.182674369
    endloop
  endfacet
  facet normal -0.751199197 -0.393447358 0.529999003
    outer loop
      vertex -0.98852108 2.44655105 0.138680866
      vertex -0.898860513 2.33462646 0.182674369
      vertex -0.898517057 2.3353048 0.183664741
    endloop
  endfacet
  facet normal -0.600026819 0.741641629 -0.299892499
    outer loop
      vertex -0.986335159 2.44744672 0.136522272
      vertex -0.988864535 2.44587271 0.137690495
      vertex -0.98852108 2.44655105 0.138680866
    endloop
  endfacet
  facet normal 0.600026819 -0.741641629 0.299892499
    outer loop
      vertex -0.896331136 2.33620047 0.181506146
      vertex -0.898517057 2.3353048 0.183664741
      vertex -0.898860513 2.33462646 0.182674369
    endloop
  endfacet
  facet normal -0.799285131 -0.571407045 0.1861109
    outer loop
      vertex -0.988864535 2.44587271 0.137690495
      vertex -0.988822916 2.44543399 0.136522272
      vertex -0.898818894 2.33418775 0.181506146
    endloop
  endfacet
  facet normal -0.799285131 -0.571407045 0.1861109
    outer loop
      vertex -0.988864535 2.44587271 0.137690495
      vertex -0.898818894 2.33418775 0.181506146
      vertex -0.898860513 2.33462646 0.182674369
    endloop
  endfacet
  facet normal -0.600026819 0.741641629 -0.299892499
    outer loop
      vertex -0.986335159 2.44744672 0.136522272
      vertex -0.988822916 2.44543399 0.136522272
      vertex -0.988864535 2.44587271 0.137690495
    endloop
  endfacet
  facet normal 0.600026819 -0.741641629 0.299892499
    outer loop
      vertex -0.896331136 2.33620047 0.181506146
      vertex -0.898860513 2.33462646 0.182674369
      vertex -0.898818894 2.33418775 0.181506146
    endloop
  endfacet
endsolid b21_features
