solid g22_features
  facet normal -0.939987573 -0.193656187 -0.280928183
    outer loop
      vertex 1.90762278 0.326128869 1.95150498
      vertex 1.90780857 0.324913284 1.95172127
      vertex 1.88017392 0.335805971 2.03667818
    endloop
  endfacet
  facet normal -0.939987573 -0.193656187 -0.280928183
    outer loop
      vertex 1.90762278 0.326128869 1.95150498
      vertex 1.88017392 0.335805971 2.03667818
      vertex 1.87998813 0.337021556 2.03646189
    endloop
  endfacet
  facet normal 0.307051637 -0.121029855 -0.943965607
    outer loop
      vertex 1.91066584 0.326128869 1.95249482
      vertex 1.90780857 0.324913284 1.95172127
      vertex 1.90762278 0.326128869 1.95150498
    endloop
  endfacet
  facet normal -0.307051637 0.121029855 0.943965607
    outer loop
      vertex 1.88303119 0.337021556 2.03745173
      vertex 1.87998813 0.337021556 2.03646189
      vertex 1.88017392 0.335805971 2.03667818
    endloop
  endfacet
  facet normal -0.811490422 -0.551486163 -0.193251927
    outer loop
      vertex 1.90780857 0.324913284 1.95172127
      vertex 1.90842936 0.323882761 1.95205533
      vertex 1.88079471 0.334775448 2.03701223
    endloop
  endfacet
  facet normal -0.811490422 -0.551486163 -0.193251927
    outer loop
      vertex 1.90780857 0.324913284 1.95172127
      vertex 1.88079471 0.334775448 2.03701223
      vertex 1.88017392 0.335805971 2.03667818
    endloop
  endfacet
  facet normal 0.307051637 -0.121029855 -0.943965607
    outer loop
      vertex 1.91066584 0.326128869 1.95249482
      vertex 1.90842936 0.323882761 1.95205533
      vertex 1.90780857 0.324913284 1.95172127
    endloop
  endfacet
  facet normal -0.307051637 0.121029855 0.943965607
    outer loop
      vertex 1.88303119 0.337021556 2.03745173
      vertex 1.88017392 0.335805971 2.03667818
      vertex 1.88079471 0.334775448 2.03701223
    endloop
  endfacet
  facet normal -0.559451211 -0.825357369 -0.0761548161
    outer loop
      vertex 1.90842936 0.323882761 1.95205533
      vertex 1.90939063 0.323194188 1.95245629
      vertex 1.88175598 0.334086875 2.0374132
    endloop
  endfacet
  facet normal -0.559451211 -0.825357369 -0.0761548161
    outer loop
      vertex 1.90842936 0.323882761 1.95205533
      vertex 1.88175598 0.334086875 2.0374132
      vertex 1.88079471 0.334775448 2.03701223
    endloop
  endfacet
  facet normal 0.307051637 -0.121029855 -0.943965607
    outer loop
      vertex 1.91066584 0.326128869 1.95249482
      vertex 1.90939063 0.323194188 1.95245629
      vertex 1.90842936 0.323882761 1.95205533
    endloop
  endfacet
  facet normal -0.307051637 0.121029855 0.943965607
    outer loop
      vertex 1.88303119 0.337021556 2.03745173
      vertex 1.88079471 0.334775448 2.03701223
      vertex 1.88175598 0.334086875 2.0374132
    endloop
  endfacet
  facet normal -0.222240624 -0.973575398 0.0525361748
    outer loop
      vertex 1.90939063 0.323194188 1.95245629
      vertex 1.91054604 0.322952393 1.95286312
      vertex 1.88291139 0.33384508 2.03782003
    endloop
  endfacet
  facet normal -0.222240624 -0.973575398 0.0525361748
    outer loop
      vertex 1.90939063 0.323194188 1.95245629
      vertex 1.88291139 0.33384508 2.03782003
      vertex 1.88175598 0.334086875 2.0374132
    endloop
  endfacet
  facet normal 0.307051637 -0.121029855 -0.943965607
    outer loop
      vertex 1.91066584 0.326128869 1.95249482
      vertex 1.91054604 0.322952393 1.95286312
      vertex 1.90939063 0.323194188 1.95245629
    endloop
  endfacet
  facet normal -0.307051637 0.121029855 0.943965607
    outer loop
      vertex 1.88303119 0.337021556 2.03745173
      vertex 1.88175598 0.334086875 2.0374132
      vertex 1.88291139 0.33384508 2.03782003
    endloop
  endfacet
  facet normal 0.148804083 -0.973575398 0.173229009
    outer loop
      vertex 1.91054604 0.322952393 1.95286312
      vertex 1.91171968 0.323194188 1.95321389
      vertex 1.88408504 0.334086875 2.03817079
    endloop
  endfacet
  facet normal 0.148804083 -0.973575398 0.173229009
    outer loop
      vertex 1.91054604 0.322952393 1.95286312
      vertex 1.88408504 0.334086875 2.03817079
      vertex 1.88291139 0.33384508 2.03782003
    endloop
  endfacet
  facet normal 0.307051637 -0.121029855 -0.943965607
    outer loop
      vertex 1.91066584 0.326128869 1.95249482
      vertex 1.91171968 0.323194188 1.95321389
      vertex 1.91054604 0.322952393 1.95286312
    endloop
  endfacet
  facet normal -0.307051637 0.121029855 0.943965607
    outer loop
      vertex 1.88303119 0.337021556 2.03745173
      vertex 1.88291139 0.33384508 2.03782003
      vertex 1.88408504 0.334086875 2.03817079
    endloop
  endfacet
  facet normal 0.497194717 -0.825357369 0.267549297
    outer loop
      vertex 1.91171968 0.323194188 1.95321389
      vertex 1.91273289 0.323882761 1.95345518
      vertex 1.88509825 0.334775448 2.03841208
    endloop
  endfacet
  facet normal 0.497194717 -0.825357369 0.267549297
    outer loop
      vertex 1.91171968 0.323194188 1.95321389
      vertex 1.88509825 0.334775448 2.03841208
      vertex 1.88408504 0.334086875 2.03817079
    endloop
  endfacet
  facet normal 0.307051637 -0.121029855 -0.943965607
    outer loop
      vertex 1.91066584 0.326128869 1.95249482
      vertex 1.91273289 0.323882761 1.95345518
      vertex 1.91171968 0.323194188 1.95321389
    endloop
  endfacet
  facet normal -0.307051637 0.121029855 0.943965607
    outer loop
      vertex 1.88303119 0.337021556 2.03745173
      vertex 1.88408504 0.334086875 2.03817079
      vertex 1.88509825 0.334775448 2.03841208
    endloop
  endfacet
  facet normal 0.769891963 -0.551486163 0.32113763
    outer loop
      vertex 1.91273289 0.323882761 1.95345518
      vertex 1.91343141 0.324913284 1.95355026
      vertex 1.88579676 0.335805971 2.03850717
    endloop
  endfacet
  facet normal 0.769891963 -0.551486163 0.32113763
    outer loop
      vertex 1.91273289 0.323882761 1.95345518
      vertex 1.88579676 0.335805971 2.03850717
      vertex 1.88509825 0.334775448 2.03841208
    endloop
  endfacet
  facet normal 0.307051637 -0.121029855 -0.943965607
    outer loop
      vertex 1.91066584 0.326128869 1.95249482
      vertex 1.91343141 0.324913284 1.95355026
      vertex 1.91273289 0.323882761 1.95345518
    endloop
  endfacet
  facet normal -0.307051637 0.121029855 0.943965607
    outer loop
      vertex 1.88303119 0.337021556 2.03745173
      vertex 1.88509825 0.334775448 2.03841208
      vertex 1.88579676 0.335805971 2.03850717
    endloop
  endfacet
  facet normal 0.925380137 -0.193656187 0.32583567
    outer loop
      vertex 1.91343141 0.324913284 1.95355026
      vertex 1.9137089 0.326128869 1.95348467
      vertex 1.88607425 0.337021556 2.03844157
    endloop
  endfacet
  facet normal 0.925380137 -0.193656187 0.32583567
    outer loop
      vertex 1.91343141 0.324913284 1.95355026
      vertex 1.88607425 0.337021556 2.03844157
      vertex 1.88579676 0.335805971 2.03850717
    endloop
  endfacet
  facet normal 0.307051637 -0.121029855 -0.943965607
    outer loop
      vertex 1.91066584 0.326128869 1.95249482
      vertex 1.9137089 0.326128869 1.95348467
      vertex 1.91343141 0.324913284 1.95355026
    endloop
  endfacet
  facet normal -0.307051637 0.121029855 0.943965607
    outer loop
      vertex 1.88303119 0.337021556 2.03745173
      vertex 1.88579676 0.335805971 2.03850717
      vertex 1.88607425 0.337021556 2.03844157
    endloop
  endfacet
  facet normal 0.939987573 0.193656187 0.280928183
    outer loop
      vertex 1.9137089 0.326128869 1.95348467
      vertex 1.9135231 0.327344454 1.95326838
      vertex 1.88588845 0.338237141 2.03822528
    endloop
  endfacet
  facet normal 0.939987573 0.193656187 0.280928183
    outer loop
      vertex 1.9137089 0.326128869 1.95348467
      vertex 1.88588845 0.338237141 2.03822528
      vertex 1.88607425 0.337021556 2.03844157
    endloop
  endfacet
  facet normal 0.307051637 -0.121029855 -0.943965607
    outer loop
      vertex 1.91066584 0.326128869 1.95249482
      vertex 1.9135231 0.327344454 1.95326838
      vertex 1.9137089 0.326128869 1.95348467
    endloop
  endfacet
  facet normal -0.307051637 0.121029855 0.943965607
    outer loop
      vertex 1.88303119 0.337021556 2.03745173
      vertex 1.88607425 0.337021556 2.03844157
      vertex 1.88588845 0.338237141 2.03822528
    endloop
  endfacet
  facet normal 0.811490422 0.551486163 0.193251927
    outer loop
      vertex 1.9135231 0.327344454 1.95326838
      vertex 1.91290232 0.328374977 1.95293432
      vertex 1.88526767 0.339267664 2.03789122
    endloop
  endfacet
  facet normal 0.811490422 0.551486163 0.193251927
    outer loop
      vertex 1.9135231 0.327344454 1.95326838
      vertex 1.88526767 0.339267664 2.03789122
      vertex 1.88588845 0.338237141 2.03822528
    endloop
  endfacet
  facet normal 0.307051637 -0.121029855 -0.943965607
    outer loop
      vertex 1.91066584 0.326128869 1.95249482
      vertex 1.91290232 0.328374977 1.95293432
      vertex 1.9135231 0.327344454 1.95326838
    endloop
  endfacet
  facet normal -0.307051637 0.121029855 0.943965607
    outer loop
      vertex 1.88303119 0.337021556 2.03745173
      vertex 1.88588845 0.338237141 2.03822528
      vertex 1.88526767 0.339267664 2.03789122
    endloop
  endfacet
  facet normal 0.559451211 0.825357369 0.0761548161
    outer loop
      vertex 1.91290232 0.328374977 1.95293432
      vertex 1.91194105 0.329063551 1.95253335
      vertex 1.8843064 0.339956238 2.03749026
    endloop
  endfacet
  facet normal 0.559451211 0.825357369 0.0761548161
    outer loop
      vertex 1.91290232 0.328374977 1.95293432
      vertex 1.8843064 0.339956238 2.03749026
      vertex 1.88526767 0.339267664 2.03789122
    endloop
  endfacet
  facet normal 0.307051637 -0.121029855 -0.943965607
    outer loop
      vertex 1.91066584 0.326128869 1.95249482
      vertex 1.91194105 0.329063551 1.95253335
      vertex 1.91290232 0.328374977 1.95293432
    endloop
  endfacet
  facet normal -0.307051637 0.121029855 0.943965607
    outer loop
      vertex 1.88303119 0.337021556 2.03745173
      vertex 1.88526767 0.339267664 2.03789122
      vertex 1.8843064 0.339956238 2.03749026
    endloop
  endfacet
  facet normal 0.222240624 0.973575398 -0.0525361748
    outer loop
      vertex 1.91194105 0.329063551 1.95253335
      vertex 1.91078564 0.329305346 1.95212652
      vertex 1.88315099 0.340198033 2.03708343
    endloop
  endfacet
  facet normal 0.222240624 0.973575398 -0.0525361748
    outer loop
      vertex 1.91194105 0.329063551 1.95253335
      vertex 1.88315099 0.340198033 2.03708343
      vertex 1.8843064 0.339956238 2.03749026
    endloop
  endfacet
  facet normal 0.307051637 -0.121029855 -0.943965607
    outer loop
      vertex 1.91066584 0.326128869 1.95249482
      vertex 1.91078564 0.329305346 1.95212652
      vertex 1.91194105 0.329063551 1.95253335
    endloop
  endfacet
  facet normal -0.307051637 0.121029855 0.943965607
    outer loop
      vertex 1.88303119 0.337021556 2.03745173
      vertex 1.8843064 0.339956238 2.03749026
      vertex 1.88315099 0.340198033 2.03708343
    endloop
  endfacet
  facet normal -0.148804083 0.973575398 -0.173229009
    outer loop
      vertex 1.91078564 0.329305346 1.95212652
      vertex 1.90961199 0.329063551 1.95177576
      vertex 1.88197734 0.339956238 2.03673267
    endloop
  endfacet
  facet normal -0.148804083 0.973575398 -0.173229009
    outer loop
      vertex 1.91078564 0.329305346 1.95212652
      vertex 1.88197734 0.339956238 2.03673267
      vertex 1.88315099 0.340198033 2.03708343
    endloop
  endfacet
  facet normal 0.307051637 -0.121029855 -0.943965607
    outer loop
      vertex 1.91066584 0.326128869 1.95249482
      vertex 1.90961199 0.329063551 1.95177576
      vertex 1.91078564 0.329305346 1.95212652
    endloop
  endfacet
  facet normal -0.307051637 0.121029855 0.943965607
    outer loop
      vertex 1.88303119 0.337021556 2.03745173
      vertex 1.88315099 0.340198033 2.03708343
      vertex 1.88197734 0.339956238 2.03673267
    endloop
  endfacet
  facet normal -0.497194717 0.825357369 -0.267549297
    outer loop
      vertex 1.90961199 0.329063551 1.95177576
      vertex 1.90859878 0.328374977 1.95153447
      vertex 1.88096413 0.339267664 2.03649138
    endloop
  endfacet
  facet normal -0.497194717 0.825357369 -0.267549297
    outer loop
      vertex 1.90961199 0.329063551 1.95177576
      vertex 1.88096413 0.339267664 2.03649138
      vertex 1.88197734 0.339956238 2.03673267
    endloop
  endfacet
  facet normal 0.307051637 -0.121029855 -0.943965607
    outer loop
      vertex 1.91066584 0.326128869 1.95249482
      vertex 1.90859878 0.328374977 1.95153447
      vertex 1.90961199 0.329063551 1.95177576
    endloop
  endfacet
  facet normal -0.307051637 0.121029855 0.943965607
    outer loop
      vertex 1.88303119 0.337021556 2.03745173
      vertex 1.88197734 0.339956238 2.03673267
      vertex 1.88096413 0.339267664 2.03649138
    endloop
  endfacet
  facet normal -0.769891963 0.551486163 -0.32113763
    outer loop
      vertex 1.90859878 0.328374977 1.95153447
      vertex 1.90790026 0.327344454 1.95143939
      vertex 1.88026561 0.338237141 2.03639629
    endloop
  endfacet
  facet normal -0.769891963 0.551486163 -0.32113763
    outer loop
      vertex 1.90859878 0.328374977 1.95153447
      vertex 1.88026561 0.338237141 2.03639629
      vertex 1.88096413 0.339267664 2.03649138
    endloop
  endfacet
  facet normal 0.307051637 -0.121029855 -0.943965607
    outer loop
      vertex 1.91066584 0.326128869 1.95249482
      vertex 1.90790026 0.327344454 1.95143939
      vertex 1.90859878 0.328374977 1.95153447
    endloop
  endfacet
  facet normal -0.307051637 0.121029855 0.943965607
    outer loop
      vertex 1.88303119 0.337021556 2.03745173
      vertex 1.88096413 0.339267664 2.03649138
      vertex 1.88026561 0.338237141 2.03639629
    endloop
  endfacet
  facet normal -0.925380137 0.193656187 -0.32583567
    outer loop
      vertex 1.90790026 0.327344454 1.95143939
      vertex 1.90762278 0.326128869 1.95150498
      vertex 1.87998813 0.337021556 2.03646189
    endloop
  endfacet
  facet normal -0.925380137 0.193656187 -0.32583567
    outer loop
      vertex 1.90790026 0.327344454 1.95143939
      vertex 1.87998813 0.337021556 2.03646189
      vertex 1.88026561 0.338237141 2.03639629
    endloop
  endfacet
  facet normal 0.307051637 -0.121029855 -0.943965607
    outer loop
      vertex 1.91066584 0.326128869 1.95249482
      vertex 1.90762278 0.326128869 1.95150498
      vertex 1.90790026 0.327344454 1.95143939
    endloop
  endfacet
  facet normal -0.307051637 0.121029855 0.943965607
    outer loop
      vertex 1.88303119 0.337021556 2.03745173
      vertex 1.88026561 0.338237141 2.03639629
      vertex 1.87998813 0.337021556 2.03646189
    endloop
  endfacet
  facet normal -0.939987573 -0.193656187 -0.280928183
    outer loop
      vertex 1.87908832 0.325964364 1.94224443
      vertex 1.87927411 0.324748779 1.94246072
      vertex 1.85163947 0.335641466 2.02741763
    endloop
  endfacet
  facet normal -0.939987573 -0.193656187 -0.280928183
    outer loop
      vertex 1.87908832 0.325964364 1.94224443
      vertex 1.85163947 0.335641466 2.02741763
      vertex 1.85145367 0.336857051 2.02720134
    endloop
  endfacet
  facet normal 0.307051637 -0.121029855 -0.943965607
    outer loop
      vertex 1.88213138 0.325964364 1.94323427
      vertex 1.87927411 0.324748779 1.94246072
      vertex 1.87908832 0.325964364 1.94224443
    endloop
  endfacet
  facet normal -0.307051637 0.121029855 0.943965607
    outer loop
      vertex 1.85449673 0.336857051 2.02819118
      vertex 1.85145367 0.336857051 2.02720134
      vertex 1.85163947 0.335641466 2.02741763
    endloop
  endfacet
  facet normal -0.811490422 -0.551486163 -0.193251927
    outer loop
      vertex 1.87927411 0.324748779 1.94246072
      vertex 1.8798949 0.323718256 1.94279478
      vertex 1.85226025 0.334610943 2.02775168
    endloop
  endfacet
  facet normal -0.811490422 -0.551486163 -0.193251927
    outer loop
      vertex 1.87927411 0.324748779 1.94246072
      vertex 1.85226025 0.334610943 2.02775168
      vertex 1.85163947 0.335641466 2.02741763
    endloop
  endfacet
  facet normal 0.307051637 -0.121029855 -0.943965607
    outer loop
      vertex 1.88213138 0.325964364 1.94323427
      vertex 1.8798949 0.323718256 1.94279478
      vertex 1.87927411 0.324748779 1.94246072
    endloop
  endfacet
  facet normal -0.307051637 0.121029855 0.943965607
    outer loop
      vertex 1.85449673 0.336857051 2.02819118
      vertex 1.85163947 0.335641466 2.02741763
      vertex 1.85226025 0.334610943 2.02775168
    endloop
  endfacet
  facet normal -0.559451211 -0.825357369 -0.0761548161
    outer loop
      vertex 1.8798949 0.323718256 1.94279478
      vertex 1.88085617 0.323029683 1.94319574
      vertex 1.85322152 0.33392237 2.02815265
    endloop
  endfacet
  facet normal -0.559451211 -0.825357369 -0.0761548161
    outer loop
      vertex 1.8798949 0.323718256 1.94279478
      vertex 1.85322152 0.33392237 2.02815265
      vertex 1.85226025 0.334610943 2.02775168
    endloop
  endfacet
  facet normal 0.307051637 -0.121029855 -0.943965607
    outer loop
      vertex 1.88213138 0.325964364 1.94323427
      vertex 1.88085617 0.323029683 1.94319574
      vertex 1.8798949 0.323718256 1.94279478
    endloop
  endfacet
  facet normal -0.307051637 0.121029855 0.943965607
    outer loop
      vertex 1.85449673 0.336857051 2.02819118
      vertex 1.85226025 0.334610943 2.02775168
      vertex 1.85322152 0.33392237 2.02815265
    endloop
  endfacet
  facet normal -0.222240624 -0.973575398 0.0525361748
    outer loop
      vertex 1.88085617 0.323029683 1.94319574
      vertex 1.88201158 0.322787888 1.94360257
      vertex 1.85437693 0.333680575 2.02855948
    endloop
  endfacet
  facet normal -0.222240624 -0.973575398 0.0525361748
    outer loop
      vertex 1.88085617 0.323029683 1.94319574
      vertex 1.85437693 0.333680575 2.02855948
      vertex 1.85322152 0.33392237 2.02815265
    endloop
  endfacet
  facet normal 0.307051637 -0.121029855 -0.943965607
    outer loop
      vertex 1.88213138 0.325964364 1.94323427
      vertex 1.88201158 0.322787888 1.94360257
      vertex 1.88085617 0.323029683 1.94319574
    endloop
  endfacet
  facet normal -0.307051637 0.121029855 0.943965607
    outer loop
      vertex 1.85449673 0.336857051 2.02819118
      vertex 1.85322152 0.33392237 2.02815265
      vertex 1.85437693 0.333680575 2.02855948
    endloop
  endfacet
  facet normal 0.148804083 -0.973575398 0.173229009
    outer loop
      vertex 1.88201158 0.322787888 1.94360257
      vertex 1.88318523 0.323029683 1.94395333
      vertex 1.85555058 0.33392237 2.02891024
    endloop
  endfacet
  facet normal 0.148804083 -0.973575398 0.173229009
    outer loop
      vertex 1.88201158 0.322787888 1.94360257
      vertex 1.85555058 0.33392237 2.02891024
      vertex 1.85437693 0.333680575 2.02855948
    endloop
  endfacet
  facet normal 0.307051637 -0.121029855 -0.943965607
    outer loop
      vertex 1.88213138 0.325964364 1.94323427
      vertex 1.88318523 0.323029683 1.94395333
      vertex 1.88201158 0.322787888 1.94360257
    endloop
  endfacet
  facet normal -0.307051637 0.121029855 0.943965607
    outer loop
      vertex 1.85449673 0.336857051 2.02819118
      vertex 1.85437693 0.333680575 2.02855948
      vertex 1.85555058 0.33392237 2.02891024
    endloop
  endfacet
  facet normal 0.497194717 -0.825357369 0.267549297
    outer loop
      vertex 1.88318523 0.323029683 1.94395333
      vertex 1.88419844 0.323718256 1.94419463
      vertex 1.85656379 0.334610943 2.02915153
    endloop
  endfacet
  facet normal 0.497194717 -0.825357369 0.267549297
    outer loop
      vertex 1.88318523 0.323029683 1.94395333
      vertex 1.85656379 0.334610943 2.02915153
      vertex 1.85555058 0.33392237 2.02891024
    endloop
  endfacet
  facet normal 0.307051637 -0.121029855 -0.943965607
    outer loop
      vertex 1.88213138 0.325964364 1.94323427
      vertex 1.88419844 0.323718256 1.94419463
      vertex 1.88318523 0.323029683 1.94395333
    endloop
  endfacet
  facet normal -0.307051637 0.121029855 0.943965607
    outer loop
      vertex 1.85449673 0.336857051 2.02819118
      vertex 1.85555058 0.33392237 2.02891024
      vertex 1.85656379 0.334610943 2.02915153
    endloop
  endfacet
  facet normal 0.769891963 -0.551486163 0.32113763
    outer loop
      vertex 1.88419844 0.323718256 1.94419463
      vertex 1.88489696 0.324748779 1.94428971
      vertex 1.85726231 0.335641466 2.02924661
    endloop
  endfacet
  facet normal 0.769891963 -0.551486163 0.32113763
    outer loop
      vertex 1.88419844 0.323718256 1.94419463
      vertex 1.85726231 0.335641466 2.02924661
      vertex 1.85656379 0.334610943 2.02915153
    endloop
  endfacet
  facet normal 0.307051637 -0.121029855 -0.943965607
    outer loop
      vertex 1.88213138 0.325964364 1.94323427
      vertex 1.88489696 0.324748779 1.94428971
      vertex 1.88419844 0.323718256 1.94419463
    endloop
  endfacet
  facet normal -0.307051637 0.121029855 0.943965607
    outer loop
      vertex 1.85449673 0.336857051 2.02819118
      vertex 1.85656379 0.334610943 2.02915153
      vertex 1.85726231 0.335641466 2.02924661
    endloop
  endfacet
  facet normal 0.925380137 -0.193656187 0.32583567
    outer loop
      vertex 1.88489696 0.324748779 1.94428971
      vertex 1.88517444 0.325964364 1.94422411
      vertex 1.85753979 0.336857051 2.02918102
    endloop
  endfacet
  facet normal 0.925380137 -0.193656187 0.32583567
    outer loop
      vertex 1.88489696 0.324748779 1.94428971
      vertex 1.85753979 0.336857051 2.02918102
      vertex 1.85726231 0.335641466 2.02924661
    endloop
  endfacet
  facet normal 0.307051637 -0.121029855 -0.943965607
    outer loop
      vertex 1.88213138 0.325964364 1.94323427
      vertex 1.88517444 0.325964364 1.94422411
      vertex 1.88489696 0.324748779 1.94428971
    endloop
  endfacet
  facet normal -0.307051637 0.121029855 0.943965607
    outer loop
      vertex 1.85449673 0.336857051 2.02819118
      vertex 1.85726231 0.335641466 2.02924661
      vertex 1.85753979 0.336857051 2.02918102
    endloop
  endfacet
  facet normal 0.939987573 0.193656187 0.280928183
    outer loop
      vertex 1.88517444 0.325964364 1.94422411
      vertex 1.88498865 0.327179949 1.94400782
      vertex 1.857354 0.338072636 2.02896473
    endloop
  endfacet
  facet normal 0.939987573 0.193656187 0.280928183
    outer loop
      vertex 1.88517444 0.325964364 1.94422411
      vertex 1.857354 0.338072636 2.02896473
      vertex 1.85753979 0.336857051 2.02918102
    endloop
  endfacet
  facet normal 0.307051637 -0.121029855 -0.943965607
    outer loop
      vertex 1.88213138 0.325964364 1.94323427
      vertex 1.88498865 0.327179949 1.94400782
      vertex 1.88517444 0.325964364 1.94422411
    endloop
  endfacet
  facet normal -0.307051637 0.121029855 0.943965607
    outer loop
      vertex 1.85449673 0.336857051 2.02819118
      vertex 1.85753979 0.336857051 2.02918102
      vertex 1.857354 0.338072636 2.02896473
    endloop
  endfacet
  facet normal 0.811490422 0.551486163 0.193251927
    outer loop
      vertex 1.88498865 0.327179949 1.94400782
      vertex 1.88436786 0.328210472 1.94367377
      vertex 1.85673321 0.339103159 2.02863067
    endloop
  endfacet
  facet normal 0.811490422 0.551486163 0.193251927
    outer loop
      vertex 1.88498865 0.327179949 1.94400782
      vertex 1.85673321 0.339103159 2.02863067
      vertex 1.857354 0.338072636 2.02896473
    endloop
  endfacet
  facet normal 0.307051637 -0.121029855 -0.943965607
    outer loop
      vertex 1.88213138 0.325964364 1.94323427
      vertex 1.88436786 0.328210472 1.94367377
      vertex 1.88498865 0.327179949 1.94400782
    endloop
  endfacet
  facet normal -0.307051637 0.121029855 0.943965607
    outer loop
      vertex 1.85449673 0.336857051 2.02819118
      vertex 1.857354 0.338072636 2.02896473
      vertex 1.85673321 0.339103159 2.02863067
    endloop
  endfacet
  facet normal 0.559451211 0.825357369 0.0761548161
    outer loop
      vertex 1.88436786 0.328210472 1.94367377
      vertex 1.88340659 0.328899046 1.9432728
      vertex 1.85577194 0.339791733 2.02822971
    endloop
  endfacet
  facet normal 0.559451211 0.825357369 0.0761548161
    outer loop
      vertex 1.88436786 0.328210472 1.94367377
      vertex 1.85577194 0.339791733 2.02822971
      vertex 1.85673321 0.339103159 2.02863067
    endloop
  endfacet
  facet normal 0.307051637 -0.121029855 -0.943965607
    outer loop
      vertex 1.88213138 0.325964364 1.94323427
      vertex 1.88340659 0.328899046 1.9432728
      vertex 1.88436786 0.328210472 1.94367377
    endloop
  endfacet
  facet normal -0.307051637 0.121029855 0.943965607
    outer loop
      vertex 1.85449673 0.336857051 2.02819118
      vertex 1.85673321 0.339103159 2.02863067
      vertex 1.85577194 0.339791733 2.02822971
    endloop
  endfacet
  facet normal 0.222240624 0.973575398 -0.0525361748
    outer loop
      vertex 1.88340659 0.328899046 1.9432728
      vertex 1.88225118 0.32914084 1.94286597
      vertex 1.85461653 0.340033527 2.02782288
    endloop
  endfacet
  facet normal 0.222240624 0.973575398 -0.0525361748
    outer loop
      vertex 1.88340659 0.328899046 1.9432728
      vertex 1.85461653 0.340033527 2.02782288
      vertex 1.85577194 0.339791733 2.02822971
    endloop
  endfacet
  facet normal 0.307051637 -0.121029855 -0.943965607
    outer loop
      vertex 1.88213138 0.325964364 1.94323427
      vertex 1.88225118 0.32914084 1.94286597
      vertex 1.88340659 0.328899046 1.9432728
    endloop
  endfacet
  facet normal -0.307051637 0.121029855 0.943965607
    outer loop
      vertex 1.85449673 0.336857051 2.02819118
      vertex 1.85577194 0.339791733 2.02822971
      vertex 1.85461653 0.340033527 2.02782288
    endloop
  endfacet
  facet normal -0.148804083 0.973575398 -0.173229009
    outer loop
      vertex 1.88225118 0.32914084 1.94286597
      vertex 1.88107753 0.328899046 1.94251521
      vertex 1.85344289 0.339791733 2.02747212
    endloop
  endfacet
  facet normal -0.148804083 0.973575398 -0.173229009
    outer loop
      vertex 1.88225118 0.32914084 1.94286597
      vertex 1.85344289 0.339791733 2.02747212
      vertex 1.85461653 0.340033527 2.02782288
    endloop
  endfacet
  facet normal 0.307051637 -0.121029855 -0.943965607
    outer loop
      vertex 1.88213138 0.325964364 1.94323427
      vertex 1.88107753 0.328899046 1.94251521
      vertex 1.88225118 0.32914084 1.94286597
    endloop
  endfacet
  facet normal -0.307051637 0.121029855 0.943965607
    outer loop
      vertex 1.85449673 0.336857051 2.02819118
      vertex 1.85461653 0.340033527 2.02782288
      vertex 1.85344289 0.339791733 2.02747212
    endloop
  endfacet
  facet normal -0.497194717 0.825357369 -0.267549297
    outer loop
      vertex 1.88107753 0.328899046 1.94251521
      vertex 1.88006432 0.328210472 1.94227392
      vertex 1.85242968 0.339103159 2.02723083
    endloop
  endfacet
  facet normal -0.497194717 0.825357369 -0.267549297
    outer loop
      vertex 1.88107753 0.328899046 1.94251521
      vertex 1.85242968 0.339103159 2.02723083
      vertex 1.85344289 0.339791733 2.02747212
    endloop
  endfacet
  facet normal 0.307051637 -0.121029855 -0.943965607
    outer loop
      vertex 1.88213138 0.325964364 1.94323427
      vertex 1.88006432 0.328210472 1.94227392
      vertex 1.88107753 0.328899046 1.94251521
    endloop
  endfacet
  facet normal -0.307051637 0.121029855 0.943965607
    outer loop
      vertex 1.85449673 0.336857051 2.02819118
      vertex 1.85344289 0.339791733 2.02747212
      vertex 1.85242968 0.339103159 2.02723083
    endloop
  endfacet
  facet normal -0.769891963 0.551486163 -0.32113763
    outer loop
      vertex 1.88006432 0.328210472 1.94227392
      vertex 1.87936581 0.327179949 1.94217884
      vertex 1.85173116 0.338072636 2.02713574
    endloop
  endfacet
  facet normal -0.769891963 0.551486163 -0.32113763
    outer loop
      vertex 1.88006432 0.328210472 1.94227392
      vertex 1.85173116 0.338072636 2.02713574
      vertex 1.85242968 0.339103159 2.02723083
    endloop
  endfacet
  facet normal 0.307051637 -0.121029855 -0.943965607
    outer loop
      vertex 1.88213138 0.325964364 1.94323427
      vertex 1.87936581 0.327179949 1.94217884
      vertex 1.88006432 0.328210472 1.94227392
    endloop
  endfacet
  facet normal -0.307051637 0.121029855 0.943965607
    outer loop
      vertex 1.85449673 0.336857051 2.02819118
      vertex 1.85242968 0.339103159 2.02723083
      vertex 1.85173116 0.338072636 2.02713574
    endloop
  endfacet
  facet normal -0.925380137 0.193656187 -0.32583567
    outer loop
      vertex 1.87936581 0.327179949 1.94217884
      vertex 1.87908832 0.325964364 1.94224443
      vertex 1.85145367 0.336857051 2.02720134
    endloop
  endfacet
  facet normal -0.925380137 0.193656187 -0.32583567
    outer loop
      vertex 1.87936581 0.327179949 1.94217884
      vertex 1.85145367 0.336857051 2.02720134
      vertex 1.85173116 0.338072636 2.02713574
    endloop
  endfacet
  facet normal 0.307051637 -0.121029855 -0.943965607
    outer loop
      vertex 1.88213138 0.325964364 1.94323427
      vertex 1.87908832 0.325964364 1.94224443
      vertex 1.87936581 0.327179949 1.94217884
    endloop
  endfacet
  facet normal -0.307051637 0.121029855 0.943965607
    outer loop
      vertex 1.85449673 0.336857051 2.02819118
      vertex 1.85173116 0.338072636 2.02713574
      vertex 1.85145367 0.336857051 2.02720134
    endloop
  endfacet
  facet normal -0.691586828 -0.699686655 -0.179293736
    outer loop
      vertex 1.9901683 0.616366658 1.95729165
      vertex 1.99066829 0.616160844 1.95616622
      vertex 2.08083665 0.511884748 2.01529458
    endloop
  endfacet
  facet normal -0.691586828 -0.699686655 -0.179293736
    outer loop
      vertex 1.9901683 0.616366658 1.95729165
      vertex 2.08083665 0.511884748 2.01529458
      vertex 2.08033666 0.512090561 2.01642001
    endloop
  endfacet
  facet normal -0.601122387 0.695173977 -0.394189064
    outer loop
      vertex 1.99258885 0.618459727 1.95729165
      vertex 1.99066829 0.616160844 1.95616622
      vertex 1.9901683 0.616366658 1.95729165
    endloop
  endfacet
  facet normal 0.601122387 -0.695173977 0.394189064
    outer loop
      vertex 2.08275721 0.51418363 2.01642001
      vertex 2.08033666 0.512090561 2.01642001
      vertex 2.08083665 0.511884748 2.01529458
    endloop
  endfacet
  facet normal -0.485697654 -0.709507137 -0.510585361
    outer loop
      vertex 1.99066829 0.616160844 1.95616622
      vertex 1.99146067 0.616305015 1.95521212
      vertex 2.08162903 0.512028918 2.01434048
    endloop
  endfacet
  facet normal -0.485697654 -0.709507137 -0.510585361
    outer loop
      vertex 1.99066829 0.616160844 1.95616622
      vertex 2.08162903 0.512028918 2.01434048
      vertex 2.08083665 0.511884748 2.01529458
    endloop
  endfacet
  facet normal -0.601122387 0.695173977 -0.394189064
    outer loop
      vertex 1.99258885 0.618459727 1.95729165
      vertex 1.99146067 0.616305015 1.95521212
      vertex 1.99066829 0.616160844 1.95616622
    endloop
  endfacet
  facet normal 0.601122387 -0.695173977 0.394189064
    outer loop
      vertex 2.08275721 0.51418363 2.01642001
      vertex 2.08083665 0.511884748 2.01529458
      vertex 2.08162903 0.512028918 2.01434048
    endloop
  endfacet
  facet normal -0.205865415 -0.61131159 -0.764144994
    outer loop
      vertex 1.99146067 0.616305015 1.95521212
      vertex 1.99242481 0.61677722 1.95457462
      vertex 2.08259316 0.512501124 2.01370298
    endloop
  endfacet
  facet normal -0.205865415 -0.61131159 -0.764144994
    outer loop
      vertex 1.99146067 0.616305015 1.95521212
      vertex 2.08259316 0.512501124 2.01370298
      vertex 2.08162903 0.512028918 2.01434048
    endloop
  endfacet
  facet normal -0.601122387 0.695173977 -0.394189064
    outer loop
      vertex 1.99258885 0.618459727 1.95729165
      vertex 1.99242481 0.61677722 1.95457462
      vertex 1.99146067 0.616305015 1.95521212
    endloop
  endfacet
  facet normal 0.601122387 -0.695173977 0.394189064
    outer loop
      vertex 2.08275721 0.51418363 2.01642001
      vertex 2.08162903 0.512028918 2.01434048
      vertex 2.08259316 0.512501124 2.01370298
    endloop
  endfacet
  facet normal 0.105307968 -0.420049394 -0.901370478
    outer loop
      vertex 1.99242481 0.61677722 1.95457462
      vertex 1.99341391 0.617505572 1.95435076
      vertex 2.08358227 0.513229476 2.01347911
    endloop
  endfacet
  facet normal 0.105307968 -0.420049394 -0.901370478
    outer loop
      vertex 1.99242481 0.61677722 1.95457462
      vertex 2.08358227 0.513229476 2.01347911
      vertex 2.08259316 0.512501124 2.01370298
    endloop
  endfacet
  facet normal -0.601122387 0.695173977 -0.394189064
    outer loop
      vertex 1.99258885 0.618459727 1.95729165
      vertex 1.99341391 0.617505572 1.95435076
      vertex 1.99242481 0.61677722 1.95457462
    endloop
  endfacet
  facet normal 0.601122387 -0.695173977 0.394189064
    outer loop
      vertex 2.08275721 0.51418363 2.01642001
      vertex 2.08259316 0.512501124 2.01370298
      vertex 2.08358227 0.513229476 2.01347911
    endloop
  endfacet
  facet normal 0.400449167 -0.164838486 -0.901370478
    outer loop
      vertex 1.99341391 0.617505572 1.95435076
      vertex 1.99427741 0.618379186 1.95457462
      vertex 2.08444577 0.514103089 2.01370298
    endloop
  endfacet
  facet normal 0.400449167 -0.164838486 -0.901370478
    outer loop
      vertex 1.99341391 0.617505572 1.95435076
      vertex 2.08444577 0.514103089 2.01370298
      vertex 2.08358227 0.513229476 2.01347911
    endloop
  endfacet
  facet normal -0.601122387 0.695173977 -0.394189064
    outer loop
      vertex 1.99258885 0.618459727 1.95729165
      vertex 1.99427741 0.618379186 1.95457462
      vertex 1.99341391 0.617505572 1.95435076
    endloop
  endfacet
  facet normal 0.601122387 -0.695173977 0.394189064
    outer loop
      vertex 2.08275721 0.51418363 2.01642001
      vertex 2.08358227 0.513229476 2.01347911
      vertex 2.08444577 0.514103089 2.01370298
    endloop
  endfacet
  facet normal 0.63462561 0.115467587 -0.764144994
    outer loop
      vertex 1.99427741 0.618379186 1.95457462
      vertex 1.99488385 0.619265061 1.95521212
      vertex 2.0850522 0.514988964 2.01434048
    endloop
  endfacet
  facet normal 0.63462561 0.115467587 -0.764144994
    outer loop
      vertex 1.99427741 0.618379186 1.95457462
      vertex 2.0850522 0.514988964 2.01434048
      vertex 2.08444577 0.514103089 2.01370298
    endloop
  endfacet
  facet normal -0.601122387 0.695173977 -0.394189064
    outer loop
      vertex 1.99258885 0.618459727 1.95729165
      vertex 1.99488385 0.619265061 1.95521212
      vertex 1.99427741 0.618379186 1.95457462
    endloop
  endfacet
  facet normal 0.601122387 -0.695173977 0.394189064
    outer loop
      vertex 2.08275721 0.51418363 2.01642001
      vertex 2.08444577 0.514103089 2.01370298
      vertex 2.0850522 0.514988964 2.01434048
    endloop
  endfacet
  facet normal 0.772186057 0.378194767 -0.510585361
    outer loop
      vertex 1.99488385 0.619265061 1.95521212
      vertex 1.99514088 0.620028331 1.95616622
      vertex 2.08530924 0.515752234 2.01529458
    endloop
  endfacet
  facet normal 0.772186057 0.378194767 -0.510585361
    outer loop
      vertex 1.99488385 0.619265061 1.95521212
      vertex 2.08530924 0.515752234 2.01529458
      vertex 2.0850522 0.514988964 2.01434048
    endloop
  endfacet
  facet normal -0.601122387 0.695173977 -0.394189064
    outer loop
      vertex 1.99258885 0.618459727 1.95729165
      vertex 1.99514088 0.620028331 1.95616622
      vertex 1.99488385 0.619265061 1.95521212
    endloop
  endfacet
  facet normal 0.601122387 -0.695173977 0.394189064
    outer loop
      vertex 2.08275721 0.51418363 2.01642001
      vertex 2.0850522 0.514988964 2.01434048
      vertex 2.08530924 0.515752234 2.01529458
    endloop
  endfacet
  facet normal 0.792188177 0.583345222 -0.179293736
    outer loop
      vertex 1.99514088 0.620028331 1.95616622
      vertex 1.9950094 0.620552795 1.95729165
      vertex 2.08517776 0.516276699 2.01642001
    endloop
  endfacet
  facet normal 0.792188177 0.583345222 -0.179293736
    outer loop
      vertex 1.99514088 0.620028331 1.95616622
      vertex 2.08517776 0.516276699 2.01642001
      vertex 2.08530924 0.515752234 2.01529458
    endloop
  endfacet
  facet normal -0.601122387 0.695173977 -0.394189064
    outer loop
      vertex 1.99258885 0.618459727 1.95729165
      vertex 1.9950094 0.620552795 1.95729165
      vertex 1.99514088 0.620028331 1.95616622
    endloop
  endfacet
  facet normal 0.601122387 -0.695173977 0.394189064
    outer loop
      vertex 2.08275721 0.51418363 2.01642001
      vertex 2.08530924 0.515752234 2.01529458
      vertex 2.08517776 0.516276699 2.01642001
    endloop
  endfacet
  facet normal 0.691586828 0.699686655 0.179293736
    outer loop
      vertex 1.9950094 0.620552795 1.95729165
      vertex 1.99450941 0.620758609 1.95841708
      vertex 2.08467777 0.516482513 2.01754544
    endloop
  endfacet
  facet normal 0.691586828 0.699686655 0.179293736
    outer loop
      vertex 1.9950094 0.620552795 1.95729165
      vertex 2.08467777 0.516482513 2.01754544
      vertex 2.08517776 0.516276699 2.01642001
    endloop
  endfacet
  facet normal -0.601122387 0.695173977 -0.394189064
    outer loop
      vertex 1.99258885 0.618459727 1.95729165
      vertex 1.99450941 0.620758609 1.95841708
      vertex 1.9950094 0.620552795 1.95729165
    endloop
  endfacet
  facet normal 0.601122387 -0.695173977 0.394189064
    outer loop
      vertex 2.08275721 0.51418363 2.01642001
      vertex 2.08517776 0.516276699 2.01642001
      vertex 2.08467777 0.516482513 2.01754544
    endloop
  endfacet
  facet normal 0.485697654 0.709507137 0.510585361
    outer loop
      vertex 1.99450941 0.620758609 1.95841708
      vertex 1.99371703 0.620614439 1.95937118
      vertex 2.08388539 0.516338342 2.01849954
    endloop
  endfacet
  facet normal 0.485697654 0.709507137 0.510585361
    outer loop
      vertex 1.99450941 0.620758609 1.95841708
      vertex 2.08388539 0.516338342 2.01849954
      vertex 2.08467777 0.516482513 2.01754544
    endloop
  endfacet
  facet normal -0.601122387 0.695173977 -0.394189064
    outer loop
      vertex 1.99258885 0.618459727 1.95729165
      vertex 1.99371703 0.620614439 1.95937118
      vertex 1.99450941 0.620758609 1.95841708
    endloop
  endfacet
  facet normal 0.601122387 -0.695173977 0.394189064
    outer loop
      vertex 2.08275721 0.51418363 2.01642001
      vertex 2.08467777 0.516482513 2.01754544
      vertex 2.08388539 0.516338342 2.01849954
    endloop
  endfacet
  facet normal 0.205865415 0.61131159 0.764144994
    outer loop
      vertex 1.99371703 0.620614439 1.95937118
      vertex 1.99275289 0.620142233 1.96000868
      vertex 2.08292125 0.515866137 2.01913704
    endloop
  endfacet
  facet normal 0.205865415 0.61131159 0.764144994
    outer loop
      vertex 1.99371703 0.620614439 1.95937118
      vertex 2.08292125 0.515866137 2.01913704
      vertex 2.08388539 0.516338342 2.01849954
    endloop
  endfacet
  facet normal -0.601122387 0.695173977 -0.394189064
    outer loop
      vertex 1.99258885 0.618459727 1.95729165
      vertex 1.99275289 0.620142233 1.96000868
      vertex 1.99371703 0.620614439 1.95937118
    endloop
  endfacet
  facet normal 0.601122387 -0.695173977 0.394189064
    outer loop
      vertex 2.08275721 0.51418363 2.01642001
      vertex 2.08388539 0.516338342 2.01849954
      vertex 2.08292125 0.515866137 2.01913704
    endloop
  endfacet
  facet normal -0.105307968 0.420049394 0.901370478
    outer loop
      vertex 1.99275289 0.620142233 1.96000868
      vertex 1.99176378 0.619413881 1.96023254
      vertex 2.08193214 0.515137785 2.0193609
    endloop
  endfacet
  facet normal -0.105307968 0.420049394 0.901370478
    outer loop
      vertex 1.99275289 0.620142233 1.96000868
      vertex 2.08193214 0.515137785 2.0193609
      vertex 2.08292125 0.515866137 2.01913704
    endloop
  endfacet
  facet normal -0.601122387 0.695173977 -0.394189064
    outer loop
      vertex 1.99258885 0.618459727 1.95729165
      vertex 1.99176378 0.619413881 1.96023254
      vertex 1.99275289 0.620142233 1.96000868
    endloop
  endfacet
  facet normal 0.601122387 -0.695173977 0.394189064
    outer loop
      vertex 2.08275721 0.51418363 2.01642001
      vertex 2.08292125 0.515866137 2.01913704
      vertex 2.08193214 0.515137785 2.0193609
    endloop
  endfacet
  facet normal -0.400449167 0.164838486 0.901370478
    outer loop
      vertex 1.99176378 0.619413881 1.96023254
      vertex 1.99090028 0.618540268 1.96000868
      vertex 2.08106864 0.514264171 2.01913704
    endloop
  endfacet
  facet normal -0.400449167 0.164838486 0.901370478
    outer loop
      vertex 1.99176378 0.619413881 1.96023254
      vertex 2.08106864 0.514264171 2.01913704
      vertex 2.08193214 0.515137785 2.0193609
    endloop
  endfacet
  facet normal -0.601122387 0.695173977 -0.394189064
    outer loop
      vertex 1.99258885 0.618459727 1.95729165
      vertex 1.99090028 0.618540268 1.96000868
      vertex 1.99176378 0.619413881 1.96023254
    endloop
  endfacet
  facet normal 0.601122387 -0.695173977 0.394189064
    outer loop
      vertex 2.08275721 0.51418363 2.01642001
      vertex 2.08193214 0.515137785 2.0193609
      vertex 2.08106864 0.514264171 2.01913704
    endloop
  endfacet
  facet normal -0.63462561 -0.115467587 0.764144994
    outer loop
      vertex 1.99090028 0.618540268 1.96000868
      vertex 1.99029385 0.617654393 1.95937118
      vertex 2.08046221 0.513378296 2.01849954
    endloop
  endfacet
  facet normal -0.63462561 -0.115467587 0.764144994
    outer loop
      vertex 1.99090028 0.618540268 1.96000868
      vertex 2.08046221 0.513378296 2.01849954
      vertex 2.08106864 0.514264171 2.01913704
    endloop
  endfacet
  facet normal -0.601122387 0.695173977 -0.394189064
    outer loop
      vertex 1.99258885 0.618459727 1.95729165
      vertex 1.99029385 0.617654393 1.95937118
      vertex 1.99090028 0.618540268 1.96000868
    endloop
  endfacet
  facet normal 0.601122387 -0.695173977 0.394189064
    outer loop
      vertex 2.08275721 0.51418363 2.01642001
      vertex 2.08106864 0.514264171 2.01913704
      vertex 2.08046221 0.513378296 2.01849954
    endloop
  endfacet
  facet normal -0.772186057 -0.378194767 0.510585361
    outer loop
      vertex 1.99029385 0.617654393 1.95937118
      vertex 1.99003681 0.616891122 1.95841708
      vertex 2.08020517 0.512615026 2.01754544
    endloop
  endfacet
  facet normal -0.772186057 -0.378194767 0.510585361
    outer loop
      vertex 1.99029385 0.617654393 1.95937118
      vertex 2.08020517 0.512615026 2.01754544
      vertex 2.08046221 0.513378296 2.01849954
    endloop
  endfacet
  facet normal -0.601122387 0.695173977 -0.394189064
    outer loop
      vertex 1.99258885 0.618459727 1.95729165
      vertex 1.99003681 0.616891122 1.95841708
      vertex 1.99029385 0.617654393 1.95937118
    endloop
  endfacet
  facet normal 0.601122387 -0.695173977 0.394189064
    outer loop
      vertex 2.08275721 0.51418363 2.01642001
      vertex 2.08046221 0.513378296 2.01849954
      vertex 2.08020517 0.512615026 2.01754544
    endloop
  endfacet
  facet normal -0.792188177 -0.583345222 0.179293736
    outer loop
      vertex 1.99003681 0.616891122 1.95841708
      vertex 1.9901683 0.616366658 1.95729165
      vertex 2.08033666 0.512090561 2.01642001
    endloop
  endfacet
  facet normal -0.792188177 -0.583345222 0.179293736
    outer loop
      vertex 1.99003681 0.616891122 1.95841708
      vertex 2.08033666 0.512090561 2.01642001
      vertex 2.08020517 0.512615026 2.01754544
    endloop
  endfacet
  facet normal -0.601122387 0.695173977 -0.394189064
    outer loop
      vertex 1.99258885 0.618459727 1.95729165
      vertex 1.9901683 0.616366658 1.95729165
      vertex 1.99003681 0.616891122 1.95841708
    endloop
  endfacet
  facet normal 0.601122387 -0.695173977 0.394189064
    outer loop
      vertex 2.08275721 0.51418363 2.01642001
      vertex 2.08020517 0.512615026 2.01754544
      vertex 2.08033666 0.512090561 2.01642001
    endloop
  endfacet
  facet normal -0.691586828 -0.699686655 -0.179293736
    outer loop
      vertex 1.98259628 0.61916115 1.98618551
      vertex 1.98309627 0.618955337 1.98506008
      vertex 2.07326463 0.51467924 2.04418844
    endloop
  endfacet
  facet normal -0.691586828 -0.699686655 -0.179293736
    outer loop
      vertex 1.98259628 0.61916115 1.98618551
      vertex 2.07326463 0.51467924 2.04418844
      vertex 2.07276464 0.514885054 2.04531387
    endloop
  endfacet
  facet normal -0.601122387 0.695173977 -0.394189064
    outer loop
      vertex 1.98501683 0.621254219 1.98618551
      vertex 1.98309627 0.618955337 1.98506008
      vertex 1.98259628 0.61916115 1.98618551
    endloop
  endfacet
  facet normal 0.601122387 -0.695173977 0.394189064
    outer loop
      vertex 2.07518519 0.516978123 2.04531387
      vertex 2.07276464 0.514885054 2.04531387
      vertex 2.07326463 0.51467924 2.04418844
    endloop
  endfacet
  facet normal -0.485697654 -0.709507137 -0.510585361
    outer loop
      vertex 1.98309627 0.618955337 1.98506008
      vertex 1.98388865 0.619099507 1.98410599
      vertex 2.07405701 0.51482341 2.04323435
    endloop
  endfacet
  facet normal -0.485697654 -0.709507137 -0.510585361
    outer loop
      vertex 1.98309627 0.618955337 1.98506008
      vertex 2.07405701 0.51482341 2.04323435
      vertex 2.07326463 0.51467924 2.04418844
    endloop
  endfacet
  facet normal -0.601122387 0.695173977 -0.394189064
    outer loop
      vertex 1.98501683 0.621254219 1.98618551
      vertex 1.98388865 0.619099507 1.98410599
      vertex 1.98309627 0.618955337 1.98506008
    endloop
  endfacet
  facet normal 0.601122387 -0.695173977 0.394189064
    outer loop
      vertex 2.07518519 0.516978123 2.04531387
      vertex 2.07326463 0.51467924 2.04418844
      vertex 2.07405701 0.51482341 2.04323435
    endloop
  endfacet
  facet normal -0.205865415 -0.61131159 -0.764144994
    outer loop
      vertex 1.98388865 0.619099507 1.98410599
      vertex 1.98485279 0.619571713 1.98346848
      vertex 2.07502115 0.515295616 2.04259684
    endloop
  endfacet
  facet normal -0.205865415 -0.61131159 -0.764144994
    outer loop
      vertex 1.98388865 0.619099507 1.98410599
      vertex 2.07502115 0.515295616 2.04259684
      vertex 2.07405701 0.51482341 2.04323435
    endloop
  endfacet
  facet normal -0.601122387 0.695173977 -0.394189064
    outer loop
      vertex 1.98501683 0.621254219 1.98618551
      vertex 1.98485279 0.619571713 1.98346848
      vertex 1.98388865 0.619099507 1.98410599
    endloop
  endfacet
  facet normal 0.601122387 -0.695173977 0.394189064
    outer loop
      vertex 2.07518519 0.516978123 2.04531387
      vertex 2.07405701 0.51482341 2.04323435
      vertex 2.07502115 0.515295616 2.04259684
    endloop
  endfacet
  facet normal 0.105307968 -0.420049394 -0.901370478
    outer loop
      vertex 1.98485279 0.619571713 1.98346848
      vertex 1.9858419 0.620300065 1.98324462
      vertex 2.07601025 0.516023968 2.04237298
    endloop
  endfacet
  facet normal 0.105307968 -0.420049394 -0.901370478
    outer loop
      vertex 1.98485279 0.619571713 1.98346848
      vertex 2.07601025 0.516023968 2.04237298
      vertex 2.07502115 0.515295616 2.04259684
    endloop
  endfacet
  facet normal -0.601122387 0.695173977 -0.394189064
    outer loop
      vertex 1.98501683 0.621254219 1.98618551
      vertex 1.9858419 0.620300065 1.98324462
      vertex 1.98485279 0.619571713 1.98346848
    endloop
  endfacet
  facet normal 0.601122387 -0.695173977 0.394189064
    outer loop
      vertex 2.07518519 0.516978123 2.04531387
      vertex 2.07502115 0.515295616 2.04259684
      vertex 2.07601025 0.516023968 2.04237298
    endloop
  endfacet
  facet normal 0.400449167 -0.164838486 -0.901370478
    outer loop
      vertex 1.9858419 0.620300065 1.98324462
      vertex 1.9867054 0.621173678 1.98346848
      vertex 2.07687375 0.516897582 2.04259684
    endloop
  endfacet
  facet normal 0.400449167 -0.164838486 -0.901370478
    outer loop
      vertex 1.9858419 0.620300065 1.98324462
      vertex 2.07687375 0.516897582 2.04259684
      vertex 2.07601025 0.516023968 2.04237298
    endloop
  endfacet
  facet normal -0.601122387 0.695173977 -0.394189064
    outer loop
      vertex 1.98501683 0.621254219 1.98618551
      vertex 1.9867054 0.621173678 1.98346848
      vertex 1.9858419 0.620300065 1.98324462
    endloop
  endfacet
  facet normal 0.601122387 -0.695173977 0.394189064
    outer loop
      vertex 2.07518519 0.516978123 2.04531387
      vertex 2.07601025 0.516023968 2.04237298
      vertex 2.07687375 0.516897582 2.04259684
    endloop
  endfacet
  facet normal 0.63462561 0.115467587 -0.764144994
    outer loop
      vertex 1.9867054 0.621173678 1.98346848
      vertex 1.98731183 0.622059553 1.98410599
      vertex 2.07748019 0.517783457 2.04323435
    endloop
  endfacet
  facet normal 0.63462561 0.115467587 -0.764144994
    outer loop
      vertex 1.9867054 0.621173678 1.98346848
      vertex 2.07748019 0.517783457 2.04323435
      vertex 2.07687375 0.516897582 2.04259684
    endloop
  endfacet
  facet normal -0.601122387 0.695173977 -0.394189064
    outer loop
      vertex 1.98501683 0.621254219 1.98618551
      vertex 1.98731183 0.622059553 1.98410599
      vertex 1.9867054 0.621173678 1.98346848
    endloop
  endfacet
  facet normal 0.601122387 -0.695173977 0.394189064
    outer loop
      vertex 2.07518519 0.516978123 2.04531387
      vertex 2.07687375 0.516897582 2.04259684
      vertex 2.07748019 0.517783457 2.04323435
    endloop
  endfacet
  facet normal 0.772186057 0.378194767 -0.510585361
    outer loop
      vertex 1.98731183 0.622059553 1.98410599
      vertex 1.98756887 0.622822823 1.98506008
      vertex 2.07773723 0.518546727 2.04418844
    endloop
  endfacet
  facet normal 0.772186057 0.378194767 -0.510585361
    outer loop
      vertex 1.98731183 0.622059553 1.98410599
      vertex 2.07773723 0.518546727 2.04418844
      vertex 2.07748019 0.517783457 2.04323435
    endloop
  endfacet
  facet normal -0.601122387 0.695173977 -0.394189064
    outer loop
      vertex 1.98501683 0.621254219 1.98618551
      vertex 1.98756887 0.622822823 1.98506008
      vertex 1.98731183 0.622059553 1.98410599
    endloop
  endfacet
  facet normal 0.601122387 -0.695173977 0.394189064
    outer loop
      vertex 2.07518519 0.516978123 2.04531387
      vertex 2.07748019 0.517783457 2.04323435
      vertex 2.07773723 0.518546727 2.04418844
    endloop
  endfacet
  facet normal 0.792188177 0.583345222 -0.179293736
    outer loop
      vertex 1.98756887 0.622822823 1.98506008
      vertex 1.98743738 0.623347288 1.98618551
      vertex 2.07760574 0.519071191 2.04531387
    endloop
  endfacet
  facet normal 0.792188177 0.583345222 -0.179293736
    outer loop
      vertex 1.98756887 0.622822823 1.98506008
      vertex 2.07760574 0.519071191 2.04531387
      vertex 2.07773723 0.518546727 2.04418844
    endloop
  endfacet
  facet normal -0.601122387 0.695173977 -0.394189064
    outer loop
      vertex 1.98501683 0.621254219 1.98618551
      vertex 1.98743738 0.623347288 1.98618551
      vertex 1.98756887 0.622822823 1.98506008
    endloop
  endfacet
  facet normal 0.601122387 -0.695173977 0.394189064
    outer loop
      vertex 2.07518519 0.516978123 2.04531387
      vertex 2.07773723 0.518546727 2.04418844
      vertex 2.07760574 0.519071191 2.04531387
    endloop
  endfacet
  facet normal 0.691586828 0.699686655 0.179293736
    outer loop
      vertex 1.98743738 0.623347288 1.98618551
      vertex 1.98693739 0.623553102 1.98731094
      vertex 2.07710575 0.519277005 2.0464393
    endloop
  endfacet
  facet normal 0.691586828 0.699686655 0.179293736
    outer loop
      vertex 1.98743738 0.623347288 1.98618551
      vertex 2.07710575 0.519277005 2.0464393
      vertex 2.07760574 0.519071191 2.04531387
    endloop
  endfacet
  facet normal -0.601122387 0.695173977 -0.394189064
    outer loop
      vertex 1.98501683 0.621254219 1.98618551
      vertex 1.98693739 0.623553102 1.98731094
      vertex 1.98743738 0.623347288 1.98618551
    endloop
  endfacet
  facet normal 0.601122387 -0.695173977 0.394189064
    outer loop
      vertex 2.07518519 0.516978123 2.04531387
      vertex 2.07760574 0.519071191 2.04531387
      vertex 2.07710575 0.519277005 2.0464393
    endloop
  endfacet
  facet normal 0.485697654 0.709507137 0.510585361
    outer loop
      vertex 1.98693739 0.623553102 1.98731094
      vertex 1.98614501 0.623408931 1.98826504
      vertex 2.07631337 0.519132835 2.0473934
    endloop
  endfacet
  facet normal 0.485697654 0.709507137 0.510585361
    outer loop
      vertex 1.98693739 0.623553102 1.98731094
      vertex 2.07631337 0.519132835 2.0473934
      vertex 2.07710575 0.519277005 2.0464393
    endloop
  endfacet
  facet normal -0.601122387 0.695173977 -0.394189064
    outer loop
      vertex 1.98501683 0.621254219 1.98618551
      vertex 1.98614501 0.623408931 1.98826504
      vertex 1.98693739 0.623553102 1.98731094
    endloop
  endfacet
  facet normal 0.601122387 -0.695173977 0.394189064
    outer loop
      vertex 2.07518519 0.516978123 2.04531387
      vertex 2.07710575 0.519277005 2.0464393
      vertex 2.07631337 0.519132835 2.0473934
    endloop
  endfacet
  facet normal 0.205865415 0.61131159 0.764144994
    outer loop
      vertex 1.98614501 0.623408931 1.98826504
      vertex 1.98518088 0.622936726 1.98890254
      vertex 2.07534923 0.518660629 2.0480309
    endloop
  endfacet
  facet normal 0.205865415 0.61131159 0.764144994
    outer loop
      vertex 1.98614501 0.623408931 1.98826504
      vertex 2.07534923 0.518660629 2.0480309
      vertex 2.07631337 0.519132835 2.0473934
    endloop
  endfacet
  facet normal -0.601122387 0.695173977 -0.394189064
    outer loop
      vertex 1.98501683 0.621254219 1.98618551
      vertex 1.98518088 0.622936726 1.98890254
      vertex 1.98614501 0.623408931 1.98826504
    endloop
  endfacet
  facet normal 0.601122387 -0.695173977 0.394189064
    outer loop
      vertex 2.07518519 0.516978123 2.04531387
      vertex 2.07631337 0.519132835 2.0473934
      vertex 2.07534923 0.518660629 2.0480309
    endloop
  endfacet
  facet normal -0.105307968 0.420049394 0.901370478
    outer loop
      vertex 1.98518088 0.622936726 1.98890254
      vertex 1.98419177 0.622208374 1.98912641
      vertex 2.07436012 0.517932277 2.04825477
    endloop
  endfacet
  facet normal -0.105307968 0.420049394 0.901370478
    outer loop
      vertex 1.98518088 0.622936726 1.98890254
      vertex 2.07436012 0.517932277 2.04825477
      vertex 2.07534923 0.518660629 2.0480309
    endloop
  endfacet
  facet normal -0.601122387 0.695173977 -0.394189064
    outer loop
      vertex 1.98501683 0.621254219 1.98618551
      vertex 1.98419177 0.622208374 1.98912641
      vertex 1.98518088 0.622936726 1.98890254
    endloop
  endfacet
  facet normal 0.601122387 -0.695173977 0.394189064
    outer loop
      vertex 2.07518519 0.516978123 2.04531387
      vertex 2.07534923 0.518660629 2.0480309
      vertex 2.07436012 0.517932277 2.04825477
    endloop
  endfacet
  facet normal -0.400449167 0.164838486 0.901370478
    outer loop
      vertex 1.98419177 0.622208374 1.98912641
      vertex 1.98332827 0.62133476 1.98890254
      vertex 2.07349662 0.517058664 2.0480309
    endloop
  endfacet
  facet normal -0.400449167 0.164838486 0.901370478
    outer loop
      vertex 1.98419177 0.622208374 1.98912641
      vertex 2.07349662 0.517058664 2.0480309
      vertex 2.07436012 0.517932277 2.04825477
    endloop
  endfacet
  facet normal -0.601122387 0.695173977 -0.394189064
    outer loop
      vertex 1.98501683 0.621254219 1.98618551
      vertex 1.98332827 0.62133476 1.98890254
      vertex 1.98419177 0.622208374 1.98912641
    endloop
  endfacet
  facet normal 0.601122387 -0.695173977 0.394189064
    outer loop
      vertex 2.07518519 0.516978123 2.04531387
      vertex 2.07436012 0.517932277 2.04825477
      vertex 2.07349662 0.517058664 2.0480309
    endloop
  endfacet
  facet normal -0.63462561 -0.115467587 0.764144994
    outer loop
      vertex 1.98332827 0.62133476 1.98890254
      vertex 1.98272184 0.620448885 1.98826504
      vertex 2.07289019 0.516172789 2.0473934
    endloop
  endfacet
  facet normal -0.63462561 -0.115467587 0.764144994
    outer loop
      vertex 1.98332827 0.62133476 1.98890254
      vertex 2.07289019 0.516172789 2.0473934
      vertex 2.07349662 0.517058664 2.0480309
    endloop
  endfacet
  facet normal -0.601122387 0.695173977 -0.394189064
    outer loop
      vertex 1.98501683 0.621254219 1.98618551
      vertex 1.98272184 0.620448885 1.98826504
      vertex 1.98332827 0.62133476 1.98890254
    endloop
  endfacet
  facet normal 0.601122387 -0.695173977 0.394189064
    outer loop
      vertex 2.07518519 0.516978123 2.04531387
      vertex 2.07349662 0.517058664 2.0480309
      vertex 2.07289019 0.516172789 2.0473934
    endloop
  endfacet
  facet normal -0.772186057 -0.378194767 0.510585361
    outer loop
      vertex 1.98272184 0.620448885 1.98826504
      vertex 1.9824648 0.619685615 1.98731094
      vertex 2.07263315 0.515409518 2.0464393
    endloop
  endfacet
  facet normal -0.772186057 -0.378194767 0.510585361
    outer loop
      vertex 1.98272184 0.620448885 1.98826504
      vertex 2.07263315 0.515409518 2.0464393
      vertex 2.07289019 0.516172789 2.0473934
    endloop
  endfacet
  facet normal -0.601122387 0.695173977 -0.394189064
    outer loop
      vertex 1.98501683 0.621254219 1.98618551
      vertex 1.9824648 0.619685615 1.98731094
      vertex 1.98272184 0.620448885 1.98826504
    endloop
  endfacet
  facet normal 0.601122387 -0.695173977 0.394189064
    outer loop
      vertex 2.07518519 0.516978123 2.04531387
      vertex 2.07289019 0.516172789 2.0473934
      vertex 2.07263315 0.515409518 2.0464393
    endloop
  endfacet
  facet normal -0.792188177 -0.583345222 0.179293736
    outer loop
      vertex 1.9824648 0.619685615 1.98731094
      vertex 1.98259628 0.61916115 1.98618551
      vertex 2.07276464 0.514885054 2.04531387
    endloop
  endfacet
  facet normal -0.792188177 -0.583345222 0.179293736
    outer loop
      vertex 1.9824648 0.619685615 1.98731094
      vertex 2.07276464 0.514885054 2.04531387
      vertex 2.07263315 0.515409518 2.0464393
    endloop
  endfacet
  facet normal -0.601122387 0.695173977 -0.394189064
    outer loop
      vertex 1.98501683 0.621254219 1.98618551
      vertex 1.98259628 0.61916115 1.98618551
      vertex 1.9824648 0.619685615 1.98731094
    endloop
  endfacet
  facet normal 0.601122387 -0.695173977 0.394189064
    outer loop
      vertex 2.07518519 0.516978123 2.04531387
      vertex 2.07263315 0.515409518 2.0464393
      vertex 2.07276464 0.514885054 2.04531387
    endloop
  endfacet
  facet normal -0.540537854 -0.837700062 -0.0779578997
    outer loop
      vertex 2.04895793 0.757284468 2.0669365
      vertex 2.04801401 0.757939081 2.06644716
      vertex 2.09231614 0.739589568 1.95644436
    endloop
  endfacet
  facet normal -0.540537854 -0.837700062 -0.0779578997
    outer loop
      vertex 2.04895793 0.757284468 2.0669365
      vertex 2.09231614 0.739589568 1.95644436
      vertex 2.09326005 0.738934955 1.9569337
    endloop
  endfacet
  facet normal -0.369184377 0.152912607 0.916690041
    outer loop
      vertex 2.05018245 0.760240907 2.0669365
      vertex 2.04801401 0.757939081 2.06644716
      vertex 2.04895793 0.757284468 2.0669365
    endloop
  endfacet
  facet normal 0.369184377 -0.152912607 -0.916690041
    outer loop
      vertex 2.09448458 0.741891394 1.9569337
      vertex 2.09326005 0.738934955 1.9569337
      vertex 2.09231614 0.739589568 1.95644436
    endloop
  endfacet
  facet normal -0.788696921 -0.573298182 -0.222005316
    outer loop
      vertex 2.04801401 0.757939081 2.06644716
      vertex 2.04740023 0.758944125 2.06603232
      vertex 2.09170235 0.740594613 1.95602951
    endloop
  endfacet
  facet normal -0.788696921 -0.573298182 -0.222005316
    outer loop
      vertex 2.04801401 0.757939081 2.06644716
      vertex 2.09170235 0.740594613 1.95602951
      vertex 2.09231614 0.739589568 1.95644436
    endloop
  endfacet
  facet normal -0.369184377 0.152912607 0.916690041
    outer loop
      vertex 2.05018245 0.760240907 2.0669365
      vertex 2.04740023 0.758944125 2.06603232
      vertex 2.04801401 0.757939081 2.06644716
    endloop
  endfacet
  facet normal 0.369184377 -0.152912607 -0.916690041
    outer loop
      vertex 2.09448458 0.741891394 1.9569337
      vertex 2.09231614 0.739589568 1.95644436
      vertex 2.09170235 0.740594613 1.95602951
    endloop
  endfacet
  facet normal -0.916784032 -0.221616851 -0.332254435
    outer loop
      vertex 2.04740023 0.758944125 2.06603232
      vertex 2.04721001 0.760146593 2.06575512
      vertex 2.09151213 0.741797081 1.95575232
    endloop
  endfacet
  facet normal -0.916784032 -0.221616851 -0.332254435
    outer loop
      vertex 2.04740023 0.758944125 2.06603232
      vertex 2.09151213 0.741797081 1.95575232
      vertex 2.09170235 0.740594613 1.95602951
    endloop
  endfacet
  facet normal -0.369184377 0.152912607 0.916690041
    outer loop
      vertex 2.05018245 0.760240907 2.0669365
      vertex 2.04721001 0.760146593 2.06575512
      vertex 2.04740023 0.758944125 2.06603232
    endloop
  endfacet
  facet normal 0.369184377 -0.152912607 -0.916690041
    outer loop
      vertex 2.09448458 0.741891394 1.9569337
      vertex 2.09170235 0.740594613 1.95602951
      vertex 2.09151213 0.741797081 1.95575232
    endloop
  endfacet
  facet normal -0.905299085 0.163803637 -0.391920828
    outer loop
      vertex 2.04721001 0.760146593 2.06575512
      vertex 2.04747232 0.76136342 2.06565779
      vertex 2.09177444 0.743013907 1.95565498
    endloop
  endfacet
  facet normal -0.905299085 0.163803637 -0.391920828
    outer loop
      vertex 2.04721001 0.760146593 2.06575512
      vertex 2.09177444 0.743013907 1.95565498
      vertex 2.09151213 0.741797081 1.95575232
    endloop
  endfacet
  facet normal -0.369184377 0.152912607 0.916690041
    outer loop
      vertex 2.05018245 0.760240907 2.0669365
      vertex 2.04747232 0.76136342 2.06565779
      vertex 2.04721001 0.760146593 2.06575512
    endloop
  endfacet
  facet normal 0.369184377 -0.152912607 -0.916690041
    outer loop
      vertex 2.09448458 0.741891394 1.9569337
      vertex 2.09151213 0.741797081 1.95575232
      vertex 2.09177444 0.743013907 1.95565498
    endloop
  endfacet
  facet normal -0.755990559 0.524286506 -0.391920828
    outer loop
      vertex 2.04747232 0.76136342 2.06565779
      vertex 2.04814722 0.762409354 2.06575512
      vertex 2.09244935 0.744059841 1.95575232
    endloop
  endfacet
  facet normal -0.755990559 0.524286506 -0.391920828
    outer loop
      vertex 2.04747232 0.76136342 2.06565779
      vertex 2.09244935 0.744059841 1.95575232
      vertex 2.09177444 0.743013907 1.95565498
    endloop
  endfacet
  facet normal -0.369184377 0.152912607 0.916690041
    outer loop
      vertex 2.05018245 0.760240907 2.0669365
      vertex 2.04814722 0.762409354 2.06575512
      vertex 2.04747232 0.76136342 2.06565779
    endloop
  endfacet
  facet normal 0.369184377 -0.152912607 -0.916690041
    outer loop
      vertex 2.09448458 0.741891394 1.9569337
      vertex 2.09177444 0.743013907 1.95565498
      vertex 2.09244935 0.744059841 1.95575232
    endloop
  endfacet
  facet normal -0.491589323 0.804951507 -0.332254435
    outer loop
      vertex 2.04814722 0.762409354 2.06575512
      vertex 2.04913197 0.763125161 2.06603232
      vertex 2.09343409 0.744775648 1.95602951
    endloop
  endfacet
  facet normal -0.491589323 0.804951507 -0.332254435
    outer loop
      vertex 2.04814722 0.762409354 2.06575512
      vertex 2.09343409 0.744775648 1.95602951
      vertex 2.09244935 0.744059841 1.95575232
    endloop
  endfacet
  facet normal -0.369184377 0.152912607 0.916690041
    outer loop
      vertex 2.05018245 0.760240907 2.0669365
      vertex 2.04913197 0.763125161 2.06603232
      vertex 2.04814722 0.762409354 2.06575512
    endloop
  endfacet
  facet normal 0.369184377 -0.152912607 -0.916690041
    outer loop
      vertex 2.09448458 0.741891394 1.9569337
      vertex 2.09244935 0.744059841 1.95575232
      vertex 2.09343409 0.744775648 1.95602951
    endloop
  endfacet
  facet normal -0.152348069 0.963069938 -0.222005316
    outer loop
      vertex 2.04913197 0.763125161 2.06603232
      vertex 2.05027665 0.763401867 2.06644716
      vertex 2.09457877 0.745052354 1.95644436
    endloop
  endfacet
  facet normal -0.152348069 0.963069938 -0.222005316
    outer loop
      vertex 2.04913197 0.763125161 2.06603232
      vertex 2.09457877 0.745052354 1.95644436
      vertex 2.09343409 0.744775648 1.95602951
    endloop
  endfacet
  facet normal -0.369184377 0.152912607 0.916690041
    outer loop
      vertex 2.05018245 0.760240907 2.0669365
      vertex 2.05027665 0.763401867 2.06644716
      vertex 2.04913197 0.763125161 2.06603232
    endloop
  endfacet
  facet normal 0.369184377 -0.152912607 -0.916690041
    outer loop
      vertex 2.09448458 0.741891394 1.9569337
      vertex 2.09343409 0.744775648 1.95602951
      vertex 2.09457877 0.745052354 1.95644436
    endloop
  endfacet
  facet normal 0.210086798 0.974569702 -0.0779578997
    outer loop
      vertex 2.05027665 0.763401867 2.06644716
      vertex 2.05140698 0.763197346 2.0669365
      vertex 2.09570911 0.744847833 1.9569337
    endloop
  endfacet
  facet normal 0.210086798 0.974569702 -0.0779578997
    outer loop
      vertex 2.05027665 0.763401867 2.06644716
      vertex 2.09570911 0.744847833 1.9569337
      vertex 2.09457877 0.745052354 1.95644436
    endloop
  endfacet
  facet normal -0.369184377 0.152912607 0.916690041
    outer loop
      vertex 2.05018245 0.760240907 2.0669365
      vertex 2.05140698 0.763197346 2.0669365
      vertex 2.05027665 0.763401867 2.06644716
    endloop
  endfacet
  facet normal 0.369184377 -0.152912607 -0.916690041
    outer loop
      vertex 2.09448458 0.741891394 1.9569337
      vertex 2.09457877 0.745052354 1.95644436
      vertex 2.09570911 0.744847833 1.9569337
    endloop
  endfacet
  facet normal 0.540537854 0.837700062 0.0779578997
    outer loop
      vertex 2.05140698 0.763197346 2.0669365
      vertex 2.0523509 0.762542733 2.06742585
      vertex 2.09665302 0.74419322 1.95742304
    endloop
  endfacet
  facet normal 0.540537854 0.837700062 0.0779578997
    outer loop
      vertex 2.05140698 0.763197346 2.0669365
      vertex 2.09665302 0.74419322 1.95742304
      vertex 2.09570911 0.744847833 1.9569337
    endloop
  endfacet
  facet normal -0.369184377 0.152912607 0.916690041
    outer loop
      vertex 2.05018245 0.760240907 2.0669365
      vertex 2.0523509 0.762542733 2.06742585
      vertex 2.05140698 0.763197346 2.0669365
    endloop
  endfacet
  facet normal 0.369184377 -0.152912607 -0.916690041
    outer loop
      vertex 2.09448458 0.741891394 1.9569337
      vertex 2.09570911 0.744847833 1.9569337
      vertex 2.09665302 0.74419322 1.95742304
    endloop
  endfacet
  facet normal 0.788696921 0.573298182 0.222005316
    outer loop
      vertex 2.0523509 0.762542733 2.06742585
      vertex 2.05296468 0.761537688 2.06784069
      vertex 2.09726681 0.743188175 1.95783789
    endloop
  endfacet
  facet normal 0.788696921 0.573298182 0.222005316
    outer loop
      vertex 2.0523509 0.762542733 2.06742585
      vertex 2.09726681 0.743188175 1.95783789
      vertex 2.09665302 0.74419322 1.95742304
    endloop
  endfacet
  facet normal -0.369184377 0.152912607 0.916690041
    outer loop
      vertex 2.05018245 0.760240907 2.0669365
      vertex 2.05296468 0.761537688 2.06784069
      vertex 2.0523509 0.762542733 2.06742585
    endloop
  endfacet
  facet normal 0.369184377 -0.152912607 -0.916690041
    outer loop
      vertex 2.09448458 0.741891394 1.9569337
      vertex 2.09665302 0.74419322 1.95742304
      vertex 2.09726681 0.743188175 1.95783789
    endloop
  endfacet
  facet normal 0.916784032 0.221616851 0.332254435
    outer loop
      vertex 2.05296468 0.761537688 2.06784069
      vertex 2.0531549 0.76033522 2.06811788
      vertex 2.09745703 0.741985707 1.95811508
    endloop
  endfacet
  facet normal 0.916784032 0.221616851 0.332254435
    outer loop
      vertex 2.05296468 0.761537688 2.06784069
      vertex 2.09745703 0.741985707 1.95811508
      vertex 2.09726681 0.743188175 1.95783789
    endloop
  endfacet
  facet normal -0.369184377 0.152912607 0.916690041
    outer loop
      vertex 2.05018245 0.760240907 2.0669365
      vertex 2.0531549 0.76033522 2.06811788
      vertex 2.05296468 0.761537688 2.06784069
    endloop
  endfacet
  facet normal 0.369184377 -0.152912607 -0.916690041
    outer loop
      vertex 2.09448458 0.741891394 1.9569337
      vertex 2.09726681 0.743188175 1.95783789
      vertex 2.09745703 0.741985707 1.95811508
    endloop
  endfacet
  facet normal 0.905299085 -0.163803637 0.391920828
    outer loop
      vertex 2.0531549 0.76033522 2.06811788
      vertex 2.05289259 0.759118394 2.06821522
      vertex 2.09719472 0.740768881 1.95821242
    endloop
  endfacet
  facet normal 0.905299085 -0.163803637 0.391920828
    outer loop
      vertex 2.0531549 0.76033522 2.06811788
      vertex 2.09719472 0.740768881 1.95821242
      vertex 2.09745703 0.741985707 1.95811508
    endloop
  endfacet
  facet normal -0.369184377 0.152912607 0.916690041
    outer loop
      vertex 2.05018245 0.760240907 2.0669365
      vertex 2.05289259 0.759118394 2.06821522
      vertex 2.0531549 0.76033522 2.06811788
    endloop
  endfacet
  facet normal 0.369184377 -0.152912607 -0.916690041
    outer loop
      vertex 2.09448458 0.741891394 1.9569337
      vertex 2.09745703 0.741985707 1.95811508
      vertex 2.09719472 0.740768881 1.95821242
    endloop
  endfacet
  facet normal 0.755990559 -0.524286506 0.391920828
    outer loop
      vertex 2.05289259 0.759118394 2.06821522
      vertex 2.05221769 0.75807246 2.06811788
      vertex 2.09651981 0.739722947 1.95811508
    endloop
  endfacet
  facet normal 0.755990559 -0.524286506 0.391920828
    outer loop
      vertex 2.05289259 0.759118394 2.06821522
      vertex 2.09651981 0.739722947 1.95811508
      vertex 2.09719472 0.740768881 1.95821242
    endloop
  endfacet
  facet normal -0.369184377 0.152912607 0.916690041
    outer loop
      vertex 2.05018245 0.760240907 2.0669365
      vertex 2.05221769 0.75807246 2.06811788
      vertex 2.05289259 0.759118394 2.06821522
    endloop
  endfacet
  facet normal 0.369184377 -0.152912607 -0.916690041
    outer loop
      vertex 2.09448458 0.741891394 1.9569337
      vertex 2.09719472 0.740768881 1.95821242
      vertex 2.09651981 0.739722947 1.95811508
    endloop
  endfacet
  facet normal 0.491589323 -0.804951507 0.332254435
    outer loop
      vertex 2.05221769 0.75807246 2.06811788
      vertex 2.05123294 0.757356652 2.06784069
      vertex 2.09553506 0.739007139 1.95783789
    endloop
  endfacet
  facet normal 0.491589323 -0.804951507 0.332254435
    outer loop
      vertex 2.05221769 0.75807246 2.06811788
      vertex 2.09553506 0.739007139 1.95783789
      vertex 2.09651981 0.739722947 1.95811508
    endloop
  endfacet
  facet normal -0.369184377 0.152912607 0.916690041
    outer loop
      vertex 2.05018245 0.760240907 2.0669365
      vertex 2.05123294 0.757356652 2.06784069
      vertex 2.05221769 0.75807246 2.06811788
    endloop
  endfacet
  facet normal 0.369184377 -0.152912607 -0.916690041
    outer loop
      vertex 2.09448458 0.741891394 1.9569337
      vertex 2.09651981 0.739722947 1.95811508
      vertex 2.09553506 0.739007139 1.95783789
    endloop
  endfacet
  facet normal 0.152348069 -0.963069938 0.222005316
    outer loop
      vertex 2.05123294 0.757356652 2.06784069
      vertex 2.05008826 0.757079946 2.06742585
      vertex 2.09439039 0.738730434 1.95742304
    endloop
  endfacet
  facet normal 0.152348069 -0.963069938 0.222005316
    outer loop
      vertex 2.05123294 0.757356652 2.06784069
      vertex 2.09439039 0.738730434 1.95742304
      vertex 2.09553506 0.739007139 1.95783789
    endloop
  endfacet
  facet normal -0.369184377 0.152912607 0.916690041
    outer loop
      vertex 2.05018245 0.760240907 2.0669365
      vertex 2.05008826 0.757079946 2.06742585
      vertex 2.05123294 0.757356652 2.06784069
    endloop
  endfacet
  facet normal 0.369184377 -0.152912607 -0.916690041
    outer loop
      vertex 2.09448458 0.741891394 1.9569337
      vertex 2.09553506 0.739007139 1.95783789
      vertex 2.09439039 0.738730434 1.95742304
    endloop
  endfacet
  facet normal -0.210086798 -0.974569702 0.0779578997
    outer loop
      vertex 2.05008826 0.757079946 2.06742585
      vertex 2.04895793 0.757284468 2.0669365
      vertex 2.09326005 0.738934955 1.9569337
    endloop
  endfacet
  facet normal -0.210086798 -0.974569702 0.0779578997
    outer loop
      vertex 2.05008826 0.757079946 2.06742585
      vertex 2.09326005 0.738934955 1.9569337
      vertex 2.09439039 0.738730434 1.95742304
    endloop
  endfacet
  facet normal -0.369184377 0.152912607 0.916690041
    outer loop
      vertex 2.05018245 0.760240907 2.0669365
      vertex 2.04895793 0.757284468 2.0669365
      vertex 2.05008826 0.757079946 2.06742585
    endloop
  endfacet
  facet normal 0.369184377 -0.152912607 -0.916690041
    outer loop
      vertex 2.09448458 0.741891394 1.9569337
      vertex 2.09439039 0.738730434 1.95742304
      vertex 2.09326005 0.738934955 1.9569337
    endloop
  endfacet
  facet normal -0.540537854 -0.837700062 -0.0779578997
    outer loop
      vertex 2.06201854 0.731994609 2.07641508
      vertex 2.06107463 0.732649222 2.07592573
      vertex 2.10537675 0.714299709 1.96592293
    endloop
  endfacet
  facet normal -0.540537854 -0.837700062 -0.0779578997
    outer loop
      vertex 2.06201854 0.731994609 2.07641508
      vertex 2.10537675 0.714299709 1.96592293
      vertex 2.10632067 0.713645096 1.96641227
    endloop
  endfacet
  facet normal -0.369184377 0.152912607 0.916690041
    outer loop
      vertex 2.06324307 0.734951048 2.07641508
      vertex 2.06107463 0.732649222 2.07592573
      vertex 2.06201854 0.731994609 2.07641508
    endloop
  endfacet
  facet normal 0.369184377 -0.152912607 -0.916690041
    outer loop
      vertex 2.1075452 0.716601535 1.96641227
      vertex 2.10632067 0.713645096 1.96641227
      vertex 2.10537675 0.714299709 1.96592293
    endloop
  endfacet
  facet normal -0.788696921 -0.573298182 -0.222005316
    outer loop
      vertex 2.06107463 0.732649222 2.07592573
      vertex 2.06046084 0.733654266 2.07551089
      vertex 2.10476297 0.715304754 1.96550808
    endloop
  endfacet
  facet normal -0.788696921 -0.573298182 -0.222005316
    outer loop
      vertex 2.06107463 0.732649222 2.07592573
      vertex 2.10476297 0.715304754 1.96550808
      vertex 2.10537675 0.714299709 1.96592293
    endloop
  endfacet
  facet normal -0.369184377 0.152912607 0.916690041
    outer loop
      vertex 2.06324307 0.734951048 2.07641508
      vertex 2.06046084 0.733654266 2.07551089
      vertex 2.06107463 0.732649222 2.07592573
    endloop
  endfacet
  facet normal 0.369184377 -0.152912607 -0.916690041
    outer loop
      vertex 2.1075452 0.716601535 1.96641227
      vertex 2.10537675 0.714299709 1.96592293
      vertex 2.10476297 0.715304754 1.96550808
    endloop
  endfacet
  facet normal -0.916784032 -0.221616851 -0.332254435
    outer loop
      vertex 2.06046084 0.733654266 2.07551089
      vertex 2.06027062 0.734856734 2.0752337
      vertex 2.10457275 0.716507222 1.96523089
    endloop
  endfacet
  facet normal -0.916784032 -0.221616851 -0.332254435
    outer loop
      vertex 2.06046084 0.733654266 2.07551089
      vertex 2.10457275 0.716507222 1.96523089
      vertex 2.10476297 0.715304754 1.96550808
    endloop
  endfacet
  facet normal -0.369184377 0.152912607 0.916690041
    outer loop
      vertex 2.06324307 0.734951048 2.07641508
      vertex 2.06027062 0.734856734 2.0752337
      vertex 2.06046084 0.733654266 2.07551089
    endloop
  endfacet
  facet normal 0.369184377 -0.152912607 -0.916690041
    outer loop
      vertex 2.1075452 0.716601535 1.96641227
      vertex 2.10476297 0.715304754 1.96550808
      vertex 2.10457275 0.716507222 1.96523089
    endloop
  endfacet
  facet normal -0.905299085 0.163803637 -0.391920828
    outer loop
      vertex 2.06027062 0.734856734 2.0752337
      vertex 2.06053293 0.736073561 2.07513636
      vertex 2.10483506 0.717724048 1.96513356
    endloop
  endfacet
  facet normal -0.905299085 0.163803637 -0.391920828
    outer loop
      vertex 2.06027062 0.734856734 2.0752337
      vertex 2.10483506 0.717724048 1.96513356
      vertex 2.10457275 0.716507222 1.96523089
    endloop
  endfacet
  facet normal -0.369184377 0.152912607 0.916690041
    outer loop
      vertex 2.06324307 0.734951048 2.07641508
      vertex 2.06053293 0.736073561 2.07513636
      vertex 2.06027062 0.734856734 2.0752337
    endloop
  endfacet
  facet normal 0.369184377 -0.152912607 -0.916690041
    outer loop
      vertex 2.1075452 0.716601535 1.96641227
      vertex 2.10457275 0.716507222 1.96523089
      vertex 2.10483506 0.717724048 1.96513356
    endloop
  endfacet
  facet normal -0.755990559 0.524286506 -0.391920828
    outer loop
      vertex 2.06053293 0.736073561 2.07513636
      vertex 2.06120784 0.737119495 2.0752337
      vertex 2.10550996 0.718769982 1.96523089
    endloop
  endfacet
  facet normal -0.755990559 0.524286506 -0.391920828
    outer loop
      vertex 2.06053293 0.736073561 2.07513636
      vertex 2.10550996 0.718769982 1.96523089
      vertex 2.10483506 0.717724048 1.96513356
    endloop
  endfacet
  facet normal -0.369184377 0.152912607 0.916690041
    outer loop
      vertex 2.06324307 0.734951048 2.07641508
      vertex 2.06120784 0.737119495 2.0752337
      vertex 2.06053293 0.736073561 2.07513636
    endloop
  endfacet
  facet normal 0.369184377 -0.152912607 -0.916690041
    outer loop
      vertex 2.1075452 0.716601535 1.96641227
      vertex 2.10483506 0.717724048 1.96513356
      vertex 2.10550996 0.718769982 1.96523089
    endloop
  endfacet
  facet normal -0.491589323 0.804951507 -0.332254435
    outer loop
      vertex 2.06120784 0.737119495 2.0752337
      vertex 2.06219259 0.737835302 2.07551089
      vertex 2.10649471 0.719485789 1.96550808
    endloop
  endfacet
  facet normal -0.491589323 0.804951507 -0.332254435
    outer loop
      vertex 2.06120784 0.737119495 2.0752337
      vertex 2.10649471 0.719485789 1.96550808
      vertex 2.10550996 0.718769982 1.96523089
    endloop
  endfacet
  facet normal -0.369184377 0.152912607 0.916690041
    outer loop
      vertex 2.06324307 0.734951048 2.07641508
      vertex 2.06219259 0.737835302 2.07551089
      vertex 2.06120784 0.737119495 2.0752337
    endloop
  endfacet
  facet normal 0.369184377 -0.152912607 -0.916690041
    outer loop
      vertex 2.1075452 0.716601535 1.96641227
      vertex 2.10550996 0.718769982 1.96523089
      vertex 2.10649471 0.719485789 1.96550808
    endloop
  endfacet
  facet normal -0.152348069 0.963069938 -0.222005316
    outer loop
      vertex 2.06219259 0.737835302 2.07551089
      vertex 2.06333726 0.738112008 2.07592573
      vertex 2.10763939 0.719762495 1.96592293
    endloop
  endfacet
  facet normal -0.152348069 0.963069938 -0.222005316
    outer loop
      vertex 2.06219259 0.737835302 2.07551089
      vertex 2.10763939 0.719762495 1.96592293
      vertex 2.10649471 0.719485789 1.96550808
    endloop
  endfacet
  facet normal -0.369184377 0.152912607 0.916690041
    outer loop
      vertex 2.06324307 0.734951048 2.07641508
      vertex 2.06333726 0.738112008 2.07592573
      vertex 2.06219259 0.737835302 2.07551089
    endloop
  endfacet
  facet normal 0.369184377 -0.152912607 -0.916690041
    outer loop
      vertex 2.1075452 0.716601535 1.96641227
      vertex 2.10649471 0.719485789 1.96550808
      vertex 2.10763939 0.719762495 1.96592293
    endloop
  endfacet
  facet normal 0.210086798 0.974569702 -0.0779578997
    outer loop
      vertex 2.06333726 0.738112008 2.07592573
      vertex 2.0644676 0.737907487 2.07641508
      vertex 2.10876972 0.719557974 1.96641227
    endloop
  endfacet
  facet normal 0.210086798 0.974569702 -0.0779578997
    outer loop
      vertex 2.06333726 0.738112008 2.07592573
      vertex 2.10876972 0.719557974 1.96641227
      vertex 2.10763939 0.719762495 1.96592293
    endloop
  endfacet
  facet normal -0.369184377 0.152912607 0.916690041
    outer loop
      vertex 2.06324307 0.734951048 2.07641508
      vertex 2.0644676 0.737907487 2.07641508
      vertex 2.06333726 0.738112008 2.07592573
    endloop
  endfacet
  facet normal 0.369184377 -0.152912607 -0.916690041
    outer loop
      vertex 2.1075452 0.716601535 1.96641227
      vertex 2.10763939 0.719762495 1.96592293
      vertex 2.10876972 0.719557974 1.96641227
    endloop
  endfacet
  facet normal 0.540537854 0.837700062 0.0779578997
    outer loop
      vertex 2.0644676 0.737907487 2.07641508
      vertex 2.06541151 0.737252874 2.07690442
      vertex 2.10971364 0.718903361 1.96690162
    endloop
  endfacet
  facet normal 0.540537854 0.837700062 0.0779578997
    outer loop
      vertex 2.0644676 0.737907487 2.07641508
      vertex 2.10971364 0.718903361 1.96690162
      vertex 2.10876972 0.719557974 1.96641227
    endloop
  endfacet
  facet normal -0.369184377 0.152912607 0.916690041
    outer loop
      vertex 2.06324307 0.734951048 2.07641508
      vertex 2.06541151 0.737252874 2.07690442
      vertex 2.0644676 0.737907487 2.07641508
    endloop
  endfacet
  facet normal 0.369184377 -0.152912607 -0.916690041
    outer loop
      vertex 2.1075452 0.716601535 1.96641227
      vertex 2.10876972 0.719557974 1.96641227
      vertex 2.10971364 0.718903361 1.96690162
    endloop
  endfacet
  facet normal 0.788696921 0.573298182 0.222005316
    outer loop
      vertex 2.06541151 0.737252874 2.07690442
      vertex 2.0660253 0.736247829 2.07731927
      vertex 2.11032742 0.717898316 1.96731646
    endloop
  endfacet
  facet normal 0.788696921 0.573298182 0.222005316
    outer loop
      vertex 2.06541151 0.737252874 2.07690442
      vertex 2.11032742 0.717898316 1.96731646
      vertex 2.10971364 0.718903361 1.96690162
    endloop
  endfacet
  facet normal -0.369184377 0.152912607 0.916690041
    outer loop
      vertex 2.06324307 0.734951048 2.07641508
      vertex 2.0660253 0.736247829 2.07731927
      vertex 2.06541151 0.737252874 2.07690442
    endloop
  endfacet
  facet normal 0.369184377 -0.152912607 -0.916690041
    outer loop
      vertex 2.1075452 0.716601535 1.96641227
      vertex 2.10971364 0.718903361 1.96690162
      vertex 2.11032742 0.717898316 1.96731646
    endloop
  endfacet
  facet normal 0.916784032 0.221616851 0.332254435
    outer loop
      vertex 2.0660253 0.736247829 2.07731927
      vertex 2.06621552 0.735045361 2.07759646
      vertex 2.11051764 0.716695848 1.96759365
    endloop
  endfacet
  facet normal 0.916784032 0.221616851 0.332254435
    outer loop
      vertex 2.0660253 0.736247829 2.07731927
      vertex 2.11051764 0.716695848 1.96759365
      vertex 2.11032742 0.717898316 1.96731646
    endloop
  endfacet
  facet normal -0.369184377 0.152912607 0.916690041
    outer loop
      vertex 2.06324307 0.734951048 2.07641508
      vertex 2.06621552 0.735045361 2.07759646
      vertex 2.0660253 0.736247829 2.07731927
    endloop
  endfacet
  facet normal 0.369184377 -0.152912607 -0.916690041
    outer loop
      vertex 2.1075452 0.716601535 1.96641227
      vertex 2.11032742 0.717898316 1.96731646
      vertex 2.11051764 0.716695848 1.96759365
    endloop
  endfacet
  facet normal 0.905299085 -0.163803637 0.391920828
    outer loop
      vertex 2.06621552 0.735045361 2.07759646
      vertex 2.06595321 0.733828535 2.07769379
      vertex 2.11025533 0.715479022 1.96769099
    endloop
  endfacet
  facet normal 0.905299085 -0.163803637 0.391920828
    outer loop
      vertex 2.06621552 0.735045361 2.07759646
      vertex 2.11025533 0.715479022 1.96769099
      vertex 2.11051764 0.716695848 1.96759365
    endloop
  endfacet
  facet normal -0.369184377 0.152912607 0.916690041
    outer loop
      vertex 2.06324307 0.734951048 2.07641508
      vertex 2.06595321 0.733828535 2.07769379
      vertex 2.06621552 0.735045361 2.07759646
    endloop
  endfacet
  facet normal 0.369184377 -0.152912607 -0.916690041
    outer loop
      vertex 2.1075452 0.716601535 1.96641227
      vertex 2.11051764 0.716695848 1.96759365
      vertex 2.11025533 0.715479022 1.96769099
    endloop
  endfacet
  facet normal 0.755990559 -0.524286506 0.391920828
    outer loop
      vertex 2.06595321 0.733828535 2.07769379
      vertex 2.0652783 0.732782601 2.07759646
      vertex 2.10958043 0.714433088 1.96759365
    endloop
  endfacet
  facet normal 0.755990559 -0.524286506 0.391920828
    outer loop
      vertex 2.06595321 0.733828535 2.07769379
      vertex 2.10958043 0.714433088 1.96759365
      vertex 2.11025533 0.715479022 1.96769099
    endloop
  endfacet
  facet normal -0.369184377 0.152912607 0.916690041
    outer loop
      vertex 2.06324307 0.734951048 2.07641508
      vertex 2.0652783 0.732782601 2.07759646
      vertex 2.06595321 0.733828535 2.07769379
    endloop
  endfacet
  facet normal 0.369184377 -0.152912607 -0.916690041
    outer loop
      vertex 2.1075452 0.716601535 1.96641227
      vertex 2.11025533 0.715479022 1.96769099
      vertex 2.10958043 0.714433088 1.96759365
    endloop
  endfacet
  facet normal 0.491589323 -0.804951507 0.332254435
    outer loop
      vertex 2.0652783 0.732782601 2.07759646
      vertex 2.06429355 0.732066793 2.07731927
      vertex 2.10859568 0.713717281 1.96731646
    endloop
  endfacet
  facet normal 0.491589323 -0.804951507 0.332254435
    outer loop
      vertex 2.0652783 0.732782601 2.07759646
      vertex 2.10859568 0.713717281 1.96731646
      vertex 2.10958043 0.714433088 1.96759365
    endloop
  endfacet
  facet normal -0.369184377 0.152912607 0.916690041
    outer loop
      vertex 2.06324307 0.734951048 2.07641508
      vertex 2.06429355 0.732066793 2.07731927
      vertex 2.0652783 0.732782601 2.07759646
    endloop
  endfacet
  facet normal 0.369184377 -0.152912607 -0.916690041
    outer loop
      vertex 2.1075452 0.716601535 1.96641227
      vertex 2.10958043 0.714433088 1.96759365
      vertex 2.10859568 0.713717281 1.96731646
    endloop
  endfacet
  facet normal 0.152348069 -0.963069938 0.222005316
    outer loop
      vertex 2.06429355 0.732066793 2.07731927
      vertex 2.06314888 0.731790087 2.07690442
      vertex 2.107451 0.713440575 1.96690162
    endloop
  endfacet
  facet normal 0.152348069 -0.963069938 0.222005316
    outer loop
      vertex 2.06429355 0.732066793 2.07731927
      vertex 2.107451 0.713440575 1.96690162
      vertex 2.10859568 0.713717281 1.96731646
    endloop
  endfacet
  facet normal -0.369184377 0.152912607 0.916690041
    outer loop
      vertex 2.06324307 0.734951048 2.07641508
      vertex 2.06314888 0.731790087 2.07690442
      vertex 2.06429355 0.732066793 2.07731927
    endloop
  endfacet
  facet normal 0.369184377 -0.152912607 -0.916690041
    outer loop
      vertex 2.1075452 0.716601535 1.96641227
      vertex 2.10859568 0.713717281 1.96731646
      vertex 2.107451 0.713440575 1.96690162
    endloop
  endfacet
  facet normal -0.210086798 -0.974569702 0.0779578997
    outer loop
      vertex 2.06314888 0.731790087 2.07690442
      vertex 2.06201854 0.731994609 2.07641508
      vertex 2.10632067 0.713645096 1.96641227
    endloop
  endfacet
  facet normal -0.210086798 -0.974569702 0.0779578997
    outer loop
      vertex 2.06314888 0.731790087 2.07690442
      vertex 2.10632067 0.713645096 1.96641227
      vertex 2.107451 0.713440575 1.96690162
    endloop
  endfacet
  facet normal -0.369184377 0.152912607 0.916690041
    outer loop
      vertex 2.06324307 0.734951048 2.07641508
      vertex 2.06201854 0.731994609 2.07641508
      vertex 2.06314888 0.731790087 2.07690442
    endloop
  endfacet
  facet normal 0.369184377 -0.152912607 -0.916690041
    outer loop
      vertex 2.1075452 0.716601535 1.96641227
      vertex 2.107451 0.713440575 1.96690162
      vertex 2.10632067 0.713645096 1.96641227
    endloop
  endfacet
endsolid g22_features
