solid beam
  facet normal -0.6755755912031172 -0.15958687400452637 -0.7198122326107151
    outer loop
      vertex -0.7538488507270813 1.0715582370758057 0.14143726229667664
      vertex -0.7253939509391785 1.0761780738830566 0.11370683461427689
      vertex -0.7137677073478699 1.0173537731170654 0.11583680659532547
    endloop
  endfacet
  facet normal -0.6755755912031172 -0.15958687400452637 -0.7198122326107151
    outer loop
      vertex -0.7538488507270813 1.0715582370758057 0.14143726229667664
      vertex -0.7137677073478699 1.0173537731170654 0.11583680659532547
      vertex -0.7422226071357727 1.0127339363098145 0.14356723427772522
    endloop
  endfacet
  facet normal -0.6755756865806563 -0.1595868894896795 -0.7198121396615117
    outer loop
      vertex -0.7823037505149841 1.0669384002685547 0.16916769742965698
      vertex -0.7538488507270813 1.0715582370758057 0.14143726229667664
      vertex -0.7422226071357727 1.0127339363098145 0.14356723427772522
    endloop
  endfacet
  facet normal -0.6755755304653649 -0.15958668325520955 -0.7198123319060616
    outer loop
      vertex -0.7823037505149841 1.0669384002685547 0.16916769742965698
      vertex -0.7422226071357727 1.0127339363098145 0.14356723427772522
      vertex -0.7706775069236755 1.0081140995025635 0.17129765450954437
    endloop
  endfacet
  facet normal -0.7528860289329242 -0.1254082508238024 0.646092406752259
    outer loop
      vertex -0.37895241379737854 1.1295323371887207 0.5412741303443909
      vertex -0.38072144985198975 1.0982887744903564 0.5331482291221619
      vertex -0.35335201025009155 1.104899525642395 0.566324770450592
    endloop
  endfacet
  facet normal -0.7528860351709716 -0.125407889365998 0.6460924696429299
    outer loop
      vertex -0.37895241379737854 1.1295323371887207 0.5412741303443909
      vertex -0.40455278754234314 1.1541650295257568 0.5162234902381897
      vertex -0.43192222714424133 1.1475543975830078 0.4830469787120819
    endloop
  endfacet
  facet normal -0.7528860547827925 -0.1254082419726254 0.6460923783476613
    outer loop
      vertex -0.43192222714424133 1.1475543975830078 0.4830469787120819
      vertex -0.38072144985198975 1.0982887744903564 0.5331482291221619
      vertex -0.37895241379737854 1.1295323371887207 0.5412741303443909
    endloop
  endfacet
  facet normal -0.7528862431925842 -0.12540876413129953 0.6460920574426038
    outer loop
      vertex -0.38072144985198975 1.0982887744903564 0.5331482291221619
      vertex -0.43192222714424133 1.1475543975830078 0.4830469787120819
      vertex -0.43369126319885254 1.1163108348846436 0.4749210476875305
    endloop
  endfacet
  facet normal -0.7528859045638031 -0.12540888008051737 0.646092429537829
    outer loop
      vertex -0.43369126319885254 1.1163108348846436 0.4749210476875305
      vertex -0.43192222714424133 1.1475543975830078 0.4830469787120819
      vertex -0.4592916667461395 1.1409436464309692 0.44987043738365173
    endloop
  endfacet
  facet normal -0.7528862982071767 -0.1254097532734738 0.6460918013376895
    outer loop
      vertex -0.40809085965156555 1.0916781425476074 0.4999716877937317
      vertex -0.38072144985198975 1.0982887744903564 0.5331482291221619
      vertex -0.43369126319885254 1.1163108348846436 0.4749210476875305
    endloop
  endfacet
  facet normal 0.7983858511409724 0.07880050954229523 -0.5969677649536697
    outer loop
      vertex -0.4605940580368042 1.1426684856414795 0.5046130418777466
      vertex -0.44292503595352173 1.0910588502883911 0.5214310884475708
      vertex -0.4637928307056427 1.1138883829116821 0.496535986661911
    endloop
  endfacet
  facet normal 0.7983861307182739 0.07880073688253704 -0.5969673610369937
    outer loop
      vertex -0.44292503595352173 1.0910588502883911 0.5214310884475708
      vertex -0.4605940580368042 1.1426684856414795 0.5046130418777466
      vertex -0.4365275502204895 1.1486189365386963 0.5375851392745972
    endloop
  endfacet
  facet normal 0.7983862268490128 0.07880033329567362 -0.5969672857454482
    outer loop
      vertex -0.4637928307056427 1.1138883829116821 0.496535986661911
      vertex -0.4846605956554413 1.1367179155349731 0.4716408848762512
      vertex -0.4605940580368042 1.1426684856414795 0.5046130418777466
    endloop
  endfacet
  facet normal -0.293841084913005 -0.8143552990915438 -0.5004826307262528
    outer loop
      vertex -0.37914934754371643 1.100602388381958 0.5884628295898438
      vertex -0.37895241379737854 1.1295323371887207 0.5412741303443909
      vertex -0.35335201025009155 1.104899525642395 0.566324770450592
    endloop
  endfacet
  facet normal -0.29384039300946363 -0.8143554817147716 -0.5004827397994325
    outer loop
      vertex -0.4062587022781372 1.124983787536621 0.5647071599960327
      vertex -0.37895241379737854 1.1295323371887207 0.5412741303443909
      vertex -0.37914934754371643 1.100602388381958 0.5884628295898438
    endloop
  endfacet
  facet normal -0.2938445696750579 -0.8143549526716161 -0.5004811484278803
    outer loop
      vertex -0.43336808681488037 1.1493653059005737 0.5409514904022217
      vertex -0.40455278754234314 1.1541650295257568 0.5162234902381897
      vertex -0.4062587022781372 1.124983787536621 0.5647071599960327
    endloop
  endfacet
  facet normal -0.29383946036779524 -0.8143563791008167 -0.5004818271911278
    outer loop
      vertex -0.37895241379737854 1.1295323371887207 0.5412741303443909
      vertex -0.4062587022781372 1.124983787536621 0.5647071599960327
      vertex -0.40455278754234314 1.1541650295257568 0.5162234902381897
    endloop
  endfacet
  facet normal 0.2938318851448145 0.8143563450618895 0.500486330012804
    outer loop
      vertex -0.446591317653656 1.0997000932693481 0.5095230340957642
      vertex -0.44291815161705017 1.1003119945526123 0.5063709020614624
      vertex -0.45472633838653564 1.1128079891204834 0.4929707944393158
    endloop
  endfacet
  facet normal 0.2938506980606845 0.8143556012591617 0.5004764948996883
    outer loop
      vertex -0.446591317653656 1.0997000932693481 0.5095230340957642
      vertex -0.45472633838653564 1.1128079891204834 0.4929707944393158
      vertex -0.458232045173645 1.1122241020202637 0.4959792196750641
    endloop
  endfacet
  facet normal 0.29384225857193524 0.8143554533376851 0.5004816906706154
    outer loop
      vertex -0.4846605956554413 1.1367179155349731 0.4716408848762512
      vertex -0.45472633838653564 1.1128079891204834 0.4929707944393158
      vertex -0.4592916667461395 1.1409436464309692 0.44987043738365173
    endloop
  endfacet
  facet normal 0.2938427533334424 0.8143553489149188 0.5004815700973241
    outer loop
      vertex -0.43369126319885254 1.1163108348846436 0.4749210476875305
      vertex -0.4592916667461395 1.1409436464309692 0.44987043738365173
      vertex -0.45472633838653564 1.1128079891204834 0.4929707944393158
    endloop
  endfacet
  facet normal 0.2938378467956085 0.8143553245986916 0.500484490357374
    outer loop
      vertex -0.4637928307056427 1.1138883829116821 0.496535986661911
      vertex -0.458232045173645 1.1122241020202637 0.4959792196750641
      vertex -0.4846605956554413 1.1367179155349731 0.4716408848762512
    endloop
  endfacet
  facet normal 0.2938488248465457 0.8143574036979973 0.5004746618746659
    outer loop
      vertex -0.45472633838653564 1.1128079891204834 0.4929707944393158
      vertex -0.4846605956554413 1.1367179155349731 0.4716408848762512
      vertex -0.458232045173645 1.1122241020202637 0.4959792196750641
    endloop
  endfacet
  facet normal 0.2938377037930228 0.8143542143554755 0.5004863808248132
    outer loop
      vertex -0.446591317653656 1.0997000932693481 0.5095230340957642
      vertex -0.458232045173645 1.1122241020202637 0.4959792196750641
      vertex -0.4637928307056427 1.1138883829116821 0.496535986661911
    endloop
  endfacet
  facet normal 0.29384066930800296 0.8143573543249705 0.5004795305678938
    outer loop
      vertex -0.43369126319885254 1.1163108348846436 0.4749210476875305
      vertex -0.45472633838653564 1.1128079891204834 0.4929707944393158
      vertex -0.44291815161705017 1.1003119945526123 0.5063709020614624
    endloop
  endfacet
  facet normal 0.2938417748972186 0.8143568985489796 0.5004796230726473
    outer loop
      vertex -0.43369126319885254 1.1163108348846436 0.4749210476875305
      vertex -0.44291815161705017 1.1003119945526123 0.5063709020614624
      vertex -0.40809085965156555 1.0916781425476074 0.4999716877937317
    endloop
  endfacet
  facet normal 0.2938419010282284 0.8143541622802856 0.5004840013196138
    outer loop
      vertex -0.4380625784397125 1.0866856575012207 0.5256919860839844
      vertex -0.40809085965156555 1.0916781425476074 0.4999716877937317
      vertex -0.44291815161705017 1.1003119945526123 0.5063709020614624
    endloop
  endfacet
  facet normal 0.2938552422235828 0.8143549232898366 0.5004749299728446
    outer loop
      vertex -0.44292503595352173 1.0910588502883911 0.5214310884475708
      vertex -0.4380625784397125 1.0866856575012207 0.5256919860839844
      vertex -0.446591317653656 1.0997000932693481 0.5095230340957642
    endloop
  endfacet
  facet normal 0.29383279051298106 0.8143554739258806 0.5004872159269497
    outer loop
      vertex -0.44291815161705017 1.1003119945526123 0.5063709020614624
      vertex -0.446591317653656 1.0997000932693481 0.5095230340957642
      vertex -0.4380625784397125 1.0866856575012207 0.5256919860839844
    endloop
  endfacet
  facet normal 0.2938448622648656 0.8143561552914548 0.5004790197994937
    outer loop
      vertex -0.4637928307056427 1.1138883829116821 0.496535986661911
      vertex -0.44292503595352173 1.0910588502883911 0.5214310884475708
      vertex -0.446591317653656 1.0997000932693481 0.5095230340957642
    endloop
  endfacet
  facet normal -0.711372517204337 -0.11549471554162578 0.6932604939330698
    outer loop
      vertex -0.4883437752723694 1.1055934429168701 0.4772472083568573
      vertex -0.5459731221199036 1.09197998046875 0.41584429144859314
      vertex -0.5430665612220764 1.0772738456726074 0.4163767993450165
    endloop
  endfacet
  facet normal -0.7113720866832028 -0.1154960272777375 0.6932607171699877
    outer loop
      vertex -0.4883437752723694 1.1055934429168701 0.4772472083568573
      vertex -0.5430665612220764 1.0772738456726074 0.4163767993450165
      vertex -0.48543721437454224 1.0908873081207275 0.47777968645095825
    endloop
  endfacet
  facet normal -0.711372517204337 -0.11549471554162578 0.6932604939330698
    outer loop
      vertex -0.45662254095077515 1.0976940393447876 0.5084811449050903
      vertex -0.48543721437454224 1.0908873081207275 0.47777968645095825
      vertex -0.48398393392562866 1.0835342407226562 0.4780459403991699
    endloop
  endfacet
  facet normal -0.7113716336664826 -0.11549740754985033 0.6932609520692359
    outer loop
      vertex -0.45662254095077515 1.0976940393447876 0.5084811449050903
      vertex -0.48398393392562866 1.0835342407226562 0.4780459403991699
      vertex -0.4551692306995392 1.0903409719467163 0.508747398853302
    endloop
  endfacet
  facet normal -0.7113719571262469 -0.11549595646258572 0.693260861909257
    outer loop
      vertex -0.7706775069236755 1.0081140995025635 0.17129765450954437
      vertex -0.6875237226486206 1.027756929397583 0.25989624857902527
      vertex -0.7131484746932983 1.083274483680725 0.24285118281841278
    endloop
  endfacet
  facet normal -0.7113719679744075 -0.11549594014920206 0.6932608534954721
    outer loop
      vertex -0.7706775069236755 1.0081140995025635 0.17129765450954437
      vertex -0.7131484746932983 1.083274483680725 0.24285118281841278
      vertex -0.7823037505149841 1.0669384002685547 0.16916769742965698
    endloop
  endfacet
  facet normal -0.7113719817757547 -0.11549636374366348 0.6932607687634046
    outer loop
      vertex -0.5459731221199036 1.09197998046875 0.41584429144859314
      vertex -0.6875237226486206 1.027756929397583 0.25989624857902527
      vertex -0.6043699979782104 1.047399878501892 0.34849482774734497
    endloop
  endfacet
  facet normal -0.7113719661573169 -0.11549704331104357 0.6932606715744664
    outer loop
      vertex -0.5212162733078003 1.0670428276062012 0.43709343671798706
      vertex -0.5430665612220764 1.0772738456726074 0.4163767993450165
      vertex -0.6043699979782104 1.047399878501892 0.34849482774734497
    endloop
  endfacet
  facet normal -0.711372685662955 -0.11549475533554279 0.6932603144437577
    outer loop
      vertex -0.6043699979782104 1.047399878501892 0.34849482774734497
      vertex -0.5430665612220764 1.0772738456726074 0.4163767993450165
      vertex -0.5459731221199036 1.09197998046875 0.41584429144859314
    endloop
  endfacet
  facet normal -0.7113718946754831 -0.11549743190660061 0.6932606801837196
    outer loop
      vertex -0.5748380422592163 1.115946650505066 0.3902181386947632
      vertex -0.6439932584762573 1.0996105670928955 0.3165346682071686
      vertex -0.5459731221199036 1.09197998046875 0.41584429144859314
    endloop
  endfacet
  facet normal -0.7113722158037904 -0.11549616818169843 0.693260561201739
    outer loop
      vertex -0.6875237226486206 1.027756929397583 0.25989624857902527
      vertex -0.6439932584762573 1.0996105670928955 0.3165346682071686
      vertex -0.7131484746932983 1.083274483680725 0.24285118281841278
    endloop
  endfacet
  facet normal -0.711371736780977 -0.11549698973827012 0.6932609158683433
    outer loop
      vertex -0.5056827664375305 1.1322828531265259 0.4639016389846802
      vertex -0.5748380422592163 1.115946650505066 0.3902181386947632
      vertex -0.5459731221199036 1.09197998046875 0.41584429144859314
    endloop
  endfacet
  facet normal -0.7113722592563799 -0.11549602065813704 0.6932605411911231
    outer loop
      vertex -0.5056827664375305 1.1322828531265259 0.4639016389846802
      vertex -0.5459731221199036 1.09197998046875 0.41584429144859314
      vertex -0.4883437752723694 1.1055934429168701 0.4772472083568573
    endloop
  endfacet
  facet normal -0.7113719353885015 -0.11549651882724388 0.6932607905257628
    outer loop
      vertex -0.6875237226486206 1.027756929397583 0.25989624857902527
      vertex -0.5459731221199036 1.09197998046875 0.41584429144859314
      vertex -0.6439932584762573 1.0996105670928955 0.3165346682071686
    endloop
  endfacet
  facet normal -0.7113723535788796 -0.11549467688941892 0.6932606682726593
    outer loop
      vertex -0.5430665612220764 1.0772738456726074 0.4163767993450165
      vertex -0.48398393392562866 1.0835342407226562 0.4780459403991699
      vertex -0.48543721437454224 1.0908873081207275 0.47777968645095825
    endloop
  endfacet
  facet normal -0.7113719901277369 -0.11549673737663425 0.6932606979463467
    outer loop
      vertex -0.5212162733078003 1.0670428276062012 0.43709343671798706
      vertex -0.4380625784397125 1.0866856575012207 0.5256919860839844
      vertex -0.4551692306995392 1.0903409719467163 0.508747398853302
    endloop
  endfacet
  facet normal -0.7113709583358875 -0.11550082441160285 0.6932610757835183
    outer loop
      vertex -0.5212162733078003 1.0670428276062012 0.43709343671798706
      vertex -0.4551692306995392 1.0903409719467163 0.508747398853302
      vertex -0.48398393392562866 1.0835342407226562 0.4780459403991699
    endloop
  endfacet
  facet normal -0.7113720862823512 -0.11550072237947026 0.6932599353692059
    outer loop
      vertex -0.44292503595352173 1.0910588502883911 0.5214310884475708
      vertex -0.4551692306995392 1.0903409719467163 0.508747398853302
      vertex -0.4380625784397125 1.0866856575012207 0.5256919860839844
    endloop
  endfacet
  facet normal -0.7113724365461862 -0.11549759721233196 0.6932600966163565
    outer loop
      vertex -0.45662254095077515 1.0976940393447876 0.5084811449050903
      vertex -0.4551692306995392 1.0903409719467163 0.508747398853302
      vertex -0.44292503595352173 1.0910588502883911 0.5214310884475708
    endloop
  endfacet
  facet normal -0.7113722553300639 -0.11549618470935916 0.693260517889343
    outer loop
      vertex -0.4365275502204895 1.1486189365386963 0.5375851392745972
      vertex -0.4883437752723694 1.1055934429168701 0.4772472083568573
      vertex -0.45662254095077515 1.0976940393447876 0.5084811449050903
    endloop
  endfacet
  facet normal -0.7113722503087391 -0.11549606592960752 0.6932605428303736
    outer loop
      vertex -0.48543721437454224 1.0908873081207275 0.47777968645095825
      vertex -0.45662254095077515 1.0976940393447876 0.5084811449050903
      vertex -0.4883437752723694 1.1055934429168701 0.4772472083568573
    endloop
  endfacet
  facet normal -0.7113722090492346 -0.11549622616553891 0.6932605584727365
    outer loop
      vertex -0.44292503595352173 1.0910588502883911 0.5214310884475708
      vertex -0.4365275502204895 1.1486189365386963 0.5375851392745972
      vertex -0.45662254095077515 1.0976940393447876 0.5084811449050903
    endloop
  endfacet
  facet normal -0.711372304882883 -0.11549607853166804 0.6932604847309712
    outer loop
      vertex -0.5056827664375305 1.1322828531265259 0.4639016389846802
      vertex -0.4883437752723694 1.1055934429168701 0.4772472083568573
      vertex -0.4365275502204895 1.1486189365386963 0.5375851392745972
    endloop
  endfacet
  facet normal -0.7113720025479925 -0.11549727470050691 0.6932605956836249
    outer loop
      vertex -0.5430665612220764 1.0772738456726074 0.4163767993450165
      vertex -0.5212162733078003 1.0670428276062012 0.43709343671798706
      vertex -0.48398393392562866 1.0835342407226562 0.4780459403991699
    endloop
  endfacet
  facet normal 0.19377110845652726 -0.9804042566567236 0.0355000148859963
    outer loop
      vertex -0.6044806241989136 1.0463228225708008 0.3193527162075043
      vertex -0.6804653406143188 1.02837336063385 0.23839257657527924
      vertex -0.6662378907203674 1.0306832790374756 0.22452737390995026
    endloop
  endfacet
  facet normal 0.19377110845652726 -0.9804042566567236 0.0355000148859963
    outer loop
      vertex -0.6044806241989136 1.0463228225708008 0.3193527162075043
      vertex -0.6662378907203674 1.0306832790374756 0.22452737390995026
      vertex -0.5902531743049622 1.0486327409744263 0.3054875135421753
    endloop
  endfacet
  facet normal 0.19377112727200613 -0.9804042536019096 0.035499996549551965
    outer loop
      vertex -0.5902531743049622 1.0486327409744263 0.3054875135421753
      vertex -0.6662378907203674 1.0306832790374756 0.22452737390995026
      vertex -0.652010440826416 1.032993197441101 0.21066215634346008
    endloop
  endfacet
  facet normal 0.1937716294439963 -0.9804041667116784 0.03549965516731046
    outer loop
      vertex -0.5902531743049622 1.0486327409744263 0.3054875135421753
      vertex -0.652010440826416 1.032993197441101 0.21066215634346008
      vertex -0.5760257840156555 1.0509426593780518 0.2916222810745239
    endloop
  endfacet
  facet normal 0.19377038299250574 -0.9804044252490278 0.03549931868446393
    outer loop
      vertex -0.22455714643001556 1.1360697746276855 0.7241533994674683
      vertex -0.30054184794425964 1.1181204319000244 0.643193244934082
      vertex -0.2863143980503082 1.12043035030365 0.6293280720710754
    endloop
  endfacet
  facet normal 0.19377047096222633 -0.980404410027785 0.035499258881668626
    outer loop
      vertex -0.22455714643001556 1.1360697746276855 0.7241533994674683
      vertex -0.2863143980503082 1.12043035030365 0.6293280720710754
      vertex -0.21032969653606415 1.138379693031311 0.7102881669998169
    endloop
  endfacet
  facet normal 0.19377047096222633 -0.980404410027785 0.035499258881668626
    outer loop
      vertex -0.21032969653606415 1.138379693031311 0.7102881669998169
      vertex -0.2863143980503082 1.12043035030365 0.6293280720710754
      vertex -0.2720869481563568 1.1227402687072754 0.6154628396034241
    endloop
  endfacet
  facet normal 0.19377059100639105 -0.98040438925674 0.03549917727430605
    outer loop
      vertex -0.21032969653606415 1.138379693031311 0.7102881669998169
      vertex -0.2720869481563568 1.1227402687072754 0.6154628396034241
      vertex -0.19610226154327393 1.1406896114349365 0.6964229345321655
    endloop
  endfacet
  facet normal 0.19377042136252376 -0.9804044200071225 0.03549925401311661
    outer loop
      vertex -0.7422226071357727 1.0127339363098145 0.14356723427772522
      vertex -0.7137677073478699 1.0173537731170654 0.11583680659532547
      vertex -0.652010440826416 1.032993197441101 0.21066215634346008
    endloop
  endfacet
  facet normal 0.1937739824572263 -0.9804038038276461 0.03549683313971565
    outer loop
      vertex -0.6270450353622437 1.0378397703170776 0.20823806524276733
      vertex -0.652010440826416 1.032993197441101 0.21066215634346008
      vertex -0.7137677073478699 1.0173537731170654 0.11583680659532547
    endloop
  endfacet
  facet normal 0.19377040645687796 -0.9804044224858243 0.03549926691881706
    outer loop
      vertex -0.6804653406143188 1.02837336063385 0.23839257657527924
      vertex -0.7422226071357727 1.0127339363098145 0.14356723427772522
      vertex -0.6662378907203674 1.0306832790374756 0.22452737390995026
    endloop
  endfacet
  facet normal 0.19377042527196262 -0.9804044194310743 0.03549924858276139
    outer loop
      vertex -0.652010440826416 1.032993197441101 0.21066215634346008
      vertex -0.6662378907203674 1.0306832790374756 0.22452737390995026
      vertex -0.7422226071357727 1.0127339363098145 0.14356723427772522
    endloop
  endfacet
  facet normal 0.1937720688013074 -0.9804041191226515 0.0354985712360273
    outer loop
      vertex -0.6270450353622437 1.0378397703170776 0.20823806524276733
      vertex -0.5403223037719727 1.0583257675170898 0.3006393313407898
      vertex -0.5760257840156555 1.0509426593780518 0.2916222810745239
    endloop
  endfacet
  facet normal 0.19377402476032535 -0.9804037778088002 0.03549732083436258
    outer loop
      vertex -0.6270450353622437 1.0378397703170776 0.20823806524276733
      vertex -0.5760257840156555 1.0509426593780518 0.2916222810745239
      vertex -0.652010440826416 1.032993197441101 0.21066215634346008
    endloop
  endfacet
  facet normal 0.19377246269267565 -0.9804040983575906 0.03549699460032554
    outer loop
      vertex -0.5403223037719727 1.0583257675170898 0.3006393313407898
      vertex -0.45359960198402405 1.0788116455078125 0.39304059743881226
      vertex -0.5760257840156555 1.0509426593780518 0.2916222810745239
    endloop
  endfacet
  facet normal 0.19376905907243677 -0.9804046171313854 0.0355012458041128
    outer loop
      vertex -0.45359960198402405 1.0788116455078125 0.39304059743881226
      vertex -0.40809085965156555 1.0916781425476074 0.4999716877937317
      vertex -0.5760257840156555 1.0509426593780518 0.2916222810745239
    endloop
  endfacet
  facet normal 0.1937722231548597 -0.9804040756770682 0.035498928567166854
    outer loop
      vertex -0.6804653406143188 1.02837336063385 0.23839257657527924
      vertex -0.6044806241989136 1.0463228225708008 0.3193527162075043
      vertex -0.6043699979782104 1.047399878501892 0.34849482774734497
    endloop
  endfacet
  facet normal 0.19377180989748832 -0.9804041465699952 0.035499226433981255
    outer loop
      vertex -0.6804653406143188 1.02837336063385 0.23839257657527924
      vertex -0.6043699979782104 1.047399878501892 0.34849482774734497
      vertex -0.6875237226486206 1.027756929397583 0.25989624857902527
    endloop
  endfacet
  facet normal 0.19377070668976643 -0.9804043779645986 0.03549885768298727
    outer loop
      vertex -0.6804653406143188 1.02837336063385 0.23839257657527924
      vertex -0.6875237226486206 1.027756929397583 0.25989624857902527
      vertex -0.7706775069236755 1.0081140995025635 0.17129765450954437
    endloop
  endfacet
  facet normal 0.19377041745308365 -0.9804044205831707 0.03549925944347349
    outer loop
      vertex -0.7422226071357727 1.0127339363098145 0.14356723427772522
      vertex -0.6804653406143188 1.02837336063385 0.23839257657527924
      vertex -0.7706775069236755 1.0081140995025635 0.17129765450954437
    endloop
  endfacet
  facet normal 0.19377074864557675 -0.9804043309279945 0.03549992770364645
    outer loop
      vertex -0.5212162733078003 1.0670428276062012 0.43709343671798706
      vertex -0.6044806241989136 1.0463228225708008 0.3193527162075043
      vertex -0.40809085965156555 1.0916781425476074 0.4999716877937317
    endloop
  endfacet
  facet normal 0.19377088375723903 -0.9804043097361882 0.035499775473188826
    outer loop
      vertex -0.5902531743049622 1.0486327409744263 0.3054875135421753
      vertex -0.40809085965156555 1.0916781425476074 0.4999716877937317
      vertex -0.6044806241989136 1.0463228225708008 0.3193527162075043
    endloop
  endfacet
  facet normal 0.1937721020125268 -0.9804040995716415 0.035498929910148136
    outer loop
      vertex -0.6044806241989136 1.0463228225708008 0.3193527162075043
      vertex -0.5212162733078003 1.0670428276062012 0.43709343671798706
      vertex -0.6043699979782104 1.047399878501892 0.34849482774734497
    endloop
  endfacet
  facet normal 0.19377177535730558 -0.9804041967907235 0.03549802797359825
    outer loop
      vertex -0.40809085965156555 1.0916781425476074 0.4999716877937317
      vertex -0.4380625784397125 1.0866856575012207 0.5256919860839844
      vertex -0.5212162733078003 1.0670428276062012 0.43709343671798706
    endloop
  endfacet
  facet normal 0.19377133262155574 -0.9804042368283479 0.035499338910622805
    outer loop
      vertex -0.40809085965156555 1.0916781425476074 0.4999716877937317
      vertex -0.5902531743049622 1.0486327409744263 0.3054875135421753
      vertex -0.5760257840156555 1.0509426593780518 0.2916222810745239
    endloop
  endfacet
  facet normal 0.19376968870690983 -0.9804045028899806 0.03550096409222158
    outer loop
      vertex -0.40809085965156555 1.0916781425476074 0.4999716877937317
      vertex -0.45359960198402405 1.0788116455078125 0.39304059743881226
      vertex -0.36687690019607544 1.0992976427078247 0.48544183373451233
    endloop
  endfacet
  facet normal 0.19377080902592259 -0.9804043218230406 0.03549984957916386
    outer loop
      vertex -0.2720869481563568 1.1227402687072754 0.6154628396034241
      vertex -0.36687690019607544 1.0992976427078247 0.48544183373451233
      vertex -0.28015419840812683 1.119783639907837 0.5778431296348572
    endloop
  endfacet
  facet normal 0.1937745016263935 -0.9804037747522145 0.03549480202863256
    outer loop
      vertex -0.40809085965156555 1.0916781425476074 0.4999716877937317
      vertex -0.2720869481563568 1.1227402687072754 0.6154628396034241
      vertex -0.38072144985198975 1.0982887744903564 0.5331482291221619
    endloop
  endfacet
  facet normal 0.19377339036055374 -0.9804039026092217 0.03549733703793194
    outer loop
      vertex -0.28015419840812683 1.119783639907837 0.5778431296348572
      vertex -0.19343148171901703 1.1402696371078491 0.6702443361282349
      vertex -0.19610226154327393 1.1406896114349365 0.6964229345321655
    endloop
  endfacet
  facet normal 0.1937696217567221 -0.9804045466199662 0.03550012184704762
    outer loop
      vertex -0.28015419840812683 1.119783639907837 0.5778431296348572
      vertex -0.19610226154327393 1.1406896114349365 0.6964229345321655
      vertex -0.2720869481563568 1.1227402687072754 0.6154628396034241
    endloop
  endfacet
  facet normal 0.19377053470874442 -0.9804043949693806 0.035499326802208714
    outer loop
      vertex -0.2863143980503082 1.12043035030365 0.6293280720710754
      vertex -0.35335201025009155 1.104899525642395 0.566324770450592
      vertex -0.2720869481563568 1.1227402687072754 0.6154628396034241
    endloop
  endfacet
  facet normal 0.19377339807901536 -0.9804039010560858 0.035497337800464525
    outer loop
      vertex -0.19610226154327393 1.1406896114349365 0.6964229345321655
      vertex -0.19343148171901703 1.1402696371078491 0.6702443361282349
      vertex -0.10670877993106842 1.1607556343078613 0.7626456022262573
    endloop
  endfacet
  facet normal 0.19377135697673087 -0.9804042083161952 0.03549999339845954
    outer loop
      vertex -0.21032969653606415 1.138379693031311 0.7102881669998169
      vertex -0.19610226154327393 1.1406896114349365 0.6964229345321655
      vertex -0.13475432991981506 1.156232476234436 0.7908121943473816
    endloop
  endfacet
  facet normal 0.19377162327822833 -0.9804041622251809 0.03549981272713641
    outer loop
      vertex -0.10670877993106842 1.1607556343078613 0.7626456022262573
      vertex -0.13475432991981506 1.156232476234436 0.7908121943473816
      vertex -0.19610226154327393 1.1406896114349365 0.6964229345321655
    endloop
  endfacet
  facet normal 0.19377125427537387 -0.9804042249904384 0.035500093485037694
    outer loop
      vertex -0.22455714643001556 1.1360697746276855 0.7241533994674683
      vertex -0.21032969653606415 1.138379693031311 0.7102881669998169
      vertex -0.13475432991981506 1.156232476234436 0.7908121943473816
    endloop
  endfacet
  facet normal 0.19376792629526107 -0.9804047496305633 0.03550376939237332
    outer loop
      vertex -0.2720869481563568 1.1227402687072754 0.6154628396034241
      vertex -0.35335201025009155 1.104899525642395 0.566324770450592
      vertex -0.38072144985198975 1.0982887744903564 0.5331482291221619
    endloop
  endfacet
  facet normal 0.19377134586570743 -0.9804042410878031 0.03549914898193328
    outer loop
      vertex -0.37914934754371643 1.100602388381958 0.5884628295898438
      vertex -0.30054184794425964 1.1181204319000244 0.643193244934082
      vertex -0.32506197690963745 1.1133791208267212 0.6460918188095093
    endloop
  endfacet
  facet normal 0.19377183693338418 -0.9804041703881893 0.03549842104809864
    outer loop
      vertex -0.30054184794425964 1.1181204319000244 0.643193244934082
      vertex -0.37914934754371643 1.100602388381958 0.5884628295898438
      vertex -0.35335201025009155 1.104899525642395 0.566324770450592
    endloop
  endfacet
  facet normal 0.1937696830861445 -0.9804045388827808 0.03550000077094759
    outer loop
      vertex -0.30054184794425964 1.1181204319000244 0.643193244934082
      vertex -0.22455714643001556 1.1360697746276855 0.7241533994674683
      vertex -0.27097460627555847 1.1261558532714844 0.7037208080291748
    endloop
  endfacet
  facet normal 0.19377134586570743 -0.9804042410878031 0.03549914898193328
    outer loop
      vertex -0.30054184794425964 1.1181204319000244 0.643193244934082
      vertex -0.27097460627555847 1.1261558532714844 0.7037208080291748
      vertex -0.32506197690963745 1.1133791208267212 0.6460918188095093
    endloop
  endfacet
  facet normal 0.19377046390361213 -0.9804044061359372 0.035499404893875396
    outer loop
      vertex -0.2863143980503082 1.12043035030365 0.6293280720710754
      vertex -0.30054184794425964 1.1181204319000244 0.643193244934082
      vertex -0.35335201025009155 1.104899525642395 0.566324770450592
    endloop
  endfacet
  facet normal 0.19376905094794838 -0.9804046105608277 0.035501471600526295
    outer loop
      vertex -0.22455714643001556 1.1360697746276855 0.7241533994674683
      vertex -0.21688725054264069 1.1389325857162476 0.7613497376441956
      vertex -0.27097460627555847 1.1261558532714844 0.7037208080291748
    endloop
  endfacet
  facet normal 0.19376900262095847 -0.9804046197258783 0.03550148227095271
    outer loop
      vertex -0.22455714643001556 1.1360697746276855 0.7241533994674683
      vertex -0.1627998948097229 1.1517093181610107 0.8189787268638611
      vertex -0.21688725054264069 1.1389325857162476 0.7613497376441956
    endloop
  endfacet
  facet normal 0.19377145361227802 -0.9804041956380604 0.0354998160597002
    outer loop
      vertex -0.1627998948097229 1.1517093181610107 0.8189787268638611
      vertex -0.22455714643001556 1.1360697746276855 0.7241533994674683
      vertex -0.13475432991981506 1.156232476234436 0.7908121943473816
    endloop
  endfacet
  facet normal 0.19376961859483566 -0.9804045243560014 0.035500753962338746
    outer loop
      vertex -0.36687690019607544 1.0992976427078247 0.48544183373451233
      vertex -0.2720869481563568 1.1227402687072754 0.6154628396034241
      vertex -0.40809085965156555 1.0916781425476074 0.4999716877937317
    endloop
  endfacet
  facet normal -0.1937705084489404 0.9804044011725558 -0.03549929882295373
    outer loop
      vertex -0.40565165877342224 1.1548616886138916 0.5414584875106812
      vertex -0.3331667184829712 1.171984314918518 0.6186897158622742
      vertex -0.3189392685890198 1.1742942333221436 0.6048244833946228
    endloop
  endfacet
  facet normal -0.19377054921246986 0.9804043935702093 -0.03549928627632189
    outer loop
      vertex -0.3331667184829712 1.171984314918518 0.6186897158622742
      vertex -0.26068177819252014 1.1891069412231445 0.6959208846092224
      vertex -0.24645434319972992 1.19141685962677 0.6820557117462158
    endloop
  endfacet
  facet normal -0.19377052662954639 0.9804043968778748 -0.035499318193997376
    outer loop
      vertex -0.3331667184829712 1.171984314918518 0.6186897158622742
      vertex -0.24645434319972992 1.19141685962677 0.6820557117462158
      vertex -0.3189392685890198 1.1742942333221436 0.6048244833946228
    endloop
  endfacet
  facet normal -0.19377052662954639 0.9804043968778748 -0.035499318193997376
    outer loop
      vertex -0.3189392685890198 1.1742942333221436 0.6048244833946228
      vertex -0.24645434319972992 1.19141685962677 0.6820557117462158
      vertex -0.2322268933057785 1.1937267780303955 0.6681904792785645
    endloop
  endfacet
  facet normal -0.19377052662954639 0.9804043968778748 -0.035499318193997376
    outer loop
      vertex -0.3189392685890198 1.1742942333221436 0.6048244833946228
      vertex -0.2322268933057785 1.1937267780303955 0.6681904792785645
      vertex -0.30471181869506836 1.176604151725769 0.5909592509269714
    endloop
  endfacet
  facet normal -0.19377052177189585 0.9804043980253647 -0.03549931301827547
    outer loop
      vertex -0.3189392685890198 1.1742942333221436 0.6048244833946228
      vertex -0.30471181869506836 1.176604151725769 0.5909592509269714
      vertex -0.3771967589855194 1.1594815254211426 0.5137280821800232
    endloop
  endfacet
  facet normal -0.1937704754184719 0.9804044089751169 -0.035499263629702106
    outer loop
      vertex -0.695591390132904 1.0863709449768066 0.23253367841243744
      vertex -0.6231064200401306 1.103493571281433 0.30976489186286926
      vertex -0.6088789701461792 1.1058034896850586 0.2958996593952179
    endloop
  endfacet
  facet normal -0.19377045993412556 0.9804044112430703 -0.035499285514587746
    outer loop
      vertex -0.695591390132904 1.0863709449768066 0.23253367841243744
      vertex -0.6088789701461792 1.1058034896850586 0.2958996593952179
      vertex -0.6813639402389526 1.0886808633804321 0.21866846084594727
    endloop
  endfacet
  facet normal -0.1937708519236569 0.9804043476008938 -0.03549890350484018
    outer loop
      vertex -0.6813639402389526 1.0886808633804321 0.21866846084594727
      vertex -0.6088789701461792 1.1058034896850586 0.2958996593952179
      vertex -0.5946515798568726 1.108113408088684 0.2820344567298889
    endloop
  endfacet
  facet normal -0.19377051384136332 0.9804043971191133 -0.035499381334917236
    outer loop
      vertex -0.6813639402389526 1.0886808633804321 0.21866846084594727
      vertex -0.5946515798568726 1.108113408088684 0.2820344567298889
      vertex -0.6671364903450012 1.0909907817840576 0.2048032581806183
    endloop
  endfacet
  facet normal -0.1937743752310506 0.9804037498598812 -0.03549617957611254
    outer loop
      vertex -0.2322268933057785 1.1937267780303955 0.6681904792785645
      vertex -0.14633318781852722 1.2129660844802856 0.730684220790863
      vertex -0.22905614972114563 1.193424940109253 0.6425445675849915
    endloop
  endfacet
  facet normal -0.19377135680766633 0.9804042007697502 -0.03550020273101466
    outer loop
      vertex -0.24645434319972992 1.19141685962677 0.6820557117462158
      vertex -0.17437873780727386 1.2084429264068604 0.7588507533073425
      vertex -0.2322268933057785 1.1937267780303955 0.6681904792785645
    endloop
  endfacet
  facet normal -0.1937717038265407 0.9804041405549854 -0.03549997153238392
    outer loop
      vertex -0.14633318781852722 1.2129660844802856 0.730684220790863
      vertex -0.2322268933057785 1.1937267780303955 0.6681904792785645
      vertex -0.17437873780727386 1.2084429264068604 0.7588507533073425
    endloop
  endfacet
  facet normal -0.19377138424679463 0.9804041963148297 -0.03550017599046582
    outer loop
      vertex -0.24645434319972992 1.19141685962677 0.6820557117462158
      vertex -0.26068177819252014 1.1891069412231445 0.6959208846092224
      vertex -0.17437873780727386 1.2084429264068604 0.7588507533073425
    endloop
  endfacet
  facet normal -0.19377381673418265 0.9804038626971571 -0.03549611185413747
    outer loop
      vertex -0.30471181869506836 1.176604151725769 0.5909592509269714
      vertex -0.2322268933057785 1.1937267780303955 0.6681904792785645
      vertex -0.22905614972114563 1.193424940109253 0.6425445675849915
    endloop
  endfacet
  facet normal -0.19377263635909112 0.9804040313241127 -0.03549789799235462
    outer loop
      vertex -0.30471181869506836 1.176604151725769 0.5909592509269714
      vertex -0.22905614972114563 1.193424940109253 0.6425445675849915
      vertex -0.31177911162376404 1.1738837957382202 0.5544049739837646
    endloop
  endfacet
  facet normal -0.19377097845084043 0.980404303715294 -0.03549942487891241
    outer loop
      vertex -0.31177911162376404 1.1738837957382202 0.5544049739837646
      vertex -0.39450210332870483 1.1543426513671875 0.46626532077789307
      vertex -0.3771967589855194 1.1594815254211426 0.5137280821800232
    endloop
  endfacet
  facet normal -0.1937717945337625 0.9804041913826177 -0.03549807265980365
    outer loop
      vertex -0.31177911162376404 1.1738837957382202 0.5544049739837646
      vertex -0.3771967589855194 1.1594815254211426 0.5137280821800232
      vertex -0.30471181869506836 1.176604151725769 0.5909592509269714
    endloop
  endfacet
  facet normal -0.19377417194395208 0.9804037648344589 -0.03549687571962827
    outer loop
      vertex -0.40455278754234314 1.1541650295257568 0.5162234902381897
      vertex -0.3189392685890198 1.1742942333221436 0.6048244833946228
      vertex -0.3771967589855194 1.1594815254211426 0.5137280821800232
    endloop
  endfacet
  facet normal -0.19377402551061013 0.9804038591735494 -0.03549506944667947
    outer loop
      vertex -0.40455278754234314 1.1541650295257568 0.5162234902381897
      vertex -0.3771967589855194 1.1594815254211426 0.5137280821800232
      vertex -0.43192222714424133 1.1475543975830078 0.4830469787120819
    endloop
  endfacet
  facet normal -0.19376938606260702 0.9804045824138294 -0.03550041981280093
    outer loop
      vertex -0.26068177819252014 1.1891069412231445 0.6959208846092224
      vertex -0.3331667184829712 1.171984314918518 0.6186897158622742
      vertex -0.31789618730545044 1.1766425371170044 0.6639844179153442
    endloop
  endfacet
  facet normal -0.19376861670683998 0.9804046831378237 -0.035501837430492025
    outer loop
      vertex -0.26068177819252014 1.1891069412231445 0.6959208846092224
      vertex -0.31789618730545044 1.1766425371170044 0.6639844179153442
      vertex -0.2601602375507355 1.1902811527252197 0.7255008816719055
    endloop
  endfacet
  facet normal -0.19376866576691495 0.9804046734867136 -0.035501836182376026
    outer loop
      vertex -0.26068177819252014 1.1891069412231445 0.6959208846092224
      vertex -0.2601602375507355 1.1902811527252197 0.7255008816719055
      vertex -0.2024243026971817 1.203919768333435 0.7870173454284668
    endloop
  endfacet
  facet normal -0.1937704660226564 0.9804043828942404 -0.03550003519894117
    outer loop
      vertex -0.31789618730545044 1.1766425371170044 0.6639844179153442
      vertex -0.3331667184829712 1.171984314918518 0.6186897158622742
      vertex -0.3756321370601654 1.163003921508789 0.602467954158783
    endloop
  endfacet
  facet normal -0.19377159127226593 0.980404166015052 -0.035499882762400306
    outer loop
      vertex -0.17437873780727386 1.2084429264068604 0.7588507533073425
      vertex -0.26068177819252014 1.1891069412231445 0.6959208846092224
      vertex -0.2024243026971817 1.203919768333435 0.7870173454284668
    endloop
  endfacet
  facet normal -0.19377225259240302 0.9804038938323631 -0.035503789707671964
    outer loop
      vertex -0.40455278754234314 1.1541650295257568 0.5162234902381897
      vertex -0.43336808681488037 1.1493653059005737 0.5409514904022217
      vertex -0.40565165877342224 1.1548616886138916 0.5414584875106812
    endloop
  endfacet
  facet normal -0.19377240805252235 0.9804040927559596 -0.035497447582757406
    outer loop
      vertex -0.3331667184829712 1.171984314918518 0.6186897158622742
      vertex -0.40565165877342224 1.1548616886138916 0.5414584875106812
      vertex -0.43336808681488037 1.1493653059005737 0.5409514904022217
    endloop
  endfacet
  facet normal -0.1937704660226564 0.9804043828942404 -0.03550003519894117
    outer loop
      vertex -0.3331667184829712 1.171984314918518 0.6186897158622742
      vertex -0.43336808681488037 1.1493653059005737 0.5409514904022217
      vertex -0.3756321370601654 1.163003921508789 0.602467954158783
    endloop
  endfacet
  facet normal -0.1937674600098919 0.9804048476557338 -0.03550360734421558
    outer loop
      vertex -0.3189392685890198 1.1742942333221436 0.6048244833946228
      vertex -0.40455278754234314 1.1541650295257568 0.5162234902381897
      vertex -0.40565165877342224 1.1548616886138916 0.5414584875106812
    endloop
  endfacet
  facet normal -0.1937725548379215 0.9804040140974835 -0.035498818756768274
    outer loop
      vertex -0.39450210332870483 1.1543426513671875 0.46626532077789307
      vertex -0.4592916667461395 1.1409436464309692 0.44987043738365173
      vertex -0.3771967589855194 1.1594815254211426 0.5137280821800232
    endloop
  endfacet
  facet normal -0.1937740070672003 0.9804038092050579 -0.03549655027369613
    outer loop
      vertex -0.5946515798568726 1.108113408088684 0.2820344567298889
      vertex -0.47722506523132324 1.1348015069961548 0.37812569737434387
      vertex -0.5599480271339417 1.115260362625122 0.2899860739707947
    endloop
  endfacet
  facet normal -0.1937704763728198 0.9804043248733292 -0.03550158103411802
    outer loop
      vertex -0.3771967589855194 1.1594815254211426 0.5137280821800232
      vertex -0.4592916667461395 1.1409436464309692 0.44987043738365173
      vertex -0.43192222714424133 1.1475543975830078 0.4830469787120819
    endloop
  endfacet
  facet normal -0.19377317678016018 0.9804039353039795 -0.03549759993288543
    outer loop
      vertex -0.5946515798568726 1.108113408088684 0.2820344567298889
      vertex -0.4592916667461395 1.1409436464309692 0.44987043738365173
      vertex -0.47722506523132324 1.1348015069961548 0.37812569737434387
    endloop
  endfacet
  facet normal -0.1937711918681885 0.9804042672980331 -0.03549926570773796
    outer loop
      vertex -0.6088789701461792 1.1058034896850586 0.2958996593952179
      vertex -0.4592916667461395 1.1409436464309692 0.44987043738365173
      vertex -0.5946515798568726 1.108113408088684 0.2820344567298889
    endloop
  endfacet
  facet normal -0.19377240154242623 0.9804040696644762 -0.03549812087721918
    outer loop
      vertex -0.5599480271339417 1.115260362625122 0.2899860739707947
      vertex -0.6426709890365601 1.0957192182540894 0.20184646546840668
      vertex -0.6671364903450012 1.0909907817840576 0.2048032581806183
    endloop
  endfacet
  facet normal -0.19377417446772074 0.980403802779508 -0.035495813905769634
    outer loop
      vertex -0.5599480271339417 1.115260362625122 0.2899860739707947
      vertex -0.6671364903450012 1.0909907817840576 0.2048032581806183
      vertex -0.5946515798568726 1.108113408088684 0.2820344567298889
    endloop
  endfacet
  facet normal -0.19377283730850836 0.9804039991290335 -0.035497690251740675
    outer loop
      vertex -0.47722506523132324 1.1348015069961548 0.37812569737434387
      vertex -0.4592916667461395 1.1409436464309692 0.44987043738365173
      vertex -0.39450210332870483 1.1543426513671875 0.46626532077789307
    endloop
  endfacet
  facet normal -0.19377240065760387 0.980404070131486 -0.03549811280906875
    outer loop
      vertex -0.6671364903450012 1.0909907817840576 0.2048032581806183
      vertex -0.6426709890365601 1.0957192182540894 0.20184646546840668
      vertex -0.7253939509391785 1.0761780738830566 0.11370683461427689
    endloop
  endfacet
  facet normal -0.19377051384136332 0.9804043971191133 -0.035499381334917236
    outer loop
      vertex -0.6671364903450012 1.0909907817840576 0.2048032581806183
      vertex -0.7538488507270813 1.0715582370758057 0.14143726229667664
      vertex -0.6813639402389526 1.0886808633804321 0.21866846084594727
    endloop
  endfacet
  facet normal -0.19377052545466944 0.980404395418142 -0.03549936492120237
    outer loop
      vertex -0.7538488507270813 1.0715582370758057 0.14143726229667664
      vertex -0.6671364903450012 1.0909907817840576 0.2048032581806183
      vertex -0.7253939509391785 1.0761780738830566 0.11370683461427689
    endloop
  endfacet
  facet normal -0.1937708247693397 0.9804043264502325 -0.03549963585553596
    outer loop
      vertex -0.6088789701461792 1.1058034896850586 0.2958996593952179
      vertex -0.6231064200401306 1.103493571281433 0.30976489186286926
      vertex -0.4592916667461395 1.1409436464309692 0.44987043738365173
    endloop
  endfacet
  facet normal -0.19377114822392338 0.9804042750524946 -0.03549928977845705
    outer loop
      vertex -0.5748380422592163 1.115946650505066 0.3902181386947632
      vertex -0.4846605956554413 1.1367179155349731 0.4716408848762512
      vertex -0.6231064200401306 1.103493571281433 0.30976489186286926
    endloop
  endfacet
  facet normal -0.19377100680563675 0.9804042984496605 -0.03549941552982013
    outer loop
      vertex -0.6231064200401306 1.103493571281433 0.30976489186286926
      vertex -0.4846605956554413 1.1367179155349731 0.4716408848762512
      vertex -0.4592916667461395 1.1409436464309692 0.44987043738365173
    endloop
  endfacet
  facet normal -0.1937653741604505 0.9804051747330772 -0.03550595912047596
    outer loop
      vertex -0.4605940580368042 1.1426684856414795 0.5046130418777466
      vertex -0.4846605956554413 1.1367179155349731 0.4716408848762512
      vertex -0.5056827664375305 1.1322828531265259 0.4639016389846802
    endloop
  endfacet
  facet normal -0.19376540156180455 0.9804051720683713 -0.035505883162935695
    outer loop
      vertex -0.5748380422592163 1.115946650505066 0.3902181386947632
      vertex -0.5056827664375305 1.1322828531265259 0.4639016389846802
      vertex -0.4846605956554413 1.1367179155349731 0.4716408848762512
    endloop
  endfacet
  facet normal -0.19377386526555387 0.9804038493008916 -0.03549621692577316
    outer loop
      vertex -0.4365275502204895 1.1486189365386963 0.5375851392745972
      vertex -0.4605940580368042 1.1426684856414795 0.5046130418777466
      vertex -0.5056827664375305 1.1322828531265259 0.4639016389846802
    endloop
  endfacet
  facet normal -0.19376996625277054 0.9804044818254756 -0.035500030914368805
    outer loop
      vertex -0.5748380422592163 1.115946650505066 0.3902181386947632
      vertex -0.6231064200401306 1.103493571281433 0.30976489186286926
      vertex -0.6439932584762573 1.0996105670928955 0.3165346682071686
    endloop
  endfacet
  facet normal -0.19377053265651167 0.9804043940643528 -0.03549936299880573
    outer loop
      vertex -0.7823037505149841 1.0669384002685547 0.16916769742965698
      vertex -0.695591390132904 1.0863709449768066 0.23253367841243744
      vertex -0.7538488507270813 1.0715582370758057 0.14143726229667664
    endloop
  endfacet
  facet normal -0.1937699645734544 0.9804044823560083 -0.035500025428860306
    outer loop
      vertex -0.7131484746932983 1.083274483680725 0.24285118281841278
      vertex -0.6439932584762573 1.0996105670928955 0.3165346682071686
      vertex -0.6231064200401306 1.103493571281433 0.30976489186286926
    endloop
  endfacet
  facet normal -0.1937705996803318 0.9804043888003835 -0.03549914253149317
    outer loop
      vertex -0.7131484746932983 1.083274483680725 0.24285118281841278
      vertex -0.6231064200401306 1.103493571281433 0.30976489186286926
      vertex -0.695591390132904 1.0863709449768066 0.23253367841243744
    endloop
  endfacet
  facet normal -0.19377063905128408 0.980404378480963 -0.03549921262526742
    outer loop
      vertex -0.695591390132904 1.0863709449768066 0.23253367841243744
      vertex -0.7823037505149841 1.0669384002685547 0.16916769742965698
      vertex -0.7131484746932983 1.083274483680725 0.24285118281841278
    endloop
  endfacet
  facet normal -0.19377053265651167 0.9804043940643528 -0.03549936299880573
    outer loop
      vertex -0.6813639402389526 1.0886808633804321 0.21866846084594727
      vertex -0.7538488507270813 1.0715582370758057 0.14143726229667664
      vertex -0.695591390132904 1.0863709449768066 0.23253367841243744
    endloop
  endfacet
  facet normal 0.711371681549055 0.11549828693316062 -0.6932607564297688
    outer loop
      vertex -0.17322780191898346 1.1758275032043457 0.6968997716903687
      vertex -0.1703212410211563 1.1611214876174927 0.6974322199821472
      vertex -0.23102712631225586 1.146781325340271 0.6327513456344604
    endloop
  endfacet
  facet normal 0.711371681549055 0.11549828693316062 -0.6932607564297688
    outer loop
      vertex -0.17322780191898346 1.1758275032043457 0.6968997716903687
      vertex -0.23102712631225586 1.146781325340271 0.6327513456344604
      vertex -0.233933687210083 1.161487340927124 0.6322188973426819
    endloop
  endfacet
  facet normal 0.7113723932028784 0.11549468624954522 -0.6932606260541042
    outer loop
      vertex -0.1761343628168106 1.1905336380004883 0.6963672637939453
      vertex -0.17322780191898346 1.1758275032043457 0.6968997716903687
      vertex -0.233933687210083 1.161487340927124 0.6322188973426819
    endloop
  endfacet
  facet normal 0.7113721765735672 0.11549536025728312 -0.6932607360553645
    outer loop
      vertex -0.1761343628168106 1.1905336380004883 0.6963672637939453
      vertex -0.233933687210083 1.161487340927124 0.6322188973426819
      vertex -0.23684026300907135 1.1761934757232666 0.6316863894462585
    endloop
  endfacet
  facet normal 0.7113725016209018 0.11549458038571213 -0.6932605324401127
    outer loop
      vertex -0.5981690287590027 1.0754462480545044 0.2441335767507553
      vertex -0.6270450353622437 1.0378397703170776 0.20823806524276733
      vertex -0.7137677073478699 1.0173537731170654 0.11583680659532547
    endloop
  endfacet
  facet normal 0.7113722094535486 0.11549502084533671 -0.69326075886142
    outer loop
      vertex -0.5981690287590027 1.0754462480545044 0.2441335767507553
      vertex -0.5403223037719727 1.0583257675170898 0.3006393313407898
      vertex -0.6270450353622437 1.0378397703170776 0.20823806524276733
    endloop
  endfacet
  facet normal 0.7113720783835923 0.1154956990524304 -0.6932607803681085
    outer loop
      vertex -0.3553454875946045 1.1328070163726807 0.5028570890426636
      vertex -0.36687690019607544 1.0992976427078247 0.48544183373451233
      vertex -0.45359960198402405 1.0788116455078125 0.39304059743881226
    endloop
  endfacet
  facet normal 0.711372257967809 0.11549574998898164 -0.6932605876063227
    outer loop
      vertex -0.5403223037719727 1.0583257675170898 0.3006393313407898
      vertex -0.5981690287590027 1.0754462480545044 0.2441335767507553
      vertex -0.45359960198402405 1.0788116455078125 0.39304059743881226
    endloop
  endfacet
  facet normal 0.7113723492291488 0.11549548034469695 -0.6932605388828573
    outer loop
      vertex -0.36687690019607544 1.0992976427078247 0.48544183373451233
      vertex -0.3553454875946045 1.1328070163726807 0.5028570890426636
      vertex -0.28015419840812683 1.119783639907837 0.5778431296348572
    endloop
  endfacet
  facet normal 0.7113721105481083 0.1154957971483115 -0.6932607310207365
    outer loop
      vertex -0.5981690287590027 1.0754462480545044 0.2441335767507553
      vertex -0.7137677073478699 1.0173537731170654 0.11583680659532547
      vertex -0.7253939509391785 1.0761780738830566 0.11370683461427689
    endloop
  endfacet
  facet normal 0.711372075395772 0.11549484289739206 -0.69326092606696
    outer loop
      vertex -0.23102712631225586 1.146781325340271 0.6327513456344604
      vertex -0.19343148171901703 1.1402696371078491 0.6702443361282349
      vertex -0.28015419840812683 1.119783639907837 0.5778431296348572
    endloop
  endfacet
  facet normal 0.7113720789852411 0.11549627184025785 -0.6932606843253245
    outer loop
      vertex -0.1703212410211563 1.1611214876174927 0.6974322199821472
      vertex -0.10670877993106842 1.1607556343078613 0.7626456022262573
      vertex -0.19343148171901703 1.1402696371078491 0.6702443361282349
    endloop
  endfacet
  facet normal 0.7113716745930139 0.11549828528999591 -0.693260763841285
    outer loop
      vertex -0.12652097642421722 1.1868607997894287 0.7466649413108826
      vertex -0.1703212410211563 1.1611214876174927 0.6974322199821472
      vertex -0.17322780191898346 1.1758275032043457 0.6968997716903687
    endloop
  endfacet
  facet normal 0.7113719868279668 0.11549741762893913 -0.693260588002432
    outer loop
      vertex -0.10670877993106842 1.1607556343078613 0.7626456022262573
      vertex -0.1703212410211563 1.1611214876174927 0.6974322199821472
      vertex -0.12652097642421722 1.1868607997894287 0.7466649413108826
    endloop
  endfacet
  facet normal 0.7113720803724876 0.11549626905233154 -0.6932606833663009
    outer loop
      vertex -0.19343148171901703 1.1402696371078491 0.6702443361282349
      vertex -0.23102712631225586 1.146781325340271 0.6327513456344604
      vertex -0.1703212410211563 1.1611214876174927 0.6974322199821472
    endloop
  endfacet
  facet normal 0.7113723442662658 0.11549405834707324 -0.6932607808751626
    outer loop
      vertex -0.3553454875946045 1.1328070163726807 0.5028570890426636
      vertex -0.23102712631225586 1.146781325340271 0.6327513456344604
      vertex -0.28015419840812683 1.119783639907837 0.5778431296348572
    endloop
  endfacet
  facet normal 0.7113723332518719 0.11549495536123482 -0.6932606427382807
    outer loop
      vertex -0.45359960198402405 1.0788116455078125 0.39304059743881226
      vertex -0.5981690287590027 1.0754462480545044 0.2441335767507553
      vertex -0.3553454875946045 1.1328070163726807 0.5028570890426636
    endloop
  endfacet
  facet normal 0.7113720050074432 0.11549637136032784 -0.6932607436558681
    outer loop
      vertex -0.5981690287590027 1.0754462480545044 0.2441335767507553
      vertex -0.6426709890365601 1.0957192182540894 0.20184646546840668
      vertex -0.5599480271339417 1.115260362625122 0.2899860739707947
    endloop
  endfacet
  facet normal 0.7113720436907741 0.11549662839314584 -0.693260661140546
    outer loop
      vertex -0.7253939509391785 1.0761780738830566 0.11370683461427689
      vertex -0.6426709890365601 1.0957192182540894 0.20184646546840668
      vertex -0.5981690287590027 1.0754462480545044 0.2441335767507553
    endloop
  endfacet
  facet normal 0.7113720975205796 0.11549620511771604 -0.6932606764216311
    outer loop
      vertex -0.5981690287590027 1.0754462480545044 0.2441335767507553
      vertex -0.5599480271339417 1.115260362625122 0.2899860739707947
      vertex -0.47722506523132324 1.1348015069961548 0.37812569737434387
    endloop
  endfacet
  facet normal 0.71137206742449 0.11549630034429748 -0.6932606914393653
    outer loop
      vertex -0.5981690287590027 1.0754462480545044 0.2441335767507553
      vertex -0.47722506523132324 1.1348015069961548 0.37812569737434387
      vertex -0.3553454875946045 1.1328070163726807 0.5028570890426636
    endloop
  endfacet
  facet normal 0.7113720605025202 0.11549639241426342 -0.6932606832034319
    outer loop
      vertex -0.3553454875946045 1.1328070163726807 0.5028570890426636
      vertex -0.47722506523132324 1.1348015069961548 0.37812569737434387
      vertex -0.39450210332870483 1.1543426513671875 0.46626532077789307
    endloop
  endfacet
  facet normal 0.7113720589297792 0.11549638460078931 -0.6932606861189758
    outer loop
      vertex -0.31177911162376404 1.1738837957382202 0.5544049739837646
      vertex -0.3553454875946045 1.1328070163726807 0.5028570890426636
      vertex -0.39450210332870483 1.1543426513671875 0.46626532077789307
    endloop
  endfacet
  facet normal 0.7113723319065803 0.11549539695077586 -0.6932605705512012
    outer loop
      vertex -0.23684026300907135 1.1761934757232666 0.6316863894462585
      vertex -0.233933687210083 1.161487340927124 0.6322188973426819
      vertex -0.3553454875946045 1.1328070163726807 0.5028570890426636
    endloop
  endfacet
  facet normal 0.7113722699793334 0.11549488765896788 -0.6932607189428035
    outer loop
      vertex -0.23684026300907135 1.1761934757232666 0.6316863894462585
      vertex -0.22905614972114563 1.193424940109253 0.6425445675849915
      vertex -0.1761343628168106 1.1905336380004883 0.6963672637939453
    endloop
  endfacet
  facet normal 0.7113723232509812 0.11549603948826064 -0.6932604723875634
    outer loop
      vertex -0.1761343628168106 1.1905336380004883 0.6963672637939453
      vertex -0.14633318781852722 1.2129660844802856 0.730684220790863
      vertex -0.12652097642421722 1.1868607997894287 0.7466649413108826
    endloop
  endfacet
  facet normal 0.7113721876857495 0.11549635259144228 -0.6932605593319614
    outer loop
      vertex -0.22905614972114563 1.193424940109253 0.6425445675849915
      vertex -0.14633318781852722 1.2129660844802856 0.730684220790863
      vertex -0.1761343628168106 1.1905336380004883 0.6963672637939453
    endloop
  endfacet
  facet normal 0.7113722309223263 0.11549492648123216 -0.6932607525525206
    outer loop
      vertex -0.31177911162376404 1.1738837957382202 0.5544049739837646
      vertex -0.22905614972114563 1.193424940109253 0.6425445675849915
      vertex -0.23684026300907135 1.1761934757232666 0.6316863894462585
    endloop
  endfacet
  facet normal 0.7113720940974442 0.11549631629646726 -0.6932606614119708
    outer loop
      vertex -0.23684026300907135 1.1761934757232666 0.6316863894462585
      vertex -0.3553454875946045 1.1328070163726807 0.5028570890426636
      vertex -0.31177911162376404 1.1738837957382202 0.5544049739837646
    endloop
  endfacet
  facet normal 0.7113723862483281 0.11549468460671583 -0.6932606334640349
    outer loop
      vertex -0.17322780191898346 1.1758275032043457 0.6968997716903687
      vertex -0.1761343628168106 1.1905336380004883 0.6963672637939453
      vertex -0.12652097642421722 1.1868607997894287 0.7466649413108826
    endloop
  endfacet
  facet normal 0.7113717571866279 0.11549830480036313 -0.6932606758395081
    outer loop
      vertex -0.23102712631225586 1.146781325340271 0.6327513456344604
      vertex -0.3553454875946045 1.1328070163726807 0.5028570890426636
      vertex -0.233933687210083 1.161487340927124 0.6322188973426819
    endloop
  endfacet
  facet normal -0.7113720562193875 -0.11549648734611392 0.6932606717829229
    outer loop
      vertex -0.32506197690963745 1.1133791208267212 0.6460918188095093
      vertex -0.4062587022781372 1.124983787536621 0.5647071599960327
      vertex -0.37914934754371643 1.100602388381958 0.5884628295898438
    endloop
  endfacet
  facet normal -0.7113720579407133 -0.11549634224543462 0.6932606941902302
    outer loop
      vertex -0.31789618730545044 1.1766425371170044 0.6639844179153442
      vertex -0.4062587022781372 1.124983787536621 0.5647071599960327
      vertex -0.32506197690963745 1.1133791208267212 0.6460918188095093
    endloop
  endfacet
  facet normal -0.7113719612711631 -0.11549661189720979 0.6932607484615614
    outer loop
      vertex -0.4062587022781372 1.124983787536621 0.5647071599960327
      vertex -0.3756321370601654 1.163003921508789 0.602467954158783
      vertex -0.43336808681488037 1.1493653059005737 0.5409514904022217
    endloop
  endfacet
  facet normal -0.7113719612711631 -0.11549661189720979 0.6932607484615614
    outer loop
      vertex -0.4062587022781372 1.124983787536621 0.5647071599960327
      vertex -0.31789618730545044 1.1766425371170044 0.6639844179153442
      vertex -0.3756321370601654 1.163003921508789 0.602467954158783
    endloop
  endfacet
  facet normal -0.711372114571528 -0.1154961921077106 0.6932606610926743
    outer loop
      vertex -0.32506197690963745 1.1133791208267212 0.6460918188095093
      vertex -0.27097460627555847 1.1261558532714844 0.7037208080291748
      vertex -0.2601602375507355 1.1902811527252197 0.7255008816719055
    endloop
  endfacet
  facet normal -0.7113720109906722 -0.11549636033663267 0.6932607393528626
    outer loop
      vertex -0.32506197690963745 1.1133791208267212 0.6460918188095093
      vertex -0.2601602375507355 1.1902811527252197 0.7255008816719055
      vertex -0.31789618730545044 1.1766425371170044 0.6639844179153442
    endloop
  endfacet
  facet normal -0.7113716912522909 -0.11549696107503239 0.6932609673617056
    outer loop
      vertex -0.1826120913028717 1.1778144836425781 0.8029980063438416
      vertex -0.27097460627555847 1.1261558532714844 0.7037208080291748
      vertex -0.21688725054264069 1.1389325857162476 0.7613497376441956
    endloop
  endfacet
  facet normal -0.7113722377526813 -0.11549604255946827 0.6932605596078895
    outer loop
      vertex -0.1826120913028717 1.1778144836425781 0.8029980063438416
      vertex -0.21688725054264069 1.1389325857162476 0.7613497376441956
      vertex -0.1627998948097229 1.1517093181610107 0.8189787268638611
    endloop
  endfacet
  facet normal -0.7113719329025352 -0.11549719919372045 0.6932606797279915
    outer loop
      vertex -0.2024243026971817 1.203919768333435 0.7870173454284668
      vertex -0.2601602375507355 1.1902811527252197 0.7255008816719055
      vertex -0.1826120913028717 1.1778144836425781 0.8029980063438416
    endloop
  endfacet
  facet normal -0.7113719355033028 -0.11549627975617019 0.6932608302369097
    outer loop
      vertex -0.27097460627555847 1.1261558532714844 0.7037208080291748
      vertex -0.1826120913028717 1.1778144836425781 0.8029980063438416
      vertex -0.2601602375507355 1.1902811527252197 0.7255008816719055
    endloop
  endfacet
  facet normal 0.4545704324797124 0.6898860895887303 0.5634029688483879
    outer loop
      vertex -0.13475432991981506 1.156232476234436 0.7908121943473816
      vertex -0.10670877993106842 1.1607556343078613 0.7626456022262573
      vertex -0.12652097642421722 1.1868607997894287 0.7466649413108826
    endloop
  endfacet
  facet normal 0.45456921443980475 0.6898866403329115 0.5634032772124661
    outer loop
      vertex -0.13475432991981506 1.156232476234436 0.7908121943473816
      vertex -0.1826120913028717 1.1778144836425781 0.8029980063438416
      vertex -0.1627998948097229 1.1517093181610107 0.8189787268638611
    endloop
  endfacet
  facet normal 0.45457056830759607 0.6898860192538693 0.5634029453832835
    outer loop
      vertex -0.17437873780727386 1.2084429264068604 0.7588507533073425
      vertex -0.13475432991981506 1.156232476234436 0.7908121943473816
      vertex -0.12652097642421722 1.1868607997894287 0.7466649413108826
    endloop
  endfacet
  facet normal 0.45456911735822125 0.6898857994678714 0.5634043851770622
    outer loop
      vertex -0.13475432991981506 1.156232476234436 0.7908121943473816
      vertex -0.17437873780727386 1.2084429264068604 0.7588507533073425
      vertex -0.1826120913028717 1.1778144836425781 0.8029980063438416
    endloop
  endfacet
  facet normal 0.4545714502542517 0.6898845914413038 0.5634039821527814
    outer loop
      vertex -0.17437873780727386 1.2084429264068604 0.7588507533073425
      vertex -0.2024243026971817 1.203919768333435 0.7870173454284668
      vertex -0.1826120913028717 1.1778144836425781 0.8029980063438416
    endloop
  endfacet
  facet normal 0.45457047122448185 0.6898851783906957 0.5634040533467879
    outer loop
      vertex -0.14633318781852722 1.2129660844802856 0.730684220790863
      vertex -0.17437873780727386 1.2084429264068604 0.7588507533073425
      vertex -0.12652097642421722 1.1868607997894287 0.7466649413108826
    endloop
  endfacet
endsolid beam