solid f3_blank
  facet normal 0.612362793 -0.117763856 0.781756666
    outer loop
      vertex 4.58940704 2.3894496 1.41367582
      vertex 4.54763624 2.35651536 1.44143436
      vertex 4.98269972 1.39546294 0.955869037
    endloop
  endfacet
  facet normal 0.612362793 -0.117763856 0.781756666
    outer loop
      vertex 4.58940704 2.3894496 1.41367582
      vertex 4.98269972 1.39546294 0.955869037
      vertex 5.02447052 1.42839718 0.928110502
    endloop
  endfacet
  facet normal 0.696179971 0.548903999 -0.462642246
    outer loop
      vertex 4.58940704 2.3894496 1.41367582
      vertex 5.02447052 1.42839718 0.928110502
      vertex 4.9754815 1.43781829 0.865569969
    endloop
  endfacet
  facet normal 0.696179971 0.548903999 -0.462642246
    outer loop
      vertex 4.58940704 2.3894496 1.41367582
      vertex 4.9754815 1.43781829 0.865569969
      vertex 4.54041801 2.3988707 1.35113529
    endloop
  endfacet
  facet normal 0.374626826 -0.82754823 -0.418113224
    outer loop
      vertex 5.02447052 1.42839718 0.928110502
      vertex 4.98269972 1.39546294 0.955869037
      vertex 4.9337107 1.40488405 0.893328504
    endloop
  endfacet
  facet normal 0.374626826 -0.82754823 -0.418113224
    outer loop
      vertex 5.02447052 1.42839718 0.928110502
      vertex 4.9337107 1.40488405 0.893328504
      vertex 4.9754815 1.43781829 0.865569969
    endloop
  endfacet
  facet normal -0.696179971 -0.548903999 0.462642246
    outer loop
      vertex 4.98269972 1.39546294 0.955869037
      vertex 4.54763624 2.35651536 1.44143436
      vertex 4.49864721 2.36593646 1.37889383
    endloop
  endfacet
  facet normal -0.696179971 -0.548903999 0.462642246
    outer loop
      vertex 4.98269972 1.39546294 0.955869037
      vertex 4.49864721 2.36593646 1.37889383
      vertex 4.9337107 1.40488405 0.893328504
    endloop
  endfacet
  facet normal -0.374626826 0.82754823 0.418113224
    outer loop
      vertex 4.54763624 2.35651536 1.44143436
      vertex 4.58940704 2.3894496 1.41367582
      vertex 4.54041801 2.3988707 1.35113529
    endloop
  endfacet
  facet normal -0.374626826 0.82754823 0.418113224
    outer loop
      vertex 4.54763624 2.35651536 1.44143436
      vertex 4.54041801 2.3988707 1.35113529
      vertex 4.49864721 2.36593646 1.37889383
    endloop
  endfacet
  facet normal -0.612362793 0.117763856 -0.781756666
    outer loop
      vertex 4.54041801 2.3988707 1.35113529
      vertex 4.9754815 1.43781829 0.865569969
      vertex 4.9337107 1.40488405 0.893328504
    endloop
  endfacet
  facet normal -0.612362793 0.117763856 -0.781756666
    outer loop
      vertex 4.54041801 2.3988707 1.35113529
      vertex 4.9337107 1.40488405 0.893328504
      vertex 4.49864721 2.36593646 1.37889383
    endloop
  endfacet
endsolid f3_blank
