solid a24_blank
  facet normal -0.581406671 0.403887337 0.706286983
    outer loop
      vertex -0.349321593 -1.57864433 1.2964222
      vertex -0.322394223 -1.61253696 1.33796984
      vertex 0.0424179622 -1.22572021 1.41707912
    endloop
  endfacet
  facet normal -0.581406671 0.403887337 0.706286983
    outer loop
      vertex -0.349321593 -1.57864433 1.2964222
      vertex 0.0424179622 -1.22572021 1.41707912
      vertex 0.0154905913 -1.19182758 1.37553148
    endloop
  endfacet
  facet normal -0.448789515 0.56487716 -0.692460659
    outer loop
      vertex -0.349321593 -1.57864433 1.2964222
      vertex 0.0154905913 -1.19182758 1.37553148
      vertex 0.062003125 -1.22413857 1.31902852
    endloop
  endfacet
  facet normal -0.448789515 0.56487716 -0.692460659
    outer loop
      vertex -0.349321593 -1.57864433 1.2964222
      vertex 0.062003125 -1.22413857 1.31902852
      vertex -0.30280906 -1.61095532 1.23991925
    endloop
  endfacet
  facet normal 0.678641477 0.719575439 0.147162947
    outer loop
      vertex 0.0154905913 -1.19182758 1.37553148
      vertex 0.0424179622 -1.22572021 1.41707912
      vertex 0.0889304959 -1.2580312 1.36057616
    endloop
  endfacet
  facet normal 0.678641477 0.719575439 0.147162947
    outer loop
      vertex 0.0154905913 -1.19182758 1.37553148
      vertex 0.0889304959 -1.2580312 1.36057616
      vertex 0.062003125 -1.22413857 1.31902852
    endloop
  endfacet
  facet normal 0.448789515 -0.56487716 0.692460659
    outer loop
      vertex 0.0424179622 -1.22572021 1.41707912
      vertex -0.322394223 -1.61253696 1.33796984
      vertex -0.275881689 -1.64484795 1.28146689
    endloop
  endfacet
  facet normal 0.448789515 -0.56487716 0.692460659
    outer loop
      vertex 0.0424179622 -1.22572021 1.41707912
      vertex -0.275881689 -1.64484795 1.28146689
      vertex 0.0889304959 -1.2580312 1.36057616
    endloop
  endfacet
  facet normal -0.678641477 -0.719575439 -0.147162947
    outer loop
      vertex -0.322394223 -1.61253696 1.33796984
      vertex -0.349321593 -1.57864433 1.2964222
      vertex -0.30280906 -1.61095532 1.23991925
    endloop
  endfacet
  facet normal -0.678641477 -0.719575439 -0.147162947
    outer loop
      vertex -0.322394223 -1.61253696 1.33796984
      vertex -0.30280906 -1.61095532 1.23991925
      vertex -0.275881689 -1.64484795 1.28146689
    endloop
  endfacet
  facet normal 0.581406671 -0.403887337 -0.706286983
    outer loop
      vertex -0.30280906 -1.61095532 1.23991925
      vertex 0.062003125 -1.22413857 1.31902852
      vertex 0.0889304959 -1.2580312 1.36057616
    endloop
  endfacet
  facet normal 0.581406671 -0.403887337 -0.706286983
    outer loop
      vertex -0.30280906 -1.61095532 1.23991925
      vertex 0.0889304959 -1.2580312 1.36057616
      vertex -0.275881689 -1.64484795 1.28146689
    endloop
  endfacet
endsolid a24_blank
