solid d21_features
  facet normal -0.166788801 0.97963989 -0.111746057
    outer loop
      vertex 0.968751163 1.04057021 1.45952001
      vertex 0.9677491 1.04031959 1.45881858
      vertex 0.910471369 1.03991797 1.5407887
    endloop
  endfacet
  facet normal -0.166788801 0.97963989 -0.111746057
    outer loop
      vertex 0.968751163 1.04057021 1.45952001
      vertex 0.910471369 1.03991797 1.5407887
      vertex 0.911473432 1.04016858 1.54149013
    endloop
  endfacet
  facet normal 0.572777309 0.00401623701 -0.81970118
    outer loop
      vertex 0.9687736 1.03737029 1.45952001
      vertex 0.9677491 1.04031959 1.45881858
      vertex 0.968751163 1.04057021 1.45952001
    endloop
  endfacet
  facet normal -0.572777309 -0.00401623701 0.81970118
    outer loop
      vertex 0.911495869 1.03696866 1.54149013
      vertex 0.911473432 1.04016858 1.54149013
      vertex 0.910471369 1.03991797 1.5407887
    endloop
  endfacet
  facet normal -0.46122039 0.828256037 -0.318225846
    outer loop
      vertex 0.9677491 1.04031959 1.45881858
      vertex 0.966903008 1.03961997 1.45822393
      vertex 0.909625277 1.03921834 1.54019405
    endloop
  endfacet
  facet normal -0.46122039 0.828256037 -0.318225846
    outer loop
      vertex 0.9677491 1.04031959 1.45881858
      vertex 0.909625277 1.03921834 1.54019405
      vertex 0.910471369 1.03991797 1.5407887
    endloop
  endfacet
  facet normal 0.572777309 0.00401623701 -0.81970118
    outer loop
      vertex 0.9687736 1.03737029 1.45952001
      vertex 0.966903008 1.03961997 1.45822393
      vertex 0.9677491 1.04031959 1.45881858
    endloop
  endfacet
  facet normal -0.572777309 -0.00401623701 0.81970118
    outer loop
      vertex 0.911495869 1.03696866 1.54149013
      vertex 0.910471369 1.03991797 1.5407887
      vertex 0.909625277 1.03921834 1.54019405
    endloop
  endfacet
  facet normal -0.685435356 0.550777711 -0.476258634
    outer loop
      vertex 0.966903008 1.03961997 1.45822393
      vertex 0.966341697 1.03857785 1.4578266
      vertex 0.909063966 1.03817623 1.53979672
    endloop
  endfacet
  facet normal -0.685435356 0.550777711 -0.476258634
    outer loop
      vertex 0.966903008 1.03961997 1.45822393
      vertex 0.909063966 1.03817623 1.53979672
      vertex 0.909625277 1.03921834 1.54019405
    endloop
  endfacet
  facet normal 0.572777309 0.00401623701 -0.81970118
    outer loop
      vertex 0.9687736 1.03737029 1.45952001
      vertex 0.966341697 1.03857785 1.4578266
      vertex 0.966903008 1.03961997 1.45822393
    endloop
  endfacet
  facet normal -0.572777309 -0.00401623701 0.81970118
    outer loop
      vertex 0.911495869 1.03696866 1.54149013
      vertex 0.909625277 1.03921834 1.54019405
      vertex 0.909063966 1.03817623 1.53979672
    endloop
  endfacet
  facet normal -0.805299002 0.18944847 -0.561785363
    outer loop
      vertex 0.966341697 1.03857785 1.4578266
      vertex 0.966150621 1.0373519 1.45768708
      vertex 0.90887289 1.03695027 1.5396572
    endloop
  endfacet
  facet normal -0.805299002 0.18944847 -0.561785363
    outer loop
      vertex 0.966341697 1.03857785 1.4578266
      vertex 0.90887289 1.03695027 1.5396572
      vertex 0.909063966 1.03817623 1.53979672
    endloop
  endfacet
  facet normal 0.572777309 0.00401623701 -0.81970118
    outer loop
      vertex 0.9687736 1.03737029 1.45952001
      vertex 0.966150621 1.0373519 1.45768708
      vertex 0.966341697 1.03857785 1.4578266
    endloop
  endfacet
  facet normal -0.572777309 -0.00401623701 0.81970118
    outer loop
      vertex 0.911495869 1.03696866 1.54149013
      vertex 0.909063966 1.03817623 1.53979672
      vertex 0.90887289 1.03695027 1.5396572
    endloop
  endfacet
  facet normal -0.802563175 -0.200722582 -0.561785363
    outer loop
      vertex 0.966150621 1.0373519 1.45768708
      vertex 0.96635887 1.03612874 1.4578266
      vertex 0.909081139 1.03572711 1.53979672
    endloop
  endfacet
  facet normal -0.802563175 -0.200722582 -0.561785363
    outer loop
      vertex 0.966150621 1.0373519 1.45768708
      vertex 0.909081139 1.03572711 1.53979672
      vertex 0.90887289 1.03695027 1.5396572
    endloop
  endfacet
  facet normal 0.572777309 0.00401623701 -0.81970118
    outer loop
      vertex 0.9687736 1.03737029 1.45952001
      vertex 0.96635887 1.03612874 1.4578266
      vertex 0.966150621 1.0373519 1.45768708
    endloop
  endfacet
  facet normal -0.572777309 -0.00401623701 0.81970118
    outer loop
      vertex 0.911495869 1.03696866 1.54149013
      vertex 0.90887289 1.03695027 1.5396572
      vertex 0.909081139 1.03572711 1.53979672
    endloop
  endfacet
  facet normal -0.67764438 -0.560335441 -0.476258634
    outer loop
      vertex 0.96635887 1.03612874 1.4578266
      vertex 0.966934739 1.0350946 1.45822393
      vertex 0.909657009 1.03469297 1.54019405
    endloop
  endfacet
  facet normal -0.67764438 -0.560335441 -0.476258634
    outer loop
      vertex 0.96635887 1.03612874 1.4578266
      vertex 0.909657009 1.03469297 1.54019405
      vertex 0.909081139 1.03572711 1.53979672
    endloop
  endfacet
  facet normal 0.572777309 0.00401623701 -0.81970118
    outer loop
      vertex 0.9687736 1.03737029 1.45952001
      vertex 0.966934739 1.0350946 1.45822393
      vertex 0.96635887 1.03612874 1.4578266
    endloop
  endfacet
  facet normal -0.572777309 -0.00401623701 0.81970118
    outer loop
      vertex 0.911495869 1.03696866 1.54149013
      vertex 0.909081139 1.03572711 1.53979672
      vertex 0.909657009 1.03469297 1.54019405
    endloop
  endfacet
  facet normal -0.449560372 -0.834642309 -0.318225846
    outer loop
      vertex 0.966934739 1.0350946 1.45822393
      vertex 0.967790559 1.03440691 1.45881858
      vertex 0.910512828 1.03400528 1.5407887
    endloop
  endfacet
  facet normal -0.449560372 -0.834642309 -0.318225846
    outer loop
      vertex 0.966934739 1.0350946 1.45822393
      vertex 0.910512828 1.03400528 1.5407887
      vertex 0.909657009 1.03469297 1.54019405
    endloop
  endfacet
  facet normal 0.572777309 0.00401623701 -0.81970118
    outer loop
      vertex 0.9687736 1.03737029 1.45952001
      vertex 0.967790559 1.03440691 1.45881858
      vertex 0.966934739 1.0350946 1.45822393
    endloop
  endfacet
  facet normal -0.572777309 -0.00401623701 0.81970118
    outer loop
      vertex 0.911495869 1.03696866 1.54149013
      vertex 0.909657009 1.03469297 1.54019405
      vertex 0.910512828 1.03400528 1.5407887
    endloop
  endfacet
  facet normal -0.153034871 -0.981882451 -0.111746057
    outer loop
      vertex 0.967790559 1.03440691 1.45881858
      vertex 0.968796038 1.03417037 1.45952001
      vertex 0.911518307 1.03376874 1.54149013
    endloop
  endfacet
  facet normal -0.153034871 -0.981882451 -0.111746057
    outer loop
      vertex 0.967790559 1.03440691 1.45881858
      vertex 0.911518307 1.03376874 1.54149013
      vertex 0.910512828 1.03400528 1.5407887
    endloop
  endfacet
  facet normal 0.572777309 0.00401623701 -0.81970118
    outer loop
      vertex 0.9687736 1.03737029 1.45952001
      vertex 0.968796038 1.03417037 1.45952001
      vertex 0.967790559 1.03440691 1.45881858
    endloop
  endfacet
  facet normal -0.572777309 -0.00401623701 0.81970118
    outer loop
      vertex 0.911495869 1.03696866 1.54149013
      vertex 0.910512828 1.03400528 1.5407887
      vertex 0.911518307 1.03376874 1.54149013
    endloop
  endfacet
  facet normal 0.166788801 -0.97963989 0.111746057
    outer loop
      vertex 0.968796038 1.03417037 1.45952001
      vertex 0.9697981 1.03442098 1.46022144
      vertex 0.91252037 1.03401936 1.54219156
    endloop
  endfacet
  facet normal 0.166788801 -0.97963989 0.111746057
    outer loop
      vertex 0.968796038 1.03417037 1.45952001
      vertex 0.91252037 1.03401936 1.54219156
      vertex 0.911518307 1.03376874 1.54149013
    endloop
  endfacet
  facet normal 0.572777309 0.00401623701 -0.81970118
    outer loop
      vertex 0.9687736 1.03737029 1.45952001
      vertex 0.9697981 1.03442098 1.46022144
      vertex 0.968796038 1.03417037 1.45952001
    endloop
  endfacet
  facet normal -0.572777309 -0.00401623701 0.81970118
    outer loop
      vertex 0.911495869 1.03696866 1.54149013
      vertex 0.911518307 1.03376874 1.54149013
      vertex 0.91252037 1.03401936 1.54219156
    endloop
  endfacet
  facet normal 0.46122039 -0.828256037 0.318225846
    outer loop
      vertex 0.9697981 1.03442098 1.46022144
      vertex 0.970644192 1.03512061 1.46081609
      vertex 0.913366461 1.03471898 1.54278621
    endloop
  endfacet
  facet normal 0.46122039 -0.828256037 0.318225846
    outer loop
      vertex 0.9697981 1.03442098 1.46022144
      vertex 0.913366461 1.03471898 1.54278621
      vertex 0.91252037 1.03401936 1.54219156
    endloop
  endfacet
  facet normal 0.572777309 0.00401623701 -0.81970118
    outer loop
      vertex 0.9687736 1.03737029 1.45952001
      vertex 0.970644192 1.03512061 1.46081609
      vertex 0.9697981 1.03442098 1.46022144
    endloop
  endfacet
  facet normal -0.572777309 -0.00401623701 0.81970118
    outer loop
      vertex 0.911495869 1.03696866 1.54149013
      vertex 0.91252037 1.03401936 1.54219156
      vertex 0.913366461 1.03471898 1.54278621
    endloop
  endfacet
  facet normal 0.685435356 -0.550777711 0.476258634
    outer loop
      vertex 0.970644192 1.03512061 1.46081609
      vertex 0.971205504 1.03616272 1.46121342
      vertex 0.913927773 1.0357611 1.54318354
    endloop
  endfacet
  facet normal 0.685435356 -0.550777711 0.476258634
    outer loop
      vertex 0.970644192 1.03512061 1.46081609
      vertex 0.913927773 1.0357611 1.54318354
      vertex 0.913366461 1.03471898 1.54278621
    endloop
  endfacet
  facet normal 0.572777309 0.00401623701 -0.81970118
    outer loop
      vertex 0.9687736 1.03737029 1.45952001
      vertex 0.971205504 1.03616272 1.46121342
      vertex 0.970644192 1.03512061 1.46081609
    endloop
  endfacet
  facet normal -0.572777309 -0.00401623701 0.81970118
    outer loop
      vertex 0.911495869 1.03696866 1.54149013
      vertex 0.913366461 1.03471898 1.54278621
      vertex 0.913927773 1.0357611 1.54318354
    endloop
  endfacet
  facet normal 0.805299002 -0.18944847 0.561785363
    outer loop
      vertex 0.971205504 1.03616272 1.46121342
      vertex 0.97139658 1.03738868 1.46135294
      vertex 0.914118849 1.03698706 1.54332306
    endloop
  endfacet
  facet normal 0.805299002 -0.18944847 0.561785363
    outer loop
      vertex 0.971205504 1.03616272 1.46121342
      vertex 0.914118849 1.03698706 1.54332306
      vertex 0.913927773 1.0357611 1.54318354
    endloop
  endfacet
  facet normal 0.572777309 0.00401623701 -0.81970118
    outer loop
      vertex 0.9687736 1.03737029 1.45952001
      vertex 0.97139658 1.03738868 1.46135294
      vertex 0.971205504 1.03616272 1.46121342
    endloop
  endfacet
  facet normal -0.572777309 -0.00401623701 0.81970118
    outer loop
      vertex 0.911495869 1.03696866 1.54149013
      vertex 0.913927773 1.0357611 1.54318354
      vertex 0.914118849 1.03698706 1.54332306
    endloop
  endfacet
  facet normal 0.802563175 0.200722582 0.561785363
    outer loop
      vertex 0.97139658 1.03738868 1.46135294
      vertex 0.971188331 1.03861184 1.46121342
      vertex 0.9139106 1.03821021 1.54318354
    endloop
  endfacet
  facet normal 0.802563175 0.200722582 0.561785363
    outer loop
      vertex 0.97139658 1.03738868 1.46135294
      vertex 0.9139106 1.03821021 1.54318354
      vertex 0.914118849 1.03698706 1.54332306
    endloop
  endfacet
  facet normal 0.572777309 0.00401623701 -0.81970118
    outer loop
      vertex 0.9687736 1.03737029 1.45952001
      vertex 0.971188331 1.03861184 1.46121342
      vertex 0.97139658 1.03738868 1.46135294
    endloop
  endfacet
  facet normal -0.572777309 -0.00401623701 0.81970118
    outer loop
      vertex 0.911495869 1.03696866 1.54149013
      vertex 0.914118849 1.03698706 1.54332306
      vertex 0.9139106 1.03821021 1.54318354
    endloop
  endfacet
  facet normal 0.67764438 0.560335441 0.476258634
    outer loop
      vertex 0.971188331 1.03861184 1.46121342
      vertex 0.970612461 1.03964598 1.46081609
      vertex 0.91333473 1.03924435 1.54278621
    endloop
  endfacet
  facet normal 0.67764438 0.560335441 0.476258634
    outer loop
      vertex 0.971188331 1.03861184 1.46121342
      vertex 0.91333473 1.03924435 1.54278621
      vertex 0.9139106 1.03821021 1.54318354
    endloop
  endfacet
  facet normal 0.572777309 0.00401623701 -0.81970118
    outer loop
      vertex 0.9687736 1.03737029 1.45952001
      vertex 0.970612461 1.03964598 1.46081609
      vertex 0.971188331 1.03861184 1.46121342
    endloop
  endfacet
  facet normal -0.572777309 -0.00401623701 0.81970118
    outer loop
      vertex 0.911495869 1.03696866 1.54149013
      vertex 0.9139106 1.03821021 1.54318354
      vertex 0.91333473 1.03924435 1.54278621
    endloop
  endfacet
  facet normal 0.449560372 0.834642309 0.318225846
    outer loop
      vertex 0.970612461 1.03964598 1.46081609
      vertex 0.969756642 1.04033367 1.46022144
      vertex 0.912478911 1.03993204 1.54219156
    endloop
  endfacet
  facet normal 0.449560372 0.834642309 0.318225846
    outer loop
      vertex 0.970612461 1.03964598 1.46081609
      vertex 0.912478911 1.03993204 1.54219156
      vertex 0.91333473 1.03924435 1.54278621
    endloop
  endfacet
  facet normal 0.572777309 0.00401623701 -0.81970118
    outer loop
      vertex 0.9687736 1.03737029 1.45952001
      vertex 0.969756642 1.04033367 1.46022144
      vertex 0.970612461 1.03964598 1.46081609
    endloop
  endfacet
  facet normal -0.572777309 -0.00401623701 0.81970118
    outer loop
      vertex 0.911495869 1.03696866 1.54149013
      vertex 0.91333473 1.03924435 1.54278621
      vertex 0.912478911 1.03993204 1.54219156
    endloop
  endfacet
  facet normal 0.153034871 0.981882451 0.111746057
    outer loop
      vertex 0.969756642 1.04033367 1.46022144
      vertex 0.968751163 1.04057021 1.45952001
      vertex 0.911473432 1.04016858 1.54149013
    endloop
  endfacet
  facet normal 0.153034871 0.981882451 0.111746057
    outer loop
      vertex 0.969756642 1.04033367 1.46022144
      vertex 0.911473432 1.04016858 1.54149013
      vertex 0.912478911 1.03993204 1.54219156
    endloop
  endfacet
  facet normal 0.572777309 0.00401623701 -0.81970118
    outer loop
      vertex 0.9687736 1.03737029 1.45952001
      vertex 0.968751163 1.04057021 1.45952001
      vertex 0.969756642 1.04033367 1.46022144
    endloop
  endfacet
  facet normal -0.572777309 -0.00401623701 0.81970118
    outer loop
      vertex 0.911495869 1.03696866 1.54149013
      vertex 0.912478911 1.03993204 1.54219156
      vertex 0.911473432 1.04016858 1.54149013
    endloop
  endfacet
  facet normal -0.166788801 0.97963989 -0.111746057
    outer loop
      vertex 0.944170747 1.03976067 1.44234015
      vertex 0.943168684 1.03951005 1.44163871
      vertex 0.885890953 1.03910843 1.52360883
    endloop
  endfacet
  facet normal -0.166788801 0.97963989 -0.111746057
    outer loop
      vertex 0.944170747 1.03976067 1.44234015
      vertex 0.885890953 1.03910843 1.52360883
      vertex 0.886893016 1.03935905 1.52431026
    endloop
  endfacet
  facet normal 0.572777309 0.00401623701 -0.81970118
    outer loop
      vertex 0.944193184 1.03656075 1.44234015
      vertex 0.943168684 1.03951005 1.44163871
      vertex 0.944170747 1.03976067 1.44234015
    endloop
  endfacet
  facet normal -0.572777309 -0.00401623701 0.81970118
    outer loop
      vertex 0.886915453 1.03615913 1.52431026
      vertex 0.886893016 1.03935905 1.52431026
      vertex 0.885890953 1.03910843 1.52360883
    endloop
  endfacet
  facet normal -0.46122039 0.828256037 -0.318225846
    outer loop
      vertex 0.943168684 1.03951005 1.44163871
      vertex 0.942322592 1.03881043 1.44104407
      vertex 0.885044861 1.03840881 1.52301418
    endloop
  endfacet
  facet normal -0.46122039 0.828256037 -0.318225846
    outer loop
      vertex 0.943168684 1.03951005 1.44163871
      vertex 0.885044861 1.03840881 1.52301418
      vertex 0.885890953 1.03910843 1.52360883
    endloop
  endfacet
  facet normal 0.572777309 0.00401623701 -0.81970118
    outer loop
      vertex 0.944193184 1.03656075 1.44234015
      vertex 0.942322592 1.03881043 1.44104407
      vertex 0.943168684 1.03951005 1.44163871
    endloop
  endfacet
  facet normal -0.572777309 -0.00401623701 0.81970118
    outer loop
      vertex 0.886915453 1.03615913 1.52431026
      vertex 0.885890953 1.03910843 1.52360883
      vertex 0.885044861 1.03840881 1.52301418
    endloop
  endfacet
  facet normal -0.685435356 0.550777711 -0.476258634
    outer loop
      vertex 0.942322592 1.03881043 1.44104407
      vertex 0.941761281 1.03776831 1.44064674
      vertex 0.88448355 1.03736669 1.52261686
    endloop
  endfacet
  facet normal -0.685435356 0.550777711 -0.476258634
    outer loop
      vertex 0.942322592 1.03881043 1.44104407
      vertex 0.88448355 1.03736669 1.52261686
      vertex 0.885044861 1.03840881 1.52301418
    endloop
  endfacet
  facet normal 0.572777309 0.00401623701 -0.81970118
    outer loop
      vertex 0.944193184 1.03656075 1.44234015
      vertex 0.941761281 1.03776831 1.44064674
      vertex 0.942322592 1.03881043 1.44104407
    endloop
  endfacet
  facet normal -0.572777309 -0.00401623701 0.81970118
    outer loop
      vertex 0.886915453 1.03615913 1.52431026
      vertex 0.885044861 1.03840881 1.52301418
      vertex 0.88448355 1.03736669 1.52261686
    endloop
  endfacet
  facet normal -0.805299002 0.18944847 -0.561785363
    outer loop
      vertex 0.941761281 1.03776831 1.44064674
      vertex 0.941570205 1.03654236 1.44050721
      vertex 0.884292474 1.03614073 1.52247733
    endloop
  endfacet
  facet normal -0.805299002 0.18944847 -0.561785363
    outer loop
      vertex 0.941761281 1.03776831 1.44064674
      vertex 0.884292474 1.03614073 1.52247733
      vertex 0.88448355 1.03736669 1.52261686
    endloop
  endfacet
  facet normal 0.572777309 0.00401623701 -0.81970118
    outer loop
      vertex 0.944193184 1.03656075 1.44234015
      vertex 0.941570205 1.03654236 1.44050721
      vertex 0.941761281 1.03776831 1.44064674
    endloop
  endfacet
  facet normal -0.572777309 -0.00401623701 0.81970118
    outer loop
      vertex 0.886915453 1.03615913 1.52431026
      vertex 0.88448355 1.03736669 1.52261686
      vertex 0.884292474 1.03614073 1.52247733
    endloop
  endfacet
  facet normal -0.802563175 -0.200722582 -0.561785363
    outer loop
      vertex 0.941570205 1.03654236 1.44050721
      vertex 0.941778453 1.0353192 1.44064674
      vertex 0.884500723 1.03491758 1.52261686
    endloop
  endfacet
  facet normal -0.802563175 -0.200722582 -0.561785363
    outer loop
      vertex 0.941570205 1.03654236 1.44050721
      vertex 0.884500723 1.03491758 1.52261686
      vertex 0.884292474 1.03614073 1.52247733
    endloop
  endfacet
  facet normal 0.572777309 0.00401623701 -0.81970118
    outer loop
      vertex 0.944193184 1.03656075 1.44234015
      vertex 0.941778453 1.0353192 1.44064674
      vertex 0.941570205 1.03654236 1.44050721
    endloop
  endfacet
  facet normal -0.572777309 -0.00401623701 0.81970118
    outer loop
      vertex 0.886915453 1.03615913 1.52431026
      vertex 0.884292474 1.03614073 1.52247733
      vertex 0.884500723 1.03491758 1.52261686
    endloop
  endfacet
  facet normal -0.67764438 -0.560335441 -0.476258634
    outer loop
      vertex 0.941778453 1.0353192 1.44064674
      vertex 0.942354323 1.03428506 1.44104407
      vertex 0.885076592 1.03388343 1.52301418
    endloop
  endfacet
  facet normal -0.67764438 -0.560335441 -0.476258634
    outer loop
      vertex 0.941778453 1.0353192 1.44064674
      vertex 0.885076592 1.03388343 1.52301418
      vertex 0.884500723 1.03491758 1.52261686
    endloop
  endfacet
  facet normal 0.572777309 0.00401623701 -0.81970118
    outer loop
      vertex 0.944193184 1.03656075 1.44234015
      vertex 0.942354323 1.03428506 1.44104407
      vertex 0.941778453 1.0353192 1.44064674
    endloop
  endfacet
  facet normal -0.572777309 -0.00401623701 0.81970118
    outer loop
      vertex 0.886915453 1.03615913 1.52431026
      vertex 0.884500723 1.03491758 1.52261686
      vertex 0.885076592 1.03388343 1.52301418
    endloop
  endfacet
  facet normal -0.449560372 -0.834642309 -0.318225846
    outer loop
      vertex 0.942354323 1.03428506 1.44104407
      vertex 0.943210143 1.03359737 1.44163871
      vertex 0.885932412 1.03319575 1.52360883
    endloop
  endfacet
  facet normal -0.449560372 -0.834642309 -0.318225846
    outer loop
      vertex 0.942354323 1.03428506 1.44104407
      vertex 0.885932412 1.03319575 1.52360883
      vertex 0.885076592 1.03388343 1.52301418
    endloop
  endfacet
  facet normal 0.572777309 0.00401623701 -0.81970118
    outer loop
      vertex 0.944193184 1.03656075 1.44234015
      vertex 0.943210143 1.03359737 1.44163871
      vertex 0.942354323 1.03428506 1.44104407
    endloop
  endfacet
  facet normal -0.572777309 -0.00401623701 0.81970118
    outer loop
      vertex 0.886915453 1.03615913 1.52431026
      vertex 0.885076592 1.03388343 1.52301418
      vertex 0.885932412 1.03319575 1.52360883
    endloop
  endfacet
  facet normal -0.153034871 -0.981882451 -0.111746057
    outer loop
      vertex 0.943210143 1.03359737 1.44163871
      vertex 0.944215621 1.03336083 1.44234015
      vertex 0.88693789 1.0329592 1.52431026
    endloop
  endfacet
  facet normal -0.153034871 -0.981882451 -0.111746057
    outer loop
      vertex 0.943210143 1.03359737 1.44163871
      vertex 0.88693789 1.0329592 1.52431026
      vertex 0.885932412 1.03319575 1.52360883
    endloop
  endfacet
  facet normal 0.572777309 0.00401623701 -0.81970118
    outer loop
      vertex 0.944193184 1.03656075 1.44234015
      vertex 0.944215621 1.03336083 1.44234015
      vertex 0.943210143 1.03359737 1.44163871
    endloop
  endfacet
  facet normal -0.572777309 -0.00401623701 0.81970118
    outer loop
      vertex 0.886915453 1.03615913 1.52431026
      vertex 0.885932412 1.03319575 1.52360883
      vertex 0.88693789 1.0329592 1.52431026
    endloop
  endfacet
  facet normal 0.166788801 -0.97963989 0.111746057
    outer loop
      vertex 0.944215621 1.03336083 1.44234015
      vertex 0.945217684 1.03361145 1.44304158
      vertex 0.887939953 1.03320982 1.5250117
    endloop
  endfacet
  facet normal 0.166788801 -0.97963989 0.111746057
    outer loop
      vertex 0.944215621 1.03336083 1.44234015
      vertex 0.887939953 1.03320982 1.5250117
      vertex 0.88693789 1.0329592 1.52431026
    endloop
  endfacet
  facet normal 0.572777309 0.00401623701 -0.81970118
    outer loop
      vertex 0.944193184 1.03656075 1.44234015
      vertex 0.945217684 1.03361145 1.44304158
      vertex 0.944215621 1.03336083 1.44234015
    endloop
  endfacet
  facet normal -0.572777309 -0.00401623701 0.81970118
    outer loop
      vertex 0.886915453 1.03615913 1.52431026
      vertex 0.88693789 1.0329592 1.52431026
      vertex 0.887939953 1.03320982 1.5250117
    endloop
  endfacet
  facet normal 0.46122039 -0.828256037 0.318225846
    outer loop
      vertex 0.945217684 1.03361145 1.44304158
      vertex 0.946063776 1.03431107 1.44363622
      vertex 0.888786045 1.03390944 1.52560634
    endloop
  endfacet
  facet normal 0.46122039 -0.828256037 0.318225846
    outer loop
      vertex 0.945217684 1.03361145 1.44304158
      vertex 0.888786045 1.03390944 1.52560634
      vertex 0.887939953 1.03320982 1.5250117
    endloop
  endfacet
  facet normal 0.572777309 0.00401623701 -0.81970118
    outer loop
      vertex 0.944193184 1.03656075 1.44234015
      vertex 0.946063776 1.03431107 1.44363622
      vertex 0.945217684 1.03361145 1.44304158
    endloop
  endfacet
  facet normal -0.572777309 -0.00401623701 0.81970118
    outer loop
      vertex 0.886915453 1.03615913 1.52431026
      vertex 0.887939953 1.03320982 1.5250117
      vertex 0.888786045 1.03390944 1.52560634
    endloop
  endfacet
  facet normal 0.685435356 -0.550777711 0.476258634
    outer loop
      vertex 0.946063776 1.03431107 1.44363622
      vertex 0.946625087 1.03535318 1.44403355
      vertex 0.889347356 1.03495156 1.52600367
    endloop
  endfacet
  facet normal 0.685435356 -0.550777711 0.476258634
    outer loop
      vertex 0.946063776 1.03431107 1.44363622
      vertex 0.889347356 1.03495156 1.52600367
      vertex 0.888786045 1.03390944 1.52560634
    endloop
  endfacet
  facet normal 0.572777309 0.00401623701 -0.81970118
    outer loop
      vertex 0.944193184 1.03656075 1.44234015
      vertex 0.946625087 1.03535318 1.44403355
      vertex 0.946063776 1.03431107 1.44363622
    endloop
  endfacet
  facet normal -0.572777309 -0.00401623701 0.81970118
    outer loop
      vertex 0.886915453 1.03615913 1.52431026
      vertex 0.888786045 1.03390944 1.52560634
      vertex 0.889347356 1.03495156 1.52600367
    endloop
  endfacet
  facet normal 0.805299002 -0.18944847 0.561785363
    outer loop
      vertex 0.946625087 1.03535318 1.44403355
      vertex 0.946816163 1.03657914 1.44417308
      vertex 0.889538432 1.03617752 1.5261432
    endloop
  endfacet
  facet normal 0.805299002 -0.18944847 0.561785363
    outer loop
      vertex 0.946625087 1.03535318 1.44403355
      vertex 0.889538432 1.03617752 1.5261432
      vertex 0.889347356 1.03495156 1.52600367
    endloop
  endfacet
  facet normal 0.572777309 0.00401623701 -0.81970118
    outer loop
      vertex 0.944193184 1.03656075 1.44234015
      vertex 0.946816163 1.03657914 1.44417308
      vertex 0.946625087 1.03535318 1.44403355
    endloop
  endfacet
  facet normal -0.572777309 -0.00401623701 0.81970118
    outer loop
      vertex 0.886915453 1.03615913 1.52431026
      vertex 0.889347356 1.03495156 1.52600367
      vertex 0.889538432 1.03617752 1.5261432
    endloop
  endfacet
  facet normal 0.802563175 0.200722582 0.561785363
    outer loop
      vertex 0.946816163 1.03657914 1.44417308
      vertex 0.946607914 1.0378023 1.44403355
      vertex 0.889330183 1.03740067 1.52600367
    endloop
  endfacet
  facet normal 0.802563175 0.200722582 0.561785363
    outer loop
      vertex 0.946816163 1.03657914 1.44417308
      vertex 0.889330183 1.03740067 1.52600367
      vertex 0.889538432 1.03617752 1.5261432
    endloop
  endfacet
  facet normal 0.572777309 0.00401623701 -0.81970118
    outer loop
      vertex 0.944193184 1.03656075 1.44234015
      vertex 0.946607914 1.0378023 1.44403355
      vertex 0.946816163 1.03657914 1.44417308
    endloop
  endfacet
  facet normal -0.572777309 -0.00401623701 0.81970118
    outer loop
      vertex 0.886915453 1.03615913 1.52431026
      vertex 0.889538432 1.03617752 1.5261432
      vertex 0.889330183 1.03740067 1.52600367
    endloop
  endfacet
  facet normal 0.67764438 0.560335441 0.476258634
    outer loop
      vertex 0.946607914 1.0378023 1.44403355
      vertex 0.946032045 1.03883644 1.44363622
      vertex 0.888754314 1.03843482 1.52560634
    endloop
  endfacet
  facet normal 0.67764438 0.560335441 0.476258634
    outer loop
      vertex 0.946607914 1.0378023 1.44403355
      vertex 0.888754314 1.03843482 1.52560634
      vertex 0.889330183 1.03740067 1.52600367
    endloop
  endfacet
  facet normal 0.572777309 0.00401623701 -0.81970118
    outer loop
      vertex 0.944193184 1.03656075 1.44234015
      vertex 0.946032045 1.03883644 1.44363622
      vertex 0.946607914 1.0378023 1.44403355
    endloop
  endfacet
  facet normal -0.572777309 -0.00401623701 0.81970118
    outer loop
      vertex 0.886915453 1.03615913 1.52431026
      vertex 0.889330183 1.03740067 1.52600367
      vertex 0.888754314 1.03843482 1.52560634
    endloop
  endfacet
  facet normal 0.449560372 0.834642309 0.318225846
    outer loop
      vertex 0.946032045 1.03883644 1.44363622
      vertex 0.945176225 1.03952413 1.44304158
      vertex 0.887898494 1.03912251 1.5250117
    endloop
  endfacet
  facet normal 0.449560372 0.834642309 0.318225846
    outer loop
      vertex 0.946032045 1.03883644 1.44363622
      vertex 0.887898494 1.03912251 1.5250117
      vertex 0.888754314 1.03843482 1.52560634
    endloop
  endfacet
  facet normal 0.572777309 0.00401623701 -0.81970118
    outer loop
      vertex 0.944193184 1.03656075 1.44234015
      vertex 0.945176225 1.03952413 1.44304158
      vertex 0.946032045 1.03883644 1.44363622
    endloop
  endfacet
  facet normal -0.572777309 -0.00401623701 0.81970118
    outer loop
      vertex 0.886915453 1.03615913 1.52431026
      vertex 0.888754314 1.03843482 1.52560634
      vertex 0.887898494 1.03912251 1.5250117
    endloop
  endfacet
  facet normal 0.153034871 0.981882451 0.111746057
    outer loop
      vertex 0.945176225 1.03952413 1.44304158
      vertex 0.944170747 1.03976067 1.44234015
      vertex 0.886893016 1.03935905 1.52431026
    endloop
  endfacet
  facet normal 0.153034871 0.981882451 0.111746057
    outer loop
      vertex 0.945176225 1.03952413 1.44304158
      vertex 0.886893016 1.03935905 1.52431026
      vertex 0.887898494 1.03912251 1.5250117
    endloop
  endfacet
  facet normal 0.572777309 0.00401623701 -0.81970118
    outer loop
      vertex 0.944193184 1.03656075 1.44234015
      vertex 0.944170747 1.03976067 1.44234015
      vertex 0.945176225 1.03952413 1.44304158
    endloop
  endfacet
  facet normal -0.572777309 -0.00401623701 0.81970118
    outer loop
      vertex 0.886915453 1.03615913 1.52431026
      vertex 0.887898494 1.03912251 1.5250117
      vertex 0.886893016 1.03935905 1.52431026
    endloop
  endfacet
  facet normal -0.861442837 -0.471329239 -0.189116333
    outer loop
      vertex 1.01458716 1.3409935 1.56983924
      vertex 1.0149376 1.34082931 1.56865215
      vertex 1.07842478 1.21001454 1.60548796
    endloop
  endfacet
  facet normal -0.861442837 -0.471329239 -0.189116333
    outer loop
      vertex 1.01458716 1.3409935 1.56983924
      vertex 1.07842478 1.21001454 1.60548796
      vertex 1.07807433 1.21017874 1.60667505
    endloop
  endfacet
  facet normal -0.423247816 0.87209842 -0.245572051
    outer loop
      vertex 1.01746603 1.34239068 1.56983924
      vertex 1.0149376 1.34082931 1.56865215
      vertex 1.01458716 1.3409935 1.56983924
    endloop
  endfacet
  facet normal 0.423247816 -0.87209842 0.245572051
    outer loop
      vertex 1.08095321 1.21157591 1.60667505
      vertex 1.07807433 1.21017874 1.60667505
      vertex 1.07842478 1.21001454 1.60548796
    endloop
  endfacet
  facet normal -0.688460367 -0.485775537 -0.538557751
    outer loop
      vertex 1.0149376 1.34082931 1.56865215
      vertex 1.01567298 1.34090282 1.56764579
      vertex 1.07916015 1.21008806 1.6044816
    endloop
  endfacet
  facet normal -0.688460367 -0.485775537 -0.538557751
    outer loop
      vertex 1.0149376 1.34082931 1.56865215
      vertex 1.07916015 1.21008806 1.6044816
      vertex 1.07842478 1.21001454 1.60548796
    endloop
  endfacet
  facet normal -0.423247816 0.87209842 -0.245572051
    outer loop
      vertex 1.01746603 1.34239068 1.56983924
      vertex 1.01567298 1.34090282 1.56764579
      vertex 1.0149376 1.34082931 1.56865215
    endloop
  endfacet
  facet normal 0.423247816 -0.87209842 0.245572051
    outer loop
      vertex 1.08095321 1.21157591 1.60667505
      vertex 1.07842478 1.21001454 1.60548796
      vertex 1.07916015 1.21008806 1.6044816
    endloop
  endfacet
  facet normal -0.410666047 -0.426266913 -0.806008633
    outer loop
      vertex 1.01567298 1.34090282 1.56764579
      vertex 1.01668133 1.34120284 1.56697336
      vertex 1.0801685 1.21038808 1.60380916
    endloop
  endfacet
  facet normal -0.410666047 -0.426266913 -0.806008633
    outer loop
      vertex 1.01567298 1.34090282 1.56764579
      vertex 1.0801685 1.21038808 1.60380916
      vertex 1.07916015 1.21008806 1.6044816
    endloop
  endfacet
  facet normal -0.423247816 0.87209842 -0.245572051
    outer loop
      vertex 1.01746603 1.34239068 1.56983924
      vertex 1.01668133 1.34120284 1.56697336
      vertex 1.01567298 1.34090282 1.56764579
    endloop
  endfacet
  facet normal 0.423247816 -0.87209842 0.245572051
    outer loop
      vertex 1.08095321 1.21157591 1.60667505
      vertex 1.07916015 1.21008806 1.6044816
      vertex 1.0801685 1.21038808 1.60380916
    endloop
  endfacet
  facet normal -0.0703515445 -0.301863015 -0.950752008
    outer loop
      vertex 1.01668133 1.34120284 1.56697336
      vertex 1.01780914 1.34168371 1.56673723
      vertex 1.08129631 1.21086894 1.60357304
    endloop
  endfacet
  facet normal -0.0703515445 -0.301863015 -0.950752008
    outer loop
      vertex 1.01668133 1.34120284 1.56697336
      vertex 1.08129631 1.21086894 1.60357304
      vertex 1.0801685 1.21038808 1.60380916
    endloop
  endfacet
  facet normal -0.423247816 0.87209842 -0.245572051
    outer loop
      vertex 1.01746603 1.34239068 1.56983924
      vertex 1.01780914 1.34168371 1.56673723
      vertex 1.01668133 1.34120284 1.56697336
    endloop
  endfacet
  facet normal 0.423247816 -0.87209842 0.245572051
    outer loop
      vertex 1.08095321 1.21157591 1.60667505
      vertex 1.0801685 1.21038808 1.60380916
      vertex 1.08129631 1.21086894 1.60357304
    endloop
  endfacet
  facet normal 0.280673343 -0.13150321 -0.950752008
    outer loop
      vertex 1.01780914 1.34168371 1.56673723
      vertex 1.01888472 1.3422722 1.56697336
      vertex 1.08237189 1.21145743 1.60380916
    endloop
  endfacet
  facet normal 0.280673343 -0.13150321 -0.950752008
    outer loop
      vertex 1.01780914 1.34168371 1.56673723
      vertex 1.08237189 1.21145743 1.60380916
      vertex 1.08129631 1.21086894 1.60357304
    endloop
  endfacet
  facet normal -0.423247816 0.87209842 -0.245572051
    outer loop
      vertex 1.01746603 1.34239068 1.56983924
      vertex 1.01888472 1.3422722 1.56697336
      vertex 1.01780914 1.34168371 1.56673723
    endloop
  endfacet
  facet normal 0.423247816 -0.87209842 0.245572051
    outer loop
      vertex 1.08095321 1.21157591 1.60667505
      vertex 1.08129631 1.21086894 1.60357304
      vertex 1.08237189 1.21145743 1.60380916
    endloop
  endfacet
  facet normal 0.588968258 0.0588767673 -0.806008633
    outer loop
      vertex 1.01888472 1.3422722 1.56697336
      vertex 1.01974432 1.34287873 1.56764579
      vertex 1.08323149 1.21206396 1.6044816
    endloop
  endfacet
  facet normal 0.588968258 0.0588767673 -0.806008633
    outer loop
      vertex 1.01888472 1.3422722 1.56697336
      vertex 1.08323149 1.21206396 1.6044816
      vertex 1.08237189 1.21145743 1.60380916
    endloop
  endfacet
  facet normal -0.423247816 0.87209842 -0.245572051
    outer loop
      vertex 1.01746603 1.34239068 1.56983924
      vertex 1.01974432 1.34287873 1.56764579
      vertex 1.01888472 1.3422722 1.56697336
    endloop
  endfacet
  facet normal 0.423247816 -0.87209842 0.245572051
    outer loop
      vertex 1.08095321 1.21157591 1.60667505
      vertex 1.08237189 1.21145743 1.60380916
      vertex 1.08323149 1.21206396 1.6044816
    endloop
  endfacet
  facet normal 0.807598096 0.24029329 -0.538557751
    outer loop
      vertex 1.01974432 1.34287873 1.56764579
      vertex 1.02025706 1.34341095 1.56865215
      vertex 1.08374424 1.21259619 1.60548796
    endloop
  endfacet
  facet normal 0.807598096 0.24029329 -0.538557751
    outer loop
      vertex 1.01974432 1.34287873 1.56764579
      vertex 1.08374424 1.21259619 1.60548796
      vertex 1.08323149 1.21206396 1.6044816
    endloop
  endfacet
  facet normal -0.423247816 0.87209842 -0.245572051
    outer loop
      vertex 1.01746603 1.34239068 1.56983924
      vertex 1.02025706 1.34341095 1.56865215
      vertex 1.01974432 1.34287873 1.56764579
    endloop
  endfacet
  facet normal 0.423247816 -0.87209842 0.245572051
    outer loop
      vertex 1.08095321 1.21157591 1.60667505
      vertex 1.08323149 1.21206396 1.6044816
      vertex 1.08374424 1.21259619 1.60548796
    endloop
  endfacet
  facet normal 0.903278443 0.385127338 -0.189116333
    outer loop
      vertex 1.02025706 1.34341095 1.56865215
      vertex 1.0203449 1.34378785 1.56983924
      vertex 1.08383208 1.21297309 1.60667505
    endloop
  endfacet
  facet normal 0.903278443 0.385127338 -0.189116333
    outer loop
      vertex 1.02025706 1.34341095 1.56865215
      vertex 1.08383208 1.21297309 1.60667505
      vertex 1.08374424 1.21259619 1.60548796
    endloop
  endfacet
  facet normal -0.423247816 0.87209842 -0.245572051
    outer loop
      vertex 1.01746603 1.34239068 1.56983924
      vertex 1.0203449 1.34378785 1.56983924
      vertex 1.02025706 1.34341095 1.56865215
    endloop
  endfacet
  facet normal 0.423247816 -0.87209842 0.245572051
    outer loop
      vertex 1.08095321 1.21157591 1.60667505
      vertex 1.08374424 1.21259619 1.60548796
      vertex 1.08383208 1.21297309 1.60667505
    endloop
  endfacet
  facet normal 0.861442837 0.471329239 0.189116333
    outer loop
      vertex 1.0203449 1.34378785 1.56983924
      vertex 1.01999446 1.34395205 1.57102633
      vertex 1.08348163 1.21313728 1.60786214
    endloop
  endfacet
  facet normal 0.861442837 0.471329239 0.189116333
    outer loop
      vertex 1.0203449 1.34378785 1.56983924
      vertex 1.08348163 1.21313728 1.60786214
      vertex 1.08383208 1.21297309 1.60667505
    endloop
  endfacet
  facet normal -0.423247816 0.87209842 -0.245572051
    outer loop
      vertex 1.01746603 1.34239068 1.56983924
      vertex 1.01999446 1.34395205 1.57102633
      vertex 1.0203449 1.34378785 1.56983924
    endloop
  endfacet
  facet normal 0.423247816 -0.87209842 0.245572051
    outer loop
      vertex 1.08095321 1.21157591 1.60667505
      vertex 1.08383208 1.21297309 1.60667505
      vertex 1.08348163 1.21313728 1.60786214
    endloop
  endfacet
  facet normal 0.688460367 0.485775537 0.538557751
    outer loop
      vertex 1.01999446 1.34395205 1.57102633
      vertex 1.01925909 1.34387853 1.57203269
      vertex 1.08274626 1.21306377 1.6088685
    endloop
  endfacet
  facet normal 0.688460367 0.485775537 0.538557751
    outer loop
      vertex 1.01999446 1.34395205 1.57102633
      vertex 1.08274626 1.21306377 1.6088685
      vertex 1.08348163 1.21313728 1.60786214
    endloop
  endfacet
  facet normal -0.423247816 0.87209842 -0.245572051
    outer loop
      vertex 1.01746603 1.34239068 1.56983924
      vertex 1.01925909 1.34387853 1.57203269
      vertex 1.01999446 1.34395205 1.57102633
    endloop
  endfacet
  facet normal 0.423247816 -0.87209842 0.245572051
    outer loop
      vertex 1.08095321 1.21157591 1.60667505
      vertex 1.08348163 1.21313728 1.60786214
      vertex 1.08274626 1.21306377 1.6088685
    endloop
  endfacet
  facet normal 0.410666047 0.426266913 0.806008633
    outer loop
      vertex 1.01925909 1.34387853 1.57203269
      vertex 1.01825074 1.34357851 1.57270513
      vertex 1.08173791 1.21276375 1.60954093
    endloop
  endfacet
  facet normal 0.410666047 0.426266913 0.806008633
    outer loop
      vertex 1.01925909 1.34387853 1.57203269
      vertex 1.08173791 1.21276375 1.60954093
      vertex 1.08274626 1.21306377 1.6088685
    endloop
  endfacet
  facet normal -0.423247816 0.87209842 -0.245572051
    outer loop
      vertex 1.01746603 1.34239068 1.56983924
      vertex 1.01825074 1.34357851 1.57270513
      vertex 1.01925909 1.34387853 1.57203269
    endloop
  endfacet
  facet normal 0.423247816 -0.87209842 0.245572051
    outer loop
      vertex 1.08095321 1.21157591 1.60667505
      vertex 1.08274626 1.21306377 1.6088685
      vertex 1.08173791 1.21276375 1.60954093
    endloop
  endfacet
  facet normal 0.0703515445 0.301863015 0.950752008
    outer loop
      vertex 1.01825074 1.34357851 1.57270513
      vertex 1.01712293 1.34309765 1.57294125
      vertex 1.0806101 1.21228288 1.60977706
    endloop
  endfacet
  facet normal 0.0703515445 0.301863015 0.950752008
    outer loop
      vertex 1.01825074 1.34357851 1.57270513
      vertex 1.0806101 1.21228288 1.60977706
      vertex 1.08173791 1.21276375 1.60954093
    endloop
  endfacet
  facet normal -0.423247816 0.87209842 -0.245572051
    outer loop
      vertex 1.01746603 1.34239068 1.56983924
      vertex 1.01712293 1.34309765 1.57294125
      vertex 1.01825074 1.34357851 1.57270513
    endloop
  endfacet
  facet normal 0.423247816 -0.87209842 0.245572051
    outer loop
      vertex 1.08095321 1.21157591 1.60667505
      vertex 1.08173791 1.21276375 1.60954093
      vertex 1.0806101 1.21228288 1.60977706
    endloop
  endfacet
  facet normal -0.280673343 0.13150321 0.950752008
    outer loop
      vertex 1.01712293 1.34309765 1.57294125
      vertex 1.01604735 1.34250916 1.57270513
      vertex 1.07953452 1.21169439 1.60954093
    endloop
  endfacet
  facet normal -0.280673343 0.13150321 0.950752008
    outer loop
      vertex 1.01712293 1.34309765 1.57294125
      vertex 1.07953452 1.21169439 1.60954093
      vertex 1.0806101 1.21228288 1.60977706
    endloop
  endfacet
  facet normal -0.423247816 0.87209842 -0.245572051
    outer loop
      vertex 1.01746603 1.34239068 1.56983924
      vertex 1.01604735 1.34250916 1.57270513
      vertex 1.01712293 1.34309765 1.57294125
    endloop
  endfacet
  facet normal 0.423247816 -0.87209842 0.245572051
    outer loop
      vertex 1.08095321 1.21157591 1.60667505
      vertex 1.0806101 1.21228288 1.60977706
      vertex 1.07953452 1.21169439 1.60954093
    endloop
  endfacet
  facet normal -0.588968258 -0.0588767673 0.806008633
    outer loop
      vertex 1.01604735 1.34250916 1.57270513
      vertex 1.01518775 1.34190263 1.57203269
      vertex 1.07867492 1.21108786 1.6088685
    endloop
  endfacet
  facet normal -0.588968258 -0.0588767673 0.806008633
    outer loop
      vertex 1.01604735 1.34250916 1.57270513
      vertex 1.07867492 1.21108786 1.6088685
      vertex 1.07953452 1.21169439 1.60954093
    endloop
  endfacet
  facet normal -0.423247816 0.87209842 -0.245572051
    outer loop
      vertex 1.01746603 1.34239068 1.56983924
      vertex 1.01518775 1.34190263 1.57203269
      vertex 1.01604735 1.34250916 1.57270513
    endloop
  endfacet
  facet normal 0.423247816 -0.87209842 0.245572051
    outer loop
      vertex 1.08095321 1.21157591 1.60667505
      vertex 1.07953452 1.21169439 1.60954093
      vertex 1.07867492 1.21108786 1.6088685
    endloop
  endfacet
  facet normal -0.807598096 -0.24029329 0.538557751
    outer loop
      vertex 1.01518775 1.34190263 1.57203269
      vertex 1.014675 1.3413704 1.57102633
      vertex 1.07816217 1.21055564 1.60786214
    endloop
  endfacet
  facet normal -0.807598096 -0.24029329 0.538557751
    outer loop
      vertex 1.01518775 1.34190263 1.57203269
      vertex 1.07816217 1.21055564 1.60786214
      vertex 1.07867492 1.21108786 1.6088685
    endloop
  endfacet
  facet normal -0.423247816 0.87209842 -0.245572051
    outer loop
      vertex 1.01746603 1.34239068 1.56983924
      vertex 1.014675 1.3413704 1.57102633
      vertex 1.01518775 1.34190263 1.57203269
    endloop
  endfacet
  facet normal 0.423247816 -0.87209842 0.245572051
    outer loop
      vertex 1.08095321 1.21157591 1.60667505
      vertex 1.07867492 1.21108786 1.6088685
      vertex 1.07816217 1.21055564 1.60786214
    endloop
  endfacet
  facet normal -0.903278443 -0.385127338 0.189116333
    outer loop
      vertex 1.014675 1.3413704 1.57102633
      vertex 1.01458716 1.3409935 1.56983924
      vertex 1.07807433 1.21017874 1.60667505
    endloop
  endfacet
  facet normal -0.903278443 -0.385127338 0.189116333
    outer loop
      vertex 1.014675 1.3413704 1.57102633
      vertex 1.07807433 1.21017874 1.60667505
      vertex 1.07816217 1.21055564 1.60786214
    endloop
  endfacet
  facet normal -0.423247816 0.87209842 -0.245572051
    outer loop
      vertex 1.01746603 1.34239068 1.56983924
      vertex 1.01458716 1.3409935 1.56983924
      vertex 1.014675 1.3413704 1.57102633
    endloop
  endfacet
  facet normal 0.423247816 -0.87209842 0.245572051
    outer loop
      vertex 1.08095321 1.21157591 1.60667505
      vertex 1.07816217 1.21055564 1.60786214
      vertex 1.07807433 1.21017874 1.60667505
    endloop
  endfacet
  facet normal -0.861442837 -0.471329239 -0.189116333
    outer loop
      vertex 1.0307557 1.34172769 1.5445798
      vertex 1.03110614 1.34156349 1.54339271
      vertex 1.09459331 1.21074873 1.58022852
    endloop
  endfacet
  facet normal -0.861442837 -0.471329239 -0.189116333
    outer loop
      vertex 1.0307557 1.34172769 1.5445798
      vertex 1.09459331 1.21074873 1.58022852
      vertex 1.09424287 1.21091292 1.58141561
    endloop
  endfacet
  facet normal -0.423247816 0.87209842 -0.245572051
    outer loop
      vertex 1.03363457 1.34312486 1.5445798
      vertex 1.03110614 1.34156349 1.54339271
      vertex 1.0307557 1.34172769 1.5445798
    endloop
  endfacet
  facet normal 0.423247816 -0.87209842 0.245572051
    outer loop
      vertex 1.09712174 1.2123101 1.58141561
      vertex 1.09424287 1.21091292 1.58141561
      vertex 1.09459331 1.21074873 1.58022852
    endloop
  endfacet
  facet normal -0.688460367 -0.485775537 -0.538557751
    outer loop
      vertex 1.03110614 1.34156349 1.54339271
      vertex 1.03184151 1.34163701 1.54238634
      vertex 1.09532868 1.21082224 1.57922215
    endloop
  endfacet
  facet normal -0.688460367 -0.485775537 -0.538557751
    outer loop
      vertex 1.03110614 1.34156349 1.54339271
      vertex 1.09532868 1.21082224 1.57922215
      vertex 1.09459331 1.21074873 1.58022852
    endloop
  endfacet
  facet normal -0.423247816 0.87209842 -0.245572051
    outer loop
      vertex 1.03363457 1.34312486 1.5445798
      vertex 1.03184151 1.34163701 1.54238634
      vertex 1.03110614 1.34156349 1.54339271
    endloop
  endfacet
  facet normal 0.423247816 -0.87209842 0.245572051
    outer loop
      vertex 1.09712174 1.2123101 1.58141561
      vertex 1.09459331 1.21074873 1.58022852
      vertex 1.09532868 1.21082224 1.57922215
    endloop
  endfacet
  facet normal -0.410666047 -0.426266913 -0.806008633
    outer loop
      vertex 1.03184151 1.34163701 1.54238634
      vertex 1.03284986 1.34193703 1.54171391
      vertex 1.09633703 1.21112227 1.57854972
    endloop
  endfacet
  facet normal -0.410666047 -0.426266913 -0.806008633
    outer loop
      vertex 1.03184151 1.34163701 1.54238634
      vertex 1.09633703 1.21112227 1.57854972
      vertex 1.09532868 1.21082224 1.57922215
    endloop
  endfacet
  facet normal -0.423247816 0.87209842 -0.245572051
    outer loop
      vertex 1.03363457 1.34312486 1.5445798
      vertex 1.03284986 1.34193703 1.54171391
      vertex 1.03184151 1.34163701 1.54238634
    endloop
  endfacet
  facet normal 0.423247816 -0.87209842 0.245572051
    outer loop
      vertex 1.09712174 1.2123101 1.58141561
      vertex 1.09532868 1.21082224 1.57922215
      vertex 1.09633703 1.21112227 1.57854972
    endloop
  endfacet
  facet normal -0.0703515445 -0.301863015 -0.950752008
    outer loop
      vertex 1.03284986 1.34193703 1.54171391
      vertex 1.03397767 1.34241789 1.54147779
      vertex 1.09746485 1.21160313 1.57831359
    endloop
  endfacet
  facet normal -0.0703515445 -0.301863015 -0.950752008
    outer loop
      vertex 1.03284986 1.34193703 1.54171391
      vertex 1.09746485 1.21160313 1.57831359
      vertex 1.09633703 1.21112227 1.57854972
    endloop
  endfacet
  facet normal -0.423247816 0.87209842 -0.245572051
    outer loop
      vertex 1.03363457 1.34312486 1.5445798
      vertex 1.03397767 1.34241789 1.54147779
      vertex 1.03284986 1.34193703 1.54171391
    endloop
  endfacet
  facet normal 0.423247816 -0.87209842 0.245572051
    outer loop
      vertex 1.09712174 1.2123101 1.58141561
      vertex 1.09633703 1.21112227 1.57854972
      vertex 1.09746485 1.21160313 1.57831359
    endloop
  endfacet
  facet normal 0.280673343 -0.13150321 -0.950752008
    outer loop
      vertex 1.03397767 1.34241789 1.54147779
      vertex 1.03505325 1.34300639 1.54171391
      vertex 1.09854043 1.21219162 1.57854972
    endloop
  endfacet
  facet normal 0.280673343 -0.13150321 -0.950752008
    outer loop
      vertex 1.03397767 1.34241789 1.54147779
      vertex 1.09854043 1.21219162 1.57854972
      vertex 1.09746485 1.21160313 1.57831359
    endloop
  endfacet
  facet normal -0.423247816 0.87209842 -0.245572051
    outer loop
      vertex 1.03363457 1.34312486 1.5445798
      vertex 1.03505325 1.34300639 1.54171391
      vertex 1.03397767 1.34241789 1.54147779
    endloop
  endfacet
  facet normal 0.423247816 -0.87209842 0.245572051
    outer loop
      vertex 1.09712174 1.2123101 1.58141561
      vertex 1.09746485 1.21160313 1.57831359
      vertex 1.09854043 1.21219162 1.57854972
    endloop
  endfacet
  facet normal 0.588968258 0.0588767673 -0.806008633
    outer loop
      vertex 1.03505325 1.34300639 1.54171391
      vertex 1.03591285 1.34361291 1.54238634
      vertex 1.09940002 1.21279815 1.57922215
    endloop
  endfacet
  facet normal 0.588968258 0.0588767673 -0.806008633
    outer loop
      vertex 1.03505325 1.34300639 1.54171391
      vertex 1.09940002 1.21279815 1.57922215
      vertex 1.09854043 1.21219162 1.57854972
    endloop
  endfacet
  facet normal -0.423247816 0.87209842 -0.245572051
    outer loop
      vertex 1.03363457 1.34312486 1.5445798
      vertex 1.03591285 1.34361291 1.54238634
      vertex 1.03505325 1.34300639 1.54171391
    endloop
  endfacet
  facet normal 0.423247816 -0.87209842 0.245572051
    outer loop
      vertex 1.09712174 1.2123101 1.58141561
      vertex 1.09854043 1.21219162 1.57854972
      vertex 1.09940002 1.21279815 1.57922215
    endloop
  endfacet
  facet normal 0.807598096 0.24029329 -0.538557751
    outer loop
      vertex 1.03591285 1.34361291 1.54238634
      vertex 1.0364256 1.34414514 1.54339271
      vertex 1.09991277 1.21333038 1.58022852
    endloop
  endfacet
  facet normal 0.807598096 0.24029329 -0.538557751
    outer loop
      vertex 1.03591285 1.34361291 1.54238634
      vertex 1.09991277 1.21333038 1.58022852
      vertex 1.09940002 1.21279815 1.57922215
    endloop
  endfacet
  facet normal -0.423247816 0.87209842 -0.245572051
    outer loop
      vertex 1.03363457 1.34312486 1.5445798
      vertex 1.0364256 1.34414514 1.54339271
      vertex 1.03591285 1.34361291 1.54238634
    endloop
  endfacet
  facet normal 0.423247816 -0.87209842 0.245572051
    outer loop
      vertex 1.09712174 1.2123101 1.58141561
      vertex 1.09940002 1.21279815 1.57922215
      vertex 1.09991277 1.21333038 1.58022852
    endloop
  endfacet
  facet normal 0.903278443 0.385127338 -0.189116333
    outer loop
      vertex 1.0364256 1.34414514 1.54339271
      vertex 1.03651344 1.34452204 1.5445798
      vertex 1.10000061 1.21370728 1.58141561
    endloop
  endfacet
  facet normal 0.903278443 0.385127338 -0.189116333
    outer loop
      vertex 1.0364256 1.34414514 1.54339271
      vertex 1.10000061 1.21370728 1.58141561
      vertex 1.09991277 1.21333038 1.58022852
    endloop
  endfacet
  facet normal -0.423247816 0.87209842 -0.245572051
    outer loop
      vertex 1.03363457 1.34312486 1.5445798
      vertex 1.03651344 1.34452204 1.5445798
      vertex 1.0364256 1.34414514 1.54339271
    endloop
  endfacet
  facet normal 0.423247816 -0.87209842 0.245572051
    outer loop
      vertex 1.09712174 1.2123101 1.58141561
      vertex 1.09991277 1.21333038 1.58022852
      vertex 1.10000061 1.21370728 1.58141561
    endloop
  endfacet
  facet normal 0.861442837 0.471329239 0.189116333
    outer loop
      vertex 1.03651344 1.34452204 1.5445798
      vertex 1.036163 1.34468623 1.54576689
      vertex 1.09965017 1.21387147 1.58260269
    endloop
  endfacet
  facet normal 0.861442837 0.471329239 0.189116333
    outer loop
      vertex 1.03651344 1.34452204 1.5445798
      vertex 1.09965017 1.21387147 1.58260269
      vertex 1.10000061 1.21370728 1.58141561
    endloop
  endfacet
  facet normal -0.423247816 0.87209842 -0.245572051
    outer loop
      vertex 1.03363457 1.34312486 1.5445798
      vertex 1.036163 1.34468623 1.54576689
      vertex 1.03651344 1.34452204 1.5445798
    endloop
  endfacet
  facet normal 0.423247816 -0.87209842 0.245572051
    outer loop
      vertex 1.09712174 1.2123101 1.58141561
      vertex 1.10000061 1.21370728 1.58141561
      vertex 1.09965017 1.21387147 1.58260269
    endloop
  endfacet
  facet normal 0.688460367 0.485775537 0.538557751
    outer loop
      vertex 1.036163 1.34468623 1.54576689
      vertex 1.03542762 1.34461272 1.54677325
      vertex 1.09891479 1.21379796 1.58360906
    endloop
  endfacet
  facet normal 0.688460367 0.485775537 0.538557751
    outer loop
      vertex 1.036163 1.34468623 1.54576689
      vertex 1.09891479 1.21379796 1.58360906
      vertex 1.09965017 1.21387147 1.58260269
    endloop
  endfacet
  facet normal -0.423247816 0.87209842 -0.245572051
    outer loop
      vertex 1.03363457 1.34312486 1.5445798
      vertex 1.03542762 1.34461272 1.54677325
      vertex 1.036163 1.34468623 1.54576689
    endloop
  endfacet
  facet normal 0.423247816 -0.87209842 0.245572051
    outer loop
      vertex 1.09712174 1.2123101 1.58141561
      vertex 1.09965017 1.21387147 1.58260269
      vertex 1.09891479 1.21379796 1.58360906
    endloop
  endfacet
  facet normal 0.410666047 0.426266913 0.806008633
    outer loop
      vertex 1.03542762 1.34461272 1.54677325
      vertex 1.03441927 1.3443127 1.54744568
      vertex 1.09790645 1.21349793 1.58428149
    endloop
  endfacet
  facet normal 0.410666047 0.426266913 0.806008633
    outer loop
      vertex 1.03542762 1.34461272 1.54677325
      vertex 1.09790645 1.21349793 1.58428149
      vertex 1.09891479 1.21379796 1.58360906
    endloop
  endfacet
  facet normal -0.423247816 0.87209842 -0.245572051
    outer loop
      vertex 1.03363457 1.34312486 1.5445798
      vertex 1.03441927 1.3443127 1.54744568
      vertex 1.03542762 1.34461272 1.54677325
    endloop
  endfacet
  facet normal 0.423247816 -0.87209842 0.245572051
    outer loop
      vertex 1.09712174 1.2123101 1.58141561
      vertex 1.09891479 1.21379796 1.58360906
      vertex 1.09790645 1.21349793 1.58428149
    endloop
  endfacet
  facet normal 0.0703515445 0.301863015 0.950752008
    outer loop
      vertex 1.03441927 1.3443127 1.54744568
      vertex 1.03329146 1.34383183 1.54768181
      vertex 1.09677863 1.21301707 1.58451762
    endloop
  endfacet
  facet normal 0.0703515445 0.301863015 0.950752008
    outer loop
      vertex 1.03441927 1.3443127 1.54744568
      vertex 1.09677863 1.21301707 1.58451762
      vertex 1.09790645 1.21349793 1.58428149
    endloop
  endfacet
  facet normal -0.423247816 0.87209842 -0.245572051
    outer loop
      vertex 1.03363457 1.34312486 1.5445798
      vertex 1.03329146 1.34383183 1.54768181
      vertex 1.03441927 1.3443127 1.54744568
    endloop
  endfacet
  facet normal 0.423247816 -0.87209842 0.245572051
    outer loop
      vertex 1.09712174 1.2123101 1.58141561
      vertex 1.09790645 1.21349793 1.58428149
      vertex 1.09677863 1.21301707 1.58451762
    endloop
  endfacet
  facet normal -0.280673343 0.13150321 0.950752008
    outer loop
      vertex 1.03329146 1.34383183 1.54768181
      vertex 1.03221588 1.34324334 1.54744568
      vertex 1.09570305 1.21242858 1.58428149
    endloop
  endfacet
  facet normal -0.280673343 0.13150321 0.950752008
    outer loop
      vertex 1.03329146 1.34383183 1.54768181
      vertex 1.09570305 1.21242858 1.58428149
      vertex 1.09677863 1.21301707 1.58451762
    endloop
  endfacet
  facet normal -0.423247816 0.87209842 -0.245572051
    outer loop
      vertex 1.03363457 1.34312486 1.5445798
      vertex 1.03221588 1.34324334 1.54744568
      vertex 1.03329146 1.34383183 1.54768181
    endloop
  endfacet
  facet normal 0.423247816 -0.87209842 0.245572051
    outer loop
      vertex 1.09712174 1.2123101 1.58141561
      vertex 1.09677863 1.21301707 1.58451762
      vertex 1.09570305 1.21242858 1.58428149
    endloop
  endfacet
  facet normal -0.588968258 -0.0588767673 0.806008633
    outer loop
      vertex 1.03221588 1.34324334 1.54744568
      vertex 1.03135628 1.34263681 1.54677325
      vertex 1.09484346 1.21182205 1.58360906
    endloop
  endfacet
  facet normal -0.588968258 -0.0588767673 0.806008633
    outer loop
      vertex 1.03221588 1.34324334 1.54744568
      vertex 1.09484346 1.21182205 1.58360906
      vertex 1.09570305 1.21242858 1.58428149
    endloop
  endfacet
  facet normal -0.423247816 0.87209842 -0.245572051
    outer loop
      vertex 1.03363457 1.34312486 1.5445798
      vertex 1.03135628 1.34263681 1.54677325
      vertex 1.03221588 1.34324334 1.54744568
    endloop
  endfacet
  facet normal 0.423247816 -0.87209842 0.245572051
    outer loop
      vertex 1.09712174 1.2123101 1.58141561
      vertex 1.09570305 1.21242858 1.58428149
      vertex 1.09484346 1.21182205 1.58360906
    endloop
  endfacet
  facet normal -0.807598096 -0.24029329 0.538557751
    outer loop
      vertex 1.03135628 1.34263681 1.54677325
      vertex 1.03084354 1.34210459 1.54576689
      vertex 1.09433071 1.21128982 1.58260269
    endloop
  endfacet
  facet normal -0.807598096 -0.24029329 0.538557751
    outer loop
      vertex 1.03135628 1.34263681 1.54677325
      vertex 1.09433071 1.21128982 1.58260269
      vertex 1.09484346 1.21182205 1.58360906
    endloop
  endfacet
  facet normal -0.423247816 0.87209842 -0.245572051
    outer loop
      vertex 1.03363457 1.34312486 1.5445798
      vertex 1.03084354 1.34210459 1.54576689
      vertex 1.03135628 1.34263681 1.54677325
    endloop
  endfacet
  facet normal 0.423247816 -0.87209842 0.245572051
    outer loop
      vertex 1.09712174 1.2123101 1.58141561
      vertex 1.09484346 1.21182205 1.58360906
      vertex 1.09433071 1.21128982 1.58260269
    endloop
  endfacet
  facet normal -0.903278443 -0.385127338 0.189116333
    outer loop
      vertex 1.03084354 1.34210459 1.54576689
      vertex 1.0307557 1.34172769 1.5445798
      vertex 1.09424287 1.21091292 1.58141561
    endloop
  endfacet
  facet normal -0.903278443 -0.385127338 0.189116333
    outer loop
      vertex 1.03084354 1.34210459 1.54576689
      vertex 1.09424287 1.21091292 1.58141561
      vertex 1.09433071 1.21128982 1.58260269
    endloop
  endfacet
  facet normal -0.423247816 0.87209842 -0.245572051
    outer loop
      vertex 1.03363457 1.34312486 1.5445798
      vertex 1.0307557 1.34172769 1.5445798
      vertex 1.03084354 1.34210459 1.54576689
    endloop
  endfacet
  facet normal 0.423247816 -0.87209842 0.245572051
    outer loop
      vertex 1.09712174 1.2123101 1.58141561
      vertex 1.09433071 1.21128982 1.58260269
      vertex 1.09424287 1.21091292 1.58141561
    endloop
  endfacet
  facet normal -0.148052661 0.982290297 -0.114831105
    outer loop
      vertex 1.11856977 1.46193531 1.56773053
      vertex 1.11757744 1.46170148 1.56700973
      vertex 1.05283405 1.46233884 1.65593603
    endloop
  endfacet
  facet normal -0.148052661 0.982290297 -0.114831105
    outer loop
      vertex 1.11856977 1.46193531 1.56773053
      vertex 1.05283405 1.46233884 1.65593603
      vertex 1.05382638 1.46257267 1.65665683
    endloop
  endfacet
  facet normal 0.588576306 -0.00579419081 -0.808420905
    outer loop
      vertex 1.11853827 1.45873546 1.56773053
      vertex 1.11757744 1.46170148 1.56700973
      vertex 1.11856977 1.46193531 1.56773053
    endloop
  endfacet
  facet normal -0.588576306 0.00579419081 0.808420905
    outer loop
      vertex 1.05379488 1.45937282 1.65665683
      vertex 1.05382638 1.46257267 1.65665683
      vertex 1.05283405 1.46233884 1.65593603
    endloop
  endfacet
  facet normal -0.440927892 0.835850579 -0.32701132
    outer loop
      vertex 1.11757744 1.46170148 1.56700973
      vertex 1.11673139 1.4610161 1.56639867
      vertex 1.05198799 1.46165346 1.65532497
    endloop
  endfacet
  facet normal -0.440927892 0.835850579 -0.32701132
    outer loop
      vertex 1.11757744 1.46170148 1.56700973
      vertex 1.05198799 1.46165346 1.65532497
      vertex 1.05283405 1.46233884 1.65593603
    endloop
  endfacet
  facet normal 0.588576306 -0.00579419081 -0.808420905
    outer loop
      vertex 1.11853827 1.45873546 1.56773053
      vertex 1.11673139 1.4610161 1.56639867
      vertex 1.11757744 1.46170148 1.56700973
    endloop
  endfacet
  facet normal -0.588576306 0.00579419081 0.808420905
    outer loop
      vertex 1.05379488 1.45937282 1.65665683
      vertex 1.05283405 1.46233884 1.65593603
      vertex 1.05198799 1.46165346 1.65532497
    endloop
  endfacet
  facet normal -0.666675847 0.562160189 -0.489407026
    outer loop
      vertex 1.11673139 1.4610161 1.56639867
      vertex 1.11616042 1.45998352 1.56599037
      vertex 1.05141702 1.46062088 1.65491667
    endloop
  endfacet
  facet normal -0.666675847 0.562160189 -0.489407026
    outer loop
      vertex 1.11673139 1.4610161 1.56639867
      vertex 1.05141702 1.46062088 1.65491667
      vertex 1.05198799 1.46165346 1.65532497
    endloop
  endfacet
  facet normal 0.588576306 -0.00579419081 -0.808420905
    outer loop
      vertex 1.11853827 1.45873546 1.56773053
      vertex 1.11616042 1.45998352 1.56599037
      vertex 1.11673139 1.4610161 1.56639867
    endloop
  endfacet
  facet normal -0.588576306 0.00579419081 0.808420905
    outer loop
      vertex 1.05379488 1.45937282 1.65665683
      vertex 1.05198799 1.46165346 1.65532497
      vertex 1.05141702 1.46062088 1.65491667
    endloop
  endfacet
  facet normal -0.790928449 0.202886005 -0.577294948
    outer loop
      vertex 1.11616042 1.45998352 1.56599037
      vertex 1.11595145 1.45876093 1.56584699
      vertex 1.05120806 1.45939829 1.65477329
    endloop
  endfacet
  facet normal -0.790928449 0.202886005 -0.577294948
    outer loop
      vertex 1.11616042 1.45998352 1.56599037
      vertex 1.05120806 1.45939829 1.65477329
      vertex 1.05141702 1.46062088 1.65491667
    endloop
  endfacet
  facet normal 0.588576306 -0.00579419081 -0.808420905
    outer loop
      vertex 1.11853827 1.45873546 1.56773053
      vertex 1.11595145 1.45876093 1.56584699
      vertex 1.11616042 1.45998352 1.56599037
    endloop
  endfacet
  facet normal -0.588576306 0.00579419081 0.808420905
    outer loop
      vertex 1.05379488 1.45937282 1.65665683
      vertex 1.05141702 1.46062088 1.65491667
      vertex 1.05120806 1.45939829 1.65477329
    endloop
  endfacet
  facet normal -0.794769364 -0.187275734 -0.577294948
    outer loop
      vertex 1.11595145 1.45876093 1.56584699
      vertex 1.11613631 1.45753446 1.56599037
      vertex 1.05139291 1.45817182 1.65491667
    endloop
  endfacet
  facet normal -0.794769364 -0.187275734 -0.577294948
    outer loop
      vertex 1.11595145 1.45876093 1.56584699
      vertex 1.05139291 1.45817182 1.65491667
      vertex 1.05120806 1.45939829 1.65477329
    endloop
  endfacet
  facet normal 0.588576306 -0.00579419081 -0.808420905
    outer loop
      vertex 1.11853827 1.45873546 1.56773053
      vertex 1.11613631 1.45753446 1.56599037
      vertex 1.11595145 1.45876093 1.56584699
    endloop
  endfacet
  facet normal -0.588576306 0.00579419081 0.808420905
    outer loop
      vertex 1.05379488 1.45937282 1.65665683
      vertex 1.05120806 1.45939829 1.65477329
      vertex 1.05139291 1.45817182 1.65491667
    endloop
  endfacet
  facet normal -0.677613848 -0.54892644 -0.489407026
    outer loop
      vertex 1.11613631 1.45753446 1.56599037
      vertex 1.11668684 1.45649084 1.56639867
      vertex 1.05194345 1.4571282 1.65532497
    endloop
  endfacet
  facet normal -0.677613848 -0.54892644 -0.489407026
    outer loop
      vertex 1.11613631 1.45753446 1.56599037
      vertex 1.05194345 1.4571282 1.65532497
      vertex 1.05139291 1.45817182 1.65491667
    endloop
  endfacet
  facet normal 0.588576306 -0.00579419081 -0.808420905
    outer loop
      vertex 1.11853827 1.45873546 1.56773053
      vertex 1.11668684 1.45649084 1.56639867
      vertex 1.11613631 1.45753446 1.56599037
    endloop
  endfacet
  facet normal -0.588576306 0.00579419081 0.808420905
    outer loop
      vertex 1.05379488 1.45937282 1.65665683
      vertex 1.05139291 1.45817182 1.65491667
      vertex 1.05194345 1.4571282 1.65532497
    endloop
  endfacet
  facet normal -0.457297766 -0.827008071 -0.32701132
    outer loop
      vertex 1.11668684 1.45649084 1.56639867
      vertex 1.11751924 1.45578894 1.56700973
      vertex 1.05277584 1.4564263 1.65593603
    endloop
  endfacet
  facet normal -0.457297766 -0.827008071 -0.32701132
    outer loop
      vertex 1.11668684 1.45649084 1.56639867
      vertex 1.05277584 1.4564263 1.65593603
      vertex 1.05194345 1.4571282 1.65532497
    endloop
  endfacet
  facet normal 0.588576306 -0.00579419081 -0.808420905
    outer loop
      vertex 1.11853827 1.45873546 1.56773053
      vertex 1.11751924 1.45578894 1.56700973
      vertex 1.11668684 1.45649084 1.56639867
    endloop
  endfacet
  facet normal -0.588576306 0.00579419081 0.808420905
    outer loop
      vertex 1.05379488 1.45937282 1.65665683
      vertex 1.05194345 1.4571282 1.65532497
      vertex 1.05277584 1.4564263 1.65593603
    endloop
  endfacet
  facet normal -0.167362245 -0.979185221 -0.114831105
    outer loop
      vertex 1.11751924 1.45578894 1.56700973
      vertex 1.11850677 1.45553562 1.56773053
      vertex 1.05376338 1.45617298 1.65665683
    endloop
  endfacet
  facet normal -0.167362245 -0.979185221 -0.114831105
    outer loop
      vertex 1.11751924 1.45578894 1.56700973
      vertex 1.05376338 1.45617298 1.65665683
      vertex 1.05277584 1.4564263 1.65593603
    endloop
  endfacet
  facet normal 0.588576306 -0.00579419081 -0.808420905
    outer loop
      vertex 1.11853827 1.45873546 1.56773053
      vertex 1.11850677 1.45553562 1.56773053
      vertex 1.11751924 1.45578894 1.56700973
    endloop
  endfacet
  facet normal -0.588576306 0.00579419081 0.808420905
    outer loop
      vertex 1.05379488 1.45937282 1.65665683
      vertex 1.05277584 1.4564263 1.65593603
      vertex 1.05376338 1.45617298 1.65665683
    endloop
  endfacet
  facet normal 0.148052661 -0.982290297 0.114831105
    outer loop
      vertex 1.11850677 1.45553562 1.56773053
      vertex 1.1194991 1.45576945 1.56845133
      vertex 1.05475571 1.45640681 1.65737763
    endloop
  endfacet
  facet normal 0.148052661 -0.982290297 0.114831105
    outer loop
      vertex 1.11850677 1.45553562 1.56773053
      vertex 1.05475571 1.45640681 1.65737763
      vertex 1.05376338 1.45617298 1.65665683
    endloop
  endfacet
  facet normal 0.588576306 -0.00579419081 -0.808420905
    outer loop
      vertex 1.11853827 1.45873546 1.56773053
      vertex 1.1194991 1.45576945 1.56845133
      vertex 1.11850677 1.45553562 1.56773053
    endloop
  endfacet
  facet normal -0.588576306 0.00579419081 0.808420905
    outer loop
      vertex 1.05379488 1.45937282 1.65665683
      vertex 1.05376338 1.45617298 1.65665683
      vertex 1.05475571 1.45640681 1.65737763
    endloop
  endfacet
  facet normal 0.440927892 -0.835850579 0.32701132
    outer loop
      vertex 1.1194991 1.45576945 1.56845133
      vertex 1.12034516 1.45645482 1.56906239
      vertex 1.05560176 1.45709219 1.65798869
    endloop
  endfacet
  facet normal 0.440927892 -0.835850579 0.32701132
    outer loop
      vertex 1.1194991 1.45576945 1.56845133
      vertex 1.05560176 1.45709219 1.65798869
      vertex 1.05475571 1.45640681 1.65737763
    endloop
  endfacet
  facet normal 0.588576306 -0.00579419081 -0.808420905
    outer loop
      vertex 1.11853827 1.45873546 1.56773053
      vertex 1.12034516 1.45645482 1.56906239
      vertex 1.1194991 1.45576945 1.56845133
    endloop
  endfacet
  facet normal -0.588576306 0.00579419081 0.808420905
    outer loop
      vertex 1.05379488 1.45937282 1.65665683
      vertex 1.05475571 1.45640681 1.65737763
      vertex 1.05560176 1.45709219 1.65798869
    endloop
  endfacet
  facet normal 0.666675847 -0.562160189 0.489407026
    outer loop
      vertex 1.12034516 1.45645482 1.56906239
      vertex 1.12091613 1.45748741 1.56947069
      vertex 1.05617274 1.45812477 1.65839699
    endloop
  endfacet
  facet normal 0.666675847 -0.562160189 0.489407026
    outer loop
      vertex 1.12034516 1.45645482 1.56906239
      vertex 1.05617274 1.45812477 1.65839699
      vertex 1.05560176 1.45709219 1.65798869
    endloop
  endfacet
  facet normal 0.588576306 -0.00579419081 -0.808420905
    outer loop
      vertex 1.11853827 1.45873546 1.56773053
      vertex 1.12091613 1.45748741 1.56947069
      vertex 1.12034516 1.45645482 1.56906239
    endloop
  endfacet
  facet normal -0.588576306 0.00579419081 0.808420905
    outer loop
      vertex 1.05379488 1.45937282 1.65665683
      vertex 1.05560176 1.45709219 1.65798869
      vertex 1.05617274 1.45812477 1.65839699
    endloop
  endfacet
  facet normal 0.790928449 -0.202886005 0.577294948
    outer loop
      vertex 1.12091613 1.45748741 1.56947069
      vertex 1.12112509 1.45871 1.56961406
      vertex 1.0563817 1.45934736 1.65854036
    endloop
  endfacet
  facet normal 0.790928449 -0.202886005 0.577294948
    outer loop
      vertex 1.12091613 1.45748741 1.56947069
      vertex 1.0563817 1.45934736 1.65854036
      vertex 1.05617274 1.45812477 1.65839699
    endloop
  endfacet
  facet normal 0.588576306 -0.00579419081 -0.808420905
    outer loop
      vertex 1.11853827 1.45873546 1.56773053
      vertex 1.12112509 1.45871 1.56961406
      vertex 1.12091613 1.45748741 1.56947069
    endloop
  endfacet
  facet normal -0.588576306 0.00579419081 0.808420905
    outer loop
      vertex 1.05379488 1.45937282 1.65665683
      vertex 1.05617274 1.45812477 1.65839699
      vertex 1.0563817 1.45934736 1.65854036
    endloop
  endfacet
  facet normal 0.794769364 0.187275734 0.577294948
    outer loop
      vertex 1.12112509 1.45871 1.56961406
      vertex 1.12094024 1.45993646 1.56947069
      vertex 1.05619685 1.46057382 1.65839699
    endloop
  endfacet
  facet normal 0.794769364 0.187275734 0.577294948
    outer loop
      vertex 1.12112509 1.45871 1.56961406
      vertex 1.05619685 1.46057382 1.65839699
      vertex 1.0563817 1.45934736 1.65854036
    endloop
  endfacet
  facet normal 0.588576306 -0.00579419081 -0.808420905
    outer loop
      vertex 1.11853827 1.45873546 1.56773053
      vertex 1.12094024 1.45993646 1.56947069
      vertex 1.12112509 1.45871 1.56961406
    endloop
  endfacet
  facet normal -0.588576306 0.00579419081 0.808420905
    outer loop
      vertex 1.05379488 1.45937282 1.65665683
      vertex 1.0563817 1.45934736 1.65854036
      vertex 1.05619685 1.46057382 1.65839699
    endloop
  endfacet
  facet normal 0.677613848 0.54892644 0.489407026
    outer loop
      vertex 1.12094024 1.45993646 1.56947069
      vertex 1.12038971 1.46098009 1.56906239
      vertex 1.05564631 1.46161745 1.65798869
    endloop
  endfacet
  facet normal 0.677613848 0.54892644 0.489407026
    outer loop
      vertex 1.12094024 1.45993646 1.56947069
      vertex 1.05564631 1.46161745 1.65798869
      vertex 1.05619685 1.46057382 1.65839699
    endloop
  endfacet
  facet normal 0.588576306 -0.00579419081 -0.808420905
    outer loop
      vertex 1.11853827 1.45873546 1.56773053
      vertex 1.12038971 1.46098009 1.56906239
      vertex 1.12094024 1.45993646 1.56947069
    endloop
  endfacet
  facet normal -0.588576306 0.00579419081 0.808420905
    outer loop
      vertex 1.05379488 1.45937282 1.65665683
      vertex 1.05619685 1.46057382 1.65839699
      vertex 1.05564631 1.46161745 1.65798869
    endloop
  endfacet
  facet normal 0.457297766 0.827008071 0.32701132
    outer loop
      vertex 1.12038971 1.46098009 1.56906239
      vertex 1.11955731 1.46168199 1.56845133
      vertex 1.05481392 1.46231935 1.65737763
    endloop
  endfacet
  facet normal 0.457297766 0.827008071 0.32701132
    outer loop
      vertex 1.12038971 1.46098009 1.56906239
      vertex 1.05481392 1.46231935 1.65737763
      vertex 1.05564631 1.46161745 1.65798869
    endloop
  endfacet
  facet normal 0.588576306 -0.00579419081 -0.808420905
    outer loop
      vertex 1.11853827 1.45873546 1.56773053
      vertex 1.11955731 1.46168199 1.56845133
      vertex 1.12038971 1.46098009 1.56906239
    endloop
  endfacet
  facet normal -0.588576306 0.00579419081 0.808420905
    outer loop
      vertex 1.05379488 1.45937282 1.65665683
      vertex 1.05564631 1.46161745 1.65798869
      vertex 1.05481392 1.46231935 1.65737763
    endloop
  endfacet
  facet normal 0.167362245 0.979185221 0.114831105
    outer loop
      vertex 1.11955731 1.46168199 1.56845133
      vertex 1.11856977 1.46193531 1.56773053
      vertex 1.05382638 1.46257267 1.65665683
    endloop
  endfacet
  facet normal 0.167362245 0.979185221 0.114831105
    outer loop
      vertex 1.11955731 1.46168199 1.56845133
      vertex 1.05382638 1.46257267 1.65665683
      vertex 1.05481392 1.46231935 1.65737763
    endloop
  endfacet
  facet normal 0.588576306 -0.00579419081 -0.808420905
    outer loop
      vertex 1.11853827 1.45873546 1.56773053
      vertex 1.11856977 1.46193531 1.56773053
      vertex 1.11955731 1.46168199 1.56845133
    endloop
  endfacet
  facet normal -0.588576306 0.00579419081 0.808420905
    outer loop
      vertex 1.05379488 1.45937282 1.65665683
      vertex 1.05481392 1.46231935 1.65737763
      vertex 1.05382638 1.46257267 1.65665683
    endloop
  endfacet
  facet normal -0.148052661 0.982290297 -0.114831105
    outer loop
      vertex 1.1315399 1.43665388 1.57735472
      vertex 1.13054757 1.43642005 1.57663392
      vertex 1.06580418 1.43705741 1.66556022
    endloop
  endfacet
  facet normal -0.148052661 0.982290297 -0.114831105
    outer loop
      vertex 1.1315399 1.43665388 1.57735472
      vertex 1.06580418 1.43705741 1.66556022
      vertex 1.06679651 1.43729124 1.66628102
    endloop
  endfacet
  facet normal 0.588576306 -0.00579419081 -0.808420905
    outer loop
      vertex 1.1315084 1.43345403 1.57735472
      vertex 1.13054757 1.43642005 1.57663392
      vertex 1.1315399 1.43665388 1.57735472
    endloop
  endfacet
  facet normal -0.588576306 0.00579419081 0.808420905
    outer loop
      vertex 1.06676501 1.43409139 1.66628102
      vertex 1.06679651 1.43729124 1.66628102
      vertex 1.06580418 1.43705741 1.66556022
    endloop
  endfacet
  facet normal -0.440927892 0.835850579 -0.32701132
    outer loop
      vertex 1.13054757 1.43642005 1.57663392
      vertex 1.12970152 1.43573467 1.57602286
      vertex 1.06495812 1.43637203 1.66494916
    endloop
  endfacet
  facet normal -0.440927892 0.835850579 -0.32701132
    outer loop
      vertex 1.13054757 1.43642005 1.57663392
      vertex 1.06495812 1.43637203 1.66494916
      vertex 1.06580418 1.43705741 1.66556022
    endloop
  endfacet
  facet normal 0.588576306 -0.00579419081 -0.808420905
    outer loop
      vertex 1.1315084 1.43345403 1.57735472
      vertex 1.12970152 1.43573467 1.57602286
      vertex 1.13054757 1.43642005 1.57663392
    endloop
  endfacet
  facet normal -0.588576306 0.00579419081 0.808420905
    outer loop
      vertex 1.06676501 1.43409139 1.66628102
      vertex 1.06580418 1.43705741 1.66556022
      vertex 1.06495812 1.43637203 1.66494916
    endloop
  endfacet
  facet normal -0.666675847 0.562160189 -0.489407026
    outer loop
      vertex 1.12970152 1.43573467 1.57602286
      vertex 1.12913055 1.43470209 1.57561456
      vertex 1.06438715 1.43533945 1.66454086
    endloop
  endfacet
  facet normal -0.666675847 0.562160189 -0.489407026
    outer loop
      vertex 1.12970152 1.43573467 1.57602286
      vertex 1.06438715 1.43533945 1.66454086
      vertex 1.06495812 1.43637203 1.66494916
    endloop
  endfacet
  facet normal 0.588576306 -0.00579419081 -0.808420905
    outer loop
      vertex 1.1315084 1.43345403 1.57735472
      vertex 1.12913055 1.43470209 1.57561456
      vertex 1.12970152 1.43573467 1.57602286
    endloop
  endfacet
  facet normal -0.588576306 0.00579419081 0.808420905
    outer loop
      vertex 1.06676501 1.43409139 1.66628102
      vertex 1.06495812 1.43637203 1.66494916
      vertex 1.06438715 1.43533945 1.66454086
    endloop
  endfacet
  facet normal -0.790928449 0.202886005 -0.577294948
    outer loop
      vertex 1.12913055 1.43470209 1.57561456
      vertex 1.12892158 1.4334795 1.57547118
      vertex 1.06417819 1.43411686 1.66439748
    endloop
  endfacet
  facet normal -0.790928449 0.202886005 -0.577294948
    outer loop
      vertex 1.12913055 1.43470209 1.57561456
      vertex 1.06417819 1.43411686 1.66439748
      vertex 1.06438715 1.43533945 1.66454086
    endloop
  endfacet
  facet normal 0.588576306 -0.00579419081 -0.808420905
    outer loop
      vertex 1.1315084 1.43345403 1.57735472
      vertex 1.12892158 1.4334795 1.57547118
      vertex 1.12913055 1.43470209 1.57561456
    endloop
  endfacet
  facet normal -0.588576306 0.00579419081 0.808420905
    outer loop
      vertex 1.06676501 1.43409139 1.66628102
      vertex 1.06438715 1.43533945 1.66454086
      vertex 1.06417819 1.43411686 1.66439748
    endloop
  endfacet
  facet normal -0.794769364 -0.187275734 -0.577294948
    outer loop
      vertex 1.12892158 1.4334795 1.57547118
      vertex 1.12910644 1.43225303 1.57561456
      vertex 1.06436304 1.43289039 1.66454086
    endloop
  endfacet
  facet normal -0.794769364 -0.187275734 -0.577294948
    outer loop
      vertex 1.12892158 1.4334795 1.57547118
      vertex 1.06436304 1.43289039 1.66454086
      vertex 1.06417819 1.43411686 1.66439748
    endloop
  endfacet
  facet normal 0.588576306 -0.00579419081 -0.808420905
    outer loop
      vertex 1.1315084 1.43345403 1.57735472
      vertex 1.12910644 1.43225303 1.57561456
      vertex 1.12892158 1.4334795 1.57547118
    endloop
  endfacet
  facet normal -0.588576306 0.00579419081 0.808420905
    outer loop
      vertex 1.06676501 1.43409139 1.66628102
      vertex 1.06417819 1.43411686 1.66439748
      vertex 1.06436304 1.43289039 1.66454086
    endloop
  endfacet
  facet normal -0.677613848 -0.54892644 -0.489407026
    outer loop
      vertex 1.12910644 1.43225303 1.57561456
      vertex 1.12965697 1.43120941 1.57602286
      vertex 1.06491358 1.43184677 1.66494916
    endloop
  endfacet
  facet normal -0.677613848 -0.54892644 -0.489407026
    outer loop
      vertex 1.12910644 1.43225303 1.57561456
      vertex 1.06491358 1.43184677 1.66494916
      vertex 1.06436304 1.43289039 1.66454086
    endloop
  endfacet
  facet normal 0.588576306 -0.00579419081 -0.808420905
    outer loop
      vertex 1.1315084 1.43345403 1.57735472
      vertex 1.12965697 1.43120941 1.57602286
      vertex 1.12910644 1.43225303 1.57561456
    endloop
  endfacet
  facet normal -0.588576306 0.00579419081 0.808420905
    outer loop
      vertex 1.06676501 1.43409139 1.66628102
      vertex 1.06436304 1.43289039 1.66454086
      vertex 1.06491358 1.43184677 1.66494916
    endloop
  endfacet
  facet normal -0.457297766 -0.827008071 -0.32701132
    outer loop
      vertex 1.12965697 1.43120941 1.57602286
      vertex 1.13048937 1.43050751 1.57663392
      vertex 1.06574597 1.43114487 1.66556022
    endloop
  endfacet
  facet normal -0.457297766 -0.827008071 -0.32701132
    outer loop
      vertex 1.12965697 1.43120941 1.57602286
      vertex 1.06574597 1.43114487 1.66556022
      vertex 1.06491358 1.43184677 1.66494916
    endloop
  endfacet
  facet normal 0.588576306 -0.00579419081 -0.808420905
    outer loop
      vertex 1.1315084 1.43345403 1.57735472
      vertex 1.13048937 1.43050751 1.57663392
      vertex 1.12965697 1.43120941 1.57602286
    endloop
  endfacet
  facet normal -0.588576306 0.00579419081 0.808420905
    outer loop
      vertex 1.06676501 1.43409139 1.66628102
      vertex 1.06491358 1.43184677 1.66494916
      vertex 1.06574597 1.43114487 1.66556022
    endloop
  endfacet
  facet normal -0.167362245 -0.979185221 -0.114831105
    outer loop
      vertex 1.13048937 1.43050751 1.57663392
      vertex 1.1314769 1.43025419 1.57735472
      vertex 1.06673351 1.43089155 1.66628102
    endloop
  endfacet
  facet normal -0.167362245 -0.979185221 -0.114831105
    outer loop
      vertex 1.13048937 1.43050751 1.57663392
      vertex 1.06673351 1.43089155 1.66628102
      vertex 1.06574597 1.43114487 1.66556022
    endloop
  endfacet
  facet normal 0.588576306 -0.00579419081 -0.808420905
    outer loop
      vertex 1.1315084 1.43345403 1.57735472
      vertex 1.1314769 1.43025419 1.57735472
      vertex 1.13048937 1.43050751 1.57663392
    endloop
  endfacet
  facet normal -0.588576306 0.00579419081 0.808420905
    outer loop
      vertex 1.06676501 1.43409139 1.66628102
      vertex 1.06574597 1.43114487 1.66556022
      vertex 1.06673351 1.43089155 1.66628102
    endloop
  endfacet
  facet normal 0.148052661 -0.982290297 0.114831105
    outer loop
      vertex 1.1314769 1.43025419 1.57735472
      vertex 1.13246923 1.43048802 1.57807552
      vertex 1.06772584 1.43112538 1.66700182
    endloop
  endfacet
  facet normal 0.148052661 -0.982290297 0.114831105
    outer loop
      vertex 1.1314769 1.43025419 1.57735472
      vertex 1.06772584 1.43112538 1.66700182
      vertex 1.06673351 1.43089155 1.66628102
    endloop
  endfacet
  facet normal 0.588576306 -0.00579419081 -0.808420905
    outer loop
      vertex 1.1315084 1.43345403 1.57735472
      vertex 1.13246923 1.43048802 1.57807552
      vertex 1.1314769 1.43025419 1.57735472
    endloop
  endfacet
  facet normal -0.588576306 0.00579419081 0.808420905
    outer loop
      vertex 1.06676501 1.43409139 1.66628102
      vertex 1.06673351 1.43089155 1.66628102
      vertex 1.06772584 1.43112538 1.66700182
    endloop
  endfacet
  facet normal 0.440927892 -0.835850579 0.32701132
    outer loop
      vertex 1.13246923 1.43048802 1.57807552
      vertex 1.13331529 1.43117339 1.57868658
      vertex 1.06857189 1.43181076 1.66761288
    endloop
  endfacet
  facet normal 0.440927892 -0.835850579 0.32701132
    outer loop
      vertex 1.13246923 1.43048802 1.57807552
      vertex 1.06857189 1.43181076 1.66761288
      vertex 1.06772584 1.43112538 1.66700182
    endloop
  endfacet
  facet normal 0.588576306 -0.00579419081 -0.808420905
    outer loop
      vertex 1.1315084 1.43345403 1.57735472
      vertex 1.13331529 1.43117339 1.57868658
      vertex 1.13246923 1.43048802 1.57807552
    endloop
  endfacet
  facet normal -0.588576306 0.00579419081 0.808420905
    outer loop
      vertex 1.06676501 1.43409139 1.66628102
      vertex 1.06772584 1.43112538 1.66700182
      vertex 1.06857189 1.43181076 1.66761288
    endloop
  endfacet
  facet normal 0.666675847 -0.562160189 0.489407026
    outer loop
      vertex 1.13331529 1.43117339 1.57868658
      vertex 1.13388626 1.43220598 1.57909488
      vertex 1.06914287 1.43284334 1.66802118
    endloop
  endfacet
  facet normal 0.666675847 -0.562160189 0.489407026
    outer loop
      vertex 1.13331529 1.43117339 1.57868658
      vertex 1.06914287 1.43284334 1.66802118
      vertex 1.06857189 1.43181076 1.66761288
    endloop
  endfacet
  facet normal 0.588576306 -0.00579419081 -0.808420905
    outer loop
      vertex 1.1315084 1.43345403 1.57735472
      vertex 1.13388626 1.43220598 1.57909488
      vertex 1.13331529 1.43117339 1.57868658
    endloop
  endfacet
  facet normal -0.588576306 0.00579419081 0.808420905
    outer loop
      vertex 1.06676501 1.43409139 1.66628102
      vertex 1.06857189 1.43181076 1.66761288
      vertex 1.06914287 1.43284334 1.66802118
    endloop
  endfacet
  facet normal 0.790928449 -0.202886005 0.577294948
    outer loop
      vertex 1.13388626 1.43220598 1.57909488
      vertex 1.13409522 1.43342857 1.57923825
      vertex 1.06935183 1.43406593 1.66816455
    endloop
  endfacet
  facet normal 0.790928449 -0.202886005 0.577294948
    outer loop
      vertex 1.13388626 1.43220598 1.57909488
      vertex 1.06935183 1.43406593 1.66816455
      vertex 1.06914287 1.43284334 1.66802118
    endloop
  endfacet
  facet normal 0.588576306 -0.00579419081 -0.808420905
    outer loop
      vertex 1.1315084 1.43345403 1.57735472
      vertex 1.13409522 1.43342857 1.57923825
      vertex 1.13388626 1.43220598 1.57909488
    endloop
  endfacet
  facet normal -0.588576306 0.00579419081 0.808420905
    outer loop
      vertex 1.06676501 1.43409139 1.66628102
      vertex 1.06914287 1.43284334 1.66802118
      vertex 1.06935183 1.43406593 1.66816455
    endloop
  endfacet
  facet normal 0.794769364 0.187275734 0.577294948
    outer loop
      vertex 1.13409522 1.43342857 1.57923825
      vertex 1.13391037 1.43465503 1.57909488
      vertex 1.06916698 1.43529239 1.66802118
    endloop
  endfacet
  facet normal 0.794769364 0.187275734 0.577294948
    outer loop
      vertex 1.13409522 1.43342857 1.57923825
      vertex 1.06916698 1.43529239 1.66802118
      vertex 1.06935183 1.43406593 1.66816455
    endloop
  endfacet
  facet normal 0.588576306 -0.00579419081 -0.808420905
    outer loop
      vertex 1.1315084 1.43345403 1.57735472
      vertex 1.13391037 1.43465503 1.57909488
      vertex 1.13409522 1.43342857 1.57923825
    endloop
  endfacet
  facet normal -0.588576306 0.00579419081 0.808420905
    outer loop
      vertex 1.06676501 1.43409139 1.66628102
      vertex 1.06935183 1.43406593 1.66816455
      vertex 1.06916698 1.43529239 1.66802118
    endloop
  endfacet
  facet normal 0.677613848 0.54892644 0.489407026
    outer loop
      vertex 1.13391037 1.43465503 1.57909488
      vertex 1.13335984 1.43569866 1.57868658
      vertex 1.06861644 1.43633602 1.66761288
    endloop
  endfacet
  facet normal 0.677613848 0.54892644 0.489407026
    outer loop
      vertex 1.13391037 1.43465503 1.57909488
      vertex 1.06861644 1.43633602 1.66761288
      vertex 1.06916698 1.43529239 1.66802118
    endloop
  endfacet
  facet normal 0.588576306 -0.00579419081 -0.808420905
    outer loop
      vertex 1.1315084 1.43345403 1.57735472
      vertex 1.13335984 1.43569866 1.57868658
      vertex 1.13391037 1.43465503 1.57909488
    endloop
  endfacet
  facet normal -0.588576306 0.00579419081 0.808420905
    outer loop
      vertex 1.06676501 1.43409139 1.66628102
      vertex 1.06916698 1.43529239 1.66802118
      vertex 1.06861644 1.43633602 1.66761288
    endloop
  endfacet
  facet normal 0.457297766 0.827008071 0.32701132
    outer loop
      vertex 1.13335984 1.43569866 1.57868658
      vertex 1.13252744 1.43640056 1.57807552
      vertex 1.06778405 1.43703792 1.66700182
    endloop
  endfacet
  facet normal 0.457297766 0.827008071 0.32701132
    outer loop
      vertex 1.13335984 1.43569866 1.57868658
      vertex 1.06778405 1.43703792 1.66700182
      vertex 1.06861644 1.43633602 1.66761288
    endloop
  endfacet
  facet normal 0.588576306 -0.00579419081 -0.808420905
    outer loop
      vertex 1.1315084 1.43345403 1.57735472
      vertex 1.13252744 1.43640056 1.57807552
      vertex 1.13335984 1.43569866 1.57868658
    endloop
  endfacet
  facet normal -0.588576306 0.00579419081 0.808420905
    outer loop
      vertex 1.06676501 1.43409139 1.66628102
      vertex 1.06861644 1.43633602 1.66761288
      vertex 1.06778405 1.43703792 1.66700182
    endloop
  endfacet
  facet normal 0.167362245 0.979185221 0.114831105
    outer loop
      vertex 1.13252744 1.43640056 1.57807552
      vertex 1.1315399 1.43665388 1.57735472
      vertex 1.06679651 1.43729124 1.66628102
    endloop
  endfacet
  facet normal 0.167362245 0.979185221 0.114831105
    outer loop
      vertex 1.13252744 1.43640056 1.57807552
      vertex 1.06679651 1.43729124 1.66628102
      vertex 1.06778405 1.43703792 1.66700182
    endloop
  endfacet
  facet normal 0.588576306 -0.00579419081 -0.808420905
    outer loop
      vertex 1.1315084 1.43345403 1.57735472
      vertex 1.1315399 1.43665388 1.57735472
      vertex 1.13252744 1.43640056 1.57807552
    endloop
  endfacet
  facet normal -0.588576306 0.00579419081 0.808420905
    outer loop
      vertex 1.06676501 1.43409139 1.66628102
      vertex 1.06778405 1.43703792 1.66700182
      vertex 1.06679651 1.43729124 1.66628102
    endloop
  endfacet
endsolid d21_features
