solid b20_blank
  facet normal -0.486477636 -0.274686993 0.829389273
    outer loop
      vertex 0.884831654 3.34276416 1.93622074
      vertex 0.835280024 3.3700261 1.9161852
      vertex 0.62628762 2.74888032 1.58788243
    endloop
  endfacet
  facet normal -0.486477636 -0.274686993 0.829389273
    outer loop
      vertex 0.884831654 3.34276416 1.93622074
      vertex 0.62628762 2.74888032 1.58788243
      vertex 0.67583925 2.72161838 1.60791797
    endloop
  endfacet
  facet normal 0.825860498 -0.454365611 0.333925635
    outer loop
      vertex 0.884831654 3.34276416 1.93622074
      vertex 0.67583925 2.72161838 1.60791797
      vertex 0.714757461 2.74359334 1.54156683
    endloop
  endfacet
  facet normal 0.825860498 -0.454365611 0.333925635
    outer loop
      vertex 0.884831654 3.34276416 1.93622074
      vertex 0.714757461 2.74359334 1.54156683
      vertex 0.923749865 3.36473912 1.8698696
    endloop
  endfacet
  facet normal -0.285120935 -0.847407191 -0.447891845
    outer loop
      vertex 0.67583925 2.72161838 1.60791797
      vertex 0.62628762 2.74888032 1.58788243
      vertex 0.665205831 2.77085528 1.52153129
    endloop
  endfacet
  facet normal -0.285120935 -0.847407191 -0.447891845
    outer loop
      vertex 0.67583925 2.72161838 1.60791797
      vertex 0.665205831 2.77085528 1.52153129
      vertex 0.714757461 2.74359334 1.54156683
    endloop
  endfacet
  facet normal -0.825860498 0.454365611 -0.333925635
    outer loop
      vertex 0.62628762 2.74888032 1.58788243
      vertex 0.835280024 3.3700261 1.9161852
      vertex 0.874198235 3.39200106 1.84983406
    endloop
  endfacet
  facet normal -0.825860498 0.454365611 -0.333925635
    outer loop
      vertex 0.62628762 2.74888032 1.58788243
      vertex 0.874198235 3.39200106 1.84983406
      vertex 0.665205831 2.77085528 1.52153129
    endloop
  endfacet
  facet normal 0.285120935 0.847407191 0.447891845
    outer loop
      vertex 0.835280024 3.3700261 1.9161852
      vertex 0.884831654 3.34276416 1.93622074
      vertex 0.923749865 3.36473912 1.8698696
    endloop
  endfacet
  facet normal 0.285120935 0.847407191 0.447891845
    outer loop
      vertex 0.835280024 3.3700261 1.9161852
      vertex 0.923749865 3.36473912 1.8698696
      vertex 0.874198235 3.39200106 1.84983406
    endloop
  endfacet
  facet normal 0.486477636 0.274686993 -0.829389273
    outer loop
      vertex 0.923749865 3.36473912 1.8698696
      vertex 0.714757461 2.74359334 1.54156683
      vertex 0.665205831 2.77085528 1.52153129
    endloop
  endfacet
  facet normal 0.486477636 0.274686993 -0.829389273
    outer loop
      vertex 0.923749865 3.36473912 1.8698696
      vertex 0.665205831 2.77085528 1.52153129
      vertex 0.874198235 3.39200106 1.84983406
    endloop
  endfacet
endsolid b20_blank
