solid d17_blank
  facet normal -0.375300902 0.0697595227 0.924274224
    outer loop
      vertex 2.27932845 0.70588665 2.16284188
      vertex 2.2827723 0.765706606 2.15972534
      vertex 1.28147016 0.802026814 1.75040604
    endloop
  endfacet
  facet normal -0.375300902 0.0697595227 0.924274224
    outer loop
      vertex 2.27932845 0.70588665 2.16284188
      vertex 1.28147016 0.802026814 1.75040604
      vertex 1.27802631 0.742206858 1.75352258
    endloop
  endfacet
  facet normal -0.0573974446 -0.996999266 0.0519422471
    outer loop
      vertex 2.27932845 0.70588665 2.16284188
      vertex 1.27802631 0.742206858 1.75352258
      vertex 1.30805038 0.736626096 1.67958064
    endloop
  endfacet
  facet normal -0.0573974446 -0.996999266 0.0519422471
    outer loop
      vertex 2.27932845 0.70588665 2.16284188
      vertex 1.30805038 0.736626096 1.67958064
      vertex 2.30935253 0.700305889 2.08889994
    endloop
  endfacet
  facet normal -0.92512419 0.0335570063 -0.378178742
    outer loop
      vertex 1.27802631 0.742206858 1.75352258
      vertex 1.28147016 0.802026814 1.75040604
      vertex 1.31149423 0.796446052 1.6764641
    endloop
  endfacet
  facet normal -0.92512419 0.0335570063 -0.378178742
    outer loop
      vertex 1.27802631 0.742206858 1.75352258
      vertex 1.31149423 0.796446052 1.6764641
      vertex 1.30805038 0.736626096 1.67958064
    endloop
  endfacet
  facet normal 0.0573974446 0.996999266 -0.0519422471
    outer loop
      vertex 1.28147016 0.802026814 1.75040604
      vertex 2.2827723 0.765706606 2.15972534
      vertex 2.31279637 0.760125845 2.0857834
    endloop
  endfacet
  facet normal 0.0573974446 0.996999266 -0.0519422471
    outer loop
      vertex 1.28147016 0.802026814 1.75040604
      vertex 2.31279637 0.760125845 2.0857834
      vertex 1.31149423 0.796446052 1.6764641
    endloop
  endfacet
  facet normal 0.92512419 -0.0335570063 0.378178742
    outer loop
      vertex 2.2827723 0.765706606 2.15972534
      vertex 2.27932845 0.70588665 2.16284188
      vertex 2.30935253 0.700305889 2.08889994
    endloop
  endfacet
  facet normal 0.92512419 -0.0335570063 0.378178742
    outer loop
      vertex 2.2827723 0.765706606 2.15972534
      vertex 2.30935253 0.700305889 2.08889994
      vertex 2.31279637 0.760125845 2.0857834
    endloop
  endfacet
  facet normal 0.375300902 -0.0697595227 -0.924274224
    outer loop
      vertex 2.30935253 0.700305889 2.08889994
      vertex 1.30805038 0.736626096 1.67958064
      vertex 1.31149423 0.796446052 1.6764641
    endloop
  endfacet
  facet normal 0.375300902 -0.0697595227 -0.924274224
    outer loop
      vertex 2.30935253 0.700305889 2.08889994
      vertex 1.31149423 0.796446052 1.6764641
      vertex 2.31279637 0.760125845 2.0857834
    endloop
  endfacet
endsolid d17_blank
