solid e6_features
  facet normal -0.0603397241 0.988343989 -0.139768658
    outer loop
      vertex 5.09581972 -0.112652996 0.909897379
      vertex 5.09637324 -0.112696746 0.909349047
      vertex 5.03316531 -0.125435145 0.846559786
    endloop
  endfacet
  facet normal -0.0603397241 0.988343989 -0.139768658
    outer loop
      vertex 5.09581972 -0.112652996 0.909897379
      vertex 5.03316531 -0.125435145 0.846559786
      vertex 5.0326118 -0.125391394 0.847108118
    endloop
  endfacet
  facet normal 0.70231028 0.141537761 0.697658464
    outer loop
      vertex 5.09621484 -0.114613577 0.909897379
      vertex 5.09637324 -0.112696746 0.909349047
      vertex 5.09581972 -0.112652996 0.909897379
    endloop
  endfacet
  facet normal -0.70231028 -0.141537761 -0.697658464
    outer loop
      vertex 5.03300692 -0.127351976 0.847108118
      vertex 5.0326118 -0.125391394 0.847108118
      vertex 5.03316531 -0.125435145 0.846559786
    endloop
  endfacet
  facet normal 0.215694202 0.891655848 -0.398027462
    outer loop
      vertex 5.09637324 -0.112696746 0.909349047
      vertex 5.09690264 -0.113032317 0.908884194
      vertex 5.03369472 -0.125770715 0.846094932
    endloop
  endfacet
  facet normal 0.215694202 0.891655848 -0.398027462
    outer loop
      vertex 5.09637324 -0.112696746 0.909349047
      vertex 5.03369472 -0.125770715 0.846094932
      vertex 5.03316531 -0.125435145 0.846559786
    endloop
  endfacet
  facet normal 0.70231028 0.141537761 0.697658464
    outer loop
      vertex 5.09621484 -0.114613577 0.909897379
      vertex 5.09690264 -0.113032317 0.908884194
      vertex 5.09637324 -0.112696746 0.909349047
    endloop
  endfacet
  facet normal -0.70231028 -0.141537761 -0.697658464
    outer loop
      vertex 5.03300692 -0.127351976 0.847108118
      vertex 5.03316531 -0.125435145 0.846559786
      vertex 5.03369472 -0.125770715 0.846094932
    endloop
  endfacet
  facet normal 0.458890641 0.659221187 -0.595690194
    outer loop
      vertex 5.09690264 -0.113032317 0.908884194
      vertex 5.09732733 -0.11360862 0.908573588
      vertex 5.03411941 -0.126347019 0.845784327
    endloop
  endfacet
  facet normal 0.458890641 0.659221187 -0.595690194
    outer loop
      vertex 5.09690264 -0.113032317 0.908884194
      vertex 5.03411941 -0.126347019 0.845784327
      vertex 5.03369472 -0.125770715 0.846094932
    endloop
  endfacet
  facet normal 0.70231028 0.141537761 0.697658464
    outer loop
      vertex 5.09621484 -0.114613577 0.909897379
      vertex 5.09732733 -0.11360862 0.908573588
      vertex 5.09690264 -0.113032317 0.908884194
    endloop
  endfacet
  facet normal -0.70231028 -0.141537761 -0.697658464
    outer loop
      vertex 5.03300692 -0.127351976 0.847108118
      vertex 5.03369472 -0.125770715 0.846094932
      vertex 5.03411941 -0.126347019 0.845784327
    endloop
  endfacet
  facet normal 0.632225139 0.326426076 -0.702664493
    outer loop
      vertex 5.09732733 -0.11360862 0.908573588
      vertex 5.09758266 -0.114337919 0.908464518
      vertex 5.03437473 -0.127076317 0.845675257
    endloop
  endfacet
  facet normal 0.632225139 0.326426076 -0.702664493
    outer loop
      vertex 5.09732733 -0.11360862 0.908573588
      vertex 5.03437473 -0.127076317 0.845675257
      vertex 5.03411941 -0.126347019 0.845784327
    endloop
  endfacet
  facet normal 0.70231028 0.141537761 0.697658464
    outer loop
      vertex 5.09621484 -0.114613577 0.909897379
      vertex 5.09758266 -0.114337919 0.908464518
      vertex 5.09732733 -0.11360862 0.908573588
    endloop
  endfacet
  facet normal -0.70231028 -0.141537761 -0.697658464
    outer loop
      vertex 5.03300692 -0.127351976 0.847108118
      vertex 5.03411941 -0.126347019 0.845784327
      vertex 5.03437473 -0.127076317 0.845675257
    endloop
  endfacet
  facet normal 0.709309092 -0.0560644461 -0.702664493
    outer loop
      vertex 5.09758266 -0.114337919 0.908464518
      vertex 5.09762974 -0.115109184 0.908573588
      vertex 5.03442182 -0.127847583 0.845784327
    endloop
  endfacet
  facet normal 0.709309092 -0.0560644461 -0.702664493
    outer loop
      vertex 5.09758266 -0.114337919 0.908464518
      vertex 5.03442182 -0.127847583 0.845784327
      vertex 5.03437473 -0.127076317 0.845675257
    endloop
  endfacet
  facet normal 0.70231028 0.141537761 0.697658464
    outer loop
      vertex 5.09621484 -0.114613577 0.909897379
      vertex 5.09762974 -0.115109184 0.908573588
      vertex 5.09758266 -0.114337919 0.908464518
    endloop
  endfacet
  facet normal -0.70231028 -0.141537761 -0.697658464
    outer loop
      vertex 5.03300692 -0.127351976 0.847108118
      vertex 5.03437473 -0.127076317 0.845675257
      vertex 5.03442182 -0.127847583 0.845784327
    endloop
  endfacet
  facet normal 0.678407165 -0.430019664 -0.595690194
    outer loop
      vertex 5.09762974 -0.115109184 0.908573588
      vertex 5.09746142 -0.115804998 0.908884194
      vertex 5.0342535 -0.128543397 0.846094932
    endloop
  endfacet
  facet normal 0.678407165 -0.430019664 -0.595690194
    outer loop
      vertex 5.09762974 -0.115109184 0.908573588
      vertex 5.0342535 -0.128543397 0.846094932
      vertex 5.03442182 -0.127847583 0.845784327
    endloop
  endfacet
  facet normal 0.70231028 0.141537761 0.697658464
    outer loop
      vertex 5.09621484 -0.114613577 0.909897379
      vertex 5.09746142 -0.115804998 0.908884194
      vertex 5.09762974 -0.115109184 0.908573588
    endloop
  endfacet
  facet normal -0.70231028 -0.141537761 -0.697658464
    outer loop
      vertex 5.03300692 -0.127351976 0.847108118
      vertex 5.03442182 -0.127847583 0.845784327
      vertex 5.0342535 -0.128543397 0.846094932
    endloop
  endfacet
  facet normal 0.544223897 -0.738508287 -0.398027462
    outer loop
      vertex 5.09746142 -0.115804998 0.908884194
      vertex 5.09710332 -0.116319429 0.909349047
      vertex 5.0338954 -0.129057827 0.846559786
    endloop
  endfacet
  facet normal 0.544223897 -0.738508287 -0.398027462
    outer loop
      vertex 5.09746142 -0.115804998 0.908884194
      vertex 5.0338954 -0.129057827 0.846559786
      vertex 5.0342535 -0.128543397 0.846094932
    endloop
  endfacet
  facet normal 0.70231028 0.141537761 0.697658464
    outer loop
      vertex 5.09621484 -0.114613577 0.909897379
      vertex 5.09710332 -0.116319429 0.909349047
      vertex 5.09746142 -0.115804998 0.908884194
    endloop
  endfacet
  facet normal -0.70231028 -0.141537761 -0.697658464
    outer loop
      vertex 5.03300692 -0.127351976 0.847108118
      vertex 5.0342535 -0.128543397 0.846094932
      vertex 5.0338954 -0.129057827 0.846559786
    endloop
  endfacet
  facet normal 0.327187474 -0.934565717 -0.139768658
    outer loop
      vertex 5.09710332 -0.116319429 0.909349047
      vertex 5.09660996 -0.116574159 0.909897379
      vertex 5.03340203 -0.129312558 0.847108118
    endloop
  endfacet
  facet normal 0.327187474 -0.934565717 -0.139768658
    outer loop
      vertex 5.09710332 -0.116319429 0.909349047
      vertex 5.03340203 -0.129312558 0.847108118
      vertex 5.0338954 -0.129057827 0.846559786
    endloop
  endfacet
  facet normal 0.70231028 0.141537761 0.697658464
    outer loop
      vertex 5.09621484 -0.114613577 0.909897379
      vertex 5.09660996 -0.116574159 0.909897379
      vertex 5.09710332 -0.116319429 0.909349047
    endloop
  endfacet
  facet normal -0.70231028 -0.141537761 -0.697658464
    outer loop
      vertex 5.03300692 -0.127351976 0.847108118
      vertex 5.0338954 -0.129057827 0.846559786
      vertex 5.03340203 -0.129312558 0.847108118
    endloop
  endfacet
  facet normal 0.0603397241 -0.988343989 0.139768658
    outer loop
      vertex 5.09660996 -0.116574159 0.909897379
      vertex 5.09605644 -0.116530408 0.910445712
      vertex 5.03284852 -0.129268807 0.84765645
    endloop
  endfacet
  facet normal 0.0603397241 -0.988343989 0.139768658
    outer loop
      vertex 5.09660996 -0.116574159 0.909897379
      vertex 5.03284852 -0.129268807 0.84765645
      vertex 5.03340203 -0.129312558 0.847108118
    endloop
  endfacet
  facet normal 0.70231028 0.141537761 0.697658464
    outer loop
      vertex 5.09621484 -0.114613577 0.909897379
      vertex 5.09605644 -0.116530408 0.910445712
      vertex 5.09660996 -0.116574159 0.909897379
    endloop
  endfacet
  facet normal -0.70231028 -0.141537761 -0.697658464
    outer loop
      vertex 5.03300692 -0.127351976 0.847108118
      vertex 5.03340203 -0.129312558 0.847108118
      vertex 5.03284852 -0.129268807 0.84765645
    endloop
  endfacet
  facet normal -0.215694202 -0.891655848 0.398027462
    outer loop
      vertex 5.09605644 -0.116530408 0.910445712
      vertex 5.09552704 -0.116194838 0.910910565
      vertex 5.03231911 -0.128933236 0.848121303
    endloop
  endfacet
  facet normal -0.215694202 -0.891655848 0.398027462
    outer loop
      vertex 5.09605644 -0.116530408 0.910445712
      vertex 5.03231911 -0.128933236 0.848121303
      vertex 5.03284852 -0.129268807 0.84765645
    endloop
  endfacet
  facet normal 0.70231028 0.141537761 0.697658464
    outer loop
      vertex 5.09621484 -0.114613577 0.909897379
      vertex 5.09552704 -0.116194838 0.910910565
      vertex 5.09605644 -0.116530408 0.910445712
    endloop
  endfacet
  facet normal -0.70231028 -0.141537761 -0.697658464
    outer loop
      vertex 5.03300692 -0.127351976 0.847108118
      vertex 5.03284852 -0.129268807 0.84765645
      vertex 5.03231911 -0.128933236 0.848121303
    endloop
  endfacet
  facet normal -0.458890641 -0.659221187 0.595690194
    outer loop
      vertex 5.09552704 -0.116194838 0.910910565
      vertex 5.09510235 -0.115618534 0.91122117
      vertex 5.03189442 -0.128356933 0.848431909
    endloop
  endfacet
  facet normal -0.458890641 -0.659221187 0.595690194
    outer loop
      vertex 5.09552704 -0.116194838 0.910910565
      vertex 5.03189442 -0.128356933 0.848431909
      vertex 5.03231911 -0.128933236 0.848121303
    endloop
  endfacet
  facet normal 0.70231028 0.141537761 0.697658464
    outer loop
      vertex 5.09621484 -0.114613577 0.909897379
      vertex 5.09510235 -0.115618534 0.91122117
      vertex 5.09552704 -0.116194838 0.910910565
    endloop
  endfacet
  facet normal -0.70231028 -0.141537761 -0.697658464
    outer loop
      vertex 5.03300692 -0.127351976 0.847108118
      vertex 5.03231911 -0.128933236 0.848121303
      vertex 5.03189442 -0.128356933 0.848431909
    endloop
  endfacet
  facet normal -0.632225139 -0.326426076 0.702664493
    outer loop
      vertex 5.09510235 -0.115618534 0.91122117
      vertex 5.09484702 -0.114889236 0.91133024
      vertex 5.0316391 -0.127627634 0.848540979
    endloop
  endfacet
  facet normal -0.632225139 -0.326426076 0.702664493
    outer loop
      vertex 5.09510235 -0.115618534 0.91122117
      vertex 5.0316391 -0.127627634 0.848540979
      vertex 5.03189442 -0.128356933 0.848431909
    endloop
  endfacet
  facet normal 0.70231028 0.141537761 0.697658464
    outer loop
      vertex 5.09621484 -0.114613577 0.909897379
      vertex 5.09484702 -0.114889236 0.91133024
      vertex 5.09510235 -0.115618534 0.91122117
    endloop
  endfacet
  facet normal -0.70231028 -0.141537761 -0.697658464
    outer loop
      vertex 5.03300692 -0.127351976 0.847108118
      vertex 5.03189442 -0.128356933 0.848431909
      vertex 5.0316391 -0.127627634 0.848540979
    endloop
  endfacet
  facet normal -0.709309092 0.0560644461 0.702664493
    outer loop
      vertex 5.09484702 -0.114889236 0.91133024
      vertex 5.09479994 -0.11411797 0.91122117
      vertex 5.03159201 -0.126856369 0.848431909
    endloop
  endfacet
  facet normal -0.709309092 0.0560644461 0.702664493
    outer loop
      vertex 5.09484702 -0.114889236 0.91133024
      vertex 5.03159201 -0.126856369 0.848431909
      vertex 5.0316391 -0.127627634 0.848540979
    endloop
  endfacet
  facet normal 0.70231028 0.141537761 0.697658464
    outer loop
      vertex 5.09621484 -0.114613577 0.909897379
      vertex 5.09479994 -0.11411797 0.91122117
      vertex 5.09484702 -0.114889236 0.91133024
    endloop
  endfacet
  facet normal -0.70231028 -0.141537761 -0.697658464
    outer loop
      vertex 5.03300692 -0.127351976 0.847108118
      vertex 5.0316391 -0.127627634 0.848540979
      vertex 5.03159201 -0.126856369 0.848431909
    endloop
  endfacet
  facet normal -0.678407165 0.430019664 0.595690194
    outer loop
      vertex 5.09479994 -0.11411797 0.91122117
      vertex 5.09496826 -0.113422156 0.910910565
      vertex 5.03176033 -0.126160555 0.848121303
    endloop
  endfacet
  facet normal -0.678407165 0.430019664 0.595690194
    outer loop
      vertex 5.09479994 -0.11411797 0.91122117
      vertex 5.03176033 -0.126160555 0.848121303
      vertex 5.03159201 -0.126856369 0.848431909
    endloop
  endfacet
  facet normal 0.70231028 0.141537761 0.697658464
    outer loop
      vertex 5.09621484 -0.114613577 0.909897379
      vertex 5.09496826 -0.113422156 0.910910565
      vertex 5.09479994 -0.11411797 0.91122117
    endloop
  endfacet
  facet normal -0.70231028 -0.141537761 -0.697658464
    outer loop
      vertex 5.03300692 -0.127351976 0.847108118
      vertex 5.03159201 -0.126856369 0.848431909
      vertex 5.03176033 -0.126160555 0.848121303
    endloop
  endfacet
  facet normal -0.544223897 0.738508287 0.398027462
    outer loop
      vertex 5.09496826 -0.113422156 0.910910565
      vertex 5.09532636 -0.112907726 0.910445712
      vertex 5.03211843 -0.125646124 0.84765645
    endloop
  endfacet
  facet normal -0.544223897 0.738508287 0.398027462
    outer loop
      vertex 5.09496826 -0.113422156 0.910910565
      vertex 5.03211843 -0.125646124 0.84765645
      vertex 5.03176033 -0.126160555 0.848121303
    endloop
  endfacet
  facet normal 0.70231028 0.141537761 0.697658464
    outer loop
      vertex 5.09621484 -0.114613577 0.909897379
      vertex 5.09532636 -0.112907726 0.910445712
      vertex 5.09496826 -0.113422156 0.910910565
    endloop
  endfacet
  facet normal -0.70231028 -0.141537761 -0.697658464
    outer loop
      vertex 5.03300692 -0.127351976 0.847108118
      vertex 5.03176033 -0.126160555 0.848121303
      vertex 5.03211843 -0.125646124 0.84765645
    endloop
  endfacet
  facet normal -0.327187474 0.934565717 0.139768658
    outer loop
      vertex 5.09532636 -0.112907726 0.910445712
      vertex 5.09581972 -0.112652996 0.909897379
      vertex 5.0326118 -0.125391394 0.847108118
    endloop
  endfacet
  facet normal -0.327187474 0.934565717 0.139768658
    outer loop
      vertex 5.09532636 -0.112907726 0.910445712
      vertex 5.0326118 -0.125391394 0.847108118
      vertex 5.03211843 -0.125646124 0.84765645
    endloop
  endfacet
  facet normal 0.70231028 0.141537761 0.697658464
    outer loop
      vertex 5.09621484 -0.114613577 0.909897379
      vertex 5.09581972 -0.112652996 0.909897379
      vertex 5.09532636 -0.112907726 0.910445712
    endloop
  endfacet
  facet normal -0.70231028 -0.141537761 -0.697658464
    outer loop
      vertex 5.03300692 -0.127351976 0.847108118
      vertex 5.03211843 -0.125646124 0.84765645
      vertex 5.0326118 -0.125391394 0.847108118
    endloop
  endfacet
  facet normal -0.0603397241 0.988343989 -0.139768658
    outer loop
      vertex 5.11680451 -0.111310348 0.888500279
      vertex 5.11735803 -0.111354099 0.887951946
      vertex 5.0541501 -0.124092497 0.825162685
    endloop
  endfacet
  facet normal -0.0603397241 0.988343989 -0.139768658
    outer loop
      vertex 5.11680451 -0.111310348 0.888500279
      vertex 5.0541501 -0.124092497 0.825162685
      vertex 5.05359659 -0.124048747 0.825711017
    endloop
  endfacet
  facet normal 0.70231028 0.141537761 0.697658464
    outer loop
      vertex 5.11719963 -0.11327093 0.888500279
      vertex 5.11735803 -0.111354099 0.887951946
      vertex 5.11680451 -0.111310348 0.888500279
    endloop
  endfacet
  facet normal -0.70231028 -0.141537761 -0.697658464
    outer loop
      vertex 5.0539917 -0.126009328 0.825711017
      vertex 5.05359659 -0.124048747 0.825711017
      vertex 5.0541501 -0.124092497 0.825162685
    endloop
  endfacet
  facet normal 0.215694202 0.891655848 -0.398027462
    outer loop
      vertex 5.11735803 -0.111354099 0.887951946
      vertex 5.11788743 -0.111689669 0.887487093
      vertex 5.05467951 -0.124428068 0.824697831
    endloop
  endfacet
  facet normal 0.215694202 0.891655848 -0.398027462
    outer loop
      vertex 5.11735803 -0.111354099 0.887951946
      vertex 5.05467951 -0.124428068 0.824697831
      vertex 5.0541501 -0.124092497 0.825162685
    endloop
  endfacet
  facet normal 0.70231028 0.141537761 0.697658464
    outer loop
      vertex 5.11719963 -0.11327093 0.888500279
      vertex 5.11788743 -0.111689669 0.887487093
      vertex 5.11735803 -0.111354099 0.887951946
    endloop
  endfacet
  facet normal -0.70231028 -0.141537761 -0.697658464
    outer loop
      vertex 5.0539917 -0.126009328 0.825711017
      vertex 5.0541501 -0.124092497 0.825162685
      vertex 5.05467951 -0.124428068 0.824697831
    endloop
  endfacet
  facet normal 0.458890641 0.659221187 -0.595690194
    outer loop
      vertex 5.11788743 -0.111689669 0.887487093
      vertex 5.11831212 -0.112265973 0.887176488
      vertex 5.0551042 -0.125004371 0.824387226
    endloop
  endfacet
  facet normal 0.458890641 0.659221187 -0.595690194
    outer loop
      vertex 5.11788743 -0.111689669 0.887487093
      vertex 5.0551042 -0.125004371 0.824387226
      vertex 5.05467951 -0.124428068 0.824697831
    endloop
  endfacet
  facet normal 0.70231028 0.141537761 0.697658464
    outer loop
      vertex 5.11719963 -0.11327093 0.888500279
      vertex 5.11831212 -0.112265973 0.887176488
      vertex 5.11788743 -0.111689669 0.887487093
    endloop
  endfacet
  facet normal -0.70231028 -0.141537761 -0.697658464
    outer loop
      vertex 5.0539917 -0.126009328 0.825711017
      vertex 5.05467951 -0.124428068 0.824697831
      vertex 5.0551042 -0.125004371 0.824387226
    endloop
  endfacet
  facet normal 0.632225139 0.326426076 -0.702664493
    outer loop
      vertex 5.11831212 -0.112265973 0.887176488
      vertex 5.11856745 -0.112995271 0.887067418
      vertex 5.05535952 -0.12573367 0.824278156
    endloop
  endfacet
  facet normal 0.632225139 0.326426076 -0.702664493
    outer loop
      vertex 5.11831212 -0.112265973 0.887176488
      vertex 5.05535952 -0.12573367 0.824278156
      vertex 5.0551042 -0.125004371 0.824387226
    endloop
  endfacet
  facet normal 0.70231028 0.141537761 0.697658464
    outer loop
      vertex 5.11719963 -0.11327093 0.888500279
      vertex 5.11856745 -0.112995271 0.887067418
      vertex 5.11831212 -0.112265973 0.887176488
    endloop
  endfacet
  facet normal -0.70231028 -0.141537761 -0.697658464
    outer loop
      vertex 5.0539917 -0.126009328 0.825711017
      vertex 5.0551042 -0.125004371 0.824387226
      vertex 5.05535952 -0.12573367 0.824278156
    endloop
  endfacet
  facet normal 0.709309092 -0.0560644461 -0.702664493
    outer loop
      vertex 5.11856745 -0.112995271 0.887067418
      vertex 5.11861453 -0.113766537 0.887176488
      vertex 5.05540661 -0.126504935 0.824387226
    endloop
  endfacet
  facet normal 0.709309092 -0.0560644461 -0.702664493
    outer loop
      vertex 5.11856745 -0.112995271 0.887067418
      vertex 5.05540661 -0.126504935 0.824387226
      vertex 5.05535952 -0.12573367 0.824278156
    endloop
  endfacet
  facet normal 0.70231028 0.141537761 0.697658464
    outer loop
      vertex 5.11719963 -0.11327093 0.888500279
      vertex 5.11861453 -0.113766537 0.887176488
      vertex 5.11856745 -0.112995271 0.887067418
    endloop
  endfacet
  facet normal -0.70231028 -0.141537761 -0.697658464
    outer loop
      vertex 5.0539917 -0.126009328 0.825711017
      vertex 5.05535952 -0.12573367 0.824278156
      vertex 5.05540661 -0.126504935 0.824387226
    endloop
  endfacet
  facet normal 0.678407165 -0.430019664 -0.595690194
    outer loop
      vertex 5.11861453 -0.113766537 0.887176488
      vertex 5.11844621 -0.114462351 0.887487093
      vertex 5.05523829 -0.127200749 0.824697831
    endloop
  endfacet
  facet normal 0.678407165 -0.430019664 -0.595690194
    outer loop
      vertex 5.11861453 -0.113766537 0.887176488
      vertex 5.05523829 -0.127200749 0.824697831
      vertex 5.05540661 -0.126504935 0.824387226
    endloop
  endfacet
  facet normal 0.70231028 0.141537761 0.697658464
    outer loop
      vertex 5.11719963 -0.11327093 0.888500279
      vertex 5.11844621 -0.114462351 0.887487093
      vertex 5.11861453 -0.113766537 0.887176488
    endloop
  endfacet
  facet normal -0.70231028 -0.141537761 -0.697658464
    outer loop
      vertex 5.0539917 -0.126009328 0.825711017
      vertex 5.05540661 -0.126504935 0.824387226
      vertex 5.05523829 -0.127200749 0.824697831
    endloop
  endfacet
  facet normal 0.544223897 -0.738508287 -0.398027462
    outer loop
      vertex 5.11844621 -0.114462351 0.887487093
      vertex 5.11808811 -0.114976781 0.887951946
      vertex 5.05488019 -0.12771518 0.825162685
    endloop
  endfacet
  facet normal 0.544223897 -0.738508287 -0.398027462
    outer loop
      vertex 5.11844621 -0.114462351 0.887487093
      vertex 5.05488019 -0.12771518 0.825162685
      vertex 5.05523829 -0.127200749 0.824697831
    endloop
  endfacet
  facet normal 0.70231028 0.141537761 0.697658464
    outer loop
      vertex 5.11719963 -0.11327093 0.888500279
      vertex 5.11808811 -0.114976781 0.887951946
      vertex 5.11844621 -0.114462351 0.887487093
    endloop
  endfacet
  facet normal -0.70231028 -0.141537761 -0.697658464
    outer loop
      vertex 5.0539917 -0.126009328 0.825711017
      vertex 5.05523829 -0.127200749 0.824697831
      vertex 5.05488019 -0.12771518 0.825162685
    endloop
  endfacet
  facet normal 0.327187474 -0.934565717 -0.139768658
    outer loop
      vertex 5.11808811 -0.114976781 0.887951946
      vertex 5.11759475 -0.115231512 0.888500279
      vertex 5.05438682 -0.12796991 0.825711017
    endloop
  endfacet
  facet normal 0.327187474 -0.934565717 -0.139768658
    outer loop
      vertex 5.11808811 -0.114976781 0.887951946
      vertex 5.05438682 -0.12796991 0.825711017
      vertex 5.05488019 -0.12771518 0.825162685
    endloop
  endfacet
  facet normal 0.70231028 0.141537761 0.697658464
    outer loop
      vertex 5.11719963 -0.11327093 0.888500279
      vertex 5.11759475 -0.115231512 0.888500279
      vertex 5.11808811 -0.114976781 0.887951946
    endloop
  endfacet
  facet normal -0.70231028 -0.141537761 -0.697658464
    outer loop
      vertex 5.0539917 -0.126009328 0.825711017
      vertex 5.05488019 -0.12771518 0.825162685
      vertex 5.05438682 -0.12796991 0.825711017
    endloop
  endfacet
  facet normal 0.0603397241 -0.988343989 0.139768658
    outer loop
      vertex 5.11759475 -0.115231512 0.888500279
      vertex 5.11704123 -0.115187761 0.889048611
      vertex 5.05383331 -0.12792616 0.826259349
    endloop
  endfacet
  facet normal 0.0603397241 -0.988343989 0.139768658
    outer loop
      vertex 5.11759475 -0.115231512 0.888500279
      vertex 5.05383331 -0.12792616 0.826259349
      vertex 5.05438682 -0.12796991 0.825711017
    endloop
  endfacet
  facet normal 0.70231028 0.141537761 0.697658464
    outer loop
      vertex 5.11719963 -0.11327093 0.888500279
      vertex 5.11704123 -0.115187761 0.889048611
      vertex 5.11759475 -0.115231512 0.888500279
    endloop
  endfacet
  facet normal -0.70231028 -0.141537761 -0.697658464
    outer loop
      vertex 5.0539917 -0.126009328 0.825711017
      vertex 5.05438682 -0.12796991 0.825711017
      vertex 5.05383331 -0.12792616 0.826259349
    endloop
  endfacet
  facet normal -0.215694202 -0.891655848 0.398027462
    outer loop
      vertex 5.11704123 -0.115187761 0.889048611
      vertex 5.11651183 -0.11485219 0.889513464
      vertex 5.0533039 -0.127590589 0.826724203
    endloop
  endfacet
  facet normal -0.215694202 -0.891655848 0.398027462
    outer loop
      vertex 5.11704123 -0.115187761 0.889048611
      vertex 5.0533039 -0.127590589 0.826724203
      vertex 5.05383331 -0.12792616 0.826259349
    endloop
  endfacet
  facet normal 0.70231028 0.141537761 0.697658464
    outer loop
      vertex 5.11719963 -0.11327093 0.888500279
      vertex 5.11651183 -0.11485219 0.889513464
      vertex 5.11704123 -0.115187761 0.889048611
    endloop
  endfacet
  facet normal -0.70231028 -0.141537761 -0.697658464
    outer loop
      vertex 5.0539917 -0.126009328 0.825711017
      vertex 5.05383331 -0.12792616 0.826259349
      vertex 5.0533039 -0.127590589 0.826724203
    endloop
  endfacet
  facet normal -0.458890641 -0.659221187 0.595690194
    outer loop
      vertex 5.11651183 -0.11485219 0.889513464
      vertex 5.11608714 -0.114275887 0.88982407
      vertex 5.05287921 -0.127014286 0.827034808
    endloop
  endfacet
  facet normal -0.458890641 -0.659221187 0.595690194
    outer loop
      vertex 5.11651183 -0.11485219 0.889513464
      vertex 5.05287921 -0.127014286 0.827034808
      vertex 5.0533039 -0.127590589 0.826724203
    endloop
  endfacet
  facet normal 0.70231028 0.141537761 0.697658464
    outer loop
      vertex 5.11719963 -0.11327093 0.888500279
      vertex 5.11608714 -0.114275887 0.88982407
      vertex 5.11651183 -0.11485219 0.889513464
    endloop
  endfacet
  facet normal -0.70231028 -0.141537761 -0.697658464
    outer loop
      vertex 5.0539917 -0.126009328 0.825711017
      vertex 5.0533039 -0.127590589 0.826724203
      vertex 5.05287921 -0.127014286 0.827034808
    endloop
  endfacet
  facet normal -0.632225139 -0.326426076 0.702664493
    outer loop
      vertex 5.11608714 -0.114275887 0.88982407
      vertex 5.11583181 -0.113546588 0.88993314
      vertex 5.05262389 -0.126284987 0.827143878
    endloop
  endfacet
  facet normal -0.632225139 -0.326426076 0.702664493
    outer loop
      vertex 5.11608714 -0.114275887 0.88982407
      vertex 5.05262389 -0.126284987 0.827143878
      vertex 5.05287921 -0.127014286 0.827034808
    endloop
  endfacet
  facet normal 0.70231028 0.141537761 0.697658464
    outer loop
      vertex 5.11719963 -0.11327093 0.888500279
      vertex 5.11583181 -0.113546588 0.88993314
      vertex 5.11608714 -0.114275887 0.88982407
    endloop
  endfacet
  facet normal -0.70231028 -0.141537761 -0.697658464
    outer loop
      vertex 5.0539917 -0.126009328 0.825711017
      vertex 5.05287921 -0.127014286 0.827034808
      vertex 5.05262389 -0.126284987 0.827143878
    endloop
  endfacet
  facet normal -0.709309092 0.0560644461 0.702664493
    outer loop
      vertex 5.11583181 -0.113546588 0.88993314
      vertex 5.11578473 -0.112775323 0.88982407
      vertex 5.0525768 -0.125513721 0.827034808
    endloop
  endfacet
  facet normal -0.709309092 0.0560644461 0.702664493
    outer loop
      vertex 5.11583181 -0.113546588 0.88993314
      vertex 5.0525768 -0.125513721 0.827034808
      vertex 5.05262389 -0.126284987 0.827143878
    endloop
  endfacet
  facet normal 0.70231028 0.141537761 0.697658464
    outer loop
      vertex 5.11719963 -0.11327093 0.888500279
      vertex 5.11578473 -0.112775323 0.88982407
      vertex 5.11583181 -0.113546588 0.88993314
    endloop
  endfacet
  facet normal -0.70231028 -0.141537761 -0.697658464
    outer loop
      vertex 5.0539917 -0.126009328 0.825711017
      vertex 5.05262389 -0.126284987 0.827143878
      vertex 5.0525768 -0.125513721 0.827034808
    endloop
  endfacet
  facet normal -0.678407165 0.430019664 0.595690194
    outer loop
      vertex 5.11578473 -0.112775323 0.88982407
      vertex 5.11595305 -0.112079509 0.889513464
      vertex 5.05274512 -0.124817908 0.826724203
    endloop
  endfacet
  facet normal -0.678407165 0.430019664 0.595690194
    outer loop
      vertex 5.11578473 -0.112775323 0.88982407
      vertex 5.05274512 -0.124817908 0.826724203
      vertex 5.0525768 -0.125513721 0.827034808
    endloop
  endfacet
  facet normal 0.70231028 0.141537761 0.697658464
    outer loop
      vertex 5.11719963 -0.11327093 0.888500279
      vertex 5.11595305 -0.112079509 0.889513464
      vertex 5.11578473 -0.112775323 0.88982407
    endloop
  endfacet
  facet normal -0.70231028 -0.141537761 -0.697658464
    outer loop
      vertex 5.0539917 -0.126009328 0.825711017
      vertex 5.0525768 -0.125513721 0.827034808
      vertex 5.05274512 -0.124817908 0.826724203
    endloop
  endfacet
  facet normal -0.544223897 0.738508287 0.398027462
    outer loop
      vertex 5.11595305 -0.112079509 0.889513464
      vertex 5.11631115 -0.111565078 0.889048611
      vertex 5.05310322 -0.124303477 0.826259349
    endloop
  endfacet
  facet normal -0.544223897 0.738508287 0.398027462
    outer loop
      vertex 5.11595305 -0.112079509 0.889513464
      vertex 5.05310322 -0.124303477 0.826259349
      vertex 5.05274512 -0.124817908 0.826724203
    endloop
  endfacet
  facet normal 0.70231028 0.141537761 0.697658464
    outer loop
      vertex 5.11719963 -0.11327093 0.888500279
      vertex 5.11631115 -0.111565078 0.889048611
      vertex 5.11595305 -0.112079509 0.889513464
    endloop
  endfacet
  facet normal -0.70231028 -0.141537761 -0.697658464
    outer loop
      vertex 5.0539917 -0.126009328 0.825711017
      vertex 5.05274512 -0.124817908 0.826724203
      vertex 5.05310322 -0.124303477 0.826259349
    endloop
  endfacet
  facet normal -0.327187474 0.934565717 0.139768658
    outer loop
      vertex 5.11631115 -0.111565078 0.889048611
      vertex 5.11680451 -0.111310348 0.888500279
      vertex 5.05359659 -0.124048747 0.825711017
    endloop
  endfacet
  facet normal -0.327187474 0.934565717 0.139768658
    outer loop
      vertex 5.11631115 -0.111565078 0.889048611
      vertex 5.05359659 -0.124048747 0.825711017
      vertex 5.05310322 -0.124303477 0.826259349
    endloop
  endfacet
  facet normal 0.70231028 0.141537761 0.697658464
    outer loop
      vertex 5.11719963 -0.11327093 0.888500279
      vertex 5.11680451 -0.111310348 0.888500279
      vertex 5.11631115 -0.111565078 0.889048611
    endloop
  endfacet
  facet normal -0.70231028 -0.141537761 -0.697658464
    outer loop
      vertex 5.0539917 -0.126009328 0.825711017
      vertex 5.05310322 -0.124303477 0.826259349
      vertex 5.05359659 -0.124048747 0.825711017
    endloop
  endfacet
  facet normal -0.0120250793 0.989401696 -0.144705496
    outer loop
      vertex 4.97101923 -0.442082571 1.12828279
      vertex 4.97154915 -0.44215916 1.12771509
      vertex 4.89081183 -0.453930601 1.05393896
    endloop
  endfacet
  facet normal -0.0120250793 0.989401696 -0.144705496
    outer loop
      vertex 4.97101923 -0.442082571 1.12828279
      vertex 4.89081183 -0.453930601 1.05393896
      vertex 4.89028191 -0.453854012 1.05450666
    endloop
  endfacet
  facet normal 0.733975711 0.107013102 0.67069207
    outer loop
      vertex 4.97130778 -0.444061647 1.12828279
      vertex 4.97154915 -0.44215916 1.12771509
      vertex 4.97101923 -0.442082571 1.12828279
    endloop
  endfacet
  facet normal -0.733975711 -0.107013102 -0.67069207
    outer loop
      vertex 4.89057045 -0.455833088 1.05450666
      vertex 4.89028191 -0.453854012 1.05450666
      vertex 4.89081183 -0.453930601 1.05393896
    endloop
  endfacet
  facet normal 0.248758829 0.876529437 -0.412086388
    outer loop
      vertex 4.97154915 -0.44215916 1.12771509
      vertex 4.97204233 -0.442525385 1.12723381
      vertex 4.891305 -0.454296826 1.05345769
    endloop
  endfacet
  facet normal 0.248758829 0.876529437 -0.412086388
    outer loop
      vertex 4.97154915 -0.44215916 1.12771509
      vertex 4.891305 -0.454296826 1.05345769
      vertex 4.89081183 -0.453930601 1.05393896
    endloop
  endfacet
  facet normal 0.733975711 0.107013102 0.67069207
    outer loop
      vertex 4.97130778 -0.444061647 1.12828279
      vertex 4.97204233 -0.442525385 1.12723381
      vertex 4.97154915 -0.44215916 1.12771509
    endloop
  endfacet
  facet normal -0.733975711 -0.107013102 -0.67069207
    outer loop
      vertex 4.89057045 -0.455833088 1.05450666
      vertex 4.89081183 -0.453930601 1.05393896
      vertex 4.891305 -0.454296826 1.05345769
    endloop
  endfacet
  facet normal 0.47167146 0.630213517 -0.616730863
    outer loop
      vertex 4.97204233 -0.442525385 1.12723381
      vertex 4.97242367 -0.443125492 1.12691224
      vertex 4.89168634 -0.454896933 1.05313611
    endloop
  endfacet
  facet normal 0.47167146 0.630213517 -0.616730863
    outer loop
      vertex 4.97204233 -0.442525385 1.12723381
      vertex 4.89168634 -0.454896933 1.05313611
      vertex 4.891305 -0.454296826 1.05345769
    endloop
  endfacet
  facet normal 0.733975711 0.107013102 0.67069207
    outer loop
      vertex 4.97130778 -0.444061647 1.12828279
      vertex 4.97242367 -0.443125492 1.12691224
      vertex 4.97204233 -0.442525385 1.12723381
    endloop
  endfacet
  facet normal -0.733975711 -0.107013102 -0.67069207
    outer loop
      vertex 4.89057045 -0.455833088 1.05450666
      vertex 4.891305 -0.454296826 1.05345769
      vertex 4.89168634 -0.454896933 1.05313611
    endloop
  endfacet
  facet normal 0.622776388 0.287953301 -0.727483654
    outer loop
      vertex 4.97242367 -0.443125492 1.12691224
      vertex 4.97263513 -0.44386812 1.12679932
      vertex 4.8918978 -0.455639561 1.05302319
    endloop
  endfacet
  facet normal 0.622776388 0.287953301 -0.727483654
    outer loop
      vertex 4.97242367 -0.443125492 1.12691224
      vertex 4.8918978 -0.455639561 1.05302319
      vertex 4.89168634 -0.454896933 1.05313611
    endloop
  endfacet
  facet normal 0.733975711 0.107013102 0.67069207
    outer loop
      vertex 4.97130778 -0.444061647 1.12828279
      vertex 4.97263513 -0.44386812 1.12679932
      vertex 4.97242367 -0.443125492 1.12691224
    endloop
  endfacet
  facet normal -0.733975711 -0.107013102 -0.67069207
    outer loop
      vertex 4.89057045 -0.455833088 1.05450666
      vertex 4.89168634 -0.454896933 1.05313611
      vertex 4.8918978 -0.455639561 1.05302319
    endloop
  endfacet
  facet normal 0.679069255 -0.0981451939 -0.727483654
    outer loop
      vertex 4.97263513 -0.44386812 1.12679932
      vertex 4.97264452 -0.444640211 1.12691224
      vertex 4.89190719 -0.456411652 1.05313611
    endloop
  endfacet
  facet normal 0.679069255 -0.0981451939 -0.727483654
    outer loop
      vertex 4.97263513 -0.44386812 1.12679932
      vertex 4.89190719 -0.456411652 1.05313611
      vertex 4.8918978 -0.455639561 1.05302319
    endloop
  endfacet
  facet normal 0.733975711 0.107013102 0.67069207
    outer loop
      vertex 4.97130778 -0.444061647 1.12828279
      vertex 4.97264452 -0.444640211 1.12691224
      vertex 4.97263513 -0.44386812 1.12679932
    endloop
  endfacet
  facet normal -0.733975711 -0.107013102 -0.67069207
    outer loop
      vertex 4.89057045 -0.455833088 1.05450666
      vertex 4.8918978 -0.455639561 1.05302319
      vertex 4.89190719 -0.456411652 1.05313611
    endloop
  endfacet
  facet normal 0.631979985 -0.469301973 -0.616730863
    outer loop
      vertex 4.97264452 -0.444640211 1.12691224
      vertex 4.97245039 -0.445324221 1.12723381
      vertex 4.89171307 -0.457095662 1.05345769
    endloop
  endfacet
  facet normal 0.631979985 -0.469301973 -0.616730863
    outer loop
      vertex 4.97264452 -0.444640211 1.12691224
      vertex 4.89171307 -0.457095662 1.05345769
      vertex 4.89190719 -0.456411652 1.05313611
    endloop
  endfacet
  facet normal 0.733975711 0.107013102 0.67069207
    outer loop
      vertex 4.97130778 -0.444061647 1.12828279
      vertex 4.97245039 -0.445324221 1.12723381
      vertex 4.97264452 -0.444640211 1.12691224
    endloop
  endfacet
  facet normal -0.733975711 -0.107013102 -0.67069207
    outer loop
      vertex 4.89057045 -0.455833088 1.05450666
      vertex 4.89190719 -0.456411652 1.05313611
      vertex 4.89171307 -0.457095662 1.05345769
    endloop
  endfacet
  facet normal 0.488677491 -0.769011781 -0.412086388
    outer loop
      vertex 4.97245039 -0.445324221 1.12723381
      vertex 4.97208232 -0.445816015 1.12771509
      vertex 4.89134499 -0.457587456 1.05393896
    endloop
  endfacet
  facet normal 0.488677491 -0.769011781 -0.412086388
    outer loop
      vertex 4.97245039 -0.445324221 1.12723381
      vertex 4.89134499 -0.457587456 1.05393896
      vertex 4.89171307 -0.457095662 1.05345769
    endloop
  endfacet
  facet normal 0.733975711 0.107013102 0.67069207
    outer loop
      vertex 4.97130778 -0.444061647 1.12828279
      vertex 4.97208232 -0.445816015 1.12771509
      vertex 4.97245039 -0.445324221 1.12723381
    endloop
  endfacet
  facet normal -0.733975711 -0.107013102 -0.67069207
    outer loop
      vertex 4.89057045 -0.455833088 1.05450666
      vertex 4.89171307 -0.457095662 1.05345769
      vertex 4.89134499 -0.457587456 1.05393896
    endloop
  endfacet
  facet normal 0.270978278 -0.951646516 -0.144705496
    outer loop
      vertex 4.97208232 -0.445816015 1.12771509
      vertex 4.97159633 -0.446040722 1.12828279
      vertex 4.890859 -0.457812164 1.05450666
    endloop
  endfacet
  facet normal 0.270978278 -0.951646516 -0.144705496
    outer loop
      vertex 4.97208232 -0.445816015 1.12771509
      vertex 4.890859 -0.457812164 1.05450666
      vertex 4.89134499 -0.457587456 1.05393896
    endloop
  endfacet
  facet normal 0.733975711 0.107013102 0.67069207
    outer loop
      vertex 4.97130778 -0.444061647 1.12828279
      vertex 4.97159633 -0.446040722 1.12828279
      vertex 4.97208232 -0.445816015 1.12771509
    endloop
  endfacet
  facet normal -0.733975711 -0.107013102 -0.67069207
    outer loop
      vertex 4.89057045 -0.455833088 1.05450666
      vertex 4.89134499 -0.457587456 1.05393896
      vertex 4.890859 -0.457812164 1.05450666
    endloop
  endfacet
  facet normal 0.0120250793 -0.989401696 0.144705496
    outer loop
      vertex 4.97159633 -0.446040722 1.12828279
      vertex 4.97106641 -0.445964134 1.12885049
      vertex 4.89032908 -0.457735575 1.05507436
    endloop
  endfacet
  facet normal 0.0120250793 -0.989401696 0.144705496
    outer loop
      vertex 4.97159633 -0.446040722 1.12828279
      vertex 4.89032908 -0.457735575 1.05507436
      vertex 4.890859 -0.457812164 1.05450666
    endloop
  endfacet
  facet normal 0.733975711 0.107013102 0.67069207
    outer loop
      vertex 4.97130778 -0.444061647 1.12828279
      vertex 4.97106641 -0.445964134 1.12885049
      vertex 4.97159633 -0.446040722 1.12828279
    endloop
  endfacet
  facet normal -0.733975711 -0.107013102 -0.67069207
    outer loop
      vertex 4.89057045 -0.455833088 1.05450666
      vertex 4.890859 -0.457812164 1.05450666
      vertex 4.89032908 -0.457735575 1.05507436
    endloop
  endfacet
  facet normal -0.248758829 -0.876529437 0.412086388
    outer loop
      vertex 4.97106641 -0.445964134 1.12885049
      vertex 4.97057324 -0.445597909 1.12933176
      vertex 4.88983591 -0.45736935 1.05555563
    endloop
  endfacet
  facet normal -0.248758829 -0.876529437 0.412086388
    outer loop
      vertex 4.97106641 -0.445964134 1.12885049
      vertex 4.88983591 -0.45736935 1.05555563
      vertex 4.89032908 -0.457735575 1.05507436
    endloop
  endfacet
  facet normal 0.733975711 0.107013102 0.67069207
    outer loop
      vertex 4.97130778 -0.444061647 1.12828279
      vertex 4.97057324 -0.445597909 1.12933176
      vertex 4.97106641 -0.445964134 1.12885049
    endloop
  endfacet
  facet normal -0.733975711 -0.107013102 -0.67069207
    outer loop
      vertex 4.89057045 -0.455833088 1.05450666
      vertex 4.89032908 -0.457735575 1.05507436
      vertex 4.88983591 -0.45736935 1.05555563
    endloop
  endfacet
  facet normal -0.47167146 -0.630213517 0.616730863
    outer loop
      vertex 4.97057324 -0.445597909 1.12933176
      vertex 4.97019189 -0.444997802 1.12965334
      vertex 4.88945456 -0.456769243 1.05587721
    endloop
  endfacet
  facet normal -0.47167146 -0.630213517 0.616730863
    outer loop
      vertex 4.97057324 -0.445597909 1.12933176
      vertex 4.88945456 -0.456769243 1.05587721
      vertex 4.88983591 -0.45736935 1.05555563
    endloop
  endfacet
  facet normal 0.733975711 0.107013102 0.67069207
    outer loop
      vertex 4.97130778 -0.444061647 1.12828279
      vertex 4.97019189 -0.444997802 1.12965334
      vertex 4.97057324 -0.445597909 1.12933176
    endloop
  endfacet
  facet normal -0.733975711 -0.107013102 -0.67069207
    outer loop
      vertex 4.89057045 -0.455833088 1.05450666
      vertex 4.88983591 -0.45736935 1.05555563
      vertex 4.88945456 -0.456769243 1.05587721
    endloop
  endfacet
  facet normal -0.622776388 -0.287953301 0.727483654
    outer loop
      vertex 4.97019189 -0.444997802 1.12965334
      vertex 4.96998043 -0.444255174 1.12976626
      vertex 4.8892431 -0.456026615 1.05599013
    endloop
  endfacet
  facet normal -0.622776388 -0.287953301 0.727483654
    outer loop
      vertex 4.97019189 -0.444997802 1.12965334
      vertex 4.8892431 -0.456026615 1.05599013
      vertex 4.88945456 -0.456769243 1.05587721
    endloop
  endfacet
  facet normal 0.733975711 0.107013102 0.67069207
    outer loop
      vertex 4.97130778 -0.444061647 1.12828279
      vertex 4.96998043 -0.444255174 1.12976626
      vertex 4.97019189 -0.444997802 1.12965334
    endloop
  endfacet
  facet normal -0.733975711 -0.107013102 -0.67069207
    outer loop
      vertex 4.89057045 -0.455833088 1.05450666
      vertex 4.88945456 -0.456769243 1.05587721
      vertex 4.8892431 -0.456026615 1.05599013
    endloop
  endfacet
  facet normal -0.679069255 0.0981451939 0.727483654
    outer loop
      vertex 4.96998043 -0.444255174 1.12976626
      vertex 4.96997105 -0.443483083 1.12965334
      vertex 4.88923372 -0.455254524 1.05587721
    endloop
  endfacet
  facet normal -0.679069255 0.0981451939 0.727483654
    outer loop
      vertex 4.96998043 -0.444255174 1.12976626
      vertex 4.88923372 -0.455254524 1.05587721
      vertex 4.8892431 -0.456026615 1.05599013
    endloop
  endfacet
  facet normal 0.733975711 0.107013102 0.67069207
    outer loop
      vertex 4.97130778 -0.444061647 1.12828279
      vertex 4.96997105 -0.443483083 1.12965334
      vertex 4.96998043 -0.444255174 1.12976626
    endloop
  endfacet
  facet normal -0.733975711 -0.107013102 -0.67069207
    outer loop
      vertex 4.89057045 -0.455833088 1.05450666
      vertex 4.8892431 -0.456026615 1.05599013
      vertex 4.88923372 -0.455254524 1.05587721
    endloop
  endfacet
  facet normal -0.631979985 0.469301973 0.616730863
    outer loop
      vertex 4.96997105 -0.443483083 1.12965334
      vertex 4.97016517 -0.442799073 1.12933176
      vertex 4.88942784 -0.454570514 1.05555563
    endloop
  endfacet
  facet normal -0.631979985 0.469301973 0.616730863
    outer loop
      vertex 4.96997105 -0.443483083 1.12965334
      vertex 4.88942784 -0.454570514 1.05555563
      vertex 4.88923372 -0.455254524 1.05587721
    endloop
  endfacet
  facet normal 0.733975711 0.107013102 0.67069207
    outer loop
      vertex 4.97130778 -0.444061647 1.12828279
      vertex 4.97016517 -0.442799073 1.12933176
      vertex 4.96997105 -0.443483083 1.12965334
    endloop
  endfacet
  facet normal -0.733975711 -0.107013102 -0.67069207
    outer loop
      vertex 4.89057045 -0.455833088 1.05450666
      vertex 4.88923372 -0.455254524 1.05587721
      vertex 4.88942784 -0.454570514 1.05555563
    endloop
  endfacet
  facet normal -0.488677491 0.769011781 0.412086388
    outer loop
      vertex 4.97016517 -0.442799073 1.12933176
      vertex 4.97053324 -0.442307279 1.12885049
      vertex 4.88979592 -0.45407872 1.05507436
    endloop
  endfacet
  facet normal -0.488677491 0.769011781 0.412086388
    outer loop
      vertex 4.97016517 -0.442799073 1.12933176
      vertex 4.88979592 -0.45407872 1.05507436
      vertex 4.88942784 -0.454570514 1.05555563
    endloop
  endfacet
  facet normal 0.733975711 0.107013102 0.67069207
    outer loop
      vertex 4.97130778 -0.444061647 1.12828279
      vertex 4.97053324 -0.442307279 1.12885049
      vertex 4.97016517 -0.442799073 1.12933176
    endloop
  endfacet
  facet normal -0.733975711 -0.107013102 -0.67069207
    outer loop
      vertex 4.89057045 -0.455833088 1.05450666
      vertex 4.88942784 -0.454570514 1.05555563
      vertex 4.88979592 -0.45407872 1.05507436
    endloop
  endfacet
  facet normal -0.270978278 0.951646516 0.144705496
    outer loop
      vertex 4.97053324 -0.442307279 1.12885049
      vertex 4.97101923 -0.442082571 1.12828279
      vertex 4.89028191 -0.453854012 1.05450666
    endloop
  endfacet
  facet normal -0.270978278 0.951646516 0.144705496
    outer loop
      vertex 4.97053324 -0.442307279 1.12885049
      vertex 4.89028191 -0.453854012 1.05450666
      vertex 4.88979592 -0.45407872 1.05507436
    endloop
  endfacet
  facet normal 0.733975711 0.107013102 0.67069207
    outer loop
      vertex 4.97130778 -0.444061647 1.12828279
      vertex 4.97101923 -0.442082571 1.12828279
      vertex 4.97053324 -0.442307279 1.12885049
    endloop
  endfacet
  facet normal -0.733975711 -0.107013102 -0.67069207
    outer loop
      vertex 4.89057045 -0.455833088 1.05450666
      vertex 4.88979592 -0.45407872 1.05507436
      vertex 4.89028191 -0.453854012 1.05450666
    endloop
  endfacet
  facet normal -0.0120250793 0.989401696 -0.144705496
    outer loop
      vertex 4.95857415 -0.416506481 1.13782131
      vertex 4.95910407 -0.41658307 1.13725361
      vertex 4.87836674 -0.428354511 1.06347749
    endloop
  endfacet
  facet normal -0.0120250793 0.989401696 -0.144705496
    outer loop
      vertex 4.95857415 -0.416506481 1.13782131
      vertex 4.87836674 -0.428354511 1.06347749
      vertex 4.87783682 -0.428277923 1.06404519
    endloop
  endfacet
  facet normal 0.733975711 0.107013102 0.67069207
    outer loop
      vertex 4.9588627 -0.418485557 1.13782131
      vertex 4.95910407 -0.41658307 1.13725361
      vertex 4.95857415 -0.416506481 1.13782131
    endloop
  endfacet
  facet normal -0.733975711 -0.107013102 -0.67069207
    outer loop
      vertex 4.87812537 -0.430256998 1.06404519
      vertex 4.87783682 -0.428277923 1.06404519
      vertex 4.87836674 -0.428354511 1.06347749
    endloop
  endfacet
  facet normal 0.248758829 0.876529437 -0.412086388
    outer loop
      vertex 4.95910407 -0.41658307 1.13725361
      vertex 4.95959724 -0.416949295 1.13677234
      vertex 4.87885991 -0.428720736 1.06299621
    endloop
  endfacet
  facet normal 0.248758829 0.876529437 -0.412086388
    outer loop
      vertex 4.95910407 -0.41658307 1.13725361
      vertex 4.87885991 -0.428720736 1.06299621
      vertex 4.87836674 -0.428354511 1.06347749
    endloop
  endfacet
  facet normal 0.733975711 0.107013102 0.67069207
    outer loop
      vertex 4.9588627 -0.418485557 1.13782131
      vertex 4.95959724 -0.416949295 1.13677234
      vertex 4.95910407 -0.41658307 1.13725361
    endloop
  endfacet
  facet normal -0.733975711 -0.107013102 -0.67069207
    outer loop
      vertex 4.87812537 -0.430256998 1.06404519
      vertex 4.87836674 -0.428354511 1.06347749
      vertex 4.87885991 -0.428720736 1.06299621
    endloop
  endfacet
  facet normal 0.47167146 0.630213517 -0.616730863
    outer loop
      vertex 4.95959724 -0.416949295 1.13677234
      vertex 4.95997859 -0.417549402 1.13645076
      vertex 4.87924126 -0.429320843 1.06267464
    endloop
  endfacet
  facet normal 0.47167146 0.630213517 -0.616730863
    outer loop
      vertex 4.95959724 -0.416949295 1.13677234
      vertex 4.87924126 -0.429320843 1.06267464
      vertex 4.87885991 -0.428720736 1.06299621
    endloop
  endfacet
  facet normal 0.733975711 0.107013102 0.67069207
    outer loop
      vertex 4.9588627 -0.418485557 1.13782131
      vertex 4.95997859 -0.417549402 1.13645076
      vertex 4.95959724 -0.416949295 1.13677234
    endloop
  endfacet
  facet normal -0.733975711 -0.107013102 -0.67069207
    outer loop
      vertex 4.87812537 -0.430256998 1.06404519
      vertex 4.87885991 -0.428720736 1.06299621
      vertex 4.87924126 -0.429320843 1.06267464
    endloop
  endfacet
  facet normal 0.622776388 0.287953301 -0.727483654
    outer loop
      vertex 4.95997859 -0.417549402 1.13645076
      vertex 4.96019005 -0.41829203 1.13633784
      vertex 4.87945272 -0.430063471 1.06256171
    endloop
  endfacet
  facet normal 0.622776388 0.287953301 -0.727483654
    outer loop
      vertex 4.95997859 -0.417549402 1.13645076
      vertex 4.87945272 -0.430063471 1.06256171
      vertex 4.87924126 -0.429320843 1.06267464
    endloop
  endfacet
  facet normal 0.733975711 0.107013102 0.67069207
    outer loop
      vertex 4.9588627 -0.418485557 1.13782131
      vertex 4.96019005 -0.41829203 1.13633784
      vertex 4.95997859 -0.417549402 1.13645076
    endloop
  endfacet
  facet normal -0.733975711 -0.107013102 -0.67069207
    outer loop
      vertex 4.87812537 -0.430256998 1.06404519
      vertex 4.87924126 -0.429320843 1.06267464
      vertex 4.87945272 -0.430063471 1.06256171
    endloop
  endfacet
  facet normal 0.679069255 -0.0981451939 -0.727483654
    outer loop
      vertex 4.96019005 -0.41829203 1.13633784
      vertex 4.96019943 -0.419064121 1.13645076
      vertex 4.8794621 -0.430835562 1.06267464
    endloop
  endfacet
  facet normal 0.679069255 -0.0981451939 -0.727483654
    outer loop
      vertex 4.96019005 -0.41829203 1.13633784
      vertex 4.8794621 -0.430835562 1.06267464
      vertex 4.87945272 -0.430063471 1.06256171
    endloop
  endfacet
  facet normal 0.733975711 0.107013102 0.67069207
    outer loop
      vertex 4.9588627 -0.418485557 1.13782131
      vertex 4.96019943 -0.419064121 1.13645076
      vertex 4.96019005 -0.41829203 1.13633784
    endloop
  endfacet
  facet normal -0.733975711 -0.107013102 -0.67069207
    outer loop
      vertex 4.87812537 -0.430256998 1.06404519
      vertex 4.87945272 -0.430063471 1.06256171
      vertex 4.8794621 -0.430835562 1.06267464
    endloop
  endfacet
  facet normal 0.631979985 -0.469301973 -0.616730863
    outer loop
      vertex 4.96019943 -0.419064121 1.13645076
      vertex 4.96000531 -0.419748131 1.13677234
      vertex 4.87926798 -0.431519572 1.06299621
    endloop
  endfacet
  facet normal 0.631979985 -0.469301973 -0.616730863
    outer loop
      vertex 4.96019943 -0.419064121 1.13645076
      vertex 4.87926798 -0.431519572 1.06299621
      vertex 4.8794621 -0.430835562 1.06267464
    endloop
  endfacet
  facet normal 0.733975711 0.107013102 0.67069207
    outer loop
      vertex 4.9588627 -0.418485557 1.13782131
      vertex 4.96000531 -0.419748131 1.13677234
      vertex 4.96019943 -0.419064121 1.13645076
    endloop
  endfacet
  facet normal -0.733975711 -0.107013102 -0.67069207
    outer loop
      vertex 4.87812537 -0.430256998 1.06404519
      vertex 4.8794621 -0.430835562 1.06267464
      vertex 4.87926798 -0.431519572 1.06299621
    endloop
  endfacet
  facet normal 0.488677491 -0.769011781 -0.412086388
    outer loop
      vertex 4.96000531 -0.419748131 1.13677234
      vertex 4.95963723 -0.420239925 1.13725361
      vertex 4.87889991 -0.432011366 1.06347749
    endloop
  endfacet
  facet normal 0.488677491 -0.769011781 -0.412086388
    outer loop
      vertex 4.96000531 -0.419748131 1.13677234
      vertex 4.87889991 -0.432011366 1.06347749
      vertex 4.87926798 -0.431519572 1.06299621
    endloop
  endfacet
  facet normal 0.733975711 0.107013102 0.67069207
    outer loop
      vertex 4.9588627 -0.418485557 1.13782131
      vertex 4.95963723 -0.420239925 1.13725361
      vertex 4.96000531 -0.419748131 1.13677234
    endloop
  endfacet
  facet normal -0.733975711 -0.107013102 -0.67069207
    outer loop
      vertex 4.87812537 -0.430256998 1.06404519
      vertex 4.87926798 -0.431519572 1.06299621
      vertex 4.87889991 -0.432011366 1.06347749
    endloop
  endfacet
  facet normal 0.270978278 -0.951646516 -0.144705496
    outer loop
      vertex 4.95963723 -0.420239925 1.13725361
      vertex 4.95915124 -0.420464632 1.13782131
      vertex 4.87841392 -0.432236074 1.06404519
    endloop
  endfacet
  facet normal 0.270978278 -0.951646516 -0.144705496
    outer loop
      vertex 4.95963723 -0.420239925 1.13725361
      vertex 4.87841392 -0.432236074 1.06404519
      vertex 4.87889991 -0.432011366 1.06347749
    endloop
  endfacet
  facet normal 0.733975711 0.107013102 0.67069207
    outer loop
      vertex 4.9588627 -0.418485557 1.13782131
      vertex 4.95915124 -0.420464632 1.13782131
      vertex 4.95963723 -0.420239925 1.13725361
    endloop
  endfacet
  facet normal -0.733975711 -0.107013102 -0.67069207
    outer loop
      vertex 4.87812537 -0.430256998 1.06404519
      vertex 4.87889991 -0.432011366 1.06347749
      vertex 4.87841392 -0.432236074 1.06404519
    endloop
  endfacet
  facet normal 0.0120250793 -0.989401696 0.144705496
    outer loop
      vertex 4.95915124 -0.420464632 1.13782131
      vertex 4.95862132 -0.420388044 1.13838901
      vertex 4.877884 -0.432159485 1.06461289
    endloop
  endfacet
  facet normal 0.0120250793 -0.989401696 0.144705496
    outer loop
      vertex 4.95915124 -0.420464632 1.13782131
      vertex 4.877884 -0.432159485 1.06461289
      vertex 4.87841392 -0.432236074 1.06404519
    endloop
  endfacet
  facet normal 0.733975711 0.107013102 0.67069207
    outer loop
      vertex 4.9588627 -0.418485557 1.13782131
      vertex 4.95862132 -0.420388044 1.13838901
      vertex 4.95915124 -0.420464632 1.13782131
    endloop
  endfacet
  facet normal -0.733975711 -0.107013102 -0.67069207
    outer loop
      vertex 4.87812537 -0.430256998 1.06404519
      vertex 4.87841392 -0.432236074 1.06404519
      vertex 4.877884 -0.432159485 1.06461289
    endloop
  endfacet
  facet normal -0.248758829 -0.876529437 0.412086388
    outer loop
      vertex 4.95862132 -0.420388044 1.13838901
      vertex 4.95812815 -0.420021819 1.13887029
      vertex 4.87739082 -0.43179326 1.06509416
    endloop
  endfacet
  facet normal -0.248758829 -0.876529437 0.412086388
    outer loop
      vertex 4.95862132 -0.420388044 1.13838901
      vertex 4.87739082 -0.43179326 1.06509416
      vertex 4.877884 -0.432159485 1.06461289
    endloop
  endfacet
  facet normal 0.733975711 0.107013102 0.67069207
    outer loop
      vertex 4.9588627 -0.418485557 1.13782131
      vertex 4.95812815 -0.420021819 1.13887029
      vertex 4.95862132 -0.420388044 1.13838901
    endloop
  endfacet
  facet normal -0.733975711 -0.107013102 -0.67069207
    outer loop
      vertex 4.87812537 -0.430256998 1.06404519
      vertex 4.877884 -0.432159485 1.06461289
      vertex 4.87739082 -0.43179326 1.06509416
    endloop
  endfacet
  facet normal -0.47167146 -0.630213517 0.616730863
    outer loop
      vertex 4.95812815 -0.420021819 1.13887029
      vertex 4.95774681 -0.419421712 1.13919186
      vertex 4.87700948 -0.431193153 1.06541573
    endloop
  endfacet
  facet normal -0.47167146 -0.630213517 0.616730863
    outer loop
      vertex 4.95812815 -0.420021819 1.13887029
      vertex 4.87700948 -0.431193153 1.06541573
      vertex 4.87739082 -0.43179326 1.06509416
    endloop
  endfacet
  facet normal 0.733975711 0.107013102 0.67069207
    outer loop
      vertex 4.9588627 -0.418485557 1.13782131
      vertex 4.95774681 -0.419421712 1.13919186
      vertex 4.95812815 -0.420021819 1.13887029
    endloop
  endfacet
  facet normal -0.733975711 -0.107013102 -0.67069207
    outer loop
      vertex 4.87812537 -0.430256998 1.06404519
      vertex 4.87739082 -0.43179326 1.06509416
      vertex 4.87700948 -0.431193153 1.06541573
    endloop
  endfacet
  facet normal -0.622776388 -0.287953301 0.727483654
    outer loop
      vertex 4.95774681 -0.419421712 1.13919186
      vertex 4.95753535 -0.418679084 1.13930479
      vertex 4.87679802 -0.430450525 1.06552866
    endloop
  endfacet
  facet normal -0.622776388 -0.287953301 0.727483654
    outer loop
      vertex 4.95774681 -0.419421712 1.13919186
      vertex 4.87679802 -0.430450525 1.06552866
      vertex 4.87700948 -0.431193153 1.06541573
    endloop
  endfacet
  facet normal 0.733975711 0.107013102 0.67069207
    outer loop
      vertex 4.9588627 -0.418485557 1.13782131
      vertex 4.95753535 -0.418679084 1.13930479
      vertex 4.95774681 -0.419421712 1.13919186
    endloop
  endfacet
  facet normal -0.733975711 -0.107013102 -0.67069207
    outer loop
      vertex 4.87812537 -0.430256998 1.06404519
      vertex 4.87700948 -0.431193153 1.06541573
      vertex 4.87679802 -0.430450525 1.06552866
    endloop
  endfacet
  facet normal -0.679069255 0.0981451939 0.727483654
    outer loop
      vertex 4.95753535 -0.418679084 1.13930479
      vertex 4.95752596 -0.417906993 1.13919186
      vertex 4.87678863 -0.429678434 1.06541573
    endloop
  endfacet
  facet normal -0.679069255 0.0981451939 0.727483654
    outer loop
      vertex 4.95753535 -0.418679084 1.13930479
      vertex 4.87678863 -0.429678434 1.06541573
      vertex 4.87679802 -0.430450525 1.06552866
    endloop
  endfacet
  facet normal 0.733975711 0.107013102 0.67069207
    outer loop
      vertex 4.9588627 -0.418485557 1.13782131
      vertex 4.95752596 -0.417906993 1.13919186
      vertex 4.95753535 -0.418679084 1.13930479
    endloop
  endfacet
  facet normal -0.733975711 -0.107013102 -0.67069207
    outer loop
      vertex 4.87812537 -0.430256998 1.06404519
      vertex 4.87679802 -0.430450525 1.06552866
      vertex 4.87678863 -0.429678434 1.06541573
    endloop
  endfacet
  facet normal -0.631979985 0.469301973 0.616730863
    outer loop
      vertex 4.95752596 -0.417906993 1.13919186
      vertex 4.95772008 -0.417222983 1.13887029
      vertex 4.87698276 -0.428994424 1.06509416
    endloop
  endfacet
  facet normal -0.631979985 0.469301973 0.616730863
    outer loop
      vertex 4.95752596 -0.417906993 1.13919186
      vertex 4.87698276 -0.428994424 1.06509416
      vertex 4.87678863 -0.429678434 1.06541573
    endloop
  endfacet
  facet normal 0.733975711 0.107013102 0.67069207
    outer loop
      vertex 4.9588627 -0.418485557 1.13782131
      vertex 4.95772008 -0.417222983 1.13887029
      vertex 4.95752596 -0.417906993 1.13919186
    endloop
  endfacet
  facet normal -0.733975711 -0.107013102 -0.67069207
    outer loop
      vertex 4.87812537 -0.430256998 1.06404519
      vertex 4.87678863 -0.429678434 1.06541573
      vertex 4.87698276 -0.428994424 1.06509416
    endloop
  endfacet
  facet normal -0.488677491 0.769011781 0.412086388
    outer loop
      vertex 4.95772008 -0.417222983 1.13887029
      vertex 4.95808816 -0.416731189 1.13838901
      vertex 4.87735083 -0.42850263 1.06461289
    endloop
  endfacet
  facet normal -0.488677491 0.769011781 0.412086388
    outer loop
      vertex 4.95772008 -0.417222983 1.13887029
      vertex 4.87735083 -0.42850263 1.06461289
      vertex 4.87698276 -0.428994424 1.06509416
    endloop
  endfacet
  facet normal 0.733975711 0.107013102 0.67069207
    outer loop
      vertex 4.9588627 -0.418485557 1.13782131
      vertex 4.95808816 -0.416731189 1.13838901
      vertex 4.95772008 -0.417222983 1.13887029
    endloop
  endfacet
  facet normal -0.733975711 -0.107013102 -0.67069207
    outer loop
      vertex 4.87812537 -0.430256998 1.06404519
      vertex 4.87698276 -0.428994424 1.06509416
      vertex 4.87735083 -0.42850263 1.06461289
    endloop
  endfacet
  facet normal -0.270978278 0.951646516 0.144705496
    outer loop
      vertex 4.95808816 -0.416731189 1.13838901
      vertex 4.95857415 -0.416506481 1.13782131
      vertex 4.87783682 -0.428277923 1.06404519
    endloop
  endfacet
  facet normal -0.270978278 0.951646516 0.144705496
    outer loop
      vertex 4.95808816 -0.416731189 1.13838901
      vertex 4.87783682 -0.428277923 1.06404519
      vertex 4.87735083 -0.42850263 1.06461289
    endloop
  endfacet
  facet normal 0.733975711 0.107013102 0.67069207
    outer loop
      vertex 4.9588627 -0.418485557 1.13782131
      vertex 4.95857415 -0.416506481 1.13782131
      vertex 4.95808816 -0.416731189 1.13838901
    endloop
  endfacet
  facet normal -0.733975711 -0.107013102 -0.67069207
    outer loop
      vertex 4.87812537 -0.430256998 1.06404519
      vertex 4.87735083 -0.42850263 1.06461289
      vertex 4.87783682 -0.428277923 1.06404519
    endloop
  endfacet
  facet normal 0.856512371 0.492171552 -0.155414677
    outer loop
      vertex 4.96656929 -0.361351349 0.983680513
      vertex 4.96624822 -0.360985121 0.983070799
      vertex 4.91950708 -0.251011586 1.07374101
    endloop
  endfacet
  facet normal 0.856512371 0.492171552 -0.155414677
    outer loop
      vertex 4.96656929 -0.361351349 0.983680513
      vertex 4.91950708 -0.251011586 1.07374101
      vertex 4.91982815 -0.251377814 1.07435073
    endloop
  endfacet
  facet normal 0.311607591 -0.733156899 -0.604468089
    outer loop
      vertex 4.96472864 -0.362133664 0.983680513
      vertex 4.96624822 -0.360985121 0.983070799
      vertex 4.96656929 -0.361351349 0.983680513
    endloop
  endfacet
  facet normal -0.311607591 0.733156899 0.604468089
    outer loop
      vertex 4.91798751 -0.252160129 1.07435073
      vertex 4.91982815 -0.251377814 1.07435073
      vertex 4.91950708 -0.251011586 1.07374101
    endloop
  endfacet
  facet normal 0.633860933 0.634302856 -0.442583557
    outer loop
      vertex 4.96624822 -0.360985121 0.983070799
      vertex 4.9656958 -0.360793748 0.982553909
      vertex 4.91895466 -0.250820213 1.07322412
    endloop
  endfacet
  facet normal 0.633860933 0.634302856 -0.442583557
    outer loop
      vertex 4.96624822 -0.360985121 0.983070799
      vertex 4.91895466 -0.250820213 1.07322412
      vertex 4.91950708 -0.251011586 1.07374101
    endloop
  endfacet
  facet normal 0.311607591 -0.733156899 -0.604468089
    outer loop
      vertex 4.96472864 -0.362133664 0.983680513
      vertex 4.9656958 -0.360793748 0.982553909
      vertex 4.96624822 -0.360985121 0.983070799
    endloop
  endfacet
  facet normal -0.311607591 0.733156899 0.604468089
    outer loop
      vertex 4.91798751 -0.252160129 1.07435073
      vertex 4.91950708 -0.251011586 1.07374101
      vertex 4.91895466 -0.250820213 1.07322412
    endloop
  endfacet
  facet normal 0.314709915 0.679867299 -0.662373101
    outer loop
      vertex 4.9656958 -0.360793748 0.982553909
      vertex 4.96499614 -0.360806365 0.982208534
      vertex 4.918255 -0.25083283 1.07287875
    endloop
  endfacet
  facet normal 0.314709915 0.679867299 -0.662373101
    outer loop
      vertex 4.9656958 -0.360793748 0.982553909
      vertex 4.918255 -0.25083283 1.07287875
      vertex 4.91895466 -0.250820213 1.07322412
    endloop
  endfacet
  facet normal 0.311607591 -0.733156899 -0.604468089
    outer loop
      vertex 4.96472864 -0.362133664 0.983680513
      vertex 4.96499614 -0.360806365 0.982208534
      vertex 4.9656958 -0.360793748 0.982553909
    endloop
  endfacet
  facet normal -0.311607591 0.733156899 0.604468089
    outer loop
      vertex 4.91798751 -0.252160129 1.07435073
      vertex 4.91895466 -0.250820213 1.07322412
      vertex 4.918255 -0.25083283 1.07287875
    endloop
  endfacet
  facet normal -0.0523528352 0.621928109 -0.781322346
    outer loop
      vertex 4.96499614 -0.360806365 0.982208534
      vertex 4.96425576 -0.361021052 0.982087254
      vertex 4.91751462 -0.251047517 1.07275747
    endloop
  endfacet
  facet normal -0.0523528352 0.621928109 -0.781322346
    outer loop
      vertex 4.96499614 -0.360806365 0.982208534
      vertex 4.91751462 -0.251047517 1.07275747
      vertex 4.918255 -0.25083283 1.07287875
    endloop
  endfacet
  facet normal 0.311607591 -0.733156899 -0.604468089
    outer loop
      vertex 4.96472864 -0.362133664 0.983680513
      vertex 4.96425576 -0.361021052 0.982087254
      vertex 4.96499614 -0.360806365 0.982208534
    endloop
  endfacet
  facet normal -0.311607591 0.733156899 0.604468089
    outer loop
      vertex 4.91798751 -0.252160129 1.07435073
      vertex 4.918255 -0.25083283 1.07287875
      vertex 4.91751462 -0.251047517 1.07275747
    endloop
  endfacet
  facet normal -0.411445341 0.469306002 -0.781322346
    outer loop
      vertex 4.96425576 -0.361021052 0.982087254
      vertex 4.96358737 -0.361405123 0.982208534
      vertex 4.91684623 -0.251431588 1.07287875
    endloop
  endfacet
  facet normal -0.411445341 0.469306002 -0.781322346
    outer loop
      vertex 4.96425576 -0.361021052 0.982087254
      vertex 4.91684623 -0.251431588 1.07287875
      vertex 4.91751462 -0.251047517 1.07275747
    endloop
  endfacet
  facet normal 0.311607591 -0.733156899 -0.604468089
    outer loop
      vertex 4.96472864 -0.362133664 0.983680513
      vertex 4.96358737 -0.361405123 0.982208534
      vertex 4.96425576 -0.361021052 0.982087254
    endloop
  endfacet
  facet normal -0.311607591 0.733156899 0.604468089
    outer loop
      vertex 4.91798751 -0.252160129 1.07435073
      vertex 4.91751462 -0.251047517 1.07275747
      vertex 4.91684623 -0.251431588 1.07287875
    endloop
  endfacet
  facet normal -0.707899023 0.245236311 -0.662373101
    outer loop
      vertex 4.96358737 -0.361405123 0.982208534
      vertex 4.96309273 -0.361900109 0.982553909
      vertex 4.91635159 -0.251926574 1.07322412
    endloop
  endfacet
  facet normal -0.707899023 0.245236311 -0.662373101
    outer loop
      vertex 4.96358737 -0.361405123 0.982208534
      vertex 4.91635159 -0.251926574 1.07322412
      vertex 4.91684623 -0.251431588 1.07287875
    endloop
  endfacet
  facet normal 0.311607591 -0.733156899 -0.604468089
    outer loop
      vertex 4.96472864 -0.362133664 0.983680513
      vertex 4.96309273 -0.361900109 0.982553909
      vertex 4.96358737 -0.361405123 0.982208534
    endloop
  endfacet
  facet normal -0.311607591 0.733156899 0.604468089
    outer loop
      vertex 4.91798751 -0.252160129 1.07435073
      vertex 4.91684623 -0.251431588 1.07287875
      vertex 4.91635159 -0.251926574 1.07322412
    endloop
  endfacet
  facet normal -0.896581496 -0.0161683856 -0.442583557
    outer loop
      vertex 4.96309273 -0.361900109 0.982553909
      vertex 4.96284714 -0.362430651 0.983070799
      vertex 4.916106 -0.252457116 1.07374101
    endloop
  endfacet
  facet normal -0.896581496 -0.0161683856 -0.442583557
    outer loop
      vertex 4.96309273 -0.361900109 0.982553909
      vertex 4.916106 -0.252457116 1.07374101
      vertex 4.91635159 -0.251926574 1.07322412
    endloop
  endfacet
  facet normal 0.311607591 -0.733156899 -0.604468089
    outer loop
      vertex 4.96472864 -0.362133664 0.983680513
      vertex 4.96284714 -0.362430651 0.983070799
      vertex 4.96309273 -0.361900109 0.982553909
    endloop
  endfacet
  facet normal -0.311607591 0.733156899 0.604468089
    outer loop
      vertex 4.91798751 -0.252160129 1.07435073
      vertex 4.91635159 -0.251926574 1.07322412
      vertex 4.916106 -0.252457116 1.07374101
    endloop
  endfacet
  facet normal -0.948767564 -0.275111592 -0.155414677
    outer loop
      vertex 4.96284714 -0.362430651 0.983070799
      vertex 4.962888 -0.362915979 0.983680513
      vertex 4.91614686 -0.252942444 1.07435073
    endloop
  endfacet
  facet normal -0.948767564 -0.275111592 -0.155414677
    outer loop
      vertex 4.96284714 -0.362430651 0.983070799
      vertex 4.91614686 -0.252942444 1.07435073
      vertex 4.916106 -0.252457116 1.07374101
    endloop
  endfacet
  facet normal 0.311607591 -0.733156899 -0.604468089
    outer loop
      vertex 4.96472864 -0.362133664 0.983680513
      vertex 4.962888 -0.362915979 0.983680513
      vertex 4.96284714 -0.362430651 0.983070799
    endloop
  endfacet
  facet normal -0.311607591 0.733156899 0.604468089
    outer loop
      vertex 4.91798751 -0.252160129 1.07435073
      vertex 4.916106 -0.252457116 1.07374101
      vertex 4.91614686 -0.252942444 1.07435073
    endloop
  endfacet
  facet normal -0.856512371 -0.492171552 0.155414677
    outer loop
      vertex 4.962888 -0.362915979 0.983680513
      vertex 4.96320907 -0.363282208 0.984290227
      vertex 4.91646793 -0.253308673 1.07496044
    endloop
  endfacet
  facet normal -0.856512371 -0.492171552 0.155414677
    outer loop
      vertex 4.962888 -0.362915979 0.983680513
      vertex 4.91646793 -0.253308673 1.07496044
      vertex 4.91614686 -0.252942444 1.07435073
    endloop
  endfacet
  facet normal 0.311607591 -0.733156899 -0.604468089
    outer loop
      vertex 4.96472864 -0.362133664 0.983680513
      vertex 4.96320907 -0.363282208 0.984290227
      vertex 4.962888 -0.362915979 0.983680513
    endloop
  endfacet
  facet normal -0.311607591 0.733156899 0.604468089
    outer loop
      vertex 4.91798751 -0.252160129 1.07435073
      vertex 4.91614686 -0.252942444 1.07435073
      vertex 4.91646793 -0.253308673 1.07496044
    endloop
  endfacet
  facet normal -0.633860933 -0.634302856 0.442583557
    outer loop
      vertex 4.96320907 -0.363282208 0.984290227
      vertex 4.96376149 -0.363473581 0.984807117
      vertex 4.91702035 -0.253500046 1.07547733
    endloop
  endfacet
  facet normal -0.633860933 -0.634302856 0.442583557
    outer loop
      vertex 4.96320907 -0.363282208 0.984290227
      vertex 4.91702035 -0.253500046 1.07547733
      vertex 4.91646793 -0.253308673 1.07496044
    endloop
  endfacet
  facet normal 0.311607591 -0.733156899 -0.604468089
    outer loop
      vertex 4.96472864 -0.362133664 0.983680513
      vertex 4.96376149 -0.363473581 0.984807117
      vertex 4.96320907 -0.363282208 0.984290227
    endloop
  endfacet
  facet normal -0.311607591 0.733156899 0.604468089
    outer loop
      vertex 4.91798751 -0.252160129 1.07435073
      vertex 4.91646793 -0.253308673 1.07496044
      vertex 4.91702035 -0.253500046 1.07547733
    endloop
  endfacet
  facet normal -0.314709915 -0.679867299 0.662373101
    outer loop
      vertex 4.96376149 -0.363473581 0.984807117
      vertex 4.96446115 -0.363460963 0.985152492
      vertex 4.91772001 -0.253487428 1.07582271
    endloop
  endfacet
  facet normal -0.314709915 -0.679867299 0.662373101
    outer loop
      vertex 4.96376149 -0.363473581 0.984807117
      vertex 4.91772001 -0.253487428 1.07582271
      vertex 4.91702035 -0.253500046 1.07547733
    endloop
  endfacet
  facet normal 0.311607591 -0.733156899 -0.604468089
    outer loop
      vertex 4.96472864 -0.362133664 0.983680513
      vertex 4.96446115 -0.363460963 0.985152492
      vertex 4.96376149 -0.363473581 0.984807117
    endloop
  endfacet
  facet normal -0.311607591 0.733156899 0.604468089
    outer loop
      vertex 4.91798751 -0.252160129 1.07435073
      vertex 4.91702035 -0.253500046 1.07547733
      vertex 4.91772001 -0.253487428 1.07582271
    endloop
  endfacet
  facet normal 0.0523528352 -0.621928109 0.781322346
    outer loop
      vertex 4.96446115 -0.363460963 0.985152492
      vertex 4.96520153 -0.363246277 0.985273772
      vertex 4.91846039 -0.253272742 1.07594398
    endloop
  endfacet
  facet normal 0.0523528352 -0.621928109 0.781322346
    outer loop
      vertex 4.96446115 -0.363460963 0.985152492
      vertex 4.91846039 -0.253272742 1.07594398
      vertex 4.91772001 -0.253487428 1.07582271
    endloop
  endfacet
  facet normal 0.311607591 -0.733156899 -0.604468089
    outer loop
      vertex 4.96472864 -0.362133664 0.983680513
      vertex 4.96520153 -0.363246277 0.985273772
      vertex 4.96446115 -0.363460963 0.985152492
    endloop
  endfacet
  facet normal -0.311607591 0.733156899 0.604468089
    outer loop
      vertex 4.91798751 -0.252160129 1.07435073
      vertex 4.91772001 -0.253487428 1.07582271
      vertex 4.91846039 -0.253272742 1.07594398
    endloop
  endfacet
  facet normal 0.411445341 -0.469306002 0.781322346
    outer loop
      vertex 4.96520153 -0.363246277 0.985273772
      vertex 4.96586992 -0.362862205 0.985152492
      vertex 4.91912878 -0.25288867 1.07582271
    endloop
  endfacet
  facet normal 0.411445341 -0.469306002 0.781322346
    outer loop
      vertex 4.96520153 -0.363246277 0.985273772
      vertex 4.91912878 -0.25288867 1.07582271
      vertex 4.91846039 -0.253272742 1.07594398
    endloop
  endfacet
  facet normal 0.311607591 -0.733156899 -0.604468089
    outer loop
      vertex 4.96472864 -0.362133664 0.983680513
      vertex 4.96586992 -0.362862205 0.985152492
      vertex 4.96520153 -0.363246277 0.985273772
    endloop
  endfacet
  facet normal -0.311607591 0.733156899 0.604468089
    outer loop
      vertex 4.91798751 -0.252160129 1.07435073
      vertex 4.91846039 -0.253272742 1.07594398
      vertex 4.91912878 -0.25288867 1.07582271
    endloop
  endfacet
  facet normal 0.707899023 -0.245236311 0.662373101
    outer loop
      vertex 4.96586992 -0.362862205 0.985152492
      vertex 4.96636456 -0.36236722 0.984807117
      vertex 4.91962342 -0.252393685 1.07547733
    endloop
  endfacet
  facet normal 0.707899023 -0.245236311 0.662373101
    outer loop
      vertex 4.96586992 -0.362862205 0.985152492
      vertex 4.91962342 -0.252393685 1.07547733
      vertex 4.91912878 -0.25288867 1.07582271
    endloop
  endfacet
  facet normal 0.311607591 -0.733156899 -0.604468089
    outer loop
      vertex 4.96472864 -0.362133664 0.983680513
      vertex 4.96636456 -0.36236722 0.984807117
      vertex 4.96586992 -0.362862205 0.985152492
    endloop
  endfacet
  facet normal -0.311607591 0.733156899 0.604468089
    outer loop
      vertex 4.91798751 -0.252160129 1.07435073
      vertex 4.91912878 -0.25288867 1.07582271
      vertex 4.91962342 -0.252393685 1.07547733
    endloop
  endfacet
  facet normal 0.896581496 0.0161683856 0.442583557
    outer loop
      vertex 4.96636456 -0.36236722 0.984807117
      vertex 4.96661015 -0.361836678 0.984290227
      vertex 4.91986901 -0.251863143 1.07496044
    endloop
  endfacet
  facet normal 0.896581496 0.0161683856 0.442583557
    outer loop
      vertex 4.96636456 -0.36236722 0.984807117
      vertex 4.91986901 -0.251863143 1.07496044
      vertex 4.91962342 -0.252393685 1.07547733
    endloop
  endfacet
  facet normal 0.311607591 -0.733156899 -0.604468089
    outer loop
      vertex 4.96472864 -0.362133664 0.983680513
      vertex 4.96661015 -0.361836678 0.984290227
      vertex 4.96636456 -0.36236722 0.984807117
    endloop
  endfacet
  facet normal -0.311607591 0.733156899 0.604468089
    outer loop
      vertex 4.91798751 -0.252160129 1.07435073
      vertex 4.91962342 -0.252393685 1.07547733
      vertex 4.91986901 -0.251863143 1.07496044
    endloop
  endfacet
  facet normal 0.948767564 0.275111592 0.155414677
    outer loop
      vertex 4.96661015 -0.361836678 0.984290227
      vertex 4.96656929 -0.361351349 0.983680513
      vertex 4.91982815 -0.251377814 1.07435073
    endloop
  endfacet
  facet normal 0.948767564 0.275111592 0.155414677
    outer loop
      vertex 4.96661015 -0.361836678 0.984290227
      vertex 4.91982815 -0.251377814 1.07435073
      vertex 4.91986901 -0.251863143 1.07496044
    endloop
  endfacet
  facet normal 0.311607591 -0.733156899 -0.604468089
    outer loop
      vertex 4.96472864 -0.362133664 0.983680513
      vertex 4.96656929 -0.361351349 0.983680513
      vertex 4.96661015 -0.361836678 0.984290227
    endloop
  endfacet
  facet normal -0.311607591 0.733156899 0.604468089
    outer loop
      vertex 4.91798751 -0.252160129 1.07435073
      vertex 4.91986901 -0.251863143 1.07496044
      vertex 4.91982815 -0.251377814 1.07435073
    endloop
  endfacet
  facet normal 0.856512371 0.492171552 -0.155414677
    outer loop
      vertex 4.97791354 -0.338387992 0.967601923
      vertex 4.97759246 -0.338021763 0.966992209
      vertex 4.93085133 -0.228048229 1.05766242
    endloop
  endfacet
  facet normal 0.856512371 0.492171552 -0.155414677
    outer loop
      vertex 4.97791354 -0.338387992 0.967601923
      vertex 4.93085133 -0.228048229 1.05766242
      vertex 4.9311724 -0.228414457 1.05827214
    endloop
  endfacet
  facet normal 0.311607591 -0.733156899 -0.604468089
    outer loop
      vertex 4.97607289 -0.339170307 0.967601923
      vertex 4.97759246 -0.338021763 0.966992209
      vertex 4.97791354 -0.338387992 0.967601923
    endloop
  endfacet
  facet normal -0.311607591 0.733156899 0.604468089
    outer loop
      vertex 4.92933175 -0.229196772 1.05827214
      vertex 4.9311724 -0.228414457 1.05827214
      vertex 4.93085133 -0.228048229 1.05766242
    endloop
  endfacet
  facet normal 0.633860933 0.634302856 -0.442583557
    outer loop
      vertex 4.97759246 -0.338021763 0.966992209
      vertex 4.97704005 -0.337830391 0.966475319
      vertex 4.93029891 -0.227856856 1.05714553
    endloop
  endfacet
  facet normal 0.633860933 0.634302856 -0.442583557
    outer loop
      vertex 4.97759246 -0.338021763 0.966992209
      vertex 4.93029891 -0.227856856 1.05714553
      vertex 4.93085133 -0.228048229 1.05766242
    endloop
  endfacet
  facet normal 0.311607591 -0.733156899 -0.604468089
    outer loop
      vertex 4.97607289 -0.339170307 0.967601923
      vertex 4.97704005 -0.337830391 0.966475319
      vertex 4.97759246 -0.338021763 0.966992209
    endloop
  endfacet
  facet normal -0.311607591 0.733156899 0.604468089
    outer loop
      vertex 4.92933175 -0.229196772 1.05827214
      vertex 4.93085133 -0.228048229 1.05766242
      vertex 4.93029891 -0.227856856 1.05714553
    endloop
  endfacet
  facet normal 0.314709915 0.679867299 -0.662373101
    outer loop
      vertex 4.97704005 -0.337830391 0.966475319
      vertex 4.97634039 -0.337843008 0.966129944
      vertex 4.92959925 -0.227869473 1.05680016
    endloop
  endfacet
  facet normal 0.314709915 0.679867299 -0.662373101
    outer loop
      vertex 4.97704005 -0.337830391 0.966475319
      vertex 4.92959925 -0.227869473 1.05680016
      vertex 4.93029891 -0.227856856 1.05714553
    endloop
  endfacet
  facet normal 0.311607591 -0.733156899 -0.604468089
    outer loop
      vertex 4.97607289 -0.339170307 0.967601923
      vertex 4.97634039 -0.337843008 0.966129944
      vertex 4.97704005 -0.337830391 0.966475319
    endloop
  endfacet
  facet normal -0.311607591 0.733156899 0.604468089
    outer loop
      vertex 4.92933175 -0.229196772 1.05827214
      vertex 4.93029891 -0.227856856 1.05714553
      vertex 4.92959925 -0.227869473 1.05680016
    endloop
  endfacet
  facet normal -0.0523528352 0.621928109 -0.781322346
    outer loop
      vertex 4.97634039 -0.337843008 0.966129944
      vertex 4.97560001 -0.338057694 0.966008664
      vertex 4.92885887 -0.228084159 1.05667888
    endloop
  endfacet
  facet normal -0.0523528352 0.621928109 -0.781322346
    outer loop
      vertex 4.97634039 -0.337843008 0.966129944
      vertex 4.92885887 -0.228084159 1.05667888
      vertex 4.92959925 -0.227869473 1.05680016
    endloop
  endfacet
  facet normal 0.311607591 -0.733156899 -0.604468089
    outer loop
      vertex 4.97607289 -0.339170307 0.967601923
      vertex 4.97560001 -0.338057694 0.966008664
      vertex 4.97634039 -0.337843008 0.966129944
    endloop
  endfacet
  facet normal -0.311607591 0.733156899 0.604468089
    outer loop
      vertex 4.92933175 -0.229196772 1.05827214
      vertex 4.92959925 -0.227869473 1.05680016
      vertex 4.92885887 -0.228084159 1.05667888
    endloop
  endfacet
  facet normal -0.411445341 0.469306002 -0.781322346
    outer loop
      vertex 4.97560001 -0.338057694 0.966008664
      vertex 4.97493162 -0.338441766 0.966129944
      vertex 4.92819048 -0.228468231 1.05680016
    endloop
  endfacet
  facet normal -0.411445341 0.469306002 -0.781322346
    outer loop
      vertex 4.97560001 -0.338057694 0.966008664
      vertex 4.92819048 -0.228468231 1.05680016
      vertex 4.92885887 -0.228084159 1.05667888
    endloop
  endfacet
  facet normal 0.311607591 -0.733156899 -0.604468089
    outer loop
      vertex 4.97607289 -0.339170307 0.967601923
      vertex 4.97493162 -0.338441766 0.966129944
      vertex 4.97560001 -0.338057694 0.966008664
    endloop
  endfacet
  facet normal -0.311607591 0.733156899 0.604468089
    outer loop
      vertex 4.92933175 -0.229196772 1.05827214
      vertex 4.92885887 -0.228084159 1.05667888
      vertex 4.92819048 -0.228468231 1.05680016
    endloop
  endfacet
  facet normal -0.707899023 0.245236311 -0.662373101
    outer loop
      vertex 4.97493162 -0.338441766 0.966129944
      vertex 4.97443698 -0.338936751 0.966475319
      vertex 4.92769584 -0.228963216 1.05714553
    endloop
  endfacet
  facet normal -0.707899023 0.245236311 -0.662373101
    outer loop
      vertex 4.97493162 -0.338441766 0.966129944
      vertex 4.92769584 -0.228963216 1.05714553
      vertex 4.92819048 -0.228468231 1.05680016
    endloop
  endfacet
  facet normal 0.311607591 -0.733156899 -0.604468089
    outer loop
      vertex 4.97607289 -0.339170307 0.967601923
      vertex 4.97443698 -0.338936751 0.966475319
      vertex 4.97493162 -0.338441766 0.966129944
    endloop
  endfacet
  facet normal -0.311607591 0.733156899 0.604468089
    outer loop
      vertex 4.92933175 -0.229196772 1.05827214
      vertex 4.92819048 -0.228468231 1.05680016
      vertex 4.92769584 -0.228963216 1.05714553
    endloop
  endfacet
  facet normal -0.896581496 -0.0161683856 -0.442583557
    outer loop
      vertex 4.97443698 -0.338936751 0.966475319
      vertex 4.97419139 -0.339467293 0.966992209
      vertex 4.92745025 -0.229493758 1.05766242
    endloop
  endfacet
  facet normal -0.896581496 -0.0161683856 -0.442583557
    outer loop
      vertex 4.97443698 -0.338936751 0.966475319
      vertex 4.92745025 -0.229493758 1.05766242
      vertex 4.92769584 -0.228963216 1.05714553
    endloop
  endfacet
  facet normal 0.311607591 -0.733156899 -0.604468089
    outer loop
      vertex 4.97607289 -0.339170307 0.967601923
      vertex 4.97419139 -0.339467293 0.966992209
      vertex 4.97443698 -0.338936751 0.966475319
    endloop
  endfacet
  facet normal -0.311607591 0.733156899 0.604468089
    outer loop
      vertex 4.92933175 -0.229196772 1.05827214
      vertex 4.92769584 -0.228963216 1.05714553
      vertex 4.92745025 -0.229493758 1.05766242
    endloop
  endfacet
  facet normal -0.948767564 -0.275111592 -0.155414677
    outer loop
      vertex 4.97419139 -0.339467293 0.966992209
      vertex 4.97423225 -0.339952622 0.967601923
      vertex 4.92749111 -0.229979087 1.05827214
    endloop
  endfacet
  facet normal -0.948767564 -0.275111592 -0.155414677
    outer loop
      vertex 4.97419139 -0.339467293 0.966992209
      vertex 4.92749111 -0.229979087 1.05827214
      vertex 4.92745025 -0.229493758 1.05766242
    endloop
  endfacet
  facet normal 0.311607591 -0.733156899 -0.604468089
    outer loop
      vertex 4.97607289 -0.339170307 0.967601923
      vertex 4.97423225 -0.339952622 0.967601923
      vertex 4.97419139 -0.339467293 0.966992209
    endloop
  endfacet
  facet normal -0.311607591 0.733156899 0.604468089
    outer loop
      vertex 4.92933175 -0.229196772 1.05827214
      vertex 4.92745025 -0.229493758 1.05766242
      vertex 4.92749111 -0.229979087 1.05827214
    endloop
  endfacet
  facet normal -0.856512371 -0.492171552 0.155414677
    outer loop
      vertex 4.97423225 -0.339952622 0.967601923
      vertex 4.97455332 -0.34031885 0.968211637
      vertex 4.92781218 -0.230345315 1.05888185
    endloop
  endfacet
  facet normal -0.856512371 -0.492171552 0.155414677
    outer loop
      vertex 4.97423225 -0.339952622 0.967601923
      vertex 4.92781218 -0.230345315 1.05888185
      vertex 4.92749111 -0.229979087 1.05827214
    endloop
  endfacet
  facet normal 0.311607591 -0.733156899 -0.604468089
    outer loop
      vertex 4.97607289 -0.339170307 0.967601923
      vertex 4.97455332 -0.34031885 0.968211637
      vertex 4.97423225 -0.339952622 0.967601923
    endloop
  endfacet
  facet normal -0.311607591 0.733156899 0.604468089
    outer loop
      vertex 4.92933175 -0.229196772 1.05827214
      vertex 4.92749111 -0.229979087 1.05827214
      vertex 4.92781218 -0.230345315 1.05888185
    endloop
  endfacet
  facet normal -0.633860933 -0.634302856 0.442583557
    outer loop
      vertex 4.97455332 -0.34031885 0.968211637
      vertex 4.97510574 -0.340510223 0.968728527
      vertex 4.9283646 -0.230536688 1.05939874
    endloop
  endfacet
  facet normal -0.633860933 -0.634302856 0.442583557
    outer loop
      vertex 4.97455332 -0.34031885 0.968211637
      vertex 4.9283646 -0.230536688 1.05939874
      vertex 4.92781218 -0.230345315 1.05888185
    endloop
  endfacet
  facet normal 0.311607591 -0.733156899 -0.604468089
    outer loop
      vertex 4.97607289 -0.339170307 0.967601923
      vertex 4.97510574 -0.340510223 0.968728527
      vertex 4.97455332 -0.34031885 0.968211637
    endloop
  endfacet
  facet normal -0.311607591 0.733156899 0.604468089
    outer loop
      vertex 4.92933175 -0.229196772 1.05827214
      vertex 4.92781218 -0.230345315 1.05888185
      vertex 4.9283646 -0.230536688 1.05939874
    endloop
  endfacet
  facet normal -0.314709915 -0.679867299 0.662373101
    outer loop
      vertex 4.97510574 -0.340510223 0.968728527
      vertex 4.9758054 -0.340497606 0.969073902
      vertex 4.92906426 -0.230524071 1.05974412
    endloop
  endfacet
  facet normal -0.314709915 -0.679867299 0.662373101
    outer loop
      vertex 4.97510574 -0.340510223 0.968728527
      vertex 4.92906426 -0.230524071 1.05974412
      vertex 4.9283646 -0.230536688 1.05939874
    endloop
  endfacet
  facet normal 0.311607591 -0.733156899 -0.604468089
    outer loop
      vertex 4.97607289 -0.339170307 0.967601923
      vertex 4.9758054 -0.340497606 0.969073902
      vertex 4.97510574 -0.340510223 0.968728527
    endloop
  endfacet
  facet normal -0.311607591 0.733156899 0.604468089
    outer loop
      vertex 4.92933175 -0.229196772 1.05827214
      vertex 4.9283646 -0.230536688 1.05939874
      vertex 4.92906426 -0.230524071 1.05974412
    endloop
  endfacet
  facet normal 0.0523528352 -0.621928109 0.781322346
    outer loop
      vertex 4.9758054 -0.340497606 0.969073902
      vertex 4.97654578 -0.340282919 0.969195182
      vertex 4.92980464 -0.230309385 1.05986539
    endloop
  endfacet
  facet normal 0.0523528352 -0.621928109 0.781322346
    outer loop
      vertex 4.9758054 -0.340497606 0.969073902
      vertex 4.92980464 -0.230309385 1.05986539
      vertex 4.92906426 -0.230524071 1.05974412
    endloop
  endfacet
  facet normal 0.311607591 -0.733156899 -0.604468089
    outer loop
      vertex 4.97607289 -0.339170307 0.967601923
      vertex 4.97654578 -0.340282919 0.969195182
      vertex 4.9758054 -0.340497606 0.969073902
    endloop
  endfacet
  facet normal -0.311607591 0.733156899 0.604468089
    outer loop
      vertex 4.92933175 -0.229196772 1.05827214
      vertex 4.92906426 -0.230524071 1.05974412
      vertex 4.92980464 -0.230309385 1.05986539
    endloop
  endfacet
  facet normal 0.411445341 -0.469306002 0.781322346
    outer loop
      vertex 4.97654578 -0.340282919 0.969195182
      vertex 4.97721417 -0.339898848 0.969073902
      vertex 4.93047303 -0.229925313 1.05974412
    endloop
  endfacet
  facet normal 0.411445341 -0.469306002 0.781322346
    outer loop
      vertex 4.97654578 -0.340282919 0.969195182
      vertex 4.93047303 -0.229925313 1.05974412
      vertex 4.92980464 -0.230309385 1.05986539
    endloop
  endfacet
  facet normal 0.311607591 -0.733156899 -0.604468089
    outer loop
      vertex 4.97607289 -0.339170307 0.967601923
      vertex 4.97721417 -0.339898848 0.969073902
      vertex 4.97654578 -0.340282919 0.969195182
    endloop
  endfacet
  facet normal -0.311607591 0.733156899 0.604468089
    outer loop
      vertex 4.92933175 -0.229196772 1.05827214
      vertex 4.92980464 -0.230309385 1.05986539
      vertex 4.93047303 -0.229925313 1.05974412
    endloop
  endfacet
  facet normal 0.707899023 -0.245236311 0.662373101
    outer loop
      vertex 4.97721417 -0.339898848 0.969073902
      vertex 4.97770881 -0.339403862 0.968728527
      vertex 4.93096767 -0.229430328 1.05939874
    endloop
  endfacet
  facet normal 0.707899023 -0.245236311 0.662373101
    outer loop
      vertex 4.97721417 -0.339898848 0.969073902
      vertex 4.93096767 -0.229430328 1.05939874
      vertex 4.93047303 -0.229925313 1.05974412
    endloop
  endfacet
  facet normal 0.311607591 -0.733156899 -0.604468089
    outer loop
      vertex 4.97607289 -0.339170307 0.967601923
      vertex 4.97770881 -0.339403862 0.968728527
      vertex 4.97721417 -0.339898848 0.969073902
    endloop
  endfacet
  facet normal -0.311607591 0.733156899 0.604468089
    outer loop
      vertex 4.92933175 -0.229196772 1.05827214
      vertex 4.93047303 -0.229925313 1.05974412
      vertex 4.93096767 -0.229430328 1.05939874
    endloop
  endfacet
  facet normal 0.896581496 0.0161683856 0.442583557
    outer loop
      vertex 4.97770881 -0.339403862 0.968728527
      vertex 4.97795439 -0.33887332 0.968211637
      vertex 4.93121326 -0.228899785 1.05888185
    endloop
  endfacet
  facet normal 0.896581496 0.0161683856 0.442583557
    outer loop
      vertex 4.97770881 -0.339403862 0.968728527
      vertex 4.93121326 -0.228899785 1.05888185
      vertex 4.93096767 -0.229430328 1.05939874
    endloop
  endfacet
  facet normal 0.311607591 -0.733156899 -0.604468089
    outer loop
      vertex 4.97607289 -0.339170307 0.967601923
      vertex 4.97795439 -0.33887332 0.968211637
      vertex 4.97770881 -0.339403862 0.968728527
    endloop
  endfacet
  facet normal -0.311607591 0.733156899 0.604468089
    outer loop
      vertex 4.92933175 -0.229196772 1.05827214
      vertex 4.93096767 -0.229430328 1.05939874
      vertex 4.93121326 -0.228899785 1.05888185
    endloop
  endfacet
  facet normal 0.948767564 0.275111592 0.155414677
    outer loop
      vertex 4.97795439 -0.33887332 0.968211637
      vertex 4.97791354 -0.338387992 0.967601923
      vertex 4.9311724 -0.228414457 1.05827214
    endloop
  endfacet
  facet normal 0.948767564 0.275111592 0.155414677
    outer loop
      vertex 4.97795439 -0.33887332 0.968211637
      vertex 4.9311724 -0.228414457 1.05827214
      vertex 4.93121326 -0.228899785 1.05888185
    endloop
  endfacet
  facet normal 0.311607591 -0.733156899 -0.604468089
    outer loop
      vertex 4.97607289 -0.339170307 0.967601923
      vertex 4.97791354 -0.338387992 0.967601923
      vertex 4.97795439 -0.33887332 0.968211637
    endloop
  endfacet
  facet normal -0.311607591 0.733156899 0.604468089
    outer loop
      vertex 4.92933175 -0.229196772 1.05827214
      vertex 4.93121326 -0.228899785 1.05888185
      vertex 4.9311724 -0.228414457 1.05827214
    endloop
  endfacet
endsolid e6_features
