solid e12_features
  facet normal 0.106245667 0.984983991 -0.136082311
    outer loop
      vertex 5.08027728 0.717927416 0.848504505
      vertex 5.08116256 0.717713912 0.847650313
      vertex 5.01842097 0.715571879 0.783160741
    endloop
  endfacet
  facet normal 0.106245667 0.984983991 -0.136082311
    outer loop
      vertex 5.08027728 0.717927416 0.848504505
      vertex 5.01842097 0.715571879 0.783160741
      vertex 5.01753569 0.715785383 0.784014934
    endloop
  endfacet
  facet normal 0.697128755 0.0238003654 0.716550795
    outer loop
      vertex 5.08038647 0.714729279 0.848504505
      vertex 5.08116256 0.717713912 0.847650313
      vertex 5.08027728 0.717927416 0.848504505
    endloop
  endfacet
  facet normal -0.697128755 -0.0238003654 -0.716550795
    outer loop
      vertex 5.01764488 0.712587246 0.784014934
      vertex 5.01753569 0.715785383 0.784014934
      vertex 5.01842097 0.715571879 0.783160741
    endloop
  endfacet
  facet normal 0.369492181 0.844568712 -0.387529636
    outer loop
      vertex 5.08116256 0.717713912 0.847650313
      vertex 5.08192969 0.717046025 0.846926164
      vertex 5.0191881 0.714903992 0.782436592
    endloop
  endfacet
  facet normal 0.369492181 0.844568712 -0.387529636
    outer loop
      vertex 5.08116256 0.717713912 0.847650313
      vertex 5.0191881 0.714903992 0.782436592
      vertex 5.01842097 0.715571879 0.783160741
    endloop
  endfacet
  facet normal 0.697128755 0.0238003654 0.716550795
    outer loop
      vertex 5.08038647 0.714729279 0.848504505
      vertex 5.08192969 0.717046025 0.846926164
      vertex 5.08116256 0.717713912 0.847650313
    endloop
  endfacet
  facet normal -0.697128755 -0.0238003654 -0.716550795
    outer loop
      vertex 5.01764488 0.712587246 0.784014934
      vertex 5.01842097 0.715571879 0.783160741
      vertex 5.0191881 0.714903992 0.782436592
    endloop
  endfacet
  facet normal 0.576486861 0.575575503 -0.579979086
    outer loop
      vertex 5.08192969 0.717046025 0.846926164
      vertex 5.08246187 0.716025435 0.846442303
      vertex 5.01972028 0.713883402 0.781952731
    endloop
  endfacet
  facet normal 0.576486861 0.575575503 -0.579979086
    outer loop
      vertex 5.08192969 0.717046025 0.846926164
      vertex 5.01972028 0.713883402 0.781952731
      vertex 5.0191881 0.714903992 0.782436592
    endloop
  endfacet
  facet normal 0.697128755 0.0238003654 0.716550795
    outer loop
      vertex 5.08038647 0.714729279 0.848504505
      vertex 5.08246187 0.716025435 0.846442303
      vertex 5.08192969 0.717046025 0.846926164
    endloop
  endfacet
  facet normal -0.697128755 -0.0238003654 -0.716550795
    outer loop
      vertex 5.01764488 0.712587246 0.784014934
      vertex 5.0191881 0.714903992 0.782436592
      vertex 5.01972028 0.713883402 0.781952731
    endloop
  endfacet
  facet normal 0.695716642 0.21895614 -0.684131978
    outer loop
      vertex 5.08246187 0.716025435 0.846442303
      vertex 5.08267809 0.714807516 0.846272393
      vertex 5.01993651 0.712665483 0.781782822
    endloop
  endfacet
  facet normal 0.695716642 0.21895614 -0.684131978
    outer loop
      vertex 5.08246187 0.716025435 0.846442303
      vertex 5.01993651 0.712665483 0.781782822
      vertex 5.01972028 0.713883402 0.781952731
    endloop
  endfacet
  facet normal 0.697128755 0.0238003654 0.716550795
    outer loop
      vertex 5.08038647 0.714729279 0.848504505
      vertex 5.08267809 0.714807516 0.846272393
      vertex 5.08246187 0.716025435 0.846442303
    endloop
  endfacet
  facet normal -0.697128755 -0.0238003654 -0.716550795
    outer loop
      vertex 5.01764488 0.712587246 0.784014934
      vertex 5.01972028 0.713883402 0.781952731
      vertex 5.01993651 0.712665483 0.781782822
    endloop
  endfacet
  facet normal 0.70902987 -0.170997309 -0.684131978
    outer loop
      vertex 5.08267809 0.714807516 0.846272393
      vertex 5.08254544 0.713577687 0.846442303
      vertex 5.01980385 0.711435654 0.781952731
    endloop
  endfacet
  facet normal 0.70902987 -0.170997309 -0.684131978
    outer loop
      vertex 5.08267809 0.714807516 0.846272393
      vertex 5.01980385 0.711435654 0.781952731
      vertex 5.01993651 0.712665483 0.781782822
    endloop
  endfacet
  facet normal 0.697128755 0.0238003654 0.716550795
    outer loop
      vertex 5.08038647 0.714729279 0.848504505
      vertex 5.08254544 0.713577687 0.846442303
      vertex 5.08267809 0.714807516 0.846272393
    endloop
  endfacet
  facet normal -0.697128755 -0.0238003654 -0.716550795
    outer loop
      vertex 5.01764488 0.712587246 0.784014934
      vertex 5.01993651 0.712665483 0.781782822
      vertex 5.01980385 0.711435654 0.781952731
    endloop
  endfacet
  facet normal 0.614399729 -0.534917969 -0.579979086
    outer loop
      vertex 5.08254544 0.713577687 0.846442303
      vertex 5.0820841 0.712523177 0.846926164
      vertex 5.01934251 0.710381144 0.782436592
    endloop
  endfacet
  facet normal 0.614399729 -0.534917969 -0.579979086
    outer loop
      vertex 5.08254544 0.713577687 0.846442303
      vertex 5.01934251 0.710381144 0.782436592
      vertex 5.01980385 0.711435654 0.781952731
    endloop
  endfacet
  facet normal 0.697128755 0.0238003654 0.716550795
    outer loop
      vertex 5.08038647 0.714729279 0.848504505
      vertex 5.0820841 0.712523177 0.846926164
      vertex 5.08254544 0.713577687 0.846442303
    endloop
  endfacet
  facet normal -0.697128755 -0.0238003654 -0.716550795
    outer loop
      vertex 5.01764488 0.712587246 0.784014934
      vertex 5.01980385 0.711435654 0.781952731
      vertex 5.01934251 0.710381144 0.782436592
    endloop
  endfacet
  facet normal 0.426232798 -0.817402216 -0.387529636
    outer loop
      vertex 5.0820841 0.712523177 0.846926164
      vertex 5.08136431 0.711804526 0.847650313
      vertex 5.01862272 0.709662493 0.783160741
    endloop
  endfacet
  facet normal 0.426232798 -0.817402216 -0.387529636
    outer loop
      vertex 5.0820841 0.712523177 0.846926164
      vertex 5.01862272 0.709662493 0.783160741
      vertex 5.01934251 0.710381144 0.782436592
    endloop
  endfacet
  facet normal 0.697128755 0.0238003654 0.716550795
    outer loop
      vertex 5.08038647 0.714729279 0.848504505
      vertex 5.08136431 0.711804526 0.847650313
      vertex 5.0820841 0.712523177 0.846926164
    endloop
  endfacet
  facet normal -0.697128755 -0.0238003654 -0.716550795
    outer loop
      vertex 5.01764488 0.712587246 0.784014934
      vertex 5.01934251 0.710381144 0.782436592
      vertex 5.01862272 0.709662493 0.783160741
    endloop
  endfacet
  facet normal 0.173175787 -0.975444387 -0.136082311
    outer loop
      vertex 5.08136431 0.711804526 0.847650313
      vertex 5.08049565 0.711531142 0.848504505
      vertex 5.01775407 0.709389109 0.784014934
    endloop
  endfacet
  facet normal 0.173175787 -0.975444387 -0.136082311
    outer loop
      vertex 5.08136431 0.711804526 0.847650313
      vertex 5.01775407 0.709389109 0.784014934
      vertex 5.01862272 0.709662493 0.783160741
    endloop
  endfacet
  facet normal 0.697128755 0.0238003654 0.716550795
    outer loop
      vertex 5.08038647 0.714729279 0.848504505
      vertex 5.08049565 0.711531142 0.848504505
      vertex 5.08136431 0.711804526 0.847650313
    endloop
  endfacet
  facet normal -0.697128755 -0.0238003654 -0.716550795
    outer loop
      vertex 5.01764488 0.712587246 0.784014934
      vertex 5.01862272 0.709662493 0.783160741
      vertex 5.01775407 0.709389109 0.784014934
    endloop
  endfacet
  facet normal -0.106245667 -0.984983991 0.136082311
    outer loop
      vertex 5.08049565 0.711531142 0.848504505
      vertex 5.07961037 0.711744646 0.849358697
      vertex 5.01686879 0.709602613 0.784869126
    endloop
  endfacet
  facet normal -0.106245667 -0.984983991 0.136082311
    outer loop
      vertex 5.08049565 0.711531142 0.848504505
      vertex 5.01686879 0.709602613 0.784869126
      vertex 5.01775407 0.709389109 0.784014934
    endloop
  endfacet
  facet normal 0.697128755 0.0238003654 0.716550795
    outer loop
      vertex 5.08038647 0.714729279 0.848504505
      vertex 5.07961037 0.711744646 0.849358697
      vertex 5.08049565 0.711531142 0.848504505
    endloop
  endfacet
  facet normal -0.697128755 -0.0238003654 -0.716550795
    outer loop
      vertex 5.01764488 0.712587246 0.784014934
      vertex 5.01775407 0.709389109 0.784014934
      vertex 5.01686879 0.709602613 0.784869126
    endloop
  endfacet
  facet normal -0.369492181 -0.844568712 0.387529636
    outer loop
      vertex 5.07961037 0.711744646 0.849358697
      vertex 5.07884325 0.712412532 0.850082847
      vertex 5.01610166 0.7102705 0.785593275
    endloop
  endfacet
  facet normal -0.369492181 -0.844568712 0.387529636
    outer loop
      vertex 5.07961037 0.711744646 0.849358697
      vertex 5.01610166 0.7102705 0.785593275
      vertex 5.01686879 0.709602613 0.784869126
    endloop
  endfacet
  facet normal 0.697128755 0.0238003654 0.716550795
    outer loop
      vertex 5.08038647 0.714729279 0.848504505
      vertex 5.07884325 0.712412532 0.850082847
      vertex 5.07961037 0.711744646 0.849358697
    endloop
  endfacet
  facet normal -0.697128755 -0.0238003654 -0.716550795
    outer loop
      vertex 5.01764488 0.712587246 0.784014934
      vertex 5.01686879 0.709602613 0.784869126
      vertex 5.01610166 0.7102705 0.785593275
    endloop
  endfacet
  facet normal -0.576486861 -0.575575503 0.579979086
    outer loop
      vertex 5.07884325 0.712412532 0.850082847
      vertex 5.07831106 0.713433123 0.850566708
      vertex 5.01556948 0.71129109 0.786077136
    endloop
  endfacet
  facet normal -0.576486861 -0.575575503 0.579979086
    outer loop
      vertex 5.07884325 0.712412532 0.850082847
      vertex 5.01556948 0.71129109 0.786077136
      vertex 5.01610166 0.7102705 0.785593275
    endloop
  endfacet
  facet normal 0.697128755 0.0238003654 0.716550795
    outer loop
      vertex 5.08038647 0.714729279 0.848504505
      vertex 5.07831106 0.713433123 0.850566708
      vertex 5.07884325 0.712412532 0.850082847
    endloop
  endfacet
  facet normal -0.697128755 -0.0238003654 -0.716550795
    outer loop
      vertex 5.01764488 0.712587246 0.784014934
      vertex 5.01610166 0.7102705 0.785593275
      vertex 5.01556948 0.71129109 0.786077136
    endloop
  endfacet
  facet normal -0.695716642 -0.21895614 0.684131978
    outer loop
      vertex 5.07831106 0.713433123 0.850566708
      vertex 5.07809484 0.714651041 0.850736617
      vertex 5.01535325 0.712509009 0.786247045
    endloop
  endfacet
  facet normal -0.695716642 -0.21895614 0.684131978
    outer loop
      vertex 5.07831106 0.713433123 0.850566708
      vertex 5.01535325 0.712509009 0.786247045
      vertex 5.01556948 0.71129109 0.786077136
    endloop
  endfacet
  facet normal 0.697128755 0.0238003654 0.716550795
    outer loop
      vertex 5.08038647 0.714729279 0.848504505
      vertex 5.07809484 0.714651041 0.850736617
      vertex 5.07831106 0.713433123 0.850566708
    endloop
  endfacet
  facet normal -0.697128755 -0.0238003654 -0.716550795
    outer loop
      vertex 5.01764488 0.712587246 0.784014934
      vertex 5.01556948 0.71129109 0.786077136
      vertex 5.01535325 0.712509009 0.786247045
    endloop
  endfacet
  facet normal -0.70902987 0.170997309 0.684131978
    outer loop
      vertex 5.07809484 0.714651041 0.850736617
      vertex 5.0782275 0.715880871 0.850566708
      vertex 5.01548591 0.713738838 0.786077136
    endloop
  endfacet
  facet normal -0.70902987 0.170997309 0.684131978
    outer loop
      vertex 5.07809484 0.714651041 0.850736617
      vertex 5.01548591 0.713738838 0.786077136
      vertex 5.01535325 0.712509009 0.786247045
    endloop
  endfacet
  facet normal 0.697128755 0.0238003654 0.716550795
    outer loop
      vertex 5.08038647 0.714729279 0.848504505
      vertex 5.0782275 0.715880871 0.850566708
      vertex 5.07809484 0.714651041 0.850736617
    endloop
  endfacet
  facet normal -0.697128755 -0.0238003654 -0.716550795
    outer loop
      vertex 5.01764488 0.712587246 0.784014934
      vertex 5.01535325 0.712509009 0.786247045
      vertex 5.01548591 0.713738838 0.786077136
    endloop
  endfacet
  facet normal -0.614399729 0.534917969 0.579979086
    outer loop
      vertex 5.0782275 0.715880871 0.850566708
      vertex 5.07868884 0.716935381 0.850082847
      vertex 5.01594725 0.714793348 0.785593275
    endloop
  endfacet
  facet normal -0.614399729 0.534917969 0.579979086
    outer loop
      vertex 5.0782275 0.715880871 0.850566708
      vertex 5.01594725 0.714793348 0.785593275
      vertex 5.01548591 0.713738838 0.786077136
    endloop
  endfacet
  facet normal 0.697128755 0.0238003654 0.716550795
    outer loop
      vertex 5.08038647 0.714729279 0.848504505
      vertex 5.07868884 0.716935381 0.850082847
      vertex 5.0782275 0.715880871 0.850566708
    endloop
  endfacet
  facet normal -0.697128755 -0.0238003654 -0.716550795
    outer loop
      vertex 5.01764488 0.712587246 0.784014934
      vertex 5.01548591 0.713738838 0.786077136
      vertex 5.01594725 0.714793348 0.785593275
    endloop
  endfacet
  facet normal -0.426232798 0.817402216 0.387529636
    outer loop
      vertex 5.07868884 0.716935381 0.850082847
      vertex 5.07940862 0.717654032 0.849358697
      vertex 5.01666704 0.715511999 0.784869126
    endloop
  endfacet
  facet normal -0.426232798 0.817402216 0.387529636
    outer loop
      vertex 5.07868884 0.716935381 0.850082847
      vertex 5.01666704 0.715511999 0.784869126
      vertex 5.01594725 0.714793348 0.785593275
    endloop
  endfacet
  facet normal 0.697128755 0.0238003654 0.716550795
    outer loop
      vertex 5.08038647 0.714729279 0.848504505
      vertex 5.07940862 0.717654032 0.849358697
      vertex 5.07868884 0.716935381 0.850082847
    endloop
  endfacet
  facet normal -0.697128755 -0.0238003654 -0.716550795
    outer loop
      vertex 5.01764488 0.712587246 0.784014934
      vertex 5.01594725 0.714793348 0.785593275
      vertex 5.01666704 0.715511999 0.784869126
    endloop
  endfacet
  facet normal -0.173175787 0.975444387 0.136082311
    outer loop
      vertex 5.07940862 0.717654032 0.849358697
      vertex 5.08027728 0.717927416 0.848504505
      vertex 5.01753569 0.715785383 0.784014934
    endloop
  endfacet
  facet normal -0.173175787 0.975444387 0.136082311
    outer loop
      vertex 5.07940862 0.717654032 0.849358697
      vertex 5.01753569 0.715785383 0.784014934
      vertex 5.01666704 0.715511999 0.784869126
    endloop
  endfacet
  facet normal 0.697128755 0.0238003654 0.716550795
    outer loop
      vertex 5.08038647 0.714729279 0.848504505
      vertex 5.08027728 0.717927416 0.848504505
      vertex 5.07940862 0.717654032 0.849358697
    endloop
  endfacet
  facet normal -0.697128755 -0.0238003654 -0.716550795
    outer loop
      vertex 5.01764488 0.712587246 0.784014934
      vertex 5.01666704 0.715511999 0.784869126
      vertex 5.01753569 0.715785383 0.784014934
    endloop
  endfacet
  facet normal 0.106245667 0.984983991 -0.136082311
    outer loop
      vertex 5.10178565 0.717205829 0.827603085
      vertex 5.10267093 0.716992325 0.826748893
      vertex 5.03992934 0.714850292 0.762259322
    endloop
  endfacet
  facet normal 0.106245667 0.984983991 -0.136082311
    outer loop
      vertex 5.10178565 0.717205829 0.827603085
      vertex 5.03992934 0.714850292 0.762259322
      vertex 5.03904406 0.715063796 0.763113514
    endloop
  endfacet
  facet normal 0.697128755 0.0238003654 0.716550795
    outer loop
      vertex 5.10189484 0.714007692 0.827603085
      vertex 5.10267093 0.716992325 0.826748893
      vertex 5.10178565 0.717205829 0.827603085
    endloop
  endfacet
  facet normal -0.697128755 -0.0238003654 -0.716550795
    outer loop
      vertex 5.03915325 0.711865659 0.763113514
      vertex 5.03904406 0.715063796 0.763113514
      vertex 5.03992934 0.714850292 0.762259322
    endloop
  endfacet
  facet normal 0.369492181 0.844568712 -0.387529636
    outer loop
      vertex 5.10267093 0.716992325 0.826748893
      vertex 5.10343806 0.716324438 0.826024744
      vertex 5.04069647 0.714182405 0.761535173
    endloop
  endfacet
  facet normal 0.369492181 0.844568712 -0.387529636
    outer loop
      vertex 5.10267093 0.716992325 0.826748893
      vertex 5.04069647 0.714182405 0.761535173
      vertex 5.03992934 0.714850292 0.762259322
    endloop
  endfacet
  facet normal 0.697128755 0.0238003654 0.716550795
    outer loop
      vertex 5.10189484 0.714007692 0.827603085
      vertex 5.10343806 0.716324438 0.826024744
      vertex 5.10267093 0.716992325 0.826748893
    endloop
  endfacet
  facet normal -0.697128755 -0.0238003654 -0.716550795
    outer loop
      vertex 5.03915325 0.711865659 0.763113514
      vertex 5.03992934 0.714850292 0.762259322
      vertex 5.04069647 0.714182405 0.761535173
    endloop
  endfacet
  facet normal 0.576486861 0.575575503 -0.579979086
    outer loop
      vertex 5.10343806 0.716324438 0.826024744
      vertex 5.10397024 0.715303848 0.825540883
      vertex 5.04122865 0.713161815 0.761051312
    endloop
  endfacet
  facet normal 0.576486861 0.575575503 -0.579979086
    outer loop
      vertex 5.10343806 0.716324438 0.826024744
      vertex 5.04122865 0.713161815 0.761051312
      vertex 5.04069647 0.714182405 0.761535173
    endloop
  endfacet
  facet normal 0.697128755 0.0238003654 0.716550795
    outer loop
      vertex 5.10189484 0.714007692 0.827603085
      vertex 5.10397024 0.715303848 0.825540883
      vertex 5.10343806 0.716324438 0.826024744
    endloop
  endfacet
  facet normal -0.697128755 -0.0238003654 -0.716550795
    outer loop
      vertex 5.03915325 0.711865659 0.763113514
      vertex 5.04069647 0.714182405 0.761535173
      vertex 5.04122865 0.713161815 0.761051312
    endloop
  endfacet
  facet normal 0.695716642 0.21895614 -0.684131978
    outer loop
      vertex 5.10397024 0.715303848 0.825540883
      vertex 5.10418646 0.714085929 0.825370974
      vertex 5.04144488 0.711943896 0.760881402
    endloop
  endfacet
  facet normal 0.695716642 0.21895614 -0.684131978
    outer loop
      vertex 5.10397024 0.715303848 0.825540883
      vertex 5.04144488 0.711943896 0.760881402
      vertex 5.04122865 0.713161815 0.761051312
    endloop
  endfacet
  facet normal 0.697128755 0.0238003654 0.716550795
    outer loop
      vertex 5.10189484 0.714007692 0.827603085
      vertex 5.10418646 0.714085929 0.825370974
      vertex 5.10397024 0.715303848 0.825540883
    endloop
  endfacet
  facet normal -0.697128755 -0.0238003654 -0.716550795
    outer loop
      vertex 5.03915325 0.711865659 0.763113514
      vertex 5.04122865 0.713161815 0.761051312
      vertex 5.04144488 0.711943896 0.760881402
    endloop
  endfacet
  facet normal 0.70902987 -0.170997309 -0.684131978
    outer loop
      vertex 5.10418646 0.714085929 0.825370974
      vertex 5.10405381 0.7128561 0.825540883
      vertex 5.04131222 0.710714067 0.761051312
    endloop
  endfacet
  facet normal 0.70902987 -0.170997309 -0.684131978
    outer loop
      vertex 5.10418646 0.714085929 0.825370974
      vertex 5.04131222 0.710714067 0.761051312
      vertex 5.04144488 0.711943896 0.760881402
    endloop
  endfacet
  facet normal 0.697128755 0.0238003654 0.716550795
    outer loop
      vertex 5.10189484 0.714007692 0.827603085
      vertex 5.10405381 0.7128561 0.825540883
      vertex 5.10418646 0.714085929 0.825370974
    endloop
  endfacet
  facet normal -0.697128755 -0.0238003654 -0.716550795
    outer loop
      vertex 5.03915325 0.711865659 0.763113514
      vertex 5.04144488 0.711943896 0.760881402
      vertex 5.04131222 0.710714067 0.761051312
    endloop
  endfacet
  facet normal 0.614399729 -0.534917969 -0.579979086
    outer loop
      vertex 5.10405381 0.7128561 0.825540883
      vertex 5.10359247 0.71180159 0.826024744
      vertex 5.04085088 0.709659557 0.761535173
    endloop
  endfacet
  facet normal 0.614399729 -0.534917969 -0.579979086
    outer loop
      vertex 5.10405381 0.7128561 0.825540883
      vertex 5.04085088 0.709659557 0.761535173
      vertex 5.04131222 0.710714067 0.761051312
    endloop
  endfacet
  facet normal 0.697128755 0.0238003654 0.716550795
    outer loop
      vertex 5.10189484 0.714007692 0.827603085
      vertex 5.10359247 0.71180159 0.826024744
      vertex 5.10405381 0.7128561 0.825540883
    endloop
  endfacet
  facet normal -0.697128755 -0.0238003654 -0.716550795
    outer loop
      vertex 5.03915325 0.711865659 0.763113514
      vertex 5.04131222 0.710714067 0.761051312
      vertex 5.04085088 0.709659557 0.761535173
    endloop
  endfacet
  facet normal 0.426232798 -0.817402216 -0.387529636
    outer loop
      vertex 5.10359247 0.71180159 0.826024744
      vertex 5.10287268 0.711082939 0.826748893
      vertex 5.04013109 0.708940906 0.762259322
    endloop
  endfacet
  facet normal 0.426232798 -0.817402216 -0.387529636
    outer loop
      vertex 5.10359247 0.71180159 0.826024744
      vertex 5.04013109 0.708940906 0.762259322
      vertex 5.04085088 0.709659557 0.761535173
    endloop
  endfacet
  facet normal 0.697128755 0.0238003654 0.716550795
    outer loop
      vertex 5.10189484 0.714007692 0.827603085
      vertex 5.10287268 0.711082939 0.826748893
      vertex 5.10359247 0.71180159 0.826024744
    endloop
  endfacet
  facet normal -0.697128755 -0.0238003654 -0.716550795
    outer loop
      vertex 5.03915325 0.711865659 0.763113514
      vertex 5.04085088 0.709659557 0.761535173
      vertex 5.04013109 0.708940906 0.762259322
    endloop
  endfacet
  facet normal 0.173175787 -0.975444387 -0.136082311
    outer loop
      vertex 5.10287268 0.711082939 0.826748893
      vertex 5.10200402 0.710809555 0.827603085
      vertex 5.03926244 0.708667522 0.763113514
    endloop
  endfacet
  facet normal 0.173175787 -0.975444387 -0.136082311
    outer loop
      vertex 5.10287268 0.711082939 0.826748893
      vertex 5.03926244 0.708667522 0.763113514
      vertex 5.04013109 0.708940906 0.762259322
    endloop
  endfacet
  facet normal 0.697128755 0.0238003654 0.716550795
    outer loop
      vertex 5.10189484 0.714007692 0.827603085
      vertex 5.10200402 0.710809555 0.827603085
      vertex 5.10287268 0.711082939 0.826748893
    endloop
  endfacet
  facet normal -0.697128755 -0.0238003654 -0.716550795
    outer loop
      vertex 5.03915325 0.711865659 0.763113514
      vertex 5.04013109 0.708940906 0.762259322
      vertex 5.03926244 0.708667522 0.763113514
    endloop
  endfacet
  facet normal -0.106245667 -0.984983991 0.136082311
    outer loop
      vertex 5.10200402 0.710809555 0.827603085
      vertex 5.10111874 0.711023059 0.828457278
      vertex 5.03837716 0.708881026 0.763967706
    endloop
  endfacet
  facet normal -0.106245667 -0.984983991 0.136082311
    outer loop
      vertex 5.10200402 0.710809555 0.827603085
      vertex 5.03837716 0.708881026 0.763967706
      vertex 5.03926244 0.708667522 0.763113514
    endloop
  endfacet
  facet normal 0.697128755 0.0238003654 0.716550795
    outer loop
      vertex 5.10189484 0.714007692 0.827603085
      vertex 5.10111874 0.711023059 0.828457278
      vertex 5.10200402 0.710809555 0.827603085
    endloop
  endfacet
  facet normal -0.697128755 -0.0238003654 -0.716550795
    outer loop
      vertex 5.03915325 0.711865659 0.763113514
      vertex 5.03926244 0.708667522 0.763113514
      vertex 5.03837716 0.708881026 0.763967706
    endloop
  endfacet
  facet normal -0.369492181 -0.844568712 0.387529636
    outer loop
      vertex 5.10111874 0.711023059 0.828457278
      vertex 5.10035162 0.711690945 0.829181427
      vertex 5.03761003 0.709548913 0.764691855
    endloop
  endfacet
  facet normal -0.369492181 -0.844568712 0.387529636
    outer loop
      vertex 5.10111874 0.711023059 0.828457278
      vertex 5.03761003 0.709548913 0.764691855
      vertex 5.03837716 0.708881026 0.763967706
    endloop
  endfacet
  facet normal 0.697128755 0.0238003654 0.716550795
    outer loop
      vertex 5.10189484 0.714007692 0.827603085
      vertex 5.10035162 0.711690945 0.829181427
      vertex 5.10111874 0.711023059 0.828457278
    endloop
  endfacet
  facet normal -0.697128755 -0.0238003654 -0.716550795
    outer loop
      vertex 5.03915325 0.711865659 0.763113514
      vertex 5.03837716 0.708881026 0.763967706
      vertex 5.03761003 0.709548913 0.764691855
    endloop
  endfacet
  facet normal -0.576486861 -0.575575503 0.579979086
    outer loop
      vertex 5.10035162 0.711690945 0.829181427
      vertex 5.09981943 0.712711536 0.829665288
      vertex 5.03707785 0.710569503 0.765175716
    endloop
  endfacet
  facet normal -0.576486861 -0.575575503 0.579979086
    outer loop
      vertex 5.10035162 0.711690945 0.829181427
      vertex 5.03707785 0.710569503 0.765175716
      vertex 5.03761003 0.709548913 0.764691855
    endloop
  endfacet
  facet normal 0.697128755 0.0238003654 0.716550795
    outer loop
      vertex 5.10189484 0.714007692 0.827603085
      vertex 5.09981943 0.712711536 0.829665288
      vertex 5.10035162 0.711690945 0.829181427
    endloop
  endfacet
  facet normal -0.697128755 -0.0238003654 -0.716550795
    outer loop
      vertex 5.03915325 0.711865659 0.763113514
      vertex 5.03761003 0.709548913 0.764691855
      vertex 5.03707785 0.710569503 0.765175716
    endloop
  endfacet
  facet normal -0.695716642 -0.21895614 0.684131978
    outer loop
      vertex 5.09981943 0.712711536 0.829665288
      vertex 5.09960321 0.713929454 0.829835197
      vertex 5.03686162 0.711787421 0.765345626
    endloop
  endfacet
  facet normal -0.695716642 -0.21895614 0.684131978
    outer loop
      vertex 5.09981943 0.712711536 0.829665288
      vertex 5.03686162 0.711787421 0.765345626
      vertex 5.03707785 0.710569503 0.765175716
    endloop
  endfacet
  facet normal 0.697128755 0.0238003654 0.716550795
    outer loop
      vertex 5.10189484 0.714007692 0.827603085
      vertex 5.09960321 0.713929454 0.829835197
      vertex 5.09981943 0.712711536 0.829665288
    endloop
  endfacet
  facet normal -0.697128755 -0.0238003654 -0.716550795
    outer loop
      vertex 5.03915325 0.711865659 0.763113514
      vertex 5.03707785 0.710569503 0.765175716
      vertex 5.03686162 0.711787421 0.765345626
    endloop
  endfacet
  facet normal -0.70902987 0.170997309 0.684131978
    outer loop
      vertex 5.09960321 0.713929454 0.829835197
      vertex 5.09973587 0.715159284 0.829665288
      vertex 5.03699428 0.713017251 0.765175716
    endloop
  endfacet
  facet normal -0.70902987 0.170997309 0.684131978
    outer loop
      vertex 5.09960321 0.713929454 0.829835197
      vertex 5.03699428 0.713017251 0.765175716
      vertex 5.03686162 0.711787421 0.765345626
    endloop
  endfacet
  facet normal 0.697128755 0.0238003654 0.716550795
    outer loop
      vertex 5.10189484 0.714007692 0.827603085
      vertex 5.09973587 0.715159284 0.829665288
      vertex 5.09960321 0.713929454 0.829835197
    endloop
  endfacet
  facet normal -0.697128755 -0.0238003654 -0.716550795
    outer loop
      vertex 5.03915325 0.711865659 0.763113514
      vertex 5.03686162 0.711787421 0.765345626
      vertex 5.03699428 0.713017251 0.765175716
    endloop
  endfacet
  facet normal -0.614399729 0.534917969 0.579979086
    outer loop
      vertex 5.09973587 0.715159284 0.829665288
      vertex 5.10019721 0.716213794 0.829181427
      vertex 5.03745562 0.714071761 0.764691855
    endloop
  endfacet
  facet normal -0.614399729 0.534917969 0.579979086
    outer loop
      vertex 5.09973587 0.715159284 0.829665288
      vertex 5.03745562 0.714071761 0.764691855
      vertex 5.03699428 0.713017251 0.765175716
    endloop
  endfacet
  facet normal 0.697128755 0.0238003654 0.716550795
    outer loop
      vertex 5.10189484 0.714007692 0.827603085
      vertex 5.10019721 0.716213794 0.829181427
      vertex 5.09973587 0.715159284 0.829665288
    endloop
  endfacet
  facet normal -0.697128755 -0.0238003654 -0.716550795
    outer loop
      vertex 5.03915325 0.711865659 0.763113514
      vertex 5.03699428 0.713017251 0.765175716
      vertex 5.03745562 0.714071761 0.764691855
    endloop
  endfacet
  facet normal -0.426232798 0.817402216 0.387529636
    outer loop
      vertex 5.10019721 0.716213794 0.829181427
      vertex 5.10091699 0.716932445 0.828457278
      vertex 5.03817541 0.714790412 0.763967706
    endloop
  endfacet
  facet normal -0.426232798 0.817402216 0.387529636
    outer loop
      vertex 5.10019721 0.716213794 0.829181427
      vertex 5.03817541 0.714790412 0.763967706
      vertex 5.03745562 0.714071761 0.764691855
    endloop
  endfacet
  facet normal 0.697128755 0.0238003654 0.716550795
    outer loop
      vertex 5.10189484 0.714007692 0.827603085
      vertex 5.10091699 0.716932445 0.828457278
      vertex 5.10019721 0.716213794 0.829181427
    endloop
  endfacet
  facet normal -0.697128755 -0.0238003654 -0.716550795
    outer loop
      vertex 5.03915325 0.711865659 0.763113514
      vertex 5.03745562 0.714071761 0.764691855
      vertex 5.03817541 0.714790412 0.763967706
    endloop
  endfacet
  facet normal -0.173175787 0.975444387 0.136082311
    outer loop
      vertex 5.10091699 0.716932445 0.828457278
      vertex 5.10178565 0.717205829 0.827603085
      vertex 5.03904406 0.715063796 0.763113514
    endloop
  endfacet
  facet normal -0.173175787 0.975444387 0.136082311
    outer loop
      vertex 5.10091699 0.716932445 0.828457278
      vertex 5.03904406 0.715063796 0.763113514
      vertex 5.03817541 0.714790412 0.763967706
    endloop
  endfacet
  facet normal 0.697128755 0.0238003654 0.716550795
    outer loop
      vertex 5.10189484 0.714007692 0.827603085
      vertex 5.10178565 0.717205829 0.827603085
      vertex 5.10091699 0.716932445 0.828457278
    endloop
  endfacet
  facet normal -0.697128755 -0.0238003654 -0.716550795
    outer loop
      vertex 5.03915325 0.711865659 0.763113514
      vertex 5.03817541 0.714790412 0.763967706
      vertex 5.03904406 0.715063796 0.763113514
    endloop
  endfacet
  facet normal 0.130058946 0.981706236 -0.139059472
    outer loop
      vertex 4.95050568 0.437837964 1.01190034
      vertex 4.95136623 0.437600312 1.01102746
      vertex 4.87296061 0.437059198 0.933876531
    endloop
  endfacet
  facet normal 0.130058946 0.981706236 -0.139059472
    outer loop
      vertex 4.95050568 0.437837964 1.01190034
      vertex 4.87296061 0.437059198 0.933876531
      vertex 4.87210006 0.43729685 0.934749411
    endloop
  endfacet
  facet normal 0.712778364 0.00491922091 0.701372087
    outer loop
      vertex 4.95052777 0.43463804 1.01190034
      vertex 4.95136623 0.437600312 1.01102746
      vertex 4.95050568 0.437837964 1.01190034
    endloop
  endfacet
  facet normal -0.712778364 -0.00491922091 -0.701372087
    outer loop
      vertex 4.87212215 0.434096926 0.934749411
      vertex 4.87210006 0.43729685 0.934749411
      vertex 4.87296061 0.437059198 0.933876531
    endloop
  endfacet
  facet normal 0.383913946 0.834138986 -0.396007873
    outer loop
      vertex 4.95136623 0.437600312 1.01102746
      vertex 4.95209914 0.436911681 1.01028747
      vertex 4.87369352 0.436370567 0.933136539
    endloop
  endfacet
  facet normal 0.383913946 0.834138986 -0.396007873
    outer loop
      vertex 4.95136623 0.437600312 1.01102746
      vertex 4.87369352 0.436370567 0.933136539
      vertex 4.87296061 0.437059198 0.933876531
    endloop
  endfacet
  facet normal 0.712778364 0.00491922091 0.701372087
    outer loop
      vertex 4.95052777 0.43463804 1.01190034
      vertex 4.95209914 0.436911681 1.01028747
      vertex 4.95136623 0.437600312 1.01102746
    endloop
  endfacet
  facet normal -0.712778364 -0.00491922091 -0.701372087
    outer loop
      vertex 4.87212215 0.434096926 0.934749411
      vertex 4.87296061 0.437059198 0.933876531
      vertex 4.87369352 0.436370567 0.933136539
    endloop
  endfacet
  facet normal 0.579321528 0.559581636 -0.592667664
    outer loop
      vertex 4.95209914 0.436911681 1.01028747
      vertex 4.95259281 0.435876908 1.00979302
      vertex 4.87418719 0.435335794 0.932642092
    endloop
  endfacet
  facet normal 0.579321528 0.559581636 -0.592667664
    outer loop
      vertex 4.95209914 0.436911681 1.01028747
      vertex 4.87418719 0.435335794 0.932642092
      vertex 4.87369352 0.436370567 0.933136539
    endloop
  endfacet
  facet normal 0.712778364 0.00491922091 0.701372087
    outer loop
      vertex 4.95052777 0.43463804 1.01190034
      vertex 4.95259281 0.435876908 1.00979302
      vertex 4.95209914 0.436911681 1.01028747
    endloop
  endfacet
  facet normal -0.712778364 -0.00491922091 -0.701372087
    outer loop
      vertex 4.87212215 0.434096926 0.934749411
      vertex 4.87369352 0.436370567 0.933136539
      vertex 4.87418719 0.435335794 0.932642092
    endloop
  endfacet
  facet normal 0.686532659 0.199833055 -0.699099176
    outer loop
      vertex 4.95259281 0.435876908 1.00979302
      vertex 4.9527721 0.43465353 1.0096194
      vertex 4.87436648 0.434112415 0.932468465
    endloop
  endfacet
  facet normal 0.686532659 0.199833055 -0.699099176
    outer loop
      vertex 4.95259281 0.435876908 1.00979302
      vertex 4.87436648 0.434112415 0.932468465
      vertex 4.87418719 0.435335794 0.932642092
    endloop
  endfacet
  facet normal 0.712778364 0.00491922091 0.701372087
    outer loop
      vertex 4.95052777 0.43463804 1.01190034
      vertex 4.9527721 0.43465353 1.0096194
      vertex 4.95259281 0.435876908 1.00979302
    endloop
  endfacet
  facet normal -0.712778364 -0.00491922091 -0.701372087
    outer loop
      vertex 4.87212215 0.434096926 0.934749411
      vertex 4.87418719 0.435335794 0.932642092
      vertex 4.87436648 0.434112415 0.932468465
    endloop
  endfacet
  facet normal 0.689225416 -0.190338297 -0.699099176
    outer loop
      vertex 4.9527721 0.43465353 1.0096194
      vertex 4.95260971 0.433427793 1.00979302
      vertex 4.87420409 0.432886679 0.932642092
    endloop
  endfacet
  facet normal 0.689225416 -0.190338297 -0.699099176
    outer loop
      vertex 4.9527721 0.43465353 1.0096194
      vertex 4.87420409 0.432886679 0.932642092
      vertex 4.87436648 0.434112415 0.932468465
    endloop
  endfacet
  facet normal 0.712778364 0.00491922091 0.701372087
    outer loop
      vertex 4.95052777 0.43463804 1.01190034
      vertex 4.95260971 0.433427793 1.00979302
      vertex 4.9527721 0.43465353 1.0096194
    endloop
  endfacet
  facet normal -0.712778364 -0.00491922091 -0.701372087
    outer loop
      vertex 4.87212215 0.434096926 0.934749411
      vertex 4.87436648 0.434112415 0.932468465
      vertex 4.87420409 0.432886679 0.932642092
    endloop
  endfacet
  facet normal 0.586989852 -0.551532369 -0.592667664
    outer loop
      vertex 4.95260971 0.433427793 1.00979302
      vertex 4.95213037 0.432386305 1.01028747
      vertex 4.87372475 0.431845191 0.933136539
    endloop
  endfacet
  facet normal 0.586989852 -0.551532369 -0.592667664
    outer loop
      vertex 4.95260971 0.433427793 1.00979302
      vertex 4.87372475 0.431845191 0.933136539
      vertex 4.87420409 0.432886679 0.932642092
    endloop
  endfacet
  facet normal 0.712778364 0.00491922091 0.701372087
    outer loop
      vertex 4.95052777 0.43463804 1.01190034
      vertex 4.95213037 0.432386305 1.01028747
      vertex 4.95260971 0.433427793 1.00979302
    endloop
  endfacet
  facet normal -0.712778364 -0.00491922091 -0.701372087
    outer loop
      vertex 4.87212215 0.434096926 0.934749411
      vertex 4.87420409 0.432886679 0.932642092
      vertex 4.87372475 0.431845191 0.933136539
    endloop
  endfacet
  facet normal 0.395390403 -0.828760637 -0.396007873
    outer loop
      vertex 4.95213037 0.432386305 1.01028747
      vertex 4.95140704 0.431687624 1.01102746
      vertex 4.87300142 0.43114651 0.933876531
    endloop
  endfacet
  facet normal 0.395390403 -0.828760637 -0.396007873
    outer loop
      vertex 4.95213037 0.432386305 1.01028747
      vertex 4.87300142 0.43114651 0.933876531
      vertex 4.87372475 0.431845191 0.933136539
    endloop
  endfacet
  facet normal 0.712778364 0.00491922091 0.701372087
    outer loop
      vertex 4.95052777 0.43463804 1.01190034
      vertex 4.95140704 0.431687624 1.01102746
      vertex 4.95213037 0.432386305 1.01028747
    endloop
  endfacet
  facet normal -0.712778364 -0.00491922091 -0.701372087
    outer loop
      vertex 4.87212215 0.434096926 0.934749411
      vertex 4.87372475 0.431845191 0.933136539
      vertex 4.87300142 0.43114651 0.933876531
    endloop
  endfacet
  facet normal 0.14359635 -0.979817611 -0.139059472
    outer loop
      vertex 4.95140704 0.431687624 1.01102746
      vertex 4.95054985 0.431438117 1.01190034
      vertex 4.87214423 0.430897002 0.934749411
    endloop
  endfacet
  facet normal 0.14359635 -0.979817611 -0.139059472
    outer loop
      vertex 4.95140704 0.431687624 1.01102746
      vertex 4.87214423 0.430897002 0.934749411
      vertex 4.87300142 0.43114651 0.933876531
    endloop
  endfacet
  facet normal 0.712778364 0.00491922091 0.701372087
    outer loop
      vertex 4.95052777 0.43463804 1.01190034
      vertex 4.95054985 0.431438117 1.01190034
      vertex 4.95140704 0.431687624 1.01102746
    endloop
  endfacet
  facet normal -0.712778364 -0.00491922091 -0.701372087
    outer loop
      vertex 4.87212215 0.434096926 0.934749411
      vertex 4.87300142 0.43114651 0.933876531
      vertex 4.87214423 0.430897002 0.934749411
    endloop
  endfacet
  facet normal -0.130058946 -0.981706236 0.139059472
    outer loop
      vertex 4.95054985 0.431438117 1.01190034
      vertex 4.9496893 0.431675769 1.01277322
      vertex 4.87128368 0.431134655 0.93562229
    endloop
  endfacet
  facet normal -0.130058946 -0.981706236 0.139059472
    outer loop
      vertex 4.95054985 0.431438117 1.01190034
      vertex 4.87128368 0.431134655 0.93562229
      vertex 4.87214423 0.430897002 0.934749411
    endloop
  endfacet
  facet normal 0.712778364 0.00491922091 0.701372087
    outer loop
      vertex 4.95052777 0.43463804 1.01190034
      vertex 4.9496893 0.431675769 1.01277322
      vertex 4.95054985 0.431438117 1.01190034
    endloop
  endfacet
  facet normal -0.712778364 -0.00491922091 -0.701372087
    outer loop
      vertex 4.87212215 0.434096926 0.934749411
      vertex 4.87214423 0.430897002 0.934749411
      vertex 4.87128368 0.431134655 0.93562229
    endloop
  endfacet
  facet normal -0.383913946 -0.834138986 0.396007873
    outer loop
      vertex 4.9496893 0.431675769 1.01277322
      vertex 4.94895639 0.4323644 1.01351321
      vertex 4.87055077 0.431823286 0.936362282
    endloop
  endfacet
  facet normal -0.383913946 -0.834138986 0.396007873
    outer loop
      vertex 4.9496893 0.431675769 1.01277322
      vertex 4.87055077 0.431823286 0.936362282
      vertex 4.87128368 0.431134655 0.93562229
    endloop
  endfacet
  facet normal 0.712778364 0.00491922091 0.701372087
    outer loop
      vertex 4.95052777 0.43463804 1.01190034
      vertex 4.94895639 0.4323644 1.01351321
      vertex 4.9496893 0.431675769 1.01277322
    endloop
  endfacet
  facet normal -0.712778364 -0.00491922091 -0.701372087
    outer loop
      vertex 4.87212215 0.434096926 0.934749411
      vertex 4.87128368 0.431134655 0.93562229
      vertex 4.87055077 0.431823286 0.936362282
    endloop
  endfacet
  facet normal -0.579321528 -0.559581636 0.592667664
    outer loop
      vertex 4.94895639 0.4323644 1.01351321
      vertex 4.94846272 0.433399172 1.01400766
      vertex 4.8700571 0.432858058 0.936856729
    endloop
  endfacet
  facet normal -0.579321528 -0.559581636 0.592667664
    outer loop
      vertex 4.94895639 0.4323644 1.01351321
      vertex 4.8700571 0.432858058 0.936856729
      vertex 4.87055077 0.431823286 0.936362282
    endloop
  endfacet
  facet normal 0.712778364 0.00491922091 0.701372087
    outer loop
      vertex 4.95052777 0.43463804 1.01190034
      vertex 4.94846272 0.433399172 1.01400766
      vertex 4.94895639 0.4323644 1.01351321
    endloop
  endfacet
  facet normal -0.712778364 -0.00491922091 -0.701372087
    outer loop
      vertex 4.87212215 0.434096926 0.934749411
      vertex 4.87055077 0.431823286 0.936362282
      vertex 4.8700571 0.432858058 0.936856729
    endloop
  endfacet
  facet normal -0.686532659 -0.199833055 0.699099176
    outer loop
      vertex 4.94846272 0.433399172 1.01400766
      vertex 4.94828343 0.434622551 1.01418129
      vertex 4.86987781 0.434081437 0.937030356
    endloop
  endfacet
  facet normal -0.686532659 -0.199833055 0.699099176
    outer loop
      vertex 4.94846272 0.433399172 1.01400766
      vertex 4.86987781 0.434081437 0.937030356
      vertex 4.8700571 0.432858058 0.936856729
    endloop
  endfacet
  facet normal 0.712778364 0.00491922091 0.701372087
    outer loop
      vertex 4.95052777 0.43463804 1.01190034
      vertex 4.94828343 0.434622551 1.01418129
      vertex 4.94846272 0.433399172 1.01400766
    endloop
  endfacet
  facet normal -0.712778364 -0.00491922091 -0.701372087
    outer loop
      vertex 4.87212215 0.434096926 0.934749411
      vertex 4.8700571 0.432858058 0.936856729
      vertex 4.86987781 0.434081437 0.937030356
    endloop
  endfacet
  facet normal -0.689225416 0.190338297 0.699099176
    outer loop
      vertex 4.94828343 0.434622551 1.01418129
      vertex 4.94844582 0.435848288 1.01400766
      vertex 4.8700402 0.435307174 0.936856729
    endloop
  endfacet
  facet normal -0.689225416 0.190338297 0.699099176
    outer loop
      vertex 4.94828343 0.434622551 1.01418129
      vertex 4.8700402 0.435307174 0.936856729
      vertex 4.86987781 0.434081437 0.937030356
    endloop
  endfacet
  facet normal 0.712778364 0.00491922091 0.701372087
    outer loop
      vertex 4.95052777 0.43463804 1.01190034
      vertex 4.94844582 0.435848288 1.01400766
      vertex 4.94828343 0.434622551 1.01418129
    endloop
  endfacet
  facet normal -0.712778364 -0.00491922091 -0.701372087
    outer loop
      vertex 4.87212215 0.434096926 0.934749411
      vertex 4.86987781 0.434081437 0.937030356
      vertex 4.8700402 0.435307174 0.936856729
    endloop
  endfacet
  facet normal -0.586989852 0.551532369 0.592667664
    outer loop
      vertex 4.94844582 0.435848288 1.01400766
      vertex 4.94892516 0.436889776 1.01351321
      vertex 4.87051954 0.436348661 0.936362282
    endloop
  endfacet
  facet normal -0.586989852 0.551532369 0.592667664
    outer loop
      vertex 4.94844582 0.435848288 1.01400766
      vertex 4.87051954 0.436348661 0.936362282
      vertex 4.8700402 0.435307174 0.936856729
    endloop
  endfacet
  facet normal 0.712778364 0.00491922091 0.701372087
    outer loop
      vertex 4.95052777 0.43463804 1.01190034
      vertex 4.94892516 0.436889776 1.01351321
      vertex 4.94844582 0.435848288 1.01400766
    endloop
  endfacet
  facet normal -0.712778364 -0.00491922091 -0.701372087
    outer loop
      vertex 4.87212215 0.434096926 0.934749411
      vertex 4.8700402 0.435307174 0.936856729
      vertex 4.87051954 0.436348661 0.936362282
    endloop
  endfacet
  facet normal -0.395390403 0.828760637 0.396007873
    outer loop
      vertex 4.94892516 0.436889776 1.01351321
      vertex 4.94964849 0.437588457 1.01277322
      vertex 4.87124287 0.437047343 0.93562229
    endloop
  endfacet
  facet normal -0.395390403 0.828760637 0.396007873
    outer loop
      vertex 4.94892516 0.436889776 1.01351321
      vertex 4.87124287 0.437047343 0.93562229
      vertex 4.87051954 0.436348661 0.936362282
    endloop
  endfacet
  facet normal 0.712778364 0.00491922091 0.701372087
    outer loop
      vertex 4.95052777 0.43463804 1.01190034
      vertex 4.94964849 0.437588457 1.01277322
      vertex 4.94892516 0.436889776 1.01351321
    endloop
  endfacet
  facet normal -0.712778364 -0.00491922091 -0.701372087
    outer loop
      vertex 4.87212215 0.434096926 0.934749411
      vertex 4.87051954 0.436348661 0.936362282
      vertex 4.87124287 0.437047343 0.93562229
    endloop
  endfacet
  facet normal -0.14359635 0.979817611 0.139059472
    outer loop
      vertex 4.94964849 0.437588457 1.01277322
      vertex 4.95050568 0.437837964 1.01190034
      vertex 4.87210006 0.43729685 0.934749411
    endloop
  endfacet
  facet normal -0.14359635 0.979817611 0.139059472
    outer loop
      vertex 4.94964849 0.437588457 1.01277322
      vertex 4.87210006 0.43729685 0.934749411
      vertex 4.87124287 0.437047343 0.93562229
    endloop
  endfacet
  facet normal 0.712778364 0.00491922091 0.701372087
    outer loop
      vertex 4.95052777 0.43463804 1.01190034
      vertex 4.95050568 0.437837964 1.01190034
      vertex 4.94964849 0.437588457 1.01277322
    endloop
  endfacet
  facet normal -0.712778364 -0.00491922091 -0.701372087
    outer loop
      vertex 4.87212215 0.434096926 0.934749411
      vertex 4.87124287 0.437047343 0.93562229
      vertex 4.87210006 0.43729685 0.934749411
    endloop
  endfacet
  facet normal 0.130058946 0.981706236 -0.139059472
    outer loop
      vertex 4.94149295 0.465010241 1.02086907
      vertex 4.9423535 0.464772588 1.01999619
      vertex 4.86394788 0.464231474 0.942845257
    endloop
  endfacet
  facet normal 0.130058946 0.981706236 -0.139059472
    outer loop
      vertex 4.94149295 0.465010241 1.02086907
      vertex 4.86394788 0.464231474 0.942845257
      vertex 4.86308733 0.464469126 0.943718137
    endloop
  endfacet
  facet normal 0.712778364 0.00491922091 0.701372087
    outer loop
      vertex 4.94151503 0.461810317 1.02086907
      vertex 4.9423535 0.464772588 1.01999619
      vertex 4.94149295 0.465010241 1.02086907
    endloop
  endfacet
  facet normal -0.712778364 -0.00491922091 -0.701372087
    outer loop
      vertex 4.86310941 0.461269203 0.943718137
      vertex 4.86308733 0.464469126 0.943718137
      vertex 4.86394788 0.464231474 0.942845257
    endloop
  endfacet
  facet normal 0.383913946 0.834138986 -0.396007873
    outer loop
      vertex 4.9423535 0.464772588 1.01999619
      vertex 4.9430864 0.464083957 1.01925619
      vertex 4.86468078 0.463542843 0.942105265
    endloop
  endfacet
  facet normal 0.383913946 0.834138986 -0.396007873
    outer loop
      vertex 4.9423535 0.464772588 1.01999619
      vertex 4.86468078 0.463542843 0.942105265
      vertex 4.86394788 0.464231474 0.942845257
    endloop
  endfacet
  facet normal 0.712778364 0.00491922091 0.701372087
    outer loop
      vertex 4.94151503 0.461810317 1.02086907
      vertex 4.9430864 0.464083957 1.01925619
      vertex 4.9423535 0.464772588 1.01999619
    endloop
  endfacet
  facet normal -0.712778364 -0.00491922091 -0.701372087
    outer loop
      vertex 4.86310941 0.461269203 0.943718137
      vertex 4.86394788 0.464231474 0.942845257
      vertex 4.86468078 0.463542843 0.942105265
    endloop
  endfacet
  facet normal 0.579321528 0.559581636 -0.592667664
    outer loop
      vertex 4.9430864 0.464083957 1.01925619
      vertex 4.94358008 0.463049185 1.01876175
      vertex 4.86517446 0.462508071 0.941610818
    endloop
  endfacet
  facet normal 0.579321528 0.559581636 -0.592667664
    outer loop
      vertex 4.9430864 0.464083957 1.01925619
      vertex 4.86517446 0.462508071 0.941610818
      vertex 4.86468078 0.463542843 0.942105265
    endloop
  endfacet
  facet normal 0.712778364 0.00491922091 0.701372087
    outer loop
      vertex 4.94151503 0.461810317 1.02086907
      vertex 4.94358008 0.463049185 1.01876175
      vertex 4.9430864 0.464083957 1.01925619
    endloop
  endfacet
  facet normal -0.712778364 -0.00491922091 -0.701372087
    outer loop
      vertex 4.86310941 0.461269203 0.943718137
      vertex 4.86468078 0.463542843 0.942105265
      vertex 4.86517446 0.462508071 0.941610818
    endloop
  endfacet
  facet normal 0.686532659 0.199833055 -0.699099176
    outer loop
      vertex 4.94358008 0.463049185 1.01876175
      vertex 4.94375937 0.461825806 1.01858812
      vertex 4.86535375 0.461284692 0.941437192
    endloop
  endfacet
  facet normal 0.686532659 0.199833055 -0.699099176
    outer loop
      vertex 4.94358008 0.463049185 1.01876175
      vertex 4.86535375 0.461284692 0.941437192
      vertex 4.86517446 0.462508071 0.941610818
    endloop
  endfacet
  facet normal 0.712778364 0.00491922091 0.701372087
    outer loop
      vertex 4.94151503 0.461810317 1.02086907
      vertex 4.94375937 0.461825806 1.01858812
      vertex 4.94358008 0.463049185 1.01876175
    endloop
  endfacet
  facet normal -0.712778364 -0.00491922091 -0.701372087
    outer loop
      vertex 4.86310941 0.461269203 0.943718137
      vertex 4.86517446 0.462508071 0.941610818
      vertex 4.86535375 0.461284692 0.941437192
    endloop
  endfacet
  facet normal 0.689225416 -0.190338297 -0.699099176
    outer loop
      vertex 4.94375937 0.461825806 1.01858812
      vertex 4.94359698 0.460600069 1.01876175
      vertex 4.86519136 0.460058955 0.941610818
    endloop
  endfacet
  facet normal 0.689225416 -0.190338297 -0.699099176
    outer loop
      vertex 4.94375937 0.461825806 1.01858812
      vertex 4.86519136 0.460058955 0.941610818
      vertex 4.86535375 0.461284692 0.941437192
    endloop
  endfacet
  facet normal 0.712778364 0.00491922091 0.701372087
    outer loop
      vertex 4.94151503 0.461810317 1.02086907
      vertex 4.94359698 0.460600069 1.01876175
      vertex 4.94375937 0.461825806 1.01858812
    endloop
  endfacet
  facet normal -0.712778364 -0.00491922091 -0.701372087
    outer loop
      vertex 4.86310941 0.461269203 0.943718137
      vertex 4.86535375 0.461284692 0.941437192
      vertex 4.86519136 0.460058955 0.941610818
    endloop
  endfacet
  facet normal 0.586989852 -0.551532369 -0.592667664
    outer loop
      vertex 4.94359698 0.460600069 1.01876175
      vertex 4.94311763 0.459558582 1.01925619
      vertex 4.86471201 0.459017467 0.942105265
    endloop
  endfacet
  facet normal 0.586989852 -0.551532369 -0.592667664
    outer loop
      vertex 4.94359698 0.460600069 1.01876175
      vertex 4.86471201 0.459017467 0.942105265
      vertex 4.86519136 0.460058955 0.941610818
    endloop
  endfacet
  facet normal 0.712778364 0.00491922091 0.701372087
    outer loop
      vertex 4.94151503 0.461810317 1.02086907
      vertex 4.94311763 0.459558582 1.01925619
      vertex 4.94359698 0.460600069 1.01876175
    endloop
  endfacet
  facet normal -0.712778364 -0.00491922091 -0.701372087
    outer loop
      vertex 4.86310941 0.461269203 0.943718137
      vertex 4.86519136 0.460058955 0.941610818
      vertex 4.86471201 0.459017467 0.942105265
    endloop
  endfacet
  facet normal 0.395390403 -0.828760637 -0.396007873
    outer loop
      vertex 4.94311763 0.459558582 1.01925619
      vertex 4.94239431 0.4588599 1.01999619
      vertex 4.86398869 0.458318786 0.942845257
    endloop
  endfacet
  facet normal 0.395390403 -0.828760637 -0.396007873
    outer loop
      vertex 4.94311763 0.459558582 1.01925619
      vertex 4.86398869 0.458318786 0.942845257
      vertex 4.86471201 0.459017467 0.942105265
    endloop
  endfacet
  facet normal 0.712778364 0.00491922091 0.701372087
    outer loop
      vertex 4.94151503 0.461810317 1.02086907
      vertex 4.94239431 0.4588599 1.01999619
      vertex 4.94311763 0.459558582 1.01925619
    endloop
  endfacet
  facet normal -0.712778364 -0.00491922091 -0.701372087
    outer loop
      vertex 4.86310941 0.461269203 0.943718137
      vertex 4.86471201 0.459017467 0.942105265
      vertex 4.86398869 0.458318786 0.942845257
    endloop
  endfacet
  facet normal 0.14359635 -0.979817611 -0.139059472
    outer loop
      vertex 4.94239431 0.4588599 1.01999619
      vertex 4.94153712 0.458610393 1.02086907
      vertex 4.8631315 0.458069279 0.943718137
    endloop
  endfacet
  facet normal 0.14359635 -0.979817611 -0.139059472
    outer loop
      vertex 4.94239431 0.4588599 1.01999619
      vertex 4.8631315 0.458069279 0.943718137
      vertex 4.86398869 0.458318786 0.942845257
    endloop
  endfacet
  facet normal 0.712778364 0.00491922091 0.701372087
    outer loop
      vertex 4.94151503 0.461810317 1.02086907
      vertex 4.94153712 0.458610393 1.02086907
      vertex 4.94239431 0.4588599 1.01999619
    endloop
  endfacet
  facet normal -0.712778364 -0.00491922091 -0.701372087
    outer loop
      vertex 4.86310941 0.461269203 0.943718137
      vertex 4.86398869 0.458318786 0.942845257
      vertex 4.8631315 0.458069279 0.943718137
    endloop
  endfacet
  facet normal -0.130058946 -0.981706236 0.139059472
    outer loop
      vertex 4.94153712 0.458610393 1.02086907
      vertex 4.94067657 0.458848045 1.02174195
      vertex 4.86227095 0.458306931 0.944591017
    endloop
  endfacet
  facet normal -0.130058946 -0.981706236 0.139059472
    outer loop
      vertex 4.94153712 0.458610393 1.02086907
      vertex 4.86227095 0.458306931 0.944591017
      vertex 4.8631315 0.458069279 0.943718137
    endloop
  endfacet
  facet normal 0.712778364 0.00491922091 0.701372087
    outer loop
      vertex 4.94151503 0.461810317 1.02086907
      vertex 4.94067657 0.458848045 1.02174195
      vertex 4.94153712 0.458610393 1.02086907
    endloop
  endfacet
  facet normal -0.712778364 -0.00491922091 -0.701372087
    outer loop
      vertex 4.86310941 0.461269203 0.943718137
      vertex 4.8631315 0.458069279 0.943718137
      vertex 4.86227095 0.458306931 0.944591017
    endloop
  endfacet
  facet normal -0.383913946 -0.834138986 0.396007873
    outer loop
      vertex 4.94067657 0.458848045 1.02174195
      vertex 4.93994366 0.459536676 1.02248194
      vertex 4.86153804 0.458995562 0.945331008
    endloop
  endfacet
  facet normal -0.383913946 -0.834138986 0.396007873
    outer loop
      vertex 4.94067657 0.458848045 1.02174195
      vertex 4.86153804 0.458995562 0.945331008
      vertex 4.86227095 0.458306931 0.944591017
    endloop
  endfacet
  facet normal 0.712778364 0.00491922091 0.701372087
    outer loop
      vertex 4.94151503 0.461810317 1.02086907
      vertex 4.93994366 0.459536676 1.02248194
      vertex 4.94067657 0.458848045 1.02174195
    endloop
  endfacet
  facet normal -0.712778364 -0.00491922091 -0.701372087
    outer loop
      vertex 4.86310941 0.461269203 0.943718137
      vertex 4.86227095 0.458306931 0.944591017
      vertex 4.86153804 0.458995562 0.945331008
    endloop
  endfacet
  facet normal -0.579321528 -0.559581636 0.592667664
    outer loop
      vertex 4.93994366 0.459536676 1.02248194
      vertex 4.93944999 0.460571449 1.02297638
      vertex 4.86104437 0.460030335 0.945825455
    endloop
  endfacet
  facet normal -0.579321528 -0.559581636 0.592667664
    outer loop
      vertex 4.93994366 0.459536676 1.02248194
      vertex 4.86104437 0.460030335 0.945825455
      vertex 4.86153804 0.458995562 0.945331008
    endloop
  endfacet
  facet normal 0.712778364 0.00491922091 0.701372087
    outer loop
      vertex 4.94151503 0.461810317 1.02086907
      vertex 4.93944999 0.460571449 1.02297638
      vertex 4.93994366 0.459536676 1.02248194
    endloop
  endfacet
  facet normal -0.712778364 -0.00491922091 -0.701372087
    outer loop
      vertex 4.86310941 0.461269203 0.943718137
      vertex 4.86153804 0.458995562 0.945331008
      vertex 4.86104437 0.460030335 0.945825455
    endloop
  endfacet
  facet normal -0.686532659 -0.199833055 0.699099176
    outer loop
      vertex 4.93944999 0.460571449 1.02297638
      vertex 4.9392707 0.461794828 1.02315001
      vertex 4.86086508 0.461253713 0.945999082
    endloop
  endfacet
  facet normal -0.686532659 -0.199833055 0.699099176
    outer loop
      vertex 4.93944999 0.460571449 1.02297638
      vertex 4.86086508 0.461253713 0.945999082
      vertex 4.86104437 0.460030335 0.945825455
    endloop
  endfacet
  facet normal 0.712778364 0.00491922091 0.701372087
    outer loop
      vertex 4.94151503 0.461810317 1.02086907
      vertex 4.9392707 0.461794828 1.02315001
      vertex 4.93944999 0.460571449 1.02297638
    endloop
  endfacet
  facet normal -0.712778364 -0.00491922091 -0.701372087
    outer loop
      vertex 4.86310941 0.461269203 0.943718137
      vertex 4.86104437 0.460030335 0.945825455
      vertex 4.86086508 0.461253713 0.945999082
    endloop
  endfacet
  facet normal -0.689225416 0.190338297 0.699099176
    outer loop
      vertex 4.9392707 0.461794828 1.02315001
      vertex 4.93943308 0.463020564 1.02297638
      vertex 4.86102746 0.46247945 0.945825455
    endloop
  endfacet
  facet normal -0.689225416 0.190338297 0.699099176
    outer loop
      vertex 4.9392707 0.461794828 1.02315001
      vertex 4.86102746 0.46247945 0.945825455
      vertex 4.86086508 0.461253713 0.945999082
    endloop
  endfacet
  facet normal 0.712778364 0.00491922091 0.701372087
    outer loop
      vertex 4.94151503 0.461810317 1.02086907
      vertex 4.93943308 0.463020564 1.02297638
      vertex 4.9392707 0.461794828 1.02315001
    endloop
  endfacet
  facet normal -0.712778364 -0.00491922091 -0.701372087
    outer loop
      vertex 4.86310941 0.461269203 0.943718137
      vertex 4.86086508 0.461253713 0.945999082
      vertex 4.86102746 0.46247945 0.945825455
    endloop
  endfacet
  facet normal -0.586989852 0.551532369 0.592667664
    outer loop
      vertex 4.93943308 0.463020564 1.02297638
      vertex 4.93991243 0.464062052 1.02248194
      vertex 4.86150681 0.463520938 0.945331008
    endloop
  endfacet
  facet normal -0.586989852 0.551532369 0.592667664
    outer loop
      vertex 4.93943308 0.463020564 1.02297638
      vertex 4.86150681 0.463520938 0.945331008
      vertex 4.86102746 0.46247945 0.945825455
    endloop
  endfacet
  facet normal 0.712778364 0.00491922091 0.701372087
    outer loop
      vertex 4.94151503 0.461810317 1.02086907
      vertex 4.93991243 0.464062052 1.02248194
      vertex 4.93943308 0.463020564 1.02297638
    endloop
  endfacet
  facet normal -0.712778364 -0.00491922091 -0.701372087
    outer loop
      vertex 4.86310941 0.461269203 0.943718137
      vertex 4.86102746 0.46247945 0.945825455
      vertex 4.86150681 0.463520938 0.945331008
    endloop
  endfacet
  facet normal -0.395390403 0.828760637 0.396007873
    outer loop
      vertex 4.93991243 0.464062052 1.02248194
      vertex 4.94063576 0.464760733 1.02174195
      vertex 4.86223014 0.464219619 0.944591017
    endloop
  endfacet
  facet normal -0.395390403 0.828760637 0.396007873
    outer loop
      vertex 4.93991243 0.464062052 1.02248194
      vertex 4.86223014 0.464219619 0.944591017
      vertex 4.86150681 0.463520938 0.945331008
    endloop
  endfacet
  facet normal 0.712778364 0.00491922091 0.701372087
    outer loop
      vertex 4.94151503 0.461810317 1.02086907
      vertex 4.94063576 0.464760733 1.02174195
      vertex 4.93991243 0.464062052 1.02248194
    endloop
  endfacet
  facet normal -0.712778364 -0.00491922091 -0.701372087
    outer loop
      vertex 4.86310941 0.461269203 0.943718137
      vertex 4.86150681 0.463520938 0.945331008
      vertex 4.86223014 0.464219619 0.944591017
    endloop
  endfacet
  facet normal -0.14359635 0.979817611 0.139059472
    outer loop
      vertex 4.94063576 0.464760733 1.02174195
      vertex 4.94149295 0.465010241 1.02086907
      vertex 4.86308733 0.464469126 0.943718137
    endloop
  endfacet
  facet normal -0.14359635 0.979817611 0.139059472
    outer loop
      vertex 4.94063576 0.464760733 1.02174195
      vertex 4.86308733 0.464469126 0.943718137
      vertex 4.86223014 0.464219619 0.944591017
    endloop
  endfacet
  facet normal 0.712778364 0.00491922091 0.701372087
    outer loop
      vertex 4.94151503 0.461810317 1.02086907
      vertex 4.94149295 0.465010241 1.02086907
      vertex 4.94063576 0.464760733 1.02174195
    endloop
  endfacet
  facet normal -0.712778364 -0.00491922091 -0.701372087
    outer loop
      vertex 4.86310941 0.461269203 0.943718137
      vertex 4.86223014 0.464219619 0.944591017
      vertex 4.86308733 0.464469126 0.943718137
    endloop
  endfacet
  facet normal 0.80986464 0.558254084 -0.180198899
    outer loop
      vertex 4.98367387 0.507286146 0.909810084
      vertex 4.9832272 0.50756902 0.90867897
      vertex 4.91349088 0.627289729 0.966157636
    endloop
  endfacet
  facet normal 0.80986464 0.558254084 -0.180198899
    outer loop
      vertex 4.98367387 0.507286146 0.909810084
      vertex 4.91349088 0.627289729 0.966157636
      vertex 4.91393755 0.627006855 0.967288749
    endloop
  endfacet
  facet normal 0.464908823 -0.798138061 -0.383191103
    outer loop
      vertex 4.98090877 0.505675495 0.909810084
      vertex 4.9832272 0.50756902 0.90867897
      vertex 4.98367387 0.507286146 0.909810084
    endloop
  endfacet
  facet normal -0.464908823 0.798138061 0.383191103
    outer loop
      vertex 4.91117244 0.625396204 0.967288749
      vertex 4.91393755 0.627006855 0.967288749
      vertex 4.91349088 0.627289729 0.966157636
    endloop
  endfacet
  facet normal 0.611315582 0.602459081 -0.513163049
    outer loop
      vertex 4.9832272 0.50756902 0.90867897
      vertex 4.98242757 0.507563622 0.907720059
      vertex 4.91269125 0.627284331 0.965198724
    endloop
  endfacet
  facet normal 0.611315582 0.602459081 -0.513163049
    outer loop
      vertex 4.9832272 0.50756902 0.90867897
      vertex 4.91269125 0.627284331 0.965198724
      vertex 4.91349088 0.627289729 0.966157636
    endloop
  endfacet
  facet normal 0.464908823 -0.798138061 -0.383191103
    outer loop
      vertex 4.98090877 0.505675495 0.909810084
      vertex 4.98242757 0.507563622 0.907720059
      vertex 4.9832272 0.50756902 0.90867897
    endloop
  endfacet
  facet normal -0.464908823 0.798138061 0.383191103
    outer loop
      vertex 4.91117244 0.625396204 0.967288749
      vertex 4.91349088 0.627289729 0.966157636
      vertex 4.91269125 0.627284331 0.965198724
    endloop
  endfacet
  facet normal 0.319699269 0.554945145 -0.768002776
    outer loop
      vertex 4.98242757 0.507563622 0.907720059
      vertex 4.98139672 0.507270774 0.907079335
      vertex 4.9116604 0.626991483 0.964558
    endloop
  endfacet
  facet normal 0.319699269 0.554945145 -0.768002776
    outer loop
      vertex 4.98242757 0.507563622 0.907720059
      vertex 4.9116604 0.626991483 0.964558
      vertex 4.91269125 0.627284331 0.965198724
    endloop
  endfacet
  facet normal 0.464908823 -0.798138061 -0.383191103
    outer loop
      vertex 4.98090877 0.505675495 0.909810084
      vertex 4.98139672 0.507270774 0.907079335
      vertex 4.98242757 0.507563622 0.907720059
    endloop
  endfacet
  facet normal -0.464908823 0.798138061 0.383191103
    outer loop
      vertex 4.91117244 0.625396204 0.967288749
      vertex 4.91269125 0.627284331 0.965198724
      vertex 4.9116604 0.626991483 0.964558
    endloop
  endfacet
  facet normal -0.0205883603 0.422945841 -0.905921042
    outer loop
      vertex 4.98139672 0.507270774 0.907079335
      vertex 4.98029158 0.506735059 0.906854343
      vertex 4.91055526 0.626455768 0.964333008
    endloop
  endfacet
  facet normal -0.0205883603 0.422945841 -0.905921042
    outer loop
      vertex 4.98139672 0.507270774 0.907079335
      vertex 4.91055526 0.626455768 0.964333008
      vertex 4.9116604 0.626991483 0.964558
    endloop
  endfacet
  facet normal 0.464908823 -0.798138061 -0.383191103
    outer loop
      vertex 4.98090877 0.505675495 0.909810084
      vertex 4.98029158 0.506735059 0.906854343
      vertex 4.98139672 0.507270774 0.907079335
    endloop
  endfacet
  facet normal -0.464908823 0.798138061 0.383191103
    outer loop
      vertex 4.91117244 0.625396204 0.967288749
      vertex 4.9116604 0.626991483 0.964558
      vertex 4.91055526 0.626455768 0.964333008
    endloop
  endfacet
  facet normal -0.357741598 0.226556867 -0.905921042
    outer loop
      vertex 4.98029158 0.506735059 0.906854343
      vertex 4.9792804 0.506038035 0.907079335
      vertex 4.90954408 0.625758744 0.964558
    endloop
  endfacet
  facet normal -0.357741598 0.226556867 -0.905921042
    outer loop
      vertex 4.98029158 0.506735059 0.906854343
      vertex 4.90954408 0.625758744 0.964558
      vertex 4.91055526 0.626455768 0.964333008
    endloop
  endfacet
  facet normal 0.464908823 -0.798138061 -0.383191103
    outer loop
      vertex 4.98090877 0.505675495 0.909810084
      vertex 4.9792804 0.506038035 0.907079335
      vertex 4.98029158 0.506735059 0.906854343
    endloop
  endfacet
  facet normal -0.464908823 0.798138061 0.383191103
    outer loop
      vertex 4.91117244 0.625396204 0.967288749
      vertex 4.91055526 0.626455768 0.964333008
      vertex 4.90954408 0.625758744 0.964558
    endloop
  endfacet
  facet normal -0.640431921 -0.0043233369 -0.768002776
    outer loop
      vertex 4.9792804 0.506038035 0.907079335
      vertex 4.97851713 0.505285818 0.907720059
      vertex 4.9087808 0.625006527 0.965198724
    endloop
  endfacet
  facet normal -0.640431921 -0.0043233369 -0.768002776
    outer loop
      vertex 4.9792804 0.506038035 0.907079335
      vertex 4.9087808 0.625006527 0.965198724
      vertex 4.90954408 0.625758744 0.964558
    endloop
  endfacet
  facet normal 0.464908823 -0.798138061 -0.383191103
    outer loop
      vertex 4.98090877 0.505675495 0.909810084
      vertex 4.97851713 0.505285818 0.907720059
      vertex 4.9792804 0.506038035 0.907079335
    endloop
  endfacet
  facet normal -0.464908823 0.798138061 0.383191103
    outer loop
      vertex 4.91117244 0.625396204 0.967288749
      vertex 4.90954408 0.625758744 0.964558
      vertex 4.9087808 0.625006527 0.965198724
    endloop
  endfacet
  facet normal -0.825622289 -0.234545351 -0.513163049
    outer loop
      vertex 4.97851713 0.505285818 0.907720059
      vertex 4.97811796 0.504592926 0.90867897
      vertex 4.90838163 0.624313635 0.966157636
    endloop
  endfacet
  facet normal -0.825622289 -0.234545351 -0.513163049
    outer loop
      vertex 4.97851713 0.505285818 0.907720059
      vertex 4.90838163 0.624313635 0.966157636
      vertex 4.9087808 0.625006527 0.965198724
    endloop
  endfacet
  facet normal 0.464908823 -0.798138061 -0.383191103
    outer loop
      vertex 4.98090877 0.505675495 0.909810084
      vertex 4.97811796 0.504592926 0.90867897
      vertex 4.97851713 0.505285818 0.907720059
    endloop
  endfacet
  facet normal -0.464908823 0.798138061 0.383191103
    outer loop
      vertex 4.91117244 0.625396204 0.967288749
      vertex 4.9087808 0.625006527 0.965198724
      vertex 4.90838163 0.624313635 0.966157636
    endloop
  endfacet
  facet normal -0.885119148 -0.429059962 -0.180198899
    outer loop
      vertex 4.97811796 0.504592926 0.90867897
      vertex 4.97814366 0.504064845 0.909810084
      vertex 4.90840734 0.623785554 0.967288749
    endloop
  endfacet
  facet normal -0.885119148 -0.429059962 -0.180198899
    outer loop
      vertex 4.97811796 0.504592926 0.90867897
      vertex 4.90840734 0.623785554 0.967288749
      vertex 4.90838163 0.624313635 0.966157636
    endloop
  endfacet
  facet normal 0.464908823 -0.798138061 -0.383191103
    outer loop
      vertex 4.98090877 0.505675495 0.909810084
      vertex 4.97814366 0.504064845 0.909810084
      vertex 4.97811796 0.504592926 0.90867897
    endloop
  endfacet
  facet normal -0.464908823 0.798138061 0.383191103
    outer loop
      vertex 4.91117244 0.625396204 0.967288749
      vertex 4.90838163 0.624313635 0.966157636
      vertex 4.90840734 0.623785554 0.967288749
    endloop
  endfacet
  facet normal -0.80986464 -0.558254084 0.180198899
    outer loop
      vertex 4.97814366 0.504064845 0.909810084
      vertex 4.97859033 0.503781971 0.910941197
      vertex 4.90885401 0.62350268 0.968419862
    endloop
  endfacet
  facet normal -0.80986464 -0.558254084 0.180198899
    outer loop
      vertex 4.97814366 0.504064845 0.909810084
      vertex 4.90885401 0.62350268 0.968419862
      vertex 4.90840734 0.623785554 0.967288749
    endloop
  endfacet
  facet normal 0.464908823 -0.798138061 -0.383191103
    outer loop
      vertex 4.98090877 0.505675495 0.909810084
      vertex 4.97859033 0.503781971 0.910941197
      vertex 4.97814366 0.504064845 0.909810084
    endloop
  endfacet
  facet normal -0.464908823 0.798138061 0.383191103
    outer loop
      vertex 4.91117244 0.625396204 0.967288749
      vertex 4.90840734 0.623785554 0.967288749
      vertex 4.90885401 0.62350268 0.968419862
    endloop
  endfacet
  facet normal -0.611315582 -0.602459081 0.513163049
    outer loop
      vertex 4.97859033 0.503781971 0.910941197
      vertex 4.97938996 0.503787369 0.911900108
      vertex 4.90965364 0.623508078 0.969378774
    endloop
  endfacet
  facet normal -0.611315582 -0.602459081 0.513163049
    outer loop
      vertex 4.97859033 0.503781971 0.910941197
      vertex 4.90965364 0.623508078 0.969378774
      vertex 4.90885401 0.62350268 0.968419862
    endloop
  endfacet
  facet normal 0.464908823 -0.798138061 -0.383191103
    outer loop
      vertex 4.98090877 0.505675495 0.909810084
      vertex 4.97938996 0.503787369 0.911900108
      vertex 4.97859033 0.503781971 0.910941197
    endloop
  endfacet
  facet normal -0.464908823 0.798138061 0.383191103
    outer loop
      vertex 4.91117244 0.625396204 0.967288749
      vertex 4.90885401 0.62350268 0.968419862
      vertex 4.90965364 0.623508078 0.969378774
    endloop
  endfacet
  facet normal -0.319699269 -0.554945145 0.768002776
    outer loop
      vertex 4.97938996 0.503787369 0.911900108
      vertex 4.98042081 0.504080217 0.912540832
      vertex 4.91068449 0.623800926 0.970019498
    endloop
  endfacet
  facet normal -0.319699269 -0.554945145 0.768002776
    outer loop
      vertex 4.97938996 0.503787369 0.911900108
      vertex 4.91068449 0.623800926 0.970019498
      vertex 4.90965364 0.623508078 0.969378774
    endloop
  endfacet
  facet normal 0.464908823 -0.798138061 -0.383191103
    outer loop
      vertex 4.98090877 0.505675495 0.909810084
      vertex 4.98042081 0.504080217 0.912540832
      vertex 4.97938996 0.503787369 0.911900108
    endloop
  endfacet
  facet normal -0.464908823 0.798138061 0.383191103
    outer loop
      vertex 4.91117244 0.625396204 0.967288749
      vertex 4.90965364 0.623508078 0.969378774
      vertex 4.91068449 0.623800926 0.970019498
    endloop
  endfacet
  facet normal 0.0205883603 -0.422945841 0.905921042
    outer loop
      vertex 4.98042081 0.504080217 0.912540832
      vertex 4.98152595 0.504615932 0.912765825
      vertex 4.91178963 0.624336641 0.97024449
    endloop
  endfacet
  facet normal 0.0205883603 -0.422945841 0.905921042
    outer loop
      vertex 4.98042081 0.504080217 0.912540832
      vertex 4.91178963 0.624336641 0.97024449
      vertex 4.91068449 0.623800926 0.970019498
    endloop
  endfacet
  facet normal 0.464908823 -0.798138061 -0.383191103
    outer loop
      vertex 4.98090877 0.505675495 0.909810084
      vertex 4.98152595 0.504615932 0.912765825
      vertex 4.98042081 0.504080217 0.912540832
    endloop
  endfacet
  facet normal -0.464908823 0.798138061 0.383191103
    outer loop
      vertex 4.91117244 0.625396204 0.967288749
      vertex 4.91068449 0.623800926 0.970019498
      vertex 4.91178963 0.624336641 0.97024449
    endloop
  endfacet
  facet normal 0.357741598 -0.226556867 0.905921042
    outer loop
      vertex 4.98152595 0.504615932 0.912765825
      vertex 4.98253713 0.505312956 0.912540832
      vertex 4.91280081 0.625033665 0.970019498
    endloop
  endfacet
  facet normal 0.357741598 -0.226556867 0.905921042
    outer loop
      vertex 4.98152595 0.504615932 0.912765825
      vertex 4.91280081 0.625033665 0.970019498
      vertex 4.91178963 0.624336641 0.97024449
    endloop
  endfacet
  facet normal 0.464908823 -0.798138061 -0.383191103
    outer loop
      vertex 4.98090877 0.505675495 0.909810084
      vertex 4.98253713 0.505312956 0.912540832
      vertex 4.98152595 0.504615932 0.912765825
    endloop
  endfacet
  facet normal -0.464908823 0.798138061 0.383191103
    outer loop
      vertex 4.91117244 0.625396204 0.967288749
      vertex 4.91178963 0.624336641 0.97024449
      vertex 4.91280081 0.625033665 0.970019498
    endloop
  endfacet
  facet normal 0.640431921 0.0043233369 0.768002776
    outer loop
      vertex 4.98253713 0.505312956 0.912540832
      vertex 4.98330041 0.506065173 0.911900108
      vertex 4.91356409 0.625785882 0.969378774
    endloop
  endfacet
  facet normal 0.640431921 0.0043233369 0.768002776
    outer loop
      vertex 4.98253713 0.505312956 0.912540832
      vertex 4.91356409 0.625785882 0.969378774
      vertex 4.91280081 0.625033665 0.970019498
    endloop
  endfacet
  facet normal 0.464908823 -0.798138061 -0.383191103
    outer loop
      vertex 4.98090877 0.505675495 0.909810084
      vertex 4.98330041 0.506065173 0.911900108
      vertex 4.98253713 0.505312956 0.912540832
    endloop
  endfacet
  facet normal -0.464908823 0.798138061 0.383191103
    outer loop
      vertex 4.91117244 0.625396204 0.967288749
      vertex 4.91280081 0.625033665 0.970019498
      vertex 4.91356409 0.625785882 0.969378774
    endloop
  endfacet
  facet normal 0.825622289 0.234545351 0.513163049
    outer loop
      vertex 4.98330041 0.506065173 0.911900108
      vertex 4.98369958 0.506758065 0.910941197
      vertex 4.91396326 0.626478774 0.968419862
    endloop
  endfacet
  facet normal 0.825622289 0.234545351 0.513163049
    outer loop
      vertex 4.98330041 0.506065173 0.911900108
      vertex 4.91396326 0.626478774 0.968419862
      vertex 4.91356409 0.625785882 0.969378774
    endloop
  endfacet
  facet normal 0.464908823 -0.798138061 -0.383191103
    outer loop
      vertex 4.98090877 0.505675495 0.909810084
      vertex 4.98369958 0.506758065 0.910941197
      vertex 4.98330041 0.506065173 0.911900108
    endloop
  endfacet
  facet normal -0.464908823 0.798138061 0.383191103
    outer loop
      vertex 4.91117244 0.625396204 0.967288749
      vertex 4.91356409 0.625785882 0.969378774
      vertex 4.91396326 0.626478774 0.968419862
    endloop
  endfacet
  facet normal 0.885119148 0.429059962 0.180198899
    outer loop
      vertex 4.98369958 0.506758065 0.910941197
      vertex 4.98367387 0.507286146 0.909810084
      vertex 4.91393755 0.627006855 0.967288749
    endloop
  endfacet
  facet normal 0.885119148 0.429059962 0.180198899
    outer loop
      vertex 4.98369958 0.506758065 0.910941197
      vertex 4.91393755 0.627006855 0.967288749
      vertex 4.91396326 0.626478774 0.968419862
    endloop
  endfacet
  facet normal 0.464908823 -0.798138061 -0.383191103
    outer loop
      vertex 4.98090877 0.505675495 0.909810084
      vertex 4.98367387 0.507286146 0.909810084
      vertex 4.98369958 0.506758065 0.910941197
    endloop
  endfacet
  facet normal -0.464908823 0.798138061 0.383191103
    outer loop
      vertex 4.91117244 0.625396204 0.967288749
      vertex 4.91396326 0.626478774 0.968419862
      vertex 4.91393755 0.627006855 0.967288749
    endloop
  endfacet
  facet normal 0.80986464 0.558254084 -0.180198899
    outer loop
      vertex 4.96328812 0.505959324 0.887840548
      vertex 4.96284145 0.506242198 0.886709435
      vertex 4.89310512 0.625962907 0.9441881
    endloop
  endfacet
  facet normal 0.80986464 0.558254084 -0.180198899
    outer loop
      vertex 4.96328812 0.505959324 0.887840548
      vertex 4.89310512 0.625962907 0.9441881
      vertex 4.89355179 0.625680033 0.945319213
    endloop
  endfacet
  facet normal 0.464908823 -0.798138061 -0.383191103
    outer loop
      vertex 4.96052301 0.504348673 0.887840548
      vertex 4.96284145 0.506242198 0.886709435
      vertex 4.96328812 0.505959324 0.887840548
    endloop
  endfacet
  facet normal -0.464908823 0.798138061 0.383191103
    outer loop
      vertex 4.89078669 0.624069382 0.945319213
      vertex 4.89355179 0.625680033 0.945319213
      vertex 4.89310512 0.625962907 0.9441881
    endloop
  endfacet
  facet normal 0.611315582 0.602459081 -0.513163049
    outer loop
      vertex 4.96284145 0.506242198 0.886709435
      vertex 4.96204182 0.5062368 0.885750523
      vertex 4.8923055 0.625957509 0.943229189
    endloop
  endfacet
  facet normal 0.611315582 0.602459081 -0.513163049
    outer loop
      vertex 4.96284145 0.506242198 0.886709435
      vertex 4.8923055 0.625957509 0.943229189
      vertex 4.89310512 0.625962907 0.9441881
    endloop
  endfacet
  facet normal 0.464908823 -0.798138061 -0.383191103
    outer loop
      vertex 4.96052301 0.504348673 0.887840548
      vertex 4.96204182 0.5062368 0.885750523
      vertex 4.96284145 0.506242198 0.886709435
    endloop
  endfacet
  facet normal -0.464908823 0.798138061 0.383191103
    outer loop
      vertex 4.89078669 0.624069382 0.945319213
      vertex 4.89310512 0.625962907 0.9441881
      vertex 4.8923055 0.625957509 0.943229189
    endloop
  endfacet
  facet normal 0.319699269 0.554945145 -0.768002776
    outer loop
      vertex 4.96204182 0.5062368 0.885750523
      vertex 4.96101097 0.505943952 0.885109799
      vertex 4.89127464 0.625664661 0.942588465
    endloop
  endfacet
  facet normal 0.319699269 0.554945145 -0.768002776
    outer loop
      vertex 4.96204182 0.5062368 0.885750523
      vertex 4.89127464 0.625664661 0.942588465
      vertex 4.8923055 0.625957509 0.943229189
    endloop
  endfacet
  facet normal 0.464908823 -0.798138061 -0.383191103
    outer loop
      vertex 4.96052301 0.504348673 0.887840548
      vertex 4.96101097 0.505943952 0.885109799
      vertex 4.96204182 0.5062368 0.885750523
    endloop
  endfacet
  facet normal -0.464908823 0.798138061 0.383191103
    outer loop
      vertex 4.89078669 0.624069382 0.945319213
      vertex 4.8923055 0.625957509 0.943229189
      vertex 4.89127464 0.625664661 0.942588465
    endloop
  endfacet
  facet normal -0.0205883603 0.422945841 -0.905921042
    outer loop
      vertex 4.96101097 0.505943952 0.885109799
      vertex 4.95990582 0.505408237 0.884884807
      vertex 4.8901695 0.625128946 0.942363472
    endloop
  endfacet
  facet normal -0.0205883603 0.422945841 -0.905921042
    outer loop
      vertex 4.96101097 0.505943952 0.885109799
      vertex 4.8901695 0.625128946 0.942363472
      vertex 4.89127464 0.625664661 0.942588465
    endloop
  endfacet
  facet normal 0.464908823 -0.798138061 -0.383191103
    outer loop
      vertex 4.96052301 0.504348673 0.887840548
      vertex 4.95990582 0.505408237 0.884884807
      vertex 4.96101097 0.505943952 0.885109799
    endloop
  endfacet
  facet normal -0.464908823 0.798138061 0.383191103
    outer loop
      vertex 4.89078669 0.624069382 0.945319213
      vertex 4.89127464 0.625664661 0.942588465
      vertex 4.8901695 0.625128946 0.942363472
    endloop
  endfacet
  facet normal -0.357741598 0.226556867 -0.905921042
    outer loop
      vertex 4.95990582 0.505408237 0.884884807
      vertex 4.95889465 0.504711213 0.885109799
      vertex 4.88915832 0.624431922 0.942588465
    endloop
  endfacet
  facet normal -0.357741598 0.226556867 -0.905921042
    outer loop
      vertex 4.95990582 0.505408237 0.884884807
      vertex 4.88915832 0.624431922 0.942588465
      vertex 4.8901695 0.625128946 0.942363472
    endloop
  endfacet
  facet normal 0.464908823 -0.798138061 -0.383191103
    outer loop
      vertex 4.96052301 0.504348673 0.887840548
      vertex 4.95889465 0.504711213 0.885109799
      vertex 4.95990582 0.505408237 0.884884807
    endloop
  endfacet
  facet normal -0.464908823 0.798138061 0.383191103
    outer loop
      vertex 4.89078669 0.624069382 0.945319213
      vertex 4.8901695 0.625128946 0.942363472
      vertex 4.88915832 0.624431922 0.942588465
    endloop
  endfacet
  facet normal -0.640431921 -0.0043233369 -0.768002776
    outer loop
      vertex 4.95889465 0.504711213 0.885109799
      vertex 4.95813137 0.503958996 0.885750523
      vertex 4.88839505 0.623679705 0.943229189
    endloop
  endfacet
  facet normal -0.640431921 -0.0043233369 -0.768002776
    outer loop
      vertex 4.95889465 0.504711213 0.885109799
      vertex 4.88839505 0.623679705 0.943229189
      vertex 4.88915832 0.624431922 0.942588465
    endloop
  endfacet
  facet normal 0.464908823 -0.798138061 -0.383191103
    outer loop
      vertex 4.96052301 0.504348673 0.887840548
      vertex 4.95813137 0.503958996 0.885750523
      vertex 4.95889465 0.504711213 0.885109799
    endloop
  endfacet
  facet normal -0.464908823 0.798138061 0.383191103
    outer loop
      vertex 4.89078669 0.624069382 0.945319213
      vertex 4.88915832 0.624431922 0.942588465
      vertex 4.88839505 0.623679705 0.943229189
    endloop
  endfacet
  facet normal -0.825622289 -0.234545351 -0.513163049
    outer loop
      vertex 4.95813137 0.503958996 0.885750523
      vertex 4.9577322 0.503266104 0.886709435
      vertex 4.88799588 0.622986813 0.9441881
    endloop
  endfacet
  facet normal -0.825622289 -0.234545351 -0.513163049
    outer loop
      vertex 4.95813137 0.503958996 0.885750523
      vertex 4.88799588 0.622986813 0.9441881
      vertex 4.88839505 0.623679705 0.943229189
    endloop
  endfacet
  facet normal 0.464908823 -0.798138061 -0.383191103
    outer loop
      vertex 4.96052301 0.504348673 0.887840548
      vertex 4.9577322 0.503266104 0.886709435
      vertex 4.95813137 0.503958996 0.885750523
    endloop
  endfacet
  facet normal -0.464908823 0.798138061 0.383191103
    outer loop
      vertex 4.89078669 0.624069382 0.945319213
      vertex 4.88839505 0.623679705 0.943229189
      vertex 4.88799588 0.622986813 0.9441881
    endloop
  endfacet
  facet normal -0.885119148 -0.429059962 -0.180198899
    outer loop
      vertex 4.9577322 0.503266104 0.886709435
      vertex 4.95775791 0.502738023 0.887840548
      vertex 4.88802158 0.622458732 0.945319213
    endloop
  endfacet
  facet normal -0.885119148 -0.429059962 -0.180198899
    outer loop
      vertex 4.9577322 0.503266104 0.886709435
      vertex 4.88802158 0.622458732 0.945319213
      vertex 4.88799588 0.622986813 0.9441881
    endloop
  endfacet
  facet normal 0.464908823 -0.798138061 -0.383191103
    outer loop
      vertex 4.96052301 0.504348673 0.887840548
      vertex 4.95775791 0.502738023 0.887840548
      vertex 4.9577322 0.503266104 0.886709435
    endloop
  endfacet
  facet normal -0.464908823 0.798138061 0.383191103
    outer loop
      vertex 4.89078669 0.624069382 0.945319213
      vertex 4.88799588 0.622986813 0.9441881
      vertex 4.88802158 0.622458732 0.945319213
    endloop
  endfacet
  facet normal -0.80986464 -0.558254084 0.180198899
    outer loop
      vertex 4.95775791 0.502738023 0.887840548
      vertex 4.95820458 0.502455149 0.888971661
      vertex 4.88846825 0.622175858 0.946450326
    endloop
  endfacet
  facet normal -0.80986464 -0.558254084 0.180198899
    outer loop
      vertex 4.95775791 0.502738023 0.887840548
      vertex 4.88846825 0.622175858 0.946450326
      vertex 4.88802158 0.622458732 0.945319213
    endloop
  endfacet
  facet normal 0.464908823 -0.798138061 -0.383191103
    outer loop
      vertex 4.96052301 0.504348673 0.887840548
      vertex 4.95820458 0.502455149 0.888971661
      vertex 4.95775791 0.502738023 0.887840548
    endloop
  endfacet
  facet normal -0.464908823 0.798138061 0.383191103
    outer loop
      vertex 4.89078669 0.624069382 0.945319213
      vertex 4.88802158 0.622458732 0.945319213
      vertex 4.88846825 0.622175858 0.946450326
    endloop
  endfacet
  facet normal -0.611315582 -0.602459081 0.513163049
    outer loop
      vertex 4.95820458 0.502455149 0.888971661
      vertex 4.9590042 0.502460547 0.889930572
      vertex 4.88926788 0.622181256 0.947409238
    endloop
  endfacet
  facet normal -0.611315582 -0.602459081 0.513163049
    outer loop
      vertex 4.95820458 0.502455149 0.888971661
      vertex 4.88926788 0.622181256 0.947409238
      vertex 4.88846825 0.622175858 0.946450326
    endloop
  endfacet
  facet normal 0.464908823 -0.798138061 -0.383191103
    outer loop
      vertex 4.96052301 0.504348673 0.887840548
      vertex 4.9590042 0.502460547 0.889930572
      vertex 4.95820458 0.502455149 0.888971661
    endloop
  endfacet
  facet normal -0.464908823 0.798138061 0.383191103
    outer loop
      vertex 4.89078669 0.624069382 0.945319213
      vertex 4.88846825 0.622175858 0.946450326
      vertex 4.88926788 0.622181256 0.947409238
    endloop
  endfacet
  facet normal -0.319699269 -0.554945145 0.768002776
    outer loop
      vertex 4.9590042 0.502460547 0.889930572
      vertex 4.96003506 0.502753395 0.890571297
      vertex 4.89029873 0.622474104 0.948049962
    endloop
  endfacet
  facet normal -0.319699269 -0.554945145 0.768002776
    outer loop
      vertex 4.9590042 0.502460547 0.889930572
      vertex 4.89029873 0.622474104 0.948049962
      vertex 4.88926788 0.622181256 0.947409238
    endloop
  endfacet
  facet normal 0.464908823 -0.798138061 -0.383191103
    outer loop
      vertex 4.96052301 0.504348673 0.887840548
      vertex 4.96003506 0.502753395 0.890571297
      vertex 4.9590042 0.502460547 0.889930572
    endloop
  endfacet
  facet normal -0.464908823 0.798138061 0.383191103
    outer loop
      vertex 4.89078669 0.624069382 0.945319213
      vertex 4.88926788 0.622181256 0.947409238
      vertex 4.89029873 0.622474104 0.948049962
    endloop
  endfacet
  facet normal 0.0205883603 -0.422945841 0.905921042
    outer loop
      vertex 4.96003506 0.502753395 0.890571297
      vertex 4.9611402 0.50328911 0.890796289
      vertex 4.89140388 0.623009819 0.948274954
    endloop
  endfacet
  facet normal 0.0205883603 -0.422945841 0.905921042
    outer loop
      vertex 4.96003506 0.502753395 0.890571297
      vertex 4.89140388 0.623009819 0.948274954
      vertex 4.89029873 0.622474104 0.948049962
    endloop
  endfacet
  facet normal 0.464908823 -0.798138061 -0.383191103
    outer loop
      vertex 4.96052301 0.504348673 0.887840548
      vertex 4.9611402 0.50328911 0.890796289
      vertex 4.96003506 0.502753395 0.890571297
    endloop
  endfacet
  facet normal -0.464908823 0.798138061 0.383191103
    outer loop
      vertex 4.89078669 0.624069382 0.945319213
      vertex 4.89029873 0.622474104 0.948049962
      vertex 4.89140388 0.623009819 0.948274954
    endloop
  endfacet
  facet normal 0.357741598 -0.226556867 0.905921042
    outer loop
      vertex 4.9611402 0.50328911 0.890796289
      vertex 4.96215138 0.503986134 0.890571297
      vertex 4.89241505 0.623706843 0.948049962
    endloop
  endfacet
  facet normal 0.357741598 -0.226556867 0.905921042
    outer loop
      vertex 4.9611402 0.50328911 0.890796289
      vertex 4.89241505 0.623706843 0.948049962
      vertex 4.89140388 0.623009819 0.948274954
    endloop
  endfacet
  facet normal 0.464908823 -0.798138061 -0.383191103
    outer loop
      vertex 4.96052301 0.504348673 0.887840548
      vertex 4.96215138 0.503986134 0.890571297
      vertex 4.9611402 0.50328911 0.890796289
    endloop
  endfacet
  facet normal -0.464908823 0.798138061 0.383191103
    outer loop
      vertex 4.89078669 0.624069382 0.945319213
      vertex 4.89140388 0.623009819 0.948274954
      vertex 4.89241505 0.623706843 0.948049962
    endloop
  endfacet
  facet normal 0.640431921 0.0043233369 0.768002776
    outer loop
      vertex 4.96215138 0.503986134 0.890571297
      vertex 4.96291465 0.504738351 0.889930572
      vertex 4.89317833 0.62445906 0.947409238
    endloop
  endfacet
  facet normal 0.640431921 0.0043233369 0.768002776
    outer loop
      vertex 4.96215138 0.503986134 0.890571297
      vertex 4.89317833 0.62445906 0.947409238
      vertex 4.89241505 0.623706843 0.948049962
    endloop
  endfacet
  facet normal 0.464908823 -0.798138061 -0.383191103
    outer loop
      vertex 4.96052301 0.504348673 0.887840548
      vertex 4.96291465 0.504738351 0.889930572
      vertex 4.96215138 0.503986134 0.890571297
    endloop
  endfacet
  facet normal -0.464908823 0.798138061 0.383191103
    outer loop
      vertex 4.89078669 0.624069382 0.945319213
      vertex 4.89241505 0.623706843 0.948049962
      vertex 4.89317833 0.62445906 0.947409238
    endloop
  endfacet
  facet normal 0.825622289 0.234545351 0.513163049
    outer loop
      vertex 4.96291465 0.504738351 0.889930572
      vertex 4.96331382 0.505431243 0.888971661
      vertex 4.8935775 0.625151952 0.946450326
    endloop
  endfacet
  facet normal 0.825622289 0.234545351 0.513163049
    outer loop
      vertex 4.96291465 0.504738351 0.889930572
      vertex 4.8935775 0.625151952 0.946450326
      vertex 4.89317833 0.62445906 0.947409238
    endloop
  endfacet
  facet normal 0.464908823 -0.798138061 -0.383191103
    outer loop
      vertex 4.96052301 0.504348673 0.887840548
      vertex 4.96331382 0.505431243 0.888971661
      vertex 4.96291465 0.504738351 0.889930572
    endloop
  endfacet
  facet normal -0.464908823 0.798138061 0.383191103
    outer loop
      vertex 4.89078669 0.624069382 0.945319213
      vertex 4.89317833 0.62445906 0.947409238
      vertex 4.8935775 0.625151952 0.946450326
    endloop
  endfacet
  facet normal 0.885119148 0.429059962 0.180198899
    outer loop
      vertex 4.96331382 0.505431243 0.888971661
      vertex 4.96328812 0.505959324 0.887840548
      vertex 4.89355179 0.625680033 0.945319213
    endloop
  endfacet
  facet normal 0.885119148 0.429059962 0.180198899
    outer loop
      vertex 4.96331382 0.505431243 0.888971661
      vertex 4.89355179 0.625680033 0.945319213
      vertex 4.8935775 0.625151952 0.946450326
    endloop
  endfacet
  facet normal 0.464908823 -0.798138061 -0.383191103
    outer loop
      vertex 4.96052301 0.504348673 0.887840548
      vertex 4.96328812 0.505959324 0.887840548
      vertex 4.96331382 0.505431243 0.888971661
    endloop
  endfacet
  facet normal -0.464908823 0.798138061 0.383191103
    outer loop
      vertex 4.89078669 0.624069382 0.945319213
      vertex 4.8935775 0.625151952 0.946450326
      vertex 4.89355179 0.625680033 0.945319213
    endloop
  endfacet
endsolid e12_features
