solid c33_features
  facet normal -0.895080439 -0.413706843 -0.166366029
    outer loop
      vertex 0.791504446 -1.24968594 1.93841998
      vertex 0.791941847 -1.25021234 1.9373757
      vertex 0.833323165 -1.37124843 2.01572013
    endloop
  endfacet
  facet normal -0.895080439 -0.413706843 -0.166366029
    outer loop
      vertex 0.791504446 -1.24968594 1.93841998
      vertex 0.833323165 -1.37124843 2.01572013
      vertex 0.832885764 -1.37072203 2.01676441
    endloop
  endfacet
  facet normal -0.275875457 0.806907303 -0.522296216
    outer loop
      vertex 0.794532368 -1.24865071 1.93841998
      vertex 0.791941847 -1.25021234 1.9373757
      vertex 0.791504446 -1.24968594 1.93841998
    endloop
  endfacet
  facet normal 0.275875457 -0.806907303 0.522296216
    outer loop
      vertex 0.835913686 -1.36968681 2.01676441
      vertex 0.832885764 -1.37072203 2.01676441
      vertex 0.833323165 -1.37124843 2.01572013
    endloop
  endfacet
  facet normal -0.692885036 -0.543554934 -0.473770367
    outer loop
      vertex 0.791941847 -1.25021234 1.9373757
      vertex 0.792773631 -1.250501 1.9364904
      vertex 0.83415495 -1.37153709 2.01483483
    endloop
  endfacet
  facet normal -0.692885036 -0.543554934 -0.473770367
    outer loop
      vertex 0.791941847 -1.25021234 1.9373757
      vertex 0.83415495 -1.37153709 2.01483483
      vertex 0.833323165 -1.37124843 2.01572013
    endloop
  endfacet
  facet normal -0.275875457 0.806907303 -0.522296216
    outer loop
      vertex 0.794532368 -1.24865071 1.93841998
      vertex 0.792773631 -1.250501 1.9364904
      vertex 0.791941847 -1.25021234 1.9373757
    endloop
  endfacet
  facet normal 0.275875457 -0.806907303 0.522296216
    outer loop
      vertex 0.835913686 -1.36968681 2.01676441
      vertex 0.833323165 -1.37124843 2.01572013
      vertex 0.83415495 -1.37153709 2.01483483
    endloop
  endfacet
  facet normal -0.385204167 -0.590651714 -0.709047461
    outer loop
      vertex 0.792773631 -1.250501 1.9364904
      vertex 0.793873167 -1.25050797 1.93589886
      vertex 0.835254486 -1.37154406 2.01424329
    endloop
  endfacet
  facet normal -0.385204167 -0.590651714 -0.709047461
    outer loop
      vertex 0.792773631 -1.250501 1.9364904
      vertex 0.835254486 -1.37154406 2.01424329
      vertex 0.83415495 -1.37153709 2.01483483
    endloop
  endfacet
  facet normal -0.275875457 0.806907303 -0.522296216
    outer loop
      vertex 0.794532368 -1.24865071 1.93841998
      vertex 0.793873167 -1.25050797 1.93589886
      vertex 0.792773631 -1.250501 1.9364904
    endloop
  endfacet
  facet normal 0.275875457 -0.806907303 0.522296216
    outer loop
      vertex 0.835913686 -1.36968681 2.01676441
      vertex 0.83415495 -1.37153709 2.01483483
      vertex 0.835254486 -1.37154406 2.01424329
    endloop
  endfacet
  facet normal -0.0188794554 -0.547827125 -0.836378507
    outer loop
      vertex 0.793873167 -1.25050797 1.93589886
      vertex 0.795073061 -1.25023219 1.93569114
      vertex 0.836454379 -1.37126828 2.01403557
    endloop
  endfacet
  facet normal -0.0188794554 -0.547827125 -0.836378507
    outer loop
      vertex 0.793873167 -1.25050797 1.93589886
      vertex 0.836454379 -1.37126828 2.01403557
      vertex 0.835254486 -1.37154406 2.01424329
    endloop
  endfacet
  facet normal -0.275875457 0.806907303 -0.522296216
    outer loop
      vertex 0.794532368 -1.24865071 1.93841998
      vertex 0.795073061 -1.25023219 1.93569114
      vertex 0.793873167 -1.25050797 1.93589886
    endloop
  endfacet
  facet normal 0.275875457 -0.806907303 0.522296216
    outer loop
      vertex 0.835913686 -1.36968681 2.01676441
      vertex 0.835254486 -1.37154406 2.01424329
      vertex 0.836454379 -1.37126828 2.01403557
    endloop
  endfacet
  facet normal 0.350319482 -0.421600823 -0.836378507
    outer loop
      vertex 0.795073061 -1.25023219 1.93569114
      vertex 0.796190639 -1.24971564 1.93589886
      vertex 0.837571957 -1.37075174 2.01424329
    endloop
  endfacet
  facet normal 0.350319482 -0.421600823 -0.836378507
    outer loop
      vertex 0.795073061 -1.25023219 1.93569114
      vertex 0.837571957 -1.37075174 2.01424329
      vertex 0.836454379 -1.37126828 2.01403557
    endloop
  endfacet
  facet normal -0.275875457 0.806907303 -0.522296216
    outer loop
      vertex 0.794532368 -1.24865071 1.93841998
      vertex 0.796190639 -1.24971564 1.93589886
      vertex 0.795073061 -1.25023219 1.93569114
    endloop
  endfacet
  facet normal 0.275875457 -0.806907303 0.522296216
    outer loop
      vertex 0.835913686 -1.36968681 2.01676441
      vertex 0.836454379 -1.37126828 2.01403557
      vertex 0.837571957 -1.37075174 2.01424329
    endloop
  endfacet
  facet normal 0.666185454 -0.231189616 -0.709047461
    outer loop
      vertex 0.796190639 -1.24971564 1.93589886
      vertex 0.79705576 -1.24903697 1.9364904
      vertex 0.838437078 -1.37007307 2.01483483
    endloop
  endfacet
  facet normal 0.666185454 -0.231189616 -0.709047461
    outer loop
      vertex 0.796190639 -1.24971564 1.93589886
      vertex 0.838437078 -1.37007307 2.01483483
      vertex 0.837571957 -1.37075174 2.01424329
    endloop
  endfacet
  facet normal -0.275875457 0.806907303 -0.522296216
    outer loop
      vertex 0.794532368 -1.24865071 1.93841998
      vertex 0.79705576 -1.24903697 1.9364904
      vertex 0.796190639 -1.24971564 1.93589886
    endloop
  endfacet
  facet normal 0.275875457 -0.806907303 0.522296216
    outer loop
      vertex 0.835913686 -1.36968681 2.01676441
      vertex 0.837571957 -1.37075174 2.01424329
      vertex 0.838437078 -1.37007307 2.01483483
    endloop
  endfacet
  facet normal 0.88063073 -0.00558188672 -0.473770367
    outer loop
      vertex 0.79705576 -1.24903697 1.9364904
      vertex 0.797536717 -1.2482995 1.9373757
      vertex 0.838918036 -1.36933559 2.01572013
    endloop
  endfacet
  facet normal 0.88063073 -0.00558188672 -0.473770367
    outer loop
      vertex 0.79705576 -1.24903697 1.9364904
      vertex 0.838918036 -1.36933559 2.01572013
      vertex 0.838437078 -1.37007307 2.01483483
    endloop
  endfacet
  facet normal -0.275875457 0.806907303 -0.522296216
    outer loop
      vertex 0.794532368 -1.24865071 1.93841998
      vertex 0.797536717 -1.2482995 1.9373757
      vertex 0.79705576 -1.24903697 1.9364904
    endloop
  endfacet
  facet normal 0.275875457 -0.806907303 0.522296216
    outer loop
      vertex 0.835913686 -1.36968681 2.01676441
      vertex 0.838437078 -1.37007307 2.01483483
      vertex 0.838918036 -1.36933559 2.01572013
    endloop
  endfacet
  facet normal 0.96100796 0.220875634 -0.166366029
    outer loop
      vertex 0.797536717 -1.2482995 1.9373757
      vertex 0.79756029 -1.24761549 1.93841998
      vertex 0.838941608 -1.36865159 2.01676441
    endloop
  endfacet
  facet normal 0.96100796 0.220875634 -0.166366029
    outer loop
      vertex 0.797536717 -1.2482995 1.9373757
      vertex 0.838941608 -1.36865159 2.01676441
      vertex 0.838918036 -1.36933559 2.01572013
    endloop
  endfacet
  facet normal -0.275875457 0.806907303 -0.522296216
    outer loop
      vertex 0.794532368 -1.24865071 1.93841998
      vertex 0.79756029 -1.24761549 1.93841998
      vertex 0.797536717 -1.2482995 1.9373757
    endloop
  endfacet
  facet normal 0.275875457 -0.806907303 0.522296216
    outer loop
      vertex 0.835913686 -1.36968681 2.01676441
      vertex 0.838918036 -1.36933559 2.01572013
      vertex 0.838941608 -1.36865159 2.01676441
    endloop
  endfacet
  facet normal 0.895080439 0.413706843 0.166366029
    outer loop
      vertex 0.79756029 -1.24761549 1.93841998
      vertex 0.797122889 -1.24708909 1.93946427
      vertex 0.838504207 -1.36812518 2.0178087
    endloop
  endfacet
  facet normal 0.895080439 0.413706843 0.166366029
    outer loop
      vertex 0.79756029 -1.24761549 1.93841998
      vertex 0.838504207 -1.36812518 2.0178087
      vertex 0.838941608 -1.36865159 2.01676441
    endloop
  endfacet
  facet normal -0.275875457 0.806907303 -0.522296216
    outer loop
      vertex 0.794532368 -1.24865071 1.93841998
      vertex 0.797122889 -1.24708909 1.93946427
      vertex 0.79756029 -1.24761549 1.93841998
    endloop
  endfacet
  facet normal 0.275875457 -0.806907303 0.522296216
    outer loop
      vertex 0.835913686 -1.36968681 2.01676441
      vertex 0.838941608 -1.36865159 2.01676441
      vertex 0.838504207 -1.36812518 2.0178087
    endloop
  endfacet
  facet normal 0.692885036 0.543554934 0.473770367
    outer loop
      vertex 0.797122889 -1.24708909 1.93946427
      vertex 0.796291104 -1.24680043 1.94034957
      vertex 0.837672422 -1.36783653 2.018694
    endloop
  endfacet
  facet normal 0.692885036 0.543554934 0.473770367
    outer loop
      vertex 0.797122889 -1.24708909 1.93946427
      vertex 0.837672422 -1.36783653 2.018694
      vertex 0.838504207 -1.36812518 2.0178087
    endloop
  endfacet
  facet normal -0.275875457 0.806907303 -0.522296216
    outer loop
      vertex 0.794532368 -1.24865071 1.93841998
      vertex 0.796291104 -1.24680043 1.94034957
      vertex 0.797122889 -1.24708909 1.93946427
    endloop
  endfacet
  facet normal 0.275875457 -0.806907303 0.522296216
    outer loop
      vertex 0.835913686 -1.36968681 2.01676441
      vertex 0.838504207 -1.36812518 2.0178087
      vertex 0.837672422 -1.36783653 2.018694
    endloop
  endfacet
  facet normal 0.385204167 0.590651714 0.709047461
    outer loop
      vertex 0.796291104 -1.24680043 1.94034957
      vertex 0.795191568 -1.24679346 1.94094111
      vertex 0.836572886 -1.36782956 2.01928554
    endloop
  endfacet
  facet normal 0.385204167 0.590651714 0.709047461
    outer loop
      vertex 0.796291104 -1.24680043 1.94034957
      vertex 0.836572886 -1.36782956 2.01928554
      vertex 0.837672422 -1.36783653 2.018694
    endloop
  endfacet
  facet normal -0.275875457 0.806907303 -0.522296216
    outer loop
      vertex 0.794532368 -1.24865071 1.93841998
      vertex 0.795191568 -1.24679346 1.94094111
      vertex 0.796291104 -1.24680043 1.94034957
    endloop
  endfacet
  facet normal 0.275875457 -0.806907303 0.522296216
    outer loop
      vertex 0.835913686 -1.36968681 2.01676441
      vertex 0.837672422 -1.36783653 2.018694
      vertex 0.836572886 -1.36782956 2.01928554
    endloop
  endfacet
  facet normal 0.0188794554 0.547827125 0.836378507
    outer loop
      vertex 0.795191568 -1.24679346 1.94094111
      vertex 0.793991674 -1.24706924 1.94114883
      vertex 0.835372993 -1.36810534 2.01949326
    endloop
  endfacet
  facet normal 0.0188794554 0.547827125 0.836378507
    outer loop
      vertex 0.795191568 -1.24679346 1.94094111
      vertex 0.835372993 -1.36810534 2.01949326
      vertex 0.836572886 -1.36782956 2.01928554
    endloop
  endfacet
  facet normal -0.275875457 0.806907303 -0.522296216
    outer loop
      vertex 0.794532368 -1.24865071 1.93841998
      vertex 0.793991674 -1.24706924 1.94114883
      vertex 0.795191568 -1.24679346 1.94094111
    endloop
  endfacet
  facet normal 0.275875457 -0.806907303 0.522296216
    outer loop
      vertex 0.835913686 -1.36968681 2.01676441
      vertex 0.836572886 -1.36782956 2.01928554
      vertex 0.835372993 -1.36810534 2.01949326
    endloop
  endfacet
  facet normal -0.350319482 0.421600823 0.836378507
    outer loop
      vertex 0.793991674 -1.24706924 1.94114883
      vertex 0.792874097 -1.24758579 1.94094111
      vertex 0.834255415 -1.36862188 2.01928554
    endloop
  endfacet
  facet normal -0.350319482 0.421600823 0.836378507
    outer loop
      vertex 0.793991674 -1.24706924 1.94114883
      vertex 0.834255415 -1.36862188 2.01928554
      vertex 0.835372993 -1.36810534 2.01949326
    endloop
  endfacet
  facet normal -0.275875457 0.806907303 -0.522296216
    outer loop
      vertex 0.794532368 -1.24865071 1.93841998
      vertex 0.792874097 -1.24758579 1.94094111
      vertex 0.793991674 -1.24706924 1.94114883
    endloop
  endfacet
  facet normal 0.275875457 -0.806907303 0.522296216
    outer loop
      vertex 0.835913686 -1.36968681 2.01676441
      vertex 0.835372993 -1.36810534 2.01949326
      vertex 0.834255415 -1.36862188 2.01928554
    endloop
  endfacet
  facet normal -0.666185454 0.231189616 0.709047461
    outer loop
      vertex 0.792874097 -1.24758579 1.94094111
      vertex 0.792008975 -1.24826446 1.94034957
      vertex 0.833390294 -1.36930055 2.018694
    endloop
  endfacet
  facet normal -0.666185454 0.231189616 0.709047461
    outer loop
      vertex 0.792874097 -1.24758579 1.94094111
      vertex 0.833390294 -1.36930055 2.018694
      vertex 0.834255415 -1.36862188 2.01928554
    endloop
  endfacet
  facet normal -0.275875457 0.806907303 -0.522296216
    outer loop
      vertex 0.794532368 -1.24865071 1.93841998
      vertex 0.792008975 -1.24826446 1.94034957
      vertex 0.792874097 -1.24758579 1.94094111
    endloop
  endfacet
  facet normal 0.275875457 -0.806907303 0.522296216
    outer loop
      vertex 0.835913686 -1.36968681 2.01676441
      vertex 0.834255415 -1.36862188 2.01928554
      vertex 0.833390294 -1.36930055 2.018694
    endloop
  endfacet
  facet normal -0.88063073 0.00558188672 0.473770367
    outer loop
      vertex 0.792008975 -1.24826446 1.94034957
      vertex 0.791528018 -1.24900193 1.93946427
      vertex 0.832909337 -1.37003803 2.0178087
    endloop
  endfacet
  facet normal -0.88063073 0.00558188672 0.473770367
    outer loop
      vertex 0.792008975 -1.24826446 1.94034957
      vertex 0.832909337 -1.37003803 2.0178087
      vertex 0.833390294 -1.36930055 2.018694
    endloop
  endfacet
  facet normal -0.275875457 0.806907303 -0.522296216
    outer loop
      vertex 0.794532368 -1.24865071 1.93841998
      vertex 0.791528018 -1.24900193 1.93946427
      vertex 0.792008975 -1.24826446 1.94034957
    endloop
  endfacet
  facet normal 0.275875457 -0.806907303 0.522296216
    outer loop
      vertex 0.835913686 -1.36968681 2.01676441
      vertex 0.833390294 -1.36930055 2.018694
      vertex 0.832909337 -1.37003803 2.0178087
    endloop
  endfacet
  facet normal -0.96100796 -0.220875634 0.166366029
    outer loop
      vertex 0.791528018 -1.24900193 1.93946427
      vertex 0.791504446 -1.24968594 1.93841998
      vertex 0.832885764 -1.37072203 2.01676441
    endloop
  endfacet
  facet normal -0.96100796 -0.220875634 0.166366029
    outer loop
      vertex 0.791528018 -1.24900193 1.93946427
      vertex 0.832885764 -1.37072203 2.01676441
      vertex 0.832909337 -1.37003803 2.0178087
    endloop
  endfacet
  facet normal -0.275875457 0.806907303 -0.522296216
    outer loop
      vertex 0.794532368 -1.24865071 1.93841998
      vertex 0.791504446 -1.24968594 1.93841998
      vertex 0.791528018 -1.24900193 1.93946427
    endloop
  endfacet
  facet normal 0.275875457 -0.806907303 0.522296216
    outer loop
      vertex 0.835913686 -1.36968681 2.01676441
      vertex 0.832909337 -1.37003803 2.0178087
      vertex 0.832885764 -1.37072203 2.01676441
    endloop
  endfacet
  facet normal -0.895080439 -0.413706843 -0.166366029
    outer loop
      vertex 0.806439203 -1.26003223 1.91454725
      vertex 0.806876605 -1.26055864 1.91350297
      vertex 0.848257923 -1.38159473 1.9918474
    endloop
  endfacet
  facet normal -0.895080439 -0.413706843 -0.166366029
    outer loop
      vertex 0.806439203 -1.26003223 1.91454725
      vertex 0.848257923 -1.38159473 1.9918474
      vertex 0.847820522 -1.38106833 1.99289169
    endloop
  endfacet
  facet normal -0.275875457 0.806907303 -0.522296216
    outer loop
      vertex 0.809467125 -1.25899701 1.91454725
      vertex 0.806876605 -1.26055864 1.91350297
      vertex 0.806439203 -1.26003223 1.91454725
    endloop
  endfacet
  facet normal 0.275875457 -0.806907303 0.522296216
    outer loop
      vertex 0.850848444 -1.38003311 1.99289169
      vertex 0.847820522 -1.38106833 1.99289169
      vertex 0.848257923 -1.38159473 1.9918474
    endloop
  endfacet
  facet normal -0.692885036 -0.543554934 -0.473770367
    outer loop
      vertex 0.806876605 -1.26055864 1.91350297
      vertex 0.807708389 -1.26084729 1.91261767
      vertex 0.849089708 -1.38188339 1.9909621
    endloop
  endfacet
  facet normal -0.692885036 -0.543554934 -0.473770367
    outer loop
      vertex 0.806876605 -1.26055864 1.91350297
      vertex 0.849089708 -1.38188339 1.9909621
      vertex 0.848257923 -1.38159473 1.9918474
    endloop
  endfacet
  facet normal -0.275875457 0.806907303 -0.522296216
    outer loop
      vertex 0.809467125 -1.25899701 1.91454725
      vertex 0.807708389 -1.26084729 1.91261767
      vertex 0.806876605 -1.26055864 1.91350297
    endloop
  endfacet
  facet normal 0.275875457 -0.806907303 0.522296216
    outer loop
      vertex 0.850848444 -1.38003311 1.99289169
      vertex 0.848257923 -1.38159473 1.9918474
      vertex 0.849089708 -1.38188339 1.9909621
    endloop
  endfacet
  facet normal -0.385204167 -0.590651714 -0.709047461
    outer loop
      vertex 0.807708389 -1.26084729 1.91261767
      vertex 0.808807925 -1.26085426 1.91202613
      vertex 0.850189244 -1.38189036 1.99037056
    endloop
  endfacet
  facet normal -0.385204167 -0.590651714 -0.709047461
    outer loop
      vertex 0.807708389 -1.26084729 1.91261767
      vertex 0.850189244 -1.38189036 1.99037056
      vertex 0.849089708 -1.38188339 1.9909621
    endloop
  endfacet
  facet normal -0.275875457 0.806907303 -0.522296216
    outer loop
      vertex 0.809467125 -1.25899701 1.91454725
      vertex 0.808807925 -1.26085426 1.91202613
      vertex 0.807708389 -1.26084729 1.91261767
    endloop
  endfacet
  facet normal 0.275875457 -0.806907303 0.522296216
    outer loop
      vertex 0.850848444 -1.38003311 1.99289169
      vertex 0.849089708 -1.38188339 1.9909621
      vertex 0.850189244 -1.38189036 1.99037056
    endloop
  endfacet
  facet normal -0.0188794554 -0.547827125 -0.836378507
    outer loop
      vertex 0.808807925 -1.26085426 1.91202613
      vertex 0.810007819 -1.26057848 1.91181841
      vertex 0.851389137 -1.38161458 1.99016284
    endloop
  endfacet
  facet normal -0.0188794554 -0.547827125 -0.836378507
    outer loop
      vertex 0.808807925 -1.26085426 1.91202613
      vertex 0.851389137 -1.38161458 1.99016284
      vertex 0.850189244 -1.38189036 1.99037056
    endloop
  endfacet
  facet normal -0.275875457 0.806907303 -0.522296216
    outer loop
      vertex 0.809467125 -1.25899701 1.91454725
      vertex 0.810007819 -1.26057848 1.91181841
      vertex 0.808807925 -1.26085426 1.91202613
    endloop
  endfacet
  facet normal 0.275875457 -0.806907303 0.522296216
    outer loop
      vertex 0.850848444 -1.38003311 1.99289169
      vertex 0.850189244 -1.38189036 1.99037056
      vertex 0.851389137 -1.38161458 1.99016284
    endloop
  endfacet
  facet normal 0.350319482 -0.421600823 -0.836378507
    outer loop
      vertex 0.810007819 -1.26057848 1.91181841
      vertex 0.811125397 -1.26006194 1.91202613
      vertex 0.852506715 -1.38109803 1.99037056
    endloop
  endfacet
  facet normal 0.350319482 -0.421600823 -0.836378507
    outer loop
      vertex 0.810007819 -1.26057848 1.91181841
      vertex 0.852506715 -1.38109803 1.99037056
      vertex 0.851389137 -1.38161458 1.99016284
    endloop
  endfacet
  facet normal -0.275875457 0.806907303 -0.522296216
    outer loop
      vertex 0.809467125 -1.25899701 1.91454725
      vertex 0.811125397 -1.26006194 1.91202613
      vertex 0.810007819 -1.26057848 1.91181841
    endloop
  endfacet
  facet normal 0.275875457 -0.806907303 0.522296216
    outer loop
      vertex 0.850848444 -1.38003311 1.99289169
      vertex 0.851389137 -1.38161458 1.99016284
      vertex 0.852506715 -1.38109803 1.99037056
    endloop
  endfacet
  facet normal 0.666185454 -0.231189616 -0.709047461
    outer loop
      vertex 0.811125397 -1.26006194 1.91202613
      vertex 0.811990518 -1.25938327 1.91261767
      vertex 0.853371836 -1.38041936 1.9909621
    endloop
  endfacet
  facet normal 0.666185454 -0.231189616 -0.709047461
    outer loop
      vertex 0.811125397 -1.26006194 1.91202613
      vertex 0.853371836 -1.38041936 1.9909621
      vertex 0.852506715 -1.38109803 1.99037056
    endloop
  endfacet
  facet normal -0.275875457 0.806907303 -0.522296216
    outer loop
      vertex 0.809467125 -1.25899701 1.91454725
      vertex 0.811990518 -1.25938327 1.91261767
      vertex 0.811125397 -1.26006194 1.91202613
    endloop
  endfacet
  facet normal 0.275875457 -0.806907303 0.522296216
    outer loop
      vertex 0.850848444 -1.38003311 1.99289169
      vertex 0.852506715 -1.38109803 1.99037056
      vertex 0.853371836 -1.38041936 1.9909621
    endloop
  endfacet
  facet normal 0.88063073 -0.00558188672 -0.473770367
    outer loop
      vertex 0.811990518 -1.25938327 1.91261767
      vertex 0.812471475 -1.25864579 1.91350297
      vertex 0.853852794 -1.37968189 1.9918474
    endloop
  endfacet
  facet normal 0.88063073 -0.00558188672 -0.473770367
    outer loop
      vertex 0.811990518 -1.25938327 1.91261767
      vertex 0.853852794 -1.37968189 1.9918474
      vertex 0.853371836 -1.38041936 1.9909621
    endloop
  endfacet
  facet normal -0.275875457 0.806907303 -0.522296216
    outer loop
      vertex 0.809467125 -1.25899701 1.91454725
      vertex 0.812471475 -1.25864579 1.91350297
      vertex 0.811990518 -1.25938327 1.91261767
    endloop
  endfacet
  facet normal 0.275875457 -0.806907303 0.522296216
    outer loop
      vertex 0.850848444 -1.38003311 1.99289169
      vertex 0.853371836 -1.38041936 1.9909621
      vertex 0.853852794 -1.37968189 1.9918474
    endloop
  endfacet
  facet normal 0.96100796 0.220875634 -0.166366029
    outer loop
      vertex 0.812471475 -1.25864579 1.91350297
      vertex 0.812495048 -1.25796179 1.91454725
      vertex 0.853876366 -1.37899788 1.99289169
    endloop
  endfacet
  facet normal 0.96100796 0.220875634 -0.166366029
    outer loop
      vertex 0.812471475 -1.25864579 1.91350297
      vertex 0.853876366 -1.37899788 1.99289169
      vertex 0.853852794 -1.37968189 1.9918474
    endloop
  endfacet
  facet normal -0.275875457 0.806907303 -0.522296216
    outer loop
      vertex 0.809467125 -1.25899701 1.91454725
      vertex 0.812495048 -1.25796179 1.91454725
      vertex 0.812471475 -1.25864579 1.91350297
    endloop
  endfacet
  facet normal 0.275875457 -0.806907303 0.522296216
    outer loop
      vertex 0.850848444 -1.38003311 1.99289169
      vertex 0.853852794 -1.37968189 1.9918474
      vertex 0.853876366 -1.37899788 1.99289169
    endloop
  endfacet
  facet normal 0.895080439 0.413706843 0.166366029
    outer loop
      vertex 0.812495048 -1.25796179 1.91454725
      vertex 0.812057646 -1.25743539 1.91559154
      vertex 0.853438965 -1.37847148 1.99393597
    endloop
  endfacet
  facet normal 0.895080439 0.413706843 0.166366029
    outer loop
      vertex 0.812495048 -1.25796179 1.91454725
      vertex 0.853438965 -1.37847148 1.99393597
      vertex 0.853876366 -1.37899788 1.99289169
    endloop
  endfacet
  facet normal -0.275875457 0.806907303 -0.522296216
    outer loop
      vertex 0.809467125 -1.25899701 1.91454725
      vertex 0.812057646 -1.25743539 1.91559154
      vertex 0.812495048 -1.25796179 1.91454725
    endloop
  endfacet
  facet normal 0.275875457 -0.806907303 0.522296216
    outer loop
      vertex 0.850848444 -1.38003311 1.99289169
      vertex 0.853876366 -1.37899788 1.99289169
      vertex 0.853438965 -1.37847148 1.99393597
    endloop
  endfacet
  facet normal 0.692885036 0.543554934 0.473770367
    outer loop
      vertex 0.812057646 -1.25743539 1.91559154
      vertex 0.811225862 -1.25714673 1.91647684
      vertex 0.85260718 -1.37818282 1.99482127
    endloop
  endfacet
  facet normal 0.692885036 0.543554934 0.473770367
    outer loop
      vertex 0.812057646 -1.25743539 1.91559154
      vertex 0.85260718 -1.37818282 1.99482127
      vertex 0.853438965 -1.37847148 1.99393597
    endloop
  endfacet
  facet normal -0.275875457 0.806907303 -0.522296216
    outer loop
      vertex 0.809467125 -1.25899701 1.91454725
      vertex 0.811225862 -1.25714673 1.91647684
      vertex 0.812057646 -1.25743539 1.91559154
    endloop
  endfacet
  facet normal 0.275875457 -0.806907303 0.522296216
    outer loop
      vertex 0.850848444 -1.38003311 1.99289169
      vertex 0.853438965 -1.37847148 1.99393597
      vertex 0.85260718 -1.37818282 1.99482127
    endloop
  endfacet
  facet normal 0.385204167 0.590651714 0.709047461
    outer loop
      vertex 0.811225862 -1.25714673 1.91647684
      vertex 0.810126326 -1.25713976 1.91706838
      vertex 0.851507644 -1.37817585 1.99541281
    endloop
  endfacet
  facet normal 0.385204167 0.590651714 0.709047461
    outer loop
      vertex 0.811225862 -1.25714673 1.91647684
      vertex 0.851507644 -1.37817585 1.99541281
      vertex 0.85260718 -1.37818282 1.99482127
    endloop
  endfacet
  facet normal -0.275875457 0.806907303 -0.522296216
    outer loop
      vertex 0.809467125 -1.25899701 1.91454725
      vertex 0.810126326 -1.25713976 1.91706838
      vertex 0.811225862 -1.25714673 1.91647684
    endloop
  endfacet
  facet normal 0.275875457 -0.806907303 0.522296216
    outer loop
      vertex 0.850848444 -1.38003311 1.99289169
      vertex 0.85260718 -1.37818282 1.99482127
      vertex 0.851507644 -1.37817585 1.99541281
    endloop
  endfacet
  facet normal 0.0188794554 0.547827125 0.836378507
    outer loop
      vertex 0.810126326 -1.25713976 1.91706838
      vertex 0.808926432 -1.25741554 1.9172761
      vertex 0.850307751 -1.37845163 1.99562053
    endloop
  endfacet
  facet normal 0.0188794554 0.547827125 0.836378507
    outer loop
      vertex 0.810126326 -1.25713976 1.91706838
      vertex 0.850307751 -1.37845163 1.99562053
      vertex 0.851507644 -1.37817585 1.99541281
    endloop
  endfacet
  facet normal -0.275875457 0.806907303 -0.522296216
    outer loop
      vertex 0.809467125 -1.25899701 1.91454725
      vertex 0.808926432 -1.25741554 1.9172761
      vertex 0.810126326 -1.25713976 1.91706838
    endloop
  endfacet
  facet normal 0.275875457 -0.806907303 0.522296216
    outer loop
      vertex 0.850848444 -1.38003311 1.99289169
      vertex 0.851507644 -1.37817585 1.99541281
      vertex 0.850307751 -1.37845163 1.99562053
    endloop
  endfacet
  facet normal -0.350319482 0.421600823 0.836378507
    outer loop
      vertex 0.808926432 -1.25741554 1.9172761
      vertex 0.807808854 -1.25793208 1.91706838
      vertex 0.849190173 -1.37896818 1.99541281
    endloop
  endfacet
  facet normal -0.350319482 0.421600823 0.836378507
    outer loop
      vertex 0.808926432 -1.25741554 1.9172761
      vertex 0.849190173 -1.37896818 1.99541281
      vertex 0.850307751 -1.37845163 1.99562053
    endloop
  endfacet
  facet normal -0.275875457 0.806907303 -0.522296216
    outer loop
      vertex 0.809467125 -1.25899701 1.91454725
      vertex 0.807808854 -1.25793208 1.91706838
      vertex 0.808926432 -1.25741554 1.9172761
    endloop
  endfacet
  facet normal 0.275875457 -0.806907303 0.522296216
    outer loop
      vertex 0.850848444 -1.38003311 1.99289169
      vertex 0.850307751 -1.37845163 1.99562053
      vertex 0.849190173 -1.37896818 1.99541281
    endloop
  endfacet
  facet normal -0.666185454 0.231189616 0.709047461
    outer loop
      vertex 0.807808854 -1.25793208 1.91706838
      vertex 0.806943733 -1.25861075 1.91647684
      vertex 0.848325052 -1.37964685 1.99482127
    endloop
  endfacet
  facet normal -0.666185454 0.231189616 0.709047461
    outer loop
      vertex 0.807808854 -1.25793208 1.91706838
      vertex 0.848325052 -1.37964685 1.99482127
      vertex 0.849190173 -1.37896818 1.99541281
    endloop
  endfacet
  facet normal -0.275875457 0.806907303 -0.522296216
    outer loop
      vertex 0.809467125 -1.25899701 1.91454725
      vertex 0.806943733 -1.25861075 1.91647684
      vertex 0.807808854 -1.25793208 1.91706838
    endloop
  endfacet
  facet normal 0.275875457 -0.806907303 0.522296216
    outer loop
      vertex 0.850848444 -1.38003311 1.99289169
      vertex 0.849190173 -1.37896818 1.99541281
      vertex 0.848325052 -1.37964685 1.99482127
    endloop
  endfacet
  facet normal -0.88063073 0.00558188672 0.473770367
    outer loop
      vertex 0.806943733 -1.25861075 1.91647684
      vertex 0.806462776 -1.25934823 1.91559154
      vertex 0.847844094 -1.38038432 1.99393597
    endloop
  endfacet
  facet normal -0.88063073 0.00558188672 0.473770367
    outer loop
      vertex 0.806943733 -1.25861075 1.91647684
      vertex 0.847844094 -1.38038432 1.99393597
      vertex 0.848325052 -1.37964685 1.99482127
    endloop
  endfacet
  facet normal -0.275875457 0.806907303 -0.522296216
    outer loop
      vertex 0.809467125 -1.25899701 1.91454725
      vertex 0.806462776 -1.25934823 1.91559154
      vertex 0.806943733 -1.25861075 1.91647684
    endloop
  endfacet
  facet normal 0.275875457 -0.806907303 0.522296216
    outer loop
      vertex 0.850848444 -1.38003311 1.99289169
      vertex 0.848325052 -1.37964685 1.99482127
      vertex 0.847844094 -1.38038432 1.99393597
    endloop
  endfacet
  facet normal -0.96100796 -0.220875634 0.166366029
    outer loop
      vertex 0.806462776 -1.25934823 1.91559154
      vertex 0.806439203 -1.26003223 1.91454725
      vertex 0.847820522 -1.38106833 1.99289169
    endloop
  endfacet
  facet normal -0.96100796 -0.220875634 0.166366029
    outer loop
      vertex 0.806462776 -1.25934823 1.91559154
      vertex 0.847820522 -1.38106833 1.99289169
      vertex 0.847844094 -1.38038432 1.99393597
    endloop
  endfacet
  facet normal -0.275875457 0.806907303 -0.522296216
    outer loop
      vertex 0.809467125 -1.25899701 1.91454725
      vertex 0.806439203 -1.26003223 1.91454725
      vertex 0.806462776 -1.25934823 1.91559154
    endloop
  endfacet
  facet normal 0.275875457 -0.806907303 0.522296216
    outer loop
      vertex 0.850848444 -1.38003311 1.99289169
      vertex 0.847844094 -1.38038432 1.99393597
      vertex 0.847820522 -1.38106833 1.99289169
    endloop
  endfacet
  facet normal 0.446436911 0.885300455 -0.130142955
    outer loop
      vertex 0.914359292 -1.18845919 1.91221575
      vertex 0.913473351 -1.18813252 1.91139883
      vertex 0.853503747 -1.14584459 1.99334624
    endloop
  endfacet
  facet normal 0.446436911 0.885300455 -0.130142955
    outer loop
      vertex 0.914359292 -1.18845919 1.91221575
      vertex 0.853503747 -1.14584459 1.99334624
      vertex 0.854389688 -1.14617126 1.99416315
    endloop
  endfacet
  facet normal 0.545178217 -0.384435715 -0.744976437
    outer loop
      vertex 0.912515173 -1.19107438 1.91221575
      vertex 0.913473351 -1.18813252 1.91139883
      vertex 0.914359292 -1.18845919 1.91221575
    endloop
  endfacet
  facet normal -0.545178217 0.384435715 0.744976437
    outer loop
      vertex 0.852545569 -1.14878646 1.99416315
      vertex 0.854389688 -1.14617126 1.99416315
      vertex 0.853503747 -1.14584459 1.99334624
    endloop
  endfacet
  facet normal 0.140917229 0.91803392 -0.37061578
    outer loop
      vertex 0.913473351 -1.18813252 1.91139883
      vertex 0.912441537 -1.18825372 1.91070629
      vertex 0.852471933 -1.1459658 1.9926537
    endloop
  endfacet
  facet normal 0.140917229 0.91803392 -0.37061578
    outer loop
      vertex 0.913473351 -1.18813252 1.91139883
      vertex 0.852471933 -1.1459658 1.9926537
      vertex 0.853503747 -1.14584459 1.99334624
    endloop
  endfacet
  facet normal 0.545178217 -0.384435715 -0.744976437
    outer loop
      vertex 0.912515173 -1.19107438 1.91221575
      vertex 0.912441537 -1.18825372 1.91070629
      vertex 0.913473351 -1.18813252 1.91139883
    endloop
  endfacet
  facet normal -0.545178217 0.384435715 0.744976437
    outer loop
      vertex 0.852545569 -1.14878646 1.99416315
      vertex 0.853503747 -1.14584459 1.99334624
      vertex 0.852471933 -1.1459658 1.9926537
    endloop
  endfacet
  facet normal -0.186055823 0.811005043 -0.554665712
    outer loop
      vertex 0.912441537 -1.18825372 1.91070629
      vertex 0.911420933 -1.18880435 1.91024355
      vertex 0.851451329 -1.14651642 1.99219096
    endloop
  endfacet
  facet normal -0.186055823 0.811005043 -0.554665712
    outer loop
      vertex 0.912441537 -1.18825372 1.91070629
      vertex 0.851451329 -1.14651642 1.99219096
      vertex 0.852471933 -1.1459658 1.9926537
    endloop
  endfacet
  facet normal 0.545178217 -0.384435715 -0.744976437
    outer loop
      vertex 0.912515173 -1.19107438 1.91221575
      vertex 0.911420933 -1.18880435 1.91024355
      vertex 0.912441537 -1.18825372 1.91070629
    endloop
  endfacet
  facet normal -0.545178217 0.384435715 0.744976437
    outer loop
      vertex 0.852545569 -1.14878646 1.99416315
      vertex 0.852471933 -1.1459658 1.9926537
      vertex 0.851451329 -1.14651642 1.99219096
    endloop
  endfacet
  facet normal -0.484703563 0.580507999 -0.654272817
    outer loop
      vertex 0.911420933 -1.18880435 1.91024355
      vertex 0.910566917 -1.18970056 1.91008106
      vertex 0.850597313 -1.14741263 1.99202846
    endloop
  endfacet
  facet normal -0.484703563 0.580507999 -0.654272817
    outer loop
      vertex 0.911420933 -1.18880435 1.91024355
      vertex 0.850597313 -1.14741263 1.99202846
      vertex 0.851451329 -1.14651642 1.99219096
    endloop
  endfacet
  facet normal 0.545178217 -0.384435715 -0.744976437
    outer loop
      vertex 0.912515173 -1.19107438 1.91221575
      vertex 0.910566917 -1.18970056 1.91008106
      vertex 0.911420933 -1.18880435 1.91024355
    endloop
  endfacet
  facet normal -0.545178217 0.384435715 0.744976437
    outer loop
      vertex 0.852545569 -1.14878646 1.99416315
      vertex 0.851451329 -1.14651642 1.99219096
      vertex 0.850597313 -1.14741263 1.99202846
    endloop
  endfacet
  facet normal -0.709559579 0.261633875 -0.654272817
    outer loop
      vertex 0.910566917 -1.18970056 1.91008106
      vertex 0.910009506 -1.19080593 1.91024355
      vertex 0.850039902 -1.148518 1.99219096
    endloop
  endfacet
  facet normal -0.709559579 0.261633875 -0.654272817
    outer loop
      vertex 0.910566917 -1.18970056 1.91008106
      vertex 0.850039902 -1.148518 1.99219096
      vertex 0.850597313 -1.14741263 1.99202846
    endloop
  endfacet
  facet normal 0.545178217 -0.384435715 -0.744976437
    outer loop
      vertex 0.912515173 -1.19107438 1.91221575
      vertex 0.910009506 -1.19080593 1.91024355
      vertex 0.910566917 -1.18970056 1.91008106
    endloop
  endfacet
  facet normal -0.545178217 0.384435715 0.744976437
    outer loop
      vertex 0.852545569 -1.14878646 1.99416315
      vertex 0.850597313 -1.14741263 1.99202846
      vertex 0.850039902 -1.148518 1.99219096
    endloop
  endfacet
  facet normal -0.826391582 -0.0970716346 -0.554665712
    outer loop
      vertex 0.910009506 -1.19080593 1.91024355
      vertex 0.90983356 -1.19195216 1.91070629
      vertex 0.849863956 -1.14966423 1.9926537
    endloop
  endfacet
  facet normal -0.826391582 -0.0970716346 -0.554665712
    outer loop
      vertex 0.910009506 -1.19080593 1.91024355
      vertex 0.849863956 -1.14966423 1.9926537
      vertex 0.850039902 -1.148518 1.99219096
    endloop
  endfacet
  facet normal 0.545178217 -0.384435715 -0.744976437
    outer loop
      vertex 0.912515173 -1.19107438 1.91221575
      vertex 0.90983356 -1.19195216 1.91070629
      vertex 0.910009506 -1.19080593 1.91024355
    endloop
  endfacet
  facet normal -0.545178217 0.384435715 0.744976437
    outer loop
      vertex 0.852545569 -1.14878646 1.99416315
      vertex 0.850039902 -1.148518 1.99219096
      vertex 0.849863956 -1.14966423 1.9926537
    endloop
  endfacet
  facet normal -0.817412957 -0.440998868 -0.37061578
    outer loop
      vertex 0.90983356 -1.19195216 1.91070629
      vertex 0.910065865 -1.19296477 1.91139883
      vertex 0.850096261 -1.15067684 1.99334624
    endloop
  endfacet
  facet normal -0.817412957 -0.440998868 -0.37061578
    outer loop
      vertex 0.90983356 -1.19195216 1.91070629
      vertex 0.850096261 -1.15067684 1.99334624
      vertex 0.849863956 -1.14966423 1.9926537
    endloop
  endfacet
  facet normal 0.545178217 -0.384435715 -0.744976437
    outer loop
      vertex 0.912515173 -1.19107438 1.91221575
      vertex 0.910065865 -1.19296477 1.91139883
      vertex 0.90983356 -1.19195216 1.91070629
    endloop
  endfacet
  facet normal -0.545178217 0.384435715 0.744976437
    outer loop
      vertex 0.852545569 -1.14878646 1.99416315
      vertex 0.849863956 -1.14966423 1.9926537
      vertex 0.850096261 -1.15067684 1.99334624
    endloop
  endfacet
  facet normal -0.68399062 -0.717788021 -0.130142955
    outer loop
      vertex 0.910065865 -1.19296477 1.91139883
      vertex 0.910671055 -1.19368958 1.91221575
      vertex 0.850701451 -1.15140165 1.99416315
    endloop
  endfacet
  facet normal -0.68399062 -0.717788021 -0.130142955
    outer loop
      vertex 0.910065865 -1.19296477 1.91139883
      vertex 0.850701451 -1.15140165 1.99416315
      vertex 0.850096261 -1.15067684 1.99334624
    endloop
  endfacet
  facet normal 0.545178217 -0.384435715 -0.744976437
    outer loop
      vertex 0.912515173 -1.19107438 1.91221575
      vertex 0.910671055 -1.19368958 1.91221575
      vertex 0.910065865 -1.19296477 1.91139883
    endloop
  endfacet
  facet normal -0.545178217 0.384435715 0.744976437
    outer loop
      vertex 0.852545569 -1.14878646 1.99416315
      vertex 0.850096261 -1.15067684 1.99334624
      vertex 0.850701451 -1.15140165 1.99416315
    endloop
  endfacet
  facet normal -0.446436911 -0.885300455 0.130142955
    outer loop
      vertex 0.910671055 -1.19368958 1.91221575
      vertex 0.911556996 -1.19401625 1.91303266
      vertex 0.851587392 -1.15172832 1.99498006
    endloop
  endfacet
  facet normal -0.446436911 -0.885300455 0.130142955
    outer loop
      vertex 0.910671055 -1.19368958 1.91221575
      vertex 0.851587392 -1.15172832 1.99498006
      vertex 0.850701451 -1.15140165 1.99416315
    endloop
  endfacet
  facet normal 0.545178217 -0.384435715 -0.744976437
    outer loop
      vertex 0.912515173 -1.19107438 1.91221575
      vertex 0.911556996 -1.19401625 1.91303266
      vertex 0.910671055 -1.19368958 1.91221575
    endloop
  endfacet
  facet normal -0.545178217 0.384435715 0.744976437
    outer loop
      vertex 0.852545569 -1.14878646 1.99416315
      vertex 0.850701451 -1.15140165 1.99416315
      vertex 0.851587392 -1.15172832 1.99498006
    endloop
  endfacet
  facet normal -0.140917229 -0.91803392 0.37061578
    outer loop
      vertex 0.911556996 -1.19401625 1.91303266
      vertex 0.91258881 -1.19389505 1.9137252
      vertex 0.852619206 -1.15160712 1.99567261
    endloop
  endfacet
  facet normal -0.140917229 -0.91803392 0.37061578
    outer loop
      vertex 0.911556996 -1.19401625 1.91303266
      vertex 0.852619206 -1.15160712 1.99567261
      vertex 0.851587392 -1.15172832 1.99498006
    endloop
  endfacet
  facet normal 0.545178217 -0.384435715 -0.744976437
    outer loop
      vertex 0.912515173 -1.19107438 1.91221575
      vertex 0.91258881 -1.19389505 1.9137252
      vertex 0.911556996 -1.19401625 1.91303266
    endloop
  endfacet
  facet normal -0.545178217 0.384435715 0.744976437
    outer loop
      vertex 0.852545569 -1.14878646 1.99416315
      vertex 0.851587392 -1.15172832 1.99498006
      vertex 0.852619206 -1.15160712 1.99567261
    endloop
  endfacet
  facet normal 0.186055823 -0.811005043 0.554665712
    outer loop
      vertex 0.91258881 -1.19389505 1.9137252
      vertex 0.913609414 -1.19334442 1.91418794
      vertex 0.85363981 -1.15105649 1.99613535
    endloop
  endfacet
  facet normal 0.186055823 -0.811005043 0.554665712
    outer loop
      vertex 0.91258881 -1.19389505 1.9137252
      vertex 0.85363981 -1.15105649 1.99613535
      vertex 0.852619206 -1.15160712 1.99567261
    endloop
  endfacet
  facet normal 0.545178217 -0.384435715 -0.744976437
    outer loop
      vertex 0.912515173 -1.19107438 1.91221575
      vertex 0.913609414 -1.19334442 1.91418794
      vertex 0.91258881 -1.19389505 1.9137252
    endloop
  endfacet
  facet normal -0.545178217 0.384435715 0.744976437
    outer loop
      vertex 0.852545569 -1.14878646 1.99416315
      vertex 0.852619206 -1.15160712 1.99567261
      vertex 0.85363981 -1.15105649 1.99613535
    endloop
  endfacet
  facet normal 0.484703563 -0.580507999 0.654272817
    outer loop
      vertex 0.913609414 -1.19334442 1.91418794
      vertex 0.91446343 -1.19244821 1.91435044
      vertex 0.854493826 -1.15016028 1.99629784
    endloop
  endfacet
  facet normal 0.484703563 -0.580507999 0.654272817
    outer loop
      vertex 0.913609414 -1.19334442 1.91418794
      vertex 0.854493826 -1.15016028 1.99629784
      vertex 0.85363981 -1.15105649 1.99613535
    endloop
  endfacet
  facet normal 0.545178217 -0.384435715 -0.744976437
    outer loop
      vertex 0.912515173 -1.19107438 1.91221575
      vertex 0.91446343 -1.19244821 1.91435044
      vertex 0.913609414 -1.19334442 1.91418794
    endloop
  endfacet
  facet normal -0.545178217 0.384435715 0.744976437
    outer loop
      vertex 0.852545569 -1.14878646 1.99416315
      vertex 0.85363981 -1.15105649 1.99613535
      vertex 0.854493826 -1.15016028 1.99629784
    endloop
  endfacet
  facet normal 0.709559579 -0.261633875 0.654272817
    outer loop
      vertex 0.91446343 -1.19244821 1.91435044
      vertex 0.915020841 -1.19134284 1.91418794
      vertex 0.855051237 -1.14905491 1.99613535
    endloop
  endfacet
  facet normal 0.709559579 -0.261633875 0.654272817
    outer loop
      vertex 0.91446343 -1.19244821 1.91435044
      vertex 0.855051237 -1.14905491 1.99613535
      vertex 0.854493826 -1.15016028 1.99629784
    endloop
  endfacet
  facet normal 0.545178217 -0.384435715 -0.744976437
    outer loop
      vertex 0.912515173 -1.19107438 1.91221575
      vertex 0.915020841 -1.19134284 1.91418794
      vertex 0.91446343 -1.19244821 1.91435044
    endloop
  endfacet
  facet normal -0.545178217 0.384435715 0.744976437
    outer loop
      vertex 0.852545569 -1.14878646 1.99416315
      vertex 0.854493826 -1.15016028 1.99629784
      vertex 0.855051237 -1.14905491 1.99613535
    endloop
  endfacet
  facet normal 0.826391582 0.0970716346 0.554665712
    outer loop
      vertex 0.915020841 -1.19134284 1.91418794
      vertex 0.915196787 -1.19019661 1.9137252
      vertex 0.855227183 -1.14790868 1.99567261
    endloop
  endfacet
  facet normal 0.826391582 0.0970716346 0.554665712
    outer loop
      vertex 0.915020841 -1.19134284 1.91418794
      vertex 0.855227183 -1.14790868 1.99567261
      vertex 0.855051237 -1.14905491 1.99613535
    endloop
  endfacet
  facet normal 0.545178217 -0.384435715 -0.744976437
    outer loop
      vertex 0.912515173 -1.19107438 1.91221575
      vertex 0.915196787 -1.19019661 1.9137252
      vertex 0.915020841 -1.19134284 1.91418794
    endloop
  endfacet
  facet normal -0.545178217 0.384435715 0.744976437
    outer loop
      vertex 0.852545569 -1.14878646 1.99416315
      vertex 0.855051237 -1.14905491 1.99613535
      vertex 0.855227183 -1.14790868 1.99567261
    endloop
  endfacet
  facet normal 0.817412957 0.440998868 0.37061578
    outer loop
      vertex 0.915196787 -1.19019661 1.9137252
      vertex 0.914964482 -1.189184 1.91303266
      vertex 0.854994878 -1.14689607 1.99498006
    endloop
  endfacet
  facet normal 0.817412957 0.440998868 0.37061578
    outer loop
      vertex 0.915196787 -1.19019661 1.9137252
      vertex 0.854994878 -1.14689607 1.99498006
      vertex 0.855227183 -1.14790868 1.99567261
    endloop
  endfacet
  facet normal 0.545178217 -0.384435715 -0.744976437
    outer loop
      vertex 0.912515173 -1.19107438 1.91221575
      vertex 0.914964482 -1.189184 1.91303266
      vertex 0.915196787 -1.19019661 1.9137252
    endloop
  endfacet
  facet normal -0.545178217 0.384435715 0.744976437
    outer loop
      vertex 0.852545569 -1.14878646 1.99416315
      vertex 0.855227183 -1.14790868 1.99567261
      vertex 0.854994878 -1.14689607 1.99498006
    endloop
  endfacet
  facet normal 0.68399062 0.717788021 0.130142955
    outer loop
      vertex 0.914964482 -1.189184 1.91303266
      vertex 0.914359292 -1.18845919 1.91221575
      vertex 0.854389688 -1.14617126 1.99416315
    endloop
  endfacet
  facet normal 0.68399062 0.717788021 0.130142955
    outer loop
      vertex 0.914964482 -1.189184 1.91303266
      vertex 0.854389688 -1.14617126 1.99416315
      vertex 0.854994878 -1.14689607 1.99498006
    endloop
  endfacet
  facet normal 0.545178217 -0.384435715 -0.744976437
    outer loop
      vertex 0.912515173 -1.19107438 1.91221575
      vertex 0.914359292 -1.18845919 1.91221575
      vertex 0.914964482 -1.189184 1.91303266
    endloop
  endfacet
  facet normal -0.545178217 0.384435715 0.744976437
    outer loop
      vertex 0.852545569 -1.14878646 1.99416315
      vertex 0.854994878 -1.14689607 1.99498006
      vertex 0.854389688 -1.14617126 1.99416315
    endloop
  endfacet
  facet normal 0.446436911 0.885300455 -0.130142955
    outer loop
      vertex 0.917639136 -1.213913 1.92775107
      vertex 0.916753196 -1.21358633 1.92693416
      vertex 0.856783592 -1.1712984 2.00888157
    endloop
  endfacet
  facet normal 0.446436911 0.885300455 -0.130142955
    outer loop
      vertex 0.917639136 -1.213913 1.92775107
      vertex 0.856783592 -1.1712984 2.00888157
      vertex 0.857669532 -1.17162507 2.00969848
    endloop
  endfacet
  facet normal 0.545178217 -0.384435715 -0.744976437
    outer loop
      vertex 0.915795018 -1.21652819 1.92775107
      vertex 0.916753196 -1.21358633 1.92693416
      vertex 0.917639136 -1.213913 1.92775107
    endloop
  endfacet
  facet normal -0.545178217 0.384435715 0.744976437
    outer loop
      vertex 0.855825414 -1.17424026 2.00969848
      vertex 0.857669532 -1.17162507 2.00969848
      vertex 0.856783592 -1.1712984 2.00888157
    endloop
  endfacet
  facet normal 0.140917229 0.91803392 -0.37061578
    outer loop
      vertex 0.916753196 -1.21358633 1.92693416
      vertex 0.915721381 -1.21370753 1.92624162
      vertex 0.855751777 -1.1714196 2.00818903
    endloop
  endfacet
  facet normal 0.140917229 0.91803392 -0.37061578
    outer loop
      vertex 0.916753196 -1.21358633 1.92693416
      vertex 0.855751777 -1.1714196 2.00818903
      vertex 0.856783592 -1.1712984 2.00888157
    endloop
  endfacet
  facet normal 0.545178217 -0.384435715 -0.744976437
    outer loop
      vertex 0.915795018 -1.21652819 1.92775107
      vertex 0.915721381 -1.21370753 1.92624162
      vertex 0.916753196 -1.21358633 1.92693416
    endloop
  endfacet
  facet normal -0.545178217 0.384435715 0.744976437
    outer loop
      vertex 0.855825414 -1.17424026 2.00969848
      vertex 0.856783592 -1.1712984 2.00888157
      vertex 0.855751777 -1.1714196 2.00818903
    endloop
  endfacet
  facet normal -0.186055823 0.811005043 -0.554665712
    outer loop
      vertex 0.915721381 -1.21370753 1.92624162
      vertex 0.914700777 -1.21425815 1.92577888
      vertex 0.854731173 -1.17197022 2.00772628
    endloop
  endfacet
  facet normal -0.186055823 0.811005043 -0.554665712
    outer loop
      vertex 0.915721381 -1.21370753 1.92624162
      vertex 0.854731173 -1.17197022 2.00772628
      vertex 0.855751777 -1.1714196 2.00818903
    endloop
  endfacet
  facet normal 0.545178217 -0.384435715 -0.744976437
    outer loop
      vertex 0.915795018 -1.21652819 1.92775107
      vertex 0.914700777 -1.21425815 1.92577888
      vertex 0.915721381 -1.21370753 1.92624162
    endloop
  endfacet
  facet normal -0.545178217 0.384435715 0.744976437
    outer loop
      vertex 0.855825414 -1.17424026 2.00969848
      vertex 0.855751777 -1.1714196 2.00818903
      vertex 0.854731173 -1.17197022 2.00772628
    endloop
  endfacet
  facet normal -0.484703563 0.580507999 -0.654272817
    outer loop
      vertex 0.914700777 -1.21425815 1.92577888
      vertex 0.913846762 -1.21515437 1.92561638
      vertex 0.853877158 -1.17286644 2.00756379
    endloop
  endfacet
  facet normal -0.484703563 0.580507999 -0.654272817
    outer loop
      vertex 0.914700777 -1.21425815 1.92577888
      vertex 0.853877158 -1.17286644 2.00756379
      vertex 0.854731173 -1.17197022 2.00772628
    endloop
  endfacet
  facet normal 0.545178217 -0.384435715 -0.744976437
    outer loop
      vertex 0.915795018 -1.21652819 1.92775107
      vertex 0.913846762 -1.21515437 1.92561638
      vertex 0.914700777 -1.21425815 1.92577888
    endloop
  endfacet
  facet normal -0.545178217 0.384435715 0.744976437
    outer loop
      vertex 0.855825414 -1.17424026 2.00969848
      vertex 0.854731173 -1.17197022 2.00772628
      vertex 0.853877158 -1.17286644 2.00756379
    endloop
  endfacet
  facet normal -0.709559579 0.261633875 -0.654272817
    outer loop
      vertex 0.913846762 -1.21515437 1.92561638
      vertex 0.91328935 -1.21625973 1.92577888
      vertex 0.853319746 -1.1739718 2.00772628
    endloop
  endfacet
  facet normal -0.709559579 0.261633875 -0.654272817
    outer loop
      vertex 0.913846762 -1.21515437 1.92561638
      vertex 0.853319746 -1.1739718 2.00772628
      vertex 0.853877158 -1.17286644 2.00756379
    endloop
  endfacet
  facet normal 0.545178217 -0.384435715 -0.744976437
    outer loop
      vertex 0.915795018 -1.21652819 1.92775107
      vertex 0.91328935 -1.21625973 1.92577888
      vertex 0.913846762 -1.21515437 1.92561638
    endloop
  endfacet
  facet normal -0.545178217 0.384435715 0.744976437
    outer loop
      vertex 0.855825414 -1.17424026 2.00969848
      vertex 0.853877158 -1.17286644 2.00756379
      vertex 0.853319746 -1.1739718 2.00772628
    endloop
  endfacet
  facet normal -0.826391582 -0.0970716346 -0.554665712
    outer loop
      vertex 0.91328935 -1.21625973 1.92577888
      vertex 0.913113404 -1.21740597 1.92624162
      vertex 0.8531438 -1.17511804 2.00818903
    endloop
  endfacet
  facet normal -0.826391582 -0.0970716346 -0.554665712
    outer loop
      vertex 0.91328935 -1.21625973 1.92577888
      vertex 0.8531438 -1.17511804 2.00818903
      vertex 0.853319746 -1.1739718 2.00772628
    endloop
  endfacet
  facet normal 0.545178217 -0.384435715 -0.744976437
    outer loop
      vertex 0.915795018 -1.21652819 1.92775107
      vertex 0.913113404 -1.21740597 1.92624162
      vertex 0.91328935 -1.21625973 1.92577888
    endloop
  endfacet
  facet normal -0.545178217 0.384435715 0.744976437
    outer loop
      vertex 0.855825414 -1.17424026 2.00969848
      vertex 0.853319746 -1.1739718 2.00772628
      vertex 0.8531438 -1.17511804 2.00818903
    endloop
  endfacet
  facet normal -0.817412957 -0.440998868 -0.37061578
    outer loop
      vertex 0.913113404 -1.21740597 1.92624162
      vertex 0.913345709 -1.21841857 1.92693416
      vertex 0.853376105 -1.17613064 2.00888157
    endloop
  endfacet
  facet normal -0.817412957 -0.440998868 -0.37061578
    outer loop
      vertex 0.913113404 -1.21740597 1.92624162
      vertex 0.853376105 -1.17613064 2.00888157
      vertex 0.8531438 -1.17511804 2.00818903
    endloop
  endfacet
  facet normal 0.545178217 -0.384435715 -0.744976437
    outer loop
      vertex 0.915795018 -1.21652819 1.92775107
      vertex 0.913345709 -1.21841857 1.92693416
      vertex 0.913113404 -1.21740597 1.92624162
    endloop
  endfacet
  facet normal -0.545178217 0.384435715 0.744976437
    outer loop
      vertex 0.855825414 -1.17424026 2.00969848
      vertex 0.8531438 -1.17511804 2.00818903
      vertex 0.853376105 -1.17613064 2.00888157
    endloop
  endfacet
  facet normal -0.68399062 -0.717788021 -0.130142955
    outer loop
      vertex 0.913345709 -1.21841857 1.92693416
      vertex 0.9139509 -1.21914338 1.92775107
      vertex 0.853981296 -1.17685545 2.00969848
    endloop
  endfacet
  facet normal -0.68399062 -0.717788021 -0.130142955
    outer loop
      vertex 0.913345709 -1.21841857 1.92693416
      vertex 0.853981296 -1.17685545 2.00969848
      vertex 0.853376105 -1.17613064 2.00888157
    endloop
  endfacet
  facet normal 0.545178217 -0.384435715 -0.744976437
    outer loop
      vertex 0.915795018 -1.21652819 1.92775107
      vertex 0.9139509 -1.21914338 1.92775107
      vertex 0.913345709 -1.21841857 1.92693416
    endloop
  endfacet
  facet normal -0.545178217 0.384435715 0.744976437
    outer loop
      vertex 0.855825414 -1.17424026 2.00969848
      vertex 0.853376105 -1.17613064 2.00888157
      vertex 0.853981296 -1.17685545 2.00969848
    endloop
  endfacet
  facet normal -0.446436911 -0.885300455 0.130142955
    outer loop
      vertex 0.9139509 -1.21914338 1.92775107
      vertex 0.91483684 -1.21947005 1.92856798
      vertex 0.854867236 -1.17718212 2.01051539
    endloop
  endfacet
  facet normal -0.446436911 -0.885300455 0.130142955
    outer loop
      vertex 0.9139509 -1.21914338 1.92775107
      vertex 0.854867236 -1.17718212 2.01051539
      vertex 0.853981296 -1.17685545 2.00969848
    endloop
  endfacet
  facet normal 0.545178217 -0.384435715 -0.744976437
    outer loop
      vertex 0.915795018 -1.21652819 1.92775107
      vertex 0.91483684 -1.21947005 1.92856798
      vertex 0.9139509 -1.21914338 1.92775107
    endloop
  endfacet
  facet normal -0.545178217 0.384435715 0.744976437
    outer loop
      vertex 0.855825414 -1.17424026 2.00969848
      vertex 0.853981296 -1.17685545 2.00969848
      vertex 0.854867236 -1.17718212 2.01051539
    endloop
  endfacet
  facet normal -0.140917229 -0.91803392 0.37061578
    outer loop
      vertex 0.91483684 -1.21947005 1.92856798
      vertex 0.915868654 -1.21934885 1.92926053
      vertex 0.855899051 -1.17706092 2.01120793
    endloop
  endfacet
  facet normal -0.140917229 -0.91803392 0.37061578
    outer loop
      vertex 0.91483684 -1.21947005 1.92856798
      vertex 0.855899051 -1.17706092 2.01120793
      vertex 0.854867236 -1.17718212 2.01051539
    endloop
  endfacet
  facet normal 0.545178217 -0.384435715 -0.744976437
    outer loop
      vertex 0.915795018 -1.21652819 1.92775107
      vertex 0.915868654 -1.21934885 1.92926053
      vertex 0.91483684 -1.21947005 1.92856798
    endloop
  endfacet
  facet normal -0.545178217 0.384435715 0.744976437
    outer loop
      vertex 0.855825414 -1.17424026 2.00969848
      vertex 0.854867236 -1.17718212 2.01051539
      vertex 0.855899051 -1.17706092 2.01120793
    endloop
  endfacet
  facet normal 0.186055823 -0.811005043 0.554665712
    outer loop
      vertex 0.915868654 -1.21934885 1.92926053
      vertex 0.916889258 -1.21879823 1.92972327
      vertex 0.856919654 -1.1765103 2.01167068
    endloop
  endfacet
  facet normal 0.186055823 -0.811005043 0.554665712
    outer loop
      vertex 0.915868654 -1.21934885 1.92926053
      vertex 0.856919654 -1.1765103 2.01167068
      vertex 0.855899051 -1.17706092 2.01120793
    endloop
  endfacet
  facet normal 0.545178217 -0.384435715 -0.744976437
    outer loop
      vertex 0.915795018 -1.21652819 1.92775107
      vertex 0.916889258 -1.21879823 1.92972327
      vertex 0.915868654 -1.21934885 1.92926053
    endloop
  endfacet
  facet normal -0.545178217 0.384435715 0.744976437
    outer loop
      vertex 0.855825414 -1.17424026 2.00969848
      vertex 0.855899051 -1.17706092 2.01120793
      vertex 0.856919654 -1.1765103 2.01167068
    endloop
  endfacet
  facet normal 0.484703563 -0.580507999 0.654272817
    outer loop
      vertex 0.916889258 -1.21879823 1.92972327
      vertex 0.917743274 -1.21790202 1.92988576
      vertex 0.85777367 -1.17561409 2.01183317
    endloop
  endfacet
  facet normal 0.484703563 -0.580507999 0.654272817
    outer loop
      vertex 0.916889258 -1.21879823 1.92972327
      vertex 0.85777367 -1.17561409 2.01183317
      vertex 0.856919654 -1.1765103 2.01167068
    endloop
  endfacet
  facet normal 0.545178217 -0.384435715 -0.744976437
    outer loop
      vertex 0.915795018 -1.21652819 1.92775107
      vertex 0.917743274 -1.21790202 1.92988576
      vertex 0.916889258 -1.21879823 1.92972327
    endloop
  endfacet
  facet normal -0.545178217 0.384435715 0.744976437
    outer loop
      vertex 0.855825414 -1.17424026 2.00969848
      vertex 0.856919654 -1.1765103 2.01167068
      vertex 0.85777367 -1.17561409 2.01183317
    endloop
  endfacet
  facet normal 0.709559579 -0.261633875 0.654272817
    outer loop
      vertex 0.917743274 -1.21790202 1.92988576
      vertex 0.918300685 -1.21679665 1.92972327
      vertex 0.858331081 -1.17450872 2.01167068
    endloop
  endfacet
  facet normal 0.709559579 -0.261633875 0.654272817
    outer loop
      vertex 0.917743274 -1.21790202 1.92988576
      vertex 0.858331081 -1.17450872 2.01167068
      vertex 0.85777367 -1.17561409 2.01183317
    endloop
  endfacet
  facet normal 0.545178217 -0.384435715 -0.744976437
    outer loop
      vertex 0.915795018 -1.21652819 1.92775107
      vertex 0.918300685 -1.21679665 1.92972327
      vertex 0.917743274 -1.21790202 1.92988576
    endloop
  endfacet
  facet normal -0.545178217 0.384435715 0.744976437
    outer loop
      vertex 0.855825414 -1.17424026 2.00969848
      vertex 0.85777367 -1.17561409 2.01183317
      vertex 0.858331081 -1.17450872 2.01167068
    endloop
  endfacet
  facet normal 0.826391582 0.0970716346 0.554665712
    outer loop
      vertex 0.918300685 -1.21679665 1.92972327
      vertex 0.918476632 -1.21565041 1.92926053
      vertex 0.858507028 -1.17336248 2.01120793
    endloop
  endfacet
  facet normal 0.826391582 0.0970716346 0.554665712
    outer loop
      vertex 0.918300685 -1.21679665 1.92972327
      vertex 0.858507028 -1.17336248 2.01120793
      vertex 0.858331081 -1.17450872 2.01167068
    endloop
  endfacet
  facet normal 0.545178217 -0.384435715 -0.744976437
    outer loop
      vertex 0.915795018 -1.21652819 1.92775107
      vertex 0.918476632 -1.21565041 1.92926053
      vertex 0.918300685 -1.21679665 1.92972327
    endloop
  endfacet
  facet normal -0.545178217 0.384435715 0.744976437
    outer loop
      vertex 0.855825414 -1.17424026 2.00969848
      vertex 0.858331081 -1.17450872 2.01167068
      vertex 0.858507028 -1.17336248 2.01120793
    endloop
  endfacet
  facet normal 0.817412957 0.440998868 0.37061578
    outer loop
      vertex 0.918476632 -1.21565041 1.92926053
      vertex 0.918244326 -1.21463781 1.92856798
      vertex 0.858274722 -1.17234988 2.01051539
    endloop
  endfacet
  facet normal 0.817412957 0.440998868 0.37061578
    outer loop
      vertex 0.918476632 -1.21565041 1.92926053
      vertex 0.858274722 -1.17234988 2.01051539
      vertex 0.858507028 -1.17336248 2.01120793
    endloop
  endfacet
  facet normal 0.545178217 -0.384435715 -0.744976437
    outer loop
      vertex 0.915795018 -1.21652819 1.92775107
      vertex 0.918244326 -1.21463781 1.92856798
      vertex 0.918476632 -1.21565041 1.92926053
    endloop
  endfacet
  facet normal -0.545178217 0.384435715 0.744976437
    outer loop
      vertex 0.855825414 -1.17424026 2.00969848
      vertex 0.858507028 -1.17336248 2.01120793
      vertex 0.858274722 -1.17234988 2.01051539
    endloop
  endfacet
  facet normal 0.68399062 0.717788021 0.130142955
    outer loop
      vertex 0.918244326 -1.21463781 1.92856798
      vertex 0.917639136 -1.213913 1.92775107
      vertex 0.857669532 -1.17162507 2.00969848
    endloop
  endfacet
  facet normal 0.68399062 0.717788021 0.130142955
    outer loop
      vertex 0.918244326 -1.21463781 1.92856798
      vertex 0.857669532 -1.17162507 2.00969848
      vertex 0.858274722 -1.17234988 2.01051539
    endloop
  endfacet
  facet normal 0.545178217 -0.384435715 -0.744976437
    outer loop
      vertex 0.915795018 -1.21652819 1.92775107
      vertex 0.917639136 -1.213913 1.92775107
      vertex 0.918244326 -1.21463781 1.92856798
    endloop
  endfacet
  facet normal -0.545178217 0.384435715 0.744976437
    outer loop
      vertex 0.855825414 -1.17424026 2.00969848
      vertex 0.858274722 -1.17234988 2.01051539
      vertex 0.857669532 -1.17162507 2.00969848
    endloop
  endfacet
  facet normal 0.440764466 0.888765716 -0.125786276
    outer loop
      vertex 0.704625052 -1.48621648 1.91281431
      vertex 0.703718702 -1.48587874 1.91202474
      vertex 0.656198337 -1.45257557 1.98081946
    endloop
  endfacet
  facet normal 0.440764466 0.888765716 -0.125786276
    outer loop
      vertex 0.704625052 -1.48621648 1.91281431
      vertex 0.656198337 -1.45257557 1.98081946
      vertex 0.657104686 -1.45291331 1.98160903
    endloop
  endfacet
  facet normal 0.528004064 -0.370035277 -0.764385768
    outer loop
      vertex 0.702788532 -1.48883702 1.91281431
      vertex 0.703718702 -1.48587874 1.91202474
      vertex 0.704625052 -1.48621648 1.91281431
    endloop
  endfacet
  facet normal -0.528004064 0.370035277 0.764385768
    outer loop
      vertex 0.655268166 -1.45553384 1.98160903
      vertex 0.657104686 -1.45291331 1.98160903
      vertex 0.656198337 -1.45257557 1.98081946
    endloop
  endfacet
  facet normal 0.129421366 0.924627718 -0.358209007
    outer loop
      vertex 0.703718702 -1.48587874 1.91202474
      vertex 0.702670743 -1.48599138 1.91135538
      vertex 0.655150377 -1.4526882 1.9801501
    endloop
  endfacet
  facet normal 0.129421366 0.924627718 -0.358209007
    outer loop
      vertex 0.703718702 -1.48587874 1.91202474
      vertex 0.655150377 -1.4526882 1.9801501
      vertex 0.656198337 -1.45257557 1.98081946
    endloop
  endfacet
  facet normal 0.528004064 -0.370035277 -0.764385768
    outer loop
      vertex 0.702788532 -1.48883702 1.91281431
      vertex 0.702670743 -1.48599138 1.91135538
      vertex 0.703718702 -1.48587874 1.91202474
    endloop
  endfacet
  facet normal -0.528004064 0.370035277 0.764385768
    outer loop
      vertex 0.655268166 -1.45553384 1.98160903
      vertex 0.656198337 -1.45257557 1.98081946
      vertex 0.655150377 -1.4526882 1.9801501
    endloop
  endfacet
  facet normal -0.201624964 0.819723532 -0.536097664
    outer loop
      vertex 0.702670743 -1.48599138 1.91135538
      vertex 0.701640716 -1.48653723 1.91090813
      vertex 0.65412035 -1.45323406 1.97970285
    endloop
  endfacet
  facet normal -0.201624964 0.819723532 -0.536097664
    outer loop
      vertex 0.702670743 -1.48599138 1.91135538
      vertex 0.65412035 -1.45323406 1.97970285
      vertex 0.655150377 -1.4526882 1.9801501
    endloop
  endfacet
  facet normal 0.528004064 -0.370035277 -0.764385768
    outer loop
      vertex 0.702788532 -1.48883702 1.91281431
      vertex 0.701640716 -1.48653723 1.91090813
      vertex 0.702670743 -1.48599138 1.91135538
    endloop
  endfacet
  facet normal -0.528004064 0.370035277 0.764385768
    outer loop
      vertex 0.655268166 -1.45553384 1.98160903
      vertex 0.655150377 -1.4526882 1.9801501
      vertex 0.65412035 -1.45323406 1.97970285
    endloop
  endfacet
  facet normal -0.50197572 0.590023869 -0.632370311
    outer loop
      vertex 0.701640716 -1.48653723 1.91090813
      vertex 0.700785434 -1.48743321 1.91075108
      vertex 0.653265068 -1.45413003 1.9795458
    endloop
  endfacet
  facet normal -0.50197572 0.590023869 -0.632370311
    outer loop
      vertex 0.701640716 -1.48653723 1.91090813
      vertex 0.653265068 -1.45413003 1.9795458
      vertex 0.65412035 -1.45323406 1.97970285
    endloop
  endfacet
  facet normal 0.528004064 -0.370035277 -0.764385768
    outer loop
      vertex 0.702788532 -1.48883702 1.91281431
      vertex 0.700785434 -1.48743321 1.91075108
      vertex 0.701640716 -1.48653723 1.91090813
    endloop
  endfacet
  facet normal -0.528004064 0.370035277 0.764385768
    outer loop
      vertex 0.655268166 -1.45553384 1.98160903
      vertex 0.65412035 -1.45323406 1.97970285
      vertex 0.653265068 -1.45413003 1.9795458
    endloop
  endfacet
  facet normal -0.725905224 0.27049842 -0.632370311
    outer loop
      vertex 0.700785434 -1.48743321 1.91075108
      vertex 0.700235105 -1.4885429 1.91090813
      vertex 0.652714739 -1.45523973 1.97970285
    endloop
  endfacet
  facet normal -0.725905224 0.27049842 -0.632370311
    outer loop
      vertex 0.700785434 -1.48743321 1.91075108
      vertex 0.652714739 -1.45523973 1.97970285
      vertex 0.653265068 -1.45413003 1.9795458
    endloop
  endfacet
  facet normal 0.528004064 -0.370035277 -0.764385768
    outer loop
      vertex 0.702788532 -1.48883702 1.91281431
      vertex 0.700235105 -1.4885429 1.91090813
      vertex 0.700785434 -1.48743321 1.91075108
    endloop
  endfacet
  facet normal -0.528004064 0.370035277 0.764385768
    outer loop
      vertex 0.655268166 -1.45553384 1.98160903
      vertex 0.653265068 -1.45413003 1.9795458
      vertex 0.652714739 -1.45523973 1.97970285
    endloop
  endfacet
  facet normal -0.839322238 -0.0902079609 -0.536097664
    outer loop
      vertex 0.700235105 -1.4885429 1.91090813
      vertex 0.700073512 -1.48969737 1.91135538
      vertex 0.652553146 -1.4563942 1.9801501
    endloop
  endfacet
  facet normal -0.839322238 -0.0902079609 -0.536097664
    outer loop
      vertex 0.700235105 -1.4885429 1.91090813
      vertex 0.652553146 -1.4563942 1.9801501
      vertex 0.652714739 -1.45523973 1.97970285
    endloop
  endfacet
  facet normal 0.528004064 -0.370035277 -0.764385768
    outer loop
      vertex 0.702788532 -1.48883702 1.91281431
      vertex 0.700073512 -1.48969737 1.91135538
      vertex 0.700235105 -1.4885429 1.91090813
    endloop
  endfacet
  facet normal -0.528004064 0.370035277 0.764385768
    outer loop
      vertex 0.655268166 -1.45553384 1.98160903
      vertex 0.652714739 -1.45523973 1.97970285
      vertex 0.652553146 -1.4563942 1.9801501
    endloop
  endfacet
  facet normal -0.824960049 -0.437180998 -0.358209007
    outer loop
      vertex 0.700073512 -1.48969737 1.91135538
      vertex 0.700325257 -1.49072086 1.91202474
      vertex 0.652804891 -1.45741768 1.98081946
    endloop
  endfacet
  facet normal -0.824960049 -0.437180998 -0.358209007
    outer loop
      vertex 0.700073512 -1.48969737 1.91135538
      vertex 0.652804891 -1.45741768 1.98081946
      vertex 0.652553146 -1.4563942 1.9801501
    endloop
  endfacet
  facet normal 0.528004064 -0.370035277 -0.764385768
    outer loop
      vertex 0.702788532 -1.48883702 1.91281431
      vertex 0.700325257 -1.49072086 1.91202474
      vertex 0.700073512 -1.48969737 1.91135538
    endloop
  endfacet
  facet normal -0.528004064 0.370035277 0.764385768
    outer loop
      vertex 0.655268166 -1.45553384 1.98160903
      vertex 0.652553146 -1.4563942 1.9801501
      vertex 0.652804891 -1.45741768 1.98081946
    endloop
  endfacet
  facet normal -0.685005171 -0.717597191 -0.125786276
    outer loop
      vertex 0.700325257 -1.49072086 1.91202474
      vertex 0.700952012 -1.49145755 1.91281431
      vertex 0.653431647 -1.45815437 1.98160903
    endloop
  endfacet
  facet normal -0.685005171 -0.717597191 -0.125786276
    outer loop
      vertex 0.700325257 -1.49072086 1.91202474
      vertex 0.653431647 -1.45815437 1.98160903
      vertex 0.652804891 -1.45741768 1.98081946
    endloop
  endfacet
  facet normal 0.528004064 -0.370035277 -0.764385768
    outer loop
      vertex 0.702788532 -1.48883702 1.91281431
      vertex 0.700952012 -1.49145755 1.91281431
      vertex 0.700325257 -1.49072086 1.91202474
    endloop
  endfacet
  facet normal -0.528004064 0.370035277 0.764385768
    outer loop
      vertex 0.655268166 -1.45553384 1.98160903
      vertex 0.652804891 -1.45741768 1.98081946
      vertex 0.653431647 -1.45815437 1.98160903
    endloop
  endfacet
  facet normal -0.440764466 -0.888765716 0.125786276
    outer loop
      vertex 0.700952012 -1.49145755 1.91281431
      vertex 0.701858362 -1.49179529 1.91360387
      vertex 0.654337996 -1.45849211 1.98239859
    endloop
  endfacet
  facet normal -0.440764466 -0.888765716 0.125786276
    outer loop
      vertex 0.700952012 -1.49145755 1.91281431
      vertex 0.654337996 -1.45849211 1.98239859
      vertex 0.653431647 -1.45815437 1.98160903
    endloop
  endfacet
  facet normal 0.528004064 -0.370035277 -0.764385768
    outer loop
      vertex 0.702788532 -1.48883702 1.91281431
      vertex 0.701858362 -1.49179529 1.91360387
      vertex 0.700952012 -1.49145755 1.91281431
    endloop
  endfacet
  facet normal -0.528004064 0.370035277 0.764385768
    outer loop
      vertex 0.655268166 -1.45553384 1.98160903
      vertex 0.653431647 -1.45815437 1.98160903
      vertex 0.654337996 -1.45849211 1.98239859
    endloop
  endfacet
  facet normal -0.129421366 -0.924627718 0.358209007
    outer loop
      vertex 0.701858362 -1.49179529 1.91360387
      vertex 0.702906321 -1.49168266 1.91427323
      vertex 0.655385955 -1.45837948 1.98306795
    endloop
  endfacet
  facet normal -0.129421366 -0.924627718 0.358209007
    outer loop
      vertex 0.701858362 -1.49179529 1.91360387
      vertex 0.655385955 -1.45837948 1.98306795
      vertex 0.654337996 -1.45849211 1.98239859
    endloop
  endfacet
  facet normal 0.528004064 -0.370035277 -0.764385768
    outer loop
      vertex 0.702788532 -1.48883702 1.91281431
      vertex 0.702906321 -1.49168266 1.91427323
      vertex 0.701858362 -1.49179529 1.91360387
    endloop
  endfacet
  facet normal -0.528004064 0.370035277 0.764385768
    outer loop
      vertex 0.655268166 -1.45553384 1.98160903
      vertex 0.654337996 -1.45849211 1.98239859
      vertex 0.655385955 -1.45837948 1.98306795
    endloop
  endfacet
  facet normal 0.201624964 -0.819723532 0.536097664
    outer loop
      vertex 0.702906321 -1.49168266 1.91427323
      vertex 0.703936348 -1.4911368 1.91472048
      vertex 0.656415982 -1.45783363 1.9835152
    endloop
  endfacet
  facet normal 0.201624964 -0.819723532 0.536097664
    outer loop
      vertex 0.702906321 -1.49168266 1.91427323
      vertex 0.656415982 -1.45783363 1.9835152
      vertex 0.655385955 -1.45837948 1.98306795
    endloop
  endfacet
  facet normal 0.528004064 -0.370035277 -0.764385768
    outer loop
      vertex 0.702788532 -1.48883702 1.91281431
      vertex 0.703936348 -1.4911368 1.91472048
      vertex 0.702906321 -1.49168266 1.91427323
    endloop
  endfacet
  facet normal -0.528004064 0.370035277 0.764385768
    outer loop
      vertex 0.655268166 -1.45553384 1.98160903
      vertex 0.655385955 -1.45837948 1.98306795
      vertex 0.656415982 -1.45783363 1.9835152
    endloop
  endfacet
  facet normal 0.50197572 -0.590023869 0.632370311
    outer loop
      vertex 0.703936348 -1.4911368 1.91472048
      vertex 0.704791631 -1.49024083 1.91487754
      vertex 0.657271265 -1.45693765 1.98367226
    endloop
  endfacet
  facet normal 0.50197572 -0.590023869 0.632370311
    outer loop
      vertex 0.703936348 -1.4911368 1.91472048
      vertex 0.657271265 -1.45693765 1.98367226
      vertex 0.656415982 -1.45783363 1.9835152
    endloop
  endfacet
  facet normal 0.528004064 -0.370035277 -0.764385768
    outer loop
      vertex 0.702788532 -1.48883702 1.91281431
      vertex 0.704791631 -1.49024083 1.91487754
      vertex 0.703936348 -1.4911368 1.91472048
    endloop
  endfacet
  facet normal -0.528004064 0.370035277 0.764385768
    outer loop
      vertex 0.655268166 -1.45553384 1.98160903
      vertex 0.656415982 -1.45783363 1.9835152
      vertex 0.657271265 -1.45693765 1.98367226
    endloop
  endfacet
  facet normal 0.725905224 -0.27049842 0.632370311
    outer loop
      vertex 0.704791631 -1.49024083 1.91487754
      vertex 0.705341959 -1.48913113 1.91472048
      vertex 0.657821594 -1.45582796 1.9835152
    endloop
  endfacet
  facet normal 0.725905224 -0.27049842 0.632370311
    outer loop
      vertex 0.704791631 -1.49024083 1.91487754
      vertex 0.657821594 -1.45582796 1.9835152
      vertex 0.657271265 -1.45693765 1.98367226
    endloop
  endfacet
  facet normal 0.528004064 -0.370035277 -0.764385768
    outer loop
      vertex 0.702788532 -1.48883702 1.91281431
      vertex 0.705341959 -1.48913113 1.91472048
      vertex 0.704791631 -1.49024083 1.91487754
    endloop
  endfacet
  facet normal -0.528004064 0.370035277 0.764385768
    outer loop
      vertex 0.655268166 -1.45553384 1.98160903
      vertex 0.657271265 -1.45693765 1.98367226
      vertex 0.657821594 -1.45582796 1.9835152
    endloop
  endfacet
  facet normal 0.839322238 0.0902079609 0.536097664
    outer loop
      vertex 0.705341959 -1.48913113 1.91472048
      vertex 0.705503552 -1.48797666 1.91427323
      vertex 0.657983186 -1.45467349 1.98306795
    endloop
  endfacet
  facet normal 0.839322238 0.0902079609 0.536097664
    outer loop
      vertex 0.705341959 -1.48913113 1.91472048
      vertex 0.657983186 -1.45467349 1.98306795
      vertex 0.657821594 -1.45582796 1.9835152
    endloop
  endfacet
  facet normal 0.528004064 -0.370035277 -0.764385768
    outer loop
      vertex 0.702788532 -1.48883702 1.91281431
      vertex 0.705503552 -1.48797666 1.91427323
      vertex 0.705341959 -1.48913113 1.91472048
    endloop
  endfacet
  facet normal -0.528004064 0.370035277 0.764385768
    outer loop
      vertex 0.655268166 -1.45553384 1.98160903
      vertex 0.657821594 -1.45582796 1.9835152
      vertex 0.657983186 -1.45467349 1.98306795
    endloop
  endfacet
  facet normal 0.824960049 0.437180998 0.358209007
    outer loop
      vertex 0.705503552 -1.48797666 1.91427323
      vertex 0.705251808 -1.48695317 1.91360387
      vertex 0.657731442 -1.45365 1.98239859
    endloop
  endfacet
  facet normal 0.824960049 0.437180998 0.358209007
    outer loop
      vertex 0.705503552 -1.48797666 1.91427323
      vertex 0.657731442 -1.45365 1.98239859
      vertex 0.657983186 -1.45467349 1.98306795
    endloop
  endfacet
  facet normal 0.528004064 -0.370035277 -0.764385768
    outer loop
      vertex 0.702788532 -1.48883702 1.91281431
      vertex 0.705251808 -1.48695317 1.91360387
      vertex 0.705503552 -1.48797666 1.91427323
    endloop
  endfacet
  facet normal -0.528004064 0.370035277 0.764385768
    outer loop
      vertex 0.655268166 -1.45553384 1.98160903
      vertex 0.657983186 -1.45467349 1.98306795
      vertex 0.657731442 -1.45365 1.98239859
    endloop
  endfacet
  facet normal 0.685005171 0.717597191 0.125786276
    outer loop
      vertex 0.705251808 -1.48695317 1.91360387
      vertex 0.704625052 -1.48621648 1.91281431
      vertex 0.657104686 -1.45291331 1.98160903
    endloop
  endfacet
  facet normal 0.685005171 0.717597191 0.125786276
    outer loop
      vertex 0.705251808 -1.48695317 1.91360387
      vertex 0.657104686 -1.45291331 1.98160903
      vertex 0.657731442 -1.45365 1.98239859
    endloop
  endfacet
  facet normal 0.528004064 -0.370035277 -0.764385768
    outer loop
      vertex 0.702788532 -1.48883702 1.91281431
      vertex 0.704625052 -1.48621648 1.91281431
      vertex 0.705251808 -1.48695317 1.91360387
    endloop
  endfacet
  facet normal -0.528004064 0.370035277 0.764385768
    outer loop
      vertex 0.655268166 -1.45553384 1.98160903
      vertex 0.657731442 -1.45365 1.98239859
      vertex 0.657104686 -1.45291331 1.98160903
    endloop
  endfacet
  facet normal 0.440764466 0.888765716 -0.125786276
    outer loop
      vertex 0.679851775 -1.48662394 1.89589926
      vertex 0.678945425 -1.4862862 1.8951097
      vertex 0.631425059 -1.45298302 1.96390442
    endloop
  endfacet
  facet normal 0.440764466 0.888765716 -0.125786276
    outer loop
      vertex 0.679851775 -1.48662394 1.89589926
      vertex 0.631425059 -1.45298302 1.96390442
      vertex 0.632331409 -1.45332076 1.96469398
    endloop
  endfacet
  facet normal 0.528004064 -0.370035277 -0.764385768
    outer loop
      vertex 0.678015255 -1.48924447 1.89589926
      vertex 0.678945425 -1.4862862 1.8951097
      vertex 0.679851775 -1.48662394 1.89589926
    endloop
  endfacet
  facet normal -0.528004064 0.370035277 0.764385768
    outer loop
      vertex 0.630494889 -1.45594129 1.96469398
      vertex 0.632331409 -1.45332076 1.96469398
      vertex 0.631425059 -1.45298302 1.96390442
    endloop
  endfacet
  facet normal 0.129421366 0.924627718 -0.358209007
    outer loop
      vertex 0.678945425 -1.4862862 1.8951097
      vertex 0.677897466 -1.48639883 1.89444034
      vertex 0.6303771 -1.45309565 1.96323506
    endloop
  endfacet
  facet normal 0.129421366 0.924627718 -0.358209007
    outer loop
      vertex 0.678945425 -1.4862862 1.8951097
      vertex 0.6303771 -1.45309565 1.96323506
      vertex 0.631425059 -1.45298302 1.96390442
    endloop
  endfacet
  facet normal 0.528004064 -0.370035277 -0.764385768
    outer loop
      vertex 0.678015255 -1.48924447 1.89589926
      vertex 0.677897466 -1.48639883 1.89444034
      vertex 0.678945425 -1.4862862 1.8951097
    endloop
  endfacet
  facet normal -0.528004064 0.370035277 0.764385768
    outer loop
      vertex 0.630494889 -1.45594129 1.96469398
      vertex 0.631425059 -1.45298302 1.96390442
      vertex 0.6303771 -1.45309565 1.96323506
    endloop
  endfacet
  facet normal -0.201624964 0.819723532 -0.536097664
    outer loop
      vertex 0.677897466 -1.48639883 1.89444034
      vertex 0.676867439 -1.48694468 1.89399309
      vertex 0.629347073 -1.45364151 1.96278781
    endloop
  endfacet
  facet normal -0.201624964 0.819723532 -0.536097664
    outer loop
      vertex 0.677897466 -1.48639883 1.89444034
      vertex 0.629347073 -1.45364151 1.96278781
      vertex 0.6303771 -1.45309565 1.96323506
    endloop
  endfacet
  facet normal 0.528004064 -0.370035277 -0.764385768
    outer loop
      vertex 0.678015255 -1.48924447 1.89589926
      vertex 0.676867439 -1.48694468 1.89399309
      vertex 0.677897466 -1.48639883 1.89444034
    endloop
  endfacet
  facet normal -0.528004064 0.370035277 0.764385768
    outer loop
      vertex 0.630494889 -1.45594129 1.96469398
      vertex 0.6303771 -1.45309565 1.96323506
      vertex 0.629347073 -1.45364151 1.96278781
    endloop
  endfacet
  facet normal -0.50197572 0.590023869 -0.632370311
    outer loop
      vertex 0.676867439 -1.48694468 1.89399309
      vertex 0.676012156 -1.48784066 1.89383603
      vertex 0.628491791 -1.45453748 1.96263075
    endloop
  endfacet
  facet normal -0.50197572 0.590023869 -0.632370311
    outer loop
      vertex 0.676867439 -1.48694468 1.89399309
      vertex 0.628491791 -1.45453748 1.96263075
      vertex 0.629347073 -1.45364151 1.96278781
    endloop
  endfacet
  facet normal 0.528004064 -0.370035277 -0.764385768
    outer loop
      vertex 0.678015255 -1.48924447 1.89589926
      vertex 0.676012156 -1.48784066 1.89383603
      vertex 0.676867439 -1.48694468 1.89399309
    endloop
  endfacet
  facet normal -0.528004064 0.370035277 0.764385768
    outer loop
      vertex 0.630494889 -1.45594129 1.96469398
      vertex 0.629347073 -1.45364151 1.96278781
      vertex 0.628491791 -1.45453748 1.96263075
    endloop
  endfacet
  facet normal -0.725905224 0.27049842 -0.632370311
    outer loop
      vertex 0.676012156 -1.48784066 1.89383603
      vertex 0.675461828 -1.48895035 1.89399309
      vertex 0.627941462 -1.45564718 1.96278781
    endloop
  endfacet
  facet normal -0.725905224 0.27049842 -0.632370311
    outer loop
      vertex 0.676012156 -1.48784066 1.89383603
      vertex 0.627941462 -1.45564718 1.96278781
      vertex 0.628491791 -1.45453748 1.96263075
    endloop
  endfacet
  facet normal 0.528004064 -0.370035277 -0.764385768
    outer loop
      vertex 0.678015255 -1.48924447 1.89589926
      vertex 0.675461828 -1.48895035 1.89399309
      vertex 0.676012156 -1.48784066 1.89383603
    endloop
  endfacet
  facet normal -0.528004064 0.370035277 0.764385768
    outer loop
      vertex 0.630494889 -1.45594129 1.96469398
      vertex 0.628491791 -1.45453748 1.96263075
      vertex 0.627941462 -1.45564718 1.96278781
    endloop
  endfacet
  facet normal -0.839322238 -0.0902079609 -0.536097664
    outer loop
      vertex 0.675461828 -1.48895035 1.89399309
      vertex 0.675300235 -1.49010482 1.89444034
      vertex 0.627779869 -1.45680165 1.96323506
    endloop
  endfacet
  facet normal -0.839322238 -0.0902079609 -0.536097664
    outer loop
      vertex 0.675461828 -1.48895035 1.89399309
      vertex 0.627779869 -1.45680165 1.96323506
      vertex 0.627941462 -1.45564718 1.96278781
    endloop
  endfacet
  facet normal 0.528004064 -0.370035277 -0.764385768
    outer loop
      vertex 0.678015255 -1.48924447 1.89589926
      vertex 0.675300235 -1.49010482 1.89444034
      vertex 0.675461828 -1.48895035 1.89399309
    endloop
  endfacet
  facet normal -0.528004064 0.370035277 0.764385768
    outer loop
      vertex 0.630494889 -1.45594129 1.96469398
      vertex 0.627941462 -1.45564718 1.96278781
      vertex 0.627779869 -1.45680165 1.96323506
    endloop
  endfacet
  facet normal -0.824960049 -0.437180998 -0.358209007
    outer loop
      vertex 0.675300235 -1.49010482 1.89444034
      vertex 0.675551979 -1.49112831 1.8951097
      vertex 0.628031614 -1.45782514 1.96390442
    endloop
  endfacet
  facet normal -0.824960049 -0.437180998 -0.358209007
    outer loop
      vertex 0.675300235 -1.49010482 1.89444034
      vertex 0.628031614 -1.45782514 1.96390442
      vertex 0.627779869 -1.45680165 1.96323506
    endloop
  endfacet
  facet normal 0.528004064 -0.370035277 -0.764385768
    outer loop
      vertex 0.678015255 -1.48924447 1.89589926
      vertex 0.675551979 -1.49112831 1.8951097
      vertex 0.675300235 -1.49010482 1.89444034
    endloop
  endfacet
  facet normal -0.528004064 0.370035277 0.764385768
    outer loop
      vertex 0.630494889 -1.45594129 1.96469398
      vertex 0.627779869 -1.45680165 1.96323506
      vertex 0.628031614 -1.45782514 1.96390442
    endloop
  endfacet
  facet normal -0.685005171 -0.717597191 -0.125786276
    outer loop
      vertex 0.675551979 -1.49112831 1.8951097
      vertex 0.676178735 -1.491865 1.89589926
      vertex 0.62865837 -1.45856183 1.96469398
    endloop
  endfacet
  facet normal -0.685005171 -0.717597191 -0.125786276
    outer loop
      vertex 0.675551979 -1.49112831 1.8951097
      vertex 0.62865837 -1.45856183 1.96469398
      vertex 0.628031614 -1.45782514 1.96390442
    endloop
  endfacet
  facet normal 0.528004064 -0.370035277 -0.764385768
    outer loop
      vertex 0.678015255 -1.48924447 1.89589926
      vertex 0.676178735 -1.491865 1.89589926
      vertex 0.675551979 -1.49112831 1.8951097
    endloop
  endfacet
  facet normal -0.528004064 0.370035277 0.764385768
    outer loop
      vertex 0.630494889 -1.45594129 1.96469398
      vertex 0.628031614 -1.45782514 1.96390442
      vertex 0.62865837 -1.45856183 1.96469398
    endloop
  endfacet
  facet normal -0.440764466 -0.888765716 0.125786276
    outer loop
      vertex 0.676178735 -1.491865 1.89589926
      vertex 0.677085085 -1.49220274 1.89668883
      vertex 0.629564719 -1.45889957 1.96548355
    endloop
  endfacet
  facet normal -0.440764466 -0.888765716 0.125786276
    outer loop
      vertex 0.676178735 -1.491865 1.89589926
      vertex 0.629564719 -1.45889957 1.96548355
      vertex 0.62865837 -1.45856183 1.96469398
    endloop
  endfacet
  facet normal 0.528004064 -0.370035277 -0.764385768
    outer loop
      vertex 0.678015255 -1.48924447 1.89589926
      vertex 0.677085085 -1.49220274 1.89668883
      vertex 0.676178735 -1.491865 1.89589926
    endloop
  endfacet
  facet normal -0.528004064 0.370035277 0.764385768
    outer loop
      vertex 0.630494889 -1.45594129 1.96469398
      vertex 0.62865837 -1.45856183 1.96469398
      vertex 0.629564719 -1.45889957 1.96548355
    endloop
  endfacet
  facet normal -0.129421366 -0.924627718 0.358209007
    outer loop
      vertex 0.677085085 -1.49220274 1.89668883
      vertex 0.678133044 -1.49209011 1.89735819
      vertex 0.630612678 -1.45878693 1.96615291
    endloop
  endfacet
  facet normal -0.129421366 -0.924627718 0.358209007
    outer loop
      vertex 0.677085085 -1.49220274 1.89668883
      vertex 0.630612678 -1.45878693 1.96615291
      vertex 0.629564719 -1.45889957 1.96548355
    endloop
  endfacet
  facet normal 0.528004064 -0.370035277 -0.764385768
    outer loop
      vertex 0.678015255 -1.48924447 1.89589926
      vertex 0.678133044 -1.49209011 1.89735819
      vertex 0.677085085 -1.49220274 1.89668883
    endloop
  endfacet
  facet normal -0.528004064 0.370035277 0.764385768
    outer loop
      vertex 0.630494889 -1.45594129 1.96469398
      vertex 0.629564719 -1.45889957 1.96548355
      vertex 0.630612678 -1.45878693 1.96615291
    endloop
  endfacet
  facet normal 0.201624964 -0.819723532 0.536097664
    outer loop
      vertex 0.678133044 -1.49209011 1.89735819
      vertex 0.679163071 -1.49154425 1.89780544
      vertex 0.631642705 -1.45824108 1.96660016
    endloop
  endfacet
  facet normal 0.201624964 -0.819723532 0.536097664
    outer loop
      vertex 0.678133044 -1.49209011 1.89735819
      vertex 0.631642705 -1.45824108 1.96660016
      vertex 0.630612678 -1.45878693 1.96615291
    endloop
  endfacet
  facet normal 0.528004064 -0.370035277 -0.764385768
    outer loop
      vertex 0.678015255 -1.48924447 1.89589926
      vertex 0.679163071 -1.49154425 1.89780544
      vertex 0.678133044 -1.49209011 1.89735819
    endloop
  endfacet
  facet normal -0.528004064 0.370035277 0.764385768
    outer loop
      vertex 0.630494889 -1.45594129 1.96469398
      vertex 0.630612678 -1.45878693 1.96615291
      vertex 0.631642705 -1.45824108 1.96660016
    endloop
  endfacet
  facet normal 0.50197572 -0.590023869 0.632370311
    outer loop
      vertex 0.679163071 -1.49154425 1.89780544
      vertex 0.680018353 -1.49064828 1.89796249
      vertex 0.632497988 -1.4573451 1.96675721
    endloop
  endfacet
  facet normal 0.50197572 -0.590023869 0.632370311
    outer loop
      vertex 0.679163071 -1.49154425 1.89780544
      vertex 0.632497988 -1.4573451 1.96675721
      vertex 0.631642705 -1.45824108 1.96660016
    endloop
  endfacet
  facet normal 0.528004064 -0.370035277 -0.764385768
    outer loop
      vertex 0.678015255 -1.48924447 1.89589926
      vertex 0.680018353 -1.49064828 1.89796249
      vertex 0.679163071 -1.49154425 1.89780544
    endloop
  endfacet
  facet normal -0.528004064 0.370035277 0.764385768
    outer loop
      vertex 0.630494889 -1.45594129 1.96469398
      vertex 0.631642705 -1.45824108 1.96660016
      vertex 0.632497988 -1.4573451 1.96675721
    endloop
  endfacet
  facet normal 0.725905224 -0.27049842 0.632370311
    outer loop
      vertex 0.680018353 -1.49064828 1.89796249
      vertex 0.680568682 -1.48953859 1.89780544
      vertex 0.633048316 -1.45623541 1.96660016
    endloop
  endfacet
  facet normal 0.725905224 -0.27049842 0.632370311
    outer loop
      vertex 0.680018353 -1.49064828 1.89796249
      vertex 0.633048316 -1.45623541 1.96660016
      vertex 0.632497988 -1.4573451 1.96675721
    endloop
  endfacet
  facet normal 0.528004064 -0.370035277 -0.764385768
    outer loop
      vertex 0.678015255 -1.48924447 1.89589926
      vertex 0.680568682 -1.48953859 1.89780544
      vertex 0.680018353 -1.49064828 1.89796249
    endloop
  endfacet
  facet normal -0.528004064 0.370035277 0.764385768
    outer loop
      vertex 0.630494889 -1.45594129 1.96469398
      vertex 0.632497988 -1.4573451 1.96675721
      vertex 0.633048316 -1.45623541 1.96660016
    endloop
  endfacet
  facet normal 0.839322238 0.0902079609 0.536097664
    outer loop
      vertex 0.680568682 -1.48953859 1.89780544
      vertex 0.680730275 -1.48838412 1.89735819
      vertex 0.633209909 -1.45508094 1.96615291
    endloop
  endfacet
  facet normal 0.839322238 0.0902079609 0.536097664
    outer loop
      vertex 0.680568682 -1.48953859 1.89780544
      vertex 0.633209909 -1.45508094 1.96615291
      vertex 0.633048316 -1.45623541 1.96660016
    endloop
  endfacet
  facet normal 0.528004064 -0.370035277 -0.764385768
    outer loop
      vertex 0.678015255 -1.48924447 1.89589926
      vertex 0.680730275 -1.48838412 1.89735819
      vertex 0.680568682 -1.48953859 1.89780544
    endloop
  endfacet
  facet normal -0.528004064 0.370035277 0.764385768
    outer loop
      vertex 0.630494889 -1.45594129 1.96469398
      vertex 0.633048316 -1.45623541 1.96660016
      vertex 0.633209909 -1.45508094 1.96615291
    endloop
  endfacet
  facet normal 0.824960049 0.437180998 0.358209007
    outer loop
      vertex 0.680730275 -1.48838412 1.89735819
      vertex 0.68047853 -1.48736063 1.89668883
      vertex 0.632958165 -1.45405745 1.96548355
    endloop
  endfacet
  facet normal 0.824960049 0.437180998 0.358209007
    outer loop
      vertex 0.680730275 -1.48838412 1.89735819
      vertex 0.632958165 -1.45405745 1.96548355
      vertex 0.633209909 -1.45508094 1.96615291
    endloop
  endfacet
  facet normal 0.528004064 -0.370035277 -0.764385768
    outer loop
      vertex 0.678015255 -1.48924447 1.89589926
      vertex 0.68047853 -1.48736063 1.89668883
      vertex 0.680730275 -1.48838412 1.89735819
    endloop
  endfacet
  facet normal -0.528004064 0.370035277 0.764385768
    outer loop
      vertex 0.630494889 -1.45594129 1.96469398
      vertex 0.633209909 -1.45508094 1.96615291
      vertex 0.632958165 -1.45405745 1.96548355
    endloop
  endfacet
  facet normal 0.685005171 0.717597191 0.125786276
    outer loop
      vertex 0.68047853 -1.48736063 1.89668883
      vertex 0.679851775 -1.48662394 1.89589926
      vertex 0.632331409 -1.45332076 1.96469398
    endloop
  endfacet
  facet normal 0.685005171 0.717597191 0.125786276
    outer loop
      vertex 0.68047853 -1.48736063 1.89668883
      vertex 0.632331409 -1.45332076 1.96469398
      vertex 0.632958165 -1.45405745 1.96548355
    endloop
  endfacet
  facet normal 0.528004064 -0.370035277 -0.764385768
    outer loop
      vertex 0.678015255 -1.48924447 1.89589926
      vertex 0.679851775 -1.48662394 1.89589926
      vertex 0.68047853 -1.48736063 1.89668883
    endloop
  endfacet
  facet normal -0.528004064 0.370035277 0.764385768
    outer loop
      vertex 0.630494889 -1.45594129 1.96469398
      vertex 0.632958165 -1.45405745 1.96548355
      vertex 0.632331409 -1.45332076 1.96469398
    endloop
  endfacet
endsolid c33_features
