solid b8_blank
  facet normal -0.682986185 -0.141086311 0.716676025
    outer loop
      vertex -0.87409412 1.54558868 0.0205419819
      vertex -0.859636415 1.48740298 0.0228654949
      vertex -0.0869943954 1.71054282 0.803114566
    endloop
  endfacet
  facet normal -0.682986185 -0.141086311 0.716676025
    outer loop
      vertex -0.87409412 1.54558868 0.0205419819
      vertex -0.0869943954 1.71054282 0.803114566
      vertex -0.1014521 1.76872852 0.800791053
    endloop
  endfacet
  facet normal -0.240961738 0.969761722 -0.0387252165
    outer loop
      vertex -0.87409412 1.54558868 0.0205419819
      vertex -0.1014521 1.76872852 0.800791053
      vertex -0.0468132049 1.78001543 0.743456971
    endloop
  endfacet
  facet normal -0.240961738 0.969761722 -0.0387252165
    outer loop
      vertex -0.87409412 1.54558868 0.0205419819
      vertex -0.0468132049 1.78001543 0.743456971
      vertex -0.819455225 1.55687559 -0.0367921001
    endloop
  endfacet
  facet normal 0.689541378 0.199140288 0.696330262
    outer loop
      vertex -0.1014521 1.76872852 0.800791053
      vertex -0.0869943954 1.71054282 0.803114566
      vertex -0.0323555006 1.72182972 0.745780484
    endloop
  endfacet
  facet normal 0.689541378 0.199140288 0.696330262
    outer loop
      vertex -0.1014521 1.76872852 0.800791053
      vertex -0.0323555006 1.72182972 0.745780484
      vertex -0.0468132049 1.78001543 0.743456971
    endloop
  endfacet
  facet normal 0.240961738 -0.969761722 0.0387252165
    outer loop
      vertex -0.0869943954 1.71054282 0.803114566
      vertex -0.859636415 1.48740298 0.0228654949
      vertex -0.804997521 1.49868988 -0.0344685871
    endloop
  endfacet
  facet normal 0.240961738 -0.969761722 0.0387252165
    outer loop
      vertex -0.0869943954 1.71054282 0.803114566
      vertex -0.804997521 1.49868988 -0.0344685871
      vertex -0.0323555006 1.72182972 0.745780484
    endloop
  endfacet
  facet normal -0.689541378 -0.199140288 -0.696330262
    outer loop
      vertex -0.859636415 1.48740298 0.0228654949
      vertex -0.87409412 1.54558868 0.0205419819
      vertex -0.819455225 1.55687559 -0.0367921001
    endloop
  endfacet
  facet normal -0.689541378 -0.199140288 -0.696330262
    outer loop
      vertex -0.859636415 1.48740298 0.0228654949
      vertex -0.819455225 1.55687559 -0.0367921001
      vertex -0.804997521 1.49868988 -0.0344685871
    endloop
  endfacet
  facet normal 0.682986185 0.141086311 -0.716676025
    outer loop
      vertex -0.819455225 1.55687559 -0.0367921001
      vertex -0.0468132049 1.78001543 0.743456971
      vertex -0.0323555006 1.72182972 0.745780484
    endloop
  endfacet
  facet normal 0.682986185 0.141086311 -0.716676025
    outer loop
      vertex -0.819455225 1.55687559 -0.0367921001
      vertex -0.0323555006 1.72182972 0.745780484
      vertex -0.804997521 1.49868988 -0.0344685871
    endloop
  endfacet
endsolid b8_blank
