solid e35_blank
  facet normal 0.505826065 0.318198508 0.80180403
    outer loop
      vertex 3.94207657 -1.69949384 2.29102507
      vertex 3.98785449 -1.73541816 2.2764023
      vertex 4.32209974 -1.12506968 1.82332159
    endloop
  endfacet
  facet normal 0.505826065 0.318198508 0.80180403
    outer loop
      vertex 3.94207657 -1.69949384 2.29102507
      vertex 4.32209974 -1.12506968 1.82332159
      vertex 4.27632182 -1.08914537 1.83794437
    endloop
  endfacet
  facet normal -0.762965335 0.598738585 0.243712954
    outer loop
      vertex 3.94207657 -1.69949384 2.29102507
      vertex 4.27632182 -1.08914537 1.83794437
      vertex 4.23585574 -1.11460125 1.77380004
    endloop
  endfacet
  facet normal -0.762965335 0.598738585 0.243712954
    outer loop
      vertex 3.94207657 -1.69949384 2.29102507
      vertex 4.23585574 -1.11460125 1.77380004
      vertex 3.90161048 -1.72494972 2.22688075
    endloop
  endfacet
  facet normal 0.402521912 0.735025044 -0.545632014
    outer loop
      vertex 4.27632182 -1.08914537 1.83794437
      vertex 4.32209974 -1.12506968 1.82332159
      vertex 4.28163366 -1.15052556 1.75917727
    endloop
  endfacet
  facet normal 0.402521912 0.735025044 -0.545632014
    outer loop
      vertex 4.27632182 -1.08914537 1.83794437
      vertex 4.28163366 -1.15052556 1.75917727
      vertex 4.23585574 -1.11460125 1.77380004
    endloop
  endfacet
  facet normal 0.762965335 -0.598738585 -0.243712954
    outer loop
      vertex 4.32209974 -1.12506968 1.82332159
      vertex 3.98785449 -1.73541816 2.2764023
      vertex 3.9473884 -1.76087404 2.21225797
    endloop
  endfacet
  facet normal 0.762965335 -0.598738585 -0.243712954
    outer loop
      vertex 4.32209974 -1.12506968 1.82332159
      vertex 3.9473884 -1.76087404 2.21225797
      vertex 4.28163366 -1.15052556 1.75917727
    endloop
  endfacet
  facet normal -0.402521912 -0.735025044 0.545632014
    outer loop
      vertex 3.98785449 -1.73541816 2.2764023
      vertex 3.94207657 -1.69949384 2.29102507
      vertex 3.90161048 -1.72494972 2.22688075
    endloop
  endfacet
  facet normal -0.402521912 -0.735025044 0.545632014
    outer loop
      vertex 3.98785449 -1.73541816 2.2764023
      vertex 3.90161048 -1.72494972 2.22688075
      vertex 3.9473884 -1.76087404 2.21225797
    endloop
  endfacet
  facet normal -0.505826065 -0.318198508 -0.80180403
    outer loop
      vertex 3.90161048 -1.72494972 2.22688075
      vertex 4.23585574 -1.11460125 1.77380004
      vertex 4.28163366 -1.15052556 1.75917727
    endloop
  endfacet
  facet normal -0.505826065 -0.318198508 -0.80180403
    outer loop
      vertex 3.90161048 -1.72494972 2.22688075
      vertex 4.28163366 -1.15052556 1.75917727
      vertex 3.9473884 -1.76087404 2.21225797
    endloop
  endfacet
endsolid e35_blank
