solid c14_blank
  facet normal 0.24672325 0.354468886 0.901930954
    outer loop
      vertex 3.32267207 -1.91760649 2.63975636
      vertex 3.3695337 -1.88891221 2.61566018
      vertex 2.97115742 -1.33094471 2.50534861
    endloop
  endfacet
  facet normal 0.24672325 0.354468886 0.901930954
    outer loop
      vertex 3.32267207 -1.91760649 2.63975636
      vertex 2.97115742 -1.33094471 2.50534861
      vertex 2.92429579 -1.359639 2.52944478
    endloop
  endfacet
  facet normal -0.78102722 -0.478238022 0.401602885
    outer loop
      vertex 3.32267207 -1.91760649 2.63975636
      vertex 2.92429579 -1.359639 2.52944478
      vertex 2.90455793 -1.38799651 2.4572903
    endloop
  endfacet
  facet normal -0.78102722 -0.478238022 0.401602885
    outer loop
      vertex 3.32267207 -1.91760649 2.63975636
      vertex 2.90455793 -1.38799651 2.4572903
      vertex 3.30293421 -1.945964 2.56760188
    endloop
  endfacet
  facet normal -0.573693403 0.803517394 -0.15885741
    outer loop
      vertex 2.92429579 -1.359639 2.52944478
      vertex 2.97115742 -1.33094471 2.50534861
      vertex 2.95141956 -1.35930222 2.43319413
    endloop
  endfacet
  facet normal -0.573693403 0.803517394 -0.15885741
    outer loop
      vertex 2.92429579 -1.359639 2.52944478
      vertex 2.95141956 -1.35930222 2.43319413
      vertex 2.90455793 -1.38799651 2.4572903
    endloop
  endfacet
  facet normal 0.78102722 0.478238022 -0.401602885
    outer loop
      vertex 2.97115742 -1.33094471 2.50534861
      vertex 3.3695337 -1.88891221 2.61566018
      vertex 3.34979584 -1.91726972 2.54350571
    endloop
  endfacet
  facet normal 0.78102722 0.478238022 -0.401602885
    outer loop
      vertex 2.97115742 -1.33094471 2.50534861
      vertex 3.34979584 -1.91726972 2.54350571
      vertex 2.95141956 -1.35930222 2.43319413
    endloop
  endfacet
  facet normal 0.573693403 -0.803517394 0.15885741
    outer loop
      vertex 3.3695337 -1.88891221 2.61566018
      vertex 3.32267207 -1.91760649 2.63975636
      vertex 3.30293421 -1.945964 2.56760188
    endloop
  endfacet
  facet normal 0.573693403 -0.803517394 0.15885741
    outer loop
      vertex 3.3695337 -1.88891221 2.61566018
      vertex 3.30293421 -1.945964 2.56760188
      vertex 3.34979584 -1.91726972 2.54350571
    endloop
  endfacet
  facet normal -0.24672325 -0.354468886 -0.901930954
    outer loop
      vertex 3.30293421 -1.945964 2.56760188
      vertex 2.90455793 -1.38799651 2.4572903
      vertex 2.95141956 -1.35930222 2.43319413
    endloop
  endfacet
  facet normal -0.24672325 -0.354468886 -0.901930954
    outer loop
      vertex 3.30293421 -1.945964 2.56760188
      vertex 2.95141956 -1.35930222 2.43319413
      vertex 3.34979584 -1.91726972 2.54350571
    endloop
  endfacet
endsolid c14_blank
