solid b35_features
  facet normal -0.155707245 0.979909187 -0.124632415
    outer loop
      vertex 4.04495642 -1.23627271 2.07572515
      vertex 4.04592797 -1.23621783 2.07494283
      vertex 3.97290757 -1.25956276 1.98262254
    endloop
  endfacet
  facet normal -0.155707245 0.979909187 -0.124632415
    outer loop
      vertex 4.04495642 -1.23627271 2.07572515
      vertex 3.97290757 -1.25956276 1.98262254
      vertex 3.97193602 -1.25961764 1.98340486
    endloop
  endfacet
  facet normal 0.608503342 0.194541037 0.769335732
    outer loop
      vertex 4.04593088 -1.23932073 2.07572515
      vertex 4.04592797 -1.23621783 2.07494283
      vertex 4.04495642 -1.23627271 2.07572515
    endloop
  endfacet
  facet normal -0.608503342 -0.194541037 -0.769335732
    outer loop
      vertex 3.97291048 -1.26266566 1.98340486
      vertex 3.97193602 -1.25961764 1.98340486
      vertex 3.97290757 -1.25956276 1.98262254
    endloop
  endfacet
  facet normal 0.153920913 0.922137708 -0.354923091
    outer loop
      vertex 4.04592797 -1.23621783 2.07494283
      vertex 4.04689996 -1.23663534 2.07427961
      vertex 3.97387956 -1.25998027 1.98195932
    endloop
  endfacet
  facet normal 0.153920913 0.922137708 -0.354923091
    outer loop
      vertex 4.04592797 -1.23621783 2.07494283
      vertex 3.97387956 -1.25998027 1.98195932
      vertex 3.97290757 -1.25956276 1.98262254
    endloop
  endfacet
  facet normal 0.608503342 0.194541037 0.769335732
    outer loop
      vertex 4.04593088 -1.23932073 2.07572515
      vertex 4.04689996 -1.23663534 2.07427961
      vertex 4.04592797 -1.23621783 2.07494283
    endloop
  endfacet
  facet normal -0.608503342 -0.194541037 -0.769335732
    outer loop
      vertex 3.97291048 -1.26266566 1.98340486
      vertex 3.97290757 -1.25956276 1.98262254
      vertex 3.97387956 -1.25998027 1.98195932
    endloop
  endfacet
  facet normal 0.440116007 0.723979122 -0.531179943
    outer loop
      vertex 4.04689996 -1.23663534 2.07427961
      vertex 4.04772442 -1.23746168 2.07383646
      vertex 3.97470402 -1.26080661 1.98151617
    endloop
  endfacet
  facet normal 0.440116007 0.723979122 -0.531179943
    outer loop
      vertex 4.04689996 -1.23663534 2.07427961
      vertex 3.97470402 -1.26080661 1.98151617
      vertex 3.97387956 -1.25998027 1.98195932
    endloop
  endfacet
  facet normal 0.608503342 0.194541037 0.769335732
    outer loop
      vertex 4.04593088 -1.23932073 2.07572515
      vertex 4.04772442 -1.23746168 2.07383646
      vertex 4.04689996 -1.23663534 2.07427961
    endloop
  endfacet
  facet normal -0.608503342 -0.194541037 -0.769335732
    outer loop
      vertex 3.97291048 -1.26266566 1.98340486
      vertex 3.97387956 -1.25998027 1.98195932
      vertex 3.97470402 -1.26080661 1.98151617
    endloop
  endfacet
  facet normal 0.659307428 0.415601278 -0.626569464
    outer loop
      vertex 4.04772442 -1.23746168 2.07383646
      vertex 4.04827583 -1.23857104 2.07368084
      vertex 3.97525543 -1.26191597 1.98136056
    endloop
  endfacet
  facet normal 0.659307428 0.415601278 -0.626569464
    outer loop
      vertex 4.04772442 -1.23746168 2.07383646
      vertex 3.97525543 -1.26191597 1.98136056
      vertex 3.97470402 -1.26080661 1.98151617
    endloop
  endfacet
  facet normal 0.608503342 0.194541037 0.769335732
    outer loop
      vertex 4.04593088 -1.23932073 2.07572515
      vertex 4.04827583 -1.23857104 2.07368084
      vertex 4.04772442 -1.23746168 2.07383646
    endloop
  endfacet
  facet normal -0.608503342 -0.194541037 -0.769335732
    outer loop
      vertex 3.97291048 -1.26266566 1.98340486
      vertex 3.97470402 -1.26080661 1.98151617
      vertex 3.97525543 -1.26191597 1.98136056
    endloop
  endfacet
  facet normal 0.778125271 0.0439519061 -0.626569464
    outer loop
      vertex 4.04827583 -1.23857104 2.07368084
      vertex 4.04847024 -1.23979453 2.07383646
      vertex 3.97544984 -1.26313946 1.98151617
    endloop
  endfacet
  facet normal 0.778125271 0.0439519061 -0.626569464
    outer loop
      vertex 4.04827583 -1.23857104 2.07368084
      vertex 3.97544984 -1.26313946 1.98151617
      vertex 3.97525543 -1.26191597 1.98136056
    endloop
  endfacet
  facet normal 0.608503342 0.194541037 0.769335732
    outer loop
      vertex 4.04593088 -1.23932073 2.07572515
      vertex 4.04847024 -1.23979453 2.07383646
      vertex 4.04827583 -1.23857104 2.07368084
    endloop
  endfacet
  facet normal -0.608503342 -0.194541037 -0.769335732
    outer loop
      vertex 3.97291048 -1.26266566 1.98340486
      vertex 3.97525543 -1.26191597 1.98136056
      vertex 3.97544984 -1.26313946 1.98151617
    endloop
  endfacet
  facet normal 0.778480594 -0.334388745 -0.531179943
    outer loop
      vertex 4.04847024 -1.23979453 2.07383646
      vertex 4.04827806 -1.24094589 2.07427961
      vertex 3.97525766 -1.26429082 1.98195932
    endloop
  endfacet
  facet normal 0.778480594 -0.334388745 -0.531179943
    outer loop
      vertex 4.04847024 -1.23979453 2.07383646
      vertex 3.97525766 -1.26429082 1.98195932
      vertex 3.97544984 -1.26313946 1.98151617
    endloop
  endfacet
  facet normal 0.608503342 0.194541037 0.769335732
    outer loop
      vertex 4.04593088 -1.23932073 2.07572515
      vertex 4.04827806 -1.24094589 2.07427961
      vertex 4.04847024 -1.23979453 2.07383646
    endloop
  endfacet
  facet normal -0.608503342 -0.194541037 -0.769335732
    outer loop
      vertex 3.97291048 -1.26266566 1.98340486
      vertex 3.97544984 -1.26313946 1.98151617
      vertex 3.97525766 -1.26429082 1.98195932
    endloop
  endfacet
  facet normal 0.660319304 -0.66182174 -0.354923091
    outer loop
      vertex 4.04827806 -1.24094589 2.07427961
      vertex 4.04772854 -1.24184984 2.07494283
      vertex 3.97470814 -1.26519476 1.98262254
    endloop
  endfacet
  facet normal 0.660319304 -0.66182174 -0.354923091
    outer loop
      vertex 4.04827806 -1.24094589 2.07427961
      vertex 3.97470814 -1.26519476 1.98262254
      vertex 3.97525766 -1.26429082 1.98195932
    endloop
  endfacet
  facet normal 0.608503342 0.194541037 0.769335732
    outer loop
      vertex 4.04593088 -1.23932073 2.07572515
      vertex 4.04772854 -1.24184984 2.07494283
      vertex 4.04827806 -1.24094589 2.07427961
    endloop
  endfacet
  facet normal -0.608503342 -0.194541037 -0.769335732
    outer loop
      vertex 3.97291048 -1.26266566 1.98340486
      vertex 3.97525766 -1.26429082 1.98195932
      vertex 3.97470814 -1.26519476 1.98262254
    endloop
  endfacet
  facet normal 0.441630386 -0.888498375 -0.124632415
    outer loop
      vertex 4.04772854 -1.24184984 2.07494283
      vertex 4.04690535 -1.24236875 2.07572515
      vertex 3.97388494 -1.26571367 1.98340486
    endloop
  endfacet
  facet normal 0.441630386 -0.888498375 -0.124632415
    outer loop
      vertex 4.04772854 -1.24184984 2.07494283
      vertex 3.97388494 -1.26571367 1.98340486
      vertex 3.97470814 -1.26519476 1.98262254
    endloop
  endfacet
  facet normal 0.608503342 0.194541037 0.769335732
    outer loop
      vertex 4.04593088 -1.23932073 2.07572515
      vertex 4.04690535 -1.24236875 2.07572515
      vertex 4.04772854 -1.24184984 2.07494283
    endloop
  endfacet
  facet normal -0.608503342 -0.194541037 -0.769335732
    outer loop
      vertex 3.97291048 -1.26266566 1.98340486
      vertex 3.97470814 -1.26519476 1.98262254
      vertex 3.97388494 -1.26571367 1.98340486
    endloop
  endfacet
  facet normal 0.155707245 -0.979909187 0.124632415
    outer loop
      vertex 4.04690535 -1.24236875 2.07572515
      vertex 4.0459338 -1.24242363 2.07650747
      vertex 3.97291339 -1.26576855 1.98418718
    endloop
  endfacet
  facet normal 0.155707245 -0.979909187 0.124632415
    outer loop
      vertex 4.04690535 -1.24236875 2.07572515
      vertex 3.97291339 -1.26576855 1.98418718
      vertex 3.97388494 -1.26571367 1.98340486
    endloop
  endfacet
  facet normal 0.608503342 0.194541037 0.769335732
    outer loop
      vertex 4.04593088 -1.23932073 2.07572515
      vertex 4.0459338 -1.24242363 2.07650747
      vertex 4.04690535 -1.24236875 2.07572515
    endloop
  endfacet
  facet normal -0.608503342 -0.194541037 -0.769335732
    outer loop
      vertex 3.97291048 -1.26266566 1.98340486
      vertex 3.97388494 -1.26571367 1.98340486
      vertex 3.97291339 -1.26576855 1.98418718
    endloop
  endfacet
  facet normal -0.153920913 -0.922137708 0.354923091
    outer loop
      vertex 4.0459338 -1.24242363 2.07650747
      vertex 4.0449618 -1.24200612 2.07717069
      vertex 3.9719414 -1.26535104 1.9848504
    endloop
  endfacet
  facet normal -0.153920913 -0.922137708 0.354923091
    outer loop
      vertex 4.0459338 -1.24242363 2.07650747
      vertex 3.9719414 -1.26535104 1.9848504
      vertex 3.97291339 -1.26576855 1.98418718
    endloop
  endfacet
  facet normal 0.608503342 0.194541037 0.769335732
    outer loop
      vertex 4.04593088 -1.23932073 2.07572515
      vertex 4.0449618 -1.24200612 2.07717069
      vertex 4.0459338 -1.24242363 2.07650747
    endloop
  endfacet
  facet normal -0.608503342 -0.194541037 -0.769335732
    outer loop
      vertex 3.97291048 -1.26266566 1.98340486
      vertex 3.97291339 -1.26576855 1.98418718
      vertex 3.9719414 -1.26535104 1.9848504
    endloop
  endfacet
  facet normal -0.440116007 -0.723979122 0.531179943
    outer loop
      vertex 4.0449618 -1.24200612 2.07717069
      vertex 4.04413734 -1.24117978 2.07761384
      vertex 3.97111694 -1.26452471 1.98529355
    endloop
  endfacet
  facet normal -0.440116007 -0.723979122 0.531179943
    outer loop
      vertex 4.0449618 -1.24200612 2.07717069
      vertex 3.97111694 -1.26452471 1.98529355
      vertex 3.9719414 -1.26535104 1.9848504
    endloop
  endfacet
  facet normal 0.608503342 0.194541037 0.769335732
    outer loop
      vertex 4.04593088 -1.23932073 2.07572515
      vertex 4.04413734 -1.24117978 2.07761384
      vertex 4.0449618 -1.24200612 2.07717069
    endloop
  endfacet
  facet normal -0.608503342 -0.194541037 -0.769335732
    outer loop
      vertex 3.97291048 -1.26266566 1.98340486
      vertex 3.9719414 -1.26535104 1.9848504
      vertex 3.97111694 -1.26452471 1.98529355
    endloop
  endfacet
  facet normal -0.659307428 -0.415601278 0.626569464
    outer loop
      vertex 4.04413734 -1.24117978 2.07761384
      vertex 4.04358593 -1.24007042 2.07776945
      vertex 3.97056553 -1.26341535 1.98544916
    endloop
  endfacet
  facet normal -0.659307428 -0.415601278 0.626569464
    outer loop
      vertex 4.04413734 -1.24117978 2.07761384
      vertex 3.97056553 -1.26341535 1.98544916
      vertex 3.97111694 -1.26452471 1.98529355
    endloop
  endfacet
  facet normal 0.608503342 0.194541037 0.769335732
    outer loop
      vertex 4.04593088 -1.23932073 2.07572515
      vertex 4.04358593 -1.24007042 2.07776945
      vertex 4.04413734 -1.24117978 2.07761384
    endloop
  endfacet
  facet normal -0.608503342 -0.194541037 -0.769335732
    outer loop
      vertex 3.97291048 -1.26266566 1.98340486
      vertex 3.97111694 -1.26452471 1.98529355
      vertex 3.97056553 -1.26341535 1.98544916
    endloop
  endfacet
  facet normal -0.778125271 -0.0439519061 0.626569464
    outer loop
      vertex 4.04358593 -1.24007042 2.07776945
      vertex 4.04339152 -1.23884693 2.07761384
      vertex 3.97037112 -1.26219185 1.98529355
    endloop
  endfacet
  facet normal -0.778125271 -0.0439519061 0.626569464
    outer loop
      vertex 4.04358593 -1.24007042 2.07776945
      vertex 3.97037112 -1.26219185 1.98529355
      vertex 3.97056553 -1.26341535 1.98544916
    endloop
  endfacet
  facet normal 0.608503342 0.194541037 0.769335732
    outer loop
      vertex 4.04593088 -1.23932073 2.07572515
      vertex 4.04339152 -1.23884693 2.07761384
      vertex 4.04358593 -1.24007042 2.07776945
    endloop
  endfacet
  facet normal -0.608503342 -0.194541037 -0.769335732
    outer loop
      vertex 3.97291048 -1.26266566 1.98340486
      vertex 3.97056553 -1.26341535 1.98544916
      vertex 3.97037112 -1.26219185 1.98529355
    endloop
  endfacet
  facet normal -0.778480594 0.334388745 0.531179943
    outer loop
      vertex 4.04339152 -1.23884693 2.07761384
      vertex 4.0435837 -1.23769557 2.07717069
      vertex 3.9705633 -1.26104049 1.9848504
    endloop
  endfacet
  facet normal -0.778480594 0.334388745 0.531179943
    outer loop
      vertex 4.04339152 -1.23884693 2.07761384
      vertex 3.9705633 -1.26104049 1.9848504
      vertex 3.97037112 -1.26219185 1.98529355
    endloop
  endfacet
  facet normal 0.608503342 0.194541037 0.769335732
    outer loop
      vertex 4.04593088 -1.23932073 2.07572515
      vertex 4.0435837 -1.23769557 2.07717069
      vertex 4.04339152 -1.23884693 2.07761384
    endloop
  endfacet
  facet normal -0.608503342 -0.194541037 -0.769335732
    outer loop
      vertex 3.97291048 -1.26266566 1.98340486
      vertex 3.97037112 -1.26219185 1.98529355
      vertex 3.9705633 -1.26104049 1.9848504
    endloop
  endfacet
  facet normal -0.660319304 0.66182174 0.354923091
    outer loop
      vertex 4.0435837 -1.23769557 2.07717069
      vertex 4.04413322 -1.23679162 2.07650747
      vertex 3.97111282 -1.26013655 1.98418718
    endloop
  endfacet
  facet normal -0.660319304 0.66182174 0.354923091
    outer loop
      vertex 4.0435837 -1.23769557 2.07717069
      vertex 3.97111282 -1.26013655 1.98418718
      vertex 3.9705633 -1.26104049 1.9848504
    endloop
  endfacet
  facet normal 0.608503342 0.194541037 0.769335732
    outer loop
      vertex 4.04593088 -1.23932073 2.07572515
      vertex 4.04413322 -1.23679162 2.07650747
      vertex 4.0435837 -1.23769557 2.07717069
    endloop
  endfacet
  facet normal -0.608503342 -0.194541037 -0.769335732
    outer loop
      vertex 3.97291048 -1.26266566 1.98340486
      vertex 3.9705633 -1.26104049 1.9848504
      vertex 3.97111282 -1.26013655 1.98418718
    endloop
  endfacet
  facet normal -0.441630386 0.888498375 0.124632415
    outer loop
      vertex 4.04413322 -1.23679162 2.07650747
      vertex 4.04495642 -1.23627271 2.07572515
      vertex 3.97193602 -1.25961764 1.98340486
    endloop
  endfacet
  facet normal -0.441630386 0.888498375 0.124632415
    outer loop
      vertex 4.04413322 -1.23679162 2.07650747
      vertex 3.97193602 -1.25961764 1.98340486
      vertex 3.97111282 -1.26013655 1.98418718
    endloop
  endfacet
  facet normal 0.608503342 0.194541037 0.769335732
    outer loop
      vertex 4.04593088 -1.23932073 2.07572515
      vertex 4.04495642 -1.23627271 2.07572515
      vertex 4.04413322 -1.23679162 2.07650747
    endloop
  endfacet
  facet normal -0.608503342 -0.194541037 -0.769335732
    outer loop
      vertex 3.97291048 -1.26266566 1.98340486
      vertex 3.97111282 -1.26013655 1.98418718
      vertex 3.97193602 -1.25961764 1.98340486
    endloop
  endfacet
  facet normal -0.155707245 0.979909187 -0.124632415
    outer loop
      vertex 4.06194924 -1.21909742 2.05794164
      vertex 4.06292079 -1.21904255 2.05715931
      vertex 3.98990039 -1.24238747 1.96483903
    endloop
  endfacet
  facet normal -0.155707245 0.979909187 -0.124632415
    outer loop
      vertex 4.06194924 -1.21909742 2.05794164
      vertex 3.98990039 -1.24238747 1.96483903
      vertex 3.98892884 -1.24244235 1.96562135
    endloop
  endfacet
  facet normal 0.608503342 0.194541037 0.769335732
    outer loop
      vertex 4.06292371 -1.22214544 2.05794164
      vertex 4.06292079 -1.21904255 2.05715931
      vertex 4.06194924 -1.21909742 2.05794164
    endloop
  endfacet
  facet normal -0.608503342 -0.194541037 -0.769335732
    outer loop
      vertex 3.98990331 -1.24549037 1.96562135
      vertex 3.98892884 -1.24244235 1.96562135
      vertex 3.98990039 -1.24238747 1.96483903
    endloop
  endfacet
  facet normal 0.153920913 0.922137708 -0.354923091
    outer loop
      vertex 4.06292079 -1.21904255 2.05715931
      vertex 4.06389279 -1.21946006 2.05649609
      vertex 3.99087239 -1.24280498 1.96417581
    endloop
  endfacet
  facet normal 0.153920913 0.922137708 -0.354923091
    outer loop
      vertex 4.06292079 -1.21904255 2.05715931
      vertex 3.99087239 -1.24280498 1.96417581
      vertex 3.98990039 -1.24238747 1.96483903
    endloop
  endfacet
  facet normal 0.608503342 0.194541037 0.769335732
    outer loop
      vertex 4.06292371 -1.22214544 2.05794164
      vertex 4.06389279 -1.21946006 2.05649609
      vertex 4.06292079 -1.21904255 2.05715931
    endloop
  endfacet
  facet normal -0.608503342 -0.194541037 -0.769335732
    outer loop
      vertex 3.98990331 -1.24549037 1.96562135
      vertex 3.98990039 -1.24238747 1.96483903
      vertex 3.99087239 -1.24280498 1.96417581
    endloop
  endfacet
  facet normal 0.440116007 0.723979122 -0.531179943
    outer loop
      vertex 4.06389279 -1.21946006 2.05649609
      vertex 4.06471725 -1.22028639 2.05605295
      vertex 3.99169685 -1.24363132 1.96373266
    endloop
  endfacet
  facet normal 0.440116007 0.723979122 -0.531179943
    outer loop
      vertex 4.06389279 -1.21946006 2.05649609
      vertex 3.99169685 -1.24363132 1.96373266
      vertex 3.99087239 -1.24280498 1.96417581
    endloop
  endfacet
  facet normal 0.608503342 0.194541037 0.769335732
    outer loop
      vertex 4.06292371 -1.22214544 2.05794164
      vertex 4.06471725 -1.22028639 2.05605295
      vertex 4.06389279 -1.21946006 2.05649609
    endloop
  endfacet
  facet normal -0.608503342 -0.194541037 -0.769335732
    outer loop
      vertex 3.98990331 -1.24549037 1.96562135
      vertex 3.99087239 -1.24280498 1.96417581
      vertex 3.99169685 -1.24363132 1.96373266
    endloop
  endfacet
  facet normal 0.659307428 0.415601278 -0.626569464
    outer loop
      vertex 4.06471725 -1.22028639 2.05605295
      vertex 4.06526866 -1.22139575 2.05589733
      vertex 3.99224826 -1.24474068 1.96357704
    endloop
  endfacet
  facet normal 0.659307428 0.415601278 -0.626569464
    outer loop
      vertex 4.06471725 -1.22028639 2.05605295
      vertex 3.99224826 -1.24474068 1.96357704
      vertex 3.99169685 -1.24363132 1.96373266
    endloop
  endfacet
  facet normal 0.608503342 0.194541037 0.769335732
    outer loop
      vertex 4.06292371 -1.22214544 2.05794164
      vertex 4.06526866 -1.22139575 2.05589733
      vertex 4.06471725 -1.22028639 2.05605295
    endloop
  endfacet
  facet normal -0.608503342 -0.194541037 -0.769335732
    outer loop
      vertex 3.98990331 -1.24549037 1.96562135
      vertex 3.99169685 -1.24363132 1.96373266
      vertex 3.99224826 -1.24474068 1.96357704
    endloop
  endfacet
  facet normal 0.778125271 0.0439519061 -0.626569464
    outer loop
      vertex 4.06526866 -1.22139575 2.05589733
      vertex 4.06546307 -1.22261925 2.05605295
      vertex 3.99244267 -1.24596417 1.96373266
    endloop
  endfacet
  facet normal 0.778125271 0.0439519061 -0.626569464
    outer loop
      vertex 4.06526866 -1.22139575 2.05589733
      vertex 3.99244267 -1.24596417 1.96373266
      vertex 3.99224826 -1.24474068 1.96357704
    endloop
  endfacet
  facet normal 0.608503342 0.194541037 0.769335732
    outer loop
      vertex 4.06292371 -1.22214544 2.05794164
      vertex 4.06546307 -1.22261925 2.05605295
      vertex 4.06526866 -1.22139575 2.05589733
    endloop
  endfacet
  facet normal -0.608503342 -0.194541037 -0.769335732
    outer loop
      vertex 3.98990331 -1.24549037 1.96562135
      vertex 3.99224826 -1.24474068 1.96357704
      vertex 3.99244267 -1.24596417 1.96373266
    endloop
  endfacet
  facet normal 0.778480594 -0.334388745 -0.531179943
    outer loop
      vertex 4.06546307 -1.22261925 2.05605295
      vertex 4.06527089 -1.22377061 2.05649609
      vertex 3.99225049 -1.24711553 1.96417581
    endloop
  endfacet
  facet normal 0.778480594 -0.334388745 -0.531179943
    outer loop
      vertex 4.06546307 -1.22261925 2.05605295
      vertex 3.99225049 -1.24711553 1.96417581
      vertex 3.99244267 -1.24596417 1.96373266
    endloop
  endfacet
  facet normal 0.608503342 0.194541037 0.769335732
    outer loop
      vertex 4.06292371 -1.22214544 2.05794164
      vertex 4.06527089 -1.22377061 2.05649609
      vertex 4.06546307 -1.22261925 2.05605295
    endloop
  endfacet
  facet normal -0.608503342 -0.194541037 -0.769335732
    outer loop
      vertex 3.98990331 -1.24549037 1.96562135
      vertex 3.99244267 -1.24596417 1.96373266
      vertex 3.99225049 -1.24711553 1.96417581
    endloop
  endfacet
  facet normal 0.660319304 -0.66182174 -0.354923091
    outer loop
      vertex 4.06527089 -1.22377061 2.05649609
      vertex 4.06472137 -1.22467455 2.05715931
      vertex 3.99170097 -1.24801948 1.96483903
    endloop
  endfacet
  facet normal 0.660319304 -0.66182174 -0.354923091
    outer loop
      vertex 4.06527089 -1.22377061 2.05649609
      vertex 3.99170097 -1.24801948 1.96483903
      vertex 3.99225049 -1.24711553 1.96417581
    endloop
  endfacet
  facet normal 0.608503342 0.194541037 0.769335732
    outer loop
      vertex 4.06292371 -1.22214544 2.05794164
      vertex 4.06472137 -1.22467455 2.05715931
      vertex 4.06527089 -1.22377061 2.05649609
    endloop
  endfacet
  facet normal -0.608503342 -0.194541037 -0.769335732
    outer loop
      vertex 3.98990331 -1.24549037 1.96562135
      vertex 3.99225049 -1.24711553 1.96417581
      vertex 3.99170097 -1.24801948 1.96483903
    endloop
  endfacet
  facet normal 0.441630386 -0.888498375 -0.124632415
    outer loop
      vertex 4.06472137 -1.22467455 2.05715931
      vertex 4.06389817 -1.22519346 2.05794164
      vertex 3.99087777 -1.24853839 1.96562135
    endloop
  endfacet
  facet normal 0.441630386 -0.888498375 -0.124632415
    outer loop
      vertex 4.06472137 -1.22467455 2.05715931
      vertex 3.99087777 -1.24853839 1.96562135
      vertex 3.99170097 -1.24801948 1.96483903
    endloop
  endfacet
  facet normal 0.608503342 0.194541037 0.769335732
    outer loop
      vertex 4.06292371 -1.22214544 2.05794164
      vertex 4.06389817 -1.22519346 2.05794164
      vertex 4.06472137 -1.22467455 2.05715931
    endloop
  endfacet
  facet normal -0.608503342 -0.194541037 -0.769335732
    outer loop
      vertex 3.98990331 -1.24549037 1.96562135
      vertex 3.99170097 -1.24801948 1.96483903
      vertex 3.99087777 -1.24853839 1.96562135
    endloop
  endfacet
  facet normal 0.155707245 -0.979909187 0.124632415
    outer loop
      vertex 4.06389817 -1.22519346 2.05794164
      vertex 4.06292662 -1.22524834 2.05872396
      vertex 3.98990622 -1.24859326 1.96640367
    endloop
  endfacet
  facet normal 0.155707245 -0.979909187 0.124632415
    outer loop
      vertex 4.06389817 -1.22519346 2.05794164
      vertex 3.98990622 -1.24859326 1.96640367
      vertex 3.99087777 -1.24853839 1.96562135
    endloop
  endfacet
  facet normal 0.608503342 0.194541037 0.769335732
    outer loop
      vertex 4.06292371 -1.22214544 2.05794164
      vertex 4.06292662 -1.22524834 2.05872396
      vertex 4.06389817 -1.22519346 2.05794164
    endloop
  endfacet
  facet normal -0.608503342 -0.194541037 -0.769335732
    outer loop
      vertex 3.98990331 -1.24549037 1.96562135
      vertex 3.99087777 -1.24853839 1.96562135
      vertex 3.98990622 -1.24859326 1.96640367
    endloop
  endfacet
  facet normal -0.153920913 -0.922137708 0.354923091
    outer loop
      vertex 4.06292662 -1.22524834 2.05872396
      vertex 4.06195463 -1.22483083 2.05938718
      vertex 3.98893423 -1.24817575 1.96706689
    endloop
  endfacet
  facet normal -0.153920913 -0.922137708 0.354923091
    outer loop
      vertex 4.06292662 -1.22524834 2.05872396
      vertex 3.98893423 -1.24817575 1.96706689
      vertex 3.98990622 -1.24859326 1.96640367
    endloop
  endfacet
  facet normal 0.608503342 0.194541037 0.769335732
    outer loop
      vertex 4.06292371 -1.22214544 2.05794164
      vertex 4.06195463 -1.22483083 2.05938718
      vertex 4.06292662 -1.22524834 2.05872396
    endloop
  endfacet
  facet normal -0.608503342 -0.194541037 -0.769335732
    outer loop
      vertex 3.98990331 -1.24549037 1.96562135
      vertex 3.98990622 -1.24859326 1.96640367
      vertex 3.98893423 -1.24817575 1.96706689
    endloop
  endfacet
  facet normal -0.440116007 -0.723979122 0.531179943
    outer loop
      vertex 4.06195463 -1.22483083 2.05938718
      vertex 4.06113017 -1.22400449 2.05983033
      vertex 3.98810977 -1.24734942 1.96751004
    endloop
  endfacet
  facet normal -0.440116007 -0.723979122 0.531179943
    outer loop
      vertex 4.06195463 -1.22483083 2.05938718
      vertex 3.98810977 -1.24734942 1.96751004
      vertex 3.98893423 -1.24817575 1.96706689
    endloop
  endfacet
  facet normal 0.608503342 0.194541037 0.769335732
    outer loop
      vertex 4.06292371 -1.22214544 2.05794164
      vertex 4.06113017 -1.22400449 2.05983033
      vertex 4.06195463 -1.22483083 2.05938718
    endloop
  endfacet
  facet normal -0.608503342 -0.194541037 -0.769335732
    outer loop
      vertex 3.98990331 -1.24549037 1.96562135
      vertex 3.98893423 -1.24817575 1.96706689
      vertex 3.98810977 -1.24734942 1.96751004
    endloop
  endfacet
  facet normal -0.659307428 -0.415601278 0.626569464
    outer loop
      vertex 4.06113017 -1.22400449 2.05983033
      vertex 4.06057876 -1.22289513 2.05998594
      vertex 3.98755836 -1.24624006 1.96766565
    endloop
  endfacet
  facet normal -0.659307428 -0.415601278 0.626569464
    outer loop
      vertex 4.06113017 -1.22400449 2.05983033
      vertex 3.98755836 -1.24624006 1.96766565
      vertex 3.98810977 -1.24734942 1.96751004
    endloop
  endfacet
  facet normal 0.608503342 0.194541037 0.769335732
    outer loop
      vertex 4.06292371 -1.22214544 2.05794164
      vertex 4.06057876 -1.22289513 2.05998594
      vertex 4.06113017 -1.22400449 2.05983033
    endloop
  endfacet
  facet normal -0.608503342 -0.194541037 -0.769335732
    outer loop
      vertex 3.98990331 -1.24549037 1.96562135
      vertex 3.98810977 -1.24734942 1.96751004
      vertex 3.98755836 -1.24624006 1.96766565
    endloop
  endfacet
  facet normal -0.778125271 -0.0439519061 0.626569464
    outer loop
      vertex 4.06057876 -1.22289513 2.05998594
      vertex 4.06038435 -1.22167164 2.05983033
      vertex 3.98736395 -1.24501656 1.96751004
    endloop
  endfacet
  facet normal -0.778125271 -0.0439519061 0.626569464
    outer loop
      vertex 4.06057876 -1.22289513 2.05998594
      vertex 3.98736395 -1.24501656 1.96751004
      vertex 3.98755836 -1.24624006 1.96766565
    endloop
  endfacet
  facet normal 0.608503342 0.194541037 0.769335732
    outer loop
      vertex 4.06292371 -1.22214544 2.05794164
      vertex 4.06038435 -1.22167164 2.05983033
      vertex 4.06057876 -1.22289513 2.05998594
    endloop
  endfacet
  facet normal -0.608503342 -0.194541037 -0.769335732
    outer loop
      vertex 3.98990331 -1.24549037 1.96562135
      vertex 3.98755836 -1.24624006 1.96766565
      vertex 3.98736395 -1.24501656 1.96751004
    endloop
  endfacet
  facet normal -0.778480594 0.334388745 0.531179943
    outer loop
      vertex 4.06038435 -1.22167164 2.05983033
      vertex 4.06057653 -1.22052028 2.05938718
      vertex 3.98755613 -1.2438652 1.96706689
    endloop
  endfacet
  facet normal -0.778480594 0.334388745 0.531179943
    outer loop
      vertex 4.06038435 -1.22167164 2.05983033
      vertex 3.98755613 -1.2438652 1.96706689
      vertex 3.98736395 -1.24501656 1.96751004
    endloop
  endfacet
  facet normal 0.608503342 0.194541037 0.769335732
    outer loop
      vertex 4.06292371 -1.22214544 2.05794164
      vertex 4.06057653 -1.22052028 2.05938718
      vertex 4.06038435 -1.22167164 2.05983033
    endloop
  endfacet
  facet normal -0.608503342 -0.194541037 -0.769335732
    outer loop
      vertex 3.98990331 -1.24549037 1.96562135
      vertex 3.98736395 -1.24501656 1.96751004
      vertex 3.98755613 -1.2438652 1.96706689
    endloop
  endfacet
  facet normal -0.660319304 0.66182174 0.354923091
    outer loop
      vertex 4.06057653 -1.22052028 2.05938718
      vertex 4.06112605 -1.21961633 2.05872396
      vertex 3.98810565 -1.24296126 1.96640367
    endloop
  endfacet
  facet normal -0.660319304 0.66182174 0.354923091
    outer loop
      vertex 4.06057653 -1.22052028 2.05938718
      vertex 3.98810565 -1.24296126 1.96640367
      vertex 3.98755613 -1.2438652 1.96706689
    endloop
  endfacet
  facet normal 0.608503342 0.194541037 0.769335732
    outer loop
      vertex 4.06292371 -1.22214544 2.05794164
      vertex 4.06112605 -1.21961633 2.05872396
      vertex 4.06057653 -1.22052028 2.05938718
    endloop
  endfacet
  facet normal -0.608503342 -0.194541037 -0.769335732
    outer loop
      vertex 3.98990331 -1.24549037 1.96562135
      vertex 3.98755613 -1.2438652 1.96706689
      vertex 3.98810565 -1.24296126 1.96640367
    endloop
  endfacet
  facet normal -0.441630386 0.888498375 0.124632415
    outer loop
      vertex 4.06112605 -1.21961633 2.05872396
      vertex 4.06194924 -1.21909742 2.05794164
      vertex 3.98892884 -1.24244235 1.96562135
    endloop
  endfacet
  facet normal -0.441630386 0.888498375 0.124632415
    outer loop
      vertex 4.06112605 -1.21961633 2.05872396
      vertex 3.98892884 -1.24244235 1.96562135
      vertex 3.98810565 -1.24296126 1.96640367
    endloop
  endfacet
  facet normal 0.608503342 0.194541037 0.769335732
    outer loop
      vertex 4.06292371 -1.22214544 2.05794164
      vertex 4.06194924 -1.21909742 2.05794164
      vertex 4.06112605 -1.21961633 2.05872396
    endloop
  endfacet
  facet normal -0.608503342 -0.194541037 -0.769335732
    outer loop
      vertex 3.98990331 -1.24549037 1.96562135
      vertex 3.98810565 -1.24296126 1.96640367
      vertex 3.98892884 -1.24244235 1.96562135
    endloop
  endfacet
  facet normal 0.795922263 0.573249289 -0.194661255
    outer loop
      vertex 4.10226332 -1.14732422 1.94465766
      vertex 4.10201724 -1.14739747 1.94343577
      vertex 4.01615445 -1.02480579 1.95337865
    endloop
  endfacet
  facet normal 0.795922263 0.573249289 -0.194661255
    outer loop
      vertex 4.10226332 -1.14732422 1.94465766
      vertex 4.01615445 -1.02480579 1.95337865
      vertex 4.01640053 -1.02473253 1.95460054
    endloop
  endfacet
  facet normal 0.572418569 -0.817277899 -0.0662858721
    outer loop
      vertex 4.09964227 -1.14915999 1.94465766
      vertex 4.10201724 -1.14739747 1.94343577
      vertex 4.10226332 -1.14732422 1.94465766
    endloop
  endfacet
  facet normal -0.572418569 0.817277899 0.0662858721
    outer loop
      vertex 4.01377948 -1.02656831 1.95460054
      vertex 4.01640053 -1.02473253 1.95460054
      vertex 4.01615445 -1.02480579 1.95337865
    endloop
  endfacet
  facet normal 0.659912954 0.50716151 -0.554348352
    outer loop
      vertex 4.10201724 -1.14739747 1.94343577
      vertex 4.10140959 -1.14773905 1.9423999
      vertex 4.0155468 -1.02514737 1.95234278
    endloop
  endfacet
  facet normal 0.659912954 0.50716151 -0.554348352
    outer loop
      vertex 4.10201724 -1.14739747 1.94343577
      vertex 4.0155468 -1.02514737 1.95234278
      vertex 4.01615445 -1.02480579 1.95337865
    endloop
  endfacet
  facet normal 0.572418569 -0.817277899 -0.0662858721
    outer loop
      vertex 4.09964227 -1.14915999 1.94465766
      vertex 4.10140959 -1.14773905 1.9423999
      vertex 4.10201724 -1.14739747 1.94343577
    endloop
  endfacet
  facet normal -0.572418569 0.817277899 0.0662858721
    outer loop
      vertex 4.01377948 -1.02656831 1.95460054
      vertex 4.01615445 -1.02480579 1.95337865
      vertex 4.0155468 -1.02514737 1.95234278
    endloop
  endfacet
  facet normal 0.42343788 0.363862988 -0.829640939
    outer loop
      vertex 4.10140959 -1.14773905 1.9423999
      vertex 4.10053288 -1.14829696 1.94170775
      vertex 4.01467009 -1.02570527 1.95165063
    endloop
  endfacet
  facet normal 0.42343788 0.363862988 -0.829640939
    outer loop
      vertex 4.10140959 -1.14773905 1.9423999
      vertex 4.01467009 -1.02570527 1.95165063
      vertex 4.0155468 -1.02514737 1.95234278
    endloop
  endfacet
  facet normal 0.572418569 -0.817277899 -0.0662858721
    outer loop
      vertex 4.09964227 -1.14915999 1.94465766
      vertex 4.10053288 -1.14829696 1.94170775
      vertex 4.10140959 -1.14773905 1.9423999
    endloop
  endfacet
  facet normal -0.572418569 0.817277899 0.0662858721
    outer loop
      vertex 4.01377948 -1.02656831 1.95460054
      vertex 4.0155468 -1.02514737 1.95234278
      vertex 4.01467009 -1.02570527 1.95165063
    endloop
  endfacet
  facet normal 0.122498227 0.165169626 -0.978628213
    outer loop
      vertex 4.10053288 -1.14829696 1.94170775
      vertex 4.09952058 -1.14898626 1.9414647
      vertex 4.01365779 -1.02639457 1.95140758
    endloop
  endfacet
  facet normal 0.122498227 0.165169626 -0.978628213
    outer loop
      vertex 4.10053288 -1.14829696 1.94170775
      vertex 4.01365779 -1.02639457 1.95140758
      vertex 4.01467009 -1.02570527 1.95165063
    endloop
  endfacet
  facet normal 0.572418569 -0.817277899 -0.0662858721
    outer loop
      vertex 4.09964227 -1.14915999 1.94465766
      vertex 4.09952058 -1.14898626 1.9414647
      vertex 4.10053288 -1.14829696 1.94170775
    endloop
  endfacet
  facet normal -0.572418569 0.817277899 0.0662858721
    outer loop
      vertex 4.01377948 -1.02656831 1.95460054
      vertex 4.01467009 -1.02570527 1.95165063
      vertex 4.01365779 -1.02639457 1.95140758
    endloop
  endfacet
  facet normal -0.19709067 -0.0586693155 -0.978628213
    outer loop
      vertex 4.09952058 -1.14898626 1.9414647
      vertex 4.09852681 -1.149702 1.94170775
      vertex 4.01266402 -1.02711032 1.95165063
    endloop
  endfacet
  facet normal -0.19709067 -0.0586693155 -0.978628213
    outer loop
      vertex 4.09952058 -1.14898626 1.9414647
      vertex 4.01266402 -1.02711032 1.95165063
      vertex 4.01365779 -1.02639457 1.95140758
    endloop
  endfacet
  facet normal 0.572418569 -0.817277899 -0.0662858721
    outer loop
      vertex 4.09964227 -1.14915999 1.94465766
      vertex 4.09852681 -1.149702 1.94170775
      vertex 4.09952058 -1.14898626 1.9414647
    endloop
  endfacet
  facet normal -0.572418569 0.817277899 0.0662858721
    outer loop
      vertex 4.01377948 -1.02656831 1.95460054
      vertex 4.01365779 -1.02639457 1.95140758
      vertex 4.01266402 -1.02711032 1.95165063
    endloop
  endfacet
  facet normal -0.4866743 -0.273576385 -0.829640939
    outer loop
      vertex 4.09852681 -1.149702 1.94170775
      vertex 4.09770286 -1.15033523 1.9423999
      vertex 4.01184007 -1.02774355 1.95234278
    endloop
  endfacet
  facet normal -0.4866743 -0.273576385 -0.829640939
    outer loop
      vertex 4.09852681 -1.149702 1.94170775
      vertex 4.01184007 -1.02774355 1.95234278
      vertex 4.01266402 -1.02711032 1.95165063
    endloop
  endfacet
  facet normal 0.572418569 -0.817277899 -0.0662858721
    outer loop
      vertex 4.09964227 -1.14915999 1.94465766
      vertex 4.09770286 -1.15033523 1.9423999
      vertex 4.09852681 -1.149702 1.94170775
    endloop
  endfacet
  facet normal -0.572418569 0.817277899 0.0662858721
    outer loop
      vertex 4.01377948 -1.02656831 1.95460054
      vertex 4.01266402 -1.02711032 1.95165063
      vertex 4.01184007 -1.02774355 1.95234278
    endloop
  endfacet
  facet normal -0.702166179 -0.44683393 -0.554348352
    outer loop
      vertex 4.09770286 -1.15033523 1.9423999
      vertex 4.09717416 -1.15078954 1.94343577
      vertex 4.01131138 -1.02819786 1.95337865
    endloop
  endfacet
  facet normal -0.702166179 -0.44683393 -0.554348352
    outer loop
      vertex 4.09770286 -1.15033523 1.9423999
      vertex 4.01131138 -1.02819786 1.95337865
      vertex 4.01184007 -1.02774355 1.95234278
    endloop
  endfacet
  facet normal 0.572418569 -0.817277899 -0.0662858721
    outer loop
      vertex 4.09964227 -1.14915999 1.94465766
      vertex 4.09717416 -1.15078954 1.94343577
      vertex 4.09770286 -1.15033523 1.9423999
    endloop
  endfacet
  facet normal -0.572418569 0.817277899 0.0662858721
    outer loop
      vertex 4.01377948 -1.02656831 1.95460054
      vertex 4.01184007 -1.02774355 1.95234278
      vertex 4.01131138 -1.02819786 1.95337865
    endloop
  endfacet
  facet normal -0.810759623 -0.55206506 -0.194661255
    outer loop
      vertex 4.09717416 -1.15078954 1.94343577
      vertex 4.09702121 -1.15099577 1.94465766
      vertex 4.01115843 -1.02840409 1.95460054
    endloop
  endfacet
  facet normal -0.810759623 -0.55206506 -0.194661255
    outer loop
      vertex 4.09717416 -1.15078954 1.94343577
      vertex 4.01115843 -1.02840409 1.95460054
      vertex 4.01131138 -1.02819786 1.95337865
    endloop
  endfacet
  facet normal 0.572418569 -0.817277899 -0.0662858721
    outer loop
      vertex 4.09964227 -1.14915999 1.94465766
      vertex 4.09702121 -1.15099577 1.94465766
      vertex 4.09717416 -1.15078954 1.94343577
    endloop
  endfacet
  facet normal -0.572418569 0.817277899 0.0662858721
    outer loop
      vertex 4.01377948 -1.02656831 1.95460054
      vertex 4.01131138 -1.02819786 1.95337865
      vertex 4.01115843 -1.02840409 1.95460054
    endloop
  endfacet
  facet normal -0.795922263 -0.573249289 0.194661255
    outer loop
      vertex 4.09702121 -1.15099577 1.94465766
      vertex 4.0972673 -1.15092252 1.94587955
      vertex 4.01140451 -1.02833083 1.95582244
    endloop
  endfacet
  facet normal -0.795922263 -0.573249289 0.194661255
    outer loop
      vertex 4.09702121 -1.15099577 1.94465766
      vertex 4.01140451 -1.02833083 1.95582244
      vertex 4.01115843 -1.02840409 1.95460054
    endloop
  endfacet
  facet normal 0.572418569 -0.817277899 -0.0662858721
    outer loop
      vertex 4.09964227 -1.14915999 1.94465766
      vertex 4.0972673 -1.15092252 1.94587955
      vertex 4.09702121 -1.15099577 1.94465766
    endloop
  endfacet
  facet normal -0.572418569 0.817277899 0.0662858721
    outer loop
      vertex 4.01377948 -1.02656831 1.95460054
      vertex 4.01115843 -1.02840409 1.95460054
      vertex 4.01140451 -1.02833083 1.95582244
    endloop
  endfacet
  facet normal -0.659912954 -0.50716151 0.554348352
    outer loop
      vertex 4.0972673 -1.15092252 1.94587955
      vertex 4.09787495 -1.15058094 1.94691543
      vertex 4.01201216 -1.02798925 1.95685831
    endloop
  endfacet
  facet normal -0.659912954 -0.50716151 0.554348352
    outer loop
      vertex 4.0972673 -1.15092252 1.94587955
      vertex 4.01201216 -1.02798925 1.95685831
      vertex 4.01140451 -1.02833083 1.95582244
    endloop
  endfacet
  facet normal 0.572418569 -0.817277899 -0.0662858721
    outer loop
      vertex 4.09964227 -1.14915999 1.94465766
      vertex 4.09787495 -1.15058094 1.94691543
      vertex 4.0972673 -1.15092252 1.94587955
    endloop
  endfacet
  facet normal -0.572418569 0.817277899 0.0662858721
    outer loop
      vertex 4.01377948 -1.02656831 1.95460054
      vertex 4.01140451 -1.02833083 1.95582244
      vertex 4.01201216 -1.02798925 1.95685831
    endloop
  endfacet
  facet normal -0.42343788 -0.363862988 0.829640939
    outer loop
      vertex 4.09787495 -1.15058094 1.94691543
      vertex 4.09875166 -1.15002303 1.94760757
      vertex 4.01288887 -1.02743134 1.95755045
    endloop
  endfacet
  facet normal -0.42343788 -0.363862988 0.829640939
    outer loop
      vertex 4.09787495 -1.15058094 1.94691543
      vertex 4.01288887 -1.02743134 1.95755045
      vertex 4.01201216 -1.02798925 1.95685831
    endloop
  endfacet
  facet normal 0.572418569 -0.817277899 -0.0662858721
    outer loop
      vertex 4.09964227 -1.14915999 1.94465766
      vertex 4.09875166 -1.15002303 1.94760757
      vertex 4.09787495 -1.15058094 1.94691543
    endloop
  endfacet
  facet normal -0.572418569 0.817277899 0.0662858721
    outer loop
      vertex 4.01377948 -1.02656831 1.95460054
      vertex 4.01201216 -1.02798925 1.95685831
      vertex 4.01288887 -1.02743134 1.95755045
    endloop
  endfacet
  facet normal -0.122498227 -0.165169626 0.978628213
    outer loop
      vertex 4.09875166 -1.15002303 1.94760757
      vertex 4.09976395 -1.14933373 1.94785062
      vertex 4.01390117 -1.02674205 1.9577935
    endloop
  endfacet
  facet normal -0.122498227 -0.165169626 0.978628213
    outer loop
      vertex 4.09875166 -1.15002303 1.94760757
      vertex 4.01390117 -1.02674205 1.9577935
      vertex 4.01288887 -1.02743134 1.95755045
    endloop
  endfacet
  facet normal 0.572418569 -0.817277899 -0.0662858721
    outer loop
      vertex 4.09964227 -1.14915999 1.94465766
      vertex 4.09976395 -1.14933373 1.94785062
      vertex 4.09875166 -1.15002303 1.94760757
    endloop
  endfacet
  facet normal -0.572418569 0.817277899 0.0662858721
    outer loop
      vertex 4.01377948 -1.02656831 1.95460054
      vertex 4.01288887 -1.02743134 1.95755045
      vertex 4.01390117 -1.02674205 1.9577935
    endloop
  endfacet
  facet normal 0.19709067 0.0586693155 0.978628213
    outer loop
      vertex 4.09976395 -1.14933373 1.94785062
      vertex 4.10075772 -1.14861799 1.94760757
      vertex 4.01489494 -1.0260263 1.95755045
    endloop
  endfacet
  facet normal 0.19709067 0.0586693155 0.978628213
    outer loop
      vertex 4.09976395 -1.14933373 1.94785062
      vertex 4.01489494 -1.0260263 1.95755045
      vertex 4.01390117 -1.02674205 1.9577935
    endloop
  endfacet
  facet normal 0.572418569 -0.817277899 -0.0662858721
    outer loop
      vertex 4.09964227 -1.14915999 1.94465766
      vertex 4.10075772 -1.14861799 1.94760757
      vertex 4.09976395 -1.14933373 1.94785062
    endloop
  endfacet
  facet normal -0.572418569 0.817277899 0.0662858721
    outer loop
      vertex 4.01377948 -1.02656831 1.95460054
      vertex 4.01390117 -1.02674205 1.9577935
      vertex 4.01489494 -1.0260263 1.95755045
    endloop
  endfacet
  facet normal 0.4866743 0.273576385 0.829640939
    outer loop
      vertex 4.10075772 -1.14861799 1.94760757
      vertex 4.10158168 -1.14798476 1.94691543
      vertex 4.01571889 -1.02539307 1.95685831
    endloop
  endfacet
  facet normal 0.4866743 0.273576385 0.829640939
    outer loop
      vertex 4.10075772 -1.14861799 1.94760757
      vertex 4.01571889 -1.02539307 1.95685831
      vertex 4.01489494 -1.0260263 1.95755045
    endloop
  endfacet
  facet normal 0.572418569 -0.817277899 -0.0662858721
    outer loop
      vertex 4.09964227 -1.14915999 1.94465766
      vertex 4.10158168 -1.14798476 1.94691543
      vertex 4.10075772 -1.14861799 1.94760757
    endloop
  endfacet
  facet normal -0.572418569 0.817277899 0.0662858721
    outer loop
      vertex 4.01377948 -1.02656831 1.95460054
      vertex 4.01489494 -1.0260263 1.95755045
      vertex 4.01571889 -1.02539307 1.95685831
    endloop
  endfacet
  facet normal 0.702166179 0.44683393 0.554348352
    outer loop
      vertex 4.10158168 -1.14798476 1.94691543
      vertex 4.10211037 -1.14753044 1.94587955
      vertex 4.01624759 -1.02493876 1.95582244
    endloop
  endfacet
  facet normal 0.702166179 0.44683393 0.554348352
    outer loop
      vertex 4.10158168 -1.14798476 1.94691543
      vertex 4.01624759 -1.02493876 1.95582244
      vertex 4.01571889 -1.02539307 1.95685831
    endloop
  endfacet
  facet normal 0.572418569 -0.817277899 -0.0662858721
    outer loop
      vertex 4.09964227 -1.14915999 1.94465766
      vertex 4.10211037 -1.14753044 1.94587955
      vertex 4.10158168 -1.14798476 1.94691543
    endloop
  endfacet
  facet normal -0.572418569 0.817277899 0.0662858721
    outer loop
      vertex 4.01377948 -1.02656831 1.95460054
      vertex 4.01571889 -1.02539307 1.95685831
      vertex 4.01624759 -1.02493876 1.95582244
    endloop
  endfacet
  facet normal 0.810759623 0.55206506 0.194661255
    outer loop
      vertex 4.10211037 -1.14753044 1.94587955
      vertex 4.10226332 -1.14732422 1.94465766
      vertex 4.01640053 -1.02473253 1.95460054
    endloop
  endfacet
  facet normal 0.810759623 0.55206506 0.194661255
    outer loop
      vertex 4.10211037 -1.14753044 1.94587955
      vertex 4.01640053 -1.02473253 1.95460054
      vertex 4.01624759 -1.02493876 1.95582244
    endloop
  endfacet
  facet normal 0.572418569 -0.817277899 -0.0662858721
    outer loop
      vertex 4.09964227 -1.14915999 1.94465766
      vertex 4.10226332 -1.14732422 1.94465766
      vertex 4.10211037 -1.14753044 1.94587955
    endloop
  endfacet
  facet normal -0.572418569 0.817277899 0.0662858721
    outer loop
      vertex 4.01377948 -1.02656831 1.95460054
      vertex 4.01624759 -1.02493876 1.95582244
      vertex 4.01640053 -1.02473253 1.95460054
    endloop
  endfacet
  facet normal 0.795922263 0.573249289 -0.194661255
    outer loop
      vertex 4.08737738 -1.15575141 1.92001235
      vertex 4.08713129 -1.15582466 1.91879046
      vertex 4.00126851 -1.03323297 1.92873334
    endloop
  endfacet
  facet normal 0.795922263 0.573249289 -0.194661255
    outer loop
      vertex 4.08737738 -1.15575141 1.92001235
      vertex 4.00126851 -1.03323297 1.92873334
      vertex 4.00151459 -1.03315972 1.92995523
    endloop
  endfacet
  facet normal 0.572418569 -0.817277899 -0.0662858721
    outer loop
      vertex 4.08475632 -1.15758718 1.92001235
      vertex 4.08713129 -1.15582466 1.91879046
      vertex 4.08737738 -1.15575141 1.92001235
    endloop
  endfacet
  facet normal -0.572418569 0.817277899 0.0662858721
    outer loop
      vertex 3.99889354 -1.0349955 1.92995523
      vertex 4.00151459 -1.03315972 1.92995523
      vertex 4.00126851 -1.03323297 1.92873334
    endloop
  endfacet
  facet normal 0.659912954 0.50716151 -0.554348352
    outer loop
      vertex 4.08713129 -1.15582466 1.91879046
      vertex 4.08652364 -1.15616624 1.91775459
      vertex 4.00066086 -1.03357456 1.92769747
    endloop
  endfacet
  facet normal 0.659912954 0.50716151 -0.554348352
    outer loop
      vertex 4.08713129 -1.15582466 1.91879046
      vertex 4.00066086 -1.03357456 1.92769747
      vertex 4.00126851 -1.03323297 1.92873334
    endloop
  endfacet
  facet normal 0.572418569 -0.817277899 -0.0662858721
    outer loop
      vertex 4.08475632 -1.15758718 1.92001235
      vertex 4.08652364 -1.15616624 1.91775459
      vertex 4.08713129 -1.15582466 1.91879046
    endloop
  endfacet
  facet normal -0.572418569 0.817277899 0.0662858721
    outer loop
      vertex 3.99889354 -1.0349955 1.92995523
      vertex 4.00126851 -1.03323297 1.92873334
      vertex 4.00066086 -1.03357456 1.92769747
    endloop
  endfacet
  facet normal 0.42343788 0.363862988 -0.829640939
    outer loop
      vertex 4.08652364 -1.15616624 1.91775459
      vertex 4.08564693 -1.15672415 1.91706244
      vertex 3.99978415 -1.03413246 1.92700532
    endloop
  endfacet
  facet normal 0.42343788 0.363862988 -0.829640939
    outer loop
      vertex 4.08652364 -1.15616624 1.91775459
      vertex 3.99978415 -1.03413246 1.92700532
      vertex 4.00066086 -1.03357456 1.92769747
    endloop
  endfacet
  facet normal 0.572418569 -0.817277899 -0.0662858721
    outer loop
      vertex 4.08475632 -1.15758718 1.92001235
      vertex 4.08564693 -1.15672415 1.91706244
      vertex 4.08652364 -1.15616624 1.91775459
    endloop
  endfacet
  facet normal -0.572418569 0.817277899 0.0662858721
    outer loop
      vertex 3.99889354 -1.0349955 1.92995523
      vertex 4.00066086 -1.03357456 1.92769747
      vertex 3.99978415 -1.03413246 1.92700532
    endloop
  endfacet
  facet normal 0.122498227 0.165169626 -0.978628213
    outer loop
      vertex 4.08564693 -1.15672415 1.91706244
      vertex 4.08463464 -1.15741344 1.91681939
      vertex 3.99877185 -1.03482176 1.92676227
    endloop
  endfacet
  facet normal 0.122498227 0.165169626 -0.978628213
    outer loop
      vertex 4.08564693 -1.15672415 1.91706244
      vertex 3.99877185 -1.03482176 1.92676227
      vertex 3.99978415 -1.03413246 1.92700532
    endloop
  endfacet
  facet normal 0.572418569 -0.817277899 -0.0662858721
    outer loop
      vertex 4.08475632 -1.15758718 1.92001235
      vertex 4.08463464 -1.15741344 1.91681939
      vertex 4.08564693 -1.15672415 1.91706244
    endloop
  endfacet
  facet normal -0.572418569 0.817277899 0.0662858721
    outer loop
      vertex 3.99889354 -1.0349955 1.92995523
      vertex 3.99978415 -1.03413246 1.92700532
      vertex 3.99877185 -1.03482176 1.92676227
    endloop
  endfacet
  facet normal -0.19709067 -0.0586693155 -0.978628213
    outer loop
      vertex 4.08463464 -1.15741344 1.91681939
      vertex 4.08364087 -1.15812919 1.91706244
      vertex 3.99777808 -1.0355375 1.92700532
    endloop
  endfacet
  facet normal -0.19709067 -0.0586693155 -0.978628213
    outer loop
      vertex 4.08463464 -1.15741344 1.91681939
      vertex 3.99777808 -1.0355375 1.92700532
      vertex 3.99877185 -1.03482176 1.92676227
    endloop
  endfacet
  facet normal 0.572418569 -0.817277899 -0.0662858721
    outer loop
      vertex 4.08475632 -1.15758718 1.92001235
      vertex 4.08364087 -1.15812919 1.91706244
      vertex 4.08463464 -1.15741344 1.91681939
    endloop
  endfacet
  facet normal -0.572418569 0.817277899 0.0662858721
    outer loop
      vertex 3.99889354 -1.0349955 1.92995523
      vertex 3.99877185 -1.03482176 1.92676227
      vertex 3.99777808 -1.0355375 1.92700532
    endloop
  endfacet
  facet normal -0.4866743 -0.273576385 -0.829640939
    outer loop
      vertex 4.08364087 -1.15812919 1.91706244
      vertex 4.08281691 -1.15876242 1.91775459
      vertex 3.99695413 -1.03617074 1.92769747
    endloop
  endfacet
  facet normal -0.4866743 -0.273576385 -0.829640939
    outer loop
      vertex 4.08364087 -1.15812919 1.91706244
      vertex 3.99695413 -1.03617074 1.92769747
      vertex 3.99777808 -1.0355375 1.92700532
    endloop
  endfacet
  facet normal 0.572418569 -0.817277899 -0.0662858721
    outer loop
      vertex 4.08475632 -1.15758718 1.92001235
      vertex 4.08281691 -1.15876242 1.91775459
      vertex 4.08364087 -1.15812919 1.91706244
    endloop
  endfacet
  facet normal -0.572418569 0.817277899 0.0662858721
    outer loop
      vertex 3.99889354 -1.0349955 1.92995523
      vertex 3.99777808 -1.0355375 1.92700532
      vertex 3.99695413 -1.03617074 1.92769747
    endloop
  endfacet
  facet normal -0.702166179 -0.44683393 -0.554348352
    outer loop
      vertex 4.08281691 -1.15876242 1.91775459
      vertex 4.08228822 -1.15921673 1.91879046
      vertex 3.99642543 -1.03662505 1.92873334
    endloop
  endfacet
  facet normal -0.702166179 -0.44683393 -0.554348352
    outer loop
      vertex 4.08281691 -1.15876242 1.91775459
      vertex 3.99642543 -1.03662505 1.92873334
      vertex 3.99695413 -1.03617074 1.92769747
    endloop
  endfacet
  facet normal 0.572418569 -0.817277899 -0.0662858721
    outer loop
      vertex 4.08475632 -1.15758718 1.92001235
      vertex 4.08228822 -1.15921673 1.91879046
      vertex 4.08281691 -1.15876242 1.91775459
    endloop
  endfacet
  facet normal -0.572418569 0.817277899 0.0662858721
    outer loop
      vertex 3.99889354 -1.0349955 1.92995523
      vertex 3.99695413 -1.03617074 1.92769747
      vertex 3.99642543 -1.03662505 1.92873334
    endloop
  endfacet
  facet normal -0.810759623 -0.55206506 -0.194661255
    outer loop
      vertex 4.08228822 -1.15921673 1.91879046
      vertex 4.08213527 -1.15942296 1.92001235
      vertex 3.99627248 -1.03683127 1.92995523
    endloop
  endfacet
  facet normal -0.810759623 -0.55206506 -0.194661255
    outer loop
      vertex 4.08228822 -1.15921673 1.91879046
      vertex 3.99627248 -1.03683127 1.92995523
      vertex 3.99642543 -1.03662505 1.92873334
    endloop
  endfacet
  facet normal 0.572418569 -0.817277899 -0.0662858721
    outer loop
      vertex 4.08475632 -1.15758718 1.92001235
      vertex 4.08213527 -1.15942296 1.92001235
      vertex 4.08228822 -1.15921673 1.91879046
    endloop
  endfacet
  facet normal -0.572418569 0.817277899 0.0662858721
    outer loop
      vertex 3.99889354 -1.0349955 1.92995523
      vertex 3.99642543 -1.03662505 1.92873334
      vertex 3.99627248 -1.03683127 1.92995523
    endloop
  endfacet
  facet normal -0.795922263 -0.573249289 0.194661255
    outer loop
      vertex 4.08213527 -1.15942296 1.92001235
      vertex 4.08238135 -1.15934971 1.92123425
      vertex 3.99651857 -1.03675802 1.93117713
    endloop
  endfacet
  facet normal -0.795922263 -0.573249289 0.194661255
    outer loop
      vertex 4.08213527 -1.15942296 1.92001235
      vertex 3.99651857 -1.03675802 1.93117713
      vertex 3.99627248 -1.03683127 1.92995523
    endloop
  endfacet
  facet normal 0.572418569 -0.817277899 -0.0662858721
    outer loop
      vertex 4.08475632 -1.15758718 1.92001235
      vertex 4.08238135 -1.15934971 1.92123425
      vertex 4.08213527 -1.15942296 1.92001235
    endloop
  endfacet
  facet normal -0.572418569 0.817277899 0.0662858721
    outer loop
      vertex 3.99889354 -1.0349955 1.92995523
      vertex 3.99627248 -1.03683127 1.92995523
      vertex 3.99651857 -1.03675802 1.93117713
    endloop
  endfacet
  facet normal -0.659912954 -0.50716151 0.554348352
    outer loop
      vertex 4.08238135 -1.15934971 1.92123425
      vertex 4.082989 -1.15900812 1.92227012
      vertex 3.99712622 -1.03641644 1.932213
    endloop
  endfacet
  facet normal -0.659912954 -0.50716151 0.554348352
    outer loop
      vertex 4.08238135 -1.15934971 1.92123425
      vertex 3.99712622 -1.03641644 1.932213
      vertex 3.99651857 -1.03675802 1.93117713
    endloop
  endfacet
  facet normal 0.572418569 -0.817277899 -0.0662858721
    outer loop
      vertex 4.08475632 -1.15758718 1.92001235
      vertex 4.082989 -1.15900812 1.92227012
      vertex 4.08238135 -1.15934971 1.92123425
    endloop
  endfacet
  facet normal -0.572418569 0.817277899 0.0662858721
    outer loop
      vertex 3.99889354 -1.0349955 1.92995523
      vertex 3.99651857 -1.03675802 1.93117713
      vertex 3.99712622 -1.03641644 1.932213
    endloop
  endfacet
  facet normal -0.42343788 -0.363862988 0.829640939
    outer loop
      vertex 4.082989 -1.15900812 1.92227012
      vertex 4.08386571 -1.15845022 1.92296227
      vertex 3.99800293 -1.03585853 1.93290515
    endloop
  endfacet
  facet normal -0.42343788 -0.363862988 0.829640939
    outer loop
      vertex 4.082989 -1.15900812 1.92227012
      vertex 3.99800293 -1.03585853 1.93290515
      vertex 3.99712622 -1.03641644 1.932213
    endloop
  endfacet
  facet normal 0.572418569 -0.817277899 -0.0662858721
    outer loop
      vertex 4.08475632 -1.15758718 1.92001235
      vertex 4.08386571 -1.15845022 1.92296227
      vertex 4.082989 -1.15900812 1.92227012
    endloop
  endfacet
  facet normal -0.572418569 0.817277899 0.0662858721
    outer loop
      vertex 3.99889354 -1.0349955 1.92995523
      vertex 3.99712622 -1.03641644 1.932213
      vertex 3.99800293 -1.03585853 1.93290515
    endloop
  endfacet
  facet normal -0.122498227 -0.165169626 0.978628213
    outer loop
      vertex 4.08386571 -1.15845022 1.92296227
      vertex 4.08487801 -1.15776092 1.92320532
      vertex 3.99901522 -1.03516924 1.9331482
    endloop
  endfacet
  facet normal -0.122498227 -0.165169626 0.978628213
    outer loop
      vertex 4.08386571 -1.15845022 1.92296227
      vertex 3.99901522 -1.03516924 1.9331482
      vertex 3.99800293 -1.03585853 1.93290515
    endloop
  endfacet
  facet normal 0.572418569 -0.817277899 -0.0662858721
    outer loop
      vertex 4.08475632 -1.15758718 1.92001235
      vertex 4.08487801 -1.15776092 1.92320532
      vertex 4.08386571 -1.15845022 1.92296227
    endloop
  endfacet
  facet normal -0.572418569 0.817277899 0.0662858721
    outer loop
      vertex 3.99889354 -1.0349955 1.92995523
      vertex 3.99800293 -1.03585853 1.93290515
      vertex 3.99901522 -1.03516924 1.9331482
    endloop
  endfacet
  facet normal 0.19709067 0.0586693155 0.978628213
    outer loop
      vertex 4.08487801 -1.15776092 1.92320532
      vertex 4.08587178 -1.15704517 1.92296227
      vertex 4.00000899 -1.03445349 1.93290515
    endloop
  endfacet
  facet normal 0.19709067 0.0586693155 0.978628213
    outer loop
      vertex 4.08487801 -1.15776092 1.92320532
      vertex 4.00000899 -1.03445349 1.93290515
      vertex 3.99901522 -1.03516924 1.9331482
    endloop
  endfacet
  facet normal 0.572418569 -0.817277899 -0.0662858721
    outer loop
      vertex 4.08475632 -1.15758718 1.92001235
      vertex 4.08587178 -1.15704517 1.92296227
      vertex 4.08487801 -1.15776092 1.92320532
    endloop
  endfacet
  facet normal -0.572418569 0.817277899 0.0662858721
    outer loop
      vertex 3.99889354 -1.0349955 1.92995523
      vertex 3.99901522 -1.03516924 1.9331482
      vertex 4.00000899 -1.03445349 1.93290515
    endloop
  endfacet
  facet normal 0.4866743 0.273576385 0.829640939
    outer loop
      vertex 4.08587178 -1.15704517 1.92296227
      vertex 4.08669573 -1.15641194 1.92227012
      vertex 4.00083295 -1.03382026 1.932213
    endloop
  endfacet
  facet normal 0.4866743 0.273576385 0.829640939
    outer loop
      vertex 4.08587178 -1.15704517 1.92296227
      vertex 4.00083295 -1.03382026 1.932213
      vertex 4.00000899 -1.03445349 1.93290515
    endloop
  endfacet
  facet normal 0.572418569 -0.817277899 -0.0662858721
    outer loop
      vertex 4.08475632 -1.15758718 1.92001235
      vertex 4.08669573 -1.15641194 1.92227012
      vertex 4.08587178 -1.15704517 1.92296227
    endloop
  endfacet
  facet normal -0.572418569 0.817277899 0.0662858721
    outer loop
      vertex 3.99889354 -1.0349955 1.92995523
      vertex 4.00000899 -1.03445349 1.93290515
      vertex 4.00083295 -1.03382026 1.932213
    endloop
  endfacet
  facet normal 0.702166179 0.44683393 0.554348352
    outer loop
      vertex 4.08669573 -1.15641194 1.92227012
      vertex 4.08722443 -1.15595763 1.92123425
      vertex 4.00136164 -1.03336595 1.93117713
    endloop
  endfacet
  facet normal 0.702166179 0.44683393 0.554348352
    outer loop
      vertex 4.08669573 -1.15641194 1.92227012
      vertex 4.00136164 -1.03336595 1.93117713
      vertex 4.00083295 -1.03382026 1.932213
    endloop
  endfacet
  facet normal 0.572418569 -0.817277899 -0.0662858721
    outer loop
      vertex 4.08475632 -1.15758718 1.92001235
      vertex 4.08722443 -1.15595763 1.92123425
      vertex 4.08669573 -1.15641194 1.92227012
    endloop
  endfacet
  facet normal -0.572418569 0.817277899 0.0662858721
    outer loop
      vertex 3.99889354 -1.0349955 1.92995523
      vertex 4.00083295 -1.03382026 1.932213
      vertex 4.00136164 -1.03336595 1.93117713
    endloop
  endfacet
  facet normal 0.810759623 0.55206506 0.194661255
    outer loop
      vertex 4.08722443 -1.15595763 1.92123425
      vertex 4.08737738 -1.15575141 1.92001235
      vertex 4.00151459 -1.03315972 1.92995523
    endloop
  endfacet
  facet normal 0.810759623 0.55206506 0.194661255
    outer loop
      vertex 4.08722443 -1.15595763 1.92123425
      vertex 4.00151459 -1.03315972 1.92995523
      vertex 4.00136164 -1.03336595 1.93117713
    endloop
  endfacet
  facet normal 0.572418569 -0.817277899 -0.0662858721
    outer loop
      vertex 4.08475632 -1.15758718 1.92001235
      vertex 4.08737738 -1.15575141 1.92001235
      vertex 4.08722443 -1.15595763 1.92123425
    endloop
  endfacet
  facet normal -0.572418569 0.817277899 0.0662858721
    outer loop
      vertex 3.99889354 -1.0349955 1.92995523
      vertex 4.00136164 -1.03336595 1.93117713
      vertex 4.00151459 -1.03315972 1.92995523
    endloop
  endfacet
  facet normal -0.235325303 0.964686009 -0.118333871
    outer loop
      vertex 4.20129423 -0.847556361 1.80793662
      vertex 4.20228642 -0.84740544 1.80719384
      vertex 4.15192308 -0.868468213 1.7356404
    endloop
  endfacet
  facet normal -0.235325303 0.964686009 -0.118333871
    outer loop
      vertex 4.20129423 -0.847556361 1.80793662
      vertex 4.15192308 -0.868468213 1.7356404
      vertex 4.15093089 -0.868619133 1.73638319
    endloop
  endfacet
  facet normal 0.559592618 0.234030807 0.795038164
    outer loop
      vertex 4.20252889 -0.85050858 1.80793662
      vertex 4.20228642 -0.84740544 1.80719384
      vertex 4.20129423 -0.847556361 1.80793662
    endloop
  endfacet
  facet normal -0.559592618 -0.234030807 -0.795038164
    outer loop
      vertex 4.15216556 -0.871571353 1.73638319
      vertex 4.15093089 -0.868619133 1.73638319
      vertex 4.15192308 -0.868468213 1.7356404
    endloop
  endfacet
  facet normal 0.0866894414 0.937510074 -0.336986352
    outer loop
      vertex 4.20228642 -0.84740544 1.80719384
      vertex 4.20331552 -0.847726945 1.80656413
      vertex 4.15295219 -0.868789717 1.7350107
    endloop
  endfacet
  facet normal 0.0866894414 0.937510074 -0.336986352
    outer loop
      vertex 4.20228642 -0.84740544 1.80719384
      vertex 4.15295219 -0.868789717 1.7350107
      vertex 4.15192308 -0.868468213 1.7356404
    endloop
  endfacet
  facet normal 0.559592618 0.234030807 0.795038164
    outer loop
      vertex 4.20252889 -0.85050858 1.80793662
      vertex 4.20331552 -0.847726945 1.80656413
      vertex 4.20228642 -0.84740544 1.80719384
    endloop
  endfacet
  facet normal -0.559592618 -0.234030807 -0.795038164
    outer loop
      vertex 4.15216556 -0.871571353 1.73638319
      vertex 4.15192308 -0.868468213 1.7356404
      vertex 4.15295219 -0.868789717 1.7350107
    endloop
  endfacet
  facet normal 0.395506504 0.767606729 -0.504335717
    outer loop
      vertex 4.20331552 -0.847726945 1.80656413
      vertex 4.20422487 -0.848471928 1.80614338
      vertex 4.15386153 -0.869534701 1.73458994
    endloop
  endfacet
  facet normal 0.395506504 0.767606729 -0.504335717
    outer loop
      vertex 4.20331552 -0.847726945 1.80656413
      vertex 4.15386153 -0.869534701 1.73458994
      vertex 4.15295219 -0.868789717 1.7350107
    endloop
  endfacet
  facet normal 0.559592618 0.234030807 0.795038164
    outer loop
      vertex 4.20252889 -0.85050858 1.80793662
      vertex 4.20422487 -0.848471928 1.80614338
      vertex 4.20331552 -0.847726945 1.80656413
    endloop
  endfacet
  facet normal -0.559592618 -0.234030807 -0.795038164
    outer loop
      vertex 4.15216556 -0.871571353 1.73638319
      vertex 4.15295219 -0.868789717 1.7350107
      vertex 4.15386153 -0.869534701 1.73458994
    endloop
  endfacet
  facet normal 0.644111287 0.480842217 -0.59490454
    outer loop
      vertex 4.20422487 -0.848471928 1.80614338
      vertex 4.20487602 -0.849526973 1.80599563
      vertex 4.15451269 -0.870589746 1.7344422
    endloop
  endfacet
  facet normal 0.644111287 0.480842217 -0.59490454
    outer loop
      vertex 4.20422487 -0.848471928 1.80614338
      vertex 4.15451269 -0.870589746 1.7344422
      vertex 4.15386153 -0.869534701 1.73458994
    endloop
  endfacet
  facet normal 0.559592618 0.234030807 0.795038164
    outer loop
      vertex 4.20252889 -0.85050858 1.80793662
      vertex 4.20487602 -0.849526973 1.80599563
      vertex 4.20422487 -0.848471928 1.80614338
    endloop
  endfacet
  facet normal -0.559592618 -0.234030807 -0.795038164
    outer loop
      vertex 4.15216556 -0.871571353 1.73638319
      vertex 4.15386153 -0.869534701 1.73458994
      vertex 4.15451269 -0.870589746 1.7344422
    endloop
  endfacet
  facet normal 0.794655965 0.120873837 -0.59490454
    outer loop
      vertex 4.20487602 -0.849526973 1.80599563
      vertex 4.20516984 -0.850731459 1.80614338
      vertex 4.15480651 -0.871794231 1.73458994
    endloop
  endfacet
  facet normal 0.794655965 0.120873837 -0.59490454
    outer loop
      vertex 4.20487602 -0.849526973 1.80599563
      vertex 4.15480651 -0.871794231 1.73458994
      vertex 4.15451269 -0.870589746 1.7344422
    endloop
  endfacet
  facet normal 0.559592618 0.234030807 0.795038164
    outer loop
      vertex 4.20252889 -0.85050858 1.80793662
      vertex 4.20516984 -0.850731459 1.80614338
      vertex 4.20487602 -0.849526973 1.80599563
    endloop
  endfacet
  facet normal -0.559592618 -0.234030807 -0.795038164
    outer loop
      vertex 4.15216556 -0.871571353 1.73638319
      vertex 4.15451269 -0.870589746 1.7344422
      vertex 4.15480651 -0.871794231 1.73458994
    endloop
  endfacet
  facet normal 0.824221477 -0.25749649 -0.504335717
    outer loop
      vertex 4.20516984 -0.850731459 1.80614338
      vertex 4.2050616 -0.851902013 1.80656413
      vertex 4.15469827 -0.872964786 1.7350107
    endloop
  endfacet
  facet normal 0.824221477 -0.25749649 -0.504335717
    outer loop
      vertex 4.20516984 -0.850731459 1.80614338
      vertex 4.15469827 -0.872964786 1.7350107
      vertex 4.15480651 -0.871794231 1.73458994
    endloop
  endfacet
  facet normal 0.559592618 0.234030807 0.795038164
    outer loop
      vertex 4.20252889 -0.85050858 1.80793662
      vertex 4.2050616 -0.851902013 1.80656413
      vertex 4.20516984 -0.850731459 1.80614338
    endloop
  endfacet
  facet normal -0.559592618 -0.234030807 -0.795038164
    outer loop
      vertex 4.15216556 -0.871571353 1.73638319
      vertex 4.15480651 -0.871794231 1.73458994
      vertex 4.15469827 -0.872964786 1.7350107
    endloop
  endfacet
  facet normal 0.728306739 -0.596665309 -0.336986352
    outer loop
      vertex 4.2050616 -0.851902013 1.80656413
      vertex 4.20456778 -0.85286043 1.80719384
      vertex 4.15420445 -0.873923203 1.7356404
    endloop
  endfacet
  facet normal 0.728306739 -0.596665309 -0.336986352
    outer loop
      vertex 4.2050616 -0.851902013 1.80656413
      vertex 4.15420445 -0.873923203 1.7356404
      vertex 4.15469827 -0.872964786 1.7350107
    endloop
  endfacet
  facet normal 0.559592618 0.234030807 0.795038164
    outer loop
      vertex 4.20252889 -0.85050858 1.80793662
      vertex 4.20456778 -0.85286043 1.80719384
      vertex 4.2050616 -0.851902013 1.80656413
    endloop
  endfacet
  facet normal -0.559592618 -0.234030807 -0.795038164
    outer loop
      vertex 4.15216556 -0.871571353 1.73638319
      vertex 4.15469827 -0.872964786 1.7350107
      vertex 4.15420445 -0.873923203 1.7356404
    endloop
  endfacet
  facet normal 0.521513903 -0.844997245 -0.118333871
    outer loop
      vertex 4.20456778 -0.85286043 1.80719384
      vertex 4.20376356 -0.853460799 1.80793662
      vertex 4.15340022 -0.874523572 1.73638319
    endloop
  endfacet
  facet normal 0.521513903 -0.844997245 -0.118333871
    outer loop
      vertex 4.20456778 -0.85286043 1.80719384
      vertex 4.15340022 -0.874523572 1.73638319
      vertex 4.15420445 -0.873923203 1.7356404
    endloop
  endfacet
  facet normal 0.559592618 0.234030807 0.795038164
    outer loop
      vertex 4.20252889 -0.85050858 1.80793662
      vertex 4.20376356 -0.853460799 1.80793662
      vertex 4.20456778 -0.85286043 1.80719384
    endloop
  endfacet
  facet normal -0.559592618 -0.234030807 -0.795038164
    outer loop
      vertex 4.15216556 -0.871571353 1.73638319
      vertex 4.15420445 -0.873923203 1.7356404
      vertex 4.15340022 -0.874523572 1.73638319
    endloop
  endfacet
  facet normal 0.235325303 -0.964686009 0.118333871
    outer loop
      vertex 4.20376356 -0.853460799 1.80793662
      vertex 4.20277137 -0.85361172 1.80867941
      vertex 4.15240803 -0.874674492 1.73712597
    endloop
  endfacet
  facet normal 0.235325303 -0.964686009 0.118333871
    outer loop
      vertex 4.20376356 -0.853460799 1.80793662
      vertex 4.15240803 -0.874674492 1.73712597
      vertex 4.15340022 -0.874523572 1.73638319
    endloop
  endfacet
  facet normal 0.559592618 0.234030807 0.795038164
    outer loop
      vertex 4.20252889 -0.85050858 1.80793662
      vertex 4.20277137 -0.85361172 1.80867941
      vertex 4.20376356 -0.853460799 1.80793662
    endloop
  endfacet
  facet normal -0.559592618 -0.234030807 -0.795038164
    outer loop
      vertex 4.15216556 -0.871571353 1.73638319
      vertex 4.15340022 -0.874523572 1.73638319
      vertex 4.15240803 -0.874674492 1.73712597
    endloop
  endfacet
  facet normal -0.0866894414 -0.937510074 0.336986352
    outer loop
      vertex 4.20277137 -0.85361172 1.80867941
      vertex 4.20174227 -0.853290215 1.80930911
      vertex 4.15137893 -0.874352988 1.73775567
    endloop
  endfacet
  facet normal -0.0866894414 -0.937510074 0.336986352
    outer loop
      vertex 4.20277137 -0.85361172 1.80867941
      vertex 4.15137893 -0.874352988 1.73775567
      vertex 4.15240803 -0.874674492 1.73712597
    endloop
  endfacet
  facet normal 0.559592618 0.234030807 0.795038164
    outer loop
      vertex 4.20252889 -0.85050858 1.80793662
      vertex 4.20174227 -0.853290215 1.80930911
      vertex 4.20277137 -0.85361172 1.80867941
    endloop
  endfacet
  facet normal -0.559592618 -0.234030807 -0.795038164
    outer loop
      vertex 4.15216556 -0.871571353 1.73638319
      vertex 4.15240803 -0.874674492 1.73712597
      vertex 4.15137893 -0.874352988 1.73775567
    endloop
  endfacet
  facet normal -0.395506504 -0.767606729 0.504335717
    outer loop
      vertex 4.20174227 -0.853290215 1.80930911
      vertex 4.20083292 -0.852545232 1.80972986
      vertex 4.15046958 -0.873608005 1.73817643
    endloop
  endfacet
  facet normal -0.395506504 -0.767606729 0.504335717
    outer loop
      vertex 4.20174227 -0.853290215 1.80930911
      vertex 4.15046958 -0.873608005 1.73817643
      vertex 4.15137893 -0.874352988 1.73775567
    endloop
  endfacet
  facet normal 0.559592618 0.234030807 0.795038164
    outer loop
      vertex 4.20252889 -0.85050858 1.80793662
      vertex 4.20083292 -0.852545232 1.80972986
      vertex 4.20174227 -0.853290215 1.80930911
    endloop
  endfacet
  facet normal -0.559592618 -0.234030807 -0.795038164
    outer loop
      vertex 4.15216556 -0.871571353 1.73638319
      vertex 4.15137893 -0.874352988 1.73775567
      vertex 4.15046958 -0.873608005 1.73817643
    endloop
  endfacet
  facet normal -0.644111287 -0.480842217 0.59490454
    outer loop
      vertex 4.20083292 -0.852545232 1.80972986
      vertex 4.20018177 -0.851490187 1.80987761
      vertex 4.14981843 -0.87255296 1.73832418
    endloop
  endfacet
  facet normal -0.644111287 -0.480842217 0.59490454
    outer loop
      vertex 4.20083292 -0.852545232 1.80972986
      vertex 4.14981843 -0.87255296 1.73832418
      vertex 4.15046958 -0.873608005 1.73817643
    endloop
  endfacet
  facet normal 0.559592618 0.234030807 0.795038164
    outer loop
      vertex 4.20252889 -0.85050858 1.80793662
      vertex 4.20018177 -0.851490187 1.80987761
      vertex 4.20083292 -0.852545232 1.80972986
    endloop
  endfacet
  facet normal -0.559592618 -0.234030807 -0.795038164
    outer loop
      vertex 4.15216556 -0.871571353 1.73638319
      vertex 4.15046958 -0.873608005 1.73817643
      vertex 4.14981843 -0.87255296 1.73832418
    endloop
  endfacet
  facet normal -0.794655965 -0.120873837 0.59490454
    outer loop
      vertex 4.20018177 -0.851490187 1.80987761
      vertex 4.19988794 -0.850285701 1.80972986
      vertex 4.14952461 -0.871348474 1.73817643
    endloop
  endfacet
  facet normal -0.794655965 -0.120873837 0.59490454
    outer loop
      vertex 4.20018177 -0.851490187 1.80987761
      vertex 4.14952461 -0.871348474 1.73817643
      vertex 4.14981843 -0.87255296 1.73832418
    endloop
  endfacet
  facet normal 0.559592618 0.234030807 0.795038164
    outer loop
      vertex 4.20252889 -0.85050858 1.80793662
      vertex 4.19988794 -0.850285701 1.80972986
      vertex 4.20018177 -0.851490187 1.80987761
    endloop
  endfacet
  facet normal -0.559592618 -0.234030807 -0.795038164
    outer loop
      vertex 4.15216556 -0.871571353 1.73638319
      vertex 4.14981843 -0.87255296 1.73832418
      vertex 4.14952461 -0.871348474 1.73817643
    endloop
  endfacet
  facet normal -0.824221477 0.25749649 0.504335717
    outer loop
      vertex 4.19988794 -0.850285701 1.80972986
      vertex 4.19999618 -0.849115147 1.80930911
      vertex 4.14963285 -0.870177919 1.73775567
    endloop
  endfacet
  facet normal -0.824221477 0.25749649 0.504335717
    outer loop
      vertex 4.19988794 -0.850285701 1.80972986
      vertex 4.14963285 -0.870177919 1.73775567
      vertex 4.14952461 -0.871348474 1.73817643
    endloop
  endfacet
  facet normal 0.559592618 0.234030807 0.795038164
    outer loop
      vertex 4.20252889 -0.85050858 1.80793662
      vertex 4.19999618 -0.849115147 1.80930911
      vertex 4.19988794 -0.850285701 1.80972986
    endloop
  endfacet
  facet normal -0.559592618 -0.234030807 -0.795038164
    outer loop
      vertex 4.15216556 -0.871571353 1.73638319
      vertex 4.14952461 -0.871348474 1.73817643
      vertex 4.14963285 -0.870177919 1.73775567
    endloop
  endfacet
  facet normal -0.728306739 0.596665309 0.336986352
    outer loop
      vertex 4.19999618 -0.849115147 1.80930911
      vertex 4.20049 -0.84815673 1.80867941
      vertex 4.15012667 -0.869219502 1.73712597
    endloop
  endfacet
  facet normal -0.728306739 0.596665309 0.336986352
    outer loop
      vertex 4.19999618 -0.849115147 1.80930911
      vertex 4.15012667 -0.869219502 1.73712597
      vertex 4.14963285 -0.870177919 1.73775567
    endloop
  endfacet
  facet normal 0.559592618 0.234030807 0.795038164
    outer loop
      vertex 4.20252889 -0.85050858 1.80793662
      vertex 4.20049 -0.84815673 1.80867941
      vertex 4.19999618 -0.849115147 1.80930911
    endloop
  endfacet
  facet normal -0.559592618 -0.234030807 -0.795038164
    outer loop
      vertex 4.15216556 -0.871571353 1.73638319
      vertex 4.14963285 -0.870177919 1.73775567
      vertex 4.15012667 -0.869219502 1.73712597
    endloop
  endfacet
  facet normal -0.521513903 0.844997245 0.118333871
    outer loop
      vertex 4.20049 -0.84815673 1.80867941
      vertex 4.20129423 -0.847556361 1.80793662
      vertex 4.15093089 -0.868619133 1.73638319
    endloop
  endfacet
  facet normal -0.521513903 0.844997245 0.118333871
    outer loop
      vertex 4.20049 -0.84815673 1.80867941
      vertex 4.15093089 -0.868619133 1.73638319
      vertex 4.15012667 -0.869219502 1.73712597
    endloop
  endfacet
  facet normal 0.559592618 0.234030807 0.795038164
    outer loop
      vertex 4.20252889 -0.85050858 1.80793662
      vertex 4.20129423 -0.847556361 1.80793662
      vertex 4.20049 -0.84815673 1.80867941
    endloop
  endfacet
  facet normal -0.559592618 -0.234030807 -0.795038164
    outer loop
      vertex 4.15216556 -0.871571353 1.73638319
      vertex 4.15012667 -0.869219502 1.73712597
      vertex 4.15093089 -0.868619133 1.73638319
    endloop
  endfacet
  facet normal -0.235325303 0.964686009 -0.118333871
    outer loop
      vertex 4.22593369 -0.848403571 1.79084337
      vertex 4.22692588 -0.84825265 1.79010058
      vertex 4.17656254 -0.869315423 1.71854715
    endloop
  endfacet
  facet normal -0.235325303 0.964686009 -0.118333871
    outer loop
      vertex 4.22593369 -0.848403571 1.79084337
      vertex 4.17656254 -0.869315423 1.71854715
      vertex 4.17557035 -0.869466343 1.71928993
    endloop
  endfacet
  facet normal 0.559592618 0.234030807 0.795038164
    outer loop
      vertex 4.22716835 -0.85135579 1.79084337
      vertex 4.22692588 -0.84825265 1.79010058
      vertex 4.22593369 -0.848403571 1.79084337
    endloop
  endfacet
  facet normal -0.559592618 -0.234030807 -0.795038164
    outer loop
      vertex 4.17680502 -0.872418563 1.71928993
      vertex 4.17557035 -0.869466343 1.71928993
      vertex 4.17656254 -0.869315423 1.71854715
    endloop
  endfacet
  facet normal 0.0866894414 0.937510074 -0.336986352
    outer loop
      vertex 4.22692588 -0.84825265 1.79010058
      vertex 4.22795498 -0.848574155 1.78947088
      vertex 4.17759165 -0.869636927 1.71791745
    endloop
  endfacet
  facet normal 0.0866894414 0.937510074 -0.336986352
    outer loop
      vertex 4.22692588 -0.84825265 1.79010058
      vertex 4.17759165 -0.869636927 1.71791745
      vertex 4.17656254 -0.869315423 1.71854715
    endloop
  endfacet
  facet normal 0.559592618 0.234030807 0.795038164
    outer loop
      vertex 4.22716835 -0.85135579 1.79084337
      vertex 4.22795498 -0.848574155 1.78947088
      vertex 4.22692588 -0.84825265 1.79010058
    endloop
  endfacet
  facet normal -0.559592618 -0.234030807 -0.795038164
    outer loop
      vertex 4.17680502 -0.872418563 1.71928993
      vertex 4.17656254 -0.869315423 1.71854715
      vertex 4.17759165 -0.869636927 1.71791745
    endloop
  endfacet
  facet normal 0.395506504 0.767606729 -0.504335717
    outer loop
      vertex 4.22795498 -0.848574155 1.78947088
      vertex 4.22886433 -0.849319138 1.78905013
      vertex 4.17850099 -0.870381911 1.71749669
    endloop
  endfacet
  facet normal 0.395506504 0.767606729 -0.504335717
    outer loop
      vertex 4.22795498 -0.848574155 1.78947088
      vertex 4.17850099 -0.870381911 1.71749669
      vertex 4.17759165 -0.869636927 1.71791745
    endloop
  endfacet
  facet normal 0.559592618 0.234030807 0.795038164
    outer loop
      vertex 4.22716835 -0.85135579 1.79084337
      vertex 4.22886433 -0.849319138 1.78905013
      vertex 4.22795498 -0.848574155 1.78947088
    endloop
  endfacet
  facet normal -0.559592618 -0.234030807 -0.795038164
    outer loop
      vertex 4.17680502 -0.872418563 1.71928993
      vertex 4.17759165 -0.869636927 1.71791745
      vertex 4.17850099 -0.870381911 1.71749669
    endloop
  endfacet
  facet normal 0.644111287 0.480842217 -0.59490454
    outer loop
      vertex 4.22886433 -0.849319138 1.78905013
      vertex 4.22951548 -0.850374183 1.78890238
      vertex 4.17915215 -0.871436956 1.71734894
    endloop
  endfacet
  facet normal 0.644111287 0.480842217 -0.59490454
    outer loop
      vertex 4.22886433 -0.849319138 1.78905013
      vertex 4.17915215 -0.871436956 1.71734894
      vertex 4.17850099 -0.870381911 1.71749669
    endloop
  endfacet
  facet normal 0.559592618 0.234030807 0.795038164
    outer loop
      vertex 4.22716835 -0.85135579 1.79084337
      vertex 4.22951548 -0.850374183 1.78890238
      vertex 4.22886433 -0.849319138 1.78905013
    endloop
  endfacet
  facet normal -0.559592618 -0.234030807 -0.795038164
    outer loop
      vertex 4.17680502 -0.872418563 1.71928993
      vertex 4.17850099 -0.870381911 1.71749669
      vertex 4.17915215 -0.871436956 1.71734894
    endloop
  endfacet
  facet normal 0.794655965 0.120873837 -0.59490454
    outer loop
      vertex 4.22951548 -0.850374183 1.78890238
      vertex 4.2298093 -0.851578669 1.78905013
      vertex 4.17944597 -0.872641442 1.71749669
    endloop
  endfacet
  facet normal 0.794655965 0.120873837 -0.59490454
    outer loop
      vertex 4.22951548 -0.850374183 1.78890238
      vertex 4.17944597 -0.872641442 1.71749669
      vertex 4.17915215 -0.871436956 1.71734894
    endloop
  endfacet
  facet normal 0.559592618 0.234030807 0.795038164
    outer loop
      vertex 4.22716835 -0.85135579 1.79084337
      vertex 4.2298093 -0.851578669 1.78905013
      vertex 4.22951548 -0.850374183 1.78890238
    endloop
  endfacet
  facet normal -0.559592618 -0.234030807 -0.795038164
    outer loop
      vertex 4.17680502 -0.872418563 1.71928993
      vertex 4.17915215 -0.871436956 1.71734894
      vertex 4.17944597 -0.872641442 1.71749669
    endloop
  endfacet
  facet normal 0.824221477 -0.25749649 -0.504335717
    outer loop
      vertex 4.2298093 -0.851578669 1.78905013
      vertex 4.22970106 -0.852749223 1.78947088
      vertex 4.17933773 -0.873811996 1.71791745
    endloop
  endfacet
  facet normal 0.824221477 -0.25749649 -0.504335717
    outer loop
      vertex 4.2298093 -0.851578669 1.78905013
      vertex 4.17933773 -0.873811996 1.71791745
      vertex 4.17944597 -0.872641442 1.71749669
    endloop
  endfacet
  facet normal 0.559592618 0.234030807 0.795038164
    outer loop
      vertex 4.22716835 -0.85135579 1.79084337
      vertex 4.22970106 -0.852749223 1.78947088
      vertex 4.2298093 -0.851578669 1.78905013
    endloop
  endfacet
  facet normal -0.559592618 -0.234030807 -0.795038164
    outer loop
      vertex 4.17680502 -0.872418563 1.71928993
      vertex 4.17944597 -0.872641442 1.71749669
      vertex 4.17933773 -0.873811996 1.71791745
    endloop
  endfacet
  facet normal 0.728306739 -0.596665309 -0.336986352
    outer loop
      vertex 4.22970106 -0.852749223 1.78947088
      vertex 4.22920724 -0.85370764 1.79010058
      vertex 4.17884391 -0.874770413 1.71854715
    endloop
  endfacet
  facet normal 0.728306739 -0.596665309 -0.336986352
    outer loop
      vertex 4.22970106 -0.852749223 1.78947088
      vertex 4.17884391 -0.874770413 1.71854715
      vertex 4.17933773 -0.873811996 1.71791745
    endloop
  endfacet
  facet normal 0.559592618 0.234030807 0.795038164
    outer loop
      vertex 4.22716835 -0.85135579 1.79084337
      vertex 4.22920724 -0.85370764 1.79010058
      vertex 4.22970106 -0.852749223 1.78947088
    endloop
  endfacet
  facet normal -0.559592618 -0.234030807 -0.795038164
    outer loop
      vertex 4.17680502 -0.872418563 1.71928993
      vertex 4.17933773 -0.873811996 1.71791745
      vertex 4.17884391 -0.874770413 1.71854715
    endloop
  endfacet
  facet normal 0.521513903 -0.844997245 -0.118333871
    outer loop
      vertex 4.22920724 -0.85370764 1.79010058
      vertex 4.22840302 -0.854308009 1.79084337
      vertex 4.17803969 -0.875370782 1.71928993
    endloop
  endfacet
  facet normal 0.521513903 -0.844997245 -0.118333871
    outer loop
      vertex 4.22920724 -0.85370764 1.79010058
      vertex 4.17803969 -0.875370782 1.71928993
      vertex 4.17884391 -0.874770413 1.71854715
    endloop
  endfacet
  facet normal 0.559592618 0.234030807 0.795038164
    outer loop
      vertex 4.22716835 -0.85135579 1.79084337
      vertex 4.22840302 -0.854308009 1.79084337
      vertex 4.22920724 -0.85370764 1.79010058
    endloop
  endfacet
  facet normal -0.559592618 -0.234030807 -0.795038164
    outer loop
      vertex 4.17680502 -0.872418563 1.71928993
      vertex 4.17884391 -0.874770413 1.71854715
      vertex 4.17803969 -0.875370782 1.71928993
    endloop
  endfacet
  facet normal 0.235325303 -0.964686009 0.118333871
    outer loop
      vertex 4.22840302 -0.854308009 1.79084337
      vertex 4.22741083 -0.85445893 1.79158615
      vertex 4.1770475 -0.875521702 1.72003272
    endloop
  endfacet
  facet normal 0.235325303 -0.964686009 0.118333871
    outer loop
      vertex 4.22840302 -0.854308009 1.79084337
      vertex 4.1770475 -0.875521702 1.72003272
      vertex 4.17803969 -0.875370782 1.71928993
    endloop
  endfacet
  facet normal 0.559592618 0.234030807 0.795038164
    outer loop
      vertex 4.22716835 -0.85135579 1.79084337
      vertex 4.22741083 -0.85445893 1.79158615
      vertex 4.22840302 -0.854308009 1.79084337
    endloop
  endfacet
  facet normal -0.559592618 -0.234030807 -0.795038164
    outer loop
      vertex 4.17680502 -0.872418563 1.71928993
      vertex 4.17803969 -0.875370782 1.71928993
      vertex 4.1770475 -0.875521702 1.72003272
    endloop
  endfacet
  facet normal -0.0866894414 -0.937510074 0.336986352
    outer loop
      vertex 4.22741083 -0.85445893 1.79158615
      vertex 4.22638173 -0.854137425 1.79221586
      vertex 4.17601839 -0.875200198 1.72066242
    endloop
  endfacet
  facet normal -0.0866894414 -0.937510074 0.336986352
    outer loop
      vertex 4.22741083 -0.85445893 1.79158615
      vertex 4.17601839 -0.875200198 1.72066242
      vertex 4.1770475 -0.875521702 1.72003272
    endloop
  endfacet
  facet normal 0.559592618 0.234030807 0.795038164
    outer loop
      vertex 4.22716835 -0.85135579 1.79084337
      vertex 4.22638173 -0.854137425 1.79221586
      vertex 4.22741083 -0.85445893 1.79158615
    endloop
  endfacet
  facet normal -0.559592618 -0.234030807 -0.795038164
    outer loop
      vertex 4.17680502 -0.872418563 1.71928993
      vertex 4.1770475 -0.875521702 1.72003272
      vertex 4.17601839 -0.875200198 1.72066242
    endloop
  endfacet
  facet normal -0.395506504 -0.767606729 0.504335717
    outer loop
      vertex 4.22638173 -0.854137425 1.79221586
      vertex 4.22547238 -0.853392442 1.79263661
      vertex 4.17510904 -0.874455215 1.72108318
    endloop
  endfacet
  facet normal -0.395506504 -0.767606729 0.504335717
    outer loop
      vertex 4.22638173 -0.854137425 1.79221586
      vertex 4.17510904 -0.874455215 1.72108318
      vertex 4.17601839 -0.875200198 1.72066242
    endloop
  endfacet
  facet normal 0.559592618 0.234030807 0.795038164
    outer loop
      vertex 4.22716835 -0.85135579 1.79084337
      vertex 4.22547238 -0.853392442 1.79263661
      vertex 4.22638173 -0.854137425 1.79221586
    endloop
  endfacet
  facet normal -0.559592618 -0.234030807 -0.795038164
    outer loop
      vertex 4.17680502 -0.872418563 1.71928993
      vertex 4.17601839 -0.875200198 1.72066242
      vertex 4.17510904 -0.874455215 1.72108318
    endloop
  endfacet
  facet normal -0.644111287 -0.480842217 0.59490454
    outer loop
      vertex 4.22547238 -0.853392442 1.79263661
      vertex 4.22482123 -0.852337397 1.79278436
      vertex 4.17445789 -0.87340017 1.72123093
    endloop
  endfacet
  facet normal -0.644111287 -0.480842217 0.59490454
    outer loop
      vertex 4.22547238 -0.853392442 1.79263661
      vertex 4.17445789 -0.87340017 1.72123093
      vertex 4.17510904 -0.874455215 1.72108318
    endloop
  endfacet
  facet normal 0.559592618 0.234030807 0.795038164
    outer loop
      vertex 4.22716835 -0.85135579 1.79084337
      vertex 4.22482123 -0.852337397 1.79278436
      vertex 4.22547238 -0.853392442 1.79263661
    endloop
  endfacet
  facet normal -0.559592618 -0.234030807 -0.795038164
    outer loop
      vertex 4.17680502 -0.872418563 1.71928993
      vertex 4.17510904 -0.874455215 1.72108318
      vertex 4.17445789 -0.87340017 1.72123093
    endloop
  endfacet
  facet normal -0.794655965 -0.120873837 0.59490454
    outer loop
      vertex 4.22482123 -0.852337397 1.79278436
      vertex 4.22452741 -0.851132911 1.79263661
      vertex 4.17416407 -0.872195684 1.72108318
    endloop
  endfacet
  facet normal -0.794655965 -0.120873837 0.59490454
    outer loop
      vertex 4.22482123 -0.852337397 1.79278436
      vertex 4.17416407 -0.872195684 1.72108318
      vertex 4.17445789 -0.87340017 1.72123093
    endloop
  endfacet
  facet normal 0.559592618 0.234030807 0.795038164
    outer loop
      vertex 4.22716835 -0.85135579 1.79084337
      vertex 4.22452741 -0.851132911 1.79263661
      vertex 4.22482123 -0.852337397 1.79278436
    endloop
  endfacet
  facet normal -0.559592618 -0.234030807 -0.795038164
    outer loop
      vertex 4.17680502 -0.872418563 1.71928993
      vertex 4.17445789 -0.87340017 1.72123093
      vertex 4.17416407 -0.872195684 1.72108318
    endloop
  endfacet
  facet normal -0.824221477 0.25749649 0.504335717
    outer loop
      vertex 4.22452741 -0.851132911 1.79263661
      vertex 4.22463564 -0.849962357 1.79221586
      vertex 4.17427231 -0.871025129 1.72066242
    endloop
  endfacet
  facet normal -0.824221477 0.25749649 0.504335717
    outer loop
      vertex 4.22452741 -0.851132911 1.79263661
      vertex 4.17427231 -0.871025129 1.72066242
      vertex 4.17416407 -0.872195684 1.72108318
    endloop
  endfacet
  facet normal 0.559592618 0.234030807 0.795038164
    outer loop
      vertex 4.22716835 -0.85135579 1.79084337
      vertex 4.22463564 -0.849962357 1.79221586
      vertex 4.22452741 -0.851132911 1.79263661
    endloop
  endfacet
  facet normal -0.559592618 -0.234030807 -0.795038164
    outer loop
      vertex 4.17680502 -0.872418563 1.71928993
      vertex 4.17416407 -0.872195684 1.72108318
      vertex 4.17427231 -0.871025129 1.72066242
    endloop
  endfacet
  facet normal -0.728306739 0.596665309 0.336986352
    outer loop
      vertex 4.22463564 -0.849962357 1.79221586
      vertex 4.22512946 -0.84900394 1.79158615
      vertex 4.17476613 -0.870066712 1.72003272
    endloop
  endfacet
  facet normal -0.728306739 0.596665309 0.336986352
    outer loop
      vertex 4.22463564 -0.849962357 1.79221586
      vertex 4.17476613 -0.870066712 1.72003272
      vertex 4.17427231 -0.871025129 1.72066242
    endloop
  endfacet
  facet normal 0.559592618 0.234030807 0.795038164
    outer loop
      vertex 4.22716835 -0.85135579 1.79084337
      vertex 4.22512946 -0.84900394 1.79158615
      vertex 4.22463564 -0.849962357 1.79221586
    endloop
  endfacet
  facet normal -0.559592618 -0.234030807 -0.795038164
    outer loop
      vertex 4.17680502 -0.872418563 1.71928993
      vertex 4.17427231 -0.871025129 1.72066242
      vertex 4.17476613 -0.870066712 1.72003272
    endloop
  endfacet
  facet normal -0.521513903 0.844997245 0.118333871
    outer loop
      vertex 4.22512946 -0.84900394 1.79158615
      vertex 4.22593369 -0.848403571 1.79084337
      vertex 4.17557035 -0.869466343 1.71928993
    endloop
  endfacet
  facet normal -0.521513903 0.844997245 0.118333871
    outer loop
      vertex 4.22512946 -0.84900394 1.79158615
      vertex 4.17557035 -0.869466343 1.71928993
      vertex 4.17476613 -0.870066712 1.72003272
    endloop
  endfacet
  facet normal 0.559592618 0.234030807 0.795038164
    outer loop
      vertex 4.22716835 -0.85135579 1.79084337
      vertex 4.22593369 -0.848403571 1.79084337
      vertex 4.22512946 -0.84900394 1.79158615
    endloop
  endfacet
  facet normal -0.559592618 -0.234030807 -0.795038164
    outer loop
      vertex 4.17680502 -0.872418563 1.71928993
      vertex 4.17476613 -0.870066712 1.72003272
      vertex 4.17557035 -0.869466343 1.71928993
    endloop
  endfacet
endsolid b35_features
