solid b23
  facet normal 0.254018881 -0.96065735 -0.112302559
    outer loop
      vertex 0.715994775 2.79411769 1.60725403
      vertex 0.653292596 2.78229499 1.56656063
      vertex 0.703423619 2.79717517 1.55266488
    endloop
  endfacet
  facet normal 0.254019097 -0.96065738 -0.11230181
    outer loop
      vertex 0.703423619 2.79717517 1.55266488
      vertex 0.653292596 2.78229499 1.56656063
      vertex 0.672072589 2.79126382 1.53231812
    endloop
  endfacet
  facet normal 0.254019114 -0.960657282 -0.112302609
    outer loop
      vertex 0.715994775 2.79411769 1.60725403
      vertex 0.703423619 2.79717517 1.55266488
      vertex 0.734774709 2.80308652 1.57301164
    endloop
  endfacet
  facet normal 0.254021801 -0.960656046 -0.112307109
    outer loop
      vertex 0.665863752 2.77923727 1.62114978
      vertex 0.715994775 2.79411769 1.60725403
      vertex 0.697214842 2.78514862 1.64149654
    endloop
  endfacet
  facet normal 0.254021968 -0.960655969 -0.112307388
    outer loop
      vertex 0.665863752 2.77923727 1.62114978
      vertex 0.634512663 2.77332592 1.60080302
      vertex 0.653292596 2.78229499 1.56656063
    endloop
  endfacet
  facet normal 0.254021735 -0.960656036 -0.112307338
    outer loop
      vertex 0.715994775 2.79411769 1.60725403
      vertex 0.665863752 2.77923727 1.62114978
      vertex 0.653292596 2.78229499 1.56656063
    endloop
  endfacet
  facet normal 0.825861438 -0.45436497 0.333924181
    outer loop
      vertex 0.74681145 2.88570786 1.65566349
      vertex 0.778307319 2.97931671 1.70513988
      vertex 0.768577754 2.97382283 1.72172761
    endloop
  endfacet
  facet normal 0.825859595 -0.454366437 0.333926745
    outer loop
      vertex 0.74681145 2.88570786 1.65566349
      vertex 0.768577754 2.97382283 1.72172761
      vertex 0.737081885 2.88021421 1.67225134
    endloop
  endfacet
  facet normal 0.825859874 -0.454365606 0.333927184
    outer loop
      vertex 0.756541014 2.8912015 1.63907576
      vertex 0.788036883 2.98481035 1.68855202
      vertex 0.778307319 2.97931671 1.70513988
    endloop
  endfacet
  facet normal 0.825858803 -0.454366458 0.333928673
    outer loop
      vertex 0.756541014 2.8912015 1.63907576
      vertex 0.778307319 2.97931671 1.70513988
      vertex 0.74681145 2.88570786 1.65566349
    endloop
  endfacet
  facet normal 0.825860699 -0.454365513 0.333925271
    outer loop
      vertex 0.889009118 3.30833316 1.87903953
      vertex 0.881980419 3.33429003 1.93174183
      vertex 0.845027328 3.22446179 1.87369275
    endloop
  endfacet
  facet normal 0.825859461 -0.454366212 0.333927381
    outer loop
      vertex 0.768577754 2.97382283 1.72172761
      vertex 0.808074176 3.11463356 1.81564367
      vertex 0.771121085 3.00480533 1.75759459
    endloop
  endfacet
  facet normal 0.825860988 -0.45436561 0.333924423
    outer loop
      vertex 0.889009118 3.30833316 1.87903953
      vertex 0.845027328 3.22446179 1.87369275
      vertex 0.808074176 3.11463356 1.81564367
    endloop
  endfacet
  facet normal 0.825858694 -0.454367225 0.333927902
    outer loop
      vertex 0.85572201 3.16255379 1.76300573
      vertex 0.896037817 3.28237605 1.82633722
      vertex 0.889009118 3.30833316 1.87903953
    endloop
  endfacet
  facet normal 0.825858728 -0.454366247 0.333929146
    outer loop
      vertex 0.788036883 2.98481035 1.68855202
      vertex 0.815406263 3.04273129 1.69967437
      vertex 0.85572201 3.16255379 1.76300573
    endloop
  endfacet
  facet normal 0.825860659 -0.454365582 0.333925274
    outer loop
      vertex 0.85572201 3.16255379 1.76300573
      vertex 0.889009118 3.30833316 1.87903953
      vertex 0.778307319 2.97931671 1.70513988
    endloop
  endfacet
  facet normal 0.825861517 -0.454364736 0.333924304
    outer loop
      vertex 0.778307319 2.97931671 1.70513988
      vertex 0.808074176 3.11463356 1.81564367
      vertex 0.768577754 2.97382283 1.72172761
    endloop
  endfacet
  facet normal 0.82586026 -0.454365808 0.333925955
    outer loop
      vertex 0.808074176 3.11463356 1.81564367
      vertex 0.778307319 2.97931671 1.70513988
      vertex 0.889009118 3.30833316 1.87903953
    endloop
  endfacet
  facet normal 0.825863705 -0.454363292 0.333920859
    outer loop
      vertex 0.771121085 3.00480533 1.75759459
      vertex 0.734167933 2.89497685 1.69954562
      vertex 0.737081885 2.88021421 1.67225134
    endloop
  endfacet
  facet normal 0.825858878 -0.454366842 0.333927967
    outer loop
      vertex 0.771121085 3.00480533 1.75759459
      vertex 0.737081885 2.88021421 1.67225134
      vertex 0.768577754 2.97382283 1.72172761
    endloop
  endfacet
  facet normal 0.825861689 -0.454364547 0.333924135
    outer loop
      vertex 0.715994775 2.79411769 1.60725403
      vertex 0.737081885 2.88021421 1.67225134
      vertex 0.697214842 2.78514862 1.64149654
    endloop
  endfacet
  facet normal 0.825863044 -0.454364189 0.333921273
    outer loop
      vertex 0.734167933 2.89497685 1.69954562
      vertex 0.697214842 2.78514862 1.64149654
      vertex 0.737081885 2.88021421 1.67225134
    endloop
  endfacet
  facet normal 0.825859693 -0.454366145 0.333926899
    outer loop
      vertex 0.715994775 2.79411769 1.60725403
      vertex 0.74681145 2.88570786 1.65566349
      vertex 0.737081885 2.88021421 1.67225134
    endloop
  endfacet
  facet normal 0.825860088 -0.454366244 0.333925788
    outer loop
      vertex 0.775090456 2.92290902 1.636343
      vertex 0.815406263 3.04273129 1.69967437
      vertex 0.788036883 2.98481035 1.68855202
    endloop
  endfacet
  facet normal 0.825862541 -0.454364101 0.333922638
    outer loop
      vertex 0.775090456 2.92290902 1.636343
      vertex 0.788036883 2.98481035 1.68855202
      vertex 0.756541014 2.8912015 1.63907576
    endloop
  endfacet
  facet normal 0.825858725 -0.454366691 0.33392855
    outer loop
      vertex 0.74681145 2.88570786 1.65566349
      vertex 0.715994775 2.79411769 1.60725403
      vertex 0.756541014 2.8912015 1.63907576
    endloop
  endfacet
  facet normal 0.825859561 -0.454366464 0.333926792
    outer loop
      vertex 0.734774709 2.80308652 1.57301164
      vertex 0.756541014 2.8912015 1.63907576
      vertex 0.715994775 2.79411769 1.60725403
    endloop
  endfacet
  facet normal 0.825862536 -0.454364097 0.333922654
    outer loop
      vertex 0.775090456 2.92290902 1.636343
      vertex 0.756541014 2.8912015 1.63907576
      vertex 0.734774709 2.80308652 1.57301164
    endloop
  endfacet
  facet normal 0.825859811 -0.454365795 0.333927084
    outer loop
      vertex 0.85572201 3.16255379 1.76300573
      vertex 0.778307319 2.97931671 1.70513988
      vertex 0.788036883 2.98481035 1.68855202
    endloop
  endfacet
  facet normal -0.825861247 0.454365539 -0.33392388
    outer loop
      vertex 0.714895546 2.96538472 1.66333163
      vertex 0.683754504 2.87283063 1.61441267
      vertex 0.67402494 2.86733675 1.6310004
    endloop
  endfacet
  facet normal -0.825858895 0.454366187 -0.333928817
    outer loop
      vertex 0.714895546 2.96538472 1.66333163
      vertex 0.67402494 2.86733675 1.6310004
      vertex 0.705165982 2.95989108 1.67991936
    endloop
  endfacet
  facet normal -0.825859991 0.454365258 -0.333927368
    outer loop
      vertex 0.724625051 2.9708786 1.64674377
      vertex 0.693484068 2.87832427 1.59782481
      vertex 0.683754504 2.87283063 1.61441267
    endloop
  endfacet
  facet normal -0.825863412 0.454364317 -0.333920188
    outer loop
      vertex 0.724625051 2.9708786 1.64674377
      vertex 0.683754504 2.87283063 1.61441267
      vertex 0.714895546 2.96538472 1.66333163
    endloop
  endfacet
  facet normal -0.825860902 0.454365656 -0.333924575
    outer loop
      vertex 0.653292596 2.78229499 1.56656063
      vertex 0.634512663 2.77332592 1.60080302
      vertex 0.67402494 2.86733675 1.6310004
    endloop
  endfacet
  facet normal -0.825859599 0.454365995 -0.333927336
    outer loop
      vertex 0.671610236 2.88358355 1.65907896
      vertex 0.67402494 2.86733675 1.6310004
      vertex 0.634512663 2.77332592 1.60080302
    endloop
  endfacet
  facet normal -0.825859871 0.454365635 -0.333927151
    outer loop
      vertex 0.705165982 2.95989108 1.67991936
      vertex 0.67402494 2.86733675 1.6310004
      vertex 0.671610236 2.88358355 1.65907896
    endloop
  endfacet
  facet normal -0.82586093 0.454365453 -0.333924781
    outer loop
      vertex 0.705165982 2.95989108 1.67991936
      vertex 0.671610236 2.88358355 1.65907896
      vertex 0.708707809 2.99384117 1.71735501
    endloop
  endfacet
  facet normal -0.825859532 0.454366293 -0.333927096
    outer loop
      vertex 0.693484068 2.87832427 1.59782481
      vertex 0.672072589 2.79126382 1.53231812
      vertex 0.653292596 2.78229499 1.56656063
    endloop
  endfacet
  facet normal -0.825861591 0.454364355 -0.33392464
    outer loop
      vertex 0.724625051 2.9708786 1.64674377
      vertex 0.712568879 2.911623 1.5959332
      vertex 0.693484068 2.87832427 1.59782481
    endloop
  endfacet
  facet normal -0.825861779 0.4543645 -0.333923979
    outer loop
      vertex 0.672072589 2.79126382 1.53231812
      vertex 0.693484068 2.87832427 1.59782481
      vertex 0.712568879 2.911623 1.5959332
    endloop
  endfacet
  facet normal -0.825859654 0.45436626 -0.333926838
    outer loop
      vertex 0.653292596 2.78229499 1.56656063
      vertex 0.683754504 2.87283063 1.61441267
      vertex 0.693484068 2.87832427 1.59782481
    endloop
  endfacet
  facet normal -0.825861321 0.454365319 -0.333923996
    outer loop
      vertex 0.683754504 2.87283063 1.61441267
      vertex 0.653292596 2.78229499 1.56656063
      vertex 0.67402494 2.86733675 1.6310004
    endloop
  endfacet
  facet normal -0.82585864 0.454366944 -0.333928416
    outer loop
      vertex 0.714895546 2.96538472 1.66333163
      vertex 0.705165982 2.95989108 1.67991936
      vertex 0.745805383 3.1040988 1.77563095
    endloop
  endfacet
  facet normal -0.825861363 0.454364998 -0.333924328
    outer loop
      vertex 0.708707809 2.99384117 1.71735501
      vertex 0.745805383 3.1040988 1.77563095
      vertex 0.705165982 2.95989108 1.67991936
    endloop
  endfacet
  facet normal -0.825859812 0.454365952 -0.333926867
    outer loop
      vertex 0.827029228 3.29865694 1.83948052
      vertex 0.714895546 2.96538472 1.66333163
      vertex 0.745805383 3.1040988 1.77563095
    endloop
  endfacet
  facet normal -0.825859547 0.454366024 -0.333927424
    outer loop
      vertex 0.827029228 3.29865694 1.83948052
      vertex 0.745805383 3.1040988 1.77563095
      vertex 0.782902956 3.21435642 1.83390689
    endloop
  endfacet
  facet normal -0.825859782 0.454366101 -0.333926738
    outer loop
      vertex 0.820000529 3.32461405 1.89218295
      vertex 0.827029228 3.29865694 1.83948052
      vertex 0.782902956 3.21435642 1.83390689
    endloop
  endfacet
  facet normal -0.825859029 0.454366622 -0.333927892
    outer loop
      vertex 0.712568879 2.911623 1.5959332
      vertex 0.724625051 2.9708786 1.64674377
      vertex 0.753065228 3.03198195 1.65954816
    endloop
  endfacet
  facet normal -0.825859397 0.454366606 -0.333927003
    outer loop
      vertex 0.793561578 3.15234089 1.72316325
      vertex 0.753065228 3.03198195 1.65954816
      vertex 0.724625051 2.9708786 1.64674377
    endloop
  endfacet
  facet normal -0.825862005 0.45436418 -0.333923854
    outer loop
      vertex 0.834057868 3.27270007 1.78677821
      vertex 0.793561578 3.15234089 1.72316325
      vertex 0.827029228 3.29865694 1.83948052
    endloop
  endfacet
  facet normal -0.825863177 0.454365016 -0.333919818
    outer loop
      vertex 0.714895546 2.96538472 1.66333163
      vertex 0.793561578 3.15234089 1.72316325
      vertex 0.724625051 2.9708786 1.64674377
    endloop
  endfacet
  facet normal -0.825860029 0.45436583 -0.333926498
    outer loop
      vertex 0.793561578 3.15234089 1.72316325
      vertex 0.714895546 2.96538472 1.66333163
      vertex 0.827029228 3.29865694 1.83948052
    endloop
  endfacet
  facet normal -0.486482128 -0.274684327 0.829387521
    outer loop
      vertex 0.684384406 2.83428264 1.65024352
      vertex 0.696772337 2.82746696 1.65525246
      vertex 0.721868217 2.90205455 1.69467521
    endloop
  endfacet
  facet normal -0.486475114 -0.27468973 0.829389846
    outer loop
      vertex 0.684384406 2.83428264 1.65024352
      vertex 0.721868217 2.90205455 1.69467521
      vertex 0.709480345 2.90886998 1.68966639
    endloop
  endfacet
  facet normal -0.486473517 -0.274690609 0.829390491
    outer loop
      vertex 0.671996474 2.84109807 1.6452347
      vertex 0.684384406 2.83428264 1.65024352
      vertex 0.709480345 2.90886998 1.68966639
    endloop
  endfacet
  facet normal -0.486478641 -0.274686662 0.829388793
    outer loop
      vertex 0.671996474 2.84109807 1.6452347
      vertex 0.709480345 2.90886998 1.68966639
      vertex 0.697092414 2.91568542 1.68465745
    endloop
  endfacet
  facet normal -0.486477619 -0.274687364 0.82938916
    outer loop
      vertex 0.809863985 3.20722008 1.84735739
      vertex 0.845027328 3.22446179 1.87369275
      vertex 0.881980419 3.33429003 1.93174183
    endloop
  endfacet
  facet normal -0.486478417 -0.274686924 0.829388837
    outer loop
      vertex 0.771121085 3.00480533 1.75759459
      vertex 0.808074176 3.11463356 1.81564367
      vertex 0.809863985 3.20722008 1.84735739
    endloop
  endfacet
  facet normal -0.486477779 -0.274687051 0.829389169
    outer loop
      vertex 0.845027328 3.22446179 1.87369275
      vertex 0.809863985 3.20722008 1.84735739
      vertex 0.808074176 3.11463356 1.81564367
    endloop
  endfacet
  facet normal -0.486475 -0.27468827 0.829390396
    outer loop
      vertex 0.709480345 2.90886998 1.68966639
      vertex 0.771121085 3.00480533 1.75759459
      vertex 0.809863985 3.20722008 1.84735739
    endloop
  endfacet
  facet normal -0.486477825 -0.274687202 0.829389093
    outer loop
      vertex 0.809863985 3.20722008 1.84735739
      vertex 0.881980419 3.33429003 1.93174183
      vertex 0.820000529 3.32461405 1.89218295
    endloop
  endfacet
  facet normal -0.486482326 -0.274684774 0.829387257
    outer loop
      vertex 0.697214842 2.78514862 1.64149654
      vertex 0.734167933 2.89497685 1.69954562
      vertex 0.721868217 2.90205455 1.69467521
    endloop
  endfacet
  facet normal -0.486478207 -0.274686484 0.829389106
    outer loop
      vertex 0.697214842 2.78514862 1.64149654
      vertex 0.721868217 2.90205455 1.69467521
      vertex 0.696772337 2.82746696 1.65525246
    endloop
  endfacet
  facet normal -0.486474707 -0.274688521 0.829390485
    outer loop
      vertex 0.771121085 3.00480533 1.75759459
      vertex 0.709480345 2.90886998 1.68966639
      vertex 0.721868217 2.90205455 1.69467521
    endloop
  endfacet
  facet normal -0.486481875 -0.274683524 0.829387935
    outer loop
      vertex 0.721868217 2.90205455 1.69467521
      vertex 0.734167933 2.89497685 1.69954562
      vertex 0.771121085 3.00480533 1.75759459
    endloop
  endfacet
  facet normal -0.486478011 -0.274686516 0.829389211
    outer loop
      vertex 0.665863752 2.77923727 1.62114978
      vertex 0.697214842 2.78514862 1.64149654
      vertex 0.696772337 2.82746696 1.65525246
    endloop
  endfacet
  facet normal -0.486477949 -0.274686647 0.829389204
    outer loop
      vertex 0.709480345 2.90886998 1.68966639
      vertex 0.809863985 3.20722008 1.84735739
      vertex 0.745805383 3.1040988 1.77563095
    endloop
  endfacet
  facet normal -0.486477235 -0.274686924 0.829389531
    outer loop
      vertex 0.709480345 2.90886998 1.68966639
      vertex 0.745805383 3.1040988 1.77563095
      vertex 0.708707809 2.99384117 1.71735501
    endloop
  endfacet
  facet normal -0.486478354 -0.274686308 0.829389078
    outer loop
      vertex 0.745805383 3.1040988 1.77563095
      vertex 0.809863985 3.20722008 1.84735739
      vertex 0.782902956 3.21435642 1.83390689
    endloop
  endfacet
  facet normal -0.486478651 -0.274686691 0.829388777
    outer loop
      vertex 0.709480345 2.90886998 1.68966639
      vertex 0.708707809 2.99384117 1.71735501
      vertex 0.697092414 2.91568542 1.68465745
    endloop
  endfacet
  facet normal -0.486479713 -0.274686324 0.829388276
    outer loop
      vertex 0.671610236 2.88358355 1.65907896
      vertex 0.697092414 2.91568542 1.68465745
      vertex 0.708707809 2.99384117 1.71735501
    endloop
  endfacet
  facet normal -0.48648178 -0.274683292 0.829388068
    outer loop
      vertex 0.696772337 2.82746696 1.65525246
      vertex 0.684384406 2.83428264 1.65024352
      vertex 0.665863752 2.77923727 1.62114978
    endloop
  endfacet
  facet normal -0.486472731 -0.27468827 0.829391727
    outer loop
      vertex 0.671996474 2.84109807 1.6452347
      vertex 0.665863752 2.77923727 1.62114978
      vertex 0.684384406 2.83428264 1.65024352
    endloop
  endfacet
  facet normal -0.486478952 -0.274685979 0.829388836
    outer loop
      vertex 0.634512663 2.77332592 1.60080302
      vertex 0.671996474 2.84109807 1.6452347
      vertex 0.671610236 2.88358355 1.65907896
    endloop
  endfacet
  facet normal -0.486477939 -0.274686759 0.829389172
    outer loop
      vertex 0.665863752 2.77923727 1.62114978
      vertex 0.671996474 2.84109807 1.6452347
      vertex 0.634512663 2.77332592 1.60080302
    endloop
  endfacet
  facet normal -0.486480276 -0.274685762 0.829388132
    outer loop
      vertex 0.671996474 2.84109807 1.6452347
      vertex 0.697092414 2.91568542 1.68465745
      vertex 0.671610236 2.88358355 1.65907896
    endloop
  endfacet
  facet normal -0.486478411 -0.27468704 0.829388803
    outer loop
      vertex 0.820000529 3.32461405 1.89218295
      vertex 0.782902956 3.21435642 1.83390689
      vertex 0.809863985 3.20722008 1.84735739
    endloop
  endfacet
  facet normal 0.486476314 0.274688419 -0.829389576
    outer loop
      vertex 0.896037817 3.28237605 1.82633722
      vertex 0.85572201 3.16255379 1.76300573
      vertex 0.793561578 3.15234089 1.72316325
    endloop
  endfacet
  facet normal 0.486479045 0.274685708 -0.829388872
    outer loop
      vertex 0.896037817 3.28237605 1.82633722
      vertex 0.793561578 3.15234089 1.72316325
      vertex 0.834057868 3.27270007 1.78677821
    endloop
  endfacet
  facet normal 0.486478007 0.274686526 -0.82938921
    outer loop
      vertex 0.85572201 3.16255379 1.76300573
      vertex 0.815406263 3.04273129 1.69967437
      vertex 0.753065228 3.03198195 1.65954816
    endloop
  endfacet
  facet normal 0.486476395 0.274688123 -0.829389626
    outer loop
      vertex 0.85572201 3.16255379 1.76300573
      vertex 0.753065228 3.03198195 1.65954816
      vertex 0.793561578 3.15234089 1.72316325
    endloop
  endfacet
  facet normal 0.486478008 0.274686526 -0.829389209
    outer loop
      vertex 0.703423619 2.79717517 1.55266488
      vertex 0.775090456 2.92290902 1.636343
      vertex 0.734774709 2.80308652 1.57301164
    endloop
  endfacet
  facet normal 0.486477484 0.274686938 -0.82938938
    outer loop
      vertex 0.712568879 2.911623 1.5959332
      vertex 0.775090456 2.92290902 1.636343
      vertex 0.703423619 2.79717517 1.55266488
    endloop
  endfacet
  facet normal 0.486478003 0.27468654 -0.829389208
    outer loop
      vertex 0.712568879 2.911623 1.5959332
      vertex 0.753065228 3.03198195 1.65954816
      vertex 0.815406263 3.04273129 1.69967437
    endloop
  endfacet
  facet normal 0.486477438 0.274687098 -0.829389354
    outer loop
      vertex 0.712568879 2.911623 1.5959332
      vertex 0.815406263 3.04273129 1.69967437
      vertex 0.775090456 2.92290902 1.636343
    endloop
  endfacet
  facet normal 0.486478648 0.274686626 -0.8293888
    outer loop
      vertex 0.703423619 2.79717517 1.55266488
      vertex 0.672072589 2.79126382 1.53231812
      vertex 0.712568879 2.911623 1.5959332
    endloop
  endfacet
  facet normal 0.130687609 0.896199642 -0.423965742
    outer loop
      vertex 0.820000529 3.32461405 1.89218295
      vertex 0.881980419 3.33429003 1.93174183
      vertex 0.889009118 3.30833316 1.87903953
    endloop
  endfacet
  facet normal 0.130686838 0.896198506 -0.42396838
    outer loop
      vertex 0.827029228 3.29865694 1.83948052
      vertex 0.820000529 3.32461405 1.89218295
      vertex 0.889009118 3.30833316 1.87903953
    endloop
  endfacet
  facet normal 0.130687344 0.896198105 -0.423969074
    outer loop
      vertex 0.827029228 3.29865694 1.83948052
      vertex 0.889009118 3.30833316 1.87903953
      vertex 0.896037817 3.28237605 1.82633722
    endloop
  endfacet
  facet normal 0.130688316 0.896199538 -0.423965744
    outer loop
      vertex 0.834057868 3.27270007 1.78677821
      vertex 0.827029228 3.29865694 1.83948052
      vertex 0.896037817 3.28237605 1.82633722
    endloop
  endfacet
endsolid b23
