solid a21_features
  facet normal 0.925808466 0.346133452 -0.151889164
    outer loop
      vertex 5.70392024 0.761679486 0.0819777921
      vertex 5.70350538 0.762370748 0.0810243799
      vertex 5.67647311 0.875982784 0.175160247
    endloop
  endfacet
  facet normal 0.925808466 0.346133452 -0.151889164
    outer loop
      vertex 5.70392024 0.761679486 0.0819777921
      vertex 5.67647311 0.875982784 0.175160247
      vertex 5.67688797 0.875291522 0.176113659
    endloop
  endfacet
  facet normal 0.180215159 -0.757413572 -0.627572448
    outer loop
      vertex 5.70080715 0.760938773 0.0819777921
      vertex 5.70350538 0.762370748 0.0810243799
      vertex 5.70392024 0.761679486 0.0819777921
    endloop
  endfacet
  facet normal -0.180215159 0.757413572 0.627572448
    outer loop
      vertex 5.67377488 0.874550808 0.176113659
      vertex 5.67688797 0.875291522 0.176113659
      vertex 5.67647311 0.875982784 0.175160247
    endloop
  endfacet
  facet normal 0.728182519 0.531654144 -0.432543743
    outer loop
      vertex 5.70350538 0.762370748 0.0810243799
      vertex 5.70267974 0.762844004 0.0802161161
      vertex 5.67564747 0.87645604 0.174351983
    endloop
  endfacet
  facet normal 0.728182519 0.531654144 -0.432543743
    outer loop
      vertex 5.70350538 0.762370748 0.0810243799
      vertex 5.67564747 0.87645604 0.174351983
      vertex 5.67647311 0.875982784 0.175160247
    endloop
  endfacet
  facet normal 0.180215159 -0.757413572 -0.627572448
    outer loop
      vertex 5.70080715 0.760938773 0.0819777921
      vertex 5.70267974 0.762844004 0.0802161161
      vertex 5.70350538 0.762370748 0.0810243799
    endloop
  endfacet
  facet normal -0.180215159 0.757413572 0.627572448
    outer loop
      vertex 5.67377488 0.874550808 0.176113659
      vertex 5.67647311 0.875982784 0.175160247
      vertex 5.67564747 0.87645604 0.174351983
    endloop
  endfacet
  facet normal 0.419697385 0.636235313 -0.647347459
    outer loop
      vertex 5.70267974 0.762844004 0.0802161161
      vertex 5.70156901 0.763027207 0.0796760514
      vertex 5.67453674 0.876639242 0.173811919
    endloop
  endfacet
  facet normal 0.419697385 0.636235313 -0.647347459
    outer loop
      vertex 5.70267974 0.762844004 0.0802161161
      vertex 5.67453674 0.876639242 0.173811919
      vertex 5.67564747 0.87645604 0.174351983
    endloop
  endfacet
  facet normal 0.180215159 -0.757413572 -0.627572448
    outer loop
      vertex 5.70080715 0.760938773 0.0819777921
      vertex 5.70156901 0.763027207 0.0796760514
      vertex 5.70267974 0.762844004 0.0802161161
    endloop
  endfacet
  facet normal -0.180215159 0.757413572 0.627572448
    outer loop
      vertex 5.67377488 0.874550808 0.176113659
      vertex 5.67564747 0.87645604 0.174351983
      vertex 5.67453674 0.876639242 0.173811919
    endloop
  endfacet
  facet normal 0.0473171282 0.643955422 -0.763598392
    outer loop
      vertex 5.70156901 0.763027207 0.0796760514
      vertex 5.7003423 0.762892464 0.0794864059
      vertex 5.67331003 0.876504499 0.173622273
    endloop
  endfacet
  facet normal 0.0473171282 0.643955422 -0.763598392
    outer loop
      vertex 5.70156901 0.763027207 0.0796760514
      vertex 5.67331003 0.876504499 0.173622273
      vertex 5.67453674 0.876639242 0.173811919
    endloop
  endfacet
  facet normal 0.180215159 -0.757413572 -0.627572448
    outer loop
      vertex 5.70080715 0.760938773 0.0819777921
      vertex 5.7003423 0.762892464 0.0794864059
      vertex 5.70156901 0.763027207 0.0796760514
    endloop
  endfacet
  facet normal -0.180215159 0.757413572 0.627572448
    outer loop
      vertex 5.67377488 0.874550808 0.176113659
      vertex 5.67453674 0.876639242 0.173811919
      vertex 5.67331003 0.876504499 0.173622273
    endloop
  endfacet
  facet normal -0.332266732 0.553639156 -0.763598392
    outer loop
      vertex 5.7003423 0.762892464 0.0794864059
      vertex 5.69918636 0.762460289 0.0796760514
      vertex 5.67215408 0.876072325 0.173811919
    endloop
  endfacet
  facet normal -0.332266732 0.553639156 -0.763598392
    outer loop
      vertex 5.7003423 0.762892464 0.0794864059
      vertex 5.67215408 0.876072325 0.173811919
      vertex 5.67331003 0.876504499 0.173622273
    endloop
  endfacet
  facet normal 0.180215159 -0.757413572 -0.627572448
    outer loop
      vertex 5.70080715 0.760938773 0.0819777921
      vertex 5.69918636 0.762460289 0.0796760514
      vertex 5.7003423 0.762892464 0.0794864059
    endloop
  endfacet
  facet normal -0.180215159 0.757413572 0.627572448
    outer loop
      vertex 5.67377488 0.874550808 0.176113659
      vertex 5.67331003 0.876504499 0.173622273
      vertex 5.67215408 0.876072325 0.173811919
    endloop
  endfacet
  facet normal -0.661265995 0.379036347 -0.647347459
    outer loop
      vertex 5.69918636 0.762460289 0.0796760514
      vertex 5.69827716 0.761796477 0.0802161161
      vertex 5.67124489 0.875408513 0.174351983
    endloop
  endfacet
  facet normal -0.661265995 0.379036347 -0.647347459
    outer loop
      vertex 5.69918636 0.762460289 0.0796760514
      vertex 5.67124489 0.875408513 0.174351983
      vertex 5.67215408 0.876072325 0.173811919
    endloop
  endfacet
  facet normal 0.180215159 -0.757413572 -0.627572448
    outer loop
      vertex 5.70080715 0.760938773 0.0819777921
      vertex 5.69827716 0.761796477 0.0802161161
      vertex 5.69918636 0.762460289 0.0796760514
    endloop
  endfacet
  facet normal -0.180215159 0.757413572 0.627572448
    outer loop
      vertex 5.67377488 0.874550808 0.176113659
      vertex 5.67215408 0.876072325 0.173811919
      vertex 5.67124489 0.875408513 0.174351983
    endloop
  endfacet
  facet normal -0.889593504 0.14672869 -0.432543743
    outer loop
      vertex 5.69827716 0.761796477 0.0802161161
      vertex 5.69775314 0.761002088 0.0810243799
      vertex 5.67072087 0.874614124 0.175160247
    endloop
  endfacet
  facet normal -0.889593504 0.14672869 -0.432543743
    outer loop
      vertex 5.69827716 0.761796477 0.0802161161
      vertex 5.67072087 0.874614124 0.175160247
      vertex 5.67124489 0.875408513 0.174351983
    endloop
  endfacet
  facet normal 0.180215159 -0.757413572 -0.627572448
    outer loop
      vertex 5.70080715 0.760938773 0.0819777921
      vertex 5.69775314 0.761002088 0.0810243799
      vertex 5.69827716 0.761796477 0.0802161161
    endloop
  endfacet
  facet normal -0.180215159 0.757413572 0.627572448
    outer loop
      vertex 5.67377488 0.874550808 0.176113659
      vertex 5.67124489 0.875408513 0.174351983
      vertex 5.67072087 0.874614124 0.175160247
    endloop
  endfacet
  facet normal -0.982488466 -0.10791708 -0.151889164
    outer loop
      vertex 5.69775314 0.761002088 0.0810243799
      vertex 5.69769406 0.760198059 0.0819777921
      vertex 5.67066179 0.873810095 0.176113659
    endloop
  endfacet
  facet normal -0.982488466 -0.10791708 -0.151889164
    outer loop
      vertex 5.69775314 0.761002088 0.0810243799
      vertex 5.67066179 0.873810095 0.176113659
      vertex 5.67072087 0.874614124 0.175160247
    endloop
  endfacet
  facet normal 0.180215159 -0.757413572 -0.627572448
    outer loop
      vertex 5.70080715 0.760938773 0.0819777921
      vertex 5.69769406 0.760198059 0.0819777921
      vertex 5.69775314 0.761002088 0.0810243799
    endloop
  endfacet
  facet normal -0.180215159 0.757413572 0.627572448
    outer loop
      vertex 5.67377488 0.874550808 0.176113659
      vertex 5.67072087 0.874614124 0.175160247
      vertex 5.67066179 0.873810095 0.176113659
    endloop
  endfacet
  facet normal -0.925808466 -0.346133452 0.151889164
    outer loop
      vertex 5.69769406 0.760198059 0.0819777921
      vertex 5.69810892 0.759506798 0.0829312043
      vertex 5.67107665 0.873118833 0.177067072
    endloop
  endfacet
  facet normal -0.925808466 -0.346133452 0.151889164
    outer loop
      vertex 5.69769406 0.760198059 0.0819777921
      vertex 5.67107665 0.873118833 0.177067072
      vertex 5.67066179 0.873810095 0.176113659
    endloop
  endfacet
  facet normal 0.180215159 -0.757413572 -0.627572448
    outer loop
      vertex 5.70080715 0.760938773 0.0819777921
      vertex 5.69810892 0.759506798 0.0829312043
      vertex 5.69769406 0.760198059 0.0819777921
    endloop
  endfacet
  facet normal -0.180215159 0.757413572 0.627572448
    outer loop
      vertex 5.67377488 0.874550808 0.176113659
      vertex 5.67066179 0.873810095 0.176113659
      vertex 5.67107665 0.873118833 0.177067072
    endloop
  endfacet
  facet normal -0.728182519 -0.531654144 0.432543743
    outer loop
      vertex 5.69810892 0.759506798 0.0829312043
      vertex 5.69893456 0.759033541 0.0837394681
      vertex 5.67190229 0.872645577 0.177875335
    endloop
  endfacet
  facet normal -0.728182519 -0.531654144 0.432543743
    outer loop
      vertex 5.69810892 0.759506798 0.0829312043
      vertex 5.67190229 0.872645577 0.177875335
      vertex 5.67107665 0.873118833 0.177067072
    endloop
  endfacet
  facet normal 0.180215159 -0.757413572 -0.627572448
    outer loop
      vertex 5.70080715 0.760938773 0.0819777921
      vertex 5.69893456 0.759033541 0.0837394681
      vertex 5.69810892 0.759506798 0.0829312043
    endloop
  endfacet
  facet normal -0.180215159 0.757413572 0.627572448
    outer loop
      vertex 5.67377488 0.874550808 0.176113659
      vertex 5.67107665 0.873118833 0.177067072
      vertex 5.67190229 0.872645577 0.177875335
    endloop
  endfacet
  facet normal -0.419697385 -0.636235313 0.647347459
    outer loop
      vertex 5.69893456 0.759033541 0.0837394681
      vertex 5.70004529 0.758850339 0.0842795327
      vertex 5.67301302 0.872462375 0.1784154
    endloop
  endfacet
  facet normal -0.419697385 -0.636235313 0.647347459
    outer loop
      vertex 5.69893456 0.759033541 0.0837394681
      vertex 5.67301302 0.872462375 0.1784154
      vertex 5.67190229 0.872645577 0.177875335
    endloop
  endfacet
  facet normal 0.180215159 -0.757413572 -0.627572448
    outer loop
      vertex 5.70080715 0.760938773 0.0819777921
      vertex 5.70004529 0.758850339 0.0842795327
      vertex 5.69893456 0.759033541 0.0837394681
    endloop
  endfacet
  facet normal -0.180215159 0.757413572 0.627572448
    outer loop
      vertex 5.67377488 0.874550808 0.176113659
      vertex 5.67190229 0.872645577 0.177875335
      vertex 5.67301302 0.872462375 0.1784154
    endloop
  endfacet
  facet normal -0.0473171282 -0.643955422 0.763598392
    outer loop
      vertex 5.70004529 0.758850339 0.0842795327
      vertex 5.701272 0.758985082 0.0844691782
      vertex 5.67423973 0.872597117 0.178605045
    endloop
  endfacet
  facet normal -0.0473171282 -0.643955422 0.763598392
    outer loop
      vertex 5.70004529 0.758850339 0.0842795327
      vertex 5.67423973 0.872597117 0.178605045
      vertex 5.67301302 0.872462375 0.1784154
    endloop
  endfacet
  facet normal 0.180215159 -0.757413572 -0.627572448
    outer loop
      vertex 5.70080715 0.760938773 0.0819777921
      vertex 5.701272 0.758985082 0.0844691782
      vertex 5.70004529 0.758850339 0.0842795327
    endloop
  endfacet
  facet normal -0.180215159 0.757413572 0.627572448
    outer loop
      vertex 5.67377488 0.874550808 0.176113659
      vertex 5.67301302 0.872462375 0.1784154
      vertex 5.67423973 0.872597117 0.178605045
    endloop
  endfacet
  facet normal 0.332266732 -0.553639156 0.763598392
    outer loop
      vertex 5.701272 0.758985082 0.0844691782
      vertex 5.70242795 0.759417256 0.0842795327
      vertex 5.67539567 0.873029292 0.1784154
    endloop
  endfacet
  facet normal 0.332266732 -0.553639156 0.763598392
    outer loop
      vertex 5.701272 0.758985082 0.0844691782
      vertex 5.67539567 0.873029292 0.1784154
      vertex 5.67423973 0.872597117 0.178605045
    endloop
  endfacet
  facet normal 0.180215159 -0.757413572 -0.627572448
    outer loop
      vertex 5.70080715 0.760938773 0.0819777921
      vertex 5.70242795 0.759417256 0.0842795327
      vertex 5.701272 0.758985082 0.0844691782
    endloop
  endfacet
  facet normal -0.180215159 0.757413572 0.627572448
    outer loop
      vertex 5.67377488 0.874550808 0.176113659
      vertex 5.67423973 0.872597117 0.178605045
      vertex 5.67539567 0.873029292 0.1784154
    endloop
  endfacet
  facet normal 0.661265995 -0.379036347 0.647347459
    outer loop
      vertex 5.70242795 0.759417256 0.0842795327
      vertex 5.70333714 0.760081068 0.0837394681
      vertex 5.67630487 0.873693104 0.177875335
    endloop
  endfacet
  facet normal 0.661265995 -0.379036347 0.647347459
    outer loop
      vertex 5.70242795 0.759417256 0.0842795327
      vertex 5.67630487 0.873693104 0.177875335
      vertex 5.67539567 0.873029292 0.1784154
    endloop
  endfacet
  facet normal 0.180215159 -0.757413572 -0.627572448
    outer loop
      vertex 5.70080715 0.760938773 0.0819777921
      vertex 5.70333714 0.760081068 0.0837394681
      vertex 5.70242795 0.759417256 0.0842795327
    endloop
  endfacet
  facet normal -0.180215159 0.757413572 0.627572448
    outer loop
      vertex 5.67377488 0.874550808 0.176113659
      vertex 5.67539567 0.873029292 0.1784154
      vertex 5.67630487 0.873693104 0.177875335
    endloop
  endfacet
  facet normal 0.889593504 -0.14672869 0.432543743
    outer loop
      vertex 5.70333714 0.760081068 0.0837394681
      vertex 5.70386117 0.760875458 0.0829312043
      vertex 5.67682889 0.874487493 0.177067072
    endloop
  endfacet
  facet normal 0.889593504 -0.14672869 0.432543743
    outer loop
      vertex 5.70333714 0.760081068 0.0837394681
      vertex 5.67682889 0.874487493 0.177067072
      vertex 5.67630487 0.873693104 0.177875335
    endloop
  endfacet
  facet normal 0.180215159 -0.757413572 -0.627572448
    outer loop
      vertex 5.70080715 0.760938773 0.0819777921
      vertex 5.70386117 0.760875458 0.0829312043
      vertex 5.70333714 0.760081068 0.0837394681
    endloop
  endfacet
  facet normal -0.180215159 0.757413572 0.627572448
    outer loop
      vertex 5.67377488 0.874550808 0.176113659
      vertex 5.67630487 0.873693104 0.177875335
      vertex 5.67682889 0.874487493 0.177067072
    endloop
  endfacet
  facet normal 0.982488466 0.10791708 0.151889164
    outer loop
      vertex 5.70386117 0.760875458 0.0829312043
      vertex 5.70392024 0.761679486 0.0819777921
      vertex 5.67688797 0.875291522 0.176113659
    endloop
  endfacet
  facet normal 0.982488466 0.10791708 0.151889164
    outer loop
      vertex 5.70386117 0.760875458 0.0829312043
      vertex 5.67688797 0.875291522 0.176113659
      vertex 5.67682889 0.874487493 0.177067072
    endloop
  endfacet
  facet normal 0.180215159 -0.757413572 -0.627572448
    outer loop
      vertex 5.70080715 0.760938773 0.0819777921
      vertex 5.70392024 0.761679486 0.0819777921
      vertex 5.70386117 0.760875458 0.0829312043
    endloop
  endfacet
  facet normal -0.180215159 0.757413572 0.627572448
    outer loop
      vertex 5.67377488 0.874550808 0.176113659
      vertex 5.67682889 0.874487493 0.177067072
      vertex 5.67688797 0.875291522 0.176113659
    endloop
  endfacet
  facet normal 0.925808466 0.346133452 -0.151889164
    outer loop
      vertex 5.72543461 0.759796755 0.102800554
      vertex 5.72501975 0.760488017 0.101847142
      vertex 5.69798748 0.874100053 0.195983009
    endloop
  endfacet
  facet normal 0.925808466 0.346133452 -0.151889164
    outer loop
      vertex 5.72543461 0.759796755 0.102800554
      vertex 5.69798748 0.874100053 0.195983009
      vertex 5.69840234 0.873408791 0.196936421
    endloop
  endfacet
  facet normal 0.180215159 -0.757413572 -0.627572448
    outer loop
      vertex 5.72232152 0.759056042 0.102800554
      vertex 5.72501975 0.760488017 0.101847142
      vertex 5.72543461 0.759796755 0.102800554
    endloop
  endfacet
  facet normal -0.180215159 0.757413572 0.627572448
    outer loop
      vertex 5.69528924 0.872668078 0.196936421
      vertex 5.69840234 0.873408791 0.196936421
      vertex 5.69798748 0.874100053 0.195983009
    endloop
  endfacet
  facet normal 0.728182519 0.531654144 -0.432543743
    outer loop
      vertex 5.72501975 0.760488017 0.101847142
      vertex 5.72419411 0.760961274 0.101038878
      vertex 5.69716183 0.874573309 0.195174745
    endloop
  endfacet
  facet normal 0.728182519 0.531654144 -0.432543743
    outer loop
      vertex 5.72501975 0.760488017 0.101847142
      vertex 5.69716183 0.874573309 0.195174745
      vertex 5.69798748 0.874100053 0.195983009
    endloop
  endfacet
  facet normal 0.180215159 -0.757413572 -0.627572448
    outer loop
      vertex 5.72232152 0.759056042 0.102800554
      vertex 5.72419411 0.760961274 0.101038878
      vertex 5.72501975 0.760488017 0.101847142
    endloop
  endfacet
  facet normal -0.180215159 0.757413572 0.627572448
    outer loop
      vertex 5.69528924 0.872668078 0.196936421
      vertex 5.69798748 0.874100053 0.195983009
      vertex 5.69716183 0.874573309 0.195174745
    endloop
  endfacet
  facet normal 0.419697385 0.636235313 -0.647347459
    outer loop
      vertex 5.72419411 0.760961274 0.101038878
      vertex 5.72308338 0.761144476 0.100498814
      vertex 5.69605111 0.874756512 0.194634681
    endloop
  endfacet
  facet normal 0.419697385 0.636235313 -0.647347459
    outer loop
      vertex 5.72419411 0.760961274 0.101038878
      vertex 5.69605111 0.874756512 0.194634681
      vertex 5.69716183 0.874573309 0.195174745
    endloop
  endfacet
  facet normal 0.180215159 -0.757413572 -0.627572448
    outer loop
      vertex 5.72232152 0.759056042 0.102800554
      vertex 5.72308338 0.761144476 0.100498814
      vertex 5.72419411 0.760961274 0.101038878
    endloop
  endfacet
  facet normal -0.180215159 0.757413572 0.627572448
    outer loop
      vertex 5.69528924 0.872668078 0.196936421
      vertex 5.69716183 0.874573309 0.195174745
      vertex 5.69605111 0.874756512 0.194634681
    endloop
  endfacet
  facet normal 0.0473171282 0.643955422 -0.763598392
    outer loop
      vertex 5.72308338 0.761144476 0.100498814
      vertex 5.72185667 0.761009733 0.100309168
      vertex 5.69482439 0.874621769 0.194445035
    endloop
  endfacet
  facet normal 0.0473171282 0.643955422 -0.763598392
    outer loop
      vertex 5.72308338 0.761144476 0.100498814
      vertex 5.69482439 0.874621769 0.194445035
      vertex 5.69605111 0.874756512 0.194634681
    endloop
  endfacet
  facet normal 0.180215159 -0.757413572 -0.627572448
    outer loop
      vertex 5.72232152 0.759056042 0.102800554
      vertex 5.72185667 0.761009733 0.100309168
      vertex 5.72308338 0.761144476 0.100498814
    endloop
  endfacet
  facet normal -0.180215159 0.757413572 0.627572448
    outer loop
      vertex 5.69528924 0.872668078 0.196936421
      vertex 5.69605111 0.874756512 0.194634681
      vertex 5.69482439 0.874621769 0.194445035
    endloop
  endfacet
  facet normal -0.332266732 0.553639156 -0.763598392
    outer loop
      vertex 5.72185667 0.761009733 0.100309168
      vertex 5.72070072 0.760577558 0.100498814
      vertex 5.69366845 0.874189594 0.194634681
    endloop
  endfacet
  facet normal -0.332266732 0.553639156 -0.763598392
    outer loop
      vertex 5.72185667 0.761009733 0.100309168
      vertex 5.69366845 0.874189594 0.194634681
      vertex 5.69482439 0.874621769 0.194445035
    endloop
  endfacet
  facet normal 0.180215159 -0.757413572 -0.627572448
    outer loop
      vertex 5.72232152 0.759056042 0.102800554
      vertex 5.72070072 0.760577558 0.100498814
      vertex 5.72185667 0.761009733 0.100309168
    endloop
  endfacet
  facet normal -0.180215159 0.757413572 0.627572448
    outer loop
      vertex 5.69528924 0.872668078 0.196936421
      vertex 5.69482439 0.874621769 0.194445035
      vertex 5.69366845 0.874189594 0.194634681
    endloop
  endfacet
  facet normal -0.661265995 0.379036347 -0.647347459
    outer loop
      vertex 5.72070072 0.760577558 0.100498814
      vertex 5.71979153 0.759913747 0.101038878
      vertex 5.69275926 0.873525782 0.195174745
    endloop
  endfacet
  facet normal -0.661265995 0.379036347 -0.647347459
    outer loop
      vertex 5.72070072 0.760577558 0.100498814
      vertex 5.69275926 0.873525782 0.195174745
      vertex 5.69366845 0.874189594 0.194634681
    endloop
  endfacet
  facet normal 0.180215159 -0.757413572 -0.627572448
    outer loop
      vertex 5.72232152 0.759056042 0.102800554
      vertex 5.71979153 0.759913747 0.101038878
      vertex 5.72070072 0.760577558 0.100498814
    endloop
  endfacet
  facet normal -0.180215159 0.757413572 0.627572448
    outer loop
      vertex 5.69528924 0.872668078 0.196936421
      vertex 5.69366845 0.874189594 0.194634681
      vertex 5.69275926 0.873525782 0.195174745
    endloop
  endfacet
  facet normal -0.889593504 0.14672869 -0.432543743
    outer loop
      vertex 5.71979153 0.759913747 0.101038878
      vertex 5.7192675 0.759119357 0.101847142
      vertex 5.69223523 0.872731393 0.195983009
    endloop
  endfacet
  facet normal -0.889593504 0.14672869 -0.432543743
    outer loop
      vertex 5.71979153 0.759913747 0.101038878
      vertex 5.69223523 0.872731393 0.195983009
      vertex 5.69275926 0.873525782 0.195174745
    endloop
  endfacet
  facet normal 0.180215159 -0.757413572 -0.627572448
    outer loop
      vertex 5.72232152 0.759056042 0.102800554
      vertex 5.7192675 0.759119357 0.101847142
      vertex 5.71979153 0.759913747 0.101038878
    endloop
  endfacet
  facet normal -0.180215159 0.757413572 0.627572448
    outer loop
      vertex 5.69528924 0.872668078 0.196936421
      vertex 5.69275926 0.873525782 0.195174745
      vertex 5.69223523 0.872731393 0.195983009
    endloop
  endfacet
  facet normal -0.982488466 -0.10791708 -0.151889164
    outer loop
      vertex 5.7192675 0.759119357 0.101847142
      vertex 5.71920843 0.758315329 0.102800554
      vertex 5.69217615 0.871927364 0.196936421
    endloop
  endfacet
  facet normal -0.982488466 -0.10791708 -0.151889164
    outer loop
      vertex 5.7192675 0.759119357 0.101847142
      vertex 5.69217615 0.871927364 0.196936421
      vertex 5.69223523 0.872731393 0.195983009
    endloop
  endfacet
  facet normal 0.180215159 -0.757413572 -0.627572448
    outer loop
      vertex 5.72232152 0.759056042 0.102800554
      vertex 5.71920843 0.758315329 0.102800554
      vertex 5.7192675 0.759119357 0.101847142
    endloop
  endfacet
  facet normal -0.180215159 0.757413572 0.627572448
    outer loop
      vertex 5.69528924 0.872668078 0.196936421
      vertex 5.69223523 0.872731393 0.195983009
      vertex 5.69217615 0.871927364 0.196936421
    endloop
  endfacet
  facet normal -0.925808466 -0.346133452 0.151889164
    outer loop
      vertex 5.71920843 0.758315329 0.102800554
      vertex 5.71962329 0.757624067 0.103753966
      vertex 5.69259101 0.871236103 0.197889834
    endloop
  endfacet
  facet normal -0.925808466 -0.346133452 0.151889164
    outer loop
      vertex 5.71920843 0.758315329 0.102800554
      vertex 5.69259101 0.871236103 0.197889834
      vertex 5.69217615 0.871927364 0.196936421
    endloop
  endfacet
  facet normal 0.180215159 -0.757413572 -0.627572448
    outer loop
      vertex 5.72232152 0.759056042 0.102800554
      vertex 5.71962329 0.757624067 0.103753966
      vertex 5.71920843 0.758315329 0.102800554
    endloop
  endfacet
  facet normal -0.180215159 0.757413572 0.627572448
    outer loop
      vertex 5.69528924 0.872668078 0.196936421
      vertex 5.69217615 0.871927364 0.196936421
      vertex 5.69259101 0.871236103 0.197889834
    endloop
  endfacet
  facet normal -0.728182519 -0.531654144 0.432543743
    outer loop
      vertex 5.71962329 0.757624067 0.103753966
      vertex 5.72044893 0.75715081 0.10456223
      vertex 5.69341665 0.870762846 0.198698098
    endloop
  endfacet
  facet normal -0.728182519 -0.531654144 0.432543743
    outer loop
      vertex 5.71962329 0.757624067 0.103753966
      vertex 5.69341665 0.870762846 0.198698098
      vertex 5.69259101 0.871236103 0.197889834
    endloop
  endfacet
  facet normal 0.180215159 -0.757413572 -0.627572448
    outer loop
      vertex 5.72232152 0.759056042 0.102800554
      vertex 5.72044893 0.75715081 0.10456223
      vertex 5.71962329 0.757624067 0.103753966
    endloop
  endfacet
  facet normal -0.180215159 0.757413572 0.627572448
    outer loop
      vertex 5.69528924 0.872668078 0.196936421
      vertex 5.69259101 0.871236103 0.197889834
      vertex 5.69341665 0.870762846 0.198698098
    endloop
  endfacet
  facet normal -0.419697385 -0.636235313 0.647347459
    outer loop
      vertex 5.72044893 0.75715081 0.10456223
      vertex 5.72155966 0.756967608 0.105102295
      vertex 5.69452738 0.870579644 0.199238162
    endloop
  endfacet
  facet normal -0.419697385 -0.636235313 0.647347459
    outer loop
      vertex 5.72044893 0.75715081 0.10456223
      vertex 5.69452738 0.870579644 0.199238162
      vertex 5.69341665 0.870762846 0.198698098
    endloop
  endfacet
  facet normal 0.180215159 -0.757413572 -0.627572448
    outer loop
      vertex 5.72232152 0.759056042 0.102800554
      vertex 5.72155966 0.756967608 0.105102295
      vertex 5.72044893 0.75715081 0.10456223
    endloop
  endfacet
  facet normal -0.180215159 0.757413572 0.627572448
    outer loop
      vertex 5.69528924 0.872668078 0.196936421
      vertex 5.69341665 0.870762846 0.198698098
      vertex 5.69452738 0.870579644 0.199238162
    endloop
  endfacet
  facet normal -0.0473171282 -0.643955422 0.763598392
    outer loop
      vertex 5.72155966 0.756967608 0.105102295
      vertex 5.72278637 0.757102351 0.10529194
      vertex 5.6957541 0.870714387 0.199427808
    endloop
  endfacet
  facet normal -0.0473171282 -0.643955422 0.763598392
    outer loop
      vertex 5.72155966 0.756967608 0.105102295
      vertex 5.6957541 0.870714387 0.199427808
      vertex 5.69452738 0.870579644 0.199238162
    endloop
  endfacet
  facet normal 0.180215159 -0.757413572 -0.627572448
    outer loop
      vertex 5.72232152 0.759056042 0.102800554
      vertex 5.72278637 0.757102351 0.10529194
      vertex 5.72155966 0.756967608 0.105102295
    endloop
  endfacet
  facet normal -0.180215159 0.757413572 0.627572448
    outer loop
      vertex 5.69528924 0.872668078 0.196936421
      vertex 5.69452738 0.870579644 0.199238162
      vertex 5.6957541 0.870714387 0.199427808
    endloop
  endfacet
  facet normal 0.332266732 -0.553639156 0.763598392
    outer loop
      vertex 5.72278637 0.757102351 0.10529194
      vertex 5.72394231 0.757534526 0.105102295
      vertex 5.69691004 0.871146561 0.199238162
    endloop
  endfacet
  facet normal 0.332266732 -0.553639156 0.763598392
    outer loop
      vertex 5.72278637 0.757102351 0.10529194
      vertex 5.69691004 0.871146561 0.199238162
      vertex 5.6957541 0.870714387 0.199427808
    endloop
  endfacet
  facet normal 0.180215159 -0.757413572 -0.627572448
    outer loop
      vertex 5.72232152 0.759056042 0.102800554
      vertex 5.72394231 0.757534526 0.105102295
      vertex 5.72278637 0.757102351 0.10529194
    endloop
  endfacet
  facet normal -0.180215159 0.757413572 0.627572448
    outer loop
      vertex 5.69528924 0.872668078 0.196936421
      vertex 5.6957541 0.870714387 0.199427808
      vertex 5.69691004 0.871146561 0.199238162
    endloop
  endfacet
  facet normal 0.661265995 -0.379036347 0.647347459
    outer loop
      vertex 5.72394231 0.757534526 0.105102295
      vertex 5.72485151 0.758198337 0.10456223
      vertex 5.69781923 0.871810373 0.198698098
    endloop
  endfacet
  facet normal 0.661265995 -0.379036347 0.647347459
    outer loop
      vertex 5.72394231 0.757534526 0.105102295
      vertex 5.69781923 0.871810373 0.198698098
      vertex 5.69691004 0.871146561 0.199238162
    endloop
  endfacet
  facet normal 0.180215159 -0.757413572 -0.627572448
    outer loop
      vertex 5.72232152 0.759056042 0.102800554
      vertex 5.72485151 0.758198337 0.10456223
      vertex 5.72394231 0.757534526 0.105102295
    endloop
  endfacet
  facet normal -0.180215159 0.757413572 0.627572448
    outer loop
      vertex 5.69528924 0.872668078 0.196936421
      vertex 5.69691004 0.871146561 0.199238162
      vertex 5.69781923 0.871810373 0.198698098
    endloop
  endfacet
  facet normal 0.889593504 -0.14672869 0.432543743
    outer loop
      vertex 5.72485151 0.758198337 0.10456223
      vertex 5.72537553 0.758992727 0.103753966
      vertex 5.69834326 0.872604763 0.197889834
    endloop
  endfacet
  facet normal 0.889593504 -0.14672869 0.432543743
    outer loop
      vertex 5.72485151 0.758198337 0.10456223
      vertex 5.69834326 0.872604763 0.197889834
      vertex 5.69781923 0.871810373 0.198698098
    endloop
  endfacet
  facet normal 0.180215159 -0.757413572 -0.627572448
    outer loop
      vertex 5.72232152 0.759056042 0.102800554
      vertex 5.72537553 0.758992727 0.103753966
      vertex 5.72485151 0.758198337 0.10456223
    endloop
  endfacet
  facet normal -0.180215159 0.757413572 0.627572448
    outer loop
      vertex 5.69528924 0.872668078 0.196936421
      vertex 5.69781923 0.871810373 0.198698098
      vertex 5.69834326 0.872604763 0.197889834
    endloop
  endfacet
  facet normal 0.982488466 0.10791708 0.151889164
    outer loop
      vertex 5.72537553 0.758992727 0.103753966
      vertex 5.72543461 0.759796755 0.102800554
      vertex 5.69840234 0.873408791 0.196936421
    endloop
  endfacet
  facet normal 0.982488466 0.10791708 0.151889164
    outer loop
      vertex 5.72537553 0.758992727 0.103753966
      vertex 5.69840234 0.873408791 0.196936421
      vertex 5.69834326 0.872604763 0.197889834
    endloop
  endfacet
  facet normal 0.180215159 -0.757413572 -0.627572448
    outer loop
      vertex 5.72232152 0.759056042 0.102800554
      vertex 5.72543461 0.759796755 0.102800554
      vertex 5.72537553 0.758992727 0.103753966
    endloop
  endfacet
  facet normal -0.180215159 0.757413572 0.627572448
    outer loop
      vertex 5.69528924 0.872668078 0.196936421
      vertex 5.69834326 0.872604763 0.197889834
      vertex 5.69840234 0.873408791 0.196936421
    endloop
  endfacet
  facet normal 0.98078528 -0.195090322 0
    outer loop
      vertex 5.78511564 0.871738959 0.10756393
      vertex 5.78487206 0.870514372 0.10756393
      vertex 5.78487206 0.870514372 -0.0224360695
    endloop
  endfacet
  facet normal 0.98078528 -0.195090322 0
    outer loop
      vertex 5.78511564 0.871738959 0.10756393
      vertex 5.78487206 0.870514372 -0.0224360695
      vertex 5.78511564 0.871738959 -0.0224360695
    endloop
  endfacet
  facet normal -0 0 1
    outer loop
      vertex 5.78191564 0.871738959 0.10756393
      vertex 5.78487206 0.870514372 0.10756393
      vertex 5.78511564 0.871738959 0.10756393
    endloop
  endfacet
  facet normal 0 0 -1
    outer loop
      vertex 5.78191564 0.871738959 -0.0224360695
      vertex 5.78511564 0.871738959 -0.0224360695
      vertex 5.78487206 0.870514372 -0.0224360695
    endloop
  endfacet
  facet normal 0.831469612 -0.555570233 0
    outer loop
      vertex 5.78487206 0.870514372 0.10756393
      vertex 5.78417838 0.869476217 0.10756393
      vertex 5.78417838 0.869476217 -0.0224360695
    endloop
  endfacet
  facet normal 0.831469612 -0.555570233 0
    outer loop
      vertex 5.78487206 0.870514372 0.10756393
      vertex 5.78417838 0.869476217 -0.0224360695
      vertex 5.78487206 0.870514372 -0.0224360695
    endloop
  endfacet
  facet normal 0 0 1
    outer loop
      vertex 5.78191564 0.871738959 0.10756393
      vertex 5.78417838 0.869476217 0.10756393
      vertex 5.78487206 0.870514372 0.10756393
    endloop
  endfacet
  facet normal 0 0 -1
    outer loop
      vertex 5.78191564 0.871738959 -0.0224360695
      vertex 5.78487206 0.870514372 -0.0224360695
      vertex 5.78417838 0.869476217 -0.0224360695
    endloop
  endfacet
  facet normal 0.555570233 -0.831469612 0
    outer loop
      vertex 5.78417838 0.869476217 0.10756393
      vertex 5.78314023 0.868782544 0.10756393
      vertex 5.78314023 0.868782544 -0.0224360695
    endloop
  endfacet
  facet normal 0.555570233 -0.831469612 0
    outer loop
      vertex 5.78417838 0.869476217 0.10756393
      vertex 5.78314023 0.868782544 -0.0224360695
      vertex 5.78417838 0.869476217 -0.0224360695
    endloop
  endfacet
  facet normal 0 0 1
    outer loop
      vertex 5.78191564 0.871738959 0.10756393
      vertex 5.78314023 0.868782544 0.10756393
      vertex 5.78417838 0.869476217 0.10756393
    endloop
  endfacet
  facet normal 0 0 -1
    outer loop
      vertex 5.78191564 0.871738959 -0.0224360695
      vertex 5.78417838 0.869476217 -0.0224360695
      vertex 5.78314023 0.868782544 -0.0224360695
    endloop
  endfacet
  facet normal 0.195090322 -0.98078528 0
    outer loop
      vertex 5.78314023 0.868782544 0.10756393
      vertex 5.78191564 0.868538959 0.10756393
      vertex 5.78191564 0.868538959 -0.0224360695
    endloop
  endfacet
  facet normal 0.195090322 -0.98078528 0
    outer loop
      vertex 5.78314023 0.868782544 0.10756393
      vertex 5.78191564 0.868538959 -0.0224360695
      vertex 5.78314023 0.868782544 -0.0224360695
    endloop
  endfacet
  facet normal 0 0 1
    outer loop
      vertex 5.78191564 0.871738959 0.10756393
      vertex 5.78191564 0.868538959 0.10756393
      vertex 5.78314023 0.868782544 0.10756393
    endloop
  endfacet
  facet normal 0 0 -1
    outer loop
      vertex 5.78191564 0.871738959 -0.0224360695
      vertex 5.78314023 0.868782544 -0.0224360695
      vertex 5.78191564 0.868538959 -0.0224360695
    endloop
  endfacet
  facet normal -0.195090322 -0.98078528 0
    outer loop
      vertex 5.78191564 0.868538959 0.10756393
      vertex 5.78069106 0.868782544 0.10756393
      vertex 5.78069106 0.868782544 -0.0224360695
    endloop
  endfacet
  facet normal -0.195090322 -0.98078528 -0
    outer loop
      vertex 5.78191564 0.868538959 0.10756393
      vertex 5.78069106 0.868782544 -0.0224360695
      vertex 5.78191564 0.868538959 -0.0224360695
    endloop
  endfacet
  facet normal 0 0 1
    outer loop
      vertex 5.78191564 0.871738959 0.10756393
      vertex 5.78069106 0.868782544 0.10756393
      vertex 5.78191564 0.868538959 0.10756393
    endloop
  endfacet
  facet normal 0 -0 -1
    outer loop
      vertex 5.78191564 0.871738959 -0.0224360695
      vertex 5.78191564 0.868538959 -0.0224360695
      vertex 5.78069106 0.868782544 -0.0224360695
    endloop
  endfacet
  facet normal -0.555570233 -0.831469612 0
    outer loop
      vertex 5.78069106 0.868782544 0.10756393
      vertex 5.7796529 0.869476217 0.10756393
      vertex 5.7796529 0.869476217 -0.0224360695
    endloop
  endfacet
  facet normal -0.555570233 -0.831469612 -0
    outer loop
      vertex 5.78069106 0.868782544 0.10756393
      vertex 5.7796529 0.869476217 -0.0224360695
      vertex 5.78069106 0.868782544 -0.0224360695
    endloop
  endfacet
  facet normal 0 0 1
    outer loop
      vertex 5.78191564 0.871738959 0.10756393
      vertex 5.7796529 0.869476217 0.10756393
      vertex 5.78069106 0.868782544 0.10756393
    endloop
  endfacet
  facet normal 0 0 -1
    outer loop
      vertex 5.78191564 0.871738959 -0.0224360695
      vertex 5.78069106 0.868782544 -0.0224360695
      vertex 5.7796529 0.869476217 -0.0224360695
    endloop
  endfacet
  facet normal -0.831469612 -0.555570233 0
    outer loop
      vertex 5.7796529 0.869476217 0.10756393
      vertex 5.77895923 0.870514372 0.10756393
      vertex 5.77895923 0.870514372 -0.0224360695
    endloop
  endfacet
  facet normal -0.831469612 -0.555570233 -0
    outer loop
      vertex 5.7796529 0.869476217 0.10756393
      vertex 5.77895923 0.870514372 -0.0224360695
      vertex 5.7796529 0.869476217 -0.0224360695
    endloop
  endfacet
  facet normal 0 0 1
    outer loop
      vertex 5.78191564 0.871738959 0.10756393
      vertex 5.77895923 0.870514372 0.10756393
      vertex 5.7796529 0.869476217 0.10756393
    endloop
  endfacet
  facet normal 0 0 -1
    outer loop
      vertex 5.78191564 0.871738959 -0.0224360695
      vertex 5.7796529 0.869476217 -0.0224360695
      vertex 5.77895923 0.870514372 -0.0224360695
    endloop
  endfacet
  facet normal -0.98078528 -0.195090322 0
    outer loop
      vertex 5.77895923 0.870514372 0.10756393
      vertex 5.77871564 0.871738959 0.10756393
      vertex 5.77871564 0.871738959 -0.0224360695
    endloop
  endfacet
  facet normal -0.98078528 -0.195090322 -0
    outer loop
      vertex 5.77895923 0.870514372 0.10756393
      vertex 5.77871564 0.871738959 -0.0224360695
      vertex 5.77895923 0.870514372 -0.0224360695
    endloop
  endfacet
  facet normal 0 0 1
    outer loop
      vertex 5.78191564 0.871738959 0.10756393
      vertex 5.77871564 0.871738959 0.10756393
      vertex 5.77895923 0.870514372 0.10756393
    endloop
  endfacet
  facet normal -0 0 -1
    outer loop
      vertex 5.78191564 0.871738959 -0.0224360695
      vertex 5.77895923 0.870514372 -0.0224360695
      vertex 5.77871564 0.871738959 -0.0224360695
    endloop
  endfacet
  facet normal -0.98078528 0.195090322 0
    outer loop
      vertex 5.77871564 0.871738959 0.10756393
      vertex 5.77895923 0.872963546 0.10756393
      vertex 5.77895923 0.872963546 -0.0224360695
    endloop
  endfacet
  facet normal -0.98078528 0.195090322 0
    outer loop
      vertex 5.77871564 0.871738959 0.10756393
      vertex 5.77895923 0.872963546 -0.0224360695
      vertex 5.77871564 0.871738959 -0.0224360695
    endloop
  endfacet
  facet normal 0 0 1
    outer loop
      vertex 5.78191564 0.871738959 0.10756393
      vertex 5.77895923 0.872963546 0.10756393
      vertex 5.77871564 0.871738959 0.10756393
    endloop
  endfacet
  facet normal 0 0 -1
    outer loop
      vertex 5.78191564 0.871738959 -0.0224360695
      vertex 5.77871564 0.871738959 -0.0224360695
      vertex 5.77895923 0.872963546 -0.0224360695
    endloop
  endfacet
  facet normal -0.831469612 0.555570233 0
    outer loop
      vertex 5.77895923 0.872963546 0.10756393
      vertex 5.7796529 0.8740017 0.10756393
      vertex 5.7796529 0.8740017 -0.0224360695
    endloop
  endfacet
  facet normal -0.831469612 0.555570233 0
    outer loop
      vertex 5.77895923 0.872963546 0.10756393
      vertex 5.7796529 0.8740017 -0.0224360695
      vertex 5.77895923 0.872963546 -0.0224360695
    endloop
  endfacet
  facet normal 0 0 1
    outer loop
      vertex 5.78191564 0.871738959 0.10756393
      vertex 5.7796529 0.8740017 0.10756393
      vertex 5.77895923 0.872963546 0.10756393
    endloop
  endfacet
  facet normal 0 0 -1
    outer loop
      vertex 5.78191564 0.871738959 -0.0224360695
      vertex 5.77895923 0.872963546 -0.0224360695
      vertex 5.7796529 0.8740017 -0.0224360695
    endloop
  endfacet
  facet normal -0.555570233 0.831469612 0
    outer loop
      vertex 5.7796529 0.8740017 0.10756393
      vertex 5.78069106 0.874695373 0.10756393
      vertex 5.78069106 0.874695373 -0.0224360695
    endloop
  endfacet
  facet normal -0.555570233 0.831469612 0
    outer loop
      vertex 5.7796529 0.8740017 0.10756393
      vertex 5.78069106 0.874695373 -0.0224360695
      vertex 5.7796529 0.8740017 -0.0224360695
    endloop
  endfacet
  facet normal 0 0 1
    outer loop
      vertex 5.78191564 0.871738959 0.10756393
      vertex 5.78069106 0.874695373 0.10756393
      vertex 5.7796529 0.8740017 0.10756393
    endloop
  endfacet
  facet normal 0 0 -1
    outer loop
      vertex 5.78191564 0.871738959 -0.0224360695
      vertex 5.7796529 0.8740017 -0.0224360695
      vertex 5.78069106 0.874695373 -0.0224360695
    endloop
  endfacet
  facet normal -0.195090322 0.98078528 0
    outer loop
      vertex 5.78069106 0.874695373 0.10756393
      vertex 5.78191564 0.874938959 0.10756393
      vertex 5.78191564 0.874938959 -0.0224360695
    endloop
  endfacet
  facet normal -0.195090322 0.98078528 0
    outer loop
      vertex 5.78069106 0.874695373 0.10756393
      vertex 5.78191564 0.874938959 -0.0224360695
      vertex 5.78069106 0.874695373 -0.0224360695
    endloop
  endfacet
  facet normal 0 -0 1
    outer loop
      vertex 5.78191564 0.871738959 0.10756393
      vertex 5.78191564 0.874938959 0.10756393
      vertex 5.78069106 0.874695373 0.10756393
    endloop
  endfacet
  facet normal 0 0 -1
    outer loop
      vertex 5.78191564 0.871738959 -0.0224360695
      vertex 5.78069106 0.874695373 -0.0224360695
      vertex 5.78191564 0.874938959 -0.0224360695
    endloop
  endfacet
  facet normal 0.195090322 0.98078528 0
    outer loop
      vertex 5.78191564 0.874938959 0.10756393
      vertex 5.78314023 0.874695373 0.10756393
      vertex 5.78314023 0.874695373 -0.0224360695
    endloop
  endfacet
  facet normal 0.195090322 0.98078528 0
    outer loop
      vertex 5.78191564 0.874938959 0.10756393
      vertex 5.78314023 0.874695373 -0.0224360695
      vertex 5.78191564 0.874938959 -0.0224360695
    endloop
  endfacet
  facet normal 0 0 1
    outer loop
      vertex 5.78191564 0.871738959 0.10756393
      vertex 5.78314023 0.874695373 0.10756393
      vertex 5.78191564 0.874938959 0.10756393
    endloop
  endfacet
  facet normal 0 0 -1
    outer loop
      vertex 5.78191564 0.871738959 -0.0224360695
      vertex 5.78191564 0.874938959 -0.0224360695
      vertex 5.78314023 0.874695373 -0.0224360695
    endloop
  endfacet
  facet normal 0.555570233 0.831469612 0
    outer loop
      vertex 5.78314023 0.874695373 0.10756393
      vertex 5.78417838 0.8740017 0.10756393
      vertex 5.78417838 0.8740017 -0.0224360695
    endloop
  endfacet
  facet normal 0.555570233 0.831469612 0
    outer loop
      vertex 5.78314023 0.874695373 0.10756393
      vertex 5.78417838 0.8740017 -0.0224360695
      vertex 5.78314023 0.874695373 -0.0224360695
    endloop
  endfacet
  facet normal 0 0 1
    outer loop
      vertex 5.78191564 0.871738959 0.10756393
      vertex 5.78417838 0.8740017 0.10756393
      vertex 5.78314023 0.874695373 0.10756393
    endloop
  endfacet
  facet normal 0 0 -1
    outer loop
      vertex 5.78191564 0.871738959 -0.0224360695
      vertex 5.78314023 0.874695373 -0.0224360695
      vertex 5.78417838 0.8740017 -0.0224360695
    endloop
  endfacet
  facet normal 0.831469612 0.555570233 0
    outer loop
      vertex 5.78417838 0.8740017 0.10756393
      vertex 5.78487206 0.872963546 0.10756393
      vertex 5.78487206 0.872963546 -0.0224360695
    endloop
  endfacet
  facet normal 0.831469612 0.555570233 0
    outer loop
      vertex 5.78417838 0.8740017 0.10756393
      vertex 5.78487206 0.872963546 -0.0224360695
      vertex 5.78417838 0.8740017 -0.0224360695
    endloop
  endfacet
  facet normal 0 0 1
    outer loop
      vertex 5.78191564 0.871738959 0.10756393
      vertex 5.78487206 0.872963546 0.10756393
      vertex 5.78417838 0.8740017 0.10756393
    endloop
  endfacet
  facet normal 0 0 -1
    outer loop
      vertex 5.78191564 0.871738959 -0.0224360695
      vertex 5.78417838 0.8740017 -0.0224360695
      vertex 5.78487206 0.872963546 -0.0224360695
    endloop
  endfacet
  facet normal 0.98078528 0.195090322 0
    outer loop
      vertex 5.78487206 0.872963546 0.10756393
      vertex 5.78511564 0.871738959 0.10756393
      vertex 5.78511564 0.871738959 -0.0224360695
    endloop
  endfacet
  facet normal 0.98078528 0.195090322 0
    outer loop
      vertex 5.78487206 0.872963546 0.10756393
      vertex 5.78511564 0.871738959 -0.0224360695
      vertex 5.78487206 0.872963546 -0.0224360695
    endloop
  endfacet
  facet normal 0 0 1
    outer loop
      vertex 5.78191564 0.871738959 0.10756393
      vertex 5.78511564 0.871738959 0.10756393
      vertex 5.78487206 0.872963546 0.10756393
    endloop
  endfacet
  facet normal 0 0 -1
    outer loop
      vertex 5.78191564 0.871738959 -0.0224360695
      vertex 5.78487206 0.872963546 -0.0224360695
      vertex 5.78511564 0.871738959 -0.0224360695
    endloop
  endfacet
  facet normal 0.98078528 -0.195090322 0
    outer loop
      vertex 5.80651493 0.850713485 0.115701704
      vertex 5.80627134 0.849488898 0.115701704
      vertex 5.80627134 0.849488898 -0.0142982957
    endloop
  endfacet
  facet normal 0.98078528 -0.195090322 0
    outer loop
      vertex 5.80651493 0.850713485 0.115701704
      vertex 5.80627134 0.849488898 -0.0142982957
      vertex 5.80651493 0.850713485 -0.0142982957
    endloop
  endfacet
  facet normal -0 0 1
    outer loop
      vertex 5.80331493 0.850713485 0.115701704
      vertex 5.80627134 0.849488898 0.115701704
      vertex 5.80651493 0.850713485 0.115701704
    endloop
  endfacet
  facet normal 0 0 -1
    outer loop
      vertex 5.80331493 0.850713485 -0.0142982957
      vertex 5.80651493 0.850713485 -0.0142982957
      vertex 5.80627134 0.849488898 -0.0142982957
    endloop
  endfacet
  facet normal 0.831469612 -0.555570233 0
    outer loop
      vertex 5.80627134 0.849488898 0.115701704
      vertex 5.80557767 0.848450743 0.115701704
      vertex 5.80557767 0.848450743 -0.0142982957
    endloop
  endfacet
  facet normal 0.831469612 -0.555570233 0
    outer loop
      vertex 5.80627134 0.849488898 0.115701704
      vertex 5.80557767 0.848450743 -0.0142982957
      vertex 5.80627134 0.849488898 -0.0142982957
    endloop
  endfacet
  facet normal 0 0 1
    outer loop
      vertex 5.80331493 0.850713485 0.115701704
      vertex 5.80557767 0.848450743 0.115701704
      vertex 5.80627134 0.849488898 0.115701704
    endloop
  endfacet
  facet normal 0 0 -1
    outer loop
      vertex 5.80331493 0.850713485 -0.0142982957
      vertex 5.80627134 0.849488898 -0.0142982957
      vertex 5.80557767 0.848450743 -0.0142982957
    endloop
  endfacet
  facet normal 0.555570233 -0.831469612 0
    outer loop
      vertex 5.80557767 0.848450743 0.115701704
      vertex 5.80453952 0.84775707 0.115701704
      vertex 5.80453952 0.84775707 -0.0142982957
    endloop
  endfacet
  facet normal 0.555570233 -0.831469612 0
    outer loop
      vertex 5.80557767 0.848450743 0.115701704
      vertex 5.80453952 0.84775707 -0.0142982957
      vertex 5.80557767 0.848450743 -0.0142982957
    endloop
  endfacet
  facet normal 0 0 1
    outer loop
      vertex 5.80331493 0.850713485 0.115701704
      vertex 5.80453952 0.84775707 0.115701704
      vertex 5.80557767 0.848450743 0.115701704
    endloop
  endfacet
  facet normal 0 0 -1
    outer loop
      vertex 5.80331493 0.850713485 -0.0142982957
      vertex 5.80557767 0.848450743 -0.0142982957
      vertex 5.80453952 0.84775707 -0.0142982957
    endloop
  endfacet
  facet normal 0.195090322 -0.98078528 0
    outer loop
      vertex 5.80453952 0.84775707 0.115701704
      vertex 5.80331493 0.847513485 0.115701704
      vertex 5.80331493 0.847513485 -0.0142982957
    endloop
  endfacet
  facet normal 0.195090322 -0.98078528 0
    outer loop
      vertex 5.80453952 0.84775707 0.115701704
      vertex 5.80331493 0.847513485 -0.0142982957
      vertex 5.80453952 0.84775707 -0.0142982957
    endloop
  endfacet
  facet normal 0 0 1
    outer loop
      vertex 5.80331493 0.850713485 0.115701704
      vertex 5.80331493 0.847513485 0.115701704
      vertex 5.80453952 0.84775707 0.115701704
    endloop
  endfacet
  facet normal 0 0 -1
    outer loop
      vertex 5.80331493 0.850713485 -0.0142982957
      vertex 5.80453952 0.84775707 -0.0142982957
      vertex 5.80331493 0.847513485 -0.0142982957
    endloop
  endfacet
  facet normal -0.195090322 -0.98078528 0
    outer loop
      vertex 5.80331493 0.847513485 0.115701704
      vertex 5.80209034 0.84775707 0.115701704
      vertex 5.80209034 0.84775707 -0.0142982957
    endloop
  endfacet
  facet normal -0.195090322 -0.98078528 -0
    outer loop
      vertex 5.80331493 0.847513485 0.115701704
      vertex 5.80209034 0.84775707 -0.0142982957
      vertex 5.80331493 0.847513485 -0.0142982957
    endloop
  endfacet
  facet normal 0 0 1
    outer loop
      vertex 5.80331493 0.850713485 0.115701704
      vertex 5.80209034 0.84775707 0.115701704
      vertex 5.80331493 0.847513485 0.115701704
    endloop
  endfacet
  facet normal 0 -0 -1
    outer loop
      vertex 5.80331493 0.850713485 -0.0142982957
      vertex 5.80331493 0.847513485 -0.0142982957
      vertex 5.80209034 0.84775707 -0.0142982957
    endloop
  endfacet
  facet normal -0.555570233 -0.831469612 0
    outer loop
      vertex 5.80209034 0.84775707 0.115701704
      vertex 5.80105219 0.848450743 0.115701704
      vertex 5.80105219 0.848450743 -0.0142982957
    endloop
  endfacet
  facet normal -0.555570233 -0.831469612 -0
    outer loop
      vertex 5.80209034 0.84775707 0.115701704
      vertex 5.80105219 0.848450743 -0.0142982957
      vertex 5.80209034 0.84775707 -0.0142982957
    endloop
  endfacet
  facet normal 0 0 1
    outer loop
      vertex 5.80331493 0.850713485 0.115701704
      vertex 5.80105219 0.848450743 0.115701704
      vertex 5.80209034 0.84775707 0.115701704
    endloop
  endfacet
  facet normal 0 0 -1
    outer loop
      vertex 5.80331493 0.850713485 -0.0142982957
      vertex 5.80209034 0.84775707 -0.0142982957
      vertex 5.80105219 0.848450743 -0.0142982957
    endloop
  endfacet
  facet normal -0.831469612 -0.555570233 0
    outer loop
      vertex 5.80105219 0.848450743 0.115701704
      vertex 5.80035851 0.849488898 0.115701704
      vertex 5.80035851 0.849488898 -0.0142982957
    endloop
  endfacet
  facet normal -0.831469612 -0.555570233 -0
    outer loop
      vertex 5.80105219 0.848450743 0.115701704
      vertex 5.80035851 0.849488898 -0.0142982957
      vertex 5.80105219 0.848450743 -0.0142982957
    endloop
  endfacet
  facet normal 0 0 1
    outer loop
      vertex 5.80331493 0.850713485 0.115701704
      vertex 5.80035851 0.849488898 0.115701704
      vertex 5.80105219 0.848450743 0.115701704
    endloop
  endfacet
  facet normal 0 0 -1
    outer loop
      vertex 5.80331493 0.850713485 -0.0142982957
      vertex 5.80105219 0.848450743 -0.0142982957
      vertex 5.80035851 0.849488898 -0.0142982957
    endloop
  endfacet
  facet normal -0.98078528 -0.195090322 0
    outer loop
      vertex 5.80035851 0.849488898 0.115701704
      vertex 5.80011493 0.850713485 0.115701704
      vertex 5.80011493 0.850713485 -0.0142982957
    endloop
  endfacet
  facet normal -0.98078528 -0.195090322 -0
    outer loop
      vertex 5.80035851 0.849488898 0.115701704
      vertex 5.80011493 0.850713485 -0.0142982957
      vertex 5.80035851 0.849488898 -0.0142982957
    endloop
  endfacet
  facet normal 0 0 1
    outer loop
      vertex 5.80331493 0.850713485 0.115701704
      vertex 5.80011493 0.850713485 0.115701704
      vertex 5.80035851 0.849488898 0.115701704
    endloop
  endfacet
  facet normal -0 0 -1
    outer loop
      vertex 5.80331493 0.850713485 -0.0142982957
      vertex 5.80035851 0.849488898 -0.0142982957
      vertex 5.80011493 0.850713485 -0.0142982957
    endloop
  endfacet
  facet normal -0.98078528 0.195090322 0
    outer loop
      vertex 5.80011493 0.850713485 0.115701704
      vertex 5.80035851 0.851938072 0.115701704
      vertex 5.80035851 0.851938072 -0.0142982957
    endloop
  endfacet
  facet normal -0.98078528 0.195090322 0
    outer loop
      vertex 5.80011493 0.850713485 0.115701704
      vertex 5.80035851 0.851938072 -0.0142982957
      vertex 5.80011493 0.850713485 -0.0142982957
    endloop
  endfacet
  facet normal 0 0 1
    outer loop
      vertex 5.80331493 0.850713485 0.115701704
      vertex 5.80035851 0.851938072 0.115701704
      vertex 5.80011493 0.850713485 0.115701704
    endloop
  endfacet
  facet normal 0 0 -1
    outer loop
      vertex 5.80331493 0.850713485 -0.0142982957
      vertex 5.80011493 0.850713485 -0.0142982957
      vertex 5.80035851 0.851938072 -0.0142982957
    endloop
  endfacet
  facet normal -0.831469612 0.555570233 0
    outer loop
      vertex 5.80035851 0.851938072 0.115701704
      vertex 5.80105219 0.852976227 0.115701704
      vertex 5.80105219 0.852976227 -0.0142982957
    endloop
  endfacet
  facet normal -0.831469612 0.555570233 0
    outer loop
      vertex 5.80035851 0.851938072 0.115701704
      vertex 5.80105219 0.852976227 -0.0142982957
      vertex 5.80035851 0.851938072 -0.0142982957
    endloop
  endfacet
  facet normal 0 0 1
    outer loop
      vertex 5.80331493 0.850713485 0.115701704
      vertex 5.80105219 0.852976227 0.115701704
      vertex 5.80035851 0.851938072 0.115701704
    endloop
  endfacet
  facet normal 0 0 -1
    outer loop
      vertex 5.80331493 0.850713485 -0.0142982957
      vertex 5.80035851 0.851938072 -0.0142982957
      vertex 5.80105219 0.852976227 -0.0142982957
    endloop
  endfacet
  facet normal -0.555570233 0.831469612 0
    outer loop
      vertex 5.80105219 0.852976227 0.115701704
      vertex 5.80209034 0.853669899 0.115701704
      vertex 5.80209034 0.853669899 -0.0142982957
    endloop
  endfacet
  facet normal -0.555570233 0.831469612 0
    outer loop
      vertex 5.80105219 0.852976227 0.115701704
      vertex 5.80209034 0.853669899 -0.0142982957
      vertex 5.80105219 0.852976227 -0.0142982957
    endloop
  endfacet
  facet normal 0 0 1
    outer loop
      vertex 5.80331493 0.850713485 0.115701704
      vertex 5.80209034 0.853669899 0.115701704
      vertex 5.80105219 0.852976227 0.115701704
    endloop
  endfacet
  facet normal 0 0 -1
    outer loop
      vertex 5.80331493 0.850713485 -0.0142982957
      vertex 5.80105219 0.852976227 -0.0142982957
      vertex 5.80209034 0.853669899 -0.0142982957
    endloop
  endfacet
  facet normal -0.195090322 0.98078528 0
    outer loop
      vertex 5.80209034 0.853669899 0.115701704
      vertex 5.80331493 0.853913485 0.115701704
      vertex 5.80331493 0.853913485 -0.0142982957
    endloop
  endfacet
  facet normal -0.195090322 0.98078528 0
    outer loop
      vertex 5.80209034 0.853669899 0.115701704
      vertex 5.80331493 0.853913485 -0.0142982957
      vertex 5.80209034 0.853669899 -0.0142982957
    endloop
  endfacet
  facet normal 0 -0 1
    outer loop
      vertex 5.80331493 0.850713485 0.115701704
      vertex 5.80331493 0.853913485 0.115701704
      vertex 5.80209034 0.853669899 0.115701704
    endloop
  endfacet
  facet normal 0 0 -1
    outer loop
      vertex 5.80331493 0.850713485 -0.0142982957
      vertex 5.80209034 0.853669899 -0.0142982957
      vertex 5.80331493 0.853913485 -0.0142982957
    endloop
  endfacet
  facet normal 0.195090322 0.98078528 0
    outer loop
      vertex 5.80331493 0.853913485 0.115701704
      vertex 5.80453952 0.853669899 0.115701704
      vertex 5.80453952 0.853669899 -0.0142982957
    endloop
  endfacet
  facet normal 0.195090322 0.98078528 0
    outer loop
      vertex 5.80331493 0.853913485 0.115701704
      vertex 5.80453952 0.853669899 -0.0142982957
      vertex 5.80331493 0.853913485 -0.0142982957
    endloop
  endfacet
  facet normal 0 0 1
    outer loop
      vertex 5.80331493 0.850713485 0.115701704
      vertex 5.80453952 0.853669899 0.115701704
      vertex 5.80331493 0.853913485 0.115701704
    endloop
  endfacet
  facet normal 0 0 -1
    outer loop
      vertex 5.80331493 0.850713485 -0.0142982957
      vertex 5.80331493 0.853913485 -0.0142982957
      vertex 5.80453952 0.853669899 -0.0142982957
    endloop
  endfacet
  facet normal 0.555570233 0.831469612 0
    outer loop
      vertex 5.80453952 0.853669899 0.115701704
      vertex 5.80557767 0.852976227 0.115701704
      vertex 5.80557767 0.852976227 -0.0142982957
    endloop
  endfacet
  facet normal 0.555570233 0.831469612 0
    outer loop
      vertex 5.80453952 0.853669899 0.115701704
      vertex 5.80557767 0.852976227 -0.0142982957
      vertex 5.80453952 0.853669899 -0.0142982957
    endloop
  endfacet
  facet normal 0 0 1
    outer loop
      vertex 5.80331493 0.850713485 0.115701704
      vertex 5.80557767 0.852976227 0.115701704
      vertex 5.80453952 0.853669899 0.115701704
    endloop
  endfacet
  facet normal 0 0 -1
    outer loop
      vertex 5.80331493 0.850713485 -0.0142982957
      vertex 5.80453952 0.853669899 -0.0142982957
      vertex 5.80557767 0.852976227 -0.0142982957
    endloop
  endfacet
  facet normal 0.831469612 0.555570233 0
    outer loop
      vertex 5.80557767 0.852976227 0.115701704
      vertex 5.80627134 0.851938072 0.115701704
      vertex 5.80627134 0.851938072 -0.0142982957
    endloop
  endfacet
  facet normal 0.831469612 0.555570233 0
    outer loop
      vertex 5.80557767 0.852976227 0.115701704
      vertex 5.80627134 0.851938072 -0.0142982957
      vertex 5.80557767 0.852976227 -0.0142982957
    endloop
  endfacet
  facet normal 0 0 1
    outer loop
      vertex 5.80331493 0.850713485 0.115701704
      vertex 5.80627134 0.851938072 0.115701704
      vertex 5.80557767 0.852976227 0.115701704
    endloop
  endfacet
  facet normal 0 0 -1
    outer loop
      vertex 5.80331493 0.850713485 -0.0142982957
      vertex 5.80557767 0.852976227 -0.0142982957
      vertex 5.80627134 0.851938072 -0.0142982957
    endloop
  endfacet
  facet normal 0.98078528 0.195090322 0
    outer loop
      vertex 5.80627134 0.851938072 0.115701704
      vertex 5.80651493 0.850713485 0.115701704
      vertex 5.80651493 0.850713485 -0.0142982957
    endloop
  endfacet
  facet normal 0.98078528 0.195090322 0
    outer loop
      vertex 5.80627134 0.851938072 0.115701704
      vertex 5.80651493 0.850713485 -0.0142982957
      vertex 5.80627134 0.851938072 -0.0142982957
    endloop
  endfacet
  facet normal 0 0 1
    outer loop
      vertex 5.80331493 0.850713485 0.115701704
      vertex 5.80651493 0.850713485 0.115701704
      vertex 5.80627134 0.851938072 0.115701704
    endloop
  endfacet
  facet normal 0 0 -1
    outer loop
      vertex 5.80331493 0.850713485 -0.0142982957
      vertex 5.80627134 0.851938072 -0.0142982957
      vertex 5.80651493 0.850713485 -0.0142982957
    endloop
  endfacet
endsolid a21_features
