solid c25_blank
  facet normal 0.221599369 0.101919285 0.969796978
    outer loop
      vertex 3.35647117 1.00220326 1.93058484
      vertex 3.30487734 1.03156875 1.93928795
      vertex 2.78701875 0.0562670713 2.16011683
    endloop
  endfacet
  facet normal 0.221599369 0.101919285 0.969796978
    outer loop
      vertex 3.35647117 1.00220326 1.93058484
      vertex 2.78701875 0.0562670713 2.16011683
      vertex 2.83861259 0.0269015832 2.15141372
    endloop
  endfacet
  facet normal 0.859897271 -0.489424803 -0.145051872
    outer loop
      vertex 3.35647117 1.00220326 1.93058484
      vertex 2.83861259 0.0269015832 2.15141372
      vertex 2.82088464 0.0187480404 2.07382996
    endloop
  endfacet
  facet normal 0.859897271 -0.489424803 -0.145051872
    outer loop
      vertex 3.35647117 1.00220326 1.93058484
      vertex 2.82088464 0.0187480404 2.07382996
      vertex 3.33874323 0.994049717 1.85300108
    endloop
  endfacet
  facet normal -0.459859112 -0.866069179 0.196096342
    outer loop
      vertex 2.83861259 0.0269015832 2.15141372
      vertex 2.78701875 0.0562670713 2.16011683
      vertex 2.7692908 0.0481135285 2.08253307
    endloop
  endfacet
  facet normal -0.459859112 -0.866069179 0.196096342
    outer loop
      vertex 2.83861259 0.0269015832 2.15141372
      vertex 2.7692908 0.0481135285 2.08253307
      vertex 2.82088464 0.0187480404 2.07382996
    endloop
  endfacet
  facet normal -0.859897271 0.489424803 0.145051872
    outer loop
      vertex 2.78701875 0.0562670713 2.16011683
      vertex 3.30487734 1.03156875 1.93928795
      vertex 3.28714939 1.02341521 1.86170419
    endloop
  endfacet
  facet normal -0.859897271 0.489424803 0.145051872
    outer loop
      vertex 2.78701875 0.0562670713 2.16011683
      vertex 3.28714939 1.02341521 1.86170419
      vertex 2.7692908 0.0481135285 2.08253307
    endloop
  endfacet
  facet normal 0.459859112 0.866069179 -0.196096342
    outer loop
      vertex 3.30487734 1.03156875 1.93928795
      vertex 3.35647117 1.00220326 1.93058484
      vertex 3.33874323 0.994049717 1.85300108
    endloop
  endfacet
  facet normal 0.459859112 0.866069179 -0.196096342
    outer loop
      vertex 3.30487734 1.03156875 1.93928795
      vertex 3.33874323 0.994049717 1.85300108
      vertex 3.28714939 1.02341521 1.86170419
    endloop
  endfacet
  facet normal -0.221599369 -0.101919285 -0.969796978
    outer loop
      vertex 3.33874323 0.994049717 1.85300108
      vertex 2.82088464 0.0187480404 2.07382996
      vertex 2.7692908 0.0481135285 2.08253307
    endloop
  endfacet
  facet normal -0.221599369 -0.101919285 -0.969796978
    outer loop
      vertex 3.33874323 0.994049717 1.85300108
      vertex 2.7692908 0.0481135285 2.08253307
      vertex 3.28714939 1.02341521 1.86170419
    endloop
  endfacet
endsolid c25_blank
