solid f10_blank
  facet normal 0.632896567 -0.00305583054 0.774230326
    outer loop
      vertex 4.49042313 1.42285994 1.34672876
      vertex 4.45327631 1.38671193 1.37695184
      vertex 4.96351108 0.510759988 0.956401807
    endloop
  endfacet
  facet normal 0.632896567 -0.00305583054 0.774230326
    outer loop
      vertex 4.49042313 1.42285994 1.34672876
      vertex 4.96351108 0.510759988 0.956401807
      vertex 5.0006579 0.546907998 0.926178717
    endloop
  endfacet
  facet normal 0.619113658 0.602466843 -0.503718156
    outer loop
      vertex 4.49042313 1.42285994 1.34672876
      vertex 5.0006579 0.546907998 0.926178717
      vertex 4.95002617 0.547152465 0.864240291
    endloop
  endfacet
  facet normal 0.619113658 0.602466843 -0.503718156
    outer loop
      vertex 4.49042313 1.42285994 1.34672876
      vertex 4.95002617 0.547152465 0.864240291
      vertex 4.4397914 1.42310441 1.28479033
    endloop
  endfacet
  facet normal 0.464908823 -0.798138061 -0.383191103
    outer loop
      vertex 5.0006579 0.546907998 0.926178717
      vertex 4.96351108 0.510759988 0.956401807
      vertex 4.91287935 0.511004454 0.89446338
    endloop
  endfacet
  facet normal 0.464908823 -0.798138061 -0.383191103
    outer loop
      vertex 5.0006579 0.546907998 0.926178717
      vertex 4.91287935 0.511004454 0.89446338
      vertex 4.95002617 0.547152465 0.864240291
    endloop
  endfacet
  facet normal -0.619113658 -0.602466843 0.503718156
    outer loop
      vertex 4.96351108 0.510759988 0.956401807
      vertex 4.45327631 1.38671193 1.37695184
      vertex 4.40264458 1.3869564 1.31501342
    endloop
  endfacet
  facet normal -0.619113658 -0.602466843 0.503718156
    outer loop
      vertex 4.96351108 0.510759988 0.956401807
      vertex 4.40264458 1.3869564 1.31501342
      vertex 4.91287935 0.511004454 0.89446338
    endloop
  endfacet
  facet normal -0.464908823 0.798138061 0.383191103
    outer loop
      vertex 4.45327631 1.38671193 1.37695184
      vertex 4.49042313 1.42285994 1.34672876
      vertex 4.4397914 1.42310441 1.28479033
    endloop
  endfacet
  facet normal -0.464908823 0.798138061 0.383191103
    outer loop
      vertex 4.45327631 1.38671193 1.37695184
      vertex 4.4397914 1.42310441 1.28479033
      vertex 4.40264458 1.3869564 1.31501342
    endloop
  endfacet
  facet normal -0.632896567 0.00305583054 -0.774230326
    outer loop
      vertex 4.4397914 1.42310441 1.28479033
      vertex 4.95002617 0.547152465 0.864240291
      vertex 4.91287935 0.511004454 0.89446338
    endloop
  endfacet
  facet normal -0.632896567 0.00305583054 -0.774230326
    outer loop
      vertex 4.4397914 1.42310441 1.28479033
      vertex 4.91287935 0.511004454 0.89446338
      vertex 4.40264458 1.3869564 1.31501342
    endloop
  endfacet
endsolid f10_blank
