solid e8_blank
  facet normal 0.700855849 0.1391523 0.699598254
    outer loop
      vertex 5.39473836 -0.507016881 0.684626419
      vertex 5.42046683 -0.46492186 0.65047887
      vertex 4.93609121 0.128940907 1.01760402
    endloop
  endfacet
  facet normal 0.700855849 0.1391523 0.699598254
    outer loop
      vertex 5.39473836 -0.507016881 0.684626419
      vertex 4.93609121 0.128940907 1.01760402
      vertex 4.91036275 0.0868458853 1.05175157
    endloop
  endfacet
  facet normal -0.428807787 -0.701583696 0.569125821
    outer loop
      vertex 5.39473836 -0.507016881 0.684626419
      vertex 4.91036275 0.0868458853 1.05175157
      vertex 4.85429428 0.0757137013 0.995783705
    endloop
  endfacet
  facet normal -0.428807787 -0.701583696 0.569125821
    outer loop
      vertex 5.39473836 -0.507016881 0.684626419
      vertex 4.85429428 0.0757137013 0.995783705
      vertex 5.33866989 -0.518149065 0.628658559
    endloop
  endfacet
  facet normal -0.570021895 0.698868339 0.432039447
    outer loop
      vertex 4.91036275 0.0868458853 1.05175157
      vertex 4.93609121 0.128940907 1.01760402
      vertex 4.88002275 0.117808723 0.961636156
    endloop
  endfacet
  facet normal -0.570021895 0.698868339 0.432039447
    outer loop
      vertex 4.91036275 0.0868458853 1.05175157
      vertex 4.88002275 0.117808723 0.961636156
      vertex 4.85429428 0.0757137013 0.995783705
    endloop
  endfacet
  facet normal 0.428807787 0.701583696 -0.569125821
    outer loop
      vertex 4.93609121 0.128940907 1.01760402
      vertex 5.42046683 -0.46492186 0.65047887
      vertex 5.36439836 -0.476054043 0.594511009
    endloop
  endfacet
  facet normal 0.428807787 0.701583696 -0.569125821
    outer loop
      vertex 4.93609121 0.128940907 1.01760402
      vertex 5.36439836 -0.476054043 0.594511009
      vertex 4.88002275 0.117808723 0.961636156
    endloop
  endfacet
  facet normal 0.570021895 -0.698868339 -0.432039447
    outer loop
      vertex 5.42046683 -0.46492186 0.65047887
      vertex 5.39473836 -0.507016881 0.684626419
      vertex 5.33866989 -0.518149065 0.628658559
    endloop
  endfacet
  facet normal 0.570021895 -0.698868339 -0.432039447
    outer loop
      vertex 5.42046683 -0.46492186 0.65047887
      vertex 5.33866989 -0.518149065 0.628658559
      vertex 5.36439836 -0.476054043 0.594511009
    endloop
  endfacet
  facet normal -0.700855849 -0.1391523 -0.699598254
    outer loop
      vertex 5.33866989 -0.518149065 0.628658559
      vertex 4.85429428 0.0757137013 0.995783705
      vertex 4.88002275 0.117808723 0.961636156
    endloop
  endfacet
  facet normal -0.700855849 -0.1391523 -0.699598254
    outer loop
      vertex 5.33866989 -0.518149065 0.628658559
      vertex 4.88002275 0.117808723 0.961636156
      vertex 5.36439836 -0.476054043 0.594511009
    endloop
  endfacet
endsolid e8_blank
