solid b33_features
  facet normal -0.235325303 0.964686009 -0.118333871
    outer loop
      vertex 4.20129423 -0.847556361 1.80793662
      vertex 4.20228642 -0.84740544 1.80719384
      vertex 4.15192308 -0.868468213 1.7356404
    endloop
  endfacet
  facet normal -0.235325303 0.964686009 -0.118333871
    outer loop
      vertex 4.20129423 -0.847556361 1.80793662
      vertex 4.15192308 -0.868468213 1.7356404
      vertex 4.15093089 -0.868619133 1.73638319
    endloop
  endfacet
  facet normal 0.559592618 0.234030807 0.795038164
    outer loop
      vertex 4.20252889 -0.85050858 1.80793662
      vertex 4.20228642 -0.84740544 1.80719384
      vertex 4.20129423 -0.847556361 1.80793662
    endloop
  endfacet
  facet normal -0.559592618 -0.234030807 -0.795038164
    outer loop
      vertex 4.15216556 -0.871571353 1.73638319
      vertex 4.15093089 -0.868619133 1.73638319
      vertex 4.15192308 -0.868468213 1.7356404
    endloop
  endfacet
  facet normal 0.0866894414 0.937510074 -0.336986352
    outer loop
      vertex 4.20228642 -0.84740544 1.80719384
      vertex 4.20331552 -0.847726945 1.80656413
      vertex 4.15295219 -0.868789717 1.7350107
    endloop
  endfacet
  facet normal 0.0866894414 0.937510074 -0.336986352
    outer loop
      vertex 4.20228642 -0.84740544 1.80719384
      vertex 4.15295219 -0.868789717 1.7350107
      vertex 4.15192308 -0.868468213 1.7356404
    endloop
  endfacet
  facet normal 0.559592618 0.234030807 0.795038164
    outer loop
      vertex 4.20252889 -0.85050858 1.80793662
      vertex 4.20331552 -0.847726945 1.80656413
      vertex 4.20228642 -0.84740544 1.80719384
    endloop
  endfacet
  facet normal -0.559592618 -0.234030807 -0.795038164
    outer loop
      vertex 4.15216556 -0.871571353 1.73638319
      vertex 4.15192308 -0.868468213 1.7356404
      vertex 4.15295219 -0.868789717 1.7350107
    endloop
  endfacet
  facet normal 0.395506504 0.767606729 -0.504335717
    outer loop
      vertex 4.20331552 -0.847726945 1.80656413
      vertex 4.20422487 -0.848471928 1.80614338
      vertex 4.15386153 -0.869534701 1.73458994
    endloop
  endfacet
  facet normal 0.395506504 0.767606729 -0.504335717
    outer loop
      vertex 4.20331552 -0.847726945 1.80656413
      vertex 4.15386153 -0.869534701 1.73458994
      vertex 4.15295219 -0.868789717 1.7350107
    endloop
  endfacet
  facet normal 0.559592618 0.234030807 0.795038164
    outer loop
      vertex 4.20252889 -0.85050858 1.80793662
      vertex 4.20422487 -0.848471928 1.80614338
      vertex 4.20331552 -0.847726945 1.80656413
    endloop
  endfacet
  facet normal -0.559592618 -0.234030807 -0.795038164
    outer loop
      vertex 4.15216556 -0.871571353 1.73638319
      vertex 4.15295219 -0.868789717 1.7350107
      vertex 4.15386153 -0.869534701 1.73458994
    endloop
  endfacet
  facet normal 0.644111287 0.480842217 -0.59490454
    outer loop
      vertex 4.20422487 -0.848471928 1.80614338
      vertex 4.20487602 -0.849526973 1.80599563
      vertex 4.15451269 -0.870589746 1.7344422
    endloop
  endfacet
  facet normal 0.644111287 0.480842217 -0.59490454
    outer loop
      vertex 4.20422487 -0.848471928 1.80614338
      vertex 4.15451269 -0.870589746 1.7344422
      vertex 4.15386153 -0.869534701 1.73458994
    endloop
  endfacet
  facet normal 0.559592618 0.234030807 0.795038164
    outer loop
      vertex 4.20252889 -0.85050858 1.80793662
      vertex 4.20487602 -0.849526973 1.80599563
      vertex 4.20422487 -0.848471928 1.80614338
    endloop
  endfacet
  facet normal -0.559592618 -0.234030807 -0.795038164
    outer loop
      vertex 4.15216556 -0.871571353 1.73638319
      vertex 4.15386153 -0.869534701 1.73458994
      vertex 4.15451269 -0.870589746 1.7344422
    endloop
  endfacet
  facet normal 0.794655965 0.120873837 -0.59490454
    outer loop
      vertex 4.20487602 -0.849526973 1.80599563
      vertex 4.20516984 -0.850731459 1.80614338
      vertex 4.15480651 -0.871794231 1.73458994
    endloop
  endfacet
  facet normal 0.794655965 0.120873837 -0.59490454
    outer loop
      vertex 4.20487602 -0.849526973 1.80599563
      vertex 4.15480651 -0.871794231 1.73458994
      vertex 4.15451269 -0.870589746 1.7344422
    endloop
  endfacet
  facet normal 0.559592618 0.234030807 0.795038164
    outer loop
      vertex 4.20252889 -0.85050858 1.80793662
      vertex 4.20516984 -0.850731459 1.80614338
      vertex 4.20487602 -0.849526973 1.80599563
    endloop
  endfacet
  facet normal -0.559592618 -0.234030807 -0.795038164
    outer loop
      vertex 4.15216556 -0.871571353 1.73638319
      vertex 4.15451269 -0.870589746 1.7344422
      vertex 4.15480651 -0.871794231 1.73458994
    endloop
  endfacet
  facet normal 0.824221477 -0.25749649 -0.504335717
    outer loop
      vertex 4.20516984 -0.850731459 1.80614338
      vertex 4.2050616 -0.851902013 1.80656413
      vertex 4.15469827 -0.872964786 1.7350107
    endloop
  endfacet
  facet normal 0.824221477 -0.25749649 -0.504335717
    outer loop
      vertex 4.20516984 -0.850731459 1.80614338
      vertex 4.15469827 -0.872964786 1.7350107
      vertex 4.15480651 -0.871794231 1.73458994
    endloop
  endfacet
  facet normal 0.559592618 0.234030807 0.795038164
    outer loop
      vertex 4.20252889 -0.85050858 1.80793662
      vertex 4.2050616 -0.851902013 1.80656413
      vertex 4.20516984 -0.850731459 1.80614338
    endloop
  endfacet
  facet normal -0.559592618 -0.234030807 -0.795038164
    outer loop
      vertex 4.15216556 -0.871571353 1.73638319
      vertex 4.15480651 -0.871794231 1.73458994
      vertex 4.15469827 -0.872964786 1.7350107
    endloop
  endfacet
  facet normal 0.728306739 -0.596665309 -0.336986352
    outer loop
      vertex 4.2050616 -0.851902013 1.80656413
      vertex 4.20456778 -0.85286043 1.80719384
      vertex 4.15420445 -0.873923203 1.7356404
    endloop
  endfacet
  facet normal 0.728306739 -0.596665309 -0.336986352
    outer loop
      vertex 4.2050616 -0.851902013 1.80656413
      vertex 4.15420445 -0.873923203 1.7356404
      vertex 4.15469827 -0.872964786 1.7350107
    endloop
  endfacet
  facet normal 0.559592618 0.234030807 0.795038164
    outer loop
      vertex 4.20252889 -0.85050858 1.80793662
      vertex 4.20456778 -0.85286043 1.80719384
      vertex 4.2050616 -0.851902013 1.80656413
    endloop
  endfacet
  facet normal -0.559592618 -0.234030807 -0.795038164
    outer loop
      vertex 4.15216556 -0.871571353 1.73638319
      vertex 4.15469827 -0.872964786 1.7350107
      vertex 4.15420445 -0.873923203 1.7356404
    endloop
  endfacet
  facet normal 0.521513903 -0.844997245 -0.118333871
    outer loop
      vertex 4.20456778 -0.85286043 1.80719384
      vertex 4.20376356 -0.853460799 1.80793662
      vertex 4.15340022 -0.874523572 1.73638319
    endloop
  endfacet
  facet normal 0.521513903 -0.844997245 -0.118333871
    outer loop
      vertex 4.20456778 -0.85286043 1.80719384
      vertex 4.15340022 -0.874523572 1.73638319
      vertex 4.15420445 -0.873923203 1.7356404
    endloop
  endfacet
  facet normal 0.559592618 0.234030807 0.795038164
    outer loop
      vertex 4.20252889 -0.85050858 1.80793662
      vertex 4.20376356 -0.853460799 1.80793662
      vertex 4.20456778 -0.85286043 1.80719384
    endloop
  endfacet
  facet normal -0.559592618 -0.234030807 -0.795038164
    outer loop
      vertex 4.15216556 -0.871571353 1.73638319
      vertex 4.15420445 -0.873923203 1.7356404
      vertex 4.15340022 -0.874523572 1.73638319
    endloop
  endfacet
  facet normal 0.235325303 -0.964686009 0.118333871
    outer loop
      vertex 4.20376356 -0.853460799 1.80793662
      vertex 4.20277137 -0.85361172 1.80867941
      vertex 4.15240803 -0.874674492 1.73712597
    endloop
  endfacet
  facet normal 0.235325303 -0.964686009 0.118333871
    outer loop
      vertex 4.20376356 -0.853460799 1.80793662
      vertex 4.15240803 -0.874674492 1.73712597
      vertex 4.15340022 -0.874523572 1.73638319
    endloop
  endfacet
  facet normal 0.559592618 0.234030807 0.795038164
    outer loop
      vertex 4.20252889 -0.85050858 1.80793662
      vertex 4.20277137 -0.85361172 1.80867941
      vertex 4.20376356 -0.853460799 1.80793662
    endloop
  endfacet
  facet normal -0.559592618 -0.234030807 -0.795038164
    outer loop
      vertex 4.15216556 -0.871571353 1.73638319
      vertex 4.15340022 -0.874523572 1.73638319
      vertex 4.15240803 -0.874674492 1.73712597
    endloop
  endfacet
  facet normal -0.0866894414 -0.937510074 0.336986352
    outer loop
      vertex 4.20277137 -0.85361172 1.80867941
      vertex 4.20174227 -0.853290215 1.80930911
      vertex 4.15137893 -0.874352988 1.73775567
    endloop
  endfacet
  facet normal -0.0866894414 -0.937510074 0.336986352
    outer loop
      vertex 4.20277137 -0.85361172 1.80867941
      vertex 4.15137893 -0.874352988 1.73775567
      vertex 4.15240803 -0.874674492 1.73712597
    endloop
  endfacet
  facet normal 0.559592618 0.234030807 0.795038164
    outer loop
      vertex 4.20252889 -0.85050858 1.80793662
      vertex 4.20174227 -0.853290215 1.80930911
      vertex 4.20277137 -0.85361172 1.80867941
    endloop
  endfacet
  facet normal -0.559592618 -0.234030807 -0.795038164
    outer loop
      vertex 4.15216556 -0.871571353 1.73638319
      vertex 4.15240803 -0.874674492 1.73712597
      vertex 4.15137893 -0.874352988 1.73775567
    endloop
  endfacet
  facet normal -0.395506504 -0.767606729 0.504335717
    outer loop
      vertex 4.20174227 -0.853290215 1.80930911
      vertex 4.20083292 -0.852545232 1.80972986
      vertex 4.15046958 -0.873608005 1.73817643
    endloop
  endfacet
  facet normal -0.395506504 -0.767606729 0.504335717
    outer loop
      vertex 4.20174227 -0.853290215 1.80930911
      vertex 4.15046958 -0.873608005 1.73817643
      vertex 4.15137893 -0.874352988 1.73775567
    endloop
  endfacet
  facet normal 0.559592618 0.234030807 0.795038164
    outer loop
      vertex 4.20252889 -0.85050858 1.80793662
      vertex 4.20083292 -0.852545232 1.80972986
      vertex 4.20174227 -0.853290215 1.80930911
    endloop
  endfacet
  facet normal -0.559592618 -0.234030807 -0.795038164
    outer loop
      vertex 4.15216556 -0.871571353 1.73638319
      vertex 4.15137893 -0.874352988 1.73775567
      vertex 4.15046958 -0.873608005 1.73817643
    endloop
  endfacet
  facet normal -0.644111287 -0.480842217 0.59490454
    outer loop
      vertex 4.20083292 -0.852545232 1.80972986
      vertex 4.20018177 -0.851490187 1.80987761
      vertex 4.14981843 -0.87255296 1.73832418
    endloop
  endfacet
  facet normal -0.644111287 -0.480842217 0.59490454
    outer loop
      vertex 4.20083292 -0.852545232 1.80972986
      vertex 4.14981843 -0.87255296 1.73832418
      vertex 4.15046958 -0.873608005 1.73817643
    endloop
  endfacet
  facet normal 0.559592618 0.234030807 0.795038164
    outer loop
      vertex 4.20252889 -0.85050858 1.80793662
      vertex 4.20018177 -0.851490187 1.80987761
      vertex 4.20083292 -0.852545232 1.80972986
    endloop
  endfacet
  facet normal -0.559592618 -0.234030807 -0.795038164
    outer loop
      vertex 4.15216556 -0.871571353 1.73638319
      vertex 4.15046958 -0.873608005 1.73817643
      vertex 4.14981843 -0.87255296 1.73832418
    endloop
  endfacet
  facet normal -0.794655965 -0.120873837 0.59490454
    outer loop
      vertex 4.20018177 -0.851490187 1.80987761
      vertex 4.19988794 -0.850285701 1.80972986
      vertex 4.14952461 -0.871348474 1.73817643
    endloop
  endfacet
  facet normal -0.794655965 -0.120873837 0.59490454
    outer loop
      vertex 4.20018177 -0.851490187 1.80987761
      vertex 4.14952461 -0.871348474 1.73817643
      vertex 4.14981843 -0.87255296 1.73832418
    endloop
  endfacet
  facet normal 0.559592618 0.234030807 0.795038164
    outer loop
      vertex 4.20252889 -0.85050858 1.80793662
      vertex 4.19988794 -0.850285701 1.80972986
      vertex 4.20018177 -0.851490187 1.80987761
    endloop
  endfacet
  facet normal -0.559592618 -0.234030807 -0.795038164
    outer loop
      vertex 4.15216556 -0.871571353 1.73638319
      vertex 4.14981843 -0.87255296 1.73832418
      vertex 4.14952461 -0.871348474 1.73817643
    endloop
  endfacet
  facet normal -0.824221477 0.25749649 0.504335717
    outer loop
      vertex 4.19988794 -0.850285701 1.80972986
      vertex 4.19999618 -0.849115147 1.80930911
      vertex 4.14963285 -0.870177919 1.73775567
    endloop
  endfacet
  facet normal -0.824221477 0.25749649 0.504335717
    outer loop
      vertex 4.19988794 -0.850285701 1.80972986
      vertex 4.14963285 -0.870177919 1.73775567
      vertex 4.14952461 -0.871348474 1.73817643
    endloop
  endfacet
  facet normal 0.559592618 0.234030807 0.795038164
    outer loop
      vertex 4.20252889 -0.85050858 1.80793662
      vertex 4.19999618 -0.849115147 1.80930911
      vertex 4.19988794 -0.850285701 1.80972986
    endloop
  endfacet
  facet normal -0.559592618 -0.234030807 -0.795038164
    outer loop
      vertex 4.15216556 -0.871571353 1.73638319
      vertex 4.14952461 -0.871348474 1.73817643
      vertex 4.14963285 -0.870177919 1.73775567
    endloop
  endfacet
  facet normal -0.728306739 0.596665309 0.336986352
    outer loop
      vertex 4.19999618 -0.849115147 1.80930911
      vertex 4.20049 -0.84815673 1.80867941
      vertex 4.15012667 -0.869219502 1.73712597
    endloop
  endfacet
  facet normal -0.728306739 0.596665309 0.336986352
    outer loop
      vertex 4.19999618 -0.849115147 1.80930911
      vertex 4.15012667 -0.869219502 1.73712597
      vertex 4.14963285 -0.870177919 1.73775567
    endloop
  endfacet
  facet normal 0.559592618 0.234030807 0.795038164
    outer loop
      vertex 4.20252889 -0.85050858 1.80793662
      vertex 4.20049 -0.84815673 1.80867941
      vertex 4.19999618 -0.849115147 1.80930911
    endloop
  endfacet
  facet normal -0.559592618 -0.234030807 -0.795038164
    outer loop
      vertex 4.15216556 -0.871571353 1.73638319
      vertex 4.14963285 -0.870177919 1.73775567
      vertex 4.15012667 -0.869219502 1.73712597
    endloop
  endfacet
  facet normal -0.521513903 0.844997245 0.118333871
    outer loop
      vertex 4.20049 -0.84815673 1.80867941
      vertex 4.20129423 -0.847556361 1.80793662
      vertex 4.15093089 -0.868619133 1.73638319
    endloop
  endfacet
  facet normal -0.521513903 0.844997245 0.118333871
    outer loop
      vertex 4.20049 -0.84815673 1.80867941
      vertex 4.15093089 -0.868619133 1.73638319
      vertex 4.15012667 -0.869219502 1.73712597
    endloop
  endfacet
  facet normal 0.559592618 0.234030807 0.795038164
    outer loop
      vertex 4.20252889 -0.85050858 1.80793662
      vertex 4.20129423 -0.847556361 1.80793662
      vertex 4.20049 -0.84815673 1.80867941
    endloop
  endfacet
  facet normal -0.559592618 -0.234030807 -0.795038164
    outer loop
      vertex 4.15216556 -0.871571353 1.73638319
      vertex 4.15012667 -0.869219502 1.73712597
      vertex 4.15093089 -0.868619133 1.73638319
    endloop
  endfacet
  facet normal -0.235325303 0.964686009 -0.118333871
    outer loop
      vertex 4.22593369 -0.848403571 1.79084337
      vertex 4.22692588 -0.84825265 1.79010058
      vertex 4.17656254 -0.869315423 1.71854715
    endloop
  endfacet
  facet normal -0.235325303 0.964686009 -0.118333871
    outer loop
      vertex 4.22593369 -0.848403571 1.79084337
      vertex 4.17656254 -0.869315423 1.71854715
      vertex 4.17557035 -0.869466343 1.71928993
    endloop
  endfacet
  facet normal 0.559592618 0.234030807 0.795038164
    outer loop
      vertex 4.22716835 -0.85135579 1.79084337
      vertex 4.22692588 -0.84825265 1.79010058
      vertex 4.22593369 -0.848403571 1.79084337
    endloop
  endfacet
  facet normal -0.559592618 -0.234030807 -0.795038164
    outer loop
      vertex 4.17680502 -0.872418563 1.71928993
      vertex 4.17557035 -0.869466343 1.71928993
      vertex 4.17656254 -0.869315423 1.71854715
    endloop
  endfacet
  facet normal 0.0866894414 0.937510074 -0.336986352
    outer loop
      vertex 4.22692588 -0.84825265 1.79010058
      vertex 4.22795498 -0.848574155 1.78947088
      vertex 4.17759165 -0.869636927 1.71791745
    endloop
  endfacet
  facet normal 0.0866894414 0.937510074 -0.336986352
    outer loop
      vertex 4.22692588 -0.84825265 1.79010058
      vertex 4.17759165 -0.869636927 1.71791745
      vertex 4.17656254 -0.869315423 1.71854715
    endloop
  endfacet
  facet normal 0.559592618 0.234030807 0.795038164
    outer loop
      vertex 4.22716835 -0.85135579 1.79084337
      vertex 4.22795498 -0.848574155 1.78947088
      vertex 4.22692588 -0.84825265 1.79010058
    endloop
  endfacet
  facet normal -0.559592618 -0.234030807 -0.795038164
    outer loop
      vertex 4.17680502 -0.872418563 1.71928993
      vertex 4.17656254 -0.869315423 1.71854715
      vertex 4.17759165 -0.869636927 1.71791745
    endloop
  endfacet
  facet normal 0.395506504 0.767606729 -0.504335717
    outer loop
      vertex 4.22795498 -0.848574155 1.78947088
      vertex 4.22886433 -0.849319138 1.78905013
      vertex 4.17850099 -0.870381911 1.71749669
    endloop
  endfacet
  facet normal 0.395506504 0.767606729 -0.504335717
    outer loop
      vertex 4.22795498 -0.848574155 1.78947088
      vertex 4.17850099 -0.870381911 1.71749669
      vertex 4.17759165 -0.869636927 1.71791745
    endloop
  endfacet
  facet normal 0.559592618 0.234030807 0.795038164
    outer loop
      vertex 4.22716835 -0.85135579 1.79084337
      vertex 4.22886433 -0.849319138 1.78905013
      vertex 4.22795498 -0.848574155 1.78947088
    endloop
  endfacet
  facet normal -0.559592618 -0.234030807 -0.795038164
    outer loop
      vertex 4.17680502 -0.872418563 1.71928993
      vertex 4.17759165 -0.869636927 1.71791745
      vertex 4.17850099 -0.870381911 1.71749669
    endloop
  endfacet
  facet normal 0.644111287 0.480842217 -0.59490454
    outer loop
      vertex 4.22886433 -0.849319138 1.78905013
      vertex 4.22951548 -0.850374183 1.78890238
      vertex 4.17915215 -0.871436956 1.71734894
    endloop
  endfacet
  facet normal 0.644111287 0.480842217 -0.59490454
    outer loop
      vertex 4.22886433 -0.849319138 1.78905013
      vertex 4.17915215 -0.871436956 1.71734894
      vertex 4.17850099 -0.870381911 1.71749669
    endloop
  endfacet
  facet normal 0.559592618 0.234030807 0.795038164
    outer loop
      vertex 4.22716835 -0.85135579 1.79084337
      vertex 4.22951548 -0.850374183 1.78890238
      vertex 4.22886433 -0.849319138 1.78905013
    endloop
  endfacet
  facet normal -0.559592618 -0.234030807 -0.795038164
    outer loop
      vertex 4.17680502 -0.872418563 1.71928993
      vertex 4.17850099 -0.870381911 1.71749669
      vertex 4.17915215 -0.871436956 1.71734894
    endloop
  endfacet
  facet normal 0.794655965 0.120873837 -0.59490454
    outer loop
      vertex 4.22951548 -0.850374183 1.78890238
      vertex 4.2298093 -0.851578669 1.78905013
      vertex 4.17944597 -0.872641442 1.71749669
    endloop
  endfacet
  facet normal 0.794655965 0.120873837 -0.59490454
    outer loop
      vertex 4.22951548 -0.850374183 1.78890238
      vertex 4.17944597 -0.872641442 1.71749669
      vertex 4.17915215 -0.871436956 1.71734894
    endloop
  endfacet
  facet normal 0.559592618 0.234030807 0.795038164
    outer loop
      vertex 4.22716835 -0.85135579 1.79084337
      vertex 4.2298093 -0.851578669 1.78905013
      vertex 4.22951548 -0.850374183 1.78890238
    endloop
  endfacet
  facet normal -0.559592618 -0.234030807 -0.795038164
    outer loop
      vertex 4.17680502 -0.872418563 1.71928993
      vertex 4.17915215 -0.871436956 1.71734894
      vertex 4.17944597 -0.872641442 1.71749669
    endloop
  endfacet
  facet normal 0.824221477 -0.25749649 -0.504335717
    outer loop
      vertex 4.2298093 -0.851578669 1.78905013
      vertex 4.22970106 -0.852749223 1.78947088
      vertex 4.17933773 -0.873811996 1.71791745
    endloop
  endfacet
  facet normal 0.824221477 -0.25749649 -0.504335717
    outer loop
      vertex 4.2298093 -0.851578669 1.78905013
      vertex 4.17933773 -0.873811996 1.71791745
      vertex 4.17944597 -0.872641442 1.71749669
    endloop
  endfacet
  facet normal 0.559592618 0.234030807 0.795038164
    outer loop
      vertex 4.22716835 -0.85135579 1.79084337
      vertex 4.22970106 -0.852749223 1.78947088
      vertex 4.2298093 -0.851578669 1.78905013
    endloop
  endfacet
  facet normal -0.559592618 -0.234030807 -0.795038164
    outer loop
      vertex 4.17680502 -0.872418563 1.71928993
      vertex 4.17944597 -0.872641442 1.71749669
      vertex 4.17933773 -0.873811996 1.71791745
    endloop
  endfacet
  facet normal 0.728306739 -0.596665309 -0.336986352
    outer loop
      vertex 4.22970106 -0.852749223 1.78947088
      vertex 4.22920724 -0.85370764 1.79010058
      vertex 4.17884391 -0.874770413 1.71854715
    endloop
  endfacet
  facet normal 0.728306739 -0.596665309 -0.336986352
    outer loop
      vertex 4.22970106 -0.852749223 1.78947088
      vertex 4.17884391 -0.874770413 1.71854715
      vertex 4.17933773 -0.873811996 1.71791745
    endloop
  endfacet
  facet normal 0.559592618 0.234030807 0.795038164
    outer loop
      vertex 4.22716835 -0.85135579 1.79084337
      vertex 4.22920724 -0.85370764 1.79010058
      vertex 4.22970106 -0.852749223 1.78947088
    endloop
  endfacet
  facet normal -0.559592618 -0.234030807 -0.795038164
    outer loop
      vertex 4.17680502 -0.872418563 1.71928993
      vertex 4.17933773 -0.873811996 1.71791745
      vertex 4.17884391 -0.874770413 1.71854715
    endloop
  endfacet
  facet normal 0.521513903 -0.844997245 -0.118333871
    outer loop
      vertex 4.22920724 -0.85370764 1.79010058
      vertex 4.22840302 -0.854308009 1.79084337
      vertex 4.17803969 -0.875370782 1.71928993
    endloop
  endfacet
  facet normal 0.521513903 -0.844997245 -0.118333871
    outer loop
      vertex 4.22920724 -0.85370764 1.79010058
      vertex 4.17803969 -0.875370782 1.71928993
      vertex 4.17884391 -0.874770413 1.71854715
    endloop
  endfacet
  facet normal 0.559592618 0.234030807 0.795038164
    outer loop
      vertex 4.22716835 -0.85135579 1.79084337
      vertex 4.22840302 -0.854308009 1.79084337
      vertex 4.22920724 -0.85370764 1.79010058
    endloop
  endfacet
  facet normal -0.559592618 -0.234030807 -0.795038164
    outer loop
      vertex 4.17680502 -0.872418563 1.71928993
      vertex 4.17884391 -0.874770413 1.71854715
      vertex 4.17803969 -0.875370782 1.71928993
    endloop
  endfacet
  facet normal 0.235325303 -0.964686009 0.118333871
    outer loop
      vertex 4.22840302 -0.854308009 1.79084337
      vertex 4.22741083 -0.85445893 1.79158615
      vertex 4.1770475 -0.875521702 1.72003272
    endloop
  endfacet
  facet normal 0.235325303 -0.964686009 0.118333871
    outer loop
      vertex 4.22840302 -0.854308009 1.79084337
      vertex 4.1770475 -0.875521702 1.72003272
      vertex 4.17803969 -0.875370782 1.71928993
    endloop
  endfacet
  facet normal 0.559592618 0.234030807 0.795038164
    outer loop
      vertex 4.22716835 -0.85135579 1.79084337
      vertex 4.22741083 -0.85445893 1.79158615
      vertex 4.22840302 -0.854308009 1.79084337
    endloop
  endfacet
  facet normal -0.559592618 -0.234030807 -0.795038164
    outer loop
      vertex 4.17680502 -0.872418563 1.71928993
      vertex 4.17803969 -0.875370782 1.71928993
      vertex 4.1770475 -0.875521702 1.72003272
    endloop
  endfacet
  facet normal -0.0866894414 -0.937510074 0.336986352
    outer loop
      vertex 4.22741083 -0.85445893 1.79158615
      vertex 4.22638173 -0.854137425 1.79221586
      vertex 4.17601839 -0.875200198 1.72066242
    endloop
  endfacet
  facet normal -0.0866894414 -0.937510074 0.336986352
    outer loop
      vertex 4.22741083 -0.85445893 1.79158615
      vertex 4.17601839 -0.875200198 1.72066242
      vertex 4.1770475 -0.875521702 1.72003272
    endloop
  endfacet
  facet normal 0.559592618 0.234030807 0.795038164
    outer loop
      vertex 4.22716835 -0.85135579 1.79084337
      vertex 4.22638173 -0.854137425 1.79221586
      vertex 4.22741083 -0.85445893 1.79158615
    endloop
  endfacet
  facet normal -0.559592618 -0.234030807 -0.795038164
    outer loop
      vertex 4.17680502 -0.872418563 1.71928993
      vertex 4.1770475 -0.875521702 1.72003272
      vertex 4.17601839 -0.875200198 1.72066242
    endloop
  endfacet
  facet normal -0.395506504 -0.767606729 0.504335717
    outer loop
      vertex 4.22638173 -0.854137425 1.79221586
      vertex 4.22547238 -0.853392442 1.79263661
      vertex 4.17510904 -0.874455215 1.72108318
    endloop
  endfacet
  facet normal -0.395506504 -0.767606729 0.504335717
    outer loop
      vertex 4.22638173 -0.854137425 1.79221586
      vertex 4.17510904 -0.874455215 1.72108318
      vertex 4.17601839 -0.875200198 1.72066242
    endloop
  endfacet
  facet normal 0.559592618 0.234030807 0.795038164
    outer loop
      vertex 4.22716835 -0.85135579 1.79084337
      vertex 4.22547238 -0.853392442 1.79263661
      vertex 4.22638173 -0.854137425 1.79221586
    endloop
  endfacet
  facet normal -0.559592618 -0.234030807 -0.795038164
    outer loop
      vertex 4.17680502 -0.872418563 1.71928993
      vertex 4.17601839 -0.875200198 1.72066242
      vertex 4.17510904 -0.874455215 1.72108318
    endloop
  endfacet
  facet normal -0.644111287 -0.480842217 0.59490454
    outer loop
      vertex 4.22547238 -0.853392442 1.79263661
      vertex 4.22482123 -0.852337397 1.79278436
      vertex 4.17445789 -0.87340017 1.72123093
    endloop
  endfacet
  facet normal -0.644111287 -0.480842217 0.59490454
    outer loop
      vertex 4.22547238 -0.853392442 1.79263661
      vertex 4.17445789 -0.87340017 1.72123093
      vertex 4.17510904 -0.874455215 1.72108318
    endloop
  endfacet
  facet normal 0.559592618 0.234030807 0.795038164
    outer loop
      vertex 4.22716835 -0.85135579 1.79084337
      vertex 4.22482123 -0.852337397 1.79278436
      vertex 4.22547238 -0.853392442 1.79263661
    endloop
  endfacet
  facet normal -0.559592618 -0.234030807 -0.795038164
    outer loop
      vertex 4.17680502 -0.872418563 1.71928993
      vertex 4.17510904 -0.874455215 1.72108318
      vertex 4.17445789 -0.87340017 1.72123093
    endloop
  endfacet
  facet normal -0.794655965 -0.120873837 0.59490454
    outer loop
      vertex 4.22482123 -0.852337397 1.79278436
      vertex 4.22452741 -0.851132911 1.79263661
      vertex 4.17416407 -0.872195684 1.72108318
    endloop
  endfacet
  facet normal -0.794655965 -0.120873837 0.59490454
    outer loop
      vertex 4.22482123 -0.852337397 1.79278436
      vertex 4.17416407 -0.872195684 1.72108318
      vertex 4.17445789 -0.87340017 1.72123093
    endloop
  endfacet
  facet normal 0.559592618 0.234030807 0.795038164
    outer loop
      vertex 4.22716835 -0.85135579 1.79084337
      vertex 4.22452741 -0.851132911 1.79263661
      vertex 4.22482123 -0.852337397 1.79278436
    endloop
  endfacet
  facet normal -0.559592618 -0.234030807 -0.795038164
    outer loop
      vertex 4.17680502 -0.872418563 1.71928993
      vertex 4.17445789 -0.87340017 1.72123093
      vertex 4.17416407 -0.872195684 1.72108318
    endloop
  endfacet
  facet normal -0.824221477 0.25749649 0.504335717
    outer loop
      vertex 4.22452741 -0.851132911 1.79263661
      vertex 4.22463564 -0.849962357 1.79221586
      vertex 4.17427231 -0.871025129 1.72066242
    endloop
  endfacet
  facet normal -0.824221477 0.25749649 0.504335717
    outer loop
      vertex 4.22452741 -0.851132911 1.79263661
      vertex 4.17427231 -0.871025129 1.72066242
      vertex 4.17416407 -0.872195684 1.72108318
    endloop
  endfacet
  facet normal 0.559592618 0.234030807 0.795038164
    outer loop
      vertex 4.22716835 -0.85135579 1.79084337
      vertex 4.22463564 -0.849962357 1.79221586
      vertex 4.22452741 -0.851132911 1.79263661
    endloop
  endfacet
  facet normal -0.559592618 -0.234030807 -0.795038164
    outer loop
      vertex 4.17680502 -0.872418563 1.71928993
      vertex 4.17416407 -0.872195684 1.72108318
      vertex 4.17427231 -0.871025129 1.72066242
    endloop
  endfacet
  facet normal -0.728306739 0.596665309 0.336986352
    outer loop
      vertex 4.22463564 -0.849962357 1.79221586
      vertex 4.22512946 -0.84900394 1.79158615
      vertex 4.17476613 -0.870066712 1.72003272
    endloop
  endfacet
  facet normal -0.728306739 0.596665309 0.336986352
    outer loop
      vertex 4.22463564 -0.849962357 1.79221586
      vertex 4.17476613 -0.870066712 1.72003272
      vertex 4.17427231 -0.871025129 1.72066242
    endloop
  endfacet
  facet normal 0.559592618 0.234030807 0.795038164
    outer loop
      vertex 4.22716835 -0.85135579 1.79084337
      vertex 4.22512946 -0.84900394 1.79158615
      vertex 4.22463564 -0.849962357 1.79221586
    endloop
  endfacet
  facet normal -0.559592618 -0.234030807 -0.795038164
    outer loop
      vertex 4.17680502 -0.872418563 1.71928993
      vertex 4.17427231 -0.871025129 1.72066242
      vertex 4.17476613 -0.870066712 1.72003272
    endloop
  endfacet
  facet normal -0.521513903 0.844997245 0.118333871
    outer loop
      vertex 4.22512946 -0.84900394 1.79158615
      vertex 4.22593369 -0.848403571 1.79084337
      vertex 4.17557035 -0.869466343 1.71928993
    endloop
  endfacet
  facet normal -0.521513903 0.844997245 0.118333871
    outer loop
      vertex 4.22512946 -0.84900394 1.79158615
      vertex 4.17557035 -0.869466343 1.71928993
      vertex 4.17476613 -0.870066712 1.72003272
    endloop
  endfacet
  facet normal 0.559592618 0.234030807 0.795038164
    outer loop
      vertex 4.22716835 -0.85135579 1.79084337
      vertex 4.22593369 -0.848403571 1.79084337
      vertex 4.22512946 -0.84900394 1.79158615
    endloop
  endfacet
  facet normal -0.559592618 -0.234030807 -0.795038164
    outer loop
      vertex 4.17680502 -0.872418563 1.71928993
      vertex 4.17476613 -0.870066712 1.72003272
      vertex 4.17557035 -0.869466343 1.71928993
    endloop
  endfacet
  facet normal 0.215896896 -0.964651378 -0.151116674
    outer loop
      vertex 4.22829064 -0.951996247 1.78824108
      vertex 4.22747941 -0.95202921 1.78729252
      vertex 4.33680998 -0.912698665 1.69242453
    endloop
  endfacet
  facet normal 0.215896896 -0.964651378 -0.151116674
    outer loop
      vertex 4.22829064 -0.951996247 1.78824108
      vertex 4.33680998 -0.912698665 1.69242453
      vertex 4.3376212 -0.912665702 1.69337309
    endloop
  endfacet
  facet normal -0.728870436 -0.262203637 0.632453272
    outer loop
      vertex 4.22720743 -0.948985158 1.78824108
      vertex 4.22747941 -0.95202921 1.78729252
      vertex 4.22829064 -0.951996247 1.78824108
    endloop
  endfacet
  facet normal 0.728870436 0.262203637 -0.632453272
    outer loop
      vertex 4.33653799 -0.909654612 1.69337309
      vertex 4.3376212 -0.912665702 1.69337309
      vertex 4.33680998 -0.912698665 1.69242453
    endloop
  endfacet
  facet normal -0.049174456 -0.901324592 -0.430343877
    outer loop
      vertex 4.22747941 -0.95202921 1.78729252
      vertex 4.22662678 -0.951598743 1.78648837
      vertex 4.33595734 -0.912268198 1.69162038
    endloop
  endfacet
  facet normal -0.049174456 -0.901324592 -0.430343877
    outer loop
      vertex 4.22747941 -0.95202921 1.78729252
      vertex 4.33595734 -0.912268198 1.69162038
      vertex 4.33680998 -0.912698665 1.69242453
    endloop
  endfacet
  facet normal -0.728870436 -0.262203637 0.632453272
    outer loop
      vertex 4.22720743 -0.948985158 1.78824108
      vertex 4.22662678 -0.951598743 1.78648837
      vertex 4.22747941 -0.95202921 1.78729252
    endloop
  endfacet
  facet normal 0.728870436 0.262203637 -0.632453272
    outer loop
      vertex 4.33653799 -0.909654612 1.69337309
      vertex 4.33680998 -0.912698665 1.69242453
      vertex 4.33595734 -0.912268198 1.69162038
    endloop
  endfacet
  facet normal -0.306759443 -0.700779307 -0.644055127
    outer loop
      vertex 4.22662678 -0.951598743 1.78648837
      vertex 4.22586254 -0.950770382 1.78595105
      vertex 4.33519311 -0.911439837 1.69108306
    endloop
  endfacet
  facet normal -0.306759443 -0.700779307 -0.644055127
    outer loop
      vertex 4.22662678 -0.951598743 1.78648837
      vertex 4.33519311 -0.911439837 1.69108306
      vertex 4.33595734 -0.912268198 1.69162038
    endloop
  endfacet
  facet normal -0.728870436 -0.262203637 0.632453272
    outer loop
      vertex 4.22720743 -0.948985158 1.78824108
      vertex 4.22586254 -0.950770382 1.78595105
      vertex 4.22662678 -0.951598743 1.78648837
    endloop
  endfacet
  facet normal 0.728870436 0.262203637 -0.632453272
    outer loop
      vertex 4.33653799 -0.909654612 1.69337309
      vertex 4.33595734 -0.912268198 1.69162038
      vertex 4.33519311 -0.911439837 1.69108306
    endloop
  endfacet
  facet normal -0.517643086 -0.393546726 -0.759714822
    outer loop
      vertex 4.22586254 -0.950770382 1.78595105
      vertex 4.22530306 -0.949670237 1.78576237
      vertex 4.33463362 -0.910339691 1.69089438
    endloop
  endfacet
  facet normal -0.517643086 -0.393546726 -0.759714822
    outer loop
      vertex 4.22586254 -0.950770382 1.78595105
      vertex 4.33463362 -0.910339691 1.69089438
      vertex 4.33519311 -0.911439837 1.69108306
    endloop
  endfacet
  facet normal -0.728870436 -0.262203637 0.632453272
    outer loop
      vertex 4.22720743 -0.948985158 1.78824108
      vertex 4.22530306 -0.949670237 1.78576237
      vertex 4.22586254 -0.950770382 1.78595105
    endloop
  endfacet
  facet normal 0.728870436 0.262203637 -0.632453272
    outer loop
      vertex 4.33653799 -0.909654612 1.69337309
      vertex 4.33519311 -0.911439837 1.69108306
      vertex 4.33463362 -0.910339691 1.69089438
    endloop
  endfacet
  facet normal -0.649720262 -0.0264002227 -0.759714822
    outer loop
      vertex 4.22530306 -0.949670237 1.78576237
      vertex 4.22503349 -0.948465794 1.78595105
      vertex 4.33436406 -0.909135249 1.69108306
    endloop
  endfacet
  facet normal -0.649720262 -0.0264002227 -0.759714822
    outer loop
      vertex 4.22530306 -0.949670237 1.78576237
      vertex 4.33436406 -0.909135249 1.69108306
      vertex 4.33463362 -0.910339691 1.69089438
    endloop
  endfacet
  facet normal -0.728870436 -0.262203637 0.632453272
    outer loop
      vertex 4.22720743 -0.948985158 1.78824108
      vertex 4.22503349 -0.948465794 1.78595105
      vertex 4.22530306 -0.949670237 1.78576237
    endloop
  endfacet
  facet normal 0.728870436 0.262203637 -0.632453272
    outer loop
      vertex 4.33653799 -0.909654612 1.69337309
      vertex 4.33463362 -0.910339691 1.69089438
      vertex 4.33436406 -0.909135249 1.69108306
    endloop
  endfacet
  facet normal -0.682883417 0.344765475 -0.644055127
    outer loop
      vertex 4.22503349 -0.948465794 1.78595105
      vertex 4.22509489 -0.94734042 1.78648837
      vertex 4.33442545 -0.908009874 1.69162038
    endloop
  endfacet
  facet normal -0.682883417 0.344765475 -0.644055127
    outer loop
      vertex 4.22503349 -0.948465794 1.78595105
      vertex 4.33442545 -0.908009874 1.69162038
      vertex 4.33436406 -0.909135249 1.69108306
    endloop
  endfacet
  facet normal -0.728870436 -0.262203637 0.632453272
    outer loop
      vertex 4.22720743 -0.948985158 1.78824108
      vertex 4.22509489 -0.94734042 1.78648837
      vertex 4.22503349 -0.948465794 1.78595105
    endloop
  endfacet
  facet normal 0.728870436 0.262203637 -0.632453272
    outer loop
      vertex 4.33653799 -0.909654612 1.69337309
      vertex 4.33436406 -0.909135249 1.69108306
      vertex 4.33442545 -0.908009874 1.69162038
    endloop
  endfacet
  facet normal -0.612083762 0.663443754 -0.430343877
    outer loop
      vertex 4.22509489 -0.94734042 1.78648837
      vertex 4.2254779 -0.946465442 1.78729252
      vertex 4.33480847 -0.907134897 1.69242453
    endloop
  endfacet
  facet normal -0.612083762 0.663443754 -0.430343877
    outer loop
      vertex 4.22509489 -0.94734042 1.78648837
      vertex 4.33480847 -0.907134897 1.69242453
      vertex 4.33442545 -0.908009874 1.69162038
    endloop
  endfacet
  facet normal -0.728870436 -0.262203637 0.632453272
    outer loop
      vertex 4.22720743 -0.948985158 1.78824108
      vertex 4.2254779 -0.946465442 1.78729252
      vertex 4.22509489 -0.94734042 1.78648837
    endloop
  endfacet
  facet normal 0.728870436 0.262203637 -0.632453272
    outer loop
      vertex 4.33653799 -0.909654612 1.69337309
      vertex 4.33442545 -0.908009874 1.69162038
      vertex 4.33480847 -0.907134897 1.69242453
    endloop
  endfacet
  facet normal -0.448099903 0.881118736 -0.151116674
    outer loop
      vertex 4.2254779 -0.946465442 1.78729252
      vertex 4.22612422 -0.945974069 1.78824108
      vertex 4.33545479 -0.906643523 1.69337309
    endloop
  endfacet
  facet normal -0.448099903 0.881118736 -0.151116674
    outer loop
      vertex 4.2254779 -0.946465442 1.78729252
      vertex 4.33545479 -0.906643523 1.69337309
      vertex 4.33480847 -0.907134897 1.69242453
    endloop
  endfacet
  facet normal -0.728870436 -0.262203637 0.632453272
    outer loop
      vertex 4.22720743 -0.948985158 1.78824108
      vertex 4.22612422 -0.945974069 1.78824108
      vertex 4.2254779 -0.946465442 1.78729252
    endloop
  endfacet
  facet normal 0.728870436 0.262203637 -0.632453272
    outer loop
      vertex 4.33653799 -0.909654612 1.69337309
      vertex 4.33480847 -0.907134897 1.69242453
      vertex 4.33545479 -0.906643523 1.69337309
    endloop
  endfacet
  facet normal -0.215896896 0.964651378 0.151116674
    outer loop
      vertex 4.22612422 -0.945974069 1.78824108
      vertex 4.22693545 -0.945941106 1.78918965
      vertex 4.33626601 -0.90661056 1.69432166
    endloop
  endfacet
  facet normal -0.215896896 0.964651378 0.151116674
    outer loop
      vertex 4.22612422 -0.945974069 1.78824108
      vertex 4.33626601 -0.90661056 1.69432166
      vertex 4.33545479 -0.906643523 1.69337309
    endloop
  endfacet
  facet normal -0.728870436 -0.262203637 0.632453272
    outer loop
      vertex 4.22720743 -0.948985158 1.78824108
      vertex 4.22693545 -0.945941106 1.78918965
      vertex 4.22612422 -0.945974069 1.78824108
    endloop
  endfacet
  facet normal 0.728870436 0.262203637 -0.632453272
    outer loop
      vertex 4.33653799 -0.909654612 1.69337309
      vertex 4.33545479 -0.906643523 1.69337309
      vertex 4.33626601 -0.90661056 1.69432166
    endloop
  endfacet
  facet normal 0.049174456 0.901324592 0.430343877
    outer loop
      vertex 4.22693545 -0.945941106 1.78918965
      vertex 4.22778808 -0.946371572 1.7899938
      vertex 4.33711865 -0.907041027 1.69512581
    endloop
  endfacet
  facet normal 0.049174456 0.901324592 0.430343877
    outer loop
      vertex 4.22693545 -0.945941106 1.78918965
      vertex 4.33711865 -0.907041027 1.69512581
      vertex 4.33626601 -0.90661056 1.69432166
    endloop
  endfacet
  facet normal -0.728870436 -0.262203637 0.632453272
    outer loop
      vertex 4.22720743 -0.948985158 1.78824108
      vertex 4.22778808 -0.946371572 1.7899938
      vertex 4.22693545 -0.945941106 1.78918965
    endloop
  endfacet
  facet normal 0.728870436 0.262203637 -0.632453272
    outer loop
      vertex 4.33653799 -0.909654612 1.69337309
      vertex 4.33626601 -0.90661056 1.69432166
      vertex 4.33711865 -0.907041027 1.69512581
    endloop
  endfacet
  facet normal 0.306759443 0.700779307 0.644055127
    outer loop
      vertex 4.22778808 -0.946371572 1.7899938
      vertex 4.22855231 -0.947199934 1.79053112
      vertex 4.33788288 -0.907869388 1.69566313
    endloop
  endfacet
  facet normal 0.306759443 0.700779307 0.644055127
    outer loop
      vertex 4.22778808 -0.946371572 1.7899938
      vertex 4.33788288 -0.907869388 1.69566313
      vertex 4.33711865 -0.907041027 1.69512581
    endloop
  endfacet
  facet normal -0.728870436 -0.262203637 0.632453272
    outer loop
      vertex 4.22720743 -0.948985158 1.78824108
      vertex 4.22855231 -0.947199934 1.79053112
      vertex 4.22778808 -0.946371572 1.7899938
    endloop
  endfacet
  facet normal 0.728870436 0.262203637 -0.632453272
    outer loop
      vertex 4.33653799 -0.909654612 1.69337309
      vertex 4.33711865 -0.907041027 1.69512581
      vertex 4.33788288 -0.907869388 1.69566313
    endloop
  endfacet
  facet normal 0.517643086 0.393546726 0.759714822
    outer loop
      vertex 4.22855231 -0.947199934 1.79053112
      vertex 4.2291118 -0.948300079 1.7907198
      vertex 4.33844237 -0.908969534 1.69585181
    endloop
  endfacet
  facet normal 0.517643086 0.393546726 0.759714822
    outer loop
      vertex 4.22855231 -0.947199934 1.79053112
      vertex 4.33844237 -0.908969534 1.69585181
      vertex 4.33788288 -0.907869388 1.69566313
    endloop
  endfacet
  facet normal -0.728870436 -0.262203637 0.632453272
    outer loop
      vertex 4.22720743 -0.948985158 1.78824108
      vertex 4.2291118 -0.948300079 1.7907198
      vertex 4.22855231 -0.947199934 1.79053112
    endloop
  endfacet
  facet normal 0.728870436 0.262203637 -0.632453272
    outer loop
      vertex 4.33653799 -0.909654612 1.69337309
      vertex 4.33788288 -0.907869388 1.69566313
      vertex 4.33844237 -0.908969534 1.69585181
    endloop
  endfacet
  facet normal 0.649720262 0.0264002227 0.759714822
    outer loop
      vertex 4.2291118 -0.948300079 1.7907198
      vertex 4.22938137 -0.949504522 1.79053112
      vertex 4.33871193 -0.910173976 1.69566313
    endloop
  endfacet
  facet normal 0.649720262 0.0264002227 0.759714822
    outer loop
      vertex 4.2291118 -0.948300079 1.7907198
      vertex 4.33871193 -0.910173976 1.69566313
      vertex 4.33844237 -0.908969534 1.69585181
    endloop
  endfacet
  facet normal -0.728870436 -0.262203637 0.632453272
    outer loop
      vertex 4.22720743 -0.948985158 1.78824108
      vertex 4.22938137 -0.949504522 1.79053112
      vertex 4.2291118 -0.948300079 1.7907198
    endloop
  endfacet
  facet normal 0.728870436 0.262203637 -0.632453272
    outer loop
      vertex 4.33653799 -0.909654612 1.69337309
      vertex 4.33844237 -0.908969534 1.69585181
      vertex 4.33871193 -0.910173976 1.69566313
    endloop
  endfacet
  facet normal 0.682883417 -0.344765475 0.644055127
    outer loop
      vertex 4.22938137 -0.949504522 1.79053112
      vertex 4.22931997 -0.950629896 1.7899938
      vertex 4.33865053 -0.91129935 1.69512581
    endloop
  endfacet
  facet normal 0.682883417 -0.344765475 0.644055127
    outer loop
      vertex 4.22938137 -0.949504522 1.79053112
      vertex 4.33865053 -0.91129935 1.69512581
      vertex 4.33871193 -0.910173976 1.69566313
    endloop
  endfacet
  facet normal -0.728870436 -0.262203637 0.632453272
    outer loop
      vertex 4.22720743 -0.948985158 1.78824108
      vertex 4.22931997 -0.950629896 1.7899938
      vertex 4.22938137 -0.949504522 1.79053112
    endloop
  endfacet
  facet normal 0.728870436 0.262203637 -0.632453272
    outer loop
      vertex 4.33653799 -0.909654612 1.69337309
      vertex 4.33871193 -0.910173976 1.69566313
      vertex 4.33865053 -0.91129935 1.69512581
    endloop
  endfacet
  facet normal 0.612083762 -0.663443754 0.430343877
    outer loop
      vertex 4.22931997 -0.950629896 1.7899938
      vertex 4.22893696 -0.951504874 1.78918965
      vertex 4.33826752 -0.912174328 1.69432166
    endloop
  endfacet
  facet normal 0.612083762 -0.663443754 0.430343877
    outer loop
      vertex 4.22931997 -0.950629896 1.7899938
      vertex 4.33826752 -0.912174328 1.69432166
      vertex 4.33865053 -0.91129935 1.69512581
    endloop
  endfacet
  facet normal -0.728870436 -0.262203637 0.632453272
    outer loop
      vertex 4.22720743 -0.948985158 1.78824108
      vertex 4.22893696 -0.951504874 1.78918965
      vertex 4.22931997 -0.950629896 1.7899938
    endloop
  endfacet
  facet normal 0.728870436 0.262203637 -0.632453272
    outer loop
      vertex 4.33653799 -0.909654612 1.69337309
      vertex 4.33865053 -0.91129935 1.69512581
      vertex 4.33826752 -0.912174328 1.69432166
    endloop
  endfacet
  facet normal 0.448099903 -0.881118736 0.151116674
    outer loop
      vertex 4.22893696 -0.951504874 1.78918965
      vertex 4.22829064 -0.951996247 1.78824108
      vertex 4.3376212 -0.912665702 1.69337309
    endloop
  endfacet
  facet normal 0.448099903 -0.881118736 0.151116674
    outer loop
      vertex 4.22893696 -0.951504874 1.78918965
      vertex 4.3376212 -0.912665702 1.69337309
      vertex 4.33826752 -0.912174328 1.69432166
    endloop
  endfacet
  facet normal -0.728870436 -0.262203637 0.632453272
    outer loop
      vertex 4.22720743 -0.948985158 1.78824108
      vertex 4.22829064 -0.951996247 1.78824108
      vertex 4.22893696 -0.951504874 1.78918965
    endloop
  endfacet
  facet normal 0.728870436 0.262203637 -0.632453272
    outer loop
      vertex 4.33653799 -0.909654612 1.69337309
      vertex 4.33826752 -0.912174328 1.69432166
      vertex 4.3376212 -0.912665702 1.69337309
    endloop
  endfacet
  facet normal 0.215896896 -0.964651378 -0.151116674
    outer loop
      vertex 4.21086725 -0.959567621 1.76502256
      vertex 4.21005602 -0.959600583 1.76407399
      vertex 4.31938659 -0.920270038 1.669206
    endloop
  endfacet
  facet normal 0.215896896 -0.964651378 -0.151116674
    outer loop
      vertex 4.21086725 -0.959567621 1.76502256
      vertex 4.31938659 -0.920270038 1.669206
      vertex 4.32019782 -0.920237075 1.67015457
    endloop
  endfacet
  facet normal -0.728870436 -0.262203637 0.632453272
    outer loop
      vertex 4.20978404 -0.956556531 1.76502256
      vertex 4.21005602 -0.959600583 1.76407399
      vertex 4.21086725 -0.959567621 1.76502256
    endloop
  endfacet
  facet normal 0.728870436 0.262203637 -0.632453272
    outer loop
      vertex 4.31911461 -0.917225986 1.67015457
      vertex 4.32019782 -0.920237075 1.67015457
      vertex 4.31938659 -0.920270038 1.669206
    endloop
  endfacet
  facet normal -0.049174456 -0.901324592 -0.430343877
    outer loop
      vertex 4.21005602 -0.959600583 1.76407399
      vertex 4.20920339 -0.959170117 1.76326984
      vertex 4.31853396 -0.919839571 1.66840185
    endloop
  endfacet
  facet normal -0.049174456 -0.901324592 -0.430343877
    outer loop
      vertex 4.21005602 -0.959600583 1.76407399
      vertex 4.31853396 -0.919839571 1.66840185
      vertex 4.31938659 -0.920270038 1.669206
    endloop
  endfacet
  facet normal -0.728870436 -0.262203637 0.632453272
    outer loop
      vertex 4.20978404 -0.956556531 1.76502256
      vertex 4.20920339 -0.959170117 1.76326984
      vertex 4.21005602 -0.959600583 1.76407399
    endloop
  endfacet
  facet normal 0.728870436 0.262203637 -0.632453272
    outer loop
      vertex 4.31911461 -0.917225986 1.67015457
      vertex 4.31938659 -0.920270038 1.669206
      vertex 4.31853396 -0.919839571 1.66840185
    endloop
  endfacet
  facet normal -0.306759443 -0.700779307 -0.644055127
    outer loop
      vertex 4.20920339 -0.959170117 1.76326984
      vertex 4.20843916 -0.958341756 1.76273252
      vertex 4.31776972 -0.91901121 1.66786453
    endloop
  endfacet
  facet normal -0.306759443 -0.700779307 -0.644055127
    outer loop
      vertex 4.20920339 -0.959170117 1.76326984
      vertex 4.31776972 -0.91901121 1.66786453
      vertex 4.31853396 -0.919839571 1.66840185
    endloop
  endfacet
  facet normal -0.728870436 -0.262203637 0.632453272
    outer loop
      vertex 4.20978404 -0.956556531 1.76502256
      vertex 4.20843916 -0.958341756 1.76273252
      vertex 4.20920339 -0.959170117 1.76326984
    endloop
  endfacet
  facet normal 0.728870436 0.262203637 -0.632453272
    outer loop
      vertex 4.31911461 -0.917225986 1.67015457
      vertex 4.31853396 -0.919839571 1.66840185
      vertex 4.31776972 -0.91901121 1.66786453
    endloop
  endfacet
  facet normal -0.517643086 -0.393546726 -0.759714822
    outer loop
      vertex 4.20843916 -0.958341756 1.76273252
      vertex 4.20787967 -0.95724161 1.76254384
      vertex 4.31721023 -0.917911064 1.66767585
    endloop
  endfacet
  facet normal -0.517643086 -0.393546726 -0.759714822
    outer loop
      vertex 4.20843916 -0.958341756 1.76273252
      vertex 4.31721023 -0.917911064 1.66767585
      vertex 4.31776972 -0.91901121 1.66786453
    endloop
  endfacet
  facet normal -0.728870436 -0.262203637 0.632453272
    outer loop
      vertex 4.20978404 -0.956556531 1.76502256
      vertex 4.20787967 -0.95724161 1.76254384
      vertex 4.20843916 -0.958341756 1.76273252
    endloop
  endfacet
  facet normal 0.728870436 0.262203637 -0.632453272
    outer loop
      vertex 4.31911461 -0.917225986 1.67015457
      vertex 4.31776972 -0.91901121 1.66786453
      vertex 4.31721023 -0.917911064 1.66767585
    endloop
  endfacet
  facet normal -0.649720262 -0.0264002227 -0.759714822
    outer loop
      vertex 4.20787967 -0.95724161 1.76254384
      vertex 4.20761011 -0.956037167 1.76273252
      vertex 4.31694067 -0.916706622 1.66786453
    endloop
  endfacet
  facet normal -0.649720262 -0.0264002227 -0.759714822
    outer loop
      vertex 4.20787967 -0.95724161 1.76254384
      vertex 4.31694067 -0.916706622 1.66786453
      vertex 4.31721023 -0.917911064 1.66767585
    endloop
  endfacet
  facet normal -0.728870436 -0.262203637 0.632453272
    outer loop
      vertex 4.20978404 -0.956556531 1.76502256
      vertex 4.20761011 -0.956037167 1.76273252
      vertex 4.20787967 -0.95724161 1.76254384
    endloop
  endfacet
  facet normal 0.728870436 0.262203637 -0.632453272
    outer loop
      vertex 4.31911461 -0.917225986 1.67015457
      vertex 4.31721023 -0.917911064 1.66767585
      vertex 4.31694067 -0.916706622 1.66786453
    endloop
  endfacet
  facet normal -0.682883417 0.344765475 -0.644055127
    outer loop
      vertex 4.20761011 -0.956037167 1.76273252
      vertex 4.2076715 -0.954911793 1.76326984
      vertex 4.31700207 -0.915581248 1.66840185
    endloop
  endfacet
  facet normal -0.682883417 0.344765475 -0.644055127
    outer loop
      vertex 4.20761011 -0.956037167 1.76273252
      vertex 4.31700207 -0.915581248 1.66840185
      vertex 4.31694067 -0.916706622 1.66786453
    endloop
  endfacet
  facet normal -0.728870436 -0.262203637 0.632453272
    outer loop
      vertex 4.20978404 -0.956556531 1.76502256
      vertex 4.2076715 -0.954911793 1.76326984
      vertex 4.20761011 -0.956037167 1.76273252
    endloop
  endfacet
  facet normal 0.728870436 0.262203637 -0.632453272
    outer loop
      vertex 4.31911461 -0.917225986 1.67015457
      vertex 4.31694067 -0.916706622 1.66786453
      vertex 4.31700207 -0.915581248 1.66840185
    endloop
  endfacet
  facet normal -0.612083762 0.663443754 -0.430343877
    outer loop
      vertex 4.2076715 -0.954911793 1.76326984
      vertex 4.20805452 -0.954036816 1.76407399
      vertex 4.31738508 -0.91470627 1.669206
    endloop
  endfacet
  facet normal -0.612083762 0.663443754 -0.430343877
    outer loop
      vertex 4.2076715 -0.954911793 1.76326984
      vertex 4.31738508 -0.91470627 1.669206
      vertex 4.31700207 -0.915581248 1.66840185
    endloop
  endfacet
  facet normal -0.728870436 -0.262203637 0.632453272
    outer loop
      vertex 4.20978404 -0.956556531 1.76502256
      vertex 4.20805452 -0.954036816 1.76407399
      vertex 4.2076715 -0.954911793 1.76326984
    endloop
  endfacet
  facet normal 0.728870436 0.262203637 -0.632453272
    outer loop
      vertex 4.31911461 -0.917225986 1.67015457
      vertex 4.31700207 -0.915581248 1.66840185
      vertex 4.31738508 -0.91470627 1.669206
    endloop
  endfacet
  facet normal -0.448099903 0.881118736 -0.151116674
    outer loop
      vertex 4.20805452 -0.954036816 1.76407399
      vertex 4.20870083 -0.953545442 1.76502256
      vertex 4.3180314 -0.914214896 1.67015457
    endloop
  endfacet
  facet normal -0.448099903 0.881118736 -0.151116674
    outer loop
      vertex 4.20805452 -0.954036816 1.76407399
      vertex 4.3180314 -0.914214896 1.67015457
      vertex 4.31738508 -0.91470627 1.669206
    endloop
  endfacet
  facet normal -0.728870436 -0.262203637 0.632453272
    outer loop
      vertex 4.20978404 -0.956556531 1.76502256
      vertex 4.20870083 -0.953545442 1.76502256
      vertex 4.20805452 -0.954036816 1.76407399
    endloop
  endfacet
  facet normal 0.728870436 0.262203637 -0.632453272
    outer loop
      vertex 4.31911461 -0.917225986 1.67015457
      vertex 4.31738508 -0.91470627 1.669206
      vertex 4.3180314 -0.914214896 1.67015457
    endloop
  endfacet
  facet normal -0.215896896 0.964651378 0.151116674
    outer loop
      vertex 4.20870083 -0.953545442 1.76502256
      vertex 4.20951206 -0.953512479 1.76597112
      vertex 4.31884263 -0.914181934 1.67110313
    endloop
  endfacet
  facet normal -0.215896896 0.964651378 0.151116674
    outer loop
      vertex 4.20870083 -0.953545442 1.76502256
      vertex 4.31884263 -0.914181934 1.67110313
      vertex 4.3180314 -0.914214896 1.67015457
    endloop
  endfacet
  facet normal -0.728870436 -0.262203637 0.632453272
    outer loop
      vertex 4.20978404 -0.956556531 1.76502256
      vertex 4.20951206 -0.953512479 1.76597112
      vertex 4.20870083 -0.953545442 1.76502256
    endloop
  endfacet
  facet normal 0.728870436 0.262203637 -0.632453272
    outer loop
      vertex 4.31911461 -0.917225986 1.67015457
      vertex 4.3180314 -0.914214896 1.67015457
      vertex 4.31884263 -0.914181934 1.67110313
    endloop
  endfacet
  facet normal 0.049174456 0.901324592 0.430343877
    outer loop
      vertex 4.20951206 -0.953512479 1.76597112
      vertex 4.21036469 -0.953942946 1.76677527
      vertex 4.31969526 -0.9146124 1.67190728
    endloop
  endfacet
  facet normal 0.049174456 0.901324592 0.430343877
    outer loop
      vertex 4.20951206 -0.953512479 1.76597112
      vertex 4.31969526 -0.9146124 1.67190728
      vertex 4.31884263 -0.914181934 1.67110313
    endloop
  endfacet
  facet normal -0.728870436 -0.262203637 0.632453272
    outer loop
      vertex 4.20978404 -0.956556531 1.76502256
      vertex 4.21036469 -0.953942946 1.76677527
      vertex 4.20951206 -0.953512479 1.76597112
    endloop
  endfacet
  facet normal 0.728870436 0.262203637 -0.632453272
    outer loop
      vertex 4.31911461 -0.917225986 1.67015457
      vertex 4.31884263 -0.914181934 1.67110313
      vertex 4.31969526 -0.9146124 1.67190728
    endloop
  endfacet
  facet normal 0.306759443 0.700779307 0.644055127
    outer loop
      vertex 4.21036469 -0.953942946 1.76677527
      vertex 4.21112893 -0.954771307 1.76731259
      vertex 4.32045949 -0.915440762 1.6724446
    endloop
  endfacet
  facet normal 0.306759443 0.700779307 0.644055127
    outer loop
      vertex 4.21036469 -0.953942946 1.76677527
      vertex 4.32045949 -0.915440762 1.6724446
      vertex 4.31969526 -0.9146124 1.67190728
    endloop
  endfacet
  facet normal -0.728870436 -0.262203637 0.632453272
    outer loop
      vertex 4.20978404 -0.956556531 1.76502256
      vertex 4.21112893 -0.954771307 1.76731259
      vertex 4.21036469 -0.953942946 1.76677527
    endloop
  endfacet
  facet normal 0.728870436 0.262203637 -0.632453272
    outer loop
      vertex 4.31911461 -0.917225986 1.67015457
      vertex 4.31969526 -0.9146124 1.67190728
      vertex 4.32045949 -0.915440762 1.6724446
    endloop
  endfacet
  facet normal 0.517643086 0.393546726 0.759714822
    outer loop
      vertex 4.21112893 -0.954771307 1.76731259
      vertex 4.21168842 -0.955871453 1.76750127
      vertex 4.32101898 -0.916540907 1.67263328
    endloop
  endfacet
  facet normal 0.517643086 0.393546726 0.759714822
    outer loop
      vertex 4.21112893 -0.954771307 1.76731259
      vertex 4.32101898 -0.916540907 1.67263328
      vertex 4.32045949 -0.915440762 1.6724446
    endloop
  endfacet
  facet normal -0.728870436 -0.262203637 0.632453272
    outer loop
      vertex 4.20978404 -0.956556531 1.76502256
      vertex 4.21168842 -0.955871453 1.76750127
      vertex 4.21112893 -0.954771307 1.76731259
    endloop
  endfacet
  facet normal 0.728870436 0.262203637 -0.632453272
    outer loop
      vertex 4.31911461 -0.917225986 1.67015457
      vertex 4.32045949 -0.915440762 1.6724446
      vertex 4.32101898 -0.916540907 1.67263328
    endloop
  endfacet
  facet normal 0.649720262 0.0264002227 0.759714822
    outer loop
      vertex 4.21168842 -0.955871453 1.76750127
      vertex 4.21195798 -0.957075895 1.76731259
      vertex 4.32128855 -0.91774535 1.6724446
    endloop
  endfacet
  facet normal 0.649720262 0.0264002227 0.759714822
    outer loop
      vertex 4.21168842 -0.955871453 1.76750127
      vertex 4.32128855 -0.91774535 1.6724446
      vertex 4.32101898 -0.916540907 1.67263328
    endloop
  endfacet
  facet normal -0.728870436 -0.262203637 0.632453272
    outer loop
      vertex 4.20978404 -0.956556531 1.76502256
      vertex 4.21195798 -0.957075895 1.76731259
      vertex 4.21168842 -0.955871453 1.76750127
    endloop
  endfacet
  facet normal 0.728870436 0.262203637 -0.632453272
    outer loop
      vertex 4.31911461 -0.917225986 1.67015457
      vertex 4.32101898 -0.916540907 1.67263328
      vertex 4.32128855 -0.91774535 1.6724446
    endloop
  endfacet
  facet normal 0.682883417 -0.344765475 0.644055127
    outer loop
      vertex 4.21195798 -0.957075895 1.76731259
      vertex 4.21189658 -0.958201269 1.76677527
      vertex 4.32122715 -0.918870724 1.67190728
    endloop
  endfacet
  facet normal 0.682883417 -0.344765475 0.644055127
    outer loop
      vertex 4.21195798 -0.957075895 1.76731259
      vertex 4.32122715 -0.918870724 1.67190728
      vertex 4.32128855 -0.91774535 1.6724446
    endloop
  endfacet
  facet normal -0.728870436 -0.262203637 0.632453272
    outer loop
      vertex 4.20978404 -0.956556531 1.76502256
      vertex 4.21189658 -0.958201269 1.76677527
      vertex 4.21195798 -0.957075895 1.76731259
    endloop
  endfacet
  facet normal 0.728870436 0.262203637 -0.632453272
    outer loop
      vertex 4.31911461 -0.917225986 1.67015457
      vertex 4.32128855 -0.91774535 1.6724446
      vertex 4.32122715 -0.918870724 1.67190728
    endloop
  endfacet
  facet normal 0.612083762 -0.663443754 0.430343877
    outer loop
      vertex 4.21189658 -0.958201269 1.76677527
      vertex 4.21151357 -0.959076247 1.76597112
      vertex 4.32084413 -0.919745701 1.67110313
    endloop
  endfacet
  facet normal 0.612083762 -0.663443754 0.430343877
    outer loop
      vertex 4.21189658 -0.958201269 1.76677527
      vertex 4.32084413 -0.919745701 1.67110313
      vertex 4.32122715 -0.918870724 1.67190728
    endloop
  endfacet
  facet normal -0.728870436 -0.262203637 0.632453272
    outer loop
      vertex 4.20978404 -0.956556531 1.76502256
      vertex 4.21151357 -0.959076247 1.76597112
      vertex 4.21189658 -0.958201269 1.76677527
    endloop
  endfacet
  facet normal 0.728870436 0.262203637 -0.632453272
    outer loop
      vertex 4.31911461 -0.917225986 1.67015457
      vertex 4.32122715 -0.918870724 1.67190728
      vertex 4.32084413 -0.919745701 1.67110313
    endloop
  endfacet
  facet normal 0.448099903 -0.881118736 0.151116674
    outer loop
      vertex 4.21151357 -0.959076247 1.76597112
      vertex 4.21086725 -0.959567621 1.76502256
      vertex 4.32019782 -0.920237075 1.67015457
    endloop
  endfacet
  facet normal 0.448099903 -0.881118736 0.151116674
    outer loop
      vertex 4.21151357 -0.959076247 1.76597112
      vertex 4.32019782 -0.920237075 1.67015457
      vertex 4.32084413 -0.919745701 1.67110313
    endloop
  endfacet
  facet normal -0.728870436 -0.262203637 0.632453272
    outer loop
      vertex 4.20978404 -0.956556531 1.76502256
      vertex 4.21086725 -0.959567621 1.76502256
      vertex 4.21151357 -0.959076247 1.76597112
    endloop
  endfacet
  facet normal 0.728870436 0.262203637 -0.632453272
    outer loop
      vertex 4.31911461 -0.917225986 1.67015457
      vertex 4.32084413 -0.919745701 1.67110313
      vertex 4.32019782 -0.920237075 1.67015457
    endloop
  endfacet
  facet normal -0.254708523 0.959001682 -0.124255153
    outer loop
      vertex 4.37194596 -1.07593782 1.77197221
      vertex 4.37290862 -1.0757832 1.77119225
      vertex 4.31454116 -1.10127427 1.69409851
    endloop
  endfacet
  facet normal -0.254708523 0.959001682 -0.124255153
    outer loop
      vertex 4.37194596 -1.07593782 1.77197221
      vertex 4.31454116 -1.10127427 1.69409851
      vertex 4.31357851 -1.1014289 1.69487847
    endloop
  endfacet
  facet normal 0.583674576 0.254910748 0.770937417
    outer loop
      vertex 4.3732267 -1.07887035 1.77197221
      vertex 4.37290862 -1.0757832 1.77119225
      vertex 4.37194596 -1.07593782 1.77197221
    endloop
  endfacet
  facet normal -0.583674576 -0.254910748 -0.770937417
    outer loop
      vertex 4.31485924 -1.10436142 1.69487847
      vertex 4.31357851 -1.1014289 1.69487847
      vertex 4.31454116 -1.10127427 1.69409851
    endloop
  endfacet
  facet normal 0.0597305627 0.933393448 -0.353848739
    outer loop
      vertex 4.37290862 -1.0757832 1.77119225
      vertex 4.37391971 -1.07609857 1.77053104
      vertex 4.31555225 -1.10158964 1.6934373
    endloop
  endfacet
  facet normal 0.0597305627 0.933393448 -0.353848739
    outer loop
      vertex 4.37290862 -1.0757832 1.77119225
      vertex 4.31555225 -1.10158964 1.6934373
      vertex 4.31454116 -1.10127427 1.69409851
    endloop
  endfacet
  facet normal 0.583674576 0.254910748 0.770937417
    outer loop
      vertex 4.3732267 -1.07887035 1.77197221
      vertex 4.37391971 -1.07609857 1.77053104
      vertex 4.37290862 -1.0757832 1.77119225
    endloop
  endfacet
  facet normal -0.583674576 -0.254910748 -0.770937417
    outer loop
      vertex 4.31485924 -1.10436142 1.69487847
      vertex 4.31454116 -1.10127427 1.69409851
      vertex 4.31555225 -1.10158964 1.6934373
    endloop
  endfacet
  facet normal 0.365076212 0.765684524 -0.529572062
    outer loop
      vertex 4.37391971 -1.07609857 1.77053104
      vertex 4.37482529 -1.07683591 1.77008923
      vertex 4.31645783 -1.10232699 1.69299549
    endloop
  endfacet
  facet normal 0.365076212 0.765684524 -0.529572062
    outer loop
      vertex 4.37391971 -1.07609857 1.77053104
      vertex 4.31645783 -1.10232699 1.69299549
      vertex 4.31555225 -1.10158964 1.6934373
    endloop
  endfacet
  facet normal 0.583674576 0.254910748 0.770937417
    outer loop
      vertex 4.3732267 -1.07887035 1.77197221
      vertex 4.37482529 -1.07683591 1.77008923
      vertex 4.37391971 -1.07609857 1.77053104
    endloop
  endfacet
  facet normal -0.583674576 -0.254910748 -0.770937417
    outer loop
      vertex 4.31485924 -1.10436142 1.69487847
      vertex 4.31555225 -1.10158964 1.6934373
      vertex 4.31645783 -1.10232699 1.69299549
    endloop
  endfacet
  facet normal 0.614842317 0.481407072 -0.62467284
    outer loop
      vertex 4.37482529 -1.07683591 1.77008923
      vertex 4.37548749 -1.07788298 1.76993409
      vertex 4.31712004 -1.10337406 1.69284035
    endloop
  endfacet
  facet normal 0.614842317 0.481407072 -0.62467284
    outer loop
      vertex 4.37482529 -1.07683591 1.77008923
      vertex 4.31712004 -1.10337406 1.69284035
      vertex 4.31645783 -1.10232699 1.69299549
    endloop
  endfacet
  facet normal 0.583674576 0.254910748 0.770937417
    outer loop
      vertex 4.3732267 -1.07887035 1.77197221
      vertex 4.37548749 -1.07788298 1.76993409
      vertex 4.37482529 -1.07683591 1.77008923
    endloop
  endfacet
  facet normal -0.583674576 -0.254910748 -0.770937417
    outer loop
      vertex 4.31485924 -1.10436142 1.69487847
      vertex 4.31645783 -1.10232699 1.69299549
      vertex 4.31712004 -1.10337406 1.69284035
    endloop
  endfacet
  facet normal 0.771004253 0.123839757 -0.62467284
    outer loop
      vertex 4.37548749 -1.07788298 1.76993409
      vertex 4.37580552 -1.07908037 1.77008923
      vertex 4.31743806 -1.10457145 1.69299549
    endloop
  endfacet
  facet normal 0.771004253 0.123839757 -0.62467284
    outer loop
      vertex 4.37548749 -1.07788298 1.76993409
      vertex 4.31743806 -1.10457145 1.69299549
      vertex 4.31712004 -1.10337406 1.69284035
    endloop
  endfacet
  facet normal 0.583674576 0.254910748 0.770937417
    outer loop
      vertex 4.3732267 -1.07887035 1.77197221
      vertex 4.37580552 -1.07908037 1.77008923
      vertex 4.37548749 -1.07788298 1.76993409
    endloop
  endfacet
  facet normal -0.583674576 -0.254910748 -0.770937417
    outer loop
      vertex 4.31485924 -1.10436142 1.69487847
      vertex 4.31712004 -1.10337406 1.69284035
      vertex 4.31743806 -1.10457145 1.69299549
    endloop
  endfacet
  facet normal 0.809787781 -0.252581038 -0.529572062
    outer loop
      vertex 4.37580552 -1.07908037 1.77008923
      vertex 4.37573094 -1.08024579 1.77053104
      vertex 4.31736348 -1.10573686 1.6934373
    endloop
  endfacet
  facet normal 0.809787781 -0.252581038 -0.529572062
    outer loop
      vertex 4.37580552 -1.07908037 1.77008923
      vertex 4.31736348 -1.10573686 1.6934373
      vertex 4.31743806 -1.10457145 1.69299549
    endloop
  endfacet
  facet normal 0.583674576 0.254910748 0.770937417
    outer loop
      vertex 4.3732267 -1.07887035 1.77197221
      vertex 4.37573094 -1.08024579 1.77053104
      vertex 4.37580552 -1.07908037 1.77008923
    endloop
  endfacet
  facet normal -0.583674576 -0.254910748 -0.770937417
    outer loop
      vertex 4.31485924 -1.10436142 1.69487847
      vertex 4.31743806 -1.10457145 1.69299549
      vertex 4.31736348 -1.10573686 1.6934373
    endloop
  endfacet
  facet normal 0.725288459 -0.59054866 -0.353848739
    outer loop
      vertex 4.37573094 -1.08024579 1.77053104
      vertex 4.37527511 -1.0812018 1.77119225
      vertex 4.31690766 -1.10669288 1.69409851
    endloop
  endfacet
  facet normal 0.725288459 -0.59054866 -0.353848739
    outer loop
      vertex 4.37573094 -1.08024579 1.77053104
      vertex 4.31690766 -1.10669288 1.69409851
      vertex 4.31736348 -1.10573686 1.6934373
    endloop
  endfacet
  facet normal 0.583674576 0.254910748 0.770937417
    outer loop
      vertex 4.3732267 -1.07887035 1.77197221
      vertex 4.37527511 -1.0812018 1.77119225
      vertex 4.37573094 -1.08024579 1.77053104
    endloop
  endfacet
  facet normal -0.583674576 -0.254910748 -0.770937417
    outer loop
      vertex 4.31485924 -1.10436142 1.69487847
      vertex 4.31736348 -1.10573686 1.6934373
      vertex 4.31690766 -1.10669288 1.69409851
    endloop
  endfacet
  facet normal 0.530370545 -0.838610602 -0.124255153
    outer loop
      vertex 4.37527511 -1.0812018 1.77119225
      vertex 4.37450743 -1.08180288 1.77197221
      vertex 4.31613998 -1.10729395 1.69487847
    endloop
  endfacet
  facet normal 0.530370545 -0.838610602 -0.124255153
    outer loop
      vertex 4.37527511 -1.0812018 1.77119225
      vertex 4.31613998 -1.10729395 1.69487847
      vertex 4.31690766 -1.10669288 1.69409851
    endloop
  endfacet
  facet normal 0.583674576 0.254910748 0.770937417
    outer loop
      vertex 4.3732267 -1.07887035 1.77197221
      vertex 4.37450743 -1.08180288 1.77197221
      vertex 4.37527511 -1.0812018 1.77119225
    endloop
  endfacet
  facet normal -0.583674576 -0.254910748 -0.770937417
    outer loop
      vertex 4.31485924 -1.10436142 1.69487847
      vertex 4.31690766 -1.10669288 1.69409851
      vertex 4.31613998 -1.10729395 1.69487847
    endloop
  endfacet
  facet normal 0.254708523 -0.959001682 0.124255153
    outer loop
      vertex 4.37450743 -1.08180288 1.77197221
      vertex 4.37354478 -1.0819575 1.77275216
      vertex 4.31517732 -1.10744857 1.69565842
    endloop
  endfacet
  facet normal 0.254708523 -0.959001682 0.124255153
    outer loop
      vertex 4.37450743 -1.08180288 1.77197221
      vertex 4.31517732 -1.10744857 1.69565842
      vertex 4.31613998 -1.10729395 1.69487847
    endloop
  endfacet
  facet normal 0.583674576 0.254910748 0.770937417
    outer loop
      vertex 4.3732267 -1.07887035 1.77197221
      vertex 4.37354478 -1.0819575 1.77275216
      vertex 4.37450743 -1.08180288 1.77197221
    endloop
  endfacet
  facet normal -0.583674576 -0.254910748 -0.770937417
    outer loop
      vertex 4.31485924 -1.10436142 1.69487847
      vertex 4.31613998 -1.10729395 1.69487847
      vertex 4.31517732 -1.10744857 1.69565842
    endloop
  endfacet
  facet normal -0.0597305627 -0.933393448 0.353848739
    outer loop
      vertex 4.37354478 -1.0819575 1.77275216
      vertex 4.37253369 -1.08164213 1.77341337
      vertex 4.31416623 -1.10713321 1.69631963
    endloop
  endfacet
  facet normal -0.0597305627 -0.933393448 0.353848739
    outer loop
      vertex 4.37354478 -1.0819575 1.77275216
      vertex 4.31416623 -1.10713321 1.69631963
      vertex 4.31517732 -1.10744857 1.69565842
    endloop
  endfacet
  facet normal 0.583674576 0.254910748 0.770937417
    outer loop
      vertex 4.3732267 -1.07887035 1.77197221
      vertex 4.37253369 -1.08164213 1.77341337
      vertex 4.37354478 -1.0819575 1.77275216
    endloop
  endfacet
  facet normal -0.583674576 -0.254910748 -0.770937417
    outer loop
      vertex 4.31485924 -1.10436142 1.69487847
      vertex 4.31517732 -1.10744857 1.69565842
      vertex 4.31416623 -1.10713321 1.69631963
    endloop
  endfacet
  facet normal -0.365076212 -0.765684524 0.529572062
    outer loop
      vertex 4.37253369 -1.08164213 1.77341337
      vertex 4.37162811 -1.08090479 1.77385518
      vertex 4.31326066 -1.10639586 1.69676144
    endloop
  endfacet
  facet normal -0.365076212 -0.765684524 0.529572062
    outer loop
      vertex 4.37253369 -1.08164213 1.77341337
      vertex 4.31326066 -1.10639586 1.69676144
      vertex 4.31416623 -1.10713321 1.69631963
    endloop
  endfacet
  facet normal 0.583674576 0.254910748 0.770937417
    outer loop
      vertex 4.3732267 -1.07887035 1.77197221
      vertex 4.37162811 -1.08090479 1.77385518
      vertex 4.37253369 -1.08164213 1.77341337
    endloop
  endfacet
  facet normal -0.583674576 -0.254910748 -0.770937417
    outer loop
      vertex 4.31485924 -1.10436142 1.69487847
      vertex 4.31416623 -1.10713321 1.69631963
      vertex 4.31326066 -1.10639586 1.69676144
    endloop
  endfacet
  facet normal -0.614842317 -0.481407072 0.62467284
    outer loop
      vertex 4.37162811 -1.08090479 1.77385518
      vertex 4.3709659 -1.07985772 1.77401032
      vertex 4.31259845 -1.10534879 1.69691658
    endloop
  endfacet
  facet normal -0.614842317 -0.481407072 0.62467284
    outer loop
      vertex 4.37162811 -1.08090479 1.77385518
      vertex 4.31259845 -1.10534879 1.69691658
      vertex 4.31326066 -1.10639586 1.69676144
    endloop
  endfacet
  facet normal 0.583674576 0.254910748 0.770937417
    outer loop
      vertex 4.3732267 -1.07887035 1.77197221
      vertex 4.3709659 -1.07985772 1.77401032
      vertex 4.37162811 -1.08090479 1.77385518
    endloop
  endfacet
  facet normal -0.583674576 -0.254910748 -0.770937417
    outer loop
      vertex 4.31485924 -1.10436142 1.69487847
      vertex 4.31326066 -1.10639586 1.69676144
      vertex 4.31259845 -1.10534879 1.69691658
    endloop
  endfacet
  facet normal -0.771004253 -0.123839757 0.62467284
    outer loop
      vertex 4.3709659 -1.07985772 1.77401032
      vertex 4.37064788 -1.07866033 1.77385518
      vertex 4.31228042 -1.1041514 1.69676144
    endloop
  endfacet
  facet normal -0.771004253 -0.123839757 0.62467284
    outer loop
      vertex 4.3709659 -1.07985772 1.77401032
      vertex 4.31228042 -1.1041514 1.69676144
      vertex 4.31259845 -1.10534879 1.69691658
    endloop
  endfacet
  facet normal 0.583674576 0.254910748 0.770937417
    outer loop
      vertex 4.3732267 -1.07887035 1.77197221
      vertex 4.37064788 -1.07866033 1.77385518
      vertex 4.3709659 -1.07985772 1.77401032
    endloop
  endfacet
  facet normal -0.583674576 -0.254910748 -0.770937417
    outer loop
      vertex 4.31485924 -1.10436142 1.69487847
      vertex 4.31259845 -1.10534879 1.69691658
      vertex 4.31228042 -1.1041514 1.69676144
    endloop
  endfacet
  facet normal -0.809787781 0.252581038 0.529572062
    outer loop
      vertex 4.37064788 -1.07866033 1.77385518
      vertex 4.37072246 -1.07749491 1.77341337
      vertex 4.312355 -1.10298599 1.69631963
    endloop
  endfacet
  facet normal -0.809787781 0.252581038 0.529572062
    outer loop
      vertex 4.37064788 -1.07866033 1.77385518
      vertex 4.312355 -1.10298599 1.69631963
      vertex 4.31228042 -1.1041514 1.69676144
    endloop
  endfacet
  facet normal 0.583674576 0.254910748 0.770937417
    outer loop
      vertex 4.3732267 -1.07887035 1.77197221
      vertex 4.37072246 -1.07749491 1.77341337
      vertex 4.37064788 -1.07866033 1.77385518
    endloop
  endfacet
  facet normal -0.583674576 -0.254910748 -0.770937417
    outer loop
      vertex 4.31485924 -1.10436142 1.69487847
      vertex 4.31228042 -1.1041514 1.69676144
      vertex 4.312355 -1.10298599 1.69631963
    endloop
  endfacet
  facet normal -0.725288459 0.59054866 0.353848739
    outer loop
      vertex 4.37072246 -1.07749491 1.77341337
      vertex 4.37117828 -1.0765389 1.77275216
      vertex 4.31281083 -1.10202997 1.69565842
    endloop
  endfacet
  facet normal -0.725288459 0.59054866 0.353848739
    outer loop
      vertex 4.37072246 -1.07749491 1.77341337
      vertex 4.31281083 -1.10202997 1.69565842
      vertex 4.312355 -1.10298599 1.69631963
    endloop
  endfacet
  facet normal 0.583674576 0.254910748 0.770937417
    outer loop
      vertex 4.3732267 -1.07887035 1.77197221
      vertex 4.37117828 -1.0765389 1.77275216
      vertex 4.37072246 -1.07749491 1.77341337
    endloop
  endfacet
  facet normal -0.583674576 -0.254910748 -0.770937417
    outer loop
      vertex 4.31485924 -1.10436142 1.69487847
      vertex 4.312355 -1.10298599 1.69631963
      vertex 4.31281083 -1.10202997 1.69565842
    endloop
  endfacet
  facet normal -0.530370545 0.838610602 0.124255153
    outer loop
      vertex 4.37117828 -1.0765389 1.77275216
      vertex 4.37194596 -1.07593782 1.77197221
      vertex 4.31357851 -1.1014289 1.69487847
    endloop
  endfacet
  facet normal -0.530370545 0.838610602 0.124255153
    outer loop
      vertex 4.37117828 -1.0765389 1.77275216
      vertex 4.31357851 -1.1014289 1.69487847
      vertex 4.31281083 -1.10202997 1.69565842
    endloop
  endfacet
  facet normal 0.583674576 0.254910748 0.770937417
    outer loop
      vertex 4.3732267 -1.07887035 1.77197221
      vertex 4.37194596 -1.07593782 1.77197221
      vertex 4.37117828 -1.0765389 1.77275216
    endloop
  endfacet
  facet normal -0.583674576 -0.254910748 -0.770937417
    outer loop
      vertex 4.31485924 -1.10436142 1.69487847
      vertex 4.31281083 -1.10202997 1.69565842
      vertex 4.31357851 -1.1014289 1.69487847
    endloop
  endfacet
  facet normal -0.254708523 0.959001682 -0.124255153
    outer loop
      vertex 4.3960303 -1.08564284 1.75694699
      vertex 4.39699296 -1.08548821 1.75616703
      vertex 4.33862551 -1.11097929 1.67907329
    endloop
  endfacet
  facet normal -0.254708523 0.959001682 -0.124255153
    outer loop
      vertex 4.3960303 -1.08564284 1.75694699
      vertex 4.33862551 -1.11097929 1.67907329
      vertex 4.33766285 -1.11113391 1.67985325
    endloop
  endfacet
  facet normal 0.583674576 0.254910748 0.770937417
    outer loop
      vertex 4.39731104 -1.08857536 1.75694699
      vertex 4.39699296 -1.08548821 1.75616703
      vertex 4.3960303 -1.08564284 1.75694699
    endloop
  endfacet
  facet normal -0.583674576 -0.254910748 -0.770937417
    outer loop
      vertex 4.33894358 -1.11406644 1.67985325
      vertex 4.33766285 -1.11113391 1.67985325
      vertex 4.33862551 -1.11097929 1.67907329
    endloop
  endfacet
  facet normal 0.0597305627 0.933393448 -0.353848739
    outer loop
      vertex 4.39699296 -1.08548821 1.75616703
      vertex 4.39800405 -1.08580358 1.75550582
      vertex 4.33963659 -1.11129466 1.67841208
    endloop
  endfacet
  facet normal 0.0597305627 0.933393448 -0.353848739
    outer loop
      vertex 4.39699296 -1.08548821 1.75616703
      vertex 4.33963659 -1.11129466 1.67841208
      vertex 4.33862551 -1.11097929 1.67907329
    endloop
  endfacet
  facet normal 0.583674576 0.254910748 0.770937417
    outer loop
      vertex 4.39731104 -1.08857536 1.75694699
      vertex 4.39800405 -1.08580358 1.75550582
      vertex 4.39699296 -1.08548821 1.75616703
    endloop
  endfacet
  facet normal -0.583674576 -0.254910748 -0.770937417
    outer loop
      vertex 4.33894358 -1.11406644 1.67985325
      vertex 4.33862551 -1.11097929 1.67907329
      vertex 4.33963659 -1.11129466 1.67841208
    endloop
  endfacet
  facet normal 0.365076212 0.765684524 -0.529572062
    outer loop
      vertex 4.39800405 -1.08580358 1.75550582
      vertex 4.39890963 -1.08654093 1.75506401
      vertex 4.34054217 -1.112032 1.67797027
    endloop
  endfacet
  facet normal 0.365076212 0.765684524 -0.529572062
    outer loop
      vertex 4.39800405 -1.08580358 1.75550582
      vertex 4.34054217 -1.112032 1.67797027
      vertex 4.33963659 -1.11129466 1.67841208
    endloop
  endfacet
  facet normal 0.583674576 0.254910748 0.770937417
    outer loop
      vertex 4.39731104 -1.08857536 1.75694699
      vertex 4.39890963 -1.08654093 1.75506401
      vertex 4.39800405 -1.08580358 1.75550582
    endloop
  endfacet
  facet normal -0.583674576 -0.254910748 -0.770937417
    outer loop
      vertex 4.33894358 -1.11406644 1.67985325
      vertex 4.33963659 -1.11129466 1.67841208
      vertex 4.34054217 -1.112032 1.67797027
    endloop
  endfacet
  facet normal 0.614842317 0.481407072 -0.62467284
    outer loop
      vertex 4.39890963 -1.08654093 1.75506401
      vertex 4.39957183 -1.087588 1.75490887
      vertex 4.34120438 -1.11307907 1.67781513
    endloop
  endfacet
  facet normal 0.614842317 0.481407072 -0.62467284
    outer loop
      vertex 4.39890963 -1.08654093 1.75506401
      vertex 4.34120438 -1.11307907 1.67781513
      vertex 4.34054217 -1.112032 1.67797027
    endloop
  endfacet
  facet normal 0.583674576 0.254910748 0.770937417
    outer loop
      vertex 4.39731104 -1.08857536 1.75694699
      vertex 4.39957183 -1.087588 1.75490887
      vertex 4.39890963 -1.08654093 1.75506401
    endloop
  endfacet
  facet normal -0.583674576 -0.254910748 -0.770937417
    outer loop
      vertex 4.33894358 -1.11406644 1.67985325
      vertex 4.34054217 -1.112032 1.67797027
      vertex 4.34120438 -1.11307907 1.67781513
    endloop
  endfacet
  facet normal 0.771004253 0.123839757 -0.62467284
    outer loop
      vertex 4.39957183 -1.087588 1.75490887
      vertex 4.39988986 -1.08878539 1.75506401
      vertex 4.3415224 -1.11427646 1.67797027
    endloop
  endfacet
  facet normal 0.771004253 0.123839757 -0.62467284
    outer loop
      vertex 4.39957183 -1.087588 1.75490887
      vertex 4.3415224 -1.11427646 1.67797027
      vertex 4.34120438 -1.11307907 1.67781513
    endloop
  endfacet
  facet normal 0.583674576 0.254910748 0.770937417
    outer loop
      vertex 4.39731104 -1.08857536 1.75694699
      vertex 4.39988986 -1.08878539 1.75506401
      vertex 4.39957183 -1.087588 1.75490887
    endloop
  endfacet
  facet normal -0.583674576 -0.254910748 -0.770937417
    outer loop
      vertex 4.33894358 -1.11406644 1.67985325
      vertex 4.34120438 -1.11307907 1.67781513
      vertex 4.3415224 -1.11427646 1.67797027
    endloop
  endfacet
  facet normal 0.809787781 -0.252581038 -0.529572062
    outer loop
      vertex 4.39988986 -1.08878539 1.75506401
      vertex 4.39981528 -1.0899508 1.75550582
      vertex 4.34144782 -1.11544188 1.67841208
    endloop
  endfacet
  facet normal 0.809787781 -0.252581038 -0.529572062
    outer loop
      vertex 4.39988986 -1.08878539 1.75506401
      vertex 4.34144782 -1.11544188 1.67841208
      vertex 4.3415224 -1.11427646 1.67797027
    endloop
  endfacet
  facet normal 0.583674576 0.254910748 0.770937417
    outer loop
      vertex 4.39731104 -1.08857536 1.75694699
      vertex 4.39981528 -1.0899508 1.75550582
      vertex 4.39988986 -1.08878539 1.75506401
    endloop
  endfacet
  facet normal -0.583674576 -0.254910748 -0.770937417
    outer loop
      vertex 4.33894358 -1.11406644 1.67985325
      vertex 4.3415224 -1.11427646 1.67797027
      vertex 4.34144782 -1.11544188 1.67841208
    endloop
  endfacet
  facet normal 0.725288459 -0.59054866 -0.353848739
    outer loop
      vertex 4.39981528 -1.0899508 1.75550582
      vertex 4.39935945 -1.09090682 1.75616703
      vertex 4.340992 -1.11639789 1.67907329
    endloop
  endfacet
  facet normal 0.725288459 -0.59054866 -0.353848739
    outer loop
      vertex 4.39981528 -1.0899508 1.75550582
      vertex 4.340992 -1.11639789 1.67907329
      vertex 4.34144782 -1.11544188 1.67841208
    endloop
  endfacet
  facet normal 0.583674576 0.254910748 0.770937417
    outer loop
      vertex 4.39731104 -1.08857536 1.75694699
      vertex 4.39935945 -1.09090682 1.75616703
      vertex 4.39981528 -1.0899508 1.75550582
    endloop
  endfacet
  facet normal -0.583674576 -0.254910748 -0.770937417
    outer loop
      vertex 4.33894358 -1.11406644 1.67985325
      vertex 4.34144782 -1.11544188 1.67841208
      vertex 4.340992 -1.11639789 1.67907329
    endloop
  endfacet
  facet normal 0.530370545 -0.838610602 -0.124255153
    outer loop
      vertex 4.39935945 -1.09090682 1.75616703
      vertex 4.39859177 -1.09150789 1.75694699
      vertex 4.34022432 -1.11699897 1.67985325
    endloop
  endfacet
  facet normal 0.530370545 -0.838610602 -0.124255153
    outer loop
      vertex 4.39935945 -1.09090682 1.75616703
      vertex 4.34022432 -1.11699897 1.67985325
      vertex 4.340992 -1.11639789 1.67907329
    endloop
  endfacet
  facet normal 0.583674576 0.254910748 0.770937417
    outer loop
      vertex 4.39731104 -1.08857536 1.75694699
      vertex 4.39859177 -1.09150789 1.75694699
      vertex 4.39935945 -1.09090682 1.75616703
    endloop
  endfacet
  facet normal -0.583674576 -0.254910748 -0.770937417
    outer loop
      vertex 4.33894358 -1.11406644 1.67985325
      vertex 4.340992 -1.11639789 1.67907329
      vertex 4.34022432 -1.11699897 1.67985325
    endloop
  endfacet
  facet normal 0.254708523 -0.959001682 0.124255153
    outer loop
      vertex 4.39859177 -1.09150789 1.75694699
      vertex 4.39762912 -1.09166252 1.75772694
      vertex 4.33926166 -1.11715359 1.6806332
    endloop
  endfacet
  facet normal 0.254708523 -0.959001682 0.124255153
    outer loop
      vertex 4.39859177 -1.09150789 1.75694699
      vertex 4.33926166 -1.11715359 1.6806332
      vertex 4.34022432 -1.11699897 1.67985325
    endloop
  endfacet
  facet normal 0.583674576 0.254910748 0.770937417
    outer loop
      vertex 4.39731104 -1.08857536 1.75694699
      vertex 4.39762912 -1.09166252 1.75772694
      vertex 4.39859177 -1.09150789 1.75694699
    endloop
  endfacet
  facet normal -0.583674576 -0.254910748 -0.770937417
    outer loop
      vertex 4.33894358 -1.11406644 1.67985325
      vertex 4.34022432 -1.11699897 1.67985325
      vertex 4.33926166 -1.11715359 1.6806332
    endloop
  endfacet
  facet normal -0.0597305627 -0.933393448 0.353848739
    outer loop
      vertex 4.39762912 -1.09166252 1.75772694
      vertex 4.39661803 -1.09134715 1.75838815
      vertex 4.33825057 -1.11683822 1.68129441
    endloop
  endfacet
  facet normal -0.0597305627 -0.933393448 0.353848739
    outer loop
      vertex 4.39762912 -1.09166252 1.75772694
      vertex 4.33825057 -1.11683822 1.68129441
      vertex 4.33926166 -1.11715359 1.6806332
    endloop
  endfacet
  facet normal 0.583674576 0.254910748 0.770937417
    outer loop
      vertex 4.39731104 -1.08857536 1.75694699
      vertex 4.39661803 -1.09134715 1.75838815
      vertex 4.39762912 -1.09166252 1.75772694
    endloop
  endfacet
  facet normal -0.583674576 -0.254910748 -0.770937417
    outer loop
      vertex 4.33894358 -1.11406644 1.67985325
      vertex 4.33926166 -1.11715359 1.6806332
      vertex 4.33825057 -1.11683822 1.68129441
    endloop
  endfacet
  facet normal -0.365076212 -0.765684524 0.529572062
    outer loop
      vertex 4.39661803 -1.09134715 1.75838815
      vertex 4.39571245 -1.0906098 1.75882996
      vertex 4.337345 -1.11610088 1.68173622
    endloop
  endfacet
  facet normal -0.365076212 -0.765684524 0.529572062
    outer loop
      vertex 4.39661803 -1.09134715 1.75838815
      vertex 4.337345 -1.11610088 1.68173622
      vertex 4.33825057 -1.11683822 1.68129441
    endloop
  endfacet
  facet normal 0.583674576 0.254910748 0.770937417
    outer loop
      vertex 4.39731104 -1.08857536 1.75694699
      vertex 4.39571245 -1.0906098 1.75882996
      vertex 4.39661803 -1.09134715 1.75838815
    endloop
  endfacet
  facet normal -0.583674576 -0.254910748 -0.770937417
    outer loop
      vertex 4.33894358 -1.11406644 1.67985325
      vertex 4.33825057 -1.11683822 1.68129441
      vertex 4.337345 -1.11610088 1.68173622
    endloop
  endfacet
  facet normal -0.614842317 -0.481407072 0.62467284
    outer loop
      vertex 4.39571245 -1.0906098 1.75882996
      vertex 4.39505024 -1.08956273 1.7589851
      vertex 4.33668279 -1.11505381 1.68189136
    endloop
  endfacet
  facet normal -0.614842317 -0.481407072 0.62467284
    outer loop
      vertex 4.39571245 -1.0906098 1.75882996
      vertex 4.33668279 -1.11505381 1.68189136
      vertex 4.337345 -1.11610088 1.68173622
    endloop
  endfacet
  facet normal 0.583674576 0.254910748 0.770937417
    outer loop
      vertex 4.39731104 -1.08857536 1.75694699
      vertex 4.39505024 -1.08956273 1.7589851
      vertex 4.39571245 -1.0906098 1.75882996
    endloop
  endfacet
  facet normal -0.583674576 -0.254910748 -0.770937417
    outer loop
      vertex 4.33894358 -1.11406644 1.67985325
      vertex 4.337345 -1.11610088 1.68173622
      vertex 4.33668279 -1.11505381 1.68189136
    endloop
  endfacet
  facet normal -0.771004253 -0.123839757 0.62467284
    outer loop
      vertex 4.39505024 -1.08956273 1.7589851
      vertex 4.39473222 -1.08836534 1.75882996
      vertex 4.33636476 -1.11385642 1.68173622
    endloop
  endfacet
  facet normal -0.771004253 -0.123839757 0.62467284
    outer loop
      vertex 4.39505024 -1.08956273 1.7589851
      vertex 4.33636476 -1.11385642 1.68173622
      vertex 4.33668279 -1.11505381 1.68189136
    endloop
  endfacet
  facet normal 0.583674576 0.254910748 0.770937417
    outer loop
      vertex 4.39731104 -1.08857536 1.75694699
      vertex 4.39473222 -1.08836534 1.75882996
      vertex 4.39505024 -1.08956273 1.7589851
    endloop
  endfacet
  facet normal -0.583674576 -0.254910748 -0.770937417
    outer loop
      vertex 4.33894358 -1.11406644 1.67985325
      vertex 4.33668279 -1.11505381 1.68189136
      vertex 4.33636476 -1.11385642 1.68173622
    endloop
  endfacet
  facet normal -0.809787781 0.252581038 0.529572062
    outer loop
      vertex 4.39473222 -1.08836534 1.75882996
      vertex 4.3948068 -1.08719993 1.75838815
      vertex 4.33643934 -1.112691 1.68129441
    endloop
  endfacet
  facet normal -0.809787781 0.252581038 0.529572062
    outer loop
      vertex 4.39473222 -1.08836534 1.75882996
      vertex 4.33643934 -1.112691 1.68129441
      vertex 4.33636476 -1.11385642 1.68173622
    endloop
  endfacet
  facet normal 0.583674576 0.254910748 0.770937417
    outer loop
      vertex 4.39731104 -1.08857536 1.75694699
      vertex 4.3948068 -1.08719993 1.75838815
      vertex 4.39473222 -1.08836534 1.75882996
    endloop
  endfacet
  facet normal -0.583674576 -0.254910748 -0.770937417
    outer loop
      vertex 4.33894358 -1.11406644 1.67985325
      vertex 4.33636476 -1.11385642 1.68173622
      vertex 4.33643934 -1.112691 1.68129441
    endloop
  endfacet
  facet normal -0.725288459 0.59054866 0.353848739
    outer loop
      vertex 4.3948068 -1.08719993 1.75838815
      vertex 4.39526263 -1.08624391 1.75772694
      vertex 4.33689517 -1.11173499 1.6806332
    endloop
  endfacet
  facet normal -0.725288459 0.59054866 0.353848739
    outer loop
      vertex 4.3948068 -1.08719993 1.75838815
      vertex 4.33689517 -1.11173499 1.6806332
      vertex 4.33643934 -1.112691 1.68129441
    endloop
  endfacet
  facet normal 0.583674576 0.254910748 0.770937417
    outer loop
      vertex 4.39731104 -1.08857536 1.75694699
      vertex 4.39526263 -1.08624391 1.75772694
      vertex 4.3948068 -1.08719993 1.75838815
    endloop
  endfacet
  facet normal -0.583674576 -0.254910748 -0.770937417
    outer loop
      vertex 4.33894358 -1.11406644 1.67985325
      vertex 4.33643934 -1.112691 1.68129441
      vertex 4.33689517 -1.11173499 1.6806332
    endloop
  endfacet
  facet normal -0.530370545 0.838610602 0.124255153
    outer loop
      vertex 4.39526263 -1.08624391 1.75772694
      vertex 4.3960303 -1.08564284 1.75694699
      vertex 4.33766285 -1.11113391 1.67985325
    endloop
  endfacet
  facet normal -0.530370545 0.838610602 0.124255153
    outer loop
      vertex 4.39526263 -1.08624391 1.75772694
      vertex 4.33766285 -1.11113391 1.67985325
      vertex 4.33689517 -1.11173499 1.6806332
    endloop
  endfacet
  facet normal 0.583674576 0.254910748 0.770937417
    outer loop
      vertex 4.39731104 -1.08857536 1.75694699
      vertex 4.3960303 -1.08564284 1.75694699
      vertex 4.39526263 -1.08624391 1.75772694
    endloop
  endfacet
  facet normal -0.583674576 -0.254910748 -0.770937417
    outer loop
      vertex 4.33894358 -1.11406644 1.67985325
      vertex 4.33689517 -1.11173499 1.6806332
      vertex 4.33766285 -1.11113391 1.67985325
    endloop
  endfacet
endsolid b33_features
