solid beam
  facet normal -0.5882855005343336 0.2874707955803093 -0.7558311395738418
    outer loop
      vertex -0.7189863920211792 -0.0541120208799839 0.10558558255434036
      vertex -0.6886851787567139 -0.05935802310705185 0.08000601083040237
      vertex -0.6971740126609802 -0.08782105147838593 0.07578756660223007
    endloop
  endfacet
  facet normal -0.5882847298238206 0.28747066214925787 -0.7558317901885193
    outer loop
      vertex -0.7189863920211792 -0.0541120208799839 0.10558558255434036
      vertex -0.7577764987945557 -0.07732904702425003 0.12694670259952545
      vertex -0.7492876648902893 -0.048866018652915955 0.13116514682769775
    endloop
  endfacet
  facet normal -0.5882849879467712 0.2874713077433619 -0.7558313437406446
    outer loop
      vertex -0.7359641194343567 -0.11103807389736176 0.09714869409799576
      vertex -0.7189863920211792 -0.0541120208799839 0.10558558255434036
      vertex -0.6971740126609802 -0.08782105147838593 0.07578756660223007
    endloop
  endfacet
  facet normal -0.5882849015793649 0.2874712927907171 -0.7558314166498974
    outer loop
      vertex -0.7189863920211792 -0.0541120208799839 0.10558558255434036
      vertex -0.7359641194343567 -0.11103807389736176 0.09714869409799576
      vertex -0.7577764987945557 -0.07732904702425003 0.12694670259952545
    endloop
  endfacet
  facet normal -0.5882845183743736 0.287471675677998 -0.755831569282413
    outer loop
      vertex -0.7359641194343567 -0.11103807389736176 0.09714869409799576
      vertex -0.7662653923034668 -0.10579206794500351 0.12272826582193375
      vertex -0.7577764987945557 -0.07732904702425003 0.12694670259952545
    endloop
  endfacet
  facet normal -0.5882851495216695 0.2874719010055295 -0.7558309923418951
    outer loop
      vertex -0.7056629061698914 -0.11628407984972 0.07156912237405777
      vertex -0.7359641194343567 -0.11103807389736176 0.09714869409799576
      vertex -0.6971740126609802 -0.08782105147838593 0.07578756660223007
    endloop
  endfacet
  facet normal 0.7575309352171333 -0.13115115553007092 -0.6394890590089737
    outer loop
      vertex -0.6087085008621216 -0.13105060160160065 0.18944847583770752
      vertex -0.6129529476165771 -0.14528211951255798 0.18733926117420197
      vertex -0.6571856737136841 -0.12366734445095062 0.13050879538059235
    endloop
  endfacet
  facet normal 0.7575315389037962 -0.13114748779676813 -0.6394890960842436
    outer loop
      vertex -0.6087085008621216 -0.13105060160160065 0.18944847583770752
      vertex -0.6571856737136841 -0.12366734445095062 0.13050879538059235
      vertex -0.6529412865638733 -0.10943582653999329 0.1326180249452591
    endloop
  endfacet
  facet normal 0.7575306687127711 -0.1311504055432527 -0.639489528518976
    outer loop
      vertex -0.604464054107666 -0.11681909114122391 0.19155770540237427
      vertex -0.6087085008621216 -0.13105060160160065 0.18944847583770752
      vertex -0.6529412865638733 -0.10943582653999329 0.1326180249452591
    endloop
  endfacet
  facet normal 0.7575306687127711 -0.1311504055432527 -0.639489528518976
    outer loop
      vertex -0.604464054107666 -0.11681909114122391 0.19155770540237427
      vertex -0.6529412865638733 -0.10943582653999329 0.1326180249452591
      vertex -0.6486968398094177 -0.09520431607961655 0.13472725450992584
    endloop
  endfacet
  facet normal 0.7575302665332626 -0.13115260428196918 -0.639489554000768
    outer loop
      vertex -0.6571856737136841 -0.12366734445095062 0.13050879538059235
      vertex -0.6466858983039856 -0.14510378241539001 0.14734306931495667
      vertex -0.7056629061698914 -0.11628407984972 0.07156912237405777
    endloop
  endfacet
  facet normal 0.7575305842270811 -0.13115067413687445 -0.639489573514706
    outer loop
      vertex -0.7056629061698914 -0.11628407984972 0.07156912237405777
      vertex -0.6971740126609802 -0.08782105147838593 0.07578756660223007
      vertex -0.6571856737136841 -0.12366734445095062 0.13050879538059235
    endloop
  endfacet
  facet normal 0.757530684023689 -0.13115103278182286 -0.6394893817436402
    outer loop
      vertex -0.6129529476165771 -0.14528211951255798 0.18733926117420197
      vertex -0.6087085008621216 -0.13105060160160065 0.18944847583770752
      vertex -0.5287318825721741 -0.20274318754673004 0.29889094829559326
    endloop
  endfacet
  facet normal 0.7575306390070619 -0.13115214871324907 -0.6394892062055858
    outer loop
      vertex -0.6466858983039856 -0.14510378241539001 0.14734306931495667
      vertex -0.6571856737136841 -0.12366734445095062 0.13050879538059235
      vertex -0.6129529476165771 -0.14528211951255798 0.18733926117420197
    endloop
  endfacet
  facet normal 0.7575307779319336 -0.1311508041995558 -0.6394893173803995
    outer loop
      vertex -0.5877088904380798 -0.17392347753047943 0.22311700880527496
      vertex -0.6466858983039856 -0.14510378241539001 0.14734306931495667
      vertex -0.6129529476165771 -0.14528211951255798 0.18733926117420197
    endloop
  endfacet
  facet normal 0.757530748030899 -0.13115086040151352 -0.6394893412744963
    outer loop
      vertex -0.5287318825721741 -0.20274318754673004 0.29889094829559326
      vertex -0.5877088904380798 -0.17392347753047943 0.22311700880527496
      vertex -0.6129529476165771 -0.14528211951255798 0.18733926117420197
    endloop
  endfacet
  facet normal 0.7575311458854281 -0.13114978527208696 -0.6394890904750414
    outer loop
      vertex -0.4697548449039459 -0.23156289756298065 0.37466487288475037
      vertex -0.4317774772644043 -0.21750971674919128 0.4167703092098236
      vertex -0.41077783703804016 -0.26038259267807007 0.45043882727622986
    endloop
  endfacet
  facet normal 0.7575310922297556 -0.1311494914945854 -0.6394892142842641
    outer loop
      vertex -0.3518008291721344 -0.2892023026943207 0.526212751865387
      vertex -0.41077783703804016 -0.26038259267807007 0.45043882727622986
      vertex -0.3752463459968567 -0.24513421952724457 0.48940178751945496
    endloop
  endfacet
  facet normal 0.7575311210319824 -0.13114981567020886 -0.6394891136819283
    outer loop
      vertex -0.41077783703804016 -0.26038259267807007 0.45043882727622986
      vertex -0.4317774772644043 -0.21750971674919128 0.4167703092098236
      vertex -0.3752463459968567 -0.24513421952724457 0.48940178751945496
    endloop
  endfacet
  facet normal 0.7575310956707758 -0.13114897102291131 -0.6394893169486613
    outer loop
      vertex -0.4317774772644043 -0.21750971674919128 0.4167703092098236
      vertex -0.4697548449039459 -0.23156289756298065 0.37466487288475037
      vertex -0.5287318825721741 -0.20274318754673004 0.29889094829559326
    endloop
  endfacet
  facet normal 0.7575319294568906 -0.13114767864336185 -0.6394885942999907
    outer loop
      vertex -0.6971740126609802 -0.08782105147838593 0.07578756660223007
      vertex -0.6529412865638733 -0.10943582653999329 0.1326180249452591
      vertex -0.6571856737136841 -0.12366734445095062 0.13050879538059235
    endloop
  endfacet
  facet normal 0.7575311830239796 -0.13114954321834493 -0.6394890961227636
    outer loop
      vertex -0.6306865215301514 -0.08769965171813965 0.15452297031879425
      vertex -0.6486968398094177 -0.09520431607961655 0.13472725450992584
      vertex -0.6886851787567139 -0.05935802310705185 0.08000601083040237
    endloop
  endfacet
  facet normal 0.757531059265019 -0.13115059639122278 -0.6394890267354435
    outer loop
      vertex -0.6971740126609802 -0.08782105147838593 0.07578756660223007
      vertex -0.6486968398094177 -0.09520431607961655 0.13472725450992584
      vertex -0.6529412865638733 -0.10943582653999329 0.1326180249452591
    endloop
  endfacet
  facet normal 0.7575312613008482 -0.1311493689152249 -0.6394890391438184
    outer loop
      vertex -0.6486968398094177 -0.09520431607961655 0.13472725450992584
      vertex -0.6971740126609802 -0.08782105147838593 0.07578756660223007
      vertex -0.6886851787567139 -0.05935802310705185 0.08000601083040237
    endloop
  endfacet
  facet normal 0.7575311269973003 -0.13114886892049313 -0.639489300779204
    outer loop
      vertex -0.6306865215301514 -0.08769965171813965 0.15452297031879425
      vertex -0.604464054107666 -0.11681909114122391 0.19155770540237427
      vertex -0.6486968398094177 -0.09520431607961655 0.13472725450992584
    endloop
  endfacet
  facet normal 0.757530920253445 -0.1311503692328696 -0.6394892379939249
    outer loop
      vertex -0.4317774772644043 -0.21750971674919128 0.4167703092098236
      vertex -0.6087085008621216 -0.13105060160160065 0.18944847583770752
      vertex -0.5146891474723816 -0.14438289403915405 0.303556889295578
    endloop
  endfacet
  facet normal 0.7575308506740878 -0.13115052596396995 -0.6394892882733588
    outer loop
      vertex -0.4317774772644043 -0.21750971674919128 0.4167703092098236
      vertex -0.5146891474723816 -0.14438289403915405 0.303556889295578
      vertex -0.4566904902458191 -0.17272453010082245 0.3780738413333893
    endloop
  endfacet
  facet normal 0.7575308965861711 -0.131150516896269 -0.6394892357461487
    outer loop
      vertex -0.604464054107666 -0.11681909114122391 0.19155770540237427
      vertex -0.5146891474723816 -0.14438289403915405 0.303556889295578
      vertex -0.6087085008621216 -0.13105060160160065 0.18944847583770752
    endloop
  endfacet
  facet normal 0.7575309471296318 -0.13114921231256307 -0.6394894434239532
    outer loop
      vertex -0.6306865215301514 -0.08769965171813965 0.15452297031879425
      vertex -0.5726878046989441 -0.11604127287864685 0.22903992235660553
      vertex -0.604464054107666 -0.11681909114122391 0.19155770540237427
    endloop
  endfacet
  facet normal 0.757530783755584 -0.13115101357630884 -0.6394892675413384
    outer loop
      vertex -0.5726878046989441 -0.11604127287864685 0.22903992235660553
      vertex -0.5146891474723816 -0.14438289403915405 0.303556889295578
      vertex -0.604464054107666 -0.11681909114122391 0.19155770540237427
    endloop
  endfacet
  facet normal 0.7575308729511626 -0.1311504960679802 -0.6394892680154782
    outer loop
      vertex -0.4317774772644043 -0.21750971674919128 0.4167703092098236
      vertex -0.4566904902458191 -0.17272453010082245 0.3780738413333893
      vertex -0.3986918330192566 -0.20106615126132965 0.45259079337120056
    endloop
  endfacet
  facet normal 0.7575308859433364 -0.13115060391842603 -0.6394892305064535
    outer loop
      vertex -0.3752463459968567 -0.24513421952724457 0.48940178751945496
      vertex -0.4317774772644043 -0.21750971674919128 0.4167703092098236
      vertex -0.3986918330192566 -0.20106615126132965 0.45259079337120056
    endloop
  endfacet
  facet normal 0.7575307981423254 -0.13115077866889563 -0.6394892986754306
    outer loop
      vertex -0.5287318825721741 -0.20274318754673004 0.29889094829559326
      vertex -0.6087085008621216 -0.13105060160160065 0.18944847583770752
      vertex -0.4317774772644043 -0.21750971674919128 0.4167703092098236
    endloop
  endfacet
  facet normal -0.7778597499316546 0.16827567774349705 0.6054894761399495
    outer loop
      vertex -0.28357669711112976 -0.31583330035209656 0.6124918460845947
      vertex -0.28717702627182007 -0.3207813501358032 0.6092417240142822
      vertex -0.28322890400886536 -0.32279345393180847 0.6148729920387268
    endloop
  endfacet
  facet normal -0.7778578543022325 0.16827652503931206 0.6054916759304131
    outer loop
      vertex -0.28322890400886536 -0.32279345393180847 0.6148729920387268
      vertex -0.281428724527359 -0.32031941413879395 0.6164980530738831
      vertex -0.28357669711112976 -0.31583330035209656 0.6124918460845947
    endloop
  endfacet
  facet normal -0.777858860271789 0.16827845890706952 0.6054898461283519
    outer loop
      vertex -0.28322890400886536 -0.32279345393180847 0.6148729920387268
      vertex -0.27928078174591064 -0.3248055577278137 0.6205042600631714
      vertex -0.281428724527359 -0.32031941413879395 0.6164980530738831
    endloop
  endfacet
  facet normal 0.7596790831170411 -0.13220154691362385 -0.6367184948374727
    outer loop
      vertex -0.4012303352355957 -0.24061241745948792 0.51118004322052
      vertex -0.3881743252277374 -0.21438799798488617 0.521312415599823
      vertex -0.3362940549850464 -0.2615665793418884 0.5930072665214539
    endloop
  endfacet
  facet normal 0.7596792864167932 -0.13220109677614902 -0.6367183457388796
    outer loop
      vertex -0.3881743252277374 -0.21438799798488617 0.521312415599823
      vertex -0.3518237769603729 -0.2322053760290146 0.5683822631835938
      vertex -0.3362940549850464 -0.2615665793418884 0.5930072665214539
    endloop
  endfacet
  facet normal 0.7596789491019541 -0.13220140720659038 -0.6367186837402746
    outer loop
      vertex -0.4012303352355957 -0.24061241745948792 0.51118004322052
      vertex -0.4245249032974243 -0.19657061994075775 0.47424256801605225
      vertex -0.3881743252277374 -0.21438799798488617 0.521312415599823
    endloop
  endfacet
  facet normal 0.759679367915039 -0.13220082351349363 -0.6367183052391071
    outer loop
      vertex -0.3415852189064026 -0.3024716079235077 0.5951873660087585
      vertex -0.3779357671737671 -0.2846542298793793 0.5481175184249878
      vertex -0.4012303352355957 -0.24061241745948792 0.51118004322052
    endloop
  endfacet
  facet normal 0.7596794509940465 -0.1321997243663437 -0.6367184343293719
    outer loop
      vertex -0.3052346408367157 -0.3202889859676361 0.6422572135925293
      vertex -0.3415852189064026 -0.3024716079235077 0.5951873660087585
      vertex -0.32076436281204224 -0.2909277677536011 0.617632269859314
    endloop
  endfacet
  facet normal 0.7596795553110406 -0.13220044571389059 -0.6367181600955545
    outer loop
      vertex -0.4012303352355957 -0.24061241745948792 0.51118004322052
      vertex -0.32076436281204224 -0.2909277677536011 0.617632269859314
      vertex -0.3415852189064026 -0.3024716079235077 0.5951873660087585
    endloop
  endfacet
  facet normal 0.759678905838587 -0.13220230643868972 -0.6367185486509547
    outer loop
      vertex -0.3362940549850464 -0.2615665793418884 0.5930072665214539
      vertex -0.32076436281204224 -0.2909277677536011 0.617632269859314
      vertex -0.4012303352355957 -0.24061241745948792 0.51118004322052
    endloop
  endfacet
  facet normal 0.5308690271546977 0.6915756299203535 0.4897971254591955
    outer loop
      vertex -0.3986918330192566 -0.20106615126132965 0.45259079337120056
      vertex -0.4245249032974243 -0.19657061994075775 0.47424256801605225
      vertex -0.4012303352355957 -0.24061241745948792 0.51118004322052
    endloop
  endfacet
  facet normal 0.5308690289759685 0.6915756289366618 0.4897971248741388
    outer loop
      vertex -0.3752463459968567 -0.24513421952724457 0.48940178751945496
      vertex -0.3986918330192566 -0.20106615126132965 0.45259079337120056
      vertex -0.4012303352355957 -0.24061241745948792 0.51118004322052
    endloop
  endfacet
  facet normal 0.5308690909935934 0.6915755116831905 0.4897972232136162
    outer loop
      vertex -0.4012303352355957 -0.24061241745948792 0.51118004322052
      vertex -0.3779357671737671 -0.2846542298793793 0.5481175184249878
      vertex -0.3752463459968567 -0.24513421952724457 0.48940178751945496
    endloop
  endfacet
  facet normal 0.5308690583971721 0.6915755293437144 0.4897972336073994
    outer loop
      vertex -0.3518008291721344 -0.2892023026943207 0.526212751865387
      vertex -0.3752463459968567 -0.24513421952724457 0.48940178751945496
      vertex -0.3779357671737671 -0.2846542298793793 0.5481175184249878
    endloop
  endfacet
  facet normal -0.5308690506008519 -0.6915756050194557 -0.48979713520612195
    outer loop
      vertex -0.31434759497642517 -0.2787162959575653 0.5934352278709412
      vertex -0.30725711584091187 -0.27995020151138306 0.5874924063682556
      vertex -0.29650211334228516 -0.301835834980011 0.6067372560501099
    endloop
  endfacet
  facet normal -0.5308703614596959 -0.6915757122610061 -0.4897955629998437
    outer loop
      vertex -0.31434759497642517 -0.2787162959575653 0.5934352278709412
      vertex -0.29650211334228516 -0.301835834980011 0.6067372560501099
      vertex -0.3032912611961365 -0.3006543517112732 0.6124275326728821
    endloop
  endfacet
  facet normal -0.5308681629161355 -0.6915756088583696 -0.48979809190545304
    outer loop
      vertex -0.29650211334228516 -0.301835834980011 0.6067372560501099
      vertex -0.2931075394153595 -0.3024265766143799 0.6038921475410461
      vertex -0.28780537843704224 -0.3133562505245209 0.613577663898468
    endloop
  endfacet
  facet normal -0.5308666016132175 -0.6915755142918973 -0.48979991764345077
    outer loop
      vertex -0.29650211334228516 -0.301835834980011 0.6067372560501099
      vertex -0.28780537843704224 -0.3133562505245209 0.613577663898468
      vertex -0.2911246120929718 -0.31277865171432495 0.6163596510887146
    endloop
  endfacet
  facet normal -0.5308663750034598 -0.6915759457060067 -0.4897995541152815
    outer loop
      vertex -0.28780537843704224 -0.3133562505245209 0.613577663898468
      vertex -0.281428724527359 -0.32031941413879395 0.6164980530738831
      vertex -0.27928078174591064 -0.3248055577278137 0.6205042600631714
    endloop
  endfacet
  facet normal -0.5308734737092278 -0.691578001907209 -0.48978895678642065
    outer loop
      vertex -0.281428724527359 -0.32031941413879395 0.6164980530738831
      vertex -0.28780537843704224 -0.3133562505245209 0.613577663898468
      vertex -0.28357669711112976 -0.31583330035209656 0.6124918460845947
    endloop
  endfacet
  facet normal -0.5308728818527546 -0.6915746124210238 -0.48979438417366716
    outer loop
      vertex -0.2931075394153595 -0.3024265766143799 0.6038921475410461
      vertex -0.28357669711112976 -0.31583330035209656 0.6124918460845947
      vertex -0.28780537843704224 -0.3133562505245209 0.613577663898468
    endloop
  endfacet
  facet normal -0.5308663734675594 -0.691575945632411 -0.4897995558838719
    outer loop
      vertex -0.2911246120929718 -0.31277865171432495 0.6163596510887146
      vertex -0.28780537843704224 -0.3133562505245209 0.613577663898468
      vertex -0.27928078174591064 -0.3248055577278137 0.6205042600631714
    endloop
  endfacet
  facet normal -0.5308705207375645 -0.6915744342339506 -0.4897971948937828
    outer loop
      vertex -0.3032912611961365 -0.3006543517112732 0.6124275326728821
      vertex -0.2911246120929718 -0.31277865171432495 0.6163596510887146
      vertex -0.3052346408367157 -0.3202889859676361 0.6422572135925293
    endloop
  endfacet
  facet normal -0.5308681695746202 -0.6915766841795855 -0.4897965663738998
    outer loop
      vertex -0.27928078174591064 -0.3248055577278137 0.6205042600631714
      vertex -0.3052346408367157 -0.3202889859676361 0.6422572135925293
      vertex -0.2911246120929718 -0.31277865171432495 0.6163596510887146
    endloop
  endfacet
  facet normal -0.5308680566791375 -0.6915758097168286 -0.48979792344621986
    outer loop
      vertex -0.30725711584091187 -0.27995020151138306 0.5874924063682556
      vertex -0.2931075394153595 -0.3024265766143799 0.6038921475410461
      vertex -0.29650211334228516 -0.301835834980011 0.6067372560501099
    endloop
  endfacet
  facet normal -0.5308709385955019 -0.6915746210987159 -0.489796478148729
    outer loop
      vertex -0.2911246120929718 -0.31277865171432495 0.6163596510887146
      vertex -0.3032912611961365 -0.3006543517112732 0.6124275326728821
      vertex -0.29650211334228516 -0.301835834980011 0.6067372560501099
    endloop
  endfacet
  facet normal -0.5308692077251237 -0.6915751629889415 -0.48979758903665327
    outer loop
      vertex -0.32076436281204224 -0.2909277677536011 0.617632269859314
      vertex -0.3032912611961365 -0.3006543517112732 0.6124275326728821
      vertex -0.3052346408367157 -0.3202889859676361 0.6422572135925293
    endloop
  endfacet
  facet normal -0.5308729991281755 -0.6915746133844763 -0.48979425570209384
    outer loop
      vertex -0.2931075394153595 -0.3024265766143799 0.6038921475410461
      vertex -0.29409387707710266 -0.29606521129608154 0.5959791541099548
      vertex -0.28357669711112976 -0.31583330035209656 0.6124918460845947
    endloop
  endfacet
  facet normal -0.530869359066217 -0.6915754049247933 -0.48979708340059785
    outer loop
      vertex -0.30725711584091187 -0.27995020151138306 0.5874924063682556
      vertex -0.30461108684539795 -0.2762971520423889 0.5794665217399597
      vertex -0.29409387707710266 -0.29606521129608154 0.5959791541099548
    endloop
  endfacet
  facet normal -0.530868665451098 -0.6915755949462372 -0.4897975668752634
    outer loop
      vertex -0.31434759497642517 -0.2787162959575653 0.5934352278709412
      vertex -0.32564544677734375 -0.23676098883152008 0.5464411377906799
      vertex -0.31512826681137085 -0.2565290629863739 0.5629538297653198
    endloop
  endfacet
  facet normal -0.5308696458482498 -0.6915751878105165 -0.48979707912747145
    outer loop
      vertex -0.30725711584091187 -0.27995020151138306 0.5874924063682556
      vertex -0.31512826681137085 -0.2565290629863739 0.5629538297653198
      vertex -0.30461108684539795 -0.2762971520423889 0.5794665217399597
    endloop
  endfacet
  facet normal -0.5308692858511896 -0.6915759224791573 -0.4897964319867496
    outer loop
      vertex -0.3032912611961365 -0.3006543517112732 0.6124275326728821
      vertex -0.32076436281204224 -0.2909277677536011 0.617632269859314
      vertex -0.31434759497642517 -0.2787162959575653 0.5934352278709412
    endloop
  endfacet
  facet normal -0.5308698069554142 -0.6915756746295365 -0.48979621713915134
    outer loop
      vertex -0.3362940549850464 -0.2615665793418884 0.5930072665214539
      vertex -0.3518237769603729 -0.2322053760290146 0.5683822631835938
      vertex -0.31434759497642517 -0.2787162959575653 0.5934352278709412
    endloop
  endfacet
  facet normal -0.5308691942462732 -0.6915753334363619 -0.4897973629805468
    outer loop
      vertex -0.31512826681137085 -0.2565290629863739 0.5629538297653198
      vertex -0.30725711584091187 -0.27995020151138306 0.5874924063682556
      vertex -0.31434759497642517 -0.2787162959575653 0.5934352278709412
    endloop
  endfacet
  facet normal -0.5308697448115308 -0.6915755994344204 -0.48979639066724695
    outer loop
      vertex -0.32076436281204224 -0.2909277677536011 0.617632269859314
      vertex -0.3362940549850464 -0.2615665793418884 0.5930072665214539
      vertex -0.31434759497642517 -0.2787162959575653 0.5934352278709412
    endloop
  endfacet
  facet normal -0.5308687959628532 -0.6915755471841253 -0.48979749285794466
    outer loop
      vertex -0.31434759497642517 -0.2787162959575653 0.5934352278709412
      vertex -0.3518237769603729 -0.2322053760290146 0.5683822631835938
      vertex -0.32564544677734375 -0.23676098883152008 0.5464411377906799
    endloop
  endfacet
  facet normal -0.5308707252603796 -0.6915755977031394 -0.48979533044228213
    outer loop
      vertex -0.30725711584091187 -0.27995020151138306 0.5874924063682556
      vertex -0.29409387707710266 -0.29606521129608154 0.5959791541099548
      vertex -0.2931075394153595 -0.3024265766143799 0.6038921475410461
    endloop
  endfacet
  facet normal -0.2829625367023992 -0.9487674832048162 -0.1406145996550226
    outer loop
      vertex -0.6423059701919556 -0.16158556938171387 0.2497365027666092
      vertex -0.6967103481292725 -0.1350003182888031 0.17983749508857727
      vertex -0.6815597414970398 -0.13762332499027252 0.16704770922660828
    endloop
  endfacet
  facet normal -0.28296191127984016 -0.9487676198601199 -0.1406149361548153
    outer loop
      vertex -0.6423059701919556 -0.16158556938171387 0.2497365027666092
      vertex -0.6815597414970398 -0.13762332499027252 0.16704770922660828
      vertex -0.6271553635597229 -0.1642085611820221 0.2369467169046402
    endloop
  endfacet
  facet normal -0.28296191127984016 -0.9487676198601199 -0.1406149361548153
    outer loop
      vertex -0.6271553635597229 -0.1642085611820221 0.2369467169046402
      vertex -0.6815597414970398 -0.13762332499027252 0.16704770922660828
      vertex -0.6664091348648071 -0.14024631679058075 0.15425792336463928
    endloop
  endfacet
  facet normal -0.2829625367023992 -0.9487674832048162 -0.1406145996550226
    outer loop
      vertex -0.6271553635597229 -0.1642085611820221 0.2369467169046402
      vertex -0.6664091348648071 -0.14024631679058075 0.15425792336463928
      vertex -0.6120047569274902 -0.16683156788349152 0.2241569310426712
    endloop
  endfacet
  facet normal -0.28296162149050247 -0.9487677110764583 -0.1406149038409642
    outer loop
      vertex -0.19192026555538177 -0.37689051032066345 0.7961388230323792
      vertex -0.24632465839385986 -0.3503052890300751 0.726239800453186
      vertex -0.231174036860466 -0.3529282808303833 0.713450014591217
    endloop
  endfacet
  facet normal -0.2829630588623278 -0.948767397009232 -0.14061413048339533
    outer loop
      vertex -0.19192026555538177 -0.37689051032066345 0.7961388230323792
      vertex -0.231174036860466 -0.3529282808303833 0.713450014591217
      vertex -0.1767696589231491 -0.37951353192329407 0.7833490371704102
    endloop
  endfacet
  facet normal -0.28295967380424253 -0.9487680735578815 -0.1406163774169388
    outer loop
      vertex -0.231174036860466 -0.3529282808303833 0.713450014591217
      vertex -0.25837624073028564 -0.3396356701850891 0.6785004734992981
      vertex -0.2508009076118469 -0.34094715118408203 0.672105610370636
    endloop
  endfacet
  facet normal -0.28296366314186117 -0.9487672018878262 -0.14061423101266865
    outer loop
      vertex -0.231174036860466 -0.3529282808303833 0.713450014591217
      vertex -0.2508009076118469 -0.34094715118408203 0.672105610370636
      vertex -0.22359873354434967 -0.3542397916316986 0.7070550918579102
    endloop
  endfacet
  facet normal -0.28296297459035696 -0.9487673380229884 -0.1406146980644258
    outer loop
      vertex -0.25837624073028564 -0.3396356701850891 0.6785004734992981
      vertex -0.2855784296989441 -0.32634302973747253 0.6435509920120239
      vertex -0.27800312638282776 -0.32765454053878784 0.6371561288833618
    endloop
  endfacet
  facet normal -0.2829597267926755 -0.9487680476645278 -0.1406164454971563
    outer loop
      vertex -0.25837624073028564 -0.3396356701850891 0.6785004734992981
      vertex -0.27800312638282776 -0.32765454053878784 0.6371561288833618
      vertex -0.2508009076118469 -0.34094715118408203 0.672105610370636
    endloop
  endfacet
  facet normal -0.28296242395833604 -0.9487675217881415 -0.14061456619998972
    outer loop
      vertex -0.6664091348648071 -0.14024631679058075 0.15425792336463928
      vertex -0.7056629061698914 -0.11628407984972 0.07156912237405777
      vertex -0.6466858983039856 -0.14510378241539001 0.14734306931495667
    endloop
  endfacet
  facet normal -0.2829624541406634 -0.9487674974986343 -0.1406146693516432
    outer loop
      vertex -0.6120047569274902 -0.16683156788349152 0.2241569310426712
      vertex -0.6664091348648071 -0.14024631679058075 0.15425792336463928
      vertex -0.6466858983039856 -0.14510378241539001 0.14734306931495667
    endloop
  endfacet
  facet normal -0.2829618361762215 -0.9487676346984592 -0.14061498716876616
    outer loop
      vertex -0.6120047569274902 -0.16683156788349152 0.2241569310426712
      vertex -0.6466858983039856 -0.14510378241539001 0.14734306931495667
      vertex -0.5877088904380798 -0.17392347753047943 0.22311700880527496
    endloop
  endfacet
  facet normal -0.2829623287155847 -0.9487675425987802 -0.14061461744401046
    outer loop
      vertex -0.7359641194343567 -0.11103807389736176 0.09714869409799576
      vertex -0.7056629061698914 -0.11628407984972 0.07156912237405777
      vertex -0.6664091348648071 -0.14024631679058075 0.15425792336463928
    endloop
  endfacet
  facet normal -0.2829618361015869 -0.9487676085345892 -0.14061516385360173
    outer loop
      vertex -0.6120047569274902 -0.16683156788349152 0.2241569310426712
      vertex -0.5877088904380798 -0.17392347753047943 0.22311700880527496
      vertex -0.5287318825721741 -0.20274318754673004 0.29889094829559326
    endloop
  endfacet
  facet normal -0.28296228145204055 -0.948767543166315 -0.1406147087242678
    outer loop
      vertex -0.4697548449039459 -0.23156289756298065 0.37466487288475037
      vertex -0.6271553635597229 -0.1642085611820221 0.2369467169046402
      vertex -0.5287318825721741 -0.20274318754673004 0.29889094829559326
    endloop
  endfacet
  facet normal -0.28296170023385186 -0.948767662113469 -0.14061507575118068
    outer loop
      vertex -0.41077783703804016 -0.26038259267807007 0.45043882727622986
      vertex -0.3779357671737671 -0.2846542298793793 0.5481175184249878
      vertex -0.4697548449039459 -0.23156289756298065 0.37466487288475037
    endloop
  endfacet
  facet normal -0.28296243165762236 -0.9487675345359778 -0.14061446469310132
    outer loop
      vertex -0.6271553635597229 -0.1642085611820221 0.2369467169046402
      vertex -0.6120047569274902 -0.16683156788349152 0.2241569310426712
      vertex -0.5287318825721741 -0.20274318754673004 0.29889094829559326
    endloop
  endfacet
  facet normal -0.28296221086503126 -0.9487675397729256 -0.14061487366421654
    outer loop
      vertex -0.3518008291721344 -0.2892023026943207 0.526212751865387
      vertex -0.3779357671737671 -0.2846542298793793 0.5481175184249878
      vertex -0.41077783703804016 -0.26038259267807007 0.45043882727622986
    endloop
  endfacet
  facet normal -0.2829625300379794 -0.9487674864614514 -0.140614591092551
    outer loop
      vertex -0.6967103481292725 -0.1350003182888031 0.17983749508857727
      vertex -0.7359641194343567 -0.11103807389736176 0.09714869409799576
      vertex -0.6815597414970398 -0.13762332499027252 0.16704770922660828
    endloop
  endfacet
  facet normal -0.28296195110215344 -0.9487676075580103 -0.1406149390253825
    outer loop
      vertex -0.6967103481292725 -0.1350003182888031 0.17983749508857727
      vertex -0.6574565768241882 -0.15896256268024445 0.262526273727417
      vertex -0.7662653923034668 -0.10579206794500351 0.12272826582193375
    endloop
  endfacet
  facet normal -0.28296200062825244 -0.948767602137915 -0.14061487593397762
    outer loop
      vertex -0.7359641194343567 -0.11103807389736176 0.09714869409799576
      vertex -0.6967103481292725 -0.1350003182888031 0.17983749508857727
      vertex -0.7662653923034668 -0.10579206794500351 0.12272826582193375
    endloop
  endfacet
  facet normal -0.2829619945489892 -0.9487675791698387 -0.14061504313928014
    outer loop
      vertex -0.6815597414970398 -0.13762332499027252 0.16704770922660828
      vertex -0.7359641194343567 -0.11103807389736176 0.09714869409799576
      vertex -0.6664091348648071 -0.14024631679058075 0.15425792336463928
    endloop
  endfacet
  facet normal -0.2829619046154018 -0.9487676231167618 -0.14061492759232413
    outer loop
      vertex -0.6423059701919556 -0.16158556938171387 0.2497365027666092
      vertex -0.6271553635597229 -0.1642085611820221 0.2369467169046402
      vertex -0.5486478209495544 -0.21213304996490479 0.4023243188858032
    endloop
  endfacet
  facet normal -0.2829622571671529 -0.948767546084 -0.14061473790685908
    outer loop
      vertex -0.5486478209495544 -0.21213304996490479 0.4023243188858032
      vertex -0.6271553635597229 -0.1642085611820221 0.2369467169046402
      vertex -0.4697548449039459 -0.23156289756298065 0.37466487288475037
    endloop
  endfacet
  facet normal -0.28296239904324016 -0.9487675254316654 -0.1406145917533752
    outer loop
      vertex -0.6423059701919556 -0.16158556938171387 0.2497365027666092
      vertex -0.5486478209495544 -0.21213304996490479 0.4023243188858032
      vertex -0.6574565768241882 -0.15896256268024445 0.262526273727417
    endloop
  endfacet
  facet normal -0.28296195085883846 -0.9487675804252873 -0.14061512258682013
    outer loop
      vertex -0.3779357671737671 -0.2846542298793793 0.5481175184249878
      vertex -0.43983906507492065 -0.2653035521507263 0.5421223044395447
      vertex -0.5486478209495544 -0.21213304996490479 0.4023243188858032
    endloop
  endfacet
  facet normal -0.28296196205802693 -0.948767589758701 -0.14061503707547426
    outer loop
      vertex -0.43983906507492065 -0.2653035521507263 0.5421223044395447
      vertex -0.3779357671737671 -0.2846542298793793 0.5481175184249878
      vertex -0.3415852189064026 -0.3024716079235077 0.5951873660087585
    endloop
  endfacet
  facet normal -0.2829624573388163 -0.948767496944942 -0.14061466665183994
    outer loop
      vertex -0.6967103481292725 -0.1350003182888031 0.17983749508857727
      vertex -0.6423059701919556 -0.16158556938171387 0.2497365027666092
      vertex -0.6574565768241882 -0.15896256268024445 0.262526273727417
    endloop
  endfacet
  facet normal -0.28296225895824356 -0.9487675446426037 -0.14061474402811633
    outer loop
      vertex -0.3779357671737671 -0.2846542298793793 0.5481175184249878
      vertex -0.5486478209495544 -0.21213304996490479 0.4023243188858032
      vertex -0.4697548449039459 -0.23156289756298065 0.37466487288475037
    endloop
  endfacet
  facet normal -0.28294162823936725 -0.9487711050979978 -0.14063223364641483
    outer loop
      vertex -0.21339425444602966 -0.3568360507488251 0.7040382027626038
      vertex -0.27928078174591064 -0.3248055577278137 0.6205042600631714
      vertex -0.28322890400886536 -0.32279345393180847 0.6148729920387268
    endloop
  endfacet
  facet normal -0.2829618484501329 -0.948767746518916 -0.140614207984477
    outer loop
      vertex -0.3052346408367157 -0.3202889859676361 0.6422572135925293
      vertex -0.27928078174591064 -0.3248055577278137 0.6205042600631714
      vertex -0.2855784296989441 -0.32634302973747253 0.6435509920120239
    endloop
  endfacet
  facet normal -0.28296198602720535 -0.9487676565317439 -0.14061453830526371
    outer loop
      vertex -0.2508009076118469 -0.34094715118408203 0.672105610370636
      vertex -0.27800312638282776 -0.32765454053878784 0.6371561288833618
      vertex -0.27928078174591064 -0.3248055577278137 0.6205042600631714
    endloop
  endfacet
  facet normal -0.2829627738469573 -0.9487674361185313 -0.14061444014717692
    outer loop
      vertex -0.2855784296989441 -0.32634302973747253 0.6435509920120239
      vertex -0.27928078174591064 -0.3248055577278137 0.6205042600631714
      vertex -0.27800312638282776 -0.32765454053878784 0.6371561288833618
    endloop
  endfacet
  facet normal -0.28294162823936725 -0.9487711050979978 -0.14063223364641483
    outer loop
      vertex -0.21339425444602966 -0.3568360507488251 0.7040382027626038
      vertex -0.28322890400886536 -0.32279345393180847 0.6148729920387268
      vertex -0.28717702627182007 -0.3207813501358032 0.6092417240142822
    endloop
  endfacet
  facet normal -0.28296090354611014 -0.948767830598666 -0.1406155421191765
    outer loop
      vertex -0.1767696589231491 -0.37951353192329407 0.7833490371704102
      vertex -0.22359873354434967 -0.3542397916316986 0.7070550918579102
      vertex -0.21339425444602966 -0.3568360507488251 0.7040382027626038
    endloop
  endfacet
  facet normal -0.2829611066205788 -0.9487676444936339 -0.1406163891659111
    outer loop
      vertex -0.2508009076118469 -0.34094715118408203 0.672105610370636
      vertex -0.21339425444602966 -0.3568360507488251 0.7040382027626038
      vertex -0.22359873354434967 -0.3542397916316986 0.7070550918579102
    endloop
  endfacet
  facet normal -0.28296248054711487 -0.9487674829354842 -0.14061471447501303
    outer loop
      vertex -0.21339425444602966 -0.3568360507488251 0.7040382027626038
      vertex -0.13961148262023926 -0.3928907513618469 0.7988346219062805
      vertex -0.1767696589231491 -0.37951353192329407 0.7833490371704102
    endloop
  endfacet
  facet normal -0.2829632429253628 -0.9487673965377609 -0.14061376326704744
    outer loop
      vertex -0.27928078174591064 -0.3248055577278137 0.6205042600631714
      vertex -0.21339425444602966 -0.3568360507488251 0.7040382027626038
      vertex -0.2508009076118469 -0.34094715118408203 0.672105610370636
    endloop
  endfacet
  facet normal -0.2829627505999357 -0.9487674966739151 -0.1406140783422166
    outer loop
      vertex -0.13961148262023926 -0.3928907513618469 0.7988346219062805
      vertex -0.06582869589328766 -0.4289454221725464 0.893631100654602
      vertex -0.1767696589231491 -0.37951353192329407 0.7833490371704102
    endloop
  endfacet
  facet normal -0.282962679873395 -0.9487674628001024 -0.14061444922454816
    outer loop
      vertex -0.24632465839385986 -0.3503052890300751 0.726239800453186
      vertex -0.3052346408367157 -0.3202889859676361 0.6422572135925293
      vertex -0.25837624073028564 -0.3396356701850891 0.6785004734992981
    endloop
  endfacet
  facet normal -0.28296227781900485 -0.9487675599512383 -0.140614602782406
    outer loop
      vertex -0.3310302793979645 -0.31847402453422546 0.6819203495979309
      vertex -0.3415852189064026 -0.3024716079235077 0.5951873660087585
      vertex -0.3052346408367157 -0.3202889859676361 0.6422572135925293
    endloop
  endfacet
  facet normal -0.2829623857466365 -0.9487675170687648 -0.14061467493737156
    outer loop
      vertex -0.3052346408367157 -0.3202889859676361 0.6422572135925293
      vertex -0.24632465839385986 -0.3503052890300751 0.726239800453186
      vertex -0.3310302793979645 -0.31847402453422546 0.6819203495979309
    endloop
  endfacet
  facet normal -0.28296218627628306 -0.9487675849192987 -0.1406146185293242
    outer loop
      vertex -0.43983906507492065 -0.2653035521507263 0.5421223044395447
      vertex -0.3415852189064026 -0.3024716079235077 0.5951873660087585
      vertex -0.3310302793979645 -0.31847402453422546 0.6819203495979309
    endloop
  endfacet
  facet normal -0.28296154135319185 -0.9487677502362972 -0.14061480088020992
    outer loop
      vertex -0.231174036860466 -0.3529282808303833 0.713450014591217
      vertex -0.24632465839385986 -0.3503052890300751 0.726239800453186
      vertex -0.25837624073028564 -0.3396356701850891 0.6785004734992981
    endloop
  endfacet
  facet normal -0.28296168749306705 -0.9487675608556874 -0.14061578460125077
    outer loop
      vertex -0.25837624073028564 -0.3396356701850891 0.6785004734992981
      vertex -0.3052346408367157 -0.3202889859676361 0.6422572135925293
      vertex -0.2855784296989441 -0.32634302973747253 0.6435509920120239
    endloop
  endfacet
  facet normal -0.2829617514927563 -0.9487676475496104 -0.14061507086841651
    outer loop
      vertex -0.11341273784637451 -0.42481499910354614 0.9615163803100586
      vertex -0.2222215086221695 -0.371644526720047 0.8217183947563171
      vertex -0.19192026555538177 -0.37689051032066345 0.7961388230323792
    endloop
  endfacet
  facet normal -0.28296162149050247 -0.9487677110764583 -0.1406149038409642
    outer loop
      vertex -0.24632465839385986 -0.3503052890300751 0.726239800453186
      vertex -0.19192026555538177 -0.37689051032066345 0.7961388230323792
      vertex -0.2222215086221695 -0.371644526720047 0.8217183947563171
    endloop
  endfacet
  facet normal -0.2829628967313629 -0.9487674762361128 -0.14061392217683563
    outer loop
      vertex -0.06582869589328766 -0.4289454221725464 0.893631100654602
      vertex -0.19192026555538177 -0.37689051032066345 0.7961388230323792
      vertex -0.1767696589231491 -0.37951353192329407 0.7833490371704102
    endloop
  endfacet
  facet normal -0.28296223771172896 -0.9487675413105592 -0.1406148092651954
    outer loop
      vertex -0.19192026555538177 -0.37689051032066345 0.7961388230323792
      vertex -0.06582869589328766 -0.4289454221725464 0.893631100654602
      vertex -0.11341273784637451 -0.42481499910354614 0.9615163803100586
    endloop
  endfacet
  facet normal -0.2829623901835829 -0.9487675170086944 -0.14061466641410686
    outer loop
      vertex -0.3310302793979645 -0.31847402453422546 0.6819203495979309
      vertex -0.24632465839385986 -0.3503052890300751 0.726239800453186
      vertex -0.2222215086221695 -0.371644526720047 0.8217183947563171
    endloop
  endfacet
  facet normal -0.2829633763147232 -0.9487673420486507 -0.14061386249766025
    outer loop
      vertex -0.1767696589231491 -0.37951353192329407 0.7833490371704102
      vertex -0.231174036860466 -0.3529282808303833 0.713450014591217
      vertex -0.22359873354434967 -0.3542397916316986 0.7070550918579102
    endloop
  endfacet
  facet normal 0.28296250128634254 0.948767500511224 0.14061455415234003
    outer loop
      vertex -0.5191671252250671 -0.151755690574646 0.3623143136501312
      vertex -0.4692123234272003 -0.1761666089296341 0.4264965057373047
      vertex -0.45406171679496765 -0.17878961563110352 0.4137067198753357
    endloop
  endfacet
  facet normal 0.28296250128634254 0.948767500511224 0.14061455415234003
    outer loop
      vertex -0.5191671252250671 -0.151755690574646 0.3623143136501312
      vertex -0.45406171679496765 -0.17878961563110352 0.4137067198753357
      vertex -0.5040165185928345 -0.15437869727611542 0.34952452778816223
    endloop
  endfacet
  facet normal 0.28296218963585795 0.9487675683205786 0.14061472376510517
    outer loop
      vertex -0.6841822266578674 -0.07589993625879288 0.18255755305290222
      vertex -0.6342273950576782 -0.10031085461378098 0.2467397302389145
      vertex -0.6190767884254456 -0.1029338538646698 0.2339499443769455
    endloop
  endfacet
  facet normal 0.2829616676600652 0.9487676218211244 0.14061541316272153
    outer loop
      vertex -0.6841822266578674 -0.07589993625879288 0.18255755305290222
      vertex -0.6190767884254456 -0.1029338538646698 0.2339499443769455
      vertex -0.66903156042099 -0.0785229355096817 0.16976776719093323
    endloop
  endfacet
  facet normal 0.28296193540408987 0.9487675754672297 0.14061518713996132
    outer loop
      vertex -0.66903156042099 -0.0785229355096817 0.16976776719093323
      vertex -0.6190767884254456 -0.1029338538646698 0.2339499443769455
      vertex -0.6039261221885681 -0.10555686056613922 0.2211601585149765
    endloop
  endfacet
  facet normal 0.2829624573802771 0.9487675219663533 0.14061449774166346
    outer loop
      vertex -0.66903156042099 -0.0785229355096817 0.16976776719093323
      vertex -0.6039261221885681 -0.10555686056613922 0.2211601585149765
      vertex -0.6538809537887573 -0.08114594221115112 0.15697798132896423
    endloop
  endfacet
  facet normal 0.282962046993024 0.948767600854534 0.1406147912925568
    outer loop
      vertex -0.10224580764770508 -0.3459274470806122 0.8334660530090332
      vertex -0.17671236395835876 -0.3095386326313019 0.7377910614013672
      vertex -0.2697214186191559 -0.2832108438014984 0.7473140954971313
    endloop
  endfacet
  facet normal 0.2829620919888095 0.9487676004430221 0.1406147035231606
    outer loop
      vertex -0.10224580764770508 -0.3459274470806122 0.8334660530090332
      vertex -0.2697214186191559 -0.2832108438014984 0.7473140954971313
      vertex -0.14982984960079193 -0.34179702401161194 0.9013513326644897
    endloop
  endfacet
  facet normal 0.282962051406949 0.9487675877998877 0.14061487049367694
    outer loop
      vertex -0.25117892026901245 -0.2731498181819916 0.642116129398346
      vertex -0.2697214186191559 -0.2832108438014984 0.7473140954971313
      vertex -0.17671236395835876 -0.3095386326313019 0.7377910614013672
    endloop
  endfacet
  facet normal 0.28296203642853585 0.9487675885955111 0.14061489526673548
    outer loop
      vertex -0.3986918330192566 -0.20106615126132965 0.45259079337120056
      vertex -0.4566904902458191 -0.17272453010082245 0.3780738413333893
      vertex -0.45406171679496765 -0.17878961563110352 0.4137067198753357
    endloop
  endfacet
  facet normal 0.28296194698232335 0.9487675850711896 0.14061509904045075
    outer loop
      vertex -0.3518237769603729 -0.2322053760290146 0.5683822631835938
      vertex -0.25117892026901245 -0.2731498181819916 0.642116129398346
      vertex -0.32564544677734375 -0.23676098883152008 0.5464411377906799
    endloop
  endfacet
  facet normal 0.28296200646429304 0.9487675910038318 0.1406149393147359
    outer loop
      vertex -0.45406171679496765 -0.17878961563110352 0.4137067198753357
      vertex -0.4245249032974243 -0.19657061994075775 0.47424256801605225
      vertex -0.3986918330192566 -0.20106615126132965 0.45259079337120056
    endloop
  endfacet
  facet normal 0.2829621032505498 0.9487675712186534 0.140614878045968
    outer loop
      vertex -0.3518237769603729 -0.2322053760290146 0.5683822631835938
      vertex -0.2697214186191559 -0.2832108438014984 0.7473140954971313
      vertex -0.25117892026901245 -0.2731498181819916 0.642116129398346
    endloop
  endfacet
  facet normal 0.28296215179949497 0.94876756049398 0.14061485271229865
    outer loop
      vertex -0.3518237769603729 -0.2322053760290146 0.5683822631835938
      vertex -0.38961297273635864 -0.2246246337890625 0.593276858329773
      vertex -0.2697214186191559 -0.2832108438014984 0.7473140954971313
    endloop
  endfacet
  facet normal 0.28296216184047734 0.9487675549920619 0.14061486962959616
    outer loop
      vertex -0.38961297273635864 -0.2246246337890625 0.593276858329773
      vertex -0.3518237769603729 -0.2322053760290146 0.5683822631835938
      vertex -0.3881743252277374 -0.21438799798488617 0.521312415599823
    endloop
  endfacet
  facet normal 0.2829623543572204 0.9487675177446364 0.1406147335427553
    outer loop
      vertex -0.38961297273635864 -0.2246246337890625 0.593276858329773
      vertex -0.4245249032974243 -0.19657061994075775 0.47424256801605225
      vertex -0.509504497051239 -0.1660384237766266 0.43923962116241455
    endloop
  endfacet
  facet normal 0.2829622766658049 0.9487675135084535 0.14061491846561286
    outer loop
      vertex -0.4245249032974243 -0.19657061994075775 0.47424256801605225
      vertex -0.4692123234272003 -0.1761666089296341 0.4264965057373047
      vertex -0.509504497051239 -0.1660384237766266 0.43923962116241455
    endloop
  endfacet
  facet normal 0.282962239472555 0.9487675458387128 0.14061477516912102
    outer loop
      vertex -0.4692123234272003 -0.1761666089296341 0.4264965057373047
      vertex -0.5191671252250671 -0.151755690574646 0.3623143136501312
      vertex -0.509504497051239 -0.1660384237766266 0.43923962116241455
    endloop
  endfacet
  facet normal 0.2829625624197196 0.9487674706377898 0.140614632696733
    outer loop
      vertex -0.4692123234272003 -0.1761666089296341 0.4264965057373047
      vertex -0.4245249032974243 -0.19657061994075775 0.47424256801605225
      vertex -0.45406171679496765 -0.17878961563110352 0.4137067198753357
    endloop
  endfacet
  facet normal 0.2829619539913225 0.9487676163045832 0.14061487419591073
    outer loop
      vertex -0.3881743252277374 -0.21438799798488617 0.521312415599823
      vertex -0.4245249032974243 -0.19657061994075775 0.47424256801605225
      vertex -0.38961297273635864 -0.2246246337890625 0.593276858329773
    endloop
  endfacet
  facet normal 0.2829621074220277 0.9487675687004078 0.1406148866429217
    outer loop
      vertex -0.4566904902458191 -0.17272453010082245 0.3780738413333893
      vertex -0.5040165185928345 -0.15437869727611542 0.34952452778816223
      vertex -0.45406171679496765 -0.17878961563110352 0.4137067198753357
    endloop
  endfacet
  facet normal 0.28296175267871787 0.9487676278262425 0.14061520156068766
    outer loop
      vertex -0.6039261221885681 -0.10555686056613922 0.2211601585149765
      vertex -0.5040165185928345 -0.15437869727611542 0.34952452778816223
      vertex -0.5146891474723816 -0.14438289403915405 0.303556889295578
    endloop
  endfacet
  facet normal 0.282962064453546 0.9487675876886367 0.14061484499039412
    outer loop
      vertex -0.6039261221885681 -0.10555686056613922 0.2211601585149765
      vertex -0.5146891474723816 -0.14438289403915405 0.303556889295578
      vertex -0.5726878046989441 -0.11604127287864685 0.22903992235660553
    endloop
  endfacet
  facet normal 0.28296195547891567 0.9487675759918139 0.1406151432035894
    outer loop
      vertex -0.4566904902458191 -0.17272453010082245 0.3780738413333893
      vertex -0.5146891474723816 -0.14438289403915405 0.303556889295578
      vertex -0.5040165185928345 -0.15437869727611542 0.34952452778816223
    endloop
  endfacet
  facet normal 0.28296258977402877 0.948767481458953 0.1406145046373602
    outer loop
      vertex -0.6538809537887573 -0.08114594221115112 0.15697798132896423
      vertex -0.6306865215301514 -0.08769965171813965 0.15452297031879425
      vertex -0.6886851787567139 -0.05935802310705185 0.08000601083040237
    endloop
  endfacet
  facet normal 0.2829620700095543 0.9487675890312768 0.14061482475075723
    outer loop
      vertex -0.6538809537887573 -0.08114594221115112 0.15697798132896423
      vertex -0.6039261221885681 -0.10555686056613922 0.2211601585149765
      vertex -0.5726878046989441 -0.11604127287864685 0.22903992235660553
    endloop
  endfacet
  facet normal 0.282962573434568 0.9487675273791134 0.140614227680595
    outer loop
      vertex -0.6538809537887573 -0.08114594221115112 0.15697798132896423
      vertex -0.5726878046989441 -0.11604127287864685 0.22903992235660553
      vertex -0.6306865215301514 -0.08769965171813965 0.15452297031879425
    endloop
  endfacet
  facet normal 0.282962261556946 0.9487675542960753 0.14061467366396083
    outer loop
      vertex -0.6538809537887573 -0.08114594221115112 0.15697798132896423
      vertex -0.6886851787567139 -0.05935802310705185 0.08000601083040237
      vertex -0.7189863920211792 -0.0541120208799839 0.10558558255434036
    endloop
  endfacet
  facet normal 0.2829618113023029 0.9487676361108859 0.1406150276929235
    outer loop
      vertex -0.6039261221885681 -0.10555686056613922 0.2211601585149765
      vertex -0.6190767884254456 -0.1029338538646698 0.2339499443769455
      vertex -0.5191671252250671 -0.151755690574646 0.3623143136501312
    endloop
  endfacet
  facet normal 0.28296250854437316 0.9487674969645156 0.140614563477485
    outer loop
      vertex -0.6039261221885681 -0.10555686056613922 0.2211601585149765
      vertex -0.5191671252250671 -0.151755690574646 0.3623143136501312
      vertex -0.5040165185928345 -0.15437869727611542 0.34952452778816223
    endloop
  endfacet
  facet normal 0.2829621823778187 0.9487675718672898 0.14061471443995155
    outer loop
      vertex -0.6342273950576782 -0.10031085461378098 0.2467397302389145
      vertex -0.5191671252250671 -0.151755690574646 0.3623143136501312
      vertex -0.6190767884254456 -0.1029338538646698 0.2339499443769455
    endloop
  endfacet
  facet normal 0.28296209954789825 0.9487675839173562 0.14061479981519776
    outer loop
      vertex -0.6841822266578674 -0.07589993625879288 0.18255755305290222
      vertex -0.6293960809707642 -0.10745222121477127 0.28520238399505615
      vertex -0.6342273950576782 -0.10031085461378098 0.2467397302389145
    endloop
  endfacet
  facet normal 0.28296210215258855 0.9487675832085243 0.14061479935641233
    outer loop
      vertex -0.5191671252250671 -0.151755690574646 0.3623143136501312
      vertex -0.6342273950576782 -0.10031085461378098 0.2467397302389145
      vertex -0.6293960809707642 -0.10745222121477127 0.28520238399505615
    endloop
  endfacet
  facet normal 0.28296210215258855 0.9487675832085243 0.14061479935641233
    outer loop
      vertex -0.509504497051239 -0.1660384237766266 0.43923962116241455
      vertex -0.5191671252250671 -0.151755690574646 0.3623143136501312
      vertex -0.6293960809707642 -0.10745222121477127 0.28520238399505615
    endloop
  endfacet
  facet normal 0.28296151907238337 0.9487676944300608 0.14061522225604128
    outer loop
      vertex -0.6841822266578674 -0.07589993625879288 0.18255755305290222
      vertex -0.66903156042099 -0.0785229355096817 0.16976776719093323
      vertex -0.7189863920211792 -0.0541120208799839 0.10558558255434036
    endloop
  endfacet
  facet normal 0.28296242563622614 0.9487675374783913 0.14061445695678912
    outer loop
      vertex -0.6538809537887573 -0.08114594221115112 0.15697798132896423
      vertex -0.7189863920211792 -0.0541120208799839 0.10558558255434036
      vertex -0.66903156042099 -0.0785229355096817 0.16976776719093323
    endloop
  endfacet
  facet normal 0.2829621066210486 0.9487675824349074 0.1406147955842464
    outer loop
      vertex -0.6293960809707642 -0.10745222121477127 0.28520238399505615
      vertex -0.6841822266578674 -0.07589993625879288 0.18255755305290222
      vertex -0.7492876648902893 -0.048866018652915955 0.13116514682769775
    endloop
  endfacet
  facet normal 0.28296195261280904 0.9487675982202274 0.14061499899003596
    outer loop
      vertex -0.7189863920211792 -0.0541120208799839 0.10558558255434036
      vertex -0.7492876648902893 -0.048866018652915955 0.13116514682769775
      vertex -0.6841822266578674 -0.07589993625879288 0.18255755305290222
    endloop
  endfacet
  facet normal -0.7575305712191557 0.13115104847223566 0.6394895121524771
    outer loop
      vertex -0.6719254851341248 -0.10297539830207825 0.23390445113182068
      vertex -0.7127287983894348 -0.08303646743297577 0.18148018419742584
      vertex -0.7169732451438904 -0.09726797789335251 0.1793709695339203
    endloop
  endfacet
  facet normal -0.7575306701556623 0.13115040624833832 0.6394895266651435
    outer loop
      vertex -0.6719254851341248 -0.10297539830207825 0.23390445113182068
      vertex -0.7169732451438904 -0.09726797789335251 0.1793709695339203
      vertex -0.6761699318885803 -0.11720690876245499 0.23179522156715393
    endloop
  endfacet
  facet normal -0.7575315219141884 0.13114755030623348 0.6394891033903922
    outer loop
      vertex -0.6761699318885803 -0.11720690876245499 0.23179522156715393
      vertex -0.7169732451438904 -0.09726797789335251 0.1793709695339203
      vertex -0.7212176322937012 -0.11149948835372925 0.17726173996925354
    endloop
  endfacet
  facet normal -0.7575309541854887 0.13115123561274825 0.6394890201153358
    outer loop
      vertex -0.6761699318885803 -0.11720690876245499 0.23179522156715393
      vertex -0.7212176322937012 -0.11149948835372925 0.17726173996925354
      vertex -0.6804143786430359 -0.13143841922283173 0.22968600690364838
    endloop
  endfacet
  facet normal -0.7575305555419126 0.1311508681688079 0.6394895677014046
    outer loop
      vertex -0.7577764987945557 -0.07732904702425003 0.12694670259952545
      vertex -0.7662653923034668 -0.10579206794500351 0.12272826582193375
      vertex -0.7212176322937012 -0.11149948835372925 0.17726173996925354
    endloop
  endfacet
  facet normal -0.7575319857041407 0.131147776940682 0.6394885075110097
    outer loop
      vertex -0.7577764987945557 -0.07732904702425003 0.12694670259952545
      vertex -0.7212176322937012 -0.11149948835372925 0.17726173996925354
      vertex -0.7169732451438904 -0.09726797789335251 0.1793709695339203
    endloop
  endfacet
  facet normal -0.7575314471675413 0.13114798434304645 0.6394891029212355
    outer loop
      vertex -0.7662653923034668 -0.10579206794500351 0.12272826582193375
      vertex -0.6574565768241882 -0.15896256268024445 0.262526273727417
      vertex -0.6804143786430359 -0.13143841922283173 0.22968600690364838
    endloop
  endfacet
  facet normal -0.7575300125393201 0.13115439291225411 0.6394894880465164
    outer loop
      vertex -0.7662653923034668 -0.10579206794500351 0.12272826582193375
      vertex -0.6804143786430359 -0.13143841922283173 0.22968600690364838
      vertex -0.7212176322937012 -0.11149948835372925 0.17726173996925354
    endloop
  endfacet
  facet normal -0.7575299250644562 0.13115073272219893 0.6394903423338539
    outer loop
      vertex -0.6761699318885803 -0.11720690876245499 0.23179522156715393
      vertex -0.6804143786430359 -0.13143841922283173 0.22968600690364838
      vertex -0.6574565768241882 -0.15896256268024445 0.262526273727417
    endloop
  endfacet
  facet normal -0.7575312431236179 0.1311493600327602 0.6394890624980099
    outer loop
      vertex -0.7127287983894348 -0.08303646743297577 0.18148018419742584
      vertex -0.7492876648902893 -0.048866018652915955 0.13116514682769775
      vertex -0.7577764987945557 -0.07732904702425003 0.12694670259952545
    endloop
  endfacet
  facet normal -0.7575309541854887 0.13115123561274825 0.6394890201153358
    outer loop
      vertex -0.7169732451438904 -0.09726797789335251 0.1793709695339203
      vertex -0.7127287983894348 -0.08303646743297577 0.18148018419742584
      vertex -0.7577764987945557 -0.07732904702425003 0.12694670259952545
    endloop
  endfacet
  facet normal -0.7575309017917685 0.1311505194400458 0.6394892290579696
    outer loop
      vertex -0.6761699318885803 -0.11720690876245499 0.23179522156715393
      vertex -0.6293960809707642 -0.10745222121477127 0.28520238399505615
      vertex -0.6719254851341248 -0.10297539830207825 0.23390445113182068
    endloop
  endfacet
  facet normal -0.757530915588266 0.13115006798417528 0.63948930530209
    outer loop
      vertex -0.6293960809707642 -0.10745222121477127 0.28520238399505615
      vertex -0.7492876648902893 -0.048866018652915955 0.13116514682769775
      vertex -0.7127287983894348 -0.08303646743297577 0.18148018419742584
    endloop
  endfacet
  facet normal -0.7575310657024116 0.13114939047812887 0.6394892664251558
    outer loop
      vertex -0.6293960809707642 -0.10745222121477127 0.28520238399505615
      vertex -0.7127287983894348 -0.08303646743297577 0.18148018419742584
      vertex -0.6719254851341248 -0.10297539830207825 0.23390445113182068
    endloop
  endfacet
  facet normal -0.7575313800943472 0.1311490639769735 0.6394889609604825
    outer loop
      vertex -0.5486478209495544 -0.21213304996490479 0.4023243188858032
      vertex -0.6761699318885803 -0.11720690876245499 0.23179522156715393
      vertex -0.6574565768241882 -0.15896256268024445 0.262526273727417
    endloop
  endfacet
  facet normal -0.7575309969448265 0.13114985905534715 0.6394892517764
    outer loop
      vertex -0.5486478209495544 -0.21213304996490479 0.4023243188858032
      vertex -0.43983906507492065 -0.2653035521507263 0.5421223044395447
      vertex -0.38961297273635864 -0.2246246337890625 0.593276858329773
    endloop
  endfacet
  facet normal -0.7575308931684633 0.13115063302910254 0.6394892159774516
    outer loop
      vertex -0.5486478209495544 -0.21213304996490479 0.4023243188858032
      vertex -0.38961297273635864 -0.2246246337890625 0.593276858329773
      vertex -0.509504497051239 -0.1660384237766266 0.43923962116241455
    endloop
  endfacet
  facet normal -0.7575310137096141 0.13115013065474238 0.6394891762159297
    outer loop
      vertex -0.2697214186191559 -0.2832108438014984 0.7473140954971313
      vertex -0.3310302793979645 -0.31847402453422546 0.6819203495979309
      vertex -0.2222215086221695 -0.371644526720047 0.8217183947563171
    endloop
  endfacet
  facet normal -0.7575309223601052 0.13115001896784795 0.6394893073327977
    outer loop
      vertex -0.13162130117416382 -0.38330602645874023 0.9314338564872742
      vertex -0.2222215086221695 -0.371644526720047 0.8217183947563171
      vertex -0.11341273784637451 -0.42481499910354614 0.9615163803100586
    endloop
  endfacet
  facet normal -0.7575310044173387 0.13115007164275866 0.6394891993259598
    outer loop
      vertex -0.43983906507492065 -0.2653035521507263 0.5421223044395447
      vertex -0.3310302793979645 -0.31847402453422546 0.6819203495979309
      vertex -0.2697214186191559 -0.2832108438014984 0.7473140954971313
    endloop
  endfacet
  facet normal -0.7575310219529767 0.1311499508631546 0.6394892033236143
    outer loop
      vertex -0.43983906507492065 -0.2653035521507263 0.5421223044395447
      vertex -0.2697214186191559 -0.2832108438014984 0.7473140954971313
      vertex -0.38961297273635864 -0.2246246337890625 0.593276858329773
    endloop
  endfacet
  facet normal -0.7575308041686878 0.13115044157204708 0.6394893606706825
    outer loop
      vertex -0.509504497051239 -0.1660384237766266 0.43923962116241455
      vertex -0.6293960809707642 -0.10745222121477127 0.28520238399505615
      vertex -0.5486478209495544 -0.21213304996490479 0.4023243188858032
    endloop
  endfacet
  facet normal -0.7575309354998226 0.13115015890559095 0.6394892630684286
    outer loop
      vertex -0.14982984960079193 -0.34179702401161194 0.9013513326644897
      vertex -0.2697214186191559 -0.2832108438014984 0.7473140954971313
      vertex -0.13162130117416382 -0.38330602645874023 0.9314338564872742
    endloop
  endfacet
  facet normal -0.7575308774564727 0.13115030888426665 0.6394893010673346
    outer loop
      vertex -0.13162130117416382 -0.38330602645874023 0.9314338564872742
      vertex -0.2697214186191559 -0.2832108438014984 0.7473140954971313
      vertex -0.2222215086221695 -0.371644526720047 0.8217183947563171
    endloop
  endfacet
  facet normal -0.757530904503293 0.13115027045916844 0.6394892769084636
    outer loop
      vertex -0.6761699318885803 -0.11720690876245499 0.23179522156715393
      vertex -0.5486478209495544 -0.21213304996490479 0.4023243188858032
      vertex -0.6293960809707642 -0.10745222121477127 0.28520238399505615
    endloop
  endfacet
  facet normal 0.757530605199025 -0.13115210630451296 -0.6394892549517064
    outer loop
      vertex -0.1957370787858963 -0.33285319805145264 0.7200360894203186
      vertex -0.19998151063919067 -0.34708473086357117 0.7179269194602966
      vertex -0.23458081483840942 -0.3301774263381958 0.6734735369682312
    endloop
  endfacet
  facet normal 0.7575309083390264 -0.13114977541175074 -0.6394893738917771
    outer loop
      vertex -0.1957370787858963 -0.33285319805145264 0.7200360894203186
      vertex -0.23458081483840942 -0.3301774263381958 0.6734735369682312
      vertex -0.23033638298511505 -0.31594592332839966 0.675582766532898
    endloop
  endfacet
  facet normal 0.7575303576200124 -0.13115308662024247 -0.6394893471779488
    outer loop
      vertex -0.23458081483840942 -0.3301774263381958 0.6734735369682312
      vertex -0.2367030382156372 -0.33729317784309387 0.6724189519882202
      vertex -0.2540026903152466 -0.3288395404815674 0.6501922607421875
    endloop
  endfacet
  facet normal 0.7575303576200124 -0.13115308662024247 -0.6394893471779488
    outer loop
      vertex -0.23458081483840942 -0.3301774263381958 0.6734735369682312
      vertex -0.2540026903152466 -0.3288395404815674 0.6501922607421875
      vertex -0.2518804669380188 -0.3217237889766693 0.6512468457221985
    endloop
  endfacet
  facet normal 0.7575302794272198 -0.13115304841081352 -0.6394894476404352
    outer loop
      vertex -0.2518804669380188 -0.3217237889766693 0.6512468457221985
      vertex -0.2540026903152466 -0.3288395404815674 0.6501922607421875
      vertex -0.27130234241485596 -0.3203858733177185 0.6279655694961548
    endloop
  endfacet
  facet normal 0.7575302794272198 -0.13115304841081352 -0.6394894476404352
    outer loop
      vertex -0.2518804669380188 -0.3217237889766693 0.6512468457221985
      vertex -0.27130234241485596 -0.3203858733177185 0.6279655694961548
      vertex -0.2691801190376282 -0.31327012181282043 0.6290201544761658
    endloop
  endfacet
  facet normal 0.7575314243485611 -0.1311492095240769 -0.6394888786880111
    outer loop
      vertex -0.2518804669380188 -0.3217237889766693 0.6512468457221985
      vertex -0.2691801190376282 -0.31327012181282043 0.6290201544761658
      vertex -0.264935702085495 -0.2990386188030243 0.6311293840408325
    endloop
  endfacet
  facet normal 0.7575312895990808 -0.13114996171868024 -0.6394888840468944
    outer loop
      vertex -0.23033638298511505 -0.31594592332839966 0.675582766532898
      vertex -0.23458081483840942 -0.3301774263381958 0.6734735369682312
      vertex -0.2518804669380188 -0.3217237889766693 0.6512468457221985
    endloop
  endfacet
  facet normal 0.7575312809305357 -0.13114940683670231 -0.6394890081136055
    outer loop
      vertex -0.264935702085495 -0.2990386188030243 0.6311293840408325
      vertex -0.23033638298511505 -0.31594592332839966 0.675582766532898
      vertex -0.2518804669380188 -0.3217237889766693 0.6512468457221985
    endloop
  endfacet
  facet normal 0.7575318649628168 -0.13114773214611045 -0.6394886597265733
    outer loop
      vertex -0.27130234241485596 -0.3203858733177185 0.6279655694961548
      vertex -0.27236345410346985 -0.32394376397132874 0.6274382472038269
      vertex -0.28101328015327454 -0.3197169303894043 0.6163249015808105
    endloop
  endfacet
  facet normal 0.7575317264204108 -0.13114879743845193 -0.6394886053691339
    outer loop
      vertex -0.27130234241485596 -0.3203858733177185 0.6279655694961548
      vertex -0.28101328015327454 -0.3197169303894043 0.6163249015808105
      vertex -0.27995216846466064 -0.31615906953811646 0.6168522238731384
    endloop
  endfacet
  facet normal 0.7575305433128544 -0.13115013182602284 -0.6394897332015178
    outer loop
      vertex -0.29529058933258057 -0.2678998112678528 0.5887852907180786
      vertex -0.26069125533103943 -0.28480708599090576 0.6332386136054993
      vertex -0.264935702085495 -0.2990386188030243 0.6311293840408325
    endloop
  endfacet
  facet normal 0.757529893431202 -0.13115434263396608 -0.6394896394519334
    outer loop
      vertex -0.27236345410346985 -0.32394376397132874 0.6274382472038269
      vertex -0.28717702627182007 -0.3207813501358032 0.6092417240142822
      vertex -0.28101328015327454 -0.3197169303894043 0.6163249015808105
    endloop
  endfacet
  facet normal 0.7575300163399059 -0.13114973524183604 -0.6394904387792347
    outer loop
      vertex -0.28357669711112976 -0.31583330035209656 0.6124918460845947
      vertex -0.28101328015327454 -0.3197169303894043 0.6163249015808105
      vertex -0.28717702627182007 -0.3207813501358032 0.6092417240142822
    endloop
  endfacet
  facet normal 0.7575300792257771 -0.13115336253714596 -0.6394896203718929
    outer loop
      vertex -0.21339425444602966 -0.3568360507488251 0.7040382027626038
      vertex -0.28717702627182007 -0.3207813501358032 0.6092417240142822
      vertex -0.27236345410346985 -0.32394376397132874 0.6274382472038269
    endloop
  endfacet
  facet normal 0.7575304087200796 -0.1311513904851185 -0.6394896345041168
    outer loop
      vertex -0.29409387707710266 -0.29606521129608154 0.5959791541099548
      vertex -0.2691801190376282 -0.31327012181282043 0.6290201544761658
      vertex -0.27995216846466064 -0.31615906953811646 0.6168522238731384
    endloop
  endfacet
  facet normal 0.7575304358128372 -0.13115312482969135 -0.6394892467153926
    outer loop
      vertex -0.2691801190376282 -0.31327012181282043 0.6290201544761658
      vertex -0.27130234241485596 -0.3203858733177185 0.6279655694961548
      vertex -0.27995216846466064 -0.31615906953811646 0.6168522238731384
    endloop
  endfacet
  facet normal 0.7575308986810801 -0.13114839294734923 -0.6394896688538156
    outer loop
      vertex -0.28357669711112976 -0.31583330035209656 0.6124918460845947
      vertex -0.27995216846466064 -0.31615906953811646 0.6168522238731384
      vertex -0.28101328015327454 -0.3197169303894043 0.6163249015808105
    endloop
  endfacet
  facet normal 0.7575318649628168 -0.13114773214611045 -0.6394886597265733
    outer loop
      vertex -0.2540026903152466 -0.3288395404815674 0.6501922607421875
      vertex -0.27236345410346985 -0.32394376397132874 0.6274382472038269
      vertex -0.27130234241485596 -0.3203858733177185 0.6279655694961548
    endloop
  endfacet
  facet normal 0.7575309647283933 -0.13114970664445008 -0.6394893211968002
    outer loop
      vertex -0.21339425444602966 -0.3568360507488251 0.7040382027626038
      vertex -0.19998151063919067 -0.34708473086357117 0.7179269194602966
      vertex -0.13961148262023926 -0.3928907513618469 0.7988346219062805
    endloop
  endfacet
  facet normal 0.7575310416308442 -0.13115000265102267 -0.639489169392512
    outer loop
      vertex -0.13961148262023926 -0.3928907513618469 0.7988346219062805
      vertex -0.08403725177049637 -0.3874364495277405 0.8635485768318176
      vertex -0.06582869589328766 -0.4289454221725464 0.893631100654602
    endloop
  endfacet
  facet normal 0.7575309976650164 -0.13114984914251018 -0.6394892529562494
    outer loop
      vertex -0.19998151063919067 -0.34708473086357117 0.7179269194602966
      vertex -0.21339425444602966 -0.3568360507488251 0.7040382027626038
      vertex -0.2367030382156372 -0.33729317784309387 0.6724189519882202
    endloop
  endfacet
  facet normal 0.7575319153952456 -0.13114770657879055 -0.6394886052282199
    outer loop
      vertex -0.27236345410346985 -0.32394376397132874 0.6274382472038269
      vertex -0.2367030382156372 -0.33729317784309387 0.6724189519882202
      vertex -0.21339425444602966 -0.3568360507488251 0.7040382027626038
    endloop
  endfacet
  facet normal 0.7575316482304348 -0.13114875922936226 -0.6394887058282418
    outer loop
      vertex -0.2367030382156372 -0.33729317784309387 0.6724189519882202
      vertex -0.27236345410346985 -0.32394376397132874 0.6274382472038269
      vertex -0.2540026903152466 -0.3288395404815674 0.6501922607421875
    endloop
  endfacet
  facet normal 0.7575303185236121 -0.1311530675155255 -0.6394893974092007
    outer loop
      vertex -0.19998151063919067 -0.34708473086357117 0.7179269194602966
      vertex -0.2367030382156372 -0.33729317784309387 0.6724189519882202
      vertex -0.23458081483840942 -0.3301774263381958 0.6734735369682312
    endloop
  endfacet
  facet normal 0.7575305036300531 -0.1311512391423864 -0.6394895531135866
    outer loop
      vertex -0.29409387707710266 -0.29606521129608154 0.5959791541099548
      vertex -0.27995216846466064 -0.31615906953811646 0.6168522238731384
      vertex -0.28357669711112976 -0.31583330035209656 0.6124918460845947
    endloop
  endfacet
  facet normal 0.7575314891385942 -0.13114750656640173 -0.6394891511862257
    outer loop
      vertex -0.264935702085495 -0.2990386188030243 0.6311293840408325
      vertex -0.29409387707710266 -0.29606521129608154 0.5959791541099548
      vertex -0.30461108684539795 -0.2762971520423889 0.5794665217399597
    endloop
  endfacet
  facet normal 0.7575307790920868 -0.13114965512125912 -0.6394895516657881
    outer loop
      vertex -0.29529058933258057 -0.2678998112678528 0.5887852907180786
      vertex -0.264935702085495 -0.2990386188030243 0.6311293840408325
      vertex -0.30461108684539795 -0.2762971520423889 0.5794665217399597
    endloop
  endfacet
  facet normal 0.7575310065195325 -0.13115067029011232 -0.6394890740614402
    outer loop
      vertex -0.29529058933258057 -0.2678998112678528 0.5887852907180786
      vertex -0.31512826681137085 -0.2565290629863739 0.5629538297653198
      vertex -0.32564544677734375 -0.23676098883152008 0.5464411377906799
    endloop
  endfacet
  facet normal 0.7575314500723197 -0.13114709146152667 -0.639489282593939
    outer loop
      vertex -0.29529058933258057 -0.2678998112678528 0.5887852907180786
      vertex -0.25117892026901245 -0.2731498181819916 0.642116129398346
      vertex -0.26069125533103943 -0.28480708599090576 0.6332386136054993
    endloop
  endfacet
  facet normal 0.7575308677797321 -0.13115095079763348 -0.6394891808824937
    outer loop
      vertex -0.25117892026901245 -0.2731498181819916 0.642116129398346
      vertex -0.29529058933258057 -0.2678998112678528 0.5887852907180786
      vertex -0.32564544677734375 -0.23676098883152008 0.5464411377906799
    endloop
  endfacet
  facet normal 0.7575310553939861 -0.13115052240001532 -0.6394890464956196
    outer loop
      vertex -0.30461108684539795 -0.2762971520423889 0.5794665217399597
      vertex -0.31512826681137085 -0.2565290629863739 0.5629538297653198
      vertex -0.29529058933258057 -0.2678998112678528 0.5887852907180786
    endloop
  endfacet
  facet normal 0.7575309983865678 -0.13115035420276244 -0.6394891485208641
    outer loop
      vertex -0.23033638298511505 -0.31594592332839966 0.675582766532898
      vertex -0.264935702085495 -0.2990386188030243 0.6311293840408325
      vertex -0.26069125533103943 -0.28480708599090576 0.6332386136054993
    endloop
  endfacet
  facet normal 0.7575310403253824 -0.1311500247327291 -0.6394891664103064
    outer loop
      vertex -0.08403725177049637 -0.3874364495277405 0.8635485768318176
      vertex -0.13961148262023926 -0.3928907513618469 0.7988346219062805
      vertex -0.1957370787858963 -0.33285319805145264 0.7200360894203186
    endloop
  endfacet
  facet normal 0.7575301040104815 -0.13115186139654955 -0.6394898988804196
    outer loop
      vertex -0.19998151063919067 -0.34708473086357117 0.7179269194602966
      vertex -0.1957370787858963 -0.33285319805145264 0.7200360894203186
      vertex -0.13961148262023926 -0.3928907513618469 0.7988346219062805
    endloop
  endfacet
  facet normal 0.7575309689881939 -0.13114957205573471 -0.6394893437528146
    outer loop
      vertex -0.1957370787858963 -0.33285319805145264 0.7200360894203186
      vertex -0.23033638298511505 -0.31594592332839966 0.675582766532898
      vertex -0.17671236395835876 -0.3095386326313019 0.7377910614013672
    endloop
  endfacet
  facet normal 0.7575309222995666 -0.13115050803738768 -0.6394892071032183
    outer loop
      vertex -0.17671236395835876 -0.3095386326313019 0.7377910614013672
      vertex -0.23033638298511505 -0.31594592332839966 0.675582766532898
      vertex -0.26069125533103943 -0.28480708599090576 0.6332386136054993
    endloop
  endfacet
  facet normal 0.75753109353833 -0.13114982565389743 -0.6394891442030695
    outer loop
      vertex -0.1957370787858963 -0.33285319805145264 0.7200360894203186
      vertex -0.17671236395835876 -0.3095386326313019 0.7377910614013672
      vertex -0.10224580764770508 -0.3459274470806122 0.8334660530090332
    endloop
  endfacet
  facet normal 0.757531086458615 -0.13114987004869752 -0.6394891434848916
    outer loop
      vertex -0.08403725177049637 -0.3874364495277405 0.8635485768318176
      vertex -0.1957370787858963 -0.33285319805145264 0.7200360894203186
      vertex -0.10224580764770508 -0.3459274470806122 0.8334660530090332
    endloop
  endfacet
  facet normal 0.7575316093204268 -0.1311474157086101 -0.6394890274534483
    outer loop
      vertex -0.17671236395835876 -0.3095386326313019 0.7377910614013672
      vertex -0.26069125533103943 -0.28480708599090576 0.6332386136054993
      vertex -0.25117892026901245 -0.2731498181819916 0.642116129398346
    endloop
  endfacet
  facet normal 0.7575312560443934 -0.131149127280568 -0.6394890949260581
    outer loop
      vertex -0.264935702085495 -0.2990386188030243 0.6311293840408325
      vertex -0.2691801190376282 -0.31327012181282043 0.6290201544761658
      vertex -0.29409387707710266 -0.29606521129608154 0.5959791541099548
    endloop
  endfacet
  facet normal 0.6682872782069342 0.6059219506343658 0.4315677276236175
    outer loop
      vertex -0.13162130117416382 -0.38330602645874023 0.9314338564872742
      vertex -0.11341273784637451 -0.42481499910354614 0.9615163803100586
      vertex -0.06582869589328766 -0.4289454221725464 0.893631100654602
    endloop
  endfacet
  facet normal 0.6682872818363114 0.6059218899487506 0.43156780720620125
    outer loop
      vertex -0.13162130117416382 -0.38330602645874023 0.9314338564872742
      vertex -0.06582869589328766 -0.4289454221725464 0.893631100654602
      vertex -0.08403725177049637 -0.3874364495277405 0.8635485768318176
    endloop
  endfacet
  facet normal 0.6682874841195371 0.6059216057812944 0.43156789293991393
    outer loop
      vertex -0.08403725177049637 -0.3874364495277405 0.8635485768318176
      vertex -0.10224580764770508 -0.3459274470806122 0.8334660530090332
      vertex -0.14982984960079193 -0.34179702401161194 0.9013513326644897
    endloop
  endfacet
  facet normal 0.6682874877488761 0.6059215450956661 0.43156797252249435
    outer loop
      vertex -0.08403725177049637 -0.3874364495277405 0.8635485768318176
      vertex -0.14982984960079193 -0.34179702401161194 0.9013513326644897
      vertex -0.13162130117416382 -0.38330602645874023 0.9314338564872742
    endloop
  endfacet
endsolid beam