solid a20_features
  facet normal 0.0525307846 -0.991963876 -0.115100759
    outer loop
      vertex 3.98406192 0.995964468 1.56223052
      vertex 3.98507094 0.996101735 1.56150803
      vertex 4.04960293 0.989213577 1.65032343
    endloop
  endfacet
  facet normal 0.0525307846 -0.991963876 -0.115100759
    outer loop
      vertex 3.98406192 0.995964468 1.56223052
      vertex 4.04960293 0.989213577 1.65032343
      vertex 4.04859391 0.98907631 1.65104592
    endloop
  endfacet
  facet normal -0.586654479 0.0626196166 -0.807412723
    outer loop
      vertex 3.98440156 0.999146393 1.56223052
      vertex 3.98507094 0.996101735 1.56150803
      vertex 3.98406192 0.995964468 1.56223052
    endloop
  endfacet
  facet normal 0.586654479 -0.0626196166 0.807412723
    outer loop
      vertex 4.04893355 0.992258235 1.65104592
      vertex 4.04859391 0.98907631 1.65104592
      vertex 4.04960293 0.989213577 1.65032343
    endloop
  endfacet
  facet normal 0.357790775 -0.874383518 -0.327779231
    outer loop
      vertex 3.98507094 0.996101735 1.56150803
      vertex 3.98597805 0.996702523 1.56089554
      vertex 4.05051004 0.989814365 1.64971094
    endloop
  endfacet
  facet normal 0.357790775 -0.874383518 -0.327779231
    outer loop
      vertex 3.98507094 0.996101735 1.56150803
      vertex 4.05051004 0.989814365 1.64971094
      vertex 4.04960293 0.989213577 1.65032343
    endloop
  endfacet
  facet normal -0.586654479 0.0626196166 -0.807412723
    outer loop
      vertex 3.98440156 0.999146393 1.56223052
      vertex 3.98597805 0.996702523 1.56089554
      vertex 3.98507094 0.996101735 1.56150803
    endloop
  endfacet
  facet normal 0.586654479 -0.0626196166 0.807412723
    outer loop
      vertex 4.04893355 0.992258235 1.65104592
      vertex 4.04960293 0.989213577 1.65032343
      vertex 4.05051004 0.989814365 1.64971094
    endloop
  endfacet
  facet normal 0.608580364 -0.623686195 -0.490556286
    outer loop
      vertex 3.98597805 0.996702523 1.56089554
      vertex 3.98664515 0.997675368 1.56048628
      vertex 4.05117714 0.99078721 1.64930168
    endloop
  endfacet
  facet normal 0.608580364 -0.623686195 -0.490556286
    outer loop
      vertex 3.98597805 0.996702523 1.56089554
      vertex 4.05117714 0.99078721 1.64930168
      vertex 4.05051004 0.989814365 1.64971094
    endloop
  endfacet
  facet normal -0.586654479 0.0626196166 -0.807412723
    outer loop
      vertex 3.98440156 0.999146393 1.56223052
      vertex 3.98664515 0.997675368 1.56048628
      vertex 3.98597805 0.996702523 1.56089554
    endloop
  endfacet
  facet normal 0.586654479 -0.0626196166 0.807412723
    outer loop
      vertex 4.04893355 0.992258235 1.65104592
      vertex 4.05051004 0.989814365 1.64971094
      vertex 4.05117714 0.99078721 1.64930168
    endloop
  endfacet
  facet normal 0.766719109 -0.278038303 -0.578650594
    outer loop
      vertex 3.98664515 0.997675368 1.56048628
      vertex 3.98697069 0.998872164 1.56034257
      vertex 4.05150268 0.991984006 1.64915797
    endloop
  endfacet
  facet normal 0.766719109 -0.278038303 -0.578650594
    outer loop
      vertex 3.98664515 0.997675368 1.56048628
      vertex 4.05150268 0.991984006 1.64915797
      vertex 4.05117714 0.99078721 1.64930168
    endloop
  endfacet
  facet normal -0.586654479 0.0626196166 -0.807412723
    outer loop
      vertex 3.98440156 0.999146393 1.56223052
      vertex 3.98697069 0.998872164 1.56034257
      vertex 3.98664515 0.997675368 1.56048628
    endloop
  endfacet
  facet normal 0.586654479 -0.0626196166 0.807412723
    outer loop
      vertex 4.04893355 0.992258235 1.65104592
      vertex 4.05117714 0.99078721 1.64930168
      vertex 4.05150268 0.991984006 1.64915797
    endloop
  endfacet
  facet normal 0.80813182 0.1099384 -0.578650594
    outer loop
      vertex 3.98697069 0.998872164 1.56034257
      vertex 3.9869051 1.00011071 1.56048628
      vertex 4.05143709 0.99322255 1.64930168
    endloop
  endfacet
  facet normal 0.80813182 0.1099384 -0.578650594
    outer loop
      vertex 3.98697069 0.998872164 1.56034257
      vertex 4.05143709 0.99322255 1.64930168
      vertex 4.05150268 0.991984006 1.64915797
    endloop
  endfacet
  facet normal -0.586654479 0.0626196166 -0.807412723
    outer loop
      vertex 3.98440156 0.999146393 1.56223052
      vertex 3.9869051 1.00011071 1.56048628
      vertex 3.98697069 0.998872164 1.56034257
    endloop
  endfacet
  facet normal 0.586654479 -0.0626196166 0.807412723
    outer loop
      vertex 4.04893355 0.992258235 1.65104592
      vertex 4.05150268 0.991984006 1.64915797
      vertex 4.05143709 0.99322255 1.64930168
    endloop
  endfacet
  facet normal 0.726513787 0.481177978 -0.490556286
    outer loop
      vertex 3.9869051 1.00011071 1.56048628
      vertex 3.98645837 1.00120244 1.56089554
      vertex 4.05099036 0.994314286 1.64971094
    endloop
  endfacet
  facet normal 0.726513787 0.481177978 -0.490556286
    outer loop
      vertex 3.9869051 1.00011071 1.56048628
      vertex 4.05099036 0.994314286 1.64971094
      vertex 4.05143709 0.99322255 1.64930168
    endloop
  endfacet
  facet normal -0.586654479 0.0626196166 -0.807412723
    outer loop
      vertex 3.98440156 0.999146393 1.56223052
      vertex 3.98645837 1.00120244 1.56089554
      vertex 3.9869051 1.00011071 1.56048628
    endloop
  endfacet
  facet normal 0.586654479 -0.0626196166 0.807412723
    outer loop
      vertex 4.04893355 0.992258235 1.65104592
      vertex 4.05143709 0.99322255 1.64930168
      vertex 4.05099036 0.994314286 1.64971094
    endloop
  endfacet
  facet normal 0.534290616 0.779162572 -0.327779231
    outer loop
      vertex 3.98645837 1.00120244 1.56089554
      vertex 3.98569851 1.00198116 1.56150803
      vertex 4.0502305 0.995093007 1.65032343
    endloop
  endfacet
  facet normal 0.534290616 0.779162572 -0.327779231
    outer loop
      vertex 3.98645837 1.00120244 1.56089554
      vertex 4.0502305 0.995093007 1.65032343
      vertex 4.05099036 0.994314286 1.64971094
    endloop
  endfacet
  facet normal -0.586654479 0.0626196166 -0.807412723
    outer loop
      vertex 3.98440156 0.999146393 1.56223052
      vertex 3.98569851 1.00198116 1.56150803
      vertex 3.98645837 1.00120244 1.56089554
    endloop
  endfacet
  facet normal 0.586654479 -0.0626196166 0.807412723
    outer loop
      vertex 4.04893355 0.992258235 1.65104592
      vertex 4.05099036 0.994314286 1.64971094
      vertex 4.0502305 0.995093007 1.65032343
    endloop
  endfacet
  facet normal 0.260726542 0.958526727 -0.115100759
    outer loop
      vertex 3.98569851 1.00198116 1.56150803
      vertex 3.9847412 1.00232832 1.56223052
      vertex 4.04927319 0.99544016 1.65104592
    endloop
  endfacet
  facet normal 0.260726542 0.958526727 -0.115100759
    outer loop
      vertex 3.98569851 1.00198116 1.56150803
      vertex 4.04927319 0.99544016 1.65104592
      vertex 4.0502305 0.995093007 1.65032343
    endloop
  endfacet
  facet normal -0.586654479 0.0626196166 -0.807412723
    outer loop
      vertex 3.98440156 0.999146393 1.56223052
      vertex 3.9847412 1.00232832 1.56223052
      vertex 3.98569851 1.00198116 1.56150803
    endloop
  endfacet
  facet normal 0.586654479 -0.0626196166 0.807412723
    outer loop
      vertex 4.04893355 0.992258235 1.65104592
      vertex 4.0502305 0.995093007 1.65032343
      vertex 4.04927319 0.99544016 1.65104592
    endloop
  endfacet
  facet normal -0.0525307846 0.991963876 0.115100759
    outer loop
      vertex 3.9847412 1.00232832 1.56223052
      vertex 3.98373218 1.00219105 1.56295302
      vertex 4.04826418 0.995302893 1.65176841
    endloop
  endfacet
  facet normal -0.0525307846 0.991963876 0.115100759
    outer loop
      vertex 3.9847412 1.00232832 1.56223052
      vertex 4.04826418 0.995302893 1.65176841
      vertex 4.04927319 0.99544016 1.65104592
    endloop
  endfacet
  facet normal -0.586654479 0.0626196166 -0.807412723
    outer loop
      vertex 3.98440156 0.999146393 1.56223052
      vertex 3.98373218 1.00219105 1.56295302
      vertex 3.9847412 1.00232832 1.56223052
    endloop
  endfacet
  facet normal 0.586654479 -0.0626196166 0.807412723
    outer loop
      vertex 4.04893355 0.992258235 1.65104592
      vertex 4.04927319 0.99544016 1.65104592
      vertex 4.04826418 0.995302893 1.65176841
    endloop
  endfacet
  facet normal -0.357790775 0.874383518 0.327779231
    outer loop
      vertex 3.98373218 1.00219105 1.56295302
      vertex 3.98282507 1.00159026 1.56356551
      vertex 4.04735707 0.994702105 1.65238091
    endloop
  endfacet
  facet normal -0.357790775 0.874383518 0.327779231
    outer loop
      vertex 3.98373218 1.00219105 1.56295302
      vertex 4.04735707 0.994702105 1.65238091
      vertex 4.04826418 0.995302893 1.65176841
    endloop
  endfacet
  facet normal -0.586654479 0.0626196166 -0.807412723
    outer loop
      vertex 3.98440156 0.999146393 1.56223052
      vertex 3.98282507 1.00159026 1.56356551
      vertex 3.98373218 1.00219105 1.56295302
    endloop
  endfacet
  facet normal 0.586654479 -0.0626196166 0.807412723
    outer loop
      vertex 4.04893355 0.992258235 1.65104592
      vertex 4.04826418 0.995302893 1.65176841
      vertex 4.04735707 0.994702105 1.65238091
    endloop
  endfacet
  facet normal -0.608580364 0.623686195 0.490556286
    outer loop
      vertex 3.98282507 1.00159026 1.56356551
      vertex 3.98215797 1.00061742 1.56397477
      vertex 4.04668996 0.993729259 1.65279017
    endloop
  endfacet
  facet normal -0.608580364 0.623686195 0.490556286
    outer loop
      vertex 3.98282507 1.00159026 1.56356551
      vertex 4.04668996 0.993729259 1.65279017
      vertex 4.04735707 0.994702105 1.65238091
    endloop
  endfacet
  facet normal -0.586654479 0.0626196166 -0.807412723
    outer loop
      vertex 3.98440156 0.999146393 1.56223052
      vertex 3.98215797 1.00061742 1.56397477
      vertex 3.98282507 1.00159026 1.56356551
    endloop
  endfacet
  facet normal 0.586654479 -0.0626196166 0.807412723
    outer loop
      vertex 4.04893355 0.992258235 1.65104592
      vertex 4.04735707 0.994702105 1.65238091
      vertex 4.04668996 0.993729259 1.65279017
    endloop
  endfacet
  facet normal -0.766719109 0.278038303 0.578650594
    outer loop
      vertex 3.98215797 1.00061742 1.56397477
      vertex 3.98183243 0.999420622 1.56411848
      vertex 4.04636443 0.992532464 1.65293388
    endloop
  endfacet
  facet normal -0.766719109 0.278038303 0.578650594
    outer loop
      vertex 3.98215797 1.00061742 1.56397477
      vertex 4.04636443 0.992532464 1.65293388
      vertex 4.04668996 0.993729259 1.65279017
    endloop
  endfacet
  facet normal -0.586654479 0.0626196166 -0.807412723
    outer loop
      vertex 3.98440156 0.999146393 1.56223052
      vertex 3.98183243 0.999420622 1.56411848
      vertex 3.98215797 1.00061742 1.56397477
    endloop
  endfacet
  facet normal 0.586654479 -0.0626196166 0.807412723
    outer loop
      vertex 4.04893355 0.992258235 1.65104592
      vertex 4.04668996 0.993729259 1.65279017
      vertex 4.04636443 0.992532464 1.65293388
    endloop
  endfacet
  facet normal -0.80813182 -0.1099384 0.578650594
    outer loop
      vertex 3.98183243 0.999420622 1.56411848
      vertex 3.98189802 0.998182077 1.56397477
      vertex 4.04643002 0.99129392 1.65279017
    endloop
  endfacet
  facet normal -0.80813182 -0.1099384 0.578650594
    outer loop
      vertex 3.98183243 0.999420622 1.56411848
      vertex 4.04643002 0.99129392 1.65279017
      vertex 4.04636443 0.992532464 1.65293388
    endloop
  endfacet
  facet normal -0.586654479 0.0626196166 -0.807412723
    outer loop
      vertex 3.98440156 0.999146393 1.56223052
      vertex 3.98189802 0.998182077 1.56397477
      vertex 3.98183243 0.999420622 1.56411848
    endloop
  endfacet
  facet normal 0.586654479 -0.0626196166 0.807412723
    outer loop
      vertex 4.04893355 0.992258235 1.65104592
      vertex 4.04636443 0.992532464 1.65293388
      vertex 4.04643002 0.99129392 1.65279017
    endloop
  endfacet
  facet normal -0.726513787 -0.481177978 0.490556286
    outer loop
      vertex 3.98189802 0.998182077 1.56397477
      vertex 3.98234475 0.997090341 1.56356551
      vertex 4.04687675 0.990202184 1.65238091
    endloop
  endfacet
  facet normal -0.726513787 -0.481177978 0.490556286
    outer loop
      vertex 3.98189802 0.998182077 1.56397477
      vertex 4.04687675 0.990202184 1.65238091
      vertex 4.04643002 0.99129392 1.65279017
    endloop
  endfacet
  facet normal -0.586654479 0.0626196166 -0.807412723
    outer loop
      vertex 3.98440156 0.999146393 1.56223052
      vertex 3.98234475 0.997090341 1.56356551
      vertex 3.98189802 0.998182077 1.56397477
    endloop
  endfacet
  facet normal 0.586654479 -0.0626196166 0.807412723
    outer loop
      vertex 4.04893355 0.992258235 1.65104592
      vertex 4.04643002 0.99129392 1.65279017
      vertex 4.04687675 0.990202184 1.65238091
    endloop
  endfacet
  facet normal -0.534290616 -0.779162572 0.327779231
    outer loop
      vertex 3.98234475 0.997090341 1.56356551
      vertex 3.98310461 0.99631162 1.56295302
      vertex 4.04763661 0.989423463 1.65176841
    endloop
  endfacet
  facet normal -0.534290616 -0.779162572 0.327779231
    outer loop
      vertex 3.98234475 0.997090341 1.56356551
      vertex 4.04763661 0.989423463 1.65176841
      vertex 4.04687675 0.990202184 1.65238091
    endloop
  endfacet
  facet normal -0.586654479 0.0626196166 -0.807412723
    outer loop
      vertex 3.98440156 0.999146393 1.56223052
      vertex 3.98310461 0.99631162 1.56295302
      vertex 3.98234475 0.997090341 1.56356551
    endloop
  endfacet
  facet normal 0.586654479 -0.0626196166 0.807412723
    outer loop
      vertex 4.04893355 0.992258235 1.65104592
      vertex 4.04687675 0.990202184 1.65238091
      vertex 4.04763661 0.989423463 1.65176841
    endloop
  endfacet
  facet normal -0.260726542 -0.958526727 0.115100759
    outer loop
      vertex 3.98310461 0.99631162 1.56295302
      vertex 3.98406192 0.995964468 1.56223052
      vertex 4.04859391 0.98907631 1.65104592
    endloop
  endfacet
  facet normal -0.260726542 -0.958526727 0.115100759
    outer loop
      vertex 3.98310461 0.99631162 1.56295302
      vertex 4.04859391 0.98907631 1.65104592
      vertex 4.04763661 0.989423463 1.65176841
    endloop
  endfacet
  facet normal -0.586654479 0.0626196166 -0.807412723
    outer loop
      vertex 3.98440156 0.999146393 1.56223052
      vertex 3.98406192 0.995964468 1.56223052
      vertex 3.98310461 0.99631162 1.56295302
    endloop
  endfacet
  facet normal 0.586654479 -0.0626196166 0.807412723
    outer loop
      vertex 4.04893355 0.992258235 1.65104592
      vertex 4.04763661 0.989423463 1.65176841
      vertex 4.04859391 0.98907631 1.65104592
    endloop
  endfacet
  facet normal 0.0525307846 -0.991963876 -0.115100759
    outer loop
      vertex 3.97477856 1.02308499 1.57107904
      vertex 3.97578757 1.02322226 1.57035655
      vertex 4.04031957 1.0163341 1.65917195
    endloop
  endfacet
  facet normal 0.0525307846 -0.991963876 -0.115100759
    outer loop
      vertex 3.97477856 1.02308499 1.57107904
      vertex 4.04031957 1.0163341 1.65917195
      vertex 4.03931055 1.01619684 1.65989444
    endloop
  endfacet
  facet normal -0.586654479 0.0626196166 -0.807412723
    outer loop
      vertex 3.9751182 1.02626692 1.57107904
      vertex 3.97578757 1.02322226 1.57035655
      vertex 3.97477856 1.02308499 1.57107904
    endloop
  endfacet
  facet normal 0.586654479 -0.0626196166 0.807412723
    outer loop
      vertex 4.03965019 1.01937876 1.65989444
      vertex 4.03931055 1.01619684 1.65989444
      vertex 4.04031957 1.0163341 1.65917195
    endloop
  endfacet
  facet normal 0.357790775 -0.874383518 -0.327779231
    outer loop
      vertex 3.97578757 1.02322226 1.57035655
      vertex 3.97669468 1.02382305 1.56974405
      vertex 4.04122668 1.01693489 1.65855945
    endloop
  endfacet
  facet normal 0.357790775 -0.874383518 -0.327779231
    outer loop
      vertex 3.97578757 1.02322226 1.57035655
      vertex 4.04122668 1.01693489 1.65855945
      vertex 4.04031957 1.0163341 1.65917195
    endloop
  endfacet
  facet normal -0.586654479 0.0626196166 -0.807412723
    outer loop
      vertex 3.9751182 1.02626692 1.57107904
      vertex 3.97669468 1.02382305 1.56974405
      vertex 3.97578757 1.02322226 1.57035655
    endloop
  endfacet
  facet normal 0.586654479 -0.0626196166 0.807412723
    outer loop
      vertex 4.03965019 1.01937876 1.65989444
      vertex 4.04031957 1.0163341 1.65917195
      vertex 4.04122668 1.01693489 1.65855945
    endloop
  endfacet
  facet normal 0.608580364 -0.623686195 -0.490556286
    outer loop
      vertex 3.97669468 1.02382305 1.56974405
      vertex 3.97736179 1.0247959 1.56933479
      vertex 4.04189378 1.01790774 1.65815019
    endloop
  endfacet
  facet normal 0.608580364 -0.623686195 -0.490556286
    outer loop
      vertex 3.97669468 1.02382305 1.56974405
      vertex 4.04189378 1.01790774 1.65815019
      vertex 4.04122668 1.01693489 1.65855945
    endloop
  endfacet
  facet normal -0.586654479 0.0626196166 -0.807412723
    outer loop
      vertex 3.9751182 1.02626692 1.57107904
      vertex 3.97736179 1.0247959 1.56933479
      vertex 3.97669468 1.02382305 1.56974405
    endloop
  endfacet
  facet normal 0.586654479 -0.0626196166 0.807412723
    outer loop
      vertex 4.03965019 1.01937876 1.65989444
      vertex 4.04122668 1.01693489 1.65855945
      vertex 4.04189378 1.01790774 1.65815019
    endloop
  endfacet
  facet normal 0.766719109 -0.278038303 -0.578650594
    outer loop
      vertex 3.97736179 1.0247959 1.56933479
      vertex 3.97768732 1.02599269 1.56919108
      vertex 4.04221932 1.01910453 1.65800648
    endloop
  endfacet
  facet normal 0.766719109 -0.278038303 -0.578650594
    outer loop
      vertex 3.97736179 1.0247959 1.56933479
      vertex 4.04221932 1.01910453 1.65800648
      vertex 4.04189378 1.01790774 1.65815019
    endloop
  endfacet
  facet normal -0.586654479 0.0626196166 -0.807412723
    outer loop
      vertex 3.9751182 1.02626692 1.57107904
      vertex 3.97768732 1.02599269 1.56919108
      vertex 3.97736179 1.0247959 1.56933479
    endloop
  endfacet
  facet normal 0.586654479 -0.0626196166 0.807412723
    outer loop
      vertex 4.03965019 1.01937876 1.65989444
      vertex 4.04189378 1.01790774 1.65815019
      vertex 4.04221932 1.01910453 1.65800648
    endloop
  endfacet
  facet normal 0.80813182 0.1099384 -0.578650594
    outer loop
      vertex 3.97768732 1.02599269 1.56919108
      vertex 3.97762174 1.02723123 1.56933479
      vertex 4.04215373 1.02034308 1.65815019
    endloop
  endfacet
  facet normal 0.80813182 0.1099384 -0.578650594
    outer loop
      vertex 3.97768732 1.02599269 1.56919108
      vertex 4.04215373 1.02034308 1.65815019
      vertex 4.04221932 1.01910453 1.65800648
    endloop
  endfacet
  facet normal -0.586654479 0.0626196166 -0.807412723
    outer loop
      vertex 3.9751182 1.02626692 1.57107904
      vertex 3.97762174 1.02723123 1.56933479
      vertex 3.97768732 1.02599269 1.56919108
    endloop
  endfacet
  facet normal 0.586654479 -0.0626196166 0.807412723
    outer loop
      vertex 4.03965019 1.01937876 1.65989444
      vertex 4.04221932 1.01910453 1.65800648
      vertex 4.04215373 1.02034308 1.65815019
    endloop
  endfacet
  facet normal 0.726513787 0.481177978 -0.490556286
    outer loop
      vertex 3.97762174 1.02723123 1.56933479
      vertex 3.97717501 1.02832297 1.56974405
      vertex 4.041707 1.02143481 1.65855945
    endloop
  endfacet
  facet normal 0.726513787 0.481177978 -0.490556286
    outer loop
      vertex 3.97762174 1.02723123 1.56933479
      vertex 4.041707 1.02143481 1.65855945
      vertex 4.04215373 1.02034308 1.65815019
    endloop
  endfacet
  facet normal -0.586654479 0.0626196166 -0.807412723
    outer loop
      vertex 3.9751182 1.02626692 1.57107904
      vertex 3.97717501 1.02832297 1.56974405
      vertex 3.97762174 1.02723123 1.56933479
    endloop
  endfacet
  facet normal 0.586654479 -0.0626196166 0.807412723
    outer loop
      vertex 4.03965019 1.01937876 1.65989444
      vertex 4.04215373 1.02034308 1.65815019
      vertex 4.041707 1.02143481 1.65855945
    endloop
  endfacet
  facet normal 0.534290616 0.779162572 -0.327779231
    outer loop
      vertex 3.97717501 1.02832297 1.56974405
      vertex 3.97641515 1.02910169 1.57035655
      vertex 4.04094714 1.02221353 1.65917195
    endloop
  endfacet
  facet normal 0.534290616 0.779162572 -0.327779231
    outer loop
      vertex 3.97717501 1.02832297 1.56974405
      vertex 4.04094714 1.02221353 1.65917195
      vertex 4.041707 1.02143481 1.65855945
    endloop
  endfacet
  facet normal -0.586654479 0.0626196166 -0.807412723
    outer loop
      vertex 3.9751182 1.02626692 1.57107904
      vertex 3.97641515 1.02910169 1.57035655
      vertex 3.97717501 1.02832297 1.56974405
    endloop
  endfacet
  facet normal 0.586654479 -0.0626196166 0.807412723
    outer loop
      vertex 4.03965019 1.01937876 1.65989444
      vertex 4.041707 1.02143481 1.65855945
      vertex 4.04094714 1.02221353 1.65917195
    endloop
  endfacet
  facet normal 0.260726542 0.958526727 -0.115100759
    outer loop
      vertex 3.97641515 1.02910169 1.57035655
      vertex 3.97545784 1.02944884 1.57107904
      vertex 4.03998983 1.02256069 1.65989444
    endloop
  endfacet
  facet normal 0.260726542 0.958526727 -0.115100759
    outer loop
      vertex 3.97641515 1.02910169 1.57035655
      vertex 4.03998983 1.02256069 1.65989444
      vertex 4.04094714 1.02221353 1.65917195
    endloop
  endfacet
  facet normal -0.586654479 0.0626196166 -0.807412723
    outer loop
      vertex 3.9751182 1.02626692 1.57107904
      vertex 3.97545784 1.02944884 1.57107904
      vertex 3.97641515 1.02910169 1.57035655
    endloop
  endfacet
  facet normal 0.586654479 -0.0626196166 0.807412723
    outer loop
      vertex 4.03965019 1.01937876 1.65989444
      vertex 4.04094714 1.02221353 1.65917195
      vertex 4.03998983 1.02256069 1.65989444
    endloop
  endfacet
  facet normal -0.0525307846 0.991963876 0.115100759
    outer loop
      vertex 3.97545784 1.02944884 1.57107904
      vertex 3.97444882 1.02931158 1.57180153
      vertex 4.03898081 1.02242342 1.66061693
    endloop
  endfacet
  facet normal -0.0525307846 0.991963876 0.115100759
    outer loop
      vertex 3.97545784 1.02944884 1.57107904
      vertex 4.03898081 1.02242342 1.66061693
      vertex 4.03998983 1.02256069 1.65989444
    endloop
  endfacet
  facet normal -0.586654479 0.0626196166 -0.807412723
    outer loop
      vertex 3.9751182 1.02626692 1.57107904
      vertex 3.97444882 1.02931158 1.57180153
      vertex 3.97545784 1.02944884 1.57107904
    endloop
  endfacet
  facet normal 0.586654479 -0.0626196166 0.807412723
    outer loop
      vertex 4.03965019 1.01937876 1.65989444
      vertex 4.03998983 1.02256069 1.65989444
      vertex 4.03898081 1.02242342 1.66061693
    endloop
  endfacet
  facet normal -0.357790775 0.874383518 0.327779231
    outer loop
      vertex 3.97444882 1.02931158 1.57180153
      vertex 3.97354171 1.02871079 1.57241403
      vertex 4.03807371 1.02182263 1.66122943
    endloop
  endfacet
  facet normal -0.357790775 0.874383518 0.327779231
    outer loop
      vertex 3.97444882 1.02931158 1.57180153
      vertex 4.03807371 1.02182263 1.66122943
      vertex 4.03898081 1.02242342 1.66061693
    endloop
  endfacet
  facet normal -0.586654479 0.0626196166 -0.807412723
    outer loop
      vertex 3.9751182 1.02626692 1.57107904
      vertex 3.97354171 1.02871079 1.57241403
      vertex 3.97444882 1.02931158 1.57180153
    endloop
  endfacet
  facet normal 0.586654479 -0.0626196166 0.807412723
    outer loop
      vertex 4.03965019 1.01937876 1.65989444
      vertex 4.03898081 1.02242342 1.66061693
      vertex 4.03807371 1.02182263 1.66122943
    endloop
  endfacet
  facet normal -0.608580364 0.623686195 0.490556286
    outer loop
      vertex 3.97354171 1.02871079 1.57241403
      vertex 3.97287461 1.02773794 1.57282329
      vertex 4.0374066 1.02084979 1.66163869
    endloop
  endfacet
  facet normal -0.608580364 0.623686195 0.490556286
    outer loop
      vertex 3.97354171 1.02871079 1.57241403
      vertex 4.0374066 1.02084979 1.66163869
      vertex 4.03807371 1.02182263 1.66122943
    endloop
  endfacet
  facet normal -0.586654479 0.0626196166 -0.807412723
    outer loop
      vertex 3.9751182 1.02626692 1.57107904
      vertex 3.97287461 1.02773794 1.57282329
      vertex 3.97354171 1.02871079 1.57241403
    endloop
  endfacet
  facet normal 0.586654479 -0.0626196166 0.807412723
    outer loop
      vertex 4.03965019 1.01937876 1.65989444
      vertex 4.03807371 1.02182263 1.66122943
      vertex 4.0374066 1.02084979 1.66163869
    endloop
  endfacet
  facet normal -0.766719109 0.278038303 0.578650594
    outer loop
      vertex 3.97287461 1.02773794 1.57282329
      vertex 3.97254907 1.02654115 1.572967
      vertex 4.03708106 1.01965299 1.6617824
    endloop
  endfacet
  facet normal -0.766719109 0.278038303 0.578650594
    outer loop
      vertex 3.97287461 1.02773794 1.57282329
      vertex 4.03708106 1.01965299 1.6617824
      vertex 4.0374066 1.02084979 1.66163869
    endloop
  endfacet
  facet normal -0.586654479 0.0626196166 -0.807412723
    outer loop
      vertex 3.9751182 1.02626692 1.57107904
      vertex 3.97254907 1.02654115 1.572967
      vertex 3.97287461 1.02773794 1.57282329
    endloop
  endfacet
  facet normal 0.586654479 -0.0626196166 0.807412723
    outer loop
      vertex 4.03965019 1.01937876 1.65989444
      vertex 4.0374066 1.02084979 1.66163869
      vertex 4.03708106 1.01965299 1.6617824
    endloop
  endfacet
  facet normal -0.80813182 -0.1099384 0.578650594
    outer loop
      vertex 3.97254907 1.02654115 1.572967
      vertex 3.97261466 1.0253026 1.57282329
      vertex 4.03714665 1.01841445 1.66163869
    endloop
  endfacet
  facet normal -0.80813182 -0.1099384 0.578650594
    outer loop
      vertex 3.97254907 1.02654115 1.572967
      vertex 4.03714665 1.01841445 1.66163869
      vertex 4.03708106 1.01965299 1.6617824
    endloop
  endfacet
  facet normal -0.586654479 0.0626196166 -0.807412723
    outer loop
      vertex 3.9751182 1.02626692 1.57107904
      vertex 3.97261466 1.0253026 1.57282329
      vertex 3.97254907 1.02654115 1.572967
    endloop
  endfacet
  facet normal 0.586654479 -0.0626196166 0.807412723
    outer loop
      vertex 4.03965019 1.01937876 1.65989444
      vertex 4.03708106 1.01965299 1.6617824
      vertex 4.03714665 1.01841445 1.66163869
    endloop
  endfacet
  facet normal -0.726513787 -0.481177978 0.490556286
    outer loop
      vertex 3.97261466 1.0253026 1.57282329
      vertex 3.97306139 1.02421087 1.57241403
      vertex 4.03759338 1.01732271 1.66122943
    endloop
  endfacet
  facet normal -0.726513787 -0.481177978 0.490556286
    outer loop
      vertex 3.97261466 1.0253026 1.57282329
      vertex 4.03759338 1.01732271 1.66122943
      vertex 4.03714665 1.01841445 1.66163869
    endloop
  endfacet
  facet normal -0.586654479 0.0626196166 -0.807412723
    outer loop
      vertex 3.9751182 1.02626692 1.57107904
      vertex 3.97306139 1.02421087 1.57241403
      vertex 3.97261466 1.0253026 1.57282329
    endloop
  endfacet
  facet normal 0.586654479 -0.0626196166 0.807412723
    outer loop
      vertex 4.03965019 1.01937876 1.65989444
      vertex 4.03714665 1.01841445 1.66163869
      vertex 4.03759338 1.01732271 1.66122943
    endloop
  endfacet
  facet normal -0.534290616 -0.779162572 0.327779231
    outer loop
      vertex 3.97306139 1.02421087 1.57241403
      vertex 3.97382125 1.02343215 1.57180153
      vertex 4.03835324 1.01654399 1.66061693
    endloop
  endfacet
  facet normal -0.534290616 -0.779162572 0.327779231
    outer loop
      vertex 3.97306139 1.02421087 1.57241403
      vertex 4.03835324 1.01654399 1.66061693
      vertex 4.03759338 1.01732271 1.66122943
    endloop
  endfacet
  facet normal -0.586654479 0.0626196166 -0.807412723
    outer loop
      vertex 3.9751182 1.02626692 1.57107904
      vertex 3.97382125 1.02343215 1.57180153
      vertex 3.97306139 1.02421087 1.57241403
    endloop
  endfacet
  facet normal 0.586654479 -0.0626196166 0.807412723
    outer loop
      vertex 4.03965019 1.01937876 1.65989444
      vertex 4.03759338 1.01732271 1.66122943
      vertex 4.03835324 1.01654399 1.66061693
    endloop
  endfacet
  facet normal -0.260726542 -0.958526727 0.115100759
    outer loop
      vertex 3.97382125 1.02343215 1.57180153
      vertex 3.97477856 1.02308499 1.57107904
      vertex 4.03931055 1.01619684 1.65989444
    endloop
  endfacet
  facet normal -0.260726542 -0.958526727 0.115100759
    outer loop
      vertex 3.97382125 1.02343215 1.57180153
      vertex 4.03931055 1.01619684 1.65989444
      vertex 4.03835324 1.01654399 1.66061693
    endloop
  endfacet
  facet normal -0.586654479 0.0626196166 -0.807412723
    outer loop
      vertex 3.9751182 1.02626692 1.57107904
      vertex 3.97477856 1.02308499 1.57107904
      vertex 3.97382125 1.02343215 1.57180153
    endloop
  endfacet
  facet normal 0.586654479 -0.0626196166 0.807412723
    outer loop
      vertex 4.03965019 1.01937876 1.65989444
      vertex 4.03835324 1.01654399 1.66061693
      vertex 4.03931055 1.01619684 1.65989444
    endloop
  endfacet
  facet normal 0.707903605 0.684458336 -0.174325193
    outer loop
      vertex 4.08787341 1.09847356 1.52738316
      vertex 4.08733846 1.09874815 1.52628891
      vertex 4.00311104 1.20301183 1.59363005
    endloop
  endfacet
  facet normal 0.707903605 0.684458336 -0.174325193
    outer loop
      vertex 4.08787341 1.09847356 1.52738316
      vertex 4.00311104 1.20301183 1.59363005
      vertex 4.003646 1.20273724 1.59472429
    endloop
  endfacet
  facet normal 0.561516083 -0.695091199 -0.44894088
    outer loop
      vertex 4.08538417 1.09646268 1.52738316
      vertex 4.08733846 1.09874815 1.52628891
      vertex 4.08787341 1.09847356 1.52738316
    endloop
  endfacet
  facet normal -0.561516083 0.695091199 0.44894088
    outer loop
      vertex 4.00115676 1.20072636 1.59472429
      vertex 4.003646 1.20273724 1.59472429
      vertex 4.00311104 1.20301183 1.59363005
    endloop
  endfacet
  facet normal 0.490055697 0.716516967 -0.49643615
    outer loop
      vertex 4.08733846 1.09874815 1.52628891
      vertex 4.08650598 1.0986748 1.52536126
      vertex 4.00227857 1.20293848 1.59270239
    endloop
  endfacet
  facet normal 0.490055697 0.716516967 -0.49643615
    outer loop
      vertex 4.08733846 1.09874815 1.52628891
      vertex 4.00227857 1.20293848 1.59270239
      vertex 4.00311104 1.20301183 1.59363005
    endloop
  endfacet
  facet normal 0.561516083 -0.695091199 -0.44894088
    outer loop
      vertex 4.08538417 1.09646268 1.52738316
      vertex 4.08650598 1.0986748 1.52536126
      vertex 4.08733846 1.09874815 1.52628891
    endloop
  endfacet
  facet normal -0.561516083 0.695091199 0.44894088
    outer loop
      vertex 4.00115676 1.20072636 1.59472429
      vertex 4.00311104 1.20301183 1.59363005
      vertex 4.00227857 1.20293848 1.59270239
    endloop
  endfacet
  facet normal 0.197601251 0.639492384 -0.742969202
    outer loop
      vertex 4.08650598 1.0986748 1.52536126
      vertex 4.08550271 1.09826467 1.52474142
      vertex 4.0012753 1.20252835 1.59208255
    endloop
  endfacet
  facet normal 0.197601251 0.639492384 -0.742969202
    outer loop
      vertex 4.08650598 1.0986748 1.52536126
      vertex 4.0012753 1.20252835 1.59208255
      vertex 4.00227857 1.20293848 1.59270239
    endloop
  endfacet
  facet normal 0.561516083 -0.695091199 -0.44894088
    outer loop
      vertex 4.08538417 1.09646268 1.52738316
      vertex 4.08550271 1.09826467 1.52474142
      vertex 4.08650598 1.0986748 1.52536126
    endloop
  endfacet
  facet normal -0.561516083 0.695091199 0.44894088
    outer loop
      vertex 4.00115676 1.20072636 1.59472429
      vertex 4.00227857 1.20293848 1.59270239
      vertex 4.0012753 1.20252835 1.59208255
    endloop
  endfacet
  facet normal -0.124936193 0.465110884 -0.876391929
    outer loop
      vertex 4.08550271 1.09826467 1.52474142
      vertex 4.0844814 1.0975802 1.52452376
      vertex 4.00025399 1.20184388 1.59186489
    endloop
  endfacet
  facet normal -0.124936193 0.465110884 -0.876391929
    outer loop
      vertex 4.08550271 1.09826467 1.52474142
      vertex 4.00025399 1.20184388 1.59186489
      vertex 4.0012753 1.20252835 1.59208255
    endloop
  endfacet
  facet normal 0.561516083 -0.695091199 -0.44894088
    outer loop
      vertex 4.08538417 1.09646268 1.52738316
      vertex 4.0844814 1.0975802 1.52452376
      vertex 4.08550271 1.09826467 1.52474142
    endloop
  endfacet
  facet normal -0.561516083 0.695091199 0.44894088
    outer loop
      vertex 4.00115676 1.20072636 1.59472429
      vertex 4.0012753 1.20252835 1.59208255
      vertex 4.00025399 1.20184388 1.59186489
    endloop
  endfacet
  facet normal -0.428453235 0.219920467 -0.876391929
    outer loop
      vertex 4.0844814 1.0975802 1.52452376
      vertex 4.08359753 1.0967256 1.52474142
      vertex 3.99937012 1.20098928 1.59208255
    endloop
  endfacet
  facet normal -0.428453235 0.219920467 -0.876391929
    outer loop
      vertex 4.0844814 1.0975802 1.52452376
      vertex 3.99937012 1.20098928 1.59208255
      vertex 4.00025399 1.20184388 1.59186489
    endloop
  endfacet
  facet normal 0.561516083 -0.695091199 -0.44894088
    outer loop
      vertex 4.08538417 1.09646268 1.52738316
      vertex 4.08359753 1.0967256 1.52474142
      vertex 4.0844814 1.0975802 1.52452376
    endloop
  endfacet
  facet normal -0.561516083 0.695091199 0.44894088
    outer loop
      vertex 4.00115676 1.20072636 1.59472429
      vertex 4.00025399 1.20184388 1.59186489
      vertex 3.99937012 1.20098928 1.59208255
    endloop
  endfacet
  facet normal -0.666742156 -0.0587508467 -0.742969202
    outer loop
      vertex 4.08359753 1.0967256 1.52474142
      vertex 4.08298566 1.09583097 1.52536126
      vertex 3.99875824 1.20009465 1.59270239
    endloop
  endfacet
  facet normal -0.666742156 -0.0587508467 -0.742969202
    outer loop
      vertex 4.08359753 1.0967256 1.52474142
      vertex 3.99875824 1.20009465 1.59270239
      vertex 3.99937012 1.20098928 1.59208255
    endloop
  endfacet
  facet normal 0.561516083 -0.695091199 -0.44894088
    outer loop
      vertex 4.08538417 1.09646268 1.52738316
      vertex 4.08298566 1.09583097 1.52536126
      vertex 4.08359753 1.0967256 1.52474142
    endloop
  endfacet
  facet normal -0.561516083 0.695091199 0.44894088
    outer loop
      vertex 4.00115676 1.20072636 1.59472429
      vertex 3.99937012 1.20098928 1.59208255
      vertex 3.99875824 1.20009465 1.59270239
    endloop
  endfacet
  facet normal -0.803525627 -0.328477877 -0.49643615
    outer loop
      vertex 4.08298566 1.09583097 1.52536126
      vertex 4.08273894 1.09503252 1.52628891
      vertex 3.99851152 1.1992962 1.59363005
    endloop
  endfacet
  facet normal -0.803525627 -0.328477877 -0.49643615
    outer loop
      vertex 4.08298566 1.09583097 1.52536126
      vertex 3.99851152 1.1992962 1.59363005
      vertex 3.99875824 1.20009465 1.59270239
    endloop
  endfacet
  facet normal 0.561516083 -0.695091199 -0.44894088
    outer loop
      vertex 4.08538417 1.09646268 1.52738316
      vertex 4.08273894 1.09503252 1.52628891
      vertex 4.08298566 1.09583097 1.52536126
    endloop
  endfacet
  facet normal -0.561516083 0.695091199 0.44894088
    outer loop
      vertex 4.00115676 1.20072636 1.59472429
      vertex 3.99875824 1.20009465 1.59270239
      vertex 3.99851152 1.1992962 1.59363005
    endloop
  endfacet
  facet normal -0.817979606 -0.548197128 -0.174325193
    outer loop
      vertex 4.08273894 1.09503252 1.52628891
      vertex 4.08289493 1.09445179 1.52738316
      vertex 3.99866752 1.19871547 1.59472429
    endloop
  endfacet
  facet normal -0.817979606 -0.548197128 -0.174325193
    outer loop
      vertex 4.08273894 1.09503252 1.52628891
      vertex 3.99866752 1.19871547 1.59472429
      vertex 3.99851152 1.1992962 1.59363005
    endloop
  endfacet
  facet normal 0.561516083 -0.695091199 -0.44894088
    outer loop
      vertex 4.08538417 1.09646268 1.52738316
      vertex 4.08289493 1.09445179 1.52738316
      vertex 4.08273894 1.09503252 1.52628891
    endloop
  endfacet
  facet normal -0.561516083 0.695091199 0.44894088
    outer loop
      vertex 4.00115676 1.20072636 1.59472429
      vertex 3.99851152 1.1992962 1.59363005
      vertex 3.99866752 1.19871547 1.59472429
    endloop
  endfacet
  facet normal -0.707903605 -0.684458336 0.174325193
    outer loop
      vertex 4.08289493 1.09445179 1.52738316
      vertex 4.08342989 1.0941772 1.5284774
      vertex 3.99920247 1.19844088 1.59581853
    endloop
  endfacet
  facet normal -0.707903605 -0.684458336 0.174325193
    outer loop
      vertex 4.08289493 1.09445179 1.52738316
      vertex 3.99920247 1.19844088 1.59581853
      vertex 3.99866752 1.19871547 1.59472429
    endloop
  endfacet
  facet normal 0.561516083 -0.695091199 -0.44894088
    outer loop
      vertex 4.08538417 1.09646268 1.52738316
      vertex 4.08342989 1.0941772 1.5284774
      vertex 4.08289493 1.09445179 1.52738316
    endloop
  endfacet
  facet normal -0.561516083 0.695091199 0.44894088
    outer loop
      vertex 4.00115676 1.20072636 1.59472429
      vertex 3.99866752 1.19871547 1.59472429
      vertex 3.99920247 1.19844088 1.59581853
    endloop
  endfacet
  facet normal -0.490055697 -0.716516967 0.49643615
    outer loop
      vertex 4.08342989 1.0941772 1.5284774
      vertex 4.08426237 1.09425056 1.52940506
      vertex 4.00003495 1.19851423 1.59674619
    endloop
  endfacet
  facet normal -0.490055697 -0.716516967 0.49643615
    outer loop
      vertex 4.08342989 1.0941772 1.5284774
      vertex 4.00003495 1.19851423 1.59674619
      vertex 3.99920247 1.19844088 1.59581853
    endloop
  endfacet
  facet normal 0.561516083 -0.695091199 -0.44894088
    outer loop
      vertex 4.08538417 1.09646268 1.52738316
      vertex 4.08426237 1.09425056 1.52940506
      vertex 4.08342989 1.0941772 1.5284774
    endloop
  endfacet
  facet normal -0.561516083 0.695091199 0.44894088
    outer loop
      vertex 4.00115676 1.20072636 1.59472429
      vertex 3.99920247 1.19844088 1.59581853
      vertex 4.00003495 1.19851423 1.59674619
    endloop
  endfacet
  facet normal -0.197601251 -0.639492384 0.742969202
    outer loop
      vertex 4.08426237 1.09425056 1.52940506
      vertex 4.08526563 1.09466069 1.5300249
      vertex 4.00103822 1.19892437 1.59736603
    endloop
  endfacet
  facet normal -0.197601251 -0.639492384 0.742969202
    outer loop
      vertex 4.08426237 1.09425056 1.52940506
      vertex 4.00103822 1.19892437 1.59736603
      vertex 4.00003495 1.19851423 1.59674619
    endloop
  endfacet
  facet normal 0.561516083 -0.695091199 -0.44894088
    outer loop
      vertex 4.08538417 1.09646268 1.52738316
      vertex 4.08526563 1.09466069 1.5300249
      vertex 4.08426237 1.09425056 1.52940506
    endloop
  endfacet
  facet normal -0.561516083 0.695091199 0.44894088
    outer loop
      vertex 4.00115676 1.20072636 1.59472429
      vertex 4.00003495 1.19851423 1.59674619
      vertex 4.00103822 1.19892437 1.59736603
    endloop
  endfacet
  facet normal 0.124936193 -0.465110884 0.876391929
    outer loop
      vertex 4.08526563 1.09466069 1.5300249
      vertex 4.08628694 1.09534515 1.53024256
      vertex 4.00205953 1.19960883 1.59758369
    endloop
  endfacet
  facet normal 0.124936193 -0.465110884 0.876391929
    outer loop
      vertex 4.08526563 1.09466069 1.5300249
      vertex 4.00205953 1.19960883 1.59758369
      vertex 4.00103822 1.19892437 1.59736603
    endloop
  endfacet
  facet normal 0.561516083 -0.695091199 -0.44894088
    outer loop
      vertex 4.08538417 1.09646268 1.52738316
      vertex 4.08628694 1.09534515 1.53024256
      vertex 4.08526563 1.09466069 1.5300249
    endloop
  endfacet
  facet normal -0.561516083 0.695091199 0.44894088
    outer loop
      vertex 4.00115676 1.20072636 1.59472429
      vertex 4.00103822 1.19892437 1.59736603
      vertex 4.00205953 1.19960883 1.59758369
    endloop
  endfacet
  facet normal 0.428453235 -0.219920467 0.876391929
    outer loop
      vertex 4.08628694 1.09534515 1.53024256
      vertex 4.08717081 1.09619975 1.5300249
      vertex 4.0029434 1.20046343 1.59736603
    endloop
  endfacet
  facet normal 0.428453235 -0.219920467 0.876391929
    outer loop
      vertex 4.08628694 1.09534515 1.53024256
      vertex 4.0029434 1.20046343 1.59736603
      vertex 4.00205953 1.19960883 1.59758369
    endloop
  endfacet
  facet normal 0.561516083 -0.695091199 -0.44894088
    outer loop
      vertex 4.08538417 1.09646268 1.52738316
      vertex 4.08717081 1.09619975 1.5300249
      vertex 4.08628694 1.09534515 1.53024256
    endloop
  endfacet
  facet normal -0.561516083 0.695091199 0.44894088
    outer loop
      vertex 4.00115676 1.20072636 1.59472429
      vertex 4.00205953 1.19960883 1.59758369
      vertex 4.0029434 1.20046343 1.59736603
    endloop
  endfacet
  facet normal 0.666742156 0.0587508467 0.742969202
    outer loop
      vertex 4.08717081 1.09619975 1.5300249
      vertex 4.08778269 1.09709438 1.52940506
      vertex 4.00355527 1.20135806 1.59674619
    endloop
  endfacet
  facet normal 0.666742156 0.0587508467 0.742969202
    outer loop
      vertex 4.08717081 1.09619975 1.5300249
      vertex 4.00355527 1.20135806 1.59674619
      vertex 4.0029434 1.20046343 1.59736603
    endloop
  endfacet
  facet normal 0.561516083 -0.695091199 -0.44894088
    outer loop
      vertex 4.08538417 1.09646268 1.52738316
      vertex 4.08778269 1.09709438 1.52940506
      vertex 4.08717081 1.09619975 1.5300249
    endloop
  endfacet
  facet normal -0.561516083 0.695091199 0.44894088
    outer loop
      vertex 4.00115676 1.20072636 1.59472429
      vertex 4.0029434 1.20046343 1.59736603
      vertex 4.00355527 1.20135806 1.59674619
    endloop
  endfacet
  facet normal 0.803525627 0.328477877 0.49643615
    outer loop
      vertex 4.08778269 1.09709438 1.52940506
      vertex 4.08802941 1.09789284 1.5284774
      vertex 4.00380199 1.20215652 1.59581853
    endloop
  endfacet
  facet normal 0.803525627 0.328477877 0.49643615
    outer loop
      vertex 4.08778269 1.09709438 1.52940506
      vertex 4.00380199 1.20215652 1.59581853
      vertex 4.00355527 1.20135806 1.59674619
    endloop
  endfacet
  facet normal 0.561516083 -0.695091199 -0.44894088
    outer loop
      vertex 4.08538417 1.09646268 1.52738316
      vertex 4.08802941 1.09789284 1.5284774
      vertex 4.08778269 1.09709438 1.52940506
    endloop
  endfacet
  facet normal -0.561516083 0.695091199 0.44894088
    outer loop
      vertex 4.00115676 1.20072636 1.59472429
      vertex 4.00355527 1.20135806 1.59674619
      vertex 4.00380199 1.20215652 1.59581853
    endloop
  endfacet
  facet normal 0.817979606 0.548197128 0.174325193
    outer loop
      vertex 4.08802941 1.09789284 1.5284774
      vertex 4.08787341 1.09847356 1.52738316
      vertex 4.003646 1.20273724 1.59472429
    endloop
  endfacet
  facet normal 0.817979606 0.548197128 0.174325193
    outer loop
      vertex 4.08802941 1.09789284 1.5284774
      vertex 4.003646 1.20273724 1.59472429
      vertex 4.00380199 1.20215652 1.59581853
    endloop
  endfacet
  facet normal 0.561516083 -0.695091199 -0.44894088
    outer loop
      vertex 4.08538417 1.09646268 1.52738316
      vertex 4.08787341 1.09847356 1.52738316
      vertex 4.08802941 1.09789284 1.5284774
    endloop
  endfacet
  facet normal -0.561516083 0.695091199 0.44894088
    outer loop
      vertex 4.00115676 1.20072636 1.59472429
      vertex 4.00380199 1.20215652 1.59581853
      vertex 4.003646 1.20273724 1.59472429
    endloop
  endfacet
  facet normal 0.707903605 0.684458336 -0.174325193
    outer loop
      vertex 4.10348499 1.09824427 1.55300007
      vertex 4.10295003 1.09851886 1.55190583
      vertex 4.01872262 1.20278254 1.61924696
    endloop
  endfacet
  facet normal 0.707903605 0.684458336 -0.174325193
    outer loop
      vertex 4.10348499 1.09824427 1.55300007
      vertex 4.01872262 1.20278254 1.61924696
      vertex 4.01925757 1.20250795 1.6203412
    endloop
  endfacet
  facet normal 0.561516083 -0.695091199 -0.44894088
    outer loop
      vertex 4.10099574 1.09623338 1.55300007
      vertex 4.10295003 1.09851886 1.55190583
      vertex 4.10348499 1.09824427 1.55300007
    endloop
  endfacet
  facet normal -0.561516083 0.695091199 0.44894088
    outer loop
      vertex 4.01676833 1.20049706 1.6203412
      vertex 4.01925757 1.20250795 1.6203412
      vertex 4.01872262 1.20278254 1.61924696
    endloop
  endfacet
  facet normal 0.490055697 0.716516967 -0.49643615
    outer loop
      vertex 4.10295003 1.09851886 1.55190583
      vertex 4.10211755 1.0984455 1.55097817
      vertex 4.01789014 1.20270918 1.6183193
    endloop
  endfacet
  facet normal 0.490055697 0.716516967 -0.49643615
    outer loop
      vertex 4.10295003 1.09851886 1.55190583
      vertex 4.01789014 1.20270918 1.6183193
      vertex 4.01872262 1.20278254 1.61924696
    endloop
  endfacet
  facet normal 0.561516083 -0.695091199 -0.44894088
    outer loop
      vertex 4.10099574 1.09623338 1.55300007
      vertex 4.10211755 1.0984455 1.55097817
      vertex 4.10295003 1.09851886 1.55190583
    endloop
  endfacet
  facet normal -0.561516083 0.695091199 0.44894088
    outer loop
      vertex 4.01676833 1.20049706 1.6203412
      vertex 4.01872262 1.20278254 1.61924696
      vertex 4.01789014 1.20270918 1.6183193
    endloop
  endfacet
  facet normal 0.197601251 0.639492384 -0.742969202
    outer loop
      vertex 4.10211755 1.0984455 1.55097817
      vertex 4.10111429 1.09803537 1.55035833
      vertex 4.01688687 1.20229905 1.61769947
    endloop
  endfacet
  facet normal 0.197601251 0.639492384 -0.742969202
    outer loop
      vertex 4.10211755 1.0984455 1.55097817
      vertex 4.01688687 1.20229905 1.61769947
      vertex 4.01789014 1.20270918 1.6183193
    endloop
  endfacet
  facet normal 0.561516083 -0.695091199 -0.44894088
    outer loop
      vertex 4.10099574 1.09623338 1.55300007
      vertex 4.10111429 1.09803537 1.55035833
      vertex 4.10211755 1.0984455 1.55097817
    endloop
  endfacet
  facet normal -0.561516083 0.695091199 0.44894088
    outer loop
      vertex 4.01676833 1.20049706 1.6203412
      vertex 4.01789014 1.20270918 1.6183193
      vertex 4.01688687 1.20229905 1.61769947
    endloop
  endfacet
  facet normal -0.124936193 0.465110884 -0.876391929
    outer loop
      vertex 4.10111429 1.09803537 1.55035833
      vertex 4.10009297 1.0973509 1.55014067
      vertex 4.01586556 1.20161458 1.61748181
    endloop
  endfacet
  facet normal -0.124936193 0.465110884 -0.876391929
    outer loop
      vertex 4.10111429 1.09803537 1.55035833
      vertex 4.01586556 1.20161458 1.61748181
      vertex 4.01688687 1.20229905 1.61769947
    endloop
  endfacet
  facet normal 0.561516083 -0.695091199 -0.44894088
    outer loop
      vertex 4.10099574 1.09623338 1.55300007
      vertex 4.10009297 1.0973509 1.55014067
      vertex 4.10111429 1.09803537 1.55035833
    endloop
  endfacet
  facet normal -0.561516083 0.695091199 0.44894088
    outer loop
      vertex 4.01676833 1.20049706 1.6203412
      vertex 4.01688687 1.20229905 1.61769947
      vertex 4.01586556 1.20161458 1.61748181
    endloop
  endfacet
  facet normal -0.428453235 0.219920467 -0.876391929
    outer loop
      vertex 4.10009297 1.0973509 1.55014067
      vertex 4.0992091 1.0964963 1.55035833
      vertex 4.01498169 1.20075998 1.61769947
    endloop
  endfacet
  facet normal -0.428453235 0.219920467 -0.876391929
    outer loop
      vertex 4.10009297 1.0973509 1.55014067
      vertex 4.01498169 1.20075998 1.61769947
      vertex 4.01586556 1.20161458 1.61748181
    endloop
  endfacet
  facet normal 0.561516083 -0.695091199 -0.44894088
    outer loop
      vertex 4.10099574 1.09623338 1.55300007
      vertex 4.0992091 1.0964963 1.55035833
      vertex 4.10009297 1.0973509 1.55014067
    endloop
  endfacet
  facet normal -0.561516083 0.695091199 0.44894088
    outer loop
      vertex 4.01676833 1.20049706 1.6203412
      vertex 4.01586556 1.20161458 1.61748181
      vertex 4.01498169 1.20075998 1.61769947
    endloop
  endfacet
  facet normal -0.666742156 -0.0587508467 -0.742969202
    outer loop
      vertex 4.0992091 1.0964963 1.55035833
      vertex 4.09859723 1.09560168 1.55097817
      vertex 4.01436982 1.19986536 1.6183193
    endloop
  endfacet
  facet normal -0.666742156 -0.0587508467 -0.742969202
    outer loop
      vertex 4.0992091 1.0964963 1.55035833
      vertex 4.01436982 1.19986536 1.6183193
      vertex 4.01498169 1.20075998 1.61769947
    endloop
  endfacet
  facet normal 0.561516083 -0.695091199 -0.44894088
    outer loop
      vertex 4.10099574 1.09623338 1.55300007
      vertex 4.09859723 1.09560168 1.55097817
      vertex 4.0992091 1.0964963 1.55035833
    endloop
  endfacet
  facet normal -0.561516083 0.695091199 0.44894088
    outer loop
      vertex 4.01676833 1.20049706 1.6203412
      vertex 4.01498169 1.20075998 1.61769947
      vertex 4.01436982 1.19986536 1.6183193
    endloop
  endfacet
  facet normal -0.803525627 -0.328477877 -0.49643615
    outer loop
      vertex 4.09859723 1.09560168 1.55097817
      vertex 4.09835051 1.09480322 1.55190583
      vertex 4.0141231 1.1990669 1.61924696
    endloop
  endfacet
  facet normal -0.803525627 -0.328477877 -0.49643615
    outer loop
      vertex 4.09859723 1.09560168 1.55097817
      vertex 4.0141231 1.1990669 1.61924696
      vertex 4.01436982 1.19986536 1.6183193
    endloop
  endfacet
  facet normal 0.561516083 -0.695091199 -0.44894088
    outer loop
      vertex 4.10099574 1.09623338 1.55300007
      vertex 4.09835051 1.09480322 1.55190583
      vertex 4.09859723 1.09560168 1.55097817
    endloop
  endfacet
  facet normal -0.561516083 0.695091199 0.44894088
    outer loop
      vertex 4.01676833 1.20049706 1.6203412
      vertex 4.01436982 1.19986536 1.6183193
      vertex 4.0141231 1.1990669 1.61924696
    endloop
  endfacet
  facet normal -0.817979606 -0.548197128 -0.174325193
    outer loop
      vertex 4.09835051 1.09480322 1.55190583
      vertex 4.0985065 1.09422249 1.55300007
      vertex 4.01427909 1.19848617 1.6203412
    endloop
  endfacet
  facet normal -0.817979606 -0.548197128 -0.174325193
    outer loop
      vertex 4.09835051 1.09480322 1.55190583
      vertex 4.01427909 1.19848617 1.6203412
      vertex 4.0141231 1.1990669 1.61924696
    endloop
  endfacet
  facet normal 0.561516083 -0.695091199 -0.44894088
    outer loop
      vertex 4.10099574 1.09623338 1.55300007
      vertex 4.0985065 1.09422249 1.55300007
      vertex 4.09835051 1.09480322 1.55190583
    endloop
  endfacet
  facet normal -0.561516083 0.695091199 0.44894088
    outer loop
      vertex 4.01676833 1.20049706 1.6203412
      vertex 4.0141231 1.1990669 1.61924696
      vertex 4.01427909 1.19848617 1.6203412
    endloop
  endfacet
  facet normal -0.707903605 -0.684458336 0.174325193
    outer loop
      vertex 4.0985065 1.09422249 1.55300007
      vertex 4.09904146 1.09394791 1.55409432
      vertex 4.01481405 1.19821158 1.62143545
    endloop
  endfacet
  facet normal -0.707903605 -0.684458336 0.174325193
    outer loop
      vertex 4.0985065 1.09422249 1.55300007
      vertex 4.01481405 1.19821158 1.62143545
      vertex 4.01427909 1.19848617 1.6203412
    endloop
  endfacet
  facet normal 0.561516083 -0.695091199 -0.44894088
    outer loop
      vertex 4.10099574 1.09623338 1.55300007
      vertex 4.09904146 1.09394791 1.55409432
      vertex 4.0985065 1.09422249 1.55300007
    endloop
  endfacet
  facet normal -0.561516083 0.695091199 0.44894088
    outer loop
      vertex 4.01676833 1.20049706 1.6203412
      vertex 4.01427909 1.19848617 1.6203412
      vertex 4.01481405 1.19821158 1.62143545
    endloop
  endfacet
  facet normal -0.490055697 -0.716516967 0.49643615
    outer loop
      vertex 4.09904146 1.09394791 1.55409432
      vertex 4.09987394 1.09402126 1.55502197
      vertex 4.01564653 1.19828494 1.6223631
    endloop
  endfacet
  facet normal -0.490055697 -0.716516967 0.49643615
    outer loop
      vertex 4.09904146 1.09394791 1.55409432
      vertex 4.01564653 1.19828494 1.6223631
      vertex 4.01481405 1.19821158 1.62143545
    endloop
  endfacet
  facet normal 0.561516083 -0.695091199 -0.44894088
    outer loop
      vertex 4.10099574 1.09623338 1.55300007
      vertex 4.09987394 1.09402126 1.55502197
      vertex 4.09904146 1.09394791 1.55409432
    endloop
  endfacet
  facet normal -0.561516083 0.695091199 0.44894088
    outer loop
      vertex 4.01676833 1.20049706 1.6203412
      vertex 4.01481405 1.19821158 1.62143545
      vertex 4.01564653 1.19828494 1.6223631
    endloop
  endfacet
  facet normal -0.197601251 -0.639492384 0.742969202
    outer loop
      vertex 4.09987394 1.09402126 1.55502197
      vertex 4.1008772 1.09443139 1.55564181
      vertex 4.01664979 1.19869507 1.62298294
    endloop
  endfacet
  facet normal -0.197601251 -0.639492384 0.742969202
    outer loop
      vertex 4.09987394 1.09402126 1.55502197
      vertex 4.01664979 1.19869507 1.62298294
      vertex 4.01564653 1.19828494 1.6223631
    endloop
  endfacet
  facet normal 0.561516083 -0.695091199 -0.44894088
    outer loop
      vertex 4.10099574 1.09623338 1.55300007
      vertex 4.1008772 1.09443139 1.55564181
      vertex 4.09987394 1.09402126 1.55502197
    endloop
  endfacet
  facet normal -0.561516083 0.695091199 0.44894088
    outer loop
      vertex 4.01676833 1.20049706 1.6203412
      vertex 4.01564653 1.19828494 1.6223631
      vertex 4.01664979 1.19869507 1.62298294
    endloop
  endfacet
  facet normal 0.124936193 -0.465110884 0.876391929
    outer loop
      vertex 4.1008772 1.09443139 1.55564181
      vertex 4.10189851 1.09511586 1.55585947
      vertex 4.0176711 1.19937954 1.6232006
    endloop
  endfacet
  facet normal 0.124936193 -0.465110884 0.876391929
    outer loop
      vertex 4.1008772 1.09443139 1.55564181
      vertex 4.0176711 1.19937954 1.6232006
      vertex 4.01664979 1.19869507 1.62298294
    endloop
  endfacet
  facet normal 0.561516083 -0.695091199 -0.44894088
    outer loop
      vertex 4.10099574 1.09623338 1.55300007
      vertex 4.10189851 1.09511586 1.55585947
      vertex 4.1008772 1.09443139 1.55564181
    endloop
  endfacet
  facet normal -0.561516083 0.695091199 0.44894088
    outer loop
      vertex 4.01676833 1.20049706 1.6203412
      vertex 4.01664979 1.19869507 1.62298294
      vertex 4.0176711 1.19937954 1.6232006
    endloop
  endfacet
  facet normal 0.428453235 -0.219920467 0.876391929
    outer loop
      vertex 4.10189851 1.09511586 1.55585947
      vertex 4.10278239 1.09597046 1.55564181
      vertex 4.01855497 1.20023414 1.62298294
    endloop
  endfacet
  facet normal 0.428453235 -0.219920467 0.876391929
    outer loop
      vertex 4.10189851 1.09511586 1.55585947
      vertex 4.01855497 1.20023414 1.62298294
      vertex 4.0176711 1.19937954 1.6232006
    endloop
  endfacet
  facet normal 0.561516083 -0.695091199 -0.44894088
    outer loop
      vertex 4.10099574 1.09623338 1.55300007
      vertex 4.10278239 1.09597046 1.55564181
      vertex 4.10189851 1.09511586 1.55585947
    endloop
  endfacet
  facet normal -0.561516083 0.695091199 0.44894088
    outer loop
      vertex 4.01676833 1.20049706 1.6203412
      vertex 4.0176711 1.19937954 1.6232006
      vertex 4.01855497 1.20023414 1.62298294
    endloop
  endfacet
  facet normal 0.666742156 0.0587508467 0.742969202
    outer loop
      vertex 4.10278239 1.09597046 1.55564181
      vertex 4.10339426 1.09686508 1.55502197
      vertex 4.01916685 1.20112876 1.6223631
    endloop
  endfacet
  facet normal 0.666742156 0.0587508467 0.742969202
    outer loop
      vertex 4.10278239 1.09597046 1.55564181
      vertex 4.01916685 1.20112876 1.6223631
      vertex 4.01855497 1.20023414 1.62298294
    endloop
  endfacet
  facet normal 0.561516083 -0.695091199 -0.44894088
    outer loop
      vertex 4.10099574 1.09623338 1.55300007
      vertex 4.10339426 1.09686508 1.55502197
      vertex 4.10278239 1.09597046 1.55564181
    endloop
  endfacet
  facet normal -0.561516083 0.695091199 0.44894088
    outer loop
      vertex 4.01676833 1.20049706 1.6203412
      vertex 4.01855497 1.20023414 1.62298294
      vertex 4.01916685 1.20112876 1.6223631
    endloop
  endfacet
  facet normal 0.803525627 0.328477877 0.49643615
    outer loop
      vertex 4.10339426 1.09686508 1.55502197
      vertex 4.10364098 1.09766354 1.55409432
      vertex 4.01941357 1.20192722 1.62143545
    endloop
  endfacet
  facet normal 0.803525627 0.328477877 0.49643615
    outer loop
      vertex 4.10339426 1.09686508 1.55502197
      vertex 4.01941357 1.20192722 1.62143545
      vertex 4.01916685 1.20112876 1.6223631
    endloop
  endfacet
  facet normal 0.561516083 -0.695091199 -0.44894088
    outer loop
      vertex 4.10099574 1.09623338 1.55300007
      vertex 4.10364098 1.09766354 1.55409432
      vertex 4.10339426 1.09686508 1.55502197
    endloop
  endfacet
  facet normal -0.561516083 0.695091199 0.44894088
    outer loop
      vertex 4.01676833 1.20049706 1.6203412
      vertex 4.01916685 1.20112876 1.6223631
      vertex 4.01941357 1.20192722 1.62143545
    endloop
  endfacet
  facet normal 0.817979606 0.548197128 0.174325193
    outer loop
      vertex 4.10364098 1.09766354 1.55409432
      vertex 4.10348499 1.09824427 1.55300007
      vertex 4.01925757 1.20250795 1.6203412
    endloop
  endfacet
  facet normal 0.817979606 0.548197128 0.174325193
    outer loop
      vertex 4.10364098 1.09766354 1.55409432
      vertex 4.01925757 1.20250795 1.6203412
      vertex 4.01941357 1.20192722 1.62143545
    endloop
  endfacet
  facet normal 0.561516083 -0.695091199 -0.44894088
    outer loop
      vertex 4.10099574 1.09623338 1.55300007
      vertex 4.10348499 1.09824427 1.55300007
      vertex 4.10364098 1.09766354 1.55409432
    endloop
  endfacet
  facet normal -0.561516083 0.695091199 0.44894088
    outer loop
      vertex 4.01676833 1.20049706 1.6203412
      vertex 4.01941357 1.20192722 1.62143545
      vertex 4.01925757 1.20250795 1.6203412
    endloop
  endfacet
  facet normal 0.216126335 0.970484821 -0.106998227
    outer loop
      vertex 4.20366526 1.32832379 1.53927344
      vertex 4.2046745 1.32802498 1.53860181
      vertex 4.15538633 1.33070425 1.46334559
    endloop
  endfacet
  facet normal 0.216126335 0.970484821 -0.106998227
    outer loop
      vertex 4.20366526 1.32832379 1.53927344
      vertex 4.15538633 1.33070425 1.46334559
      vertex 4.15437709 1.33100306 1.46401722
    endloop
  endfacet
  facet normal 0.547646286 -0.029769643 0.836180192
    outer loop
      vertex 4.20349156 1.32512851 1.53927344
      vertex 4.2046745 1.32802498 1.53860181
      vertex 4.20366526 1.32832379 1.53927344
    endloop
  endfacet
  facet normal -0.547646286 0.029769643 -0.836180192
    outer loop
      vertex 4.1542034 1.32780778 1.46401722
      vertex 4.15437709 1.33100306 1.46401722
      vertex 4.15538633 1.33070425 1.46334559
    endloop
  endfacet
  facet normal 0.509003412 0.805028127 -0.30470517
    outer loop
      vertex 4.2046745 1.32802498 1.53860181
      vertex 4.20550365 1.32728522 1.53803243
      vertex 4.15621549 1.32996448 1.46277621
    endloop
  endfacet
  facet normal 0.509003412 0.805028127 -0.30470517
    outer loop
      vertex 4.2046745 1.32802498 1.53860181
      vertex 4.15621549 1.32996448 1.46277621
      vertex 4.15538633 1.33070425 1.46334559
    endloop
  endfacet
  facet normal 0.547646286 -0.029769643 0.836180192
    outer loop
      vertex 4.20349156 1.32512851 1.53927344
      vertex 4.20550365 1.32728522 1.53803243
      vertex 4.2046745 1.32802498 1.53860181
    endloop
  endfacet
  facet normal -0.547646286 0.029769643 -0.836180192
    outer loop
      vertex 4.1542034 1.32780778 1.46401722
      vertex 4.15538633 1.33070425 1.46334559
      vertex 4.15621549 1.32996448 1.46277621
    endloop
  endfacet
  facet normal 0.724389333 0.5170132 -0.456023514
    outer loop
      vertex 4.20550365 1.32728522 1.53803243
      vertex 4.20602648 1.32621711 1.53765198
      vertex 4.15673832 1.32889638 1.46239576
    endloop
  endfacet
  facet normal 0.724389333 0.5170132 -0.456023514
    outer loop
      vertex 4.20550365 1.32728522 1.53803243
      vertex 4.15673832 1.32889638 1.46239576
      vertex 4.15621549 1.32996448 1.46277621
    endloop
  endfacet
  facet normal 0.547646286 -0.029769643 0.836180192
    outer loop
      vertex 4.20349156 1.32512851 1.53927344
      vertex 4.20602648 1.32621711 1.53765198
      vertex 4.20550365 1.32728522 1.53803243
    endloop
  endfacet
  facet normal -0.547646286 0.029769643 -0.836180192
    outer loop
      vertex 4.1542034 1.32780778 1.46401722
      vertex 4.15621549 1.32996448 1.46277621
      vertex 4.15673832 1.32889638 1.46239576
    endloop
  endfacet
  facet normal 0.829493546 0.150287699 -0.537916411
    outer loop
      vertex 4.20602648 1.32621711 1.53765198
      vertex 4.20616339 1.32498327 1.53751839
      vertex 4.15687523 1.32766254 1.46226217
    endloop
  endfacet
  facet normal 0.829493546 0.150287699 -0.537916411
    outer loop
      vertex 4.20602648 1.32621711 1.53765198
      vertex 4.15687523 1.32766254 1.46226217
      vertex 4.15673832 1.32889638 1.46239576
    endloop
  endfacet
  facet normal 0.547646286 -0.029769643 0.836180192
    outer loop
      vertex 4.20349156 1.32512851 1.53927344
      vertex 4.20616339 1.32498327 1.53751839
      vertex 4.20602648 1.32621711 1.53765198
    endloop
  endfacet
  facet normal -0.547646286 0.029769643 -0.836180192
    outer loop
      vertex 4.1542034 1.32780778 1.46401722
      vertex 4.15673832 1.32889638 1.46239576
      vertex 4.15687523 1.32766254 1.46226217
    endloop
  endfacet
  facet normal 0.808314885 -0.239317742 -0.537916411
    outer loop
      vertex 4.20616339 1.32498327 1.53751839
      vertex 4.20589354 1.32377154 1.53765198
      vertex 4.15660538 1.32645081 1.46239576
    endloop
  endfacet
  facet normal 0.808314885 -0.239317742 -0.537916411
    outer loop
      vertex 4.20616339 1.32498327 1.53751839
      vertex 4.15660538 1.32645081 1.46239576
      vertex 4.15687523 1.32766254 1.46226217
    endloop
  endfacet
  facet normal 0.547646286 -0.029769643 0.836180192
    outer loop
      vertex 4.20349156 1.32512851 1.53927344
      vertex 4.20589354 1.32377154 1.53765198
      vertex 4.20616339 1.32498327 1.53751839
    endloop
  endfacet
  facet normal -0.547646286 0.029769643 -0.836180192
    outer loop
      vertex 4.1542034 1.32780778 1.46401722
      vertex 4.15687523 1.32766254 1.46226217
      vertex 4.15660538 1.32645081 1.46239576
    endloop
  endfacet
  facet normal 0.66407761 -0.592489226 -0.456023514
    outer loop
      vertex 4.20589354 1.32377154 1.53765198
      vertex 4.20525801 1.3227664 1.53803243
      vertex 4.15596985 1.32544567 1.46277621
    endloop
  endfacet
  facet normal 0.66407761 -0.592489226 -0.456023514
    outer loop
      vertex 4.20589354 1.32377154 1.53765198
      vertex 4.15596985 1.32544567 1.46277621
      vertex 4.15660538 1.32645081 1.46239576
    endloop
  endfacet
  facet normal 0.547646286 -0.029769643 0.836180192
    outer loop
      vertex 4.20349156 1.32512851 1.53927344
      vertex 4.20525801 1.3227664 1.53803243
      vertex 4.20589354 1.32377154 1.53765198
    endloop
  endfacet
  facet normal -0.547646286 0.029769643 -0.836180192
    outer loop
      vertex 4.1542034 1.32780778 1.46401722
      vertex 4.15660538 1.32645081 1.46239576
      vertex 4.15596985 1.32544567 1.46277621
    endloop
  endfacet
  facet normal 0.418740539 -0.855459596 -0.30470517
    outer loop
      vertex 4.20525801 1.3227664 1.53803243
      vertex 4.20435356 1.32212087 1.53860181
      vertex 4.15506539 1.32480014 1.46334559
    endloop
  endfacet
  facet normal 0.418740539 -0.855459596 -0.30470517
    outer loop
      vertex 4.20525801 1.3227664 1.53803243
      vertex 4.15506539 1.32480014 1.46334559
      vertex 4.15596985 1.32544567 1.46277621
    endloop
  endfacet
  facet normal 0.547646286 -0.029769643 0.836180192
    outer loop
      vertex 4.20349156 1.32512851 1.53927344
      vertex 4.20435356 1.32212087 1.53860181
      vertex 4.20525801 1.3227664 1.53803243
    endloop
  endfacet
  facet normal -0.547646286 0.029769643 -0.836180192
    outer loop
      vertex 4.1542034 1.32780778 1.46401722
      vertex 4.15596985 1.32544567 1.46277621
      vertex 4.15506539 1.32480014 1.46334559
    endloop
  endfacet
  facet normal 0.109654017 -0.988193997 -0.106998227
    outer loop
      vertex 4.20435356 1.32212087 1.53860181
      vertex 4.20331787 1.32193323 1.53927344
      vertex 4.1540297 1.32461249 1.46401722
    endloop
  endfacet
  facet normal 0.109654017 -0.988193997 -0.106998227
    outer loop
      vertex 4.20435356 1.32212087 1.53860181
      vertex 4.1540297 1.32461249 1.46401722
      vertex 4.15506539 1.32480014 1.46334559
    endloop
  endfacet
  facet normal 0.547646286 -0.029769643 0.836180192
    outer loop
      vertex 4.20349156 1.32512851 1.53927344
      vertex 4.20331787 1.32193323 1.53927344
      vertex 4.20435356 1.32212087 1.53860181
    endloop
  endfacet
  facet normal -0.547646286 0.029769643 -0.836180192
    outer loop
      vertex 4.1542034 1.32780778 1.46401722
      vertex 4.15506539 1.32480014 1.46334559
      vertex 4.1540297 1.32461249 1.46401722
    endloop
  endfacet
  facet normal -0.216126335 -0.970484821 0.106998227
    outer loop
      vertex 4.20331787 1.32193323 1.53927344
      vertex 4.20230863 1.32223203 1.53994507
      vertex 4.15302046 1.3249113 1.46468886
    endloop
  endfacet
  facet normal -0.216126335 -0.970484821 0.106998227
    outer loop
      vertex 4.20331787 1.32193323 1.53927344
      vertex 4.15302046 1.3249113 1.46468886
      vertex 4.1540297 1.32461249 1.46401722
    endloop
  endfacet
  facet normal 0.547646286 -0.029769643 0.836180192
    outer loop
      vertex 4.20349156 1.32512851 1.53927344
      vertex 4.20230863 1.32223203 1.53994507
      vertex 4.20331787 1.32193323 1.53927344
    endloop
  endfacet
  facet normal -0.547646286 0.029769643 -0.836180192
    outer loop
      vertex 4.1542034 1.32780778 1.46401722
      vertex 4.1540297 1.32461249 1.46401722
      vertex 4.15302046 1.3249113 1.46468886
    endloop
  endfacet
  facet normal -0.509003412 -0.805028127 0.30470517
    outer loop
      vertex 4.20230863 1.32223203 1.53994507
      vertex 4.20147947 1.3229718 1.54051445
      vertex 4.15219131 1.32565107 1.46525824
    endloop
  endfacet
  facet normal -0.509003412 -0.805028127 0.30470517
    outer loop
      vertex 4.20230863 1.32223203 1.53994507
      vertex 4.15219131 1.32565107 1.46525824
      vertex 4.15302046 1.3249113 1.46468886
    endloop
  endfacet
  facet normal 0.547646286 -0.029769643 0.836180192
    outer loop
      vertex 4.20349156 1.32512851 1.53927344
      vertex 4.20147947 1.3229718 1.54051445
      vertex 4.20230863 1.32223203 1.53994507
    endloop
  endfacet
  facet normal -0.547646286 0.029769643 -0.836180192
    outer loop
      vertex 4.1542034 1.32780778 1.46401722
      vertex 4.15302046 1.3249113 1.46468886
      vertex 4.15219131 1.32565107 1.46525824
    endloop
  endfacet
  facet normal -0.724389333 -0.5170132 0.456023514
    outer loop
      vertex 4.20147947 1.3229718 1.54051445
      vertex 4.20095664 1.32403991 1.5408949
      vertex 4.15166848 1.32671918 1.46563868
    endloop
  endfacet
  facet normal -0.724389333 -0.5170132 0.456023514
    outer loop
      vertex 4.20147947 1.3229718 1.54051445
      vertex 4.15166848 1.32671918 1.46563868
      vertex 4.15219131 1.32565107 1.46525824
    endloop
  endfacet
  facet normal 0.547646286 -0.029769643 0.836180192
    outer loop
      vertex 4.20349156 1.32512851 1.53927344
      vertex 4.20095664 1.32403991 1.5408949
      vertex 4.20147947 1.3229718 1.54051445
    endloop
  endfacet
  facet normal -0.547646286 0.029769643 -0.836180192
    outer loop
      vertex 4.1542034 1.32780778 1.46401722
      vertex 4.15219131 1.32565107 1.46525824
      vertex 4.15166848 1.32671918 1.46563868
    endloop
  endfacet
  facet normal -0.829493546 -0.150287699 0.537916411
    outer loop
      vertex 4.20095664 1.32403991 1.5408949
      vertex 4.20081973 1.32527375 1.5410285
      vertex 4.15153157 1.32795302 1.46577228
    endloop
  endfacet
  facet normal -0.829493546 -0.150287699 0.537916411
    outer loop
      vertex 4.20095664 1.32403991 1.5408949
      vertex 4.15153157 1.32795302 1.46577228
      vertex 4.15166848 1.32671918 1.46563868
    endloop
  endfacet
  facet normal 0.547646286 -0.029769643 0.836180192
    outer loop
      vertex 4.20349156 1.32512851 1.53927344
      vertex 4.20081973 1.32527375 1.5410285
      vertex 4.20095664 1.32403991 1.5408949
    endloop
  endfacet
  facet normal -0.547646286 0.029769643 -0.836180192
    outer loop
      vertex 4.1542034 1.32780778 1.46401722
      vertex 4.15166848 1.32671918 1.46563868
      vertex 4.15153157 1.32795302 1.46577228
    endloop
  endfacet
  facet normal -0.808314885 0.239317742 0.537916411
    outer loop
      vertex 4.20081973 1.32527375 1.5410285
      vertex 4.20108958 1.32648547 1.5408949
      vertex 4.15180142 1.32916474 1.46563868
    endloop
  endfacet
  facet normal -0.808314885 0.239317742 0.537916411
    outer loop
      vertex 4.20081973 1.32527375 1.5410285
      vertex 4.15180142 1.32916474 1.46563868
      vertex 4.15153157 1.32795302 1.46577228
    endloop
  endfacet
  facet normal 0.547646286 -0.029769643 0.836180192
    outer loop
      vertex 4.20349156 1.32512851 1.53927344
      vertex 4.20108958 1.32648547 1.5408949
      vertex 4.20081973 1.32527375 1.5410285
    endloop
  endfacet
  facet normal -0.547646286 0.029769643 -0.836180192
    outer loop
      vertex 4.1542034 1.32780778 1.46401722
      vertex 4.15153157 1.32795302 1.46577228
      vertex 4.15180142 1.32916474 1.46563868
    endloop
  endfacet
  facet normal -0.66407761 0.592489226 0.456023514
    outer loop
      vertex 4.20108958 1.32648547 1.5408949
      vertex 4.20172511 1.32749061 1.54051445
      vertex 4.15243695 1.33016988 1.46525824
    endloop
  endfacet
  facet normal -0.66407761 0.592489226 0.456023514
    outer loop
      vertex 4.20108958 1.32648547 1.5408949
      vertex 4.15243695 1.33016988 1.46525824
      vertex 4.15180142 1.32916474 1.46563868
    endloop
  endfacet
  facet normal 0.547646286 -0.029769643 0.836180192
    outer loop
      vertex 4.20349156 1.32512851 1.53927344
      vertex 4.20172511 1.32749061 1.54051445
      vertex 4.20108958 1.32648547 1.5408949
    endloop
  endfacet
  facet normal -0.547646286 0.029769643 -0.836180192
    outer loop
      vertex 4.1542034 1.32780778 1.46401722
      vertex 4.15180142 1.32916474 1.46563868
      vertex 4.15243695 1.33016988 1.46525824
    endloop
  endfacet
  facet normal -0.418740539 0.855459596 0.30470517
    outer loop
      vertex 4.20172511 1.32749061 1.54051445
      vertex 4.20262957 1.32813615 1.53994507
      vertex 4.1533414 1.33081541 1.46468886
    endloop
  endfacet
  facet normal -0.418740539 0.855459596 0.30470517
    outer loop
      vertex 4.20172511 1.32749061 1.54051445
      vertex 4.1533414 1.33081541 1.46468886
      vertex 4.15243695 1.33016988 1.46525824
    endloop
  endfacet
  facet normal 0.547646286 -0.029769643 0.836180192
    outer loop
      vertex 4.20349156 1.32512851 1.53927344
      vertex 4.20262957 1.32813615 1.53994507
      vertex 4.20172511 1.32749061 1.54051445
    endloop
  endfacet
  facet normal -0.547646286 0.029769643 -0.836180192
    outer loop
      vertex 4.1542034 1.32780778 1.46401722
      vertex 4.15243695 1.33016988 1.46525824
      vertex 4.1533414 1.33081541 1.46468886
    endloop
  endfacet
  facet normal -0.109654017 0.988193997 0.106998227
    outer loop
      vertex 4.20262957 1.32813615 1.53994507
      vertex 4.20366526 1.32832379 1.53927344
      vertex 4.15437709 1.33100306 1.46401722
    endloop
  endfacet
  facet normal -0.109654017 0.988193997 0.106998227
    outer loop
      vertex 4.20262957 1.32813615 1.53994507
      vertex 4.15437709 1.33100306 1.46401722
      vertex 4.1533414 1.33081541 1.46468886
    endloop
  endfacet
  facet normal 0.547646286 -0.029769643 0.836180192
    outer loop
      vertex 4.20349156 1.32512851 1.53927344
      vertex 4.20366526 1.32832379 1.53927344
      vertex 4.20262957 1.32813615 1.53994507
    endloop
  endfacet
  facet normal -0.547646286 0.029769643 -0.836180192
    outer loop
      vertex 4.1542034 1.32780778 1.46401722
      vertex 4.1533414 1.33081541 1.46468886
      vertex 4.15437709 1.33100306 1.46401722
    endloop
  endfacet
  facet normal 0.216126335 0.970484821 -0.106998227
    outer loop
      vertex 4.22873571 1.32742183 1.52282173
      vertex 4.22974496 1.32712302 1.5221501
      vertex 4.18045679 1.32980229 1.44689389
    endloop
  endfacet
  facet normal 0.216126335 0.970484821 -0.106998227
    outer loop
      vertex 4.22873571 1.32742183 1.52282173
      vertex 4.18045679 1.32980229 1.44689389
      vertex 4.17944755 1.3301011 1.44756552
    endloop
  endfacet
  facet normal 0.547646286 -0.029769643 0.836180192
    outer loop
      vertex 4.22856202 1.32422655 1.52282173
      vertex 4.22974496 1.32712302 1.5221501
      vertex 4.22873571 1.32742183 1.52282173
    endloop
  endfacet
  facet normal -0.547646286 0.029769643 -0.836180192
    outer loop
      vertex 4.17927385 1.32690581 1.44756552
      vertex 4.17944755 1.3301011 1.44756552
      vertex 4.18045679 1.32980229 1.44689389
    endloop
  endfacet
  facet normal 0.509003412 0.805028127 -0.30470517
    outer loop
      vertex 4.22974496 1.32712302 1.5221501
      vertex 4.23057411 1.32638325 1.52158072
      vertex 4.18128594 1.32906252 1.4463245
    endloop
  endfacet
  facet normal 0.509003412 0.805028127 -0.30470517
    outer loop
      vertex 4.22974496 1.32712302 1.5221501
      vertex 4.18128594 1.32906252 1.4463245
      vertex 4.18045679 1.32980229 1.44689389
    endloop
  endfacet
  facet normal 0.547646286 -0.029769643 0.836180192
    outer loop
      vertex 4.22856202 1.32422655 1.52282173
      vertex 4.23057411 1.32638325 1.52158072
      vertex 4.22974496 1.32712302 1.5221501
    endloop
  endfacet
  facet normal -0.547646286 0.029769643 -0.836180192
    outer loop
      vertex 4.17927385 1.32690581 1.44756552
      vertex 4.18045679 1.32980229 1.44689389
      vertex 4.18128594 1.32906252 1.4463245
    endloop
  endfacet
  facet normal 0.724389333 0.5170132 -0.456023514
    outer loop
      vertex 4.23057411 1.32638325 1.52158072
      vertex 4.23109694 1.32531515 1.52120027
      vertex 4.18180877 1.32799441 1.44594406
    endloop
  endfacet
  facet normal 0.724389333 0.5170132 -0.456023514
    outer loop
      vertex 4.23057411 1.32638325 1.52158072
      vertex 4.18180877 1.32799441 1.44594406
      vertex 4.18128594 1.32906252 1.4463245
    endloop
  endfacet
  facet normal 0.547646286 -0.029769643 0.836180192
    outer loop
      vertex 4.22856202 1.32422655 1.52282173
      vertex 4.23109694 1.32531515 1.52120027
      vertex 4.23057411 1.32638325 1.52158072
    endloop
  endfacet
  facet normal -0.547646286 0.029769643 -0.836180192
    outer loop
      vertex 4.17927385 1.32690581 1.44756552
      vertex 4.18128594 1.32906252 1.4463245
      vertex 4.18180877 1.32799441 1.44594406
    endloop
  endfacet
  facet normal 0.829493546 0.150287699 -0.537916411
    outer loop
      vertex 4.23109694 1.32531515 1.52120027
      vertex 4.23123385 1.32408131 1.52106668
      vertex 4.18194568 1.32676058 1.44581046
    endloop
  endfacet
  facet normal 0.829493546 0.150287699 -0.537916411
    outer loop
      vertex 4.23109694 1.32531515 1.52120027
      vertex 4.18194568 1.32676058 1.44581046
      vertex 4.18180877 1.32799441 1.44594406
    endloop
  endfacet
  facet normal 0.547646286 -0.029769643 0.836180192
    outer loop
      vertex 4.22856202 1.32422655 1.52282173
      vertex 4.23123385 1.32408131 1.52106668
      vertex 4.23109694 1.32531515 1.52120027
    endloop
  endfacet
  facet normal -0.547646286 0.029769643 -0.836180192
    outer loop
      vertex 4.17927385 1.32690581 1.44756552
      vertex 4.18180877 1.32799441 1.44594406
      vertex 4.18194568 1.32676058 1.44581046
    endloop
  endfacet
  facet normal 0.808314885 -0.239317742 -0.537916411
    outer loop
      vertex 4.23123385 1.32408131 1.52106668
      vertex 4.230964 1.32286958 1.52120027
      vertex 4.18167583 1.32554885 1.44594406
    endloop
  endfacet
  facet normal 0.808314885 -0.239317742 -0.537916411
    outer loop
      vertex 4.23123385 1.32408131 1.52106668
      vertex 4.18167583 1.32554885 1.44594406
      vertex 4.18194568 1.32676058 1.44581046
    endloop
  endfacet
  facet normal 0.547646286 -0.029769643 0.836180192
    outer loop
      vertex 4.22856202 1.32422655 1.52282173
      vertex 4.230964 1.32286958 1.52120027
      vertex 4.23123385 1.32408131 1.52106668
    endloop
  endfacet
  facet normal -0.547646286 0.029769643 -0.836180192
    outer loop
      vertex 4.17927385 1.32690581 1.44756552
      vertex 4.18194568 1.32676058 1.44581046
      vertex 4.18167583 1.32554885 1.44594406
    endloop
  endfacet
  facet normal 0.66407761 -0.592489226 -0.456023514
    outer loop
      vertex 4.230964 1.32286958 1.52120027
      vertex 4.23032847 1.32186444 1.52158072
      vertex 4.1810403 1.32454371 1.4463245
    endloop
  endfacet
  facet normal 0.66407761 -0.592489226 -0.456023514
    outer loop
      vertex 4.230964 1.32286958 1.52120027
      vertex 4.1810403 1.32454371 1.4463245
      vertex 4.18167583 1.32554885 1.44594406
    endloop
  endfacet
  facet normal 0.547646286 -0.029769643 0.836180192
    outer loop
      vertex 4.22856202 1.32422655 1.52282173
      vertex 4.23032847 1.32186444 1.52158072
      vertex 4.230964 1.32286958 1.52120027
    endloop
  endfacet
  facet normal -0.547646286 0.029769643 -0.836180192
    outer loop
      vertex 4.17927385 1.32690581 1.44756552
      vertex 4.18167583 1.32554885 1.44594406
      vertex 4.1810403 1.32454371 1.4463245
    endloop
  endfacet
  facet normal 0.418740539 -0.855459596 -0.30470517
    outer loop
      vertex 4.23032847 1.32186444 1.52158072
      vertex 4.22942401 1.32121891 1.5221501
      vertex 4.18013585 1.32389818 1.44689389
    endloop
  endfacet
  facet normal 0.418740539 -0.855459596 -0.30470517
    outer loop
      vertex 4.23032847 1.32186444 1.52158072
      vertex 4.18013585 1.32389818 1.44689389
      vertex 4.1810403 1.32454371 1.4463245
    endloop
  endfacet
  facet normal 0.547646286 -0.029769643 0.836180192
    outer loop
      vertex 4.22856202 1.32422655 1.52282173
      vertex 4.22942401 1.32121891 1.5221501
      vertex 4.23032847 1.32186444 1.52158072
    endloop
  endfacet
  facet normal -0.547646286 0.029769643 -0.836180192
    outer loop
      vertex 4.17927385 1.32690581 1.44756552
      vertex 4.1810403 1.32454371 1.4463245
      vertex 4.18013585 1.32389818 1.44689389
    endloop
  endfacet
  facet normal 0.109654017 -0.988193997 -0.106998227
    outer loop
      vertex 4.22942401 1.32121891 1.5221501
      vertex 4.22838833 1.32103126 1.52282173
      vertex 4.17910016 1.32371053 1.44756552
    endloop
  endfacet
  facet normal 0.109654017 -0.988193997 -0.106998227
    outer loop
      vertex 4.22942401 1.32121891 1.5221501
      vertex 4.17910016 1.32371053 1.44756552
      vertex 4.18013585 1.32389818 1.44689389
    endloop
  endfacet
  facet normal 0.547646286 -0.029769643 0.836180192
    outer loop
      vertex 4.22856202 1.32422655 1.52282173
      vertex 4.22838833 1.32103126 1.52282173
      vertex 4.22942401 1.32121891 1.5221501
    endloop
  endfacet
  facet normal -0.547646286 0.029769643 -0.836180192
    outer loop
      vertex 4.17927385 1.32690581 1.44756552
      vertex 4.18013585 1.32389818 1.44689389
      vertex 4.17910016 1.32371053 1.44756552
    endloop
  endfacet
  facet normal -0.216126335 -0.970484821 0.106998227
    outer loop
      vertex 4.22838833 1.32103126 1.52282173
      vertex 4.22737908 1.32133007 1.52349336
      vertex 4.17809092 1.32400934 1.44823715
    endloop
  endfacet
  facet normal -0.216126335 -0.970484821 0.106998227
    outer loop
      vertex 4.22838833 1.32103126 1.52282173
      vertex 4.17809092 1.32400934 1.44823715
      vertex 4.17910016 1.32371053 1.44756552
    endloop
  endfacet
  facet normal 0.547646286 -0.029769643 0.836180192
    outer loop
      vertex 4.22856202 1.32422655 1.52282173
      vertex 4.22737908 1.32133007 1.52349336
      vertex 4.22838833 1.32103126 1.52282173
    endloop
  endfacet
  facet normal -0.547646286 0.029769643 -0.836180192
    outer loop
      vertex 4.17927385 1.32690581 1.44756552
      vertex 4.17910016 1.32371053 1.44756552
      vertex 4.17809092 1.32400934 1.44823715
    endloop
  endfacet
  facet normal -0.509003412 -0.805028127 0.30470517
    outer loop
      vertex 4.22737908 1.32133007 1.52349336
      vertex 4.22654993 1.32206984 1.52406274
      vertex 4.17726176 1.32474911 1.44880653
    endloop
  endfacet
  facet normal -0.509003412 -0.805028127 0.30470517
    outer loop
      vertex 4.22737908 1.32133007 1.52349336
      vertex 4.17726176 1.32474911 1.44880653
      vertex 4.17809092 1.32400934 1.44823715
    endloop
  endfacet
  facet normal 0.547646286 -0.029769643 0.836180192
    outer loop
      vertex 4.22856202 1.32422655 1.52282173
      vertex 4.22654993 1.32206984 1.52406274
      vertex 4.22737908 1.32133007 1.52349336
    endloop
  endfacet
  facet normal -0.547646286 0.029769643 -0.836180192
    outer loop
      vertex 4.17927385 1.32690581 1.44756552
      vertex 4.17809092 1.32400934 1.44823715
      vertex 4.17726176 1.32474911 1.44880653
    endloop
  endfacet
  facet normal -0.724389333 -0.5170132 0.456023514
    outer loop
      vertex 4.22654993 1.32206984 1.52406274
      vertex 4.2260271 1.32313795 1.52444319
      vertex 4.17673893 1.32581722 1.44918698
    endloop
  endfacet
  facet normal -0.724389333 -0.5170132 0.456023514
    outer loop
      vertex 4.22654993 1.32206984 1.52406274
      vertex 4.17673893 1.32581722 1.44918698
      vertex 4.17726176 1.32474911 1.44880653
    endloop
  endfacet
  facet normal 0.547646286 -0.029769643 0.836180192
    outer loop
      vertex 4.22856202 1.32422655 1.52282173
      vertex 4.2260271 1.32313795 1.52444319
      vertex 4.22654993 1.32206984 1.52406274
    endloop
  endfacet
  facet normal -0.547646286 0.029769643 -0.836180192
    outer loop
      vertex 4.17927385 1.32690581 1.44756552
      vertex 4.17726176 1.32474911 1.44880653
      vertex 4.17673893 1.32581722 1.44918698
    endloop
  endfacet
  facet normal -0.829493546 -0.150287699 0.537916411
    outer loop
      vertex 4.2260271 1.32313795 1.52444319
      vertex 4.22589019 1.32437179 1.52457679
      vertex 4.17660202 1.32705105 1.44932057
    endloop
  endfacet
  facet normal -0.829493546 -0.150287699 0.537916411
    outer loop
      vertex 4.2260271 1.32313795 1.52444319
      vertex 4.17660202 1.32705105 1.44932057
      vertex 4.17673893 1.32581722 1.44918698
    endloop
  endfacet
  facet normal 0.547646286 -0.029769643 0.836180192
    outer loop
      vertex 4.22856202 1.32422655 1.52282173
      vertex 4.22589019 1.32437179 1.52457679
      vertex 4.2260271 1.32313795 1.52444319
    endloop
  endfacet
  facet normal -0.547646286 0.029769643 -0.836180192
    outer loop
      vertex 4.17927385 1.32690581 1.44756552
      vertex 4.17673893 1.32581722 1.44918698
      vertex 4.17660202 1.32705105 1.44932057
    endloop
  endfacet
  facet normal -0.808314885 0.239317742 0.537916411
    outer loop
      vertex 4.22589019 1.32437179 1.52457679
      vertex 4.22616004 1.32558351 1.52444319
      vertex 4.17687187 1.32826278 1.44918698
    endloop
  endfacet
  facet normal -0.808314885 0.239317742 0.537916411
    outer loop
      vertex 4.22589019 1.32437179 1.52457679
      vertex 4.17687187 1.32826278 1.44918698
      vertex 4.17660202 1.32705105 1.44932057
    endloop
  endfacet
  facet normal 0.547646286 -0.029769643 0.836180192
    outer loop
      vertex 4.22856202 1.32422655 1.52282173
      vertex 4.22616004 1.32558351 1.52444319
      vertex 4.22589019 1.32437179 1.52457679
    endloop
  endfacet
  facet normal -0.547646286 0.029769643 -0.836180192
    outer loop
      vertex 4.17927385 1.32690581 1.44756552
      vertex 4.17660202 1.32705105 1.44932057
      vertex 4.17687187 1.32826278 1.44918698
    endloop
  endfacet
  facet normal -0.66407761 0.592489226 0.456023514
    outer loop
      vertex 4.22616004 1.32558351 1.52444319
      vertex 4.22679557 1.32658865 1.52406274
      vertex 4.1775074 1.32926792 1.44880653
    endloop
  endfacet
  facet normal -0.66407761 0.592489226 0.456023514
    outer loop
      vertex 4.22616004 1.32558351 1.52444319
      vertex 4.1775074 1.32926792 1.44880653
      vertex 4.17687187 1.32826278 1.44918698
    endloop
  endfacet
  facet normal 0.547646286 -0.029769643 0.836180192
    outer loop
      vertex 4.22856202 1.32422655 1.52282173
      vertex 4.22679557 1.32658865 1.52406274
      vertex 4.22616004 1.32558351 1.52444319
    endloop
  endfacet
  facet normal -0.547646286 0.029769643 -0.836180192
    outer loop
      vertex 4.17927385 1.32690581 1.44756552
      vertex 4.17687187 1.32826278 1.44918698
      vertex 4.1775074 1.32926792 1.44880653
    endloop
  endfacet
  facet normal -0.418740539 0.855459596 0.30470517
    outer loop
      vertex 4.22679557 1.32658865 1.52406274
      vertex 4.22770002 1.32723418 1.52349336
      vertex 4.17841186 1.32991345 1.44823715
    endloop
  endfacet
  facet normal -0.418740539 0.855459596 0.30470517
    outer loop
      vertex 4.22679557 1.32658865 1.52406274
      vertex 4.17841186 1.32991345 1.44823715
      vertex 4.1775074 1.32926792 1.44880653
    endloop
  endfacet
  facet normal 0.547646286 -0.029769643 0.836180192
    outer loop
      vertex 4.22856202 1.32422655 1.52282173
      vertex 4.22770002 1.32723418 1.52349336
      vertex 4.22679557 1.32658865 1.52406274
    endloop
  endfacet
  facet normal -0.547646286 0.029769643 -0.836180192
    outer loop
      vertex 4.17927385 1.32690581 1.44756552
      vertex 4.1775074 1.32926792 1.44880653
      vertex 4.17841186 1.32991345 1.44823715
    endloop
  endfacet
  facet normal -0.109654017 0.988193997 0.106998227
    outer loop
      vertex 4.22770002 1.32723418 1.52349336
      vertex 4.22873571 1.32742183 1.52282173
      vertex 4.17944755 1.3301011 1.44756552
    endloop
  endfacet
  facet normal -0.109654017 0.988193997 0.106998227
    outer loop
      vertex 4.22770002 1.32723418 1.52349336
      vertex 4.17944755 1.3301011 1.44756552
      vertex 4.17841186 1.32991345 1.44823715
    endloop
  endfacet
  facet normal 0.547646286 -0.029769643 0.836180192
    outer loop
      vertex 4.22856202 1.32422655 1.52282173
      vertex 4.22873571 1.32742183 1.52282173
      vertex 4.22770002 1.32723418 1.52349336
    endloop
  endfacet
  facet normal -0.547646286 0.029769643 -0.836180192
    outer loop
      vertex 4.17927385 1.32690581 1.44756552
      vertex 4.17841186 1.32991345 1.44823715
      vertex 4.17944755 1.3301011 1.44756552
    endloop
  endfacet
endsolid a20_features
