solid f2_features
  facet normal -0.519448968 -0.842919223 -0.140213958
    outer loop
      vertex -0.335392492 -0.255215737 0.683647509
      vertex -0.336073554 -0.254649629 0.682767383
      vertex -0.270298581 -0.283617494 0.613236701
    endloop
  endfacet
  facet normal -0.519448968 -0.842919223 -0.140213958
    outer loop
      vertex -0.335392492 -0.255215737 0.683647509
      vertex -0.270298581 -0.283617494 0.613236701
      vertex -0.269617518 -0.284183602 0.614116828
    endloop
  endfacet
  facet normal -0.657749733 0.289678646 0.695306817
    outer loop
      vertex -0.334102726 -0.25228717 0.683647509
      vertex -0.336073554 -0.254649629 0.682767383
      vertex -0.335392492 -0.255215737 0.683647509
    endloop
  endfacet
  facet normal 0.657749733 -0.289678646 -0.695306817
    outer loop
      vertex -0.268327752 -0.281255035 0.614116828
      vertex -0.269617518 -0.284183602 0.614116828
      vertex -0.270298581 -0.283617494 0.613236701
    endloop
  endfacet
  facet normal -0.68865079 -0.605246345 -0.39929557
    outer loop
      vertex -0.336073554 -0.254649629 0.682767383
      vertex -0.336454576 -0.253723859 0.682021247
      vertex -0.270679603 -0.282691723 0.612490566
    endloop
  endfacet
  facet normal -0.68865079 -0.605246345 -0.39929557
    outer loop
      vertex -0.336073554 -0.254649629 0.682767383
      vertex -0.270679603 -0.282691723 0.612490566
      vertex -0.270298581 -0.283617494 0.613236701
    endloop
  endfacet
  facet normal -0.657749733 0.289678646 0.695306817
    outer loop
      vertex -0.334102726 -0.25228717 0.683647509
      vertex -0.336454576 -0.253723859 0.682021247
      vertex -0.336073554 -0.254649629 0.682767383
    endloop
  endfacet
  facet normal 0.657749733 -0.289678646 -0.695306817
    outer loop
      vertex -0.268327752 -0.281255035 0.614116828
      vertex -0.270298581 -0.283617494 0.613236701
      vertex -0.270679603 -0.282691723 0.612490566
    endloop
  endfacet
  facet normal -0.753011772 -0.275430198 -0.59758805
    outer loop
      vertex -0.336454576 -0.253723859 0.682021247
      vertex -0.33647755 -0.252579365 0.681522696
      vertex -0.270702576 -0.28154723 0.611992014
    endloop
  endfacet
  facet normal -0.753011772 -0.275430198 -0.59758805
    outer loop
      vertex -0.336454576 -0.253723859 0.682021247
      vertex -0.270702576 -0.28154723 0.611992014
      vertex -0.270679603 -0.282691723 0.612490566
    endloop
  endfacet
  facet normal -0.657749733 0.289678646 0.695306817
    outer loop
      vertex -0.334102726 -0.25228717 0.683647509
      vertex -0.33647755 -0.252579365 0.681522696
      vertex -0.336454576 -0.253723859 0.682021247
    endloop
  endfacet
  facet normal 0.657749733 -0.289678646 -0.695306817
    outer loop
      vertex -0.268327752 -0.281255035 0.614116828
      vertex -0.270679603 -0.282691723 0.612490566
      vertex -0.270702576 -0.28154723 0.611992014
    endloop
  endfacet
  facet normal -0.702733538 0.0963177006 -0.704903168
    outer loop
      vertex -0.33647755 -0.252579365 0.681522696
      vertex -0.336138978 -0.251390387 0.681347628
      vertex -0.270364005 -0.280358252 0.611816946
    endloop
  endfacet
  facet normal -0.702733538 0.0963177006 -0.704903168
    outer loop
      vertex -0.33647755 -0.252579365 0.681522696
      vertex -0.270364005 -0.280358252 0.611816946
      vertex -0.270702576 -0.28154723 0.611992014
    endloop
  endfacet
  facet normal -0.657749733 0.289678646 0.695306817
    outer loop
      vertex -0.334102726 -0.25228717 0.683647509
      vertex -0.336138978 -0.251390387 0.681347628
      vertex -0.33647755 -0.252579365 0.681522696
    endloop
  endfacet
  facet normal 0.657749733 -0.289678646 -0.695306817
    outer loop
      vertex -0.268327752 -0.281255035 0.614116828
      vertex -0.270702576 -0.28154723 0.611992014
      vertex -0.270364005 -0.280358252 0.611816946
    endloop
  endfacet
  facet normal -0.545470493 0.453402102 -0.704903168
    outer loop
      vertex -0.336138978 -0.251390387 0.681347628
      vertex -0.335490406 -0.250337937 0.681522696
      vertex -0.269715432 -0.279305802 0.611992014
    endloop
  endfacet
  facet normal -0.545470493 0.453402102 -0.704903168
    outer loop
      vertex -0.336138978 -0.251390387 0.681347628
      vertex -0.269715432 -0.279305802 0.611992014
      vertex -0.270364005 -0.280358252 0.611816946
    endloop
  endfacet
  facet normal -0.657749733 0.289678646 0.695306817
    outer loop
      vertex -0.334102726 -0.25228717 0.683647509
      vertex -0.335490406 -0.250337937 0.681522696
      vertex -0.336138978 -0.251390387 0.681347628
    endloop
  endfacet
  facet normal 0.657749733 -0.289678646 -0.695306817
    outer loop
      vertex -0.268327752 -0.281255035 0.614116828
      vertex -0.270364005 -0.280358252 0.611816946
      vertex -0.269715432 -0.279305802 0.611992014
    endloop
  endfacet
  facet normal -0.30516451 0.741460143 -0.59758805
    outer loop
      vertex -0.335490406 -0.250337937 0.681522696
      vertex -0.334630571 -0.24958224 0.682021247
      vertex -0.268855598 -0.278550104 0.612490566
    endloop
  endfacet
  facet normal -0.30516451 0.741460143 -0.59758805
    outer loop
      vertex -0.335490406 -0.250337937 0.681522696
      vertex -0.268855598 -0.278550104 0.612490566
      vertex -0.269715432 -0.279305802 0.611992014
    endloop
  endfacet
  facet normal -0.657749733 0.289678646 0.695306817
    outer loop
      vertex -0.334102726 -0.25228717 0.683647509
      vertex -0.334630571 -0.24958224 0.682021247
      vertex -0.335490406 -0.250337937 0.681522696
    endloop
  endfacet
  facet normal 0.657749733 -0.289678646 -0.695306817
    outer loop
      vertex -0.268327752 -0.281255035 0.614116828
      vertex -0.269715432 -0.279305802 0.611992014
      vertex -0.268855598 -0.278550104 0.612490566
    endloop
  endfacet
  facet normal -0.0183999967 0.916637599 -0.39929557
    outer loop
      vertex -0.334630571 -0.24958224 0.682021247
      vertex -0.333690377 -0.249238343 0.682767383
      vertex -0.267915404 -0.278206208 0.613236701
    endloop
  endfacet
  facet normal -0.0183999967 0.916637599 -0.39929557
    outer loop
      vertex -0.334630571 -0.24958224 0.682021247
      vertex -0.267915404 -0.278206208 0.613236701
      vertex -0.268855598 -0.278550104 0.612490566
    endloop
  endfacet
  facet normal -0.657749733 0.289678646 0.695306817
    outer loop
      vertex -0.334102726 -0.25228717 0.683647509
      vertex -0.333690377 -0.249238343 0.682767383
      vertex -0.334630571 -0.24958224 0.682021247
    endloop
  endfacet
  facet normal 0.657749733 -0.289678646 -0.695306817
    outer loop
      vertex -0.268327752 -0.281255035 0.614116828
      vertex -0.268855598 -0.278550104 0.612490566
      vertex -0.267915404 -0.278206208 0.613236701
    endloop
  endfacet
  facet normal 0.271165749 0.95226529 -0.140213958
    outer loop
      vertex -0.333690377 -0.249238343 0.682767383
      vertex -0.33281296 -0.249358604 0.683647509
      vertex -0.267037986 -0.278326468 0.614116828
    endloop
  endfacet
  facet normal 0.271165749 0.95226529 -0.140213958
    outer loop
      vertex -0.333690377 -0.249238343 0.682767383
      vertex -0.267037986 -0.278326468 0.614116828
      vertex -0.267915404 -0.278206208 0.613236701
    endloop
  endfacet
  facet normal -0.657749733 0.289678646 0.695306817
    outer loop
      vertex -0.334102726 -0.25228717 0.683647509
      vertex -0.33281296 -0.249358604 0.683647509
      vertex -0.333690377 -0.249238343 0.682767383
    endloop
  endfacet
  facet normal 0.657749733 -0.289678646 -0.695306817
    outer loop
      vertex -0.268327752 -0.281255035 0.614116828
      vertex -0.267915404 -0.278206208 0.613236701
      vertex -0.267037986 -0.278326468 0.614116828
    endloop
  endfacet
  facet normal 0.519448968 0.842919223 0.140213958
    outer loop
      vertex -0.33281296 -0.249358604 0.683647509
      vertex -0.332131897 -0.249924712 0.684527636
      vertex -0.266356924 -0.278892576 0.614996954
    endloop
  endfacet
  facet normal 0.519448968 0.842919223 0.140213958
    outer loop
      vertex -0.33281296 -0.249358604 0.683647509
      vertex -0.266356924 -0.278892576 0.614996954
      vertex -0.267037986 -0.278326468 0.614116828
    endloop
  endfacet
  facet normal -0.657749733 0.289678646 0.695306817
    outer loop
      vertex -0.334102726 -0.25228717 0.683647509
      vertex -0.332131897 -0.249924712 0.684527636
      vertex -0.33281296 -0.249358604 0.683647509
    endloop
  endfacet
  facet normal 0.657749733 -0.289678646 -0.695306817
    outer loop
      vertex -0.268327752 -0.281255035 0.614116828
      vertex -0.267037986 -0.278326468 0.614116828
      vertex -0.266356924 -0.278892576 0.614996954
    endloop
  endfacet
  facet normal 0.68865079 0.605246345 0.39929557
    outer loop
      vertex -0.332131897 -0.249924712 0.684527636
      vertex -0.331750875 -0.250850482 0.685273771
      vertex -0.265975902 -0.279818347 0.61574309
    endloop
  endfacet
  facet normal 0.68865079 0.605246345 0.39929557
    outer loop
      vertex -0.332131897 -0.249924712 0.684527636
      vertex -0.265975902 -0.279818347 0.61574309
      vertex -0.266356924 -0.278892576 0.614996954
    endloop
  endfacet
  facet normal -0.657749733 0.289678646 0.695306817
    outer loop
      vertex -0.334102726 -0.25228717 0.683647509
      vertex -0.331750875 -0.250850482 0.685273771
      vertex -0.332131897 -0.249924712 0.684527636
    endloop
  endfacet
  facet normal 0.657749733 -0.289678646 -0.695306817
    outer loop
      vertex -0.268327752 -0.281255035 0.614116828
      vertex -0.266356924 -0.278892576 0.614996954
      vertex -0.265975902 -0.279818347 0.61574309
    endloop
  endfacet
  facet normal 0.753011772 0.275430198 0.59758805
    outer loop
      vertex -0.331750875 -0.250850482 0.685273771
      vertex -0.331727902 -0.251994976 0.685772323
      vertex -0.265952928 -0.280962841 0.616241641
    endloop
  endfacet
  facet normal 0.753011772 0.275430198 0.59758805
    outer loop
      vertex -0.331750875 -0.250850482 0.685273771
      vertex -0.265952928 -0.280962841 0.616241641
      vertex -0.265975902 -0.279818347 0.61574309
    endloop
  endfacet
  facet normal -0.657749733 0.289678646 0.695306817
    outer loop
      vertex -0.334102726 -0.25228717 0.683647509
      vertex -0.331727902 -0.251994976 0.685772323
      vertex -0.331750875 -0.250850482 0.685273771
    endloop
  endfacet
  facet normal 0.657749733 -0.289678646 -0.695306817
    outer loop
      vertex -0.268327752 -0.281255035 0.614116828
      vertex -0.265975902 -0.279818347 0.61574309
      vertex -0.265952928 -0.280962841 0.616241641
    endloop
  endfacet
  facet normal 0.702733538 -0.0963177006 0.704903168
    outer loop
      vertex -0.331727902 -0.251994976 0.685772323
      vertex -0.332066473 -0.253183954 0.685947391
      vertex -0.2662915 -0.282151818 0.616416709
    endloop
  endfacet
  facet normal 0.702733538 -0.0963177006 0.704903168
    outer loop
      vertex -0.331727902 -0.251994976 0.685772323
      vertex -0.2662915 -0.282151818 0.616416709
      vertex -0.265952928 -0.280962841 0.616241641
    endloop
  endfacet
  facet normal -0.657749733 0.289678646 0.695306817
    outer loop
      vertex -0.334102726 -0.25228717 0.683647509
      vertex -0.332066473 -0.253183954 0.685947391
      vertex -0.331727902 -0.251994976 0.685772323
    endloop
  endfacet
  facet normal 0.657749733 -0.289678646 -0.695306817
    outer loop
      vertex -0.268327752 -0.281255035 0.614116828
      vertex -0.265952928 -0.280962841 0.616241641
      vertex -0.2662915 -0.282151818 0.616416709
    endloop
  endfacet
  facet normal 0.545470493 -0.453402102 0.704903168
    outer loop
      vertex -0.332066473 -0.253183954 0.685947391
      vertex -0.332715046 -0.254236404 0.685772323
      vertex -0.266940073 -0.283204269 0.616241641
    endloop
  endfacet
  facet normal 0.545470493 -0.453402102 0.704903168
    outer loop
      vertex -0.332066473 -0.253183954 0.685947391
      vertex -0.266940073 -0.283204269 0.616241641
      vertex -0.2662915 -0.282151818 0.616416709
    endloop
  endfacet
  facet normal -0.657749733 0.289678646 0.695306817
    outer loop
      vertex -0.334102726 -0.25228717 0.683647509
      vertex -0.332715046 -0.254236404 0.685772323
      vertex -0.332066473 -0.253183954 0.685947391
    endloop
  endfacet
  facet normal 0.657749733 -0.289678646 -0.695306817
    outer loop
      vertex -0.268327752 -0.281255035 0.614116828
      vertex -0.2662915 -0.282151818 0.616416709
      vertex -0.266940073 -0.283204269 0.616241641
    endloop
  endfacet
  facet normal 0.30516451 -0.741460143 0.59758805
    outer loop
      vertex -0.332715046 -0.254236404 0.685772323
      vertex -0.33357488 -0.254992101 0.685273771
      vertex -0.267799907 -0.283959966 0.61574309
    endloop
  endfacet
  facet normal 0.30516451 -0.741460143 0.59758805
    outer loop
      vertex -0.332715046 -0.254236404 0.685772323
      vertex -0.267799907 -0.283959966 0.61574309
      vertex -0.266940073 -0.283204269 0.616241641
    endloop
  endfacet
  facet normal -0.657749733 0.289678646 0.695306817
    outer loop
      vertex -0.334102726 -0.25228717 0.683647509
      vertex -0.33357488 -0.254992101 0.685273771
      vertex -0.332715046 -0.254236404 0.685772323
    endloop
  endfacet
  facet normal 0.657749733 -0.289678646 -0.695306817
    outer loop
      vertex -0.268327752 -0.281255035 0.614116828
      vertex -0.266940073 -0.283204269 0.616241641
      vertex -0.267799907 -0.283959966 0.61574309
    endloop
  endfacet
  facet normal 0.0183999967 -0.916637599 0.39929557
    outer loop
      vertex -0.33357488 -0.254992101 0.685273771
      vertex -0.334515074 -0.255335997 0.684527636
      vertex -0.268740101 -0.284303862 0.614996954
    endloop
  endfacet
  facet normal 0.0183999967 -0.916637599 0.39929557
    outer loop
      vertex -0.33357488 -0.254992101 0.685273771
      vertex -0.268740101 -0.284303862 0.614996954
      vertex -0.267799907 -0.283959966 0.61574309
    endloop
  endfacet
  facet normal -0.657749733 0.289678646 0.695306817
    outer loop
      vertex -0.334102726 -0.25228717 0.683647509
      vertex -0.334515074 -0.255335997 0.684527636
      vertex -0.33357488 -0.254992101 0.685273771
    endloop
  endfacet
  facet normal 0.657749733 -0.289678646 -0.695306817
    outer loop
      vertex -0.268327752 -0.281255035 0.614116828
      vertex -0.267799907 -0.283959966 0.61574309
      vertex -0.268740101 -0.284303862 0.614996954
    endloop
  endfacet
  facet normal -0.271165749 -0.95226529 0.140213958
    outer loop
      vertex -0.334515074 -0.255335997 0.684527636
      vertex -0.335392492 -0.255215737 0.683647509
      vertex -0.269617518 -0.284183602 0.614116828
    endloop
  endfacet
  facet normal -0.271165749 -0.95226529 0.140213958
    outer loop
      vertex -0.334515074 -0.255335997 0.684527636
      vertex -0.269617518 -0.284183602 0.614116828
      vertex -0.268740101 -0.284303862 0.614996954
    endloop
  endfacet
  facet normal -0.657749733 0.289678646 0.695306817
    outer loop
      vertex -0.334102726 -0.25228717 0.683647509
      vertex -0.335392492 -0.255215737 0.683647509
      vertex -0.334515074 -0.255335997 0.684527636
    endloop
  endfacet
  facet normal 0.657749733 -0.289678646 -0.695306817
    outer loop
      vertex -0.268327752 -0.281255035 0.614116828
      vertex -0.268740101 -0.284303862 0.614996954
      vertex -0.269617518 -0.284183602 0.614116828
    endloop
  endfacet
  facet normal -0.519448968 -0.842919223 -0.140213958
    outer loop
      vertex -0.318183222 -0.231489212 0.690042276
      vertex -0.318864285 -0.230923104 0.689162149
      vertex -0.253089312 -0.259890969 0.619631467
    endloop
  endfacet
  facet normal -0.519448968 -0.842919223 -0.140213958
    outer loop
      vertex -0.318183222 -0.231489212 0.690042276
      vertex -0.253089312 -0.259890969 0.619631467
      vertex -0.252408249 -0.260457076 0.620511594
    endloop
  endfacet
  facet normal -0.657749733 0.289678646 0.695306817
    outer loop
      vertex -0.316893456 -0.228560645 0.690042276
      vertex -0.318864285 -0.230923104 0.689162149
      vertex -0.318183222 -0.231489212 0.690042276
    endloop
  endfacet
  facet normal 0.657749733 -0.289678646 -0.695306817
    outer loop
      vertex -0.251118483 -0.25752851 0.620511594
      vertex -0.252408249 -0.260457076 0.620511594
      vertex -0.253089312 -0.259890969 0.619631467
    endloop
  endfacet
  facet normal -0.68865079 -0.605246345 -0.39929557
    outer loop
      vertex -0.318864285 -0.230923104 0.689162149
      vertex -0.319245307 -0.229997333 0.688416014
      vertex -0.253470333 -0.258965198 0.618885332
    endloop
  endfacet
  facet normal -0.68865079 -0.605246345 -0.39929557
    outer loop
      vertex -0.318864285 -0.230923104 0.689162149
      vertex -0.253470333 -0.258965198 0.618885332
      vertex -0.253089312 -0.259890969 0.619631467
    endloop
  endfacet
  facet normal -0.657749733 0.289678646 0.695306817
    outer loop
      vertex -0.316893456 -0.228560645 0.690042276
      vertex -0.319245307 -0.229997333 0.688416014
      vertex -0.318864285 -0.230923104 0.689162149
    endloop
  endfacet
  facet normal 0.657749733 -0.289678646 -0.695306817
    outer loop
      vertex -0.251118483 -0.25752851 0.620511594
      vertex -0.253089312 -0.259890969 0.619631467
      vertex -0.253470333 -0.258965198 0.618885332
    endloop
  endfacet
  facet normal -0.753011772 -0.275430198 -0.59758805
    outer loop
      vertex -0.319245307 -0.229997333 0.688416014
      vertex -0.31926828 -0.228852839 0.687917462
      vertex -0.253493307 -0.257820704 0.61838678
    endloop
  endfacet
  facet normal -0.753011772 -0.275430198 -0.59758805
    outer loop
      vertex -0.319245307 -0.229997333 0.688416014
      vertex -0.253493307 -0.257820704 0.61838678
      vertex -0.253470333 -0.258965198 0.618885332
    endloop
  endfacet
  facet normal -0.657749733 0.289678646 0.695306817
    outer loop
      vertex -0.316893456 -0.228560645 0.690042276
      vertex -0.31926828 -0.228852839 0.687917462
      vertex -0.319245307 -0.229997333 0.688416014
    endloop
  endfacet
  facet normal 0.657749733 -0.289678646 -0.695306817
    outer loop
      vertex -0.251118483 -0.25752851 0.620511594
      vertex -0.253470333 -0.258965198 0.618885332
      vertex -0.253493307 -0.257820704 0.61838678
    endloop
  endfacet
  facet normal -0.702733538 0.0963177006 -0.704903168
    outer loop
      vertex -0.31926828 -0.228852839 0.687917462
      vertex -0.318929709 -0.227663862 0.687742394
      vertex -0.253154735 -0.256631726 0.618211712
    endloop
  endfacet
  facet normal -0.702733538 0.0963177006 -0.704903168
    outer loop
      vertex -0.31926828 -0.228852839 0.687917462
      vertex -0.253154735 -0.256631726 0.618211712
      vertex -0.253493307 -0.257820704 0.61838678
    endloop
  endfacet
  facet normal -0.657749733 0.289678646 0.695306817
    outer loop
      vertex -0.316893456 -0.228560645 0.690042276
      vertex -0.318929709 -0.227663862 0.687742394
      vertex -0.31926828 -0.228852839 0.687917462
    endloop
  endfacet
  facet normal 0.657749733 -0.289678646 -0.695306817
    outer loop
      vertex -0.251118483 -0.25752851 0.620511594
      vertex -0.253493307 -0.257820704 0.61838678
      vertex -0.253154735 -0.256631726 0.618211712
    endloop
  endfacet
  facet normal -0.545470493 0.453402102 -0.704903168
    outer loop
      vertex -0.318929709 -0.227663862 0.687742394
      vertex -0.318281136 -0.226611411 0.687917462
      vertex -0.252506163 -0.255579276 0.61838678
    endloop
  endfacet
  facet normal -0.545470493 0.453402102 -0.704903168
    outer loop
      vertex -0.318929709 -0.227663862 0.687742394
      vertex -0.252506163 -0.255579276 0.61838678
      vertex -0.253154735 -0.256631726 0.618211712
    endloop
  endfacet
  facet normal -0.657749733 0.289678646 0.695306817
    outer loop
      vertex -0.316893456 -0.228560645 0.690042276
      vertex -0.318281136 -0.226611411 0.687917462
      vertex -0.318929709 -0.227663862 0.687742394
    endloop
  endfacet
  facet normal 0.657749733 -0.289678646 -0.695306817
    outer loop
      vertex -0.251118483 -0.25752851 0.620511594
      vertex -0.253154735 -0.256631726 0.618211712
      vertex -0.252506163 -0.255579276 0.61838678
    endloop
  endfacet
  facet normal -0.30516451 0.741460143 -0.59758805
    outer loop
      vertex -0.318281136 -0.226611411 0.687917462
      vertex -0.317421302 -0.225855714 0.688416014
      vertex -0.251646329 -0.254823579 0.618885332
    endloop
  endfacet
  facet normal -0.30516451 0.741460143 -0.59758805
    outer loop
      vertex -0.318281136 -0.226611411 0.687917462
      vertex -0.251646329 -0.254823579 0.618885332
      vertex -0.252506163 -0.255579276 0.61838678
    endloop
  endfacet
  facet normal -0.657749733 0.289678646 0.695306817
    outer loop
      vertex -0.316893456 -0.228560645 0.690042276
      vertex -0.317421302 -0.225855714 0.688416014
      vertex -0.318281136 -0.226611411 0.687917462
    endloop
  endfacet
  facet normal 0.657749733 -0.289678646 -0.695306817
    outer loop
      vertex -0.251118483 -0.25752851 0.620511594
      vertex -0.252506163 -0.255579276 0.61838678
      vertex -0.251646329 -0.254823579 0.618885332
    endloop
  endfacet
  facet normal -0.0183999967 0.916637599 -0.39929557
    outer loop
      vertex -0.317421302 -0.225855714 0.688416014
      vertex -0.316481108 -0.225511818 0.689162149
      vertex -0.250706135 -0.254479683 0.619631467
    endloop
  endfacet
  facet normal -0.0183999967 0.916637599 -0.39929557
    outer loop
      vertex -0.317421302 -0.225855714 0.688416014
      vertex -0.250706135 -0.254479683 0.619631467
      vertex -0.251646329 -0.254823579 0.618885332
    endloop
  endfacet
  facet normal -0.657749733 0.289678646 0.695306817
    outer loop
      vertex -0.316893456 -0.228560645 0.690042276
      vertex -0.316481108 -0.225511818 0.689162149
      vertex -0.317421302 -0.225855714 0.688416014
    endloop
  endfacet
  facet normal 0.657749733 -0.289678646 -0.695306817
    outer loop
      vertex -0.251118483 -0.25752851 0.620511594
      vertex -0.251646329 -0.254823579 0.618885332
      vertex -0.250706135 -0.254479683 0.619631467
    endloop
  endfacet
  facet normal 0.271165749 0.95226529 -0.140213958
    outer loop
      vertex -0.316481108 -0.225511818 0.689162149
      vertex -0.31560369 -0.225632078 0.690042276
      vertex -0.249828717 -0.254599943 0.620511594
    endloop
  endfacet
  facet normal 0.271165749 0.95226529 -0.140213958
    outer loop
      vertex -0.316481108 -0.225511818 0.689162149
      vertex -0.249828717 -0.254599943 0.620511594
      vertex -0.250706135 -0.254479683 0.619631467
    endloop
  endfacet
  facet normal -0.657749733 0.289678646 0.695306817
    outer loop
      vertex -0.316893456 -0.228560645 0.690042276
      vertex -0.31560369 -0.225632078 0.690042276
      vertex -0.316481108 -0.225511818 0.689162149
    endloop
  endfacet
  facet normal 0.657749733 -0.289678646 -0.695306817
    outer loop
      vertex -0.251118483 -0.25752851 0.620511594
      vertex -0.250706135 -0.254479683 0.619631467
      vertex -0.249828717 -0.254599943 0.620511594
    endloop
  endfacet
  facet normal 0.519448968 0.842919223 0.140213958
    outer loop
      vertex -0.31560369 -0.225632078 0.690042276
      vertex -0.314922628 -0.226198186 0.690922402
      vertex -0.249147654 -0.255166051 0.621391721
    endloop
  endfacet
  facet normal 0.519448968 0.842919223 0.140213958
    outer loop
      vertex -0.31560369 -0.225632078 0.690042276
      vertex -0.249147654 -0.255166051 0.621391721
      vertex -0.249828717 -0.254599943 0.620511594
    endloop
  endfacet
  facet normal -0.657749733 0.289678646 0.695306817
    outer loop
      vertex -0.316893456 -0.228560645 0.690042276
      vertex -0.314922628 -0.226198186 0.690922402
      vertex -0.31560369 -0.225632078 0.690042276
    endloop
  endfacet
  facet normal 0.657749733 -0.289678646 -0.695306817
    outer loop
      vertex -0.251118483 -0.25752851 0.620511594
      vertex -0.249828717 -0.254599943 0.620511594
      vertex -0.249147654 -0.255166051 0.621391721
    endloop
  endfacet
  facet normal 0.68865079 0.605246345 0.39929557
    outer loop
      vertex -0.314922628 -0.226198186 0.690922402
      vertex -0.314541606 -0.227123957 0.691668538
      vertex -0.248766633 -0.256091822 0.622137856
    endloop
  endfacet
  facet normal 0.68865079 0.605246345 0.39929557
    outer loop
      vertex -0.314922628 -0.226198186 0.690922402
      vertex -0.248766633 -0.256091822 0.622137856
      vertex -0.249147654 -0.255166051 0.621391721
    endloop
  endfacet
  facet normal -0.657749733 0.289678646 0.695306817
    outer loop
      vertex -0.316893456 -0.228560645 0.690042276
      vertex -0.314541606 -0.227123957 0.691668538
      vertex -0.314922628 -0.226198186 0.690922402
    endloop
  endfacet
  facet normal 0.657749733 -0.289678646 -0.695306817
    outer loop
      vertex -0.251118483 -0.25752851 0.620511594
      vertex -0.249147654 -0.255166051 0.621391721
      vertex -0.248766633 -0.256091822 0.622137856
    endloop
  endfacet
  facet normal 0.753011772 0.275430198 0.59758805
    outer loop
      vertex -0.314541606 -0.227123957 0.691668538
      vertex -0.314518632 -0.228268451 0.692167089
      vertex -0.248743659 -0.257236315 0.622636408
    endloop
  endfacet
  facet normal 0.753011772 0.275430198 0.59758805
    outer loop
      vertex -0.314541606 -0.227123957 0.691668538
      vertex -0.248743659 -0.257236315 0.622636408
      vertex -0.248766633 -0.256091822 0.622137856
    endloop
  endfacet
  facet normal -0.657749733 0.289678646 0.695306817
    outer loop
      vertex -0.316893456 -0.228560645 0.690042276
      vertex -0.314518632 -0.228268451 0.692167089
      vertex -0.314541606 -0.227123957 0.691668538
    endloop
  endfacet
  facet normal 0.657749733 -0.289678646 -0.695306817
    outer loop
      vertex -0.251118483 -0.25752851 0.620511594
      vertex -0.248766633 -0.256091822 0.622137856
      vertex -0.248743659 -0.257236315 0.622636408
    endloop
  endfacet
  facet normal 0.702733538 -0.0963177006 0.704903168
    outer loop
      vertex -0.314518632 -0.228268451 0.692167089
      vertex -0.314857204 -0.229457428 0.692342157
      vertex -0.249082231 -0.258425293 0.622811476
    endloop
  endfacet
  facet normal 0.702733538 -0.0963177006 0.704903168
    outer loop
      vertex -0.314518632 -0.228268451 0.692167089
      vertex -0.249082231 -0.258425293 0.622811476
      vertex -0.248743659 -0.257236315 0.622636408
    endloop
  endfacet
  facet normal -0.657749733 0.289678646 0.695306817
    outer loop
      vertex -0.316893456 -0.228560645 0.690042276
      vertex -0.314857204 -0.229457428 0.692342157
      vertex -0.314518632 -0.228268451 0.692167089
    endloop
  endfacet
  facet normal 0.657749733 -0.289678646 -0.695306817
    outer loop
      vertex -0.251118483 -0.25752851 0.620511594
      vertex -0.248743659 -0.257236315 0.622636408
      vertex -0.249082231 -0.258425293 0.622811476
    endloop
  endfacet
  facet normal 0.545470493 -0.453402102 0.704903168
    outer loop
      vertex -0.314857204 -0.229457428 0.692342157
      vertex -0.315505776 -0.230509879 0.692167089
      vertex -0.249730803 -0.259477743 0.622636408
    endloop
  endfacet
  facet normal 0.545470493 -0.453402102 0.704903168
    outer loop
      vertex -0.314857204 -0.229457428 0.692342157
      vertex -0.249730803 -0.259477743 0.622636408
      vertex -0.249082231 -0.258425293 0.622811476
    endloop
  endfacet
  facet normal -0.657749733 0.289678646 0.695306817
    outer loop
      vertex -0.316893456 -0.228560645 0.690042276
      vertex -0.315505776 -0.230509879 0.692167089
      vertex -0.314857204 -0.229457428 0.692342157
    endloop
  endfacet
  facet normal 0.657749733 -0.289678646 -0.695306817
    outer loop
      vertex -0.251118483 -0.25752851 0.620511594
      vertex -0.249082231 -0.258425293 0.622811476
      vertex -0.249730803 -0.259477743 0.622636408
    endloop
  endfacet
  facet normal 0.30516451 -0.741460143 0.59758805
    outer loop
      vertex -0.315505776 -0.230509879 0.692167089
      vertex -0.316365611 -0.231265576 0.691668538
      vertex -0.250590637 -0.26023344 0.622137856
    endloop
  endfacet
  facet normal 0.30516451 -0.741460143 0.59758805
    outer loop
      vertex -0.315505776 -0.230509879 0.692167089
      vertex -0.250590637 -0.26023344 0.622137856
      vertex -0.249730803 -0.259477743 0.622636408
    endloop
  endfacet
  facet normal -0.657749733 0.289678646 0.695306817
    outer loop
      vertex -0.316893456 -0.228560645 0.690042276
      vertex -0.316365611 -0.231265576 0.691668538
      vertex -0.315505776 -0.230509879 0.692167089
    endloop
  endfacet
  facet normal 0.657749733 -0.289678646 -0.695306817
    outer loop
      vertex -0.251118483 -0.25752851 0.620511594
      vertex -0.249730803 -0.259477743 0.622636408
      vertex -0.250590637 -0.26023344 0.622137856
    endloop
  endfacet
  facet normal 0.0183999967 -0.916637599 0.39929557
    outer loop
      vertex -0.316365611 -0.231265576 0.691668538
      vertex -0.317305805 -0.231609472 0.690922402
      vertex -0.251530831 -0.260577337 0.621391721
    endloop
  endfacet
  facet normal 0.0183999967 -0.916637599 0.39929557
    outer loop
      vertex -0.316365611 -0.231265576 0.691668538
      vertex -0.251530831 -0.260577337 0.621391721
      vertex -0.250590637 -0.26023344 0.622137856
    endloop
  endfacet
  facet normal -0.657749733 0.289678646 0.695306817
    outer loop
      vertex -0.316893456 -0.228560645 0.690042276
      vertex -0.317305805 -0.231609472 0.690922402
      vertex -0.316365611 -0.231265576 0.691668538
    endloop
  endfacet
  facet normal 0.657749733 -0.289678646 -0.695306817
    outer loop
      vertex -0.251118483 -0.25752851 0.620511594
      vertex -0.250590637 -0.26023344 0.622137856
      vertex -0.251530831 -0.260577337 0.621391721
    endloop
  endfacet
  facet normal -0.271165749 -0.95226529 0.140213958
    outer loop
      vertex -0.317305805 -0.231609472 0.690922402
      vertex -0.318183222 -0.231489212 0.690042276
      vertex -0.252408249 -0.260457076 0.620511594
    endloop
  endfacet
  facet normal -0.271165749 -0.95226529 0.140213958
    outer loop
      vertex -0.317305805 -0.231609472 0.690922402
      vertex -0.252408249 -0.260457076 0.620511594
      vertex -0.251530831 -0.260577337 0.621391721
    endloop
  endfacet
  facet normal -0.657749733 0.289678646 0.695306817
    outer loop
      vertex -0.316893456 -0.228560645 0.690042276
      vertex -0.318183222 -0.231489212 0.690042276
      vertex -0.317305805 -0.231609472 0.690922402
    endloop
  endfacet
  facet normal 0.657749733 -0.289678646 -0.695306817
    outer loop
      vertex -0.251118483 -0.25752851 0.620511594
      vertex -0.251530831 -0.260577337 0.621391721
      vertex -0.252408249 -0.260457076 0.620511594
    endloop
  endfacet
  facet normal -0.0116285885 0.983909148 -0.178290674
    outer loop
      vertex -0.159890735 -0.487968647 0.78677837
      vertex -0.159373239 -0.488165325 0.785659234
      vertex -0.295871702 -0.500813136 0.724764221
    endloop
  endfacet
  facet normal -0.0116285885 0.983909148 -0.178290674
    outer loop
      vertex -0.159890735 -0.487968647 0.78677837
      vertex -0.295871702 -0.500813136 0.724764221
      vertex -0.296389197 -0.500616458 0.725883357
    endloop
  endfacet
  facet normal 0.90998975 0.084318743 0.405966754
    outer loop
      vertex -0.15959549 -0.491154997 0.78677837
      vertex -0.159373239 -0.488165325 0.785659234
      vertex -0.159890735 -0.487968647 0.78677837
    endloop
  endfacet
  facet normal -0.90998975 -0.084318743 -0.405966754
    outer loop
      vertex -0.296093953 -0.503802809 0.725883357
      vertex -0.296389197 -0.500616458 0.725883357
      vertex -0.295871702 -0.500813136 0.724764221
    endloop
  endfacet
  facet normal 0.147866487 0.848732515 -0.507728883
    outer loop
      vertex -0.159373239 -0.488165325 0.785659234
      vertex -0.15888958 -0.488817154 0.784710478
      vertex -0.295388042 -0.501464965 0.723815464
    endloop
  endfacet
  facet normal 0.147866487 0.848732515 -0.507728883
    outer loop
      vertex -0.159373239 -0.488165325 0.785659234
      vertex -0.295388042 -0.501464965 0.723815464
      vertex -0.295871702 -0.500813136 0.724764221
    endloop
  endfacet
  facet normal 0.90998975 0.084318743 0.405966754
    outer loop
      vertex -0.15959549 -0.491154997 0.78677837
      vertex -0.15888958 -0.488817154 0.784710478
      vertex -0.159373239 -0.488165325 0.785659234
    endloop
  endfacet
  facet normal -0.90998975 -0.084318743 -0.405966754
    outer loop
      vertex -0.296093953 -0.503802809 0.725883357
      vertex -0.295871702 -0.500813136 0.724764221
      vertex -0.295388042 -0.501464965 0.723815464
    endloop
  endfacet
  facet normal 0.284850231 0.584344051 -0.759869973
    outer loop
      vertex -0.15888958 -0.488817154 0.784710478
      vertex -0.158513389 -0.489824898 0.784076538
      vertex -0.295011851 -0.50247271 0.723181525
    endloop
  endfacet
  facet normal 0.284850231 0.584344051 -0.759869973
    outer loop
      vertex -0.15888958 -0.488817154 0.784710478
      vertex -0.295011851 -0.50247271 0.723181525
      vertex -0.295388042 -0.501464965 0.723815464
    endloop
  endfacet
  facet normal 0.90998975 0.084318743 0.405966754
    outer loop
      vertex -0.15959549 -0.491154997 0.78677837
      vertex -0.158513389 -0.489824898 0.784076538
      vertex -0.15888958 -0.488817154 0.784710478
    endloop
  endfacet
  facet normal -0.90998975 -0.084318743 -0.405966754
    outer loop
      vertex -0.296093953 -0.503802809 0.725883357
      vertex -0.295388042 -0.501464965 0.723815464
      vertex -0.295011851 -0.50247271 0.723181525
    endloop
  endfacet
  facet normal 0.378468109 0.230994502 -0.896327747
    outer loop
      vertex -0.158513389 -0.489824898 0.784076538
      vertex -0.158301938 -0.491035138 0.783853929
      vertex -0.2948004 -0.50368295 0.722958915
    endloop
  endfacet
  facet normal 0.378468109 0.230994502 -0.896327747
    outer loop
      vertex -0.158513389 -0.489824898 0.784076538
      vertex -0.2948004 -0.50368295 0.722958915
      vertex -0.295011851 -0.50247271 0.723181525
    endloop
  endfacet
  facet normal 0.90998975 0.084318743 0.405966754
    outer loop
      vertex -0.15959549 -0.491154997 0.78677837
      vertex -0.158301938 -0.491035138 0.783853929
      vertex -0.158513389 -0.489824898 0.784076538
    endloop
  endfacet
  facet normal -0.90998975 -0.084318743 -0.405966754
    outer loop
      vertex -0.296093953 -0.503802809 0.725883357
      vertex -0.295011851 -0.50247271 0.723181525
      vertex -0.2948004 -0.50368295 0.722958915
    endloop
  endfacet
  facet normal 0.414467648 -0.157521866 -0.896327747
    outer loop
      vertex -0.158301938 -0.491035138 0.783853929
      vertex -0.158287419 -0.492263625 0.784076538
      vertex -0.294785881 -0.504911437 0.723181525
    endloop
  endfacet
  facet normal 0.414467648 -0.157521866 -0.896327747
    outer loop
      vertex -0.158301938 -0.491035138 0.783853929
      vertex -0.294785881 -0.504911437 0.723181525
      vertex -0.2948004 -0.50368295 0.722958915
    endloop
  endfacet
  facet normal 0.90998975 0.084318743 0.405966754
    outer loop
      vertex -0.15959549 -0.491154997 0.78677837
      vertex -0.158287419 -0.492263625 0.784076538
      vertex -0.158301938 -0.491035138 0.783853929
    endloop
  endfacet
  facet normal -0.90998975 -0.084318743 -0.405966754
    outer loop
      vertex -0.296093953 -0.503802809 0.725883357
      vertex -0.2948004 -0.50368295 0.722958915
      vertex -0.294785881 -0.504911437 0.723181525
    endloop
  endfacet
  facet normal 0.387368245 -0.522056957 -0.759869973
    outer loop
      vertex -0.158287419 -0.492263625 0.784076538
      vertex -0.158472042 -0.493323334 0.784710478
      vertex -0.294970504 -0.505971146 0.723815464
    endloop
  endfacet
  facet normal 0.387368245 -0.522056957 -0.759869973
    outer loop
      vertex -0.158287419 -0.492263625 0.784076538
      vertex -0.294970504 -0.505971146 0.723815464
      vertex -0.294785881 -0.504911437 0.723181525
    endloop
  endfacet
  facet normal 0.90998975 0.084318743 0.405966754
    outer loop
      vertex -0.15959549 -0.491154997 0.78677837
      vertex -0.158472042 -0.493323334 0.784710478
      vertex -0.158287419 -0.492263625 0.784076538
    endloop
  endfacet
  facet normal -0.90998975 -0.084318743 -0.405966754
    outer loop
      vertex -0.296093953 -0.503802809 0.725883357
      vertex -0.294785881 -0.504911437 0.723181525
      vertex -0.294970504 -0.505971146 0.723815464
    endloop
  endfacet
  facet normal 0.301295538 -0.80711361 -0.507728883
    outer loop
      vertex -0.158472042 -0.493323334 0.784710478
      vertex -0.158827699 -0.494052933 0.785659234
      vertex -0.295326162 -0.506700745 0.724764221
    endloop
  endfacet
  facet normal 0.301295538 -0.80711361 -0.507728883
    outer loop
      vertex -0.158472042 -0.493323334 0.784710478
      vertex -0.295326162 -0.506700745 0.724764221
      vertex -0.294970504 -0.505971146 0.723815464
    endloop
  endfacet
  facet normal 0.90998975 0.084318743 0.405966754
    outer loop
      vertex -0.15959549 -0.491154997 0.78677837
      vertex -0.158827699 -0.494052933 0.785659234
      vertex -0.158472042 -0.493323334 0.784710478
    endloop
  endfacet
  facet normal -0.90998975 -0.084318743 -0.405966754
    outer loop
      vertex -0.296093953 -0.503802809 0.725883357
      vertex -0.294970504 -0.505971146 0.723815464
      vertex -0.295326162 -0.506700745 0.724764221
    endloop
  endfacet
  facet normal 0.169353317 -0.969294532 -0.178290674
    outer loop
      vertex -0.158827699 -0.494052933 0.785659234
      vertex -0.159300246 -0.494341348 0.78677837
      vertex -0.295798709 -0.50698916 0.725883357
    endloop
  endfacet
  facet normal 0.169353317 -0.969294532 -0.178290674
    outer loop
      vertex -0.158827699 -0.494052933 0.785659234
      vertex -0.295798709 -0.50698916 0.725883357
      vertex -0.295326162 -0.506700745 0.724764221
    endloop
  endfacet
  facet normal 0.90998975 0.084318743 0.405966754
    outer loop
      vertex -0.15959549 -0.491154997 0.78677837
      vertex -0.159300246 -0.494341348 0.78677837
      vertex -0.158827699 -0.494052933 0.785659234
    endloop
  endfacet
  facet normal -0.90998975 -0.084318743 -0.405966754
    outer loop
      vertex -0.296093953 -0.503802809 0.725883357
      vertex -0.295326162 -0.506700745 0.724764221
      vertex -0.295798709 -0.50698916 0.725883357
    endloop
  endfacet
  facet normal 0.0116285885 -0.983909148 0.178290674
    outer loop
      vertex -0.159300246 -0.494341348 0.78677837
      vertex -0.159817742 -0.49414467 0.787897505
      vertex -0.296316204 -0.506792481 0.727002492
    endloop
  endfacet
  facet normal 0.0116285885 -0.983909148 0.178290674
    outer loop
      vertex -0.159300246 -0.494341348 0.78677837
      vertex -0.296316204 -0.506792481 0.727002492
      vertex -0.295798709 -0.50698916 0.725883357
    endloop
  endfacet
  facet normal 0.90998975 0.084318743 0.405966754
    outer loop
      vertex -0.15959549 -0.491154997 0.78677837
      vertex -0.159817742 -0.49414467 0.787897505
      vertex -0.159300246 -0.494341348 0.78677837
    endloop
  endfacet
  facet normal -0.90998975 -0.084318743 -0.405966754
    outer loop
      vertex -0.296093953 -0.503802809 0.725883357
      vertex -0.295798709 -0.50698916 0.725883357
      vertex -0.296316204 -0.506792481 0.727002492
    endloop
  endfacet
  facet normal -0.147866487 -0.848732515 0.507728883
    outer loop
      vertex -0.159817742 -0.49414467 0.787897505
      vertex -0.160301401 -0.493492841 0.788846262
      vertex -0.296799864 -0.506140652 0.727951249
    endloop
  endfacet
  facet normal -0.147866487 -0.848732515 0.507728883
    outer loop
      vertex -0.159817742 -0.49414467 0.787897505
      vertex -0.296799864 -0.506140652 0.727951249
      vertex -0.296316204 -0.506792481 0.727002492
    endloop
  endfacet
  facet normal 0.90998975 0.084318743 0.405966754
    outer loop
      vertex -0.15959549 -0.491154997 0.78677837
      vertex -0.160301401 -0.493492841 0.788846262
      vertex -0.159817742 -0.49414467 0.787897505
    endloop
  endfacet
  facet normal -0.90998975 -0.084318743 -0.405966754
    outer loop
      vertex -0.296093953 -0.503802809 0.725883357
      vertex -0.296316204 -0.506792481 0.727002492
      vertex -0.296799864 -0.506140652 0.727951249
    endloop
  endfacet
  facet normal -0.284850231 -0.584344051 0.759869973
    outer loop
      vertex -0.160301401 -0.493492841 0.788846262
      vertex -0.160677592 -0.492485097 0.789480201
      vertex -0.297176055 -0.505132908 0.728585188
    endloop
  endfacet
  facet normal -0.284850231 -0.584344051 0.759869973
    outer loop
      vertex -0.160301401 -0.493492841 0.788846262
      vertex -0.297176055 -0.505132908 0.728585188
      vertex -0.296799864 -0.506140652 0.727951249
    endloop
  endfacet
  facet normal 0.90998975 0.084318743 0.405966754
    outer loop
      vertex -0.15959549 -0.491154997 0.78677837
      vertex -0.160677592 -0.492485097 0.789480201
      vertex -0.160301401 -0.493492841 0.788846262
    endloop
  endfacet
  facet normal -0.90998975 -0.084318743 -0.405966754
    outer loop
      vertex -0.296093953 -0.503802809 0.725883357
      vertex -0.296799864 -0.506140652 0.727951249
      vertex -0.297176055 -0.505132908 0.728585188
    endloop
  endfacet
  facet normal -0.378468109 -0.230994502 0.896327747
    outer loop
      vertex -0.160677592 -0.492485097 0.789480201
      vertex -0.160889043 -0.491274857 0.789702811
      vertex -0.297387505 -0.503922668 0.728807798
    endloop
  endfacet
  facet normal -0.378468109 -0.230994502 0.896327747
    outer loop
      vertex -0.160677592 -0.492485097 0.789480201
      vertex -0.297387505 -0.503922668 0.728807798
      vertex -0.297176055 -0.505132908 0.728585188
    endloop
  endfacet
  facet normal 0.90998975 0.084318743 0.405966754
    outer loop
      vertex -0.15959549 -0.491154997 0.78677837
      vertex -0.160889043 -0.491274857 0.789702811
      vertex -0.160677592 -0.492485097 0.789480201
    endloop
  endfacet
  facet normal -0.90998975 -0.084318743 -0.405966754
    outer loop
      vertex -0.296093953 -0.503802809 0.725883357
      vertex -0.297176055 -0.505132908 0.728585188
      vertex -0.297387505 -0.503922668 0.728807798
    endloop
  endfacet
  facet normal -0.414467648 0.157521866 0.896327747
    outer loop
      vertex -0.160889043 -0.491274857 0.789702811
      vertex -0.160903562 -0.490046369 0.789480201
      vertex -0.297402025 -0.502694181 0.728585188
    endloop
  endfacet
  facet normal -0.414467648 0.157521866 0.896327747
    outer loop
      vertex -0.160889043 -0.491274857 0.789702811
      vertex -0.297402025 -0.502694181 0.728585188
      vertex -0.297387505 -0.503922668 0.728807798
    endloop
  endfacet
  facet normal 0.90998975 0.084318743 0.405966754
    outer loop
      vertex -0.15959549 -0.491154997 0.78677837
      vertex -0.160903562 -0.490046369 0.789480201
      vertex -0.160889043 -0.491274857 0.789702811
    endloop
  endfacet
  facet normal -0.90998975 -0.084318743 -0.405966754
    outer loop
      vertex -0.296093953 -0.503802809 0.725883357
      vertex -0.297387505 -0.503922668 0.728807798
      vertex -0.297402025 -0.502694181 0.728585188
    endloop
  endfacet
  facet normal -0.387368245 0.522056957 0.759869973
    outer loop
      vertex -0.160903562 -0.490046369 0.789480201
      vertex -0.160718939 -0.488986661 0.788846262
      vertex -0.297217402 -0.501634472 0.727951249
    endloop
  endfacet
  facet normal -0.387368245 0.522056957 0.759869973
    outer loop
      vertex -0.160903562 -0.490046369 0.789480201
      vertex -0.297217402 -0.501634472 0.727951249
      vertex -0.297402025 -0.502694181 0.728585188
    endloop
  endfacet
  facet normal 0.90998975 0.084318743 0.405966754
    outer loop
      vertex -0.15959549 -0.491154997 0.78677837
      vertex -0.160718939 -0.488986661 0.788846262
      vertex -0.160903562 -0.490046369 0.789480201
    endloop
  endfacet
  facet normal -0.90998975 -0.084318743 -0.405966754
    outer loop
      vertex -0.296093953 -0.503802809 0.725883357
      vertex -0.297402025 -0.502694181 0.728585188
      vertex -0.297217402 -0.501634472 0.727951249
    endloop
  endfacet
  facet normal -0.301295538 0.80711361 0.507728883
    outer loop
      vertex -0.160718939 -0.488986661 0.788846262
      vertex -0.160363281 -0.488257061 0.787897505
      vertex -0.296861744 -0.500904873 0.727002492
    endloop
  endfacet
  facet normal -0.301295538 0.80711361 0.507728883
    outer loop
      vertex -0.160718939 -0.488986661 0.788846262
      vertex -0.296861744 -0.500904873 0.727002492
      vertex -0.297217402 -0.501634472 0.727951249
    endloop
  endfacet
  facet normal 0.90998975 0.084318743 0.405966754
    outer loop
      vertex -0.15959549 -0.491154997 0.78677837
      vertex -0.160363281 -0.488257061 0.787897505
      vertex -0.160718939 -0.488986661 0.788846262
    endloop
  endfacet
  facet normal -0.90998975 -0.084318743 -0.405966754
    outer loop
      vertex -0.296093953 -0.503802809 0.725883357
      vertex -0.297217402 -0.501634472 0.727951249
      vertex -0.296861744 -0.500904873 0.727002492
    endloop
  endfacet
  facet normal -0.169353317 0.969294532 0.178290674
    outer loop
      vertex -0.160363281 -0.488257061 0.787897505
      vertex -0.159890735 -0.487968647 0.78677837
      vertex -0.296389197 -0.500616458 0.725883357
    endloop
  endfacet
  facet normal -0.169353317 0.969294532 0.178290674
    outer loop
      vertex -0.160363281 -0.488257061 0.787897505
      vertex -0.296389197 -0.500616458 0.725883357
      vertex -0.296861744 -0.500904873 0.727002492
    endloop
  endfacet
  facet normal 0.90998975 0.084318743 0.405966754
    outer loop
      vertex -0.15959549 -0.491154997 0.78677837
      vertex -0.159890735 -0.487968647 0.78677837
      vertex -0.160363281 -0.488257061 0.787897505
    endloop
  endfacet
  facet normal -0.90998975 -0.084318743 -0.405966754
    outer loop
      vertex -0.296093953 -0.503802809 0.725883357
      vertex -0.296861744 -0.500904873 0.727002492
      vertex -0.296389197 -0.500616458 0.725883357
    endloop
  endfacet
  facet normal -0.0116285885 0.983909148 -0.178290674
    outer loop
      vertex -0.180333789 -0.479783214 0.807151887
      vertex -0.179816294 -0.479979893 0.806032752
      vertex -0.316314756 -0.492627704 0.745137739
    endloop
  endfacet
  facet normal -0.0116285885 0.983909148 -0.178290674
    outer loop
      vertex -0.180333789 -0.479783214 0.807151887
      vertex -0.316314756 -0.492627704 0.745137739
      vertex -0.316832252 -0.492431026 0.746256874
    endloop
  endfacet
  facet normal 0.90998975 0.084318743 0.405966754
    outer loop
      vertex -0.180038545 -0.482969565 0.807151887
      vertex -0.179816294 -0.479979893 0.806032752
      vertex -0.180333789 -0.479783214 0.807151887
    endloop
  endfacet
  facet normal -0.90998975 -0.084318743 -0.405966754
    outer loop
      vertex -0.316537008 -0.495617376 0.746256874
      vertex -0.316832252 -0.492431026 0.746256874
      vertex -0.316314756 -0.492627704 0.745137739
    endloop
  endfacet
  facet normal 0.147866487 0.848732515 -0.507728883
    outer loop
      vertex -0.179816294 -0.479979893 0.806032752
      vertex -0.179332635 -0.480631721 0.805083995
      vertex -0.315831097 -0.493279533 0.744188982
    endloop
  endfacet
  facet normal 0.147866487 0.848732515 -0.507728883
    outer loop
      vertex -0.179816294 -0.479979893 0.806032752
      vertex -0.315831097 -0.493279533 0.744188982
      vertex -0.316314756 -0.492627704 0.745137739
    endloop
  endfacet
  facet normal 0.90998975 0.084318743 0.405966754
    outer loop
      vertex -0.180038545 -0.482969565 0.807151887
      vertex -0.179332635 -0.480631721 0.805083995
      vertex -0.179816294 -0.479979893 0.806032752
    endloop
  endfacet
  facet normal -0.90998975 -0.084318743 -0.405966754
    outer loop
      vertex -0.316537008 -0.495617376 0.746256874
      vertex -0.316314756 -0.492627704 0.745137739
      vertex -0.315831097 -0.493279533 0.744188982
    endloop
  endfacet
  facet normal 0.284850231 0.584344051 -0.759869973
    outer loop
      vertex -0.179332635 -0.480631721 0.805083995
      vertex -0.178956444 -0.481639466 0.804450056
      vertex -0.315454906 -0.494287277 0.743555043
    endloop
  endfacet
  facet normal 0.284850231 0.584344051 -0.759869973
    outer loop
      vertex -0.179332635 -0.480631721 0.805083995
      vertex -0.315454906 -0.494287277 0.743555043
      vertex -0.315831097 -0.493279533 0.744188982
    endloop
  endfacet
  facet normal 0.90998975 0.084318743 0.405966754
    outer loop
      vertex -0.180038545 -0.482969565 0.807151887
      vertex -0.178956444 -0.481639466 0.804450056
      vertex -0.179332635 -0.480631721 0.805083995
    endloop
  endfacet
  facet normal -0.90998975 -0.084318743 -0.405966754
    outer loop
      vertex -0.316537008 -0.495617376 0.746256874
      vertex -0.315831097 -0.493279533 0.744188982
      vertex -0.315454906 -0.494287277 0.743555043
    endloop
  endfacet
  facet normal 0.378468109 0.230994502 -0.896327747
    outer loop
      vertex -0.178956444 -0.481639466 0.804450056
      vertex -0.178744993 -0.482849706 0.804227446
      vertex -0.315243455 -0.495497517 0.743332433
    endloop
  endfacet
  facet normal 0.378468109 0.230994502 -0.896327747
    outer loop
      vertex -0.178956444 -0.481639466 0.804450056
      vertex -0.315243455 -0.495497517 0.743332433
      vertex -0.315454906 -0.494287277 0.743555043
    endloop
  endfacet
  facet normal 0.90998975 0.084318743 0.405966754
    outer loop
      vertex -0.180038545 -0.482969565 0.807151887
      vertex -0.178744993 -0.482849706 0.804227446
      vertex -0.178956444 -0.481639466 0.804450056
    endloop
  endfacet
  facet normal -0.90998975 -0.084318743 -0.405966754
    outer loop
      vertex -0.316537008 -0.495617376 0.746256874
      vertex -0.315454906 -0.494287277 0.743555043
      vertex -0.315243455 -0.495497517 0.743332433
    endloop
  endfacet
  facet normal 0.414467648 -0.157521866 -0.896327747
    outer loop
      vertex -0.178744993 -0.482849706 0.804227446
      vertex -0.178730473 -0.484078193 0.804450056
      vertex -0.315228936 -0.496726005 0.743555043
    endloop
  endfacet
  facet normal 0.414467648 -0.157521866 -0.896327747
    outer loop
      vertex -0.178744993 -0.482849706 0.804227446
      vertex -0.315228936 -0.496726005 0.743555043
      vertex -0.315243455 -0.495497517 0.743332433
    endloop
  endfacet
  facet normal 0.90998975 0.084318743 0.405966754
    outer loop
      vertex -0.180038545 -0.482969565 0.807151887
      vertex -0.178730473 -0.484078193 0.804450056
      vertex -0.178744993 -0.482849706 0.804227446
    endloop
  endfacet
  facet normal -0.90998975 -0.084318743 -0.405966754
    outer loop
      vertex -0.316537008 -0.495617376 0.746256874
      vertex -0.315243455 -0.495497517 0.743332433
      vertex -0.315228936 -0.496726005 0.743555043
    endloop
  endfacet
  facet normal 0.387368245 -0.522056957 -0.759869973
    outer loop
      vertex -0.178730473 -0.484078193 0.804450056
      vertex -0.178915096 -0.485137902 0.805083995
      vertex -0.315413559 -0.497785713 0.744188982
    endloop
  endfacet
  facet normal 0.387368245 -0.522056957 -0.759869973
    outer loop
      vertex -0.178730473 -0.484078193 0.804450056
      vertex -0.315413559 -0.497785713 0.744188982
      vertex -0.315228936 -0.496726005 0.743555043
    endloop
  endfacet
  facet normal 0.90998975 0.084318743 0.405966754
    outer loop
      vertex -0.180038545 -0.482969565 0.807151887
      vertex -0.178915096 -0.485137902 0.805083995
      vertex -0.178730473 -0.484078193 0.804450056
    endloop
  endfacet
  facet normal -0.90998975 -0.084318743 -0.405966754
    outer loop
      vertex -0.316537008 -0.495617376 0.746256874
      vertex -0.315228936 -0.496726005 0.743555043
      vertex -0.315413559 -0.497785713 0.744188982
    endloop
  endfacet
  facet normal 0.301295538 -0.80711361 -0.507728883
    outer loop
      vertex -0.178915096 -0.485137902 0.805083995
      vertex -0.179270754 -0.485867501 0.806032752
      vertex -0.315769217 -0.498515312 0.745137739
    endloop
  endfacet
  facet normal 0.301295538 -0.80711361 -0.507728883
    outer loop
      vertex -0.178915096 -0.485137902 0.805083995
      vertex -0.315769217 -0.498515312 0.745137739
      vertex -0.315413559 -0.497785713 0.744188982
    endloop
  endfacet
  facet normal 0.90998975 0.084318743 0.405966754
    outer loop
      vertex -0.180038545 -0.482969565 0.807151887
      vertex -0.179270754 -0.485867501 0.806032752
      vertex -0.178915096 -0.485137902 0.805083995
    endloop
  endfacet
  facet normal -0.90998975 -0.084318743 -0.405966754
    outer loop
      vertex -0.316537008 -0.495617376 0.746256874
      vertex -0.315413559 -0.497785713 0.744188982
      vertex -0.315769217 -0.498515312 0.745137739
    endloop
  endfacet
  facet normal 0.169353317 -0.969294532 -0.178290674
    outer loop
      vertex -0.179270754 -0.485867501 0.806032752
      vertex -0.179743301 -0.486155916 0.807151887
      vertex -0.316241763 -0.498803727 0.746256874
    endloop
  endfacet
  facet normal 0.169353317 -0.969294532 -0.178290674
    outer loop
      vertex -0.179270754 -0.485867501 0.806032752
      vertex -0.316241763 -0.498803727 0.746256874
      vertex -0.315769217 -0.498515312 0.745137739
    endloop
  endfacet
  facet normal 0.90998975 0.084318743 0.405966754
    outer loop
      vertex -0.180038545 -0.482969565 0.807151887
      vertex -0.179743301 -0.486155916 0.807151887
      vertex -0.179270754 -0.485867501 0.806032752
    endloop
  endfacet
  facet normal -0.90998975 -0.084318743 -0.405966754
    outer loop
      vertex -0.316537008 -0.495617376 0.746256874
      vertex -0.315769217 -0.498515312 0.745137739
      vertex -0.316241763 -0.498803727 0.746256874
    endloop
  endfacet
  facet normal 0.0116285885 -0.983909148 0.178290674
    outer loop
      vertex -0.179743301 -0.486155916 0.807151887
      vertex -0.180260796 -0.485959237 0.808271022
      vertex -0.316759259 -0.498607049 0.747376009
    endloop
  endfacet
  facet normal 0.0116285885 -0.983909148 0.178290674
    outer loop
      vertex -0.179743301 -0.486155916 0.807151887
      vertex -0.316759259 -0.498607049 0.747376009
      vertex -0.316241763 -0.498803727 0.746256874
    endloop
  endfacet
  facet normal 0.90998975 0.084318743 0.405966754
    outer loop
      vertex -0.180038545 -0.482969565 0.807151887
      vertex -0.180260796 -0.485959237 0.808271022
      vertex -0.179743301 -0.486155916 0.807151887
    endloop
  endfacet
  facet normal -0.90998975 -0.084318743 -0.405966754
    outer loop
      vertex -0.316537008 -0.495617376 0.746256874
      vertex -0.316241763 -0.498803727 0.746256874
      vertex -0.316759259 -0.498607049 0.747376009
    endloop
  endfacet
  facet normal -0.147866487 -0.848732515 0.507728883
    outer loop
      vertex -0.180260796 -0.485959237 0.808271022
      vertex -0.180744456 -0.485307408 0.809219779
      vertex -0.317242918 -0.49795522 0.748324766
    endloop
  endfacet
  facet normal -0.147866487 -0.848732515 0.507728883
    outer loop
      vertex -0.180260796 -0.485959237 0.808271022
      vertex -0.317242918 -0.49795522 0.748324766
      vertex -0.316759259 -0.498607049 0.747376009
    endloop
  endfacet
  facet normal 0.90998975 0.084318743 0.405966754
    outer loop
      vertex -0.180038545 -0.482969565 0.807151887
      vertex -0.180744456 -0.485307408 0.809219779
      vertex -0.180260796 -0.485959237 0.808271022
    endloop
  endfacet
  facet normal -0.90998975 -0.084318743 -0.405966754
    outer loop
      vertex -0.316537008 -0.495617376 0.746256874
      vertex -0.316759259 -0.498607049 0.747376009
      vertex -0.317242918 -0.49795522 0.748324766
    endloop
  endfacet
  facet normal -0.284850231 -0.584344051 0.759869973
    outer loop
      vertex -0.180744456 -0.485307408 0.809219779
      vertex -0.181120647 -0.484299664 0.809853718
      vertex -0.317619109 -0.496947476 0.748958705
    endloop
  endfacet
  facet normal -0.284850231 -0.584344051 0.759869973
    outer loop
      vertex -0.180744456 -0.485307408 0.809219779
      vertex -0.317619109 -0.496947476 0.748958705
      vertex -0.317242918 -0.49795522 0.748324766
    endloop
  endfacet
  facet normal 0.90998975 0.084318743 0.405966754
    outer loop
      vertex -0.180038545 -0.482969565 0.807151887
      vertex -0.181120647 -0.484299664 0.809853718
      vertex -0.180744456 -0.485307408 0.809219779
    endloop
  endfacet
  facet normal -0.90998975 -0.084318743 -0.405966754
    outer loop
      vertex -0.316537008 -0.495617376 0.746256874
      vertex -0.317242918 -0.49795522 0.748324766
      vertex -0.317619109 -0.496947476 0.748958705
    endloop
  endfacet
  facet normal -0.378468109 -0.230994502 0.896327747
    outer loop
      vertex -0.181120647 -0.484299664 0.809853718
      vertex -0.181332098 -0.483089424 0.810076328
      vertex -0.31783056 -0.495737236 0.749181315
    endloop
  endfacet
  facet normal -0.378468109 -0.230994502 0.896327747
    outer loop
      vertex -0.181120647 -0.484299664 0.809853718
      vertex -0.31783056 -0.495737236 0.749181315
      vertex -0.317619109 -0.496947476 0.748958705
    endloop
  endfacet
  facet normal 0.90998975 0.084318743 0.405966754
    outer loop
      vertex -0.180038545 -0.482969565 0.807151887
      vertex -0.181332098 -0.483089424 0.810076328
      vertex -0.181120647 -0.484299664 0.809853718
    endloop
  endfacet
  facet normal -0.90998975 -0.084318743 -0.405966754
    outer loop
      vertex -0.316537008 -0.495617376 0.746256874
      vertex -0.317619109 -0.496947476 0.748958705
      vertex -0.31783056 -0.495737236 0.749181315
    endloop
  endfacet
  facet normal -0.414467648 0.157521866 0.896327747
    outer loop
      vertex -0.181332098 -0.483089424 0.810076328
      vertex -0.181346617 -0.481860937 0.809853718
      vertex -0.317845079 -0.494508748 0.748958705
    endloop
  endfacet
  facet normal -0.414467648 0.157521866 0.896327747
    outer loop
      vertex -0.181332098 -0.483089424 0.810076328
      vertex -0.317845079 -0.494508748 0.748958705
      vertex -0.31783056 -0.495737236 0.749181315
    endloop
  endfacet
  facet normal 0.90998975 0.084318743 0.405966754
    outer loop
      vertex -0.180038545 -0.482969565 0.807151887
      vertex -0.181346617 -0.481860937 0.809853718
      vertex -0.181332098 -0.483089424 0.810076328
    endloop
  endfacet
  facet normal -0.90998975 -0.084318743 -0.405966754
    outer loop
      vertex -0.316537008 -0.495617376 0.746256874
      vertex -0.31783056 -0.495737236 0.749181315
      vertex -0.317845079 -0.494508748 0.748958705
    endloop
  endfacet
  facet normal -0.387368245 0.522056957 0.759869973
    outer loop
      vertex -0.181346617 -0.481860937 0.809853718
      vertex -0.181161994 -0.480801228 0.809219779
      vertex -0.317660456 -0.49344904 0.748324766
    endloop
  endfacet
  facet normal -0.387368245 0.522056957 0.759869973
    outer loop
      vertex -0.181346617 -0.481860937 0.809853718
      vertex -0.317660456 -0.49344904 0.748324766
      vertex -0.317845079 -0.494508748 0.748958705
    endloop
  endfacet
  facet normal 0.90998975 0.084318743 0.405966754
    outer loop
      vertex -0.180038545 -0.482969565 0.807151887
      vertex -0.181161994 -0.480801228 0.809219779
      vertex -0.181346617 -0.481860937 0.809853718
    endloop
  endfacet
  facet normal -0.90998975 -0.084318743 -0.405966754
    outer loop
      vertex -0.316537008 -0.495617376 0.746256874
      vertex -0.317845079 -0.494508748 0.748958705
      vertex -0.317660456 -0.49344904 0.748324766
    endloop
  endfacet
  facet normal -0.301295538 0.80711361 0.507728883
    outer loop
      vertex -0.181161994 -0.480801228 0.809219779
      vertex -0.180806336 -0.480071629 0.808271022
      vertex -0.317304799 -0.49271944 0.747376009
    endloop
  endfacet
  facet normal -0.301295538 0.80711361 0.507728883
    outer loop
      vertex -0.181161994 -0.480801228 0.809219779
      vertex -0.317304799 -0.49271944 0.747376009
      vertex -0.317660456 -0.49344904 0.748324766
    endloop
  endfacet
  facet normal 0.90998975 0.084318743 0.405966754
    outer loop
      vertex -0.180038545 -0.482969565 0.807151887
      vertex -0.180806336 -0.480071629 0.808271022
      vertex -0.181161994 -0.480801228 0.809219779
    endloop
  endfacet
  facet normal -0.90998975 -0.084318743 -0.405966754
    outer loop
      vertex -0.316537008 -0.495617376 0.746256874
      vertex -0.317660456 -0.49344904 0.748324766
      vertex -0.317304799 -0.49271944 0.747376009
    endloop
  endfacet
  facet normal -0.169353317 0.969294532 0.178290674
    outer loop
      vertex -0.180806336 -0.480071629 0.808271022
      vertex -0.180333789 -0.479783214 0.807151887
      vertex -0.316832252 -0.492431026 0.746256874
    endloop
  endfacet
  facet normal -0.169353317 0.969294532 0.178290674
    outer loop
      vertex -0.180806336 -0.480071629 0.808271022
      vertex -0.316832252 -0.492431026 0.746256874
      vertex -0.317304799 -0.49271944 0.747376009
    endloop
  endfacet
  facet normal 0.90998975 0.084318743 0.405966754
    outer loop
      vertex -0.180038545 -0.482969565 0.807151887
      vertex -0.180333789 -0.479783214 0.807151887
      vertex -0.180806336 -0.480071629 0.808271022
    endloop
  endfacet
  facet normal -0.90998975 -0.084318743 -0.405966754
    outer loop
      vertex -0.316537008 -0.495617376 0.746256874
      vertex -0.317304799 -0.49271944 0.747376009
      vertex -0.316832252 -0.492431026 0.746256874
    endloop
  endfacet
  facet normal 0.24393558 0.959196689 -0.14295854
    outer loop
      vertex -0.129485117 -0.710852337 0.918626156
      vertex -0.130349011 -0.710766379 0.917728801
      vertex -0.191507058 -0.686085665 0.978970581
    endloop
  endfacet
  facet normal 0.24393558 0.959196689 -0.14295854
    outer loop
      vertex -0.129485117 -0.710852337 0.918626156
      vertex -0.191507058 -0.686085665 0.978970581
      vertex -0.190643163 -0.686171623 0.979867936
    endloop
  endfacet
  facet normal 0.679533853 -0.274230155 -0.680464227
    outer loop
      vertex -0.130682659 -0.713819809 0.918626156
      vertex -0.130349011 -0.710766379 0.917728801
      vertex -0.129485117 -0.710852337 0.918626156
    endloop
  endfacet
  facet normal -0.679533853 0.274230155 0.680464227
    outer loop
      vertex -0.191840706 -0.689139095 0.979867936
      vertex -0.190643163 -0.686171623 0.979867936
      vertex -0.191507058 -0.686085665 0.978970581
    endloop
  endfacet
  facet normal -0.039412563 0.91252775 -0.407111479
    outer loop
      vertex -0.130349011 -0.710766379 0.917728801
      vertex -0.1312637 -0.711145279 0.916968061
      vertex -0.192421747 -0.686464565 0.978209841
    endloop
  endfacet
  facet normal -0.039412563 0.91252775 -0.407111479
    outer loop
      vertex -0.130349011 -0.710766379 0.917728801
      vertex -0.192421747 -0.686464565 0.978209841
      vertex -0.191507058 -0.686085665 0.978970581
    endloop
  endfacet
  facet normal 0.679533853 -0.274230155 -0.680464227
    outer loop
      vertex -0.130682659 -0.713819809 0.918626156
      vertex -0.1312637 -0.711145279 0.916968061
      vertex -0.130349011 -0.710766379 0.917728801
    endloop
  endfacet
  facet normal -0.679533853 0.274230155 0.680464227
    outer loop
      vertex -0.191840706 -0.689139095 0.979867936
      vertex -0.191507058 -0.686085665 0.978970581
      vertex -0.192421747 -0.686464565 0.978209841
    endloop
  endfacet
  facet normal -0.316760501 0.726934732 -0.609285385
    outer loop
      vertex -0.1312637 -0.711145279 0.916968061
      vertex -0.132089931 -0.711931352 0.91645975
      vertex -0.193247978 -0.687250638 0.977701531
    endloop
  endfacet
  facet normal -0.316760501 0.726934732 -0.609285385
    outer loop
      vertex -0.1312637 -0.711145279 0.916968061
      vertex -0.193247978 -0.687250638 0.977701531
      vertex -0.192421747 -0.686464565 0.978209841
    endloop
  endfacet
  facet normal 0.679533853 -0.274230155 -0.680464227
    outer loop
      vertex -0.130682659 -0.713819809 0.918626156
      vertex -0.132089931 -0.711931352 0.91645975
      vertex -0.1312637 -0.711145279 0.916968061
    endloop
  endfacet
  facet normal -0.679533853 0.274230155 0.680464227
    outer loop
      vertex -0.191840706 -0.689139095 0.979867936
      vertex -0.192421747 -0.686464565 0.978209841
      vertex -0.193247978 -0.687250638 0.977701531
    endloop
  endfacet
  facet normal -0.545884523 0.430672492 -0.718701115
    outer loop
      vertex -0.132089931 -0.711931352 0.91645975
      vertex -0.132701918 -0.713004925 0.916281255
      vertex -0.193859964 -0.688324211 0.977523036
    endloop
  endfacet
  facet normal -0.545884523 0.430672492 -0.718701115
    outer loop
      vertex -0.132089931 -0.711931352 0.91645975
      vertex -0.193859964 -0.688324211 0.977523036
      vertex -0.193247978 -0.687250638 0.977701531
    endloop
  endfacet
  facet normal 0.679533853 -0.274230155 -0.680464227
    outer loop
      vertex -0.130682659 -0.713819809 0.918626156
      vertex -0.132701918 -0.713004925 0.916281255
      vertex -0.132089931 -0.711931352 0.91645975
    endloop
  endfacet
  facet normal -0.679533853 0.274230155 0.680464227
    outer loop
      vertex -0.191840706 -0.689139095 0.979867936
      vertex -0.193247978 -0.687250638 0.977701531
      vertex -0.193859964 -0.688324211 0.977523036
    endloop
  endfacet
  facet normal -0.691902576 0.0688442682 -0.718701115
    outer loop
      vertex -0.132701918 -0.713004925 0.916281255
      vertex -0.13300649 -0.714202557 0.91645975
      vertex -0.194164537 -0.689521843 0.977701531
    endloop
  endfacet
  facet normal -0.691902576 0.0688442682 -0.718701115
    outer loop
      vertex -0.132701918 -0.713004925 0.916281255
      vertex -0.194164537 -0.689521843 0.977701531
      vertex -0.193859964 -0.688324211 0.977523036
    endloop
  endfacet
  facet normal 0.679533853 -0.274230155 -0.680464227
    outer loop
      vertex -0.130682659 -0.713819809 0.918626156
      vertex -0.13300649 -0.714202557 0.91645975
      vertex -0.132701918 -0.713004925 0.916281255
    endloop
  endfacet
  facet normal -0.679533853 0.274230155 0.680464227
    outer loop
      vertex -0.191840706 -0.689139095 0.979867936
      vertex -0.193859964 -0.688324211 0.977523036
      vertex -0.194164537 -0.689521843 0.977701531
    endloop
  endfacet
  facet normal -0.732584734 -0.303464871 -0.609285385
    outer loop
      vertex -0.13300649 -0.714202557 0.91645975
      vertex -0.132957281 -0.715341919 0.916968061
      vertex -0.194115327 -0.690661205 0.978209841
    endloop
  endfacet
  facet normal -0.732584734 -0.303464871 -0.609285385
    outer loop
      vertex -0.13300649 -0.714202557 0.91645975
      vertex -0.194115327 -0.690661205 0.978209841
      vertex -0.194164537 -0.689521843 0.977701531
    endloop
  endfacet
  facet normal 0.679533853 -0.274230155 -0.680464227
    outer loop
      vertex -0.130682659 -0.713819809 0.918626156
      vertex -0.132957281 -0.715341919 0.916968061
      vertex -0.13300649 -0.714202557 0.91645975
    endloop
  endfacet
  facet normal -0.679533853 0.274230155 0.680464227
    outer loop
      vertex -0.191840706 -0.689139095 0.979867936
      vertex -0.194164537 -0.689521843 0.977701531
      vertex -0.194115327 -0.690661205 0.978209841
    endloop
  endfacet
  facet normal -0.661737506 -0.629574235 -0.407111479
    outer loop
      vertex -0.132957281 -0.715341919 0.916968061
      vertex -0.13256178 -0.716249553 0.917728801
      vertex -0.193719827 -0.691568839 0.978970581
    endloop
  endfacet
  facet normal -0.661737506 -0.629574235 -0.407111479
    outer loop
      vertex -0.132957281 -0.715341919 0.916968061
      vertex -0.193719827 -0.691568839 0.978970581
      vertex -0.194115327 -0.690661205 0.978209841
    endloop
  endfacet
  facet normal 0.679533853 -0.274230155 -0.680464227
    outer loop
      vertex -0.130682659 -0.713819809 0.918626156
      vertex -0.13256178 -0.716249553 0.917728801
      vertex -0.132957281 -0.715341919 0.916968061
    endloop
  endfacet
  facet normal -0.679533853 0.274230155 0.680464227
    outer loop
      vertex -0.191840706 -0.689139095 0.979867936
      vertex -0.194115327 -0.690661205 0.978209841
      vertex -0.193719827 -0.691568839 0.978970581
    endloop
  endfacet
  facet normal -0.490146742 -0.859836628 -0.14295854
    outer loop
      vertex -0.13256178 -0.716249553 0.917728801
      vertex -0.131880201 -0.716787282 0.918626156
      vertex -0.193038248 -0.692106568 0.979867936
    endloop
  endfacet
  facet normal -0.490146742 -0.859836628 -0.14295854
    outer loop
      vertex -0.13256178 -0.716249553 0.917728801
      vertex -0.193038248 -0.692106568 0.979867936
      vertex -0.193719827 -0.691568839 0.978970581
    endloop
  endfacet
  facet normal 0.679533853 -0.274230155 -0.680464227
    outer loop
      vertex -0.130682659 -0.713819809 0.918626156
      vertex -0.131880201 -0.716787282 0.918626156
      vertex -0.13256178 -0.716249553 0.917728801
    endloop
  endfacet
  facet normal -0.679533853 0.274230155 0.680464227
    outer loop
      vertex -0.191840706 -0.689139095 0.979867936
      vertex -0.193719827 -0.691568839 0.978970581
      vertex -0.193038248 -0.692106568 0.979867936
    endloop
  endfacet
  facet normal -0.24393558 -0.959196689 0.14295854
    outer loop
      vertex -0.131880201 -0.716787282 0.918626156
      vertex -0.131016307 -0.716873239 0.91952351
      vertex -0.192174353 -0.692192525 0.98076529
    endloop
  endfacet
  facet normal -0.24393558 -0.959196689 0.14295854
    outer loop
      vertex -0.131880201 -0.716787282 0.918626156
      vertex -0.192174353 -0.692192525 0.98076529
      vertex -0.193038248 -0.692106568 0.979867936
    endloop
  endfacet
  facet normal 0.679533853 -0.274230155 -0.680464227
    outer loop
      vertex -0.130682659 -0.713819809 0.918626156
      vertex -0.131016307 -0.716873239 0.91952351
      vertex -0.131880201 -0.716787282 0.918626156
    endloop
  endfacet
  facet normal -0.679533853 0.274230155 0.680464227
    outer loop
      vertex -0.191840706 -0.689139095 0.979867936
      vertex -0.193038248 -0.692106568 0.979867936
      vertex -0.192174353 -0.692192525 0.98076529
    endloop
  endfacet
  facet normal 0.039412563 -0.91252775 0.407111479
    outer loop
      vertex -0.131016307 -0.716873239 0.91952351
      vertex -0.130101617 -0.71649434 0.92028425
      vertex -0.191259664 -0.691813626 0.981526031
    endloop
  endfacet
  facet normal 0.039412563 -0.91252775 0.407111479
    outer loop
      vertex -0.131016307 -0.716873239 0.91952351
      vertex -0.191259664 -0.691813626 0.981526031
      vertex -0.192174353 -0.692192525 0.98076529
    endloop
  endfacet
  facet normal 0.679533853 -0.274230155 -0.680464227
    outer loop
      vertex -0.130682659 -0.713819809 0.918626156
      vertex -0.130101617 -0.71649434 0.92028425
      vertex -0.131016307 -0.716873239 0.91952351
    endloop
  endfacet
  facet normal -0.679533853 0.274230155 0.680464227
    outer loop
      vertex -0.191840706 -0.689139095 0.979867936
      vertex -0.192174353 -0.692192525 0.98076529
      vertex -0.191259664 -0.691813626 0.981526031
    endloop
  endfacet
  facet normal 0.316760501 -0.726934732 0.609285385
    outer loop
      vertex -0.130101617 -0.71649434 0.92028425
      vertex -0.129275386 -0.715708267 0.920792561
      vertex -0.190433433 -0.691027553 0.982034341
    endloop
  endfacet
  facet normal 0.316760501 -0.726934732 0.609285385
    outer loop
      vertex -0.130101617 -0.71649434 0.92028425
      vertex -0.190433433 -0.691027553 0.982034341
      vertex -0.191259664 -0.691813626 0.981526031
    endloop
  endfacet
  facet normal 0.679533853 -0.274230155 -0.680464227
    outer loop
      vertex -0.130682659 -0.713819809 0.918626156
      vertex -0.129275386 -0.715708267 0.920792561
      vertex -0.130101617 -0.71649434 0.92028425
    endloop
  endfacet
  facet normal -0.679533853 0.274230155 0.680464227
    outer loop
      vertex -0.191840706 -0.689139095 0.979867936
      vertex -0.191259664 -0.691813626 0.981526031
      vertex -0.190433433 -0.691027553 0.982034341
    endloop
  endfacet
  facet normal 0.545884523 -0.430672492 0.718701115
    outer loop
      vertex -0.129275386 -0.715708267 0.920792561
      vertex -0.1286634 -0.714634694 0.920971056
      vertex -0.189821447 -0.68995398 0.982212836
    endloop
  endfacet
  facet normal 0.545884523 -0.430672492 0.718701115
    outer loop
      vertex -0.129275386 -0.715708267 0.920792561
      vertex -0.189821447 -0.68995398 0.982212836
      vertex -0.190433433 -0.691027553 0.982034341
    endloop
  endfacet
  facet normal 0.679533853 -0.274230155 -0.680464227
    outer loop
      vertex -0.130682659 -0.713819809 0.918626156
      vertex -0.1286634 -0.714634694 0.920971056
      vertex -0.129275386 -0.715708267 0.920792561
    endloop
  endfacet
  facet normal -0.679533853 0.274230155 0.680464227
    outer loop
      vertex -0.191840706 -0.689139095 0.979867936
      vertex -0.190433433 -0.691027553 0.982034341
      vertex -0.189821447 -0.68995398 0.982212836
    endloop
  endfacet
  facet normal 0.691902576 -0.0688442682 0.718701115
    outer loop
      vertex -0.1286634 -0.714634694 0.920971056
      vertex -0.128358827 -0.713437062 0.920792561
      vertex -0.189516874 -0.688756348 0.982034341
    endloop
  endfacet
  facet normal 0.691902576 -0.0688442682 0.718701115
    outer loop
      vertex -0.1286634 -0.714634694 0.920971056
      vertex -0.189516874 -0.688756348 0.982034341
      vertex -0.189821447 -0.68995398 0.982212836
    endloop
  endfacet
  facet normal 0.679533853 -0.274230155 -0.680464227
    outer loop
      vertex -0.130682659 -0.713819809 0.918626156
      vertex -0.128358827 -0.713437062 0.920792561
      vertex -0.1286634 -0.714634694 0.920971056
    endloop
  endfacet
  facet normal -0.679533853 0.274230155 0.680464227
    outer loop
      vertex -0.191840706 -0.689139095 0.979867936
      vertex -0.189821447 -0.68995398 0.982212836
      vertex -0.189516874 -0.688756348 0.982034341
    endloop
  endfacet
  facet normal 0.732584734 0.303464871 0.609285385
    outer loop
      vertex -0.128358827 -0.713437062 0.920792561
      vertex -0.128408037 -0.7122977 0.92028425
      vertex -0.189566084 -0.687616986 0.981526031
    endloop
  endfacet
  facet normal 0.732584734 0.303464871 0.609285385
    outer loop
      vertex -0.128358827 -0.713437062 0.920792561
      vertex -0.189566084 -0.687616986 0.981526031
      vertex -0.189516874 -0.688756348 0.982034341
    endloop
  endfacet
  facet normal 0.679533853 -0.274230155 -0.680464227
    outer loop
      vertex -0.130682659 -0.713819809 0.918626156
      vertex -0.128408037 -0.7122977 0.92028425
      vertex -0.128358827 -0.713437062 0.920792561
    endloop
  endfacet
  facet normal -0.679533853 0.274230155 0.680464227
    outer loop
      vertex -0.191840706 -0.689139095 0.979867936
      vertex -0.189516874 -0.688756348 0.982034341
      vertex -0.189566084 -0.687616986 0.981526031
    endloop
  endfacet
  facet normal 0.661737506 0.629574235 0.407111479
    outer loop
      vertex -0.128408037 -0.7122977 0.92028425
      vertex -0.128803537 -0.711390065 0.91952351
      vertex -0.189961584 -0.686709351 0.98076529
    endloop
  endfacet
  facet normal 0.661737506 0.629574235 0.407111479
    outer loop
      vertex -0.128408037 -0.7122977 0.92028425
      vertex -0.189961584 -0.686709351 0.98076529
      vertex -0.189566084 -0.687616986 0.981526031
    endloop
  endfacet
  facet normal 0.679533853 -0.274230155 -0.680464227
    outer loop
      vertex -0.130682659 -0.713819809 0.918626156
      vertex -0.128803537 -0.711390065 0.91952351
      vertex -0.128408037 -0.7122977 0.92028425
    endloop
  endfacet
  facet normal -0.679533853 0.274230155 0.680464227
    outer loop
      vertex -0.191840706 -0.689139095 0.979867936
      vertex -0.189566084 -0.687616986 0.981526031
      vertex -0.189961584 -0.686709351 0.98076529
    endloop
  endfacet
  facet normal 0.490146742 0.859836628 0.14295854
    outer loop
      vertex -0.128803537 -0.711390065 0.91952351
      vertex -0.129485117 -0.710852337 0.918626156
      vertex -0.190643163 -0.686171623 0.979867936
    endloop
  endfacet
  facet normal 0.490146742 0.859836628 0.14295854
    outer loop
      vertex -0.128803537 -0.711390065 0.91952351
      vertex -0.190643163 -0.686171623 0.979867936
      vertex -0.189961584 -0.686709351 0.98076529
    endloop
  endfacet
  facet normal 0.679533853 -0.274230155 -0.680464227
    outer loop
      vertex -0.130682659 -0.713819809 0.918626156
      vertex -0.129485117 -0.710852337 0.918626156
      vertex -0.128803537 -0.711390065 0.91952351
    endloop
  endfacet
  facet normal -0.679533853 0.274230155 0.680464227
    outer loop
      vertex -0.191840706 -0.689139095 0.979867936
      vertex -0.189961584 -0.686709351 0.98076529
      vertex -0.190643163 -0.686171623 0.979867936
    endloop
  endfacet
  facet normal 0.24393558 0.959196689 -0.14295854
    outer loop
      vertex -0.15044089 -0.709601804 0.897195063
      vertex -0.151304785 -0.709515846 0.896297709
      vertex -0.212462832 -0.684835132 0.957539489
    endloop
  endfacet
  facet normal 0.24393558 0.959196689 -0.14295854
    outer loop
      vertex -0.15044089 -0.709601804 0.897195063
      vertex -0.212462832 -0.684835132 0.957539489
      vertex -0.211598937 -0.68492109 0.958436844
    endloop
  endfacet
  facet normal 0.679533853 -0.274230155 -0.680464227
    outer loop
      vertex -0.151638433 -0.712569276 0.897195063
      vertex -0.151304785 -0.709515846 0.896297709
      vertex -0.15044089 -0.709601804 0.897195063
    endloop
  endfacet
  facet normal -0.679533853 0.274230155 0.680464227
    outer loop
      vertex -0.212796479 -0.687888562 0.958436844
      vertex -0.211598937 -0.68492109 0.958436844
      vertex -0.212462832 -0.684835132 0.957539489
    endloop
  endfacet
  facet normal -0.039412563 0.91252775 -0.407111479
    outer loop
      vertex -0.151304785 -0.709515846 0.896297709
      vertex -0.152219474 -0.709894746 0.895536968
      vertex -0.213377521 -0.685214032 0.956778749
    endloop
  endfacet
  facet normal -0.039412563 0.91252775 -0.407111479
    outer loop
      vertex -0.151304785 -0.709515846 0.896297709
      vertex -0.213377521 -0.685214032 0.956778749
      vertex -0.212462832 -0.684835132 0.957539489
    endloop
  endfacet
  facet normal 0.679533853 -0.274230155 -0.680464227
    outer loop
      vertex -0.151638433 -0.712569276 0.897195063
      vertex -0.152219474 -0.709894746 0.895536968
      vertex -0.151304785 -0.709515846 0.896297709
    endloop
  endfacet
  facet normal -0.679533853 0.274230155 0.680464227
    outer loop
      vertex -0.212796479 -0.687888562 0.958436844
      vertex -0.212462832 -0.684835132 0.957539489
      vertex -0.213377521 -0.685214032 0.956778749
    endloop
  endfacet
  facet normal -0.316760501 0.726934732 -0.609285385
    outer loop
      vertex -0.152219474 -0.709894746 0.895536968
      vertex -0.153045705 -0.710680818 0.895028658
      vertex -0.214203752 -0.686000104 0.956270438
    endloop
  endfacet
  facet normal -0.316760501 0.726934732 -0.609285385
    outer loop
      vertex -0.152219474 -0.709894746 0.895536968
      vertex -0.214203752 -0.686000104 0.956270438
      vertex -0.213377521 -0.685214032 0.956778749
    endloop
  endfacet
  facet normal 0.679533853 -0.274230155 -0.680464227
    outer loop
      vertex -0.151638433 -0.712569276 0.897195063
      vertex -0.153045705 -0.710680818 0.895028658
      vertex -0.152219474 -0.709894746 0.895536968
    endloop
  endfacet
  facet normal -0.679533853 0.274230155 0.680464227
    outer loop
      vertex -0.212796479 -0.687888562 0.958436844
      vertex -0.213377521 -0.685214032 0.956778749
      vertex -0.214203752 -0.686000104 0.956270438
    endloop
  endfacet
  facet normal -0.545884523 0.430672492 -0.718701115
    outer loop
      vertex -0.153045705 -0.710680818 0.895028658
      vertex -0.153657691 -0.711754391 0.894850163
      vertex -0.214815738 -0.687073677 0.956091944
    endloop
  endfacet
  facet normal -0.545884523 0.430672492 -0.718701115
    outer loop
      vertex -0.153045705 -0.710680818 0.895028658
      vertex -0.214815738 -0.687073677 0.956091944
      vertex -0.214203752 -0.686000104 0.956270438
    endloop
  endfacet
  facet normal 0.679533853 -0.274230155 -0.680464227
    outer loop
      vertex -0.151638433 -0.712569276 0.897195063
      vertex -0.153657691 -0.711754391 0.894850163
      vertex -0.153045705 -0.710680818 0.895028658
    endloop
  endfacet
  facet normal -0.679533853 0.274230155 0.680464227
    outer loop
      vertex -0.212796479 -0.687888562 0.958436844
      vertex -0.214203752 -0.686000104 0.956270438
      vertex -0.214815738 -0.687073677 0.956091944
    endloop
  endfacet
  facet normal -0.691902576 0.0688442682 -0.718701115
    outer loop
      vertex -0.153657691 -0.711754391 0.894850163
      vertex -0.153962264 -0.712952023 0.895028658
      vertex -0.215120311 -0.688271309 0.956270438
    endloop
  endfacet
  facet normal -0.691902576 0.0688442682 -0.718701115
    outer loop
      vertex -0.153657691 -0.711754391 0.894850163
      vertex -0.215120311 -0.688271309 0.956270438
      vertex -0.214815738 -0.687073677 0.956091944
    endloop
  endfacet
  facet normal 0.679533853 -0.274230155 -0.680464227
    outer loop
      vertex -0.151638433 -0.712569276 0.897195063
      vertex -0.153962264 -0.712952023 0.895028658
      vertex -0.153657691 -0.711754391 0.894850163
    endloop
  endfacet
  facet normal -0.679533853 0.274230155 0.680464227
    outer loop
      vertex -0.212796479 -0.687888562 0.958436844
      vertex -0.214815738 -0.687073677 0.956091944
      vertex -0.215120311 -0.688271309 0.956270438
    endloop
  endfacet
  facet normal -0.732584734 -0.303464871 -0.609285385
    outer loop
      vertex -0.153962264 -0.712952023 0.895028658
      vertex -0.153913054 -0.714091385 0.895536968
      vertex -0.215071101 -0.689410671 0.956778749
    endloop
  endfacet
  facet normal -0.732584734 -0.303464871 -0.609285385
    outer loop
      vertex -0.153962264 -0.712952023 0.895028658
      vertex -0.215071101 -0.689410671 0.956778749
      vertex -0.215120311 -0.688271309 0.956270438
    endloop
  endfacet
  facet normal 0.679533853 -0.274230155 -0.680464227
    outer loop
      vertex -0.151638433 -0.712569276 0.897195063
      vertex -0.153913054 -0.714091385 0.895536968
      vertex -0.153962264 -0.712952023 0.895028658
    endloop
  endfacet
  facet normal -0.679533853 0.274230155 0.680464227
    outer loop
      vertex -0.212796479 -0.687888562 0.958436844
      vertex -0.215120311 -0.688271309 0.956270438
      vertex -0.215071101 -0.689410671 0.956778749
    endloop
  endfacet
  facet normal -0.661737506 -0.629574235 -0.407111479
    outer loop
      vertex -0.153913054 -0.714091385 0.895536968
      vertex -0.153517554 -0.71499902 0.896297709
      vertex -0.214675601 -0.690318306 0.957539489
    endloop
  endfacet
  facet normal -0.661737506 -0.629574235 -0.407111479
    outer loop
      vertex -0.153913054 -0.714091385 0.895536968
      vertex -0.214675601 -0.690318306 0.957539489
      vertex -0.215071101 -0.689410671 0.956778749
    endloop
  endfacet
  facet normal 0.679533853 -0.274230155 -0.680464227
    outer loop
      vertex -0.151638433 -0.712569276 0.897195063
      vertex -0.153517554 -0.71499902 0.896297709
      vertex -0.153913054 -0.714091385 0.895536968
    endloop
  endfacet
  facet normal -0.679533853 0.274230155 0.680464227
    outer loop
      vertex -0.212796479 -0.687888562 0.958436844
      vertex -0.215071101 -0.689410671 0.956778749
      vertex -0.214675601 -0.690318306 0.957539489
    endloop
  endfacet
  facet normal -0.490146742 -0.859836628 -0.14295854
    outer loop
      vertex -0.153517554 -0.71499902 0.896297709
      vertex -0.152835975 -0.715536748 0.897195063
      vertex -0.213994021 -0.690856034 0.958436844
    endloop
  endfacet
  facet normal -0.490146742 -0.859836628 -0.14295854
    outer loop
      vertex -0.153517554 -0.71499902 0.896297709
      vertex -0.213994021 -0.690856034 0.958436844
      vertex -0.214675601 -0.690318306 0.957539489
    endloop
  endfacet
  facet normal 0.679533853 -0.274230155 -0.680464227
    outer loop
      vertex -0.151638433 -0.712569276 0.897195063
      vertex -0.152835975 -0.715536748 0.897195063
      vertex -0.153517554 -0.71499902 0.896297709
    endloop
  endfacet
  facet normal -0.679533853 0.274230155 0.680464227
    outer loop
      vertex -0.212796479 -0.687888562 0.958436844
      vertex -0.214675601 -0.690318306 0.957539489
      vertex -0.213994021 -0.690856034 0.958436844
    endloop
  endfacet
  facet normal -0.24393558 -0.959196689 0.14295854
    outer loop
      vertex -0.152835975 -0.715536748 0.897195063
      vertex -0.15197208 -0.715622706 0.898092418
      vertex -0.213130127 -0.690941992 0.959334198
    endloop
  endfacet
  facet normal -0.24393558 -0.959196689 0.14295854
    outer loop
      vertex -0.152835975 -0.715536748 0.897195063
      vertex -0.213130127 -0.690941992 0.959334198
      vertex -0.213994021 -0.690856034 0.958436844
    endloop
  endfacet
  facet normal 0.679533853 -0.274230155 -0.680464227
    outer loop
      vertex -0.151638433 -0.712569276 0.897195063
      vertex -0.15197208 -0.715622706 0.898092418
      vertex -0.152835975 -0.715536748 0.897195063
    endloop
  endfacet
  facet normal -0.679533853 0.274230155 0.680464227
    outer loop
      vertex -0.212796479 -0.687888562 0.958436844
      vertex -0.213994021 -0.690856034 0.958436844
      vertex -0.213130127 -0.690941992 0.959334198
    endloop
  endfacet
  facet normal 0.039412563 -0.91252775 0.407111479
    outer loop
      vertex -0.15197208 -0.715622706 0.898092418
      vertex -0.151057391 -0.715243806 0.898853158
      vertex -0.212215438 -0.690563092 0.960094939
    endloop
  endfacet
  facet normal 0.039412563 -0.91252775 0.407111479
    outer loop
      vertex -0.15197208 -0.715622706 0.898092418
      vertex -0.212215438 -0.690563092 0.960094939
      vertex -0.213130127 -0.690941992 0.959334198
    endloop
  endfacet
  facet normal 0.679533853 -0.274230155 -0.680464227
    outer loop
      vertex -0.151638433 -0.712569276 0.897195063
      vertex -0.151057391 -0.715243806 0.898853158
      vertex -0.15197208 -0.715622706 0.898092418
    endloop
  endfacet
  facet normal -0.679533853 0.274230155 0.680464227
    outer loop
      vertex -0.212796479 -0.687888562 0.958436844
      vertex -0.213130127 -0.690941992 0.959334198
      vertex -0.212215438 -0.690563092 0.960094939
    endloop
  endfacet
  facet normal 0.316760501 -0.726934732 0.609285385
    outer loop
      vertex -0.151057391 -0.715243806 0.898853158
      vertex -0.15023116 -0.714457734 0.899361469
      vertex -0.211389207 -0.68977702 0.960603249
    endloop
  endfacet
  facet normal 0.316760501 -0.726934732 0.609285385
    outer loop
      vertex -0.151057391 -0.715243806 0.898853158
      vertex -0.211389207 -0.68977702 0.960603249
      vertex -0.212215438 -0.690563092 0.960094939
    endloop
  endfacet
  facet normal 0.679533853 -0.274230155 -0.680464227
    outer loop
      vertex -0.151638433 -0.712569276 0.897195063
      vertex -0.15023116 -0.714457734 0.899361469
      vertex -0.151057391 -0.715243806 0.898853158
    endloop
  endfacet
  facet normal -0.679533853 0.274230155 0.680464227
    outer loop
      vertex -0.212796479 -0.687888562 0.958436844
      vertex -0.212215438 -0.690563092 0.960094939
      vertex -0.211389207 -0.68977702 0.960603249
    endloop
  endfacet
  facet normal 0.545884523 -0.430672492 0.718701115
    outer loop
      vertex -0.15023116 -0.714457734 0.899361469
      vertex -0.149619174 -0.713384161 0.899539963
      vertex -0.21077722 -0.688703447 0.960781744
    endloop
  endfacet
  facet normal 0.545884523 -0.430672492 0.718701115
    outer loop
      vertex -0.15023116 -0.714457734 0.899361469
      vertex -0.21077722 -0.688703447 0.960781744
      vertex -0.211389207 -0.68977702 0.960603249
    endloop
  endfacet
  facet normal 0.679533853 -0.274230155 -0.680464227
    outer loop
      vertex -0.151638433 -0.712569276 0.897195063
      vertex -0.149619174 -0.713384161 0.899539963
      vertex -0.15023116 -0.714457734 0.899361469
    endloop
  endfacet
  facet normal -0.679533853 0.274230155 0.680464227
    outer loop
      vertex -0.212796479 -0.687888562 0.958436844
      vertex -0.211389207 -0.68977702 0.960603249
      vertex -0.21077722 -0.688703447 0.960781744
    endloop
  endfacet
  facet normal 0.691902576 -0.0688442682 0.718701115
    outer loop
      vertex -0.149619174 -0.713384161 0.899539963
      vertex -0.149314601 -0.712186529 0.899361469
      vertex -0.210472648 -0.687505815 0.960603249
    endloop
  endfacet
  facet normal 0.691902576 -0.0688442682 0.718701115
    outer loop
      vertex -0.149619174 -0.713384161 0.899539963
      vertex -0.210472648 -0.687505815 0.960603249
      vertex -0.21077722 -0.688703447 0.960781744
    endloop
  endfacet
  facet normal 0.679533853 -0.274230155 -0.680464227
    outer loop
      vertex -0.151638433 -0.712569276 0.897195063
      vertex -0.149314601 -0.712186529 0.899361469
      vertex -0.149619174 -0.713384161 0.899539963
    endloop
  endfacet
  facet normal -0.679533853 0.274230155 0.680464227
    outer loop
      vertex -0.212796479 -0.687888562 0.958436844
      vertex -0.21077722 -0.688703447 0.960781744
      vertex -0.210472648 -0.687505815 0.960603249
    endloop
  endfacet
  facet normal 0.732584734 0.303464871 0.609285385
    outer loop
      vertex -0.149314601 -0.712186529 0.899361469
      vertex -0.149363811 -0.711047166 0.898853158
      vertex -0.210521858 -0.686366452 0.960094939
    endloop
  endfacet
  facet normal 0.732584734 0.303464871 0.609285385
    outer loop
      vertex -0.149314601 -0.712186529 0.899361469
      vertex -0.210521858 -0.686366452 0.960094939
      vertex -0.210472648 -0.687505815 0.960603249
    endloop
  endfacet
  facet normal 0.679533853 -0.274230155 -0.680464227
    outer loop
      vertex -0.151638433 -0.712569276 0.897195063
      vertex -0.149363811 -0.711047166 0.898853158
      vertex -0.149314601 -0.712186529 0.899361469
    endloop
  endfacet
  facet normal -0.679533853 0.274230155 0.680464227
    outer loop
      vertex -0.212796479 -0.687888562 0.958436844
      vertex -0.210472648 -0.687505815 0.960603249
      vertex -0.210521858 -0.686366452 0.960094939
    endloop
  endfacet
  facet normal 0.661737506 0.629574235 0.407111479
    outer loop
      vertex -0.149363811 -0.711047166 0.898853158
      vertex -0.149759311 -0.710139532 0.898092418
      vertex -0.210917358 -0.685458818 0.959334198
    endloop
  endfacet
  facet normal 0.661737506 0.629574235 0.407111479
    outer loop
      vertex -0.149363811 -0.711047166 0.898853158
      vertex -0.210917358 -0.685458818 0.959334198
      vertex -0.210521858 -0.686366452 0.960094939
    endloop
  endfacet
  facet normal 0.679533853 -0.274230155 -0.680464227
    outer loop
      vertex -0.151638433 -0.712569276 0.897195063
      vertex -0.149759311 -0.710139532 0.898092418
      vertex -0.149363811 -0.711047166 0.898853158
    endloop
  endfacet
  facet normal -0.679533853 0.274230155 0.680464227
    outer loop
      vertex -0.212796479 -0.687888562 0.958436844
      vertex -0.210521858 -0.686366452 0.960094939
      vertex -0.210917358 -0.685458818 0.959334198
    endloop
  endfacet
  facet normal 0.490146742 0.859836628 0.14295854
    outer loop
      vertex -0.149759311 -0.710139532 0.898092418
      vertex -0.15044089 -0.709601804 0.897195063
      vertex -0.211598937 -0.68492109 0.958436844
    endloop
  endfacet
  facet normal 0.490146742 0.859836628 0.14295854
    outer loop
      vertex -0.149759311 -0.710139532 0.898092418
      vertex -0.211598937 -0.68492109 0.958436844
      vertex -0.210917358 -0.685458818 0.959334198
    endloop
  endfacet
  facet normal 0.679533853 -0.274230155 -0.680464227
    outer loop
      vertex -0.151638433 -0.712569276 0.897195063
      vertex -0.15044089 -0.709601804 0.897195063
      vertex -0.149759311 -0.710139532 0.898092418
    endloop
  endfacet
  facet normal -0.679533853 0.274230155 0.680464227
    outer loop
      vertex -0.212796479 -0.687888562 0.958436844
      vertex -0.210917358 -0.685458818 0.959334198
      vertex -0.211598937 -0.68492109 0.958436844
    endloop
  endfacet
endsolid f2_features
