solid c26_features
  facet normal 0.906547226 -0.195086865 -0.374317035
    outer loop
      vertex 3.05716558 0.426790033 2.09430155
      vertex 3.05694333 0.425565468 2.09440151
      vertex 3.01101483 0.424851083 1.98354096
    endloop
  endfacet
  facet normal 0.906547226 -0.195086865 -0.374317035
    outer loop
      vertex 3.05716558 0.426790033 2.09430155
      vertex 3.01101483 0.424851083 1.98354096
      vertex 3.01123707 0.426075648 1.98344099
    endloop
  endfacet
  facet normal 0.382737554 0.00595320522 0.923837932
    outer loop
      vertex 3.05420925 0.426790033 2.09552633
      vertex 3.05694333 0.425565468 2.09440151
      vertex 3.05716558 0.426790033 2.09430155
    endloop
  endfacet
  facet normal -0.382737554 -0.00595320522 -0.923837932
    outer loop
      vertex 3.00828074 0.426075648 1.98466578
      vertex 3.01123707 0.426075648 1.98344099
      vertex 3.01101483 0.424851083 1.98354096
    endloop
  endfacet
  facet normal 0.769422677 -0.555560388 -0.315184707
    outer loop
      vertex 3.05694333 0.425565468 2.09440151
      vertex 3.05630485 0.424527331 2.09467272
      vertex 3.01037634 0.423812947 1.98381217
    endloop
  endfacet
  facet normal 0.769422677 -0.555560388 -0.315184707
    outer loop
      vertex 3.05694333 0.425565468 2.09440151
      vertex 3.01037634 0.423812947 1.98381217
      vertex 3.01101483 0.424851083 1.98354096
    endloop
  endfacet
  facet normal 0.382737554 0.00595320522 0.923837932
    outer loop
      vertex 3.05420925 0.426790033 2.09552633
      vertex 3.05630485 0.424527331 2.09467272
      vertex 3.05694333 0.425565468 2.09440151
    endloop
  endfacet
  facet normal -0.382737554 -0.00595320522 -0.923837932
    outer loop
      vertex 3.00828074 0.426075648 1.98466578
      vertex 3.01101483 0.424851083 1.98354096
      vertex 3.01037634 0.423812947 1.98381217
    endloop
  endfacet
  facet normal 0.5151605 -0.831454878 -0.208068365
    outer loop
      vertex 3.05630485 0.424527331 2.09467272
      vertex 3.05534732 0.423833671 2.09507388
      vertex 3.00941882 0.423119286 1.98421333
    endloop
  endfacet
  facet normal 0.5151605 -0.831454878 -0.208068365
    outer loop
      vertex 3.05630485 0.424527331 2.09467272
      vertex 3.00941882 0.423119286 1.98421333
      vertex 3.01037634 0.423812947 1.98381217
    endloop
  endfacet
  facet normal 0.382737554 0.00595320522 0.923837932
    outer loop
      vertex 3.05420925 0.426790033 2.09552633
      vertex 3.05534732 0.423833671 2.09507388
      vertex 3.05630485 0.424527331 2.09467272
    endloop
  endfacet
  facet normal -0.382737554 -0.00595320522 -0.923837932
    outer loop
      vertex 3.00828074 0.426075648 1.98466578
      vertex 3.01037634 0.423812947 1.98381217
      vertex 3.00941882 0.423119286 1.98421333
    endloop
  endfacet
  facet normal 0.182469807 -0.9807679 -0.0692755004
    outer loop
      vertex 3.05534732 0.423833671 2.09507388
      vertex 3.05421654 0.42359009 2.09554393
      vertex 3.00828803 0.422875705 1.98468338
    endloop
  endfacet
  facet normal 0.182469807 -0.9807679 -0.0692755004
    outer loop
      vertex 3.05534732 0.423833671 2.09507388
      vertex 3.00828803 0.422875705 1.98468338
      vertex 3.00941882 0.423119286 1.98421333
    endloop
  endfacet
  facet normal 0.382737554 0.00595320522 0.923837932
    outer loop
      vertex 3.05420925 0.426790033 2.09552633
      vertex 3.05421654 0.42359009 2.09554393
      vertex 3.05534732 0.423833671 2.09507388
    endloop
  endfacet
  facet normal -0.382737554 -0.00595320522 -0.923837932
    outer loop
      vertex 3.00828074 0.426075648 1.98466578
      vertex 3.00941882 0.423119286 1.98421333
      vertex 3.00828803 0.422875705 1.98468338
    endloop
  endfacet
  facet normal -0.17800026 -0.9807679 0.0800639311
    outer loop
      vertex 3.05421654 0.42359009 2.09554393
      vertex 3.05308464 0.423833671 2.09601129
      vertex 3.00715614 0.423119286 1.98515074
    endloop
  endfacet
  facet normal -0.17800026 -0.9807679 0.0800639311
    outer loop
      vertex 3.05421654 0.42359009 2.09554393
      vertex 3.00715614 0.423119286 1.98515074
      vertex 3.00828803 0.422875705 1.98468338
    endloop
  endfacet
  facet normal 0.382737554 0.00595320522 0.923837932
    outer loop
      vertex 3.05420925 0.426790033 2.09552633
      vertex 3.05308464 0.423833671 2.09601129
      vertex 3.05421654 0.42359009 2.09554393
    endloop
  endfacet
  facet normal -0.382737554 -0.00595320522 -0.923837932
    outer loop
      vertex 3.00828074 0.426075648 1.98466578
      vertex 3.00828803 0.422875705 1.98468338
      vertex 3.00715614 0.423119286 1.98515074
    endloop
  endfacet
  facet normal -0.511371401 -0.831454878 0.217214355
    outer loop
      vertex 3.05308464 0.423833671 2.09601129
      vertex 3.05212396 0.424527331 2.09640482
      vertex 3.00619545 0.423812947 1.98554427
    endloop
  endfacet
  facet normal -0.511371401 -0.831454878 0.217214355
    outer loop
      vertex 3.05308464 0.423833671 2.09601129
      vertex 3.00619545 0.423812947 1.98554427
      vertex 3.00715614 0.423119286 1.98515074
    endloop
  endfacet
  facet normal 0.382737554 0.00595320522 0.923837932
    outer loop
      vertex 3.05420925 0.426790033 2.09552633
      vertex 3.05212396 0.424527331 2.09640482
      vertex 3.05308464 0.423833671 2.09601129
    endloop
  endfacet
  facet normal -0.382737554 -0.00595320522 -0.923837932
    outer loop
      vertex 3.00828074 0.426075648 1.98466578
      vertex 3.00715614 0.423119286 1.98515074
      vertex 3.00619545 0.423812947 1.98554427
    endloop
  endfacet
  facet normal -0.766890882 -0.555560388 0.321295862
    outer loop
      vertex 3.05212396 0.424527331 2.09640482
      vertex 3.05148074 0.425565468 2.09666461
      vertex 3.00555223 0.424851083 1.98580406
    endloop
  endfacet
  facet normal -0.766890882 -0.555560388 0.321295862
    outer loop
      vertex 3.05212396 0.424527331 2.09640482
      vertex 3.00555223 0.424851083 1.98580406
      vertex 3.00619545 0.423812947 1.98554427
    endloop
  endfacet
  facet normal 0.382737554 0.00595320522 0.923837932
    outer loop
      vertex 3.05420925 0.426790033 2.09552633
      vertex 3.05148074 0.425565468 2.09666461
      vertex 3.05212396 0.424527331 2.09640482
    endloop
  endfacet
  facet normal -0.382737554 -0.00595320522 -0.923837932
    outer loop
      vertex 3.00828074 0.426075648 1.98466578
      vertex 3.00619545 0.423812947 1.98554427
      vertex 3.00555223 0.424851083 1.98580406
    endloop
  endfacet
  facet normal -0.905658178 -0.195086865 0.376462987
    outer loop
      vertex 3.05148074 0.425565468 2.09666461
      vertex 3.05125291 0.426790033 2.09675111
      vertex 3.00532441 0.426075648 1.98589056
    endloop
  endfacet
  facet normal -0.905658178 -0.195086865 0.376462987
    outer loop
      vertex 3.05148074 0.425565468 2.09666461
      vertex 3.00532441 0.426075648 1.98589056
      vertex 3.00555223 0.424851083 1.98580406
    endloop
  endfacet
  facet normal 0.382737554 0.00595320522 0.923837932
    outer loop
      vertex 3.05420925 0.426790033 2.09552633
      vertex 3.05125291 0.426790033 2.09675111
      vertex 3.05148074 0.425565468 2.09666461
    endloop
  endfacet
  facet normal -0.382737554 -0.00595320522 -0.923837932
    outer loop
      vertex 3.00828074 0.426075648 1.98466578
      vertex 3.00555223 0.424851083 1.98580406
      vertex 3.00532441 0.426075648 1.98589056
    endloop
  endfacet
  facet normal -0.906547226 0.195086865 0.374317035
    outer loop
      vertex 3.05125291 0.426790033 2.09675111
      vertex 3.05147516 0.428014598 2.09665114
      vertex 3.00554665 0.427300214 1.98579059
    endloop
  endfacet
  facet normal -0.906547226 0.195086865 0.374317035
    outer loop
      vertex 3.05125291 0.426790033 2.09675111
      vertex 3.00554665 0.427300214 1.98579059
      vertex 3.00532441 0.426075648 1.98589056
    endloop
  endfacet
  facet normal 0.382737554 0.00595320522 0.923837932
    outer loop
      vertex 3.05420925 0.426790033 2.09552633
      vertex 3.05147516 0.428014598 2.09665114
      vertex 3.05125291 0.426790033 2.09675111
    endloop
  endfacet
  facet normal -0.382737554 -0.00595320522 -0.923837932
    outer loop
      vertex 3.00828074 0.426075648 1.98466578
      vertex 3.00532441 0.426075648 1.98589056
      vertex 3.00554665 0.427300214 1.98579059
    endloop
  endfacet
  facet normal -0.769422677 0.555560388 0.315184707
    outer loop
      vertex 3.05147516 0.428014598 2.09665114
      vertex 3.05211365 0.429052735 2.09637994
      vertex 3.00618514 0.42833835 1.98551938
    endloop
  endfacet
  facet normal -0.769422677 0.555560388 0.315184707
    outer loop
      vertex 3.05147516 0.428014598 2.09665114
      vertex 3.00618514 0.42833835 1.98551938
      vertex 3.00554665 0.427300214 1.98579059
    endloop
  endfacet
  facet normal 0.382737554 0.00595320522 0.923837932
    outer loop
      vertex 3.05420925 0.426790033 2.09552633
      vertex 3.05211365 0.429052735 2.09637994
      vertex 3.05147516 0.428014598 2.09665114
    endloop
  endfacet
  facet normal -0.382737554 -0.00595320522 -0.923837932
    outer loop
      vertex 3.00828074 0.426075648 1.98466578
      vertex 3.00554665 0.427300214 1.98579059
      vertex 3.00618514 0.42833835 1.98551938
    endloop
  endfacet
  facet normal -0.5151605 0.831454878 0.208068365
    outer loop
      vertex 3.05211365 0.429052735 2.09637994
      vertex 3.05307117 0.429746395 2.09597877
      vertex 3.00714266 0.42903201 1.98511822
    endloop
  endfacet
  facet normal -0.5151605 0.831454878 0.208068365
    outer loop
      vertex 3.05211365 0.429052735 2.09637994
      vertex 3.00714266 0.42903201 1.98511822
      vertex 3.00618514 0.42833835 1.98551938
    endloop
  endfacet
  facet normal 0.382737554 0.00595320522 0.923837932
    outer loop
      vertex 3.05420925 0.426790033 2.09552633
      vertex 3.05307117 0.429746395 2.09597877
      vertex 3.05211365 0.429052735 2.09637994
    endloop
  endfacet
  facet normal -0.382737554 -0.00595320522 -0.923837932
    outer loop
      vertex 3.00828074 0.426075648 1.98466578
      vertex 3.00618514 0.42833835 1.98551938
      vertex 3.00714266 0.42903201 1.98511822
    endloop
  endfacet
  facet normal -0.182469807 0.9807679 0.0692755004
    outer loop
      vertex 3.05307117 0.429746395 2.09597877
      vertex 3.05420195 0.429989976 2.09550873
      vertex 3.00827345 0.429275592 1.98464818
    endloop
  endfacet
  facet normal -0.182469807 0.9807679 0.0692755004
    outer loop
      vertex 3.05307117 0.429746395 2.09597877
      vertex 3.00827345 0.429275592 1.98464818
      vertex 3.00714266 0.42903201 1.98511822
    endloop
  endfacet
  facet normal 0.382737554 0.00595320522 0.923837932
    outer loop
      vertex 3.05420925 0.426790033 2.09552633
      vertex 3.05420195 0.429989976 2.09550873
      vertex 3.05307117 0.429746395 2.09597877
    endloop
  endfacet
  facet normal -0.382737554 -0.00595320522 -0.923837932
    outer loop
      vertex 3.00828074 0.426075648 1.98466578
      vertex 3.00714266 0.42903201 1.98511822
      vertex 3.00827345 0.429275592 1.98464818
    endloop
  endfacet
  facet normal 0.17800026 0.9807679 -0.0800639311
    outer loop
      vertex 3.05420195 0.429989976 2.09550873
      vertex 3.05533385 0.429746395 2.09504136
      vertex 3.00940534 0.42903201 1.98418081
    endloop
  endfacet
  facet normal 0.17800026 0.9807679 -0.0800639311
    outer loop
      vertex 3.05420195 0.429989976 2.09550873
      vertex 3.00940534 0.42903201 1.98418081
      vertex 3.00827345 0.429275592 1.98464818
    endloop
  endfacet
  facet normal 0.382737554 0.00595320522 0.923837932
    outer loop
      vertex 3.05420925 0.426790033 2.09552633
      vertex 3.05533385 0.429746395 2.09504136
      vertex 3.05420195 0.429989976 2.09550873
    endloop
  endfacet
  facet normal -0.382737554 -0.00595320522 -0.923837932
    outer loop
      vertex 3.00828074 0.426075648 1.98466578
      vertex 3.00827345 0.429275592 1.98464818
      vertex 3.00940534 0.42903201 1.98418081
    endloop
  endfacet
  facet normal 0.511371401 0.831454878 -0.217214355
    outer loop
      vertex 3.05533385 0.429746395 2.09504136
      vertex 3.05629453 0.429052735 2.09464783
      vertex 3.01036603 0.42833835 1.98378728
    endloop
  endfacet
  facet normal 0.511371401 0.831454878 -0.217214355
    outer loop
      vertex 3.05533385 0.429746395 2.09504136
      vertex 3.01036603 0.42833835 1.98378728
      vertex 3.00940534 0.42903201 1.98418081
    endloop
  endfacet
  facet normal 0.382737554 0.00595320522 0.923837932
    outer loop
      vertex 3.05420925 0.426790033 2.09552633
      vertex 3.05629453 0.429052735 2.09464783
      vertex 3.05533385 0.429746395 2.09504136
    endloop
  endfacet
  facet normal -0.382737554 -0.00595320522 -0.923837932
    outer loop
      vertex 3.00828074 0.426075648 1.98466578
      vertex 3.00940534 0.42903201 1.98418081
      vertex 3.01036603 0.42833835 1.98378728
    endloop
  endfacet
  facet normal 0.766890882 0.555560388 -0.321295862
    outer loop
      vertex 3.05629453 0.429052735 2.09464783
      vertex 3.05693775 0.428014598 2.09438804
      vertex 3.01100925 0.427300214 1.98352749
    endloop
  endfacet
  facet normal 0.766890882 0.555560388 -0.321295862
    outer loop
      vertex 3.05629453 0.429052735 2.09464783
      vertex 3.01100925 0.427300214 1.98352749
      vertex 3.01036603 0.42833835 1.98378728
    endloop
  endfacet
  facet normal 0.382737554 0.00595320522 0.923837932
    outer loop
      vertex 3.05420925 0.426790033 2.09552633
      vertex 3.05693775 0.428014598 2.09438804
      vertex 3.05629453 0.429052735 2.09464783
    endloop
  endfacet
  facet normal -0.382737554 -0.00595320522 -0.923837932
    outer loop
      vertex 3.00828074 0.426075648 1.98466578
      vertex 3.01036603 0.42833835 1.98378728
      vertex 3.01100925 0.427300214 1.98352749
    endloop
  endfacet
  facet normal 0.905658178 0.195086865 -0.376462987
    outer loop
      vertex 3.05693775 0.428014598 2.09438804
      vertex 3.05716558 0.426790033 2.09430155
      vertex 3.01123707 0.426075648 1.98344099
    endloop
  endfacet
  facet normal 0.905658178 0.195086865 -0.376462987
    outer loop
      vertex 3.05693775 0.428014598 2.09438804
      vertex 3.01123707 0.426075648 1.98344099
      vertex 3.01100925 0.427300214 1.98352749
    endloop
  endfacet
  facet normal 0.382737554 0.00595320522 0.923837932
    outer loop
      vertex 3.05420925 0.426790033 2.09552633
      vertex 3.05716558 0.426790033 2.09430155
      vertex 3.05693775 0.428014598 2.09438804
    endloop
  endfacet
  facet normal -0.382737554 -0.00595320522 -0.923837932
    outer loop
      vertex 3.00828074 0.426075648 1.98466578
      vertex 3.01100925 0.427300214 1.98352749
      vertex 3.01123707 0.426075648 1.98344099
    endloop
  endfacet
  facet normal 0.906547226 -0.195086865 -0.374317035
    outer loop
      vertex 3.04328625 0.452793873 2.09988406
      vertex 3.043064 0.451569308 2.09998402
      vertex 2.99713549 0.450854923 1.98912347
    endloop
  endfacet
  facet normal 0.906547226 -0.195086865 -0.374317035
    outer loop
      vertex 3.04328625 0.452793873 2.09988406
      vertex 2.99713549 0.450854923 1.98912347
      vertex 2.99735774 0.452079488 1.98902351
    endloop
  endfacet
  facet normal 0.382737554 0.00595320522 0.923837932
    outer loop
      vertex 3.04032991 0.452793873 2.10110884
      vertex 3.043064 0.451569308 2.09998402
      vertex 3.04328625 0.452793873 2.09988406
    endloop
  endfacet
  facet normal -0.382737554 -0.00595320522 -0.923837932
    outer loop
      vertex 2.99440141 0.452079488 1.99024829
      vertex 2.99735774 0.452079488 1.98902351
      vertex 2.99713549 0.450854923 1.98912347
    endloop
  endfacet
  facet normal 0.769422677 -0.555560388 -0.315184707
    outer loop
      vertex 3.043064 0.451569308 2.09998402
      vertex 3.04242551 0.450531171 2.10025523
      vertex 2.99649701 0.449816787 1.98939468
    endloop
  endfacet
  facet normal 0.769422677 -0.555560388 -0.315184707
    outer loop
      vertex 3.043064 0.451569308 2.09998402
      vertex 2.99649701 0.449816787 1.98939468
      vertex 2.99713549 0.450854923 1.98912347
    endloop
  endfacet
  facet normal 0.382737554 0.00595320522 0.923837932
    outer loop
      vertex 3.04032991 0.452793873 2.10110884
      vertex 3.04242551 0.450531171 2.10025523
      vertex 3.043064 0.451569308 2.09998402
    endloop
  endfacet
  facet normal -0.382737554 -0.00595320522 -0.923837932
    outer loop
      vertex 2.99440141 0.452079488 1.99024829
      vertex 2.99713549 0.450854923 1.98912347
      vertex 2.99649701 0.449816787 1.98939468
    endloop
  endfacet
  facet normal 0.5151605 -0.831454878 -0.208068365
    outer loop
      vertex 3.04242551 0.450531171 2.10025523
      vertex 3.04146799 0.449837511 2.1006564
      vertex 2.99553948 0.449123126 1.98979584
    endloop
  endfacet
  facet normal 0.5151605 -0.831454878 -0.208068365
    outer loop
      vertex 3.04242551 0.450531171 2.10025523
      vertex 2.99553948 0.449123126 1.98979584
      vertex 2.99649701 0.449816787 1.98939468
    endloop
  endfacet
  facet normal 0.382737554 0.00595320522 0.923837932
    outer loop
      vertex 3.04032991 0.452793873 2.10110884
      vertex 3.04146799 0.449837511 2.1006564
      vertex 3.04242551 0.450531171 2.10025523
    endloop
  endfacet
  facet normal -0.382737554 -0.00595320522 -0.923837932
    outer loop
      vertex 2.99440141 0.452079488 1.99024829
      vertex 2.99649701 0.449816787 1.98939468
      vertex 2.99553948 0.449123126 1.98979584
    endloop
  endfacet
  facet normal 0.182469807 -0.9807679 -0.0692755004
    outer loop
      vertex 3.04146799 0.449837511 2.1006564
      vertex 3.0403372 0.44959393 2.10112644
      vertex 2.9944087 0.448879545 1.99026589
    endloop
  endfacet
  facet normal 0.182469807 -0.9807679 -0.0692755004
    outer loop
      vertex 3.04146799 0.449837511 2.1006564
      vertex 2.9944087 0.448879545 1.99026589
      vertex 2.99553948 0.449123126 1.98979584
    endloop
  endfacet
  facet normal 0.382737554 0.00595320522 0.923837932
    outer loop
      vertex 3.04032991 0.452793873 2.10110884
      vertex 3.0403372 0.44959393 2.10112644
      vertex 3.04146799 0.449837511 2.1006564
    endloop
  endfacet
  facet normal -0.382737554 -0.00595320522 -0.923837932
    outer loop
      vertex 2.99440141 0.452079488 1.99024829
      vertex 2.99553948 0.449123126 1.98979584
      vertex 2.9944087 0.448879545 1.99026589
    endloop
  endfacet
  facet normal -0.17800026 -0.9807679 0.0800639311
    outer loop
      vertex 3.0403372 0.44959393 2.10112644
      vertex 3.03920531 0.449837511 2.1015938
      vertex 2.9932768 0.449123126 1.99073325
    endloop
  endfacet
  facet normal -0.17800026 -0.9807679 0.0800639311
    outer loop
      vertex 3.0403372 0.44959393 2.10112644
      vertex 2.9932768 0.449123126 1.99073325
      vertex 2.9944087 0.448879545 1.99026589
    endloop
  endfacet
  facet normal 0.382737554 0.00595320522 0.923837932
    outer loop
      vertex 3.04032991 0.452793873 2.10110884
      vertex 3.03920531 0.449837511 2.1015938
      vertex 3.0403372 0.44959393 2.10112644
    endloop
  endfacet
  facet normal -0.382737554 -0.00595320522 -0.923837932
    outer loop
      vertex 2.99440141 0.452079488 1.99024829
      vertex 2.9944087 0.448879545 1.99026589
      vertex 2.9932768 0.449123126 1.99073325
    endloop
  endfacet
  facet normal -0.511371401 -0.831454878 0.217214355
    outer loop
      vertex 3.03920531 0.449837511 2.1015938
      vertex 3.03824463 0.450531171 2.10198734
      vertex 2.99231612 0.449816787 1.99112678
    endloop
  endfacet
  facet normal -0.511371401 -0.831454878 0.217214355
    outer loop
      vertex 3.03920531 0.449837511 2.1015938
      vertex 2.99231612 0.449816787 1.99112678
      vertex 2.9932768 0.449123126 1.99073325
    endloop
  endfacet
  facet normal 0.382737554 0.00595320522 0.923837932
    outer loop
      vertex 3.04032991 0.452793873 2.10110884
      vertex 3.03824463 0.450531171 2.10198734
      vertex 3.03920531 0.449837511 2.1015938
    endloop
  endfacet
  facet normal -0.382737554 -0.00595320522 -0.923837932
    outer loop
      vertex 2.99440141 0.452079488 1.99024829
      vertex 2.9932768 0.449123126 1.99073325
      vertex 2.99231612 0.449816787 1.99112678
    endloop
  endfacet
  facet normal -0.766890882 -0.555560388 0.321295862
    outer loop
      vertex 3.03824463 0.450531171 2.10198734
      vertex 3.03760141 0.451569308 2.10224713
      vertex 2.9916729 0.450854923 1.99138657
    endloop
  endfacet
  facet normal -0.766890882 -0.555560388 0.321295862
    outer loop
      vertex 3.03824463 0.450531171 2.10198734
      vertex 2.9916729 0.450854923 1.99138657
      vertex 2.99231612 0.449816787 1.99112678
    endloop
  endfacet
  facet normal 0.382737554 0.00595320522 0.923837932
    outer loop
      vertex 3.04032991 0.452793873 2.10110884
      vertex 3.03760141 0.451569308 2.10224713
      vertex 3.03824463 0.450531171 2.10198734
    endloop
  endfacet
  facet normal -0.382737554 -0.00595320522 -0.923837932
    outer loop
      vertex 2.99440141 0.452079488 1.99024829
      vertex 2.99231612 0.449816787 1.99112678
      vertex 2.9916729 0.450854923 1.99138657
    endloop
  endfacet
  facet normal -0.905658178 -0.195086865 0.376462987
    outer loop
      vertex 3.03760141 0.451569308 2.10224713
      vertex 3.03737358 0.452793873 2.10233362
      vertex 2.99144507 0.452079488 1.99147307
    endloop
  endfacet
  facet normal -0.905658178 -0.195086865 0.376462987
    outer loop
      vertex 3.03760141 0.451569308 2.10224713
      vertex 2.99144507 0.452079488 1.99147307
      vertex 2.9916729 0.450854923 1.99138657
    endloop
  endfacet
  facet normal 0.382737554 0.00595320522 0.923837932
    outer loop
      vertex 3.04032991 0.452793873 2.10110884
      vertex 3.03737358 0.452793873 2.10233362
      vertex 3.03760141 0.451569308 2.10224713
    endloop
  endfacet
  facet normal -0.382737554 -0.00595320522 -0.923837932
    outer loop
      vertex 2.99440141 0.452079488 1.99024829
      vertex 2.9916729 0.450854923 1.99138657
      vertex 2.99144507 0.452079488 1.99147307
    endloop
  endfacet
  facet normal -0.906547226 0.195086865 0.374317035
    outer loop
      vertex 3.03737358 0.452793873 2.10233362
      vertex 3.03759583 0.454018438 2.10223366
      vertex 2.99166732 0.453304054 1.9913731
    endloop
  endfacet
  facet normal -0.906547226 0.195086865 0.374317035
    outer loop
      vertex 3.03737358 0.452793873 2.10233362
      vertex 2.99166732 0.453304054 1.9913731
      vertex 2.99144507 0.452079488 1.99147307
    endloop
  endfacet
  facet normal 0.382737554 0.00595320522 0.923837932
    outer loop
      vertex 3.04032991 0.452793873 2.10110884
      vertex 3.03759583 0.454018438 2.10223366
      vertex 3.03737358 0.452793873 2.10233362
    endloop
  endfacet
  facet normal -0.382737554 -0.00595320522 -0.923837932
    outer loop
      vertex 2.99440141 0.452079488 1.99024829
      vertex 2.99144507 0.452079488 1.99147307
      vertex 2.99166732 0.453304054 1.9913731
    endloop
  endfacet
  facet normal -0.769422677 0.555560388 0.315184707
    outer loop
      vertex 3.03759583 0.454018438 2.10223366
      vertex 3.03823431 0.455056574 2.10196245
      vertex 2.99230581 0.45434219 1.99110189
    endloop
  endfacet
  facet normal -0.769422677 0.555560388 0.315184707
    outer loop
      vertex 3.03759583 0.454018438 2.10223366
      vertex 2.99230581 0.45434219 1.99110189
      vertex 2.99166732 0.453304054 1.9913731
    endloop
  endfacet
  facet normal 0.382737554 0.00595320522 0.923837932
    outer loop
      vertex 3.04032991 0.452793873 2.10110884
      vertex 3.03823431 0.455056574 2.10196245
      vertex 3.03759583 0.454018438 2.10223366
    endloop
  endfacet
  facet normal -0.382737554 -0.00595320522 -0.923837932
    outer loop
      vertex 2.99440141 0.452079488 1.99024829
      vertex 2.99166732 0.453304054 1.9913731
      vertex 2.99230581 0.45434219 1.99110189
    endloop
  endfacet
  facet normal -0.5151605 0.831454878 0.208068365
    outer loop
      vertex 3.03823431 0.455056574 2.10196245
      vertex 3.03919184 0.455750235 2.10156128
      vertex 2.99326333 0.45503585 1.99070073
    endloop
  endfacet
  facet normal -0.5151605 0.831454878 0.208068365
    outer loop
      vertex 3.03823431 0.455056574 2.10196245
      vertex 2.99326333 0.45503585 1.99070073
      vertex 2.99230581 0.45434219 1.99110189
    endloop
  endfacet
  facet normal 0.382737554 0.00595320522 0.923837932
    outer loop
      vertex 3.04032991 0.452793873 2.10110884
      vertex 3.03919184 0.455750235 2.10156128
      vertex 3.03823431 0.455056574 2.10196245
    endloop
  endfacet
  facet normal -0.382737554 -0.00595320522 -0.923837932
    outer loop
      vertex 2.99440141 0.452079488 1.99024829
      vertex 2.99230581 0.45434219 1.99110189
      vertex 2.99326333 0.45503585 1.99070073
    endloop
  endfacet
  facet normal -0.182469807 0.9807679 0.0692755004
    outer loop
      vertex 3.03919184 0.455750235 2.10156128
      vertex 3.04032262 0.455993816 2.10109124
      vertex 2.99439412 0.455279432 1.99023069
    endloop
  endfacet
  facet normal -0.182469807 0.9807679 0.0692755004
    outer loop
      vertex 3.03919184 0.455750235 2.10156128
      vertex 2.99439412 0.455279432 1.99023069
      vertex 2.99326333 0.45503585 1.99070073
    endloop
  endfacet
  facet normal 0.382737554 0.00595320522 0.923837932
    outer loop
      vertex 3.04032991 0.452793873 2.10110884
      vertex 3.04032262 0.455993816 2.10109124
      vertex 3.03919184 0.455750235 2.10156128
    endloop
  endfacet
  facet normal -0.382737554 -0.00595320522 -0.923837932
    outer loop
      vertex 2.99440141 0.452079488 1.99024829
      vertex 2.99326333 0.45503585 1.99070073
      vertex 2.99439412 0.455279432 1.99023069
    endloop
  endfacet
  facet normal 0.17800026 0.9807679 -0.0800639311
    outer loop
      vertex 3.04032262 0.455993816 2.10109124
      vertex 3.04145452 0.455750235 2.10062388
      vertex 2.99552601 0.45503585 1.98976332
    endloop
  endfacet
  facet normal 0.17800026 0.9807679 -0.0800639311
    outer loop
      vertex 3.04032262 0.455993816 2.10109124
      vertex 2.99552601 0.45503585 1.98976332
      vertex 2.99439412 0.455279432 1.99023069
    endloop
  endfacet
  facet normal 0.382737554 0.00595320522 0.923837932
    outer loop
      vertex 3.04032991 0.452793873 2.10110884
      vertex 3.04145452 0.455750235 2.10062388
      vertex 3.04032262 0.455993816 2.10109124
    endloop
  endfacet
  facet normal -0.382737554 -0.00595320522 -0.923837932
    outer loop
      vertex 2.99440141 0.452079488 1.99024829
      vertex 2.99439412 0.455279432 1.99023069
      vertex 2.99552601 0.45503585 1.98976332
    endloop
  endfacet
  facet normal 0.511371401 0.831454878 -0.217214355
    outer loop
      vertex 3.04145452 0.455750235 2.10062388
      vertex 3.0424152 0.455056574 2.10023034
      vertex 2.99648669 0.45434219 1.98936979
    endloop
  endfacet
  facet normal 0.511371401 0.831454878 -0.217214355
    outer loop
      vertex 3.04145452 0.455750235 2.10062388
      vertex 2.99648669 0.45434219 1.98936979
      vertex 2.99552601 0.45503585 1.98976332
    endloop
  endfacet
  facet normal 0.382737554 0.00595320522 0.923837932
    outer loop
      vertex 3.04032991 0.452793873 2.10110884
      vertex 3.0424152 0.455056574 2.10023034
      vertex 3.04145452 0.455750235 2.10062388
    endloop
  endfacet
  facet normal -0.382737554 -0.00595320522 -0.923837932
    outer loop
      vertex 2.99440141 0.452079488 1.99024829
      vertex 2.99552601 0.45503585 1.98976332
      vertex 2.99648669 0.45434219 1.98936979
    endloop
  endfacet
  facet normal 0.766890882 0.555560388 -0.321295862
    outer loop
      vertex 3.0424152 0.455056574 2.10023034
      vertex 3.04305842 0.454018438 2.09997055
      vertex 2.99712991 0.453304054 1.98911
    endloop
  endfacet
  facet normal 0.766890882 0.555560388 -0.321295862
    outer loop
      vertex 3.0424152 0.455056574 2.10023034
      vertex 2.99712991 0.453304054 1.98911
      vertex 2.99648669 0.45434219 1.98936979
    endloop
  endfacet
  facet normal 0.382737554 0.00595320522 0.923837932
    outer loop
      vertex 3.04032991 0.452793873 2.10110884
      vertex 3.04305842 0.454018438 2.09997055
      vertex 3.0424152 0.455056574 2.10023034
    endloop
  endfacet
  facet normal -0.382737554 -0.00595320522 -0.923837932
    outer loop
      vertex 2.99440141 0.452079488 1.99024829
      vertex 2.99648669 0.45434219 1.98936979
      vertex 2.99712991 0.453304054 1.98911
    endloop
  endfacet
  facet normal 0.905658178 0.195086865 -0.376462987
    outer loop
      vertex 3.04305842 0.454018438 2.09997055
      vertex 3.04328625 0.452793873 2.09988406
      vertex 2.99735774 0.452079488 1.98902351
    endloop
  endfacet
  facet normal 0.905658178 0.195086865 -0.376462987
    outer loop
      vertex 3.04305842 0.454018438 2.09997055
      vertex 2.99735774 0.452079488 1.98902351
      vertex 2.99712991 0.453304054 1.98911
    endloop
  endfacet
  facet normal 0.382737554 0.00595320522 0.923837932
    outer loop
      vertex 3.04032991 0.452793873 2.10110884
      vertex 3.04328625 0.452793873 2.09988406
      vertex 3.04305842 0.454018438 2.09997055
    endloop
  endfacet
  facet normal -0.382737554 -0.00595320522 -0.923837932
    outer loop
      vertex 2.99440141 0.452079488 1.99024829
      vertex 2.99712991 0.453304054 1.98911
      vertex 2.99735774 0.452079488 1.98902351
    endloop
  endfacet
  facet normal -0.887630875 0.419954654 -0.18907543
    outer loop
      vertex 3.30513301 0.475272094 1.95909402
      vertex 3.30520559 0.47489116 1.95790719
      vertex 3.23667477 0.346682327 1.99486692
    endloop
  endfacet
  facet normal -0.887630875 0.419954654 -0.18907543
    outer loop
      vertex 3.30513301 0.475272094 1.95909402
      vertex 3.23667477 0.346682327 1.99486692
      vertex 3.23660219 0.34706326 1.99605375
    endloop
  endfacet
  facet normal 0.456872143 0.854725554 -0.246398198
    outer loop
      vertex 3.30795514 0.473763594 1.95909402
      vertex 3.30520559 0.47489116 1.95790719
      vertex 3.30513301 0.475272094 1.95909402
    endloop
  endfacet
  facet normal -0.456872143 -0.854725554 0.246398198
    outer loop
      vertex 3.23942432 0.345554761 1.99605375
      vertex 3.23660219 0.34706326 1.99605375
      vertex 3.23667477 0.346682327 1.99486692
    endloop
  endfacet
  facet normal -0.797818024 0.271233112 -0.538441269
    outer loop
      vertex 3.30520559 0.47489116 1.95790719
      vertex 3.30569677 0.474338565 1.95690104
      vertex 3.23716594 0.346129732 1.99386077
    endloop
  endfacet
  facet normal -0.797818024 0.271233112 -0.538441269
    outer loop
      vertex 3.30520559 0.47489116 1.95790719
      vertex 3.23716594 0.346129732 1.99386077
      vertex 3.23667477 0.346682327 1.99486692
    endloop
  endfacet
  facet normal 0.456872143 0.854725554 -0.246398198
    outer loop
      vertex 3.30795514 0.473763594 1.95909402
      vertex 3.30569677 0.474338565 1.95690104
      vertex 3.30520559 0.47489116 1.95790719
    endloop
  endfacet
  facet normal -0.456872143 -0.854725554 0.246398198
    outer loop
      vertex 3.23942432 0.345554761 1.99605375
      vertex 3.23667477 0.346682327 1.99486692
      vertex 3.23716594 0.346129732 1.99386077
    endloop
  endfacet
  facet normal -0.586544611 0.0812187867 -0.805834306
    outer loop
      vertex 3.30569677 0.474338565 1.95690104
      vertex 3.30653176 0.473698435 1.95622876
      vertex 3.23800094 0.345489602 1.99318849
    endloop
  endfacet
  facet normal -0.586544611 0.0812187867 -0.805834306
    outer loop
      vertex 3.30569677 0.474338565 1.95690104
      vertex 3.23800094 0.345489602 1.99318849
      vertex 3.23716594 0.346129732 1.99386077
    endloop
  endfacet
  facet normal 0.456872143 0.854725554 -0.246398198
    outer loop
      vertex 3.30795514 0.473763594 1.95909402
      vertex 3.30653176 0.473698435 1.95622876
      vertex 3.30569677 0.474338565 1.95690104
    endloop
  endfacet
  facet normal -0.456872143 -0.854725554 0.246398198
    outer loop
      vertex 3.23942432 0.345554761 1.99605375
      vertex 3.23716594 0.346129732 1.99386077
      vertex 3.23800094 0.345489602 1.99318849
    endloop
  endfacet
  facet normal -0.285975098 -0.121160362 -0.950546374
    outer loop
      vertex 3.30653176 0.473698435 1.95622876
      vertex 3.30758345 0.473068226 1.95599268
      vertex 3.23905263 0.344859392 1.99295241
    endloop
  endfacet
  facet normal -0.285975098 -0.121160362 -0.950546374
    outer loop
      vertex 3.30653176 0.473698435 1.95622876
      vertex 3.23905263 0.344859392 1.99295241
      vertex 3.23800094 0.345489602 1.99318849
    endloop
  endfacet
  facet normal 0.456872143 0.854725554 -0.246398198
    outer loop
      vertex 3.30795514 0.473763594 1.95909402
      vertex 3.30758345 0.473068226 1.95599268
      vertex 3.30653176 0.473698435 1.95622876
    endloop
  endfacet
  facet normal -0.456872143 -0.854725554 0.246398198
    outer loop
      vertex 3.23942432 0.345554761 1.99605375
      vertex 3.23800094 0.345489602 1.99318849
      vertex 3.23905263 0.344859392 1.99295241
    endloop
  endfacet
  facet normal 0.0581315316 -0.305093944 -0.950546374
    outer loop
      vertex 3.30758345 0.473068226 1.95599268
      vertex 3.30869172 0.472543879 1.95622876
      vertex 3.2401609 0.344335046 1.99318849
    endloop
  endfacet
  facet normal 0.0581315316 -0.305093944 -0.950546374
    outer loop
      vertex 3.30758345 0.473068226 1.95599268
      vertex 3.2401609 0.344335046 1.99318849
      vertex 3.23905263 0.344859392 1.99295241
    endloop
  endfacet
  facet normal 0.456872143 0.854725554 -0.246398198
    outer loop
      vertex 3.30795514 0.473763594 1.95909402
      vertex 3.30869172 0.472543879 1.95622876
      vertex 3.30758345 0.473068226 1.95599268
    endloop
  endfacet
  facet normal -0.456872143 -0.854725554 0.246398198
    outer loop
      vertex 3.23942432 0.345554761 1.99605375
      vertex 3.23905263 0.344859392 1.99295241
      vertex 3.2401609 0.344335046 1.99318849
    endloop
  endfacet
  facet normal 0.393388162 -0.442579739 -0.805834306
    outer loop
      vertex 3.30869172 0.472543879 1.95622876
      vertex 3.30968786 0.472205224 1.95690104
      vertex 3.24115704 0.343996391 1.99386077
    endloop
  endfacet
  facet normal 0.393388162 -0.442579739 -0.805834306
    outer loop
      vertex 3.30869172 0.472543879 1.95622876
      vertex 3.24115704 0.343996391 1.99386077
      vertex 3.2401609 0.344335046 1.99318849
    endloop
  endfacet
  facet normal 0.456872143 0.854725554 -0.246398198
    outer loop
      vertex 3.30795514 0.473763594 1.95909402
      vertex 3.30968786 0.472205224 1.95690104
      vertex 3.30869172 0.472543879 1.95622876
    endloop
  endfacet
  facet normal -0.456872143 -0.854725554 0.246398198
    outer loop
      vertex 3.23942432 0.345554761 1.99605375
      vertex 3.2401609 0.344335046 1.99318849
      vertex 3.24115704 0.343996391 1.99386077
    endloop
  endfacet
  facet normal 0.668755011 -0.512686781 -0.538441269
    outer loop
      vertex 3.30968786 0.472205224 1.95690104
      vertex 3.31042021 0.472103816 1.95790719
      vertex 3.24188939 0.343894983 1.99486692
    endloop
  endfacet
  facet normal 0.668755011 -0.512686781 -0.538441269
    outer loop
      vertex 3.30968786 0.472205224 1.95690104
      vertex 3.24188939 0.343894983 1.99486692
      vertex 3.24115704 0.343996391 1.99386077
    endloop
  endfacet
  facet normal 0.456872143 0.854725554 -0.246398198
    outer loop
      vertex 3.30795514 0.473763594 1.95909402
      vertex 3.31042021 0.472103816 1.95790719
      vertex 3.30968786 0.472205224 1.95690104
    endloop
  endfacet
  facet normal -0.456872143 -0.854725554 0.246398198
    outer loop
      vertex 3.23942432 0.345554761 1.99605375
      vertex 3.24115704 0.343996391 1.99386077
      vertex 3.24188939 0.343894983 1.99486692
    endloop
  endfacet
  facet normal 0.842309972 -0.504741907 -0.18907543
    outer loop
      vertex 3.31042021 0.472103816 1.95790719
      vertex 3.31077727 0.472255094 1.95909402
      vertex 3.24224645 0.344046261 1.99605375
    endloop
  endfacet
  facet normal 0.842309972 -0.504741907 -0.18907543
    outer loop
      vertex 3.31042021 0.472103816 1.95790719
      vertex 3.24224645 0.344046261 1.99605375
      vertex 3.24188939 0.343894983 1.99486692
    endloop
  endfacet
  facet normal 0.456872143 0.854725554 -0.246398198
    outer loop
      vertex 3.30795514 0.473763594 1.95909402
      vertex 3.31077727 0.472255094 1.95909402
      vertex 3.31042021 0.472103816 1.95790719
    endloop
  endfacet
  facet normal -0.456872143 -0.854725554 0.246398198
    outer loop
      vertex 3.23942432 0.345554761 1.99605375
      vertex 3.24188939 0.343894983 1.99486692
      vertex 3.24224645 0.344046261 1.99605375
    endloop
  endfacet
  facet normal 0.887630875 -0.419954654 0.18907543
    outer loop
      vertex 3.31077727 0.472255094 1.95909402
      vertex 3.31070469 0.472636027 1.96028085
      vertex 3.24217387 0.344427194 1.99724058
    endloop
  endfacet
  facet normal 0.887630875 -0.419954654 0.18907543
    outer loop
      vertex 3.31077727 0.472255094 1.95909402
      vertex 3.24217387 0.344427194 1.99724058
      vertex 3.24224645 0.344046261 1.99605375
    endloop
  endfacet
  facet normal 0.456872143 0.854725554 -0.246398198
    outer loop
      vertex 3.30795514 0.473763594 1.95909402
      vertex 3.31070469 0.472636027 1.96028085
      vertex 3.31077727 0.472255094 1.95909402
    endloop
  endfacet
  facet normal -0.456872143 -0.854725554 0.246398198
    outer loop
      vertex 3.23942432 0.345554761 1.99605375
      vertex 3.24224645 0.344046261 1.99605375
      vertex 3.24217387 0.344427194 1.99724058
    endloop
  endfacet
  facet normal 0.797818024 -0.271233112 0.538441269
    outer loop
      vertex 3.31070469 0.472636027 1.96028085
      vertex 3.31021351 0.473188623 1.961287
      vertex 3.24168269 0.34497979 1.99824673
    endloop
  endfacet
  facet normal 0.797818024 -0.271233112 0.538441269
    outer loop
      vertex 3.31070469 0.472636027 1.96028085
      vertex 3.24168269 0.34497979 1.99824673
      vertex 3.24217387 0.344427194 1.99724058
    endloop
  endfacet
  facet normal 0.456872143 0.854725554 -0.246398198
    outer loop
      vertex 3.30795514 0.473763594 1.95909402
      vertex 3.31021351 0.473188623 1.961287
      vertex 3.31070469 0.472636027 1.96028085
    endloop
  endfacet
  facet normal -0.456872143 -0.854725554 0.246398198
    outer loop
      vertex 3.23942432 0.345554761 1.99605375
      vertex 3.24217387 0.344427194 1.99724058
      vertex 3.24168269 0.34497979 1.99824673
    endloop
  endfacet
  facet normal 0.586544611 -0.0812187867 0.805834306
    outer loop
      vertex 3.31021351 0.473188623 1.961287
      vertex 3.30937852 0.473828752 1.96195929
      vertex 3.2408477 0.345619919 1.99891902
    endloop
  endfacet
  facet normal 0.586544611 -0.0812187867 0.805834306
    outer loop
      vertex 3.31021351 0.473188623 1.961287
      vertex 3.2408477 0.345619919 1.99891902
      vertex 3.24168269 0.34497979 1.99824673
    endloop
  endfacet
  facet normal 0.456872143 0.854725554 -0.246398198
    outer loop
      vertex 3.30795514 0.473763594 1.95909402
      vertex 3.30937852 0.473828752 1.96195929
      vertex 3.31021351 0.473188623 1.961287
    endloop
  endfacet
  facet normal -0.456872143 -0.854725554 0.246398198
    outer loop
      vertex 3.23942432 0.345554761 1.99605375
      vertex 3.24168269 0.34497979 1.99824673
      vertex 3.2408477 0.345619919 1.99891902
    endloop
  endfacet
  facet normal 0.285975098 0.121160362 0.950546374
    outer loop
      vertex 3.30937852 0.473828752 1.96195929
      vertex 3.30832683 0.474458962 1.96219536
      vertex 3.23979601 0.346250129 1.99915509
    endloop
  endfacet
  facet normal 0.285975098 0.121160362 0.950546374
    outer loop
      vertex 3.30937852 0.473828752 1.96195929
      vertex 3.23979601 0.346250129 1.99915509
      vertex 3.2408477 0.345619919 1.99891902
    endloop
  endfacet
  facet normal 0.456872143 0.854725554 -0.246398198
    outer loop
      vertex 3.30795514 0.473763594 1.95909402
      vertex 3.30832683 0.474458962 1.96219536
      vertex 3.30937852 0.473828752 1.96195929
    endloop
  endfacet
  facet normal -0.456872143 -0.854725554 0.246398198
    outer loop
      vertex 3.23942432 0.345554761 1.99605375
      vertex 3.2408477 0.345619919 1.99891902
      vertex 3.23979601 0.346250129 1.99915509
    endloop
  endfacet
  facet normal -0.0581315316 0.305093944 0.950546374
    outer loop
      vertex 3.30832683 0.474458962 1.96219536
      vertex 3.30721855 0.474983308 1.96195929
      vertex 3.23868773 0.346774475 1.99891902
    endloop
  endfacet
  facet normal -0.0581315316 0.305093944 0.950546374
    outer loop
      vertex 3.30832683 0.474458962 1.96219536
      vertex 3.23868773 0.346774475 1.99891902
      vertex 3.23979601 0.346250129 1.99915509
    endloop
  endfacet
  facet normal 0.456872143 0.854725554 -0.246398198
    outer loop
      vertex 3.30795514 0.473763594 1.95909402
      vertex 3.30721855 0.474983308 1.96195929
      vertex 3.30832683 0.474458962 1.96219536
    endloop
  endfacet
  facet normal -0.456872143 -0.854725554 0.246398198
    outer loop
      vertex 3.23942432 0.345554761 1.99605375
      vertex 3.23979601 0.346250129 1.99915509
      vertex 3.23868773 0.346774475 1.99891902
    endloop
  endfacet
  facet normal -0.393388162 0.442579739 0.805834306
    outer loop
      vertex 3.30721855 0.474983308 1.96195929
      vertex 3.30622242 0.475321964 1.961287
      vertex 3.2376916 0.347113131 1.99824673
    endloop
  endfacet
  facet normal -0.393388162 0.442579739 0.805834306
    outer loop
      vertex 3.30721855 0.474983308 1.96195929
      vertex 3.2376916 0.347113131 1.99824673
      vertex 3.23868773 0.346774475 1.99891902
    endloop
  endfacet
  facet normal 0.456872143 0.854725554 -0.246398198
    outer loop
      vertex 3.30795514 0.473763594 1.95909402
      vertex 3.30622242 0.475321964 1.961287
      vertex 3.30721855 0.474983308 1.96195929
    endloop
  endfacet
  facet normal -0.456872143 -0.854725554 0.246398198
    outer loop
      vertex 3.23942432 0.345554761 1.99605375
      vertex 3.23868773 0.346774475 1.99891902
      vertex 3.2376916 0.347113131 1.99824673
    endloop
  endfacet
  facet normal -0.668755011 0.512686781 0.538441269
    outer loop
      vertex 3.30622242 0.475321964 1.961287
      vertex 3.30549007 0.475423372 1.96028085
      vertex 3.23695925 0.347214539 1.99724058
    endloop
  endfacet
  facet normal -0.668755011 0.512686781 0.538441269
    outer loop
      vertex 3.30622242 0.475321964 1.961287
      vertex 3.23695925 0.347214539 1.99724058
      vertex 3.2376916 0.347113131 1.99824673
    endloop
  endfacet
  facet normal 0.456872143 0.854725554 -0.246398198
    outer loop
      vertex 3.30795514 0.473763594 1.95909402
      vertex 3.30549007 0.475423372 1.96028085
      vertex 3.30622242 0.475321964 1.961287
    endloop
  endfacet
  facet normal -0.456872143 -0.854725554 0.246398198
    outer loop
      vertex 3.23942432 0.345554761 1.99605375
      vertex 3.2376916 0.347113131 1.99824673
      vertex 3.23695925 0.347214539 1.99724058
    endloop
  endfacet
  facet normal -0.842309972 0.504741907 0.18907543
    outer loop
      vertex 3.30549007 0.475423372 1.96028085
      vertex 3.30513301 0.475272094 1.95909402
      vertex 3.23660219 0.34706326 1.99605375
    endloop
  endfacet
  facet normal -0.842309972 0.504741907 0.18907543
    outer loop
      vertex 3.30549007 0.475423372 1.96028085
      vertex 3.23660219 0.34706326 1.99605375
      vertex 3.23695925 0.347214539 1.99724058
    endloop
  endfacet
  facet normal 0.456872143 0.854725554 -0.246398198
    outer loop
      vertex 3.30795514 0.473763594 1.95909402
      vertex 3.30513301 0.475272094 1.95909402
      vertex 3.30549007 0.475423372 1.96028085
    endloop
  endfacet
  facet normal -0.456872143 -0.854725554 0.246398198
    outer loop
      vertex 3.23942432 0.345554761 1.99605375
      vertex 3.23695925 0.347214539 1.99724058
      vertex 3.23660219 0.34706326 1.99605375
    endloop
  endfacet
  facet normal -0.887630875 0.419954654 -0.18907543
    outer loop
      vertex 3.2936674 0.473426684 1.93143296
      vertex 3.29373998 0.47304575 1.93024613
      vertex 3.22520916 0.344836917 1.96720586
    endloop
  endfacet
  facet normal -0.887630875 0.419954654 -0.18907543
    outer loop
      vertex 3.2936674 0.473426684 1.93143296
      vertex 3.22520916 0.344836917 1.96720586
      vertex 3.22513658 0.345217851 1.96839269
    endloop
  endfacet
  facet normal 0.456872143 0.854725554 -0.246398198
    outer loop
      vertex 3.29648953 0.471918184 1.93143296
      vertex 3.29373998 0.47304575 1.93024613
      vertex 3.2936674 0.473426684 1.93143296
    endloop
  endfacet
  facet normal -0.456872143 -0.854725554 0.246398198
    outer loop
      vertex 3.22795871 0.343709351 1.96839269
      vertex 3.22513658 0.345217851 1.96839269
      vertex 3.22520916 0.344836917 1.96720586
    endloop
  endfacet
  facet normal -0.797818024 0.271233112 -0.538441269
    outer loop
      vertex 3.29373998 0.47304575 1.93024613
      vertex 3.29423116 0.472493155 1.92923998
      vertex 3.22570034 0.344284322 1.96619971
    endloop
  endfacet
  facet normal -0.797818024 0.271233112 -0.538441269
    outer loop
      vertex 3.29373998 0.47304575 1.93024613
      vertex 3.22570034 0.344284322 1.96619971
      vertex 3.22520916 0.344836917 1.96720586
    endloop
  endfacet
  facet normal 0.456872143 0.854725554 -0.246398198
    outer loop
      vertex 3.29648953 0.471918184 1.93143296
      vertex 3.29423116 0.472493155 1.92923998
      vertex 3.29373998 0.47304575 1.93024613
    endloop
  endfacet
  facet normal -0.456872143 -0.854725554 0.246398198
    outer loop
      vertex 3.22795871 0.343709351 1.96839269
      vertex 3.22520916 0.344836917 1.96720586
      vertex 3.22570034 0.344284322 1.96619971
    endloop
  endfacet
  facet normal -0.586544611 0.0812187867 -0.805834306
    outer loop
      vertex 3.29423116 0.472493155 1.92923998
      vertex 3.29506615 0.471853025 1.9285677
      vertex 3.22653533 0.343644192 1.96552743
    endloop
  endfacet
  facet normal -0.586544611 0.0812187867 -0.805834306
    outer loop
      vertex 3.29423116 0.472493155 1.92923998
      vertex 3.22653533 0.343644192 1.96552743
      vertex 3.22570034 0.344284322 1.96619971
    endloop
  endfacet
  facet normal 0.456872143 0.854725554 -0.246398198
    outer loop
      vertex 3.29648953 0.471918184 1.93143296
      vertex 3.29506615 0.471853025 1.9285677
      vertex 3.29423116 0.472493155 1.92923998
    endloop
  endfacet
  facet normal -0.456872143 -0.854725554 0.246398198
    outer loop
      vertex 3.22795871 0.343709351 1.96839269
      vertex 3.22570034 0.344284322 1.96619971
      vertex 3.22653533 0.343644192 1.96552743
    endloop
  endfacet
  facet normal -0.285975098 -0.121160362 -0.950546374
    outer loop
      vertex 3.29506615 0.471853025 1.9285677
      vertex 3.29611784 0.471222816 1.92833162
      vertex 3.22758702 0.343013983 1.96529135
    endloop
  endfacet
  facet normal -0.285975098 -0.121160362 -0.950546374
    outer loop
      vertex 3.29506615 0.471853025 1.9285677
      vertex 3.22758702 0.343013983 1.96529135
      vertex 3.22653533 0.343644192 1.96552743
    endloop
  endfacet
  facet normal 0.456872143 0.854725554 -0.246398198
    outer loop
      vertex 3.29648953 0.471918184 1.93143296
      vertex 3.29611784 0.471222816 1.92833162
      vertex 3.29506615 0.471853025 1.9285677
    endloop
  endfacet
  facet normal -0.456872143 -0.854725554 0.246398198
    outer loop
      vertex 3.22795871 0.343709351 1.96839269
      vertex 3.22653533 0.343644192 1.96552743
      vertex 3.22758702 0.343013983 1.96529135
    endloop
  endfacet
  facet normal 0.0581315316 -0.305093944 -0.950546374
    outer loop
      vertex 3.29611784 0.471222816 1.92833162
      vertex 3.29722612 0.47069847 1.9285677
      vertex 3.2286953 0.342489636 1.96552743
    endloop
  endfacet
  facet normal 0.0581315316 -0.305093944 -0.950546374
    outer loop
      vertex 3.29611784 0.471222816 1.92833162
      vertex 3.2286953 0.342489636 1.96552743
      vertex 3.22758702 0.343013983 1.96529135
    endloop
  endfacet
  facet normal 0.456872143 0.854725554 -0.246398198
    outer loop
      vertex 3.29648953 0.471918184 1.93143296
      vertex 3.29722612 0.47069847 1.9285677
      vertex 3.29611784 0.471222816 1.92833162
    endloop
  endfacet
  facet normal -0.456872143 -0.854725554 0.246398198
    outer loop
      vertex 3.22795871 0.343709351 1.96839269
      vertex 3.22758702 0.343013983 1.96529135
      vertex 3.2286953 0.342489636 1.96552743
    endloop
  endfacet
  facet normal 0.393388162 -0.442579739 -0.805834306
    outer loop
      vertex 3.29722612 0.47069847 1.9285677
      vertex 3.29822225 0.470359814 1.92923998
      vertex 3.22969143 0.342150981 1.96619971
    endloop
  endfacet
  facet normal 0.393388162 -0.442579739 -0.805834306
    outer loop
      vertex 3.29722612 0.47069847 1.9285677
      vertex 3.22969143 0.342150981 1.96619971
      vertex 3.2286953 0.342489636 1.96552743
    endloop
  endfacet
  facet normal 0.456872143 0.854725554 -0.246398198
    outer loop
      vertex 3.29648953 0.471918184 1.93143296
      vertex 3.29822225 0.470359814 1.92923998
      vertex 3.29722612 0.47069847 1.9285677
    endloop
  endfacet
  facet normal -0.456872143 -0.854725554 0.246398198
    outer loop
      vertex 3.22795871 0.343709351 1.96839269
      vertex 3.2286953 0.342489636 1.96552743
      vertex 3.22969143 0.342150981 1.96619971
    endloop
  endfacet
  facet normal 0.668755011 -0.512686781 -0.538441269
    outer loop
      vertex 3.29822225 0.470359814 1.92923998
      vertex 3.2989546 0.470258406 1.93024613
      vertex 3.23042378 0.342049573 1.96720586
    endloop
  endfacet
  facet normal 0.668755011 -0.512686781 -0.538441269
    outer loop
      vertex 3.29822225 0.470359814 1.92923998
      vertex 3.23042378 0.342049573 1.96720586
      vertex 3.22969143 0.342150981 1.96619971
    endloop
  endfacet
  facet normal 0.456872143 0.854725554 -0.246398198
    outer loop
      vertex 3.29648953 0.471918184 1.93143296
      vertex 3.2989546 0.470258406 1.93024613
      vertex 3.29822225 0.470359814 1.92923998
    endloop
  endfacet
  facet normal -0.456872143 -0.854725554 0.246398198
    outer loop
      vertex 3.22795871 0.343709351 1.96839269
      vertex 3.22969143 0.342150981 1.96619971
      vertex 3.23042378 0.342049573 1.96720586
    endloop
  endfacet
  facet normal 0.842309972 -0.504741907 -0.18907543
    outer loop
      vertex 3.2989546 0.470258406 1.93024613
      vertex 3.29931166 0.470409684 1.93143296
      vertex 3.23078084 0.342200851 1.96839269
    endloop
  endfacet
  facet normal 0.842309972 -0.504741907 -0.18907543
    outer loop
      vertex 3.2989546 0.470258406 1.93024613
      vertex 3.23078084 0.342200851 1.96839269
      vertex 3.23042378 0.342049573 1.96720586
    endloop
  endfacet
  facet normal 0.456872143 0.854725554 -0.246398198
    outer loop
      vertex 3.29648953 0.471918184 1.93143296
      vertex 3.29931166 0.470409684 1.93143296
      vertex 3.2989546 0.470258406 1.93024613
    endloop
  endfacet
  facet normal -0.456872143 -0.854725554 0.246398198
    outer loop
      vertex 3.22795871 0.343709351 1.96839269
      vertex 3.23042378 0.342049573 1.96720586
      vertex 3.23078084 0.342200851 1.96839269
    endloop
  endfacet
  facet normal 0.887630875 -0.419954654 0.18907543
    outer loop
      vertex 3.29931166 0.470409684 1.93143296
      vertex 3.29923908 0.470790618 1.93261979
      vertex 3.23070826 0.342581785 1.96957952
    endloop
  endfacet
  facet normal 0.887630875 -0.419954654 0.18907543
    outer loop
      vertex 3.29931166 0.470409684 1.93143296
      vertex 3.23070826 0.342581785 1.96957952
      vertex 3.23078084 0.342200851 1.96839269
    endloop
  endfacet
  facet normal 0.456872143 0.854725554 -0.246398198
    outer loop
      vertex 3.29648953 0.471918184 1.93143296
      vertex 3.29923908 0.470790618 1.93261979
      vertex 3.29931166 0.470409684 1.93143296
    endloop
  endfacet
  facet normal -0.456872143 -0.854725554 0.246398198
    outer loop
      vertex 3.22795871 0.343709351 1.96839269
      vertex 3.23078084 0.342200851 1.96839269
      vertex 3.23070826 0.342581785 1.96957952
    endloop
  endfacet
  facet normal 0.797818024 -0.271233112 0.538441269
    outer loop
      vertex 3.29923908 0.470790618 1.93261979
      vertex 3.29874791 0.471343213 1.93362594
      vertex 3.23021708 0.34313438 1.97058567
    endloop
  endfacet
  facet normal 0.797818024 -0.271233112 0.538441269
    outer loop
      vertex 3.29923908 0.470790618 1.93261979
      vertex 3.23021708 0.34313438 1.97058567
      vertex 3.23070826 0.342581785 1.96957952
    endloop
  endfacet
  facet normal 0.456872143 0.854725554 -0.246398198
    outer loop
      vertex 3.29648953 0.471918184 1.93143296
      vertex 3.29874791 0.471343213 1.93362594
      vertex 3.29923908 0.470790618 1.93261979
    endloop
  endfacet
  facet normal -0.456872143 -0.854725554 0.246398198
    outer loop
      vertex 3.22795871 0.343709351 1.96839269
      vertex 3.23070826 0.342581785 1.96957952
      vertex 3.23021708 0.34313438 1.97058567
    endloop
  endfacet
  facet normal 0.586544611 -0.0812187867 0.805834306
    outer loop
      vertex 3.29874791 0.471343213 1.93362594
      vertex 3.29791291 0.471983343 1.93429823
      vertex 3.22938209 0.343774509 1.97125796
    endloop
  endfacet
  facet normal 0.586544611 -0.0812187867 0.805834306
    outer loop
      vertex 3.29874791 0.471343213 1.93362594
      vertex 3.22938209 0.343774509 1.97125796
      vertex 3.23021708 0.34313438 1.97058567
    endloop
  endfacet
  facet normal 0.456872143 0.854725554 -0.246398198
    outer loop
      vertex 3.29648953 0.471918184 1.93143296
      vertex 3.29791291 0.471983343 1.93429823
      vertex 3.29874791 0.471343213 1.93362594
    endloop
  endfacet
  facet normal -0.456872143 -0.854725554 0.246398198
    outer loop
      vertex 3.22795871 0.343709351 1.96839269
      vertex 3.23021708 0.34313438 1.97058567
      vertex 3.22938209 0.343774509 1.97125796
    endloop
  endfacet
  facet normal 0.285975098 0.121160362 0.950546374
    outer loop
      vertex 3.29791291 0.471983343 1.93429823
      vertex 3.29686122 0.472613552 1.9345343
      vertex 3.2283304 0.344404719 1.97149403
    endloop
  endfacet
  facet normal 0.285975098 0.121160362 0.950546374
    outer loop
      vertex 3.29791291 0.471983343 1.93429823
      vertex 3.2283304 0.344404719 1.97149403
      vertex 3.22938209 0.343774509 1.97125796
    endloop
  endfacet
  facet normal 0.456872143 0.854725554 -0.246398198
    outer loop
      vertex 3.29648953 0.471918184 1.93143296
      vertex 3.29686122 0.472613552 1.9345343
      vertex 3.29791291 0.471983343 1.93429823
    endloop
  endfacet
  facet normal -0.456872143 -0.854725554 0.246398198
    outer loop
      vertex 3.22795871 0.343709351 1.96839269
      vertex 3.22938209 0.343774509 1.97125796
      vertex 3.2283304 0.344404719 1.97149403
    endloop
  endfacet
  facet normal -0.0581315316 0.305093944 0.950546374
    outer loop
      vertex 3.29686122 0.472613552 1.9345343
      vertex 3.29575295 0.473137898 1.93429823
      vertex 3.22722213 0.344929065 1.97125796
    endloop
  endfacet
  facet normal -0.0581315316 0.305093944 0.950546374
    outer loop
      vertex 3.29686122 0.472613552 1.9345343
      vertex 3.22722213 0.344929065 1.97125796
      vertex 3.2283304 0.344404719 1.97149403
    endloop
  endfacet
  facet normal 0.456872143 0.854725554 -0.246398198
    outer loop
      vertex 3.29648953 0.471918184 1.93143296
      vertex 3.29575295 0.473137898 1.93429823
      vertex 3.29686122 0.472613552 1.9345343
    endloop
  endfacet
  facet normal -0.456872143 -0.854725554 0.246398198
    outer loop
      vertex 3.22795871 0.343709351 1.96839269
      vertex 3.2283304 0.344404719 1.97149403
      vertex 3.22722213 0.344929065 1.97125796
    endloop
  endfacet
  facet normal -0.393388162 0.442579739 0.805834306
    outer loop
      vertex 3.29575295 0.473137898 1.93429823
      vertex 3.29475681 0.473476554 1.93362594
      vertex 3.22622599 0.345267721 1.97058567
    endloop
  endfacet
  facet normal -0.393388162 0.442579739 0.805834306
    outer loop
      vertex 3.29575295 0.473137898 1.93429823
      vertex 3.22622599 0.345267721 1.97058567
      vertex 3.22722213 0.344929065 1.97125796
    endloop
  endfacet
  facet normal 0.456872143 0.854725554 -0.246398198
    outer loop
      vertex 3.29648953 0.471918184 1.93143296
      vertex 3.29475681 0.473476554 1.93362594
      vertex 3.29575295 0.473137898 1.93429823
    endloop
  endfacet
  facet normal -0.456872143 -0.854725554 0.246398198
    outer loop
      vertex 3.22795871 0.343709351 1.96839269
      vertex 3.22722213 0.344929065 1.97125796
      vertex 3.22622599 0.345267721 1.97058567
    endloop
  endfacet
  facet normal -0.668755011 0.512686781 0.538441269
    outer loop
      vertex 3.29475681 0.473476554 1.93362594
      vertex 3.29402446 0.473577962 1.93261979
      vertex 3.22549364 0.345369129 1.96957952
    endloop
  endfacet
  facet normal -0.668755011 0.512686781 0.538441269
    outer loop
      vertex 3.29475681 0.473476554 1.93362594
      vertex 3.22549364 0.345369129 1.96957952
      vertex 3.22622599 0.345267721 1.97058567
    endloop
  endfacet
  facet normal 0.456872143 0.854725554 -0.246398198
    outer loop
      vertex 3.29648953 0.471918184 1.93143296
      vertex 3.29402446 0.473577962 1.93261979
      vertex 3.29475681 0.473476554 1.93362594
    endloop
  endfacet
  facet normal -0.456872143 -0.854725554 0.246398198
    outer loop
      vertex 3.22795871 0.343709351 1.96839269
      vertex 3.22622599 0.345267721 1.97058567
      vertex 3.22549364 0.345369129 1.96957952
    endloop
  endfacet
  facet normal -0.842309972 0.504741907 0.18907543
    outer loop
      vertex 3.29402446 0.473577962 1.93261979
      vertex 3.2936674 0.473426684 1.93143296
      vertex 3.22513658 0.345217851 1.96839269
    endloop
  endfacet
  facet normal -0.842309972 0.504741907 0.18907543
    outer loop
      vertex 3.29402446 0.473577962 1.93261979
      vertex 3.22513658 0.345217851 1.96839269
      vertex 3.22549364 0.345369129 1.96957952
    endloop
  endfacet
  facet normal 0.456872143 0.854725554 -0.246398198
    outer loop
      vertex 3.29648953 0.471918184 1.93143296
      vertex 3.2936674 0.473426684 1.93143296
      vertex 3.29402446 0.473577962 1.93261979
    endloop
  endfacet
  facet normal -0.456872143 -0.854725554 0.246398198
    outer loop
      vertex 3.22795871 0.343709351 1.96839269
      vertex 3.22549364 0.345369129 1.96957952
      vertex 3.22513658 0.345217851 1.96839269
    endloop
  endfacet
  facet normal 0.423081598 -0.902824008 -0.0768815468
    outer loop
      vertex 3.40067387 0.443477776 1.85999213
      vertex 3.40170026 0.443999861 1.85950955
      vertex 3.43599905 0.453029077 1.94222633
    endloop
  endfacet
  facet normal 0.423081598 -0.902824008 -0.0768815468
    outer loop
      vertex 3.40067387 0.443477776 1.85999213
      vertex 3.43599905 0.453029077 1.94222633
      vertex 3.43497266 0.452506992 1.94270892
    endloop
  endfacet
  facet normal -0.381097679 -0.100324624 -0.919075366
    outer loop
      vertex 3.39985922 0.446572343 1.85999213
      vertex 3.40170026 0.443999861 1.85950955
      vertex 3.40067387 0.443477776 1.85999213
    endloop
  endfacet
  facet normal 0.381097679 0.100324624 0.919075366
    outer loop
      vertex 3.43415801 0.455601559 1.94270892
      vertex 3.43497266 0.452506992 1.94270892
      vertex 3.43599905 0.453029077 1.94222633
    endloop
  endfacet
  facet normal 0.705461418 -0.674084127 -0.218940122
    outer loop
      vertex 3.40170026 0.443999861 1.85950955
      vertex 3.40244637 0.444913582 1.85910043
      vertex 3.43674517 0.453942798 1.94181721
    endloop
  endfacet
  facet normal 0.705461418 -0.674084127 -0.218940122
    outer loop
      vertex 3.40170026 0.443999861 1.85950955
      vertex 3.43674517 0.453942798 1.94181721
      vertex 3.43599905 0.453029077 1.94222633
    endloop
  endfacet
  facet normal -0.381097679 -0.100324624 -0.919075366
    outer loop
      vertex 3.39985922 0.446572343 1.85999213
      vertex 3.40244637 0.444913582 1.85910043
      vertex 3.40170026 0.443999861 1.85950955
    endloop
  endfacet
  facet normal 0.381097679 0.100324624 0.919075366
    outer loop
      vertex 3.43415801 0.455601559 1.94270892
      vertex 3.43599905 0.453029077 1.94222633
      vertex 3.43674517 0.453942798 1.94181721
    endloop
  endfacet
  facet normal 0.880441133 -0.342721048 -0.327667048
    outer loop
      vertex 3.40244637 0.444913582 1.85910043
      vertex 3.40279862 0.446079835 1.85882706
      vertex 3.43709741 0.455109051 1.94154385
    endloop
  endfacet
  facet normal 0.880441133 -0.342721048 -0.327667048
    outer loop
      vertex 3.40244637 0.444913582 1.85910043
      vertex 3.43709741 0.455109051 1.94154385
      vertex 3.43674517 0.453942798 1.94181721
    endloop
  endfacet
  facet normal -0.381097679 -0.100324624 -0.919075366
    outer loop
      vertex 3.39985922 0.446572343 1.85999213
      vertex 3.40279862 0.446079835 1.85882706
      vertex 3.40244637 0.444913582 1.85910043
    endloop
  endfacet
  facet normal 0.381097679 0.100324624 0.919075366
    outer loop
      vertex 3.43415801 0.455601559 1.94270892
      vertex 3.43674517 0.453942798 1.94181721
      vertex 3.43709741 0.455109051 1.94154385
    endloop
  endfacet
  facet normal 0.921381666 0.0408182032 -0.386509637
    outer loop
      vertex 3.40279862 0.446079835 1.85882706
      vertex 3.40270336 0.447321068 1.85873107
      vertex 3.43700215 0.456350284 1.94144786
    endloop
  endfacet
  facet normal 0.921381666 0.0408182032 -0.386509637
    outer loop
      vertex 3.40279862 0.446079835 1.85882706
      vertex 3.43700215 0.456350284 1.94144786
      vertex 3.43709741 0.455109051 1.94154385
    endloop
  endfacet
  facet normal -0.381097679 -0.100324624 -0.919075366
    outer loop
      vertex 3.39985922 0.446572343 1.85999213
      vertex 3.40270336 0.447321068 1.85873107
      vertex 3.40279862 0.446079835 1.85882706
    endloop
  endfacet
  facet normal 0.381097679 0.100324624 0.919075366
    outer loop
      vertex 3.43415801 0.455601559 1.94270892
      vertex 3.43709741 0.455109051 1.94154385
      vertex 3.43700215 0.456350284 1.94144786
    endloop
  endfacet
  facet normal 0.822050193 0.418143253 -0.386509637
    outer loop
      vertex 3.40270336 0.447321068 1.85873107
      vertex 3.40217511 0.448448314 1.85882706
      vertex 3.4364739 0.45747753 1.94154385
    endloop
  endfacet
  facet normal 0.822050193 0.418143253 -0.386509637
    outer loop
      vertex 3.40270336 0.447321068 1.85873107
      vertex 3.4364739 0.45747753 1.94154385
      vertex 3.43700215 0.456350284 1.94144786
    endloop
  endfacet
  facet normal -0.381097679 -0.100324624 -0.919075366
    outer loop
      vertex 3.39985922 0.446572343 1.85999213
      vertex 3.40217511 0.448448314 1.85882706
      vertex 3.40270336 0.447321068 1.85873107
    endloop
  endfacet
  facet normal 0.381097679 0.100324624 0.919075366
    outer loop
      vertex 3.43415801 0.455601559 1.94270892
      vertex 3.43700215 0.456350284 1.94144786
      vertex 3.4364739 0.45747753 1.94154385
    endloop
  endfacet
  facet normal 0.59756903 0.731809784 -0.327667048
    outer loop
      vertex 3.40217511 0.448448314 1.85882706
      vertex 3.40129429 0.449289961 1.85910043
      vertex 3.43559308 0.458319177 1.94181721
    endloop
  endfacet
  facet normal 0.59756903 0.731809784 -0.327667048
    outer loop
      vertex 3.40217511 0.448448314 1.85882706
      vertex 3.43559308 0.458319177 1.94181721
      vertex 3.4364739 0.45747753 1.94154385
    endloop
  endfacet
  facet normal -0.381097679 -0.100324624 -0.919075366
    outer loop
      vertex 3.39985922 0.446572343 1.85999213
      vertex 3.40129429 0.449289961 1.85910043
      vertex 3.40217511 0.448448314 1.85882706
    endloop
  endfacet
  facet normal 0.381097679 0.100324624 0.919075366
    outer loop
      vertex 3.43415801 0.455601559 1.94270892
      vertex 3.4364739 0.45747753 1.94154385
      vertex 3.43559308 0.458319177 1.94181721
    endloop
  endfacet
  facet normal 0.2821134 0.934064908 -0.218940122
    outer loop
      vertex 3.40129429 0.449289961 1.85910043
      vertex 3.40019499 0.449717875 1.85950955
      vertex 3.43449378 0.458747091 1.94222633
    endloop
  endfacet
  facet normal 0.2821134 0.934064908 -0.218940122
    outer loop
      vertex 3.40129429 0.449289961 1.85910043
      vertex 3.43449378 0.458747091 1.94222633
      vertex 3.43559308 0.458319177 1.94181721
    endloop
  endfacet
  facet normal -0.381097679 -0.100324624 -0.919075366
    outer loop
      vertex 3.39985922 0.446572343 1.85999213
      vertex 3.40019499 0.449717875 1.85950955
      vertex 3.40129429 0.449289961 1.85910043
    endloop
  endfacet
  facet normal 0.381097679 0.100324624 0.919075366
    outer loop
      vertex 3.43415801 0.455601559 1.94270892
      vertex 3.43559308 0.458319177 1.94181721
      vertex 3.43449378 0.458747091 1.94222633
    endloop
  endfacet
  facet normal -0.0762914391 0.994117118 -0.0768815468
    outer loop
      vertex 3.40019499 0.449717875 1.85950955
      vertex 3.39904457 0.44966691 1.85999213
      vertex 3.43334336 0.458696126 1.94270892
    endloop
  endfacet
  facet normal -0.0762914391 0.994117118 -0.0768815468
    outer loop
      vertex 3.40019499 0.449717875 1.85950955
      vertex 3.43334336 0.458696126 1.94270892
      vertex 3.43449378 0.458747091 1.94222633
    endloop
  endfacet
  facet normal -0.381097679 -0.100324624 -0.919075366
    outer loop
      vertex 3.39985922 0.446572343 1.85999213
      vertex 3.39904457 0.44966691 1.85999213
      vertex 3.40019499 0.449717875 1.85950955
    endloop
  endfacet
  facet normal 0.381097679 0.100324624 0.919075366
    outer loop
      vertex 3.43415801 0.455601559 1.94270892
      vertex 3.43449378 0.458747091 1.94222633
      vertex 3.43334336 0.458696126 1.94270892
    endloop
  endfacet
  facet normal -0.423081598 0.902824008 0.0768815468
    outer loop
      vertex 3.39904457 0.44966691 1.85999213
      vertex 3.39801818 0.449144826 1.86047472
      vertex 3.43231697 0.458174042 1.9431915
    endloop
  endfacet
  facet normal -0.423081598 0.902824008 0.0768815468
    outer loop
      vertex 3.39904457 0.44966691 1.85999213
      vertex 3.43231697 0.458174042 1.9431915
      vertex 3.43334336 0.458696126 1.94270892
    endloop
  endfacet
  facet normal -0.381097679 -0.100324624 -0.919075366
    outer loop
      vertex 3.39985922 0.446572343 1.85999213
      vertex 3.39801818 0.449144826 1.86047472
      vertex 3.39904457 0.44966691 1.85999213
    endloop
  endfacet
  facet normal 0.381097679 0.100324624 0.919075366
    outer loop
      vertex 3.43415801 0.455601559 1.94270892
      vertex 3.43334336 0.458696126 1.94270892
      vertex 3.43231697 0.458174042 1.9431915
    endloop
  endfacet
  facet normal -0.705461418 0.674084127 0.218940122
    outer loop
      vertex 3.39801818 0.449144826 1.86047472
      vertex 3.39727206 0.448231104 1.86088384
      vertex 3.43157085 0.45726032 1.94360062
    endloop
  endfacet
  facet normal -0.705461418 0.674084127 0.218940122
    outer loop
      vertex 3.39801818 0.449144826 1.86047472
      vertex 3.43157085 0.45726032 1.94360062
      vertex 3.43231697 0.458174042 1.9431915
    endloop
  endfacet
  facet normal -0.381097679 -0.100324624 -0.919075366
    outer loop
      vertex 3.39985922 0.446572343 1.85999213
      vertex 3.39727206 0.448231104 1.86088384
      vertex 3.39801818 0.449144826 1.86047472
    endloop
  endfacet
  facet normal 0.381097679 0.100324624 0.919075366
    outer loop
      vertex 3.43415801 0.455601559 1.94270892
      vertex 3.43231697 0.458174042 1.9431915
      vertex 3.43157085 0.45726032 1.94360062
    endloop
  endfacet
  facet normal -0.880441133 0.342721048 0.327667048
    outer loop
      vertex 3.39727206 0.448231104 1.86088384
      vertex 3.39691982 0.447064851 1.8611572
      vertex 3.43121861 0.456094067 1.94387399
    endloop
  endfacet
  facet normal -0.880441133 0.342721048 0.327667048
    outer loop
      vertex 3.39727206 0.448231104 1.86088384
      vertex 3.43121861 0.456094067 1.94387399
      vertex 3.43157085 0.45726032 1.94360062
    endloop
  endfacet
  facet normal -0.381097679 -0.100324624 -0.919075366
    outer loop
      vertex 3.39985922 0.446572343 1.85999213
      vertex 3.39691982 0.447064851 1.8611572
      vertex 3.39727206 0.448231104 1.86088384
    endloop
  endfacet
  facet normal 0.381097679 0.100324624 0.919075366
    outer loop
      vertex 3.43415801 0.455601559 1.94270892
      vertex 3.43157085 0.45726032 1.94360062
      vertex 3.43121861 0.456094067 1.94387399
    endloop
  endfacet
  facet normal -0.921381666 -0.0408182032 0.386509637
    outer loop
      vertex 3.39691982 0.447064851 1.8611572
      vertex 3.39701508 0.445823618 1.8612532
      vertex 3.43131387 0.454852835 1.94396998
    endloop
  endfacet
  facet normal -0.921381666 -0.0408182032 0.386509637
    outer loop
      vertex 3.39691982 0.447064851 1.8611572
      vertex 3.43131387 0.454852835 1.94396998
      vertex 3.43121861 0.456094067 1.94387399
    endloop
  endfacet
  facet normal -0.381097679 -0.100324624 -0.919075366
    outer loop
      vertex 3.39985922 0.446572343 1.85999213
      vertex 3.39701508 0.445823618 1.8612532
      vertex 3.39691982 0.447064851 1.8611572
    endloop
  endfacet
  facet normal 0.381097679 0.100324624 0.919075366
    outer loop
      vertex 3.43415801 0.455601559 1.94270892
      vertex 3.43121861 0.456094067 1.94387399
      vertex 3.43131387 0.454852835 1.94396998
    endloop
  endfacet
  facet normal -0.822050193 -0.418143253 0.386509637
    outer loop
      vertex 3.39701508 0.445823618 1.8612532
      vertex 3.39754333 0.444696372 1.8611572
      vertex 3.43184212 0.453725588 1.94387399
    endloop
  endfacet
  facet normal -0.822050193 -0.418143253 0.386509637
    outer loop
      vertex 3.39701508 0.445823618 1.8612532
      vertex 3.43184212 0.453725588 1.94387399
      vertex 3.43131387 0.454852835 1.94396998
    endloop
  endfacet
  facet normal -0.381097679 -0.100324624 -0.919075366
    outer loop
      vertex 3.39985922 0.446572343 1.85999213
      vertex 3.39754333 0.444696372 1.8611572
      vertex 3.39701508 0.445823618 1.8612532
    endloop
  endfacet
  facet normal 0.381097679 0.100324624 0.919075366
    outer loop
      vertex 3.43415801 0.455601559 1.94270892
      vertex 3.43131387 0.454852835 1.94396998
      vertex 3.43184212 0.453725588 1.94387399
    endloop
  endfacet
  facet normal -0.59756903 -0.731809784 0.327667048
    outer loop
      vertex 3.39754333 0.444696372 1.8611572
      vertex 3.39842415 0.443854725 1.86088384
      vertex 3.43272294 0.452883942 1.94360062
    endloop
  endfacet
  facet normal -0.59756903 -0.731809784 0.327667048
    outer loop
      vertex 3.39754333 0.444696372 1.8611572
      vertex 3.43272294 0.452883942 1.94360062
      vertex 3.43184212 0.453725588 1.94387399
    endloop
  endfacet
  facet normal -0.381097679 -0.100324624 -0.919075366
    outer loop
      vertex 3.39985922 0.446572343 1.85999213
      vertex 3.39842415 0.443854725 1.86088384
      vertex 3.39754333 0.444696372 1.8611572
    endloop
  endfacet
  facet normal 0.381097679 0.100324624 0.919075366
    outer loop
      vertex 3.43415801 0.455601559 1.94270892
      vertex 3.43184212 0.453725588 1.94387399
      vertex 3.43272294 0.452883942 1.94360062
    endloop
  endfacet
  facet normal -0.2821134 -0.934064908 0.218940122
    outer loop
      vertex 3.39842415 0.443854725 1.86088384
      vertex 3.39952345 0.443426811 1.86047472
      vertex 3.43382224 0.452456028 1.9431915
    endloop
  endfacet
  facet normal -0.2821134 -0.934064908 0.218940122
    outer loop
      vertex 3.39842415 0.443854725 1.86088384
      vertex 3.43382224 0.452456028 1.9431915
      vertex 3.43272294 0.452883942 1.94360062
    endloop
  endfacet
  facet normal -0.381097679 -0.100324624 -0.919075366
    outer loop
      vertex 3.39985922 0.446572343 1.85999213
      vertex 3.39952345 0.443426811 1.86047472
      vertex 3.39842415 0.443854725 1.86088384
    endloop
  endfacet
  facet normal 0.381097679 0.100324624 0.919075366
    outer loop
      vertex 3.43415801 0.455601559 1.94270892
      vertex 3.43272294 0.452883942 1.94360062
      vertex 3.43382224 0.452456028 1.9431915
    endloop
  endfacet
  facet normal 0.0762914391 -0.994117118 0.0768815468
    outer loop
      vertex 3.39952345 0.443426811 1.86047472
      vertex 3.40067387 0.443477776 1.85999213
      vertex 3.43497266 0.452506992 1.94270892
    endloop
  endfacet
  facet normal 0.0762914391 -0.994117118 0.0768815468
    outer loop
      vertex 3.39952345 0.443426811 1.86047472
      vertex 3.43497266 0.452506992 1.94270892
      vertex 3.43382224 0.452456028 1.9431915
    endloop
  endfacet
  facet normal -0.381097679 -0.100324624 -0.919075366
    outer loop
      vertex 3.39985922 0.446572343 1.85999213
      vertex 3.40067387 0.443477776 1.85999213
      vertex 3.39952345 0.443426811 1.86047472
    endloop
  endfacet
  facet normal 0.381097679 0.100324624 0.919075366
    outer loop
      vertex 3.43415801 0.455601559 1.94270892
      vertex 3.43382224 0.452456028 1.9431915
      vertex 3.43497266 0.452506992 1.94270892
    endloop
  endfacet
  facet normal 0.423081598 -0.902824008 -0.0768815468
    outer loop
      vertex 3.3868622 0.418233337 1.86847483
      vertex 3.38788859 0.418755421 1.86799224
      vertex 3.42218739 0.427784638 1.95070902
    endloop
  endfacet
  facet normal 0.423081598 -0.902824008 -0.0768815468
    outer loop
      vertex 3.3868622 0.418233337 1.86847483
      vertex 3.42218739 0.427784638 1.95070902
      vertex 3.42116099 0.427262553 1.95119161
    endloop
  endfacet
  facet normal -0.381097679 -0.100324624 -0.919075366
    outer loop
      vertex 3.38604755 0.421327904 1.86847483
      vertex 3.38788859 0.418755421 1.86799224
      vertex 3.3868622 0.418233337 1.86847483
    endloop
  endfacet
  facet normal 0.381097679 0.100324624 0.919075366
    outer loop
      vertex 3.42034634 0.43035712 1.95119161
      vertex 3.42116099 0.427262553 1.95119161
      vertex 3.42218739 0.427784638 1.95070902
    endloop
  endfacet
  facet normal 0.705461418 -0.674084127 -0.218940122
    outer loop
      vertex 3.38788859 0.418755421 1.86799224
      vertex 3.38863471 0.419669143 1.86758312
      vertex 3.4229335 0.428698359 1.9502999
    endloop
  endfacet
  facet normal 0.705461418 -0.674084127 -0.218940122
    outer loop
      vertex 3.38788859 0.418755421 1.86799224
      vertex 3.4229335 0.428698359 1.9502999
      vertex 3.42218739 0.427784638 1.95070902
    endloop
  endfacet
  facet normal -0.381097679 -0.100324624 -0.919075366
    outer loop
      vertex 3.38604755 0.421327904 1.86847483
      vertex 3.38863471 0.419669143 1.86758312
      vertex 3.38788859 0.418755421 1.86799224
    endloop
  endfacet
  facet normal 0.381097679 0.100324624 0.919075366
    outer loop
      vertex 3.42034634 0.43035712 1.95119161
      vertex 3.42218739 0.427784638 1.95070902
      vertex 3.4229335 0.428698359 1.9502999
    endloop
  endfacet
  facet normal 0.880441133 -0.342721048 -0.327667048
    outer loop
      vertex 3.38863471 0.419669143 1.86758312
      vertex 3.38898695 0.420835396 1.86730976
      vertex 3.42328574 0.429864612 1.95002654
    endloop
  endfacet
  facet normal 0.880441133 -0.342721048 -0.327667048
    outer loop
      vertex 3.38863471 0.419669143 1.86758312
      vertex 3.42328574 0.429864612 1.95002654
      vertex 3.4229335 0.428698359 1.9502999
    endloop
  endfacet
  facet normal -0.381097679 -0.100324624 -0.919075366
    outer loop
      vertex 3.38604755 0.421327904 1.86847483
      vertex 3.38898695 0.420835396 1.86730976
      vertex 3.38863471 0.419669143 1.86758312
    endloop
  endfacet
  facet normal 0.381097679 0.100324624 0.919075366
    outer loop
      vertex 3.42034634 0.43035712 1.95119161
      vertex 3.4229335 0.428698359 1.9502999
      vertex 3.42328574 0.429864612 1.95002654
    endloop
  endfacet
  facet normal 0.921381666 0.0408182032 -0.386509637
    outer loop
      vertex 3.38898695 0.420835396 1.86730976
      vertex 3.38889169 0.422076629 1.86721377
      vertex 3.42319048 0.431105845 1.94993055
    endloop
  endfacet
  facet normal 0.921381666 0.0408182032 -0.386509637
    outer loop
      vertex 3.38898695 0.420835396 1.86730976
      vertex 3.42319048 0.431105845 1.94993055
      vertex 3.42328574 0.429864612 1.95002654
    endloop
  endfacet
  facet normal -0.381097679 -0.100324624 -0.919075366
    outer loop
      vertex 3.38604755 0.421327904 1.86847483
      vertex 3.38889169 0.422076629 1.86721377
      vertex 3.38898695 0.420835396 1.86730976
    endloop
  endfacet
  facet normal 0.381097679 0.100324624 0.919075366
    outer loop
      vertex 3.42034634 0.43035712 1.95119161
      vertex 3.42328574 0.429864612 1.95002654
      vertex 3.42319048 0.431105845 1.94993055
    endloop
  endfacet
  facet normal 0.822050193 0.418143253 -0.386509637
    outer loop
      vertex 3.38889169 0.422076629 1.86721377
      vertex 3.38836344 0.423203875 1.86730976
      vertex 3.42266223 0.432233091 1.95002654
    endloop
  endfacet
  facet normal 0.822050193 0.418143253 -0.386509637
    outer loop
      vertex 3.38889169 0.422076629 1.86721377
      vertex 3.42266223 0.432233091 1.95002654
      vertex 3.42319048 0.431105845 1.94993055
    endloop
  endfacet
  facet normal -0.381097679 -0.100324624 -0.919075366
    outer loop
      vertex 3.38604755 0.421327904 1.86847483
      vertex 3.38836344 0.423203875 1.86730976
      vertex 3.38889169 0.422076629 1.86721377
    endloop
  endfacet
  facet normal 0.381097679 0.100324624 0.919075366
    outer loop
      vertex 3.42034634 0.43035712 1.95119161
      vertex 3.42319048 0.431105845 1.94993055
      vertex 3.42266223 0.432233091 1.95002654
    endloop
  endfacet
  facet normal 0.59756903 0.731809784 -0.327667048
    outer loop
      vertex 3.38836344 0.423203875 1.86730976
      vertex 3.38748262 0.424045522 1.86758312
      vertex 3.42178141 0.433074738 1.9502999
    endloop
  endfacet
  facet normal 0.59756903 0.731809784 -0.327667048
    outer loop
      vertex 3.38836344 0.423203875 1.86730976
      vertex 3.42178141 0.433074738 1.9502999
      vertex 3.42266223 0.432233091 1.95002654
    endloop
  endfacet
  facet normal -0.381097679 -0.100324624 -0.919075366
    outer loop
      vertex 3.38604755 0.421327904 1.86847483
      vertex 3.38748262 0.424045522 1.86758312
      vertex 3.38836344 0.423203875 1.86730976
    endloop
  endfacet
  facet normal 0.381097679 0.100324624 0.919075366
    outer loop
      vertex 3.42034634 0.43035712 1.95119161
      vertex 3.42266223 0.432233091 1.95002654
      vertex 3.42178141 0.433074738 1.9502999
    endloop
  endfacet
  facet normal 0.2821134 0.934064908 -0.218940122
    outer loop
      vertex 3.38748262 0.424045522 1.86758312
      vertex 3.38638332 0.424473436 1.86799224
      vertex 3.42068211 0.433502652 1.95070902
    endloop
  endfacet
  facet normal 0.2821134 0.934064908 -0.218940122
    outer loop
      vertex 3.38748262 0.424045522 1.86758312
      vertex 3.42068211 0.433502652 1.95070902
      vertex 3.42178141 0.433074738 1.9502999
    endloop
  endfacet
  facet normal -0.381097679 -0.100324624 -0.919075366
    outer loop
      vertex 3.38604755 0.421327904 1.86847483
      vertex 3.38638332 0.424473436 1.86799224
      vertex 3.38748262 0.424045522 1.86758312
    endloop
  endfacet
  facet normal 0.381097679 0.100324624 0.919075366
    outer loop
      vertex 3.42034634 0.43035712 1.95119161
      vertex 3.42178141 0.433074738 1.9502999
      vertex 3.42068211 0.433502652 1.95070902
    endloop
  endfacet
  facet normal -0.0762914391 0.994117118 -0.0768815468
    outer loop
      vertex 3.38638332 0.424473436 1.86799224
      vertex 3.3852329 0.424422471 1.86847483
      vertex 3.41953169 0.433451687 1.95119161
    endloop
  endfacet
  facet normal -0.0762914391 0.994117118 -0.0768815468
    outer loop
      vertex 3.38638332 0.424473436 1.86799224
      vertex 3.41953169 0.433451687 1.95119161
      vertex 3.42068211 0.433502652 1.95070902
    endloop
  endfacet
  facet normal -0.381097679 -0.100324624 -0.919075366
    outer loop
      vertex 3.38604755 0.421327904 1.86847483
      vertex 3.3852329 0.424422471 1.86847483
      vertex 3.38638332 0.424473436 1.86799224
    endloop
  endfacet
  facet normal 0.381097679 0.100324624 0.919075366
    outer loop
      vertex 3.42034634 0.43035712 1.95119161
      vertex 3.42068211 0.433502652 1.95070902
      vertex 3.41953169 0.433451687 1.95119161
    endloop
  endfacet
  facet normal -0.423081598 0.902824008 0.0768815468
    outer loop
      vertex 3.3852329 0.424422471 1.86847483
      vertex 3.38420651 0.423900387 1.86895741
      vertex 3.4185053 0.432929603 1.9516742
    endloop
  endfacet
  facet normal -0.423081598 0.902824008 0.0768815468
    outer loop
      vertex 3.3852329 0.424422471 1.86847483
      vertex 3.4185053 0.432929603 1.9516742
      vertex 3.41953169 0.433451687 1.95119161
    endloop
  endfacet
  facet normal -0.381097679 -0.100324624 -0.919075366
    outer loop
      vertex 3.38604755 0.421327904 1.86847483
      vertex 3.38420651 0.423900387 1.86895741
      vertex 3.3852329 0.424422471 1.86847483
    endloop
  endfacet
  facet normal 0.381097679 0.100324624 0.919075366
    outer loop
      vertex 3.42034634 0.43035712 1.95119161
      vertex 3.41953169 0.433451687 1.95119161
      vertex 3.4185053 0.432929603 1.9516742
    endloop
  endfacet
  facet normal -0.705461418 0.674084127 0.218940122
    outer loop
      vertex 3.38420651 0.423900387 1.86895741
      vertex 3.38346039 0.422986665 1.86936653
      vertex 3.41775919 0.432015881 1.95208332
    endloop
  endfacet
  facet normal -0.705461418 0.674084127 0.218940122
    outer loop
      vertex 3.38420651 0.423900387 1.86895741
      vertex 3.41775919 0.432015881 1.95208332
      vertex 3.4185053 0.432929603 1.9516742
    endloop
  endfacet
  facet normal -0.381097679 -0.100324624 -0.919075366
    outer loop
      vertex 3.38604755 0.421327904 1.86847483
      vertex 3.38346039 0.422986665 1.86936653
      vertex 3.38420651 0.423900387 1.86895741
    endloop
  endfacet
  facet normal 0.381097679 0.100324624 0.919075366
    outer loop
      vertex 3.42034634 0.43035712 1.95119161
      vertex 3.4185053 0.432929603 1.9516742
      vertex 3.41775919 0.432015881 1.95208332
    endloop
  endfacet
  facet normal -0.880441133 0.342721048 0.327667048
    outer loop
      vertex 3.38346039 0.422986665 1.86936653
      vertex 3.38310815 0.421820412 1.8696399
      vertex 3.41740695 0.430849628 1.95235668
    endloop
  endfacet
  facet normal -0.880441133 0.342721048 0.327667048
    outer loop
      vertex 3.38346039 0.422986665 1.86936653
      vertex 3.41740695 0.430849628 1.95235668
      vertex 3.41775919 0.432015881 1.95208332
    endloop
  endfacet
  facet normal -0.381097679 -0.100324624 -0.919075366
    outer loop
      vertex 3.38604755 0.421327904 1.86847483
      vertex 3.38310815 0.421820412 1.8696399
      vertex 3.38346039 0.422986665 1.86936653
    endloop
  endfacet
  facet normal 0.381097679 0.100324624 0.919075366
    outer loop
      vertex 3.42034634 0.43035712 1.95119161
      vertex 3.41775919 0.432015881 1.95208332
      vertex 3.41740695 0.430849628 1.95235668
    endloop
  endfacet
  facet normal -0.921381666 -0.0408182032 0.386509637
    outer loop
      vertex 3.38310815 0.421820412 1.8696399
      vertex 3.38320341 0.420579179 1.86973589
      vertex 3.4175022 0.429608395 1.95245267
    endloop
  endfacet
  facet normal -0.921381666 -0.0408182032 0.386509637
    outer loop
      vertex 3.38310815 0.421820412 1.8696399
      vertex 3.4175022 0.429608395 1.95245267
      vertex 3.41740695 0.430849628 1.95235668
    endloop
  endfacet
  facet normal -0.381097679 -0.100324624 -0.919075366
    outer loop
      vertex 3.38604755 0.421327904 1.86847483
      vertex 3.38320341 0.420579179 1.86973589
      vertex 3.38310815 0.421820412 1.8696399
    endloop
  endfacet
  facet normal 0.381097679 0.100324624 0.919075366
    outer loop
      vertex 3.42034634 0.43035712 1.95119161
      vertex 3.41740695 0.430849628 1.95235668
      vertex 3.4175022 0.429608395 1.95245267
    endloop
  endfacet
  facet normal -0.822050193 -0.418143253 0.386509637
    outer loop
      vertex 3.38320341 0.420579179 1.86973589
      vertex 3.38373166 0.419451933 1.8696399
      vertex 3.41803045 0.428481149 1.95235668
    endloop
  endfacet
  facet normal -0.822050193 -0.418143253 0.386509637
    outer loop
      vertex 3.38320341 0.420579179 1.86973589
      vertex 3.41803045 0.428481149 1.95235668
      vertex 3.4175022 0.429608395 1.95245267
    endloop
  endfacet
  facet normal -0.381097679 -0.100324624 -0.919075366
    outer loop
      vertex 3.38604755 0.421327904 1.86847483
      vertex 3.38373166 0.419451933 1.8696399
      vertex 3.38320341 0.420579179 1.86973589
    endloop
  endfacet
  facet normal 0.381097679 0.100324624 0.919075366
    outer loop
      vertex 3.42034634 0.43035712 1.95119161
      vertex 3.4175022 0.429608395 1.95245267
      vertex 3.41803045 0.428481149 1.95235668
    endloop
  endfacet
  facet normal -0.59756903 -0.731809784 0.327667048
    outer loop
      vertex 3.38373166 0.419451933 1.8696399
      vertex 3.38461248 0.418610286 1.86936653
      vertex 3.41891127 0.427639502 1.95208332
    endloop
  endfacet
  facet normal -0.59756903 -0.731809784 0.327667048
    outer loop
      vertex 3.38373166 0.419451933 1.8696399
      vertex 3.41891127 0.427639502 1.95208332
      vertex 3.41803045 0.428481149 1.95235668
    endloop
  endfacet
  facet normal -0.381097679 -0.100324624 -0.919075366
    outer loop
      vertex 3.38604755 0.421327904 1.86847483
      vertex 3.38461248 0.418610286 1.86936653
      vertex 3.38373166 0.419451933 1.8696399
    endloop
  endfacet
  facet normal 0.381097679 0.100324624 0.919075366
    outer loop
      vertex 3.42034634 0.43035712 1.95119161
      vertex 3.41803045 0.428481149 1.95235668
      vertex 3.41891127 0.427639502 1.95208332
    endloop
  endfacet
  facet normal -0.2821134 -0.934064908 0.218940122
    outer loop
      vertex 3.38461248 0.418610286 1.86936653
      vertex 3.38571178 0.418182372 1.86895741
      vertex 3.42001057 0.427211588 1.9516742
    endloop
  endfacet
  facet normal -0.2821134 -0.934064908 0.218940122
    outer loop
      vertex 3.38461248 0.418610286 1.86936653
      vertex 3.42001057 0.427211588 1.9516742
      vertex 3.41891127 0.427639502 1.95208332
    endloop
  endfacet
  facet normal -0.381097679 -0.100324624 -0.919075366
    outer loop
      vertex 3.38604755 0.421327904 1.86847483
      vertex 3.38571178 0.418182372 1.86895741
      vertex 3.38461248 0.418610286 1.86936653
    endloop
  endfacet
  facet normal 0.381097679 0.100324624 0.919075366
    outer loop
      vertex 3.42034634 0.43035712 1.95119161
      vertex 3.41891127 0.427639502 1.95208332
      vertex 3.42001057 0.427211588 1.9516742
    endloop
  endfacet
  facet normal 0.0762914391 -0.994117118 0.0768815468
    outer loop
      vertex 3.38571178 0.418182372 1.86895741
      vertex 3.3868622 0.418233337 1.86847483
      vertex 3.42116099 0.427262553 1.95119161
    endloop
  endfacet
  facet normal 0.0762914391 -0.994117118 0.0768815468
    outer loop
      vertex 3.38571178 0.418182372 1.86895741
      vertex 3.42116099 0.427262553 1.95119161
      vertex 3.42001057 0.427211588 1.9516742
    endloop
  endfacet
  facet normal -0.381097679 -0.100324624 -0.919075366
    outer loop
      vertex 3.38604755 0.421327904 1.86847483
      vertex 3.3868622 0.418233337 1.86847483
      vertex 3.38571178 0.418182372 1.86895741
    endloop
  endfacet
  facet normal 0.381097679 0.100324624 0.919075366
    outer loop
      vertex 3.42034634 0.43035712 1.95119161
      vertex 3.42001057 0.427211588 1.9516742
      vertex 3.42116099 0.427262553 1.95119161
    endloop
  endfacet
endsolid c26_features
