solid c26_blank
  facet normal 0.381063617 0.101277027 0.918985029
    outer loop
      vertex 2.82695008 0.474211623 2.184224
      vertex 2.82909595 0.414520447 2.18991249
      vertex 3.83071641 0.410985008 1.77497313
    endloop
  endfacet
  facet normal 0.381063617 0.101277027 0.918985029
    outer loop
      vertex 2.82695008 0.474211623 2.184224
      vertex 3.83071641 0.410985008 1.77497313
      vertex 3.82857055 0.470676183 1.76928465
    endloop
  endfacet
  facet normal -0.0357644168 0.994852919 -0.0948081035
    outer loop
      vertex 2.82695008 0.474211623 2.184224
      vertex 3.82857055 0.470676183 1.76928465
      vertex 3.79808546 0.462574021 1.69576584
    endloop
  endfacet
  facet normal -0.0357644168 0.994852919 -0.0948081035
    outer loop
      vertex 2.82695008 0.474211623 2.184224
      vertex 3.79808546 0.462574021 1.69576584
      vertex 2.79646499 0.46610946 2.1107052
    endloop
  endfacet
  facet normal 0.923856821 -0.00326095526 -0.382724366
    outer loop
      vertex 3.82857055 0.470676183 1.76928465
      vertex 3.83071641 0.410985008 1.77497313
      vertex 3.80023132 0.402882846 1.70145433
    endloop
  endfacet
  facet normal 0.923856821 -0.00326095526 -0.382724366
    outer loop
      vertex 3.82857055 0.470676183 1.76928465
      vertex 3.80023132 0.402882846 1.70145433
      vertex 3.79808546 0.462574021 1.69576584
    endloop
  endfacet
  facet normal 0.0357644168 -0.994852919 0.0948081035
    outer loop
      vertex 3.83071641 0.410985008 1.77497313
      vertex 2.82909595 0.414520447 2.18991249
      vertex 2.79861086 0.406418285 2.11639369
    endloop
  endfacet
  facet normal 0.0357644168 -0.994852919 0.0948081035
    outer loop
      vertex 3.83071641 0.410985008 1.77497313
      vertex 2.79861086 0.406418285 2.11639369
      vertex 3.80023132 0.402882846 1.70145433
    endloop
  endfacet
  facet normal -0.923856821 0.00326095526 0.382724366
    outer loop
      vertex 2.82909595 0.414520447 2.18991249
      vertex 2.82695008 0.474211623 2.184224
      vertex 2.79646499 0.46610946 2.1107052
    endloop
  endfacet
  facet normal -0.923856821 0.00326095526 0.382724366
    outer loop
      vertex 2.82909595 0.414520447 2.18991249
      vertex 2.79646499 0.46610946 2.1107052
      vertex 2.79861086 0.406418285 2.11639369
    endloop
  endfacet
  facet normal -0.381063617 -0.101277027 -0.918985029
    outer loop
      vertex 2.79646499 0.46610946 2.1107052
      vertex 3.79808546 0.462574021 1.69576584
      vertex 3.80023132 0.402882846 1.70145433
    endloop
  endfacet
  facet normal -0.381063617 -0.101277027 -0.918985029
    outer loop
      vertex 2.79646499 0.46610946 2.1107052
      vertex 3.80023132 0.402882846 1.70145433
      vertex 2.79861086 0.406418285 2.11639369
    endloop
  endfacet
endsolid c26_blank
