solid h8_features
  facet normal 0.949907754 -0.189843647 -0.248263265
    outer loop
      vertex 3.20215493 -0.44591084 2.18091573
      vertex 3.20200608 -0.447102493 2.18125742
      vertex 3.17600529 -0.467834531 2.09762643
    endloop
  endfacet
  facet normal 0.949907754 -0.189843647 -0.248263265
    outer loop
      vertex 3.20215493 -0.44591084 2.18091573
      vertex 3.17600529 -0.467834531 2.09762643
      vertex 3.17615415 -0.466642877 2.09728475
    endloop
  endfacet
  facet normal 0.288897611 0.230355977 0.929233175
    outer loop
      vertex 3.19909921 -0.44591084 2.18186575
      vertex 3.20200608 -0.447102493 2.18125742
      vertex 3.20215493 -0.44591084 2.18091573
    endloop
  endfacet
  facet normal -0.288897611 -0.230355977 -0.929233175
    outer loop
      vertex 3.17309842 -0.466642877 2.09823477
      vertex 3.17615415 -0.466642877 2.09728475
      vertex 3.17600529 -0.467834531 2.09762643
    endloop
  endfacet
  facet normal 0.831976779 -0.540628966 -0.124639319
    outer loop
      vertex 3.20200608 -0.447102493 2.18125742
      vertex 3.20141468 -0.448112728 2.18169172
      vertex 3.17541389 -0.468844766 2.09806074
    endloop
  endfacet
  facet normal 0.831976779 -0.540628966 -0.124639319
    outer loop
      vertex 3.20200608 -0.447102493 2.18125742
      vertex 3.17541389 -0.468844766 2.09806074
      vertex 3.17600529 -0.467834531 2.09762643
    endloop
  endfacet
  facet normal 0.288897611 0.230355977 0.929233175
    outer loop
      vertex 3.19909921 -0.44591084 2.18186575
      vertex 3.20141468 -0.448112728 2.18169172
      vertex 3.20200608 -0.447102493 2.18125742
    endloop
  endfacet
  facet normal -0.288897611 -0.230355977 -0.929233175
    outer loop
      vertex 3.17309842 -0.466642877 2.09823477
      vertex 3.17600529 -0.467834531 2.09762643
      vertex 3.17541389 -0.468844766 2.09806074
    endloop
  endfacet
  facet normal 0.587384882 -0.809108426 0.0179598329
    outer loop
      vertex 3.20141468 -0.448112728 2.18169172
      vertex 3.20047077 -0.448787745 2.18215252
      vertex 3.17446998 -0.469519783 2.09852153
    endloop
  endfacet
  facet normal 0.587384882 -0.809108426 0.0179598329
    outer loop
      vertex 3.20141468 -0.448112728 2.18169172
      vertex 3.17446998 -0.469519783 2.09852153
      vertex 3.17541389 -0.468844766 2.09806074
    endloop
  endfacet
  facet normal 0.288897611 0.230355977 0.929233175
    outer loop
      vertex 3.19909921 -0.44591084 2.18186575
      vertex 3.20047077 -0.448787745 2.18215252
      vertex 3.20141468 -0.448112728 2.18169172
    endloop
  endfacet
  facet normal -0.288897611 -0.230355977 -0.929233175
    outer loop
      vertex 3.17309842 -0.466642877 2.09823477
      vertex 3.17541389 -0.468844766 2.09806074
      vertex 3.17446998 -0.469519783 2.09852153
    endloop
  endfacet
  facet normal 0.253368961 -0.954408463 0.157824763
    outer loop
      vertex 3.20047077 -0.448787745 2.18215252
      vertex 3.19931805 -0.44902478 2.18256966
      vertex 3.17331726 -0.469756818 2.09893867
    endloop
  endfacet
  facet normal 0.253368961 -0.954408463 0.157824763
    outer loop
      vertex 3.20047077 -0.448787745 2.18215252
      vertex 3.17331726 -0.469756818 2.09893867
      vertex 3.17446998 -0.469519783 2.09852153
    endloop
  endfacet
  facet normal 0.288897611 0.230355977 0.929233175
    outer loop
      vertex 3.19909921 -0.44591084 2.18186575
      vertex 3.19931805 -0.44902478 2.18256966
      vertex 3.20047077 -0.448787745 2.18215252
    endloop
  endfacet
  facet normal -0.288897611 -0.230355977 -0.929233175
    outer loop
      vertex 3.17309842 -0.466642877 2.09823477
      vertex 3.17446998 -0.469519783 2.09852153
      vertex 3.17331726 -0.469756818 2.09893867
    endloop
  endfacet
  facet normal -0.119220088 -0.954408463 0.273662304
    outer loop
      vertex 3.19931805 -0.44902478 2.18256966
      vertex 3.19813202 -0.448787745 2.18287963
      vertex 3.17213123 -0.469519783 2.09924865
    endloop
  endfacet
  facet normal -0.119220088 -0.954408463 0.273662304
    outer loop
      vertex 3.19931805 -0.44902478 2.18256966
      vertex 3.17213123 -0.469519783 2.09924865
      vertex 3.17331726 -0.469756818 2.09893867
    endloop
  endfacet
  facet normal 0.288897611 0.230355977 0.929233175
    outer loop
      vertex 3.19909921 -0.44591084 2.18186575
      vertex 3.19813202 -0.448787745 2.18287963
      vertex 3.19931805 -0.44902478 2.18256966
    endloop
  endfacet
  facet normal -0.288897611 -0.230355977 -0.929233175
    outer loop
      vertex 3.17309842 -0.466642877 2.09823477
      vertex 3.17331726 -0.469756818 2.09893867
      vertex 3.17213123 -0.469519783 2.09924865
    endloop
  endfacet
  facet normal -0.473658959 -0.809108426 0.34783724
    outer loop
      vertex 3.19813202 -0.448787745 2.18287963
      vertex 3.19709323 -0.448112728 2.18303526
      vertex 3.17109244 -0.468844766 2.09940427
    endloop
  endfacet
  facet normal -0.473658959 -0.809108426 0.34783724
    outer loop
      vertex 3.19813202 -0.448787745 2.18287963
      vertex 3.17109244 -0.468844766 2.09940427
      vertex 3.17213123 -0.469519783 2.09924865
    endloop
  endfacet
  facet normal 0.288897611 0.230355977 0.929233175
    outer loop
      vertex 3.19909921 -0.44591084 2.18186575
      vertex 3.19709323 -0.448112728 2.18303526
      vertex 3.19813202 -0.448787745 2.18287963
    endloop
  endfacet
  facet normal -0.288897611 -0.230355977 -0.929233175
    outer loop
      vertex 3.17309842 -0.466642877 2.09823477
      vertex 3.17213123 -0.469519783 2.09924865
      vertex 3.17109244 -0.468844766 2.09940427
    endloop
  endfacet
  facet normal -0.755987547 -0.540628966 0.36905711
    outer loop
      vertex 3.19709323 -0.448112728 2.18303526
      vertex 3.19635983 -0.447102493 2.18301283
      vertex 3.17035905 -0.467834531 2.09938185
    endloop
  endfacet
  facet normal -0.755987547 -0.540628966 0.36905711
    outer loop
      vertex 3.19709323 -0.448112728 2.18303526
      vertex 3.17035905 -0.467834531 2.09938185
      vertex 3.17109244 -0.468844766 2.09940427
    endloop
  endfacet
  facet normal 0.288897611 0.230355977 0.929233175
    outer loop
      vertex 3.19909921 -0.44591084 2.18186575
      vertex 3.19635983 -0.447102493 2.18301283
      vertex 3.19709323 -0.448112728 2.18303526
    endloop
  endfacet
  facet normal -0.288897611 -0.230355977 -0.929233175
    outer loop
      vertex 3.17309842 -0.466642877 2.09823477
      vertex 3.17109244 -0.468844766 2.09940427
      vertex 3.17035905 -0.467834531 2.09938185
    endloop
  endfacet
  facet normal -0.923223884 -0.189843647 0.334091379
    outer loop
      vertex 3.19635983 -0.447102493 2.18301283
      vertex 3.19604348 -0.44591084 2.18281578
      vertex 3.1700427 -0.466642877 2.09918479
    endloop
  endfacet
  facet normal -0.923223884 -0.189843647 0.334091379
    outer loop
      vertex 3.19635983 -0.447102493 2.18301283
      vertex 3.1700427 -0.466642877 2.09918479
      vertex 3.17035905 -0.467834531 2.09938185
    endloop
  endfacet
  facet normal 0.288897611 0.230355977 0.929233175
    outer loop
      vertex 3.19909921 -0.44591084 2.18186575
      vertex 3.19604348 -0.44591084 2.18281578
      vertex 3.19635983 -0.447102493 2.18301283
    endloop
  endfacet
  facet normal -0.288897611 -0.230355977 -0.929233175
    outer loop
      vertex 3.17309842 -0.466642877 2.09823477
      vertex 3.17035905 -0.467834531 2.09938185
      vertex 3.1700427 -0.466642877 2.09918479
    endloop
  endfacet
  facet normal -0.949907754 0.189843647 0.248263265
    outer loop
      vertex 3.19604348 -0.44591084 2.18281578
      vertex 3.19619234 -0.444719186 2.18247409
      vertex 3.17019155 -0.465451224 2.0988431
    endloop
  endfacet
  facet normal -0.949907754 0.189843647 0.248263265
    outer loop
      vertex 3.19604348 -0.44591084 2.18281578
      vertex 3.17019155 -0.465451224 2.0988431
      vertex 3.1700427 -0.466642877 2.09918479
    endloop
  endfacet
  facet normal 0.288897611 0.230355977 0.929233175
    outer loop
      vertex 3.19909921 -0.44591084 2.18186575
      vertex 3.19619234 -0.444719186 2.18247409
      vertex 3.19604348 -0.44591084 2.18281578
    endloop
  endfacet
  facet normal -0.288897611 -0.230355977 -0.929233175
    outer loop
      vertex 3.17309842 -0.466642877 2.09823477
      vertex 3.1700427 -0.466642877 2.09918479
      vertex 3.17019155 -0.465451224 2.0988431
    endloop
  endfacet
  facet normal -0.831976779 0.540628966 0.124639319
    outer loop
      vertex 3.19619234 -0.444719186 2.18247409
      vertex 3.19678374 -0.443708951 2.18203978
      vertex 3.17078295 -0.464440989 2.0984088
    endloop
  endfacet
  facet normal -0.831976779 0.540628966 0.124639319
    outer loop
      vertex 3.19619234 -0.444719186 2.18247409
      vertex 3.17078295 -0.464440989 2.0984088
      vertex 3.17019155 -0.465451224 2.0988431
    endloop
  endfacet
  facet normal 0.288897611 0.230355977 0.929233175
    outer loop
      vertex 3.19909921 -0.44591084 2.18186575
      vertex 3.19678374 -0.443708951 2.18203978
      vertex 3.19619234 -0.444719186 2.18247409
    endloop
  endfacet
  facet normal -0.288897611 -0.230355977 -0.929233175
    outer loop
      vertex 3.17309842 -0.466642877 2.09823477
      vertex 3.17019155 -0.465451224 2.0988431
      vertex 3.17078295 -0.464440989 2.0984088
    endloop
  endfacet
  facet normal -0.587384882 0.809108426 -0.0179598329
    outer loop
      vertex 3.19678374 -0.443708951 2.18203978
      vertex 3.19772765 -0.443033934 2.18157899
      vertex 3.17172686 -0.463765971 2.097948
    endloop
  endfacet
  facet normal -0.587384882 0.809108426 -0.0179598329
    outer loop
      vertex 3.19678374 -0.443708951 2.18203978
      vertex 3.17172686 -0.463765971 2.097948
      vertex 3.17078295 -0.464440989 2.0984088
    endloop
  endfacet
  facet normal 0.288897611 0.230355977 0.929233175
    outer loop
      vertex 3.19909921 -0.44591084 2.18186575
      vertex 3.19772765 -0.443033934 2.18157899
      vertex 3.19678374 -0.443708951 2.18203978
    endloop
  endfacet
  facet normal -0.288897611 -0.230355977 -0.929233175
    outer loop
      vertex 3.17309842 -0.466642877 2.09823477
      vertex 3.17078295 -0.464440989 2.0984088
      vertex 3.17172686 -0.463765971 2.097948
    endloop
  endfacet
  facet normal -0.253368961 0.954408463 -0.157824763
    outer loop
      vertex 3.19772765 -0.443033934 2.18157899
      vertex 3.19888036 -0.442796899 2.18116185
      vertex 3.17287958 -0.463528937 2.09753086
    endloop
  endfacet
  facet normal -0.253368961 0.954408463 -0.157824763
    outer loop
      vertex 3.19772765 -0.443033934 2.18157899
      vertex 3.17287958 -0.463528937 2.09753086
      vertex 3.17172686 -0.463765971 2.097948
    endloop
  endfacet
  facet normal 0.288897611 0.230355977 0.929233175
    outer loop
      vertex 3.19909921 -0.44591084 2.18186575
      vertex 3.19888036 -0.442796899 2.18116185
      vertex 3.19772765 -0.443033934 2.18157899
    endloop
  endfacet
  facet normal -0.288897611 -0.230355977 -0.929233175
    outer loop
      vertex 3.17309842 -0.466642877 2.09823477
      vertex 3.17172686 -0.463765971 2.097948
      vertex 3.17287958 -0.463528937 2.09753086
    endloop
  endfacet
  facet normal 0.119220088 0.954408463 -0.273662304
    outer loop
      vertex 3.19888036 -0.442796899 2.18116185
      vertex 3.2000664 -0.443033934 2.18085187
      vertex 3.17406561 -0.463765971 2.09722089
    endloop
  endfacet
  facet normal 0.119220088 0.954408463 -0.273662304
    outer loop
      vertex 3.19888036 -0.442796899 2.18116185
      vertex 3.17406561 -0.463765971 2.09722089
      vertex 3.17287958 -0.463528937 2.09753086
    endloop
  endfacet
  facet normal 0.288897611 0.230355977 0.929233175
    outer loop
      vertex 3.19909921 -0.44591084 2.18186575
      vertex 3.2000664 -0.443033934 2.18085187
      vertex 3.19888036 -0.442796899 2.18116185
    endloop
  endfacet
  facet normal -0.288897611 -0.230355977 -0.929233175
    outer loop
      vertex 3.17309842 -0.466642877 2.09823477
      vertex 3.17287958 -0.463528937 2.09753086
      vertex 3.17406561 -0.463765971 2.09722089
    endloop
  endfacet
  facet normal 0.473658959 0.809108426 -0.34783724
    outer loop
      vertex 3.2000664 -0.443033934 2.18085187
      vertex 3.20110518 -0.443708951 2.18069625
      vertex 3.1751044 -0.464440989 2.09706527
    endloop
  endfacet
  facet normal 0.473658959 0.809108426 -0.34783724
    outer loop
      vertex 3.2000664 -0.443033934 2.18085187
      vertex 3.1751044 -0.464440989 2.09706527
      vertex 3.17406561 -0.463765971 2.09722089
    endloop
  endfacet
  facet normal 0.288897611 0.230355977 0.929233175
    outer loop
      vertex 3.19909921 -0.44591084 2.18186575
      vertex 3.20110518 -0.443708951 2.18069625
      vertex 3.2000664 -0.443033934 2.18085187
    endloop
  endfacet
  facet normal -0.288897611 -0.230355977 -0.929233175
    outer loop
      vertex 3.17309842 -0.466642877 2.09823477
      vertex 3.17406561 -0.463765971 2.09722089
      vertex 3.1751044 -0.464440989 2.09706527
    endloop
  endfacet
  facet normal 0.755987547 0.540628966 -0.36905711
    outer loop
      vertex 3.20110518 -0.443708951 2.18069625
      vertex 3.20183858 -0.444719186 2.18071868
      vertex 3.1758378 -0.465451224 2.09708769
    endloop
  endfacet
  facet normal 0.755987547 0.540628966 -0.36905711
    outer loop
      vertex 3.20110518 -0.443708951 2.18069625
      vertex 3.1758378 -0.465451224 2.09708769
      vertex 3.1751044 -0.464440989 2.09706527
    endloop
  endfacet
  facet normal 0.288897611 0.230355977 0.929233175
    outer loop
      vertex 3.19909921 -0.44591084 2.18186575
      vertex 3.20183858 -0.444719186 2.18071868
      vertex 3.20110518 -0.443708951 2.18069625
    endloop
  endfacet
  facet normal -0.288897611 -0.230355977 -0.929233175
    outer loop
      vertex 3.17309842 -0.466642877 2.09823477
      vertex 3.1751044 -0.464440989 2.09706527
      vertex 3.1758378 -0.465451224 2.09708769
    endloop
  endfacet
  facet normal 0.923223884 0.189843647 -0.334091379
    outer loop
      vertex 3.20183858 -0.444719186 2.18071868
      vertex 3.20215493 -0.44591084 2.18091573
      vertex 3.17615415 -0.466642877 2.09728475
    endloop
  endfacet
  facet normal 0.923223884 0.189843647 -0.334091379
    outer loop
      vertex 3.20183858 -0.444719186 2.18071868
      vertex 3.17615415 -0.466642877 2.09728475
      vertex 3.1758378 -0.465451224 2.09708769
    endloop
  endfacet
  facet normal 0.288897611 0.230355977 0.929233175
    outer loop
      vertex 3.19909921 -0.44591084 2.18186575
      vertex 3.20215493 -0.44591084 2.18091573
      vertex 3.20183858 -0.444719186 2.18071868
    endloop
  endfacet
  facet normal -0.288897611 -0.230355977 -0.929233175
    outer loop
      vertex 3.17309842 -0.466642877 2.09823477
      vertex 3.1758378 -0.465451224 2.09708769
      vertex 3.17615415 -0.466642877 2.09728475
    endloop
  endfacet
  facet normal 0.949907754 -0.189843647 -0.248263265
    outer loop
      vertex 3.23087572 -0.448023398 2.17251017
      vertex 3.23072686 -0.449215051 2.17285186
      vertex 3.20472608 -0.469947089 2.08922087
    endloop
  endfacet
  facet normal 0.949907754 -0.189843647 -0.248263265
    outer loop
      vertex 3.23087572 -0.448023398 2.17251017
      vertex 3.20472608 -0.469947089 2.08922087
      vertex 3.20487493 -0.468755436 2.08887918
    endloop
  endfacet
  facet normal 0.288897611 0.230355977 0.929233175
    outer loop
      vertex 3.22781999 -0.448023398 2.17346019
      vertex 3.23072686 -0.449215051 2.17285186
      vertex 3.23087572 -0.448023398 2.17251017
    endloop
  endfacet
  facet normal -0.288897611 -0.230355977 -0.929233175
    outer loop
      vertex 3.20181921 -0.468755436 2.08982921
      vertex 3.20487493 -0.468755436 2.08887918
      vertex 3.20472608 -0.469947089 2.08922087
    endloop
  endfacet
  facet normal 0.831976779 -0.540628966 -0.124639319
    outer loop
      vertex 3.23072686 -0.449215051 2.17285186
      vertex 3.23013546 -0.450225286 2.17328616
      vertex 3.20413468 -0.470957324 2.08965518
    endloop
  endfacet
  facet normal 0.831976779 -0.540628966 -0.124639319
    outer loop
      vertex 3.23072686 -0.449215051 2.17285186
      vertex 3.20413468 -0.470957324 2.08965518
      vertex 3.20472608 -0.469947089 2.08922087
    endloop
  endfacet
  facet normal 0.288897611 0.230355977 0.929233175
    outer loop
      vertex 3.22781999 -0.448023398 2.17346019
      vertex 3.23013546 -0.450225286 2.17328616
      vertex 3.23072686 -0.449215051 2.17285186
    endloop
  endfacet
  facet normal -0.288897611 -0.230355977 -0.929233175
    outer loop
      vertex 3.20181921 -0.468755436 2.08982921
      vertex 3.20472608 -0.469947089 2.08922087
      vertex 3.20413468 -0.470957324 2.08965518
    endloop
  endfacet
  facet normal 0.587384882 -0.809108426 0.0179598329
    outer loop
      vertex 3.23013546 -0.450225286 2.17328616
      vertex 3.22919155 -0.450900304 2.17374696
      vertex 3.20319077 -0.471632342 2.09011597
    endloop
  endfacet
  facet normal 0.587384882 -0.809108426 0.0179598329
    outer loop
      vertex 3.23013546 -0.450225286 2.17328616
      vertex 3.20319077 -0.471632342 2.09011597
      vertex 3.20413468 -0.470957324 2.08965518
    endloop
  endfacet
  facet normal 0.288897611 0.230355977 0.929233175
    outer loop
      vertex 3.22781999 -0.448023398 2.17346019
      vertex 3.22919155 -0.450900304 2.17374696
      vertex 3.23013546 -0.450225286 2.17328616
    endloop
  endfacet
  facet normal -0.288897611 -0.230355977 -0.929233175
    outer loop
      vertex 3.20181921 -0.468755436 2.08982921
      vertex 3.20413468 -0.470957324 2.08965518
      vertex 3.20319077 -0.471632342 2.09011597
    endloop
  endfacet
  facet normal 0.253368961 -0.954408463 0.157824763
    outer loop
      vertex 3.22919155 -0.450900304 2.17374696
      vertex 3.22803884 -0.451137338 2.1741641
      vertex 3.20203805 -0.471869376 2.09053311
    endloop
  endfacet
  facet normal 0.253368961 -0.954408463 0.157824763
    outer loop
      vertex 3.22919155 -0.450900304 2.17374696
      vertex 3.20203805 -0.471869376 2.09053311
      vertex 3.20319077 -0.471632342 2.09011597
    endloop
  endfacet
  facet normal 0.288897611 0.230355977 0.929233175
    outer loop
      vertex 3.22781999 -0.448023398 2.17346019
      vertex 3.22803884 -0.451137338 2.1741641
      vertex 3.22919155 -0.450900304 2.17374696
    endloop
  endfacet
  facet normal -0.288897611 -0.230355977 -0.929233175
    outer loop
      vertex 3.20181921 -0.468755436 2.08982921
      vertex 3.20319077 -0.471632342 2.09011597
      vertex 3.20203805 -0.471869376 2.09053311
    endloop
  endfacet
  facet normal -0.119220088 -0.954408463 0.273662304
    outer loop
      vertex 3.22803884 -0.451137338 2.1741641
      vertex 3.2268528 -0.450900304 2.17447407
      vertex 3.20085202 -0.471632342 2.09084309
    endloop
  endfacet
  facet normal -0.119220088 -0.954408463 0.273662304
    outer loop
      vertex 3.22803884 -0.451137338 2.1741641
      vertex 3.20085202 -0.471632342 2.09084309
      vertex 3.20203805 -0.471869376 2.09053311
    endloop
  endfacet
  facet normal 0.288897611 0.230355977 0.929233175
    outer loop
      vertex 3.22781999 -0.448023398 2.17346019
      vertex 3.2268528 -0.450900304 2.17447407
      vertex 3.22803884 -0.451137338 2.1741641
    endloop
  endfacet
  facet normal -0.288897611 -0.230355977 -0.929233175
    outer loop
      vertex 3.20181921 -0.468755436 2.08982921
      vertex 3.20203805 -0.471869376 2.09053311
      vertex 3.20085202 -0.471632342 2.09084309
    endloop
  endfacet
  facet normal -0.473658959 -0.809108426 0.34783724
    outer loop
      vertex 3.2268528 -0.450900304 2.17447407
      vertex 3.22581401 -0.450225286 2.1746297
      vertex 3.19981323 -0.470957324 2.09099871
    endloop
  endfacet
  facet normal -0.473658959 -0.809108426 0.34783724
    outer loop
      vertex 3.2268528 -0.450900304 2.17447407
      vertex 3.19981323 -0.470957324 2.09099871
      vertex 3.20085202 -0.471632342 2.09084309
    endloop
  endfacet
  facet normal 0.288897611 0.230355977 0.929233175
    outer loop
      vertex 3.22781999 -0.448023398 2.17346019
      vertex 3.22581401 -0.450225286 2.1746297
      vertex 3.2268528 -0.450900304 2.17447407
    endloop
  endfacet
  facet normal -0.288897611 -0.230355977 -0.929233175
    outer loop
      vertex 3.20181921 -0.468755436 2.08982921
      vertex 3.20085202 -0.471632342 2.09084309
      vertex 3.19981323 -0.470957324 2.09099871
    endloop
  endfacet
  facet normal -0.755987547 -0.540628966 0.36905711
    outer loop
      vertex 3.22581401 -0.450225286 2.1746297
      vertex 3.22508062 -0.449215051 2.17460727
      vertex 3.19907983 -0.469947089 2.09097628
    endloop
  endfacet
  facet normal -0.755987547 -0.540628966 0.36905711
    outer loop
      vertex 3.22581401 -0.450225286 2.1746297
      vertex 3.19907983 -0.469947089 2.09097628
      vertex 3.19981323 -0.470957324 2.09099871
    endloop
  endfacet
  facet normal 0.288897611 0.230355977 0.929233175
    outer loop
      vertex 3.22781999 -0.448023398 2.17346019
      vertex 3.22508062 -0.449215051 2.17460727
      vertex 3.22581401 -0.450225286 2.1746297
    endloop
  endfacet
  facet normal -0.288897611 -0.230355977 -0.929233175
    outer loop
      vertex 3.20181921 -0.468755436 2.08982921
      vertex 3.19981323 -0.470957324 2.09099871
      vertex 3.19907983 -0.469947089 2.09097628
    endloop
  endfacet
  facet normal -0.923223884 -0.189843647 0.334091379
    outer loop
      vertex 3.22508062 -0.449215051 2.17460727
      vertex 3.22476427 -0.448023398 2.17441021
      vertex 3.19876348 -0.468755436 2.09077923
    endloop
  endfacet
  facet normal -0.923223884 -0.189843647 0.334091379
    outer loop
      vertex 3.22508062 -0.449215051 2.17460727
      vertex 3.19876348 -0.468755436 2.09077923
      vertex 3.19907983 -0.469947089 2.09097628
    endloop
  endfacet
  facet normal 0.288897611 0.230355977 0.929233175
    outer loop
      vertex 3.22781999 -0.448023398 2.17346019
      vertex 3.22476427 -0.448023398 2.17441021
      vertex 3.22508062 -0.449215051 2.17460727
    endloop
  endfacet
  facet normal -0.288897611 -0.230355977 -0.929233175
    outer loop
      vertex 3.20181921 -0.468755436 2.08982921
      vertex 3.19907983 -0.469947089 2.09097628
      vertex 3.19876348 -0.468755436 2.09077923
    endloop
  endfacet
  facet normal -0.949907754 0.189843647 0.248263265
    outer loop
      vertex 3.22476427 -0.448023398 2.17441021
      vertex 3.22491312 -0.446831744 2.17406853
      vertex 3.19891234 -0.467563782 2.09043754
    endloop
  endfacet
  facet normal -0.949907754 0.189843647 0.248263265
    outer loop
      vertex 3.22476427 -0.448023398 2.17441021
      vertex 3.19891234 -0.467563782 2.09043754
      vertex 3.19876348 -0.468755436 2.09077923
    endloop
  endfacet
  facet normal 0.288897611 0.230355977 0.929233175
    outer loop
      vertex 3.22781999 -0.448023398 2.17346019
      vertex 3.22491312 -0.446831744 2.17406853
      vertex 3.22476427 -0.448023398 2.17441021
    endloop
  endfacet
  facet normal -0.288897611 -0.230355977 -0.929233175
    outer loop
      vertex 3.20181921 -0.468755436 2.08982921
      vertex 3.19876348 -0.468755436 2.09077923
      vertex 3.19891234 -0.467563782 2.09043754
    endloop
  endfacet
  facet normal -0.831976779 0.540628966 0.124639319
    outer loop
      vertex 3.22491312 -0.446831744 2.17406853
      vertex 3.22550452 -0.445821509 2.17363422
      vertex 3.19950374 -0.466553547 2.09000324
    endloop
  endfacet
  facet normal -0.831976779 0.540628966 0.124639319
    outer loop
      vertex 3.22491312 -0.446831744 2.17406853
      vertex 3.19950374 -0.466553547 2.09000324
      vertex 3.19891234 -0.467563782 2.09043754
    endloop
  endfacet
  facet normal 0.288897611 0.230355977 0.929233175
    outer loop
      vertex 3.22781999 -0.448023398 2.17346019
      vertex 3.22550452 -0.445821509 2.17363422
      vertex 3.22491312 -0.446831744 2.17406853
    endloop
  endfacet
  facet normal -0.288897611 -0.230355977 -0.929233175
    outer loop
      vertex 3.20181921 -0.468755436 2.08982921
      vertex 3.19891234 -0.467563782 2.09043754
      vertex 3.19950374 -0.466553547 2.09000324
    endloop
  endfacet
  facet normal -0.587384882 0.809108426 -0.0179598329
    outer loop
      vertex 3.22550452 -0.445821509 2.17363422
      vertex 3.22644843 -0.445146492 2.17317343
      vertex 3.20044765 -0.46587853 2.08954244
    endloop
  endfacet
  facet normal -0.587384882 0.809108426 -0.0179598329
    outer loop
      vertex 3.22550452 -0.445821509 2.17363422
      vertex 3.20044765 -0.46587853 2.08954244
      vertex 3.19950374 -0.466553547 2.09000324
    endloop
  endfacet
  facet normal 0.288897611 0.230355977 0.929233175
    outer loop
      vertex 3.22781999 -0.448023398 2.17346019
      vertex 3.22644843 -0.445146492 2.17317343
      vertex 3.22550452 -0.445821509 2.17363422
    endloop
  endfacet
  facet normal -0.288897611 -0.230355977 -0.929233175
    outer loop
      vertex 3.20181921 -0.468755436 2.08982921
      vertex 3.19950374 -0.466553547 2.09000324
      vertex 3.20044765 -0.46587853 2.08954244
    endloop
  endfacet
  facet normal -0.253368961 0.954408463 -0.157824763
    outer loop
      vertex 3.22644843 -0.445146492 2.17317343
      vertex 3.22760115 -0.444909457 2.17275629
      vertex 3.20160037 -0.465641495 2.0891253
    endloop
  endfacet
  facet normal -0.253368961 0.954408463 -0.157824763
    outer loop
      vertex 3.22644843 -0.445146492 2.17317343
      vertex 3.20160037 -0.465641495 2.0891253
      vertex 3.20044765 -0.46587853 2.08954244
    endloop
  endfacet
  facet normal 0.288897611 0.230355977 0.929233175
    outer loop
      vertex 3.22781999 -0.448023398 2.17346019
      vertex 3.22760115 -0.444909457 2.17275629
      vertex 3.22644843 -0.445146492 2.17317343
    endloop
  endfacet
  facet normal -0.288897611 -0.230355977 -0.929233175
    outer loop
      vertex 3.20181921 -0.468755436 2.08982921
      vertex 3.20044765 -0.46587853 2.08954244
      vertex 3.20160037 -0.465641495 2.0891253
    endloop
  endfacet
  facet normal 0.119220088 0.954408463 -0.273662304
    outer loop
      vertex 3.22760115 -0.444909457 2.17275629
      vertex 3.22878718 -0.445146492 2.17244631
      vertex 3.2027864 -0.46587853 2.08881533
    endloop
  endfacet
  facet normal 0.119220088 0.954408463 -0.273662304
    outer loop
      vertex 3.22760115 -0.444909457 2.17275629
      vertex 3.2027864 -0.46587853 2.08881533
      vertex 3.20160037 -0.465641495 2.0891253
    endloop
  endfacet
  facet normal 0.288897611 0.230355977 0.929233175
    outer loop
      vertex 3.22781999 -0.448023398 2.17346019
      vertex 3.22878718 -0.445146492 2.17244631
      vertex 3.22760115 -0.444909457 2.17275629
    endloop
  endfacet
  facet normal -0.288897611 -0.230355977 -0.929233175
    outer loop
      vertex 3.20181921 -0.468755436 2.08982921
      vertex 3.20160037 -0.465641495 2.0891253
      vertex 3.2027864 -0.46587853 2.08881533
    endloop
  endfacet
  facet normal 0.473658959 0.809108426 -0.34783724
    outer loop
      vertex 3.22878718 -0.445146492 2.17244631
      vertex 3.22982597 -0.445821509 2.17229069
      vertex 3.20382519 -0.466553547 2.0886597
    endloop
  endfacet
  facet normal 0.473658959 0.809108426 -0.34783724
    outer loop
      vertex 3.22878718 -0.445146492 2.17244631
      vertex 3.20382519 -0.466553547 2.0886597
      vertex 3.2027864 -0.46587853 2.08881533
    endloop
  endfacet
  facet normal 0.288897611 0.230355977 0.929233175
    outer loop
      vertex 3.22781999 -0.448023398 2.17346019
      vertex 3.22982597 -0.445821509 2.17229069
      vertex 3.22878718 -0.445146492 2.17244631
    endloop
  endfacet
  facet normal -0.288897611 -0.230355977 -0.929233175
    outer loop
      vertex 3.20181921 -0.468755436 2.08982921
      vertex 3.2027864 -0.46587853 2.08881533
      vertex 3.20382519 -0.466553547 2.0886597
    endloop
  endfacet
  facet normal 0.755987547 0.540628966 -0.36905711
    outer loop
      vertex 3.22982597 -0.445821509 2.17229069
      vertex 3.23055937 -0.446831744 2.17231311
      vertex 3.20455858 -0.467563782 2.08868213
    endloop
  endfacet
  facet normal 0.755987547 0.540628966 -0.36905711
    outer loop
      vertex 3.22982597 -0.445821509 2.17229069
      vertex 3.20455858 -0.467563782 2.08868213
      vertex 3.20382519 -0.466553547 2.0886597
    endloop
  endfacet
  facet normal 0.288897611 0.230355977 0.929233175
    outer loop
      vertex 3.22781999 -0.448023398 2.17346019
      vertex 3.23055937 -0.446831744 2.17231311
      vertex 3.22982597 -0.445821509 2.17229069
    endloop
  endfacet
  facet normal -0.288897611 -0.230355977 -0.929233175
    outer loop
      vertex 3.20181921 -0.468755436 2.08982921
      vertex 3.20382519 -0.466553547 2.0886597
      vertex 3.20455858 -0.467563782 2.08868213
    endloop
  endfacet
  facet normal 0.923223884 0.189843647 -0.334091379
    outer loop
      vertex 3.23055937 -0.446831744 2.17231311
      vertex 3.23087572 -0.448023398 2.17251017
      vertex 3.20487493 -0.468755436 2.08887918
    endloop
  endfacet
  facet normal 0.923223884 0.189843647 -0.334091379
    outer loop
      vertex 3.23055937 -0.446831744 2.17231311
      vertex 3.20487493 -0.468755436 2.08887918
      vertex 3.20455858 -0.467563782 2.08868213
    endloop
  endfacet
  facet normal 0.288897611 0.230355977 0.929233175
    outer loop
      vertex 3.22781999 -0.448023398 2.17346019
      vertex 3.23087572 -0.448023398 2.17251017
      vertex 3.23055937 -0.446831744 2.17231311
    endloop
  endfacet
  facet normal -0.288897611 -0.230355977 -0.929233175
    outer loop
      vertex 3.20181921 -0.468755436 2.08982921
      vertex 3.20455858 -0.467563782 2.08868213
      vertex 3.20487493 -0.468755436 2.08887918
    endloop
  endfacet
  facet normal 0.337551449 -0.924988596 -0.174513944
    outer loop
      vertex 3.22958532 -0.604919926 2.15307254
      vertex 3.22898629 -0.604931858 2.15197711
      vertex 3.35046566 -0.547950657 2.08492561
    endloop
  endfacet
  facet normal 0.337551449 -0.924988596 -0.174513944
    outer loop
      vertex 3.22958532 -0.604919926 2.15307254
      vertex 3.35046566 -0.547950657 2.08492561
      vertex 3.3510647 -0.547938725 2.08602104
    endloop
  endfacet
  facet normal -0.809862519 -0.379874676 0.447009989
    outer loop
      vertex 3.22822639 -0.602022804 2.15307254
      vertex 3.22898629 -0.604931858 2.15197711
      vertex 3.22958532 -0.604919926 2.15307254
    endloop
  endfacet
  facet normal 0.809862519 0.379874676 -0.447009989
    outer loop
      vertex 3.34970577 -0.545041602 2.08602104
      vertex 3.3510647 -0.547938725 2.08602104
      vertex 3.35046566 -0.547950657 2.08492561
    endloop
  endfacet
  facet normal 0.128255861 -0.858235172 -0.496973666
    outer loop
      vertex 3.22898629 -0.604931858 2.15197711
      vertex 3.22827157 -0.604500913 2.15104845
      vertex 3.34975094 -0.547519712 2.08399695
    endloop
  endfacet
  facet normal 0.128255861 -0.858235172 -0.496973666
    outer loop
      vertex 3.22898629 -0.604931858 2.15197711
      vertex 3.34975094 -0.547519712 2.08399695
      vertex 3.35046566 -0.547950657 2.08492561
    endloop
  endfacet
  facet normal -0.809862519 -0.379874676 0.447009989
    outer loop
      vertex 3.22822639 -0.602022804 2.15307254
      vertex 3.22827157 -0.604500913 2.15104845
      vertex 3.22898629 -0.604931858 2.15197711
    endloop
  endfacet
  facet normal 0.809862519 0.379874676 -0.447009989
    outer loop
      vertex 3.34970577 -0.545041602 2.08602104
      vertex 3.35046566 -0.547950657 2.08492561
      vertex 3.34975094 -0.547519712 2.08399695
    endloop
  endfacet
  facet normal -0.100565519 -0.660823222 -0.743773652
    outer loop
      vertex 3.22827157 -0.604500913 2.15104845
      vertex 3.22754997 -0.603692698 2.15042794
      vertex 3.34902935 -0.546711497 2.08337644
    endloop
  endfacet
  facet normal -0.100565519 -0.660823222 -0.743773652
    outer loop
      vertex 3.22827157 -0.604500913 2.15104845
      vertex 3.34902935 -0.546711497 2.08337644
      vertex 3.34975094 -0.547519712 2.08399695
    endloop
  endfacet
  facet normal -0.809862519 -0.379874676 0.447009989
    outer loop
      vertex 3.22822639 -0.602022804 2.15307254
      vertex 3.22754997 -0.603692698 2.15042794
      vertex 3.22827157 -0.604500913 2.15104845
    endloop
  endfacet
  facet normal 0.809862519 0.379874676 -0.447009989
    outer loop
      vertex 3.34970577 -0.545041602 2.08602104
      vertex 3.34975094 -0.547519712 2.08399695
      vertex 3.34902935 -0.546711497 2.08337644
    endloop
  endfacet
  facet normal -0.314076711 -0.362806928 -0.877340842
    outer loop
      vertex 3.22754997 -0.603692698 2.15042794
      vertex 3.22693135 -0.602630257 2.15021004
      vertex 3.34841073 -0.545649056 2.08315855
    endloop
  endfacet
  facet normal -0.314076711 -0.362806928 -0.877340842
    outer loop
      vertex 3.22754997 -0.603692698 2.15042794
      vertex 3.34841073 -0.545649056 2.08315855
      vertex 3.34902935 -0.546711497 2.08337644
    endloop
  endfacet
  facet normal -0.809862519 -0.379874676 0.447009989
    outer loop
      vertex 3.22822639 -0.602022804 2.15307254
      vertex 3.22693135 -0.602630257 2.15021004
      vertex 3.22754997 -0.603692698 2.15042794
    endloop
  endfacet
  facet normal 0.809862519 0.379874676 -0.447009989
    outer loop
      vertex 3.34970577 -0.545041602 2.08602104
      vertex 3.34902935 -0.546711497 2.08337644
      vertex 3.34841073 -0.545649056 2.08315855
    endloop
  endfacet
  facet normal -0.47977257 -0.00955656745 -0.877340842
    outer loop
      vertex 3.22693135 -0.602630257 2.15021004
      vertex 3.22650989 -0.601475337 2.15042794
      vertex 3.34798927 -0.544494135 2.08337644
    endloop
  endfacet
  facet normal -0.47977257 -0.00955656745 -0.877340842
    outer loop
      vertex 3.22693135 -0.602630257 2.15021004
      vertex 3.34798927 -0.544494135 2.08337644
      vertex 3.34841073 -0.545649056 2.08315855
    endloop
  endfacet
  facet normal -0.809862519 -0.379874676 0.447009989
    outer loop
      vertex 3.22822639 -0.602022804 2.15307254
      vertex 3.22650989 -0.601475337 2.15042794
      vertex 3.22693135 -0.602630257 2.15021004
    endloop
  endfacet
  facet normal 0.809862519 0.379874676 -0.447009989
    outer loop
      vertex 3.34970577 -0.545041602 2.08602104
      vertex 3.34841073 -0.545649056 2.08315855
      vertex 3.34798927 -0.544494135 2.08337644
    endloop
  endfacet
  facet normal -0.572427405 0.345148694 -0.743773652
    outer loop
      vertex 3.22650989 -0.601475337 2.15042794
      vertex 3.22634975 -0.600403763 2.15104845
      vertex 3.34782913 -0.543422562 2.08399695
    endloop
  endfacet
  facet normal -0.572427405 0.345148694 -0.743773652
    outer loop
      vertex 3.22650989 -0.601475337 2.15042794
      vertex 3.34782913 -0.543422562 2.08399695
      vertex 3.34798927 -0.544494135 2.08337644
    endloop
  endfacet
  facet normal -0.809862519 -0.379874676 0.447009989
    outer loop
      vertex 3.22822639 -0.602022804 2.15307254
      vertex 3.22634975 -0.600403763 2.15104845
      vertex 3.22650989 -0.601475337 2.15042794
    endloop
  endfacet
  facet normal 0.809862519 0.379874676 -0.447009989
    outer loop
      vertex 3.34970577 -0.545041602 2.08602104
      vertex 3.34798927 -0.544494135 2.08337644
      vertex 3.34782913 -0.543422562 2.08399695
    endloop
  endfacet
  facet normal -0.577935357 0.647308195 -0.496973666
    outer loop
      vertex 3.22634975 -0.600403763 2.15104845
      vertex 3.22647532 -0.599578674 2.15197711
      vertex 3.34795469 -0.542597472 2.08492561
    endloop
  endfacet
  facet normal -0.577935357 0.647308195 -0.496973666
    outer loop
      vertex 3.22634975 -0.600403763 2.15104845
      vertex 3.34795469 -0.542597472 2.08492561
      vertex 3.34782913 -0.543422562 2.08399695
    endloop
  endfacet
  facet normal -0.809862519 -0.379874676 0.447009989
    outer loop
      vertex 3.22822639 -0.602022804 2.15307254
      vertex 3.22647532 -0.599578674 2.15197711
      vertex 3.22634975 -0.600403763 2.15104845
    endloop
  endfacet
  facet normal 0.809862519 0.379874676 -0.447009989
    outer loop
      vertex 3.34970577 -0.545041602 2.08602104
      vertex 3.34782913 -0.543422562 2.08399695
      vertex 3.34795469 -0.542597472 2.08492561
    endloop
  endfacet
  facet normal -0.495457889 0.850920892 -0.174513944
    outer loop
      vertex 3.22647532 -0.599578674 2.15197711
      vertex 3.22686747 -0.599125681 2.15307254
      vertex 3.34834684 -0.54214448 2.08602104
    endloop
  endfacet
  facet normal -0.495457889 0.850920892 -0.174513944
    outer loop
      vertex 3.22647532 -0.599578674 2.15197711
      vertex 3.34834684 -0.54214448 2.08602104
      vertex 3.34795469 -0.542597472 2.08492561
    endloop
  endfacet
  facet normal -0.809862519 -0.379874676 0.447009989
    outer loop
      vertex 3.22822639 -0.602022804 2.15307254
      vertex 3.22686747 -0.599125681 2.15307254
      vertex 3.22647532 -0.599578674 2.15197711
    endloop
  endfacet
  facet normal 0.809862519 0.379874676 -0.447009989
    outer loop
      vertex 3.34970577 -0.545041602 2.08602104
      vertex 3.34795469 -0.542597472 2.08492561
      vertex 3.34834684 -0.54214448 2.08602104
    endloop
  endfacet
  facet normal -0.337551449 0.924988596 0.174513944
    outer loop
      vertex 3.22686747 -0.599125681 2.15307254
      vertex 3.2274665 -0.599113749 2.15416797
      vertex 3.34894588 -0.542132548 2.08711647
    endloop
  endfacet
  facet normal -0.337551449 0.924988596 0.174513944
    outer loop
      vertex 3.22686747 -0.599125681 2.15307254
      vertex 3.34894588 -0.542132548 2.08711647
      vertex 3.34834684 -0.54214448 2.08602104
    endloop
  endfacet
  facet normal -0.809862519 -0.379874676 0.447009989
    outer loop
      vertex 3.22822639 -0.602022804 2.15307254
      vertex 3.2274665 -0.599113749 2.15416797
      vertex 3.22686747 -0.599125681 2.15307254
    endloop
  endfacet
  facet normal 0.809862519 0.379874676 -0.447009989
    outer loop
      vertex 3.34970577 -0.545041602 2.08602104
      vertex 3.34834684 -0.54214448 2.08602104
      vertex 3.34894588 -0.542132548 2.08711647
    endloop
  endfacet
  facet normal -0.128255861 0.858235172 0.496973666
    outer loop
      vertex 3.2274665 -0.599113749 2.15416797
      vertex 3.22818122 -0.599544694 2.15509662
      vertex 3.3496606 -0.542563493 2.08804513
    endloop
  endfacet
  facet normal -0.128255861 0.858235172 0.496973666
    outer loop
      vertex 3.2274665 -0.599113749 2.15416797
      vertex 3.3496606 -0.542563493 2.08804513
      vertex 3.34894588 -0.542132548 2.08711647
    endloop
  endfacet
  facet normal -0.809862519 -0.379874676 0.447009989
    outer loop
      vertex 3.22822639 -0.602022804 2.15307254
      vertex 3.22818122 -0.599544694 2.15509662
      vertex 3.2274665 -0.599113749 2.15416797
    endloop
  endfacet
  facet normal 0.809862519 0.379874676 -0.447009989
    outer loop
      vertex 3.34970577 -0.545041602 2.08602104
      vertex 3.34894588 -0.542132548 2.08711647
      vertex 3.3496606 -0.542563493 2.08804513
    endloop
  endfacet
  facet normal 0.100565519 0.660823222 0.743773652
    outer loop
      vertex 3.22818122 -0.599544694 2.15509662
      vertex 3.22890282 -0.600352909 2.15571714
      vertex 3.3503822 -0.543371707 2.08866564
    endloop
  endfacet
  facet normal 0.100565519 0.660823222 0.743773652
    outer loop
      vertex 3.22818122 -0.599544694 2.15509662
      vertex 3.3503822 -0.543371707 2.08866564
      vertex 3.3496606 -0.542563493 2.08804513
    endloop
  endfacet
  facet normal -0.809862519 -0.379874676 0.447009989
    outer loop
      vertex 3.22822639 -0.602022804 2.15307254
      vertex 3.22890282 -0.600352909 2.15571714
      vertex 3.22818122 -0.599544694 2.15509662
    endloop
  endfacet
  facet normal 0.809862519 0.379874676 -0.447009989
    outer loop
      vertex 3.34970577 -0.545041602 2.08602104
      vertex 3.3496606 -0.542563493 2.08804513
      vertex 3.3503822 -0.543371707 2.08866564
    endloop
  endfacet
  facet normal 0.314076711 0.362806928 0.877340842
    outer loop
      vertex 3.22890282 -0.600352909 2.15571714
      vertex 3.22952144 -0.60141535 2.15593503
      vertex 3.35100081 -0.544434149 2.08888353
    endloop
  endfacet
  facet normal 0.314076711 0.362806928 0.877340842
    outer loop
      vertex 3.22890282 -0.600352909 2.15571714
      vertex 3.35100081 -0.544434149 2.08888353
      vertex 3.3503822 -0.543371707 2.08866564
    endloop
  endfacet
  facet normal -0.809862519 -0.379874676 0.447009989
    outer loop
      vertex 3.22822639 -0.602022804 2.15307254
      vertex 3.22952144 -0.60141535 2.15593503
      vertex 3.22890282 -0.600352909 2.15571714
    endloop
  endfacet
  facet normal 0.809862519 0.379874676 -0.447009989
    outer loop
      vertex 3.34970577 -0.545041602 2.08602104
      vertex 3.3503822 -0.543371707 2.08866564
      vertex 3.35100081 -0.544434149 2.08888353
    endloop
  endfacet
  facet normal 0.47977257 0.00955656745 0.877340842
    outer loop
      vertex 3.22952144 -0.60141535 2.15593503
      vertex 3.22994289 -0.60257027 2.15571714
      vertex 3.35142227 -0.545589069 2.08866564
    endloop
  endfacet
  facet normal 0.47977257 0.00955656745 0.877340842
    outer loop
      vertex 3.22952144 -0.60141535 2.15593503
      vertex 3.35142227 -0.545589069 2.08866564
      vertex 3.35100081 -0.544434149 2.08888353
    endloop
  endfacet
  facet normal -0.809862519 -0.379874676 0.447009989
    outer loop
      vertex 3.22822639 -0.602022804 2.15307254
      vertex 3.22994289 -0.60257027 2.15571714
      vertex 3.22952144 -0.60141535 2.15593503
    endloop
  endfacet
  facet normal 0.809862519 0.379874676 -0.447009989
    outer loop
      vertex 3.34970577 -0.545041602 2.08602104
      vertex 3.35100081 -0.544434149 2.08888353
      vertex 3.35142227 -0.545589069 2.08866564
    endloop
  endfacet
  facet normal 0.572427405 -0.345148694 0.743773652
    outer loop
      vertex 3.22994289 -0.60257027 2.15571714
      vertex 3.23010303 -0.603641844 2.15509662
      vertex 3.35158241 -0.546660643 2.08804513
    endloop
  endfacet
  facet normal 0.572427405 -0.345148694 0.743773652
    outer loop
      vertex 3.22994289 -0.60257027 2.15571714
      vertex 3.35158241 -0.546660643 2.08804513
      vertex 3.35142227 -0.545589069 2.08866564
    endloop
  endfacet
  facet normal -0.809862519 -0.379874676 0.447009989
    outer loop
      vertex 3.22822639 -0.602022804 2.15307254
      vertex 3.23010303 -0.603641844 2.15509662
      vertex 3.22994289 -0.60257027 2.15571714
    endloop
  endfacet
  facet normal 0.809862519 0.379874676 -0.447009989
    outer loop
      vertex 3.34970577 -0.545041602 2.08602104
      vertex 3.35142227 -0.545589069 2.08866564
      vertex 3.35158241 -0.546660643 2.08804513
    endloop
  endfacet
  facet normal 0.577935357 -0.647308195 0.496973666
    outer loop
      vertex 3.23010303 -0.603641844 2.15509662
      vertex 3.22997747 -0.604466933 2.15416797
      vertex 3.35145685 -0.547485732 2.08711647
    endloop
  endfacet
  facet normal 0.577935357 -0.647308195 0.496973666
    outer loop
      vertex 3.23010303 -0.603641844 2.15509662
      vertex 3.35145685 -0.547485732 2.08711647
      vertex 3.35158241 -0.546660643 2.08804513
    endloop
  endfacet
  facet normal -0.809862519 -0.379874676 0.447009989
    outer loop
      vertex 3.22822639 -0.602022804 2.15307254
      vertex 3.22997747 -0.604466933 2.15416797
      vertex 3.23010303 -0.603641844 2.15509662
    endloop
  endfacet
  facet normal 0.809862519 0.379874676 -0.447009989
    outer loop
      vertex 3.34970577 -0.545041602 2.08602104
      vertex 3.35158241 -0.546660643 2.08804513
      vertex 3.35145685 -0.547485732 2.08711647
    endloop
  endfacet
  facet normal 0.495457889 -0.850920892 0.174513944
    outer loop
      vertex 3.22997747 -0.604466933 2.15416797
      vertex 3.22958532 -0.604919926 2.15307254
      vertex 3.3510647 -0.547938725 2.08602104
    endloop
  endfacet
  facet normal 0.495457889 -0.850920892 0.174513944
    outer loop
      vertex 3.22997747 -0.604466933 2.15416797
      vertex 3.3510647 -0.547938725 2.08602104
      vertex 3.35145685 -0.547485732 2.08711647
    endloop
  endfacet
  facet normal -0.809862519 -0.379874676 0.447009989
    outer loop
      vertex 3.22822639 -0.602022804 2.15307254
      vertex 3.22958532 -0.604919926 2.15307254
      vertex 3.22997747 -0.604466933 2.15416797
    endloop
  endfacet
  facet normal 0.809862519 0.379874676 -0.447009989
    outer loop
      vertex 3.34970577 -0.545041602 2.08602104
      vertex 3.35145685 -0.547485732 2.08711647
      vertex 3.3510647 -0.547938725 2.08602104
    endloop
  endfacet
  facet normal 0.337551449 -0.924988596 -0.174513944
    outer loop
      vertex 3.24058229 -0.596903688 2.1798084
      vertex 3.23998326 -0.59691562 2.17871298
      vertex 3.36146263 -0.539934418 2.11166148
    endloop
  endfacet
  facet normal 0.337551449 -0.924988596 -0.174513944
    outer loop
      vertex 3.24058229 -0.596903688 2.1798084
      vertex 3.36146263 -0.539934418 2.11166148
      vertex 3.36206167 -0.539922486 2.11275691
    endloop
  endfacet
  facet normal -0.809862519 -0.379874676 0.447009989
    outer loop
      vertex 3.23922336 -0.594006565 2.1798084
      vertex 3.23998326 -0.59691562 2.17871298
      vertex 3.24058229 -0.596903688 2.1798084
    endloop
  endfacet
  facet normal 0.809862519 0.379874676 -0.447009989
    outer loop
      vertex 3.36070274 -0.537025364 2.11275691
      vertex 3.36206167 -0.539922486 2.11275691
      vertex 3.36146263 -0.539934418 2.11166148
    endloop
  endfacet
  facet normal 0.128255861 -0.858235172 -0.496973666
    outer loop
      vertex 3.23998326 -0.59691562 2.17871298
      vertex 3.23926853 -0.596484675 2.17778432
      vertex 3.36074791 -0.539503473 2.11073282
    endloop
  endfacet
  facet normal 0.128255861 -0.858235172 -0.496973666
    outer loop
      vertex 3.23998326 -0.59691562 2.17871298
      vertex 3.36074791 -0.539503473 2.11073282
      vertex 3.36146263 -0.539934418 2.11166148
    endloop
  endfacet
  facet normal -0.809862519 -0.379874676 0.447009989
    outer loop
      vertex 3.23922336 -0.594006565 2.1798084
      vertex 3.23926853 -0.596484675 2.17778432
      vertex 3.23998326 -0.59691562 2.17871298
    endloop
  endfacet
  facet normal 0.809862519 0.379874676 -0.447009989
    outer loop
      vertex 3.36070274 -0.537025364 2.11275691
      vertex 3.36146263 -0.539934418 2.11166148
      vertex 3.36074791 -0.539503473 2.11073282
    endloop
  endfacet
  facet normal -0.100565519 -0.660823222 -0.743773652
    outer loop
      vertex 3.23926853 -0.596484675 2.17778432
      vertex 3.23854694 -0.59567646 2.17716381
      vertex 3.36002632 -0.538695259 2.11011231
    endloop
  endfacet
  facet normal -0.100565519 -0.660823222 -0.743773652
    outer loop
      vertex 3.23926853 -0.596484675 2.17778432
      vertex 3.36002632 -0.538695259 2.11011231
      vertex 3.36074791 -0.539503473 2.11073282
    endloop
  endfacet
  facet normal -0.809862519 -0.379874676 0.447009989
    outer loop
      vertex 3.23922336 -0.594006565 2.1798084
      vertex 3.23854694 -0.59567646 2.17716381
      vertex 3.23926853 -0.596484675 2.17778432
    endloop
  endfacet
  facet normal 0.809862519 0.379874676 -0.447009989
    outer loop
      vertex 3.36070274 -0.537025364 2.11275691
      vertex 3.36074791 -0.539503473 2.11073282
      vertex 3.36002632 -0.538695259 2.11011231
    endloop
  endfacet
  facet normal -0.314076711 -0.362806928 -0.877340842
    outer loop
      vertex 3.23854694 -0.59567646 2.17716381
      vertex 3.23792832 -0.594614019 2.17694591
      vertex 3.3594077 -0.537632817 2.10989441
    endloop
  endfacet
  facet normal -0.314076711 -0.362806928 -0.877340842
    outer loop
      vertex 3.23854694 -0.59567646 2.17716381
      vertex 3.3594077 -0.537632817 2.10989441
      vertex 3.36002632 -0.538695259 2.11011231
    endloop
  endfacet
  facet normal -0.809862519 -0.379874676 0.447009989
    outer loop
      vertex 3.23922336 -0.594006565 2.1798084
      vertex 3.23792832 -0.594614019 2.17694591
      vertex 3.23854694 -0.59567646 2.17716381
    endloop
  endfacet
  facet normal 0.809862519 0.379874676 -0.447009989
    outer loop
      vertex 3.36070274 -0.537025364 2.11275691
      vertex 3.36002632 -0.538695259 2.11011231
      vertex 3.3594077 -0.537632817 2.10989441
    endloop
  endfacet
  facet normal -0.47977257 -0.00955656745 -0.877340842
    outer loop
      vertex 3.23792832 -0.594614019 2.17694591
      vertex 3.23750686 -0.593459098 2.17716381
      vertex 3.35898624 -0.536477897 2.11011231
    endloop
  endfacet
  facet normal -0.47977257 -0.00955656745 -0.877340842
    outer loop
      vertex 3.23792832 -0.594614019 2.17694591
      vertex 3.35898624 -0.536477897 2.11011231
      vertex 3.3594077 -0.537632817 2.10989441
    endloop
  endfacet
  facet normal -0.809862519 -0.379874676 0.447009989
    outer loop
      vertex 3.23922336 -0.594006565 2.1798084
      vertex 3.23750686 -0.593459098 2.17716381
      vertex 3.23792832 -0.594614019 2.17694591
    endloop
  endfacet
  facet normal 0.809862519 0.379874676 -0.447009989
    outer loop
      vertex 3.36070274 -0.537025364 2.11275691
      vertex 3.3594077 -0.537632817 2.10989441
      vertex 3.35898624 -0.536477897 2.11011231
    endloop
  endfacet
  facet normal -0.572427405 0.345148694 -0.743773652
    outer loop
      vertex 3.23750686 -0.593459098 2.17716381
      vertex 3.23734672 -0.592387525 2.17778432
      vertex 3.3588261 -0.535406323 2.11073282
    endloop
  endfacet
  facet normal -0.572427405 0.345148694 -0.743773652
    outer loop
      vertex 3.23750686 -0.593459098 2.17716381
      vertex 3.3588261 -0.535406323 2.11073282
      vertex 3.35898624 -0.536477897 2.11011231
    endloop
  endfacet
  facet normal -0.809862519 -0.379874676 0.447009989
    outer loop
      vertex 3.23922336 -0.594006565 2.1798084
      vertex 3.23734672 -0.592387525 2.17778432
      vertex 3.23750686 -0.593459098 2.17716381
    endloop
  endfacet
  facet normal 0.809862519 0.379874676 -0.447009989
    outer loop
      vertex 3.36070274 -0.537025364 2.11275691
      vertex 3.35898624 -0.536477897 2.11011231
      vertex 3.3588261 -0.535406323 2.11073282
    endloop
  endfacet
  facet normal -0.577935357 0.647308195 -0.496973666
    outer loop
      vertex 3.23734672 -0.592387525 2.17778432
      vertex 3.23747229 -0.591562435 2.17871298
      vertex 3.35895166 -0.534581234 2.11166148
    endloop
  endfacet
  facet normal -0.577935357 0.647308195 -0.496973666
    outer loop
      vertex 3.23734672 -0.592387525 2.17778432
      vertex 3.35895166 -0.534581234 2.11166148
      vertex 3.3588261 -0.535406323 2.11073282
    endloop
  endfacet
  facet normal -0.809862519 -0.379874676 0.447009989
    outer loop
      vertex 3.23922336 -0.594006565 2.1798084
      vertex 3.23747229 -0.591562435 2.17871298
      vertex 3.23734672 -0.592387525 2.17778432
    endloop
  endfacet
  facet normal 0.809862519 0.379874676 -0.447009989
    outer loop
      vertex 3.36070274 -0.537025364 2.11275691
      vertex 3.3588261 -0.535406323 2.11073282
      vertex 3.35895166 -0.534581234 2.11166148
    endloop
  endfacet
  facet normal -0.495457889 0.850920892 -0.174513944
    outer loop
      vertex 3.23747229 -0.591562435 2.17871298
      vertex 3.23786444 -0.591109443 2.1798084
      vertex 3.35934381 -0.534128241 2.11275691
    endloop
  endfacet
  facet normal -0.495457889 0.850920892 -0.174513944
    outer loop
      vertex 3.23747229 -0.591562435 2.17871298
      vertex 3.35934381 -0.534128241 2.11275691
      vertex 3.35895166 -0.534581234 2.11166148
    endloop
  endfacet
  facet normal -0.809862519 -0.379874676 0.447009989
    outer loop
      vertex 3.23922336 -0.594006565 2.1798084
      vertex 3.23786444 -0.591109443 2.1798084
      vertex 3.23747229 -0.591562435 2.17871298
    endloop
  endfacet
  facet normal 0.809862519 0.379874676 -0.447009989
    outer loop
      vertex 3.36070274 -0.537025364 2.11275691
      vertex 3.35895166 -0.534581234 2.11166148
      vertex 3.35934381 -0.534128241 2.11275691
    endloop
  endfacet
  facet normal -0.337551449 0.924988596 0.174513944
    outer loop
      vertex 3.23786444 -0.591109443 2.1798084
      vertex 3.23846347 -0.59109751 2.18090383
      vertex 3.35994285 -0.534116309 2.11385233
    endloop
  endfacet
  facet normal -0.337551449 0.924988596 0.174513944
    outer loop
      vertex 3.23786444 -0.591109443 2.1798084
      vertex 3.35994285 -0.534116309 2.11385233
      vertex 3.35934381 -0.534128241 2.11275691
    endloop
  endfacet
  facet normal -0.809862519 -0.379874676 0.447009989
    outer loop
      vertex 3.23922336 -0.594006565 2.1798084
      vertex 3.23846347 -0.59109751 2.18090383
      vertex 3.23786444 -0.591109443 2.1798084
    endloop
  endfacet
  facet normal 0.809862519 0.379874676 -0.447009989
    outer loop
      vertex 3.36070274 -0.537025364 2.11275691
      vertex 3.35934381 -0.534128241 2.11275691
      vertex 3.35994285 -0.534116309 2.11385233
    endloop
  endfacet
  facet normal -0.128255861 0.858235172 0.496973666
    outer loop
      vertex 3.23846347 -0.59109751 2.18090383
      vertex 3.23917819 -0.591528456 2.18183249
      vertex 3.36065757 -0.534547254 2.11478099
    endloop
  endfacet
  facet normal -0.128255861 0.858235172 0.496973666
    outer loop
      vertex 3.23846347 -0.59109751 2.18090383
      vertex 3.36065757 -0.534547254 2.11478099
      vertex 3.35994285 -0.534116309 2.11385233
    endloop
  endfacet
  facet normal -0.809862519 -0.379874676 0.447009989
    outer loop
      vertex 3.23922336 -0.594006565 2.1798084
      vertex 3.23917819 -0.591528456 2.18183249
      vertex 3.23846347 -0.59109751 2.18090383
    endloop
  endfacet
  facet normal 0.809862519 0.379874676 -0.447009989
    outer loop
      vertex 3.36070274 -0.537025364 2.11275691
      vertex 3.35994285 -0.534116309 2.11385233
      vertex 3.36065757 -0.534547254 2.11478099
    endloop
  endfacet
  facet normal 0.100565519 0.660823222 0.743773652
    outer loop
      vertex 3.23917819 -0.591528456 2.18183249
      vertex 3.23989979 -0.59233667 2.182453
      vertex 3.36137916 -0.535355469 2.1154015
    endloop
  endfacet
  facet normal 0.100565519 0.660823222 0.743773652
    outer loop
      vertex 3.23917819 -0.591528456 2.18183249
      vertex 3.36137916 -0.535355469 2.1154015
      vertex 3.36065757 -0.534547254 2.11478099
    endloop
  endfacet
  facet normal -0.809862519 -0.379874676 0.447009989
    outer loop
      vertex 3.23922336 -0.594006565 2.1798084
      vertex 3.23989979 -0.59233667 2.182453
      vertex 3.23917819 -0.591528456 2.18183249
    endloop
  endfacet
  facet normal 0.809862519 0.379874676 -0.447009989
    outer loop
      vertex 3.36070274 -0.537025364 2.11275691
      vertex 3.36065757 -0.534547254 2.11478099
      vertex 3.36137916 -0.535355469 2.1154015
    endloop
  endfacet
  facet normal 0.314076711 0.362806928 0.877340842
    outer loop
      vertex 3.23989979 -0.59233667 2.182453
      vertex 3.2405184 -0.593399111 2.1826709
      vertex 3.36199778 -0.53641791 2.1156194
    endloop
  endfacet
  facet normal 0.314076711 0.362806928 0.877340842
    outer loop
      vertex 3.23989979 -0.59233667 2.182453
      vertex 3.36199778 -0.53641791 2.1156194
      vertex 3.36137916 -0.535355469 2.1154015
    endloop
  endfacet
  facet normal -0.809862519 -0.379874676 0.447009989
    outer loop
      vertex 3.23922336 -0.594006565 2.1798084
      vertex 3.2405184 -0.593399111 2.1826709
      vertex 3.23989979 -0.59233667 2.182453
    endloop
  endfacet
  facet normal 0.809862519 0.379874676 -0.447009989
    outer loop
      vertex 3.36070274 -0.537025364 2.11275691
      vertex 3.36137916 -0.535355469 2.1154015
      vertex 3.36199778 -0.53641791 2.1156194
    endloop
  endfacet
  facet normal 0.47977257 0.00955656745 0.877340842
    outer loop
      vertex 3.2405184 -0.593399111 2.1826709
      vertex 3.24093986 -0.594554032 2.182453
      vertex 3.36241924 -0.537572831 2.1154015
    endloop
  endfacet
  facet normal 0.47977257 0.00955656745 0.877340842
    outer loop
      vertex 3.2405184 -0.593399111 2.1826709
      vertex 3.36241924 -0.537572831 2.1154015
      vertex 3.36199778 -0.53641791 2.1156194
    endloop
  endfacet
  facet normal -0.809862519 -0.379874676 0.447009989
    outer loop
      vertex 3.23922336 -0.594006565 2.1798084
      vertex 3.24093986 -0.594554032 2.182453
      vertex 3.2405184 -0.593399111 2.1826709
    endloop
  endfacet
  facet normal 0.809862519 0.379874676 -0.447009989
    outer loop
      vertex 3.36070274 -0.537025364 2.11275691
      vertex 3.36199778 -0.53641791 2.1156194
      vertex 3.36241924 -0.537572831 2.1154015
    endloop
  endfacet
  facet normal 0.572427405 -0.345148694 0.743773652
    outer loop
      vertex 3.24093986 -0.594554032 2.182453
      vertex 3.2411 -0.595625606 2.18183249
      vertex 3.36257938 -0.538644404 2.11478099
    endloop
  endfacet
  facet normal 0.572427405 -0.345148694 0.743773652
    outer loop
      vertex 3.24093986 -0.594554032 2.182453
      vertex 3.36257938 -0.538644404 2.11478099
      vertex 3.36241924 -0.537572831 2.1154015
    endloop
  endfacet
  facet normal -0.809862519 -0.379874676 0.447009989
    outer loop
      vertex 3.23922336 -0.594006565 2.1798084
      vertex 3.2411 -0.595625606 2.18183249
      vertex 3.24093986 -0.594554032 2.182453
    endloop
  endfacet
  facet normal 0.809862519 0.379874676 -0.447009989
    outer loop
      vertex 3.36070274 -0.537025364 2.11275691
      vertex 3.36241924 -0.537572831 2.1154015
      vertex 3.36257938 -0.538644404 2.11478099
    endloop
  endfacet
  facet normal 0.577935357 -0.647308195 0.496973666
    outer loop
      vertex 3.2411 -0.595625606 2.18183249
      vertex 3.24097444 -0.596450695 2.18090383
      vertex 3.36245382 -0.539469494 2.11385233
    endloop
  endfacet
  facet normal 0.577935357 -0.647308195 0.496973666
    outer loop
      vertex 3.2411 -0.595625606 2.18183249
      vertex 3.36245382 -0.539469494 2.11385233
      vertex 3.36257938 -0.538644404 2.11478099
    endloop
  endfacet
  facet normal -0.809862519 -0.379874676 0.447009989
    outer loop
      vertex 3.23922336 -0.594006565 2.1798084
      vertex 3.24097444 -0.596450695 2.18090383
      vertex 3.2411 -0.595625606 2.18183249
    endloop
  endfacet
  facet normal 0.809862519 0.379874676 -0.447009989
    outer loop
      vertex 3.36070274 -0.537025364 2.11275691
      vertex 3.36257938 -0.538644404 2.11478099
      vertex 3.36245382 -0.539469494 2.11385233
    endloop
  endfacet
  facet normal 0.495457889 -0.850920892 0.174513944
    outer loop
      vertex 3.24097444 -0.596450695 2.18090383
      vertex 3.24058229 -0.596903688 2.1798084
      vertex 3.36206167 -0.539922486 2.11275691
    endloop
  endfacet
  facet normal 0.495457889 -0.850920892 0.174513944
    outer loop
      vertex 3.24097444 -0.596450695 2.18090383
      vertex 3.36206167 -0.539922486 2.11275691
      vertex 3.36245382 -0.539469494 2.11385233
    endloop
  endfacet
  facet normal -0.809862519 -0.379874676 0.447009989
    outer loop
      vertex 3.23922336 -0.594006565 2.1798084
      vertex 3.24058229 -0.596903688 2.1798084
      vertex 3.24097444 -0.596450695 2.18090383
    endloop
  endfacet
  facet normal 0.809862519 0.379874676 -0.447009989
    outer loop
      vertex 3.36070274 -0.537025364 2.11275691
      vertex 3.36245382 -0.539469494 2.11385233
      vertex 3.36206167 -0.539922486 2.11275691
    endloop
  endfacet
  facet normal 0.717291247 -0.691067324 -0.0889900006
    outer loop
      vertex 3.36844101 -0.803776764 2.11885961
      vertex 3.36917905 -0.802938783 2.11830101
      vertex 3.4023798 -0.778791674 2.19839238
    endloop
  endfacet
  facet normal 0.717291247 -0.691067324 -0.0889900006
    outer loop
      vertex 3.36844101 -0.803776764 2.11885961
      vertex 3.4023798 -0.778791674 2.19839238
      vertex 3.40164176 -0.779629655 2.19895097
    endloop
  endfacet
  facet normal -0.368897246 -0.268301213 -0.889904085
    outer loop
      vertex 3.3665588 -0.80118885 2.11885961
      vertex 3.36917905 -0.802938783 2.11830101
      vertex 3.36844101 -0.803776764 2.11885961
    endloop
  endfacet
  facet normal 0.368897246 0.268301213 0.889904085
    outer loop
      vertex 3.39975955 -0.777041741 2.19895097
      vertex 3.40164176 -0.779629655 2.19895097
      vertex 3.4023798 -0.778791674 2.19839238
    endloop
  endfacet
  facet normal 0.888897753 -0.381625515 -0.253422081
    outer loop
      vertex 3.36917905 -0.802938783 2.11830101
      vertex 3.36951819 -0.80183439 2.11782746
      vertex 3.40271894 -0.777687281 2.19791883
    endloop
  endfacet
  facet normal 0.888897753 -0.381625515 -0.253422081
    outer loop
      vertex 3.36917905 -0.802938783 2.11830101
      vertex 3.40271894 -0.777687281 2.19791883
      vertex 3.4023798 -0.778791674 2.19839238
    endloop
  endfacet
  facet normal -0.368897246 -0.268301213 -0.889904085
    outer loop
      vertex 3.3665588 -0.80118885 2.11885961
      vertex 3.36951819 -0.80183439 2.11782746
      vertex 3.36917905 -0.802938783 2.11830101
    endloop
  endfacet
  facet normal 0.368897246 0.268301213 0.889904085
    outer loop
      vertex 3.39975955 -0.777041741 2.19895097
      vertex 3.4023798 -0.778791674 2.19839238
      vertex 3.40271894 -0.777687281 2.19791883
    endloop
  endfacet
  facet normal 0.925177634 -0.0140846807 -0.379272947
    outer loop
      vertex 3.36951819 -0.80183439 2.11782746
      vertex 3.36940678 -0.80063172 2.11751105
      vertex 3.40260753 -0.77648461 2.19760241
    endloop
  endfacet
  facet normal 0.925177634 -0.0140846807 -0.379272947
    outer loop
      vertex 3.36951819 -0.80183439 2.11782746
      vertex 3.40260753 -0.77648461 2.19760241
      vertex 3.40271894 -0.777687281 2.19791883
    endloop
  endfacet
  facet normal -0.368897246 -0.268301213 -0.889904085
    outer loop
      vertex 3.3665588 -0.80118885 2.11885961
      vertex 3.36940678 -0.80063172 2.11751105
      vertex 3.36951819 -0.80183439 2.11782746
    endloop
  endfacet
  facet normal 0.368897246 0.268301213 0.889904085
    outer loop
      vertex 3.39975955 -0.777041741 2.19895097
      vertex 3.40271894 -0.777687281 2.19791883
      vertex 3.40260753 -0.77648461 2.19760241
    endloop
  endfacet
  facet normal 0.820607606 0.355600419 -0.447382944
    outer loop
      vertex 3.36940678 -0.80063172 2.11751105
      vertex 3.3688618 -0.799513867 2.11739993
      vertex 3.40206255 -0.775366758 2.1974913
    endloop
  endfacet
  facet normal 0.820607606 0.355600419 -0.447382944
    outer loop
      vertex 3.36940678 -0.80063172 2.11751105
      vertex 3.40206255 -0.775366758 2.1974913
      vertex 3.40260753 -0.77648461 2.19760241
    endloop
  endfacet
  facet normal -0.368897246 -0.268301213 -0.889904085
    outer loop
      vertex 3.3665588 -0.80118885 2.11885961
      vertex 3.3688618 -0.799513867 2.11739993
      vertex 3.36940678 -0.80063172 2.11751105
    endloop
  endfacet
  facet normal 0.368897246 0.268301213 0.889904085
    outer loop
      vertex 3.39975955 -0.777041741 2.19895097
      vertex 3.40260753 -0.77648461 2.19760241
      vertex 3.40206255 -0.775366758 2.1974913
    endloop
  endfacet
  facet normal 0.59110751 0.671148578 -0.447382944
    outer loop
      vertex 3.3688618 -0.799513867 2.11739993
      vertex 3.3679662 -0.798651016 2.11751105
      vertex 3.40116695 -0.774503907 2.19760241
    endloop
  endfacet
  facet normal 0.59110751 0.671148578 -0.447382944
    outer loop
      vertex 3.3688618 -0.799513867 2.11739993
      vertex 3.40116695 -0.774503907 2.19760241
      vertex 3.40206255 -0.775366758 2.1974913
    endloop
  endfacet
  facet normal -0.368897246 -0.268301213 -0.889904085
    outer loop
      vertex 3.3665588 -0.80118885 2.11885961
      vertex 3.3679662 -0.798651016 2.11751105
      vertex 3.3688618 -0.799513867 2.11739993
    endloop
  endfacet
  facet normal 0.368897246 0.268301213 0.889904085
    outer loop
      vertex 3.39975955 -0.777041741 2.19895097
      vertex 3.40206255 -0.775366758 2.1974913
      vertex 3.40116695 -0.774503907 2.19760241
    endloop
  endfacet
  facet normal 0.271616653 0.88452045 -0.379272947
    outer loop
      vertex 3.3679662 -0.798651016 2.11751105
      vertex 3.36685634 -0.798174526 2.11782746
      vertex 3.4000571 -0.774027417 2.19791883
    endloop
  endfacet
  facet normal 0.271616653 0.88452045 -0.379272947
    outer loop
      vertex 3.3679662 -0.798651016 2.11751105
      vertex 3.4000571 -0.774027417 2.19791883
      vertex 3.40116695 -0.774503907 2.19760241
    endloop
  endfacet
  facet normal -0.368897246 -0.268301213 -0.889904085
    outer loop
      vertex 3.3665588 -0.80118885 2.11885961
      vertex 3.36685634 -0.798174526 2.11782746
      vertex 3.3679662 -0.798651016 2.11751105
    endloop
  endfacet
  facet normal 0.368897246 0.268301213 0.889904085
    outer loop
      vertex 3.39975955 -0.777041741 2.19895097
      vertex 3.40116695 -0.774503907 2.19760241
      vertex 3.4000571 -0.774027417 2.19791883
    endloop
  endfacet
  facet normal -0.0892253766 0.963232101 -0.253422081
    outer loop
      vertex 3.36685634 -0.798174526 2.11782746
      vertex 3.36570119 -0.798156941 2.11830101
      vertex 3.39890194 -0.774009831 2.19839238
    endloop
  endfacet
  facet normal -0.0892253766 0.963232101 -0.253422081
    outer loop
      vertex 3.36685634 -0.798174526 2.11782746
      vertex 3.39890194 -0.774009831 2.19839238
      vertex 3.4000571 -0.774027417 2.19791883
    endloop
  endfacet
  facet normal -0.368897246 -0.268301213 -0.889904085
    outer loop
      vertex 3.3665588 -0.80118885 2.11885961
      vertex 3.36570119 -0.798156941 2.11830101
      vertex 3.36685634 -0.798174526 2.11782746
    endloop
  endfacet
  facet normal 0.368897246 0.268301213 0.889904085
    outer loop
      vertex 3.39975955 -0.777041741 2.19895097
      vertex 3.4000571 -0.774027417 2.19791883
      vertex 3.39890194 -0.774009831 2.19839238
    endloop
  endfacet
  facet normal -0.436483652 0.895300397 -0.0889900006
    outer loop
      vertex 3.36570119 -0.798156941 2.11830101
      vertex 3.36467659 -0.798600935 2.11885961
      vertex 3.39787735 -0.774453826 2.19895097
    endloop
  endfacet
  facet normal -0.436483652 0.895300397 -0.0889900006
    outer loop
      vertex 3.36570119 -0.798156941 2.11830101
      vertex 3.39787735 -0.774453826 2.19895097
      vertex 3.39890194 -0.774009831 2.19839238
    endloop
  endfacet
  facet normal -0.368897246 -0.268301213 -0.889904085
    outer loop
      vertex 3.3665588 -0.80118885 2.11885961
      vertex 3.36467659 -0.798600935 2.11885961
      vertex 3.36570119 -0.798156941 2.11830101
    endloop
  endfacet
  facet normal 0.368897246 0.268301213 0.889904085
    outer loop
      vertex 3.39975955 -0.777041741 2.19895097
      vertex 3.39890194 -0.774009831 2.19839238
      vertex 3.39787735 -0.774453826 2.19895097
    endloop
  endfacet
  facet normal -0.717291247 0.691067324 0.0889900006
    outer loop
      vertex 3.36467659 -0.798600935 2.11885961
      vertex 3.36393855 -0.799438917 2.1194182
      vertex 3.3971393 -0.775291808 2.19950957
    endloop
  endfacet
  facet normal -0.717291247 0.691067324 0.0889900006
    outer loop
      vertex 3.36467659 -0.798600935 2.11885961
      vertex 3.3971393 -0.775291808 2.19950957
      vertex 3.39787735 -0.774453826 2.19895097
    endloop
  endfacet
  facet normal -0.368897246 -0.268301213 -0.889904085
    outer loop
      vertex 3.3665588 -0.80118885 2.11885961
      vertex 3.36393855 -0.799438917 2.1194182
      vertex 3.36467659 -0.798600935 2.11885961
    endloop
  endfacet
  facet normal 0.368897246 0.268301213 0.889904085
    outer loop
      vertex 3.39975955 -0.777041741 2.19895097
      vertex 3.39787735 -0.774453826 2.19895097
      vertex 3.3971393 -0.775291808 2.19950957
    endloop
  endfacet
  facet normal -0.888897753 0.381625515 0.253422081
    outer loop
      vertex 3.36393855 -0.799438917 2.1194182
      vertex 3.36359942 -0.80054331 2.11989175
      vertex 3.39680017 -0.776396201 2.19998312
    endloop
  endfacet
  facet normal -0.888897753 0.381625515 0.253422081
    outer loop
      vertex 3.36393855 -0.799438917 2.1194182
      vertex 3.39680017 -0.776396201 2.19998312
      vertex 3.3971393 -0.775291808 2.19950957
    endloop
  endfacet
  facet normal -0.368897246 -0.268301213 -0.889904085
    outer loop
      vertex 3.3665588 -0.80118885 2.11885961
      vertex 3.36359942 -0.80054331 2.11989175
      vertex 3.36393855 -0.799438917 2.1194182
    endloop
  endfacet
  facet normal 0.368897246 0.268301213 0.889904085
    outer loop
      vertex 3.39975955 -0.777041741 2.19895097
      vertex 3.3971393 -0.775291808 2.19950957
      vertex 3.39680017 -0.776396201 2.19998312
    endloop
  endfacet
  facet normal -0.925177634 0.0140846807 0.379272947
    outer loop
      vertex 3.36359942 -0.80054331 2.11989175
      vertex 3.36371082 -0.80174598 2.12020817
      vertex 3.39691157 -0.777598871 2.20029954
    endloop
  endfacet
  facet normal -0.925177634 0.0140846807 0.379272947
    outer loop
      vertex 3.36359942 -0.80054331 2.11989175
      vertex 3.39691157 -0.777598871 2.20029954
      vertex 3.39680017 -0.776396201 2.19998312
    endloop
  endfacet
  facet normal -0.368897246 -0.268301213 -0.889904085
    outer loop
      vertex 3.3665588 -0.80118885 2.11885961
      vertex 3.36371082 -0.80174598 2.12020817
      vertex 3.36359942 -0.80054331 2.11989175
    endloop
  endfacet
  facet normal 0.368897246 0.268301213 0.889904085
    outer loop
      vertex 3.39975955 -0.777041741 2.19895097
      vertex 3.39680017 -0.776396201 2.19998312
      vertex 3.39691157 -0.777598871 2.20029954
    endloop
  endfacet
  facet normal -0.820607606 -0.355600419 0.447382944
    outer loop
      vertex 3.36371082 -0.80174598 2.12020817
      vertex 3.36425581 -0.802863833 2.12031928
      vertex 3.39745656 -0.778716723 2.20041065
    endloop
  endfacet
  facet normal -0.820607606 -0.355600419 0.447382944
    outer loop
      vertex 3.36371082 -0.80174598 2.12020817
      vertex 3.39745656 -0.778716723 2.20041065
      vertex 3.39691157 -0.777598871 2.20029954
    endloop
  endfacet
  facet normal -0.368897246 -0.268301213 -0.889904085
    outer loop
      vertex 3.3665588 -0.80118885 2.11885961
      vertex 3.36425581 -0.802863833 2.12031928
      vertex 3.36371082 -0.80174598 2.12020817
    endloop
  endfacet
  facet normal 0.368897246 0.268301213 0.889904085
    outer loop
      vertex 3.39975955 -0.777041741 2.19895097
      vertex 3.39691157 -0.777598871 2.20029954
      vertex 3.39745656 -0.778716723 2.20041065
    endloop
  endfacet
  facet normal -0.59110751 -0.671148578 0.447382944
    outer loop
      vertex 3.36425581 -0.802863833 2.12031928
      vertex 3.3651514 -0.803726684 2.12020817
      vertex 3.39835215 -0.779579575 2.20029954
    endloop
  endfacet
  facet normal -0.59110751 -0.671148578 0.447382944
    outer loop
      vertex 3.36425581 -0.802863833 2.12031928
      vertex 3.39835215 -0.779579575 2.20029954
      vertex 3.39745656 -0.778716723 2.20041065
    endloop
  endfacet
  facet normal -0.368897246 -0.268301213 -0.889904085
    outer loop
      vertex 3.3665588 -0.80118885 2.11885961
      vertex 3.3651514 -0.803726684 2.12020817
      vertex 3.36425581 -0.802863833 2.12031928
    endloop
  endfacet
  facet normal 0.368897246 0.268301213 0.889904085
    outer loop
      vertex 3.39975955 -0.777041741 2.19895097
      vertex 3.39745656 -0.778716723 2.20041065
      vertex 3.39835215 -0.779579575 2.20029954
    endloop
  endfacet
  facet normal -0.271616653 -0.88452045 0.379272947
    outer loop
      vertex 3.3651514 -0.803726684 2.12020817
      vertex 3.36626126 -0.804203173 2.11989175
      vertex 3.39946201 -0.780056064 2.19998312
    endloop
  endfacet
  facet normal -0.271616653 -0.88452045 0.379272947
    outer loop
      vertex 3.3651514 -0.803726684 2.12020817
      vertex 3.39946201 -0.780056064 2.19998312
      vertex 3.39835215 -0.779579575 2.20029954
    endloop
  endfacet
  facet normal -0.368897246 -0.268301213 -0.889904085
    outer loop
      vertex 3.3665588 -0.80118885 2.11885961
      vertex 3.36626126 -0.804203173 2.11989175
      vertex 3.3651514 -0.803726684 2.12020817
    endloop
  endfacet
  facet normal 0.368897246 0.268301213 0.889904085
    outer loop
      vertex 3.39975955 -0.777041741 2.19895097
      vertex 3.39835215 -0.779579575 2.20029954
      vertex 3.39946201 -0.780056064 2.19998312
    endloop
  endfacet
  facet normal 0.0892253766 -0.963232101 0.253422081
    outer loop
      vertex 3.36626126 -0.804203173 2.11989175
      vertex 3.36741641 -0.804220759 2.1194182
      vertex 3.40061717 -0.78007365 2.19950957
    endloop
  endfacet
  facet normal 0.0892253766 -0.963232101 0.253422081
    outer loop
      vertex 3.36626126 -0.804203173 2.11989175
      vertex 3.40061717 -0.78007365 2.19950957
      vertex 3.39946201 -0.780056064 2.19998312
    endloop
  endfacet
  facet normal -0.368897246 -0.268301213 -0.889904085
    outer loop
      vertex 3.3665588 -0.80118885 2.11885961
      vertex 3.36741641 -0.804220759 2.1194182
      vertex 3.36626126 -0.804203173 2.11989175
    endloop
  endfacet
  facet normal 0.368897246 0.268301213 0.889904085
    outer loop
      vertex 3.39975955 -0.777041741 2.19895097
      vertex 3.39946201 -0.780056064 2.19998312
      vertex 3.40061717 -0.78007365 2.19950957
    endloop
  endfacet
  facet normal 0.436483652 -0.895300397 0.0889900006
    outer loop
      vertex 3.36741641 -0.804220759 2.1194182
      vertex 3.36844101 -0.803776764 2.11885961
      vertex 3.40164176 -0.779629655 2.19895097
    endloop
  endfacet
  facet normal 0.436483652 -0.895300397 0.0889900006
    outer loop
      vertex 3.36741641 -0.804220759 2.1194182
      vertex 3.40164176 -0.779629655 2.19895097
      vertex 3.40061717 -0.78007365 2.19950957
    endloop
  endfacet
  facet normal -0.368897246 -0.268301213 -0.889904085
    outer loop
      vertex 3.3665588 -0.80118885 2.11885961
      vertex 3.36844101 -0.803776764 2.11885961
      vertex 3.36741641 -0.804220759 2.1194182
    endloop
  endfacet
  facet normal 0.368897246 0.268301213 0.889904085
    outer loop
      vertex 3.39975955 -0.777041741 2.19895097
      vertex 3.40061717 -0.78007365 2.19950957
      vertex 3.40164176 -0.779629655 2.19895097
    endloop
  endfacet
  facet normal 0.717291247 -0.691067324 -0.0889900006
    outer loop
      vertex 3.35782506 -0.829120402 2.13090127
      vertex 3.3585631 -0.828282421 2.13034268
      vertex 3.39176385 -0.804135312 2.21043404
    endloop
  endfacet
  facet normal 0.717291247 -0.691067324 -0.0889900006
    outer loop
      vertex 3.35782506 -0.829120402 2.13090127
      vertex 3.39176385 -0.804135312 2.21043404
      vertex 3.39102581 -0.804973293 2.21099264
    endloop
  endfacet
  facet normal -0.368897246 -0.268301213 -0.889904085
    outer loop
      vertex 3.35594285 -0.826532488 2.13090127
      vertex 3.3585631 -0.828282421 2.13034268
      vertex 3.35782506 -0.829120402 2.13090127
    endloop
  endfacet
  facet normal 0.368897246 0.268301213 0.889904085
    outer loop
      vertex 3.3891436 -0.802385379 2.21099264
      vertex 3.39102581 -0.804973293 2.21099264
      vertex 3.39176385 -0.804135312 2.21043404
    endloop
  endfacet
  facet normal 0.888897753 -0.381625515 -0.253422081
    outer loop
      vertex 3.3585631 -0.828282421 2.13034268
      vertex 3.35890223 -0.827178028 2.12986912
      vertex 3.39210299 -0.803030919 2.20996049
    endloop
  endfacet
  facet normal 0.888897753 -0.381625515 -0.253422081
    outer loop
      vertex 3.3585631 -0.828282421 2.13034268
      vertex 3.39210299 -0.803030919 2.20996049
      vertex 3.39176385 -0.804135312 2.21043404
    endloop
  endfacet
  facet normal -0.368897246 -0.268301213 -0.889904085
    outer loop
      vertex 3.35594285 -0.826532488 2.13090127
      vertex 3.35890223 -0.827178028 2.12986912
      vertex 3.3585631 -0.828282421 2.13034268
    endloop
  endfacet
  facet normal 0.368897246 0.268301213 0.889904085
    outer loop
      vertex 3.3891436 -0.802385379 2.21099264
      vertex 3.39176385 -0.804135312 2.21043404
      vertex 3.39210299 -0.803030919 2.20996049
    endloop
  endfacet
  facet normal 0.925177634 -0.0140846807 -0.379272947
    outer loop
      vertex 3.35890223 -0.827178028 2.12986912
      vertex 3.35879083 -0.825975357 2.12955271
      vertex 3.39199158 -0.801828248 2.20964407
    endloop
  endfacet
  facet normal 0.925177634 -0.0140846807 -0.379272947
    outer loop
      vertex 3.35890223 -0.827178028 2.12986912
      vertex 3.39199158 -0.801828248 2.20964407
      vertex 3.39210299 -0.803030919 2.20996049
    endloop
  endfacet
  facet normal -0.368897246 -0.268301213 -0.889904085
    outer loop
      vertex 3.35594285 -0.826532488 2.13090127
      vertex 3.35879083 -0.825975357 2.12955271
      vertex 3.35890223 -0.827178028 2.12986912
    endloop
  endfacet
  facet normal 0.368897246 0.268301213 0.889904085
    outer loop
      vertex 3.3891436 -0.802385379 2.21099264
      vertex 3.39210299 -0.803030919 2.20996049
      vertex 3.39199158 -0.801828248 2.20964407
    endloop
  endfacet
  facet normal 0.820607606 0.355600419 -0.447382944
    outer loop
      vertex 3.35879083 -0.825975357 2.12955271
      vertex 3.35824585 -0.824857505 2.1294416
      vertex 3.3914466 -0.800710396 2.20953296
    endloop
  endfacet
  facet normal 0.820607606 0.355600419 -0.447382944
    outer loop
      vertex 3.35879083 -0.825975357 2.12955271
      vertex 3.3914466 -0.800710396 2.20953296
      vertex 3.39199158 -0.801828248 2.20964407
    endloop
  endfacet
  facet normal -0.368897246 -0.268301213 -0.889904085
    outer loop
      vertex 3.35594285 -0.826532488 2.13090127
      vertex 3.35824585 -0.824857505 2.1294416
      vertex 3.35879083 -0.825975357 2.12955271
    endloop
  endfacet
  facet normal 0.368897246 0.268301213 0.889904085
    outer loop
      vertex 3.3891436 -0.802385379 2.21099264
      vertex 3.39199158 -0.801828248 2.20964407
      vertex 3.3914466 -0.800710396 2.20953296
    endloop
  endfacet
  facet normal 0.59110751 0.671148578 -0.447382944
    outer loop
      vertex 3.35824585 -0.824857505 2.1294416
      vertex 3.35735025 -0.823994653 2.12955271
      vertex 3.390551 -0.799847544 2.20964407
    endloop
  endfacet
  facet normal 0.59110751 0.671148578 -0.447382944
    outer loop
      vertex 3.35824585 -0.824857505 2.1294416
      vertex 3.390551 -0.799847544 2.20964407
      vertex 3.3914466 -0.800710396 2.20953296
    endloop
  endfacet
  facet normal -0.368897246 -0.268301213 -0.889904085
    outer loop
      vertex 3.35594285 -0.826532488 2.13090127
      vertex 3.35735025 -0.823994653 2.12955271
      vertex 3.35824585 -0.824857505 2.1294416
    endloop
  endfacet
  facet normal 0.368897246 0.268301213 0.889904085
    outer loop
      vertex 3.3891436 -0.802385379 2.21099264
      vertex 3.3914466 -0.800710396 2.20953296
      vertex 3.390551 -0.799847544 2.20964407
    endloop
  endfacet
  facet normal 0.271616653 0.88452045 -0.379272947
    outer loop
      vertex 3.35735025 -0.823994653 2.12955271
      vertex 3.35624039 -0.823518164 2.12986912
      vertex 3.38944115 -0.799371055 2.20996049
    endloop
  endfacet
  facet normal 0.271616653 0.88452045 -0.379272947
    outer loop
      vertex 3.35735025 -0.823994653 2.12955271
      vertex 3.38944115 -0.799371055 2.20996049
      vertex 3.390551 -0.799847544 2.20964407
    endloop
  endfacet
  facet normal -0.368897246 -0.268301213 -0.889904085
    outer loop
      vertex 3.35594285 -0.826532488 2.13090127
      vertex 3.35624039 -0.823518164 2.12986912
      vertex 3.35735025 -0.823994653 2.12955271
    endloop
  endfacet
  facet normal 0.368897246 0.268301213 0.889904085
    outer loop
      vertex 3.3891436 -0.802385379 2.21099264
      vertex 3.390551 -0.799847544 2.20964407
      vertex 3.38944115 -0.799371055 2.20996049
    endloop
  endfacet
  facet normal -0.0892253766 0.963232101 -0.253422081
    outer loop
      vertex 3.35624039 -0.823518164 2.12986912
      vertex 3.35508524 -0.823500578 2.13034268
      vertex 3.38828599 -0.799353469 2.21043404
    endloop
  endfacet
  facet normal -0.0892253766 0.963232101 -0.253422081
    outer loop
      vertex 3.35624039 -0.823518164 2.12986912
      vertex 3.38828599 -0.799353469 2.21043404
      vertex 3.38944115 -0.799371055 2.20996049
    endloop
  endfacet
  facet normal -0.368897246 -0.268301213 -0.889904085
    outer loop
      vertex 3.35594285 -0.826532488 2.13090127
      vertex 3.35508524 -0.823500578 2.13034268
      vertex 3.35624039 -0.823518164 2.12986912
    endloop
  endfacet
  facet normal 0.368897246 0.268301213 0.889904085
    outer loop
      vertex 3.3891436 -0.802385379 2.21099264
      vertex 3.38944115 -0.799371055 2.20996049
      vertex 3.38828599 -0.799353469 2.21043404
    endloop
  endfacet
  facet normal -0.436483652 0.895300397 -0.0889900006
    outer loop
      vertex 3.35508524 -0.823500578 2.13034268
      vertex 3.35406064 -0.823944573 2.13090127
      vertex 3.3872614 -0.799797464 2.21099264
    endloop
  endfacet
  facet normal -0.436483652 0.895300397 -0.0889900006
    outer loop
      vertex 3.35508524 -0.823500578 2.13034268
      vertex 3.3872614 -0.799797464 2.21099264
      vertex 3.38828599 -0.799353469 2.21043404
    endloop
  endfacet
  facet normal -0.368897246 -0.268301213 -0.889904085
    outer loop
      vertex 3.35594285 -0.826532488 2.13090127
      vertex 3.35406064 -0.823944573 2.13090127
      vertex 3.35508524 -0.823500578 2.13034268
    endloop
  endfacet
  facet normal 0.368897246 0.268301213 0.889904085
    outer loop
      vertex 3.3891436 -0.802385379 2.21099264
      vertex 3.38828599 -0.799353469 2.21043404
      vertex 3.3872614 -0.799797464 2.21099264
    endloop
  endfacet
  facet normal -0.717291247 0.691067324 0.0889900006
    outer loop
      vertex 3.35406064 -0.823944573 2.13090127
      vertex 3.3533226 -0.824782555 2.13145986
      vertex 3.38652335 -0.800635446 2.21155123
    endloop
  endfacet
  facet normal -0.717291247 0.691067324 0.0889900006
    outer loop
      vertex 3.35406064 -0.823944573 2.13090127
      vertex 3.38652335 -0.800635446 2.21155123
      vertex 3.3872614 -0.799797464 2.21099264
    endloop
  endfacet
  facet normal -0.368897246 -0.268301213 -0.889904085
    outer loop
      vertex 3.35594285 -0.826532488 2.13090127
      vertex 3.3533226 -0.824782555 2.13145986
      vertex 3.35406064 -0.823944573 2.13090127
    endloop
  endfacet
  facet normal 0.368897246 0.268301213 0.889904085
    outer loop
      vertex 3.3891436 -0.802385379 2.21099264
      vertex 3.3872614 -0.799797464 2.21099264
      vertex 3.38652335 -0.800635446 2.21155123
    endloop
  endfacet
  facet normal -0.888897753 0.381625515 0.253422081
    outer loop
      vertex 3.3533226 -0.824782555 2.13145986
      vertex 3.35298347 -0.825886948 2.13193341
      vertex 3.38618422 -0.801739838 2.21202478
    endloop
  endfacet
  facet normal -0.888897753 0.381625515 0.253422081
    outer loop
      vertex 3.3533226 -0.824782555 2.13145986
      vertex 3.38618422 -0.801739838 2.21202478
      vertex 3.38652335 -0.800635446 2.21155123
    endloop
  endfacet
  facet normal -0.368897246 -0.268301213 -0.889904085
    outer loop
      vertex 3.35594285 -0.826532488 2.13090127
      vertex 3.35298347 -0.825886948 2.13193341
      vertex 3.3533226 -0.824782555 2.13145986
    endloop
  endfacet
  facet normal 0.368897246 0.268301213 0.889904085
    outer loop
      vertex 3.3891436 -0.802385379 2.21099264
      vertex 3.38652335 -0.800635446 2.21155123
      vertex 3.38618422 -0.801739838 2.21202478
    endloop
  endfacet
  facet normal -0.925177634 0.0140846807 0.379272947
    outer loop
      vertex 3.35298347 -0.825886948 2.13193341
      vertex 3.35309487 -0.827089618 2.13224983
      vertex 3.38629562 -0.802942509 2.2123412
    endloop
  endfacet
  facet normal -0.925177634 0.0140846807 0.379272947
    outer loop
      vertex 3.35298347 -0.825886948 2.13193341
      vertex 3.38629562 -0.802942509 2.2123412
      vertex 3.38618422 -0.801739838 2.21202478
    endloop
  endfacet
  facet normal -0.368897246 -0.268301213 -0.889904085
    outer loop
      vertex 3.35594285 -0.826532488 2.13090127
      vertex 3.35309487 -0.827089618 2.13224983
      vertex 3.35298347 -0.825886948 2.13193341
    endloop
  endfacet
  facet normal 0.368897246 0.268301213 0.889904085
    outer loop
      vertex 3.3891436 -0.802385379 2.21099264
      vertex 3.38618422 -0.801739838 2.21202478
      vertex 3.38629562 -0.802942509 2.2123412
    endloop
  endfacet
  facet normal -0.820607606 -0.355600419 0.447382944
    outer loop
      vertex 3.35309487 -0.827089618 2.13224983
      vertex 3.35363985 -0.82820747 2.13236094
      vertex 3.38684061 -0.804060361 2.21245231
    endloop
  endfacet
  facet normal -0.820607606 -0.355600419 0.447382944
    outer loop
      vertex 3.35309487 -0.827089618 2.13224983
      vertex 3.38684061 -0.804060361 2.21245231
      vertex 3.38629562 -0.802942509 2.2123412
    endloop
  endfacet
  facet normal -0.368897246 -0.268301213 -0.889904085
    outer loop
      vertex 3.35594285 -0.826532488 2.13090127
      vertex 3.35363985 -0.82820747 2.13236094
      vertex 3.35309487 -0.827089618 2.13224983
    endloop
  endfacet
  facet normal 0.368897246 0.268301213 0.889904085
    outer loop
      vertex 3.3891436 -0.802385379 2.21099264
      vertex 3.38629562 -0.802942509 2.2123412
      vertex 3.38684061 -0.804060361 2.21245231
    endloop
  endfacet
  facet normal -0.59110751 -0.671148578 0.447382944
    outer loop
      vertex 3.35363985 -0.82820747 2.13236094
      vertex 3.35453545 -0.829070322 2.13224983
      vertex 3.3877362 -0.804923213 2.2123412
    endloop
  endfacet
  facet normal -0.59110751 -0.671148578 0.447382944
    outer loop
      vertex 3.35363985 -0.82820747 2.13236094
      vertex 3.3877362 -0.804923213 2.2123412
      vertex 3.38684061 -0.804060361 2.21245231
    endloop
  endfacet
  facet normal -0.368897246 -0.268301213 -0.889904085
    outer loop
      vertex 3.35594285 -0.826532488 2.13090127
      vertex 3.35453545 -0.829070322 2.13224983
      vertex 3.35363985 -0.82820747 2.13236094
    endloop
  endfacet
  facet normal 0.368897246 0.268301213 0.889904085
    outer loop
      vertex 3.3891436 -0.802385379 2.21099264
      vertex 3.38684061 -0.804060361 2.21245231
      vertex 3.3877362 -0.804923213 2.2123412
    endloop
  endfacet
  facet normal -0.271616653 -0.88452045 0.379272947
    outer loop
      vertex 3.35453545 -0.829070322 2.13224983
      vertex 3.35564531 -0.829546811 2.13193341
      vertex 3.38884606 -0.805399702 2.21202478
    endloop
  endfacet
  facet normal -0.271616653 -0.88452045 0.379272947
    outer loop
      vertex 3.35453545 -0.829070322 2.13224983
      vertex 3.38884606 -0.805399702 2.21202478
      vertex 3.3877362 -0.804923213 2.2123412
    endloop
  endfacet
  facet normal -0.368897246 -0.268301213 -0.889904085
    outer loop
      vertex 3.35594285 -0.826532488 2.13090127
      vertex 3.35564531 -0.829546811 2.13193341
      vertex 3.35453545 -0.829070322 2.13224983
    endloop
  endfacet
  facet normal 0.368897246 0.268301213 0.889904085
    outer loop
      vertex 3.3891436 -0.802385379 2.21099264
      vertex 3.3877362 -0.804923213 2.2123412
      vertex 3.38884606 -0.805399702 2.21202478
    endloop
  endfacet
  facet normal 0.0892253766 -0.963232101 0.253422081
    outer loop
      vertex 3.35564531 -0.829546811 2.13193341
      vertex 3.35680046 -0.829564397 2.13145986
      vertex 3.39000122 -0.805417288 2.21155123
    endloop
  endfacet
  facet normal 0.0892253766 -0.963232101 0.253422081
    outer loop
      vertex 3.35564531 -0.829546811 2.13193341
      vertex 3.39000122 -0.805417288 2.21155123
      vertex 3.38884606 -0.805399702 2.21202478
    endloop
  endfacet
  facet normal -0.368897246 -0.268301213 -0.889904085
    outer loop
      vertex 3.35594285 -0.826532488 2.13090127
      vertex 3.35680046 -0.829564397 2.13145986
      vertex 3.35564531 -0.829546811 2.13193341
    endloop
  endfacet
  facet normal 0.368897246 0.268301213 0.889904085
    outer loop
      vertex 3.3891436 -0.802385379 2.21099264
      vertex 3.38884606 -0.805399702 2.21202478
      vertex 3.39000122 -0.805417288 2.21155123
    endloop
  endfacet
  facet normal 0.436483652 -0.895300397 0.0889900006
    outer loop
      vertex 3.35680046 -0.829564397 2.13145986
      vertex 3.35782506 -0.829120402 2.13090127
      vertex 3.39102581 -0.804973293 2.21099264
    endloop
  endfacet
  facet normal 0.436483652 -0.895300397 0.0889900006
    outer loop
      vertex 3.35680046 -0.829564397 2.13145986
      vertex 3.39102581 -0.804973293 2.21099264
      vertex 3.39000122 -0.805417288 2.21155123
    endloop
  endfacet
  facet normal -0.368897246 -0.268301213 -0.889904085
    outer loop
      vertex 3.35594285 -0.826532488 2.13090127
      vertex 3.35782506 -0.829120402 2.13090127
      vertex 3.35680046 -0.829564397 2.13145986
    endloop
  endfacet
  facet normal 0.368897246 0.268301213 0.889904085
    outer loop
      vertex 3.3891436 -0.802385379 2.21099264
      vertex 3.39000122 -0.805417288 2.21155123
      vertex 3.39102581 -0.804973293 2.21099264
    endloop
  endfacet
endsolid h8_features
