solid e9_blank
  facet normal 0.664686455 0.0939448233 0.741192476
    outer loop
      vertex 4.68105643 -0.260383122 1.29857262
      vertex 4.71692997 -0.300089834 1.27143471
      vertex 5.16549657 0.444617304 0.774778929
    endloop
  endfacet
  facet normal 0.664686455 0.0939448233 0.741192476
    outer loop
      vertex 4.68105643 -0.260383122 1.29857262
      vertex 5.16549657 0.444617304 0.774778929
      vertex 5.12962303 0.484324016 0.80191684
    endloop
  endfacet
  facet normal -0.597892317 0.661778535 0.452298516
    outer loop
      vertex 4.68105643 -0.260383122 1.29857262
      vertex 5.12962303 0.484324016 0.80191684
      vertex 5.07644812 0.47680843 0.742621442
    endloop
  endfacet
  facet normal -0.597892317 0.661778535 0.452298516
    outer loop
      vertex 4.68105643 -0.260383122 1.29857262
      vertex 5.07644812 0.47680843 0.742621442
      vertex 4.62788151 -0.267898708 1.23927722
    endloop
  endfacet
  facet normal 0.448014167 0.743789984 -0.496044117
    outer loop
      vertex 5.12962303 0.484324016 0.80191684
      vertex 5.16549657 0.444617304 0.774778929
      vertex 5.11232166 0.437101718 0.715483531
    endloop
  endfacet
  facet normal 0.448014167 0.743789984 -0.496044117
    outer loop
      vertex 5.12962303 0.484324016 0.80191684
      vertex 5.11232166 0.437101718 0.715483531
      vertex 5.07644812 0.47680843 0.742621442
    endloop
  endfacet
  facet normal 0.597892317 -0.661778535 -0.452298516
    outer loop
      vertex 5.16549657 0.444617304 0.774778929
      vertex 4.71692997 -0.300089834 1.27143471
      vertex 4.66375505 -0.30760542 1.21213931
    endloop
  endfacet
  facet normal 0.597892317 -0.661778535 -0.452298516
    outer loop
      vertex 5.16549657 0.444617304 0.774778929
      vertex 4.66375505 -0.30760542 1.21213931
      vertex 5.11232166 0.437101718 0.715483531
    endloop
  endfacet
  facet normal -0.448014167 -0.743789984 0.496044117
    outer loop
      vertex 4.71692997 -0.300089834 1.27143471
      vertex 4.68105643 -0.260383122 1.29857262
      vertex 4.62788151 -0.267898708 1.23927722
    endloop
  endfacet
  facet normal -0.448014167 -0.743789984 0.496044117
    outer loop
      vertex 4.71692997 -0.300089834 1.27143471
      vertex 4.62788151 -0.267898708 1.23927722
      vertex 4.66375505 -0.30760542 1.21213931
    endloop
  endfacet
  facet normal -0.664686455 -0.0939448233 -0.741192476
    outer loop
      vertex 4.62788151 -0.267898708 1.23927722
      vertex 5.07644812 0.47680843 0.742621442
      vertex 5.11232166 0.437101718 0.715483531
    endloop
  endfacet
  facet normal -0.664686455 -0.0939448233 -0.741192476
    outer loop
      vertex 4.62788151 -0.267898708 1.23927722
      vertex 5.11232166 0.437101718 0.715483531
      vertex 4.66375505 -0.30760542 1.21213931
    endloop
  endfacet
endsolid e9_blank
