solid beam
  facet normal -0.9774084588777744 -0.029106271911311817 0.2093454786939493
    outer loop
      vertex 3.2209367752075195 -2.1639881134033203 2.8349759578704834
      vertex 3.228210926055908 -2.147430658340454 2.8712401390075684
      vertex 3.2210559844970703 -2.0924553871154785 2.845478057861328
    endloop
  endfacet
  facet normal -0.9774084160526679 -0.02910630074903463 0.20934567462959872
    outer loop
      vertex 3.2209367752075195 -2.1639881134033203 2.8349759578704834
      vertex 3.2210559844970703 -2.0924553871154785 2.845478057861328
      vertex 3.2137818336486816 -2.109013080596924 2.809213876724243
    endloop
  endfacet
  facet normal -0.9774074336457028 -0.029103864805701426 0.2093505999692681
    outer loop
      vertex 3.2137818336486816 -2.109013080596924 2.809213876724243
      vertex 3.206507444381714 -2.12557053565979 2.772949695587158
      vertex 3.2136623859405518 -2.1805455684661865 2.7987117767333984
    endloop
  endfacet
  facet normal -0.9774074336457028 -0.029103864805701426 0.2093505999692681
    outer loop
      vertex 3.2137818336486816 -2.109013080596924 2.809213876724243
      vertex 3.2136623859405518 -2.1805455684661865 2.7987117767333984
      vertex 3.2209367752075195 -2.1639881134033203 2.8349759578704834
    endloop
  endfacet
  facet normal -0.29447462476878733 0.8902747837528767 -0.34741258581267703
    outer loop
      vertex 4.366133689880371 -1.9265669584274292 2.2999868392944336
      vertex 4.418809413909912 -1.9187577962875366 2.2753493785858154
      vertex 4.415533542633057 -1.923113226890564 2.266964912414551
    endloop
  endfacet
  facet normal -0.29447462476878733 0.8902747837528767 -0.34741258581267703
    outer loop
      vertex 4.366133689880371 -1.9265669584274292 2.2999868392944336
      vertex 4.415533542633057 -1.923113226890564 2.266964912414551
      vertex 4.362857818603516 -1.9309223890304565 2.291602373123169
    endloop
  endfacet
  facet normal -0.2944773382042971 0.8902711760760682 -0.347419530729414
    outer loop
      vertex 4.362857818603516 -1.9309223890304565 2.291602373123169
      vertex 4.415533542633057 -1.923113226890564 2.266964912414551
      vertex 4.412257671356201 -1.9274686574935913 2.2585806846618652
    endloop
  endfacet
  facet normal -0.2944773382042971 0.8902711760760682 -0.347419530729414
    outer loop
      vertex 4.362857818603516 -1.9309223890304565 2.291602373123169
      vertex 4.412257671356201 -1.9274686574935913 2.2585806846618652
      vertex 4.35958194732666 -1.9352778196334839 2.2832181453704834
    endloop
  endfacet
  facet normal -0.29447462476878733 0.8902747837528767 -0.34741258581267703
    outer loop
      vertex 4.35958194732666 -1.9352778196334839 2.2832181453704834
      vertex 4.412257671356201 -1.9274686574935913 2.2585806846618652
      vertex 4.408981800079346 -1.9318240880966187 2.2501962184906006
    endloop
  endfacet
  facet normal -0.29447462476878733 0.8902747837528767 -0.34741258581267703
    outer loop
      vertex 4.35958194732666 -1.9352778196334839 2.2832181453704834
      vertex 4.408981800079346 -1.9318240880966187 2.2501962184906006
      vertex 4.356306076049805 -1.9396332502365112 2.2748336791992188
    endloop
  endfacet
  facet normal -0.2944754366886358 0.8902746633851145 -0.34741220606299705
    outer loop
      vertex 4.35958194732666 -1.9352778196334839 2.2832181453704834
      vertex 4.356306076049805 -1.9396332502365112 2.2748336791992188
      vertex 4.250954627990723 -1.955251693725586 2.324108600616455
    endloop
  endfacet
  facet normal -0.29447815011788947 0.8902710557127373 -0.34741915097368153
    outer loop
      vertex 4.257506370544434 -1.9465408325195312 2.3408772945404053
      vertex 4.362857818603516 -1.9309223890304565 2.291602373123169
      vertex 4.35958194732666 -1.9352778196334839 2.2832181453704834
    endloop
  endfacet
  facet normal -0.2944764765537978 0.8902729065455467 -0.3474158266795065
    outer loop
      vertex 4.250954627990723 -1.955251693725586 2.324108600616455
      vertex 4.257506370544434 -1.9465408325195312 2.3408772945404053
      vertex 4.35958194732666 -1.9352778196334839 2.2832181453704834
    endloop
  endfacet
  facet normal -0.2944754366886358 0.8902746633851145 -0.34741220606299705
    outer loop
      vertex 4.353030204772949 -1.9439886808395386 2.266449213027954
      vertex 4.349754333496094 -1.948344111442566 2.2580647468566895
      vertex 4.244402885437012 -1.9639625549316406 2.307339668273926
    endloop
  endfacet
  facet normal -0.2944754366886358 0.8902746633851145 -0.34741220606299705
    outer loop
      vertex 4.250954627990723 -1.955251693725586 2.324108600616455
      vertex 4.356306076049805 -1.9396332502365112 2.2748336791992188
      vertex 4.353030204772949 -1.9439886808395386 2.266449213027954
    endloop
  endfacet
  facet normal -0.2944754366886358 0.8902746633851145 -0.34741220606299705
    outer loop
      vertex 4.244402885437012 -1.9639625549316406 2.307339668273926
      vertex 4.250954627990723 -1.955251693725586 2.324108600616455
      vertex 4.353030204772949 -1.9439886808395386 2.266449213027954
    endloop
  endfacet
  facet normal -0.29447462476878733 0.8902747837528767 -0.34741258581267703
    outer loop
      vertex 4.356306076049805 -1.9396332502365112 2.2748336791992188
      vertex 4.408981800079346 -1.9318240880966187 2.2501962184906006
      vertex 4.40570592880249 -1.936179518699646 2.241811752319336
    endloop
  endfacet
  facet normal -0.29447462476878733 0.8902747837528767 -0.34741258581267703
    outer loop
      vertex 4.356306076049805 -1.9396332502365112 2.2748336791992188
      vertex 4.40570592880249 -1.936179518699646 2.241811752319336
      vertex 4.353030204772949 -1.9439886808395386 2.266449213027954
    endloop
  endfacet
  facet normal -0.29447462476878733 0.8902747837528767 -0.34741258581267703
    outer loop
      vertex 4.353030204772949 -1.9439886808395386 2.266449213027954
      vertex 4.40570592880249 -1.936179518699646 2.241811752319336
      vertex 4.402430057525635 -1.9405349493026733 2.2334272861480713
    endloop
  endfacet
  facet normal -0.29447462476878733 0.8902747837528767 -0.34741258581267703
    outer loop
      vertex 4.353030204772949 -1.9439886808395386 2.266449213027954
      vertex 4.402430057525635 -1.9405349493026733 2.2334272861480713
      vertex 4.349754333496094 -1.948344111442566 2.2580647468566895
    endloop
  endfacet
  facet normal -0.29447462476878733 0.8902747837528767 -0.34741258581267703
    outer loop
      vertex 4.349754333496094 -1.948344111442566 2.2580647468566895
      vertex 4.402430057525635 -1.9405349493026733 2.2334272861480713
      vertex 4.399154186248779 -1.9448903799057007 2.2250428199768066
    endloop
  endfacet
  facet normal -0.29447462476878733 0.8902747837528767 -0.34741258581267703
    outer loop
      vertex 4.349754333496094 -1.948344111442566 2.2580647468566895
      vertex 4.399154186248779 -1.9448903799057007 2.2250428199768066
      vertex 4.346478462219238 -1.9526995420455933 2.249680280685425
    endloop
  endfacet
  facet normal -0.29447408765496075 0.8902748633800079 -0.3474128370303644
    outer loop
      vertex 3.3093421459198 -2.087106466293335 2.7843515872955322
      vertex 3.414693832397461 -2.07148814201355 2.735076665878296
      vertex 3.40814208984375 -2.0801990032196045 2.7183077335357666
    endloop
  endfacet
  facet normal -0.29447408765496075 0.8902748633800079 -0.3474128370303644
    outer loop
      vertex 3.3093421459198 -2.087106466293335 2.7843515872955322
      vertex 3.40814208984375 -2.0801990032196045 2.7183077335357666
      vertex 3.302790403366089 -2.0958173274993896 2.767582654953003
    endloop
  endfacet
  facet normal -0.2944754443601871 0.890273059566331 -0.3474163094606732
    outer loop
      vertex 3.302790403366089 -2.0958173274993896 2.767582654953003
      vertex 3.40814208984375 -2.0801990032196045 2.7183077335357666
      vertex 3.401590347290039 -2.088909864425659 2.7015390396118164
    endloop
  endfacet
  facet normal -0.2944754443601871 0.890273059566331 -0.3474163094606732
    outer loop
      vertex 3.302790403366089 -2.0958173274993896 2.767582654953003
      vertex 3.401590347290039 -2.088909864425659 2.7015390396118164
      vertex 3.296238660812378 -2.1045281887054443 2.7508139610290527
    endloop
  endfacet
  facet normal -0.2944757149320533 0.8902733459906007 -0.3474153461405472
    outer loop
      vertex 4.443924427032471 -1.9343833923339844 2.214019536972046
      vertex 4.435665130615234 -1.943347454071045 2.198049306869507
      vertex 4.399154186248779 -1.9448903799057007 2.2250428199768066
    endloop
  endfacet
  facet normal -0.29447701575537766 0.8902719341735083 -0.34741786139283004
    outer loop
      vertex 4.435665130615234 -1.943347454071045 2.198049306869507
      vertex 4.323923587799072 -1.9599131345748901 2.2503130435943604
      vertex 4.346478462219238 -1.9526995420455933 2.249680280685425
    endloop
  endfacet
  facet normal -0.29447568908828364 0.8902733686861443 -0.34741530988746766
    outer loop
      vertex 4.435665130615234 -1.943347454071045 2.198049306869507
      vertex 4.346478462219238 -1.9526995420455933 2.249680280685425
      vertex 4.399154186248779 -1.9448903799057007 2.2250428199768066
    endloop
  endfacet
  facet normal -0.29447568564190685 0.8902743220844048 -0.3474128696563821
    outer loop
      vertex 4.443924427032471 -1.9343833923339844 2.214019536972046
      vertex 4.40570592880249 -1.936179518699646 2.241811752319336
      vertex 4.452183246612549 -1.9254194498062134 2.229990005493164
    endloop
  endfacet
  facet normal -0.2944752751794606 0.8902746873290388 -0.3474122816038073
    outer loop
      vertex 4.399154186248779 -1.9448903799057007 2.2250428199768066
      vertex 4.402430057525635 -1.9405349493026733 2.2334272861480713
      vertex 4.443924427032471 -1.9343833923339844 2.214019536972046
    endloop
  endfacet
  facet normal -0.2944752751794606 0.8902746873290388 -0.3474122816038073
    outer loop
      vertex 4.402430057525635 -1.9405349493026733 2.2334272861480713
      vertex 4.40570592880249 -1.936179518699646 2.241811752319336
      vertex 4.443924427032471 -1.9343833923339844 2.214019536972046
    endloop
  endfacet
  facet normal -0.29447720350708756 0.8902727094475463 -0.34741571557367706
    outer loop
      vertex 4.244402885437012 -1.9639625549316406 2.307339668273926
      vertex 4.346478462219238 -1.9526995420455933 2.249680280685425
      vertex 4.323923587799072 -1.9599131345748901 2.2503130435943604
    endloop
  endfacet
  facet normal -0.2944754366886358 0.8902746633851145 -0.34741220606299705
    outer loop
      vertex 4.346478462219238 -1.9526995420455933 2.249680280685425
      vertex 4.244402885437012 -1.9639625549316406 2.307339668273926
      vertex 4.349754333496094 -1.948344111442566 2.2580647468566895
    endloop
  endfacet
  facet normal -0.29447557471145813 0.8902746429230456 -0.34741214150717326
    outer loop
      vertex 4.408981800079346 -1.9318240880966187 2.2501962184906006
      vertex 4.452183246612549 -1.9254194498062134 2.229990005493164
      vertex 4.40570592880249 -1.936179518699646 2.241811752319336
    endloop
  endfacet
  facet normal -0.2944769227912103 0.890272962055311 -0.34741530619228933
    outer loop
      vertex 4.244402885437012 -1.9639625549316406 2.307339668273926
      vertex 4.323923587799072 -1.9599131345748901 2.2503130435943604
      vertex 4.21218204498291 -1.976478934288025 2.302576780319214
    endloop
  endfacet
  facet normal -0.29447718715965093 0.890273190253061 -0.34741449733593033
    outer loop
      vertex 4.452183246612549 -1.9254194498062134 2.229990005493164
      vertex 4.412257671356201 -1.9274686574935913 2.2585806846618652
      vertex 4.460442543029785 -1.9164553880691528 2.245960235595703
    endloop
  endfacet
  facet normal -0.29447420487269405 0.8902756330307398 -0.3474107653719302
    outer loop
      vertex 4.460442543029785 -1.9164553880691528 2.245960235595703
      vertex 4.418809413909912 -1.9187577962875366 2.2753493785858154
      vertex 4.4687018394470215 -1.9074914455413818 2.261930465698242
    endloop
  endfacet
  facet normal -0.2944779495222967 0.8902710854503987 -0.34741924479814384
    outer loop
      vertex 4.412257671356201 -1.9274686574935913 2.2585806846618652
      vertex 4.415533542633057 -1.923113226890564 2.266964912414551
      vertex 4.460442543029785 -1.9164553880691528 2.245960235595703
    endloop
  endfacet
  facet normal -0.29447523611191123 0.8902746931208442 -0.347412299876416
    outer loop
      vertex 4.415533542633057 -1.923113226890564 2.266964912414551
      vertex 4.418809413909912 -1.9187577962875366 2.2753493785858154
      vertex 4.460442543029785 -1.9164553880691528 2.245960235595703
    endloop
  endfacet
  facet normal -0.29447557471145813 0.8902746429230456 -0.34741214150717326
    outer loop
      vertex 4.408981800079346 -1.9318240880966187 2.2501962184906006
      vertex 4.412257671356201 -1.9274686574935913 2.2585806846618652
      vertex 4.452183246612549 -1.9254194498062134 2.229990005493164
    endloop
  endfacet
  facet normal -0.29447715152718024 0.8902722495661263 -0.3474169381030627
    outer loop
      vertex 4.052819728851318 -1.9691461324691772 2.456446409225464
      vertex 4.26076078414917 -1.9383187294006348 2.3591883182525635
      vertex 4.257506370544434 -1.9465408325195312 2.3408772945404053
    endloop
  endfacet
  facet normal -0.2944754366886358 0.8902746633851145 -0.34741220606299705
    outer loop
      vertex 4.366133689880371 -1.9265669584274292 2.2999868392944336
      vertex 4.362857818603516 -1.9309223890304565 2.291602373123169
      vertex 4.257506370544434 -1.9465408325195312 2.3408772945404053
    endloop
  endfacet
  facet normal -0.29447452782546807 0.8902748727410463 -0.34741243994405474
    outer loop
      vertex 4.4687018394470215 -1.9074914455413818 2.261930465698242
      vertex 4.366133689880371 -1.9265669584274292 2.2999868392944336
      vertex 4.26076078414917 -1.9383187294006348 2.3591883182525635
    endloop
  endfacet
  facet normal -0.294476822032391 0.8902723228583509 -0.347417029574112
    outer loop
      vertex 4.257506370544434 -1.9465408325195312 2.3408772945404053
      vertex 4.26076078414917 -1.9383187294006348 2.3591883182525635
      vertex 4.366133689880371 -1.9265669584274292 2.2999868392944336
    endloop
  endfacet
  facet normal -0.2944744252843187 0.8902750489760861 -0.3474120752422084
    outer loop
      vertex 4.418809413909912 -1.9187577962875366 2.2753493785858154
      vertex 4.366133689880371 -1.9265669584274292 2.2999868392944336
      vertex 4.4687018394470215 -1.9074914455413818 2.261930465698242
    endloop
  endfacet
  facet normal -0.29447657027275714 0.890272892651824 -0.3474157828449188
    outer loop
      vertex 4.250954627990723 -1.955251693725586 2.324108600616455
      vertex 4.052819728851318 -1.9691461324691772 2.456446409225464
      vertex 4.257506370544434 -1.9465408325195312 2.3408772945404053
    endloop
  endfacet
  facet normal -0.2944750097090598 0.8902747266852709 -0.3474124057691599
    outer loop
      vertex 4.100440502166748 -1.9930446147918701 2.3548402786254883
      vertex 4.250954627990723 -1.955251693725586 2.324108600616455
      vertex 4.244402885437012 -1.9639625549316406 2.307339668273926
    endloop
  endfacet
  facet normal -0.29447494909330074 0.890274987978268 -0.34741178756166724
    outer loop
      vertex 4.250954627990723 -1.955251693725586 2.324108600616455
      vertex 4.100440502166748 -1.9930446147918701 2.3548402786254883
      vertex 3.988698720932007 -2.009610414505005 2.407104015350342
    endloop
  endfacet
  facet normal -0.29447608847179885 0.8902740713288838 -0.3474131707892534
    outer loop
      vertex 3.8769571781158447 -2.0261762142181396 2.4593677520751953
      vertex 4.052819728851318 -1.9691461324691772 2.456446409225464
      vertex 3.988698720932007 -2.009610414505005 2.407104015350342
    endloop
  endfacet
  facet normal -0.2944735249017066 0.8902743672189792 -0.3474145854808199
    outer loop
      vertex 3.7652153968811035 -2.0427417755126953 2.5116312503814697
      vertex 3.844878911972046 -1.9999734163284302 2.553704261779785
      vertex 3.8769571781158447 -2.0261762142181396 2.4593677520751953
    endloop
  endfacet
  facet normal -0.29447542746358174 0.890273983024716 -0.3474139573613129
    outer loop
      vertex 4.052819728851318 -1.9691461324691772 2.456446409225464
      vertex 4.250954627990723 -1.955251693725586 2.324108600616455
      vertex 3.988698720932007 -2.009610414505005 2.407104015350342
    endloop
  endfacet
  facet normal -0.2944778885887347 0.8902716779639686 -0.3474177781109372
    outer loop
      vertex 3.5417323112487793 -2.075873374938965 2.6161587238311768
      vertex 3.40814208984375 -2.0801990032196045 2.7183077335357666
      vertex 3.6534738540649414 -2.05930757522583 2.5638949871063232
    endloop
  endfacet
  facet normal -0.29447027778728213 0.8902792825569738 -0.3474047416914758
    outer loop
      vertex 3.401590347290039 -2.088909864425659 2.7015390396118164
      vertex 3.5417323112487793 -2.075873374938965 2.6161587238311768
      vertex 3.429990768432617 -2.0924389362335205 2.668422222137451
    endloop
  endfacet
  facet normal -0.2944712133121623 0.8902786849030726 -0.3474054802931567
    outer loop
      vertex 3.296238660812378 -2.1045281887054443 2.7508139610290527
      vertex 3.401590347290039 -2.088909864425659 2.7015390396118164
      vertex 3.429990768432617 -2.0924389362335205 2.668422222137451
    endloop
  endfacet
  facet normal -0.29447730388692206 0.8902724553648232 -0.3474162815905123
    outer loop
      vertex 3.296238660812378 -2.1045281887054443 2.7508139610290527
      vertex 3.429990768432617 -2.0924389362335205 2.668422222137451
      vertex 3.318249225616455 -2.1090047359466553 2.7206859588623047
    endloop
  endfacet
  facet normal -0.2944765035410492 0.8902729212563498 -0.3474157661073022
    outer loop
      vertex 3.206507444381714 -2.12557053565979 2.772949695587158
      vertex 3.296238660812378 -2.1045281887054443 2.7508139610290527
      vertex 3.318249225616455 -2.1090047359466553 2.7206859588623047
    endloop
  endfacet
  facet normal -0.29447614850644244 0.890273991509799 -0.3474133244451374
    outer loop
      vertex 3.7652153968811035 -2.0427417755126953 2.5116312503814697
      vertex 3.6534738540649414 -2.05930757522583 2.5638949871063232
      vertex 3.6369378566741943 -2.0308008193969727 2.6509621143341064
    endloop
  endfacet
  facet normal -0.2944749584638744 0.89027478611579 -0.34741229690985886
    outer loop
      vertex 3.7652153968811035 -2.0427417755126953 2.5116312503814697
      vertex 3.6369378566741943 -2.0308008193969727 2.6509621143341064
      vertex 3.844878911972046 -1.9999734163284302 2.553704261779785
    endloop
  endfacet
  facet normal -0.29447644694899366 0.8902729109344212 -0.34741584052637686
    outer loop
      vertex 3.40814208984375 -2.0801990032196045 2.7183077335357666
      vertex 3.5417323112487793 -2.075873374938965 2.6161587238311768
      vertex 3.401590347290039 -2.088909864425659 2.7015390396118164
    endloop
  endfacet
  facet normal -0.29447589531775337 0.8902733760499698 -0.3474151162131498
    outer loop
      vertex 4.052819728851318 -1.9691461324691772 2.456446409225464
      vertex 3.8769571781158447 -2.0261762142181396 2.4593677520751953
      vertex 3.844878911972046 -1.9999734163284302 2.553704261779785
    endloop
  endfacet
  facet normal -0.2944752692733553 0.8902743071664528 -0.3474132608086186
    outer loop
      vertex 3.6534738540649414 -2.05930757522583 2.5638949871063232
      vertex 3.40814208984375 -2.0801990032196045 2.7183077335357666
      vertex 3.6369378566741943 -2.0308008193969727 2.6509621143341064
    endloop
  endfacet
  facet normal -0.29447478846070746 0.8902752269204322 -0.34741131140593945
    outer loop
      vertex 3.6369378566741943 -2.0308008193969727 2.6509621143341064
      vertex 3.414693832397461 -2.07148814201355 2.735076665878296
      vertex 3.428997039794922 -2.0616281032562256 2.748220205307007
    endloop
  endfacet
  facet normal -0.2944750938869915 0.8902747142058236 -0.34741236639760914
    outer loop
      vertex 3.414693832397461 -2.07148814201355 2.735076665878296
      vertex 3.6369378566741943 -2.0308008193969727 2.6509621143341064
      vertex 3.40814208984375 -2.0801990032196045 2.7183077335357666
    endloop
  endfacet
  facet normal -0.2944786207494179 0.8902725886685849 -0.3474148237868627
    outer loop
      vertex 3.302790403366089 -2.0958173274993896 2.767582654953003
      vertex 3.296238660812378 -2.1045281887054443 2.7508139610290527
      vertex 3.2137818336486816 -2.109013080596924 2.809213876724243
    endloop
  endfacet
  facet normal -0.2944757567007857 0.8902751920693273 -0.34741058000789526
    outer loop
      vertex 3.206507444381714 -2.12557053565979 2.772949695587158
      vertex 3.2137818336486816 -2.109013080596924 2.809213876724243
      vertex 3.296238660812378 -2.1045281887054443 2.7508139610290527
    endloop
  endfacet
  facet normal -0.2944772640459672 0.8902743924751452 -0.3474113513732864
    outer loop
      vertex 3.3093421459198 -2.087106466293335 2.7843515872955322
      vertex 3.302790403366089 -2.0958173274993896 2.767582654953003
      vertex 3.2137818336486816 -2.109013080596924 2.809213876724243
    endloop
  endfacet
  facet normal -0.29447428873302606 0.8902751906252679 -0.34741182799714987
    outer loop
      vertex 3.2210559844970703 -2.0924553871154785 2.845478057861328
      vertex 3.428997039794922 -2.0616281032562256 2.748220205307007
      vertex 3.414693832397461 -2.07148814201355 2.735076665878296
    endloop
  endfacet
  facet normal -0.2944717376515534 0.8902779877858302 -0.3474068223113758
    outer loop
      vertex 3.2210559844970703 -2.0924553871154785 2.845478057861328
      vertex 3.414693832397461 -2.07148814201355 2.735076665878296
      vertex 3.3093421459198 -2.087106466293335 2.7843515872955322
    endloop
  endfacet
  facet normal -0.2944780806693408 0.8902721141175088 -0.3474164976365434
    outer loop
      vertex 3.2137818336486816 -2.109013080596924 2.809213876724243
      vertex 3.2210559844970703 -2.0924553871154785 2.845478057861328
      vertex 3.3093421459198 -2.087106466293335 2.7843515872955322
    endloop
  endfacet
  facet normal -0.2944762708476443 0.8902722188081625 -0.34741776340028413
    outer loop
      vertex 4.21218204498291 -1.976478934288025 2.302576780319214
      vertex 4.100440502166748 -1.9930446147918701 2.3548402786254883
      vertex 4.244402885437012 -1.9639625549316406 2.307339668273926
    endloop
  endfacet
  facet normal 0.29447462476878733 -0.8902747837528767 0.34741258581267703
    outer loop
      vertex 3.4323623180389404 -2.1249046325683594 2.7559216022491455
      vertex 3.3270108699798584 -2.1405229568481445 2.805196523666382
      vertex 3.3204591274261475 -2.149233818054199 2.7884275913238525
    endloop
  endfacet
  facet normal 0.29447462476878733 -0.8902747837528767 0.34741258581267703
    outer loop
      vertex 3.4323623180389404 -2.1249046325683594 2.7559216022491455
      vertex 3.3204591274261475 -2.149233818054199 2.7884275913238525
      vertex 3.4258105754852295 -2.133615493774414 2.739152669906616
    endloop
  endfacet
  facet normal 0.29447462476878733 -0.8902747837528767 0.34741258581267703
    outer loop
      vertex 3.4258105754852295 -2.133615493774414 2.739152669906616
      vertex 3.3204591274261475 -2.149233818054199 2.7884275913238525
      vertex 3.3139073848724365 -2.157944679260254 2.7716586589813232
    endloop
  endfacet
  facet normal 0.29447462476878733 -0.8902747837528767 0.34741258581267703
    outer loop
      vertex 3.4258105754852295 -2.133615493774414 2.739152669906616
      vertex 3.3139073848724365 -2.157944679260254 2.7716586589813232
      vertex 3.4192588329315186 -2.1423263549804688 2.722383737564087
    endloop
  endfacet
  facet normal 0.29447462476878733 -0.8902747837528767 0.34741258581267703
    outer loop
      vertex 4.436478137969971 -1.9721742868423462 2.296194314956665
      vertex 4.38380241394043 -1.9799834489822388 2.320831775665283
      vertex 4.380526542663574 -1.9843388795852661 2.3124473094940186
    endloop
  endfacet
  facet normal 0.29447462476878733 -0.8902747837528767 0.34741258581267703
    outer loop
      vertex 4.436478137969971 -1.9721742868423462 2.296194314956665
      vertex 4.380526542663574 -1.9843388795852661 2.3124473094940186
      vertex 4.433202266693115 -1.9765297174453735 2.2878098487854004
    endloop
  endfacet
  facet normal 0.2944743624603388 -0.8902748226401492 0.3474127084990244
    outer loop
      vertex 4.377250671386719 -1.9886943101882935 2.304062843322754
      vertex 4.380526542663574 -1.9843388795852661 2.3124473094940186
      vertex 4.275174617767334 -1.9999573230743408 2.361722230911255
    endloop
  endfacet
  facet normal 0.2944743624603388 -0.8902748226401492 0.3474127084990244
    outer loop
      vertex 4.268622875213623 -2.0086681842803955 2.3449532985687256
      vertex 4.373974800109863 -1.9930497407913208 2.2956783771514893
      vertex 4.377250671386719 -1.9886943101882935 2.304062843322754
    endloop
  endfacet
  facet normal 0.2944743624603388 -0.8902748226401492 0.3474127084990244
    outer loop
      vertex 4.275174617767334 -1.9999573230743408 2.361722230911255
      vertex 4.268622875213623 -2.0086681842803955 2.3449532985687256
      vertex 4.377250671386719 -1.9886943101882935 2.304062843322754
    endloop
  endfacet
  facet normal 0.29447462476878733 -0.8902747837528767 0.34741258581267703
    outer loop
      vertex 4.433202266693115 -1.9765297174453735 2.2878098487854004
      vertex 4.380526542663574 -1.9843388795852661 2.3124473094940186
      vertex 4.377250671386719 -1.9886943101882935 2.304062843322754
    endloop
  endfacet
  facet normal 0.29447462476878733 -0.8902747837528767 0.34741258581267703
    outer loop
      vertex 4.433202266693115 -1.9765297174453735 2.2878098487854004
      vertex 4.377250671386719 -1.9886943101882935 2.304062843322754
      vertex 4.42992639541626 -1.9808851480484009 2.2794253826141357
    endloop
  endfacet
  facet normal 0.29447462476878733 -0.8902747837528767 0.34741258581267703
    outer loop
      vertex 4.42992639541626 -1.9808851480484009 2.2794253826141357
      vertex 4.377250671386719 -1.9886943101882935 2.304062843322754
      vertex 4.373974800109863 -1.9930497407913208 2.2956783771514893
    endloop
  endfacet
  facet normal 0.29447462476878733 -0.8902747837528767 0.34741258581267703
    outer loop
      vertex 4.42992639541626 -1.9808851480484009 2.2794253826141357
      vertex 4.373974800109863 -1.9930497407913208 2.2956783771514893
      vertex 4.426650524139404 -1.9852405786514282 2.271040916442871
    endloop
  endfacet
  facet normal 0.2944743624603388 -0.8902748226401492 0.3474127084990244
    outer loop
      vertex 4.373974800109863 -1.9930497407913208 2.2956783771514893
      vertex 4.268622875213623 -2.0086681842803955 2.3449532985687256
      vertex 4.262071132659912 -2.01737904548645 2.3281843662261963
    endloop
  endfacet
  facet normal 0.2944752888532864 -0.8902726318203668 0.3474175373904018
    outer loop
      vertex 4.373974800109863 -1.9930497407913208 2.2956783771514893
      vertex 4.262071132659912 -2.01737904548645 2.3281843662261963
      vertex 4.367423057556152 -2.001760721206665 2.27890944480896
    endloop
  endfacet
  facet normal 0.2944762486080239 -0.8902745430166569 0.3474118263131356
    outer loop
      vertex 4.420098781585693 -1.993951439857483 2.254271984100342
      vertex 4.367423057556152 -2.001760721206665 2.27890944480896
      vertex 4.364147186279297 -2.0061161518096924 2.2705249786376953
    endloop
  endfacet
  facet normal 0.2944762486080239 -0.8902745430166569 0.3474118263131356
    outer loop
      vertex 4.420098781585693 -1.993951439857483 2.254271984100342
      vertex 4.364147186279297 -2.0061161518096924 2.2705249786376953
      vertex 4.416822910308838 -1.9983068704605103 2.245887517929077
    endloop
  endfacet
  facet normal 0.29447528603396017 -0.8902727600996148 0.3474172110587372
    outer loop
      vertex 3.3139073848724365 -2.157944679260254 2.7716586589813232
      vertex 3.2136623859405518 -2.1805455684661865 2.7987117767333984
      vertex 3.3269107341766357 -2.1637566089630127 2.7457435131073
    endloop
  endfacet
  facet normal 0.29447542709430263 -0.8902756436475383 0.34740970217538447
    outer loop
      vertex 3.3269107341766357 -2.1637566089630127 2.7457435131073
      vertex 3.4401588439941406 -2.1469674110412598 2.692775011062622
      vertex 3.4192588329315186 -2.1423263549804688 2.722383737564087
    endloop
  endfacet
  facet normal 0.29447663986190803 -0.8902721045729634 0.3474177433506623
    outer loop
      vertex 3.3269107341766357 -2.1637566089630127 2.7457435131073
      vertex 3.4192588329315186 -2.1423263549804688 2.722383737564087
      vertex 3.3139073848724365 -2.157944679260254 2.7716586589813232
    endloop
  endfacet
  facet normal 0.29447137696571196 -0.89027795737675 0.3474072059658509
    outer loop
      vertex 3.4401588439941406 -2.1469674110412598 2.692775011062622
      vertex 3.5534071922302246 -2.130178451538086 2.6398067474365234
      vertex 3.4192588329315186 -2.1423263549804688 2.722383737564087
    endloop
  endfacet
  facet normal 0.2944742402253602 -0.8902755170615765 0.3474110325888335
    outer loop
      vertex 3.2209367752075195 -2.1639881134033203 2.8349759578704834
      vertex 3.2136623859405518 -2.1805455684661865 2.7987117767333984
      vertex 3.3139073848724365 -2.157944679260254 2.7716586589813232
    endloop
  endfacet
  facet normal 0.2944774007823888 -0.890272323167229 0.34741653822302904
    outer loop
      vertex 3.6666553020477295 -2.113389253616333 2.586838483810425
      vertex 3.4258105754852295 -2.133615493774414 2.739152669906616
      vertex 3.5534071922302246 -2.130178451538086 2.6398067474365234
    endloop
  endfacet
  facet normal 0.2944754263186674 -0.8902738602107256 0.3474142730515433
    outer loop
      vertex 3.8931517601013184 -2.0798110961914062 2.4809017181396484
      vertex 3.8603203296661377 -2.053719997406006 2.5755906105041504
      vertex 3.7799036502838135 -2.09660005569458 2.533870220184326
    endloop
  endfacet
  facet normal 0.2944747675322758 -0.8902752339675415 0.34741131108651513
    outer loop
      vertex 4.006400108337402 -2.0630218982696533 2.42793345451355
      vertex 4.071023464202881 -2.0224833488464355 2.477041006088257
      vertex 3.8931517601013184 -2.0798110961914062 2.4809017181396484
    endloop
  endfacet
  facet normal 0.2944757316971322 -0.8902739520609505 0.347413778833274
    outer loop
      vertex 3.6666553020477295 -2.113389253616333 2.586838483810425
      vertex 3.7799036502838135 -2.09660005569458 2.533870220184326
      vertex 3.8603203296661377 -2.053719997406006 2.5755906105041504
    endloop
  endfacet
  facet normal 0.2944757319306127 -0.8902739535990238 0.3474137746939418
    outer loop
      vertex 3.6666553020477295 -2.113389253616333 2.586838483810425
      vertex 3.8603203296661377 -2.053719997406006 2.5755906105041504
      vertex 3.6496171951293945 -2.0849568843841553 2.674140453338623
    endloop
  endfacet
  facet normal 0.2944748292980373 -0.8902752425052806 0.3474112368534672
    outer loop
      vertex 4.006400108337402 -2.0630218982696533 2.42793345451355
      vertex 4.268622875213623 -2.0086681842803955 2.3449532985687256
      vertex 4.071023464202881 -2.0224833488464355 2.477041006088257
    endloop
  endfacet
  facet normal 0.2944750957959519 -0.8902747139228185 0.34741236550475363
    outer loop
      vertex 3.3270108699798584 -2.1405229568481445 2.805196523666382
      vertex 3.2209367752075195 -2.1639881134033203 2.8349759578704834
      vertex 3.3204591274261475 -2.149233818054199 2.7884275913238525
    endloop
  endfacet
  facet normal 0.2944750957959519 -0.8902747139228185 0.34741236550475363
    outer loop
      vertex 3.3204591274261475 -2.149233818054199 2.7884275913238525
      vertex 3.2209367752075195 -2.1639881134033203 2.8349759578704834
      vertex 3.3139073848724365 -2.157944679260254 2.7716586589813232
    endloop
  endfacet
  facet normal 0.2944753614868392 -0.8902744461230527 0.34741282655867367
    outer loop
      vertex 3.4389140605926514 -2.1161937713623047 2.7726902961730957
      vertex 3.228210926055908 -2.147430658340454 2.8712401390075684
      vertex 3.3270108699798584 -2.1405229568481445 2.805196523666382
    endloop
  endfacet
  facet normal 0.29447510524732706 -0.890274690437862 0.3474124176758003
    outer loop
      vertex 3.2209367752075195 -2.1639881134033203 2.8349759578704834
      vertex 3.3270108699798584 -2.1405229568481445 2.805196523666382
      vertex 3.228210926055908 -2.147430658340454 2.8712401390075684
    endloop
  endfacet
  facet normal 0.2944759814755072 -0.8902729799401372 0.3474160582393175
    outer loop
      vertex 3.3270108699798584 -2.1405229568481445 2.805196523666382
      vertex 3.4323623180389404 -2.1249046325683594 2.7559216022491455
      vertex 3.4389140605926514 -2.1161937713623047 2.7726902961730957
    endloop
  endfacet
  facet normal 0.29447445298426395 -0.8902748092199707 0.3474126661593721
    outer loop
      vertex 3.4258105754852295 -2.133615493774414 2.739152669906616
      vertex 3.4192588329315186 -2.1423263549804688 2.722383737564087
      vertex 3.5534071922302246 -2.130178451538086 2.6398067474365234
    endloop
  endfacet
  facet normal 0.2944754849662578 -0.8902746562278947 0.3474121834826627
    outer loop
      vertex 3.6496171951293945 -2.0849568843841553 2.674140453338623
      vertex 3.4323623180389404 -2.1249046325683594 2.7559216022491455
      vertex 3.4258105754852295 -2.133615493774414 2.739152669906616
    endloop
  endfacet
  facet normal 0.29447579111444916 -0.8902739322310786 0.34741377928535283
    outer loop
      vertex 3.6496171951293945 -2.0849568843841553 2.674140453338623
      vertex 3.4258105754852295 -2.133615493774414 2.739152669906616
      vertex 3.6666553020477295 -2.113389253616333 2.586838483810425
    endloop
  endfacet
  facet normal 0.2944745088977006 -0.8902742462836724 0.3474140613353139
    outer loop
      vertex 3.8603203296661377 -2.053719997406006 2.5755906105041504
      vertex 3.8931517601013184 -2.0798110961914062 2.4809017181396484
      vertex 4.071023464202881 -2.0224833488464355 2.477041006088257
    endloop
  endfacet
  facet normal 0.29447652483371134 -0.890272899388109 0.34741580409784256
    outer loop
      vertex 3.4389140605926514 -2.1161937713623047 2.7726902961730957
      vertex 3.4323623180389404 -2.1249046325683594 2.7559216022491455
      vertex 3.6496171951293945 -2.0849568843841553 2.674140453338623
    endloop
  endfacet
  facet normal 0.2944757297887085 -0.8902733506186192 0.3474153216881843
    outer loop
      vertex 4.268622875213623 -2.0086681842803955 2.3449532985687256
      vertex 4.006400108337402 -2.0630218982696533 2.42793345451355
      vertex 4.119647979736328 -2.0462329387664795 2.374965190887451
    endloop
  endfacet
  facet normal 0.29447373100788715 -0.8902748275966244 0.34741323102912375
    outer loop
      vertex 4.262071132659912 -2.01737904548645 2.3281843662261963
      vertex 4.232896327972412 -2.0294437408447266 2.3219966888427734
      vertex 4.346144676208496 -2.0126547813415527 2.269028425216675
    endloop
  endfacet
  facet normal 0.2944732927584587 -0.8902752280908997 0.34741257619678584
    outer loop
      vertex 4.346144676208496 -2.0126547813415527 2.269028425216675
      vertex 4.364147186279297 -2.0061161518096924 2.2705249786376953
      vertex 4.262071132659912 -2.01737904548645 2.3281843662261963
    endloop
  endfacet
  facet normal 0.2944735505429882 -0.8902749430065303 0.34741308824701106
    outer loop
      vertex 4.364147186279297 -2.0061161518096924 2.2705249786376953
      vertex 4.367423057556152 -2.001760721206665 2.27890944480896
      vertex 4.262071132659912 -2.01737904548645 2.3281843662261963
    endloop
  endfacet
  facet normal 0.2944754335595541 -0.8902746638490049 0.34741220752652624
    outer loop
      vertex 4.262071132659912 -2.01737904548645 2.3281843662261963
      vertex 4.268622875213623 -2.0086681842803955 2.3449532985687256
      vertex 4.119647979736328 -2.0462329387664795 2.374965190887451
    endloop
  endfacet
  facet normal 0.2944743954493751 -0.8902770068580569 0.3474070832389349
    outer loop
      vertex 4.364147186279297 -2.0061161518096924 2.2705249786376953
      vertex 4.346144676208496 -2.0126547813415527 2.269028425216675
      vertex 4.416822910308838 -1.9983068704605103 2.245887517929077
    endloop
  endfacet
  facet normal 0.2944754366886358 -0.8902746633851145 0.34741220606299705
    outer loop
      vertex 4.071023464202881 -2.0224833488464355 2.477041006088257
      vertex 4.268622875213623 -2.0086681842803955 2.3449532985687256
      vertex 4.275174617767334 -1.9999573230743408 2.361722230911255
    endloop
  endfacet
  facet normal 0.2944770505407883 -0.8902725173987701 0.34741633736664507
    outer loop
      vertex 4.467651844024658 -1.9869016408920288 2.2320303916931152
      vertex 4.416822910308838 -1.9983068704605103 2.245887517929077
      vertex 4.45939302444458 -1.9958655834197998 2.216060161590576
    endloop
  endfacet
  facet normal 0.2944762715531577 -0.8902745396149897 0.3474118155812621
    outer loop
      vertex 4.420098781585693 -1.993951439857483 2.254271984100342
      vertex 4.416822910308838 -1.9983068704605103 2.245887517929077
      vertex 4.467651844024658 -1.9869016408920288 2.2320303916931152
    endloop
  endfacet
  facet normal 0.29447798691966676 -0.8902722318312166 0.34741627545353315
    outer loop
      vertex 4.373974800109863 -1.9930497407913208 2.2956783771514893
      vertex 4.367423057556152 -2.001760721206665 2.27890944480896
      vertex 4.420098781585693 -1.993951439857483 2.254271984100342
    endloop
  endfacet
  facet normal 0.29447462476878733 -0.8902747837528767 0.34741258581267703
    outer loop
      vertex 4.373974800109863 -1.9930497407913208 2.2956783771514893
      vertex 4.420098781585693 -1.993951439857483 2.254271984100342
      vertex 4.426650524139404 -1.9852405786514282 2.271040916442871
    endloop
  endfacet
  facet normal 0.2944762715531577 -0.8902745396149897 0.3474118155812621
    outer loop
      vertex 4.426650524139404 -1.9852405786514282 2.271040916442871
      vertex 4.420098781585693 -1.993951439857483 2.254271984100342
      vertex 4.467651844024658 -1.9869016408920288 2.2320303916931152
    endloop
  endfacet
  facet normal 0.29447627773712265 -0.8902732260678733 0.3474151764053933
    outer loop
      vertex 4.45939302444458 -1.9958655834197998 2.216060161590576
      vertex 4.416822910308838 -1.9983068704605103 2.245887517929077
      vertex 4.346144676208496 -2.0126547813415527 2.269028425216675
    endloop
  endfacet
  facet normal 0.2944743624603388 -0.8902748226401492 0.3474127084990244
    outer loop
      vertex 4.281726360321045 -1.9912464618682861 2.378491163253784
      vertex 4.275174617767334 -1.9999573230743408 2.361722230911255
      vertex 4.38380241394043 -1.9799834489822388 2.320831775665283
    endloop
  endfacet
  facet normal 0.2944743624603388 -0.8902748226401492 0.3474127084990244
    outer loop
      vertex 4.380526542663574 -1.9843388795852661 2.3124473094940186
      vertex 4.38380241394043 -1.9799834489822388 2.320831775665283
      vertex 4.275174617767334 -1.9999573230743408 2.361722230911255
    endloop
  endfacet
  facet normal 0.29447719951022566 -0.8902716851053086 0.34741834388582443
    outer loop
      vertex 4.492429733276367 -1.9600095748901367 2.2799413204193115
      vertex 4.281726360321045 -1.9912464618682861 2.378491163253784
      vertex 4.38380241394043 -1.9799834489822388 2.320831775665283
    endloop
  endfacet
  facet normal 0.2944754366886358 -0.8902746633851145 0.34741220606299705
    outer loop
      vertex 4.275174617767334 -1.9999573230743408 2.361722230911255
      vertex 4.281726360321045 -1.9912464618682861 2.378491163253784
      vertex 4.071023464202881 -2.0224833488464355 2.477041006088257
    endloop
  endfacet
  facet normal 0.2944765695297348 -0.8902744954392459 0.3474116762119483
    outer loop
      vertex 4.484170436859131 -1.9689736366271973 2.2639708518981934
      vertex 4.433202266693115 -1.9765297174453735 2.2878098487854004
      vertex 4.42992639541626 -1.9808851480484009 2.2794253826141357
    endloop
  endfacet
  facet normal 0.2944772939121113 -0.8902743880473877 0.34741133740430713
    outer loop
      vertex 4.426650524139404 -1.9852405786514282 2.271040916442871
      vertex 4.4759111404418945 -1.9779375791549683 2.2480006217956543
      vertex 4.42992639541626 -1.9808851480484009 2.2794253826141357
    endloop
  endfacet
  facet normal 0.2944761880089854 -0.8902754232446846 0.3474096220057738
    outer loop
      vertex 4.4759111404418945 -1.9779375791549683 2.2480006217956543
      vertex 4.484170436859131 -1.9689736366271973 2.2639708518981934
      vertex 4.42992639541626 -1.9808851480484009 2.2794253826141357
    endloop
  endfacet
  facet normal 0.2944760685396877 -0.8902749688524056 0.3474108876996475
    outer loop
      vertex 4.492429733276367 -1.9600095748901367 2.2799413204193115
      vertex 4.436478137969971 -1.9721742868423462 2.296194314956665
      vertex 4.484170436859131 -1.9689736366271973 2.2639708518981934
    endloop
  endfacet
  facet normal 0.2944765695297348 -0.8902744954392459 0.3474116762119483
    outer loop
      vertex 4.433202266693115 -1.9765297174453735 2.2878098487854004
      vertex 4.484170436859131 -1.9689736366271973 2.2639708518981934
      vertex 4.436478137969971 -1.9721742868423462 2.296194314956665
    endloop
  endfacet
  facet normal 0.294478101384127 -0.890270161366428 0.3474214840590521
    outer loop
      vertex 4.38380241394043 -1.9799834489822388 2.320831775665283
      vertex 4.436478137969971 -1.9721742868423462 2.296194314956665
      vertex 4.492429733276367 -1.9600095748901367 2.2799413204193115
    endloop
  endfacet
  facet normal 0.29447828192128656 -0.8902730744434911 0.3474138661562339
    outer loop
      vertex 4.4759111404418945 -1.9779375791549683 2.2480006217956543
      vertex 4.426650524139404 -1.9852405786514282 2.271040916442871
      vertex 4.467651844024658 -1.9869016408920288 2.2320303916931152
    endloop
  endfacet
  facet normal 0.2944748655671564 -0.8902757999749665 0.3474097775367563
    outer loop
      vertex 4.119647979736328 -2.0462329387664795 2.374965190887451
      vertex 4.232896327972412 -2.0294437408447266 2.3219966888427734
      vertex 4.262071132659912 -2.01737904548645 2.3281843662261963
    endloop
  endfacet
  facet normal -0.32758179165666684 -0.4355545992430404 -0.8384404336941548
    outer loop
      vertex 4.299361228942871 -1.9915724992752075 2.276355743408203
      vertex 4.294943809509277 -1.9782183170318604 2.271144390106201
      vertex 4.373957633972168 -1.9665045738220215 2.2341883182525635
    endloop
  endfacet
  facet normal -0.3275908661298927 -0.4355370054559014 -0.8384460276647345
    outer loop
      vertex 4.299361228942871 -1.9915724992752075 2.276355743408203
      vertex 4.373957633972168 -1.9665045738220215 2.2341883182525635
      vertex 4.3783745765686035 -1.979858636856079 2.2393994331359863
    endloop
  endfacet
  facet normal -0.32759188540606626 -0.4355339238988814 -0.8384472301518695
    outer loop
      vertex 4.303778171539307 -2.0049266815185547 2.281566858291626
      vertex 4.299361228942871 -1.9915724992752075 2.276355743408203
      vertex 4.3783745765686035 -1.979858636856079 2.2393994331359863
    endloop
  endfacet
  facet normal -0.3275856765418412 -0.435545961850441 -0.838443402765147
    outer loop
      vertex 4.303778171539307 -2.0049266815185547 2.281566858291626
      vertex 4.3783745765686035 -1.979858636856079 2.2393994331359863
      vertex 4.382791996002197 -1.9932126998901367 2.244610548019409
    endloop
  endfacet
  facet normal -0.3275876731605698 -0.4355431535441514 -0.8384440814950389
    outer loop
      vertex 4.373957633972168 -1.9665045738220215 2.2341883182525635
      vertex 4.323923587799072 -1.9599131345748901 2.2503130435943604
      vertex 4.435665130615234 -1.943347454071045 2.198049306869507
    endloop
  endfacet
  facet normal -0.32758707778737656 -0.4355403806689802 -0.8384457545204979
    outer loop
      vertex 4.299361228942871 -1.9915724992752075 2.276355743408203
      vertex 4.100440502166748 -1.9930446147918701 2.3548402786254883
      vertex 4.21218204498291 -1.976478934288025 2.302576780319214
    endloop
  endfacet
  facet normal -0.32759083870527045 -0.4355323954986428 -0.8384484330402145
    outer loop
      vertex 4.21218204498291 -1.976478934288025 2.302576780319214
      vertex 4.323923587799072 -1.9599131345748901 2.2503130435943604
      vertex 4.294943809509277 -1.9782183170318604 2.271144390106201
    endloop
  endfacet
  facet normal -0.3275897318915853 -0.4355368373151926 -0.8384465581661592
    outer loop
      vertex 4.3783745765686035 -1.979858636856079 2.2393994331359863
      vertex 4.373957633972168 -1.9665045738220215 2.2341883182525635
      vertex 4.447528839111328 -1.9696065187454224 2.207054615020752
    endloop
  endfacet
  facet normal -0.3275892885065101 -0.4355402323105362 -0.8384449678390842
    outer loop
      vertex 4.435665130615234 -1.943347454071045 2.198049306869507
      vertex 4.447528839111328 -1.9696065187454224 2.207054615020752
      vertex 4.373957633972168 -1.9665045738220215 2.2341883182525635
    endloop
  endfacet
  facet normal -0.3275873050380383 -0.43555541667138964 -0.8384378549338808
    outer loop
      vertex 4.21218204498291 -1.976478934288025 2.302576780319214
      vertex 4.294943809509277 -1.9782183170318604 2.271144390106201
      vertex 4.299361228942871 -1.9915724992752075 2.276355743408203
    endloop
  endfacet
  facet normal -0.32758666529552977 -0.4355461084542122 -0.8384429402952511
    outer loop
      vertex 4.3783745765686035 -1.979858636856079 2.2393994331359863
      vertex 4.447528839111328 -1.9696065187454224 2.207054615020752
      vertex 4.382791996002197 -1.9932126998901367 2.244610548019409
    endloop
  endfacet
  facet normal -0.3275878951404186 -0.43553614682752906 -0.8384476344793985
    outer loop
      vertex 4.323923587799072 -1.9599131345748901 2.2503130435943604
      vertex 4.373957633972168 -1.9665045738220215 2.2341883182525635
      vertex 4.294943809509277 -1.9782183170318604 2.271144390106201
    endloop
  endfacet
  facet normal -0.32758611823452366 -0.435545595822967 -0.8384434203327338
    outer loop
      vertex 3.983306407928467 -2.0384275913238525 2.424180507659912
      vertex 4.100440502166748 -1.9930446147918701 2.3548402786254883
      vertex 4.299361228942871 -1.9915724992752075 2.276355743408203
    endloop
  endfacet
  facet normal -0.3275862073082297 -0.4355463974616835 -0.8384429691037779
    outer loop
      vertex 3.983306407928467 -2.0384275913238525 2.424180507659912
      vertex 3.8769571781158447 -2.0261762142181396 2.4593677520751953
      vertex 3.988698720932007 -2.009610414505005 2.407104015350342
    endloop
  endfacet
  facet normal -0.3275859121359545 -0.4355472898351678 -0.8384426208675791
    outer loop
      vertex 3.6534738540649414 -2.05930757522583 2.5638949871063232
      vertex 3.7652153968811035 -2.0427417755126953 2.5116312503814697
      vertex 3.8252789974212646 -2.0618553161621094 2.4980928897857666
    endloop
  endfacet
  facet normal -0.32758672604617106 -0.4355422080456681 -0.8384449426939462
    outer loop
      vertex 3.6534738540649414 -2.05930757522583 2.5638949871063232
      vertex 3.8252789974212646 -2.0618553161621094 2.4980928897857666
      vertex 3.6672518253326416 -2.085282802581787 2.572005033493042
    endloop
  endfacet
  facet normal -0.327585439702374 -0.43554473411965494 -0.8384441330676966
    outer loop
      vertex 3.8252789974212646 -2.0618553161621094 2.4980928897857666
      vertex 3.7652153968811035 -2.0427417755126953 2.5116312503814697
      vertex 3.8769571781158447 -2.0261762142181396 2.4593677520751953
    endloop
  endfacet
  facet normal -0.3275878753996164 -0.4355391569756931 -0.838446078547731
    outer loop
      vertex 3.5092244148254395 -2.108710527420044 2.6459174156188965
      vertex 3.429990768432617 -2.0924389362335205 2.668422222137451
      vertex 3.5417323112487793 -2.075873374938965 2.6161587238311768
    endloop
  endfacet
  facet normal -0.32758750275493786 -0.4355424810122384 -0.8384444974310986
    outer loop
      vertex 3.5417323112487793 -2.075873374938965 2.6161587238311768
      vertex 3.6534738540649414 -2.05930757522583 2.5638949871063232
      vertex 3.6672518253326416 -2.085282802581787 2.572005033493042
    endloop
  endfacet
  facet normal -0.3275878122191643 -0.43553921471305573 -0.8384460732406087
    outer loop
      vertex 3.5417323112487793 -2.075873374938965 2.6161587238311768
      vertex 3.6672518253326416 -2.085282802581787 2.572005033493042
      vertex 3.5092244148254395 -2.108710527420044 2.6459174156188965
    endloop
  endfacet
  facet normal -0.3275893885726791 -0.4355367796787158 -0.838446722243979
    outer loop
      vertex 3.429990768432617 -2.0924389362335205 2.668422222137451
      vertex 3.3511970043182373 -2.132138252258301 2.719829797744751
      vertex 3.318249225616455 -2.1090047359466553 2.7206859588623047
    endloop
  endfacet
  facet normal -0.32758899066817254 -0.43553619599048354 -0.8384471809095353
    outer loop
      vertex 3.318249225616455 -2.1090047359466553 2.7206859588623047
      vertex 3.3511970043182373 -2.132138252258301 2.719829797744751
      vertex 3.206507444381714 -2.12557053565979 2.772949695587158
    endloop
  endfacet
  facet normal -0.32758634519957486 -0.43554364989709066 -0.8384443425016984
    outer loop
      vertex 3.8769571781158447 -2.0261762142181396 2.4593677520751953
      vertex 3.983306407928467 -2.0384275913238525 2.424180507659912
      vertex 3.8252789974212646 -2.0618553161621094 2.4980928897857666
    endloop
  endfacet
  facet normal -0.3275855463623272 -0.43554660903614306 -0.8384431174335041
    outer loop
      vertex 3.983306407928467 -2.0384275913238525 2.424180507659912
      vertex 3.988698720932007 -2.009610414505005 2.407104015350342
      vertex 4.100440502166748 -1.9930446147918701 2.3548402786254883
    endloop
  endfacet
  facet normal -0.3275888763378521 -0.43553725732991555 -0.838446674259752
    outer loop
      vertex 3.983306407928467 -2.0384275913238525 2.424180507659912
      vertex 4.299361228942871 -1.9915724992752075 2.276355743408203
      vertex 4.232896327972412 -2.0294437408447266 2.3219966888427734
    endloop
  endfacet
  facet normal -0.32758827105965577 -0.435540080802645 -0.8384454440681105
    outer loop
      vertex 3.983306407928467 -2.0384275913238525 2.424180507659912
      vertex 4.232896327972412 -2.0294437408447266 2.3219966888427734
      vertex 4.119647979736328 -2.0462329387664795 2.374965190887451
    endloop
  endfacet
  facet normal -0.3275866398435883 -0.4355430495651614 -0.8384445392340906
    outer loop
      vertex 4.346144676208496 -2.0126547813415527 2.269028425216675
      vertex 4.303778171539307 -2.0049266815185547 2.281566858291626
      vertex 4.382791996002197 -1.9932126998901367 2.244610548019409
    endloop
  endfacet
  facet normal -0.3275843320066852 -0.4355504059125312 -0.8384416195139428
    outer loop
      vertex 4.447528839111328 -1.9696065187454224 2.207054615020752
      vertex 4.45939302444458 -1.9958655834197998 2.216060161590576
      vertex 4.382791996002197 -1.9932126998901367 2.244610548019409
    endloop
  endfacet
  facet normal -0.32758803439255685 -0.4355421538891992 -0.838444459644393
    outer loop
      vertex 4.006400108337402 -2.0630218982696533 2.42793345451355
      vertex 3.983306407928467 -2.0384275913238525 2.424180507659912
      vertex 4.119647979736328 -2.0462329387664795 2.374965190887451
    endloop
  endfacet
  facet normal -0.3275913675111695 -0.43553384712623033 -0.8384474723795088
    outer loop
      vertex 4.299361228942871 -1.9915724992752075 2.276355743408203
      vertex 4.303778171539307 -2.0049266815185547 2.281566858291626
      vertex 4.232896327972412 -2.0294437408447266 2.3219966888427734
    endloop
  endfacet
  facet normal -0.3275850321149613 -0.4355453609702856 -0.8384439666856118
    outer loop
      vertex 4.45939302444458 -1.9958655834197998 2.216060161590576
      vertex 4.346144676208496 -2.0126547813415527 2.269028425216675
      vertex 4.382791996002197 -1.9932126998901367 2.244610548019409
    endloop
  endfacet
  facet normal -0.3275866349463963 -0.43554285902827744 -0.8384446401247792
    outer loop
      vertex 4.303778171539307 -2.0049266815185547 2.281566858291626
      vertex 4.346144676208496 -2.0126547813415527 2.269028425216675
      vertex 4.232896327972412 -2.0294437408447266 2.3219966888427734
    endloop
  endfacet
  facet normal -0.32758650507691833 -0.4355409078325029 -0.8384457044412175
    outer loop
      vertex 4.006400108337402 -2.0630218982696533 2.42793345451355
      vertex 3.8931517601013184 -2.0798110961914062 2.4809017181396484
      vertex 3.983306407928467 -2.0384275913238525 2.424180507659912
    endloop
  endfacet
  facet normal -0.327588075861577 -0.4355384176493139 -0.8384463842756086
    outer loop
      vertex 3.983306407928467 -2.0384275913238525 2.424180507659912
      vertex 3.8931517601013184 -2.0798110961914062 2.4809017181396484
      vertex 3.8252789974212646 -2.0618553161621094 2.4980928897857666
    endloop
  endfacet
  facet normal -0.32758863931709453 -0.4355430741619087 -0.8384437452447056
    outer loop
      vertex 3.7799036502838135 -2.09660005569458 2.533870220184326
      vertex 3.8252789974212646 -2.0618553161621094 2.4980928897857666
      vertex 3.8931517601013184 -2.0798110961914062 2.4809017181396484
    endloop
  endfacet
  facet normal -0.3275861160351892 -0.435544342717789 -0.838444072140479
    outer loop
      vertex 3.5092244148254395 -2.108710527420044 2.6459174156188965
      vertex 3.6672518253326416 -2.085282802581787 2.572005033493042
      vertex 3.6666553020477295 -2.113389253616333 2.586838483810425
    endloop
  endfacet
  facet normal -0.3275862426331214 -0.4355434641358996 -0.8384444790718191
    outer loop
      vertex 3.5092244148254395 -2.108710527420044 2.6459174156188965
      vertex 3.6666553020477295 -2.113389253616333 2.586838483810425
      vertex 3.5534071922302246 -2.130178451538086 2.6398067474365234
    endloop
  endfacet
  facet normal -0.327585157967971 -0.4355469487487444 -0.838443092710983
    outer loop
      vertex 3.6672518253326416 -2.085282802581787 2.572005033493042
      vertex 3.8252789974212646 -2.0618553161621094 2.4980928897857666
      vertex 3.7799036502838135 -2.09660005569458 2.533870220184326
    endloop
  endfacet
  facet normal -0.3275853220465602 -0.4355444844363077 -0.8384443087389659
    outer loop
      vertex 3.6672518253326416 -2.085282802581787 2.572005033493042
      vertex 3.7799036502838135 -2.09660005569458 2.533870220184326
      vertex 3.6666553020477295 -2.113389253616333 2.586838483810425
    endloop
  endfacet
  facet normal -0.32758786940646445 -0.43553904182016867 -0.8384461407079781
    outer loop
      vertex 3.429990768432617 -2.0924389362335205 2.668422222137451
      vertex 3.5092244148254395 -2.108710527420044 2.6459174156188965
      vertex 3.3511970043182373 -2.132138252258301 2.719829797744751
    endloop
  endfacet
  facet normal -0.32758629465556605 -0.43554380270422266 -0.8384442828714272
    outer loop
      vertex 3.3511970043182373 -2.132138252258301 2.719829797744751
      vertex 3.5092244148254395 -2.108710527420044 2.6459174156188965
      vertex 3.4401588439941406 -2.1469674110412598 2.692775011062622
    endloop
  endfacet
  facet normal -0.3275863252082256 -0.43554772644483053 -0.8384422326703909
    outer loop
      vertex 3.3511970043182373 -2.132138252258301 2.719829797744751
      vertex 3.4401588439941406 -2.1469674110412598 2.692775011062622
      vertex 3.3269107341766357 -2.1637566089630127 2.7457435131073
    endloop
  endfacet
  facet normal -0.32758458576804617 -0.43554905421754486 -0.8384422225397405
    outer loop
      vertex 3.3511970043182373 -2.132138252258301 2.719829797744751
      vertex 3.3269107341766357 -2.1637566089630127 2.7457435131073
      vertex 3.2136623859405518 -2.1805455684661865 2.7987117767333984
    endloop
  endfacet
  facet normal -0.32758634695410604 -0.4355437297066598 -0.8384443003577973
    outer loop
      vertex 3.5092244148254395 -2.108710527420044 2.6459174156188965
      vertex 3.5534071922302246 -2.130178451538086 2.6398067474365234
      vertex 3.4401588439941406 -2.1469674110412598 2.692775011062622
    endloop
  endfacet
  facet normal -0.32758822850074437 -0.43554219315100223 -0.8384443634093792
    outer loop
      vertex 3.206507444381714 -2.12557053565979 2.772949695587158
      vertex 3.3511970043182373 -2.132138252258301 2.719829797744751
      vertex 3.2136623859405518 -2.1805455684661865 2.7987117767333984
    endloop
  endfacet
  facet normal 0.32758024270402125 0.4355576023410338 0.838439478813411
    outer loop
      vertex 4.32998514175415 -1.9700831174850464 2.348642349243164
      vertex 4.408998966217041 -1.958369255065918 2.3116862773895264
      vertex 4.404581546783447 -1.9450151920318604 2.3064749240875244
    endloop
  endfacet
  facet normal 0.3275908661298927 0.4355370054559014 0.8384460276647345
    outer loop
      vertex 4.32998514175415 -1.9700831174850464 2.348642349243164
      vertex 4.404581546783447 -1.9450151920318604 2.3064749240875244
      vertex 4.325568199157715 -1.9567290544509888 2.343431234359741
    endloop
  endfacet
  facet normal 0.3275908661298927 0.4355370054559014 0.8384460276647345
    outer loop
      vertex 4.325568199157715 -1.9567290544509888 2.343431234359741
      vertex 4.404581546783447 -1.9450151920318604 2.3064749240875244
      vertex 4.400164604187012 -1.9316611289978027 2.3012638092041016
    endloop
  endfacet
  facet normal 0.32758775505624066 0.4355430373245745 0.8384441098697616
    outer loop
      vertex 4.325568199157715 -1.9567290544509888 2.343431234359741
      vertex 4.400164604187012 -1.9316611289978027 2.3012638092041016
      vertex 4.321150779724121 -1.9433748722076416 2.3382201194763184
    endloop
  endfacet
  facet normal 0.3275883529737919 0.4355399799506976 0.8384454644521994
    outer loop
      vertex 4.400164604187012 -1.9316611289978027 2.3012638092041016
      vertex 4.480565547943115 -1.9337505102157593 2.2709357738494873
      vertex 4.4687018394470215 -1.9074914455413818 2.261930465698242
    endloop
  endfacet
  facet normal 0.3275839754701235 0.4355544638967679 0.8384396507768396
    outer loop
      vertex 4.400164604187012 -1.9316611289978027 2.3012638092041016
      vertex 4.26076078414917 -1.9383187294006348 2.3591883182525635
      vertex 4.321150779724121 -1.9433748722076416 2.3382201194763184
    endloop
  endfacet
  facet normal 0.3275888381096284 0.4355367048195571 0.838446976201182
    outer loop
      vertex 4.480565547943115 -1.9337505102157593 2.2709357738494873
      vertex 4.400164604187012 -1.9316611289978027 2.3012638092041016
      vertex 4.404581546783447 -1.9450151920318604 2.3064749240875244
    endloop
  endfacet
  facet normal 0.32758644720618857 0.4355435650784297 0.8384443467073999
    outer loop
      vertex 4.26076078414917 -1.9383187294006348 2.3591883182525635
      vertex 4.400164604187012 -1.9316611289978027 2.3012638092041016
      vertex 4.4687018394470215 -1.9074914455413818 2.261930465698242
    endloop
  endfacet
  facet normal 0.32758184711502225 0.4355578402188863 0.8384387283901962
    outer loop
      vertex 4.408998966217041 -1.958369255065918 2.3116862773895264
      vertex 4.480565547943115 -1.9337505102157593 2.2709357738494873
      vertex 4.404581546783447 -1.9450151920318604 2.3064749240875244
    endloop
  endfacet
  facet normal 0.32758700372799804 0.4355414472444153 0.8384452294102178
    outer loop
      vertex 4.281726360321045 -1.9912464618682861 2.378491163253784
      vertex 4.492429733276367 -1.9600095748901367 2.2799413204193115
      vertex 4.408998966217041 -1.958369255065918 2.3116862773895264
    endloop
  endfacet
  facet normal 0.32758131871409 0.4355543493583791 0.8384407482848962
    outer loop
      vertex 4.281726360321045 -1.9912464618682861 2.378491163253784
      vertex 4.408998966217041 -1.958369255065918 2.3116862773895264
      vertex 4.32998514175415 -1.9700831174850464 2.348642349243164
    endloop
  endfacet
  facet normal 0.32758556400855776 0.4355507382583956 0.8384409655162143
    outer loop
      vertex 4.480565547943115 -1.9337505102157593 2.2709357738494873
      vertex 4.408998966217041 -1.958369255065918 2.3116862773895264
      vertex 4.492429733276367 -1.9600095748901367 2.2799413204193115
    endloop
  endfacet
  facet normal 0.32759184370991246 0.4355371503729213 0.8384455704336303
    outer loop
      vertex 4.32998514175415 -1.9700831174850464 2.348642349243164
      vertex 4.325568199157715 -1.9567290544509888 2.343431234359741
      vertex 4.281726360321045 -1.9912464618682861 2.378491163253784
    endloop
  endfacet
  facet normal 0.3275874749187467 0.4355419177235413 0.8384448009153967
    outer loop
      vertex 4.325568199157715 -1.9567290544509888 2.343431234359741
      vertex 4.071023464202881 -2.0224833488464355 2.477041006088257
      vertex 4.281726360321045 -1.9912464618682861 2.378491163253784
    endloop
  endfacet
  facet normal 0.3275849828362547 0.43554262628593693 0.8384454065162021
    outer loop
      vertex 4.26076078414917 -1.9383187294006348 2.3591883182525635
      vertex 4.325568199157715 -1.9567290544509888 2.343431234359741
      vertex 4.321150779724121 -1.9433748722076416 2.3382201194763184
    endloop
  endfacet
  facet normal 0.32758647896330595 0.4355441780560428 0.8384440158781679
    outer loop
      vertex 4.325568199157715 -1.9567290544509888 2.343431234359741
      vertex 4.052819728851318 -1.9691461324691772 2.456446409225464
      vertex 4.071023464202881 -2.0224833488464355 2.477041006088257
    endloop
  endfacet
  facet normal 0.3275862343190777 0.43554357044666864 0.8384444270953287
    outer loop
      vertex 3.844878911972046 -1.9999734163284302 2.553704261779785
      vertex 3.6369378566741943 -2.0308008193969727 2.6509621143341064
      vertex 3.6496171951293945 -2.0849568843841553 2.674140453338623
    endloop
  endfacet
  facet normal 0.3275870673916666 0.43554220227782825 0.8384448123238089
    outer loop
      vertex 3.844878911972046 -1.9999734163284302 2.553704261779785
      vertex 3.6496171951293945 -2.0849568843841553 2.674140453338623
      vertex 3.8603203296661377 -2.053719997406006 2.5755906105041504
    endloop
  endfacet
  facet normal 0.32758872727955085 0.4355400892213789 0.8384452614454909
    outer loop
      vertex 3.6369378566741943 -2.0308008193969727 2.6509621143341064
      vertex 3.428997039794922 -2.0616281032562256 2.748220205307007
      vertex 3.4389140605926514 -2.1161937713623047 2.7726902961730957
    endloop
  endfacet
  facet normal 0.3275866080765219 0.43554359090500494 0.838444270438109
    outer loop
      vertex 3.6369378566741943 -2.0308008193969727 2.6509621143341064
      vertex 3.4389140605926514 -2.1161937713623047 2.7726902961730957
      vertex 3.6496171951293945 -2.0849568843841553 2.674140453338623
    endloop
  endfacet
  facet normal 0.3275872105359007 0.4355422174246805 0.8384447485279514
    outer loop
      vertex 4.052819728851318 -1.9691461324691772 2.456446409225464
      vertex 3.844878911972046 -1.9999734163284302 2.553704261779785
      vertex 3.8603203296661377 -2.053719997406006 2.5755906105041504
    endloop
  endfacet
  facet normal 0.32758605086767323 0.4355441101516801 0.8384442184123542
    outer loop
      vertex 4.052819728851318 -1.9691461324691772 2.456446409225464
      vertex 3.8603203296661377 -2.053719997406006 2.5755906105041504
      vertex 4.071023464202881 -2.0224833488464355 2.477041006088257
    endloop
  endfacet
  facet normal 0.32758776800409733 0.43554008414054934 0.8384456388824124
    outer loop
      vertex 3.228210926055908 -2.147430658340454 2.8712401390075684
      vertex 3.4389140605926514 -2.1161937713623047 2.7726902961730957
      vertex 3.428997039794922 -2.0616281032562256 2.748220205307007
    endloop
  endfacet
  facet normal 0.32758739167628814 0.4355407096940725 0.8384454609656552
    outer loop
      vertex 3.228210926055908 -2.147430658340454 2.8712401390075684
      vertex 3.428997039794922 -2.0616281032562256 2.748220205307007
      vertex 3.2210559844970703 -2.0924553871154785 2.845478057861328
    endloop
  endfacet
  facet normal 0.32758570397036035 0.4355476311104264 0.8384425249164902
    outer loop
      vertex 4.26076078414917 -1.9383187294006348 2.3591883182525635
      vertex 4.052819728851318 -1.9691461324691772 2.456446409225464
      vertex 4.325568199157715 -1.9567290544509888 2.343431234359741
    endloop
  endfacet
  facet normal 0.8245832440566604 0.1897671490772705 -0.5329642602952652
    outer loop
      vertex 4.447528839111328 -1.9696065187454224 2.207054615020752
      vertex 4.435665130615234 -1.943347454071045 2.198049306869507
      vertex 4.443924427032471 -1.9343833923339844 2.214019536972046
    endloop
  endfacet
  facet normal 0.8246012311138726 0.18976372759356797 -0.5329376486375117
    outer loop
      vertex 4.447528839111328 -1.9696065187454224 2.207054615020752
      vertex 4.443924427032471 -1.9343833923339844 2.214019536972046
      vertex 4.452183246612549 -1.9254194498062134 2.229990005493164
    endloop
  endfacet
  facet normal 0.8245882413739184 0.1897842857779346 -0.5329504264559959
    outer loop
      vertex 4.45939302444458 -1.9958655834197998 2.216060161590576
      vertex 4.447528839111328 -1.9696065187454224 2.207054615020752
      vertex 4.467651844024658 -1.9869016408920288 2.2320303916931152
    endloop
  endfacet
  facet normal 0.8245851712549289 0.18976281227416475 -0.5329628227412112
    outer loop
      vertex 4.447528839111328 -1.9696065187454224 2.207054615020752
      vertex 4.4759111404418945 -1.9779375791549683 2.2480006217956543
      vertex 4.467651844024658 -1.9869016408920288 2.2320303916931152
    endloop
  endfacet
  facet normal 0.8245827589918485 0.1897778904909841 -0.532961186067225
    outer loop
      vertex 4.480565547943115 -1.9337505102157593 2.2709357738494873
      vertex 4.447528839111328 -1.9696065187454224 2.207054615020752
      vertex 4.452183246612549 -1.9254194498062134 2.229990005493164
    endloop
  endfacet
  facet normal 0.8245837023452606 0.18976766191260017 -0.5329633686462961
    outer loop
      vertex 4.480565547943115 -1.9337505102157593 2.2709357738494873
      vertex 4.460442543029785 -1.9164553880691528 2.245960235595703
      vertex 4.4687018394470215 -1.9074914455413818 2.261930465698242
    endloop
  endfacet
  facet normal 0.8245843949646277 0.18977420910838083 -0.5329599657930301
    outer loop
      vertex 4.447528839111328 -1.9696065187454224 2.207054615020752
      vertex 4.480565547943115 -1.9337505102157593 2.2709357738494873
      vertex 4.4759111404418945 -1.9779375791549683 2.2480006217956543
    endloop
  endfacet
  facet normal 0.824578931380903 0.18977839795579962 -0.532966927296674
    outer loop
      vertex 4.480565547943115 -1.9337505102157593 2.2709357738494873
      vertex 4.484170436859131 -1.9689736366271973 2.2639708518981934
      vertex 4.4759111404418945 -1.9779375791549683 2.2480006217956543
    endloop
  endfacet
  facet normal 0.8245823919572817 0.18977773977205176 -0.5329618076007129
    outer loop
      vertex 4.480565547943115 -1.9337505102157593 2.2709357738494873
      vertex 4.492429733276367 -1.9600095748901367 2.2799413204193115
      vertex 4.484170436859131 -1.9689736366271973 2.2639708518981934
    endloop
  endfacet
  facet normal 0.8245835353066825 0.18976649367621282 -0.5329640430450905
    outer loop
      vertex 4.460442543029785 -1.9164553880691528 2.245960235595703
      vertex 4.480565547943115 -1.9337505102157593 2.2709357738494873
      vertex 4.452183246612549 -1.9254194498062134 2.229990005493164
    endloop
  endfacet
endsolid beam