solid f12_blank
  facet normal 0.731871318 -0.0462943124 0.679868524
    outer loop
      vertex 5.35172555 1.61038801 0.642833956
      vertex 5.31866831 1.57274877 0.675856767
      vertex 5.72517737 0.784716619 0.184594532
    endloop
  endfacet
  facet normal 0.731871318 -0.0462943124 0.679868524
    outer loop
      vertex 5.35172555 1.61038801 0.642833956
      vertex 5.72517737 0.784716619 0.184594532
      vertex 5.75823462 0.822355858 0.151571722
    endloop
  endfacet
  facet normal 0.550954142 0.627320651 -0.550380172
    outer loop
      vertex 5.35172555 1.61038801 0.642833956
      vertex 5.75823462 0.822355858 0.151571722
      vertex 5.69968491 0.826059403 0.09718224
    endloop
  endfacet
  facet normal 0.550954142 0.627320651 -0.550380172
    outer loop
      vertex 5.35172555 1.61038801 0.642833956
      vertex 5.69968491 0.826059403 0.09718224
      vertex 5.29317585 1.61409156 0.588444474
    endloop
  endfacet
  facet normal 0.401016094 -0.777383842 -0.484624035
    outer loop
      vertex 5.75823462 0.822355858 0.151571722
      vertex 5.72517737 0.784716619 0.184594532
      vertex 5.66662766 0.788420164 0.13020505
    endloop
  endfacet
  facet normal 0.401016094 -0.777383842 -0.484624035
    outer loop
      vertex 5.75823462 0.822355858 0.151571722
      vertex 5.66662766 0.788420164 0.13020505
      vertex 5.69968491 0.826059403 0.09718224
    endloop
  endfacet
  facet normal -0.550954142 -0.627320651 0.550380172
    outer loop
      vertex 5.72517737 0.784716619 0.184594532
      vertex 5.31866831 1.57274877 0.675856767
      vertex 5.2601186 1.57645232 0.621467285
    endloop
  endfacet
  facet normal -0.550954142 -0.627320651 0.550380172
    outer loop
      vertex 5.72517737 0.784716619 0.184594532
      vertex 5.2601186 1.57645232 0.621467285
      vertex 5.66662766 0.788420164 0.13020505
    endloop
  endfacet
  facet normal -0.401016094 0.777383842 0.484624035
    outer loop
      vertex 5.31866831 1.57274877 0.675856767
      vertex 5.35172555 1.61038801 0.642833956
      vertex 5.29317585 1.61409156 0.588444474
    endloop
  endfacet
  facet normal -0.401016094 0.777383842 0.484624035
    outer loop
      vertex 5.31866831 1.57274877 0.675856767
      vertex 5.29317585 1.61409156 0.588444474
      vertex 5.2601186 1.57645232 0.621467285
    endloop
  endfacet
  facet normal -0.731871318 0.0462943124 -0.679868524
    outer loop
      vertex 5.29317585 1.61409156 0.588444474
      vertex 5.69968491 0.826059403 0.09718224
      vertex 5.66662766 0.788420164 0.13020505
    endloop
  endfacet
  facet normal -0.731871318 0.0462943124 -0.679868524
    outer loop
      vertex 5.29317585 1.61409156 0.588444474
      vertex 5.66662766 0.788420164 0.13020505
      vertex 5.2601186 1.57645232 0.621467285
    endloop
  endfacet
endsolid f12_blank
