solid c28_blank
  facet normal -0.29016575 0.12952648 0.9481702
    outer loop
      vertex 1.63537661 0.948234661 1.87660183
      vertex 1.58288688 0.921983007 1.8641247
      vertex 2.02725814 -0.0973468228 2.13936171
    endloop
  endfacet
  facet normal -0.29016575 0.12952648 0.9481702
    outer loop
      vertex 1.63537661 0.948234661 1.87660183
      vertex 2.02725814 -0.0973468228 2.13936171
      vertex 2.07974787 -0.071095168 2.15183883
    endloop
  endfacet
  facet normal 0.874828868 0.43752758 0.207952082
    outer loop
      vertex 1.63537661 0.948234661 1.87660183
      vertex 2.07974787 -0.071095168 2.15183883
      vertex 2.10296113 -0.0814572864 2.07598522
    endloop
  endfacet
  facet normal 0.874828868 0.43752758 0.207952082
    outer loop
      vertex 1.63537661 0.948234661 1.87660183
      vertex 2.10296113 -0.0814572864 2.07598522
      vertex 1.65858987 0.937872543 1.80074821
    endloop
  endfacet
  facet normal 0.387915312 -0.889827235 0.240269022
    outer loop
      vertex 2.07974787 -0.071095168 2.15183883
      vertex 2.02725814 -0.0973468228 2.13936171
      vertex 2.0504714 -0.107708941 2.06350809
    endloop
  endfacet
  facet normal 0.387915312 -0.889827235 0.240269022
    outer loop
      vertex 2.07974787 -0.071095168 2.15183883
      vertex 2.0504714 -0.107708941 2.06350809
      vertex 2.10296113 -0.0814572864 2.07598522
    endloop
  endfacet
  facet normal -0.874828868 -0.43752758 -0.207952082
    outer loop
      vertex 2.02725814 -0.0973468228 2.13936171
      vertex 1.58288688 0.921983007 1.8641247
      vertex 1.60610014 0.911620888 1.78827109
    endloop
  endfacet
  facet normal -0.874828868 -0.43752758 -0.207952082
    outer loop
      vertex 2.02725814 -0.0973468228 2.13936171
      vertex 1.60610014 0.911620888 1.78827109
      vertex 2.0504714 -0.107708941 2.06350809
    endloop
  endfacet
  facet normal -0.387915312 0.889827235 -0.240269022
    outer loop
      vertex 1.58288688 0.921983007 1.8641247
      vertex 1.63537661 0.948234661 1.87660183
      vertex 1.65858987 0.937872543 1.80074821
    endloop
  endfacet
  facet normal -0.387915312 0.889827235 -0.240269022
    outer loop
      vertex 1.58288688 0.921983007 1.8641247
      vertex 1.65858987 0.937872543 1.80074821
      vertex 1.60610014 0.911620888 1.78827109
    endloop
  endfacet
  facet normal 0.29016575 -0.12952648 -0.9481702
    outer loop
      vertex 1.65858987 0.937872543 1.80074821
      vertex 2.10296113 -0.0814572864 2.07598522
      vertex 2.0504714 -0.107708941 2.06350809
    endloop
  endfacet
  facet normal 0.29016575 -0.12952648 -0.9481702
    outer loop
      vertex 1.65858987 0.937872543 1.80074821
      vertex 2.0504714 -0.107708941 2.06350809
      vertex 1.60610014 0.911620888 1.78827109
    endloop
  endfacet
endsolid c28_blank
