solid c28_features
  facet normal 0.902619978 -0.194365365 0.384056349
    outer loop
      vertex 1.67537618 0.74602567 1.92034435
      vertex 1.67511081 0.744805633 1.92035058
      vertex 1.70879847 0.737054023 1.83725393
    endloop
  endfacet
  facet normal 0.902619978 -0.194365365 0.384056349
    outer loop
      vertex 1.67537618 0.74602567 1.92034435
      vertex 1.70879847 0.737054023 1.83725393
      vertex 1.70906384 0.73827406 1.8372477
    endloop
  endfacet
  facet normal -0.374307319 0.0861289985 0.923296175
    outer loop
      vertex 1.67241061 0.74602567 1.9191421
      vertex 1.67511081 0.744805633 1.92035058
      vertex 1.67537618 0.74602567 1.92034435
    endloop
  endfacet
  facet normal 0.374307319 -0.0861289985 -0.923296175
    outer loop
      vertex 1.70609827 0.73827406 1.83604545
      vertex 1.70906384 0.73827406 1.8372477
      vertex 1.70879847 0.737054023 1.83725393
    endloop
  endfacet
  facet normal 0.752578429 -0.55350573 0.356731152
    outer loop
      vertex 1.67511081 0.744805633 1.92035058
      vertex 1.67443436 0.743771336 1.92017283
      vertex 1.70812202 0.736019727 1.83707618
    endloop
  endfacet
  facet normal 0.752578429 -0.55350573 0.356731152
    outer loop
      vertex 1.67511081 0.744805633 1.92035058
      vertex 1.70812202 0.736019727 1.83707618
      vertex 1.70879847 0.737054023 1.83725393
    endloop
  endfacet
  facet normal -0.374307319 0.0861289985 0.923296175
    outer loop
      vertex 1.67241061 0.74602567 1.9191421
      vertex 1.67443436 0.743771336 1.92017283
      vertex 1.67511081 0.744805633 1.92035058
    endloop
  endfacet
  facet normal 0.374307319 -0.0861289985 -0.923296175
    outer loop
      vertex 1.70609827 0.73827406 1.83604545
      vertex 1.70879847 0.737054023 1.83725393
      vertex 1.70812202 0.736019727 1.83707618
    endloop
  endfacet
  facet normal 0.487963636 -0.828379866 0.275096871
    outer loop
      vertex 1.67443436 0.743771336 1.92017283
      vertex 1.67344982 0.743080241 1.91983816
      vertex 1.70713748 0.735328631 1.83674151
    endloop
  endfacet
  facet normal 0.487963636 -0.828379866 0.275096871
    outer loop
      vertex 1.67443436 0.743771336 1.92017283
      vertex 1.70713748 0.735328631 1.83674151
      vertex 1.70812202 0.736019727 1.83707618
    endloop
  endfacet
  facet normal -0.374307319 0.0861289985 0.923296175
    outer loop
      vertex 1.67241061 0.74602567 1.9191421
      vertex 1.67344982 0.743080241 1.91983816
      vertex 1.67443436 0.743771336 1.92017283
    endloop
  endfacet
  facet normal 0.374307319 -0.0861289985 -0.923296175
    outer loop
      vertex 1.70609827 0.73827406 1.83604545
      vertex 1.70812202 0.736019727 1.83707618
      vertex 1.70713748 0.735328631 1.83674151
    endloop
  endfacet
  facet normal 0.149060802 -0.977140676 0.151581584
    outer loop
      vertex 1.67344982 0.743080241 1.91983816
      vertex 1.67230706 0.742837561 1.91939752
      vertex 1.70599472 0.735085951 1.83630087
    endloop
  endfacet
  facet normal 0.149060802 -0.977140676 0.151581584
    outer loop
      vertex 1.67344982 0.743080241 1.91983816
      vertex 1.70599472 0.735085951 1.83630087
      vertex 1.70713748 0.735328631 1.83674151
    endloop
  endfacet
  facet normal -0.374307319 0.0861289985 0.923296175
    outer loop
      vertex 1.67241061 0.74602567 1.9191421
      vertex 1.67230706 0.742837561 1.91939752
      vertex 1.67344982 0.743080241 1.91983816
    endloop
  endfacet
  facet normal 0.374307319 -0.0861289985 -0.923296175
    outer loop
      vertex 1.70609827 0.73827406 1.83604545
      vertex 1.70713748 0.735328631 1.83674151
      vertex 1.70599472 0.735085951 1.83630087
    endloop
  endfacet
  facet normal -0.212535187 -0.977140676 0.00498937613
    outer loop
      vertex 1.67230706 0.742837561 1.91939752
      vertex 1.67118007 0.743080241 1.918918
      vertex 1.70486773 0.735328631 1.83582134
    endloop
  endfacet
  facet normal -0.212535187 -0.977140676 0.00498937613
    outer loop
      vertex 1.67230706 0.742837561 1.91939752
      vertex 1.70486773 0.735328631 1.83582134
      vertex 1.70599472 0.735085951 1.83630087
    endloop
  endfacet
  facet normal -0.374307319 0.0861289985 0.923296175
    outer loop
      vertex 1.67241061 0.74602567 1.9191421
      vertex 1.67118007 0.743080241 1.918918
      vertex 1.67230706 0.742837561 1.91939752
    endloop
  endfacet
  facet normal 0.374307319 -0.0861289985 -0.923296175
    outer loop
      vertex 1.70609827 0.73827406 1.83604545
      vertex 1.70599472 0.735085951 1.83630087
      vertex 1.70486773 0.735328631 1.83582134
    endloop
  endfacet
  facet normal -0.541774621 -0.828379866 -0.142362419
    outer loop
      vertex 1.67118007 0.743080241 1.918918
      vertex 1.67024042 0.743771336 1.91847259
      vertex 1.70392808 0.736019727 1.83537594
    endloop
  endfacet
  facet normal -0.541774621 -0.828379866 -0.142362419
    outer loop
      vertex 1.67118007 0.743080241 1.918918
      vertex 1.70392808 0.736019727 1.83537594
      vertex 1.70486773 0.735328631 1.83582134
    endloop
  endfacet
  facet normal -0.374307319 0.0861289985 0.923296175
    outer loop
      vertex 1.67241061 0.74602567 1.9191421
      vertex 1.67024042 0.743771336 1.91847259
      vertex 1.67118007 0.743080241 1.918918
    endloop
  endfacet
  facet normal 0.374307319 -0.0861289985 -0.923296175
    outer loop
      vertex 1.70609827 0.73827406 1.83604545
      vertex 1.70486773 0.735328631 1.83582134
      vertex 1.70392808 0.736019727 1.83537594
    endloop
  endfacet
  facet normal -0.788533779 -0.55350573 -0.268040827
    outer loop
      vertex 1.67024042 0.743771336 1.91847259
      vertex 1.66963116 0.744805633 1.91812911
      vertex 1.70331882 0.737054023 1.83503246
    endloop
  endfacet
  facet normal -0.788533779 -0.55350573 -0.268040827
    outer loop
      vertex 1.67024042 0.743771336 1.91847259
      vertex 1.70331882 0.737054023 1.83503246
      vertex 1.70392808 0.736019727 1.83537594
    endloop
  endfacet
  facet normal -0.374307319 0.0861289985 0.923296175
    outer loop
      vertex 1.67241061 0.74602567 1.9191421
      vertex 1.66963116 0.744805633 1.91812911
      vertex 1.67024042 0.743771336 1.91847259
    endloop
  endfacet
  facet normal 0.374307319 -0.0861289985 -0.923296175
    outer loop
      vertex 1.70609827 0.73827406 1.83604545
      vertex 1.70392808 0.736019727 1.83537594
      vertex 1.70331882 0.737054023 1.83503246
    endloop
  endfacet
  facet normal -0.915245819 -0.194365365 -0.352912449
    outer loop
      vertex 1.66963116 0.744805633 1.91812911
      vertex 1.66944504 0.74602567 1.91793985
      vertex 1.7031327 0.73827406 1.8348432
    endloop
  endfacet
  facet normal -0.915245819 -0.194365365 -0.352912449
    outer loop
      vertex 1.66963116 0.744805633 1.91812911
      vertex 1.7031327 0.73827406 1.8348432
      vertex 1.70331882 0.737054023 1.83503246
    endloop
  endfacet
  facet normal -0.374307319 0.0861289985 0.923296175
    outer loop
      vertex 1.67241061 0.74602567 1.9191421
      vertex 1.66944504 0.74602567 1.91793985
      vertex 1.66963116 0.744805633 1.91812911
    endloop
  endfacet
  facet normal 0.374307319 -0.0861289985 -0.923296175
    outer loop
      vertex 1.70609827 0.73827406 1.83604545
      vertex 1.70331882 0.737054023 1.83503246
      vertex 1.7031327 0.73827406 1.8348432
    endloop
  endfacet
  facet normal -0.902619978 0.194365365 -0.384056349
    outer loop
      vertex 1.66944504 0.74602567 1.91793985
      vertex 1.66971041 0.747245706 1.91793362
      vertex 1.70339807 0.739494096 1.83483697
    endloop
  endfacet
  facet normal -0.902619978 0.194365365 -0.384056349
    outer loop
      vertex 1.66944504 0.74602567 1.91793985
      vertex 1.70339807 0.739494096 1.83483697
      vertex 1.7031327 0.73827406 1.8348432
    endloop
  endfacet
  facet normal -0.374307319 0.0861289985 0.923296175
    outer loop
      vertex 1.67241061 0.74602567 1.9191421
      vertex 1.66971041 0.747245706 1.91793362
      vertex 1.66944504 0.74602567 1.91793985
    endloop
  endfacet
  facet normal 0.374307319 -0.0861289985 -0.923296175
    outer loop
      vertex 1.70609827 0.73827406 1.83604545
      vertex 1.7031327 0.73827406 1.8348432
      vertex 1.70339807 0.739494096 1.83483697
    endloop
  endfacet
  facet normal -0.752578429 0.55350573 -0.356731152
    outer loop
      vertex 1.66971041 0.747245706 1.91793362
      vertex 1.67038686 0.748280003 1.91811137
      vertex 1.70407452 0.740528393 1.83501472
    endloop
  endfacet
  facet normal -0.752578429 0.55350573 -0.356731152
    outer loop
      vertex 1.66971041 0.747245706 1.91793362
      vertex 1.70407452 0.740528393 1.83501472
      vertex 1.70339807 0.739494096 1.83483697
    endloop
  endfacet
  facet normal -0.374307319 0.0861289985 0.923296175
    outer loop
      vertex 1.67241061 0.74602567 1.9191421
      vertex 1.67038686 0.748280003 1.91811137
      vertex 1.66971041 0.747245706 1.91793362
    endloop
  endfacet
  facet normal 0.374307319 -0.0861289985 -0.923296175
    outer loop
      vertex 1.70609827 0.73827406 1.83604545
      vertex 1.70339807 0.739494096 1.83483697
      vertex 1.70407452 0.740528393 1.83501472
    endloop
  endfacet
  facet normal -0.487963636 0.828379866 -0.275096871
    outer loop
      vertex 1.67038686 0.748280003 1.91811137
      vertex 1.6713714 0.748971098 1.91844604
      vertex 1.70505906 0.741219488 1.83534939
    endloop
  endfacet
  facet normal -0.487963636 0.828379866 -0.275096871
    outer loop
      vertex 1.67038686 0.748280003 1.91811137
      vertex 1.70505906 0.741219488 1.83534939
      vertex 1.70407452 0.740528393 1.83501472
    endloop
  endfacet
  facet normal -0.374307319 0.0861289985 0.923296175
    outer loop
      vertex 1.67241061 0.74602567 1.9191421
      vertex 1.6713714 0.748971098 1.91844604
      vertex 1.67038686 0.748280003 1.91811137
    endloop
  endfacet
  facet normal 0.374307319 -0.0861289985 -0.923296175
    outer loop
      vertex 1.70609827 0.73827406 1.83604545
      vertex 1.70407452 0.740528393 1.83501472
      vertex 1.70505906 0.741219488 1.83534939
    endloop
  endfacet
  facet normal -0.149060802 0.977140676 -0.151581584
    outer loop
      vertex 1.6713714 0.748971098 1.91844604
      vertex 1.67251416 0.749213779 1.91888668
      vertex 1.70620182 0.741462169 1.83579002
    endloop
  endfacet
  facet normal -0.149060802 0.977140676 -0.151581584
    outer loop
      vertex 1.6713714 0.748971098 1.91844604
      vertex 1.70620182 0.741462169 1.83579002
      vertex 1.70505906 0.741219488 1.83534939
    endloop
  endfacet
  facet normal -0.374307319 0.0861289985 0.923296175
    outer loop
      vertex 1.67241061 0.74602567 1.9191421
      vertex 1.67251416 0.749213779 1.91888668
      vertex 1.6713714 0.748971098 1.91844604
    endloop
  endfacet
  facet normal 0.374307319 -0.0861289985 -0.923296175
    outer loop
      vertex 1.70609827 0.73827406 1.83604545
      vertex 1.70505906 0.741219488 1.83534939
      vertex 1.70620182 0.741462169 1.83579002
    endloop
  endfacet
  facet normal 0.212535187 0.977140676 -0.00498937613
    outer loop
      vertex 1.67251416 0.749213779 1.91888668
      vertex 1.67364115 0.748971098 1.9193662
      vertex 1.70732881 0.741219488 1.83626955
    endloop
  endfacet
  facet normal 0.212535187 0.977140676 -0.00498937613
    outer loop
      vertex 1.67251416 0.749213779 1.91888668
      vertex 1.70732881 0.741219488 1.83626955
      vertex 1.70620182 0.741462169 1.83579002
    endloop
  endfacet
  facet normal -0.374307319 0.0861289985 0.923296175
    outer loop
      vertex 1.67241061 0.74602567 1.9191421
      vertex 1.67364115 0.748971098 1.9193662
      vertex 1.67251416 0.749213779 1.91888668
    endloop
  endfacet
  facet normal 0.374307319 -0.0861289985 -0.923296175
    outer loop
      vertex 1.70609827 0.73827406 1.83604545
      vertex 1.70620182 0.741462169 1.83579002
      vertex 1.70732881 0.741219488 1.83626955
    endloop
  endfacet
  facet normal 0.541774621 0.828379866 0.142362419
    outer loop
      vertex 1.67364115 0.748971098 1.9193662
      vertex 1.6745808 0.748280003 1.91981161
      vertex 1.70826846 0.740528393 1.83671496
    endloop
  endfacet
  facet normal 0.541774621 0.828379866 0.142362419
    outer loop
      vertex 1.67364115 0.748971098 1.9193662
      vertex 1.70826846 0.740528393 1.83671496
      vertex 1.70732881 0.741219488 1.83626955
    endloop
  endfacet
  facet normal -0.374307319 0.0861289985 0.923296175
    outer loop
      vertex 1.67241061 0.74602567 1.9191421
      vertex 1.6745808 0.748280003 1.91981161
      vertex 1.67364115 0.748971098 1.9193662
    endloop
  endfacet
  facet normal 0.374307319 -0.0861289985 -0.923296175
    outer loop
      vertex 1.70609827 0.73827406 1.83604545
      vertex 1.70732881 0.741219488 1.83626955
      vertex 1.70826846 0.740528393 1.83671496
    endloop
  endfacet
  facet normal 0.788533779 0.55350573 0.268040827
    outer loop
      vertex 1.6745808 0.748280003 1.91981161
      vertex 1.67519006 0.747245706 1.92015509
      vertex 1.70887772 0.739494096 1.83705844
    endloop
  endfacet
  facet normal 0.788533779 0.55350573 0.268040827
    outer loop
      vertex 1.6745808 0.748280003 1.91981161
      vertex 1.70887772 0.739494096 1.83705844
      vertex 1.70826846 0.740528393 1.83671496
    endloop
  endfacet
  facet normal -0.374307319 0.0861289985 0.923296175
    outer loop
      vertex 1.67241061 0.74602567 1.9191421
      vertex 1.67519006 0.747245706 1.92015509
      vertex 1.6745808 0.748280003 1.91981161
    endloop
  endfacet
  facet normal 0.374307319 -0.0861289985 -0.923296175
    outer loop
      vertex 1.70609827 0.73827406 1.83604545
      vertex 1.70826846 0.740528393 1.83671496
      vertex 1.70887772 0.739494096 1.83705844
    endloop
  endfacet
  facet normal 0.915245819 0.194365365 0.352912449
    outer loop
      vertex 1.67519006 0.747245706 1.92015509
      vertex 1.67537618 0.74602567 1.92034435
      vertex 1.70906384 0.73827406 1.8372477
    endloop
  endfacet
  facet normal 0.915245819 0.194365365 0.352912449
    outer loop
      vertex 1.67519006 0.747245706 1.92015509
      vertex 1.70906384 0.73827406 1.8372477
      vertex 1.70887772 0.739494096 1.83705844
    endloop
  endfacet
  facet normal -0.374307319 0.0861289985 0.923296175
    outer loop
      vertex 1.67241061 0.74602567 1.9191421
      vertex 1.67537618 0.74602567 1.92034435
      vertex 1.67519006 0.747245706 1.92015509
    endloop
  endfacet
  facet normal 0.374307319 -0.0861289985 -0.923296175
    outer loop
      vertex 1.70609827 0.73827406 1.83604545
      vertex 1.70887772 0.739494096 1.83705844
      vertex 1.70906384 0.73827406 1.8372477
    endloop
  endfacet
  facet normal 0.902619978 -0.194365365 0.384056349
    outer loop
      vertex 1.69117332 0.771205113 1.92439972
      vertex 1.69090795 0.769985077 1.92440595
      vertex 1.72459561 0.762233467 1.84130929
    endloop
  endfacet
  facet normal 0.902619978 -0.194365365 0.384056349
    outer loop
      vertex 1.69117332 0.771205113 1.92439972
      vertex 1.72459561 0.762233467 1.84130929
      vertex 1.72486098 0.763453503 1.84130306
    endloop
  endfacet
  facet normal -0.374307319 0.0861289985 0.923296175
    outer loop
      vertex 1.68820775 0.771205113 1.92319747
      vertex 1.69090795 0.769985077 1.92440595
      vertex 1.69117332 0.771205113 1.92439972
    endloop
  endfacet
  facet normal 0.374307319 -0.0861289985 -0.923296175
    outer loop
      vertex 1.72189541 0.763453503 1.84010081
      vertex 1.72486098 0.763453503 1.84130306
      vertex 1.72459561 0.762233467 1.84130929
    endloop
  endfacet
  facet normal 0.752578429 -0.55350573 0.356731152
    outer loop
      vertex 1.69090795 0.769985077 1.92440595
      vertex 1.6902315 0.76895078 1.9242282
      vertex 1.72391916 0.76119917 1.84113154
    endloop
  endfacet
  facet normal 0.752578429 -0.55350573 0.356731152
    outer loop
      vertex 1.69090795 0.769985077 1.92440595
      vertex 1.72391916 0.76119917 1.84113154
      vertex 1.72459561 0.762233467 1.84130929
    endloop
  endfacet
  facet normal -0.374307319 0.0861289985 0.923296175
    outer loop
      vertex 1.68820775 0.771205113 1.92319747
      vertex 1.6902315 0.76895078 1.9242282
      vertex 1.69090795 0.769985077 1.92440595
    endloop
  endfacet
  facet normal 0.374307319 -0.0861289985 -0.923296175
    outer loop
      vertex 1.72189541 0.763453503 1.84010081
      vertex 1.72459561 0.762233467 1.84130929
      vertex 1.72391916 0.76119917 1.84113154
    endloop
  endfacet
  facet normal 0.487963636 -0.828379866 0.275096871
    outer loop
      vertex 1.6902315 0.76895078 1.9242282
      vertex 1.68924696 0.768259685 1.92389353
      vertex 1.72293462 0.760508075 1.84079687
    endloop
  endfacet
  facet normal 0.487963636 -0.828379866 0.275096871
    outer loop
      vertex 1.6902315 0.76895078 1.9242282
      vertex 1.72293462 0.760508075 1.84079687
      vertex 1.72391916 0.76119917 1.84113154
    endloop
  endfacet
  facet normal -0.374307319 0.0861289985 0.923296175
    outer loop
      vertex 1.68820775 0.771205113 1.92319747
      vertex 1.68924696 0.768259685 1.92389353
      vertex 1.6902315 0.76895078 1.9242282
    endloop
  endfacet
  facet normal 0.374307319 -0.0861289985 -0.923296175
    outer loop
      vertex 1.72189541 0.763453503 1.84010081
      vertex 1.72391916 0.76119917 1.84113154
      vertex 1.72293462 0.760508075 1.84079687
    endloop
  endfacet
  facet normal 0.149060802 -0.977140676 0.151581584
    outer loop
      vertex 1.68924696 0.768259685 1.92389353
      vertex 1.6881042 0.768017004 1.92345289
      vertex 1.72179186 0.760265395 1.84035623
    endloop
  endfacet
  facet normal 0.149060802 -0.977140676 0.151581584
    outer loop
      vertex 1.68924696 0.768259685 1.92389353
      vertex 1.72179186 0.760265395 1.84035623
      vertex 1.72293462 0.760508075 1.84079687
    endloop
  endfacet
  facet normal -0.374307319 0.0861289985 0.923296175
    outer loop
      vertex 1.68820775 0.771205113 1.92319747
      vertex 1.6881042 0.768017004 1.92345289
      vertex 1.68924696 0.768259685 1.92389353
    endloop
  endfacet
  facet normal 0.374307319 -0.0861289985 -0.923296175
    outer loop
      vertex 1.72189541 0.763453503 1.84010081
      vertex 1.72293462 0.760508075 1.84079687
      vertex 1.72179186 0.760265395 1.84035623
    endloop
  endfacet
  facet normal -0.212535187 -0.977140676 0.00498937613
    outer loop
      vertex 1.6881042 0.768017004 1.92345289
      vertex 1.68697721 0.768259685 1.92297337
      vertex 1.72066487 0.760508075 1.83987671
    endloop
  endfacet
  facet normal -0.212535187 -0.977140676 0.00498937613
    outer loop
      vertex 1.6881042 0.768017004 1.92345289
      vertex 1.72066487 0.760508075 1.83987671
      vertex 1.72179186 0.760265395 1.84035623
    endloop
  endfacet
  facet normal -0.374307319 0.0861289985 0.923296175
    outer loop
      vertex 1.68820775 0.771205113 1.92319747
      vertex 1.68697721 0.768259685 1.92297337
      vertex 1.6881042 0.768017004 1.92345289
    endloop
  endfacet
  facet normal 0.374307319 -0.0861289985 -0.923296175
    outer loop
      vertex 1.72189541 0.763453503 1.84010081
      vertex 1.72179186 0.760265395 1.84035623
      vertex 1.72066487 0.760508075 1.83987671
    endloop
  endfacet
  facet normal -0.541774621 -0.828379866 -0.142362419
    outer loop
      vertex 1.68697721 0.768259685 1.92297337
      vertex 1.68603756 0.76895078 1.92252796
      vertex 1.71972522 0.76119917 1.8394313
    endloop
  endfacet
  facet normal -0.541774621 -0.828379866 -0.142362419
    outer loop
      vertex 1.68697721 0.768259685 1.92297337
      vertex 1.71972522 0.76119917 1.8394313
      vertex 1.72066487 0.760508075 1.83987671
    endloop
  endfacet
  facet normal -0.374307319 0.0861289985 0.923296175
    outer loop
      vertex 1.68820775 0.771205113 1.92319747
      vertex 1.68603756 0.76895078 1.92252796
      vertex 1.68697721 0.768259685 1.92297337
    endloop
  endfacet
  facet normal 0.374307319 -0.0861289985 -0.923296175
    outer loop
      vertex 1.72189541 0.763453503 1.84010081
      vertex 1.72066487 0.760508075 1.83987671
      vertex 1.71972522 0.76119917 1.8394313
    endloop
  endfacet
  facet normal -0.788533779 -0.55350573 -0.268040827
    outer loop
      vertex 1.68603756 0.76895078 1.92252796
      vertex 1.6854283 0.769985077 1.92218448
      vertex 1.71911596 0.762233467 1.83908782
    endloop
  endfacet
  facet normal -0.788533779 -0.55350573 -0.268040827
    outer loop
      vertex 1.68603756 0.76895078 1.92252796
      vertex 1.71911596 0.762233467 1.83908782
      vertex 1.71972522 0.76119917 1.8394313
    endloop
  endfacet
  facet normal -0.374307319 0.0861289985 0.923296175
    outer loop
      vertex 1.68820775 0.771205113 1.92319747
      vertex 1.6854283 0.769985077 1.92218448
      vertex 1.68603756 0.76895078 1.92252796
    endloop
  endfacet
  facet normal 0.374307319 -0.0861289985 -0.923296175
    outer loop
      vertex 1.72189541 0.763453503 1.84010081
      vertex 1.71972522 0.76119917 1.8394313
      vertex 1.71911596 0.762233467 1.83908782
    endloop
  endfacet
  facet normal -0.915245819 -0.194365365 -0.352912449
    outer loop
      vertex 1.6854283 0.769985077 1.92218448
      vertex 1.68524218 0.771205113 1.92199522
      vertex 1.71892984 0.763453503 1.83889856
    endloop
  endfacet
  facet normal -0.915245819 -0.194365365 -0.352912449
    outer loop
      vertex 1.6854283 0.769985077 1.92218448
      vertex 1.71892984 0.763453503 1.83889856
      vertex 1.71911596 0.762233467 1.83908782
    endloop
  endfacet
  facet normal -0.374307319 0.0861289985 0.923296175
    outer loop
      vertex 1.68820775 0.771205113 1.92319747
      vertex 1.68524218 0.771205113 1.92199522
      vertex 1.6854283 0.769985077 1.92218448
    endloop
  endfacet
  facet normal 0.374307319 -0.0861289985 -0.923296175
    outer loop
      vertex 1.72189541 0.763453503 1.84010081
      vertex 1.71911596 0.762233467 1.83908782
      vertex 1.71892984 0.763453503 1.83889856
    endloop
  endfacet
  facet normal -0.902619978 0.194365365 -0.384056349
    outer loop
      vertex 1.68524218 0.771205113 1.92199522
      vertex 1.68550755 0.77242515 1.92198899
      vertex 1.71919521 0.76467354 1.83889233
    endloop
  endfacet
  facet normal -0.902619978 0.194365365 -0.384056349
    outer loop
      vertex 1.68524218 0.771205113 1.92199522
      vertex 1.71919521 0.76467354 1.83889233
      vertex 1.71892984 0.763453503 1.83889856
    endloop
  endfacet
  facet normal -0.374307319 0.0861289985 0.923296175
    outer loop
      vertex 1.68820775 0.771205113 1.92319747
      vertex 1.68550755 0.77242515 1.92198899
      vertex 1.68524218 0.771205113 1.92199522
    endloop
  endfacet
  facet normal 0.374307319 -0.0861289985 -0.923296175
    outer loop
      vertex 1.72189541 0.763453503 1.84010081
      vertex 1.71892984 0.763453503 1.83889856
      vertex 1.71919521 0.76467354 1.83889233
    endloop
  endfacet
  facet normal -0.752578429 0.55350573 -0.356731152
    outer loop
      vertex 1.68550755 0.77242515 1.92198899
      vertex 1.686184 0.773459447 1.92216674
      vertex 1.71987166 0.765707837 1.83907008
    endloop
  endfacet
  facet normal -0.752578429 0.55350573 -0.356731152
    outer loop
      vertex 1.68550755 0.77242515 1.92198899
      vertex 1.71987166 0.765707837 1.83907008
      vertex 1.71919521 0.76467354 1.83889233
    endloop
  endfacet
  facet normal -0.374307319 0.0861289985 0.923296175
    outer loop
      vertex 1.68820775 0.771205113 1.92319747
      vertex 1.686184 0.773459447 1.92216674
      vertex 1.68550755 0.77242515 1.92198899
    endloop
  endfacet
  facet normal 0.374307319 -0.0861289985 -0.923296175
    outer loop
      vertex 1.72189541 0.763453503 1.84010081
      vertex 1.71919521 0.76467354 1.83889233
      vertex 1.71987166 0.765707837 1.83907008
    endloop
  endfacet
  facet normal -0.487963636 0.828379866 -0.275096871
    outer loop
      vertex 1.686184 0.773459447 1.92216674
      vertex 1.68716854 0.774150542 1.92250141
      vertex 1.7208562 0.766398932 1.83940475
    endloop
  endfacet
  facet normal -0.487963636 0.828379866 -0.275096871
    outer loop
      vertex 1.686184 0.773459447 1.92216674
      vertex 1.7208562 0.766398932 1.83940475
      vertex 1.71987166 0.765707837 1.83907008
    endloop
  endfacet
  facet normal -0.374307319 0.0861289985 0.923296175
    outer loop
      vertex 1.68820775 0.771205113 1.92319747
      vertex 1.68716854 0.774150542 1.92250141
      vertex 1.686184 0.773459447 1.92216674
    endloop
  endfacet
  facet normal 0.374307319 -0.0861289985 -0.923296175
    outer loop
      vertex 1.72189541 0.763453503 1.84010081
      vertex 1.71987166 0.765707837 1.83907008
      vertex 1.7208562 0.766398932 1.83940475
    endloop
  endfacet
  facet normal -0.149060802 0.977140676 -0.151581584
    outer loop
      vertex 1.68716854 0.774150542 1.92250141
      vertex 1.6883113 0.774393222 1.92294205
      vertex 1.72199896 0.766641612 1.83984539
    endloop
  endfacet
  facet normal -0.149060802 0.977140676 -0.151581584
    outer loop
      vertex 1.68716854 0.774150542 1.92250141
      vertex 1.72199896 0.766641612 1.83984539
      vertex 1.7208562 0.766398932 1.83940475
    endloop
  endfacet
  facet normal -0.374307319 0.0861289985 0.923296175
    outer loop
      vertex 1.68820775 0.771205113 1.92319747
      vertex 1.6883113 0.774393222 1.92294205
      vertex 1.68716854 0.774150542 1.92250141
    endloop
  endfacet
  facet normal 0.374307319 -0.0861289985 -0.923296175
    outer loop
      vertex 1.72189541 0.763453503 1.84010081
      vertex 1.7208562 0.766398932 1.83940475
      vertex 1.72199896 0.766641612 1.83984539
    endloop
  endfacet
  facet normal 0.212535187 0.977140676 -0.00498937613
    outer loop
      vertex 1.6883113 0.774393222 1.92294205
      vertex 1.68943829 0.774150542 1.92342157
      vertex 1.72312595 0.766398932 1.84032492
    endloop
  endfacet
  facet normal 0.212535187 0.977140676 -0.00498937613
    outer loop
      vertex 1.6883113 0.774393222 1.92294205
      vertex 1.72312595 0.766398932 1.84032492
      vertex 1.72199896 0.766641612 1.83984539
    endloop
  endfacet
  facet normal -0.374307319 0.0861289985 0.923296175
    outer loop
      vertex 1.68820775 0.771205113 1.92319747
      vertex 1.68943829 0.774150542 1.92342157
      vertex 1.6883113 0.774393222 1.92294205
    endloop
  endfacet
  facet normal 0.374307319 -0.0861289985 -0.923296175
    outer loop
      vertex 1.72189541 0.763453503 1.84010081
      vertex 1.72199896 0.766641612 1.83984539
      vertex 1.72312595 0.766398932 1.84032492
    endloop
  endfacet
  facet normal 0.541774621 0.828379866 0.142362419
    outer loop
      vertex 1.68943829 0.774150542 1.92342157
      vertex 1.69037794 0.773459447 1.92386698
      vertex 1.7240656 0.765707837 1.84077032
    endloop
  endfacet
  facet normal 0.541774621 0.828379866 0.142362419
    outer loop
      vertex 1.68943829 0.774150542 1.92342157
      vertex 1.7240656 0.765707837 1.84077032
      vertex 1.72312595 0.766398932 1.84032492
    endloop
  endfacet
  facet normal -0.374307319 0.0861289985 0.923296175
    outer loop
      vertex 1.68820775 0.771205113 1.92319747
      vertex 1.69037794 0.773459447 1.92386698
      vertex 1.68943829 0.774150542 1.92342157
    endloop
  endfacet
  facet normal 0.374307319 -0.0861289985 -0.923296175
    outer loop
      vertex 1.72189541 0.763453503 1.84010081
      vertex 1.72312595 0.766398932 1.84032492
      vertex 1.7240656 0.765707837 1.84077032
    endloop
  endfacet
  facet normal 0.788533779 0.55350573 0.268040827
    outer loop
      vertex 1.69037794 0.773459447 1.92386698
      vertex 1.6909872 0.77242515 1.92421046
      vertex 1.72467486 0.76467354 1.8411138
    endloop
  endfacet
  facet normal 0.788533779 0.55350573 0.268040827
    outer loop
      vertex 1.69037794 0.773459447 1.92386698
      vertex 1.72467486 0.76467354 1.8411138
      vertex 1.7240656 0.765707837 1.84077032
    endloop
  endfacet
  facet normal -0.374307319 0.0861289985 0.923296175
    outer loop
      vertex 1.68820775 0.771205113 1.92319747
      vertex 1.6909872 0.77242515 1.92421046
      vertex 1.69037794 0.773459447 1.92386698
    endloop
  endfacet
  facet normal 0.374307319 -0.0861289985 -0.923296175
    outer loop
      vertex 1.72189541 0.763453503 1.84010081
      vertex 1.7240656 0.765707837 1.84077032
      vertex 1.72467486 0.76467354 1.8411138
    endloop
  endfacet
  facet normal 0.915245819 0.194365365 0.352912449
    outer loop
      vertex 1.6909872 0.77242515 1.92421046
      vertex 1.69117332 0.771205113 1.92439972
      vertex 1.72486098 0.763453503 1.84130306
    endloop
  endfacet
  facet normal 0.915245819 0.194365365 0.352912449
    outer loop
      vertex 1.6909872 0.77242515 1.92421046
      vertex 1.72486098 0.763453503 1.84130306
      vertex 1.72467486 0.76467354 1.8411138
    endloop
  endfacet
  facet normal -0.374307319 0.0861289985 0.923296175
    outer loop
      vertex 1.68820775 0.771205113 1.92319747
      vertex 1.69117332 0.771205113 1.92439972
      vertex 1.6909872 0.77242515 1.92421046
    endloop
  endfacet
  facet normal 0.374307319 -0.0861289985 -0.923296175
    outer loop
      vertex 1.72189541 0.763453503 1.84010081
      vertex 1.72467486 0.76467354 1.8411138
      vertex 1.72486098 0.763453503 1.84130306
    endloop
  endfacet
  facet normal 0.121961562 0.97603349 -0.180233191
    outer loop
      vertex 1.84996551 0.47878699 1.98411216
      vertex 1.85042193 0.478521048 1.98298083
      vertex 1.71200695 0.485214676 1.92556576
    endloop
  endfacet
  facet normal 0.121961562 0.97603349 -0.180233191
    outer loop
      vertex 1.84996551 0.47878699 1.98411216
      vertex 1.71200695 0.485214676 1.92556576
      vertex 1.71155053 0.485480619 1.92669709
    endloop
  endfacet
  facet normal 0.922766495 -0.044624188 0.382767132
    outer loop
      vertex 1.84981094 0.475590726 1.98411216
      vertex 1.85042193 0.478521048 1.98298083
      vertex 1.84996551 0.47878699 1.98411216
    endloop
  endfacet
  facet normal -0.922766495 0.044624188 -0.382767132
    outer loop
      vertex 1.71139597 0.482284354 1.92669709
      vertex 1.71155053 0.485480619 1.92669709
      vertex 1.71200695 0.485214676 1.92556576
    endloop
  endfacet
  facet normal 0.252568018 0.820227314 -0.513260703
    outer loop
      vertex 1.85042193 0.478521048 1.98298083
      vertex 1.85078533 0.477808991 1.98202173
      vertex 1.71237035 0.484502619 1.92460666
    endloop
  endfacet
  facet normal 0.252568018 0.820227314 -0.513260703
    outer loop
      vertex 1.85042193 0.478521048 1.98298083
      vertex 1.71237035 0.484502619 1.92460666
      vertex 1.71200695 0.485214676 1.92556576
    endloop
  endfacet
  facet normal 0.922766495 -0.044624188 0.382767132
    outer loop
      vertex 1.84981094 0.475590726 1.98411216
      vertex 1.85078533 0.477808991 1.98202173
      vertex 1.85042193 0.478521048 1.98298083
    endloop
  endfacet
  facet normal -0.922766495 0.044624188 -0.382767132
    outer loop
      vertex 1.71139597 0.482284354 1.92669709
      vertex 1.71200695 0.485214676 1.92556576
      vertex 1.71237035 0.484502619 1.92460666
    endloop
  endfacet
  facet normal 0.344723283 0.539548964 -0.768148926
    outer loop
      vertex 1.85078533 0.477808991 1.98202173
      vertex 1.85100039 0.476759223 1.98138089
      vertex 1.71258541 0.483452851 1.92396582
    endloop
  endfacet
  facet normal 0.344723283 0.539548964 -0.768148926
    outer loop
      vertex 1.85078533 0.477808991 1.98202173
      vertex 1.71258541 0.483452851 1.92396582
      vertex 1.71237035 0.484502619 1.92460666
    endloop
  endfacet
  facet normal 0.922766495 -0.044624188 0.382767132
    outer loop
      vertex 1.84981094 0.475590726 1.98411216
      vertex 1.85100039 0.476759223 1.98138089
      vertex 1.85078533 0.477808991 1.98202173
    endloop
  endfacet
  facet normal -0.922766495 0.044624188 -0.382767132
    outer loop
      vertex 1.71139597 0.482284354 1.92669709
      vertex 1.71237035 0.484502619 1.92460666
      vertex 1.71258541 0.483452851 1.92396582
    endloop
  endfacet
  facet normal 0.384397553 0.176729176 -0.906093439
    outer loop
      vertex 1.85100039 0.476759223 1.98138089
      vertex 1.85103437 0.475531562 1.98115585
      vertex 1.71261939 0.48222519 1.92374078
    endloop
  endfacet
  facet normal 0.384397553 0.176729176 -0.906093439
    outer loop
      vertex 1.85100039 0.476759223 1.98138089
      vertex 1.71261939 0.48222519 1.92374078
      vertex 1.71258541 0.483452851 1.92396582
    endloop
  endfacet
  facet normal 0.922766495 -0.044624188 0.382767132
    outer loop
      vertex 1.84981094 0.475590726 1.98411216
      vertex 1.85103437 0.475531562 1.98115585
      vertex 1.85100039 0.476759223 1.98138089
    endloop
  endfacet
  facet normal -0.922766495 0.044624188 -0.382767132
    outer loop
      vertex 1.71139597 0.482284354 1.92669709
      vertex 1.71258541 0.483452851 1.92396582
      vertex 1.71261939 0.48222519 1.92374078
    endloop
  endfacet
  facet normal 0.36555078 -0.212996027 -0.906093439
    outer loop
      vertex 1.85103437 0.475531562 1.98115585
      vertex 1.85088209 0.474312908 1.98138089
      vertex 1.71246711 0.481006536 1.92396582
    endloop
  endfacet
  facet normal 0.36555078 -0.212996027 -0.906093439
    outer loop
      vertex 1.85103437 0.475531562 1.98115585
      vertex 1.71246711 0.481006536 1.92396582
      vertex 1.71261939 0.48222519 1.92374078
    endloop
  endfacet
  facet normal 0.922766495 -0.044624188 0.382767132
    outer loop
      vertex 1.84981094 0.475590726 1.98411216
      vertex 1.85088209 0.474312908 1.98138089
      vertex 1.85103437 0.475531562 1.98115585
    endloop
  endfacet
  facet normal -0.922766495 0.044624188 -0.382767132
    outer loop
      vertex 1.71139597 0.482284354 1.92669709
      vertex 1.71261939 0.48222519 1.92374078
      vertex 1.71246711 0.481006536 1.92396582
    endloop
  endfacet
  facet normal 0.291052214 -0.570294516 -0.768148926
    outer loop
      vertex 1.85088209 0.474312908 1.98138089
      vertex 1.85056674 0.47328879 1.98202173
      vertex 1.71215176 0.479982418 1.92460666
    endloop
  endfacet
  facet normal 0.291052214 -0.570294516 -0.768148926
    outer loop
      vertex 1.85088209 0.474312908 1.98138089
      vertex 1.71215176 0.479982418 1.92460666
      vertex 1.71246711 0.481006536 1.92396582
    endloop
  endfacet
  facet normal 0.922766495 -0.044624188 0.382767132
    outer loop
      vertex 1.84981094 0.475590726 1.98411216
      vertex 1.85056674 0.47328879 1.98202173
      vertex 1.85088209 0.474312908 1.98138089
    endloop
  endfacet
  facet normal -0.922766495 0.044624188 -0.382767132
    outer loop
      vertex 1.71139597 0.482284354 1.92669709
      vertex 1.71246711 0.481006536 1.92396582
      vertex 1.71215176 0.479982418 1.92460666
    endloop
  endfacet
  facet normal 0.172243588 -0.840770835 -0.513260703
    outer loop
      vertex 1.85056674 0.47328879 1.98202173
      vertex 1.85013632 0.472615121 1.98298083
      vertex 1.71172135 0.479308749 1.92556576
    endloop
  endfacet
  facet normal 0.172243588 -0.840770835 -0.513260703
    outer loop
      vertex 1.85056674 0.47328879 1.98202173
      vertex 1.71172135 0.479308749 1.92556576
      vertex 1.71215176 0.479982418 1.92460666
    endloop
  endfacet
  facet normal 0.922766495 -0.044624188 0.382767132
    outer loop
      vertex 1.84981094 0.475590726 1.98411216
      vertex 1.85013632 0.472615121 1.98298083
      vertex 1.85056674 0.47328879 1.98202173
    endloop
  endfacet
  facet normal -0.922766495 0.044624188 -0.382767132
    outer loop
      vertex 1.71139597 0.482284354 1.92669709
      vertex 1.71215176 0.479982418 1.92460666
      vertex 1.71172135 0.479308749 1.92556576
    endloop
  endfacet
  facet normal 0.0272124359 -0.983247416 -0.180233191
    outer loop
      vertex 1.85013632 0.472615121 1.98298083
      vertex 1.84965637 0.472394461 1.98411216
      vertex 1.7112414 0.479088089 1.92669709
    endloop
  endfacet
  facet normal 0.0272124359 -0.983247416 -0.180233191
    outer loop
      vertex 1.85013632 0.472615121 1.98298083
      vertex 1.7112414 0.479088089 1.92669709
      vertex 1.71172135 0.479308749 1.92556576
    endloop
  endfacet
  facet normal 0.922766495 -0.044624188 0.382767132
    outer loop
      vertex 1.84981094 0.475590726 1.98411216
      vertex 1.84965637 0.472394461 1.98411216
      vertex 1.85013632 0.472615121 1.98298083
    endloop
  endfacet
  facet normal -0.922766495 0.044624188 -0.382767132
    outer loop
      vertex 1.71139597 0.482284354 1.92669709
      vertex 1.71172135 0.479308749 1.92556576
      vertex 1.7112414 0.479088089 1.92669709
    endloop
  endfacet
  facet normal -0.121961562 -0.97603349 0.180233191
    outer loop
      vertex 1.84965637 0.472394461 1.98411216
      vertex 1.84919995 0.472660403 1.98524348
      vertex 1.71078498 0.479354031 1.92782841
    endloop
  endfacet
  facet normal -0.121961562 -0.97603349 0.180233191
    outer loop
      vertex 1.84965637 0.472394461 1.98411216
      vertex 1.71078498 0.479354031 1.92782841
      vertex 1.7112414 0.479088089 1.92669709
    endloop
  endfacet
  facet normal 0.922766495 -0.044624188 0.382767132
    outer loop
      vertex 1.84981094 0.475590726 1.98411216
      vertex 1.84919995 0.472660403 1.98524348
      vertex 1.84965637 0.472394461 1.98411216
    endloop
  endfacet
  facet normal -0.922766495 0.044624188 -0.382767132
    outer loop
      vertex 1.71139597 0.482284354 1.92669709
      vertex 1.7112414 0.479088089 1.92669709
      vertex 1.71078498 0.479354031 1.92782841
    endloop
  endfacet
  facet normal -0.252568018 -0.820227314 0.513260703
    outer loop
      vertex 1.84919995 0.472660403 1.98524348
      vertex 1.84883655 0.47337246 1.98620258
      vertex 1.71042158 0.480066088 1.92878751
    endloop
  endfacet
  facet normal -0.252568018 -0.820227314 0.513260703
    outer loop
      vertex 1.84919995 0.472660403 1.98524348
      vertex 1.71042158 0.480066088 1.92878751
      vertex 1.71078498 0.479354031 1.92782841
    endloop
  endfacet
  facet normal 0.922766495 -0.044624188 0.382767132
    outer loop
      vertex 1.84981094 0.475590726 1.98411216
      vertex 1.84883655 0.47337246 1.98620258
      vertex 1.84919995 0.472660403 1.98524348
    endloop
  endfacet
  facet normal -0.922766495 0.044624188 -0.382767132
    outer loop
      vertex 1.71139597 0.482284354 1.92669709
      vertex 1.71078498 0.479354031 1.92782841
      vertex 1.71042158 0.480066088 1.92878751
    endloop
  endfacet
  facet normal -0.344723283 -0.539548964 0.768148926
    outer loop
      vertex 1.84883655 0.47337246 1.98620258
      vertex 1.84862149 0.474422228 1.98684342
      vertex 1.71020652 0.481115856 1.92942835
    endloop
  endfacet
  facet normal -0.344723283 -0.539548964 0.768148926
    outer loop
      vertex 1.84883655 0.47337246 1.98620258
      vertex 1.71020652 0.481115856 1.92942835
      vertex 1.71042158 0.480066088 1.92878751
    endloop
  endfacet
  facet normal 0.922766495 -0.044624188 0.382767132
    outer loop
      vertex 1.84981094 0.475590726 1.98411216
      vertex 1.84862149 0.474422228 1.98684342
      vertex 1.84883655 0.47337246 1.98620258
    endloop
  endfacet
  facet normal -0.922766495 0.044624188 -0.382767132
    outer loop
      vertex 1.71139597 0.482284354 1.92669709
      vertex 1.71042158 0.480066088 1.92878751
      vertex 1.71020652 0.481115856 1.92942835
    endloop
  endfacet
  facet normal -0.384397553 -0.176729176 0.906093439
    outer loop
      vertex 1.84862149 0.474422228 1.98684342
      vertex 1.84858752 0.475649889 1.98706846
      vertex 1.71017254 0.482343518 1.92965339
    endloop
  endfacet
  facet normal -0.384397553 -0.176729176 0.906093439
    outer loop
      vertex 1.84862149 0.474422228 1.98684342
      vertex 1.71017254 0.482343518 1.92965339
      vertex 1.71020652 0.481115856 1.92942835
    endloop
  endfacet
  facet normal 0.922766495 -0.044624188 0.382767132
    outer loop
      vertex 1.84981094 0.475590726 1.98411216
      vertex 1.84858752 0.475649889 1.98706846
      vertex 1.84862149 0.474422228 1.98684342
    endloop
  endfacet
  facet normal -0.922766495 0.044624188 -0.382767132
    outer loop
      vertex 1.71139597 0.482284354 1.92669709
      vertex 1.71020652 0.481115856 1.92942835
      vertex 1.71017254 0.482343518 1.92965339
    endloop
  endfacet
  facet normal -0.36555078 0.212996027 0.906093439
    outer loop
      vertex 1.84858752 0.475649889 1.98706846
      vertex 1.84873979 0.476868543 1.98684342
      vertex 1.71032482 0.483562172 1.92942835
    endloop
  endfacet
  facet normal -0.36555078 0.212996027 0.906093439
    outer loop
      vertex 1.84858752 0.475649889 1.98706846
      vertex 1.71032482 0.483562172 1.92942835
      vertex 1.71017254 0.482343518 1.92965339
    endloop
  endfacet
  facet normal 0.922766495 -0.044624188 0.382767132
    outer loop
      vertex 1.84981094 0.475590726 1.98411216
      vertex 1.84873979 0.476868543 1.98684342
      vertex 1.84858752 0.475649889 1.98706846
    endloop
  endfacet
  facet normal -0.922766495 0.044624188 -0.382767132
    outer loop
      vertex 1.71139597 0.482284354 1.92669709
      vertex 1.71017254 0.482343518 1.92965339
      vertex 1.71032482 0.483562172 1.92942835
    endloop
  endfacet
  facet normal -0.291052214 0.570294516 0.768148926
    outer loop
      vertex 1.84873979 0.476868543 1.98684342
      vertex 1.84905514 0.477892661 1.98620258
      vertex 1.71064017 0.484586289 1.92878751
    endloop
  endfacet
  facet normal -0.291052214 0.570294516 0.768148926
    outer loop
      vertex 1.84873979 0.476868543 1.98684342
      vertex 1.71064017 0.484586289 1.92878751
      vertex 1.71032482 0.483562172 1.92942835
    endloop
  endfacet
  facet normal 0.922766495 -0.044624188 0.382767132
    outer loop
      vertex 1.84981094 0.475590726 1.98411216
      vertex 1.84905514 0.477892661 1.98620258
      vertex 1.84873979 0.476868543 1.98684342
    endloop
  endfacet
  facet normal -0.922766495 0.044624188 -0.382767132
    outer loop
      vertex 1.71139597 0.482284354 1.92669709
      vertex 1.71032482 0.483562172 1.92942835
      vertex 1.71064017 0.484586289 1.92878751
    endloop
  endfacet
  facet normal -0.172243588 0.840770835 0.513260703
    outer loop
      vertex 1.84905514 0.477892661 1.98620258
      vertex 1.84948556 0.47856633 1.98524348
      vertex 1.71107058 0.485259958 1.92782841
    endloop
  endfacet
  facet normal -0.172243588 0.840770835 0.513260703
    outer loop
      vertex 1.84905514 0.477892661 1.98620258
      vertex 1.71107058 0.485259958 1.92782841
      vertex 1.71064017 0.484586289 1.92878751
    endloop
  endfacet
  facet normal 0.922766495 -0.044624188 0.382767132
    outer loop
      vertex 1.84981094 0.475590726 1.98411216
      vertex 1.84948556 0.47856633 1.98524348
      vertex 1.84905514 0.477892661 1.98620258
    endloop
  endfacet
  facet normal -0.922766495 0.044624188 -0.382767132
    outer loop
      vertex 1.71139597 0.482284354 1.92669709
      vertex 1.71064017 0.484586289 1.92878751
      vertex 1.71107058 0.485259958 1.92782841
    endloop
  endfacet
  facet normal -0.0272124359 0.983247416 0.180233191
    outer loop
      vertex 1.84948556 0.47856633 1.98524348
      vertex 1.84996551 0.47878699 1.98411216
      vertex 1.71155053 0.485480619 1.92669709
    endloop
  endfacet
  facet normal -0.0272124359 0.983247416 0.180233191
    outer loop
      vertex 1.84948556 0.47856633 1.98524348
      vertex 1.71155053 0.485480619 1.92669709
      vertex 1.71107058 0.485259958 1.92782841
    endloop
  endfacet
  facet normal 0.922766495 -0.044624188 0.382767132
    outer loop
      vertex 1.84981094 0.475590726 1.98411216
      vertex 1.84996551 0.47878699 1.98411216
      vertex 1.84948556 0.47856633 1.98524348
    endloop
  endfacet
  facet normal -0.922766495 0.044624188 -0.382767132
    outer loop
      vertex 1.71139597 0.482284354 1.92669709
      vertex 1.71107058 0.485259958 1.92782841
      vertex 1.71155053 0.485480619 1.92669709
    endloop
  endfacet
  facet normal 0.121961562 0.97603349 -0.180233191
    outer loop
      vertex 1.86131532 0.476267375 1.95645654
      vertex 1.86177174 0.476001432 1.95532521
      vertex 1.72335677 0.482695061 1.89791014
    endloop
  endfacet
  facet normal 0.121961562 0.97603349 -0.180233191
    outer loop
      vertex 1.86131532 0.476267375 1.95645654
      vertex 1.72335677 0.482695061 1.89791014
      vertex 1.72290035 0.482961003 1.89904147
    endloop
  endfacet
  facet normal 0.922766495 -0.044624188 0.382767132
    outer loop
      vertex 1.86116075 0.47307111 1.95645654
      vertex 1.86177174 0.476001432 1.95532521
      vertex 1.86131532 0.476267375 1.95645654
    endloop
  endfacet
  facet normal -0.922766495 0.044624188 -0.382767132
    outer loop
      vertex 1.72274578 0.479764738 1.89904147
      vertex 1.72290035 0.482961003 1.89904147
      vertex 1.72335677 0.482695061 1.89791014
    endloop
  endfacet
  facet normal 0.252568018 0.820227314 -0.513260703
    outer loop
      vertex 1.86177174 0.476001432 1.95532521
      vertex 1.86213514 0.475289375 1.95436611
      vertex 1.72372017 0.481983003 1.89695104
    endloop
  endfacet
  facet normal 0.252568018 0.820227314 -0.513260703
    outer loop
      vertex 1.86177174 0.476001432 1.95532521
      vertex 1.72372017 0.481983003 1.89695104
      vertex 1.72335677 0.482695061 1.89791014
    endloop
  endfacet
  facet normal 0.922766495 -0.044624188 0.382767132
    outer loop
      vertex 1.86116075 0.47307111 1.95645654
      vertex 1.86213514 0.475289375 1.95436611
      vertex 1.86177174 0.476001432 1.95532521
    endloop
  endfacet
  facet normal -0.922766495 0.044624188 -0.382767132
    outer loop
      vertex 1.72274578 0.479764738 1.89904147
      vertex 1.72335677 0.482695061 1.89791014
      vertex 1.72372017 0.481983003 1.89695104
    endloop
  endfacet
  facet normal 0.344723283 0.539548964 -0.768148926
    outer loop
      vertex 1.86213514 0.475289375 1.95436611
      vertex 1.8623502 0.474239607 1.95372527
      vertex 1.72393523 0.480933235 1.8963102
    endloop
  endfacet
  facet normal 0.344723283 0.539548964 -0.768148926
    outer loop
      vertex 1.86213514 0.475289375 1.95436611
      vertex 1.72393523 0.480933235 1.8963102
      vertex 1.72372017 0.481983003 1.89695104
    endloop
  endfacet
  facet normal 0.922766495 -0.044624188 0.382767132
    outer loop
      vertex 1.86116075 0.47307111 1.95645654
      vertex 1.8623502 0.474239607 1.95372527
      vertex 1.86213514 0.475289375 1.95436611
    endloop
  endfacet
  facet normal -0.922766495 0.044624188 -0.382767132
    outer loop
      vertex 1.72274578 0.479764738 1.89904147
      vertex 1.72372017 0.481983003 1.89695104
      vertex 1.72393523 0.480933235 1.8963102
    endloop
  endfacet
  facet normal 0.384397553 0.176729176 -0.906093439
    outer loop
      vertex 1.8623502 0.474239607 1.95372527
      vertex 1.86238418 0.473011946 1.95350023
      vertex 1.7239692 0.479705574 1.89608516
    endloop
  endfacet
  facet normal 0.384397553 0.176729176 -0.906093439
    outer loop
      vertex 1.8623502 0.474239607 1.95372527
      vertex 1.7239692 0.479705574 1.89608516
      vertex 1.72393523 0.480933235 1.8963102
    endloop
  endfacet
  facet normal 0.922766495 -0.044624188 0.382767132
    outer loop
      vertex 1.86116075 0.47307111 1.95645654
      vertex 1.86238418 0.473011946 1.95350023
      vertex 1.8623502 0.474239607 1.95372527
    endloop
  endfacet
  facet normal -0.922766495 0.044624188 -0.382767132
    outer loop
      vertex 1.72274578 0.479764738 1.89904147
      vertex 1.72393523 0.480933235 1.8963102
      vertex 1.7239692 0.479705574 1.89608516
    endloop
  endfacet
  facet normal 0.36555078 -0.212996027 -0.906093439
    outer loop
      vertex 1.86238418 0.473011946 1.95350023
      vertex 1.8622319 0.471793292 1.95372527
      vertex 1.72381692 0.47848692 1.8963102
    endloop
  endfacet
  facet normal 0.36555078 -0.212996027 -0.906093439
    outer loop
      vertex 1.86238418 0.473011946 1.95350023
      vertex 1.72381692 0.47848692 1.8963102
      vertex 1.7239692 0.479705574 1.89608516
    endloop
  endfacet
  facet normal 0.922766495 -0.044624188 0.382767132
    outer loop
      vertex 1.86116075 0.47307111 1.95645654
      vertex 1.8622319 0.471793292 1.95372527
      vertex 1.86238418 0.473011946 1.95350023
    endloop
  endfacet
  facet normal -0.922766495 0.044624188 -0.382767132
    outer loop
      vertex 1.72274578 0.479764738 1.89904147
      vertex 1.7239692 0.479705574 1.89608516
      vertex 1.72381692 0.47848692 1.8963102
    endloop
  endfacet
  facet normal 0.291052214 -0.570294516 -0.768148926
    outer loop
      vertex 1.8622319 0.471793292 1.95372527
      vertex 1.86191655 0.470769174 1.95436611
      vertex 1.72350157 0.477462802 1.89695104
    endloop
  endfacet
  facet normal 0.291052214 -0.570294516 -0.768148926
    outer loop
      vertex 1.8622319 0.471793292 1.95372527
      vertex 1.72350157 0.477462802 1.89695104
      vertex 1.72381692 0.47848692 1.8963102
    endloop
  endfacet
  facet normal 0.922766495 -0.044624188 0.382767132
    outer loop
      vertex 1.86116075 0.47307111 1.95645654
      vertex 1.86191655 0.470769174 1.95436611
      vertex 1.8622319 0.471793292 1.95372527
    endloop
  endfacet
  facet normal -0.922766495 0.044624188 -0.382767132
    outer loop
      vertex 1.72274578 0.479764738 1.89904147
      vertex 1.72381692 0.47848692 1.8963102
      vertex 1.72350157 0.477462802 1.89695104
    endloop
  endfacet
  facet normal 0.172243588 -0.840770835 -0.513260703
    outer loop
      vertex 1.86191655 0.470769174 1.95436611
      vertex 1.86148613 0.470095505 1.95532521
      vertex 1.72307116 0.476789133 1.89791014
    endloop
  endfacet
  facet normal 0.172243588 -0.840770835 -0.513260703
    outer loop
      vertex 1.86191655 0.470769174 1.95436611
      vertex 1.72307116 0.476789133 1.89791014
      vertex 1.72350157 0.477462802 1.89695104
    endloop
  endfacet
  facet normal 0.922766495 -0.044624188 0.382767132
    outer loop
      vertex 1.86116075 0.47307111 1.95645654
      vertex 1.86148613 0.470095505 1.95532521
      vertex 1.86191655 0.470769174 1.95436611
    endloop
  endfacet
  facet normal -0.922766495 0.044624188 -0.382767132
    outer loop
      vertex 1.72274578 0.479764738 1.89904147
      vertex 1.72350157 0.477462802 1.89695104
      vertex 1.72307116 0.476789133 1.89791014
    endloop
  endfacet
  facet normal 0.0272124359 -0.983247416 -0.180233191
    outer loop
      vertex 1.86148613 0.470095505 1.95532521
      vertex 1.86100618 0.469874845 1.95645654
      vertex 1.72259121 0.476568473 1.89904147
    endloop
  endfacet
  facet normal 0.0272124359 -0.983247416 -0.180233191
    outer loop
      vertex 1.86148613 0.470095505 1.95532521
      vertex 1.72259121 0.476568473 1.89904147
      vertex 1.72307116 0.476789133 1.89791014
    endloop
  endfacet
  facet normal 0.922766495 -0.044624188 0.382767132
    outer loop
      vertex 1.86116075 0.47307111 1.95645654
      vertex 1.86100618 0.469874845 1.95645654
      vertex 1.86148613 0.470095505 1.95532521
    endloop
  endfacet
  facet normal -0.922766495 0.044624188 -0.382767132
    outer loop
      vertex 1.72274578 0.479764738 1.89904147
      vertex 1.72307116 0.476789133 1.89791014
      vertex 1.72259121 0.476568473 1.89904147
    endloop
  endfacet
  facet normal -0.121961562 -0.97603349 0.180233191
    outer loop
      vertex 1.86100618 0.469874845 1.95645654
      vertex 1.86054977 0.470140787 1.95758786
      vertex 1.72213479 0.476834415 1.90017279
    endloop
  endfacet
  facet normal -0.121961562 -0.97603349 0.180233191
    outer loop
      vertex 1.86100618 0.469874845 1.95645654
      vertex 1.72213479 0.476834415 1.90017279
      vertex 1.72259121 0.476568473 1.89904147
    endloop
  endfacet
  facet normal 0.922766495 -0.044624188 0.382767132
    outer loop
      vertex 1.86116075 0.47307111 1.95645654
      vertex 1.86054977 0.470140787 1.95758786
      vertex 1.86100618 0.469874845 1.95645654
    endloop
  endfacet
  facet normal -0.922766495 0.044624188 -0.382767132
    outer loop
      vertex 1.72274578 0.479764738 1.89904147
      vertex 1.72259121 0.476568473 1.89904147
      vertex 1.72213479 0.476834415 1.90017279
    endloop
  endfacet
  facet normal -0.252568018 -0.820227314 0.513260703
    outer loop
      vertex 1.86054977 0.470140787 1.95758786
      vertex 1.86018636 0.470852844 1.95854696
      vertex 1.72177139 0.477546473 1.90113189
    endloop
  endfacet
  facet normal -0.252568018 -0.820227314 0.513260703
    outer loop
      vertex 1.86054977 0.470140787 1.95758786
      vertex 1.72177139 0.477546473 1.90113189
      vertex 1.72213479 0.476834415 1.90017279
    endloop
  endfacet
  facet normal 0.922766495 -0.044624188 0.382767132
    outer loop
      vertex 1.86116075 0.47307111 1.95645654
      vertex 1.86018636 0.470852844 1.95854696
      vertex 1.86054977 0.470140787 1.95758786
    endloop
  endfacet
  facet normal -0.922766495 0.044624188 -0.382767132
    outer loop
      vertex 1.72274578 0.479764738 1.89904147
      vertex 1.72213479 0.476834415 1.90017279
      vertex 1.72177139 0.477546473 1.90113189
    endloop
  endfacet
  facet normal -0.344723283 -0.539548964 0.768148926
    outer loop
      vertex 1.86018636 0.470852844 1.95854696
      vertex 1.8599713 0.471902612 1.9591878
      vertex 1.72155633 0.478596241 1.90177273
    endloop
  endfacet
  facet normal -0.344723283 -0.539548964 0.768148926
    outer loop
      vertex 1.86018636 0.470852844 1.95854696
      vertex 1.72155633 0.478596241 1.90177273
      vertex 1.72177139 0.477546473 1.90113189
    endloop
  endfacet
  facet normal 0.922766495 -0.044624188 0.382767132
    outer loop
      vertex 1.86116075 0.47307111 1.95645654
      vertex 1.8599713 0.471902612 1.9591878
      vertex 1.86018636 0.470852844 1.95854696
    endloop
  endfacet
  facet normal -0.922766495 0.044624188 -0.382767132
    outer loop
      vertex 1.72274578 0.479764738 1.89904147
      vertex 1.72177139 0.477546473 1.90113189
      vertex 1.72155633 0.478596241 1.90177273
    endloop
  endfacet
  facet normal -0.384397553 -0.176729176 0.906093439
    outer loop
      vertex 1.8599713 0.471902612 1.9591878
      vertex 1.85993733 0.473130274 1.95941284
      vertex 1.72152235 0.479823902 1.90199777
    endloop
  endfacet
  facet normal -0.384397553 -0.176729176 0.906093439
    outer loop
      vertex 1.8599713 0.471902612 1.9591878
      vertex 1.72152235 0.479823902 1.90199777
      vertex 1.72155633 0.478596241 1.90177273
    endloop
  endfacet
  facet normal 0.922766495 -0.044624188 0.382767132
    outer loop
      vertex 1.86116075 0.47307111 1.95645654
      vertex 1.85993733 0.473130274 1.95941284
      vertex 1.8599713 0.471902612 1.9591878
    endloop
  endfacet
  facet normal -0.922766495 0.044624188 -0.382767132
    outer loop
      vertex 1.72274578 0.479764738 1.89904147
      vertex 1.72155633 0.478596241 1.90177273
      vertex 1.72152235 0.479823902 1.90199777
    endloop
  endfacet
  facet normal -0.36555078 0.212996027 0.906093439
    outer loop
      vertex 1.85993733 0.473130274 1.95941284
      vertex 1.86008961 0.474348928 1.9591878
      vertex 1.72167463 0.481042556 1.90177273
    endloop
  endfacet
  facet normal -0.36555078 0.212996027 0.906093439
    outer loop
      vertex 1.85993733 0.473130274 1.95941284
      vertex 1.72167463 0.481042556 1.90177273
      vertex 1.72152235 0.479823902 1.90199777
    endloop
  endfacet
  facet normal 0.922766495 -0.044624188 0.382767132
    outer loop
      vertex 1.86116075 0.47307111 1.95645654
      vertex 1.86008961 0.474348928 1.9591878
      vertex 1.85993733 0.473130274 1.95941284
    endloop
  endfacet
  facet normal -0.922766495 0.044624188 -0.382767132
    outer loop
      vertex 1.72274578 0.479764738 1.89904147
      vertex 1.72152235 0.479823902 1.90199777
      vertex 1.72167463 0.481042556 1.90177273
    endloop
  endfacet
  facet normal -0.291052214 0.570294516 0.768148926
    outer loop
      vertex 1.86008961 0.474348928 1.9591878
      vertex 1.86040496 0.475373045 1.95854696
      vertex 1.72198998 0.482066674 1.90113189
    endloop
  endfacet
  facet normal -0.291052214 0.570294516 0.768148926
    outer loop
      vertex 1.86008961 0.474348928 1.9591878
      vertex 1.72198998 0.482066674 1.90113189
      vertex 1.72167463 0.481042556 1.90177273
    endloop
  endfacet
  facet normal 0.922766495 -0.044624188 0.382767132
    outer loop
      vertex 1.86116075 0.47307111 1.95645654
      vertex 1.86040496 0.475373045 1.95854696
      vertex 1.86008961 0.474348928 1.9591878
    endloop
  endfacet
  facet normal -0.922766495 0.044624188 -0.382767132
    outer loop
      vertex 1.72274578 0.479764738 1.89904147
      vertex 1.72167463 0.481042556 1.90177273
      vertex 1.72198998 0.482066674 1.90113189
    endloop
  endfacet
  facet normal -0.172243588 0.840770835 0.513260703
    outer loop
      vertex 1.86040496 0.475373045 1.95854696
      vertex 1.86083537 0.476046714 1.95758786
      vertex 1.7224204 0.482740343 1.90017279
    endloop
  endfacet
  facet normal -0.172243588 0.840770835 0.513260703
    outer loop
      vertex 1.86040496 0.475373045 1.95854696
      vertex 1.7224204 0.482740343 1.90017279
      vertex 1.72198998 0.482066674 1.90113189
    endloop
  endfacet
  facet normal 0.922766495 -0.044624188 0.382767132
    outer loop
      vertex 1.86116075 0.47307111 1.95645654
      vertex 1.86083537 0.476046714 1.95758786
      vertex 1.86040496 0.475373045 1.95854696
    endloop
  endfacet
  facet normal -0.922766495 0.044624188 -0.382767132
    outer loop
      vertex 1.72274578 0.479764738 1.89904147
      vertex 1.72198998 0.482066674 1.90113189
      vertex 1.7224204 0.482740343 1.90017279
    endloop
  endfacet
  facet normal -0.0272124359 0.983247416 0.180233191
    outer loop
      vertex 1.86083537 0.476046714 1.95758786
      vertex 1.86131532 0.476267375 1.95645654
      vertex 1.72290035 0.482961003 1.89904147
    endloop
  endfacet
  facet normal -0.0272124359 0.983247416 0.180233191
    outer loop
      vertex 1.86083537 0.476046714 1.95758786
      vertex 1.72290035 0.482961003 1.89904147
      vertex 1.7224204 0.482740343 1.90017279
    endloop
  endfacet
  facet normal 0.922766495 -0.044624188 0.382767132
    outer loop
      vertex 1.86116075 0.47307111 1.95645654
      vertex 1.86131532 0.476267375 1.95645654
      vertex 1.86083537 0.476046714 1.95758786
    endloop
  endfacet
  facet normal -0.922766495 0.044624188 -0.382767132
    outer loop
      vertex 1.72274578 0.479764738 1.89904147
      vertex 1.7224204 0.482740343 1.90017279
      vertex 1.72290035 0.482961003 1.89904147
    endloop
  endfacet
  facet normal -0.939987573 -0.193656187 -0.280928183
    outer loop
      vertex 1.90762278 0.326128869 1.95150498
      vertex 1.90780857 0.324913284 1.95172127
      vertex 1.88017392 0.335805971 2.03667818
    endloop
  endfacet
  facet normal -0.939987573 -0.193656187 -0.280928183
    outer loop
      vertex 1.90762278 0.326128869 1.95150498
      vertex 1.88017392 0.335805971 2.03667818
      vertex 1.87998813 0.337021556 2.03646189
    endloop
  endfacet
  facet normal 0.307051637 -0.121029855 -0.943965607
    outer loop
      vertex 1.91066584 0.326128869 1.95249482
      vertex 1.90780857 0.324913284 1.95172127
      vertex 1.90762278 0.326128869 1.95150498
    endloop
  endfacet
  facet normal -0.307051637 0.121029855 0.943965607
    outer loop
      vertex 1.88303119 0.337021556 2.03745173
      vertex 1.87998813 0.337021556 2.03646189
      vertex 1.88017392 0.335805971 2.03667818
    endloop
  endfacet
  facet normal -0.811490422 -0.551486163 -0.193251927
    outer loop
      vertex 1.90780857 0.324913284 1.95172127
      vertex 1.90842936 0.323882761 1.95205533
      vertex 1.88079471 0.334775448 2.03701223
    endloop
  endfacet
  facet normal -0.811490422 -0.551486163 -0.193251927
    outer loop
      vertex 1.90780857 0.324913284 1.95172127
      vertex 1.88079471 0.334775448 2.03701223
      vertex 1.88017392 0.335805971 2.03667818
    endloop
  endfacet
  facet normal 0.307051637 -0.121029855 -0.943965607
    outer loop
      vertex 1.91066584 0.326128869 1.95249482
      vertex 1.90842936 0.323882761 1.95205533
      vertex 1.90780857 0.324913284 1.95172127
    endloop
  endfacet
  facet normal -0.307051637 0.121029855 0.943965607
    outer loop
      vertex 1.88303119 0.337021556 2.03745173
      vertex 1.88017392 0.335805971 2.03667818
      vertex 1.88079471 0.334775448 2.03701223
    endloop
  endfacet
  facet normal -0.559451211 -0.825357369 -0.0761548161
    outer loop
      vertex 1.90842936 0.323882761 1.95205533
      vertex 1.90939063 0.323194188 1.95245629
      vertex 1.88175598 0.334086875 2.0374132
    endloop
  endfacet
  facet normal -0.559451211 -0.825357369 -0.0761548161
    outer loop
      vertex 1.90842936 0.323882761 1.95205533
      vertex 1.88175598 0.334086875 2.0374132
      vertex 1.88079471 0.334775448 2.03701223
    endloop
  endfacet
  facet normal 0.307051637 -0.121029855 -0.943965607
    outer loop
      vertex 1.91066584 0.326128869 1.95249482
      vertex 1.90939063 0.323194188 1.95245629
      vertex 1.90842936 0.323882761 1.95205533
    endloop
  endfacet
  facet normal -0.307051637 0.121029855 0.943965607
    outer loop
      vertex 1.88303119 0.337021556 2.03745173
      vertex 1.88079471 0.334775448 2.03701223
      vertex 1.88175598 0.334086875 2.0374132
    endloop
  endfacet
  facet normal -0.222240624 -0.973575398 0.0525361748
    outer loop
      vertex 1.90939063 0.323194188 1.95245629
      vertex 1.91054604 0.322952393 1.95286312
      vertex 1.88291139 0.33384508 2.03782003
    endloop
  endfacet
  facet normal -0.222240624 -0.973575398 0.0525361748
    outer loop
      vertex 1.90939063 0.323194188 1.95245629
      vertex 1.88291139 0.33384508 2.03782003
      vertex 1.88175598 0.334086875 2.0374132
    endloop
  endfacet
  facet normal 0.307051637 -0.121029855 -0.943965607
    outer loop
      vertex 1.91066584 0.326128869 1.95249482
      vertex 1.91054604 0.322952393 1.95286312
      vertex 1.90939063 0.323194188 1.95245629
    endloop
  endfacet
  facet normal -0.307051637 0.121029855 0.943965607
    outer loop
      vertex 1.88303119 0.337021556 2.03745173
      vertex 1.88175598 0.334086875 2.0374132
      vertex 1.88291139 0.33384508 2.03782003
    endloop
  endfacet
  facet normal 0.148804083 -0.973575398 0.173229009
    outer loop
      vertex 1.91054604 0.322952393 1.95286312
      vertex 1.91171968 0.323194188 1.95321389
      vertex 1.88408504 0.334086875 2.03817079
    endloop
  endfacet
  facet normal 0.148804083 -0.973575398 0.173229009
    outer loop
      vertex 1.91054604 0.322952393 1.95286312
      vertex 1.88408504 0.334086875 2.03817079
      vertex 1.88291139 0.33384508 2.03782003
    endloop
  endfacet
  facet normal 0.307051637 -0.121029855 -0.943965607
    outer loop
      vertex 1.91066584 0.326128869 1.95249482
      vertex 1.91171968 0.323194188 1.95321389
      vertex 1.91054604 0.322952393 1.95286312
    endloop
  endfacet
  facet normal -0.307051637 0.121029855 0.943965607
    outer loop
      vertex 1.88303119 0.337021556 2.03745173
      vertex 1.88291139 0.33384508 2.03782003
      vertex 1.88408504 0.334086875 2.03817079
    endloop
  endfacet
  facet normal 0.497194717 -0.825357369 0.267549297
    outer loop
      vertex 1.91171968 0.323194188 1.95321389
      vertex 1.91273289 0.323882761 1.95345518
      vertex 1.88509825 0.334775448 2.03841208
    endloop
  endfacet
  facet normal 0.497194717 -0.825357369 0.267549297
    outer loop
      vertex 1.91171968 0.323194188 1.95321389
      vertex 1.88509825 0.334775448 2.03841208
      vertex 1.88408504 0.334086875 2.03817079
    endloop
  endfacet
  facet normal 0.307051637 -0.121029855 -0.943965607
    outer loop
      vertex 1.91066584 0.326128869 1.95249482
      vertex 1.91273289 0.323882761 1.95345518
      vertex 1.91171968 0.323194188 1.95321389
    endloop
  endfacet
  facet normal -0.307051637 0.121029855 0.943965607
    outer loop
      vertex 1.88303119 0.337021556 2.03745173
      vertex 1.88408504 0.334086875 2.03817079
      vertex 1.88509825 0.334775448 2.03841208
    endloop
  endfacet
  facet normal 0.769891963 -0.551486163 0.32113763
    outer loop
      vertex 1.91273289 0.323882761 1.95345518
      vertex 1.91343141 0.324913284 1.95355026
      vertex 1.88579676 0.335805971 2.03850717
    endloop
  endfacet
  facet normal 0.769891963 -0.551486163 0.32113763
    outer loop
      vertex 1.91273289 0.323882761 1.95345518
      vertex 1.88579676 0.335805971 2.03850717
      vertex 1.88509825 0.334775448 2.03841208
    endloop
  endfacet
  facet normal 0.307051637 -0.121029855 -0.943965607
    outer loop
      vertex 1.91066584 0.326128869 1.95249482
      vertex 1.91343141 0.324913284 1.95355026
      vertex 1.91273289 0.323882761 1.95345518
    endloop
  endfacet
  facet normal -0.307051637 0.121029855 0.943965607
    outer loop
      vertex 1.88303119 0.337021556 2.03745173
      vertex 1.88509825 0.334775448 2.03841208
      vertex 1.88579676 0.335805971 2.03850717
    endloop
  endfacet
  facet normal 0.925380137 -0.193656187 0.32583567
    outer loop
      vertex 1.91343141 0.324913284 1.95355026
      vertex 1.9137089 0.326128869 1.95348467
      vertex 1.88607425 0.337021556 2.03844157
    endloop
  endfacet
  facet normal 0.925380137 -0.193656187 0.32583567
    outer loop
      vertex 1.91343141 0.324913284 1.95355026
      vertex 1.88607425 0.337021556 2.03844157
      vertex 1.88579676 0.335805971 2.03850717
    endloop
  endfacet
  facet normal 0.307051637 -0.121029855 -0.943965607
    outer loop
      vertex 1.91066584 0.326128869 1.95249482
      vertex 1.9137089 0.326128869 1.95348467
      vertex 1.91343141 0.324913284 1.95355026
    endloop
  endfacet
  facet normal -0.307051637 0.121029855 0.943965607
    outer loop
      vertex 1.88303119 0.337021556 2.03745173
      vertex 1.88579676 0.335805971 2.03850717
      vertex 1.88607425 0.337021556 2.03844157
    endloop
  endfacet
  facet normal 0.939987573 0.193656187 0.280928183
    outer loop
      vertex 1.9137089 0.326128869 1.95348467
      vertex 1.9135231 0.327344454 1.95326838
      vertex 1.88588845 0.338237141 2.03822528
    endloop
  endfacet
  facet normal 0.939987573 0.193656187 0.280928183
    outer loop
      vertex 1.9137089 0.326128869 1.95348467
      vertex 1.88588845 0.338237141 2.03822528
      vertex 1.88607425 0.337021556 2.03844157
    endloop
  endfacet
  facet normal 0.307051637 -0.121029855 -0.943965607
    outer loop
      vertex 1.91066584 0.326128869 1.95249482
      vertex 1.9135231 0.327344454 1.95326838
      vertex 1.9137089 0.326128869 1.95348467
    endloop
  endfacet
  facet normal -0.307051637 0.121029855 0.943965607
    outer loop
      vertex 1.88303119 0.337021556 2.03745173
      vertex 1.88607425 0.337021556 2.03844157
      vertex 1.88588845 0.338237141 2.03822528
    endloop
  endfacet
  facet normal 0.811490422 0.551486163 0.193251927
    outer loop
      vertex 1.9135231 0.327344454 1.95326838
      vertex 1.91290232 0.328374977 1.95293432
      vertex 1.88526767 0.339267664 2.03789122
    endloop
  endfacet
  facet normal 0.811490422 0.551486163 0.193251927
    outer loop
      vertex 1.9135231 0.327344454 1.95326838
      vertex 1.88526767 0.339267664 2.03789122
      vertex 1.88588845 0.338237141 2.03822528
    endloop
  endfacet
  facet normal 0.307051637 -0.121029855 -0.943965607
    outer loop
      vertex 1.91066584 0.326128869 1.95249482
      vertex 1.91290232 0.328374977 1.95293432
      vertex 1.9135231 0.327344454 1.95326838
    endloop
  endfacet
  facet normal -0.307051637 0.121029855 0.943965607
    outer loop
      vertex 1.88303119 0.337021556 2.03745173
      vertex 1.88588845 0.338237141 2.03822528
      vertex 1.88526767 0.339267664 2.03789122
    endloop
  endfacet
  facet normal 0.559451211 0.825357369 0.0761548161
    outer loop
      vertex 1.91290232 0.328374977 1.95293432
      vertex 1.91194105 0.329063551 1.95253335
      vertex 1.8843064 0.339956238 2.03749026
    endloop
  endfacet
  facet normal 0.559451211 0.825357369 0.0761548161
    outer loop
      vertex 1.91290232 0.328374977 1.95293432
      vertex 1.8843064 0.339956238 2.03749026
      vertex 1.88526767 0.339267664 2.03789122
    endloop
  endfacet
  facet normal 0.307051637 -0.121029855 -0.943965607
    outer loop
      vertex 1.91066584 0.326128869 1.95249482
      vertex 1.91194105 0.329063551 1.95253335
      vertex 1.91290232 0.328374977 1.95293432
    endloop
  endfacet
  facet normal -0.307051637 0.121029855 0.943965607
    outer loop
      vertex 1.88303119 0.337021556 2.03745173
      vertex 1.88526767 0.339267664 2.03789122
      vertex 1.8843064 0.339956238 2.03749026
    endloop
  endfacet
  facet normal 0.222240624 0.973575398 -0.0525361748
    outer loop
      vertex 1.91194105 0.329063551 1.95253335
      vertex 1.91078564 0.329305346 1.95212652
      vertex 1.88315099 0.340198033 2.03708343
    endloop
  endfacet
  facet normal 0.222240624 0.973575398 -0.0525361748
    outer loop
      vertex 1.91194105 0.329063551 1.95253335
      vertex 1.88315099 0.340198033 2.03708343
      vertex 1.8843064 0.339956238 2.03749026
    endloop
  endfacet
  facet normal 0.307051637 -0.121029855 -0.943965607
    outer loop
      vertex 1.91066584 0.326128869 1.95249482
      vertex 1.91078564 0.329305346 1.95212652
      vertex 1.91194105 0.329063551 1.95253335
    endloop
  endfacet
  facet normal -0.307051637 0.121029855 0.943965607
    outer loop
      vertex 1.88303119 0.337021556 2.03745173
      vertex 1.8843064 0.339956238 2.03749026
      vertex 1.88315099 0.340198033 2.03708343
    endloop
  endfacet
  facet normal -0.148804083 0.973575398 -0.173229009
    outer loop
      vertex 1.91078564 0.329305346 1.95212652
      vertex 1.90961199 0.329063551 1.95177576
      vertex 1.88197734 0.339956238 2.03673267
    endloop
  endfacet
  facet normal -0.148804083 0.973575398 -0.173229009
    outer loop
      vertex 1.91078564 0.329305346 1.95212652
      vertex 1.88197734 0.339956238 2.03673267
      vertex 1.88315099 0.340198033 2.03708343
    endloop
  endfacet
  facet normal 0.307051637 -0.121029855 -0.943965607
    outer loop
      vertex 1.91066584 0.326128869 1.95249482
      vertex 1.90961199 0.329063551 1.95177576
      vertex 1.91078564 0.329305346 1.95212652
    endloop
  endfacet
  facet normal -0.307051637 0.121029855 0.943965607
    outer loop
      vertex 1.88303119 0.337021556 2.03745173
      vertex 1.88315099 0.340198033 2.03708343
      vertex 1.88197734 0.339956238 2.03673267
    endloop
  endfacet
  facet normal -0.497194717 0.825357369 -0.267549297
    outer loop
      vertex 1.90961199 0.329063551 1.95177576
      vertex 1.90859878 0.328374977 1.95153447
      vertex 1.88096413 0.339267664 2.03649138
    endloop
  endfacet
  facet normal -0.497194717 0.825357369 -0.267549297
    outer loop
      vertex 1.90961199 0.329063551 1.95177576
      vertex 1.88096413 0.339267664 2.03649138
      vertex 1.88197734 0.339956238 2.03673267
    endloop
  endfacet
  facet normal 0.307051637 -0.121029855 -0.943965607
    outer loop
      vertex 1.91066584 0.326128869 1.95249482
      vertex 1.90859878 0.328374977 1.95153447
      vertex 1.90961199 0.329063551 1.95177576
    endloop
  endfacet
  facet normal -0.307051637 0.121029855 0.943965607
    outer loop
      vertex 1.88303119 0.337021556 2.03745173
      vertex 1.88197734 0.339956238 2.03673267
      vertex 1.88096413 0.339267664 2.03649138
    endloop
  endfacet
  facet normal -0.769891963 0.551486163 -0.32113763
    outer loop
      vertex 1.90859878 0.328374977 1.95153447
      vertex 1.90790026 0.327344454 1.95143939
      vertex 1.88026561 0.338237141 2.03639629
    endloop
  endfacet
  facet normal -0.769891963 0.551486163 -0.32113763
    outer loop
      vertex 1.90859878 0.328374977 1.95153447
      vertex 1.88026561 0.338237141 2.03639629
      vertex 1.88096413 0.339267664 2.03649138
    endloop
  endfacet
  facet normal 0.307051637 -0.121029855 -0.943965607
    outer loop
      vertex 1.91066584 0.326128869 1.95249482
      vertex 1.90790026 0.327344454 1.95143939
      vertex 1.90859878 0.328374977 1.95153447
    endloop
  endfacet
  facet normal -0.307051637 0.121029855 0.943965607
    outer loop
      vertex 1.88303119 0.337021556 2.03745173
      vertex 1.88096413 0.339267664 2.03649138
      vertex 1.88026561 0.338237141 2.03639629
    endloop
  endfacet
  facet normal -0.925380137 0.193656187 -0.32583567
    outer loop
      vertex 1.90790026 0.327344454 1.95143939
      vertex 1.90762278 0.326128869 1.95150498
      vertex 1.87998813 0.337021556 2.03646189
    endloop
  endfacet
  facet normal -0.925380137 0.193656187 -0.32583567
    outer loop
      vertex 1.90790026 0.327344454 1.95143939
      vertex 1.87998813 0.337021556 2.03646189
      vertex 1.88026561 0.338237141 2.03639629
    endloop
  endfacet
  facet normal 0.307051637 -0.121029855 -0.943965607
    outer loop
      vertex 1.91066584 0.326128869 1.95249482
      vertex 1.90762278 0.326128869 1.95150498
      vertex 1.90790026 0.327344454 1.95143939
    endloop
  endfacet
  facet normal -0.307051637 0.121029855 0.943965607
    outer loop
      vertex 1.88303119 0.337021556 2.03745173
      vertex 1.88026561 0.338237141 2.03639629
      vertex 1.87998813 0.337021556 2.03646189
    endloop
  endfacet
  facet normal -0.939987573 -0.193656187 -0.280928183
    outer loop
      vertex 1.87908832 0.325964364 1.94224443
      vertex 1.87927411 0.324748779 1.94246072
      vertex 1.85163947 0.335641466 2.02741763
    endloop
  endfacet
  facet normal -0.939987573 -0.193656187 -0.280928183
    outer loop
      vertex 1.87908832 0.325964364 1.94224443
      vertex 1.85163947 0.335641466 2.02741763
      vertex 1.85145367 0.336857051 2.02720134
    endloop
  endfacet
  facet normal 0.307051637 -0.121029855 -0.943965607
    outer loop
      vertex 1.88213138 0.325964364 1.94323427
      vertex 1.87927411 0.324748779 1.94246072
      vertex 1.87908832 0.325964364 1.94224443
    endloop
  endfacet
  facet normal -0.307051637 0.121029855 0.943965607
    outer loop
      vertex 1.85449673 0.336857051 2.02819118
      vertex 1.85145367 0.336857051 2.02720134
      vertex 1.85163947 0.335641466 2.02741763
    endloop
  endfacet
  facet normal -0.811490422 -0.551486163 -0.193251927
    outer loop
      vertex 1.87927411 0.324748779 1.94246072
      vertex 1.8798949 0.323718256 1.94279478
      vertex 1.85226025 0.334610943 2.02775168
    endloop
  endfacet
  facet normal -0.811490422 -0.551486163 -0.193251927
    outer loop
      vertex 1.87927411 0.324748779 1.94246072
      vertex 1.85226025 0.334610943 2.02775168
      vertex 1.85163947 0.335641466 2.02741763
    endloop
  endfacet
  facet normal 0.307051637 -0.121029855 -0.943965607
    outer loop
      vertex 1.88213138 0.325964364 1.94323427
      vertex 1.8798949 0.323718256 1.94279478
      vertex 1.87927411 0.324748779 1.94246072
    endloop
  endfacet
  facet normal -0.307051637 0.121029855 0.943965607
    outer loop
      vertex 1.85449673 0.336857051 2.02819118
      vertex 1.85163947 0.335641466 2.02741763
      vertex 1.85226025 0.334610943 2.02775168
    endloop
  endfacet
  facet normal -0.559451211 -0.825357369 -0.0761548161
    outer loop
      vertex 1.8798949 0.323718256 1.94279478
      vertex 1.88085617 0.323029683 1.94319574
      vertex 1.85322152 0.33392237 2.02815265
    endloop
  endfacet
  facet normal -0.559451211 -0.825357369 -0.0761548161
    outer loop
      vertex 1.8798949 0.323718256 1.94279478
      vertex 1.85322152 0.33392237 2.02815265
      vertex 1.85226025 0.334610943 2.02775168
    endloop
  endfacet
  facet normal 0.307051637 -0.121029855 -0.943965607
    outer loop
      vertex 1.88213138 0.325964364 1.94323427
      vertex 1.88085617 0.323029683 1.94319574
      vertex 1.8798949 0.323718256 1.94279478
    endloop
  endfacet
  facet normal -0.307051637 0.121029855 0.943965607
    outer loop
      vertex 1.85449673 0.336857051 2.02819118
      vertex 1.85226025 0.334610943 2.02775168
      vertex 1.85322152 0.33392237 2.02815265
    endloop
  endfacet
  facet normal -0.222240624 -0.973575398 0.0525361748
    outer loop
      vertex 1.88085617 0.323029683 1.94319574
      vertex 1.88201158 0.322787888 1.94360257
      vertex 1.85437693 0.333680575 2.02855948
    endloop
  endfacet
  facet normal -0.222240624 -0.973575398 0.0525361748
    outer loop
      vertex 1.88085617 0.323029683 1.94319574
      vertex 1.85437693 0.333680575 2.02855948
      vertex 1.85322152 0.33392237 2.02815265
    endloop
  endfacet
  facet normal 0.307051637 -0.121029855 -0.943965607
    outer loop
      vertex 1.88213138 0.325964364 1.94323427
      vertex 1.88201158 0.322787888 1.94360257
      vertex 1.88085617 0.323029683 1.94319574
    endloop
  endfacet
  facet normal -0.307051637 0.121029855 0.943965607
    outer loop
      vertex 1.85449673 0.336857051 2.02819118
      vertex 1.85322152 0.33392237 2.02815265
      vertex 1.85437693 0.333680575 2.02855948
    endloop
  endfacet
  facet normal 0.148804083 -0.973575398 0.173229009
    outer loop
      vertex 1.88201158 0.322787888 1.94360257
      vertex 1.88318523 0.323029683 1.94395333
      vertex 1.85555058 0.33392237 2.02891024
    endloop
  endfacet
  facet normal 0.148804083 -0.973575398 0.173229009
    outer loop
      vertex 1.88201158 0.322787888 1.94360257
      vertex 1.85555058 0.33392237 2.02891024
      vertex 1.85437693 0.333680575 2.02855948
    endloop
  endfacet
  facet normal 0.307051637 -0.121029855 -0.943965607
    outer loop
      vertex 1.88213138 0.325964364 1.94323427
      vertex 1.88318523 0.323029683 1.94395333
      vertex 1.88201158 0.322787888 1.94360257
    endloop
  endfacet
  facet normal -0.307051637 0.121029855 0.943965607
    outer loop
      vertex 1.85449673 0.336857051 2.02819118
      vertex 1.85437693 0.333680575 2.02855948
      vertex 1.85555058 0.33392237 2.02891024
    endloop
  endfacet
  facet normal 0.497194717 -0.825357369 0.267549297
    outer loop
      vertex 1.88318523 0.323029683 1.94395333
      vertex 1.88419844 0.323718256 1.94419463
      vertex 1.85656379 0.334610943 2.02915153
    endloop
  endfacet
  facet normal 0.497194717 -0.825357369 0.267549297
    outer loop
      vertex 1.88318523 0.323029683 1.94395333
      vertex 1.85656379 0.334610943 2.02915153
      vertex 1.85555058 0.33392237 2.02891024
    endloop
  endfacet
  facet normal 0.307051637 -0.121029855 -0.943965607
    outer loop
      vertex 1.88213138 0.325964364 1.94323427
      vertex 1.88419844 0.323718256 1.94419463
      vertex 1.88318523 0.323029683 1.94395333
    endloop
  endfacet
  facet normal -0.307051637 0.121029855 0.943965607
    outer loop
      vertex 1.85449673 0.336857051 2.02819118
      vertex 1.85555058 0.33392237 2.02891024
      vertex 1.85656379 0.334610943 2.02915153
    endloop
  endfacet
  facet normal 0.769891963 -0.551486163 0.32113763
    outer loop
      vertex 1.88419844 0.323718256 1.94419463
      vertex 1.88489696 0.324748779 1.94428971
      vertex 1.85726231 0.335641466 2.02924661
    endloop
  endfacet
  facet normal 0.769891963 -0.551486163 0.32113763
    outer loop
      vertex 1.88419844 0.323718256 1.94419463
      vertex 1.85726231 0.335641466 2.02924661
      vertex 1.85656379 0.334610943 2.02915153
    endloop
  endfacet
  facet normal 0.307051637 -0.121029855 -0.943965607
    outer loop
      vertex 1.88213138 0.325964364 1.94323427
      vertex 1.88489696 0.324748779 1.94428971
      vertex 1.88419844 0.323718256 1.94419463
    endloop
  endfacet
  facet normal -0.307051637 0.121029855 0.943965607
    outer loop
      vertex 1.85449673 0.336857051 2.02819118
      vertex 1.85656379 0.334610943 2.02915153
      vertex 1.85726231 0.335641466 2.02924661
    endloop
  endfacet
  facet normal 0.925380137 -0.193656187 0.32583567
    outer loop
      vertex 1.88489696 0.324748779 1.94428971
      vertex 1.88517444 0.325964364 1.94422411
      vertex 1.85753979 0.336857051 2.02918102
    endloop
  endfacet
  facet normal 0.925380137 -0.193656187 0.32583567
    outer loop
      vertex 1.88489696 0.324748779 1.94428971
      vertex 1.85753979 0.336857051 2.02918102
      vertex 1.85726231 0.335641466 2.02924661
    endloop
  endfacet
  facet normal 0.307051637 -0.121029855 -0.943965607
    outer loop
      vertex 1.88213138 0.325964364 1.94323427
      vertex 1.88517444 0.325964364 1.94422411
      vertex 1.88489696 0.324748779 1.94428971
    endloop
  endfacet
  facet normal -0.307051637 0.121029855 0.943965607
    outer loop
      vertex 1.85449673 0.336857051 2.02819118
      vertex 1.85726231 0.335641466 2.02924661
      vertex 1.85753979 0.336857051 2.02918102
    endloop
  endfacet
  facet normal 0.939987573 0.193656187 0.280928183
    outer loop
      vertex 1.88517444 0.325964364 1.94422411
      vertex 1.88498865 0.327179949 1.94400782
      vertex 1.857354 0.338072636 2.02896473
    endloop
  endfacet
  facet normal 0.939987573 0.193656187 0.280928183
    outer loop
      vertex 1.88517444 0.325964364 1.94422411
      vertex 1.857354 0.338072636 2.02896473
      vertex 1.85753979 0.336857051 2.02918102
    endloop
  endfacet
  facet normal 0.307051637 -0.121029855 -0.943965607
    outer loop
      vertex 1.88213138 0.325964364 1.94323427
      vertex 1.88498865 0.327179949 1.94400782
      vertex 1.88517444 0.325964364 1.94422411
    endloop
  endfacet
  facet normal -0.307051637 0.121029855 0.943965607
    outer loop
      vertex 1.85449673 0.336857051 2.02819118
      vertex 1.85753979 0.336857051 2.02918102
      vertex 1.857354 0.338072636 2.02896473
    endloop
  endfacet
  facet normal 0.811490422 0.551486163 0.193251927
    outer loop
      vertex 1.88498865 0.327179949 1.94400782
      vertex 1.88436786 0.328210472 1.94367377
      vertex 1.85673321 0.339103159 2.02863067
    endloop
  endfacet
  facet normal 0.811490422 0.551486163 0.193251927
    outer loop
      vertex 1.88498865 0.327179949 1.94400782
      vertex 1.85673321 0.339103159 2.02863067
      vertex 1.857354 0.338072636 2.02896473
    endloop
  endfacet
  facet normal 0.307051637 -0.121029855 -0.943965607
    outer loop
      vertex 1.88213138 0.325964364 1.94323427
      vertex 1.88436786 0.328210472 1.94367377
      vertex 1.88498865 0.327179949 1.94400782
    endloop
  endfacet
  facet normal -0.307051637 0.121029855 0.943965607
    outer loop
      vertex 1.85449673 0.336857051 2.02819118
      vertex 1.857354 0.338072636 2.02896473
      vertex 1.85673321 0.339103159 2.02863067
    endloop
  endfacet
  facet normal 0.559451211 0.825357369 0.0761548161
    outer loop
      vertex 1.88436786 0.328210472 1.94367377
      vertex 1.88340659 0.328899046 1.9432728
      vertex 1.85577194 0.339791733 2.02822971
    endloop
  endfacet
  facet normal 0.559451211 0.825357369 0.0761548161
    outer loop
      vertex 1.88436786 0.328210472 1.94367377
      vertex 1.85577194 0.339791733 2.02822971
      vertex 1.85673321 0.339103159 2.02863067
    endloop
  endfacet
  facet normal 0.307051637 -0.121029855 -0.943965607
    outer loop
      vertex 1.88213138 0.325964364 1.94323427
      vertex 1.88340659 0.328899046 1.9432728
      vertex 1.88436786 0.328210472 1.94367377
    endloop
  endfacet
  facet normal -0.307051637 0.121029855 0.943965607
    outer loop
      vertex 1.85449673 0.336857051 2.02819118
      vertex 1.85673321 0.339103159 2.02863067
      vertex 1.85577194 0.339791733 2.02822971
    endloop
  endfacet
  facet normal 0.222240624 0.973575398 -0.0525361748
    outer loop
      vertex 1.88340659 0.328899046 1.9432728
      vertex 1.88225118 0.32914084 1.94286597
      vertex 1.85461653 0.340033527 2.02782288
    endloop
  endfacet
  facet normal 0.222240624 0.973575398 -0.0525361748
    outer loop
      vertex 1.88340659 0.328899046 1.9432728
      vertex 1.85461653 0.340033527 2.02782288
      vertex 1.85577194 0.339791733 2.02822971
    endloop
  endfacet
  facet normal 0.307051637 -0.121029855 -0.943965607
    outer loop
      vertex 1.88213138 0.325964364 1.94323427
      vertex 1.88225118 0.32914084 1.94286597
      vertex 1.88340659 0.328899046 1.9432728
    endloop
  endfacet
  facet normal -0.307051637 0.121029855 0.943965607
    outer loop
      vertex 1.85449673 0.336857051 2.02819118
      vertex 1.85577194 0.339791733 2.02822971
      vertex 1.85461653 0.340033527 2.02782288
    endloop
  endfacet
  facet normal -0.148804083 0.973575398 -0.173229009
    outer loop
      vertex 1.88225118 0.32914084 1.94286597
      vertex 1.88107753 0.328899046 1.94251521
      vertex 1.85344289 0.339791733 2.02747212
    endloop
  endfacet
  facet normal -0.148804083 0.973575398 -0.173229009
    outer loop
      vertex 1.88225118 0.32914084 1.94286597
      vertex 1.85344289 0.339791733 2.02747212
      vertex 1.85461653 0.340033527 2.02782288
    endloop
  endfacet
  facet normal 0.307051637 -0.121029855 -0.943965607
    outer loop
      vertex 1.88213138 0.325964364 1.94323427
      vertex 1.88107753 0.328899046 1.94251521
      vertex 1.88225118 0.32914084 1.94286597
    endloop
  endfacet
  facet normal -0.307051637 0.121029855 0.943965607
    outer loop
      vertex 1.85449673 0.336857051 2.02819118
      vertex 1.85461653 0.340033527 2.02782288
      vertex 1.85344289 0.339791733 2.02747212
    endloop
  endfacet
  facet normal -0.497194717 0.825357369 -0.267549297
    outer loop
      vertex 1.88107753 0.328899046 1.94251521
      vertex 1.88006432 0.328210472 1.94227392
      vertex 1.85242968 0.339103159 2.02723083
    endloop
  endfacet
  facet normal -0.497194717 0.825357369 -0.267549297
    outer loop
      vertex 1.88107753 0.328899046 1.94251521
      vertex 1.85242968 0.339103159 2.02723083
      vertex 1.85344289 0.339791733 2.02747212
    endloop
  endfacet
  facet normal 0.307051637 -0.121029855 -0.943965607
    outer loop
      vertex 1.88213138 0.325964364 1.94323427
      vertex 1.88006432 0.328210472 1.94227392
      vertex 1.88107753 0.328899046 1.94251521
    endloop
  endfacet
  facet normal -0.307051637 0.121029855 0.943965607
    outer loop
      vertex 1.85449673 0.336857051 2.02819118
      vertex 1.85344289 0.339791733 2.02747212
      vertex 1.85242968 0.339103159 2.02723083
    endloop
  endfacet
  facet normal -0.769891963 0.551486163 -0.32113763
    outer loop
      vertex 1.88006432 0.328210472 1.94227392
      vertex 1.87936581 0.327179949 1.94217884
      vertex 1.85173116 0.338072636 2.02713574
    endloop
  endfacet
  facet normal -0.769891963 0.551486163 -0.32113763
    outer loop
      vertex 1.88006432 0.328210472 1.94227392
      vertex 1.85173116 0.338072636 2.02713574
      vertex 1.85242968 0.339103159 2.02723083
    endloop
  endfacet
  facet normal 0.307051637 -0.121029855 -0.943965607
    outer loop
      vertex 1.88213138 0.325964364 1.94323427
      vertex 1.87936581 0.327179949 1.94217884
      vertex 1.88006432 0.328210472 1.94227392
    endloop
  endfacet
  facet normal -0.307051637 0.121029855 0.943965607
    outer loop
      vertex 1.85449673 0.336857051 2.02819118
      vertex 1.85242968 0.339103159 2.02723083
      vertex 1.85173116 0.338072636 2.02713574
    endloop
  endfacet
  facet normal -0.925380137 0.193656187 -0.32583567
    outer loop
      vertex 1.87936581 0.327179949 1.94217884
      vertex 1.87908832 0.325964364 1.94224443
      vertex 1.85145367 0.336857051 2.02720134
    endloop
  endfacet
  facet normal -0.925380137 0.193656187 -0.32583567
    outer loop
      vertex 1.87936581 0.327179949 1.94217884
      vertex 1.85145367 0.336857051 2.02720134
      vertex 1.85173116 0.338072636 2.02713574
    endloop
  endfacet
  facet normal 0.307051637 -0.121029855 -0.943965607
    outer loop
      vertex 1.88213138 0.325964364 1.94323427
      vertex 1.87908832 0.325964364 1.94224443
      vertex 1.87936581 0.327179949 1.94217884
    endloop
  endfacet
  facet normal -0.307051637 0.121029855 0.943965607
    outer loop
      vertex 1.85449673 0.336857051 2.02819118
      vertex 1.85173116 0.338072636 2.02713574
      vertex 1.85145367 0.336857051 2.02720134
    endloop
  endfacet
endsolid c28_features
