solid c17_features
  facet normal 0.253033299 -0.960125643 -0.118881872
    outer loop
      vertex 0.0126090275 2.80880472 1.19239118
      vertex 0.0116221257 2.80863703 1.19164496
      vertex 0.06740828 2.83315647 1.11235623
    endloop
  endfacet
  facet normal 0.253033299 -0.960125643 -0.118881872
    outer loop
      vertex 0.0126090275 2.80880472 1.19239118
      vertex 0.06740828 2.83315647 1.11235623
      vertex 0.0683951817 2.83332417 1.11310246
    endloop
  endfacet
  facet normal -0.557861542 -0.245194437 0.792887248
    outer loop
      vertex 0.0113214283 2.81173424 1.19239118
      vertex 0.0116221257 2.80863703 1.19164496
      vertex 0.0126090275 2.80880472 1.19239118
    endloop
  endfacet
  facet normal 0.557861542 0.245194437 -0.792887248
    outer loop
      vertex 0.0671075826 2.83625369 1.11310246
      vertex 0.0683951817 2.83332417 1.11310246
      vertex 0.06740828 2.83315647 1.11235623
    endloop
  endfacet
  facet normal -0.0687085636 -0.93843759 -0.338546928
    outer loop
      vertex 0.0116221257 2.80863703 1.19164496
      vertex 0.0105894455 2.80894086 1.19101234
      vertex 0.0663755997 2.8334603 1.11172361
    endloop
  endfacet
  facet normal -0.0687085636 -0.93843759 -0.338546928
    outer loop
      vertex 0.0116221257 2.80863703 1.19164496
      vertex 0.0663755997 2.8334603 1.11172361
      vertex 0.06740828 2.83315647 1.11235623
    endloop
  endfacet
  facet normal -0.557861542 -0.245194437 0.792887248
    outer loop
      vertex 0.0113214283 2.81173424 1.19239118
      vertex 0.0105894455 2.80894086 1.19101234
      vertex 0.0116221257 2.80863703 1.19164496
    endloop
  endfacet
  facet normal 0.557861542 0.245194437 -0.792887248
    outer loop
      vertex 0.0671075826 2.83625369 1.11310246
      vertex 0.06740828 2.83315647 1.11235623
      vertex 0.0663755997 2.8334603 1.11172361
    endloop
  endfacet
  facet normal -0.379990171 -0.773880921 -0.506671284
    outer loop
      vertex 0.0105894455 2.80894086 1.19101234
      vertex 0.00966820306 2.80966996 1.19058963
      vertex 0.0654543573 2.8341894 1.11130091
    endloop
  endfacet
  facet normal -0.379990171 -0.773880921 -0.506671284
    outer loop
      vertex 0.0105894455 2.80894086 1.19101234
      vertex 0.0654543573 2.8341894 1.11130091
      vertex 0.0663755997 2.8334603 1.11172361
    endloop
  endfacet
  facet normal -0.557861542 -0.245194437 0.792887248
    outer loop
      vertex 0.0113214283 2.81173424 1.19239118
      vertex 0.00966820306 2.80966996 1.19058963
      vertex 0.0105894455 2.80894086 1.19101234
    endloop
  endfacet
  facet normal 0.557861542 0.245194437 -0.792887248
    outer loop
      vertex 0.0671075826 2.83625369 1.11310246
      vertex 0.0663755997 2.8334603 1.11172361
      vertex 0.0654543573 2.8341894 1.11130091
    endloop
  endfacet
  facet normal -0.633421719 -0.491507898 -0.597659529
    outer loop
      vertex 0.00966820306 2.80966996 1.19058963
      vertex 0.00899864916 2.81071332 1.1904412
      vertex 0.0647848034 2.83523277 1.11115248
    endloop
  endfacet
  facet normal -0.633421719 -0.491507898 -0.597659529
    outer loop
      vertex 0.00966820306 2.80966996 1.19058963
      vertex 0.0647848034 2.83523277 1.11115248
      vertex 0.0654543573 2.8341894 1.11130091
    endloop
  endfacet
  facet normal -0.557861542 -0.245194437 0.792887248
    outer loop
      vertex 0.0113214283 2.81173424 1.19239118
      vertex 0.00899864916 2.81071332 1.1904412
      vertex 0.00966820306 2.80966996 1.19058963
    endloop
  endfacet
  facet normal 0.557861542 0.245194437 -0.792887248
    outer loop
      vertex 0.0671075826 2.83625369 1.11310246
      vertex 0.0654543573 2.8341894 1.11130091
      vertex 0.0647848034 2.83523277 1.11115248
    endloop
  endfacet
  facet normal -0.790420552 -0.134307252 -0.597659529
    outer loop
      vertex 0.00899864916 2.81071332 1.1904412
      vertex 0.00868271733 2.81191211 1.19058963
      vertex 0.0644688716 2.83643156 1.11130091
    endloop
  endfacet
  facet normal -0.790420552 -0.134307252 -0.597659529
    outer loop
      vertex 0.00899864916 2.81071332 1.1904412
      vertex 0.0644688716 2.83643156 1.11130091
      vertex 0.0647848034 2.83523277 1.11115248
    endloop
  endfacet
  facet normal -0.557861542 -0.245194437 0.792887248
    outer loop
      vertex 0.0113214283 2.81173424 1.19239118
      vertex 0.00868271733 2.81191211 1.19058963
      vertex 0.00899864916 2.81071332 1.1904412
    endloop
  endfacet
  facet normal 0.557861542 0.245194437 -0.792887248
    outer loop
      vertex 0.0671075826 2.83625369 1.11310246
      vertex 0.0647848034 2.83523277 1.11115248
      vertex 0.0644688716 2.83643156 1.11130091
    endloop
  endfacet
  facet normal -0.827085022 0.243340455 -0.506671284
    outer loop
      vertex 0.00868271733 2.81191211 1.19058963
      vertex 0.00876850534 2.81308383 1.19101234
      vertex 0.0645546596 2.83760327 1.11172361
    endloop
  endfacet
  facet normal -0.827085022 0.243340455 -0.506671284
    outer loop
      vertex 0.00868271733 2.81191211 1.19058963
      vertex 0.0645546596 2.83760327 1.11172361
      vertex 0.0644688716 2.83643156 1.11130091
    endloop
  endfacet
  facet normal -0.557861542 -0.245194437 0.792887248
    outer loop
      vertex 0.0113214283 2.81173424 1.19239118
      vertex 0.00876850534 2.81308383 1.19101234
      vertex 0.00868271733 2.81191211 1.19058963
    endloop
  endfacet
  facet normal 0.557861542 0.245194437 -0.792887248
    outer loop
      vertex 0.0671075826 2.83625369 1.11310246
      vertex 0.0644688716 2.83643156 1.11130091
      vertex 0.0645546596 2.83760327 1.11172361
    endloop
  endfacet
  facet normal -0.737833294 0.583941784 -0.338546928
    outer loop
      vertex 0.00876850534 2.81308383 1.19101234
      vertex 0.00924295273 2.81405008 1.19164496
      vertex 0.0650291069 2.83856952 1.11235623
    endloop
  endfacet
  facet normal -0.737833294 0.583941784 -0.338546928
    outer loop
      vertex 0.00876850534 2.81308383 1.19101234
      vertex 0.0650291069 2.83856952 1.11235623
      vertex 0.0645546596 2.83760327 1.11172361
    endloop
  endfacet
  facet normal -0.557861542 -0.245194437 0.792887248
    outer loop
      vertex 0.0113214283 2.81173424 1.19239118
      vertex 0.00924295273 2.81405008 1.19164496
      vertex 0.00876850534 2.81308383 1.19101234
    endloop
  endfacet
  facet normal 0.557861542 0.245194437 -0.792887248
    outer loop
      vertex 0.0671075826 2.83625369 1.11310246
      vertex 0.0645546596 2.83760327 1.11172361
      vertex 0.0650291069 2.83856952 1.11235623
    endloop
  endfacet
  facet normal -0.536253136 0.83564327 -0.118881872
    outer loop
      vertex 0.00924295273 2.81405008 1.19164496
      vertex 0.0100338292 2.81466376 1.19239118
      vertex 0.0658199834 2.83918321 1.11310246
    endloop
  endfacet
  facet normal -0.536253136 0.83564327 -0.118881872
    outer loop
      vertex 0.00924295273 2.81405008 1.19164496
      vertex 0.0658199834 2.83918321 1.11310246
      vertex 0.0650291069 2.83856952 1.11235623
    endloop
  endfacet
  facet normal -0.557861542 -0.245194437 0.792887248
    outer loop
      vertex 0.0113214283 2.81173424 1.19239118
      vertex 0.0100338292 2.81466376 1.19239118
      vertex 0.00924295273 2.81405008 1.19164496
    endloop
  endfacet
  facet normal 0.557861542 0.245194437 -0.792887248
    outer loop
      vertex 0.0671075826 2.83625369 1.11310246
      vertex 0.0650291069 2.83856952 1.11235623
      vertex 0.0658199834 2.83918321 1.11310246
    endloop
  endfacet
  facet normal -0.253033299 0.960125643 0.118881872
    outer loop
      vertex 0.0100338292 2.81466376 1.19239118
      vertex 0.0110207309 2.81483146 1.1931374
      vertex 0.0668068852 2.8393509 1.11384868
    endloop
  endfacet
  facet normal -0.253033299 0.960125643 0.118881872
    outer loop
      vertex 0.0100338292 2.81466376 1.19239118
      vertex 0.0668068852 2.8393509 1.11384868
      vertex 0.0658199834 2.83918321 1.11310246
    endloop
  endfacet
  facet normal -0.557861542 -0.245194437 0.792887248
    outer loop
      vertex 0.0113214283 2.81173424 1.19239118
      vertex 0.0110207309 2.81483146 1.1931374
      vertex 0.0100338292 2.81466376 1.19239118
    endloop
  endfacet
  facet normal 0.557861542 0.245194437 -0.792887248
    outer loop
      vertex 0.0671075826 2.83625369 1.11310246
      vertex 0.0658199834 2.83918321 1.11310246
      vertex 0.0668068852 2.8393509 1.11384868
    endloop
  endfacet
  facet normal 0.0687085636 0.93843759 0.338546928
    outer loop
      vertex 0.0110207309 2.81483146 1.1931374
      vertex 0.0120534112 2.81452763 1.19377002
      vertex 0.0678395654 2.83904707 1.1144813
    endloop
  endfacet
  facet normal 0.0687085636 0.93843759 0.338546928
    outer loop
      vertex 0.0110207309 2.81483146 1.1931374
      vertex 0.0678395654 2.83904707 1.1144813
      vertex 0.0668068852 2.8393509 1.11384868
    endloop
  endfacet
  facet normal -0.557861542 -0.245194437 0.792887248
    outer loop
      vertex 0.0113214283 2.81173424 1.19239118
      vertex 0.0120534112 2.81452763 1.19377002
      vertex 0.0110207309 2.81483146 1.1931374
    endloop
  endfacet
  facet normal 0.557861542 0.245194437 -0.792887248
    outer loop
      vertex 0.0671075826 2.83625369 1.11310246
      vertex 0.0668068852 2.8393509 1.11384868
      vertex 0.0678395654 2.83904707 1.1144813
    endloop
  endfacet
  facet normal 0.379990171 0.773880921 0.506671284
    outer loop
      vertex 0.0120534112 2.81452763 1.19377002
      vertex 0.0129746536 2.81379853 1.19419273
      vertex 0.0687608078 2.83831797 1.114904
    endloop
  endfacet
  facet normal 0.379990171 0.773880921 0.506671284
    outer loop
      vertex 0.0120534112 2.81452763 1.19377002
      vertex 0.0687608078 2.83831797 1.114904
      vertex 0.0678395654 2.83904707 1.1144813
    endloop
  endfacet
  facet normal -0.557861542 -0.245194437 0.792887248
    outer loop
      vertex 0.0113214283 2.81173424 1.19239118
      vertex 0.0129746536 2.81379853 1.19419273
      vertex 0.0120534112 2.81452763 1.19377002
    endloop
  endfacet
  facet normal 0.557861542 0.245194437 -0.792887248
    outer loop
      vertex 0.0671075826 2.83625369 1.11310246
      vertex 0.0678395654 2.83904707 1.1144813
      vertex 0.0687608078 2.83831797 1.114904
    endloop
  endfacet
  facet normal 0.633421719 0.491507898 0.597659529
    outer loop
      vertex 0.0129746536 2.81379853 1.19419273
      vertex 0.0136442075 2.81275516 1.19434116
      vertex 0.0694303617 2.83727461 1.11505243
    endloop
  endfacet
  facet normal 0.633421719 0.491507898 0.597659529
    outer loop
      vertex 0.0129746536 2.81379853 1.19419273
      vertex 0.0694303617 2.83727461 1.11505243
      vertex 0.0687608078 2.83831797 1.114904
    endloop
  endfacet
  facet normal -0.557861542 -0.245194437 0.792887248
    outer loop
      vertex 0.0113214283 2.81173424 1.19239118
      vertex 0.0136442075 2.81275516 1.19434116
      vertex 0.0129746536 2.81379853 1.19419273
    endloop
  endfacet
  facet normal 0.557861542 0.245194437 -0.792887248
    outer loop
      vertex 0.0671075826 2.83625369 1.11310246
      vertex 0.0687608078 2.83831797 1.114904
      vertex 0.0694303617 2.83727461 1.11505243
    endloop
  endfacet
  facet normal 0.790420552 0.134307252 0.597659529
    outer loop
      vertex 0.0136442075 2.81275516 1.19434116
      vertex 0.0139601394 2.81155637 1.19419273
      vertex 0.0697462936 2.83607582 1.114904
    endloop
  endfacet
  facet normal 0.790420552 0.134307252 0.597659529
    outer loop
      vertex 0.0136442075 2.81275516 1.19434116
      vertex 0.0697462936 2.83607582 1.114904
      vertex 0.0694303617 2.83727461 1.11505243
    endloop
  endfacet
  facet normal -0.557861542 -0.245194437 0.792887248
    outer loop
      vertex 0.0113214283 2.81173424 1.19239118
      vertex 0.0139601394 2.81155637 1.19419273
      vertex 0.0136442075 2.81275516 1.19434116
    endloop
  endfacet
  facet normal 0.557861542 0.245194437 -0.792887248
    outer loop
      vertex 0.0671075826 2.83625369 1.11310246
      vertex 0.0694303617 2.83727461 1.11505243
      vertex 0.0697462936 2.83607582 1.114904
    endloop
  endfacet
  facet normal 0.827085022 -0.243340455 0.506671284
    outer loop
      vertex 0.0139601394 2.81155637 1.19419273
      vertex 0.0138743513 2.81038466 1.19377002
      vertex 0.0696605056 2.8349041 1.1144813
    endloop
  endfacet
  facet normal 0.827085022 -0.243340455 0.506671284
    outer loop
      vertex 0.0139601394 2.81155637 1.19419273
      vertex 0.0696605056 2.8349041 1.1144813
      vertex 0.0697462936 2.83607582 1.114904
    endloop
  endfacet
  facet normal -0.557861542 -0.245194437 0.792887248
    outer loop
      vertex 0.0113214283 2.81173424 1.19239118
      vertex 0.0138743513 2.81038466 1.19377002
      vertex 0.0139601394 2.81155637 1.19419273
    endloop
  endfacet
  facet normal 0.557861542 0.245194437 -0.792887248
    outer loop
      vertex 0.0671075826 2.83625369 1.11310246
      vertex 0.0697462936 2.83607582 1.114904
      vertex 0.0696605056 2.8349041 1.1144813
    endloop
  endfacet
  facet normal 0.737833294 -0.583941784 0.338546928
    outer loop
      vertex 0.0138743513 2.81038466 1.19377002
      vertex 0.013399904 2.80941841 1.1931374
      vertex 0.0691860582 2.83393785 1.11384868
    endloop
  endfacet
  facet normal 0.737833294 -0.583941784 0.338546928
    outer loop
      vertex 0.0138743513 2.81038466 1.19377002
      vertex 0.0691860582 2.83393785 1.11384868
      vertex 0.0696605056 2.8349041 1.1144813
    endloop
  endfacet
  facet normal -0.557861542 -0.245194437 0.792887248
    outer loop
      vertex 0.0113214283 2.81173424 1.19239118
      vertex 0.013399904 2.80941841 1.1931374
      vertex 0.0138743513 2.81038466 1.19377002
    endloop
  endfacet
  facet normal 0.557861542 0.245194437 -0.792887248
    outer loop
      vertex 0.0671075826 2.83625369 1.11310246
      vertex 0.0696605056 2.8349041 1.1144813
      vertex 0.0691860582 2.83393785 1.11384868
    endloop
  endfacet
  facet normal 0.536253136 -0.83564327 0.118881872
    outer loop
      vertex 0.013399904 2.80941841 1.1931374
      vertex 0.0126090275 2.80880472 1.19239118
      vertex 0.0683951817 2.83332417 1.11310246
    endloop
  endfacet
  facet normal 0.536253136 -0.83564327 0.118881872
    outer loop
      vertex 0.013399904 2.80941841 1.1931374
      vertex 0.0683951817 2.83332417 1.11310246
      vertex 0.0691860582 2.83393785 1.11384868
    endloop
  endfacet
  facet normal -0.557861542 -0.245194437 0.792887248
    outer loop
      vertex 0.0113214283 2.81173424 1.19239118
      vertex 0.0126090275 2.80880472 1.19239118
      vertex 0.013399904 2.80941841 1.1931374
    endloop
  endfacet
  facet normal 0.557861542 0.245194437 -0.792887248
    outer loop
      vertex 0.0671075826 2.83625369 1.11310246
      vertex 0.0691860582 2.83393785 1.11384868
      vertex 0.0683951817 2.83332417 1.11310246
    endloop
  endfacet
  facet normal 0.253033299 -0.960125643 -0.118881872
    outer loop
      vertex 0.0362337075 2.81316152 1.2103604
      vertex 0.0352468057 2.81299383 1.20961417
      vertex 0.0910329599 2.83751327 1.13032545
    endloop
  endfacet
  facet normal 0.253033299 -0.960125643 -0.118881872
    outer loop
      vertex 0.0362337075 2.81316152 1.2103604
      vertex 0.0910329599 2.83751327 1.13032545
      vertex 0.0920198617 2.83768097 1.13107167
    endloop
  endfacet
  facet normal -0.557861542 -0.245194437 0.792887248
    outer loop
      vertex 0.0349461083 2.81609104 1.2103604
      vertex 0.0352468057 2.81299383 1.20961417
      vertex 0.0362337075 2.81316152 1.2103604
    endloop
  endfacet
  facet normal 0.557861542 0.245194437 -0.792887248
    outer loop
      vertex 0.0907322625 2.84061049 1.13107167
      vertex 0.0920198617 2.83768097 1.13107167
      vertex 0.0910329599 2.83751327 1.13032545
    endloop
  endfacet
  facet normal -0.0687085636 -0.93843759 -0.338546928
    outer loop
      vertex 0.0352468057 2.81299383 1.20961417
      vertex 0.0342141255 2.81329766 1.20898155
      vertex 0.0900002797 2.8378171 1.12969283
    endloop
  endfacet
  facet normal -0.0687085636 -0.93843759 -0.338546928
    outer loop
      vertex 0.0352468057 2.81299383 1.20961417
      vertex 0.0900002797 2.8378171 1.12969283
      vertex 0.0910329599 2.83751327 1.13032545
    endloop
  endfacet
  facet normal -0.557861542 -0.245194437 0.792887248
    outer loop
      vertex 0.0349461083 2.81609104 1.2103604
      vertex 0.0342141255 2.81329766 1.20898155
      vertex 0.0352468057 2.81299383 1.20961417
    endloop
  endfacet
  facet normal 0.557861542 0.245194437 -0.792887248
    outer loop
      vertex 0.0907322625 2.84061049 1.13107167
      vertex 0.0910329599 2.83751327 1.13032545
      vertex 0.0900002797 2.8378171 1.12969283
    endloop
  endfacet
  facet normal -0.379990171 -0.773880921 -0.506671284
    outer loop
      vertex 0.0342141255 2.81329766 1.20898155
      vertex 0.033292883 2.81402676 1.20855885
      vertex 0.0890790373 2.8385462 1.12927013
    endloop
  endfacet
  facet normal -0.379990171 -0.773880921 -0.506671284
    outer loop
      vertex 0.0342141255 2.81329766 1.20898155
      vertex 0.0890790373 2.8385462 1.12927013
      vertex 0.0900002797 2.8378171 1.12969283
    endloop
  endfacet
  facet normal -0.557861542 -0.245194437 0.792887248
    outer loop
      vertex 0.0349461083 2.81609104 1.2103604
      vertex 0.033292883 2.81402676 1.20855885
      vertex 0.0342141255 2.81329766 1.20898155
    endloop
  endfacet
  facet normal 0.557861542 0.245194437 -0.792887248
    outer loop
      vertex 0.0907322625 2.84061049 1.13107167
      vertex 0.0900002797 2.8378171 1.12969283
      vertex 0.0890790373 2.8385462 1.12927013
    endloop
  endfacet
  facet normal -0.633421719 -0.491507898 -0.597659529
    outer loop
      vertex 0.033292883 2.81402676 1.20855885
      vertex 0.0326233291 2.81507012 1.20841042
      vertex 0.0884094834 2.83958957 1.12912169
    endloop
  endfacet
  facet normal -0.633421719 -0.491507898 -0.597659529
    outer loop
      vertex 0.033292883 2.81402676 1.20855885
      vertex 0.0884094834 2.83958957 1.12912169
      vertex 0.0890790373 2.8385462 1.12927013
    endloop
  endfacet
  facet normal -0.557861542 -0.245194437 0.792887248
    outer loop
      vertex 0.0349461083 2.81609104 1.2103604
      vertex 0.0326233291 2.81507012 1.20841042
      vertex 0.033292883 2.81402676 1.20855885
    endloop
  endfacet
  facet normal 0.557861542 0.245194437 -0.792887248
    outer loop
      vertex 0.0907322625 2.84061049 1.13107167
      vertex 0.0890790373 2.8385462 1.12927013
      vertex 0.0884094834 2.83958957 1.12912169
    endloop
  endfacet
  facet normal -0.790420552 -0.134307252 -0.597659529
    outer loop
      vertex 0.0326233291 2.81507012 1.20841042
      vertex 0.0323073973 2.81626891 1.20855885
      vertex 0.0880935515 2.84078836 1.12927013
    endloop
  endfacet
  facet normal -0.790420552 -0.134307252 -0.597659529
    outer loop
      vertex 0.0326233291 2.81507012 1.20841042
      vertex 0.0880935515 2.84078836 1.12927013
      vertex 0.0884094834 2.83958957 1.12912169
    endloop
  endfacet
  facet normal -0.557861542 -0.245194437 0.792887248
    outer loop
      vertex 0.0349461083 2.81609104 1.2103604
      vertex 0.0323073973 2.81626891 1.20855885
      vertex 0.0326233291 2.81507012 1.20841042
    endloop
  endfacet
  facet normal 0.557861542 0.245194437 -0.792887248
    outer loop
      vertex 0.0907322625 2.84061049 1.13107167
      vertex 0.0884094834 2.83958957 1.12912169
      vertex 0.0880935515 2.84078836 1.12927013
    endloop
  endfacet
  facet normal -0.827085022 0.243340455 -0.506671284
    outer loop
      vertex 0.0323073973 2.81626891 1.20855885
      vertex 0.0323931853 2.81744063 1.20898155
      vertex 0.0881793395 2.84196007 1.12969283
    endloop
  endfacet
  facet normal -0.827085022 0.243340455 -0.506671284
    outer loop
      vertex 0.0323073973 2.81626891 1.20855885
      vertex 0.0881793395 2.84196007 1.12969283
      vertex 0.0880935515 2.84078836 1.12927013
    endloop
  endfacet
  facet normal -0.557861542 -0.245194437 0.792887248
    outer loop
      vertex 0.0349461083 2.81609104 1.2103604
      vertex 0.0323931853 2.81744063 1.20898155
      vertex 0.0323073973 2.81626891 1.20855885
    endloop
  endfacet
  facet normal 0.557861542 0.245194437 -0.792887248
    outer loop
      vertex 0.0907322625 2.84061049 1.13107167
      vertex 0.0880935515 2.84078836 1.12927013
      vertex 0.0881793395 2.84196007 1.12969283
    endloop
  endfacet
  facet normal -0.737833294 0.583941784 -0.338546928
    outer loop
      vertex 0.0323931853 2.81744063 1.20898155
      vertex 0.0328676327 2.81840688 1.20961417
      vertex 0.0886537869 2.84292632 1.13032545
    endloop
  endfacet
  facet normal -0.737833294 0.583941784 -0.338546928
    outer loop
      vertex 0.0323931853 2.81744063 1.20898155
      vertex 0.0886537869 2.84292632 1.13032545
      vertex 0.0881793395 2.84196007 1.12969283
    endloop
  endfacet
  facet normal -0.557861542 -0.245194437 0.792887248
    outer loop
      vertex 0.0349461083 2.81609104 1.2103604
      vertex 0.0328676327 2.81840688 1.20961417
      vertex 0.0323931853 2.81744063 1.20898155
    endloop
  endfacet
  facet normal 0.557861542 0.245194437 -0.792887248
    outer loop
      vertex 0.0907322625 2.84061049 1.13107167
      vertex 0.0881793395 2.84196007 1.12969283
      vertex 0.0886537869 2.84292632 1.13032545
    endloop
  endfacet
  facet normal -0.536253136 0.83564327 -0.118881872
    outer loop
      vertex 0.0328676327 2.81840688 1.20961417
      vertex 0.0336585092 2.81902056 1.2103604
      vertex 0.0894446634 2.84354001 1.13107167
    endloop
  endfacet
  facet normal -0.536253136 0.83564327 -0.118881872
    outer loop
      vertex 0.0328676327 2.81840688 1.20961417
      vertex 0.0894446634 2.84354001 1.13107167
      vertex 0.0886537869 2.84292632 1.13032545
    endloop
  endfacet
  facet normal -0.557861542 -0.245194437 0.792887248
    outer loop
      vertex 0.0349461083 2.81609104 1.2103604
      vertex 0.0336585092 2.81902056 1.2103604
      vertex 0.0328676327 2.81840688 1.20961417
    endloop
  endfacet
  facet normal 0.557861542 0.245194437 -0.792887248
    outer loop
      vertex 0.0907322625 2.84061049 1.13107167
      vertex 0.0886537869 2.84292632 1.13032545
      vertex 0.0894446634 2.84354001 1.13107167
    endloop
  endfacet
  facet normal -0.253033299 0.960125643 0.118881872
    outer loop
      vertex 0.0336585092 2.81902056 1.2103604
      vertex 0.0346454109 2.81918826 1.21110662
      vertex 0.0904315651 2.8437077 1.1318179
    endloop
  endfacet
  facet normal -0.253033299 0.960125643 0.118881872
    outer loop
      vertex 0.0336585092 2.81902056 1.2103604
      vertex 0.0904315651 2.8437077 1.1318179
      vertex 0.0894446634 2.84354001 1.13107167
    endloop
  endfacet
  facet normal -0.557861542 -0.245194437 0.792887248
    outer loop
      vertex 0.0349461083 2.81609104 1.2103604
      vertex 0.0346454109 2.81918826 1.21110662
      vertex 0.0336585092 2.81902056 1.2103604
    endloop
  endfacet
  facet normal 0.557861542 0.245194437 -0.792887248
    outer loop
      vertex 0.0907322625 2.84061049 1.13107167
      vertex 0.0894446634 2.84354001 1.13107167
      vertex 0.0904315651 2.8437077 1.1318179
    endloop
  endfacet
  facet normal 0.0687085636 0.93843759 0.338546928
    outer loop
      vertex 0.0346454109 2.81918826 1.21110662
      vertex 0.0356780911 2.81888443 1.21173924
      vertex 0.0914642454 2.84340387 1.13245052
    endloop
  endfacet
  facet normal 0.0687085636 0.93843759 0.338546928
    outer loop
      vertex 0.0346454109 2.81918826 1.21110662
      vertex 0.0914642454 2.84340387 1.13245052
      vertex 0.0904315651 2.8437077 1.1318179
    endloop
  endfacet
  facet normal -0.557861542 -0.245194437 0.792887248
    outer loop
      vertex 0.0349461083 2.81609104 1.2103604
      vertex 0.0356780911 2.81888443 1.21173924
      vertex 0.0346454109 2.81918826 1.21110662
    endloop
  endfacet
  facet normal 0.557861542 0.245194437 -0.792887248
    outer loop
      vertex 0.0907322625 2.84061049 1.13107167
      vertex 0.0904315651 2.8437077 1.1318179
      vertex 0.0914642454 2.84340387 1.13245052
    endloop
  endfacet
  facet normal 0.379990171 0.773880921 0.506671284
    outer loop
      vertex 0.0356780911 2.81888443 1.21173924
      vertex 0.0365993336 2.81815533 1.21216194
      vertex 0.0923854878 2.84267477 1.13287322
    endloop
  endfacet
  facet normal 0.379990171 0.773880921 0.506671284
    outer loop
      vertex 0.0356780911 2.81888443 1.21173924
      vertex 0.0923854878 2.84267477 1.13287322
      vertex 0.0914642454 2.84340387 1.13245052
    endloop
  endfacet
  facet normal -0.557861542 -0.245194437 0.792887248
    outer loop
      vertex 0.0349461083 2.81609104 1.2103604
      vertex 0.0365993336 2.81815533 1.21216194
      vertex 0.0356780911 2.81888443 1.21173924
    endloop
  endfacet
  facet normal 0.557861542 0.245194437 -0.792887248
    outer loop
      vertex 0.0907322625 2.84061049 1.13107167
      vertex 0.0914642454 2.84340387 1.13245052
      vertex 0.0923854878 2.84267477 1.13287322
    endloop
  endfacet
  facet normal 0.633421719 0.491507898 0.597659529
    outer loop
      vertex 0.0365993336 2.81815533 1.21216194
      vertex 0.0372688875 2.81711196 1.21231038
      vertex 0.0930550417 2.84163141 1.13302165
    endloop
  endfacet
  facet normal 0.633421719 0.491507898 0.597659529
    outer loop
      vertex 0.0365993336 2.81815533 1.21216194
      vertex 0.0930550417 2.84163141 1.13302165
      vertex 0.0923854878 2.84267477 1.13287322
    endloop
  endfacet
  facet normal -0.557861542 -0.245194437 0.792887248
    outer loop
      vertex 0.0349461083 2.81609104 1.2103604
      vertex 0.0372688875 2.81711196 1.21231038
      vertex 0.0365993336 2.81815533 1.21216194
    endloop
  endfacet
  facet normal 0.557861542 0.245194437 -0.792887248
    outer loop
      vertex 0.0907322625 2.84061049 1.13107167
      vertex 0.0923854878 2.84267477 1.13287322
      vertex 0.0930550417 2.84163141 1.13302165
    endloop
  endfacet
  facet normal 0.790420552 0.134307252 0.597659529
    outer loop
      vertex 0.0372688875 2.81711196 1.21231038
      vertex 0.0375848193 2.81591317 1.21216194
      vertex 0.0933709735 2.84043262 1.13287322
    endloop
  endfacet
  facet normal 0.790420552 0.134307252 0.597659529
    outer loop
      vertex 0.0372688875 2.81711196 1.21231038
      vertex 0.0933709735 2.84043262 1.13287322
      vertex 0.0930550417 2.84163141 1.13302165
    endloop
  endfacet
  facet normal -0.557861542 -0.245194437 0.792887248
    outer loop
      vertex 0.0349461083 2.81609104 1.2103604
      vertex 0.0375848193 2.81591317 1.21216194
      vertex 0.0372688875 2.81711196 1.21231038
    endloop
  endfacet
  facet normal 0.557861542 0.245194437 -0.792887248
    outer loop
      vertex 0.0907322625 2.84061049 1.13107167
      vertex 0.0930550417 2.84163141 1.13302165
      vertex 0.0933709735 2.84043262 1.13287322
    endloop
  endfacet
  facet normal 0.827085022 -0.243340455 0.506671284
    outer loop
      vertex 0.0375848193 2.81591317 1.21216194
      vertex 0.0374990313 2.81474146 1.21173924
      vertex 0.0932851855 2.8392609 1.13245052
    endloop
  endfacet
  facet normal 0.827085022 -0.243340455 0.506671284
    outer loop
      vertex 0.0375848193 2.81591317 1.21216194
      vertex 0.0932851855 2.8392609 1.13245052
      vertex 0.0933709735 2.84043262 1.13287322
    endloop
  endfacet
  facet normal -0.557861542 -0.245194437 0.792887248
    outer loop
      vertex 0.0349461083 2.81609104 1.2103604
      vertex 0.0374990313 2.81474146 1.21173924
      vertex 0.0375848193 2.81591317 1.21216194
    endloop
  endfacet
  facet normal 0.557861542 0.245194437 -0.792887248
    outer loop
      vertex 0.0907322625 2.84061049 1.13107167
      vertex 0.0933709735 2.84043262 1.13287322
      vertex 0.0932851855 2.8392609 1.13245052
    endloop
  endfacet
  facet normal 0.737833294 -0.583941784 0.338546928
    outer loop
      vertex 0.0374990313 2.81474146 1.21173924
      vertex 0.0370245839 2.81377521 1.21110662
      vertex 0.0928107382 2.83829465 1.1318179
    endloop
  endfacet
  facet normal 0.737833294 -0.583941784 0.338546928
    outer loop
      vertex 0.0374990313 2.81474146 1.21173924
      vertex 0.0928107382 2.83829465 1.1318179
      vertex 0.0932851855 2.8392609 1.13245052
    endloop
  endfacet
  facet normal -0.557861542 -0.245194437 0.792887248
    outer loop
      vertex 0.0349461083 2.81609104 1.2103604
      vertex 0.0370245839 2.81377521 1.21110662
      vertex 0.0374990313 2.81474146 1.21173924
    endloop
  endfacet
  facet normal 0.557861542 0.245194437 -0.792887248
    outer loop
      vertex 0.0907322625 2.84061049 1.13107167
      vertex 0.0932851855 2.8392609 1.13245052
      vertex 0.0928107382 2.83829465 1.1318179
    endloop
  endfacet
  facet normal 0.536253136 -0.83564327 0.118881872
    outer loop
      vertex 0.0370245839 2.81377521 1.21110662
      vertex 0.0362337075 2.81316152 1.2103604
      vertex 0.0920198617 2.83768097 1.13107167
    endloop
  endfacet
  facet normal 0.536253136 -0.83564327 0.118881872
    outer loop
      vertex 0.0370245839 2.81377521 1.21110662
      vertex 0.0920198617 2.83768097 1.13107167
      vertex 0.0928107382 2.83829465 1.1318179
    endloop
  endfacet
  facet normal -0.557861542 -0.245194437 0.792887248
    outer loop
      vertex 0.0349461083 2.81609104 1.2103604
      vertex 0.0362337075 2.81316152 1.2103604
      vertex 0.0370245839 2.81377521 1.21110662
    endloop
  endfacet
  facet normal 0.557861542 0.245194437 -0.792887248
    outer loop
      vertex 0.0907322625 2.84061049 1.13107167
      vertex 0.0928107382 2.83829465 1.1318179
      vertex 0.0920198617 2.83768097 1.13107167
    endloop
  endfacet
  facet normal 0.284934598 -0.945410535 -0.158149283
    outer loop
      vertex 0.138624351 2.65989071 1.19933587
      vertex 0.139287378 2.6602566 1.19834317
      vertex 0.258989247 2.68164084 1.28617355
    endloop
  endfacet
  facet normal 0.284934598 -0.945410535 -0.158149283
    outer loop
      vertex 0.138624351 2.65989071 1.19933587
      vertex 0.258989247 2.68164084 1.28617355
      vertex 0.25832622 2.68127496 1.28716626
    endloop
  endfacet
  facet normal -0.798012463 -0.142561642 -0.585535897
    outer loop
      vertex 0.138061593 2.66304084 1.19933587
      vertex 0.139287378 2.6602566 1.19834317
      vertex 0.138624351 2.65989071 1.19933587
    endloop
  endfacet
  facet normal 0.798012463 0.142561642 0.585535897
    outer loop
      vertex 0.257763463 2.68442508 1.28716626
      vertex 0.25832622 2.68127496 1.28716626
      vertex 0.258989247 2.68164084 1.28617355
    endloop
  endfacet
  facet normal 0.466460013 -0.761302155 -0.450371053
    outer loop
      vertex 0.139287378 2.6602566 1.19834317
      vertex 0.13976379 2.66104636 1.19750159
      vertex 0.25946566 2.68243061 1.28533198
    endloop
  endfacet
  facet normal 0.466460013 -0.761302155 -0.450371053
    outer loop
      vertex 0.139287378 2.6602566 1.19834317
      vertex 0.25946566 2.68243061 1.28533198
      vertex 0.258989247 2.68164084 1.28617355
    endloop
  endfacet
  facet normal -0.798012463 -0.142561642 -0.585535897
    outer loop
      vertex 0.138061593 2.66304084 1.19933587
      vertex 0.13976379 2.66104636 1.19750159
      vertex 0.139287378 2.6602566 1.19834317
    endloop
  endfacet
  facet normal 0.798012463 0.142561642 0.585535897
    outer loop
      vertex 0.257763463 2.68442508 1.28716626
      vertex 0.258989247 2.68164084 1.28617355
      vertex 0.25946566 2.68243061 1.28533198
    endloop
  endfacet
  facet normal 0.57697112 -0.461292423 -0.674027913
    outer loop
      vertex 0.13976379 2.66104636 1.19750159
      vertex 0.139981059 2.66213977 1.19693927
      vertex 0.259682928 2.68352401 1.28476965
    endloop
  endfacet
  facet normal 0.57697112 -0.461292423 -0.674027913
    outer loop
      vertex 0.13976379 2.66104636 1.19750159
      vertex 0.259682928 2.68352401 1.28476965
      vertex 0.25946566 2.68243061 1.28533198
    endloop
  endfacet
  facet normal -0.798012463 -0.142561642 -0.585535897
    outer loop
      vertex 0.138061593 2.66304084 1.19933587
      vertex 0.139981059 2.66213977 1.19693927
      vertex 0.13976379 2.66104636 1.19750159
    endloop
  endfacet
  facet normal 0.798012463 0.142561642 0.585535897
    outer loop
      vertex 0.257763463 2.68442508 1.28716626
      vertex 0.25946566 2.68243061 1.28533198
      vertex 0.259682928 2.68352401 1.28476965
    endloop
  endfacet
  facet normal 0.599643603 -0.0910551012 -0.795070134
    outer loop
      vertex 0.139981059 2.66213977 1.19693927
      vertex 0.139906106 2.66337035 1.19674181
      vertex 0.259607976 2.6847546 1.28457219
    endloop
  endfacet
  facet normal 0.599643603 -0.0910551012 -0.795070134
    outer loop
      vertex 0.139981059 2.66213977 1.19693927
      vertex 0.259607976 2.6847546 1.28457219
      vertex 0.259682928 2.68352401 1.28476965
    endloop
  endfacet
  facet normal -0.798012463 -0.142561642 -0.585535897
    outer loop
      vertex 0.138061593 2.66304084 1.19933587
      vertex 0.139906106 2.66337035 1.19674181
      vertex 0.139981059 2.66213977 1.19693927
    endloop
  endfacet
  facet normal 0.798012463 0.142561642 0.585535897
    outer loop
      vertex 0.257763463 2.68442508 1.28716626
      vertex 0.259682928 2.68352401 1.28476965
      vertex 0.259607976 2.6847546 1.28457219
    endloop
  endfacet
  facet normal 0.531025784 0.293044534 -0.795070134
    outer loop
      vertex 0.139906106 2.66337035 1.19674181
      vertex 0.139550343 2.66455077 1.19693927
      vertex 0.259252213 2.68593502 1.28476965
    endloop
  endfacet
  facet normal 0.531025784 0.293044534 -0.795070134
    outer loop
      vertex 0.139906106 2.66337035 1.19674181
      vertex 0.259252213 2.68593502 1.28476965
      vertex 0.259607976 2.6847546 1.28457219
    endloop
  endfacet
  facet normal -0.798012463 -0.142561642 -0.585535897
    outer loop
      vertex 0.138061593 2.66304084 1.19933587
      vertex 0.139550343 2.66455077 1.19693927
      vertex 0.139906106 2.66337035 1.19674181
    endloop
  endfacet
  facet normal 0.798012463 0.142561642 0.585535897
    outer loop
      vertex 0.257763463 2.68442508 1.28716626
      vertex 0.259607976 2.6847546 1.28457219
      vertex 0.259252213 2.68593502 1.28476965
    endloop
  endfacet
  facet normal 0.381564103 0.632530796 -0.674027913
    outer loop
      vertex 0.139550343 2.66455077 1.19693927
      vertex 0.138967931 2.66550132 1.19750159
      vertex 0.258669801 2.68688556 1.28533198
    endloop
  endfacet
  facet normal 0.381564103 0.632530796 -0.674027913
    outer loop
      vertex 0.139550343 2.66455077 1.19693927
      vertex 0.258669801 2.68688556 1.28533198
      vertex 0.259252213 2.68593502 1.28476965
    endloop
  endfacet
  facet normal -0.798012463 -0.142561642 -0.585535897
    outer loop
      vertex 0.138061593 2.66304084 1.19933587
      vertex 0.138967931 2.66550132 1.19750159
      vertex 0.139550343 2.66455077 1.19693927
    endloop
  endfacet
  facet normal 0.798012463 0.142561642 0.585535897
    outer loop
      vertex 0.257763463 2.68442508 1.28716626
      vertex 0.259252213 2.68593502 1.28476965
      vertex 0.258669801 2.68688556 1.28533198
    endloop
  endfacet
  facet normal 0.174012746 0.875719977 -0.450371053
    outer loop
      vertex 0.138967931 2.66550132 1.19750159
      vertex 0.138247538 2.66607727 1.19834317
      vertex 0.257949407 2.68746152 1.28617355
    endloop
  endfacet
  facet normal 0.174012746 0.875719977 -0.450371053
    outer loop
      vertex 0.138967931 2.66550132 1.19750159
      vertex 0.257949407 2.68746152 1.28617355
      vertex 0.258669801 2.68688556 1.28533198
    endloop
  endfacet
  facet normal -0.798012463 -0.142561642 -0.585535897
    outer loop
      vertex 0.138061593 2.66304084 1.19933587
      vertex 0.138247538 2.66607727 1.19834317
      vertex 0.138967931 2.66550132 1.19750159
    endloop
  endfacet
  facet normal 0.798012463 0.142561642 0.585535897
    outer loop
      vertex 0.257763463 2.68442508 1.28716626
      vertex 0.258669801 2.68688556 1.28533198
      vertex 0.257949407 2.68746152 1.28617355
    endloop
  endfacet
  facet normal -0.0600304737 0.985588731 -0.158149283
    outer loop
      vertex 0.138247538 2.66607727 1.19834317
      vertex 0.137498836 2.66619096 1.19933587
      vertex 0.257200706 2.68757521 1.28716626
    endloop
  endfacet
  facet normal -0.0600304737 0.985588731 -0.158149283
    outer loop
      vertex 0.138247538 2.66607727 1.19834317
      vertex 0.257200706 2.68757521 1.28716626
      vertex 0.257949407 2.68746152 1.28617355
    endloop
  endfacet
  facet normal -0.798012463 -0.142561642 -0.585535897
    outer loop
      vertex 0.138061593 2.66304084 1.19933587
      vertex 0.137498836 2.66619096 1.19933587
      vertex 0.138247538 2.66607727 1.19834317
    endloop
  endfacet
  facet normal 0.798012463 0.142561642 0.585535897
    outer loop
      vertex 0.257763463 2.68442508 1.28716626
      vertex 0.257949407 2.68746152 1.28617355
      vertex 0.257200706 2.68757521 1.28716626
    endloop
  endfacet
  facet normal -0.284934598 0.945410535 0.158149283
    outer loop
      vertex 0.137498836 2.66619096 1.19933587
      vertex 0.136835809 2.66582508 1.20032858
      vertex 0.256537678 2.68720932 1.28815897
    endloop
  endfacet
  facet normal -0.284934598 0.945410535 0.158149283
    outer loop
      vertex 0.137498836 2.66619096 1.19933587
      vertex 0.256537678 2.68720932 1.28815897
      vertex 0.257200706 2.68757521 1.28716626
    endloop
  endfacet
  facet normal -0.798012463 -0.142561642 -0.585535897
    outer loop
      vertex 0.138061593 2.66304084 1.19933587
      vertex 0.136835809 2.66582508 1.20032858
      vertex 0.137498836 2.66619096 1.19933587
    endloop
  endfacet
  facet normal 0.798012463 0.142561642 0.585535897
    outer loop
      vertex 0.257763463 2.68442508 1.28716626
      vertex 0.257200706 2.68757521 1.28716626
      vertex 0.256537678 2.68720932 1.28815897
    endloop
  endfacet
  facet normal -0.466460013 0.761302155 0.450371053
    outer loop
      vertex 0.136835809 2.66582508 1.20032858
      vertex 0.136359396 2.66503531 1.20117016
      vertex 0.256061266 2.68641956 1.28900054
    endloop
  endfacet
  facet normal -0.466460013 0.761302155 0.450371053
    outer loop
      vertex 0.136835809 2.66582508 1.20032858
      vertex 0.256061266 2.68641956 1.28900054
      vertex 0.256537678 2.68720932 1.28815897
    endloop
  endfacet
  facet normal -0.798012463 -0.142561642 -0.585535897
    outer loop
      vertex 0.138061593 2.66304084 1.19933587
      vertex 0.136359396 2.66503531 1.20117016
      vertex 0.136835809 2.66582508 1.20032858
    endloop
  endfacet
  facet normal 0.798012463 0.142561642 0.585535897
    outer loop
      vertex 0.257763463 2.68442508 1.28716626
      vertex 0.256537678 2.68720932 1.28815897
      vertex 0.256061266 2.68641956 1.28900054
    endloop
  endfacet
  facet normal -0.57697112 0.461292423 0.674027913
    outer loop
      vertex 0.136359396 2.66503531 1.20117016
      vertex 0.136142128 2.66394191 1.20173248
      vertex 0.255843997 2.68532615 1.28956287
    endloop
  endfacet
  facet normal -0.57697112 0.461292423 0.674027913
    outer loop
      vertex 0.136359396 2.66503531 1.20117016
      vertex 0.255843997 2.68532615 1.28956287
      vertex 0.256061266 2.68641956 1.28900054
    endloop
  endfacet
  facet normal -0.798012463 -0.142561642 -0.585535897
    outer loop
      vertex 0.138061593 2.66304084 1.19933587
      vertex 0.136142128 2.66394191 1.20173248
      vertex 0.136359396 2.66503531 1.20117016
    endloop
  endfacet
  facet normal 0.798012463 0.142561642 0.585535897
    outer loop
      vertex 0.257763463 2.68442508 1.28716626
      vertex 0.256061266 2.68641956 1.28900054
      vertex 0.255843997 2.68532615 1.28956287
    endloop
  endfacet
  facet normal -0.599643603 0.0910551012 0.795070134
    outer loop
      vertex 0.136142128 2.66394191 1.20173248
      vertex 0.136217081 2.66271132 1.20192994
      vertex 0.25591895 2.68409557 1.28976033
    endloop
  endfacet
  facet normal -0.599643603 0.0910551012 0.795070134
    outer loop
      vertex 0.136142128 2.66394191 1.20173248
      vertex 0.25591895 2.68409557 1.28976033
      vertex 0.255843997 2.68532615 1.28956287
    endloop
  endfacet
  facet normal -0.798012463 -0.142561642 -0.585535897
    outer loop
      vertex 0.138061593 2.66304084 1.19933587
      vertex 0.136217081 2.66271132 1.20192994
      vertex 0.136142128 2.66394191 1.20173248
    endloop
  endfacet
  facet normal 0.798012463 0.142561642 0.585535897
    outer loop
      vertex 0.257763463 2.68442508 1.28716626
      vertex 0.255843997 2.68532615 1.28956287
      vertex 0.25591895 2.68409557 1.28976033
    endloop
  endfacet
  facet normal -0.531025784 -0.293044534 0.795070134
    outer loop
      vertex 0.136217081 2.66271132 1.20192994
      vertex 0.136572844 2.6615309 1.20173248
      vertex 0.256274713 2.68291515 1.28956287
    endloop
  endfacet
  facet normal -0.531025784 -0.293044534 0.795070134
    outer loop
      vertex 0.136217081 2.66271132 1.20192994
      vertex 0.256274713 2.68291515 1.28956287
      vertex 0.25591895 2.68409557 1.28976033
    endloop
  endfacet
  facet normal -0.798012463 -0.142561642 -0.585535897
    outer loop
      vertex 0.138061593 2.66304084 1.19933587
      vertex 0.136572844 2.6615309 1.20173248
      vertex 0.136217081 2.66271132 1.20192994
    endloop
  endfacet
  facet normal 0.798012463 0.142561642 0.585535897
    outer loop
      vertex 0.257763463 2.68442508 1.28716626
      vertex 0.25591895 2.68409557 1.28976033
      vertex 0.256274713 2.68291515 1.28956287
    endloop
  endfacet
  facet normal -0.381564103 -0.632530796 0.674027913
    outer loop
      vertex 0.136572844 2.6615309 1.20173248
      vertex 0.137155255 2.66058036 1.20117016
      vertex 0.256857125 2.6819646 1.28900054
    endloop
  endfacet
  facet normal -0.381564103 -0.632530796 0.674027913
    outer loop
      vertex 0.136572844 2.6615309 1.20173248
      vertex 0.256857125 2.6819646 1.28900054
      vertex 0.256274713 2.68291515 1.28956287
    endloop
  endfacet
  facet normal -0.798012463 -0.142561642 -0.585535897
    outer loop
      vertex 0.138061593 2.66304084 1.19933587
      vertex 0.137155255 2.66058036 1.20117016
      vertex 0.136572844 2.6615309 1.20173248
    endloop
  endfacet
  facet normal 0.798012463 0.142561642 0.585535897
    outer loop
      vertex 0.257763463 2.68442508 1.28716626
      vertex 0.256274713 2.68291515 1.28956287
      vertex 0.256857125 2.6819646 1.28900054
    endloop
  endfacet
  facet normal -0.174012746 -0.875719977 0.450371053
    outer loop
      vertex 0.137155255 2.66058036 1.20117016
      vertex 0.137875649 2.6600044 1.20032858
      vertex 0.257577518 2.68138864 1.28815897
    endloop
  endfacet
  facet normal -0.174012746 -0.875719977 0.450371053
    outer loop
      vertex 0.137155255 2.66058036 1.20117016
      vertex 0.257577518 2.68138864 1.28815897
      vertex 0.256857125 2.6819646 1.28900054
    endloop
  endfacet
  facet normal -0.798012463 -0.142561642 -0.585535897
    outer loop
      vertex 0.138061593 2.66304084 1.19933587
      vertex 0.137875649 2.6600044 1.20032858
      vertex 0.137155255 2.66058036 1.20117016
    endloop
  endfacet
  facet normal 0.798012463 0.142561642 0.585535897
    outer loop
      vertex 0.257763463 2.68442508 1.28716626
      vertex 0.256857125 2.6819646 1.28900054
      vertex 0.257577518 2.68138864 1.28815897
    endloop
  endfacet
  facet normal 0.0600304737 -0.985588731 0.158149283
    outer loop
      vertex 0.137875649 2.6600044 1.20032858
      vertex 0.138624351 2.65989071 1.19933587
      vertex 0.25832622 2.68127496 1.28716626
    endloop
  endfacet
  facet normal 0.0600304737 -0.985588731 0.158149283
    outer loop
      vertex 0.137875649 2.6600044 1.20032858
      vertex 0.25832622 2.68127496 1.28716626
      vertex 0.257577518 2.68138864 1.28815897
    endloop
  endfacet
  facet normal -0.798012463 -0.142561642 -0.585535897
    outer loop
      vertex 0.138061593 2.66304084 1.19933587
      vertex 0.138624351 2.65989071 1.19933587
      vertex 0.137875649 2.6600044 1.20032858
    endloop
  endfacet
  facet normal 0.798012463 0.142561642 0.585535897
    outer loop
      vertex 0.257763463 2.68442508 1.28716626
      vertex 0.257577518 2.68138864 1.28815897
      vertex 0.25832622 2.68127496 1.28716626
    endloop
  endfacet
  facet normal 0.284934598 -0.945410535 -0.158149283
    outer loop
      vertex 0.155057284 2.66689584 1.17523428
      vertex 0.155720311 2.66726173 1.17424157
      vertex 0.27542218 2.68864598 1.26207196
    endloop
  endfacet
  facet normal 0.284934598 -0.945410535 -0.158149283
    outer loop
      vertex 0.155057284 2.66689584 1.17523428
      vertex 0.27542218 2.68864598 1.26207196
      vertex 0.274759153 2.68828009 1.26306466
    endloop
  endfacet
  facet normal -0.798012463 -0.142561642 -0.585535897
    outer loop
      vertex 0.154494526 2.67004597 1.17523428
      vertex 0.155720311 2.66726173 1.17424157
      vertex 0.155057284 2.66689584 1.17523428
    endloop
  endfacet
  facet normal 0.798012463 0.142561642 0.585535897
    outer loop
      vertex 0.274196396 2.69143022 1.26306466
      vertex 0.274759153 2.68828009 1.26306466
      vertex 0.27542218 2.68864598 1.26207196
    endloop
  endfacet
  facet normal 0.466460013 -0.761302155 -0.450371053
    outer loop
      vertex 0.155720311 2.66726173 1.17424157
      vertex 0.156196723 2.66805149 1.1734
      vertex 0.275898593 2.68943574 1.26123038
    endloop
  endfacet
  facet normal 0.466460013 -0.761302155 -0.450371053
    outer loop
      vertex 0.155720311 2.66726173 1.17424157
      vertex 0.275898593 2.68943574 1.26123038
      vertex 0.27542218 2.68864598 1.26207196
    endloop
  endfacet
  facet normal -0.798012463 -0.142561642 -0.585535897
    outer loop
      vertex 0.154494526 2.67004597 1.17523428
      vertex 0.156196723 2.66805149 1.1734
      vertex 0.155720311 2.66726173 1.17424157
    endloop
  endfacet
  facet normal 0.798012463 0.142561642 0.585535897
    outer loop
      vertex 0.274196396 2.69143022 1.26306466
      vertex 0.27542218 2.68864598 1.26207196
      vertex 0.275898593 2.68943574 1.26123038
    endloop
  endfacet
  facet normal 0.57697112 -0.461292423 -0.674027913
    outer loop
      vertex 0.156196723 2.66805149 1.1734
      vertex 0.156413992 2.6691449 1.17283767
      vertex 0.276115861 2.69052915 1.26066806
    endloop
  endfacet
  facet normal 0.57697112 -0.461292423 -0.674027913
    outer loop
      vertex 0.156196723 2.66805149 1.1734
      vertex 0.276115861 2.69052915 1.26066806
      vertex 0.275898593 2.68943574 1.26123038
    endloop
  endfacet
  facet normal -0.798012463 -0.142561642 -0.585535897
    outer loop
      vertex 0.154494526 2.67004597 1.17523428
      vertex 0.156413992 2.6691449 1.17283767
      vertex 0.156196723 2.66805149 1.1734
    endloop
  endfacet
  facet normal 0.798012463 0.142561642 0.585535897
    outer loop
      vertex 0.274196396 2.69143022 1.26306466
      vertex 0.275898593 2.68943574 1.26123038
      vertex 0.276115861 2.69052915 1.26066806
    endloop
  endfacet
  facet normal 0.599643603 -0.0910551012 -0.795070134
    outer loop
      vertex 0.156413992 2.6691449 1.17283767
      vertex 0.156339039 2.67037548 1.17264021
      vertex 0.276040909 2.69175973 1.2604706
    endloop
  endfacet
  facet normal 0.599643603 -0.0910551012 -0.795070134
    outer loop
      vertex 0.156413992 2.6691449 1.17283767
      vertex 0.276040909 2.69175973 1.2604706
      vertex 0.276115861 2.69052915 1.26066806
    endloop
  endfacet
  facet normal -0.798012463 -0.142561642 -0.585535897
    outer loop
      vertex 0.154494526 2.67004597 1.17523428
      vertex 0.156339039 2.67037548 1.17264021
      vertex 0.156413992 2.6691449 1.17283767
    endloop
  endfacet
  facet normal 0.798012463 0.142561642 0.585535897
    outer loop
      vertex 0.274196396 2.69143022 1.26306466
      vertex 0.276115861 2.69052915 1.26066806
      vertex 0.276040909 2.69175973 1.2604706
    endloop
  endfacet
  facet normal 0.531025784 0.293044534 -0.795070134
    outer loop
      vertex 0.156339039 2.67037548 1.17264021
      vertex 0.155983276 2.6715559 1.17283767
      vertex 0.275685146 2.69294015 1.26066806
    endloop
  endfacet
  facet normal 0.531025784 0.293044534 -0.795070134
    outer loop
      vertex 0.156339039 2.67037548 1.17264021
      vertex 0.275685146 2.69294015 1.26066806
      vertex 0.276040909 2.69175973 1.2604706
    endloop
  endfacet
  facet normal -0.798012463 -0.142561642 -0.585535897
    outer loop
      vertex 0.154494526 2.67004597 1.17523428
      vertex 0.155983276 2.6715559 1.17283767
      vertex 0.156339039 2.67037548 1.17264021
    endloop
  endfacet
  facet normal 0.798012463 0.142561642 0.585535897
    outer loop
      vertex 0.274196396 2.69143022 1.26306466
      vertex 0.276040909 2.69175973 1.2604706
      vertex 0.275685146 2.69294015 1.26066806
    endloop
  endfacet
  facet normal 0.381564103 0.632530796 -0.674027913
    outer loop
      vertex 0.155983276 2.6715559 1.17283767
      vertex 0.155400864 2.67250645 1.1734
      vertex 0.275102734 2.69389069 1.26123038
    endloop
  endfacet
  facet normal 0.381564103 0.632530796 -0.674027913
    outer loop
      vertex 0.155983276 2.6715559 1.17283767
      vertex 0.275102734 2.69389069 1.26123038
      vertex 0.275685146 2.69294015 1.26066806
    endloop
  endfacet
  facet normal -0.798012463 -0.142561642 -0.585535897
    outer loop
      vertex 0.154494526 2.67004597 1.17523428
      vertex 0.155400864 2.67250645 1.1734
      vertex 0.155983276 2.6715559 1.17283767
    endloop
  endfacet
  facet normal 0.798012463 0.142561642 0.585535897
    outer loop
      vertex 0.274196396 2.69143022 1.26306466
      vertex 0.275685146 2.69294015 1.26066806
      vertex 0.275102734 2.69389069 1.26123038
    endloop
  endfacet
  facet normal 0.174012746 0.875719977 -0.450371053
    outer loop
      vertex 0.155400864 2.67250645 1.1734
      vertex 0.154680471 2.67308241 1.17424157
      vertex 0.27438234 2.69446665 1.26207196
    endloop
  endfacet
  facet normal 0.174012746 0.875719977 -0.450371053
    outer loop
      vertex 0.155400864 2.67250645 1.1734
      vertex 0.27438234 2.69446665 1.26207196
      vertex 0.275102734 2.69389069 1.26123038
    endloop
  endfacet
  facet normal -0.798012463 -0.142561642 -0.585535897
    outer loop
      vertex 0.154494526 2.67004597 1.17523428
      vertex 0.154680471 2.67308241 1.17424157
      vertex 0.155400864 2.67250645 1.1734
    endloop
  endfacet
  facet normal 0.798012463 0.142561642 0.585535897
    outer loop
      vertex 0.274196396 2.69143022 1.26306466
      vertex 0.275102734 2.69389069 1.26123038
      vertex 0.27438234 2.69446665 1.26207196
    endloop
  endfacet
  facet normal -0.0600304737 0.985588731 -0.158149283
    outer loop
      vertex 0.154680471 2.67308241 1.17424157
      vertex 0.153931769 2.6731961 1.17523428
      vertex 0.273633639 2.69458034 1.26306466
    endloop
  endfacet
  facet normal -0.0600304737 0.985588731 -0.158149283
    outer loop
      vertex 0.154680471 2.67308241 1.17424157
      vertex 0.273633639 2.69458034 1.26306466
      vertex 0.27438234 2.69446665 1.26207196
    endloop
  endfacet
  facet normal -0.798012463 -0.142561642 -0.585535897
    outer loop
      vertex 0.154494526 2.67004597 1.17523428
      vertex 0.153931769 2.6731961 1.17523428
      vertex 0.154680471 2.67308241 1.17424157
    endloop
  endfacet
  facet normal 0.798012463 0.142561642 0.585535897
    outer loop
      vertex 0.274196396 2.69143022 1.26306466
      vertex 0.27438234 2.69446665 1.26207196
      vertex 0.273633639 2.69458034 1.26306466
    endloop
  endfacet
  facet normal -0.284934598 0.945410535 0.158149283
    outer loop
      vertex 0.153931769 2.6731961 1.17523428
      vertex 0.153268742 2.67283021 1.17622699
      vertex 0.272970611 2.69421445 1.26405737
    endloop
  endfacet
  facet normal -0.284934598 0.945410535 0.158149283
    outer loop
      vertex 0.153931769 2.6731961 1.17523428
      vertex 0.272970611 2.69421445 1.26405737
      vertex 0.273633639 2.69458034 1.26306466
    endloop
  endfacet
  facet normal -0.798012463 -0.142561642 -0.585535897
    outer loop
      vertex 0.154494526 2.67004597 1.17523428
      vertex 0.153268742 2.67283021 1.17622699
      vertex 0.153931769 2.6731961 1.17523428
    endloop
  endfacet
  facet normal 0.798012463 0.142561642 0.585535897
    outer loop
      vertex 0.274196396 2.69143022 1.26306466
      vertex 0.273633639 2.69458034 1.26306466
      vertex 0.272970611 2.69421445 1.26405737
    endloop
  endfacet
  facet normal -0.466460013 0.761302155 0.450371053
    outer loop
      vertex 0.153268742 2.67283021 1.17622699
      vertex 0.152792329 2.67204044 1.17706856
      vertex 0.272494199 2.69342469 1.26489895
    endloop
  endfacet
  facet normal -0.466460013 0.761302155 0.450371053
    outer loop
      vertex 0.153268742 2.67283021 1.17622699
      vertex 0.272494199 2.69342469 1.26489895
      vertex 0.272970611 2.69421445 1.26405737
    endloop
  endfacet
  facet normal -0.798012463 -0.142561642 -0.585535897
    outer loop
      vertex 0.154494526 2.67004597 1.17523428
      vertex 0.152792329 2.67204044 1.17706856
      vertex 0.153268742 2.67283021 1.17622699
    endloop
  endfacet
  facet normal 0.798012463 0.142561642 0.585535897
    outer loop
      vertex 0.274196396 2.69143022 1.26306466
      vertex 0.272970611 2.69421445 1.26405737
      vertex 0.272494199 2.69342469 1.26489895
    endloop
  endfacet
  facet normal -0.57697112 0.461292423 0.674027913
    outer loop
      vertex 0.152792329 2.67204044 1.17706856
      vertex 0.152575061 2.67094704 1.17763089
      vertex 0.27227693 2.69233129 1.26546127
    endloop
  endfacet
  facet normal -0.57697112 0.461292423 0.674027913
    outer loop
      vertex 0.152792329 2.67204044 1.17706856
      vertex 0.27227693 2.69233129 1.26546127
      vertex 0.272494199 2.69342469 1.26489895
    endloop
  endfacet
  facet normal -0.798012463 -0.142561642 -0.585535897
    outer loop
      vertex 0.154494526 2.67004597 1.17523428
      vertex 0.152575061 2.67094704 1.17763089
      vertex 0.152792329 2.67204044 1.17706856
    endloop
  endfacet
  facet normal 0.798012463 0.142561642 0.585535897
    outer loop
      vertex 0.274196396 2.69143022 1.26306466
      vertex 0.272494199 2.69342469 1.26489895
      vertex 0.27227693 2.69233129 1.26546127
    endloop
  endfacet
  facet normal -0.599643603 0.0910551012 0.795070134
    outer loop
      vertex 0.152575061 2.67094704 1.17763089
      vertex 0.152650014 2.66971645 1.17782835
      vertex 0.272351883 2.6911007 1.26565873
    endloop
  endfacet
  facet normal -0.599643603 0.0910551012 0.795070134
    outer loop
      vertex 0.152575061 2.67094704 1.17763089
      vertex 0.272351883 2.6911007 1.26565873
      vertex 0.27227693 2.69233129 1.26546127
    endloop
  endfacet
  facet normal -0.798012463 -0.142561642 -0.585535897
    outer loop
      vertex 0.154494526 2.67004597 1.17523428
      vertex 0.152650014 2.66971645 1.17782835
      vertex 0.152575061 2.67094704 1.17763089
    endloop
  endfacet
  facet normal 0.798012463 0.142561642 0.585535897
    outer loop
      vertex 0.274196396 2.69143022 1.26306466
      vertex 0.27227693 2.69233129 1.26546127
      vertex 0.272351883 2.6911007 1.26565873
    endloop
  endfacet
  facet normal -0.531025784 -0.293044534 0.795070134
    outer loop
      vertex 0.152650014 2.66971645 1.17782835
      vertex 0.153005777 2.66853604 1.17763089
      vertex 0.272707646 2.68992028 1.26546127
    endloop
  endfacet
  facet normal -0.531025784 -0.293044534 0.795070134
    outer loop
      vertex 0.152650014 2.66971645 1.17782835
      vertex 0.272707646 2.68992028 1.26546127
      vertex 0.272351883 2.6911007 1.26565873
    endloop
  endfacet
  facet normal -0.798012463 -0.142561642 -0.585535897
    outer loop
      vertex 0.154494526 2.67004597 1.17523428
      vertex 0.153005777 2.66853604 1.17763089
      vertex 0.152650014 2.66971645 1.17782835
    endloop
  endfacet
  facet normal 0.798012463 0.142561642 0.585535897
    outer loop
      vertex 0.274196396 2.69143022 1.26306466
      vertex 0.272351883 2.6911007 1.26565873
      vertex 0.272707646 2.68992028 1.26546127
    endloop
  endfacet
  facet normal -0.381564103 -0.632530796 0.674027913
    outer loop
      vertex 0.153005777 2.66853604 1.17763089
      vertex 0.153588188 2.66758549 1.17706856
      vertex 0.273290058 2.68896974 1.26489895
    endloop
  endfacet
  facet normal -0.381564103 -0.632530796 0.674027913
    outer loop
      vertex 0.153005777 2.66853604 1.17763089
      vertex 0.273290058 2.68896974 1.26489895
      vertex 0.272707646 2.68992028 1.26546127
    endloop
  endfacet
  facet normal -0.798012463 -0.142561642 -0.585535897
    outer loop
      vertex 0.154494526 2.67004597 1.17523428
      vertex 0.153588188 2.66758549 1.17706856
      vertex 0.153005777 2.66853604 1.17763089
    endloop
  endfacet
  facet normal 0.798012463 0.142561642 0.585535897
    outer loop
      vertex 0.274196396 2.69143022 1.26306466
      vertex 0.272707646 2.68992028 1.26546127
      vertex 0.273290058 2.68896974 1.26489895
    endloop
  endfacet
  facet normal -0.174012746 -0.875719977 0.450371053
    outer loop
      vertex 0.153588188 2.66758549 1.17706856
      vertex 0.154308582 2.66700953 1.17622699
      vertex 0.274010451 2.68839378 1.26405737
    endloop
  endfacet
  facet normal -0.174012746 -0.875719977 0.450371053
    outer loop
      vertex 0.153588188 2.66758549 1.17706856
      vertex 0.274010451 2.68839378 1.26405737
      vertex 0.273290058 2.68896974 1.26489895
    endloop
  endfacet
  facet normal -0.798012463 -0.142561642 -0.585535897
    outer loop
      vertex 0.154494526 2.67004597 1.17523428
      vertex 0.154308582 2.66700953 1.17622699
      vertex 0.153588188 2.66758549 1.17706856
    endloop
  endfacet
  facet normal 0.798012463 0.142561642 0.585535897
    outer loop
      vertex 0.274196396 2.69143022 1.26306466
      vertex 0.273290058 2.68896974 1.26489895
      vertex 0.274010451 2.68839378 1.26405737
    endloop
  endfacet
  facet normal 0.0600304737 -0.985588731 0.158149283
    outer loop
      vertex 0.154308582 2.66700953 1.17622699
      vertex 0.155057284 2.66689584 1.17523428
      vertex 0.274759153 2.68828009 1.26306466
    endloop
  endfacet
  facet normal 0.0600304737 -0.985588731 0.158149283
    outer loop
      vertex 0.154308582 2.66700953 1.17622699
      vertex 0.274759153 2.68828009 1.26306466
      vertex 0.274010451 2.68839378 1.26405737
    endloop
  endfacet
  facet normal -0.798012463 -0.142561642 -0.585535897
    outer loop
      vertex 0.154494526 2.67004597 1.17523428
      vertex 0.155057284 2.66689584 1.17523428
      vertex 0.154308582 2.66700953 1.17622699
    endloop
  endfacet
  facet normal 0.798012463 0.142561642 0.585535897
    outer loop
      vertex 0.274196396 2.69143022 1.26306466
      vertex 0.274010451 2.68839378 1.26405737
      vertex 0.274759153 2.68828009 1.26306466
    endloop
  endfacet
  facet normal -0.531217967 0.839112992 -0.117033578
    outer loop
      vertex 0.399819986 2.4706983 1.24722579
      vertex 0.399016409 2.47008712 1.24649117
      vertex 0.349426865 2.44873647 1.3184983
    endloop
  endfacet
  facet normal -0.531217967 0.839112992 -0.117033578
    outer loop
      vertex 0.399819986 2.4706983 1.24722579
      vertex 0.349426865 2.44873647 1.3184983
      vertex 0.350230442 2.44934765 1.31923292
    endloop
  endfacet
  facet normal 0.550994933 0.237229401 -0.800079243
    outer loop
      vertex 0.401085432 2.46775914 1.24722579
      vertex 0.399016409 2.47008712 1.24649117
      vertex 0.399819986 2.4706983 1.24722579
    endloop
  endfacet
  facet normal -0.550994933 -0.237229401 0.800079243
    outer loop
      vertex 0.351495888 2.4464085 1.31923292
      vertex 0.350230442 2.44934765 1.31923292
      vertex 0.349426865 2.44873647 1.3184983
    endloop
  endfacet
  facet normal -0.737073817 0.587915251 -0.333283432
    outer loop
      vertex 0.399016409 2.47008712 1.24649117
      vertex 0.398527823 2.46912153 1.24586838
      vertex 0.348938279 2.44777088 1.31787552
    endloop
  endfacet
  facet normal -0.737073817 0.587915251 -0.333283432
    outer loop
      vertex 0.399016409 2.47008712 1.24649117
      vertex 0.348938279 2.44777088 1.31787552
      vertex 0.349426865 2.44873647 1.3184983
    endloop
  endfacet
  facet normal 0.550994933 0.237229401 -0.800079243
    outer loop
      vertex 0.401085432 2.46775914 1.24722579
      vertex 0.398527823 2.46912153 1.24586838
      vertex 0.399016409 2.47008712 1.24649117
    endloop
  endfacet
  facet normal -0.550994933 -0.237229401 0.800079243
    outer loop
      vertex 0.351495888 2.4464085 1.31923292
      vertex 0.349426865 2.44873647 1.3184983
      vertex 0.348938279 2.44777088 1.31787552
    endloop
  endfacet
  facet normal -0.83071686 0.247212743 -0.498793904
    outer loop
      vertex 0.398527823 2.46912153 1.24586838
      vertex 0.39842861 2.46794852 1.24545225
      vertex 0.348839066 2.44659787 1.31745939
    endloop
  endfacet
  facet normal -0.83071686 0.247212743 -0.498793904
    outer loop
      vertex 0.398527823 2.46912153 1.24586838
      vertex 0.348839066 2.44659787 1.31745939
      vertex 0.348938279 2.44777088 1.31787552
    endloop
  endfacet
  facet normal 0.550994933 0.237229401 -0.800079243
    outer loop
      vertex 0.401085432 2.46775914 1.24722579
      vertex 0.39842861 2.46794852 1.24545225
      vertex 0.398527823 2.46912153 1.24586838
    endloop
  endfacet
  facet normal -0.550994933 -0.237229401 0.800079243
    outer loop
      vertex 0.351495888 2.4464085 1.31923292
      vertex 0.348938279 2.44777088 1.31787552
      vertex 0.348839066 2.44659787 1.31745939
    endloop
  endfacet
  facet normal -0.797890791 -0.131125664 -0.588367527
    outer loop
      vertex 0.39842861 2.46794852 1.24545225
      vertex 0.398733873 2.46674669 1.24530613
      vertex 0.349144329 2.44539604 1.31731326
    endloop
  endfacet
  facet normal -0.797890791 -0.131125664 -0.588367527
    outer loop
      vertex 0.39842861 2.46794852 1.24545225
      vertex 0.349144329 2.44539604 1.31731326
      vertex 0.348839066 2.44659787 1.31745939
    endloop
  endfacet
  facet normal 0.550994933 0.237229401 -0.800079243
    outer loop
      vertex 0.401085432 2.46775914 1.24722579
      vertex 0.398733873 2.46674669 1.24530613
      vertex 0.39842861 2.46794852 1.24545225
    endloop
  endfacet
  facet normal -0.550994933 -0.237229401 0.800079243
    outer loop
      vertex 0.351495888 2.4464085 1.31923292
      vertex 0.348839066 2.44659787 1.31745939
      vertex 0.349144329 2.44539604 1.31731326
    endloop
  endfacet
  facet normal -0.643593082 -0.489501378 -0.588367527
    outer loop
      vertex 0.398733873 2.46674669 1.24530613
      vertex 0.39939714 2.46569899 1.24545225
      vertex 0.349807596 2.44434834 1.31745939
    endloop
  endfacet
  facet normal -0.643593082 -0.489501378 -0.588367527
    outer loop
      vertex 0.398733873 2.46674669 1.24530613
      vertex 0.349807596 2.44434834 1.31745939
      vertex 0.349144329 2.44539604 1.31731326
    endloop
  endfacet
  facet normal 0.550994933 0.237229401 -0.800079243
    outer loop
      vertex 0.401085432 2.46775914 1.24722579
      vertex 0.39939714 2.46569899 1.24545225
      vertex 0.398733873 2.46674669 1.24530613
    endloop
  endfacet
  facet normal -0.550994933 -0.237229401 0.800079243
    outer loop
      vertex 0.351495888 2.4464085 1.31923292
      vertex 0.349144329 2.44539604 1.31731326
      vertex 0.349807596 2.44434834 1.31745939
    endloop
  endfacet
  facet normal -0.39131416 -0.773354944 -0.498793904
    outer loop
      vertex 0.39939714 2.46569899 1.24545225
      vertex 0.400317434 2.46496493 1.24586838
      vertex 0.35072789 2.44361428 1.31787552
    endloop
  endfacet
  facet normal -0.39131416 -0.773354944 -0.498793904
    outer loop
      vertex 0.39939714 2.46569899 1.24545225
      vertex 0.35072789 2.44361428 1.31787552
      vertex 0.349807596 2.44434834 1.31745939
    endloop
  endfacet
  facet normal 0.550994933 0.237229401 -0.800079243
    outer loop
      vertex 0.401085432 2.46775914 1.24722579
      vertex 0.400317434 2.46496493 1.24586838
      vertex 0.39939714 2.46569899 1.24545225
    endloop
  endfacet
  facet normal -0.550994933 -0.237229401 0.800079243
    outer loop
      vertex 0.351495888 2.4464085 1.31923292
      vertex 0.349807596 2.44434834 1.31745939
      vertex 0.35072789 2.44361428 1.31787552
    endloop
  endfacet
  facet normal -0.0794612054 -0.93947223 -0.333283432
    outer loop
      vertex 0.400317434 2.46496493 1.24586838
      vertex 0.401354649 2.46465626 1.24649117
      vertex 0.351765105 2.44330562 1.3184983
    endloop
  endfacet
  facet normal -0.0794612054 -0.93947223 -0.333283432
    outer loop
      vertex 0.400317434 2.46496493 1.24586838
      vertex 0.351765105 2.44330562 1.3184983
      vertex 0.35072789 2.44361428 1.31787552
    endloop
  endfacet
  facet normal 0.550994933 0.237229401 -0.800079243
    outer loop
      vertex 0.401085432 2.46775914 1.24722579
      vertex 0.401354649 2.46465626 1.24649117
      vertex 0.400317434 2.46496493 1.24586838
    endloop
  endfacet
  facet normal -0.550994933 -0.237229401 0.800079243
    outer loop
      vertex 0.351495888 2.4464085 1.31923292
      vertex 0.35072789 2.44361428 1.31787552
      vertex 0.351765105 2.44330562 1.3184983
    endloop
  endfacet
  facet normal 0.244488998 -0.962563386 -0.117033578
    outer loop
      vertex 0.401354649 2.46465626 1.24649117
      vertex 0.402350878 2.46481999 1.24722579
      vertex 0.352761334 2.44346934 1.31923292
    endloop
  endfacet
  facet normal 0.244488998 -0.962563386 -0.117033578
    outer loop
      vertex 0.401354649 2.46465626 1.24649117
      vertex 0.352761334 2.44346934 1.31923292
      vertex 0.351765105 2.44330562 1.3184983
    endloop
  endfacet
  facet normal 0.550994933 0.237229401 -0.800079243
    outer loop
      vertex 0.401085432 2.46775914 1.24722579
      vertex 0.402350878 2.46481999 1.24722579
      vertex 0.401354649 2.46465626 1.24649117
    endloop
  endfacet
  facet normal -0.550994933 -0.237229401 0.800079243
    outer loop
      vertex 0.351495888 2.4464085 1.31923292
      vertex 0.351765105 2.44330562 1.3184983
      vertex 0.352761334 2.44346934 1.31923292
    endloop
  endfacet
  facet normal 0.531217967 -0.839112992 0.117033578
    outer loop
      vertex 0.402350878 2.46481999 1.24722579
      vertex 0.403154454 2.46543117 1.24796041
      vertex 0.35356491 2.44408052 1.31996754
    endloop
  endfacet
  facet normal 0.531217967 -0.839112992 0.117033578
    outer loop
      vertex 0.402350878 2.46481999 1.24722579
      vertex 0.35356491 2.44408052 1.31996754
      vertex 0.352761334 2.44346934 1.31923292
    endloop
  endfacet
  facet normal 0.550994933 0.237229401 -0.800079243
    outer loop
      vertex 0.401085432 2.46775914 1.24722579
      vertex 0.403154454 2.46543117 1.24796041
      vertex 0.402350878 2.46481999 1.24722579
    endloop
  endfacet
  facet normal -0.550994933 -0.237229401 0.800079243
    outer loop
      vertex 0.351495888 2.4464085 1.31923292
      vertex 0.352761334 2.44346934 1.31923292
      vertex 0.35356491 2.44408052 1.31996754
    endloop
  endfacet
  facet normal 0.737073817 -0.587915251 0.333283432
    outer loop
      vertex 0.403154454 2.46543117 1.24796041
      vertex 0.403643041 2.46639676 1.2485832
      vertex 0.354053497 2.44504611 1.32059033
    endloop
  endfacet
  facet normal 0.737073817 -0.587915251 0.333283432
    outer loop
      vertex 0.403154454 2.46543117 1.24796041
      vertex 0.354053497 2.44504611 1.32059033
      vertex 0.35356491 2.44408052 1.31996754
    endloop
  endfacet
  facet normal 0.550994933 0.237229401 -0.800079243
    outer loop
      vertex 0.401085432 2.46775914 1.24722579
      vertex 0.403643041 2.46639676 1.2485832
      vertex 0.403154454 2.46543117 1.24796041
    endloop
  endfacet
  facet normal -0.550994933 -0.237229401 0.800079243
    outer loop
      vertex 0.351495888 2.4464085 1.31923292
      vertex 0.35356491 2.44408052 1.31996754
      vertex 0.354053497 2.44504611 1.32059033
    endloop
  endfacet
  facet normal 0.83071686 -0.247212743 0.498793904
    outer loop
      vertex 0.403643041 2.46639676 1.2485832
      vertex 0.403742254 2.46756976 1.24899933
      vertex 0.35415271 2.44621912 1.32100646
    endloop
  endfacet
  facet normal 0.83071686 -0.247212743 0.498793904
    outer loop
      vertex 0.403643041 2.46639676 1.2485832
      vertex 0.35415271 2.44621912 1.32100646
      vertex 0.354053497 2.44504611 1.32059033
    endloop
  endfacet
  facet normal 0.550994933 0.237229401 -0.800079243
    outer loop
      vertex 0.401085432 2.46775914 1.24722579
      vertex 0.403742254 2.46756976 1.24899933
      vertex 0.403643041 2.46639676 1.2485832
    endloop
  endfacet
  facet normal -0.550994933 -0.237229401 0.800079243
    outer loop
      vertex 0.351495888 2.4464085 1.31923292
      vertex 0.354053497 2.44504611 1.32059033
      vertex 0.35415271 2.44621912 1.32100646
    endloop
  endfacet
  facet normal 0.797890791 0.131125664 0.588367527
    outer loop
      vertex 0.403742254 2.46756976 1.24899933
      vertex 0.403436991 2.4687716 1.24914545
      vertex 0.353847447 2.44742095 1.32115258
    endloop
  endfacet
  facet normal 0.797890791 0.131125664 0.588367527
    outer loop
      vertex 0.403742254 2.46756976 1.24899933
      vertex 0.353847447 2.44742095 1.32115258
      vertex 0.35415271 2.44621912 1.32100646
    endloop
  endfacet
  facet normal 0.550994933 0.237229401 -0.800079243
    outer loop
      vertex 0.401085432 2.46775914 1.24722579
      vertex 0.403436991 2.4687716 1.24914545
      vertex 0.403742254 2.46756976 1.24899933
    endloop
  endfacet
  facet normal -0.550994933 -0.237229401 0.800079243
    outer loop
      vertex 0.351495888 2.4464085 1.31923292
      vertex 0.35415271 2.44621912 1.32100646
      vertex 0.353847447 2.44742095 1.32115258
    endloop
  endfacet
  facet normal 0.643593082 0.489501378 0.588367527
    outer loop
      vertex 0.403436991 2.4687716 1.24914545
      vertex 0.402773724 2.4698193 1.24899933
      vertex 0.35318418 2.44846865 1.32100646
    endloop
  endfacet
  facet normal 0.643593082 0.489501378 0.588367527
    outer loop
      vertex 0.403436991 2.4687716 1.24914545
      vertex 0.35318418 2.44846865 1.32100646
      vertex 0.353847447 2.44742095 1.32115258
    endloop
  endfacet
  facet normal 0.550994933 0.237229401 -0.800079243
    outer loop
      vertex 0.401085432 2.46775914 1.24722579
      vertex 0.402773724 2.4698193 1.24899933
      vertex 0.403436991 2.4687716 1.24914545
    endloop
  endfacet
  facet normal -0.550994933 -0.237229401 0.800079243
    outer loop
      vertex 0.351495888 2.4464085 1.31923292
      vertex 0.353847447 2.44742095 1.32115258
      vertex 0.35318418 2.44846865 1.32100646
    endloop
  endfacet
  facet normal 0.39131416 0.773354944 0.498793904
    outer loop
      vertex 0.402773724 2.4698193 1.24899933
      vertex 0.401853429 2.47055336 1.2485832
      vertex 0.352263885 2.44920271 1.32059033
    endloop
  endfacet
  facet normal 0.39131416 0.773354944 0.498793904
    outer loop
      vertex 0.402773724 2.4698193 1.24899933
      vertex 0.352263885 2.44920271 1.32059033
      vertex 0.35318418 2.44846865 1.32100646
    endloop
  endfacet
  facet normal 0.550994933 0.237229401 -0.800079243
    outer loop
      vertex 0.401085432 2.46775914 1.24722579
      vertex 0.401853429 2.47055336 1.2485832
      vertex 0.402773724 2.4698193 1.24899933
    endloop
  endfacet
  facet normal -0.550994933 -0.237229401 0.800079243
    outer loop
      vertex 0.351495888 2.4464085 1.31923292
      vertex 0.35318418 2.44846865 1.32100646
      vertex 0.352263885 2.44920271 1.32059033
    endloop
  endfacet
  facet normal 0.0794612054 0.93947223 0.333283432
    outer loop
      vertex 0.401853429 2.47055336 1.2485832
      vertex 0.400816214 2.47086202 1.24796041
      vertex 0.35122667 2.44951137 1.31996754
    endloop
  endfacet
  facet normal 0.0794612054 0.93947223 0.333283432
    outer loop
      vertex 0.401853429 2.47055336 1.2485832
      vertex 0.35122667 2.44951137 1.31996754
      vertex 0.352263885 2.44920271 1.32059033
    endloop
  endfacet
  facet normal 0.550994933 0.237229401 -0.800079243
    outer loop
      vertex 0.401085432 2.46775914 1.24722579
      vertex 0.400816214 2.47086202 1.24796041
      vertex 0.401853429 2.47055336 1.2485832
    endloop
  endfacet
  facet normal -0.550994933 -0.237229401 0.800079243
    outer loop
      vertex 0.351495888 2.4464085 1.31923292
      vertex 0.352263885 2.44920271 1.32059033
      vertex 0.35122667 2.44951137 1.31996754
    endloop
  endfacet
  facet normal -0.244488998 0.962563386 0.117033578
    outer loop
      vertex 0.400816214 2.47086202 1.24796041
      vertex 0.399819986 2.4706983 1.24722579
      vertex 0.350230442 2.44934765 1.31923292
    endloop
  endfacet
  facet normal -0.244488998 0.962563386 0.117033578
    outer loop
      vertex 0.400816214 2.47086202 1.24796041
      vertex 0.350230442 2.44934765 1.31923292
      vertex 0.35122667 2.44951137 1.31996754
    endloop
  endfacet
  facet normal 0.550994933 0.237229401 -0.800079243
    outer loop
      vertex 0.401085432 2.46775914 1.24722579
      vertex 0.399819986 2.4706983 1.24722579
      vertex 0.400816214 2.47086202 1.24796041
    endloop
  endfacet
  facet normal -0.550994933 -0.237229401 0.800079243
    outer loop
      vertex 0.351495888 2.4464085 1.31923292
      vertex 0.35122667 2.44951137 1.31996754
      vertex 0.350230442 2.44934765 1.31923292
    endloop
  endfacet
  facet normal -0.531217967 0.839112992 -0.117033578
    outer loop
      vertex 0.394578605 2.44355721 1.23556865
      vertex 0.393775029 2.44294603 1.23483402
      vertex 0.344185485 2.42159538 1.30684115
    endloop
  endfacet
  facet normal -0.531217967 0.839112992 -0.117033578
    outer loop
      vertex 0.394578605 2.44355721 1.23556865
      vertex 0.344185485 2.42159538 1.30684115
      vertex 0.344989061 2.42220656 1.30757578
    endloop
  endfacet
  facet normal 0.550994933 0.237229401 -0.800079243
    outer loop
      vertex 0.395844052 2.44061805 1.23556865
      vertex 0.393775029 2.44294603 1.23483402
      vertex 0.394578605 2.44355721 1.23556865
    endloop
  endfacet
  facet normal -0.550994933 -0.237229401 0.800079243
    outer loop
      vertex 0.346254508 2.4192674 1.30757578
      vertex 0.344989061 2.42220656 1.30757578
      vertex 0.344185485 2.42159538 1.30684115
    endloop
  endfacet
  facet normal -0.737073817 0.587915251 -0.333283432
    outer loop
      vertex 0.393775029 2.44294603 1.23483402
      vertex 0.393286443 2.44198043 1.23421124
      vertex 0.343696899 2.42062979 1.30621837
    endloop
  endfacet
  facet normal -0.737073817 0.587915251 -0.333283432
    outer loop
      vertex 0.393775029 2.44294603 1.23483402
      vertex 0.343696899 2.42062979 1.30621837
      vertex 0.344185485 2.42159538 1.30684115
    endloop
  endfacet
  facet normal 0.550994933 0.237229401 -0.800079243
    outer loop
      vertex 0.395844052 2.44061805 1.23556865
      vertex 0.393286443 2.44198043 1.23421124
      vertex 0.393775029 2.44294603 1.23483402
    endloop
  endfacet
  facet normal -0.550994933 -0.237229401 0.800079243
    outer loop
      vertex 0.346254508 2.4192674 1.30757578
      vertex 0.344185485 2.42159538 1.30684115
      vertex 0.343696899 2.42062979 1.30621837
    endloop
  endfacet
  facet normal -0.83071686 0.247212743 -0.498793904
    outer loop
      vertex 0.393286443 2.44198043 1.23421124
      vertex 0.393187229 2.44080743 1.23379511
      vertex 0.343597685 2.41945678 1.30580224
    endloop
  endfacet
  facet normal -0.83071686 0.247212743 -0.498793904
    outer loop
      vertex 0.393286443 2.44198043 1.23421124
      vertex 0.343597685 2.41945678 1.30580224
      vertex 0.343696899 2.42062979 1.30621837
    endloop
  endfacet
  facet normal 0.550994933 0.237229401 -0.800079243
    outer loop
      vertex 0.395844052 2.44061805 1.23556865
      vertex 0.393187229 2.44080743 1.23379511
      vertex 0.393286443 2.44198043 1.23421124
    endloop
  endfacet
  facet normal -0.550994933 -0.237229401 0.800079243
    outer loop
      vertex 0.346254508 2.4192674 1.30757578
      vertex 0.343696899 2.42062979 1.30621837
      vertex 0.343597685 2.41945678 1.30580224
    endloop
  endfacet
  facet normal -0.797890791 -0.131125664 -0.588367527
    outer loop
      vertex 0.393187229 2.44080743 1.23379511
      vertex 0.393492493 2.43960559 1.23364898
      vertex 0.343902949 2.41825495 1.30565612
    endloop
  endfacet
  facet normal -0.797890791 -0.131125664 -0.588367527
    outer loop
      vertex 0.393187229 2.44080743 1.23379511
      vertex 0.343902949 2.41825495 1.30565612
      vertex 0.343597685 2.41945678 1.30580224
    endloop
  endfacet
  facet normal 0.550994933 0.237229401 -0.800079243
    outer loop
      vertex 0.395844052 2.44061805 1.23556865
      vertex 0.393492493 2.43960559 1.23364898
      vertex 0.393187229 2.44080743 1.23379511
    endloop
  endfacet
  facet normal -0.550994933 -0.237229401 0.800079243
    outer loop
      vertex 0.346254508 2.4192674 1.30757578
      vertex 0.343597685 2.41945678 1.30580224
      vertex 0.343902949 2.41825495 1.30565612
    endloop
  endfacet
  facet normal -0.643593082 -0.489501378 -0.588367527
    outer loop
      vertex 0.393492493 2.43960559 1.23364898
      vertex 0.39415576 2.43855789 1.23379511
      vertex 0.344566216 2.41720725 1.30580224
    endloop
  endfacet
  facet normal -0.643593082 -0.489501378 -0.588367527
    outer loop
      vertex 0.393492493 2.43960559 1.23364898
      vertex 0.344566216 2.41720725 1.30580224
      vertex 0.343902949 2.41825495 1.30565612
    endloop
  endfacet
  facet normal 0.550994933 0.237229401 -0.800079243
    outer loop
      vertex 0.395844052 2.44061805 1.23556865
      vertex 0.39415576 2.43855789 1.23379511
      vertex 0.393492493 2.43960559 1.23364898
    endloop
  endfacet
  facet normal -0.550994933 -0.237229401 0.800079243
    outer loop
      vertex 0.346254508 2.4192674 1.30757578
      vertex 0.343902949 2.41825495 1.30565612
      vertex 0.344566216 2.41720725 1.30580224
    endloop
  endfacet
  facet normal -0.39131416 -0.773354944 -0.498793904
    outer loop
      vertex 0.39415576 2.43855789 1.23379511
      vertex 0.395076054 2.43782384 1.23421124
      vertex 0.34548651 2.41647319 1.30621837
    endloop
  endfacet
  facet normal -0.39131416 -0.773354944 -0.498793904
    outer loop
      vertex 0.39415576 2.43855789 1.23379511
      vertex 0.34548651 2.41647319 1.30621837
      vertex 0.344566216 2.41720725 1.30580224
    endloop
  endfacet
  facet normal 0.550994933 0.237229401 -0.800079243
    outer loop
      vertex 0.395844052 2.44061805 1.23556865
      vertex 0.395076054 2.43782384 1.23421124
      vertex 0.39415576 2.43855789 1.23379511
    endloop
  endfacet
  facet normal -0.550994933 -0.237229401 0.800079243
    outer loop
      vertex 0.346254508 2.4192674 1.30757578
      vertex 0.344566216 2.41720725 1.30580224
      vertex 0.34548651 2.41647319 1.30621837
    endloop
  endfacet
  facet normal -0.0794612054 -0.93947223 -0.333283432
    outer loop
      vertex 0.395076054 2.43782384 1.23421124
      vertex 0.396113269 2.43751517 1.23483402
      vertex 0.346523725 2.41616453 1.30684115
    endloop
  endfacet
  facet normal -0.0794612054 -0.93947223 -0.333283432
    outer loop
      vertex 0.395076054 2.43782384 1.23421124
      vertex 0.346523725 2.41616453 1.30684115
      vertex 0.34548651 2.41647319 1.30621837
    endloop
  endfacet
  facet normal 0.550994933 0.237229401 -0.800079243
    outer loop
      vertex 0.395844052 2.44061805 1.23556865
      vertex 0.396113269 2.43751517 1.23483402
      vertex 0.395076054 2.43782384 1.23421124
    endloop
  endfacet
  facet normal -0.550994933 -0.237229401 0.800079243
    outer loop
      vertex 0.346254508 2.4192674 1.30757578
      vertex 0.34548651 2.41647319 1.30621837
      vertex 0.346523725 2.41616453 1.30684115
    endloop
  endfacet
  facet normal 0.244488998 -0.962563386 -0.117033578
    outer loop
      vertex 0.396113269 2.43751517 1.23483402
      vertex 0.397109498 2.43767889 1.23556865
      vertex 0.347519954 2.41632825 1.30757578
    endloop
  endfacet
  facet normal 0.244488998 -0.962563386 -0.117033578
    outer loop
      vertex 0.396113269 2.43751517 1.23483402
      vertex 0.347519954 2.41632825 1.30757578
      vertex 0.346523725 2.41616453 1.30684115
    endloop
  endfacet
  facet normal 0.550994933 0.237229401 -0.800079243
    outer loop
      vertex 0.395844052 2.44061805 1.23556865
      vertex 0.397109498 2.43767889 1.23556865
      vertex 0.396113269 2.43751517 1.23483402
    endloop
  endfacet
  facet normal -0.550994933 -0.237229401 0.800079243
    outer loop
      vertex 0.346254508 2.4192674 1.30757578
      vertex 0.346523725 2.41616453 1.30684115
      vertex 0.347519954 2.41632825 1.30757578
    endloop
  endfacet
  facet normal 0.531217967 -0.839112992 0.117033578
    outer loop
      vertex 0.397109498 2.43767889 1.23556865
      vertex 0.397913074 2.43829007 1.23630327
      vertex 0.34832353 2.41693943 1.3083104
    endloop
  endfacet
  facet normal 0.531217967 -0.839112992 0.117033578
    outer loop
      vertex 0.397109498 2.43767889 1.23556865
      vertex 0.34832353 2.41693943 1.3083104
      vertex 0.347519954 2.41632825 1.30757578
    endloop
  endfacet
  facet normal 0.550994933 0.237229401 -0.800079243
    outer loop
      vertex 0.395844052 2.44061805 1.23556865
      vertex 0.397913074 2.43829007 1.23630327
      vertex 0.397109498 2.43767889 1.23556865
    endloop
  endfacet
  facet normal -0.550994933 -0.237229401 0.800079243
    outer loop
      vertex 0.346254508 2.4192674 1.30757578
      vertex 0.347519954 2.41632825 1.30757578
      vertex 0.34832353 2.41693943 1.3083104
    endloop
  endfacet
  facet normal 0.737073817 -0.587915251 0.333283432
    outer loop
      vertex 0.397913074 2.43829007 1.23630327
      vertex 0.39840166 2.43925567 1.23692605
      vertex 0.348812116 2.41790502 1.30893318
    endloop
  endfacet
  facet normal 0.737073817 -0.587915251 0.333283432
    outer loop
      vertex 0.397913074 2.43829007 1.23630327
      vertex 0.348812116 2.41790502 1.30893318
      vertex 0.34832353 2.41693943 1.3083104
    endloop
  endfacet
  facet normal 0.550994933 0.237229401 -0.800079243
    outer loop
      vertex 0.395844052 2.44061805 1.23556865
      vertex 0.39840166 2.43925567 1.23692605
      vertex 0.397913074 2.43829007 1.23630327
    endloop
  endfacet
  facet normal -0.550994933 -0.237229401 0.800079243
    outer loop
      vertex 0.346254508 2.4192674 1.30757578
      vertex 0.34832353 2.41693943 1.3083104
      vertex 0.348812116 2.41790502 1.30893318
    endloop
  endfacet
  facet normal 0.83071686 -0.247212743 0.498793904
    outer loop
      vertex 0.39840166 2.43925567 1.23692605
      vertex 0.398500874 2.44042867 1.23734218
      vertex 0.34891133 2.41907803 1.30934931
    endloop
  endfacet
  facet normal 0.83071686 -0.247212743 0.498793904
    outer loop
      vertex 0.39840166 2.43925567 1.23692605
      vertex 0.34891133 2.41907803 1.30934931
      vertex 0.348812116 2.41790502 1.30893318
    endloop
  endfacet
  facet normal 0.550994933 0.237229401 -0.800079243
    outer loop
      vertex 0.395844052 2.44061805 1.23556865
      vertex 0.398500874 2.44042867 1.23734218
      vertex 0.39840166 2.43925567 1.23692605
    endloop
  endfacet
  facet normal -0.550994933 -0.237229401 0.800079243
    outer loop
      vertex 0.346254508 2.4192674 1.30757578
      vertex 0.348812116 2.41790502 1.30893318
      vertex 0.34891133 2.41907803 1.30934931
    endloop
  endfacet
  facet normal 0.797890791 0.131125664 0.588367527
    outer loop
      vertex 0.398500874 2.44042867 1.23734218
      vertex 0.39819561 2.44163051 1.23748831
      vertex 0.348606066 2.42027986 1.30949544
    endloop
  endfacet
  facet normal 0.797890791 0.131125664 0.588367527
    outer loop
      vertex 0.398500874 2.44042867 1.23734218
      vertex 0.348606066 2.42027986 1.30949544
      vertex 0.34891133 2.41907803 1.30934931
    endloop
  endfacet
  facet normal 0.550994933 0.237229401 -0.800079243
    outer loop
      vertex 0.395844052 2.44061805 1.23556865
      vertex 0.39819561 2.44163051 1.23748831
      vertex 0.398500874 2.44042867 1.23734218
    endloop
  endfacet
  facet normal -0.550994933 -0.237229401 0.800079243
    outer loop
      vertex 0.346254508 2.4192674 1.30757578
      vertex 0.34891133 2.41907803 1.30934931
      vertex 0.348606066 2.42027986 1.30949544
    endloop
  endfacet
  facet normal 0.643593082 0.489501378 0.588367527
    outer loop
      vertex 0.39819561 2.44163051 1.23748831
      vertex 0.397532343 2.44267821 1.23734218
      vertex 0.347942799 2.42132756 1.30934931
    endloop
  endfacet
  facet normal 0.643593082 0.489501378 0.588367527
    outer loop
      vertex 0.39819561 2.44163051 1.23748831
      vertex 0.347942799 2.42132756 1.30934931
      vertex 0.348606066 2.42027986 1.30949544
    endloop
  endfacet
  facet normal 0.550994933 0.237229401 -0.800079243
    outer loop
      vertex 0.395844052 2.44061805 1.23556865
      vertex 0.397532343 2.44267821 1.23734218
      vertex 0.39819561 2.44163051 1.23748831
    endloop
  endfacet
  facet normal -0.550994933 -0.237229401 0.800079243
    outer loop
      vertex 0.346254508 2.4192674 1.30757578
      vertex 0.348606066 2.42027986 1.30949544
      vertex 0.347942799 2.42132756 1.30934931
    endloop
  endfacet
  facet normal 0.39131416 0.773354944 0.498793904
    outer loop
      vertex 0.397532343 2.44267821 1.23734218
      vertex 0.396612049 2.44341226 1.23692605
      vertex 0.347022505 2.42206162 1.30893318
    endloop
  endfacet
  facet normal 0.39131416 0.773354944 0.498793904
    outer loop
      vertex 0.397532343 2.44267821 1.23734218
      vertex 0.347022505 2.42206162 1.30893318
      vertex 0.347942799 2.42132756 1.30934931
    endloop
  endfacet
  facet normal 0.550994933 0.237229401 -0.800079243
    outer loop
      vertex 0.395844052 2.44061805 1.23556865
      vertex 0.396612049 2.44341226 1.23692605
      vertex 0.397532343 2.44267821 1.23734218
    endloop
  endfacet
  facet normal -0.550994933 -0.237229401 0.800079243
    outer loop
      vertex 0.346254508 2.4192674 1.30757578
      vertex 0.347942799 2.42132756 1.30934931
      vertex 0.347022505 2.42206162 1.30893318
    endloop
  endfacet
  facet normal 0.0794612054 0.93947223 0.333283432
    outer loop
      vertex 0.396612049 2.44341226 1.23692605
      vertex 0.395574834 2.44372093 1.23630327
      vertex 0.34598529 2.42237028 1.3083104
    endloop
  endfacet
  facet normal 0.0794612054 0.93947223 0.333283432
    outer loop
      vertex 0.396612049 2.44341226 1.23692605
      vertex 0.34598529 2.42237028 1.3083104
      vertex 0.347022505 2.42206162 1.30893318
    endloop
  endfacet
  facet normal 0.550994933 0.237229401 -0.800079243
    outer loop
      vertex 0.395844052 2.44061805 1.23556865
      vertex 0.395574834 2.44372093 1.23630327
      vertex 0.396612049 2.44341226 1.23692605
    endloop
  endfacet
  facet normal -0.550994933 -0.237229401 0.800079243
    outer loop
      vertex 0.346254508 2.4192674 1.30757578
      vertex 0.347022505 2.42206162 1.30893318
      vertex 0.34598529 2.42237028 1.3083104
    endloop
  endfacet
  facet normal -0.244488998 0.962563386 0.117033578
    outer loop
      vertex 0.395574834 2.44372093 1.23630327
      vertex 0.394578605 2.44355721 1.23556865
      vertex 0.344989061 2.42220656 1.30757578
    endloop
  endfacet
  facet normal -0.244488998 0.962563386 0.117033578
    outer loop
      vertex 0.395574834 2.44372093 1.23630327
      vertex 0.344989061 2.42220656 1.30757578
      vertex 0.34598529 2.42237028 1.3083104
    endloop
  endfacet
  facet normal 0.550994933 0.237229401 -0.800079243
    outer loop
      vertex 0.395844052 2.44061805 1.23556865
      vertex 0.394578605 2.44355721 1.23556865
      vertex 0.395574834 2.44372093 1.23630327
    endloop
  endfacet
  facet normal -0.550994933 -0.237229401 0.800079243
    outer loop
      vertex 0.346254508 2.4192674 1.30757578
      vertex 0.34598529 2.42237028 1.3083104
      vertex 0.344989061 2.42220656 1.30757578
    endloop
  endfacet
endsolid c17_features
