solid d25_blank
  facet normal -0.020875153 -0.207403556 0.978032716
    outer loop
      vertex 3.29175431 2.63870438 2.210951
      vertex 3.29641867 2.69720122 2.22345551
      vertex 2.33964293 2.77435926 2.21939636
    endloop
  endfacet
  facet normal -0.020875153 -0.207403556 0.978032716
    outer loop
      vertex 3.29175431 2.63870438 2.210951
      vertex 2.33964293 2.77435926 2.21939636
      vertex 2.33497857 2.71586242 2.20689184
    endloop
  endfacet
  facet normal -0.0777392914 -0.974947423 -0.208408552
    outer loop
      vertex 3.29175431 2.63870438 2.210951
      vertex 2.33497857 2.71586242 2.20689184
      vertex 2.33664858 2.7324547 2.12864923
    endloop
  endfacet
  facet normal -0.0777392914 -0.974947423 -0.208408552
    outer loop
      vertex 3.29175431 2.63870438 2.210951
      vertex 2.33664858 2.7324547 2.12864923
      vertex 3.29342432 2.65529666 2.13270838
    endloop
  endfacet
  facet normal -0.996755151 0.0803821307 -0.00422877117
    outer loop
      vertex 2.33497857 2.71586242 2.20689184
      vertex 2.33964293 2.77435926 2.21939636
      vertex 2.34131294 2.79095155 2.14115374
    endloop
  endfacet
  facet normal -0.996755151 0.0803821307 -0.00422877117
    outer loop
      vertex 2.33497857 2.71586242 2.20689184
      vertex 2.34131294 2.79095155 2.14115374
      vertex 2.33664858 2.7324547 2.12864923
    endloop
  endfacet
  facet normal 0.0777392914 0.974947423 0.208408552
    outer loop
      vertex 2.33964293 2.77435926 2.21939636
      vertex 3.29641867 2.69720122 2.22345551
      vertex 3.29808868 2.71379351 2.1452129
    endloop
  endfacet
  facet normal 0.0777392914 0.974947423 0.208408552
    outer loop
      vertex 2.33964293 2.77435926 2.21939636
      vertex 3.29808868 2.71379351 2.1452129
      vertex 2.34131294 2.79095155 2.14115374
    endloop
  endfacet
  facet normal 0.996755151 -0.0803821307 0.00422877117
    outer loop
      vertex 3.29641867 2.69720122 2.22345551
      vertex 3.29175431 2.63870438 2.210951
      vertex 3.29342432 2.65529666 2.13270838
    endloop
  endfacet
  facet normal 0.996755151 -0.0803821307 0.00422877117
    outer loop
      vertex 3.29641867 2.69720122 2.22345551
      vertex 3.29342432 2.65529666 2.13270838
      vertex 3.29808868 2.71379351 2.1452129
    endloop
  endfacet
  facet normal 0.020875153 0.207403556 -0.978032716
    outer loop
      vertex 3.29342432 2.65529666 2.13270838
      vertex 2.33664858 2.7324547 2.12864923
      vertex 2.34131294 2.79095155 2.14115374
    endloop
  endfacet
  facet normal 0.020875153 0.207403556 -0.978032716
    outer loop
      vertex 3.29342432 2.65529666 2.13270838
      vertex 2.34131294 2.79095155 2.14115374
      vertex 3.29808868 2.71379351 2.1452129
    endloop
  endfacet
endsolid d25_blank
