solid beam
  facet normal -0.5761293956141582 0.38260726369973497 -0.7222787559339305
    outer loop
      vertex -0.06801936775445938 -1.1463874578475952 1.2601491212844849
      vertex -0.10424955934286118 -1.1943302154541016 1.263651967048645
      vertex -0.1085006445646286 -1.1517798900604248 1.2895827293395996
    endloop
  endfacet
  facet normal -0.5761287727198601 0.38260753964175354 -0.7222791066157127
    outer loop
      vertex -0.1085006445646286 -1.1517798900604248 1.2895827293395996
      vertex -0.10424955934286118 -1.1943302154541016 1.263651967048645
      vertex -0.1266157329082489 -1.1757512092590332 1.2913341522216797
    endloop
  endfacet
  facet normal -0.5761295346539125 0.38260639178101713 -0.7222791069024336
    outer loop
      vertex -0.06801936775445938 -1.1463874578475952 1.2601491212844849
      vertex -0.1085006445646286 -1.1517798900604248 1.2895827293395996
      vertex -0.0903855487704277 -1.1278084516525269 1.2878313064575195
    endloop
  endfacet
  facet normal -0.576129521568567 0.38260647383941154 -0.7222790738719667
    outer loop
      vertex -0.06376828998327255 -1.1889379024505615 1.2342183589935303
      vertex -0.06801936775445938 -1.1463874578475952 1.2601491212844849
      vertex -0.04565319046378136 -1.1649664640426636 1.2324669361114502
    endloop
  endfacet
  facet normal -0.5761286874196739 0.3826076536912755 -0.7222791142411226
    outer loop
      vertex -0.06376828998327255 -1.1889379024505615 1.2342183589935303
      vertex -0.08188338577747345 -1.21290922164917 1.2359697818756104
      vertex -0.10424955934286118 -1.1943302154541016 1.263651967048645
    endloop
  endfacet
  facet normal -0.5761288264615131 0.3826067817710261 -0.7222794652092072
    outer loop
      vertex -0.06801936775445938 -1.1463874578475952 1.2601491212844849
      vertex -0.06376828998327255 -1.1889379024505615 1.2342183589935303
      vertex -0.10424955934286118 -1.1943302154541016 1.263651967048645
    endloop
  endfacet
  facet normal 0.5500188448509487 0.8277252239520662 -0.1111315614140728
    outer loop
      vertex 0.7127709984779358 -1.5591288805007935 2.0503151416778564
      vertex 0.7924055457115173 -1.6015650033950806 2.1283762454986572
      vertex 0.802445650100708 -1.6102453470230103 2.113414764404297
    endloop
  endfacet
  facet normal 0.5500201301136719 0.8277239905034509 -0.11113438718408679
    outer loop
      vertex 0.7127709984779358 -1.5591288805007935 2.0503151416778564
      vertex 0.802445650100708 -1.6102453470230103 2.113414764404297
      vertex 0.7228111624717712 -1.5678093433380127 2.035353660583496
    endloop
  endfacet
  facet normal 0.5500201301136719 0.8277239905034509 -0.11113438718408679
    outer loop
      vertex 0.7228111624717712 -1.5678093433380127 2.035353660583496
      vertex 0.802445650100708 -1.6102453470230103 2.113414764404297
      vertex 0.8124858140945435 -1.6189258098602295 2.0984532833099365
    endloop
  endfacet
  facet normal 0.5500201301136719 0.8277239905034509 -0.11113438718408679
    outer loop
      vertex 0.7228111624717712 -1.5678093433380127 2.035353660583496
      vertex 0.8124858140945435 -1.6189258098602295 2.0984532833099365
      vertex 0.7328513264656067 -1.576489806175232 2.0203921794891357
    endloop
  endfacet
  facet normal 0.5500200868364419 0.827723979447547 -0.11113468371282506
    outer loop
      vertex -0.003939847461879253 -1.1772043704986572 1.3477656841278076
      vertex 0.07569468766450882 -1.2196403741836548 1.4258267879486084
      vertex 0.08573484420776367 -1.228320837020874 1.410865306854248
    endloop
  endfacet
  facet normal 0.5500181620751726 0.8277258266101153 -0.11113045194747684
    outer loop
      vertex -0.003939847461879253 -1.1772043704986572 1.3477656841278076
      vertex 0.08573484420776367 -1.228320837020874 1.410865306854248
      vertex 0.006100309081375599 -1.185884714126587 1.3328042030334473
    endloop
  endfacet
  facet normal 0.5500206387980092 0.8277236853153027 -0.11113414265779799
    outer loop
      vertex 0.006100309081375599 -1.185884714126587 1.3328042030334473
      vertex 0.08573484420776367 -1.228320837020874 1.410865306854248
      vertex 0.09577500075101852 -1.2370012998580933 1.3959038257598877
    endloop
  endfacet
  facet normal 0.5500208872329908 0.827723446893809 -0.11113468886745206
    outer loop
      vertex 0.006100309081375599 -1.185884714126587 1.3328042030334473
      vertex 0.09577500075101852 -1.2370012998580933 1.3959038257598877
      vertex 0.016140466555953026 -1.1945651769638062 1.3178428411483765
    endloop
  endfacet
  facet normal 0.5500200662679412 0.8277241708370702 -0.11113336004411249
    outer loop
      vertex 0.8124858140945435 -1.6189258098602295 2.0984532833099365
      vertex 0.87541663646698 -1.6491305828094482 2.184943914413452
      vertex 0.8927213549613953 -1.6650123596191406 2.1523003578186035
    endloop
  endfacet
  facet normal 0.5500195921594876 0.8277245264219256 -0.11113305808943555
    outer loop
      vertex 0.8927213549613953 -1.6650123596191406 2.1523003578186035
      vertex 0.7363256216049194 -1.5816713571548462 1.9989947080612183
      vertex 0.7328513264656067 -1.576489806175232 2.0203921794891357
    endloop
  endfacet
  facet normal 0.5500211811877186 0.8277230817699402 -0.1111359534540444
    outer loop
      vertex 0.8927213549613953 -1.6650123596191406 2.1523003578186035
      vertex 0.7328513264656067 -1.576489806175232 2.0203921794891357
      vertex 0.8124858140945435 -1.6189258098602295 2.0984532833099365
    endloop
  endfacet
  facet normal 0.5500206146632615 0.8277237322939563 -0.11113391220870032
    outer loop
      vertex 0.802445650100708 -1.6102453470230103 2.113414764404297
      vertex 0.87541663646698 -1.6491305828094482 2.184943914413452
      vertex 0.8124858140945435 -1.6189258098602295 2.0984532833099365
    endloop
  endfacet
  facet normal 0.5500194125387723 0.8277246382282166 -0.11113311432904213
    outer loop
      vertex 0.7328513264656067 -1.576489806175232 2.0203921794891357
      vertex 0.7363256216049194 -1.5816713571548462 1.9989947080612183
      vertex 0.5799298286437988 -1.4983303546905518 1.8456891775131226
    endloop
  endfacet
  facet normal 0.5500202996307267 0.827723900170322 -0.11113422101655414
    outer loop
      vertex 0.5799298286437988 -1.4983303546905518 1.8456891775131226
      vertex 0.7228111624717712 -1.5678093433380127 2.035353660583496
      vertex 0.7328513264656067 -1.576489806175232 2.0203921794891357
    endloop
  endfacet
  facet normal 0.550019928461509 0.8277241990540863 -0.11113383191210312
    outer loop
      vertex 0.7228111624717712 -1.5678093433380127 2.035353660583496
      vertex 0.5799298286437988 -1.4983303546905518 1.8456891775131226
      vertex 0.5419461131095886 -1.464768648147583 1.9076688289642334
    endloop
  endfacet
  facet normal 0.5500199263087235 0.8277242245114765 -0.11113365295994333
    outer loop
      vertex 0.7924055457115173 -1.6015650033950806 2.1283762454986572
      vertex 0.8581119775772095 -1.6332488059997559 2.21758770942688
      vertex 0.87541663646698 -1.6491305828094482 2.184943914413452
    endloop
  endfacet
  facet normal 0.5500189608289227 0.8277251621489023 -0.11113144772855912
    outer loop
      vertex 0.7924055457115173 -1.6015650033950806 2.1283762454986572
      vertex 0.87541663646698 -1.6491305828094482 2.184943914413452
      vertex 0.802445650100708 -1.6102453470230103 2.113414764404297
    endloop
  endfacet
  facet normal 0.5500201684205676 0.8277240304321746 -0.11113390020928442
    outer loop
      vertex 0.7000290751457214 -1.5490087270736694 2.0626282691955566
      vertex 0.8581119775772095 -1.6332488059997559 2.21758770942688
      vertex 0.7924055457115173 -1.6015650033950806 2.1283762454986572
    endloop
  endfacet
  facet normal 0.5500196285509455 0.8277245463907795 -0.11113272925136919
    outer loop
      vertex 0.7000290751457214 -1.5490087270736694 2.0626282691955566
      vertex 0.7924055457115173 -1.6015650033950806 2.1283762454986572
      vertex 0.7127709984779358 -1.5591288805007935 2.0503151416778564
    endloop
  endfacet
  facet normal 0.5500194244726103 0.8277246429862142 -0.11113301982832569
    outer loop
      vertex 0.5419461131095886 -1.464768648147583 1.9076688289642334
      vertex 0.7000290751457214 -1.5490087270736694 2.0626282691955566
      vertex 0.7127709984779358 -1.5591288805007935 2.0503151416778564
    endloop
  endfacet
  facet normal 0.5500201659615437 0.8277239714006568 -0.11113435204454394
    outer loop
      vertex 0.7228111624717712 -1.5678093433380127 2.035353660583496
      vertex 0.5419461131095886 -1.464768648147583 1.9076688289642334
      vertex 0.7127709984779358 -1.5591288805007935 2.0503151416778564
    endloop
  endfacet
  facet normal 0.5500200106736743 0.8277241544331198 -0.11113375736700361
    outer loop
      vertex 0.3838632106781006 -1.3805285692214966 1.7527095079421997
      vertex 0.5419461131095886 -1.464768648147583 1.9076688289642334
      vertex 0.5799298286437988 -1.4983303546905518 1.8456891775131226
    endloop
  endfacet
  facet normal 0.5500199740558334 0.8277241962455366 -0.11113362717603126
    outer loop
      vertex 0.3838632106781006 -1.3805285692214966 1.7527095079421997
      vertex 0.5799298286437988 -1.4983303546905518 1.8456891775131226
      vertex 0.423534095287323 -1.4149893522262573 1.6923835277557373
    endloop
  endfacet
  facet normal 0.5500196775973969 0.8277243548975957 -0.11113391275850426
    outer loop
      vertex 0.22578029334545135 -1.2962886095046997 1.5977500677108765
      vertex 0.3838632106781006 -1.3805285692214966 1.7527095079421997
      vertex 0.423534095287323 -1.4149893522262573 1.6923835277557373
    endloop
  endfacet
  facet normal 0.5500197642732837 0.8277242563940441 -0.11113421743859182
    outer loop
      vertex 0.22578029334545135 -1.2962886095046997 1.5977500677108765
      vertex 0.423534095287323 -1.4149893522262573 1.6923835277557373
      vertex 0.2671383321285248 -1.3316484689712524 1.5390779972076416
    endloop
  endfacet
  facet normal 0.5500197005625908 0.8277244046975473 -0.11113342818940303
    outer loop
      vertex 0.09577500075101852 -1.2370012998580933 1.3959038257598877
      vertex 0.2671383321285248 -1.3316484689712524 1.5390779972076416
      vertex 0.11074256896972656 -1.248307466506958 1.385772466659546
    endloop
  endfacet
  facet normal 0.5500198490032325 0.827724344519745 -0.11113314173467725
    outer loop
      vertex 0.09577500075101852 -1.2370012998580933 1.3959038257598877
      vertex 0.11074256896972656 -1.248307466506958 1.385772466659546
      vertex 0.016140466555953026 -1.1945651769638062 1.3178428411483765
    endloop
  endfacet
  facet normal 0.5500206006689987 0.8277236284254489 -0.11113475507654355
    outer loop
      vertex -0.04565319046378136 -1.1649664640426636 1.2324669361114502
      vertex 0.016140466555953026 -1.1945651769638062 1.3178428411483765
      vertex 0.11074256896972656 -1.248307466506958 1.385772466659546
    endloop
  endfacet
  facet normal 0.550020158262967 0.8277239818467472 -0.11113431234387651
    outer loop
      vertex -0.04565319046378136 -1.1649664640426636 1.2324669361114502
      vertex -0.06801936775445938 -1.1463874578475952 1.2601491212844849
      vertex 0.016140466555953026 -1.1945651769638062 1.3178428411483765
    endloop
  endfacet
  facet normal 0.5500202892878191 0.827723871564259 -0.11113448526185793
    outer loop
      vertex 0.09577500075101852 -1.2370012998580933 1.3959038257598877
      vertex 0.08573484420776367 -1.228320837020874 1.410865306854248
      vertex 0.2671383321285248 -1.3316484689712524 1.5390779972076416
    endloop
  endfacet
  facet normal 0.5500204941751601 0.8277236563481996 -0.11113507416149244
    outer loop
      vertex 0.016140466555953026 -1.1945651769638062 1.3178428411483765
      vertex -0.06801936775445938 -1.1463874578475952 1.2601491212844849
      vertex 0.006100309081375599 -1.185884714126587 1.3328042030334473
    endloop
  endfacet
  facet normal 0.5500200455098662 0.8277241166542122 -0.1111338663339358
    outer loop
      vertex 0.07569468766450882 -1.2196403741836548 1.4258267879486084
      vertex 0.06769737601280212 -1.2120485305786133 1.4427907466888428
      vertex 0.22578029334545135 -1.2962886095046997 1.5977500677108765
    endloop
  endfacet
  facet normal 0.5500200385708547 0.8277241117859621 -0.11113393693492289
    outer loop
      vertex 0.2671383321285248 -1.3316484689712524 1.5390779972076416
      vertex 0.08573484420776367 -1.228320837020874 1.410865306854248
      vertex 0.22578029334545135 -1.2962886095046997 1.5977500677108765
    endloop
  endfacet
  facet normal 0.5500204312656332 0.8277237959063597 -0.11113434608946929
    outer loop
      vertex 0.08573484420776367 -1.228320837020874 1.410865306854248
      vertex 0.07569468766450882 -1.2196403741836548 1.4258267879486084
      vertex 0.22578029334545135 -1.2962886095046997 1.5977500677108765
    endloop
  endfacet
  facet normal 0.5500200742625146 0.8277241003478992 -0.11113384548155848
    outer loop
      vertex -0.0903855487704277 -1.1278084516525269 1.2878313064575195
      vertex 0.06769737601280212 -1.2120485305786133 1.4427907466888428
      vertex 0.07569468766450882 -1.2196403741836548 1.4258267879486084
    endloop
  endfacet
  facet normal 0.550022659134725 0.8277217554881907 -0.11113851686033116
    outer loop
      vertex -0.0903855487704277 -1.1278084516525269 1.2878313064575195
      vertex 0.07569468766450882 -1.2196403741836548 1.4258267879486084
      vertex -0.003939847461879253 -1.1772043704986572 1.3477656841278076
    endloop
  endfacet
  facet normal 0.550017697773647 0.8277260740299028 -0.11113090707279051
    outer loop
      vertex -0.06801936775445938 -1.1463874578475952 1.2601491212844849
      vertex -0.003939847461879253 -1.1772043704986572 1.3477656841278076
      vertex 0.006100309081375599 -1.185884714126587 1.3328042030334473
    endloop
  endfacet
  facet normal 0.550020548934921 0.8277237916993223 -0.1111337950590416
    outer loop
      vertex -0.003939847461879253 -1.1772043704986572 1.3477656841278076
      vertex -0.06801936775445938 -1.1463874578475952 1.2601491212844849
      vertex -0.0903855487704277 -1.1278084516525269 1.2878313064575195
    endloop
  endfacet
  facet normal -0.5500199726846766 -0.8277240488066916 0.11113473208230337
    outer loop
      vertex 0.04269349202513695 -1.269303798675537 1.4324947595596313
      vertex -0.036941047757864 -1.2268677949905396 1.3544337749481201
      vertex -0.026900889351963997 -1.2355482578277588 1.3394722938537598
    endloop
  endfacet
  facet normal -0.5500204107781976 -0.8277236965243223 0.11113518767471503
    outer loop
      vertex 0.04269349202513695 -1.269303798675537 1.4324947595596313
      vertex -0.026900889351963997 -1.2355482578277588 1.3394722938537598
      vertex 0.0527336485683918 -1.2779842615127563 1.4175333976745605
    endloop
  endfacet
  facet normal -0.5500176015149852 -0.8277261253247291 0.11113100142900709
    outer loop
      vertex 0.0527336485683918 -1.2779842615127563 1.4175333976745605
      vertex -0.026900889351963997 -1.2355482578277588 1.3394722938537598
      vertex -0.016860732808709145 -1.2442286014556885 1.3245108127593994
    endloop
  endfacet
  facet normal -0.5500206930937193 -0.82772363932306 0.11113421648841428
    outer loop
      vertex 0.0527336485683918 -1.2779842615127563 1.4175333976745605
      vertex -0.016860732808709145 -1.2442286014556885 1.3245108127593994
      vertex 0.06277380138635635 -1.2866647243499756 1.4025719165802002
    endloop
  endfacet
  facet normal -0.5500215049601882 -0.8277229849246818 0.1111350723610911
    outer loop
      vertex 0.7594043016433716 -1.651228427886963 2.1350443363189697
      vertex 0.6797698140144348 -1.6087923049926758 2.056983232498169
      vertex 0.6898099184036255 -1.617472767829895 2.0420217514038086
    endloop
  endfacet
  facet normal -0.5500204986867154 -0.8277237940962403 0.11113402589369985
    outer loop
      vertex 0.7594043016433716 -1.651228427886963 2.1350443363189697
      vertex 0.6898099184036255 -1.617472767829895 2.0420217514038086
      vertex 0.769444465637207 -1.6599088907241821 2.1200828552246094
    endloop
  endfacet
  facet normal -0.5500204986867154 -0.8277237940962403 0.11113402589369985
    outer loop
      vertex 0.769444465637207 -1.6599088907241821 2.1200828552246094
      vertex 0.6898099184036255 -1.617472767829895 2.0420217514038086
      vertex 0.6998500823974609 -1.6261532306671143 2.0270602703094482
    endloop
  endfacet
  facet normal -0.5500174699997957 -0.8277262295236654 0.11113087623860554
    outer loop
      vertex 0.769444465637207 -1.6599088907241821 2.1200828552246094
      vertex 0.6998500823974609 -1.6261532306671143 2.0270602703094482
      vertex 0.7794846296310425 -1.6685892343521118 2.105121374130249
    endloop
  endfacet
  facet normal -0.550020071816586 -0.8277240168225001 0.11113447968161451
    outer loop
      vertex -0.016860732808709145 -1.2442286014556885 1.3245108127593994
      vertex -0.10424955934286118 -1.1943302154541016 1.263651967048645
      vertex -0.08188338577747345 -1.21290922164917 1.2359697818756104
    endloop
  endfacet
  facet normal -0.5500189366092404 -0.8277250332592144 0.11113252758428793
    outer loop
      vertex -0.08188338577747345 -1.21290922164917 1.2359697818756104
      vertex 0.07569852471351624 -1.2968822717666626 1.3904379606246948
      vertex 0.06277380138635635 -1.2866647243499756 1.4025719165802002
    endloop
  endfacet
  facet normal -0.5500225887642894 -0.8277220003653938 0.11113704135049021
    outer loop
      vertex -0.08188338577747345 -1.21290922164917 1.2359697818756104
      vertex 0.06277380138635635 -1.2866647243499756 1.4025719165802002
      vertex -0.016860732808709145 -1.2442286014556885 1.3245108127593994
    endloop
  endfacet
  facet normal -0.5500182316019661 -0.8277257895602131 0.1111303837947474
    outer loop
      vertex -0.016860732808709145 -1.2442286014556885 1.3245108127593994
      vertex -0.026900889351963997 -1.2355482578277588 1.3394722938537598
      vertex -0.10424955934286118 -1.1943302154541016 1.263651967048645
    endloop
  endfacet
  facet normal -0.5500189679729608 -0.8277250185648919 0.11113248180306483
    outer loop
      vertex 0.06277380138635635 -1.2866647243499756 1.4025719165802002
      vertex 0.07569852471351624 -1.2968822717666626 1.3904379606246948
      vertex 0.23328043520450592 -1.3808553218841553 1.5449062585830688
    endloop
  endfacet
  facet normal -0.5500202013103164 -0.827723901387297 0.11113469855428347
    outer loop
      vertex 0.06277380138635635 -1.2866647243499756 1.4025719165802002
      vertex 0.23328043520450592 -1.3808553218841553 1.5449062585830688
      vertex 0.0527336485683918 -1.2779842615127563 1.4175333976745605
    endloop
  endfacet
  facet normal -0.5500200422437327 -0.8277240924981757 0.11113406241235706
    outer loop
      vertex 0.3511914908885956 -1.4303675889968872 1.7597004175186157
      vertex 0.1919224113225937 -1.3454954624176025 1.6035783290863037
      vertex 0.23328043520450592 -1.3808553218841553 1.5449062585830688
    endloop
  endfacet
  facet normal -0.550020015825525 -0.8277241126229797 0.11113404327113152
    outer loop
      vertex 0.3511914908885956 -1.4303675889968872 1.7597004175186157
      vertex 0.23328043520450592 -1.3808553218841553 1.5449062585830688
      vertex 0.3908623456954956 -1.464828372001648 1.6993745565414429
    endloop
  endfacet
  facet normal -0.5500205637264427 -0.82772376592182 0.11113391384382294
    outer loop
      vertex -0.1266157329082489 -1.1757512092590332 1.2913341522216797
      vertex -0.10424955934286118 -1.1943302154541016 1.263651967048645
      vertex -0.036941047757864 -1.2268677949905396 1.3544337749481201
    endloop
  endfacet
  facet normal -0.5500206826076489 -0.8277236704991533 0.11113403618705345
    outer loop
      vertex -0.026900889351963997 -1.2355482578277588 1.3394722938537598
      vertex -0.036941047757864 -1.2268677949905396 1.3544337749481201
      vertex -0.10424955934286118 -1.1943302154541016 1.263651967048645
    endloop
  endfacet
  facet normal -0.5500218103954376 -0.8277225694968345 0.11113665477637488
    outer loop
      vertex 0.032653335481882095 -1.2606233358383179 1.4474562406539917
      vertex -0.1266157329082489 -1.1757512092590332 1.2913341522216797
      vertex -0.036941047757864 -1.2268677949905396 1.3544337749481201
    endloop
  endfacet
  facet normal -0.5500199983997657 -0.8277240265740867 0.11113477040198642
    outer loop
      vertex -0.036941047757864 -1.2268677949905396 1.3544337749481201
      vertex 0.04269349202513695 -1.269303798675537 1.4324947595596313
      vertex 0.032653335481882095 -1.2606233358383179 1.4474562406539917
    endloop
  endfacet
  facet normal -0.5500206867581722 -0.8277235494590016 0.11113491714605397
    outer loop
      vertex 0.1919224113225937 -1.3454954624176025 1.6035783290863037
      vertex 0.04269349202513695 -1.269303798675537 1.4324947595596313
      vertex 0.0527336485683918 -1.2779842615127563 1.4175333976745605
    endloop
  endfacet
  facet normal -0.5500203171663849 -0.8277238567081833 0.11113445793416385
    outer loop
      vertex 0.04269349202513695 -1.269303798675537 1.4324947595596313
      vertex 0.1919224113225937 -1.3454954624176025 1.6035783290863037
      vertex 0.032653335481882095 -1.2606233358383179 1.4474562406539917
    endloop
  endfacet
  facet normal -0.5500199528043094 -0.8277241396501318 0.11113415387537004
    outer loop
      vertex 0.1919224113225937 -1.3454954624176025 1.6035783290863037
      vertex 0.0527336485683918 -1.2779842615127563 1.4175333976745605
      vertex 0.23328043520450592 -1.3808553218841553 1.5449062585830688
    endloop
  endfacet
  facet normal -0.5500198186865513 -0.8277242629569659 0.11113389925833021
    outer loop
      vertex 0.6998500823974609 -1.6261532306671143 2.0270602703094482
      vertex 0.5484442710876465 -1.5488015413284302 1.853842854499817
      vertex 0.7060261964797974 -1.6327745914459229 2.0083110332489014
    endloop
  endfacet
  facet normal -0.5500195836136273 -0.8277244021646716 0.11113402585450217
    outer loop
      vertex 0.7794846296310425 -1.6685892343521118 2.105121374130249
      vertex 0.6998500823974609 -1.6261532306671143 2.0270602703094482
      vertex 0.7060261964797974 -1.6327745914459229 2.0083110332489014
    endloop
  endfacet
  facet normal -0.5500201750632256 -0.8277239665505062 0.11113434312270457
    outer loop
      vertex 0.6898099184036255 -1.617472767829895 2.0420217514038086
      vertex 0.5484442710876465 -1.5488015413284302 1.853842854499817
      vertex 0.6998500823974609 -1.6261532306671143 2.0270602703094482
    endloop
  endfacet
  facet normal -0.5500176643667262 -0.8277261259483865 0.11113068571302508
    outer loop
      vertex 0.846303403377533 -1.7008658647537231 2.195423126220703
      vertex 0.769444465637207 -1.6599088907241821 2.1200828552246094
      vertex 0.7794846296310425 -1.6685892343521118 2.105121374130249
    endloop
  endfacet
  facet normal -0.5500202791021621 -0.8277240280258676 0.11113337034847935
    outer loop
      vertex 0.846303403377533 -1.7008658647537231 2.195423126220703
      vertex 0.7794846296310425 -1.6685892343521118 2.105121374130249
      vertex 0.8636080622673035 -1.7167476415634155 2.1627793312072754
    endloop
  endfacet
  facet normal -0.5500214272352809 -0.8277229154065859 0.1111359747916323
    outer loop
      vertex 0.8636080622673035 -1.7167476415634155 2.1627793312072754
      vertex 0.7794846296310425 -1.6685892343521118 2.105121374130249
      vertex 0.7060261964797974 -1.6327745914459229 2.0083110332489014
    endloop
  endfacet
  facet normal -0.5500204568912156 -0.8277237397371224 0.11113463761029264
    outer loop
      vertex 0.5104605555534363 -1.5152397155761719 1.9158226251602173
      vertex 0.5484442710876465 -1.5488015413284302 1.853842854499817
      vertex 0.6898099184036255 -1.617472767829895 2.0420217514038086
    endloop
  endfacet
  facet normal -0.5500200844611813 -0.827724075892075 0.11113397715336988
    outer loop
      vertex 0.5104605555534363 -1.5152397155761719 1.9158226251602173
      vertex 0.3511914908885956 -1.4303675889968872 1.7597004175186157
      vertex 0.3908623456954956 -1.464828372001648 1.6993745565414429
    endloop
  endfacet
  facet normal -0.5500206942501417 -0.8277236109095816 0.11113442238746643
    outer loop
      vertex 0.5104605555534363 -1.5152397155761719 1.9158226251602173
      vertex 0.3908623456954956 -1.464828372001648 1.6993745565414429
      vertex 0.5484442710876465 -1.5488015413284302 1.853842854499817
    endloop
  endfacet
  facet normal -0.5500209168407967 -0.8277232983253465 0.11113564885768615
    outer loop
      vertex 0.5104605555534363 -1.5152397155761719 1.9158226251602173
      vertex 0.6898099184036255 -1.617472767829895 2.0420217514038086
      vertex 0.6797698140144348 -1.6087923049926758 2.056983232498169
    endloop
  endfacet
  facet normal -0.5500201856514988 -0.8277239609081732 0.11113433274364787
    outer loop
      vertex 0.6697296500205994 -1.6001118421554565 2.0719447135925293
      vertex 0.5104605555534363 -1.5152397155761719 1.9158226251602173
      vertex 0.6797698140144348 -1.6087923049926758 2.056983232498169
    endloop
  endfacet
  facet normal -0.5500207217319955 -0.8277234248215747 0.11113567234267159
    outer loop
      vertex 0.8289986848831177 -1.6849839687347412 2.2280666828155518
      vertex 0.7594043016433716 -1.651228427886963 2.1350443363189697
      vertex 0.846303403377533 -1.7008658647537231 2.195423126220703
    endloop
  endfacet
  facet normal -0.5500206820751905 -0.8277236963710638 0.11113384612873478
    outer loop
      vertex 0.6797698140144348 -1.6087923049926758 2.056983232498169
      vertex 0.7594043016433716 -1.651228427886963 2.1350443363189697
      vertex 0.6697296500205994 -1.6001118421554565 2.0719447135925293
    endloop
  endfacet
  facet normal -0.5500222226258914 -0.8277222179065458 0.11113723319186562
    outer loop
      vertex 0.7594043016433716 -1.651228427886963 2.1350443363189697
      vertex 0.8289986848831177 -1.6849839687347412 2.2280666828155518
      vertex 0.6697296500205994 -1.6001118421554565 2.0719447135925293
    endloop
  endfacet
  facet normal -0.5500201410898178 -0.8277239846544275 0.11113437642482213
    outer loop
      vertex 0.769444465637207 -1.6599088907241821 2.1200828552246094
      vertex 0.846303403377533 -1.7008658647537231 2.195423126220703
      vertex 0.7594043016433716 -1.651228427886963 2.1350443363189697
    endloop
  endfacet
  facet normal 0.5020075937042824 -0.4340220557955417 -0.7480730117750859
    outer loop
      vertex -0.018478911370038986 -1.2298842668533325 1.2883671522140503
      vertex -0.010228610597550869 -1.2174683809280396 1.2867001295089722
      vertex 0.04949729144573212 -1.2492953538894653 1.3452458381652832
    endloop
  endfacet
  facet normal 0.5020076073605769 -0.43402202813824325 -0.7480730186571862
    outer loop
      vertex -0.018478911370038986 -1.2298842668533325 1.2883671522140503
      vertex 0.04949729144573212 -1.2492953538894653 1.3452458381652832
      vertex 0.041246991604566574 -1.2617112398147583 1.3469128608703613
    endloop
  endfacet
  facet normal 0.5020079003202009 -0.43402215805062405 -0.7480727466879021
    outer loop
      vertex -0.010228610597550869 -1.2174683809280396 1.2867001295089722
      vertex -0.0019783114548772573 -1.2050524950027466 1.285033106803894
      vertex 0.05774759128689766 -1.236879587173462 1.3435789346694946
    endloop
  endfacet
  facet normal 0.5020089836221144 -0.4340199641041163 -0.7480732926136002
    outer loop
      vertex -0.010228610597550869 -1.2174683809280396 1.2867001295089722
      vertex 0.05774759128689766 -1.236879587173462 1.3435789346694946
      vertex 0.04949729144573212 -1.2492953538894653 1.3452458381652832
    endloop
  endfacet
  facet normal 0.5020085541172811 -0.4340207326348803 -0.7480731349514956
    outer loop
      vertex 0.5799298286437988 -1.4983303546905518 1.8456891775131226
      vertex 0.7363256216049194 -1.5816713571548462 1.9989947080612183
      vertex 0.7060261964797974 -1.6327745914459229 2.0083110332489014
    endloop
  endfacet
  facet normal 0.5020082577735483 -0.4340210373092888 -0.7480731570509235
    outer loop
      vertex 0.5799298286437988 -1.4983303546905518 1.8456891775131226
      vertex 0.7060261964797974 -1.6327745914459229 2.0083110332489014
      vertex 0.5484442710876465 -1.5488015413284302 1.853842854499817
    endloop
  endfacet
  facet normal 0.5020075471119929 -0.43402263522485235 -0.7480727068641623
    outer loop
      vertex 0.2671383321285248 -1.3316484689712524 1.5390779972076416
      vertex 0.423534095287323 -1.4149893522262573 1.6923835277557373
      vertex 0.3908623456954956 -1.464828372001648 1.6993745565414429
    endloop
  endfacet
  facet normal 0.5020076059216223 -0.4340225750860799 -0.748072702290686
    outer loop
      vertex 0.2671383321285248 -1.3316484689712524 1.5390779972076416
      vertex 0.3908623456954956 -1.464828372001648 1.6993745565414429
      vertex 0.23328043520450592 -1.3808553218841553 1.5449062585830688
    endloop
  endfacet
  facet normal 0.5020075582777921 -0.4340225479550211 -0.7480727500040358
    outer loop
      vertex 0.23328043520450592 -1.3808553218841553 1.5449062585830688
      vertex 0.04949729144573212 -1.2492953538894653 1.3452458381652832
      vertex 0.2671383321285248 -1.3316484689712524 1.5390779972076416
    endloop
  endfacet
  facet normal 0.5020086790870169 -0.4340212358533778 -0.748072759128158
    outer loop
      vertex 0.423534095287323 -1.4149893522262573 1.6923835277557373
      vertex 0.5799298286437988 -1.4983303546905518 1.8456891775131226
      vertex 0.5484442710876465 -1.5488015413284302 1.853842854499817
    endloop
  endfacet
  facet normal 0.5020073925819618 -0.4340225549987511 -0.7480728571104663
    outer loop
      vertex 0.423534095287323 -1.4149893522262573 1.6923835277557373
      vertex 0.5484442710876465 -1.5488015413284302 1.853842854499817
      vertex 0.3908623456954956 -1.464828372001648 1.6993745565414429
    endloop
  endfacet
  facet normal 0.5020076579433245 -0.43402217897954093 -0.7480728971965964
    outer loop
      vertex -0.04565319046378136 -1.1649664640426636 1.2324669361114502
      vertex 0.11074256896972656 -1.248307466506958 1.385772466659546
      vertex 0.05774759128689766 -1.236879587173462 1.3435789346694946
    endloop
  endfacet
  facet normal 0.502009377317128 -0.43401993531773814 -0.7480730451182263
    outer loop
      vertex -0.04565319046378136 -1.1649664640426636 1.2324669361114502
      vertex 0.05774759128689766 -1.236879587173462 1.3435789346694946
      vertex -0.0019783114548772573 -1.2050524950027466 1.285033106803894
    endloop
  endfacet
  facet normal 0.5020087022844045 -0.43401981418014 -0.7480735683940216
    outer loop
      vertex 0.11074256896972656 -1.248307466506958 1.385772466659546
      vertex 0.04949729144573212 -1.2492953538894653 1.3452458381652832
      vertex 0.05774759128689766 -1.236879587173462 1.3435789346694946
    endloop
  endfacet
  facet normal 0.5020083792084576 -0.4340210826933695 -0.7480730492285982
    outer loop
      vertex 0.04949729144573212 -1.2492953538894653 1.3452458381652832
      vertex 0.11074256896972656 -1.248307466506958 1.385772466659546
      vertex 0.2671383321285248 -1.3316484689712524 1.5390779972076416
    endloop
  endfacet
  facet normal 0.5020080422222377 -0.4340214286604061 -0.7480730746442997
    outer loop
      vertex -0.06376828998327255 -1.1889379024505615 1.2342183589935303
      vertex -0.04565319046378136 -1.1649664640426636 1.2324669361114502
      vertex -0.0019783114548772573 -1.2050524950027466 1.285033106803894
    endloop
  endfacet
  facet normal 0.5020091453360234 -0.4340205341945828 -0.7480728533347835
    outer loop
      vertex 0.7363256216049194 -1.5816713571548462 1.9989947080612183
      vertex 0.8927213549613953 -1.6650123596191406 2.1523003578186035
      vertex 0.8636080622673035 -1.7167476415634155 2.1627793312072754
    endloop
  endfacet
  facet normal 0.5020088363243259 -0.4340208527299151 -0.748072875893715
    outer loop
      vertex 0.7363256216049194 -1.5816713571548462 1.9989947080612183
      vertex 0.8636080622673035 -1.7167476415634155 2.1627793312072754
      vertex 0.7060261964797974 -1.6327745914459229 2.0083110332489014
    endloop
  endfacet
  facet normal 0.5020080065552354 -0.43402197217330035 -0.7480727832405332
    outer loop
      vertex 0.07569852471351624 -1.2968822717666626 1.3904379606246948
      vertex 0.04949729144573212 -1.2492953538894653 1.3452458381652832
      vertex 0.23328043520450592 -1.3808553218841553 1.5449062585830688
    endloop
  endfacet
  facet normal 0.5020077068191239 -0.4340221160725581 -0.7480729008954298
    outer loop
      vertex -0.018478911370038986 -1.2298842668533325 1.2883671522140503
      vertex -0.06376828998327255 -1.1889379024505615 1.2342183589935303
      vertex -0.010228610597550869 -1.2174683809280396 1.2867001295089722
    endloop
  endfacet
  facet normal 0.5020077368200754 -0.4340220709241567 -0.7480729069572647
    outer loop
      vertex -0.0019783114548772573 -1.2050524950027466 1.285033106803894
      vertex -0.010228610597550869 -1.2174683809280396 1.2867001295089722
      vertex -0.06376828998327255 -1.1889379024505615 1.2342183589935303
    endloop
  endfacet
  facet normal 0.502007075172353 -0.4340228600964704 -0.748072893099716
    outer loop
      vertex 0.07569852471351624 -1.2968822717666626 1.3904379606246948
      vertex -0.08188338577747345 -1.21290922164917 1.2359697818756104
      vertex -0.018478911370038986 -1.2298842668533325 1.2883671522140503
    endloop
  endfacet
  facet normal 0.5020069313821328 -0.43402304541749775 -0.7480728820715367
    outer loop
      vertex 0.07569852471351624 -1.2968822717666626 1.3904379606246948
      vertex -0.018478911370038986 -1.2298842668533325 1.2883671522140503
      vertex 0.041246991604566574 -1.2617112398147583 1.3469128608703613
    endloop
  endfacet
  facet normal 0.5020071082551945 -0.434022791266097 -0.7480729108334584
    outer loop
      vertex -0.06376828998327255 -1.1889379024505615 1.2342183589935303
      vertex -0.018478911370038986 -1.2298842668533325 1.2883671522140503
      vertex -0.08188338577747345 -1.21290922164917 1.2359697818756104
    endloop
  endfacet
  facet normal 0.502007799676838 -0.43402213062036193 -0.7480728301411442
    outer loop
      vertex 0.041246991604566574 -1.2617112398147583 1.3469128608703613
      vertex 0.04949729144573212 -1.2492953538894653 1.3452458381652832
      vertex 0.07569852471351624 -1.2968822717666626 1.3904379606246948
    endloop
  endfacet
  facet normal -0.5020104914043686 0.434016901547302 0.7480740576247943
    outer loop
      vertex -0.058639537543058395 -1.1951624155044556 1.3482129573822021
      vertex 0.001086365431547165 -1.226989507675171 1.4067586660385132
      vertex 0.009336665272712708 -1.214573621749878 1.4050917625427246
    endloop
  endfacet
  facet normal -0.5020078865908626 0.4340221769353874 0.7480727449445294
    outer loop
      vertex -0.058639537543058395 -1.1951624155044556 1.3482129573822021
      vertex 0.009336665272712708 -1.214573621749878 1.4050917625427246
      vertex -0.05038923770189285 -1.1827465295791626 1.346545934677124
    endloop
  endfacet
  facet normal -0.5020078865908626 0.4340221769353874 0.7480727449445294
    outer loop
      vertex -0.05038923770189285 -1.1827465295791626 1.346545934677124
      vertex 0.009336665272712708 -1.214573621749878 1.4050917625427246
      vertex 0.01758696511387825 -1.202157735824585 1.4034247398376465
    endloop
  endfacet
  facet normal -0.5020063752952295 0.4340252376566299 0.7480719833278419
    outer loop
      vertex -0.05038923770189285 -1.1827465295791626 1.346545934677124
      vertex 0.01758696511387825 -1.202157735824585 1.4034247398376465
      vertex -0.04213893786072731 -1.1703307628631592 1.344878911972046
    endloop
  endfacet
  facet normal -0.5020075127690451 0.434022783211728 0.7480726440504174
    outer loop
      vertex 0.8581119775772095 -1.6332488059997559 2.21758770942688
      vertex 0.7000290751457214 -1.5490087270736694 2.0626282691955566
      vertex 0.6697296500205994 -1.6001118421554565 2.0719447135925293
    endloop
  endfacet
  facet normal -0.5020082155152995 0.4340210739817214 0.7480731641322911
    outer loop
      vertex 0.8581119775772095 -1.6332488059997559 2.21758770942688
      vertex 0.6697296500205994 -1.6001118421554565 2.0719447135925293
      vertex 0.8289986848831177 -1.6849839687347412 2.2280666828155518
    endloop
  endfacet
  facet normal -0.5020082963282342 0.4340210919499741 0.7480730994763652
    outer loop
      vertex 0.5419461131095886 -1.464768648147583 1.9076688289642334
      vertex 0.3838632106781006 -1.3805285692214966 1.7527095079421997
      vertex 0.3511914908885956 -1.4303675889968872 1.7597004175186157
    endloop
  endfacet
  facet normal -0.5020074236226257 0.4340231969704421 0.7480724638157258
    outer loop
      vertex 0.5419461131095886 -1.464768648147583 1.9076688289642334
      vertex 0.3511914908885956 -1.4303675889968872 1.7597004175186157
      vertex 0.5104605555534363 -1.5152397155761719 1.9158226251602173
    endloop
  endfacet
  facet normal -0.5020078297680606 0.4340225603103835 0.7480725606471483
    outer loop
      vertex 0.3838632106781006 -1.3805285692214966 1.7527095079421997
      vertex 0.22578029334545135 -1.2962886095046997 1.5977500677108765
      vertex 0.1919224113225937 -1.3454954624176025 1.6035783290863037
    endloop
  endfacet
  facet normal -0.502008415287528 0.43402115370929734 0.7480729838146511
    outer loop
      vertex 0.3838632106781006 -1.3805285692214966 1.7527095079421997
      vertex 0.1919224113225937 -1.3454954624176025 1.6035783290863037
      vertex 0.3511914908885956 -1.4303675889968872 1.7597004175186157
    endloop
  endfacet
  facet normal -0.5020071951859375 0.43402308931982975 0.7480726795698526
    outer loop
      vertex 0.7000290751457214 -1.5490087270736694 2.0626282691955566
      vertex 0.5419461131095886 -1.464768648147583 1.9076688289642334
      vertex 0.5104605555534363 -1.5152397155761719 1.9158226251602173
    endloop
  endfacet
  facet normal -0.5020073501446646 0.43402271400603304 0.7480727933346922
    outer loop
      vertex 0.7000290751457214 -1.5490087270736694 2.0626282691955566
      vertex 0.5104605555534363 -1.5152397155761719 1.9158226251602173
      vertex 0.6697296500205994 -1.6001118421554565 2.0719447135925293
    endloop
  endfacet
  facet normal -0.5020074952329838 0.4340223698075163 0.7480728956703172
    outer loop
      vertex 0.1919224113225937 -1.3454954624176025 1.6035783290863037
      vertex 0.22578029334545135 -1.2962886095046997 1.5977500677108765
      vertex 0.009336665272712708 -1.214573621749878 1.4050917625427246
    endloop
  endfacet
  facet normal -0.5020077914569836 0.43402212624013936 0.7480728381985742
    outer loop
      vertex 0.009336665272712708 -1.214573621749878 1.4050917625427246
      vertex 0.06769737601280212 -1.2120485305786133 1.4427907466888428
      vertex 0.01758696511387825 -1.202157735824585 1.4034247398376465
    endloop
  endfacet
  facet normal -0.5020066150034573 0.43402487692141284 0.748072031763067
    outer loop
      vertex -0.04213893786072731 -1.1703307628631592 1.344878911972046
      vertex 0.01758696511387825 -1.202157735824585 1.4034247398376465
      vertex 0.06769737601280212 -1.2120485305786133 1.4427907466888428
    endloop
  endfacet
  facet normal -0.5020095308224841 0.43401968180897865 0.7480730891870275
    outer loop
      vertex -0.0903855487704277 -1.1278084516525269 1.2878313064575195
      vertex -0.04213893786072731 -1.1703307628631592 1.344878911972046
      vertex 0.06769737601280212 -1.2120485305786133 1.4427907466888428
    endloop
  endfacet
  facet normal -0.5020080594198114 0.4340213654769309 0.7480730997617114
    outer loop
      vertex -0.1085006445646286 -1.1517798900604248 1.2895827293395996
      vertex -0.04213893786072731 -1.1703307628631592 1.344878911972046
      vertex -0.0903855487704277 -1.1278084516525269 1.2878313064575195
    endloop
  endfacet
  facet normal -0.502008303496235 0.4340213326030006 0.74807295504272
    outer loop
      vertex 0.1919224113225937 -1.3454954624176025 1.6035783290863037
      vertex 0.009336665272712708 -1.214573621749878 1.4050917625427246
      vertex 0.032653335481882095 -1.2606233358383179 1.4474562406539917
    endloop
  endfacet
  facet normal -0.5020031671344758 0.43402792381188215 0.7480725777212414
    outer loop
      vertex 0.001086365431547165 -1.226989507675171 1.4067586660385132
      vertex -0.058639537543058395 -1.1951624155044556 1.3482129573822021
      vertex 0.032653335481882095 -1.2606233358383179 1.4474562406539917
    endloop
  endfacet
  facet normal -0.5020127260865902 0.4340180923910611 0.7480718670851982
    outer loop
      vertex 0.009336665272712708 -1.214573621749878 1.4050917625427246
      vertex 0.001086365431547165 -1.226989507675171 1.4067586660385132
      vertex 0.032653335481882095 -1.2606233358383179 1.4474562406539917
    endloop
  endfacet
  facet normal -0.5020075459012012 0.4340229382748036 0.7480725318507286
    outer loop
      vertex -0.1266157329082489 -1.1757512092590332 1.2913341522216797
      vertex -0.058639537543058395 -1.1951624155044556 1.3482129573822021
      vertex -0.1085006445646286 -1.1517798900604248 1.2895827293395996
    endloop
  endfacet
  facet normal -0.5020081053356575 0.4340222935008059 0.7480725305220102
    outer loop
      vertex -0.05038923770189285 -1.1827465295791626 1.346545934677124
      vertex -0.1085006445646286 -1.1517798900604248 1.2895827293395996
      vertex -0.058639537543058395 -1.1951624155044556 1.3482129573822021
    endloop
  endfacet
  facet normal -0.5020083996747967 0.43402120918165393 0.748072962107604
    outer loop
      vertex 0.032653335481882095 -1.2606233358383179 1.4474562406539917
      vertex -0.058639537543058395 -1.1951624155044556 1.3482129573822021
      vertex -0.1266157329082489 -1.1757512092590332 1.2913341522216797
    endloop
  endfacet
  facet normal -0.5020062081407781 0.4340251485820556 0.7480721471799643
    outer loop
      vertex -0.1085006445646286 -1.1517798900604248 1.2895827293395996
      vertex -0.05038923770189285 -1.1827465295791626 1.346545934677124
      vertex -0.04213893786072731 -1.1703307628631592 1.344878911972046
    endloop
  endfacet
  facet normal -0.5020079040664127 0.4340216393091832 0.7480730451407916
    outer loop
      vertex 0.06769737601280212 -1.2120485305786133 1.4427907466888428
      vertex 0.009336665272712708 -1.214573621749878 1.4050917625427246
      vertex 0.22578029334545135 -1.2962886095046997 1.5977500677108765
    endloop
  endfacet
  facet normal 0.7653194051940856 -0.31723217980008017 0.560044598342543
    outer loop
      vertex 0.8927213549613953 -1.6650123596191406 2.1523003578186035
      vertex 0.87541663646698 -1.6491305828094482 2.184943914413452
      vertex 0.846303403377533 -1.7008658647537231 2.195423126220703
    endloop
  endfacet
  facet normal 0.7653198781050823 -0.3172365397088857 0.5600414824374661
    outer loop
      vertex 0.8927213549613953 -1.6650123596191406 2.1523003578186035
      vertex 0.846303403377533 -1.7008658647537231 2.195423126220703
      vertex 0.8636080622673035 -1.7167476415634155 2.1627793312072754
    endloop
  endfacet
  facet normal 0.7653190050562331 -0.3172318003335965 0.560045360088665
    outer loop
      vertex 0.8289986848831177 -1.6849839687347412 2.2280666828155518
      vertex 0.846303403377533 -1.7008658647537231 2.195423126220703
      vertex 0.87541663646698 -1.6491305828094482 2.184943914413452
    endloop
  endfacet
  facet normal 0.7653195777957109 -0.3172370806368148 0.560041586412675
    outer loop
      vertex 0.8289986848831177 -1.6849839687347412 2.2280666828155518
      vertex 0.87541663646698 -1.6491305828094482 2.184943914413452
      vertex 0.8581119775772095 -1.6332488059997559 2.21758770942688
    endloop
  endfacet
endsolid beam