solid d24_features
  facet normal -0.978580478 -0.187986257 -0.0839131458
    outer loop
      vertex 1.99546845 2.5793018 2.05086768
      vertex 1.99572251 2.5781218 2.05054829
      vertex 1.9916644 2.54335987 2.17574869
    endloop
  endfacet
  facet normal -0.978580478 -0.187986257 -0.0839131458
    outer loop
      vertex 1.99546845 2.5793018 2.05086768
      vertex 1.9916644 2.54335987 2.17574869
      vertex 1.99141033 2.54453987 2.17606808
    endloop
  endfacet
  facet normal 0.0312162848 0.267399467 -0.963079991
    outer loop
      vertex 1.99866677 2.5793018 2.05097134
      vertex 1.99572251 2.5781218 2.05054829
      vertex 1.99546845 2.5793018 2.05086768
    endloop
  endfacet
  facet normal -0.0312162848 -0.267399467 0.963079991
    outer loop
      vertex 1.99460865 2.54453987 2.17617174
      vertex 1.99141033 2.54453987 2.17606808
      vertex 1.9916644 2.54335987 2.17574869
    endloop
  endfacet
  facet normal -0.826220468 -0.535339568 -0.175417463
    outer loop
      vertex 1.99572251 2.5781218 2.05054829
      vertex 1.99642482 2.57712145 2.0502933
      vertex 1.9923667 2.54235952 2.1754937
    endloop
  endfacet
  facet normal -0.826220468 -0.535339568 -0.175417463
    outer loop
      vertex 1.99572251 2.5781218 2.05054829
      vertex 1.9923667 2.54235952 2.1754937
      vertex 1.9916644 2.54335987 2.17574869
    endloop
  endfacet
  facet normal 0.0312162848 0.267399467 -0.963079991
    outer loop
      vertex 1.99866677 2.5793018 2.05097134
      vertex 1.99642482 2.57712145 2.0502933
      vertex 1.99572251 2.5781218 2.05054829
    endloop
  endfacet
  facet normal -0.0312162848 -0.267399467 0.963079991
    outer loop
      vertex 1.99460865 2.54453987 2.17617174
      vertex 1.9916644 2.54335987 2.17574869
      vertex 1.9923667 2.54235952 2.1754937
    endloop
  endfacet
  facet normal -0.548075881 -0.801192282 -0.240216061
    outer loop
      vertex 1.99642482 2.57712145 2.0502933
      vertex 1.99746843 2.57645304 2.05014154
      vertex 1.99341032 2.54169111 2.17534194
    endloop
  endfacet
  facet normal -0.548075881 -0.801192282 -0.240216061
    outer loop
      vertex 1.99642482 2.57712145 2.0502933
      vertex 1.99341032 2.54169111 2.17534194
      vertex 1.9923667 2.54235952 2.1754937
    endloop
  endfacet
  facet normal 0.0312162848 0.267399467 -0.963079991
    outer loop
      vertex 1.99866677 2.5793018 2.05097134
      vertex 1.99746843 2.57645304 2.05014154
      vertex 1.99642482 2.57712145 2.0502933
    endloop
  endfacet
  facet normal -0.0312162848 -0.267399467 0.963079991
    outer loop
      vertex 1.99460865 2.54453987 2.17617174
      vertex 1.9923667 2.54235952 2.1754937
      vertex 1.99341032 2.54169111 2.17534194
    endloop
  endfacet
  facet normal -0.18649171 -0.945070734 -0.268443941
    outer loop
      vertex 1.99746843 2.57645304 2.05014154
      vertex 1.99869449 2.57621832 2.05011612
      vertex 1.99463637 2.54145639 2.17531651
    endloop
  endfacet
  facet normal -0.18649171 -0.945070734 -0.268443941
    outer loop
      vertex 1.99746843 2.57645304 2.05014154
      vertex 1.99463637 2.54145639 2.17531651
      vertex 1.99341032 2.54169111 2.17534194
    endloop
  endfacet
  facet normal 0.0312162848 0.267399467 -0.963079991
    outer loop
      vertex 1.99866677 2.5793018 2.05097134
      vertex 1.99869449 2.57621832 2.05011612
      vertex 1.99746843 2.57645304 2.05014154
    endloop
  endfacet
  facet normal -0.0312162848 -0.267399467 0.963079991
    outer loop
      vertex 1.99460865 2.54453987 2.17617174
      vertex 1.99341032 2.54169111 2.17534194
      vertex 1.99463637 2.54145639 2.17531651
    endloop
  endfacet
  facet normal 0.203484133 -0.945070734 -0.255803665
    outer loop
      vertex 1.99869449 2.57621832 2.05011612
      vertex 1.99991632 2.57645304 2.05022089
      vertex 1.99585821 2.54169111 2.17542129
    endloop
  endfacet
  facet normal 0.203484133 -0.945070734 -0.255803665
    outer loop
      vertex 1.99869449 2.57621832 2.05011612
      vertex 1.99585821 2.54169111 2.17542129
      vertex 1.99463637 2.54145639 2.17531651
    endloop
  endfacet
  facet normal 0.0312162848 0.267399467 -0.963079991
    outer loop
      vertex 1.99866677 2.5793018 2.05097134
      vertex 1.99991632 2.57645304 2.05022089
      vertex 1.99869449 2.57621832 2.05011612
    endloop
  endfacet
  facet normal -0.0312162848 -0.267399467 0.963079991
    outer loop
      vertex 1.99460865 2.54453987 2.17617174
      vertex 1.99463637 2.54145639 2.17531651
      vertex 1.99585821 2.54169111 2.17542129
    endloop
  endfacet
  facet normal 0.562481362 -0.801192282 -0.2042196
    outer loop
      vertex 1.99991632 2.57645304 2.05022089
      vertex 2.00094792 2.57712145 2.05043991
      vertex 1.99688981 2.54235952 2.17564031
    endloop
  endfacet
  facet normal 0.562481362 -0.801192282 -0.2042196
    outer loop
      vertex 1.99991632 2.57645304 2.05022089
      vertex 1.99688981 2.54235952 2.17564031
      vertex 1.99585821 2.54169111 2.17542129
    endloop
  endfacet
  facet normal 0.0312162848 0.267399467 -0.963079991
    outer loop
      vertex 1.99866677 2.5793018 2.05097134
      vertex 2.00094792 2.57712145 2.05043991
      vertex 1.99991632 2.57645304 2.05022089
    endloop
  endfacet
  facet normal -0.0312162848 -0.267399467 0.963079991
    outer loop
      vertex 1.99460865 2.54453987 2.17617174
      vertex 1.99585821 2.54169111 2.17542129
      vertex 1.99688981 2.54235952 2.17564031
    endloop
  endfacet
  facet normal 0.835845902 -0.535339568 -0.121544952
    outer loop
      vertex 2.00094792 2.57712145 2.05043991
      vertex 2.00163224 2.5781218 2.05073984
      vertex 1.99757412 2.54335987 2.17594024
    endloop
  endfacet
  facet normal 0.835845902 -0.535339568 -0.121544952
    outer loop
      vertex 2.00094792 2.57712145 2.05043991
      vertex 1.99757412 2.54335987 2.17594024
      vertex 1.99688981 2.54235952 2.17564031
    endloop
  endfacet
  facet normal 0.0312162848 0.267399467 -0.963079991
    outer loop
      vertex 1.99866677 2.5793018 2.05097134
      vertex 2.00163224 2.5781218 2.05073984
      vertex 2.00094792 2.57712145 2.05043991
    endloop
  endfacet
  facet normal -0.0312162848 -0.267399467 0.963079991
    outer loop
      vertex 1.99460865 2.54453987 2.17617174
      vertex 1.99688981 2.54235952 2.17564031
      vertex 1.99757412 2.54335987 2.17594024
    endloop
  endfacet
  facet normal 0.981960481 -0.187986257 -0.0203661866
    outer loop
      vertex 2.00163224 2.5781218 2.05073984
      vertex 2.00186509 2.5793018 2.05107501
      vertex 1.99780697 2.54453987 2.17627541
    endloop
  endfacet
  facet normal 0.981960481 -0.187986257 -0.0203661866
    outer loop
      vertex 2.00163224 2.5781218 2.05073984
      vertex 1.99780697 2.54453987 2.17627541
      vertex 1.99757412 2.54335987 2.17594024
    endloop
  endfacet
  facet normal 0.0312162848 0.267399467 -0.963079991
    outer loop
      vertex 1.99866677 2.5793018 2.05097134
      vertex 2.00186509 2.5793018 2.05107501
      vertex 2.00163224 2.5781218 2.05073984
    endloop
  endfacet
  facet normal -0.0312162848 -0.267399467 0.963079991
    outer loop
      vertex 1.99460865 2.54453987 2.17617174
      vertex 1.99757412 2.54335987 2.17594024
      vertex 1.99780697 2.54453987 2.17627541
    endloop
  endfacet
  facet normal 0.978580478 0.187986257 0.0839131458
    outer loop
      vertex 2.00186509 2.5793018 2.05107501
      vertex 2.00161102 2.58048179 2.0513944
      vertex 1.99755291 2.54571986 2.1765948
    endloop
  endfacet
  facet normal 0.978580478 0.187986257 0.0839131458
    outer loop
      vertex 2.00186509 2.5793018 2.05107501
      vertex 1.99755291 2.54571986 2.1765948
      vertex 1.99780697 2.54453987 2.17627541
    endloop
  endfacet
  facet normal 0.0312162848 0.267399467 -0.963079991
    outer loop
      vertex 1.99866677 2.5793018 2.05097134
      vertex 2.00161102 2.58048179 2.0513944
      vertex 2.00186509 2.5793018 2.05107501
    endloop
  endfacet
  facet normal -0.0312162848 -0.267399467 0.963079991
    outer loop
      vertex 1.99460865 2.54453987 2.17617174
      vertex 1.99780697 2.54453987 2.17627541
      vertex 1.99755291 2.54571986 2.1765948
    endloop
  endfacet
  facet normal 0.826220468 0.535339568 0.175417463
    outer loop
      vertex 2.00161102 2.58048179 2.0513944
      vertex 2.00090872 2.58148214 2.05164939
      vertex 1.9968506 2.54672021 2.17684979
    endloop
  endfacet
  facet normal 0.826220468 0.535339568 0.175417463
    outer loop
      vertex 2.00161102 2.58048179 2.0513944
      vertex 1.9968506 2.54672021 2.17684979
      vertex 1.99755291 2.54571986 2.1765948
    endloop
  endfacet
  facet normal 0.0312162848 0.267399467 -0.963079991
    outer loop
      vertex 1.99866677 2.5793018 2.05097134
      vertex 2.00090872 2.58148214 2.05164939
      vertex 2.00161102 2.58048179 2.0513944
    endloop
  endfacet
  facet normal -0.0312162848 -0.267399467 0.963079991
    outer loop
      vertex 1.99460865 2.54453987 2.17617174
      vertex 1.99755291 2.54571986 2.1765948
      vertex 1.9968506 2.54672021 2.17684979
    endloop
  endfacet
  facet normal 0.548075881 0.801192282 0.240216061
    outer loop
      vertex 2.00090872 2.58148214 2.05164939
      vertex 1.9998651 2.58215056 2.05180115
      vertex 1.99580698 2.54738863 2.17700154
    endloop
  endfacet
  facet normal 0.548075881 0.801192282 0.240216061
    outer loop
      vertex 2.00090872 2.58148214 2.05164939
      vertex 1.99580698 2.54738863 2.17700154
      vertex 1.9968506 2.54672021 2.17684979
    endloop
  endfacet
  facet normal 0.0312162848 0.267399467 -0.963079991
    outer loop
      vertex 1.99866677 2.5793018 2.05097134
      vertex 1.9998651 2.58215056 2.05180115
      vertex 2.00090872 2.58148214 2.05164939
    endloop
  endfacet
  facet normal -0.0312162848 -0.267399467 0.963079991
    outer loop
      vertex 1.99460865 2.54453987 2.17617174
      vertex 1.9968506 2.54672021 2.17684979
      vertex 1.99580698 2.54738863 2.17700154
    endloop
  endfacet
  facet normal 0.18649171 0.945070734 0.268443941
    outer loop
      vertex 1.9998651 2.58215056 2.05180115
      vertex 1.99863905 2.58238527 2.05182657
      vertex 1.99458093 2.54762334 2.17702697
    endloop
  endfacet
  facet normal 0.18649171 0.945070734 0.268443941
    outer loop
      vertex 1.9998651 2.58215056 2.05180115
      vertex 1.99458093 2.54762334 2.17702697
      vertex 1.99580698 2.54738863 2.17700154
    endloop
  endfacet
  facet normal 0.0312162848 0.267399467 -0.963079991
    outer loop
      vertex 1.99866677 2.5793018 2.05097134
      vertex 1.99863905 2.58238527 2.05182657
      vertex 1.9998651 2.58215056 2.05180115
    endloop
  endfacet
  facet normal -0.0312162848 -0.267399467 0.963079991
    outer loop
      vertex 1.99460865 2.54453987 2.17617174
      vertex 1.99580698 2.54738863 2.17700154
      vertex 1.99458093 2.54762334 2.17702697
    endloop
  endfacet
  facet normal -0.203484133 0.945070734 0.255803665
    outer loop
      vertex 1.99863905 2.58238527 2.05182657
      vertex 1.99741721 2.58215056 2.0517218
      vertex 1.9933591 2.54738863 2.1769222
    endloop
  endfacet
  facet normal -0.203484133 0.945070734 0.255803665
    outer loop
      vertex 1.99863905 2.58238527 2.05182657
      vertex 1.9933591 2.54738863 2.1769222
      vertex 1.99458093 2.54762334 2.17702697
    endloop
  endfacet
  facet normal 0.0312162848 0.267399467 -0.963079991
    outer loop
      vertex 1.99866677 2.5793018 2.05097134
      vertex 1.99741721 2.58215056 2.0517218
      vertex 1.99863905 2.58238527 2.05182657
    endloop
  endfacet
  facet normal -0.0312162848 -0.267399467 0.963079991
    outer loop
      vertex 1.99460865 2.54453987 2.17617174
      vertex 1.99458093 2.54762334 2.17702697
      vertex 1.9933591 2.54738863 2.1769222
    endloop
  endfacet
  facet normal -0.562481362 0.801192282 0.2042196
    outer loop
      vertex 1.99741721 2.58215056 2.0517218
      vertex 1.99638561 2.58148214 2.05150278
      vertex 1.9923275 2.54672021 2.17670318
    endloop
  endfacet
  facet normal -0.562481362 0.801192282 0.2042196
    outer loop
      vertex 1.99741721 2.58215056 2.0517218
      vertex 1.9923275 2.54672021 2.17670318
      vertex 1.9933591 2.54738863 2.1769222
    endloop
  endfacet
  facet normal 0.0312162848 0.267399467 -0.963079991
    outer loop
      vertex 1.99866677 2.5793018 2.05097134
      vertex 1.99638561 2.58148214 2.05150278
      vertex 1.99741721 2.58215056 2.0517218
    endloop
  endfacet
  facet normal -0.0312162848 -0.267399467 0.963079991
    outer loop
      vertex 1.99460865 2.54453987 2.17617174
      vertex 1.9933591 2.54738863 2.1769222
      vertex 1.9923275 2.54672021 2.17670318
    endloop
  endfacet
  facet normal -0.835845902 0.535339568 0.121544952
    outer loop
      vertex 1.99638561 2.58148214 2.05150278
      vertex 1.9957013 2.58048179 2.05120285
      vertex 1.99164318 2.54571986 2.17640325
    endloop
  endfacet
  facet normal -0.835845902 0.535339568 0.121544952
    outer loop
      vertex 1.99638561 2.58148214 2.05150278
      vertex 1.99164318 2.54571986 2.17640325
      vertex 1.9923275 2.54672021 2.17670318
    endloop
  endfacet
  facet normal 0.0312162848 0.267399467 -0.963079991
    outer loop
      vertex 1.99866677 2.5793018 2.05097134
      vertex 1.9957013 2.58048179 2.05120285
      vertex 1.99638561 2.58148214 2.05150278
    endloop
  endfacet
  facet normal -0.0312162848 -0.267399467 0.963079991
    outer loop
      vertex 1.99460865 2.54453987 2.17617174
      vertex 1.9923275 2.54672021 2.17670318
      vertex 1.99164318 2.54571986 2.17640325
    endloop
  endfacet
  facet normal -0.981960481 0.187986257 0.0203661866
    outer loop
      vertex 1.9957013 2.58048179 2.05120285
      vertex 1.99546845 2.5793018 2.05086768
      vertex 1.99141033 2.54453987 2.17606808
    endloop
  endfacet
  facet normal -0.981960481 0.187986257 0.0203661866
    outer loop
      vertex 1.9957013 2.58048179 2.05120285
      vertex 1.99141033 2.54453987 2.17606808
      vertex 1.99164318 2.54571986 2.17640325
    endloop
  endfacet
  facet normal 0.0312162848 0.267399467 -0.963079991
    outer loop
      vertex 1.99866677 2.5793018 2.05097134
      vertex 1.99546845 2.5793018 2.05086768
      vertex 1.9957013 2.58048179 2.05120285
    endloop
  endfacet
  facet normal -0.0312162848 -0.267399467 0.963079991
    outer loop
      vertex 1.99460865 2.54453987 2.17617174
      vertex 1.99164318 2.54571986 2.17640325
      vertex 1.99141033 2.54453987 2.17606808
    endloop
  endfacet
  facet normal -0.978580478 -0.187986257 -0.0839131458
    outer loop
      vertex 1.98066349 2.60456287 2.05740155
      vertex 1.98091755 2.60338287 2.05708216
      vertex 1.97685943 2.56862094 2.18228256
    endloop
  endfacet
  facet normal -0.978580478 -0.187986257 -0.0839131458
    outer loop
      vertex 1.98066349 2.60456287 2.05740155
      vertex 1.97685943 2.56862094 2.18228256
      vertex 1.97660537 2.56980094 2.18260195
    endloop
  endfacet
  facet normal 0.0312162848 0.267399467 -0.963079991
    outer loop
      vertex 1.98386181 2.60456287 2.05750522
      vertex 1.98091755 2.60338287 2.05708216
      vertex 1.98066349 2.60456287 2.05740155
    endloop
  endfacet
  facet normal -0.0312162848 -0.267399467 0.963079991
    outer loop
      vertex 1.97980369 2.56980094 2.18270562
      vertex 1.97660537 2.56980094 2.18260195
      vertex 1.97685943 2.56862094 2.18228256
    endloop
  endfacet
  facet normal -0.826220468 -0.535339568 -0.175417463
    outer loop
      vertex 1.98091755 2.60338287 2.05708216
      vertex 1.98161985 2.60238252 2.05682717
      vertex 1.97756174 2.56762059 2.18202757
    endloop
  endfacet
  facet normal -0.826220468 -0.535339568 -0.175417463
    outer loop
      vertex 1.98091755 2.60338287 2.05708216
      vertex 1.97756174 2.56762059 2.18202757
      vertex 1.97685943 2.56862094 2.18228256
    endloop
  endfacet
  facet normal 0.0312162848 0.267399467 -0.963079991
    outer loop
      vertex 1.98386181 2.60456287 2.05750522
      vertex 1.98161985 2.60238252 2.05682717
      vertex 1.98091755 2.60338287 2.05708216
    endloop
  endfacet
  facet normal -0.0312162848 -0.267399467 0.963079991
    outer loop
      vertex 1.97980369 2.56980094 2.18270562
      vertex 1.97685943 2.56862094 2.18228256
      vertex 1.97756174 2.56762059 2.18202757
    endloop
  endfacet
  facet normal -0.548075881 -0.801192282 -0.240216061
    outer loop
      vertex 1.98161985 2.60238252 2.05682717
      vertex 1.98266347 2.60171411 2.05667542
      vertex 1.97860536 2.56695218 2.18187581
    endloop
  endfacet
  facet normal -0.548075881 -0.801192282 -0.240216061
    outer loop
      vertex 1.98161985 2.60238252 2.05682717
      vertex 1.97860536 2.56695218 2.18187581
      vertex 1.97756174 2.56762059 2.18202757
    endloop
  endfacet
  facet normal 0.0312162848 0.267399467 -0.963079991
    outer loop
      vertex 1.98386181 2.60456287 2.05750522
      vertex 1.98266347 2.60171411 2.05667542
      vertex 1.98161985 2.60238252 2.05682717
    endloop
  endfacet
  facet normal -0.0312162848 -0.267399467 0.963079991
    outer loop
      vertex 1.97980369 2.56980094 2.18270562
      vertex 1.97756174 2.56762059 2.18202757
      vertex 1.97860536 2.56695218 2.18187581
    endloop
  endfacet
  facet normal -0.18649171 -0.945070734 -0.268443941
    outer loop
      vertex 1.98266347 2.60171411 2.05667542
      vertex 1.98388953 2.60147939 2.05664999
      vertex 1.97983141 2.56671746 2.18185039
    endloop
  endfacet
  facet normal -0.18649171 -0.945070734 -0.268443941
    outer loop
      vertex 1.98266347 2.60171411 2.05667542
      vertex 1.97983141 2.56671746 2.18185039
      vertex 1.97860536 2.56695218 2.18187581
    endloop
  endfacet
  facet normal 0.0312162848 0.267399467 -0.963079991
    outer loop
      vertex 1.98386181 2.60456287 2.05750522
      vertex 1.98388953 2.60147939 2.05664999
      vertex 1.98266347 2.60171411 2.05667542
    endloop
  endfacet
  facet normal -0.0312162848 -0.267399467 0.963079991
    outer loop
      vertex 1.97980369 2.56980094 2.18270562
      vertex 1.97860536 2.56695218 2.18187581
      vertex 1.97983141 2.56671746 2.18185039
    endloop
  endfacet
  facet normal 0.203484133 -0.945070734 -0.255803665
    outer loop
      vertex 1.98388953 2.60147939 2.05664999
      vertex 1.98511136 2.60171411 2.05675476
      vertex 1.98105324 2.56695218 2.18195516
    endloop
  endfacet
  facet normal 0.203484133 -0.945070734 -0.255803665
    outer loop
      vertex 1.98388953 2.60147939 2.05664999
      vertex 1.98105324 2.56695218 2.18195516
      vertex 1.97983141 2.56671746 2.18185039
    endloop
  endfacet
  facet normal 0.0312162848 0.267399467 -0.963079991
    outer loop
      vertex 1.98386181 2.60456287 2.05750522
      vertex 1.98511136 2.60171411 2.05675476
      vertex 1.98388953 2.60147939 2.05664999
    endloop
  endfacet
  facet normal -0.0312162848 -0.267399467 0.963079991
    outer loop
      vertex 1.97980369 2.56980094 2.18270562
      vertex 1.97983141 2.56671746 2.18185039
      vertex 1.98105324 2.56695218 2.18195516
    endloop
  endfacet
  facet normal 0.562481362 -0.801192282 -0.2042196
    outer loop
      vertex 1.98511136 2.60171411 2.05675476
      vertex 1.98614296 2.60238252 2.05697378
      vertex 1.98208484 2.56762059 2.18217418
    endloop
  endfacet
  facet normal 0.562481362 -0.801192282 -0.2042196
    outer loop
      vertex 1.98511136 2.60171411 2.05675476
      vertex 1.98208484 2.56762059 2.18217418
      vertex 1.98105324 2.56695218 2.18195516
    endloop
  endfacet
  facet normal 0.0312162848 0.267399467 -0.963079991
    outer loop
      vertex 1.98386181 2.60456287 2.05750522
      vertex 1.98614296 2.60238252 2.05697378
      vertex 1.98511136 2.60171411 2.05675476
    endloop
  endfacet
  facet normal -0.0312162848 -0.267399467 0.963079991
    outer loop
      vertex 1.97980369 2.56980094 2.18270562
      vertex 1.98105324 2.56695218 2.18195516
      vertex 1.98208484 2.56762059 2.18217418
    endloop
  endfacet
  facet normal 0.835845902 -0.535339568 -0.121544952
    outer loop
      vertex 1.98614296 2.60238252 2.05697378
      vertex 1.98682728 2.60338287 2.05727371
      vertex 1.98276916 2.56862094 2.18247411
    endloop
  endfacet
  facet normal 0.835845902 -0.535339568 -0.121544952
    outer loop
      vertex 1.98614296 2.60238252 2.05697378
      vertex 1.98276916 2.56862094 2.18247411
      vertex 1.98208484 2.56762059 2.18217418
    endloop
  endfacet
  facet normal 0.0312162848 0.267399467 -0.963079991
    outer loop
      vertex 1.98386181 2.60456287 2.05750522
      vertex 1.98682728 2.60338287 2.05727371
      vertex 1.98614296 2.60238252 2.05697378
    endloop
  endfacet
  facet normal -0.0312162848 -0.267399467 0.963079991
    outer loop
      vertex 1.97980369 2.56980094 2.18270562
      vertex 1.98208484 2.56762059 2.18217418
      vertex 1.98276916 2.56862094 2.18247411
    endloop
  endfacet
  facet normal 0.981960481 -0.187986257 -0.0203661866
    outer loop
      vertex 1.98682728 2.60338287 2.05727371
      vertex 1.98706013 2.60456287 2.05760888
      vertex 1.98300201 2.56980094 2.18280928
    endloop
  endfacet
  facet normal 0.981960481 -0.187986257 -0.0203661866
    outer loop
      vertex 1.98682728 2.60338287 2.05727371
      vertex 1.98300201 2.56980094 2.18280928
      vertex 1.98276916 2.56862094 2.18247411
    endloop
  endfacet
  facet normal 0.0312162848 0.267399467 -0.963079991
    outer loop
      vertex 1.98386181 2.60456287 2.05750522
      vertex 1.98706013 2.60456287 2.05760888
      vertex 1.98682728 2.60338287 2.05727371
    endloop
  endfacet
  facet normal -0.0312162848 -0.267399467 0.963079991
    outer loop
      vertex 1.97980369 2.56980094 2.18270562
      vertex 1.98276916 2.56862094 2.18247411
      vertex 1.98300201 2.56980094 2.18280928
    endloop
  endfacet
  facet normal 0.978580478 0.187986257 0.0839131458
    outer loop
      vertex 1.98706013 2.60456287 2.05760888
      vertex 1.98680606 2.60574286 2.05792827
      vertex 1.98274794 2.57098093 2.18312867
    endloop
  endfacet
  facet normal 0.978580478 0.187986257 0.0839131458
    outer loop
      vertex 1.98706013 2.60456287 2.05760888
      vertex 1.98274794 2.57098093 2.18312867
      vertex 1.98300201 2.56980094 2.18280928
    endloop
  endfacet
  facet normal 0.0312162848 0.267399467 -0.963079991
    outer loop
      vertex 1.98386181 2.60456287 2.05750522
      vertex 1.98680606 2.60574286 2.05792827
      vertex 1.98706013 2.60456287 2.05760888
    endloop
  endfacet
  facet normal -0.0312162848 -0.267399467 0.963079991
    outer loop
      vertex 1.97980369 2.56980094 2.18270562
      vertex 1.98300201 2.56980094 2.18280928
      vertex 1.98274794 2.57098093 2.18312867
    endloop
  endfacet
  facet normal 0.826220468 0.535339568 0.175417463
    outer loop
      vertex 1.98680606 2.60574286 2.05792827
      vertex 1.98610376 2.60674321 2.05818326
      vertex 1.98204564 2.57198128 2.18338366
    endloop
  endfacet
  facet normal 0.826220468 0.535339568 0.175417463
    outer loop
      vertex 1.98680606 2.60574286 2.05792827
      vertex 1.98204564 2.57198128 2.18338366
      vertex 1.98274794 2.57098093 2.18312867
    endloop
  endfacet
  facet normal 0.0312162848 0.267399467 -0.963079991
    outer loop
      vertex 1.98386181 2.60456287 2.05750522
      vertex 1.98610376 2.60674321 2.05818326
      vertex 1.98680606 2.60574286 2.05792827
    endloop
  endfacet
  facet normal -0.0312162848 -0.267399467 0.963079991
    outer loop
      vertex 1.97980369 2.56980094 2.18270562
      vertex 1.98274794 2.57098093 2.18312867
      vertex 1.98204564 2.57198128 2.18338366
    endloop
  endfacet
  facet normal 0.548075881 0.801192282 0.240216061
    outer loop
      vertex 1.98610376 2.60674321 2.05818326
      vertex 1.98506014 2.60741163 2.05833502
      vertex 1.98100202 2.57264969 2.18353542
    endloop
  endfacet
  facet normal 0.548075881 0.801192282 0.240216061
    outer loop
      vertex 1.98610376 2.60674321 2.05818326
      vertex 1.98100202 2.57264969 2.18353542
      vertex 1.98204564 2.57198128 2.18338366
    endloop
  endfacet
  facet normal 0.0312162848 0.267399467 -0.963079991
    outer loop
      vertex 1.98386181 2.60456287 2.05750522
      vertex 1.98506014 2.60741163 2.05833502
      vertex 1.98610376 2.60674321 2.05818326
    endloop
  endfacet
  facet normal -0.0312162848 -0.267399467 0.963079991
    outer loop
      vertex 1.97980369 2.56980094 2.18270562
      vertex 1.98204564 2.57198128 2.18338366
      vertex 1.98100202 2.57264969 2.18353542
    endloop
  endfacet
  facet normal 0.18649171 0.945070734 0.268443941
    outer loop
      vertex 1.98506014 2.60741163 2.05833502
      vertex 1.98383409 2.60764634 2.05836045
      vertex 1.97977597 2.57288441 2.18356084
    endloop
  endfacet
  facet normal 0.18649171 0.945070734 0.268443941
    outer loop
      vertex 1.98506014 2.60741163 2.05833502
      vertex 1.97977597 2.57288441 2.18356084
      vertex 1.98100202 2.57264969 2.18353542
    endloop
  endfacet
  facet normal 0.0312162848 0.267399467 -0.963079991
    outer loop
      vertex 1.98386181 2.60456287 2.05750522
      vertex 1.98383409 2.60764634 2.05836045
      vertex 1.98506014 2.60741163 2.05833502
    endloop
  endfacet
  facet normal -0.0312162848 -0.267399467 0.963079991
    outer loop
      vertex 1.97980369 2.56980094 2.18270562
      vertex 1.98100202 2.57264969 2.18353542
      vertex 1.97977597 2.57288441 2.18356084
    endloop
  endfacet
  facet normal -0.203484133 0.945070734 0.255803665
    outer loop
      vertex 1.98383409 2.60764634 2.05836045
      vertex 1.98261225 2.60741163 2.05825567
      vertex 1.97855413 2.57264969 2.18345607
    endloop
  endfacet
  facet normal -0.203484133 0.945070734 0.255803665
    outer loop
      vertex 1.98383409 2.60764634 2.05836045
      vertex 1.97855413 2.57264969 2.18345607
      vertex 1.97977597 2.57288441 2.18356084
    endloop
  endfacet
  facet normal 0.0312162848 0.267399467 -0.963079991
    outer loop
      vertex 1.98386181 2.60456287 2.05750522
      vertex 1.98261225 2.60741163 2.05825567
      vertex 1.98383409 2.60764634 2.05836045
    endloop
  endfacet
  facet normal -0.0312162848 -0.267399467 0.963079991
    outer loop
      vertex 1.97980369 2.56980094 2.18270562
      vertex 1.97977597 2.57288441 2.18356084
      vertex 1.97855413 2.57264969 2.18345607
    endloop
  endfacet
  facet normal -0.562481362 0.801192282 0.2042196
    outer loop
      vertex 1.98261225 2.60741163 2.05825567
      vertex 1.98158065 2.60674321 2.05803665
      vertex 1.97752253 2.57198128 2.18323705
    endloop
  endfacet
  facet normal -0.562481362 0.801192282 0.2042196
    outer loop
      vertex 1.98261225 2.60741163 2.05825567
      vertex 1.97752253 2.57198128 2.18323705
      vertex 1.97855413 2.57264969 2.18345607
    endloop
  endfacet
  facet normal 0.0312162848 0.267399467 -0.963079991
    outer loop
      vertex 1.98386181 2.60456287 2.05750522
      vertex 1.98158065 2.60674321 2.05803665
      vertex 1.98261225 2.60741163 2.05825567
    endloop
  endfacet
  facet normal -0.0312162848 -0.267399467 0.963079991
    outer loop
      vertex 1.97980369 2.56980094 2.18270562
      vertex 1.97855413 2.57264969 2.18345607
      vertex 1.97752253 2.57198128 2.18323705
    endloop
  endfacet
  facet normal -0.835845902 0.535339568 0.121544952
    outer loop
      vertex 1.98158065 2.60674321 2.05803665
      vertex 1.98089634 2.60574286 2.05773672
      vertex 1.97683822 2.57098093 2.18293712
    endloop
  endfacet
  facet normal -0.835845902 0.535339568 0.121544952
    outer loop
      vertex 1.98158065 2.60674321 2.05803665
      vertex 1.97683822 2.57098093 2.18293712
      vertex 1.97752253 2.57198128 2.18323705
    endloop
  endfacet
  facet normal 0.0312162848 0.267399467 -0.963079991
    outer loop
      vertex 1.98386181 2.60456287 2.05750522
      vertex 1.98089634 2.60574286 2.05773672
      vertex 1.98158065 2.60674321 2.05803665
    endloop
  endfacet
  facet normal -0.0312162848 -0.267399467 0.963079991
    outer loop
      vertex 1.97980369 2.56980094 2.18270562
      vertex 1.97752253 2.57198128 2.18323705
      vertex 1.97683822 2.57098093 2.18293712
    endloop
  endfacet
  facet normal -0.981960481 0.187986257 0.0203661866
    outer loop
      vertex 1.98089634 2.60574286 2.05773672
      vertex 1.98066349 2.60456287 2.05740155
      vertex 1.97660537 2.56980094 2.18260195
    endloop
  endfacet
  facet normal -0.981960481 0.187986257 0.0203661866
    outer loop
      vertex 1.98089634 2.60574286 2.05773672
      vertex 1.97660537 2.56980094 2.18260195
      vertex 1.97683822 2.57098093 2.18293712
    endloop
  endfacet
  facet normal 0.0312162848 0.267399467 -0.963079991
    outer loop
      vertex 1.98386181 2.60456287 2.05750522
      vertex 1.98066349 2.60456287 2.05740155
      vertex 1.98089634 2.60574286 2.05773672
    endloop
  endfacet
  facet normal -0.0312162848 -0.267399467 0.963079991
    outer loop
      vertex 1.97980369 2.56980094 2.18270562
      vertex 1.97683822 2.57098093 2.18293712
      vertex 1.97660537 2.56980094 2.18260195
    endloop
  endfacet
  facet normal 0.864884986 0.463080637 -0.193727348
    outer loop
      vertex 2.04863296 2.62946528 2.13315074
      vertex 2.04835038 2.62948432 2.13193471
      vertex 1.98114226 2.76241205 2.14963467
    endloop
  endfacet
  facet normal 0.864884986 0.463080637 -0.193727348
    outer loop
      vertex 2.04863296 2.62946528 2.13315074
      vertex 1.98114226 2.76241205 2.14963467
      vertex 1.98142484 2.762393 2.1508507
    endloop
  endfacet
  facet normal 0.448054107 -0.886184847 -0.117999722
    outer loop
      vertex 2.04577721 2.62802141 2.13315074
      vertex 2.04835038 2.62948432 2.13193471
      vertex 2.04863296 2.62946528 2.13315074
    endloop
  endfacet
  facet normal -0.448054107 0.886184847 0.117999722
    outer loop
      vertex 1.9785691 2.76094914 2.1508507
      vertex 1.98142484 2.762393 2.1508507
      vertex 1.98114226 2.76241205 2.14963467
    endloop
  endfacet
  facet normal 0.712439999 0.433668884 -0.551688813
    outer loop
      vertex 2.04835038 2.62948432 2.13193471
      vertex 2.04767606 2.62928066 2.13090381
      vertex 1.98046794 2.76220838 2.14860377
    endloop
  endfacet
  facet normal 0.712439999 0.433668884 -0.551688813
    outer loop
      vertex 2.04835038 2.62948432 2.13193471
      vertex 1.98046794 2.76220838 2.14860377
      vertex 1.98114226 2.76241205 2.14963467
    endloop
  endfacet
  facet normal 0.448054107 -0.886184847 -0.117999722
    outer loop
      vertex 2.04577721 2.62802141 2.13315074
      vertex 2.04767606 2.62928066 2.13090381
      vertex 2.04835038 2.62948432 2.13193471
    endloop
  endfacet
  facet normal -0.448054107 0.886184847 0.117999722
    outer loop
      vertex 1.9785691 2.76094914 2.1508507
      vertex 1.98114226 2.76241205 2.14963467
      vertex 1.98046794 2.76220838 2.14860377
    endloop
  endfacet
  facet normal 0.451532481 0.338234976 -0.825660656
    outer loop
      vertex 2.04767606 2.62928066 2.13090381
      vertex 2.04671265 2.62888528 2.13021498
      vertex 1.97950454 2.76181301 2.14791494
    endloop
  endfacet
  facet normal 0.451532481 0.338234976 -0.825660656
    outer loop
      vertex 2.04767606 2.62928066 2.13090381
      vertex 1.97950454 2.76181301 2.14791494
      vertex 1.98046794 2.76220838 2.14860377
    endloop
  endfacet
  facet normal 0.448054107 -0.886184847 -0.117999722
    outer loop
      vertex 2.04577721 2.62802141 2.13315074
      vertex 2.04671265 2.62888528 2.13021498
      vertex 2.04767606 2.62928066 2.13090381
    endloop
  endfacet
  facet normal -0.448054107 0.886184847 0.117999722
    outer loop
      vertex 1.9785691 2.76094914 2.1508507
      vertex 1.98046794 2.76220838 2.14860377
      vertex 1.97950454 2.76181301 2.14791494
    endloop
  endfacet
  facet normal 0.121883236 0.191307858 -0.97393315
    outer loop
      vertex 2.04671265 2.62888528 2.13021498
      vertex 2.04560684 2.62835839 2.1299731
      vertex 1.97839872 2.76128612 2.14767306
    endloop
  endfacet
  facet normal 0.121883236 0.191307858 -0.97393315
    outer loop
      vertex 2.04671265 2.62888528 2.13021498
      vertex 1.97839872 2.76128612 2.14767306
      vertex 1.97950454 2.76181301 2.14791494
    endloop
  endfacet
  facet normal 0.448054107 -0.886184847 -0.117999722
    outer loop
      vertex 2.04577721 2.62802141 2.13315074
      vertex 2.04560684 2.62835839 2.1299731
      vertex 2.04671265 2.62888528 2.13021498
    endloop
  endfacet
  facet normal -0.448054107 0.886184847 0.117999722
    outer loop
      vertex 1.9785691 2.76094914 2.1508507
      vertex 1.97950454 2.76181301 2.14791494
      vertex 1.97839872 2.76128612 2.14767306
    endloop
  endfacet
  facet normal -0.226321627 0.0152558536 -0.97393315
    outer loop
      vertex 2.04560684 2.62835839 2.1299731
      vertex 2.04452696 2.6277802 2.13021498
      vertex 1.97731885 2.76070793 2.14791494
    endloop
  endfacet
  facet normal -0.226321627 0.0152558536 -0.97393315
    outer loop
      vertex 2.04560684 2.62835839 2.1299731
      vertex 1.97731885 2.76070793 2.14791494
      vertex 1.97839872 2.76128612 2.14767306
    endloop
  endfacet
  facet normal 0.448054107 -0.886184847 -0.117999722
    outer loop
      vertex 2.04577721 2.62802141 2.13315074
      vertex 2.04452696 2.6277802 2.13021498
      vertex 2.04560684 2.62835839 2.1299731
    endloop
  endfacet
  facet normal -0.448054107 0.886184847 0.117999722
    outer loop
      vertex 1.9785691 2.76094914 2.1508507
      vertex 1.97839872 2.76128612 2.14767306
      vertex 1.97731885 2.76070793 2.14791494
    endloop
  endfacet
  facet normal -0.540071074 -0.163118717 -0.825660656
    outer loop
      vertex 2.04452696 2.6277802 2.13021498
      vertex 2.04363743 2.62723873 2.13090381
      vertex 1.97642931 2.76016646 2.14860377
    endloop
  endfacet
  facet normal -0.540071074 -0.163118717 -0.825660656
    outer loop
      vertex 2.04452696 2.6277802 2.13021498
      vertex 1.97642931 2.76016646 2.14860377
      vertex 1.97731885 2.76070793 2.14791494
    endloop
  endfacet
  facet normal 0.448054107 -0.886184847 -0.117999722
    outer loop
      vertex 2.04577721 2.62802141 2.13315074
      vertex 2.04363743 2.62723873 2.13090381
      vertex 2.04452696 2.6277802 2.13021498
    endloop
  endfacet
  facet normal -0.448054107 0.886184847 0.117999722
    outer loop
      vertex 1.9785691 2.76094914 2.1508507
      vertex 1.97731885 2.76070793 2.14791494
      vertex 1.97642931 2.76016646 2.14860377
    endloop
  endfacet
  facet normal -0.771599596 -0.316659941 -0.551688813
    outer loop
      vertex 2.04363743 2.62723873 2.13090381
      vertex 2.04307365 2.62681642 2.13193471
      vertex 1.97586554 2.75974414 2.14963467
    endloop
  endfacet
  facet normal -0.771599596 -0.316659941 -0.551688813
    outer loop
      vertex 2.04363743 2.62723873 2.13090381
      vertex 1.97586554 2.75974414 2.14963467
      vertex 1.97642931 2.76016646 2.14860377
    endloop
  endfacet
  facet normal 0.448054107 -0.886184847 -0.117999722
    outer loop
      vertex 2.04577721 2.62802141 2.13315074
      vertex 2.04307365 2.62681642 2.13193471
      vertex 2.04363743 2.62723873 2.13090381
    endloop
  endfacet
  facet normal -0.448054107 0.886184847 0.117999722
    outer loop
      vertex 1.9785691 2.76094914 2.1508507
      vertex 1.97642931 2.76016646 2.14860377
      vertex 1.97586554 2.75974414 2.14963467
    endloop
  endfacet
  facet normal -0.885659073 -0.42199256 -0.193727348
    outer loop
      vertex 2.04307365 2.62681642 2.13193471
      vertex 2.04292147 2.62657755 2.13315074
      vertex 1.97571336 2.75950528 2.1508507
    endloop
  endfacet
  facet normal -0.885659073 -0.42199256 -0.193727348
    outer loop
      vertex 2.04307365 2.62681642 2.13193471
      vertex 1.97571336 2.75950528 2.1508507
      vertex 1.97586554 2.75974414 2.14963467
    endloop
  endfacet
  facet normal 0.448054107 -0.886184847 -0.117999722
    outer loop
      vertex 2.04577721 2.62802141 2.13315074
      vertex 2.04292147 2.62657755 2.13315074
      vertex 2.04307365 2.62681642 2.13193471
    endloop
  endfacet
  facet normal -0.448054107 0.886184847 0.117999722
    outer loop
      vertex 1.9785691 2.76094914 2.1508507
      vertex 1.97586554 2.75974414 2.14963467
      vertex 1.97571336 2.75950528 2.1508507
    endloop
  endfacet
  facet normal -0.864884986 -0.463080637 0.193727348
    outer loop
      vertex 2.04292147 2.62657755 2.13315074
      vertex 2.04320405 2.62655851 2.13436677
      vertex 1.97599594 2.75948623 2.15206673
    endloop
  endfacet
  facet normal -0.864884986 -0.463080637 0.193727348
    outer loop
      vertex 2.04292147 2.62657755 2.13315074
      vertex 1.97599594 2.75948623 2.15206673
      vertex 1.97571336 2.75950528 2.1508507
    endloop
  endfacet
  facet normal 0.448054107 -0.886184847 -0.117999722
    outer loop
      vertex 2.04577721 2.62802141 2.13315074
      vertex 2.04320405 2.62655851 2.13436677
      vertex 2.04292147 2.62657755 2.13315074
    endloop
  endfacet
  facet normal -0.448054107 0.886184847 0.117999722
    outer loop
      vertex 1.9785691 2.76094914 2.1508507
      vertex 1.97571336 2.75950528 2.1508507
      vertex 1.97599594 2.75948623 2.15206673
    endloop
  endfacet
  facet normal -0.712439999 -0.433668884 0.551688813
    outer loop
      vertex 2.04320405 2.62655851 2.13436677
      vertex 2.04387837 2.62676217 2.13539768
      vertex 1.97667026 2.7596899 2.15309763
    endloop
  endfacet
  facet normal -0.712439999 -0.433668884 0.551688813
    outer loop
      vertex 2.04320405 2.62655851 2.13436677
      vertex 1.97667026 2.7596899 2.15309763
      vertex 1.97599594 2.75948623 2.15206673
    endloop
  endfacet
  facet normal 0.448054107 -0.886184847 -0.117999722
    outer loop
      vertex 2.04577721 2.62802141 2.13315074
      vertex 2.04387837 2.62676217 2.13539768
      vertex 2.04320405 2.62655851 2.13436677
    endloop
  endfacet
  facet normal -0.448054107 0.886184847 0.117999722
    outer loop
      vertex 1.9785691 2.76094914 2.1508507
      vertex 1.97599594 2.75948623 2.15206673
      vertex 1.97667026 2.7596899 2.15309763
    endloop
  endfacet
  facet normal -0.451532481 -0.338234976 0.825660656
    outer loop
      vertex 2.04387837 2.62676217 2.13539768
      vertex 2.04484178 2.62715755 2.1360865
      vertex 1.97763366 2.76008527 2.15378646
    endloop
  endfacet
  facet normal -0.451532481 -0.338234976 0.825660656
    outer loop
      vertex 2.04387837 2.62676217 2.13539768
      vertex 1.97763366 2.76008527 2.15378646
      vertex 1.97667026 2.7596899 2.15309763
    endloop
  endfacet
  facet normal 0.448054107 -0.886184847 -0.117999722
    outer loop
      vertex 2.04577721 2.62802141 2.13315074
      vertex 2.04484178 2.62715755 2.1360865
      vertex 2.04387837 2.62676217 2.13539768
    endloop
  endfacet
  facet normal -0.448054107 0.886184847 0.117999722
    outer loop
      vertex 1.9785691 2.76094914 2.1508507
      vertex 1.97667026 2.7596899 2.15309763
      vertex 1.97763366 2.76008527 2.15378646
    endloop
  endfacet
  facet normal -0.121883236 -0.191307858 0.97393315
    outer loop
      vertex 2.04484178 2.62715755 2.1360865
      vertex 2.04594759 2.62768444 2.13632839
      vertex 1.97873947 2.76061216 2.15402834
    endloop
  endfacet
  facet normal -0.121883236 -0.191307858 0.97393315
    outer loop
      vertex 2.04484178 2.62715755 2.1360865
      vertex 1.97873947 2.76061216 2.15402834
      vertex 1.97763366 2.76008527 2.15378646
    endloop
  endfacet
  facet normal 0.448054107 -0.886184847 -0.117999722
    outer loop
      vertex 2.04577721 2.62802141 2.13315074
      vertex 2.04594759 2.62768444 2.13632839
      vertex 2.04484178 2.62715755 2.1360865
    endloop
  endfacet
  facet normal -0.448054107 0.886184847 0.117999722
    outer loop
      vertex 1.9785691 2.76094914 2.1508507
      vertex 1.97763366 2.76008527 2.15378646
      vertex 1.97873947 2.76061216 2.15402834
    endloop
  endfacet
  facet normal 0.226321627 -0.0152558536 0.97393315
    outer loop
      vertex 2.04594759 2.62768444 2.13632839
      vertex 2.04702747 2.62826263 2.1360865
      vertex 1.97981935 2.76119036 2.15378646
    endloop
  endfacet
  facet normal 0.226321627 -0.0152558536 0.97393315
    outer loop
      vertex 2.04594759 2.62768444 2.13632839
      vertex 1.97981935 2.76119036 2.15378646
      vertex 1.97873947 2.76061216 2.15402834
    endloop
  endfacet
  facet normal 0.448054107 -0.886184847 -0.117999722
    outer loop
      vertex 2.04577721 2.62802141 2.13315074
      vertex 2.04702747 2.62826263 2.1360865
      vertex 2.04594759 2.62768444 2.13632839
    endloop
  endfacet
  facet normal -0.448054107 0.886184847 0.117999722
    outer loop
      vertex 1.9785691 2.76094914 2.1508507
      vertex 1.97873947 2.76061216 2.15402834
      vertex 1.97981935 2.76119036 2.15378646
    endloop
  endfacet
  facet normal 0.540071074 0.163118717 0.825660656
    outer loop
      vertex 2.04702747 2.62826263 2.1360865
      vertex 2.047917 2.6288041 2.13539768
      vertex 1.98070889 2.76173183 2.15309763
    endloop
  endfacet
  facet normal 0.540071074 0.163118717 0.825660656
    outer loop
      vertex 2.04702747 2.62826263 2.1360865
      vertex 1.98070889 2.76173183 2.15309763
      vertex 1.97981935 2.76119036 2.15378646
    endloop
  endfacet
  facet normal 0.448054107 -0.886184847 -0.117999722
    outer loop
      vertex 2.04577721 2.62802141 2.13315074
      vertex 2.047917 2.6288041 2.13539768
      vertex 2.04702747 2.62826263 2.1360865
    endloop
  endfacet
  facet normal -0.448054107 0.886184847 0.117999722
    outer loop
      vertex 1.9785691 2.76094914 2.1508507
      vertex 1.97981935 2.76119036 2.15378646
      vertex 1.98070889 2.76173183 2.15309763
    endloop
  endfacet
  facet normal 0.771599596 0.316659941 0.551688813
    outer loop
      vertex 2.047917 2.6288041 2.13539768
      vertex 2.04848078 2.62922641 2.13436677
      vertex 1.98127266 2.76215414 2.15206673
    endloop
  endfacet
  facet normal 0.771599596 0.316659941 0.551688813
    outer loop
      vertex 2.047917 2.6288041 2.13539768
      vertex 1.98127266 2.76215414 2.15206673
      vertex 1.98070889 2.76173183 2.15309763
    endloop
  endfacet
  facet normal 0.448054107 -0.886184847 -0.117999722
    outer loop
      vertex 2.04577721 2.62802141 2.13315074
      vertex 2.04848078 2.62922641 2.13436677
      vertex 2.047917 2.6288041 2.13539768
    endloop
  endfacet
  facet normal -0.448054107 0.886184847 0.117999722
    outer loop
      vertex 1.9785691 2.76094914 2.1508507
      vertex 1.98070889 2.76173183 2.15309763
      vertex 1.98127266 2.76215414 2.15206673
    endloop
  endfacet
  facet normal 0.885659073 0.42199256 0.193727348
    outer loop
      vertex 2.04848078 2.62922641 2.13436677
      vertex 2.04863296 2.62946528 2.13315074
      vertex 1.98142484 2.762393 2.1508507
    endloop
  endfacet
  facet normal 0.885659073 0.42199256 0.193727348
    outer loop
      vertex 2.04848078 2.62922641 2.13436677
      vertex 1.98142484 2.762393 2.1508507
      vertex 1.98127266 2.76215414 2.15206673
    endloop
  endfacet
  facet normal 0.448054107 -0.886184847 -0.117999722
    outer loop
      vertex 2.04577721 2.62802141 2.13315074
      vertex 2.04863296 2.62946528 2.13315074
      vertex 2.04848078 2.62922641 2.13436677
    endloop
  endfacet
  facet normal -0.448054107 0.886184847 0.117999722
    outer loop
      vertex 1.9785691 2.76094914 2.1508507
      vertex 1.98127266 2.76215414 2.15206673
      vertex 1.98142484 2.762393 2.1508507
    endloop
  endfacet
  facet normal 0.864884986 0.463080637 -0.193727348
    outer loop
      vertex 2.05338508 2.63572313 2.10419808
      vertex 2.0531025 2.63574218 2.10298205
      vertex 1.98589439 2.7686699 2.12068201
    endloop
  endfacet
  facet normal 0.864884986 0.463080637 -0.193727348
    outer loop
      vertex 2.05338508 2.63572313 2.10419808
      vertex 1.98589439 2.7686699 2.12068201
      vertex 1.98617697 2.76865086 2.12189804
    endloop
  endfacet
  facet normal 0.448054107 -0.886184847 -0.117999722
    outer loop
      vertex 2.05052934 2.63427927 2.10419808
      vertex 2.0531025 2.63574218 2.10298205
      vertex 2.05338508 2.63572313 2.10419808
    endloop
  endfacet
  facet normal -0.448054107 0.886184847 0.117999722
    outer loop
      vertex 1.98332123 2.767207 2.12189804
      vertex 1.98617697 2.76865086 2.12189804
      vertex 1.98589439 2.7686699 2.12068201
    endloop
  endfacet
  facet normal 0.712439999 0.433668884 -0.551688813
    outer loop
      vertex 2.0531025 2.63574218 2.10298205
      vertex 2.05242818 2.63553851 2.10195115
      vertex 1.98522007 2.76846624 2.11965111
    endloop
  endfacet
  facet normal 0.712439999 0.433668884 -0.551688813
    outer loop
      vertex 2.0531025 2.63574218 2.10298205
      vertex 1.98522007 2.76846624 2.11965111
      vertex 1.98589439 2.7686699 2.12068201
    endloop
  endfacet
  facet normal 0.448054107 -0.886184847 -0.117999722
    outer loop
      vertex 2.05052934 2.63427927 2.10419808
      vertex 2.05242818 2.63553851 2.10195115
      vertex 2.0531025 2.63574218 2.10298205
    endloop
  endfacet
  facet normal -0.448054107 0.886184847 0.117999722
    outer loop
      vertex 1.98332123 2.767207 2.12189804
      vertex 1.98589439 2.7686699 2.12068201
      vertex 1.98522007 2.76846624 2.11965111
    endloop
  endfacet
  facet normal 0.451532481 0.338234976 -0.825660656
    outer loop
      vertex 2.05242818 2.63553851 2.10195115
      vertex 2.05146478 2.63514314 2.10126232
      vertex 1.98425666 2.76807086 2.11896228
    endloop
  endfacet
  facet normal 0.451532481 0.338234976 -0.825660656
    outer loop
      vertex 2.05242818 2.63553851 2.10195115
      vertex 1.98425666 2.76807086 2.11896228
      vertex 1.98522007 2.76846624 2.11965111
    endloop
  endfacet
  facet normal 0.448054107 -0.886184847 -0.117999722
    outer loop
      vertex 2.05052934 2.63427927 2.10419808
      vertex 2.05146478 2.63514314 2.10126232
      vertex 2.05242818 2.63553851 2.10195115
    endloop
  endfacet
  facet normal -0.448054107 0.886184847 0.117999722
    outer loop
      vertex 1.98332123 2.767207 2.12189804
      vertex 1.98522007 2.76846624 2.11965111
      vertex 1.98425666 2.76807086 2.11896228
    endloop
  endfacet
  facet normal 0.121883236 0.191307858 -0.97393315
    outer loop
      vertex 2.05146478 2.63514314 2.10126232
      vertex 2.05035897 2.63461625 2.10102044
      vertex 1.98315085 2.76754397 2.1187204
    endloop
  endfacet
  facet normal 0.121883236 0.191307858 -0.97393315
    outer loop
      vertex 2.05146478 2.63514314 2.10126232
      vertex 1.98315085 2.76754397 2.1187204
      vertex 1.98425666 2.76807086 2.11896228
    endloop
  endfacet
  facet normal 0.448054107 -0.886184847 -0.117999722
    outer loop
      vertex 2.05052934 2.63427927 2.10419808
      vertex 2.05035897 2.63461625 2.10102044
      vertex 2.05146478 2.63514314 2.10126232
    endloop
  endfacet
  facet normal -0.448054107 0.886184847 0.117999722
    outer loop
      vertex 1.98332123 2.767207 2.12189804
      vertex 1.98425666 2.76807086 2.11896228
      vertex 1.98315085 2.76754397 2.1187204
    endloop
  endfacet
  facet normal -0.226321627 0.0152558536 -0.97393315
    outer loop
      vertex 2.05035897 2.63461625 2.10102044
      vertex 2.04927909 2.63403805 2.10126232
      vertex 1.98207097 2.76696578 2.11896228
    endloop
  endfacet
  facet normal -0.226321627 0.0152558536 -0.97393315
    outer loop
      vertex 2.05035897 2.63461625 2.10102044
      vertex 1.98207097 2.76696578 2.11896228
      vertex 1.98315085 2.76754397 2.1187204
    endloop
  endfacet
  facet normal 0.448054107 -0.886184847 -0.117999722
    outer loop
      vertex 2.05052934 2.63427927 2.10419808
      vertex 2.04927909 2.63403805 2.10126232
      vertex 2.05035897 2.63461625 2.10102044
    endloop
  endfacet
  facet normal -0.448054107 0.886184847 0.117999722
    outer loop
      vertex 1.98332123 2.767207 2.12189804
      vertex 1.98315085 2.76754397 2.1187204
      vertex 1.98207097 2.76696578 2.11896228
    endloop
  endfacet
  facet normal -0.540071074 -0.163118717 -0.825660656
    outer loop
      vertex 2.04927909 2.63403805 2.10126232
      vertex 2.04838955 2.63349658 2.10195115
      vertex 1.98118144 2.76642431 2.11965111
    endloop
  endfacet
  facet normal -0.540071074 -0.163118717 -0.825660656
    outer loop
      vertex 2.04927909 2.63403805 2.10126232
      vertex 1.98118144 2.76642431 2.11965111
      vertex 1.98207097 2.76696578 2.11896228
    endloop
  endfacet
  facet normal 0.448054107 -0.886184847 -0.117999722
    outer loop
      vertex 2.05052934 2.63427927 2.10419808
      vertex 2.04838955 2.63349658 2.10195115
      vertex 2.04927909 2.63403805 2.10126232
    endloop
  endfacet
  facet normal -0.448054107 0.886184847 0.117999722
    outer loop
      vertex 1.98332123 2.767207 2.12189804
      vertex 1.98207097 2.76696578 2.11896228
      vertex 1.98118144 2.76642431 2.11965111
    endloop
  endfacet
  facet normal -0.771599596 -0.316659941 -0.551688813
    outer loop
      vertex 2.04838955 2.63349658 2.10195115
      vertex 2.04782578 2.63307427 2.10298205
      vertex 1.98061766 2.766002 2.12068201
    endloop
  endfacet
  facet normal -0.771599596 -0.316659941 -0.551688813
    outer loop
      vertex 2.04838955 2.63349658 2.10195115
      vertex 1.98061766 2.766002 2.12068201
      vertex 1.98118144 2.76642431 2.11965111
    endloop
  endfacet
  facet normal 0.448054107 -0.886184847 -0.117999722
    outer loop
      vertex 2.05052934 2.63427927 2.10419808
      vertex 2.04782578 2.63307427 2.10298205
      vertex 2.04838955 2.63349658 2.10195115
    endloop
  endfacet
  facet normal -0.448054107 0.886184847 0.117999722
    outer loop
      vertex 1.98332123 2.767207 2.12189804
      vertex 1.98118144 2.76642431 2.11965111
      vertex 1.98061766 2.766002 2.12068201
    endloop
  endfacet
  facet normal -0.885659073 -0.42199256 -0.193727348
    outer loop
      vertex 2.04782578 2.63307427 2.10298205
      vertex 2.0476736 2.63283541 2.10419808
      vertex 1.98046548 2.76576314 2.12189804
    endloop
  endfacet
  facet normal -0.885659073 -0.42199256 -0.193727348
    outer loop
      vertex 2.04782578 2.63307427 2.10298205
      vertex 1.98046548 2.76576314 2.12189804
      vertex 1.98061766 2.766002 2.12068201
    endloop
  endfacet
  facet normal 0.448054107 -0.886184847 -0.117999722
    outer loop
      vertex 2.05052934 2.63427927 2.10419808
      vertex 2.0476736 2.63283541 2.10419808
      vertex 2.04782578 2.63307427 2.10298205
    endloop
  endfacet
  facet normal -0.448054107 0.886184847 0.117999722
    outer loop
      vertex 1.98332123 2.767207 2.12189804
      vertex 1.98061766 2.766002 2.12068201
      vertex 1.98046548 2.76576314 2.12189804
    endloop
  endfacet
  facet normal -0.864884986 -0.463080637 0.193727348
    outer loop
      vertex 2.0476736 2.63283541 2.10419808
      vertex 2.04795618 2.63281636 2.10541411
      vertex 1.98074806 2.76574409 2.12311407
    endloop
  endfacet
  facet normal -0.864884986 -0.463080637 0.193727348
    outer loop
      vertex 2.0476736 2.63283541 2.10419808
      vertex 1.98074806 2.76574409 2.12311407
      vertex 1.98046548 2.76576314 2.12189804
    endloop
  endfacet
  facet normal 0.448054107 -0.886184847 -0.117999722
    outer loop
      vertex 2.05052934 2.63427927 2.10419808
      vertex 2.04795618 2.63281636 2.10541411
      vertex 2.0476736 2.63283541 2.10419808
    endloop
  endfacet
  facet normal -0.448054107 0.886184847 0.117999722
    outer loop
      vertex 1.98332123 2.767207 2.12189804
      vertex 1.98046548 2.76576314 2.12189804
      vertex 1.98074806 2.76574409 2.12311407
    endloop
  endfacet
  facet normal -0.712439999 -0.433668884 0.551688813
    outer loop
      vertex 2.04795618 2.63281636 2.10541411
      vertex 2.0486305 2.63302003 2.10644501
      vertex 1.98142238 2.76594775 2.12414497
    endloop
  endfacet
  facet normal -0.712439999 -0.433668884 0.551688813
    outer loop
      vertex 2.04795618 2.63281636 2.10541411
      vertex 1.98142238 2.76594775 2.12414497
      vertex 1.98074806 2.76574409 2.12311407
    endloop
  endfacet
  facet normal 0.448054107 -0.886184847 -0.117999722
    outer loop
      vertex 2.05052934 2.63427927 2.10419808
      vertex 2.0486305 2.63302003 2.10644501
      vertex 2.04795618 2.63281636 2.10541411
    endloop
  endfacet
  facet normal -0.448054107 0.886184847 0.117999722
    outer loop
      vertex 1.98332123 2.767207 2.12189804
      vertex 1.98074806 2.76574409 2.12311407
      vertex 1.98142238 2.76594775 2.12414497
    endloop
  endfacet
  facet normal -0.451532481 -0.338234976 0.825660656
    outer loop
      vertex 2.0486305 2.63302003 2.10644501
      vertex 2.0495939 2.6334154 2.10713384
      vertex 1.98238579 2.76634313 2.1248338
    endloop
  endfacet
  facet normal -0.451532481 -0.338234976 0.825660656
    outer loop
      vertex 2.0486305 2.63302003 2.10644501
      vertex 1.98238579 2.76634313 2.1248338
      vertex 1.98142238 2.76594775 2.12414497
    endloop
  endfacet
  facet normal 0.448054107 -0.886184847 -0.117999722
    outer loop
      vertex 2.05052934 2.63427927 2.10419808
      vertex 2.0495939 2.6334154 2.10713384
      vertex 2.0486305 2.63302003 2.10644501
    endloop
  endfacet
  facet normal -0.448054107 0.886184847 0.117999722
    outer loop
      vertex 1.98332123 2.767207 2.12189804
      vertex 1.98142238 2.76594775 2.12414497
      vertex 1.98238579 2.76634313 2.1248338
    endloop
  endfacet
  facet normal -0.121883236 -0.191307858 0.97393315
    outer loop
      vertex 2.0495939 2.6334154 2.10713384
      vertex 2.05069972 2.63394229 2.10737573
      vertex 1.9834916 2.76687002 2.12507568
    endloop
  endfacet
  facet normal -0.121883236 -0.191307858 0.97393315
    outer loop
      vertex 2.0495939 2.6334154 2.10713384
      vertex 1.9834916 2.76687002 2.12507568
      vertex 1.98238579 2.76634313 2.1248338
    endloop
  endfacet
  facet normal 0.448054107 -0.886184847 -0.117999722
    outer loop
      vertex 2.05052934 2.63427927 2.10419808
      vertex 2.05069972 2.63394229 2.10737573
      vertex 2.0495939 2.6334154 2.10713384
    endloop
  endfacet
  facet normal -0.448054107 0.886184847 0.117999722
    outer loop
      vertex 1.98332123 2.767207 2.12189804
      vertex 1.98238579 2.76634313 2.1248338
      vertex 1.9834916 2.76687002 2.12507568
    endloop
  endfacet
  facet normal 0.226321627 -0.0152558536 0.97393315
    outer loop
      vertex 2.05069972 2.63394229 2.10737573
      vertex 2.05177959 2.63452048 2.10713384
      vertex 1.98457148 2.76744821 2.1248338
    endloop
  endfacet
  facet normal 0.226321627 -0.0152558536 0.97393315
    outer loop
      vertex 2.05069972 2.63394229 2.10737573
      vertex 1.98457148 2.76744821 2.1248338
      vertex 1.9834916 2.76687002 2.12507568
    endloop
  endfacet
  facet normal 0.448054107 -0.886184847 -0.117999722
    outer loop
      vertex 2.05052934 2.63427927 2.10419808
      vertex 2.05177959 2.63452048 2.10713384
      vertex 2.05069972 2.63394229 2.10737573
    endloop
  endfacet
  facet normal -0.448054107 0.886184847 0.117999722
    outer loop
      vertex 1.98332123 2.767207 2.12189804
      vertex 1.9834916 2.76687002 2.12507568
      vertex 1.98457148 2.76744821 2.1248338
    endloop
  endfacet
  facet normal 0.540071074 0.163118717 0.825660656
    outer loop
      vertex 2.05177959 2.63452048 2.10713384
      vertex 2.05266913 2.63506195 2.10644501
      vertex 1.98546101 2.76798968 2.12414497
    endloop
  endfacet
  facet normal 0.540071074 0.163118717 0.825660656
    outer loop
      vertex 2.05177959 2.63452048 2.10713384
      vertex 1.98546101 2.76798968 2.12414497
      vertex 1.98457148 2.76744821 2.1248338
    endloop
  endfacet
  facet normal 0.448054107 -0.886184847 -0.117999722
    outer loop
      vertex 2.05052934 2.63427927 2.10419808
      vertex 2.05266913 2.63506195 2.10644501
      vertex 2.05177959 2.63452048 2.10713384
    endloop
  endfacet
  facet normal -0.448054107 0.886184847 0.117999722
    outer loop
      vertex 1.98332123 2.767207 2.12189804
      vertex 1.98457148 2.76744821 2.1248338
      vertex 1.98546101 2.76798968 2.12414497
    endloop
  endfacet
  facet normal 0.771599596 0.316659941 0.551688813
    outer loop
      vertex 2.05266913 2.63506195 2.10644501
      vertex 2.0532329 2.63548427 2.10541411
      vertex 1.98602479 2.76841199 2.12311407
    endloop
  endfacet
  facet normal 0.771599596 0.316659941 0.551688813
    outer loop
      vertex 2.05266913 2.63506195 2.10644501
      vertex 1.98602479 2.76841199 2.12311407
      vertex 1.98546101 2.76798968 2.12414497
    endloop
  endfacet
  facet normal 0.448054107 -0.886184847 -0.117999722
    outer loop
      vertex 2.05052934 2.63427927 2.10419808
      vertex 2.0532329 2.63548427 2.10541411
      vertex 2.05266913 2.63506195 2.10644501
    endloop
  endfacet
  facet normal -0.448054107 0.886184847 0.117999722
    outer loop
      vertex 1.98332123 2.767207 2.12189804
      vertex 1.98546101 2.76798968 2.12414497
      vertex 1.98602479 2.76841199 2.12311407
    endloop
  endfacet
  facet normal 0.885659073 0.42199256 0.193727348
    outer loop
      vertex 2.0532329 2.63548427 2.10541411
      vertex 2.05338508 2.63572313 2.10419808
      vertex 1.98617697 2.76865086 2.12189804
    endloop
  endfacet
  facet normal 0.885659073 0.42199256 0.193727348
    outer loop
      vertex 2.0532329 2.63548427 2.10541411
      vertex 1.98617697 2.76865086 2.12189804
      vertex 1.98602479 2.76841199 2.12311407
    endloop
  endfacet
  facet normal 0.448054107 -0.886184847 -0.117999722
    outer loop
      vertex 2.05052934 2.63427927 2.10419808
      vertex 2.05338508 2.63572313 2.10419808
      vertex 2.0532329 2.63548427 2.10541411
    endloop
  endfacet
  facet normal -0.448054107 0.886184847 0.117999722
    outer loop
      vertex 1.98332123 2.767207 2.12189804
      vertex 1.98602479 2.76841199 2.12311407
      vertex 1.98617697 2.76865086 2.12189804
    endloop
  endfacet
  facet normal 0.980973535 -0.189320736 0.0429951411
    outer loop
      vertex 2.18530694 3.02094459 2.28350751
      vertex 2.18509148 3.01975622 2.28319081
      vertex 2.19398567 3.04389607 2.18655665
    endloop
  endfacet
  facet normal 0.980973535 -0.189320736 0.0429951411
    outer loop
      vertex 2.18530694 3.02094459 2.28350751
      vertex 2.19398567 3.04389607 2.18655665
      vertex 2.19420114 3.04508444 2.18687335
    endloop
  endfacet
  facet normal -0.0889419837 -0.241398484 0.966341604
    outer loop
      vertex 2.18212041 3.02094459 2.28321422
      vertex 2.18509148 3.01975622 2.28319081
      vertex 2.18530694 3.02094459 2.28350751
    endloop
  endfacet
  facet normal 0.0889419837 0.241398484 -0.966341604
    outer loop
      vertex 2.19101461 3.04508444 2.18658006
      vertex 2.19420114 3.04508444 2.18687335
      vertex 2.19398567 3.04389607 2.18655665
    endloop
  endfacet
  facet normal 0.840261867 -0.539139842 -0.0573430585
    outer loop
      vertex 2.18509148 3.01975622 2.28319081
      vertex 2.18442369 3.01874877 2.28287768
      vertex 2.19331789 3.04288862 2.18624352
    endloop
  endfacet
  facet normal 0.840261867 -0.539139842 -0.0573430585
    outer loop
      vertex 2.18509148 3.01975622 2.28319081
      vertex 2.19331789 3.04288862 2.18624352
      vertex 2.19398567 3.04389607 2.18655665
    endloop
  endfacet
  facet normal -0.0889419837 -0.241398484 0.966341604
    outer loop
      vertex 2.18212041 3.02094459 2.28321422
      vertex 2.18442369 3.01874877 2.28287768
      vertex 2.18509148 3.01975622 2.28319081
    endloop
  endfacet
  facet normal 0.0889419837 0.241398484 -0.966341604
    outer loop
      vertex 2.19101461 3.04508444 2.18658006
      vertex 2.19398567 3.04389607 2.18655665
      vertex 2.19331789 3.04288862 2.18624352
    endloop
  endfacet
  facet normal 0.571627946 -0.806879795 -0.148951297
    outer loop
      vertex 2.18442369 3.01874877 2.28287768
      vertex 2.18340525 3.01807561 2.28261579
      vertex 2.19229945 3.04221546 2.18598163
    endloop
  endfacet
  facet normal 0.571627946 -0.806879795 -0.148951297
    outer loop
      vertex 2.18442369 3.01874877 2.28287768
      vertex 2.19229945 3.04221546 2.18598163
      vertex 2.19331789 3.04288862 2.18624352
    endloop
  endfacet
  facet normal -0.0889419837 -0.241398484 0.966341604
    outer loop
      vertex 2.18212041 3.02094459 2.28321422
      vertex 2.18340525 3.01807561 2.28261579
      vertex 2.18442369 3.01874877 2.28287768
    endloop
  endfacet
  facet normal 0.0889419837 0.241398484 -0.966341604
    outer loop
      vertex 2.19101461 3.04508444 2.18658006
      vertex 2.19331789 3.04288862 2.18624352
      vertex 2.19229945 3.04221546 2.18598163
    endloop
  endfacet
  facet normal 0.215968852 -0.951779613 -0.217883051
    outer loop
      vertex 2.18340525 3.01807561 2.28261579
      vertex 2.18219121 3.01783923 2.282445
      vertex 2.19108541 3.04197908 2.18581084
    endloop
  endfacet
  facet normal 0.215968852 -0.951779613 -0.217883051
    outer loop
      vertex 2.18340525 3.01807561 2.28261579
      vertex 2.19108541 3.04197908 2.18581084
      vertex 2.19229945 3.04221546 2.18598163
    endloop
  endfacet
  facet normal -0.0889419837 -0.241398484 0.966341604
    outer loop
      vertex 2.18212041 3.02094459 2.28321422
      vertex 2.18219121 3.01783923 2.282445
      vertex 2.18340525 3.01807561 2.28261579
    endloop
  endfacet
  facet normal 0.0889419837 0.241398484 -0.966341604
    outer loop
      vertex 2.19101461 3.04508444 2.18658006
      vertex 2.19229945 3.04221546 2.18598163
      vertex 2.19108541 3.04197908 2.18581084
    endloop
  endfacet
  facet normal -0.172569542 -0.951779613 -0.253644086
    outer loop
      vertex 2.18219121 3.01783923 2.282445
      vertex 2.18096639 3.01807561 2.28239131
      vertex 2.18986059 3.04221546 2.18575715
    endloop
  endfacet
  facet normal -0.172569542 -0.951779613 -0.253644086
    outer loop
      vertex 2.18219121 3.01783923 2.282445
      vertex 2.18986059 3.04221546 2.18575715
      vertex 2.19108541 3.04197908 2.18581084
    endloop
  endfacet
  facet normal -0.0889419837 -0.241398484 0.966341604
    outer loop
      vertex 2.18212041 3.02094459 2.28321422
      vertex 2.18096639 3.01807561 2.28239131
      vertex 2.18219121 3.01783923 2.282445
    endloop
  endfacet
  facet normal 0.0889419837 0.241398484 -0.966341604
    outer loop
      vertex 2.19101461 3.04508444 2.18658006
      vertex 2.19108541 3.04197908 2.18581084
      vertex 2.18986059 3.04221546 2.18575715
    endloop
  endfacet
  facet normal -0.534835787 -0.806879795 -0.250790107
    outer loop
      vertex 2.18096639 3.01807561 2.28239131
      vertex 2.17991726 3.01874877 2.28246291
      vertex 2.18881145 3.04288862 2.18582875
    endloop
  endfacet
  facet normal -0.534835787 -0.806879795 -0.250790107
    outer loop
      vertex 2.18096639 3.01807561 2.28239131
      vertex 2.18881145 3.04288862 2.18582875
      vertex 2.18986059 3.04221546 2.18575715
    endloop
  endfacet
  facet normal -0.0889419837 -0.241398484 0.966341604
    outer loop
      vertex 2.18212041 3.02094459 2.28321422
      vertex 2.17991726 3.01874877 2.28246291
      vertex 2.18096639 3.01807561 2.28239131
    endloop
  endfacet
  facet normal 0.0889419837 0.241398484 -0.966341604
    outer loop
      vertex 2.19101461 3.04508444 2.18658006
      vertex 2.18986059 3.04221546 2.18575715
      vertex 2.18881145 3.04288862 2.18582875
    endloop
  endfacet
  facet normal -0.815678132 -0.539139842 -0.209755609
    outer loop
      vertex 2.17991726 3.01874877 2.28246291
      vertex 2.17920353 3.01975622 2.28264889
      vertex 2.18809773 3.04389607 2.18601473
    endloop
  endfacet
  facet normal -0.815678132 -0.539139842 -0.209755609
    outer loop
      vertex 2.17991726 3.01874877 2.28246291
      vertex 2.18809773 3.04389607 2.18601473
      vertex 2.18881145 3.04288862 2.18582875
    endloop
  endfacet
  facet normal -0.0889419837 -0.241398484 0.966341604
    outer loop
      vertex 2.18212041 3.02094459 2.28321422
      vertex 2.17920353 3.01975622 2.28264889
      vertex 2.17991726 3.01874877 2.28246291
    endloop
  endfacet
  facet normal 0.0889419837 0.241398484 -0.966341604
    outer loop
      vertex 2.19101461 3.04508444 2.18658006
      vertex 2.18881145 3.04288862 2.18582875
      vertex 2.18809773 3.04389607 2.18601473
    endloop
  endfacet
  facet normal -0.972340876 -0.189320736 -0.13678772
    outer loop
      vertex 2.17920353 3.01975622 2.28264889
      vertex 2.17893388 3.02094459 2.28292093
      vertex 2.18782808 3.04508444 2.18628677
    endloop
  endfacet
  facet normal -0.972340876 -0.189320736 -0.13678772
    outer loop
      vertex 2.17920353 3.01975622 2.28264889
      vertex 2.18782808 3.04508444 2.18628677
      vertex 2.18809773 3.04389607 2.18601473
    endloop
  endfacet
  facet normal -0.0889419837 -0.241398484 0.966341604
    outer loop
      vertex 2.18212041 3.02094459 2.28321422
      vertex 2.17893388 3.02094459 2.28292093
      vertex 2.17920353 3.01975622 2.28264889
    endloop
  endfacet
  facet normal 0.0889419837 0.241398484 -0.966341604
    outer loop
      vertex 2.19101461 3.04508444 2.18658006
      vertex 2.18809773 3.04389607 2.18601473
      vertex 2.18782808 3.04508444 2.18628677
    endloop
  endfacet
  facet normal -0.980973535 0.189320736 -0.0429951411
    outer loop
      vertex 2.17893388 3.02094459 2.28292093
      vertex 2.17914935 3.02213296 2.28323763
      vertex 2.18804354 3.04627281 2.18660347
    endloop
  endfacet
  facet normal -0.980973535 0.189320736 -0.0429951411
    outer loop
      vertex 2.17893388 3.02094459 2.28292093
      vertex 2.18804354 3.04627281 2.18660347
      vertex 2.18782808 3.04508444 2.18628677
    endloop
  endfacet
  facet normal -0.0889419837 -0.241398484 0.966341604
    outer loop
      vertex 2.18212041 3.02094459 2.28321422
      vertex 2.17914935 3.02213296 2.28323763
      vertex 2.17893388 3.02094459 2.28292093
    endloop
  endfacet
  facet normal 0.0889419837 0.241398484 -0.966341604
    outer loop
      vertex 2.19101461 3.04508444 2.18658006
      vertex 2.18782808 3.04508444 2.18628677
      vertex 2.18804354 3.04627281 2.18660347
    endloop
  endfacet
  facet normal -0.840261867 0.539139842 0.0573430585
    outer loop
      vertex 2.17914935 3.02213296 2.28323763
      vertex 2.17981713 3.02314041 2.28355076
      vertex 2.18871133 3.04728026 2.1869166
    endloop
  endfacet
  facet normal -0.840261867 0.539139842 0.0573430585
    outer loop
      vertex 2.17914935 3.02213296 2.28323763
      vertex 2.18871133 3.04728026 2.1869166
      vertex 2.18804354 3.04627281 2.18660347
    endloop
  endfacet
  facet normal -0.0889419837 -0.241398484 0.966341604
    outer loop
      vertex 2.18212041 3.02094459 2.28321422
      vertex 2.17981713 3.02314041 2.28355076
      vertex 2.17914935 3.02213296 2.28323763
    endloop
  endfacet
  facet normal 0.0889419837 0.241398484 -0.966341604
    outer loop
      vertex 2.19101461 3.04508444 2.18658006
      vertex 2.18804354 3.04627281 2.18660347
      vertex 2.18871133 3.04728026 2.1869166
    endloop
  endfacet
  facet normal -0.571627946 0.806879795 0.148951297
    outer loop
      vertex 2.17981713 3.02314041 2.28355076
      vertex 2.18083557 3.02381357 2.28381265
      vertex 2.18972977 3.04795342 2.18717849
    endloop
  endfacet
  facet normal -0.571627946 0.806879795 0.148951297
    outer loop
      vertex 2.17981713 3.02314041 2.28355076
      vertex 2.18972977 3.04795342 2.18717849
      vertex 2.18871133 3.04728026 2.1869166
    endloop
  endfacet
  facet normal -0.0889419837 -0.241398484 0.966341604
    outer loop
      vertex 2.18212041 3.02094459 2.28321422
      vertex 2.18083557 3.02381357 2.28381265
      vertex 2.17981713 3.02314041 2.28355076
    endloop
  endfacet
  facet normal 0.0889419837 0.241398484 -0.966341604
    outer loop
      vertex 2.19101461 3.04508444 2.18658006
      vertex 2.18871133 3.04728026 2.1869166
      vertex 2.18972977 3.04795342 2.18717849
    endloop
  endfacet
  facet normal -0.215968852 0.951779613 0.217883051
    outer loop
      vertex 2.18083557 3.02381357 2.28381265
      vertex 2.18204961 3.02404995 2.28398344
      vertex 2.19094381 3.0481898 2.18734928
    endloop
  endfacet
  facet normal -0.215968852 0.951779613 0.217883051
    outer loop
      vertex 2.18083557 3.02381357 2.28381265
      vertex 2.19094381 3.0481898 2.18734928
      vertex 2.18972977 3.04795342 2.18717849
    endloop
  endfacet
  facet normal -0.0889419837 -0.241398484 0.966341604
    outer loop
      vertex 2.18212041 3.02094459 2.28321422
      vertex 2.18204961 3.02404995 2.28398344
      vertex 2.18083557 3.02381357 2.28381265
    endloop
  endfacet
  facet normal 0.0889419837 0.241398484 -0.966341604
    outer loop
      vertex 2.19101461 3.04508444 2.18658006
      vertex 2.18972977 3.04795342 2.18717849
      vertex 2.19094381 3.0481898 2.18734928
    endloop
  endfacet
  facet normal 0.172569542 0.951779613 0.253644086
    outer loop
      vertex 2.18204961 3.02404995 2.28398344
      vertex 2.18327443 3.02381357 2.28403713
      vertex 2.19216863 3.04795342 2.18740297
    endloop
  endfacet
  facet normal 0.172569542 0.951779613 0.253644086
    outer loop
      vertex 2.18204961 3.02404995 2.28398344
      vertex 2.19216863 3.04795342 2.18740297
      vertex 2.19094381 3.0481898 2.18734928
    endloop
  endfacet
  facet normal -0.0889419837 -0.241398484 0.966341604
    outer loop
      vertex 2.18212041 3.02094459 2.28321422
      vertex 2.18327443 3.02381357 2.28403713
      vertex 2.18204961 3.02404995 2.28398344
    endloop
  endfacet
  facet normal 0.0889419837 0.241398484 -0.966341604
    outer loop
      vertex 2.19101461 3.04508444 2.18658006
      vertex 2.19094381 3.0481898 2.18734928
      vertex 2.19216863 3.04795342 2.18740297
    endloop
  endfacet
  facet normal 0.534835787 0.806879795 0.250790107
    outer loop
      vertex 2.18327443 3.02381357 2.28403713
      vertex 2.18432357 3.02314041 2.28396553
      vertex 2.19321776 3.04728026 2.18733137
    endloop
  endfacet
  facet normal 0.534835787 0.806879795 0.250790107
    outer loop
      vertex 2.18327443 3.02381357 2.28403713
      vertex 2.19321776 3.04728026 2.18733137
      vertex 2.19216863 3.04795342 2.18740297
    endloop
  endfacet
  facet normal -0.0889419837 -0.241398484 0.966341604
    outer loop
      vertex 2.18212041 3.02094459 2.28321422
      vertex 2.18432357 3.02314041 2.28396553
      vertex 2.18327443 3.02381357 2.28403713
    endloop
  endfacet
  facet normal 0.0889419837 0.241398484 -0.966341604
    outer loop
      vertex 2.19101461 3.04508444 2.18658006
      vertex 2.19216863 3.04795342 2.18740297
      vertex 2.19321776 3.04728026 2.18733137
    endloop
  endfacet
  facet normal 0.815678132 0.539139842 0.209755609
    outer loop
      vertex 2.18432357 3.02314041 2.28396553
      vertex 2.18503729 3.02213296 2.28377955
      vertex 2.19393149 3.04627281 2.18714539
    endloop
  endfacet
  facet normal 0.815678132 0.539139842 0.209755609
    outer loop
      vertex 2.18432357 3.02314041 2.28396553
      vertex 2.19393149 3.04627281 2.18714539
      vertex 2.19321776 3.04728026 2.18733137
    endloop
  endfacet
  facet normal -0.0889419837 -0.241398484 0.966341604
    outer loop
      vertex 2.18212041 3.02094459 2.28321422
      vertex 2.18503729 3.02213296 2.28377955
      vertex 2.18432357 3.02314041 2.28396553
    endloop
  endfacet
  facet normal 0.0889419837 0.241398484 -0.966341604
    outer loop
      vertex 2.19101461 3.04508444 2.18658006
      vertex 2.19321776 3.04728026 2.18733137
      vertex 2.19393149 3.04627281 2.18714539
    endloop
  endfacet
  facet normal 0.972340876 0.189320736 0.13678772
    outer loop
      vertex 2.18503729 3.02213296 2.28377955
      vertex 2.18530694 3.02094459 2.28350751
      vertex 2.19420114 3.04508444 2.18687335
    endloop
  endfacet
  facet normal 0.972340876 0.189320736 0.13678772
    outer loop
      vertex 2.18503729 3.02213296 2.28377955
      vertex 2.19420114 3.04508444 2.18687335
      vertex 2.19393149 3.04627281 2.18714539
    endloop
  endfacet
  facet normal -0.0889419837 -0.241398484 0.966341604
    outer loop
      vertex 2.18212041 3.02094459 2.28321422
      vertex 2.18530694 3.02094459 2.28350751
      vertex 2.18503729 3.02213296 2.28377955
    endloop
  endfacet
  facet normal 0.0889419837 0.241398484 -0.966341604
    outer loop
      vertex 2.19101461 3.04508444 2.18658006
      vertex 2.19393149 3.04627281 2.18714539
      vertex 2.19420114 3.04508444 2.18687335
    endloop
  endfacet
  facet normal 0.980973535 -0.189320736 0.0429951411
    outer loop
      vertex 2.21518419 3.02076581 2.28621275
      vertex 2.21496872 3.01957743 2.28589605
      vertex 2.22386292 3.04371728 2.18926189
    endloop
  endfacet
  facet normal 0.980973535 -0.189320736 0.0429951411
    outer loop
      vertex 2.21518419 3.02076581 2.28621275
      vertex 2.22386292 3.04371728 2.18926189
      vertex 2.22407839 3.04490565 2.18957858
    endloop
  endfacet
  facet normal -0.0889419837 -0.241398484 0.966341604
    outer loop
      vertex 2.21199766 3.02076581 2.28591946
      vertex 2.21496872 3.01957743 2.28589605
      vertex 2.21518419 3.02076581 2.28621275
    endloop
  endfacet
  facet normal 0.0889419837 0.241398484 -0.966341604
    outer loop
      vertex 2.22089185 3.04490565 2.1892853
      vertex 2.22407839 3.04490565 2.18957858
      vertex 2.22386292 3.04371728 2.18926189
    endloop
  endfacet
  facet normal 0.840261867 -0.539139842 -0.0573430585
    outer loop
      vertex 2.21496872 3.01957743 2.28589605
      vertex 2.21430094 3.01856998 2.28558292
      vertex 2.22319513 3.04270983 2.18894876
    endloop
  endfacet
  facet normal 0.840261867 -0.539139842 -0.0573430585
    outer loop
      vertex 2.21496872 3.01957743 2.28589605
      vertex 2.22319513 3.04270983 2.18894876
      vertex 2.22386292 3.04371728 2.18926189
    endloop
  endfacet
  facet normal -0.0889419837 -0.241398484 0.966341604
    outer loop
      vertex 2.21199766 3.02076581 2.28591946
      vertex 2.21430094 3.01856998 2.28558292
      vertex 2.21496872 3.01957743 2.28589605
    endloop
  endfacet
  facet normal 0.0889419837 0.241398484 -0.966341604
    outer loop
      vertex 2.22089185 3.04490565 2.1892853
      vertex 2.22386292 3.04371728 2.18926189
      vertex 2.22319513 3.04270983 2.18894876
    endloop
  endfacet
  facet normal 0.571627946 -0.806879795 -0.148951297
    outer loop
      vertex 2.21430094 3.01856998 2.28558292
      vertex 2.2132825 3.01789682 2.28532102
      vertex 2.2221767 3.04203667 2.18868686
    endloop
  endfacet
  facet normal 0.571627946 -0.806879795 -0.148951297
    outer loop
      vertex 2.21430094 3.01856998 2.28558292
      vertex 2.2221767 3.04203667 2.18868686
      vertex 2.22319513 3.04270983 2.18894876
    endloop
  endfacet
  facet normal -0.0889419837 -0.241398484 0.966341604
    outer loop
      vertex 2.21199766 3.02076581 2.28591946
      vertex 2.2132825 3.01789682 2.28532102
      vertex 2.21430094 3.01856998 2.28558292
    endloop
  endfacet
  facet normal 0.0889419837 0.241398484 -0.966341604
    outer loop
      vertex 2.22089185 3.04490565 2.1892853
      vertex 2.22319513 3.04270983 2.18894876
      vertex 2.2221767 3.04203667 2.18868686
    endloop
  endfacet
  facet normal 0.215968852 -0.951779613 -0.217883051
    outer loop
      vertex 2.2132825 3.01789682 2.28532102
      vertex 2.21206845 3.01766044 2.28515023
      vertex 2.22096265 3.04180029 2.18851607
    endloop
  endfacet
  facet normal 0.215968852 -0.951779613 -0.217883051
    outer loop
      vertex 2.2132825 3.01789682 2.28532102
      vertex 2.22096265 3.04180029 2.18851607
      vertex 2.2221767 3.04203667 2.18868686
    endloop
  endfacet
  facet normal -0.0889419837 -0.241398484 0.966341604
    outer loop
      vertex 2.21199766 3.02076581 2.28591946
      vertex 2.21206845 3.01766044 2.28515023
      vertex 2.2132825 3.01789682 2.28532102
    endloop
  endfacet
  facet normal 0.0889419837 0.241398484 -0.966341604
    outer loop
      vertex 2.22089185 3.04490565 2.1892853
      vertex 2.2221767 3.04203667 2.18868686
      vertex 2.22096265 3.04180029 2.18851607
    endloop
  endfacet
  facet normal -0.172569542 -0.951779613 -0.253644086
    outer loop
      vertex 2.21206845 3.01766044 2.28515023
      vertex 2.21084363 3.01789682 2.28509655
      vertex 2.21973783 3.04203667 2.18846239
    endloop
  endfacet
  facet normal -0.172569542 -0.951779613 -0.253644086
    outer loop
      vertex 2.21206845 3.01766044 2.28515023
      vertex 2.21973783 3.04203667 2.18846239
      vertex 2.22096265 3.04180029 2.18851607
    endloop
  endfacet
  facet normal -0.0889419837 -0.241398484 0.966341604
    outer loop
      vertex 2.21199766 3.02076581 2.28591946
      vertex 2.21084363 3.01789682 2.28509655
      vertex 2.21206845 3.01766044 2.28515023
    endloop
  endfacet
  facet normal 0.0889419837 0.241398484 -0.966341604
    outer loop
      vertex 2.22089185 3.04490565 2.1892853
      vertex 2.22096265 3.04180029 2.18851607
      vertex 2.21973783 3.04203667 2.18846239
    endloop
  endfacet
  facet normal -0.534835787 -0.806879795 -0.250790107
    outer loop
      vertex 2.21084363 3.01789682 2.28509655
      vertex 2.2097945 3.01856998 2.28516815
      vertex 2.2186887 3.04270983 2.18853399
    endloop
  endfacet
  facet normal -0.534835787 -0.806879795 -0.250790107
    outer loop
      vertex 2.21084363 3.01789682 2.28509655
      vertex 2.2186887 3.04270983 2.18853399
      vertex 2.21973783 3.04203667 2.18846239
    endloop
  endfacet
  facet normal -0.0889419837 -0.241398484 0.966341604
    outer loop
      vertex 2.21199766 3.02076581 2.28591946
      vertex 2.2097945 3.01856998 2.28516815
      vertex 2.21084363 3.01789682 2.28509655
    endloop
  endfacet
  facet normal 0.0889419837 0.241398484 -0.966341604
    outer loop
      vertex 2.22089185 3.04490565 2.1892853
      vertex 2.21973783 3.04203667 2.18846239
      vertex 2.2186887 3.04270983 2.18853399
    endloop
  endfacet
  facet normal -0.815678132 -0.539139842 -0.209755609
    outer loop
      vertex 2.2097945 3.01856998 2.28516815
      vertex 2.20908078 3.01957743 2.28535413
      vertex 2.21797498 3.04371728 2.18871996
    endloop
  endfacet
  facet normal -0.815678132 -0.539139842 -0.209755609
    outer loop
      vertex 2.2097945 3.01856998 2.28516815
      vertex 2.21797498 3.04371728 2.18871996
      vertex 2.2186887 3.04270983 2.18853399
    endloop
  endfacet
  facet normal -0.0889419837 -0.241398484 0.966341604
    outer loop
      vertex 2.21199766 3.02076581 2.28591946
      vertex 2.20908078 3.01957743 2.28535413
      vertex 2.2097945 3.01856998 2.28516815
    endloop
  endfacet
  facet normal 0.0889419837 0.241398484 -0.966341604
    outer loop
      vertex 2.22089185 3.04490565 2.1892853
      vertex 2.2186887 3.04270983 2.18853399
      vertex 2.21797498 3.04371728 2.18871996
    endloop
  endfacet
  facet normal -0.972340876 -0.189320736 -0.13678772
    outer loop
      vertex 2.20908078 3.01957743 2.28535413
      vertex 2.20881112 3.02076581 2.28562617
      vertex 2.21770532 3.04490565 2.18899201
    endloop
  endfacet
  facet normal -0.972340876 -0.189320736 -0.13678772
    outer loop
      vertex 2.20908078 3.01957743 2.28535413
      vertex 2.21770532 3.04490565 2.18899201
      vertex 2.21797498 3.04371728 2.18871996
    endloop
  endfacet
  facet normal -0.0889419837 -0.241398484 0.966341604
    outer loop
      vertex 2.21199766 3.02076581 2.28591946
      vertex 2.20881112 3.02076581 2.28562617
      vertex 2.20908078 3.01957743 2.28535413
    endloop
  endfacet
  facet normal 0.0889419837 0.241398484 -0.966341604
    outer loop
      vertex 2.22089185 3.04490565 2.1892853
      vertex 2.21797498 3.04371728 2.18871996
      vertex 2.21770532 3.04490565 2.18899201
    endloop
  endfacet
  facet normal -0.980973535 0.189320736 -0.0429951411
    outer loop
      vertex 2.20881112 3.02076581 2.28562617
      vertex 2.20902659 3.02195418 2.28594286
      vertex 2.21792079 3.04609402 2.1893087
    endloop
  endfacet
  facet normal -0.980973535 0.189320736 -0.0429951411
    outer loop
      vertex 2.20881112 3.02076581 2.28562617
      vertex 2.21792079 3.04609402 2.1893087
      vertex 2.21770532 3.04490565 2.18899201
    endloop
  endfacet
  facet normal -0.0889419837 -0.241398484 0.966341604
    outer loop
      vertex 2.21199766 3.02076581 2.28591946
      vertex 2.20902659 3.02195418 2.28594286
      vertex 2.20881112 3.02076581 2.28562617
    endloop
  endfacet
  facet normal 0.0889419837 0.241398484 -0.966341604
    outer loop
      vertex 2.22089185 3.04490565 2.1892853
      vertex 2.21770532 3.04490565 2.18899201
      vertex 2.21792079 3.04609402 2.1893087
    endloop
  endfacet
  facet normal -0.840261867 0.539139842 0.0573430585
    outer loop
      vertex 2.20902659 3.02195418 2.28594286
      vertex 2.20969437 3.02296163 2.28625599
      vertex 2.21858857 3.04710148 2.18962183
    endloop
  endfacet
  facet normal -0.840261867 0.539139842 0.0573430585
    outer loop
      vertex 2.20902659 3.02195418 2.28594286
      vertex 2.21858857 3.04710148 2.18962183
      vertex 2.21792079 3.04609402 2.1893087
    endloop
  endfacet
  facet normal -0.0889419837 -0.241398484 0.966341604
    outer loop
      vertex 2.21199766 3.02076581 2.28591946
      vertex 2.20969437 3.02296163 2.28625599
      vertex 2.20902659 3.02195418 2.28594286
    endloop
  endfacet
  facet normal 0.0889419837 0.241398484 -0.966341604
    outer loop
      vertex 2.22089185 3.04490565 2.1892853
      vertex 2.21792079 3.04609402 2.1893087
      vertex 2.21858857 3.04710148 2.18962183
    endloop
  endfacet
  facet normal -0.571627946 0.806879795 0.148951297
    outer loop
      vertex 2.20969437 3.02296163 2.28625599
      vertex 2.21071281 3.02363479 2.28651789
      vertex 2.21960701 3.04777464 2.18988373
    endloop
  endfacet
  facet normal -0.571627946 0.806879795 0.148951297
    outer loop
      vertex 2.20969437 3.02296163 2.28625599
      vertex 2.21960701 3.04777464 2.18988373
      vertex 2.21858857 3.04710148 2.18962183
    endloop
  endfacet
  facet normal -0.0889419837 -0.241398484 0.966341604
    outer loop
      vertex 2.21199766 3.02076581 2.28591946
      vertex 2.21071281 3.02363479 2.28651789
      vertex 2.20969437 3.02296163 2.28625599
    endloop
  endfacet
  facet normal 0.0889419837 0.241398484 -0.966341604
    outer loop
      vertex 2.22089185 3.04490565 2.1892853
      vertex 2.21858857 3.04710148 2.18962183
      vertex 2.21960701 3.04777464 2.18988373
    endloop
  endfacet
  facet normal -0.215968852 0.951779613 0.217883051
    outer loop
      vertex 2.21071281 3.02363479 2.28651789
      vertex 2.21192686 3.02387117 2.28668868
      vertex 2.22082105 3.04801102 2.19005452
    endloop
  endfacet
  facet normal -0.215968852 0.951779613 0.217883051
    outer loop
      vertex 2.21071281 3.02363479 2.28651789
      vertex 2.22082105 3.04801102 2.19005452
      vertex 2.21960701 3.04777464 2.18988373
    endloop
  endfacet
  facet normal -0.0889419837 -0.241398484 0.966341604
    outer loop
      vertex 2.21199766 3.02076581 2.28591946
      vertex 2.21192686 3.02387117 2.28668868
      vertex 2.21071281 3.02363479 2.28651789
    endloop
  endfacet
  facet normal 0.0889419837 0.241398484 -0.966341604
    outer loop
      vertex 2.22089185 3.04490565 2.1892853
      vertex 2.21960701 3.04777464 2.18988373
      vertex 2.22082105 3.04801102 2.19005452
    endloop
  endfacet
  facet normal 0.172569542 0.951779613 0.253644086
    outer loop
      vertex 2.21192686 3.02387117 2.28668868
      vertex 2.21315168 3.02363479 2.28674236
      vertex 2.22204588 3.04777464 2.1901082
    endloop
  endfacet
  facet normal 0.172569542 0.951779613 0.253644086
    outer loop
      vertex 2.21192686 3.02387117 2.28668868
      vertex 2.22204588 3.04777464 2.1901082
      vertex 2.22082105 3.04801102 2.19005452
    endloop
  endfacet
  facet normal -0.0889419837 -0.241398484 0.966341604
    outer loop
      vertex 2.21199766 3.02076581 2.28591946
      vertex 2.21315168 3.02363479 2.28674236
      vertex 2.21192686 3.02387117 2.28668868
    endloop
  endfacet
  facet normal 0.0889419837 0.241398484 -0.966341604
    outer loop
      vertex 2.22089185 3.04490565 2.1892853
      vertex 2.22082105 3.04801102 2.19005452
      vertex 2.22204588 3.04777464 2.1901082
    endloop
  endfacet
  facet normal 0.534835787 0.806879795 0.250790107
    outer loop
      vertex 2.21315168 3.02363479 2.28674236
      vertex 2.21420081 3.02296163 2.28667077
      vertex 2.22309501 3.04710148 2.19003661
    endloop
  endfacet
  facet normal 0.534835787 0.806879795 0.250790107
    outer loop
      vertex 2.21315168 3.02363479 2.28674236
      vertex 2.22309501 3.04710148 2.19003661
      vertex 2.22204588 3.04777464 2.1901082
    endloop
  endfacet
  facet normal -0.0889419837 -0.241398484 0.966341604
    outer loop
      vertex 2.21199766 3.02076581 2.28591946
      vertex 2.21420081 3.02296163 2.28667077
      vertex 2.21315168 3.02363479 2.28674236
    endloop
  endfacet
  facet normal 0.0889419837 0.241398484 -0.966341604
    outer loop
      vertex 2.22089185 3.04490565 2.1892853
      vertex 2.22204588 3.04777464 2.1901082
      vertex 2.22309501 3.04710148 2.19003661
    endloop
  endfacet
  facet normal 0.815678132 0.539139842 0.209755609
    outer loop
      vertex 2.21420081 3.02296163 2.28667077
      vertex 2.21491453 3.02195418 2.28648479
      vertex 2.22380873 3.04609402 2.18985063
    endloop
  endfacet
  facet normal 0.815678132 0.539139842 0.209755609
    outer loop
      vertex 2.21420081 3.02296163 2.28667077
      vertex 2.22380873 3.04609402 2.18985063
      vertex 2.22309501 3.04710148 2.19003661
    endloop
  endfacet
  facet normal -0.0889419837 -0.241398484 0.966341604
    outer loop
      vertex 2.21199766 3.02076581 2.28591946
      vertex 2.21491453 3.02195418 2.28648479
      vertex 2.21420081 3.02296163 2.28667077
    endloop
  endfacet
  facet normal 0.0889419837 0.241398484 -0.966341604
    outer loop
      vertex 2.22089185 3.04490565 2.1892853
      vertex 2.22309501 3.04710148 2.19003661
      vertex 2.22380873 3.04609402 2.18985063
    endloop
  endfacet
  facet normal 0.972340876 0.189320736 0.13678772
    outer loop
      vertex 2.21491453 3.02195418 2.28648479
      vertex 2.21518419 3.02076581 2.28621275
      vertex 2.22407839 3.04490565 2.18957858
    endloop
  endfacet
  facet normal 0.972340876 0.189320736 0.13678772
    outer loop
      vertex 2.21491453 3.02195418 2.28648479
      vertex 2.22407839 3.04490565 2.18957858
      vertex 2.22380873 3.04609402 2.18985063
    endloop
  endfacet
  facet normal -0.0889419837 -0.241398484 0.966341604
    outer loop
      vertex 2.21199766 3.02076581 2.28591946
      vertex 2.21518419 3.02076581 2.28621275
      vertex 2.21491453 3.02195418 2.28648479
    endloop
  endfacet
  facet normal 0.0889419837 0.241398484 -0.966341604
    outer loop
      vertex 2.22089185 3.04490565 2.1892853
      vertex 2.22380873 3.04609402 2.18985063
      vertex 2.22407839 3.04490565 2.18957858
    endloop
  endfacet
endsolid d24_features
