solid d32_features
  facet normal -0.901713303 0.395585691 -0.174427866
    outer loop
      vertex 0.871955866 3.36580563 1.90739514
      vertex 0.872361643 3.3662478 1.90630025
      vertex 0.826742293 3.23066265 1.83463756
    endloop
  endfacet
  facet normal -0.901713303 0.395585691 -0.174427866
    outer loop
      vertex 0.871955866 3.36580563 1.90739514
      vertex 0.826742293 3.23066265 1.83463756
      vertex 0.826336517 3.23022048 1.83573245
    endloop
  endfacet
  facet normal 0.285120935 0.847407191 0.447891845
    outer loop
      vertex 0.874988793 3.36478517 1.90739514
      vertex 0.872361643 3.3662478 1.90630025
      vertex 0.871955866 3.36580563 1.90739514
    endloop
  endfacet
  facet normal -0.285120935 -0.847407191 -0.447891845
    outer loop
      vertex 0.829369444 3.22920002 1.83573245
      vertex 0.826336517 3.23022048 1.83573245
      vertex 0.826742293 3.23066265 1.83463756
    endloop
  endfacet
  facet normal -0.708705781 0.500995885 -0.496728537
    outer loop
      vertex 0.872361643 3.3662478 1.90630025
      vertex 0.873167379 3.3664673 1.90537205
      vertex 0.82754803 3.23088215 1.83370936
    endloop
  endfacet
  facet normal -0.708705781 0.500995885 -0.496728537
    outer loop
      vertex 0.872361643 3.3662478 1.90630025
      vertex 0.82754803 3.23088215 1.83370936
      vertex 0.826742293 3.23066265 1.83463756
    endloop
  endfacet
  facet normal 0.285120935 0.847407191 0.447891845
    outer loop
      vertex 0.874988793 3.36478517 1.90739514
      vertex 0.873167379 3.3664673 1.90537205
      vertex 0.872361643 3.3662478 1.90630025
    endloop
  endfacet
  facet normal -0.285120935 -0.847407191 -0.447891845
    outer loop
      vertex 0.829369444 3.22920002 1.83573245
      vertex 0.826742293 3.23066265 1.83463756
      vertex 0.82754803 3.23088215 1.83370936
    endloop
  endfacet
  facet normal -0.407804228 0.530133998 -0.74340679
    outer loop
      vertex 0.873167379 3.3664673 1.90537205
      vertex 0.87425041 3.3664307 1.90475185
      vertex 0.82863106 3.23084555 1.83308915
    endloop
  endfacet
  facet normal -0.407804228 0.530133998 -0.74340679
    outer loop
      vertex 0.873167379 3.3664673 1.90537205
      vertex 0.82863106 3.23084555 1.83308915
      vertex 0.82754803 3.23088215 1.83370936
    endloop
  endfacet
  facet normal 0.285120935 0.847407191 0.447891845
    outer loop
      vertex 0.874988793 3.36478517 1.90739514
      vertex 0.87425041 3.3664307 1.90475185
      vertex 0.873167379 3.3664673 1.90537205
    endloop
  endfacet
  facet normal -0.285120935 -0.847407191 -0.447891845
    outer loop
      vertex 0.829369444 3.22920002 1.83573245
      vertex 0.82754803 3.23088215 1.83370936
      vertex 0.82863106 3.23084555 1.83308915
    endloop
  endfacet
  facet normal -0.0448181784 0.478564015 -0.876908099
    outer loop
      vertex 0.87425041 3.3664307 1.90475185
      vertex 0.875445852 3.36614359 1.90453406
      vertex 0.829826503 3.23055844 1.83287137
    endloop
  endfacet
  facet normal -0.0448181784 0.478564015 -0.876908099
    outer loop
      vertex 0.87425041 3.3664307 1.90475185
      vertex 0.829826503 3.23055844 1.83287137
      vertex 0.82863106 3.23084555 1.83308915
    endloop
  endfacet
  facet normal 0.285120935 0.847407191 0.447891845
    outer loop
      vertex 0.874988793 3.36478517 1.90739514
      vertex 0.875445852 3.36614359 1.90453406
      vertex 0.87425041 3.3664307 1.90475185
    endloop
  endfacet
  facet normal -0.285120935 -0.847407191 -0.447891845
    outer loop
      vertex 0.829369444 3.22920002 1.83573245
      vertex 0.82863106 3.23084555 1.83308915
      vertex 0.829826503 3.23055844 1.83287137
    endloop
  endfacet
  facet normal 0.324991033 0.354136999 -0.876908099
    outer loop
      vertex 0.875445852 3.36614359 1.90453406
      vertex 0.876571712 3.36564967 1.90475185
      vertex 0.830952362 3.23006452 1.83308915
    endloop
  endfacet
  facet normal 0.324991033 0.354136999 -0.876908099
    outer loop
      vertex 0.875445852 3.36614359 1.90453406
      vertex 0.830952362 3.23006452 1.83308915
      vertex 0.829826503 3.23055844 1.83287137
    endloop
  endfacet
  facet normal 0.285120935 0.847407191 0.447891845
    outer loop
      vertex 0.874988793 3.36478517 1.90739514
      vertex 0.876571712 3.36564967 1.90475185
      vertex 0.875445852 3.36614359 1.90453406
    endloop
  endfacet
  facet normal -0.285120935 -0.847407191 -0.447891845
    outer loop
      vertex 0.829369444 3.22920002 1.83573245
      vertex 0.829826503 3.23055844 1.83287137
      vertex 0.830952362 3.23006452 1.83308915
    endloop
  endfacet
  facet normal 0.645323305 0.175795835 -0.74340679
    outer loop
      vertex 0.876571712 3.36564967 1.90475185
      vertex 0.877456586 3.36502414 1.90537205
      vertex 0.831837237 3.22943899 1.83370936
    endloop
  endfacet
  facet normal 0.645323305 0.175795835 -0.74340679
    outer loop
      vertex 0.876571712 3.36564967 1.90475185
      vertex 0.831837237 3.22943899 1.83370936
      vertex 0.830952362 3.23006452 1.83308915
    endloop
  endfacet
  facet normal 0.285120935 0.847407191 0.447891845
    outer loop
      vertex 0.874988793 3.36478517 1.90739514
      vertex 0.877456586 3.36502414 1.90537205
      vertex 0.876571712 3.36564967 1.90475185
    endloop
  endfacet
  facet normal -0.285120935 -0.847407191 -0.447891845
    outer loop
      vertex 0.829369444 3.22920002 1.83573245
      vertex 0.830952362 3.23006452 1.83308915
      vertex 0.831837237 3.22943899 1.83370936
    endloop
  endfacet
  facet normal 0.867410954 -0.0293086511 -0.496728537
    outer loop
      vertex 0.877456586 3.36502414 1.90537205
      vertex 0.877965762 3.36436222 1.90630025
      vertex 0.832346412 3.22877707 1.83463756
    endloop
  endfacet
  facet normal 0.867410954 -0.0293086511 -0.496728537
    outer loop
      vertex 0.877456586 3.36502414 1.90537205
      vertex 0.832346412 3.22877707 1.83463756
      vertex 0.831837237 3.22943899 1.83370936
    endloop
  endfacet
  facet normal 0.285120935 0.847407191 0.447891845
    outer loop
      vertex 0.874988793 3.36478517 1.90739514
      vertex 0.877965762 3.36436222 1.90630025
      vertex 0.877456586 3.36502414 1.90537205
    endloop
  endfacet
  facet normal -0.285120935 -0.847407191 -0.447891845
    outer loop
      vertex 0.829369444 3.22920002 1.83573245
      vertex 0.831837237 3.22943899 1.83370936
      vertex 0.832346412 3.22877707 1.83463756
    endloop
  endfacet
  facet normal 0.957443149 -0.229951161 -0.174427866
    outer loop
      vertex 0.877965762 3.36436222 1.90630025
      vertex 0.878021721 3.3637647 1.90739514
      vertex 0.832402371 3.22817955 1.83573245
    endloop
  endfacet
  facet normal 0.957443149 -0.229951161 -0.174427866
    outer loop
      vertex 0.877965762 3.36436222 1.90630025
      vertex 0.832402371 3.22817955 1.83573245
      vertex 0.832346412 3.22877707 1.83463756
    endloop
  endfacet
  facet normal 0.285120935 0.847407191 0.447891845
    outer loop
      vertex 0.874988793 3.36478517 1.90739514
      vertex 0.878021721 3.3637647 1.90739514
      vertex 0.877965762 3.36436222 1.90630025
    endloop
  endfacet
  facet normal -0.285120935 -0.847407191 -0.447891845
    outer loop
      vertex 0.829369444 3.22920002 1.83573245
      vertex 0.832346412 3.22877707 1.83463756
      vertex 0.832402371 3.22817955 1.83573245
    endloop
  endfacet
  facet normal 0.901713303 -0.395585691 0.174427866
    outer loop
      vertex 0.878021721 3.3637647 1.90739514
      vertex 0.877615944 3.36332253 1.90849003
      vertex 0.831996594 3.22773738 1.83682733
    endloop
  endfacet
  facet normal 0.901713303 -0.395585691 0.174427866
    outer loop
      vertex 0.878021721 3.3637647 1.90739514
      vertex 0.831996594 3.22773738 1.83682733
      vertex 0.832402371 3.22817955 1.83573245
    endloop
  endfacet
  facet normal 0.285120935 0.847407191 0.447891845
    outer loop
      vertex 0.874988793 3.36478517 1.90739514
      vertex 0.877615944 3.36332253 1.90849003
      vertex 0.878021721 3.3637647 1.90739514
    endloop
  endfacet
  facet normal -0.285120935 -0.847407191 -0.447891845
    outer loop
      vertex 0.829369444 3.22920002 1.83573245
      vertex 0.832402371 3.22817955 1.83573245
      vertex 0.831996594 3.22773738 1.83682733
    endloop
  endfacet
  facet normal 0.708705781 -0.500995885 0.496728537
    outer loop
      vertex 0.877615944 3.36332253 1.90849003
      vertex 0.876810207 3.36310304 1.90941823
      vertex 0.831190858 3.22751789 1.83775554
    endloop
  endfacet
  facet normal 0.708705781 -0.500995885 0.496728537
    outer loop
      vertex 0.877615944 3.36332253 1.90849003
      vertex 0.831190858 3.22751789 1.83775554
      vertex 0.831996594 3.22773738 1.83682733
    endloop
  endfacet
  facet normal 0.285120935 0.847407191 0.447891845
    outer loop
      vertex 0.874988793 3.36478517 1.90739514
      vertex 0.876810207 3.36310304 1.90941823
      vertex 0.877615944 3.36332253 1.90849003
    endloop
  endfacet
  facet normal -0.285120935 -0.847407191 -0.447891845
    outer loop
      vertex 0.829369444 3.22920002 1.83573245
      vertex 0.831996594 3.22773738 1.83682733
      vertex 0.831190858 3.22751789 1.83775554
    endloop
  endfacet
  facet normal 0.407804228 -0.530133998 0.74340679
    outer loop
      vertex 0.876810207 3.36310304 1.90941823
      vertex 0.875727177 3.36313963 1.91003844
      vertex 0.830107827 3.22755448 1.83837574
    endloop
  endfacet
  facet normal 0.407804228 -0.530133998 0.74340679
    outer loop
      vertex 0.876810207 3.36310304 1.90941823
      vertex 0.830107827 3.22755448 1.83837574
      vertex 0.831190858 3.22751789 1.83775554
    endloop
  endfacet
  facet normal 0.285120935 0.847407191 0.447891845
    outer loop
      vertex 0.874988793 3.36478517 1.90739514
      vertex 0.875727177 3.36313963 1.91003844
      vertex 0.876810207 3.36310304 1.90941823
    endloop
  endfacet
  facet normal -0.285120935 -0.847407191 -0.447891845
    outer loop
      vertex 0.829369444 3.22920002 1.83573245
      vertex 0.831190858 3.22751789 1.83775554
      vertex 0.830107827 3.22755448 1.83837574
    endloop
  endfacet
  facet normal 0.0448181784 -0.478564015 0.876908099
    outer loop
      vertex 0.875727177 3.36313963 1.91003844
      vertex 0.874531735 3.36342674 1.91025622
      vertex 0.828912385 3.22784159 1.83859353
    endloop
  endfacet
  facet normal 0.0448181784 -0.478564015 0.876908099
    outer loop
      vertex 0.875727177 3.36313963 1.91003844
      vertex 0.828912385 3.22784159 1.83859353
      vertex 0.830107827 3.22755448 1.83837574
    endloop
  endfacet
  facet normal 0.285120935 0.847407191 0.447891845
    outer loop
      vertex 0.874988793 3.36478517 1.90739514
      vertex 0.874531735 3.36342674 1.91025622
      vertex 0.875727177 3.36313963 1.91003844
    endloop
  endfacet
  facet normal -0.285120935 -0.847407191 -0.447891845
    outer loop
      vertex 0.829369444 3.22920002 1.83573245
      vertex 0.830107827 3.22755448 1.83837574
      vertex 0.828912385 3.22784159 1.83859353
    endloop
  endfacet
  facet normal -0.324991033 -0.354136999 0.876908099
    outer loop
      vertex 0.874531735 3.36342674 1.91025622
      vertex 0.873405875 3.36392066 1.91003844
      vertex 0.827786525 3.22833551 1.83837574
    endloop
  endfacet
  facet normal -0.324991033 -0.354136999 0.876908099
    outer loop
      vertex 0.874531735 3.36342674 1.91025622
      vertex 0.827786525 3.22833551 1.83837574
      vertex 0.828912385 3.22784159 1.83859353
    endloop
  endfacet
  facet normal 0.285120935 0.847407191 0.447891845
    outer loop
      vertex 0.874988793 3.36478517 1.90739514
      vertex 0.873405875 3.36392066 1.91003844
      vertex 0.874531735 3.36342674 1.91025622
    endloop
  endfacet
  facet normal -0.285120935 -0.847407191 -0.447891845
    outer loop
      vertex 0.829369444 3.22920002 1.83573245
      vertex 0.828912385 3.22784159 1.83859353
      vertex 0.827786525 3.22833551 1.83837574
    endloop
  endfacet
  facet normal -0.645323305 -0.175795835 0.74340679
    outer loop
      vertex 0.873405875 3.36392066 1.91003844
      vertex 0.872521001 3.3645462 1.90941823
      vertex 0.826901651 3.22896105 1.83775554
    endloop
  endfacet
  facet normal -0.645323305 -0.175795835 0.74340679
    outer loop
      vertex 0.873405875 3.36392066 1.91003844
      vertex 0.826901651 3.22896105 1.83775554
      vertex 0.827786525 3.22833551 1.83837574
    endloop
  endfacet
  facet normal 0.285120935 0.847407191 0.447891845
    outer loop
      vertex 0.874988793 3.36478517 1.90739514
      vertex 0.872521001 3.3645462 1.90941823
      vertex 0.873405875 3.36392066 1.91003844
    endloop
  endfacet
  facet normal -0.285120935 -0.847407191 -0.447891845
    outer loop
      vertex 0.829369444 3.22920002 1.83573245
      vertex 0.827786525 3.22833551 1.83837574
      vertex 0.826901651 3.22896105 1.83775554
    endloop
  endfacet
  facet normal -0.867410954 0.0293086511 0.496728537
    outer loop
      vertex 0.872521001 3.3645462 1.90941823
      vertex 0.872011825 3.36520811 1.90849003
      vertex 0.826392476 3.22962296 1.83682733
    endloop
  endfacet
  facet normal -0.867410954 0.0293086511 0.496728537
    outer loop
      vertex 0.872521001 3.3645462 1.90941823
      vertex 0.826392476 3.22962296 1.83682733
      vertex 0.826901651 3.22896105 1.83775554
    endloop
  endfacet
  facet normal 0.285120935 0.847407191 0.447891845
    outer loop
      vertex 0.874988793 3.36478517 1.90739514
      vertex 0.872011825 3.36520811 1.90849003
      vertex 0.872521001 3.3645462 1.90941823
    endloop
  endfacet
  facet normal -0.285120935 -0.847407191 -0.447891845
    outer loop
      vertex 0.829369444 3.22920002 1.83573245
      vertex 0.826901651 3.22896105 1.83775554
      vertex 0.826392476 3.22962296 1.83682733
    endloop
  endfacet
  facet normal -0.957443149 0.229951161 0.174427866
    outer loop
      vertex 0.872011825 3.36520811 1.90849003
      vertex 0.871955866 3.36580563 1.90739514
      vertex 0.826336517 3.23022048 1.83573245
    endloop
  endfacet
  facet normal -0.957443149 0.229951161 0.174427866
    outer loop
      vertex 0.872011825 3.36520811 1.90849003
      vertex 0.826336517 3.23022048 1.83573245
      vertex 0.826392476 3.22962296 1.83682733
    endloop
  endfacet
  facet normal 0.285120935 0.847407191 0.447891845
    outer loop
      vertex 0.874988793 3.36478517 1.90739514
      vertex 0.871955866 3.36580563 1.90739514
      vertex 0.872011825 3.36520811 1.90849003
    endloop
  endfacet
  facet normal -0.285120935 -0.847407191 -0.447891845
    outer loop
      vertex 0.829369444 3.22920002 1.83573245
      vertex 0.826392476 3.22962296 1.83682733
      vertex 0.826336517 3.23022048 1.83573245
    endloop
  endfacet
  facet normal -0.901713303 0.395585691 -0.174427866
    outer loop
      vertex 0.882686733 3.37598938 1.88129649
      vertex 0.883092509 3.37643155 1.8802016
      vertex 0.83747316 3.2408464 1.8085389
    endloop
  endfacet
  facet normal -0.901713303 0.395585691 -0.174427866
    outer loop
      vertex 0.882686733 3.37598938 1.88129649
      vertex 0.83747316 3.2408464 1.8085389
      vertex 0.837067383 3.24040423 1.80963379
    endloop
  endfacet
  facet normal 0.285120935 0.847407191 0.447891845
    outer loop
      vertex 0.88571966 3.37496891 1.88129649
      vertex 0.883092509 3.37643155 1.8802016
      vertex 0.882686733 3.37598938 1.88129649
    endloop
  endfacet
  facet normal -0.285120935 -0.847407191 -0.447891845
    outer loop
      vertex 0.84010031 3.23938376 1.80963379
      vertex 0.837067383 3.24040423 1.80963379
      vertex 0.83747316 3.2408464 1.8085389
    endloop
  endfacet
  facet normal -0.708705781 0.500995885 -0.496728537
    outer loop
      vertex 0.883092509 3.37643155 1.8802016
      vertex 0.883898246 3.37665104 1.8792734
      vertex 0.838278896 3.24106589 1.8076107
    endloop
  endfacet
  facet normal -0.708705781 0.500995885 -0.496728537
    outer loop
      vertex 0.883092509 3.37643155 1.8802016
      vertex 0.838278896 3.24106589 1.8076107
      vertex 0.83747316 3.2408464 1.8085389
    endloop
  endfacet
  facet normal 0.285120935 0.847407191 0.447891845
    outer loop
      vertex 0.88571966 3.37496891 1.88129649
      vertex 0.883898246 3.37665104 1.8792734
      vertex 0.883092509 3.37643155 1.8802016
    endloop
  endfacet
  facet normal -0.285120935 -0.847407191 -0.447891845
    outer loop
      vertex 0.84010031 3.23938376 1.80963379
      vertex 0.83747316 3.2408464 1.8085389
      vertex 0.838278896 3.24106589 1.8076107
    endloop
  endfacet
  facet normal -0.407804228 0.530133998 -0.74340679
    outer loop
      vertex 0.883898246 3.37665104 1.8792734
      vertex 0.884981276 3.37661445 1.87865319
      vertex 0.839361927 3.2410293 1.8069905
    endloop
  endfacet
  facet normal -0.407804228 0.530133998 -0.74340679
    outer loop
      vertex 0.883898246 3.37665104 1.8792734
      vertex 0.839361927 3.2410293 1.8069905
      vertex 0.838278896 3.24106589 1.8076107
    endloop
  endfacet
  facet normal 0.285120935 0.847407191 0.447891845
    outer loop
      vertex 0.88571966 3.37496891 1.88129649
      vertex 0.884981276 3.37661445 1.87865319
      vertex 0.883898246 3.37665104 1.8792734
    endloop
  endfacet
  facet normal -0.285120935 -0.847407191 -0.447891845
    outer loop
      vertex 0.84010031 3.23938376 1.80963379
      vertex 0.838278896 3.24106589 1.8076107
      vertex 0.839361927 3.2410293 1.8069905
    endloop
  endfacet
  facet normal -0.0448181784 0.478564015 -0.876908099
    outer loop
      vertex 0.884981276 3.37661445 1.87865319
      vertex 0.886176719 3.37632734 1.87843541
      vertex 0.840557369 3.24074219 1.80677271
    endloop
  endfacet
  facet normal -0.0448181784 0.478564015 -0.876908099
    outer loop
      vertex 0.884981276 3.37661445 1.87865319
      vertex 0.840557369 3.24074219 1.80677271
      vertex 0.839361927 3.2410293 1.8069905
    endloop
  endfacet
  facet normal 0.285120935 0.847407191 0.447891845
    outer loop
      vertex 0.88571966 3.37496891 1.88129649
      vertex 0.886176719 3.37632734 1.87843541
      vertex 0.884981276 3.37661445 1.87865319
    endloop
  endfacet
  facet normal -0.285120935 -0.847407191 -0.447891845
    outer loop
      vertex 0.84010031 3.23938376 1.80963379
      vertex 0.839361927 3.2410293 1.8069905
      vertex 0.840557369 3.24074219 1.80677271
    endloop
  endfacet
  facet normal 0.324991033 0.354136999 -0.876908099
    outer loop
      vertex 0.886176719 3.37632734 1.87843541
      vertex 0.887302578 3.37583342 1.87865319
      vertex 0.841683229 3.24024827 1.8069905
    endloop
  endfacet
  facet normal 0.324991033 0.354136999 -0.876908099
    outer loop
      vertex 0.886176719 3.37632734 1.87843541
      vertex 0.841683229 3.24024827 1.8069905
      vertex 0.840557369 3.24074219 1.80677271
    endloop
  endfacet
  facet normal 0.285120935 0.847407191 0.447891845
    outer loop
      vertex 0.88571966 3.37496891 1.88129649
      vertex 0.887302578 3.37583342 1.87865319
      vertex 0.886176719 3.37632734 1.87843541
    endloop
  endfacet
  facet normal -0.285120935 -0.847407191 -0.447891845
    outer loop
      vertex 0.84010031 3.23938376 1.80963379
      vertex 0.840557369 3.24074219 1.80677271
      vertex 0.841683229 3.24024827 1.8069905
    endloop
  endfacet
  facet normal 0.645323305 0.175795835 -0.74340679
    outer loop
      vertex 0.887302578 3.37583342 1.87865319
      vertex 0.888187453 3.37520789 1.8792734
      vertex 0.842568103 3.23962273 1.8076107
    endloop
  endfacet
  facet normal 0.645323305 0.175795835 -0.74340679
    outer loop
      vertex 0.887302578 3.37583342 1.87865319
      vertex 0.842568103 3.23962273 1.8076107
      vertex 0.841683229 3.24024827 1.8069905
    endloop
  endfacet
  facet normal 0.285120935 0.847407191 0.447891845
    outer loop
      vertex 0.88571966 3.37496891 1.88129649
      vertex 0.888187453 3.37520789 1.8792734
      vertex 0.887302578 3.37583342 1.87865319
    endloop
  endfacet
  facet normal -0.285120935 -0.847407191 -0.447891845
    outer loop
      vertex 0.84010031 3.23938376 1.80963379
      vertex 0.841683229 3.24024827 1.8069905
      vertex 0.842568103 3.23962273 1.8076107
    endloop
  endfacet
  facet normal 0.867410954 -0.0293086511 -0.496728537
    outer loop
      vertex 0.888187453 3.37520789 1.8792734
      vertex 0.888696628 3.37454597 1.8802016
      vertex 0.843077278 3.23896082 1.8085389
    endloop
  endfacet
  facet normal 0.867410954 -0.0293086511 -0.496728537
    outer loop
      vertex 0.888187453 3.37520789 1.8792734
      vertex 0.843077278 3.23896082 1.8085389
      vertex 0.842568103 3.23962273 1.8076107
    endloop
  endfacet
  facet normal 0.285120935 0.847407191 0.447891845
    outer loop
      vertex 0.88571966 3.37496891 1.88129649
      vertex 0.888696628 3.37454597 1.8802016
      vertex 0.888187453 3.37520789 1.8792734
    endloop
  endfacet
  facet normal -0.285120935 -0.847407191 -0.447891845
    outer loop
      vertex 0.84010031 3.23938376 1.80963379
      vertex 0.842568103 3.23962273 1.8076107
      vertex 0.843077278 3.23896082 1.8085389
    endloop
  endfacet
  facet normal 0.957443149 -0.229951161 -0.174427866
    outer loop
      vertex 0.888696628 3.37454597 1.8802016
      vertex 0.888752587 3.37394845 1.88129649
      vertex 0.843133237 3.2383633 1.80963379
    endloop
  endfacet
  facet normal 0.957443149 -0.229951161 -0.174427866
    outer loop
      vertex 0.888696628 3.37454597 1.8802016
      vertex 0.843133237 3.2383633 1.80963379
      vertex 0.843077278 3.23896082 1.8085389
    endloop
  endfacet
  facet normal 0.285120935 0.847407191 0.447891845
    outer loop
      vertex 0.88571966 3.37496891 1.88129649
      vertex 0.888752587 3.37394845 1.88129649
      vertex 0.888696628 3.37454597 1.8802016
    endloop
  endfacet
  facet normal -0.285120935 -0.847407191 -0.447891845
    outer loop
      vertex 0.84010031 3.23938376 1.80963379
      vertex 0.843077278 3.23896082 1.8085389
      vertex 0.843133237 3.2383633 1.80963379
    endloop
  endfacet
  facet normal 0.901713303 -0.395585691 0.174427866
    outer loop
      vertex 0.888752587 3.37394845 1.88129649
      vertex 0.88834681 3.37350628 1.88239137
      vertex 0.842727461 3.23792113 1.81072868
    endloop
  endfacet
  facet normal 0.901713303 -0.395585691 0.174427866
    outer loop
      vertex 0.888752587 3.37394845 1.88129649
      vertex 0.842727461 3.23792113 1.81072868
      vertex 0.843133237 3.2383633 1.80963379
    endloop
  endfacet
  facet normal 0.285120935 0.847407191 0.447891845
    outer loop
      vertex 0.88571966 3.37496891 1.88129649
      vertex 0.88834681 3.37350628 1.88239137
      vertex 0.888752587 3.37394845 1.88129649
    endloop
  endfacet
  facet normal -0.285120935 -0.847407191 -0.447891845
    outer loop
      vertex 0.84010031 3.23938376 1.80963379
      vertex 0.843133237 3.2383633 1.80963379
      vertex 0.842727461 3.23792113 1.81072868
    endloop
  endfacet
  facet normal 0.708705781 -0.500995885 0.496728537
    outer loop
      vertex 0.88834681 3.37350628 1.88239137
      vertex 0.887541074 3.37328678 1.88331958
      vertex 0.841921724 3.23770163 1.81165688
    endloop
  endfacet
  facet normal 0.708705781 -0.500995885 0.496728537
    outer loop
      vertex 0.88834681 3.37350628 1.88239137
      vertex 0.841921724 3.23770163 1.81165688
      vertex 0.842727461 3.23792113 1.81072868
    endloop
  endfacet
  facet normal 0.285120935 0.847407191 0.447891845
    outer loop
      vertex 0.88571966 3.37496891 1.88129649
      vertex 0.887541074 3.37328678 1.88331958
      vertex 0.88834681 3.37350628 1.88239137
    endloop
  endfacet
  facet normal -0.285120935 -0.847407191 -0.447891845
    outer loop
      vertex 0.84010031 3.23938376 1.80963379
      vertex 0.842727461 3.23792113 1.81072868
      vertex 0.841921724 3.23770163 1.81165688
    endloop
  endfacet
  facet normal 0.407804228 -0.530133998 0.74340679
    outer loop
      vertex 0.887541074 3.37328678 1.88331958
      vertex 0.886458044 3.37332338 1.88393978
      vertex 0.840838694 3.23773823 1.81227709
    endloop
  endfacet
  facet normal 0.407804228 -0.530133998 0.74340679
    outer loop
      vertex 0.887541074 3.37328678 1.88331958
      vertex 0.840838694 3.23773823 1.81227709
      vertex 0.841921724 3.23770163 1.81165688
    endloop
  endfacet
  facet normal 0.285120935 0.847407191 0.447891845
    outer loop
      vertex 0.88571966 3.37496891 1.88129649
      vertex 0.886458044 3.37332338 1.88393978
      vertex 0.887541074 3.37328678 1.88331958
    endloop
  endfacet
  facet normal -0.285120935 -0.847407191 -0.447891845
    outer loop
      vertex 0.84010031 3.23938376 1.80963379
      vertex 0.841921724 3.23770163 1.81165688
      vertex 0.840838694 3.23773823 1.81227709
    endloop
  endfacet
  facet normal 0.0448181784 -0.478564015 0.876908099
    outer loop
      vertex 0.886458044 3.37332338 1.88393978
      vertex 0.885262601 3.37361049 1.88415757
      vertex 0.839643251 3.23802534 1.81249487
    endloop
  endfacet
  facet normal 0.0448181784 -0.478564015 0.876908099
    outer loop
      vertex 0.886458044 3.37332338 1.88393978
      vertex 0.839643251 3.23802534 1.81249487
      vertex 0.840838694 3.23773823 1.81227709
    endloop
  endfacet
  facet normal 0.285120935 0.847407191 0.447891845
    outer loop
      vertex 0.88571966 3.37496891 1.88129649
      vertex 0.885262601 3.37361049 1.88415757
      vertex 0.886458044 3.37332338 1.88393978
    endloop
  endfacet
  facet normal -0.285120935 -0.847407191 -0.447891845
    outer loop
      vertex 0.84010031 3.23938376 1.80963379
      vertex 0.840838694 3.23773823 1.81227709
      vertex 0.839643251 3.23802534 1.81249487
    endloop
  endfacet
  facet normal -0.324991033 -0.354136999 0.876908099
    outer loop
      vertex 0.885262601 3.37361049 1.88415757
      vertex 0.884136742 3.37410441 1.88393978
      vertex 0.838517392 3.23851926 1.81227709
    endloop
  endfacet
  facet normal -0.324991033 -0.354136999 0.876908099
    outer loop
      vertex 0.885262601 3.37361049 1.88415757
      vertex 0.838517392 3.23851926 1.81227709
      vertex 0.839643251 3.23802534 1.81249487
    endloop
  endfacet
  facet normal 0.285120935 0.847407191 0.447891845
    outer loop
      vertex 0.88571966 3.37496891 1.88129649
      vertex 0.884136742 3.37410441 1.88393978
      vertex 0.885262601 3.37361049 1.88415757
    endloop
  endfacet
  facet normal -0.285120935 -0.847407191 -0.447891845
    outer loop
      vertex 0.84010031 3.23938376 1.80963379
      vertex 0.839643251 3.23802534 1.81249487
      vertex 0.838517392 3.23851926 1.81227709
    endloop
  endfacet
  facet normal -0.645323305 -0.175795835 0.74340679
    outer loop
      vertex 0.884136742 3.37410441 1.88393978
      vertex 0.883251867 3.37472994 1.88331958
      vertex 0.837632518 3.23914479 1.81165688
    endloop
  endfacet
  facet normal -0.645323305 -0.175795835 0.74340679
    outer loop
      vertex 0.884136742 3.37410441 1.88393978
      vertex 0.837632518 3.23914479 1.81165688
      vertex 0.838517392 3.23851926 1.81227709
    endloop
  endfacet
  facet normal 0.285120935 0.847407191 0.447891845
    outer loop
      vertex 0.88571966 3.37496891 1.88129649
      vertex 0.883251867 3.37472994 1.88331958
      vertex 0.884136742 3.37410441 1.88393978
    endloop
  endfacet
  facet normal -0.285120935 -0.847407191 -0.447891845
    outer loop
      vertex 0.84010031 3.23938376 1.80963379
      vertex 0.838517392 3.23851926 1.81227709
      vertex 0.837632518 3.23914479 1.81165688
    endloop
  endfacet
  facet normal -0.867410954 0.0293086511 0.496728537
    outer loop
      vertex 0.883251867 3.37472994 1.88331958
      vertex 0.882742692 3.37539186 1.88239137
      vertex 0.837123342 3.23980671 1.81072868
    endloop
  endfacet
  facet normal -0.867410954 0.0293086511 0.496728537
    outer loop
      vertex 0.883251867 3.37472994 1.88331958
      vertex 0.837123342 3.23980671 1.81072868
      vertex 0.837632518 3.23914479 1.81165688
    endloop
  endfacet
  facet normal 0.285120935 0.847407191 0.447891845
    outer loop
      vertex 0.88571966 3.37496891 1.88129649
      vertex 0.882742692 3.37539186 1.88239137
      vertex 0.883251867 3.37472994 1.88331958
    endloop
  endfacet
  facet normal -0.285120935 -0.847407191 -0.447891845
    outer loop
      vertex 0.84010031 3.23938376 1.80963379
      vertex 0.837632518 3.23914479 1.81165688
      vertex 0.837123342 3.23980671 1.81072868
    endloop
  endfacet
  facet normal -0.957443149 0.229951161 0.174427866
    outer loop
      vertex 0.882742692 3.37539186 1.88239137
      vertex 0.882686733 3.37598938 1.88129649
      vertex 0.837067383 3.24040423 1.80963379
    endloop
  endfacet
  facet normal -0.957443149 0.229951161 0.174427866
    outer loop
      vertex 0.882742692 3.37539186 1.88239137
      vertex 0.837067383 3.24040423 1.80963379
      vertex 0.837123342 3.23980671 1.81072868
    endloop
  endfacet
  facet normal 0.285120935 0.847407191 0.447891845
    outer loop
      vertex 0.88571966 3.37496891 1.88129649
      vertex 0.882686733 3.37598938 1.88129649
      vertex 0.882742692 3.37539186 1.88239137
    endloop
  endfacet
  facet normal -0.285120935 -0.847407191 -0.447891845
    outer loop
      vertex 0.84010031 3.23938376 1.80963379
      vertex 0.837123342 3.23980671 1.81072868
      vertex 0.837067383 3.24040423 1.80963379
    endloop
  endfacet
  facet normal -0.924497666 0.335980957 -0.180057942
    outer loop
      vertex 1.08305981 3.38192785 2.00110881
      vertex 1.08342114 3.38231639 1.99997858
      vertex 1.04372491 3.24008044 1.93839009
    endloop
  endfacet
  facet normal -0.924497666 0.335980957 -0.180057942
    outer loop
      vertex 1.08305981 3.38192785 2.00110881
      vertex 1.04372491 3.24008044 1.93839009
      vertex 1.04336357 3.23969189 1.93952031
    endloop
  endfacet
  facet normal 0.248101448 0.888974704 0.384928106
    outer loop
      vertex 1.08614202 3.38106764 2.00110881
      vertex 1.08342114 3.38231639 1.99997858
      vertex 1.08305981 3.38192785 2.00110881
    endloop
  endfacet
  facet normal -0.248101448 -0.888974704 -0.384928106
    outer loop
      vertex 1.04644579 3.23883169 1.93952031
      vertex 1.04336357 3.23969189 1.93952031
      vertex 1.04372491 3.24008044 1.93839009
    endloop
  endfacet
  facet normal -0.74337762 0.429494143 -0.512761636
    outer loop
      vertex 1.08342114 3.38231639 1.99997858
      vertex 1.0841967 3.38251483 1.99902042
      vertex 1.04450047 3.24027888 1.93743193
    endloop
  endfacet
  facet normal -0.74337762 0.429494143 -0.512761636
    outer loop
      vertex 1.08342114 3.38231639 1.99997858
      vertex 1.04450047 3.24027888 1.93743193
      vertex 1.04372491 3.24008044 1.93839009
    endloop
  endfacet
  facet normal 0.248101448 0.888974704 0.384928106
    outer loop
      vertex 1.08614202 3.38106764 2.00110881
      vertex 1.0841967 3.38251483 1.99902042
      vertex 1.08342114 3.38231639 1.99997858
    endloop
  endfacet
  facet normal -0.248101448 -0.888974704 -0.384928106
    outer loop
      vertex 1.04644579 3.23883169 1.93952031
      vertex 1.04372491 3.24008044 1.93839009
      vertex 1.04450047 3.24027888 1.93743193
    endloop
  endfacet
  facet normal -0.44908507 0.45762074 -0.767402019
    outer loop
      vertex 1.0841967 3.38251483 1.99902042
      vertex 1.08526842 3.38249295 1.9983802
      vertex 1.04557219 3.24025699 1.9367917
    endloop
  endfacet
  facet normal -0.44908507 0.45762074 -0.767402019
    outer loop
      vertex 1.0841967 3.38251483 1.99902042
      vertex 1.04557219 3.24025699 1.9367917
      vertex 1.04450047 3.24027888 1.93743193
    endloop
  endfacet
  facet normal 0.248101448 0.888974704 0.384928106
    outer loop
      vertex 1.08614202 3.38106764 2.00110881
      vertex 1.08526842 3.38249295 1.9983802
      vertex 1.0841967 3.38251483 1.99902042
    endloop
  endfacet
  facet normal -0.248101448 -0.888974704 -0.384928106
    outer loop
      vertex 1.04644579 3.23883169 1.93952031
      vertex 1.04450047 3.24027888 1.93743193
      vertex 1.04557219 3.24025699 1.9367917
    endloop
  endfacet
  facet normal -0.0864233895 0.416078727 -0.905212401
    outer loop
      vertex 1.08526842 3.38249295 1.9983802
      vertex 1.08647314 3.38225407 1.99815538
      vertex 1.04677691 3.24001812 1.93656689
    endloop
  endfacet
  facet normal -0.0864233895 0.416078727 -0.905212401
    outer loop
      vertex 1.08526842 3.38249295 1.9983802
      vertex 1.04677691 3.24001812 1.93656689
      vertex 1.04557219 3.24025699 1.9367917
    endloop
  endfacet
  facet normal 0.248101448 0.888974704 0.384928106
    outer loop
      vertex 1.08614202 3.38106764 2.00110881
      vertex 1.08647314 3.38225407 1.99815538
      vertex 1.08526842 3.38249295 1.9983802
    endloop
  endfacet
  facet normal -0.248101448 -0.888974704 -0.384928106
    outer loop
      vertex 1.04644579 3.23883169 1.93952031
      vertex 1.04557219 3.24025699 1.9367917
      vertex 1.04677691 3.24001812 1.93656689
    endloop
  endfacet
  facet normal 0.289395469 0.311192499 -0.905212401
    outer loop
      vertex 1.08647314 3.38225407 1.99815538
      vertex 1.08762745 3.38183457 1.9983802
      vertex 1.04793121 3.23959862 1.9367917
    endloop
  endfacet
  facet normal 0.289395469 0.311192499 -0.905212401
    outer loop
      vertex 1.08647314 3.38225407 1.99815538
      vertex 1.04793121 3.23959862 1.9367917
      vertex 1.04677691 3.24001812 1.93656689
    endloop
  endfacet
  facet normal 0.248101448 0.888974704 0.384928106
    outer loop
      vertex 1.08614202 3.38106764 2.00110881
      vertex 1.08762745 3.38183457 1.9983802
      vertex 1.08647314 3.38225407 1.99815538
    endloop
  endfacet
  facet normal -0.248101448 -0.888974704 -0.384928106
    outer loop
      vertex 1.04644579 3.23883169 1.93952031
      vertex 1.04677691 3.24001812 1.93656689
      vertex 1.04793121 3.23959862 1.9367917
    endloop
  endfacet
  facet normal 0.62115649 0.158930035 -0.767402019
    outer loop
      vertex 1.08762745 3.38183457 1.9983802
      vertex 1.08855561 3.38129832 1.99902042
      vertex 1.04885938 3.23906236 1.93743193
    endloop
  endfacet
  facet normal 0.62115649 0.158930035 -0.767402019
    outer loop
      vertex 1.08762745 3.38183457 1.9983802
      vertex 1.04885938 3.23906236 1.93743193
      vertex 1.04793121 3.23959862 1.9367917
    endloop
  endfacet
  facet normal 0.248101448 0.888974704 0.384928106
    outer loop
      vertex 1.08614202 3.38106764 2.00110881
      vertex 1.08855561 3.38129832 1.99902042
      vertex 1.08762745 3.38183457 1.9983802
    endloop
  endfacet
  facet normal -0.248101448 -0.888974704 -0.384928106
    outer loop
      vertex 1.04644579 3.23883169 1.93952031
      vertex 1.04793121 3.23959862 1.9367917
      vertex 1.04885938 3.23906236 1.93743193
    endloop
  endfacet
  facet normal 0.858352067 -0.0175280865 -0.512761636
    outer loop
      vertex 1.08855561 3.38129832 1.99902042
      vertex 1.08911633 3.38072694 1.99997858
      vertex 1.0494201 3.23849099 1.93839009
    endloop
  endfacet
  facet normal 0.858352067 -0.0175280865 -0.512761636
    outer loop
      vertex 1.08855561 3.38129832 1.99902042
      vertex 1.0494201 3.23849099 1.93839009
      vertex 1.04885938 3.23906236 1.93743193
    endloop
  endfacet
  facet normal 0.248101448 0.888974704 0.384928106
    outer loop
      vertex 1.08614202 3.38106764 2.00110881
      vertex 1.08911633 3.38072694 1.99997858
      vertex 1.08855561 3.38129832 1.99902042
    endloop
  endfacet
  facet normal -0.248101448 -0.888974704 -0.384928106
    outer loop
      vertex 1.04644579 3.23883169 1.93952031
      vertex 1.04885938 3.23906236 1.93743193
      vertex 1.0494201 3.23849099 1.93839009
    endloop
  endfacet
  facet normal 0.964871323 -0.191317716 -0.180057942
    outer loop
      vertex 1.08911633 3.38072694 1.99997858
      vertex 1.08922423 3.38020743 2.00110881
      vertex 1.049528 3.23797148 1.93952031
    endloop
  endfacet
  facet normal 0.964871323 -0.191317716 -0.180057942
    outer loop
      vertex 1.08911633 3.38072694 1.99997858
      vertex 1.049528 3.23797148 1.93952031
      vertex 1.0494201 3.23849099 1.93839009
    endloop
  endfacet
  facet normal 0.248101448 0.888974704 0.384928106
    outer loop
      vertex 1.08614202 3.38106764 2.00110881
      vertex 1.08922423 3.38020743 2.00110881
      vertex 1.08911633 3.38072694 1.99997858
    endloop
  endfacet
  facet normal -0.248101448 -0.888974704 -0.384928106
    outer loop
      vertex 1.04644579 3.23883169 1.93952031
      vertex 1.0494201 3.23849099 1.93839009
      vertex 1.049528 3.23797148 1.93952031
    endloop
  endfacet
  facet normal 0.924497666 -0.335980957 0.180057942
    outer loop
      vertex 1.08922423 3.38020743 2.00110881
      vertex 1.0888629 3.37981888 2.00223904
      vertex 1.04916667 3.23758293 1.94065054
    endloop
  endfacet
  facet normal 0.924497666 -0.335980957 0.180057942
    outer loop
      vertex 1.08922423 3.38020743 2.00110881
      vertex 1.04916667 3.23758293 1.94065054
      vertex 1.049528 3.23797148 1.93952031
    endloop
  endfacet
  facet normal 0.248101448 0.888974704 0.384928106
    outer loop
      vertex 1.08614202 3.38106764 2.00110881
      vertex 1.0888629 3.37981888 2.00223904
      vertex 1.08922423 3.38020743 2.00110881
    endloop
  endfacet
  facet normal -0.248101448 -0.888974704 -0.384928106
    outer loop
      vertex 1.04644579 3.23883169 1.93952031
      vertex 1.049528 3.23797148 1.93952031
      vertex 1.04916667 3.23758293 1.94065054
    endloop
  endfacet
  facet normal 0.74337762 -0.429494143 0.512761636
    outer loop
      vertex 1.0888629 3.37981888 2.00223904
      vertex 1.08808734 3.37962045 2.0031972
      vertex 1.04839111 3.2373845 1.9416087
    endloop
  endfacet
  facet normal 0.74337762 -0.429494143 0.512761636
    outer loop
      vertex 1.0888629 3.37981888 2.00223904
      vertex 1.04839111 3.2373845 1.9416087
      vertex 1.04916667 3.23758293 1.94065054
    endloop
  endfacet
  facet normal 0.248101448 0.888974704 0.384928106
    outer loop
      vertex 1.08614202 3.38106764 2.00110881
      vertex 1.08808734 3.37962045 2.0031972
      vertex 1.0888629 3.37981888 2.00223904
    endloop
  endfacet
  facet normal -0.248101448 -0.888974704 -0.384928106
    outer loop
      vertex 1.04644579 3.23883169 1.93952031
      vertex 1.04916667 3.23758293 1.94065054
      vertex 1.04839111 3.2373845 1.9416087
    endloop
  endfacet
  facet normal 0.44908507 -0.45762074 0.767402019
    outer loop
      vertex 1.08808734 3.37962045 2.0031972
      vertex 1.08701562 3.37964233 2.00383742
      vertex 1.04731939 3.23740638 1.94224893
    endloop
  endfacet
  facet normal 0.44908507 -0.45762074 0.767402019
    outer loop
      vertex 1.08808734 3.37962045 2.0031972
      vertex 1.04731939 3.23740638 1.94224893
      vertex 1.04839111 3.2373845 1.9416087
    endloop
  endfacet
  facet normal 0.248101448 0.888974704 0.384928106
    outer loop
      vertex 1.08614202 3.38106764 2.00110881
      vertex 1.08701562 3.37964233 2.00383742
      vertex 1.08808734 3.37962045 2.0031972
    endloop
  endfacet
  facet normal -0.248101448 -0.888974704 -0.384928106
    outer loop
      vertex 1.04644579 3.23883169 1.93952031
      vertex 1.04839111 3.2373845 1.9416087
      vertex 1.04731939 3.23740638 1.94224893
    endloop
  endfacet
  facet normal 0.0864233895 -0.416078727 0.905212401
    outer loop
      vertex 1.08701562 3.37964233 2.00383742
      vertex 1.0858109 3.37988121 2.00406224
      vertex 1.04611467 3.23764526 1.94247374
    endloop
  endfacet
  facet normal 0.0864233895 -0.416078727 0.905212401
    outer loop
      vertex 1.08701562 3.37964233 2.00383742
      vertex 1.04611467 3.23764526 1.94247374
      vertex 1.04731939 3.23740638 1.94224893
    endloop
  endfacet
  facet normal 0.248101448 0.888974704 0.384928106
    outer loop
      vertex 1.08614202 3.38106764 2.00110881
      vertex 1.0858109 3.37988121 2.00406224
      vertex 1.08701562 3.37964233 2.00383742
    endloop
  endfacet
  facet normal -0.248101448 -0.888974704 -0.384928106
    outer loop
      vertex 1.04644579 3.23883169 1.93952031
      vertex 1.04731939 3.23740638 1.94224893
      vertex 1.04611467 3.23764526 1.94247374
    endloop
  endfacet
  facet normal -0.289395469 -0.311192499 0.905212401
    outer loop
      vertex 1.0858109 3.37988121 2.00406224
      vertex 1.0846566 3.38030071 2.00383742
      vertex 1.04496036 3.23806475 1.94224893
    endloop
  endfacet
  facet normal -0.289395469 -0.311192499 0.905212401
    outer loop
      vertex 1.0858109 3.37988121 2.00406224
      vertex 1.04496036 3.23806475 1.94224893
      vertex 1.04611467 3.23764526 1.94247374
    endloop
  endfacet
  facet normal 0.248101448 0.888974704 0.384928106
    outer loop
      vertex 1.08614202 3.38106764 2.00110881
      vertex 1.0846566 3.38030071 2.00383742
      vertex 1.0858109 3.37988121 2.00406224
    endloop
  endfacet
  facet normal -0.248101448 -0.888974704 -0.384928106
    outer loop
      vertex 1.04644579 3.23883169 1.93952031
      vertex 1.04611467 3.23764526 1.94247374
      vertex 1.04496036 3.23806475 1.94224893
    endloop
  endfacet
  facet normal -0.62115649 -0.158930035 0.767402019
    outer loop
      vertex 1.0846566 3.38030071 2.00383742
      vertex 1.08372843 3.38083696 2.0031972
      vertex 1.0440322 3.23860101 1.9416087
    endloop
  endfacet
  facet normal -0.62115649 -0.158930035 0.767402019
    outer loop
      vertex 1.0846566 3.38030071 2.00383742
      vertex 1.0440322 3.23860101 1.9416087
      vertex 1.04496036 3.23806475 1.94224893
    endloop
  endfacet
  facet normal 0.248101448 0.888974704 0.384928106
    outer loop
      vertex 1.08614202 3.38106764 2.00110881
      vertex 1.08372843 3.38083696 2.0031972
      vertex 1.0846566 3.38030071 2.00383742
    endloop
  endfacet
  facet normal -0.248101448 -0.888974704 -0.384928106
    outer loop
      vertex 1.04644579 3.23883169 1.93952031
      vertex 1.04496036 3.23806475 1.94224893
      vertex 1.0440322 3.23860101 1.9416087
    endloop
  endfacet
  facet normal -0.858352067 0.0175280865 0.512761636
    outer loop
      vertex 1.08372843 3.38083696 2.0031972
      vertex 1.08316771 3.38140834 2.00223904
      vertex 1.04347148 3.23917239 1.94065054
    endloop
  endfacet
  facet normal -0.858352067 0.0175280865 0.512761636
    outer loop
      vertex 1.08372843 3.38083696 2.0031972
      vertex 1.04347148 3.23917239 1.94065054
      vertex 1.0440322 3.23860101 1.9416087
    endloop
  endfacet
  facet normal 0.248101448 0.888974704 0.384928106
    outer loop
      vertex 1.08614202 3.38106764 2.00110881
      vertex 1.08316771 3.38140834 2.00223904
      vertex 1.08372843 3.38083696 2.0031972
    endloop
  endfacet
  facet normal -0.248101448 -0.888974704 -0.384928106
    outer loop
      vertex 1.04644579 3.23883169 1.93952031
      vertex 1.0440322 3.23860101 1.9416087
      vertex 1.04347148 3.23917239 1.94065054
    endloop
  endfacet
  facet normal -0.964871323 0.191317716 0.180057942
    outer loop
      vertex 1.08316771 3.38140834 2.00223904
      vertex 1.08305981 3.38192785 2.00110881
      vertex 1.04336357 3.23969189 1.93952031
    endloop
  endfacet
  facet normal -0.964871323 0.191317716 0.180057942
    outer loop
      vertex 1.08316771 3.38140834 2.00223904
      vertex 1.04336357 3.23969189 1.93952031
      vertex 1.04347148 3.23917239 1.94065054
    endloop
  endfacet
  facet normal 0.248101448 0.888974704 0.384928106
    outer loop
      vertex 1.08614202 3.38106764 2.00110881
      vertex 1.08305981 3.38192785 2.00110881
      vertex 1.08316771 3.38140834 2.00223904
    endloop
  endfacet
  facet normal -0.248101448 -0.888974704 -0.384928106
    outer loop
      vertex 1.04644579 3.23883169 1.93952031
      vertex 1.04347148 3.23917239 1.94065054
      vertex 1.04336357 3.23969189 1.93952031
    endloop
  endfacet
  facet normal -0.924497666 0.335980957 -0.180057942
    outer loop
      vertex 1.09410781 3.39035692 1.97452136
      vertex 1.09446914 3.39074547 1.97339113
      vertex 1.05477291 3.24850951 1.91180264
    endloop
  endfacet
  facet normal -0.924497666 0.335980957 -0.180057942
    outer loop
      vertex 1.09410781 3.39035692 1.97452136
      vertex 1.05477291 3.24850951 1.91180264
      vertex 1.05441158 3.24812096 1.91293287
    endloop
  endfacet
  facet normal 0.248101448 0.888974704 0.384928106
    outer loop
      vertex 1.09719002 3.38949671 1.97452136
      vertex 1.09446914 3.39074547 1.97339113
      vertex 1.09410781 3.39035692 1.97452136
    endloop
  endfacet
  facet normal -0.248101448 -0.888974704 -0.384928106
    outer loop
      vertex 1.05749379 3.24726076 1.91293287
      vertex 1.05441158 3.24812096 1.91293287
      vertex 1.05477291 3.24850951 1.91180264
    endloop
  endfacet
  facet normal -0.74337762 0.429494143 -0.512761636
    outer loop
      vertex 1.09446914 3.39074547 1.97339113
      vertex 1.0952447 3.3909439 1.97243297
      vertex 1.05554847 3.24870795 1.91084448
    endloop
  endfacet
  facet normal -0.74337762 0.429494143 -0.512761636
    outer loop
      vertex 1.09446914 3.39074547 1.97339113
      vertex 1.05554847 3.24870795 1.91084448
      vertex 1.05477291 3.24850951 1.91180264
    endloop
  endfacet
  facet normal 0.248101448 0.888974704 0.384928106
    outer loop
      vertex 1.09719002 3.38949671 1.97452136
      vertex 1.0952447 3.3909439 1.97243297
      vertex 1.09446914 3.39074547 1.97339113
    endloop
  endfacet
  facet normal -0.248101448 -0.888974704 -0.384928106
    outer loop
      vertex 1.05749379 3.24726076 1.91293287
      vertex 1.05477291 3.24850951 1.91180264
      vertex 1.05554847 3.24870795 1.91084448
    endloop
  endfacet
  facet normal -0.44908507 0.45762074 -0.767402019
    outer loop
      vertex 1.0952447 3.3909439 1.97243297
      vertex 1.09631642 3.39092202 1.97179275
      vertex 1.05662019 3.24868606 1.91020425
    endloop
  endfacet
  facet normal -0.44908507 0.45762074 -0.767402019
    outer loop
      vertex 1.0952447 3.3909439 1.97243297
      vertex 1.05662019 3.24868606 1.91020425
      vertex 1.05554847 3.24870795 1.91084448
    endloop
  endfacet
  facet normal 0.248101448 0.888974704 0.384928106
    outer loop
      vertex 1.09719002 3.38949671 1.97452136
      vertex 1.09631642 3.39092202 1.97179275
      vertex 1.0952447 3.3909439 1.97243297
    endloop
  endfacet
  facet normal -0.248101448 -0.888974704 -0.384928106
    outer loop
      vertex 1.05749379 3.24726076 1.91293287
      vertex 1.05554847 3.24870795 1.91084448
      vertex 1.05662019 3.24868606 1.91020425
    endloop
  endfacet
  facet normal -0.0864233895 0.416078727 -0.905212401
    outer loop
      vertex 1.09631642 3.39092202 1.97179275
      vertex 1.09752114 3.39068314 1.97156793
      vertex 1.05782491 3.24844719 1.90997944
    endloop
  endfacet
  facet normal -0.0864233895 0.416078727 -0.905212401
    outer loop
      vertex 1.09631642 3.39092202 1.97179275
      vertex 1.05782491 3.24844719 1.90997944
      vertex 1.05662019 3.24868606 1.91020425
    endloop
  endfacet
  facet normal 0.248101448 0.888974704 0.384928106
    outer loop
      vertex 1.09719002 3.38949671 1.97452136
      vertex 1.09752114 3.39068314 1.97156793
      vertex 1.09631642 3.39092202 1.97179275
    endloop
  endfacet
  facet normal -0.248101448 -0.888974704 -0.384928106
    outer loop
      vertex 1.05749379 3.24726076 1.91293287
      vertex 1.05662019 3.24868606 1.91020425
      vertex 1.05782491 3.24844719 1.90997944
    endloop
  endfacet
  facet normal 0.289395469 0.311192499 -0.905212401
    outer loop
      vertex 1.09752114 3.39068314 1.97156793
      vertex 1.09867545 3.39026364 1.97179275
      vertex 1.05897922 3.24802769 1.91020425
    endloop
  endfacet
  facet normal 0.289395469 0.311192499 -0.905212401
    outer loop
      vertex 1.09752114 3.39068314 1.97156793
      vertex 1.05897922 3.24802769 1.91020425
      vertex 1.05782491 3.24844719 1.90997944
    endloop
  endfacet
  facet normal 0.248101448 0.888974704 0.384928106
    outer loop
      vertex 1.09719002 3.38949671 1.97452136
      vertex 1.09867545 3.39026364 1.97179275
      vertex 1.09752114 3.39068314 1.97156793
    endloop
  endfacet
  facet normal -0.248101448 -0.888974704 -0.384928106
    outer loop
      vertex 1.05749379 3.24726076 1.91293287
      vertex 1.05782491 3.24844719 1.90997944
      vertex 1.05897922 3.24802769 1.91020425
    endloop
  endfacet
  facet normal 0.62115649 0.158930035 -0.767402019
    outer loop
      vertex 1.09867545 3.39026364 1.97179275
      vertex 1.09960361 3.38972739 1.97243297
      vertex 1.05990738 3.24749143 1.91084448
    endloop
  endfacet
  facet normal 0.62115649 0.158930035 -0.767402019
    outer loop
      vertex 1.09867545 3.39026364 1.97179275
      vertex 1.05990738 3.24749143 1.91084448
      vertex 1.05897922 3.24802769 1.91020425
    endloop
  endfacet
  facet normal 0.248101448 0.888974704 0.384928106
    outer loop
      vertex 1.09719002 3.38949671 1.97452136
      vertex 1.09960361 3.38972739 1.97243297
      vertex 1.09867545 3.39026364 1.97179275
    endloop
  endfacet
  facet normal -0.248101448 -0.888974704 -0.384928106
    outer loop
      vertex 1.05749379 3.24726076 1.91293287
      vertex 1.05897922 3.24802769 1.91020425
      vertex 1.05990738 3.24749143 1.91084448
    endloop
  endfacet
  facet normal 0.858352067 -0.0175280865 -0.512761636
    outer loop
      vertex 1.09960361 3.38972739 1.97243297
      vertex 1.10016433 3.38915601 1.97339113
      vertex 1.0604681 3.24692006 1.91180264
    endloop
  endfacet
  facet normal 0.858352067 -0.0175280865 -0.512761636
    outer loop
      vertex 1.09960361 3.38972739 1.97243297
      vertex 1.0604681 3.24692006 1.91180264
      vertex 1.05990738 3.24749143 1.91084448
    endloop
  endfacet
  facet normal 0.248101448 0.888974704 0.384928106
    outer loop
      vertex 1.09719002 3.38949671 1.97452136
      vertex 1.10016433 3.38915601 1.97339113
      vertex 1.09960361 3.38972739 1.97243297
    endloop
  endfacet
  facet normal -0.248101448 -0.888974704 -0.384928106
    outer loop
      vertex 1.05749379 3.24726076 1.91293287
      vertex 1.05990738 3.24749143 1.91084448
      vertex 1.0604681 3.24692006 1.91180264
    endloop
  endfacet
  facet normal 0.964871323 -0.191317716 -0.180057942
    outer loop
      vertex 1.10016433 3.38915601 1.97339113
      vertex 1.10027224 3.3886365 1.97452136
      vertex 1.060576 3.24640055 1.91293287
    endloop
  endfacet
  facet normal 0.964871323 -0.191317716 -0.180057942
    outer loop
      vertex 1.10016433 3.38915601 1.97339113
      vertex 1.060576 3.24640055 1.91293287
      vertex 1.0604681 3.24692006 1.91180264
    endloop
  endfacet
  facet normal 0.248101448 0.888974704 0.384928106
    outer loop
      vertex 1.09719002 3.38949671 1.97452136
      vertex 1.10027224 3.3886365 1.97452136
      vertex 1.10016433 3.38915601 1.97339113
    endloop
  endfacet
  facet normal -0.248101448 -0.888974704 -0.384928106
    outer loop
      vertex 1.05749379 3.24726076 1.91293287
      vertex 1.0604681 3.24692006 1.91180264
      vertex 1.060576 3.24640055 1.91293287
    endloop
  endfacet
  facet normal 0.924497666 -0.335980957 0.180057942
    outer loop
      vertex 1.10027224 3.3886365 1.97452136
      vertex 1.0999109 3.38824796 1.97565159
      vertex 1.06021467 3.246012 1.91406309
    endloop
  endfacet
  facet normal 0.924497666 -0.335980957 0.180057942
    outer loop
      vertex 1.10027224 3.3886365 1.97452136
      vertex 1.06021467 3.246012 1.91406309
      vertex 1.060576 3.24640055 1.91293287
    endloop
  endfacet
  facet normal 0.248101448 0.888974704 0.384928106
    outer loop
      vertex 1.09719002 3.38949671 1.97452136
      vertex 1.0999109 3.38824796 1.97565159
      vertex 1.10027224 3.3886365 1.97452136
    endloop
  endfacet
  facet normal -0.248101448 -0.888974704 -0.384928106
    outer loop
      vertex 1.05749379 3.24726076 1.91293287
      vertex 1.060576 3.24640055 1.91293287
      vertex 1.06021467 3.246012 1.91406309
    endloop
  endfacet
  facet normal 0.74337762 -0.429494143 0.512761636
    outer loop
      vertex 1.0999109 3.38824796 1.97565159
      vertex 1.09913534 3.38804952 1.97660975
      vertex 1.05943911 3.24581357 1.91502126
    endloop
  endfacet
  facet normal 0.74337762 -0.429494143 0.512761636
    outer loop
      vertex 1.0999109 3.38824796 1.97565159
      vertex 1.05943911 3.24581357 1.91502126
      vertex 1.06021467 3.246012 1.91406309
    endloop
  endfacet
  facet normal 0.248101448 0.888974704 0.384928106
    outer loop
      vertex 1.09719002 3.38949671 1.97452136
      vertex 1.09913534 3.38804952 1.97660975
      vertex 1.0999109 3.38824796 1.97565159
    endloop
  endfacet
  facet normal -0.248101448 -0.888974704 -0.384928106
    outer loop
      vertex 1.05749379 3.24726076 1.91293287
      vertex 1.06021467 3.246012 1.91406309
      vertex 1.05943911 3.24581357 1.91502126
    endloop
  endfacet
  facet normal 0.44908507 -0.45762074 0.767402019
    outer loop
      vertex 1.09913534 3.38804952 1.97660975
      vertex 1.09806362 3.3880714 1.97724998
      vertex 1.05836739 3.24583545 1.91566148
    endloop
  endfacet
  facet normal 0.44908507 -0.45762074 0.767402019
    outer loop
      vertex 1.09913534 3.38804952 1.97660975
      vertex 1.05836739 3.24583545 1.91566148
      vertex 1.05943911 3.24581357 1.91502126
    endloop
  endfacet
  facet normal 0.248101448 0.888974704 0.384928106
    outer loop
      vertex 1.09719002 3.38949671 1.97452136
      vertex 1.09806362 3.3880714 1.97724998
      vertex 1.09913534 3.38804952 1.97660975
    endloop
  endfacet
  facet normal -0.248101448 -0.888974704 -0.384928106
    outer loop
      vertex 1.05749379 3.24726076 1.91293287
      vertex 1.05943911 3.24581357 1.91502126
      vertex 1.05836739 3.24583545 1.91566148
    endloop
  endfacet
  facet normal 0.0864233895 -0.416078727 0.905212401
    outer loop
      vertex 1.09806362 3.3880714 1.97724998
      vertex 1.0968589 3.38831028 1.97747479
      vertex 1.05716267 3.24607433 1.9158863
    endloop
  endfacet
  facet normal 0.0864233895 -0.416078727 0.905212401
    outer loop
      vertex 1.09806362 3.3880714 1.97724998
      vertex 1.05716267 3.24607433 1.9158863
      vertex 1.05836739 3.24583545 1.91566148
    endloop
  endfacet
  facet normal 0.248101448 0.888974704 0.384928106
    outer loop
      vertex 1.09719002 3.38949671 1.97452136
      vertex 1.0968589 3.38831028 1.97747479
      vertex 1.09806362 3.3880714 1.97724998
    endloop
  endfacet
  facet normal -0.248101448 -0.888974704 -0.384928106
    outer loop
      vertex 1.05749379 3.24726076 1.91293287
      vertex 1.05836739 3.24583545 1.91566148
      vertex 1.05716267 3.24607433 1.9158863
    endloop
  endfacet
  facet normal -0.289395469 -0.311192499 0.905212401
    outer loop
      vertex 1.0968589 3.38831028 1.97747479
      vertex 1.0957046 3.38872978 1.97724998
      vertex 1.05600837 3.24649383 1.91566148
    endloop
  endfacet
  facet normal -0.289395469 -0.311192499 0.905212401
    outer loop
      vertex 1.0968589 3.38831028 1.97747479
      vertex 1.05600837 3.24649383 1.91566148
      vertex 1.05716267 3.24607433 1.9158863
    endloop
  endfacet
  facet normal 0.248101448 0.888974704 0.384928106
    outer loop
      vertex 1.09719002 3.38949671 1.97452136
      vertex 1.0957046 3.38872978 1.97724998
      vertex 1.0968589 3.38831028 1.97747479
    endloop
  endfacet
  facet normal -0.248101448 -0.888974704 -0.384928106
    outer loop
      vertex 1.05749379 3.24726076 1.91293287
      vertex 1.05716267 3.24607433 1.9158863
      vertex 1.05600837 3.24649383 1.91566148
    endloop
  endfacet
  facet normal -0.62115649 -0.158930035 0.767402019
    outer loop
      vertex 1.0957046 3.38872978 1.97724998
      vertex 1.09477643 3.38926604 1.97660975
      vertex 1.0550802 3.24703008 1.91502126
    endloop
  endfacet
  facet normal -0.62115649 -0.158930035 0.767402019
    outer loop
      vertex 1.0957046 3.38872978 1.97724998
      vertex 1.0550802 3.24703008 1.91502126
      vertex 1.05600837 3.24649383 1.91566148
    endloop
  endfacet
  facet normal 0.248101448 0.888974704 0.384928106
    outer loop
      vertex 1.09719002 3.38949671 1.97452136
      vertex 1.09477643 3.38926604 1.97660975
      vertex 1.0957046 3.38872978 1.97724998
    endloop
  endfacet
  facet normal -0.248101448 -0.888974704 -0.384928106
    outer loop
      vertex 1.05749379 3.24726076 1.91293287
      vertex 1.05600837 3.24649383 1.91566148
      vertex 1.0550802 3.24703008 1.91502126
    endloop
  endfacet
  facet normal -0.858352067 0.0175280865 0.512761636
    outer loop
      vertex 1.09477643 3.38926604 1.97660975
      vertex 1.09421571 3.38983741 1.97565159
      vertex 1.05451948 3.24760146 1.91406309
    endloop
  endfacet
  facet normal -0.858352067 0.0175280865 0.512761636
    outer loop
      vertex 1.09477643 3.38926604 1.97660975
      vertex 1.05451948 3.24760146 1.91406309
      vertex 1.0550802 3.24703008 1.91502126
    endloop
  endfacet
  facet normal 0.248101448 0.888974704 0.384928106
    outer loop
      vertex 1.09719002 3.38949671 1.97452136
      vertex 1.09421571 3.38983741 1.97565159
      vertex 1.09477643 3.38926604 1.97660975
    endloop
  endfacet
  facet normal -0.248101448 -0.888974704 -0.384928106
    outer loop
      vertex 1.05749379 3.24726076 1.91293287
      vertex 1.0550802 3.24703008 1.91502126
      vertex 1.05451948 3.24760146 1.91406309
    endloop
  endfacet
  facet normal -0.964871323 0.191317716 0.180057942
    outer loop
      vertex 1.09421571 3.38983741 1.97565159
      vertex 1.09410781 3.39035692 1.97452136
      vertex 1.05441158 3.24812096 1.91293287
    endloop
  endfacet
  facet normal -0.964871323 0.191317716 0.180057942
    outer loop
      vertex 1.09421571 3.38983741 1.97565159
      vertex 1.05441158 3.24812096 1.91293287
      vertex 1.05451948 3.24760146 1.91406309
    endloop
  endfacet
  facet normal 0.248101448 0.888974704 0.384928106
    outer loop
      vertex 1.09719002 3.38949671 1.97452136
      vertex 1.09410781 3.39035692 1.97452136
      vertex 1.09421571 3.38983741 1.97565159
    endloop
  endfacet
  facet normal -0.248101448 -0.888974704 -0.384928106
    outer loop
      vertex 1.05749379 3.24726076 1.91293287
      vertex 1.05451948 3.24760146 1.91406309
      vertex 1.05441158 3.24812096 1.91293287
    endloop
  endfacet
  facet normal -0.885659073 -0.42199256 -0.193727348
    outer loop
      vertex 1.6400532 3.41587463 2.23717242
      vertex 1.64020538 3.4161135 2.23595639
      vertex 1.71189404 3.27432392 2.21707644
    endloop
  endfacet
  facet normal -0.885659073 -0.42199256 -0.193727348
    outer loop
      vertex 1.6400532 3.41587463 2.23717242
      vertex 1.71189404 3.27432392 2.21707644
      vertex 1.71174186 3.27408506 2.21829247
    endloop
  endfacet
  facet normal -0.448054107 0.886184847 0.117999722
    outer loop
      vertex 1.64290895 3.4173185 2.23717242
      vertex 1.64020538 3.4161135 2.23595639
      vertex 1.6400532 3.41587463 2.23717242
    endloop
  endfacet
  facet normal 0.448054107 -0.886184847 -0.117999722
    outer loop
      vertex 1.7145976 3.27552892 2.21829247
      vertex 1.71174186 3.27408506 2.21829247
      vertex 1.71189404 3.27432392 2.21707644
    endloop
  endfacet
  facet normal -0.771599596 -0.316659941 -0.551688813
    outer loop
      vertex 1.64020538 3.4161135 2.23595639
      vertex 1.64076916 3.41653581 2.23492549
      vertex 1.71245782 3.27474624 2.21604553
    endloop
  endfacet
  facet normal -0.771599596 -0.316659941 -0.551688813
    outer loop
      vertex 1.64020538 3.4161135 2.23595639
      vertex 1.71245782 3.27474624 2.21604553
      vertex 1.71189404 3.27432392 2.21707644
    endloop
  endfacet
  facet normal -0.448054107 0.886184847 0.117999722
    outer loop
      vertex 1.64290895 3.4173185 2.23717242
      vertex 1.64076916 3.41653581 2.23492549
      vertex 1.64020538 3.4161135 2.23595639
    endloop
  endfacet
  facet normal 0.448054107 -0.886184847 -0.117999722
    outer loop
      vertex 1.7145976 3.27552892 2.21829247
      vertex 1.71189404 3.27432392 2.21707644
      vertex 1.71245782 3.27474624 2.21604553
    endloop
  endfacet
  facet normal -0.540071074 -0.163118717 -0.825660656
    outer loop
      vertex 1.64076916 3.41653581 2.23492549
      vertex 1.6416587 3.41707728 2.23423666
      vertex 1.71334735 3.2752877 2.21535671
    endloop
  endfacet
  facet normal -0.540071074 -0.163118717 -0.825660656
    outer loop
      vertex 1.64076916 3.41653581 2.23492549
      vertex 1.71334735 3.2752877 2.21535671
      vertex 1.71245782 3.27474624 2.21604553
    endloop
  endfacet
  facet normal -0.448054107 0.886184847 0.117999722
    outer loop
      vertex 1.64290895 3.4173185 2.23717242
      vertex 1.6416587 3.41707728 2.23423666
      vertex 1.64076916 3.41653581 2.23492549
    endloop
  endfacet
  facet normal 0.448054107 -0.886184847 -0.117999722
    outer loop
      vertex 1.7145976 3.27552892 2.21829247
      vertex 1.71245782 3.27474624 2.21604553
      vertex 1.71334735 3.2752877 2.21535671
    endloop
  endfacet
  facet normal -0.226321627 0.0152558536 -0.97393315
    outer loop
      vertex 1.6416587 3.41707728 2.23423666
      vertex 1.64273857 3.41765547 2.23399478
      vertex 1.71442723 3.2758659 2.21511482
    endloop
  endfacet
  facet normal -0.226321627 0.0152558536 -0.97393315
    outer loop
      vertex 1.6416587 3.41707728 2.23423666
      vertex 1.71442723 3.2758659 2.21511482
      vertex 1.71334735 3.2752877 2.21535671
    endloop
  endfacet
  facet normal -0.448054107 0.886184847 0.117999722
    outer loop
      vertex 1.64290895 3.4173185 2.23717242
      vertex 1.64273857 3.41765547 2.23399478
      vertex 1.6416587 3.41707728 2.23423666
    endloop
  endfacet
  facet normal 0.448054107 -0.886184847 -0.117999722
    outer loop
      vertex 1.7145976 3.27552892 2.21829247
      vertex 1.71334735 3.2752877 2.21535671
      vertex 1.71442723 3.2758659 2.21511482
    endloop
  endfacet
  facet normal 0.121883236 0.191307858 -0.97393315
    outer loop
      vertex 1.64273857 3.41765547 2.23399478
      vertex 1.64384439 3.41818236 2.23423666
      vertex 1.71553304 3.27639279 2.21535671
    endloop
  endfacet
  facet normal 0.121883236 0.191307858 -0.97393315
    outer loop
      vertex 1.64273857 3.41765547 2.23399478
      vertex 1.71553304 3.27639279 2.21535671
      vertex 1.71442723 3.2758659 2.21511482
    endloop
  endfacet
  facet normal -0.448054107 0.886184847 0.117999722
    outer loop
      vertex 1.64290895 3.4173185 2.23717242
      vertex 1.64384439 3.41818236 2.23423666
      vertex 1.64273857 3.41765547 2.23399478
    endloop
  endfacet
  facet normal 0.448054107 -0.886184847 -0.117999722
    outer loop
      vertex 1.7145976 3.27552892 2.21829247
      vertex 1.71442723 3.2758659 2.21511482
      vertex 1.71553304 3.27639279 2.21535671
    endloop
  endfacet
  facet normal 0.451532481 0.338234976 -0.825660656
    outer loop
      vertex 1.64384439 3.41818236 2.23423666
      vertex 1.64480779 3.41857774 2.23492549
      vertex 1.71649645 3.27678816 2.21604553
    endloop
  endfacet
  facet normal 0.451532481 0.338234976 -0.825660656
    outer loop
      vertex 1.64384439 3.41818236 2.23423666
      vertex 1.71649645 3.27678816 2.21604553
      vertex 1.71553304 3.27639279 2.21535671
    endloop
  endfacet
  facet normal -0.448054107 0.886184847 0.117999722
    outer loop
      vertex 1.64290895 3.4173185 2.23717242
      vertex 1.64480779 3.41857774 2.23492549
      vertex 1.64384439 3.41818236 2.23423666
    endloop
  endfacet
  facet normal 0.448054107 -0.886184847 -0.117999722
    outer loop
      vertex 1.7145976 3.27552892 2.21829247
      vertex 1.71553304 3.27639279 2.21535671
      vertex 1.71649645 3.27678816 2.21604553
    endloop
  endfacet
  facet normal 0.712439999 0.433668884 -0.551688813
    outer loop
      vertex 1.64480779 3.41857774 2.23492549
      vertex 1.64548211 3.4187814 2.23595639
      vertex 1.71717077 3.27699183 2.21707644
    endloop
  endfacet
  facet normal 0.712439999 0.433668884 -0.551688813
    outer loop
      vertex 1.64480779 3.41857774 2.23492549
      vertex 1.71717077 3.27699183 2.21707644
      vertex 1.71649645 3.27678816 2.21604553
    endloop
  endfacet
  facet normal -0.448054107 0.886184847 0.117999722
    outer loop
      vertex 1.64290895 3.4173185 2.23717242
      vertex 1.64548211 3.4187814 2.23595639
      vertex 1.64480779 3.41857774 2.23492549
    endloop
  endfacet
  facet normal 0.448054107 -0.886184847 -0.117999722
    outer loop
      vertex 1.7145976 3.27552892 2.21829247
      vertex 1.71649645 3.27678816 2.21604553
      vertex 1.71717077 3.27699183 2.21707644
    endloop
  endfacet
  facet normal 0.864884986 0.463080637 -0.193727348
    outer loop
      vertex 1.64548211 3.4187814 2.23595639
      vertex 1.64576469 3.41876236 2.23717242
      vertex 1.71745335 3.27697278 2.21829247
    endloop
  endfacet
  facet normal 0.864884986 0.463080637 -0.193727348
    outer loop
      vertex 1.64548211 3.4187814 2.23595639
      vertex 1.71745335 3.27697278 2.21829247
      vertex 1.71717077 3.27699183 2.21707644
    endloop
  endfacet
  facet normal -0.448054107 0.886184847 0.117999722
    outer loop
      vertex 1.64290895 3.4173185 2.23717242
      vertex 1.64576469 3.41876236 2.23717242
      vertex 1.64548211 3.4187814 2.23595639
    endloop
  endfacet
  facet normal 0.448054107 -0.886184847 -0.117999722
    outer loop
      vertex 1.7145976 3.27552892 2.21829247
      vertex 1.71717077 3.27699183 2.21707644
      vertex 1.71745335 3.27697278 2.21829247
    endloop
  endfacet
  facet normal 0.885659073 0.42199256 0.193727348
    outer loop
      vertex 1.64576469 3.41876236 2.23717242
      vertex 1.64561251 3.41852349 2.23838845
      vertex 1.71730117 3.27673392 2.2195085
    endloop
  endfacet
  facet normal 0.885659073 0.42199256 0.193727348
    outer loop
      vertex 1.64576469 3.41876236 2.23717242
      vertex 1.71730117 3.27673392 2.2195085
      vertex 1.71745335 3.27697278 2.21829247
    endloop
  endfacet
  facet normal -0.448054107 0.886184847 0.117999722
    outer loop
      vertex 1.64290895 3.4173185 2.23717242
      vertex 1.64561251 3.41852349 2.23838845
      vertex 1.64576469 3.41876236 2.23717242
    endloop
  endfacet
  facet normal 0.448054107 -0.886184847 -0.117999722
    outer loop
      vertex 1.7145976 3.27552892 2.21829247
      vertex 1.71745335 3.27697278 2.21829247
      vertex 1.71730117 3.27673392 2.2195085
    endloop
  endfacet
  facet normal 0.771599596 0.316659941 0.551688813
    outer loop
      vertex 1.64561251 3.41852349 2.23838845
      vertex 1.64504874 3.41810118 2.23941936
      vertex 1.71673739 3.2763116 2.2205394
    endloop
  endfacet
  facet normal 0.771599596 0.316659941 0.551688813
    outer loop
      vertex 1.64561251 3.41852349 2.23838845
      vertex 1.71673739 3.2763116 2.2205394
      vertex 1.71730117 3.27673392 2.2195085
    endloop
  endfacet
  facet normal -0.448054107 0.886184847 0.117999722
    outer loop
      vertex 1.64290895 3.4173185 2.23717242
      vertex 1.64504874 3.41810118 2.23941936
      vertex 1.64561251 3.41852349 2.23838845
    endloop
  endfacet
  facet normal 0.448054107 -0.886184847 -0.117999722
    outer loop
      vertex 1.7145976 3.27552892 2.21829247
      vertex 1.71730117 3.27673392 2.2195085
      vertex 1.71673739 3.2763116 2.2205394
    endloop
  endfacet
  facet normal 0.540071074 0.163118717 0.825660656
    outer loop
      vertex 1.64504874 3.41810118 2.23941936
      vertex 1.6441592 3.41755971 2.24010818
      vertex 1.71584786 3.27577014 2.22122823
    endloop
  endfacet
  facet normal 0.540071074 0.163118717 0.825660656
    outer loop
      vertex 1.64504874 3.41810118 2.23941936
      vertex 1.71584786 3.27577014 2.22122823
      vertex 1.71673739 3.2763116 2.2205394
    endloop
  endfacet
  facet normal -0.448054107 0.886184847 0.117999722
    outer loop
      vertex 1.64290895 3.4173185 2.23717242
      vertex 1.6441592 3.41755971 2.24010818
      vertex 1.64504874 3.41810118 2.23941936
    endloop
  endfacet
  facet normal 0.448054107 -0.886184847 -0.117999722
    outer loop
      vertex 1.7145976 3.27552892 2.21829247
      vertex 1.71673739 3.2763116 2.2205394
      vertex 1.71584786 3.27577014 2.22122823
    endloop
  endfacet
  facet normal 0.226321627 -0.0152558536 0.97393315
    outer loop
      vertex 1.6441592 3.41755971 2.24010818
      vertex 1.64307932 3.41698152 2.24035007
      vertex 1.71476798 3.27519194 2.22147011
    endloop
  endfacet
  facet normal 0.226321627 -0.0152558536 0.97393315
    outer loop
      vertex 1.6441592 3.41755971 2.24010818
      vertex 1.71476798 3.27519194 2.22147011
      vertex 1.71584786 3.27577014 2.22122823
    endloop
  endfacet
  facet normal -0.448054107 0.886184847 0.117999722
    outer loop
      vertex 1.64290895 3.4173185 2.23717242
      vertex 1.64307932 3.41698152 2.24035007
      vertex 1.6441592 3.41755971 2.24010818
    endloop
  endfacet
  facet normal 0.448054107 -0.886184847 -0.117999722
    outer loop
      vertex 1.7145976 3.27552892 2.21829247
      vertex 1.71584786 3.27577014 2.22122823
      vertex 1.71476798 3.27519194 2.22147011
    endloop
  endfacet
  facet normal -0.121883236 -0.191307858 0.97393315
    outer loop
      vertex 1.64307932 3.41698152 2.24035007
      vertex 1.64197351 3.41645463 2.24010818
      vertex 1.71366216 3.27466505 2.22122823
    endloop
  endfacet
  facet normal -0.121883236 -0.191307858 0.97393315
    outer loop
      vertex 1.64307932 3.41698152 2.24035007
      vertex 1.71366216 3.27466505 2.22122823
      vertex 1.71476798 3.27519194 2.22147011
    endloop
  endfacet
  facet normal -0.448054107 0.886184847 0.117999722
    outer loop
      vertex 1.64290895 3.4173185 2.23717242
      vertex 1.64197351 3.41645463 2.24010818
      vertex 1.64307932 3.41698152 2.24035007
    endloop
  endfacet
  facet normal 0.448054107 -0.886184847 -0.117999722
    outer loop
      vertex 1.7145976 3.27552892 2.21829247
      vertex 1.71476798 3.27519194 2.22147011
      vertex 1.71366216 3.27466505 2.22122823
    endloop
  endfacet
  facet normal -0.451532481 -0.338234976 0.825660656
    outer loop
      vertex 1.64197351 3.41645463 2.24010818
      vertex 1.64101011 3.41605925 2.23941936
      vertex 1.71269876 3.27426968 2.2205394
    endloop
  endfacet
  facet normal -0.451532481 -0.338234976 0.825660656
    outer loop
      vertex 1.64197351 3.41645463 2.24010818
      vertex 1.71269876 3.27426968 2.2205394
      vertex 1.71366216 3.27466505 2.22122823
    endloop
  endfacet
  facet normal -0.448054107 0.886184847 0.117999722
    outer loop
      vertex 1.64290895 3.4173185 2.23717242
      vertex 1.64101011 3.41605925 2.23941936
      vertex 1.64197351 3.41645463 2.24010818
    endloop
  endfacet
  facet normal 0.448054107 -0.886184847 -0.117999722
    outer loop
      vertex 1.7145976 3.27552892 2.21829247
      vertex 1.71366216 3.27466505 2.22122823
      vertex 1.71269876 3.27426968 2.2205394
    endloop
  endfacet
  facet normal -0.712439999 -0.433668884 0.551688813
    outer loop
      vertex 1.64101011 3.41605925 2.23941936
      vertex 1.64033578 3.41585559 2.23838845
      vertex 1.71202444 3.27406601 2.2195085
    endloop
  endfacet
  facet normal -0.712439999 -0.433668884 0.551688813
    outer loop
      vertex 1.64101011 3.41605925 2.23941936
      vertex 1.71202444 3.27406601 2.2195085
      vertex 1.71269876 3.27426968 2.2205394
    endloop
  endfacet
  facet normal -0.448054107 0.886184847 0.117999722
    outer loop
      vertex 1.64290895 3.4173185 2.23717242
      vertex 1.64033578 3.41585559 2.23838845
      vertex 1.64101011 3.41605925 2.23941936
    endloop
  endfacet
  facet normal 0.448054107 -0.886184847 -0.117999722
    outer loop
      vertex 1.7145976 3.27552892 2.21829247
      vertex 1.71269876 3.27426968 2.2205394
      vertex 1.71202444 3.27406601 2.2195085
    endloop
  endfacet
  facet normal -0.864884986 -0.463080637 0.193727348
    outer loop
      vertex 1.64033578 3.41585559 2.23838845
      vertex 1.6400532 3.41587463 2.23717242
      vertex 1.71174186 3.27408506 2.21829247
    endloop
  endfacet
  facet normal -0.864884986 -0.463080637 0.193727348
    outer loop
      vertex 1.64033578 3.41585559 2.23838845
      vertex 1.71174186 3.27408506 2.21829247
      vertex 1.71202444 3.27406601 2.2195085
    endloop
  endfacet
  facet normal -0.448054107 0.886184847 0.117999722
    outer loop
      vertex 1.64290895 3.4173185 2.23717242
      vertex 1.6400532 3.41587463 2.23717242
      vertex 1.64033578 3.41585559 2.23838845
    endloop
  endfacet
  facet normal 0.448054107 -0.886184847 -0.117999722
    outer loop
      vertex 1.7145976 3.27552892 2.21829247
      vertex 1.71202444 3.27406601 2.2195085
      vertex 1.71174186 3.27408506 2.21829247
    endloop
  endfacet
  facet normal -0.885659073 -0.42199256 -0.193727348
    outer loop
      vertex 1.65099431 3.4249253 2.21074559
      vertex 1.65114649 3.42516417 2.20952956
      vertex 1.72283515 3.28337459 2.1906496
    endloop
  endfacet
  facet normal -0.885659073 -0.42199256 -0.193727348
    outer loop
      vertex 1.65099431 3.4249253 2.21074559
      vertex 1.72283515 3.28337459 2.1906496
      vertex 1.72268297 3.28313573 2.19186563
    endloop
  endfacet
  facet normal -0.448054107 0.886184847 0.117999722
    outer loop
      vertex 1.65385005 3.42636917 2.21074559
      vertex 1.65114649 3.42516417 2.20952956
      vertex 1.65099431 3.4249253 2.21074559
    endloop
  endfacet
  facet normal 0.448054107 -0.886184847 -0.117999722
    outer loop
      vertex 1.72553871 3.28457959 2.19186563
      vertex 1.72268297 3.28313573 2.19186563
      vertex 1.72283515 3.28337459 2.1906496
    endloop
  endfacet
  facet normal -0.771599596 -0.316659941 -0.551688813
    outer loop
      vertex 1.65114649 3.42516417 2.20952956
      vertex 1.65171026 3.42558648 2.20849865
      vertex 1.72339892 3.2837969 2.1896187
    endloop
  endfacet
  facet normal -0.771599596 -0.316659941 -0.551688813
    outer loop
      vertex 1.65114649 3.42516417 2.20952956
      vertex 1.72339892 3.2837969 2.1896187
      vertex 1.72283515 3.28337459 2.1906496
    endloop
  endfacet
  facet normal -0.448054107 0.886184847 0.117999722
    outer loop
      vertex 1.65385005 3.42636917 2.21074559
      vertex 1.65171026 3.42558648 2.20849865
      vertex 1.65114649 3.42516417 2.20952956
    endloop
  endfacet
  facet normal 0.448054107 -0.886184847 -0.117999722
    outer loop
      vertex 1.72553871 3.28457959 2.19186563
      vertex 1.72283515 3.28337459 2.1906496
      vertex 1.72339892 3.2837969 2.1896187
    endloop
  endfacet
  facet normal -0.540071074 -0.163118717 -0.825660656
    outer loop
      vertex 1.65171026 3.42558648 2.20849865
      vertex 1.6525998 3.42612795 2.20780983
      vertex 1.72428846 3.28433837 2.18892987
    endloop
  endfacet
  facet normal -0.540071074 -0.163118717 -0.825660656
    outer loop
      vertex 1.65171026 3.42558648 2.20849865
      vertex 1.72428846 3.28433837 2.18892987
      vertex 1.72339892 3.2837969 2.1896187
    endloop
  endfacet
  facet normal -0.448054107 0.886184847 0.117999722
    outer loop
      vertex 1.65385005 3.42636917 2.21074559
      vertex 1.6525998 3.42612795 2.20780983
      vertex 1.65171026 3.42558648 2.20849865
    endloop
  endfacet
  facet normal 0.448054107 -0.886184847 -0.117999722
    outer loop
      vertex 1.72553871 3.28457959 2.19186563
      vertex 1.72339892 3.2837969 2.1896187
      vertex 1.72428846 3.28433837 2.18892987
    endloop
  endfacet
  facet normal -0.226321627 0.0152558536 -0.97393315
    outer loop
      vertex 1.6525998 3.42612795 2.20780983
      vertex 1.65367968 3.42670614 2.20756794
      vertex 1.72536833 3.28491657 2.18868799
    endloop
  endfacet
  facet normal -0.226321627 0.0152558536 -0.97393315
    outer loop
      vertex 1.6525998 3.42612795 2.20780983
      vertex 1.72536833 3.28491657 2.18868799
      vertex 1.72428846 3.28433837 2.18892987
    endloop
  endfacet
  facet normal -0.448054107 0.886184847 0.117999722
    outer loop
      vertex 1.65385005 3.42636917 2.21074559
      vertex 1.65367968 3.42670614 2.20756794
      vertex 1.6525998 3.42612795 2.20780983
    endloop
  endfacet
  facet normal 0.448054107 -0.886184847 -0.117999722
    outer loop
      vertex 1.72553871 3.28457959 2.19186563
      vertex 1.72428846 3.28433837 2.18892987
      vertex 1.72536833 3.28491657 2.18868799
    endloop
  endfacet
  facet normal 0.121883236 0.191307858 -0.97393315
    outer loop
      vertex 1.65367968 3.42670614 2.20756794
      vertex 1.65478549 3.42723303 2.20780983
      vertex 1.72647415 3.28544346 2.18892987
    endloop
  endfacet
  facet normal 0.121883236 0.191307858 -0.97393315
    outer loop
      vertex 1.65367968 3.42670614 2.20756794
      vertex 1.72647415 3.28544346 2.18892987
      vertex 1.72536833 3.28491657 2.18868799
    endloop
  endfacet
  facet normal -0.448054107 0.886184847 0.117999722
    outer loop
      vertex 1.65385005 3.42636917 2.21074559
      vertex 1.65478549 3.42723303 2.20780983
      vertex 1.65367968 3.42670614 2.20756794
    endloop
  endfacet
  facet normal 0.448054107 -0.886184847 -0.117999722
    outer loop
      vertex 1.72553871 3.28457959 2.19186563
      vertex 1.72536833 3.28491657 2.18868799
      vertex 1.72647415 3.28544346 2.18892987
    endloop
  endfacet
  facet normal 0.451532481 0.338234976 -0.825660656
    outer loop
      vertex 1.65478549 3.42723303 2.20780983
      vertex 1.65574889 3.42762841 2.20849865
      vertex 1.72743755 3.28583883 2.1896187
    endloop
  endfacet
  facet normal 0.451532481 0.338234976 -0.825660656
    outer loop
      vertex 1.65478549 3.42723303 2.20780983
      vertex 1.72743755 3.28583883 2.1896187
      vertex 1.72647415 3.28544346 2.18892987
    endloop
  endfacet
  facet normal -0.448054107 0.886184847 0.117999722
    outer loop
      vertex 1.65385005 3.42636917 2.21074559
      vertex 1.65574889 3.42762841 2.20849865
      vertex 1.65478549 3.42723303 2.20780983
    endloop
  endfacet
  facet normal 0.448054107 -0.886184847 -0.117999722
    outer loop
      vertex 1.72553871 3.28457959 2.19186563
      vertex 1.72647415 3.28544346 2.18892987
      vertex 1.72743755 3.28583883 2.1896187
    endloop
  endfacet
  facet normal 0.712439999 0.433668884 -0.551688813
    outer loop
      vertex 1.65574889 3.42762841 2.20849865
      vertex 1.65642321 3.42783207 2.20952956
      vertex 1.72811187 3.2860425 2.1906496
    endloop
  endfacet
  facet normal 0.712439999 0.433668884 -0.551688813
    outer loop
      vertex 1.65574889 3.42762841 2.20849865
      vertex 1.72811187 3.2860425 2.1906496
      vertex 1.72743755 3.28583883 2.1896187
    endloop
  endfacet
  facet normal -0.448054107 0.886184847 0.117999722
    outer loop
      vertex 1.65385005 3.42636917 2.21074559
      vertex 1.65642321 3.42783207 2.20952956
      vertex 1.65574889 3.42762841 2.20849865
    endloop
  endfacet
  facet normal 0.448054107 -0.886184847 -0.117999722
    outer loop
      vertex 1.72553871 3.28457959 2.19186563
      vertex 1.72743755 3.28583883 2.1896187
      vertex 1.72811187 3.2860425 2.1906496
    endloop
  endfacet
  facet normal 0.864884986 0.463080637 -0.193727348
    outer loop
      vertex 1.65642321 3.42783207 2.20952956
      vertex 1.65670579 3.42781303 2.21074559
      vertex 1.72839445 3.28602345 2.19186563
    endloop
  endfacet
  facet normal 0.864884986 0.463080637 -0.193727348
    outer loop
      vertex 1.65642321 3.42783207 2.20952956
      vertex 1.72839445 3.28602345 2.19186563
      vertex 1.72811187 3.2860425 2.1906496
    endloop
  endfacet
  facet normal -0.448054107 0.886184847 0.117999722
    outer loop
      vertex 1.65385005 3.42636917 2.21074559
      vertex 1.65670579 3.42781303 2.21074559
      vertex 1.65642321 3.42783207 2.20952956
    endloop
  endfacet
  facet normal 0.448054107 -0.886184847 -0.117999722
    outer loop
      vertex 1.72553871 3.28457959 2.19186563
      vertex 1.72811187 3.2860425 2.1906496
      vertex 1.72839445 3.28602345 2.19186563
    endloop
  endfacet
  facet normal 0.885659073 0.42199256 0.193727348
    outer loop
      vertex 1.65670579 3.42781303 2.21074559
      vertex 1.65655361 3.42757416 2.21196162
      vertex 1.72824227 3.28578459 2.19308166
    endloop
  endfacet
  facet normal 0.885659073 0.42199256 0.193727348
    outer loop
      vertex 1.65670579 3.42781303 2.21074559
      vertex 1.72824227 3.28578459 2.19308166
      vertex 1.72839445 3.28602345 2.19186563
    endloop
  endfacet
  facet normal -0.448054107 0.886184847 0.117999722
    outer loop
      vertex 1.65385005 3.42636917 2.21074559
      vertex 1.65655361 3.42757416 2.21196162
      vertex 1.65670579 3.42781303 2.21074559
    endloop
  endfacet
  facet normal 0.448054107 -0.886184847 -0.117999722
    outer loop
      vertex 1.72553871 3.28457959 2.19186563
      vertex 1.72839445 3.28602345 2.19186563
      vertex 1.72824227 3.28578459 2.19308166
    endloop
  endfacet
  facet normal 0.771599596 0.316659941 0.551688813
    outer loop
      vertex 1.65655361 3.42757416 2.21196162
      vertex 1.65598984 3.42715185 2.21299252
      vertex 1.7276785 3.28536227 2.19411257
    endloop
  endfacet
  facet normal 0.771599596 0.316659941 0.551688813
    outer loop
      vertex 1.65655361 3.42757416 2.21196162
      vertex 1.7276785 3.28536227 2.19411257
      vertex 1.72824227 3.28578459 2.19308166
    endloop
  endfacet
  facet normal -0.448054107 0.886184847 0.117999722
    outer loop
      vertex 1.65385005 3.42636917 2.21074559
      vertex 1.65598984 3.42715185 2.21299252
      vertex 1.65655361 3.42757416 2.21196162
    endloop
  endfacet
  facet normal 0.448054107 -0.886184847 -0.117999722
    outer loop
      vertex 1.72553871 3.28457959 2.19186563
      vertex 1.72824227 3.28578459 2.19308166
      vertex 1.7276785 3.28536227 2.19411257
    endloop
  endfacet
  facet normal 0.540071074 0.163118717 0.825660656
    outer loop
      vertex 1.65598984 3.42715185 2.21299252
      vertex 1.6551003 3.42661038 2.21368135
      vertex 1.72678896 3.2848208 2.19480139
    endloop
  endfacet
  facet normal 0.540071074 0.163118717 0.825660656
    outer loop
      vertex 1.65598984 3.42715185 2.21299252
      vertex 1.72678896 3.2848208 2.19480139
      vertex 1.7276785 3.28536227 2.19411257
    endloop
  endfacet
  facet normal -0.448054107 0.886184847 0.117999722
    outer loop
      vertex 1.65385005 3.42636917 2.21074559
      vertex 1.6551003 3.42661038 2.21368135
      vertex 1.65598984 3.42715185 2.21299252
    endloop
  endfacet
  facet normal 0.448054107 -0.886184847 -0.117999722
    outer loop
      vertex 1.72553871 3.28457959 2.19186563
      vertex 1.7276785 3.28536227 2.19411257
      vertex 1.72678896 3.2848208 2.19480139
    endloop
  endfacet
  facet normal 0.226321627 -0.0152558536 0.97393315
    outer loop
      vertex 1.6551003 3.42661038 2.21368135
      vertex 1.65402043 3.42603219 2.21392323
      vertex 1.72570908 3.28424261 2.19504328
    endloop
  endfacet
  facet normal 0.226321627 -0.0152558536 0.97393315
    outer loop
      vertex 1.6551003 3.42661038 2.21368135
      vertex 1.72570908 3.28424261 2.19504328
      vertex 1.72678896 3.2848208 2.19480139
    endloop
  endfacet
  facet normal -0.448054107 0.886184847 0.117999722
    outer loop
      vertex 1.65385005 3.42636917 2.21074559
      vertex 1.65402043 3.42603219 2.21392323
      vertex 1.6551003 3.42661038 2.21368135
    endloop
  endfacet
  facet normal 0.448054107 -0.886184847 -0.117999722
    outer loop
      vertex 1.72553871 3.28457959 2.19186563
      vertex 1.72678896 3.2848208 2.19480139
      vertex 1.72570908 3.28424261 2.19504328
    endloop
  endfacet
  facet normal -0.121883236 -0.191307858 0.97393315
    outer loop
      vertex 1.65402043 3.42603219 2.21392323
      vertex 1.65291461 3.4255053 2.21368135
      vertex 1.72460327 3.28371572 2.19480139
    endloop
  endfacet
  facet normal -0.121883236 -0.191307858 0.97393315
    outer loop
      vertex 1.65402043 3.42603219 2.21392323
      vertex 1.72460327 3.28371572 2.19480139
      vertex 1.72570908 3.28424261 2.19504328
    endloop
  endfacet
  facet normal -0.448054107 0.886184847 0.117999722
    outer loop
      vertex 1.65385005 3.42636917 2.21074559
      vertex 1.65291461 3.4255053 2.21368135
      vertex 1.65402043 3.42603219 2.21392323
    endloop
  endfacet
  facet normal 0.448054107 -0.886184847 -0.117999722
    outer loop
      vertex 1.72553871 3.28457959 2.19186563
      vertex 1.72570908 3.28424261 2.19504328
      vertex 1.72460327 3.28371572 2.19480139
    endloop
  endfacet
  facet normal -0.451532481 -0.338234976 0.825660656
    outer loop
      vertex 1.65291461 3.4255053 2.21368135
      vertex 1.65195121 3.42510992 2.21299252
      vertex 1.72363987 3.28332035 2.19411257
    endloop
  endfacet
  facet normal -0.451532481 -0.338234976 0.825660656
    outer loop
      vertex 1.65291461 3.4255053 2.21368135
      vertex 1.72363987 3.28332035 2.19411257
      vertex 1.72460327 3.28371572 2.19480139
    endloop
  endfacet
  facet normal -0.448054107 0.886184847 0.117999722
    outer loop
      vertex 1.65385005 3.42636917 2.21074559
      vertex 1.65195121 3.42510992 2.21299252
      vertex 1.65291461 3.4255053 2.21368135
    endloop
  endfacet
  facet normal 0.448054107 -0.886184847 -0.117999722
    outer loop
      vertex 1.72553871 3.28457959 2.19186563
      vertex 1.72460327 3.28371572 2.19480139
      vertex 1.72363987 3.28332035 2.19411257
    endloop
  endfacet
  facet normal -0.712439999 -0.433668884 0.551688813
    outer loop
      vertex 1.65195121 3.42510992 2.21299252
      vertex 1.65127689 3.42490626 2.21196162
      vertex 1.72296555 3.28311668 2.19308166
    endloop
  endfacet
  facet normal -0.712439999 -0.433668884 0.551688813
    outer loop
      vertex 1.65195121 3.42510992 2.21299252
      vertex 1.72296555 3.28311668 2.19308166
      vertex 1.72363987 3.28332035 2.19411257
    endloop
  endfacet
  facet normal -0.448054107 0.886184847 0.117999722
    outer loop
      vertex 1.65385005 3.42636917 2.21074559
      vertex 1.65127689 3.42490626 2.21196162
      vertex 1.65195121 3.42510992 2.21299252
    endloop
  endfacet
  facet normal 0.448054107 -0.886184847 -0.117999722
    outer loop
      vertex 1.72553871 3.28457959 2.19186563
      vertex 1.72363987 3.28332035 2.19411257
      vertex 1.72296555 3.28311668 2.19308166
    endloop
  endfacet
  facet normal -0.864884986 -0.463080637 0.193727348
    outer loop
      vertex 1.65127689 3.42490626 2.21196162
      vertex 1.65099431 3.4249253 2.21074559
      vertex 1.72268297 3.28313573 2.19186563
    endloop
  endfacet
  facet normal -0.864884986 -0.463080637 0.193727348
    outer loop
      vertex 1.65127689 3.42490626 2.21196162
      vertex 1.72268297 3.28313573 2.19186563
      vertex 1.72296555 3.28311668 2.19308166
    endloop
  endfacet
  facet normal -0.448054107 0.886184847 0.117999722
    outer loop
      vertex 1.65385005 3.42636917 2.21074559
      vertex 1.65099431 3.4249253 2.21074559
      vertex 1.65127689 3.42490626 2.21196162
    endloop
  endfacet
  facet normal 0.448054107 -0.886184847 -0.117999722
    outer loop
      vertex 1.72553871 3.28457959 2.19186563
      vertex 1.72296555 3.28311668 2.19308166
      vertex 1.72268297 3.28313573 2.19186563
    endloop
  endfacet
endsolid d32_features
