solid g19_features
  facet normal 0.905169596 -0.19507311 0.377643329
    outer loop
      vertex 1.01874169 0.501780121 1.67071479
      vertex 1.01859715 0.501014821 1.67066594
      vertex 1.06450517 0.499420828 1.55980606
    endloop
  endfacet
  facet normal 0.905169596 -0.19507311 0.377643329
    outer loop
      vertex 1.01874169 0.501780121 1.67071479
      vertex 1.06450517 0.499420828 1.55980606
      vertex 1.06464972 0.500186127 1.55985491
    endloop
  endfacet
  facet normal -0.38256687 0.0132832825 0.923832314
    outer loop
      vertex 1.01689387 0.501780121 1.66994959
      vertex 1.01859715 0.501014821 1.67066594
      vertex 1.01874169 0.501780121 1.67071479
    endloop
  endfacet
  facet normal 0.38256687 -0.0132832825 -0.923832314
    outer loop
      vertex 1.06280189 0.500186127 1.55908971
      vertex 1.06464972 0.500186127 1.55985491
      vertex 1.06450517 0.499420828 1.55980606
    endloop
  endfacet
  facet normal 0.765382758 -0.555521217 0.324939089
    outer loop
      vertex 1.01859715 0.501014821 1.67066594
      vertex 1.01819329 0.500366032 1.67050802
      vertex 1.06410131 0.498772038 1.55964815
    endloop
  endfacet
  facet normal 0.765382758 -0.555521217 0.324939089
    outer loop
      vertex 1.01859715 0.501014821 1.67066594
      vertex 1.06410131 0.498772038 1.55964815
      vertex 1.06450517 0.499420828 1.55980606
    endloop
  endfacet
  facet normal -0.38256687 0.0132832825 0.923832314
    outer loop
      vertex 1.01689387 0.501780121 1.66994959
      vertex 1.01819329 0.500366032 1.67050802
      vertex 1.01859715 0.501014821 1.67066594
    endloop
  endfacet
  facet normal 0.38256687 -0.0132832825 -0.923832314
    outer loop
      vertex 1.06280189 0.500186127 1.55908971
      vertex 1.06450517 0.499420828 1.55980606
      vertex 1.06410131 0.498772038 1.55964815
    endloop
  endfacet
  facet normal 0.509073332 -0.831396254 0.222765819
    outer loop
      vertex 1.01819329 0.500366032 1.67050802
      vertex 1.01759161 0.499932525 1.6702651
      vertex 1.06349963 0.498338531 1.55940522
    endloop
  endfacet
  facet normal 0.509073332 -0.831396254 0.222765819
    outer loop
      vertex 1.01819329 0.500366032 1.67050802
      vertex 1.06349963 0.498338531 1.55940522
      vertex 1.06410131 0.498772038 1.55964815
    endloop
  endfacet
  facet normal -0.38256687 0.0132832825 0.923832314
    outer loop
      vertex 1.01689387 0.501780121 1.66994959
      vertex 1.01759161 0.499932525 1.6702651
      vertex 1.01819329 0.500366032 1.67050802
    endloop
  endfacet
  facet normal 0.38256687 -0.0132832825 -0.923832314
    outer loop
      vertex 1.06280189 0.500186127 1.55908971
      vertex 1.06410131 0.498772038 1.55964815
      vertex 1.06349963 0.498338531 1.55940522
    endloop
  endfacet
  facet normal 0.175262107 -0.980698749 0.0866784728
    outer loop
      vertex 1.01759161 0.499932525 1.6702651
      vertex 1.0168837 0.499780297 1.66997413
      vertex 1.06279173 0.498186303 1.55911426
    endloop
  endfacet
  facet normal 0.175262107 -0.980698749 0.0866784728
    outer loop
      vertex 1.01759161 0.499932525 1.6702651
      vertex 1.06279173 0.498186303 1.55911426
      vertex 1.06349963 0.498338531 1.55940522
    endloop
  endfacet
  facet normal -0.38256687 0.0132832825 0.923832314
    outer loop
      vertex 1.01689387 0.501780121 1.66994959
      vertex 1.0168837 0.499780297 1.66997413
      vertex 1.01759161 0.499932525 1.6702651
    endloop
  endfacet
  facet normal 0.38256687 -0.0132832825 -0.923832314
    outer loop
      vertex 1.06280189 0.500186127 1.55908971
      vertex 1.06349963 0.498338531 1.55940522
      vertex 1.06279173 0.498186303 1.55911426
    endloop
  endfacet
  facet normal -0.185231185 -0.980698749 -0.0626048856
    outer loop
      vertex 1.0168837 0.499780297 1.66997413
      vertex 1.01617734 0.499932525 1.66967944
      vertex 1.06208537 0.498338531 1.55881956
    endloop
  endfacet
  facet normal -0.185231185 -0.980698749 -0.0626048856
    outer loop
      vertex 1.0168837 0.499780297 1.66997413
      vertex 1.06208537 0.498338531 1.55881956
      vertex 1.06279173 0.498186303 1.55911426
    endloop
  endfacet
  facet normal -0.38256687 0.0132832825 0.923832314
    outer loop
      vertex 1.01689387 0.501780121 1.66994959
      vertex 1.01617734 0.499932525 1.66967944
      vertex 1.0168837 0.499780297 1.66997413
    endloop
  endfacet
  facet normal 0.38256687 -0.0132832825 -0.923832314
    outer loop
      vertex 1.06280189 0.500186127 1.55908971
      vertex 1.06279173 0.498186303 1.55911426
      vertex 1.06208537 0.498338531 1.55881956
    endloop
  endfacet
  facet normal -0.517524709 -0.831396254 -0.202357218
    outer loop
      vertex 1.01617734 0.499932525 1.66967944
      vertex 1.01558007 0.500366032 1.66942587
      vertex 1.06148809 0.498772038 1.55856599
    endloop
  endfacet
  facet normal -0.517524709 -0.831396254 -0.202357218
    outer loop
      vertex 1.01617734 0.499932525 1.66967944
      vertex 1.06148809 0.498772038 1.55856599
      vertex 1.06208537 0.498338531 1.55881956
    endloop
  endfacet
  facet normal -0.38256687 0.0132832825 0.923832314
    outer loop
      vertex 1.01689387 0.501780121 1.66994959
      vertex 1.01558007 0.500366032 1.66942587
      vertex 1.01617734 0.499932525 1.66967944
    endloop
  endfacet
  facet normal 0.38256687 -0.0132832825 -0.923832314
    outer loop
      vertex 1.06280189 0.500186127 1.55908971
      vertex 1.06208537 0.498338531 1.55881956
      vertex 1.06148809 0.498772038 1.55856599
    endloop
  endfacet
  facet normal -0.771029787 -0.555521217 -0.311302498
    outer loop
      vertex 1.01558007 0.500366032 1.66942587
      vertex 1.01518281 0.501014821 1.66925203
      vertex 1.06109083 0.499420828 1.55839215
    endloop
  endfacet
  facet normal -0.771029787 -0.555521217 -0.311302498
    outer loop
      vertex 1.01558007 0.500366032 1.66942587
      vertex 1.06109083 0.499420828 1.55839215
      vertex 1.06148809 0.498772038 1.55856599
    endloop
  endfacet
  facet normal -0.38256687 0.0132832825 0.923832314
    outer loop
      vertex 1.01689387 0.501780121 1.66994959
      vertex 1.01518281 0.501014821 1.66925203
      vertex 1.01558007 0.500366032 1.66942587
    endloop
  endfacet
  facet normal 0.38256687 -0.0132832825 -0.923832314
    outer loop
      vertex 1.06280189 0.500186127 1.55908971
      vertex 1.06148809 0.498772038 1.55856599
      vertex 1.06109083 0.499420828 1.55839215
    endloop
  endfacet
  facet normal -0.907152569 -0.19507311 -0.372854794
    outer loop
      vertex 1.01518281 0.501014821 1.66925203
      vertex 1.01504604 0.501780121 1.66918439
      vertex 1.06095406 0.500186127 1.55832451
    endloop
  endfacet
  facet normal -0.907152569 -0.19507311 -0.372854794
    outer loop
      vertex 1.01518281 0.501014821 1.66925203
      vertex 1.06095406 0.500186127 1.55832451
      vertex 1.06109083 0.499420828 1.55839215
    endloop
  endfacet
  facet normal -0.38256687 0.0132832825 0.923832314
    outer loop
      vertex 1.01689387 0.501780121 1.66994959
      vertex 1.01504604 0.501780121 1.66918439
      vertex 1.01518281 0.501014821 1.66925203
    endloop
  endfacet
  facet normal 0.38256687 -0.0132832825 -0.923832314
    outer loop
      vertex 1.06280189 0.500186127 1.55908971
      vertex 1.06109083 0.499420828 1.55839215
      vertex 1.06095406 0.500186127 1.55832451
    endloop
  endfacet
  facet normal -0.905169596 0.19507311 -0.377643329
    outer loop
      vertex 1.01504604 0.501780121 1.66918439
      vertex 1.01519059 0.50254542 1.66923324
      vertex 1.06109861 0.500951426 1.55837336
    endloop
  endfacet
  facet normal -0.905169596 0.19507311 -0.377643329
    outer loop
      vertex 1.01504604 0.501780121 1.66918439
      vertex 1.06109861 0.500951426 1.55837336
      vertex 1.06095406 0.500186127 1.55832451
    endloop
  endfacet
  facet normal -0.38256687 0.0132832825 0.923832314
    outer loop
      vertex 1.01689387 0.501780121 1.66994959
      vertex 1.01519059 0.50254542 1.66923324
      vertex 1.01504604 0.501780121 1.66918439
    endloop
  endfacet
  facet normal 0.38256687 -0.0132832825 -0.923832314
    outer loop
      vertex 1.06280189 0.500186127 1.55908971
      vertex 1.06095406 0.500186127 1.55832451
      vertex 1.06109861 0.500951426 1.55837336
    endloop
  endfacet
  facet normal -0.765382758 0.555521217 -0.324939089
    outer loop
      vertex 1.01519059 0.50254542 1.66923324
      vertex 1.01559444 0.50319421 1.66939115
      vertex 1.06150247 0.501600216 1.55853128
    endloop
  endfacet
  facet normal -0.765382758 0.555521217 -0.324939089
    outer loop
      vertex 1.01519059 0.50254542 1.66923324
      vertex 1.06150247 0.501600216 1.55853128
      vertex 1.06109861 0.500951426 1.55837336
    endloop
  endfacet
  facet normal -0.38256687 0.0132832825 0.923832314
    outer loop
      vertex 1.01689387 0.501780121 1.66994959
      vertex 1.01559444 0.50319421 1.66939115
      vertex 1.01519059 0.50254542 1.66923324
    endloop
  endfacet
  facet normal 0.38256687 -0.0132832825 -0.923832314
    outer loop
      vertex 1.06280189 0.500186127 1.55908971
      vertex 1.06109861 0.500951426 1.55837336
      vertex 1.06150247 0.501600216 1.55853128
    endloop
  endfacet
  facet normal -0.509073332 0.831396254 -0.222765819
    outer loop
      vertex 1.01559444 0.50319421 1.66939115
      vertex 1.01619612 0.503627717 1.66963408
      vertex 1.06210415 0.502033723 1.5587742
    endloop
  endfacet
  facet normal -0.509073332 0.831396254 -0.222765819
    outer loop
      vertex 1.01559444 0.50319421 1.66939115
      vertex 1.06210415 0.502033723 1.5587742
      vertex 1.06150247 0.501600216 1.55853128
    endloop
  endfacet
  facet normal -0.38256687 0.0132832825 0.923832314
    outer loop
      vertex 1.01689387 0.501780121 1.66994959
      vertex 1.01619612 0.503627717 1.66963408
      vertex 1.01559444 0.50319421 1.66939115
    endloop
  endfacet
  facet normal 0.38256687 -0.0132832825 -0.923832314
    outer loop
      vertex 1.06280189 0.500186127 1.55908971
      vertex 1.06150247 0.501600216 1.55853128
      vertex 1.06210415 0.502033723 1.5587742
    endloop
  endfacet
  facet normal -0.175262107 0.980698749 -0.0866784728
    outer loop
      vertex 1.01619612 0.503627717 1.66963408
      vertex 1.01690403 0.503779944 1.66992504
      vertex 1.06281205 0.50218595 1.55906517
    endloop
  endfacet
  facet normal -0.175262107 0.980698749 -0.0866784728
    outer loop
      vertex 1.01619612 0.503627717 1.66963408
      vertex 1.06281205 0.50218595 1.55906517
      vertex 1.06210415 0.502033723 1.5587742
    endloop
  endfacet
  facet normal -0.38256687 0.0132832825 0.923832314
    outer loop
      vertex 1.01689387 0.501780121 1.66994959
      vertex 1.01690403 0.503779944 1.66992504
      vertex 1.01619612 0.503627717 1.66963408
    endloop
  endfacet
  facet normal 0.38256687 -0.0132832825 -0.923832314
    outer loop
      vertex 1.06280189 0.500186127 1.55908971
      vertex 1.06210415 0.502033723 1.5587742
      vertex 1.06281205 0.50218595 1.55906517
    endloop
  endfacet
  facet normal 0.185231185 0.980698749 0.0626048856
    outer loop
      vertex 1.01690403 0.503779944 1.66992504
      vertex 1.01761039 0.503627717 1.67021974
      vertex 1.06351841 0.502033723 1.55935986
    endloop
  endfacet
  facet normal 0.185231185 0.980698749 0.0626048856
    outer loop
      vertex 1.01690403 0.503779944 1.66992504
      vertex 1.06351841 0.502033723 1.55935986
      vertex 1.06281205 0.50218595 1.55906517
    endloop
  endfacet
  facet normal -0.38256687 0.0132832825 0.923832314
    outer loop
      vertex 1.01689387 0.501780121 1.66994959
      vertex 1.01761039 0.503627717 1.67021974
      vertex 1.01690403 0.503779944 1.66992504
    endloop
  endfacet
  facet normal 0.38256687 -0.0132832825 -0.923832314
    outer loop
      vertex 1.06280189 0.500186127 1.55908971
      vertex 1.06281205 0.50218595 1.55906517
      vertex 1.06351841 0.502033723 1.55935986
    endloop
  endfacet
  facet normal 0.517524709 0.831396254 0.202357218
    outer loop
      vertex 1.01761039 0.503627717 1.67021974
      vertex 1.01820766 0.50319421 1.67047331
      vertex 1.06411569 0.501600216 1.55961343
    endloop
  endfacet
  facet normal 0.517524709 0.831396254 0.202357218
    outer loop
      vertex 1.01761039 0.503627717 1.67021974
      vertex 1.06411569 0.501600216 1.55961343
      vertex 1.06351841 0.502033723 1.55935986
    endloop
  endfacet
  facet normal -0.38256687 0.0132832825 0.923832314
    outer loop
      vertex 1.01689387 0.501780121 1.66994959
      vertex 1.01820766 0.50319421 1.67047331
      vertex 1.01761039 0.503627717 1.67021974
    endloop
  endfacet
  facet normal 0.38256687 -0.0132832825 -0.923832314
    outer loop
      vertex 1.06280189 0.500186127 1.55908971
      vertex 1.06351841 0.502033723 1.55935986
      vertex 1.06411569 0.501600216 1.55961343
    endloop
  endfacet
  facet normal 0.771029787 0.555521217 0.311302498
    outer loop
      vertex 1.01820766 0.50319421 1.67047331
      vertex 1.01860493 0.50254542 1.67064715
      vertex 1.06451295 0.500951426 1.55978727
    endloop
  endfacet
  facet normal 0.771029787 0.555521217 0.311302498
    outer loop
      vertex 1.01820766 0.50319421 1.67047331
      vertex 1.06451295 0.500951426 1.55978727
      vertex 1.06411569 0.501600216 1.55961343
    endloop
  endfacet
  facet normal -0.38256687 0.0132832825 0.923832314
    outer loop
      vertex 1.01689387 0.501780121 1.66994959
      vertex 1.01860493 0.50254542 1.67064715
      vertex 1.01820766 0.50319421 1.67047331
    endloop
  endfacet
  facet normal 0.38256687 -0.0132832825 -0.923832314
    outer loop
      vertex 1.06280189 0.500186127 1.55908971
      vertex 1.06411569 0.501600216 1.55961343
      vertex 1.06451295 0.500951426 1.55978727
    endloop
  endfacet
  facet normal 0.907152569 0.19507311 0.372854794
    outer loop
      vertex 1.01860493 0.50254542 1.67064715
      vertex 1.01874169 0.501780121 1.67071479
      vertex 1.06464972 0.500186127 1.55985491
    endloop
  endfacet
  facet normal 0.907152569 0.19507311 0.372854794
    outer loop
      vertex 1.01860493 0.50254542 1.67064715
      vertex 1.06464972 0.500186127 1.55985491
      vertex 1.06451295 0.500951426 1.55978727
    endloop
  endfacet
  facet normal -0.38256687 0.0132832825 0.923832314
    outer loop
      vertex 1.01689387 0.501780121 1.66994959
      vertex 1.01874169 0.501780121 1.67071479
      vertex 1.01860493 0.50254542 1.67064715
    endloop
  endfacet
  facet normal 0.38256687 -0.0132832825 -0.923832314
    outer loop
      vertex 1.06280189 0.500186127 1.55908971
      vertex 1.06451295 0.500951426 1.55978727
      vertex 1.06464972 0.500186127 1.55985491
    endloop
  endfacet
  facet normal 0.905169596 -0.19507311 0.377643329
    outer loop
      vertex 1.00568708 0.528163951 1.66492941
      vertex 1.00554254 0.527398652 1.66488055
      vertex 1.05145056 0.525804658 1.55402067
    endloop
  endfacet
  facet normal 0.905169596 -0.19507311 0.377643329
    outer loop
      vertex 1.00568708 0.528163951 1.66492941
      vertex 1.05145056 0.525804658 1.55402067
      vertex 1.05159511 0.526569957 1.55406953
    endloop
  endfacet
  facet normal -0.38256687 0.0132832825 0.923832314
    outer loop
      vertex 1.00383926 0.528163951 1.66416421
      vertex 1.00554254 0.527398652 1.66488055
      vertex 1.00568708 0.528163951 1.66492941
    endloop
  endfacet
  facet normal 0.38256687 -0.0132832825 -0.923832314
    outer loop
      vertex 1.04974728 0.526569957 1.55330433
      vertex 1.05159511 0.526569957 1.55406953
      vertex 1.05145056 0.525804658 1.55402067
    endloop
  endfacet
  facet normal 0.765382758 -0.555521217 0.324939089
    outer loop
      vertex 1.00554254 0.527398652 1.66488055
      vertex 1.00513868 0.526749863 1.66472264
      vertex 1.05104671 0.525155869 1.55386276
    endloop
  endfacet
  facet normal 0.765382758 -0.555521217 0.324939089
    outer loop
      vertex 1.00554254 0.527398652 1.66488055
      vertex 1.05104671 0.525155869 1.55386276
      vertex 1.05145056 0.525804658 1.55402067
    endloop
  endfacet
  facet normal -0.38256687 0.0132832825 0.923832314
    outer loop
      vertex 1.00383926 0.528163951 1.66416421
      vertex 1.00513868 0.526749863 1.66472264
      vertex 1.00554254 0.527398652 1.66488055
    endloop
  endfacet
  facet normal 0.38256687 -0.0132832825 -0.923832314
    outer loop
      vertex 1.04974728 0.526569957 1.55330433
      vertex 1.05145056 0.525804658 1.55402067
      vertex 1.05104671 0.525155869 1.55386276
    endloop
  endfacet
  facet normal 0.509073332 -0.831396254 0.222765819
    outer loop
      vertex 1.00513868 0.526749863 1.66472264
      vertex 1.004537 0.526316355 1.66447971
      vertex 1.05044502 0.524722361 1.55361983
    endloop
  endfacet
  facet normal 0.509073332 -0.831396254 0.222765819
    outer loop
      vertex 1.00513868 0.526749863 1.66472264
      vertex 1.05044502 0.524722361 1.55361983
      vertex 1.05104671 0.525155869 1.55386276
    endloop
  endfacet
  facet normal -0.38256687 0.0132832825 0.923832314
    outer loop
      vertex 1.00383926 0.528163951 1.66416421
      vertex 1.004537 0.526316355 1.66447971
      vertex 1.00513868 0.526749863 1.66472264
    endloop
  endfacet
  facet normal 0.38256687 -0.0132832825 -0.923832314
    outer loop
      vertex 1.04974728 0.526569957 1.55330433
      vertex 1.05104671 0.525155869 1.55386276
      vertex 1.05044502 0.524722361 1.55361983
    endloop
  endfacet
  facet normal 0.175262107 -0.980698749 0.0866784728
    outer loop
      vertex 1.004537 0.526316355 1.66447971
      vertex 1.00382909 0.526164128 1.66418875
      vertex 1.04973712 0.524570134 1.55332887
    endloop
  endfacet
  facet normal 0.175262107 -0.980698749 0.0866784728
    outer loop
      vertex 1.004537 0.526316355 1.66447971
      vertex 1.04973712 0.524570134 1.55332887
      vertex 1.05044502 0.524722361 1.55361983
    endloop
  endfacet
  facet normal -0.38256687 0.0132832825 0.923832314
    outer loop
      vertex 1.00383926 0.528163951 1.66416421
      vertex 1.00382909 0.526164128 1.66418875
      vertex 1.004537 0.526316355 1.66447971
    endloop
  endfacet
  facet normal 0.38256687 -0.0132832825 -0.923832314
    outer loop
      vertex 1.04974728 0.526569957 1.55330433
      vertex 1.05044502 0.524722361 1.55361983
      vertex 1.04973712 0.524570134 1.55332887
    endloop
  endfacet
  facet normal -0.185231185 -0.980698749 -0.0626048856
    outer loop
      vertex 1.00382909 0.526164128 1.66418875
      vertex 1.00312273 0.526316355 1.66389405
      vertex 1.04903076 0.524722361 1.55303417
    endloop
  endfacet
  facet normal -0.185231185 -0.980698749 -0.0626048856
    outer loop
      vertex 1.00382909 0.526164128 1.66418875
      vertex 1.04903076 0.524722361 1.55303417
      vertex 1.04973712 0.524570134 1.55332887
    endloop
  endfacet
  facet normal -0.38256687 0.0132832825 0.923832314
    outer loop
      vertex 1.00383926 0.528163951 1.66416421
      vertex 1.00312273 0.526316355 1.66389405
      vertex 1.00382909 0.526164128 1.66418875
    endloop
  endfacet
  facet normal 0.38256687 -0.0132832825 -0.923832314
    outer loop
      vertex 1.04974728 0.526569957 1.55330433
      vertex 1.04973712 0.524570134 1.55332887
      vertex 1.04903076 0.524722361 1.55303417
    endloop
  endfacet
  facet normal -0.517524709 -0.831396254 -0.202357218
    outer loop
      vertex 1.00312273 0.526316355 1.66389405
      vertex 1.00252546 0.526749863 1.66364048
      vertex 1.04843348 0.525155869 1.5527806
    endloop
  endfacet
  facet normal -0.517524709 -0.831396254 -0.202357218
    outer loop
      vertex 1.00312273 0.526316355 1.66389405
      vertex 1.04843348 0.525155869 1.5527806
      vertex 1.04903076 0.524722361 1.55303417
    endloop
  endfacet
  facet normal -0.38256687 0.0132832825 0.923832314
    outer loop
      vertex 1.00383926 0.528163951 1.66416421
      vertex 1.00252546 0.526749863 1.66364048
      vertex 1.00312273 0.526316355 1.66389405
    endloop
  endfacet
  facet normal 0.38256687 -0.0132832825 -0.923832314
    outer loop
      vertex 1.04974728 0.526569957 1.55330433
      vertex 1.04903076 0.524722361 1.55303417
      vertex 1.04843348 0.525155869 1.5527806
    endloop
  endfacet
  facet normal -0.771029787 -0.555521217 -0.311302498
    outer loop
      vertex 1.00252546 0.526749863 1.66364048
      vertex 1.0021282 0.527398652 1.66346664
      vertex 1.04803622 0.525804658 1.55260677
    endloop
  endfacet
  facet normal -0.771029787 -0.555521217 -0.311302498
    outer loop
      vertex 1.00252546 0.526749863 1.66364048
      vertex 1.04803622 0.525804658 1.55260677
      vertex 1.04843348 0.525155869 1.5527806
    endloop
  endfacet
  facet normal -0.38256687 0.0132832825 0.923832314
    outer loop
      vertex 1.00383926 0.528163951 1.66416421
      vertex 1.0021282 0.527398652 1.66346664
      vertex 1.00252546 0.526749863 1.66364048
    endloop
  endfacet
  facet normal 0.38256687 -0.0132832825 -0.923832314
    outer loop
      vertex 1.04974728 0.526569957 1.55330433
      vertex 1.04843348 0.525155869 1.5527806
      vertex 1.04803622 0.525804658 1.55260677
    endloop
  endfacet
  facet normal -0.907152569 -0.19507311 -0.372854794
    outer loop
      vertex 1.0021282 0.527398652 1.66346664
      vertex 1.00199143 0.528163951 1.663399
      vertex 1.04789945 0.526569957 1.55253913
    endloop
  endfacet
  facet normal -0.907152569 -0.19507311 -0.372854794
    outer loop
      vertex 1.0021282 0.527398652 1.66346664
      vertex 1.04789945 0.526569957 1.55253913
      vertex 1.04803622 0.525804658 1.55260677
    endloop
  endfacet
  facet normal -0.38256687 0.0132832825 0.923832314
    outer loop
      vertex 1.00383926 0.528163951 1.66416421
      vertex 1.00199143 0.528163951 1.663399
      vertex 1.0021282 0.527398652 1.66346664
    endloop
  endfacet
  facet normal 0.38256687 -0.0132832825 -0.923832314
    outer loop
      vertex 1.04974728 0.526569957 1.55330433
      vertex 1.04803622 0.525804658 1.55260677
      vertex 1.04789945 0.526569957 1.55253913
    endloop
  endfacet
  facet normal -0.905169596 0.19507311 -0.377643329
    outer loop
      vertex 1.00199143 0.528163951 1.663399
      vertex 1.00213598 0.528929251 1.66344786
      vertex 1.048044 0.527335257 1.55258798
    endloop
  endfacet
  facet normal -0.905169596 0.19507311 -0.377643329
    outer loop
      vertex 1.00199143 0.528163951 1.663399
      vertex 1.048044 0.527335257 1.55258798
      vertex 1.04789945 0.526569957 1.55253913
    endloop
  endfacet
  facet normal -0.38256687 0.0132832825 0.923832314
    outer loop
      vertex 1.00383926 0.528163951 1.66416421
      vertex 1.00213598 0.528929251 1.66344786
      vertex 1.00199143 0.528163951 1.663399
    endloop
  endfacet
  facet normal 0.38256687 -0.0132832825 -0.923832314
    outer loop
      vertex 1.04974728 0.526569957 1.55330433
      vertex 1.04789945 0.526569957 1.55253913
      vertex 1.048044 0.527335257 1.55258798
    endloop
  endfacet
  facet normal -0.765382758 0.555521217 -0.324939089
    outer loop
      vertex 1.00213598 0.528929251 1.66344786
      vertex 1.00253983 0.52957804 1.66360577
      vertex 1.04844786 0.527984046 1.55274589
    endloop
  endfacet
  facet normal -0.765382758 0.555521217 -0.324939089
    outer loop
      vertex 1.00213598 0.528929251 1.66344786
      vertex 1.04844786 0.527984046 1.55274589
      vertex 1.048044 0.527335257 1.55258798
    endloop
  endfacet
  facet normal -0.38256687 0.0132832825 0.923832314
    outer loop
      vertex 1.00383926 0.528163951 1.66416421
      vertex 1.00253983 0.52957804 1.66360577
      vertex 1.00213598 0.528929251 1.66344786
    endloop
  endfacet
  facet normal 0.38256687 -0.0132832825 -0.923832314
    outer loop
      vertex 1.04974728 0.526569957 1.55330433
      vertex 1.048044 0.527335257 1.55258798
      vertex 1.04844786 0.527984046 1.55274589
    endloop
  endfacet
  facet normal -0.509073332 0.831396254 -0.222765819
    outer loop
      vertex 1.00253983 0.52957804 1.66360577
      vertex 1.00314151 0.530011547 1.6638487
      vertex 1.04904954 0.528417553 1.55298882
    endloop
  endfacet
  facet normal -0.509073332 0.831396254 -0.222765819
    outer loop
      vertex 1.00253983 0.52957804 1.66360577
      vertex 1.04904954 0.528417553 1.55298882
      vertex 1.04844786 0.527984046 1.55274589
    endloop
  endfacet
  facet normal -0.38256687 0.0132832825 0.923832314
    outer loop
      vertex 1.00383926 0.528163951 1.66416421
      vertex 1.00314151 0.530011547 1.6638487
      vertex 1.00253983 0.52957804 1.66360577
    endloop
  endfacet
  facet normal 0.38256687 -0.0132832825 -0.923832314
    outer loop
      vertex 1.04974728 0.526569957 1.55330433
      vertex 1.04844786 0.527984046 1.55274589
      vertex 1.04904954 0.528417553 1.55298882
    endloop
  endfacet
  facet normal -0.175262107 0.980698749 -0.0866784728
    outer loop
      vertex 1.00314151 0.530011547 1.6638487
      vertex 1.00384942 0.530163775 1.66413966
      vertex 1.04975745 0.528569781 1.55327978
    endloop
  endfacet
  facet normal -0.175262107 0.980698749 -0.0866784728
    outer loop
      vertex 1.00314151 0.530011547 1.6638487
      vertex 1.04975745 0.528569781 1.55327978
      vertex 1.04904954 0.528417553 1.55298882
    endloop
  endfacet
  facet normal -0.38256687 0.0132832825 0.923832314
    outer loop
      vertex 1.00383926 0.528163951 1.66416421
      vertex 1.00384942 0.530163775 1.66413966
      vertex 1.00314151 0.530011547 1.6638487
    endloop
  endfacet
  facet normal 0.38256687 -0.0132832825 -0.923832314
    outer loop
      vertex 1.04974728 0.526569957 1.55330433
      vertex 1.04904954 0.528417553 1.55298882
      vertex 1.04975745 0.528569781 1.55327978
    endloop
  endfacet
  facet normal 0.185231185 0.980698749 0.0626048856
    outer loop
      vertex 1.00384942 0.530163775 1.66413966
      vertex 1.00455578 0.530011547 1.66443436
      vertex 1.0504638 0.528417553 1.55357448
    endloop
  endfacet
  facet normal 0.185231185 0.980698749 0.0626048856
    outer loop
      vertex 1.00384942 0.530163775 1.66413966
      vertex 1.0504638 0.528417553 1.55357448
      vertex 1.04975745 0.528569781 1.55327978
    endloop
  endfacet
  facet normal -0.38256687 0.0132832825 0.923832314
    outer loop
      vertex 1.00383926 0.528163951 1.66416421
      vertex 1.00455578 0.530011547 1.66443436
      vertex 1.00384942 0.530163775 1.66413966
    endloop
  endfacet
  facet normal 0.38256687 -0.0132832825 -0.923832314
    outer loop
      vertex 1.04974728 0.526569957 1.55330433
      vertex 1.04975745 0.528569781 1.55327978
      vertex 1.0504638 0.528417553 1.55357448
    endloop
  endfacet
  facet normal 0.517524709 0.831396254 0.202357218
    outer loop
      vertex 1.00455578 0.530011547 1.66443436
      vertex 1.00515306 0.52957804 1.66468793
      vertex 1.05106108 0.527984046 1.55382805
    endloop
  endfacet
  facet normal 0.517524709 0.831396254 0.202357218
    outer loop
      vertex 1.00455578 0.530011547 1.66443436
      vertex 1.05106108 0.527984046 1.55382805
      vertex 1.0504638 0.528417553 1.55357448
    endloop
  endfacet
  facet normal -0.38256687 0.0132832825 0.923832314
    outer loop
      vertex 1.00383926 0.528163951 1.66416421
      vertex 1.00515306 0.52957804 1.66468793
      vertex 1.00455578 0.530011547 1.66443436
    endloop
  endfacet
  facet normal 0.38256687 -0.0132832825 -0.923832314
    outer loop
      vertex 1.04974728 0.526569957 1.55330433
      vertex 1.0504638 0.528417553 1.55357448
      vertex 1.05106108 0.527984046 1.55382805
    endloop
  endfacet
  facet normal 0.771029787 0.555521217 0.311302498
    outer loop
      vertex 1.00515306 0.52957804 1.66468793
      vertex 1.00555032 0.528929251 1.66486177
      vertex 1.05145834 0.527335257 1.55400189
    endloop
  endfacet
  facet normal 0.771029787 0.555521217 0.311302498
    outer loop
      vertex 1.00515306 0.52957804 1.66468793
      vertex 1.05145834 0.527335257 1.55400189
      vertex 1.05106108 0.527984046 1.55382805
    endloop
  endfacet
  facet normal -0.38256687 0.0132832825 0.923832314
    outer loop
      vertex 1.00383926 0.528163951 1.66416421
      vertex 1.00555032 0.528929251 1.66486177
      vertex 1.00515306 0.52957804 1.66468793
    endloop
  endfacet
  facet normal 0.38256687 -0.0132832825 -0.923832314
    outer loop
      vertex 1.04974728 0.526569957 1.55330433
      vertex 1.05106108 0.527984046 1.55382805
      vertex 1.05145834 0.527335257 1.55400189
    endloop
  endfacet
  facet normal 0.907152569 0.19507311 0.372854794
    outer loop
      vertex 1.00555032 0.528929251 1.66486177
      vertex 1.00568708 0.528163951 1.66492941
      vertex 1.05159511 0.526569957 1.55406953
    endloop
  endfacet
  facet normal 0.907152569 0.19507311 0.372854794
    outer loop
      vertex 1.00555032 0.528929251 1.66486177
      vertex 1.05159511 0.526569957 1.55406953
      vertex 1.05145834 0.527335257 1.55400189
    endloop
  endfacet
  facet normal -0.38256687 0.0132832825 0.923832314
    outer loop
      vertex 1.00383926 0.528163951 1.66416421
      vertex 1.00568708 0.528163951 1.66492941
      vertex 1.00555032 0.528929251 1.66486177
    endloop
  endfacet
  facet normal 0.38256687 -0.0132832825 -0.923832314
    outer loop
      vertex 1.04974728 0.526569957 1.55330433
      vertex 1.05145834 0.527335257 1.55400189
      vertex 1.05159511 0.526569957 1.55406953
    endloop
  endfacet
  facet normal 0.818295126 0.540724438 -0.194961967
    outer loop
      vertex 1.13369838 0.59710509 1.60502579
      vertex 1.13355563 0.597045347 1.60426093
      vertex 1.05181888 0.722701652 1.60970124
    endloop
  endfacet
  facet normal 0.818295126 0.540724438 -0.194961967
    outer loop
      vertex 1.13369838 0.59710509 1.60502579
      vertex 1.05181888 0.722701652 1.60970124
      vertex 1.05196163 0.722761396 1.6104661
    endloop
  endfacet
  facet normal 0.544911649 -0.837708705 -0.036268722
    outer loop
      vertex 1.13202186 0.596014549 1.60502579
      vertex 1.13355563 0.597045347 1.60426093
      vertex 1.13369838 0.59710509 1.60502579
    endloop
  endfacet
  facet normal -0.544911649 0.837708705 0.036268722
    outer loop
      vertex 1.05028511 0.721670855 1.6104661
      vertex 1.05196163 0.722761396 1.6104661
      vertex 1.05181888 0.722701652 1.60970124
    endloop
  endfacet
  facet normal 0.686000797 0.47026656 -0.555204709
    outer loop
      vertex 1.13355563 0.597045347 1.60426093
      vertex 1.13317937 0.596828674 1.60361251
      vertex 1.05144262 0.72248498 1.60905282
    endloop
  endfacet
  facet normal 0.686000797 0.47026656 -0.555204709
    outer loop
      vertex 1.13355563 0.597045347 1.60426093
      vertex 1.05144262 0.72248498 1.60905282
      vertex 1.05181888 0.722701652 1.60970124
    endloop
  endfacet
  facet normal 0.544911649 -0.837708705 -0.036268722
    outer loop
      vertex 1.13202186 0.596014549 1.60502579
      vertex 1.13317937 0.596828674 1.60361251
      vertex 1.13355563 0.597045347 1.60426093
    endloop
  endfacet
  facet normal -0.544911649 0.837708705 0.036268722
    outer loop
      vertex 1.05028511 0.721670855 1.6104661
      vertex 1.05181888 0.722701652 1.60970124
      vertex 1.05144262 0.72248498 1.60905282
    endloop
  endfacet
  facet normal 0.449269065 0.328214862 -0.830922566
    outer loop
      vertex 1.13317937 0.596828674 1.60361251
      vertex 1.13262689 0.596488058 1.60317925
      vertex 1.05089015 0.722144364 1.60861956
    endloop
  endfacet
  facet normal 0.449269065 0.328214862 -0.830922566
    outer loop
      vertex 1.13317937 0.596828674 1.60361251
      vertex 1.05089015 0.722144364 1.60861956
      vertex 1.05144262 0.72248498 1.60905282
    endloop
  endfacet
  facet normal 0.544911649 -0.837708705 -0.036268722
    outer loop
      vertex 1.13202186 0.596014549 1.60502579
      vertex 1.13262689 0.596488058 1.60317925
      vertex 1.13317937 0.596828674 1.60361251
    endloop
  endfacet
  facet normal -0.544911649 0.837708705 0.036268722
    outer loop
      vertex 1.05028511 0.721670855 1.6104661
      vertex 1.05144262 0.72248498 1.60905282
      vertex 1.05089015 0.722144364 1.60861956
    endloop
  endfacet
  facet normal 0.144140191 0.136195426 -0.980139996
    outer loop
      vertex 1.13262689 0.596488058 1.60317925
      vertex 1.13198231 0.596075355 1.60302711
      vertex 1.05024556 0.72173166 1.60846741
    endloop
  endfacet
  facet normal 0.144140191 0.136195426 -0.980139996
    outer loop
      vertex 1.13262689 0.596488058 1.60317925
      vertex 1.05024556 0.72173166 1.60846741
      vertex 1.05089015 0.722144364 1.60861956
    endloop
  endfacet
  facet normal 0.544911649 -0.837708705 -0.036268722
    outer loop
      vertex 1.13202186 0.596014549 1.60502579
      vertex 1.13198231 0.596075355 1.60302711
      vertex 1.13262689 0.596488058 1.60317925
    endloop
  endfacet
  facet normal -0.544911649 0.837708705 0.036268722
    outer loop
      vertex 1.05028511 0.721670855 1.6104661
      vertex 1.05089015 0.722144364 1.60861956
      vertex 1.05024556 0.72173166 1.60846741
    endloop
  endfacet
  facet normal -0.182932721 -0.0765585286 -0.980139996
    outer loop
      vertex 1.13198231 0.596075355 1.60302711
      vertex 1.13134374 0.595653394 1.60317925
      vertex 1.04960699 0.7213097 1.60861956
    endloop
  endfacet
  facet normal -0.182932721 -0.0765585286 -0.980139996
    outer loop
      vertex 1.13198231 0.596075355 1.60302711
      vertex 1.04960699 0.7213097 1.60861956
      vertex 1.05024556 0.72173166 1.60846741
    endloop
  endfacet
  facet normal 0.544911649 -0.837708705 -0.036268722
    outer loop
      vertex 1.13202186 0.596014549 1.60502579
      vertex 1.13134374 0.595653394 1.60317925
      vertex 1.13198231 0.596075355 1.60302711
    endloop
  endfacet
  facet normal -0.544911649 0.837708705 0.036268722
    outer loop
      vertex 1.05028511 0.721670855 1.6104661
      vertex 1.05024556 0.72173166 1.60846741
      vertex 1.04960699 0.7213097 1.60861956
    endloop
  endfacet
  facet normal -0.482155784 -0.277657141 -0.830922566
    outer loop
      vertex 1.13134374 0.595653394 1.60317925
      vertex 1.13080841 0.595286416 1.60361251
      vertex 1.04907167 0.720942722 1.60905282
    endloop
  endfacet
  facet normal -0.482155784 -0.277657141 -0.830922566
    outer loop
      vertex 1.13134374 0.595653394 1.60317925
      vertex 1.04907167 0.720942722 1.60905282
      vertex 1.04960699 0.7213097 1.60861956
    endloop
  endfacet
  facet normal 0.544911649 -0.837708705 -0.036268722
    outer loop
      vertex 1.13202186 0.596014549 1.60502579
      vertex 1.13080841 0.595286416 1.60361251
      vertex 1.13134374 0.595653394 1.60317925
    endloop
  endfacet
  facet normal -0.544911649 0.837708705 0.036268722
    outer loop
      vertex 1.05028511 0.721670855 1.6104661
      vertex 1.04960699 0.7213097 1.60861956
      vertex 1.04907167 0.720942722 1.60905282
    endloop
  endfacet
  facet normal -0.707975 -0.436484971 -0.555204709
    outer loop
      vertex 1.13080841 0.595286416 1.60361251
      vertex 1.13045782 0.59503029 1.60426093
      vertex 1.04872107 0.720686596 1.60970124
    endloop
  endfacet
  facet normal -0.707975 -0.436484971 -0.555204709
    outer loop
      vertex 1.13080841 0.595286416 1.60361251
      vertex 1.04872107 0.720686596 1.60970124
      vertex 1.04907167 0.720942722 1.60905282
    endloop
  endfacet
  facet normal 0.544911649 -0.837708705 -0.036268722
    outer loop
      vertex 1.13202186 0.596014549 1.60502579
      vertex 1.13045782 0.59503029 1.60426093
      vertex 1.13080841 0.595286416 1.60361251
    endloop
  endfacet
  facet normal -0.544911649 0.837708705 0.036268722
    outer loop
      vertex 1.05028511 0.721670855 1.6104661
      vertex 1.04907167 0.720942722 1.60905282
      vertex 1.04872107 0.720686596 1.60970124
    endloop
  endfacet
  facet normal -0.82601144 -0.528861921 -0.194961967
    outer loop
      vertex 1.13045782 0.59503029 1.60426093
      vertex 1.13034534 0.594924008 1.60502579
      vertex 1.04860859 0.720580314 1.6104661
    endloop
  endfacet
  facet normal -0.82601144 -0.528861921 -0.194961967
    outer loop
      vertex 1.13045782 0.59503029 1.60426093
      vertex 1.04860859 0.720580314 1.6104661
      vertex 1.04872107 0.720686596 1.60970124
    endloop
  endfacet
  facet normal 0.544911649 -0.837708705 -0.036268722
    outer loop
      vertex 1.13202186 0.596014549 1.60502579
      vertex 1.13034534 0.594924008 1.60502579
      vertex 1.13045782 0.59503029 1.60426093
    endloop
  endfacet
  facet normal -0.544911649 0.837708705 0.036268722
    outer loop
      vertex 1.05028511 0.721670855 1.6104661
      vertex 1.04872107 0.720686596 1.60970124
      vertex 1.04860859 0.720580314 1.6104661
    endloop
  endfacet
  facet normal -0.818295126 -0.540724438 0.194961967
    outer loop
      vertex 1.13034534 0.594924008 1.60502579
      vertex 1.13048809 0.594983752 1.60579065
      vertex 1.04875135 0.720640057 1.61123096
    endloop
  endfacet
  facet normal -0.818295126 -0.540724438 0.194961967
    outer loop
      vertex 1.13034534 0.594924008 1.60502579
      vertex 1.04875135 0.720640057 1.61123096
      vertex 1.04860859 0.720580314 1.6104661
    endloop
  endfacet
  facet normal 0.544911649 -0.837708705 -0.036268722
    outer loop
      vertex 1.13202186 0.596014549 1.60502579
      vertex 1.13048809 0.594983752 1.60579065
      vertex 1.13034534 0.594924008 1.60502579
    endloop
  endfacet
  facet normal -0.544911649 0.837708705 0.036268722
    outer loop
      vertex 1.05028511 0.721670855 1.6104661
      vertex 1.04860859 0.720580314 1.6104661
      vertex 1.04875135 0.720640057 1.61123096
    endloop
  endfacet
  facet normal -0.686000797 -0.47026656 0.555204709
    outer loop
      vertex 1.13048809 0.594983752 1.60579065
      vertex 1.13086435 0.595200425 1.60643907
      vertex 1.0491276 0.72085673 1.61187938
    endloop
  endfacet
  facet normal -0.686000797 -0.47026656 0.555204709
    outer loop
      vertex 1.13048809 0.594983752 1.60579065
      vertex 1.0491276 0.72085673 1.61187938
      vertex 1.04875135 0.720640057 1.61123096
    endloop
  endfacet
  facet normal 0.544911649 -0.837708705 -0.036268722
    outer loop
      vertex 1.13202186 0.596014549 1.60502579
      vertex 1.13086435 0.595200425 1.60643907
      vertex 1.13048809 0.594983752 1.60579065
    endloop
  endfacet
  facet normal -0.544911649 0.837708705 0.036268722
    outer loop
      vertex 1.05028511 0.721670855 1.6104661
      vertex 1.04875135 0.720640057 1.61123096
      vertex 1.0491276 0.72085673 1.61187938
    endloop
  endfacet
  facet normal -0.449269065 -0.328214862 0.830922566
    outer loop
      vertex 1.13086435 0.595200425 1.60643907
      vertex 1.13141682 0.595541041 1.60687233
      vertex 1.04968008 0.721197346 1.61231264
    endloop
  endfacet
  facet normal -0.449269065 -0.328214862 0.830922566
    outer loop
      vertex 1.13086435 0.595200425 1.60643907
      vertex 1.04968008 0.721197346 1.61231264
      vertex 1.0491276 0.72085673 1.61187938
    endloop
  endfacet
  facet normal 0.544911649 -0.837708705 -0.036268722
    outer loop
      vertex 1.13202186 0.596014549 1.60502579
      vertex 1.13141682 0.595541041 1.60687233
      vertex 1.13086435 0.595200425 1.60643907
    endloop
  endfacet
  facet normal -0.544911649 0.837708705 0.036268722
    outer loop
      vertex 1.05028511 0.721670855 1.6104661
      vertex 1.0491276 0.72085673 1.61187938
      vertex 1.04968008 0.721197346 1.61231264
    endloop
  endfacet
  facet normal -0.144140191 -0.136195426 0.980139996
    outer loop
      vertex 1.13141682 0.595541041 1.60687233
      vertex 1.13206141 0.595953744 1.60702447
      vertex 1.05032466 0.72161005 1.61246478
    endloop
  endfacet
  facet normal -0.144140191 -0.136195426 0.980139996
    outer loop
      vertex 1.13141682 0.595541041 1.60687233
      vertex 1.05032466 0.72161005 1.61246478
      vertex 1.04968008 0.721197346 1.61231264
    endloop
  endfacet
  facet normal 0.544911649 -0.837708705 -0.036268722
    outer loop
      vertex 1.13202186 0.596014549 1.60502579
      vertex 1.13206141 0.595953744 1.60702447
      vertex 1.13141682 0.595541041 1.60687233
    endloop
  endfacet
  facet normal -0.544911649 0.837708705 0.036268722
    outer loop
      vertex 1.05028511 0.721670855 1.6104661
      vertex 1.04968008 0.721197346 1.61231264
      vertex 1.05032466 0.72161005 1.61246478
    endloop
  endfacet
  facet normal 0.182932721 0.0765585286 0.980139996
    outer loop
      vertex 1.13206141 0.595953744 1.60702447
      vertex 1.13269998 0.596375704 1.60687233
      vertex 1.05096323 0.72203201 1.61231264
    endloop
  endfacet
  facet normal 0.182932721 0.0765585286 0.980139996
    outer loop
      vertex 1.13206141 0.595953744 1.60702447
      vertex 1.05096323 0.72203201 1.61231264
      vertex 1.05032466 0.72161005 1.61246478
    endloop
  endfacet
  facet normal 0.544911649 -0.837708705 -0.036268722
    outer loop
      vertex 1.13202186 0.596014549 1.60502579
      vertex 1.13269998 0.596375704 1.60687233
      vertex 1.13206141 0.595953744 1.60702447
    endloop
  endfacet
  facet normal -0.544911649 0.837708705 0.036268722
    outer loop
      vertex 1.05028511 0.721670855 1.6104661
      vertex 1.05032466 0.72161005 1.61246478
      vertex 1.05096323 0.72203201 1.61231264
    endloop
  endfacet
  facet normal 0.482155784 0.277657141 0.830922566
    outer loop
      vertex 1.13269998 0.596375704 1.60687233
      vertex 1.13323531 0.596742682 1.60643907
      vertex 1.05149856 0.722398988 1.61187938
    endloop
  endfacet
  facet normal 0.482155784 0.277657141 0.830922566
    outer loop
      vertex 1.13269998 0.596375704 1.60687233
      vertex 1.05149856 0.722398988 1.61187938
      vertex 1.05096323 0.72203201 1.61231264
    endloop
  endfacet
  facet normal 0.544911649 -0.837708705 -0.036268722
    outer loop
      vertex 1.13202186 0.596014549 1.60502579
      vertex 1.13323531 0.596742682 1.60643907
      vertex 1.13269998 0.596375704 1.60687233
    endloop
  endfacet
  facet normal -0.544911649 0.837708705 0.036268722
    outer loop
      vertex 1.05028511 0.721670855 1.6104661
      vertex 1.05096323 0.72203201 1.61231264
      vertex 1.05149856 0.722398988 1.61187938
    endloop
  endfacet
  facet normal 0.707975 0.436484971 0.555204709
    outer loop
      vertex 1.13323531 0.596742682 1.60643907
      vertex 1.1335859 0.596998808 1.60579065
      vertex 1.05184915 0.722655114 1.61123096
    endloop
  endfacet
  facet normal 0.707975 0.436484971 0.555204709
    outer loop
      vertex 1.13323531 0.596742682 1.60643907
      vertex 1.05184915 0.722655114 1.61123096
      vertex 1.05149856 0.722398988 1.61187938
    endloop
  endfacet
  facet normal 0.544911649 -0.837708705 -0.036268722
    outer loop
      vertex 1.13202186 0.596014549 1.60502579
      vertex 1.1335859 0.596998808 1.60579065
      vertex 1.13323531 0.596742682 1.60643907
    endloop
  endfacet
  facet normal -0.544911649 0.837708705 0.036268722
    outer loop
      vertex 1.05028511 0.721670855 1.6104661
      vertex 1.05149856 0.722398988 1.61187938
      vertex 1.05184915 0.722655114 1.61123096
    endloop
  endfacet
  facet normal 0.82601144 0.528861921 0.194961967
    outer loop
      vertex 1.1335859 0.596998808 1.60579065
      vertex 1.13369838 0.59710509 1.60502579
      vertex 1.05196163 0.722761396 1.6104661
    endloop
  endfacet
  facet normal 0.82601144 0.528861921 0.194961967
    outer loop
      vertex 1.1335859 0.596998808 1.60579065
      vertex 1.05196163 0.722761396 1.6104661
      vertex 1.05184915 0.722655114 1.61123096
    endloop
  endfacet
  facet normal 0.544911649 -0.837708705 -0.036268722
    outer loop
      vertex 1.13202186 0.596014549 1.60502579
      vertex 1.13369838 0.59710509 1.60502579
      vertex 1.1335859 0.596998808 1.60579065
    endloop
  endfacet
  facet normal -0.544911649 0.837708705 0.036268722
    outer loop
      vertex 1.05028511 0.721670855 1.6104661
      vertex 1.05184915 0.722655114 1.61123096
      vertex 1.05196163 0.722761396 1.6104661
    endloop
  endfacet
  facet normal 0.818295126 0.540724438 -0.194961967
    outer loop
      vertex 1.15013698 0.626892021 1.61140487
      vertex 1.14999423 0.626832277 1.61064
      vertex 1.06825748 0.752488583 1.61608031
    endloop
  endfacet
  facet normal 0.818295126 0.540724438 -0.194961967
    outer loop
      vertex 1.15013698 0.626892021 1.61140487
      vertex 1.06825748 0.752488583 1.61608031
      vertex 1.06840023 0.752548326 1.61684517
    endloop
  endfacet
  facet normal 0.544911649 -0.837708705 -0.036268722
    outer loop
      vertex 1.14846046 0.62580148 1.61140487
      vertex 1.14999423 0.626832277 1.61064
      vertex 1.15013698 0.626892021 1.61140487
    endloop
  endfacet
  facet normal -0.544911649 0.837708705 0.036268722
    outer loop
      vertex 1.06672371 0.751457786 1.61684517
      vertex 1.06840023 0.752548326 1.61684517
      vertex 1.06825748 0.752488583 1.61608031
    endloop
  endfacet
  facet normal 0.686000797 0.47026656 -0.555204709
    outer loop
      vertex 1.14999423 0.626832277 1.61064
      vertex 1.14961797 0.626615604 1.60999158
      vertex 1.06788122 0.75227191 1.61543189
    endloop
  endfacet
  facet normal 0.686000797 0.47026656 -0.555204709
    outer loop
      vertex 1.14999423 0.626832277 1.61064
      vertex 1.06788122 0.75227191 1.61543189
      vertex 1.06825748 0.752488583 1.61608031
    endloop
  endfacet
  facet normal 0.544911649 -0.837708705 -0.036268722
    outer loop
      vertex 1.14846046 0.62580148 1.61140487
      vertex 1.14961797 0.626615604 1.60999158
      vertex 1.14999423 0.626832277 1.61064
    endloop
  endfacet
  facet normal -0.544911649 0.837708705 0.036268722
    outer loop
      vertex 1.06672371 0.751457786 1.61684517
      vertex 1.06825748 0.752488583 1.61608031
      vertex 1.06788122 0.75227191 1.61543189
    endloop
  endfacet
  facet normal 0.449269065 0.328214862 -0.830922566
    outer loop
      vertex 1.14961797 0.626615604 1.60999158
      vertex 1.14906549 0.626274989 1.60955832
      vertex 1.06732875 0.751931294 1.61499863
    endloop
  endfacet
  facet normal 0.449269065 0.328214862 -0.830922566
    outer loop
      vertex 1.14961797 0.626615604 1.60999158
      vertex 1.06732875 0.751931294 1.61499863
      vertex 1.06788122 0.75227191 1.61543189
    endloop
  endfacet
  facet normal 0.544911649 -0.837708705 -0.036268722
    outer loop
      vertex 1.14846046 0.62580148 1.61140487
      vertex 1.14906549 0.626274989 1.60955832
      vertex 1.14961797 0.626615604 1.60999158
    endloop
  endfacet
  facet normal -0.544911649 0.837708705 0.036268722
    outer loop
      vertex 1.06672371 0.751457786 1.61684517
      vertex 1.06788122 0.75227191 1.61543189
      vertex 1.06732875 0.751931294 1.61499863
    endloop
  endfacet
  facet normal 0.144140191 0.136195426 -0.980139996
    outer loop
      vertex 1.14906549 0.626274989 1.60955832
      vertex 1.14842091 0.625862285 1.60940618
      vertex 1.06668416 0.751518591 1.61484649
    endloop
  endfacet
  facet normal 0.144140191 0.136195426 -0.980139996
    outer loop
      vertex 1.14906549 0.626274989 1.60955832
      vertex 1.06668416 0.751518591 1.61484649
      vertex 1.06732875 0.751931294 1.61499863
    endloop
  endfacet
  facet normal 0.544911649 -0.837708705 -0.036268722
    outer loop
      vertex 1.14846046 0.62580148 1.61140487
      vertex 1.14842091 0.625862285 1.60940618
      vertex 1.14906549 0.626274989 1.60955832
    endloop
  endfacet
  facet normal -0.544911649 0.837708705 0.036268722
    outer loop
      vertex 1.06672371 0.751457786 1.61684517
      vertex 1.06732875 0.751931294 1.61499863
      vertex 1.06668416 0.751518591 1.61484649
    endloop
  endfacet
  facet normal -0.182932721 -0.0765585286 -0.980139996
    outer loop
      vertex 1.14842091 0.625862285 1.60940618
      vertex 1.14778234 0.625440325 1.60955832
      vertex 1.06604559 0.75109663 1.61499863
    endloop
  endfacet
  facet normal -0.182932721 -0.0765585286 -0.980139996
    outer loop
      vertex 1.14842091 0.625862285 1.60940618
      vertex 1.06604559 0.75109663 1.61499863
      vertex 1.06668416 0.751518591 1.61484649
    endloop
  endfacet
  facet normal 0.544911649 -0.837708705 -0.036268722
    outer loop
      vertex 1.14846046 0.62580148 1.61140487
      vertex 1.14778234 0.625440325 1.60955832
      vertex 1.14842091 0.625862285 1.60940618
    endloop
  endfacet
  facet normal -0.544911649 0.837708705 0.036268722
    outer loop
      vertex 1.06672371 0.751457786 1.61684517
      vertex 1.06668416 0.751518591 1.61484649
      vertex 1.06604559 0.75109663 1.61499863
    endloop
  endfacet
  facet normal -0.482155784 -0.277657141 -0.830922566
    outer loop
      vertex 1.14778234 0.625440325 1.60955832
      vertex 1.14724701 0.625073347 1.60999158
      vertex 1.06551027 0.750729653 1.61543189
    endloop
  endfacet
  facet normal -0.482155784 -0.277657141 -0.830922566
    outer loop
      vertex 1.14778234 0.625440325 1.60955832
      vertex 1.06551027 0.750729653 1.61543189
      vertex 1.06604559 0.75109663 1.61499863
    endloop
  endfacet
  facet normal 0.544911649 -0.837708705 -0.036268722
    outer loop
      vertex 1.14846046 0.62580148 1.61140487
      vertex 1.14724701 0.625073347 1.60999158
      vertex 1.14778234 0.625440325 1.60955832
    endloop
  endfacet
  facet normal -0.544911649 0.837708705 0.036268722
    outer loop
      vertex 1.06672371 0.751457786 1.61684517
      vertex 1.06604559 0.75109663 1.61499863
      vertex 1.06551027 0.750729653 1.61543189
    endloop
  endfacet
  facet normal -0.707975 -0.436484971 -0.555204709
    outer loop
      vertex 1.14724701 0.625073347 1.60999158
      vertex 1.14689642 0.624817221 1.61064
      vertex 1.06515967 0.750473526 1.61608031
    endloop
  endfacet
  facet normal -0.707975 -0.436484971 -0.555204709
    outer loop
      vertex 1.14724701 0.625073347 1.60999158
      vertex 1.06515967 0.750473526 1.61608031
      vertex 1.06551027 0.750729653 1.61543189
    endloop
  endfacet
  facet normal 0.544911649 -0.837708705 -0.036268722
    outer loop
      vertex 1.14846046 0.62580148 1.61140487
      vertex 1.14689642 0.624817221 1.61064
      vertex 1.14724701 0.625073347 1.60999158
    endloop
  endfacet
  facet normal -0.544911649 0.837708705 0.036268722
    outer loop
      vertex 1.06672371 0.751457786 1.61684517
      vertex 1.06551027 0.750729653 1.61543189
      vertex 1.06515967 0.750473526 1.61608031
    endloop
  endfacet
  facet normal -0.82601144 -0.528861921 -0.194961967
    outer loop
      vertex 1.14689642 0.624817221 1.61064
      vertex 1.14678394 0.624710939 1.61140487
      vertex 1.06504719 0.750367245 1.61684517
    endloop
  endfacet
  facet normal -0.82601144 -0.528861921 -0.194961967
    outer loop
      vertex 1.14689642 0.624817221 1.61064
      vertex 1.06504719 0.750367245 1.61684517
      vertex 1.06515967 0.750473526 1.61608031
    endloop
  endfacet
  facet normal 0.544911649 -0.837708705 -0.036268722
    outer loop
      vertex 1.14846046 0.62580148 1.61140487
      vertex 1.14678394 0.624710939 1.61140487
      vertex 1.14689642 0.624817221 1.61064
    endloop
  endfacet
  facet normal -0.544911649 0.837708705 0.036268722
    outer loop
      vertex 1.06672371 0.751457786 1.61684517
      vertex 1.06515967 0.750473526 1.61608031
      vertex 1.06504719 0.750367245 1.61684517
    endloop
  endfacet
  facet normal -0.818295126 -0.540724438 0.194961967
    outer loop
      vertex 1.14678394 0.624710939 1.61140487
      vertex 1.14692669 0.624770682 1.61216973
      vertex 1.06518995 0.750426988 1.61761004
    endloop
  endfacet
  facet normal -0.818295126 -0.540724438 0.194961967
    outer loop
      vertex 1.14678394 0.624710939 1.61140487
      vertex 1.06518995 0.750426988 1.61761004
      vertex 1.06504719 0.750367245 1.61684517
    endloop
  endfacet
  facet normal 0.544911649 -0.837708705 -0.036268722
    outer loop
      vertex 1.14846046 0.62580148 1.61140487
      vertex 1.14692669 0.624770682 1.61216973
      vertex 1.14678394 0.624710939 1.61140487
    endloop
  endfacet
  facet normal -0.544911649 0.837708705 0.036268722
    outer loop
      vertex 1.06672371 0.751457786 1.61684517
      vertex 1.06504719 0.750367245 1.61684517
      vertex 1.06518995 0.750426988 1.61761004
    endloop
  endfacet
  facet normal -0.686000797 -0.47026656 0.555204709
    outer loop
      vertex 1.14692669 0.624770682 1.61216973
      vertex 1.14730295 0.624987355 1.61281815
      vertex 1.0655662 0.750643661 1.61825846
    endloop
  endfacet
  facet normal -0.686000797 -0.47026656 0.555204709
    outer loop
      vertex 1.14692669 0.624770682 1.61216973
      vertex 1.0655662 0.750643661 1.61825846
      vertex 1.06518995 0.750426988 1.61761004
    endloop
  endfacet
  facet normal 0.544911649 -0.837708705 -0.036268722
    outer loop
      vertex 1.14846046 0.62580148 1.61140487
      vertex 1.14730295 0.624987355 1.61281815
      vertex 1.14692669 0.624770682 1.61216973
    endloop
  endfacet
  facet normal -0.544911649 0.837708705 0.036268722
    outer loop
      vertex 1.06672371 0.751457786 1.61684517
      vertex 1.06518995 0.750426988 1.61761004
      vertex 1.0655662 0.750643661 1.61825846
    endloop
  endfacet
  facet normal -0.449269065 -0.328214862 0.830922566
    outer loop
      vertex 1.14730295 0.624987355 1.61281815
      vertex 1.14785543 0.625327971 1.61325141
      vertex 1.06611868 0.750984277 1.61869172
    endloop
  endfacet
  facet normal -0.449269065 -0.328214862 0.830922566
    outer loop
      vertex 1.14730295 0.624987355 1.61281815
      vertex 1.06611868 0.750984277 1.61869172
      vertex 1.0655662 0.750643661 1.61825846
    endloop
  endfacet
  facet normal 0.544911649 -0.837708705 -0.036268722
    outer loop
      vertex 1.14846046 0.62580148 1.61140487
      vertex 1.14785543 0.625327971 1.61325141
      vertex 1.14730295 0.624987355 1.61281815
    endloop
  endfacet
  facet normal -0.544911649 0.837708705 0.036268722
    outer loop
      vertex 1.06672371 0.751457786 1.61684517
      vertex 1.0655662 0.750643661 1.61825846
      vertex 1.06611868 0.750984277 1.61869172
    endloop
  endfacet
  facet normal -0.144140191 -0.136195426 0.980139996
    outer loop
      vertex 1.14785543 0.625327971 1.61325141
      vertex 1.14850001 0.625740675 1.61340355
      vertex 1.06676327 0.75139698 1.61884386
    endloop
  endfacet
  facet normal -0.144140191 -0.136195426 0.980139996
    outer loop
      vertex 1.14785543 0.625327971 1.61325141
      vertex 1.06676327 0.75139698 1.61884386
      vertex 1.06611868 0.750984277 1.61869172
    endloop
  endfacet
  facet normal 0.544911649 -0.837708705 -0.036268722
    outer loop
      vertex 1.14846046 0.62580148 1.61140487
      vertex 1.14850001 0.625740675 1.61340355
      vertex 1.14785543 0.625327971 1.61325141
    endloop
  endfacet
  facet normal -0.544911649 0.837708705 0.036268722
    outer loop
      vertex 1.06672371 0.751457786 1.61684517
      vertex 1.06611868 0.750984277 1.61869172
      vertex 1.06676327 0.75139698 1.61884386
    endloop
  endfacet
  facet normal 0.182932721 0.0765585286 0.980139996
    outer loop
      vertex 1.14850001 0.625740675 1.61340355
      vertex 1.14913858 0.626162635 1.61325141
      vertex 1.06740183 0.751818941 1.61869172
    endloop
  endfacet
  facet normal 0.182932721 0.0765585286 0.980139996
    outer loop
      vertex 1.14850001 0.625740675 1.61340355
      vertex 1.06740183 0.751818941 1.61869172
      vertex 1.06676327 0.75139698 1.61884386
    endloop
  endfacet
  facet normal 0.544911649 -0.837708705 -0.036268722
    outer loop
      vertex 1.14846046 0.62580148 1.61140487
      vertex 1.14913858 0.626162635 1.61325141
      vertex 1.14850001 0.625740675 1.61340355
    endloop
  endfacet
  facet normal -0.544911649 0.837708705 0.036268722
    outer loop
      vertex 1.06672371 0.751457786 1.61684517
      vertex 1.06676327 0.75139698 1.61884386
      vertex 1.06740183 0.751818941 1.61869172
    endloop
  endfacet
  facet normal 0.482155784 0.277657141 0.830922566
    outer loop
      vertex 1.14913858 0.626162635 1.61325141
      vertex 1.14967391 0.626529613 1.61281815
      vertex 1.06793716 0.752185919 1.61825846
    endloop
  endfacet
  facet normal 0.482155784 0.277657141 0.830922566
    outer loop
      vertex 1.14913858 0.626162635 1.61325141
      vertex 1.06793716 0.752185919 1.61825846
      vertex 1.06740183 0.751818941 1.61869172
    endloop
  endfacet
  facet normal 0.544911649 -0.837708705 -0.036268722
    outer loop
      vertex 1.14846046 0.62580148 1.61140487
      vertex 1.14967391 0.626529613 1.61281815
      vertex 1.14913858 0.626162635 1.61325141
    endloop
  endfacet
  facet normal -0.544911649 0.837708705 0.036268722
    outer loop
      vertex 1.06672371 0.751457786 1.61684517
      vertex 1.06740183 0.751818941 1.61869172
      vertex 1.06793716 0.752185919 1.61825846
    endloop
  endfacet
  facet normal 0.707975 0.436484971 0.555204709
    outer loop
      vertex 1.14967391 0.626529613 1.61281815
      vertex 1.1500245 0.626785739 1.61216973
      vertex 1.06828775 0.752442045 1.61761004
    endloop
  endfacet
  facet normal 0.707975 0.436484971 0.555204709
    outer loop
      vertex 1.14967391 0.626529613 1.61281815
      vertex 1.06828775 0.752442045 1.61761004
      vertex 1.06793716 0.752185919 1.61825846
    endloop
  endfacet
  facet normal 0.544911649 -0.837708705 -0.036268722
    outer loop
      vertex 1.14846046 0.62580148 1.61140487
      vertex 1.1500245 0.626785739 1.61216973
      vertex 1.14967391 0.626529613 1.61281815
    endloop
  endfacet
  facet normal -0.544911649 0.837708705 0.036268722
    outer loop
      vertex 1.06672371 0.751457786 1.61684517
      vertex 1.06793716 0.752185919 1.61825846
      vertex 1.06828775 0.752442045 1.61761004
    endloop
  endfacet
  facet normal 0.82601144 0.528861921 0.194961967
    outer loop
      vertex 1.1500245 0.626785739 1.61216973
      vertex 1.15013698 0.626892021 1.61140487
      vertex 1.06840023 0.752548326 1.61684517
    endloop
  endfacet
  facet normal 0.82601144 0.528861921 0.194961967
    outer loop
      vertex 1.1500245 0.626785739 1.61216973
      vertex 1.06840023 0.752548326 1.61684517
      vertex 1.06828775 0.752442045 1.61761004
    endloop
  endfacet
  facet normal 0.544911649 -0.837708705 -0.036268722
    outer loop
      vertex 1.14846046 0.62580148 1.61140487
      vertex 1.15013698 0.626892021 1.61140487
      vertex 1.1500245 0.626785739 1.61216973
    endloop
  endfacet
  facet normal -0.544911649 0.837708705 0.036268722
    outer loop
      vertex 1.06672371 0.751457786 1.61684517
      vertex 1.06828775 0.752442045 1.61761004
      vertex 1.06840023 0.752548326 1.61684517
    endloop
  endfacet
  facet normal -0.276177596 -0.957384976 -0.0844981806
    outer loop
      vertex 1.2130165 0.891639326 1.71490519
      vertex 1.21234606 0.891861988 1.71457369
      vertex 1.25111878 0.887836798 1.63345357
    endloop
  endfacet
  facet normal -0.276177596 -0.957384976 -0.0844981806
    outer loop
      vertex 1.2130165 0.891639326 1.71490519
      vertex 1.25111878 0.887836798 1.63345357
      vertex 1.25178923 0.887614137 1.63378507
    endloop
  endfacet
  facet normal -0.430808079 0.0447243306 0.90133464
    outer loop
      vertex 1.21322302 0.893628635 1.71490519
      vertex 1.21234606 0.891861988 1.71457369
      vertex 1.2130165 0.891639326 1.71490519
    endloop
  endfacet
  facet normal 0.430808079 -0.0447243306 -0.90133464
    outer loop
      vertex 1.25199575 0.889603445 1.63378507
      vertex 1.25178923 0.887614137 1.63378507
      vertex 1.25111878 0.887836798 1.63345357
    endloop
  endfacet
  facet normal -0.583935431 -0.775316964 -0.24063046
    outer loop
      vertex 1.21234606 0.891861988 1.71457369
      vertex 1.21180912 0.892353605 1.71429266
      vertex 1.25058185 0.888328415 1.63317254
    endloop
  endfacet
  facet normal -0.583935431 -0.775316964 -0.24063046
    outer loop
      vertex 1.21234606 0.891861988 1.71457369
      vertex 1.25058185 0.888328415 1.63317254
      vertex 1.25111878 0.887836798 1.63345357
    endloop
  endfacet
  facet normal -0.430808079 0.0447243306 0.90133464
    outer loop
      vertex 1.21322302 0.893628635 1.71490519
      vertex 1.21180912 0.892353605 1.71429266
      vertex 1.21234606 0.891861988 1.71457369
    endloop
  endfacet
  facet normal 0.430808079 -0.0447243306 -0.90133464
    outer loop
      vertex 1.25199575 0.889603445 1.63378507
      vertex 1.25111878 0.887836798 1.63345357
      vertex 1.25058185 0.888328415 1.63317254
    endloop
  endfacet
  facet normal -0.80279439 -0.475213972 -0.360128933
    outer loop
      vertex 1.21180912 0.892353605 1.71429266
      vertex 1.21148744 0.893039334 1.71410488
      vertex 1.25026017 0.889014144 1.63298477
    endloop
  endfacet
  facet normal -0.80279439 -0.475213972 -0.360128933
    outer loop
      vertex 1.21180912 0.892353605 1.71429266
      vertex 1.25026017 0.889014144 1.63298477
      vertex 1.25058185 0.888328415 1.63317254
    endloop
  endfacet
  facet normal -0.430808079 0.0447243306 0.90133464
    outer loop
      vertex 1.21322302 0.893628635 1.71490519
      vertex 1.21148744 0.893039334 1.71410488
      vertex 1.21180912 0.892353605 1.71429266
    endloop
  endfacet
  facet normal 0.430808079 -0.0447243306 -0.90133464
    outer loop
      vertex 1.25199575 0.889603445 1.63378507
      vertex 1.25058185 0.888328415 1.63317254
      vertex 1.25026017 0.889014144 1.63298477
    endloop
  endfacet
  facet normal -0.899435181 -0.10276396 -0.42480104
    outer loop
      vertex 1.21148744 0.893039334 1.71410488
      vertex 1.21142999 0.893814779 1.71403894
      vertex 1.25020272 0.889789589 1.63291883
    endloop
  endfacet
  facet normal -0.899435181 -0.10276396 -0.42480104
    outer loop
      vertex 1.21148744 0.893039334 1.71410488
      vertex 1.25020272 0.889789589 1.63291883
      vertex 1.25026017 0.889014144 1.63298477
    endloop
  endfacet
  facet normal -0.430808079 0.0447243306 0.90133464
    outer loop
      vertex 1.21322302 0.893628635 1.71490519
      vertex 1.21142999 0.893814779 1.71403894
      vertex 1.21148744 0.893039334 1.71410488
    endloop
  endfacet
  facet normal 0.430808079 -0.0447243306 -0.90133464
    outer loop
      vertex 1.25199575 0.889603445 1.63378507
      vertex 1.25026017 0.889014144 1.63298477
      vertex 1.25020272 0.889789589 1.63291883
    endloop
  endfacet
  facet normal -0.859145119 0.285330933 -0.42480104
    outer loop
      vertex 1.21142999 0.893814779 1.71403894
      vertex 1.21164551 0.894561885 1.71410488
      vertex 1.25041823 0.890536695 1.63298477
    endloop
  endfacet
  facet normal -0.859145119 0.285330933 -0.42480104
    outer loop
      vertex 1.21142999 0.893814779 1.71403894
      vertex 1.25041823 0.890536695 1.63298477
      vertex 1.25020272 0.889789589 1.63291883
    endloop
  endfacet
  facet normal -0.430808079 0.0447243306 0.90133464
    outer loop
      vertex 1.21322302 0.893628635 1.71490519
      vertex 1.21164551 0.894561885 1.71410488
      vertex 1.21142999 0.893814779 1.71403894
    endloop
  endfacet
  facet normal 0.430808079 -0.0447243306 -0.90133464
    outer loop
      vertex 1.25199575 0.889603445 1.63378507
      vertex 1.25020272 0.889789589 1.63291883
      vertex 1.25041823 0.890536695 1.63298477
    endloop
  endfacet
  facet normal -0.688058 0.629986778 -0.360128933
    outer loop
      vertex 1.21164551 0.894561885 1.71410488
      vertex 1.21210119 0.895166912 1.71429266
      vertex 1.25087391 0.891141723 1.63317254
    endloop
  endfacet
  facet normal -0.688058 0.629986778 -0.360128933
    outer loop
      vertex 1.21164551 0.894561885 1.71410488
      vertex 1.25087391 0.891141723 1.63317254
      vertex 1.25041823 0.890536695 1.63298477
    endloop
  endfacet
  facet normal -0.430808079 0.0447243306 0.90133464
    outer loop
      vertex 1.21322302 0.893628635 1.71490519
      vertex 1.21210119 0.895166912 1.71429266
      vertex 1.21164551 0.894561885 1.71410488
    endloop
  endfacet
  facet normal 0.430808079 -0.0447243306 -0.90133464
    outer loop
      vertex 1.25199575 0.889603445 1.63378507
      vertex 1.25041823 0.890536695 1.63298477
      vertex 1.25087391 0.891141723 1.63317254
    endloop
  endfacet
  facet normal -0.412220289 0.878732846 -0.24063046
    outer loop
      vertex 1.21210119 0.895166912 1.71429266
      vertex 1.21272766 0.895537751 1.71457369
      vertex 1.25150038 0.891512561 1.63345357
    endloop
  endfacet
  facet normal -0.412220289 0.878732846 -0.24063046
    outer loop
      vertex 1.21210119 0.895166912 1.71429266
      vertex 1.25150038 0.891512561 1.63345357
      vertex 1.25087391 0.891141723 1.63317254
    endloop
  endfacet
  facet normal -0.430808079 0.0447243306 0.90133464
    outer loop
      vertex 1.21322302 0.893628635 1.71490519
      vertex 1.21272766 0.895537751 1.71457369
      vertex 1.21210119 0.895166912 1.71429266
    endloop
  endfacet
  facet normal 0.430808079 -0.0447243306 -0.90133464
    outer loop
      vertex 1.25199575 0.889603445 1.63378507
      vertex 1.25087391 0.891141723 1.63317254
      vertex 1.25150038 0.891512561 1.63345357
    endloop
  endfacet
  facet normal -0.0736257748 0.993699805 -0.0844981806
    outer loop
      vertex 1.21272766 0.895537751 1.71457369
      vertex 1.21342954 0.895617944 1.71490519
      vertex 1.25220227 0.891592754 1.63378507
    endloop
  endfacet
  facet normal -0.0736257748 0.993699805 -0.0844981806
    outer loop
      vertex 1.21272766 0.895537751 1.71457369
      vertex 1.25220227 0.891592754 1.63378507
      vertex 1.25150038 0.891512561 1.63345357
    endloop
  endfacet
  facet normal -0.430808079 0.0447243306 0.90133464
    outer loop
      vertex 1.21322302 0.893628635 1.71490519
      vertex 1.21342954 0.895617944 1.71490519
      vertex 1.21272766 0.895537751 1.71457369
    endloop
  endfacet
  facet normal 0.430808079 -0.0447243306 -0.90133464
    outer loop
      vertex 1.25199575 0.889603445 1.63378507
      vertex 1.25150038 0.891512561 1.63345357
      vertex 1.25220227 0.891592754 1.63378507
    endloop
  endfacet
  facet normal 0.276177596 0.957384976 0.0844981806
    outer loop
      vertex 1.21342954 0.895617944 1.71490519
      vertex 1.21409998 0.895395283 1.71523669
      vertex 1.25287271 0.891370093 1.63411657
    endloop
  endfacet
  facet normal 0.276177596 0.957384976 0.0844981806
    outer loop
      vertex 1.21342954 0.895617944 1.71490519
      vertex 1.25287271 0.891370093 1.63411657
      vertex 1.25220227 0.891592754 1.63378507
    endloop
  endfacet
  facet normal -0.430808079 0.0447243306 0.90133464
    outer loop
      vertex 1.21322302 0.893628635 1.71490519
      vertex 1.21409998 0.895395283 1.71523669
      vertex 1.21342954 0.895617944 1.71490519
    endloop
  endfacet
  facet normal 0.430808079 -0.0447243306 -0.90133464
    outer loop
      vertex 1.25199575 0.889603445 1.63378507
      vertex 1.25220227 0.891592754 1.63378507
      vertex 1.25287271 0.891370093 1.63411657
    endloop
  endfacet
  facet normal 0.583935431 0.775316964 0.24063046
    outer loop
      vertex 1.21409998 0.895395283 1.71523669
      vertex 1.21463692 0.894903665 1.71551772
      vertex 1.25340965 0.890878476 1.6343976
    endloop
  endfacet
  facet normal 0.583935431 0.775316964 0.24063046
    outer loop
      vertex 1.21409998 0.895395283 1.71523669
      vertex 1.25340965 0.890878476 1.6343976
      vertex 1.25287271 0.891370093 1.63411657
    endloop
  endfacet
  facet normal -0.430808079 0.0447243306 0.90133464
    outer loop
      vertex 1.21322302 0.893628635 1.71490519
      vertex 1.21463692 0.894903665 1.71551772
      vertex 1.21409998 0.895395283 1.71523669
    endloop
  endfacet
  facet normal 0.430808079 -0.0447243306 -0.90133464
    outer loop
      vertex 1.25199575 0.889603445 1.63378507
      vertex 1.25287271 0.891370093 1.63411657
      vertex 1.25340965 0.890878476 1.6343976
    endloop
  endfacet
  facet normal 0.80279439 0.475213972 0.360128933
    outer loop
      vertex 1.21463692 0.894903665 1.71551772
      vertex 1.2149586 0.894217936 1.7157055
      vertex 1.25373133 0.890192747 1.63458538
    endloop
  endfacet
  facet normal 0.80279439 0.475213972 0.360128933
    outer loop
      vertex 1.21463692 0.894903665 1.71551772
      vertex 1.25373133 0.890192747 1.63458538
      vertex 1.25340965 0.890878476 1.6343976
    endloop
  endfacet
  facet normal -0.430808079 0.0447243306 0.90133464
    outer loop
      vertex 1.21322302 0.893628635 1.71490519
      vertex 1.2149586 0.894217936 1.7157055
      vertex 1.21463692 0.894903665 1.71551772
    endloop
  endfacet
  facet normal 0.430808079 -0.0447243306 -0.90133464
    outer loop
      vertex 1.25199575 0.889603445 1.63378507
      vertex 1.25340965 0.890878476 1.6343976
      vertex 1.25373133 0.890192747 1.63458538
    endloop
  endfacet
  facet normal 0.899435181 0.10276396 0.42480104
    outer loop
      vertex 1.2149586 0.894217936 1.7157055
      vertex 1.21501605 0.893442491 1.71577144
      vertex 1.25378878 0.889417302 1.63465132
    endloop
  endfacet
  facet normal 0.899435181 0.10276396 0.42480104
    outer loop
      vertex 1.2149586 0.894217936 1.7157055
      vertex 1.25378878 0.889417302 1.63465132
      vertex 1.25373133 0.890192747 1.63458538
    endloop
  endfacet
  facet normal -0.430808079 0.0447243306 0.90133464
    outer loop
      vertex 1.21322302 0.893628635 1.71490519
      vertex 1.21501605 0.893442491 1.71577144
      vertex 1.2149586 0.894217936 1.7157055
    endloop
  endfacet
  facet normal 0.430808079 -0.0447243306 -0.90133464
    outer loop
      vertex 1.25199575 0.889603445 1.63378507
      vertex 1.25373133 0.890192747 1.63458538
      vertex 1.25378878 0.889417302 1.63465132
    endloop
  endfacet
  facet normal 0.859145119 -0.285330933 0.42480104
    outer loop
      vertex 1.21501605 0.893442491 1.71577144
      vertex 1.21480054 0.892695385 1.7157055
      vertex 1.25357326 0.888670196 1.63458538
    endloop
  endfacet
  facet normal 0.859145119 -0.285330933 0.42480104
    outer loop
      vertex 1.21501605 0.893442491 1.71577144
      vertex 1.25357326 0.888670196 1.63458538
      vertex 1.25378878 0.889417302 1.63465132
    endloop
  endfacet
  facet normal -0.430808079 0.0447243306 0.90133464
    outer loop
      vertex 1.21322302 0.893628635 1.71490519
      vertex 1.21480054 0.892695385 1.7157055
      vertex 1.21501605 0.893442491 1.71577144
    endloop
  endfacet
  facet normal 0.430808079 -0.0447243306 -0.90133464
    outer loop
      vertex 1.25199575 0.889603445 1.63378507
      vertex 1.25378878 0.889417302 1.63465132
      vertex 1.25357326 0.888670196 1.63458538
    endloop
  endfacet
  facet normal 0.688058 -0.629986778 0.360128933
    outer loop
      vertex 1.21480054 0.892695385 1.7157055
      vertex 1.21434485 0.892090358 1.71551772
      vertex 1.25311758 0.888065168 1.6343976
    endloop
  endfacet
  facet normal 0.688058 -0.629986778 0.360128933
    outer loop
      vertex 1.21480054 0.892695385 1.7157055
      vertex 1.25311758 0.888065168 1.6343976
      vertex 1.25357326 0.888670196 1.63458538
    endloop
  endfacet
  facet normal -0.430808079 0.0447243306 0.90133464
    outer loop
      vertex 1.21322302 0.893628635 1.71490519
      vertex 1.21434485 0.892090358 1.71551772
      vertex 1.21480054 0.892695385 1.7157055
    endloop
  endfacet
  facet normal 0.430808079 -0.0447243306 -0.90133464
    outer loop
      vertex 1.25199575 0.889603445 1.63378507
      vertex 1.25357326 0.888670196 1.63458538
      vertex 1.25311758 0.888065168 1.6343976
    endloop
  endfacet
  facet normal 0.412220289 -0.878732846 0.24063046
    outer loop
      vertex 1.21434485 0.892090358 1.71551772
      vertex 1.21371839 0.891719519 1.71523669
      vertex 1.25249111 0.88769433 1.63411657
    endloop
  endfacet
  facet normal 0.412220289 -0.878732846 0.24063046
    outer loop
      vertex 1.21434485 0.892090358 1.71551772
      vertex 1.25249111 0.88769433 1.63411657
      vertex 1.25311758 0.888065168 1.6343976
    endloop
  endfacet
  facet normal -0.430808079 0.0447243306 0.90133464
    outer loop
      vertex 1.21322302 0.893628635 1.71490519
      vertex 1.21371839 0.891719519 1.71523669
      vertex 1.21434485 0.892090358 1.71551772
    endloop
  endfacet
  facet normal 0.430808079 -0.0447243306 -0.90133464
    outer loop
      vertex 1.25199575 0.889603445 1.63378507
      vertex 1.25311758 0.888065168 1.6343976
      vertex 1.25249111 0.88769433 1.63411657
    endloop
  endfacet
  facet normal 0.0736257748 -0.993699805 0.0844981806
    outer loop
      vertex 1.21371839 0.891719519 1.71523669
      vertex 1.2130165 0.891639326 1.71490519
      vertex 1.25178923 0.887614137 1.63378507
    endloop
  endfacet
  facet normal 0.0736257748 -0.993699805 0.0844981806
    outer loop
      vertex 1.21371839 0.891719519 1.71523669
      vertex 1.25178923 0.887614137 1.63378507
      vertex 1.25249111 0.88769433 1.63411657
    endloop
  endfacet
  facet normal -0.430808079 0.0447243306 0.90133464
    outer loop
      vertex 1.21322302 0.893628635 1.71490519
      vertex 1.2130165 0.891639326 1.71490519
      vertex 1.21371839 0.891719519 1.71523669
    endloop
  endfacet
  facet normal 0.430808079 -0.0447243306 -0.90133464
    outer loop
      vertex 1.25199575 0.889603445 1.63378507
      vertex 1.25249111 0.88769433 1.63411657
      vertex 1.25178923 0.887614137 1.63378507
    endloop
  endfacet
  facet normal -0.276177596 -0.957384976 -0.0844981806
    outer loop
      vertex 1.24007506 0.891290712 1.72785558
      vertex 1.23940462 0.891513373 1.72752409
      vertex 1.27817735 0.887488183 1.64640397
    endloop
  endfacet
  facet normal -0.276177596 -0.957384976 -0.0844981806
    outer loop
      vertex 1.24007506 0.891290712 1.72785558
      vertex 1.27817735 0.887488183 1.64640397
      vertex 1.27884779 0.887265522 1.64673547
    endloop
  endfacet
  facet normal -0.430808079 0.0447243306 0.90133464
    outer loop
      vertex 1.24028158 0.89328002 1.72785558
      vertex 1.23940462 0.891513373 1.72752409
      vertex 1.24007506 0.891290712 1.72785558
    endloop
  endfacet
  facet normal 0.430808079 -0.0447243306 -0.90133464
    outer loop
      vertex 1.27905431 0.889254831 1.64673547
      vertex 1.27884779 0.887265522 1.64673547
      vertex 1.27817735 0.887488183 1.64640397
    endloop
  endfacet
  facet normal -0.583935431 -0.775316964 -0.24063046
    outer loop
      vertex 1.23940462 0.891513373 1.72752409
      vertex 1.23886769 0.89200499 1.72724306
      vertex 1.27764041 0.8879798 1.64612294
    endloop
  endfacet
  facet normal -0.583935431 -0.775316964 -0.24063046
    outer loop
      vertex 1.23940462 0.891513373 1.72752409
      vertex 1.27764041 0.8879798 1.64612294
      vertex 1.27817735 0.887488183 1.64640397
    endloop
  endfacet
  facet normal -0.430808079 0.0447243306 0.90133464
    outer loop
      vertex 1.24028158 0.89328002 1.72785558
      vertex 1.23886769 0.89200499 1.72724306
      vertex 1.23940462 0.891513373 1.72752409
    endloop
  endfacet
  facet normal 0.430808079 -0.0447243306 -0.90133464
    outer loop
      vertex 1.27905431 0.889254831 1.64673547
      vertex 1.27817735 0.887488183 1.64640397
      vertex 1.27764041 0.8879798 1.64612294
    endloop
  endfacet
  facet normal -0.80279439 -0.475213972 -0.360128933
    outer loop
      vertex 1.23886769 0.89200499 1.72724306
      vertex 1.238546 0.892690719 1.72705528
      vertex 1.27731873 0.888665529 1.64593516
    endloop
  endfacet
  facet normal -0.80279439 -0.475213972 -0.360128933
    outer loop
      vertex 1.23886769 0.89200499 1.72724306
      vertex 1.27731873 0.888665529 1.64593516
      vertex 1.27764041 0.8879798 1.64612294
    endloop
  endfacet
  facet normal -0.430808079 0.0447243306 0.90133464
    outer loop
      vertex 1.24028158 0.89328002 1.72785558
      vertex 1.238546 0.892690719 1.72705528
      vertex 1.23886769 0.89200499 1.72724306
    endloop
  endfacet
  facet normal 0.430808079 -0.0447243306 -0.90133464
    outer loop
      vertex 1.27905431 0.889254831 1.64673547
      vertex 1.27764041 0.8879798 1.64612294
      vertex 1.27731873 0.888665529 1.64593516
    endloop
  endfacet
  facet normal -0.899435181 -0.10276396 -0.42480104
    outer loop
      vertex 1.238546 0.892690719 1.72705528
      vertex 1.23848855 0.893466164 1.72698934
      vertex 1.27726128 0.889440974 1.64586922
    endloop
  endfacet
  facet normal -0.899435181 -0.10276396 -0.42480104
    outer loop
      vertex 1.238546 0.892690719 1.72705528
      vertex 1.27726128 0.889440974 1.64586922
      vertex 1.27731873 0.888665529 1.64593516
    endloop
  endfacet
  facet normal -0.430808079 0.0447243306 0.90133464
    outer loop
      vertex 1.24028158 0.89328002 1.72785558
      vertex 1.23848855 0.893466164 1.72698934
      vertex 1.238546 0.892690719 1.72705528
    endloop
  endfacet
  facet normal 0.430808079 -0.0447243306 -0.90133464
    outer loop
      vertex 1.27905431 0.889254831 1.64673547
      vertex 1.27731873 0.888665529 1.64593516
      vertex 1.27726128 0.889440974 1.64586922
    endloop
  endfacet
  facet normal -0.859145119 0.285330933 -0.42480104
    outer loop
      vertex 1.23848855 0.893466164 1.72698934
      vertex 1.23870407 0.89421327 1.72705528
      vertex 1.2774768 0.89018808 1.64593516
    endloop
  endfacet
  facet normal -0.859145119 0.285330933 -0.42480104
    outer loop
      vertex 1.23848855 0.893466164 1.72698934
      vertex 1.2774768 0.89018808 1.64593516
      vertex 1.27726128 0.889440974 1.64586922
    endloop
  endfacet
  facet normal -0.430808079 0.0447243306 0.90133464
    outer loop
      vertex 1.24028158 0.89328002 1.72785558
      vertex 1.23870407 0.89421327 1.72705528
      vertex 1.23848855 0.893466164 1.72698934
    endloop
  endfacet
  facet normal 0.430808079 -0.0447243306 -0.90133464
    outer loop
      vertex 1.27905431 0.889254831 1.64673547
      vertex 1.27726128 0.889440974 1.64586922
      vertex 1.2774768 0.89018808 1.64593516
    endloop
  endfacet
  facet normal -0.688058 0.629986778 -0.360128933
    outer loop
      vertex 1.23870407 0.89421327 1.72705528
      vertex 1.23915975 0.894818298 1.72724306
      vertex 1.27793248 0.890793108 1.64612294
    endloop
  endfacet
  facet normal -0.688058 0.629986778 -0.360128933
    outer loop
      vertex 1.23870407 0.89421327 1.72705528
      vertex 1.27793248 0.890793108 1.64612294
      vertex 1.2774768 0.89018808 1.64593516
    endloop
  endfacet
  facet normal -0.430808079 0.0447243306 0.90133464
    outer loop
      vertex 1.24028158 0.89328002 1.72785558
      vertex 1.23915975 0.894818298 1.72724306
      vertex 1.23870407 0.89421327 1.72705528
    endloop
  endfacet
  facet normal 0.430808079 -0.0447243306 -0.90133464
    outer loop
      vertex 1.27905431 0.889254831 1.64673547
      vertex 1.2774768 0.89018808 1.64593516
      vertex 1.27793248 0.890793108 1.64612294
    endloop
  endfacet
  facet normal -0.412220289 0.878732846 -0.24063046
    outer loop
      vertex 1.23915975 0.894818298 1.72724306
      vertex 1.23978622 0.895189136 1.72752409
      vertex 1.27855895 0.891163946 1.64640397
    endloop
  endfacet
  facet normal -0.412220289 0.878732846 -0.24063046
    outer loop
      vertex 1.23915975 0.894818298 1.72724306
      vertex 1.27855895 0.891163946 1.64640397
      vertex 1.27793248 0.890793108 1.64612294
    endloop
  endfacet
  facet normal -0.430808079 0.0447243306 0.90133464
    outer loop
      vertex 1.24028158 0.89328002 1.72785558
      vertex 1.23978622 0.895189136 1.72752409
      vertex 1.23915975 0.894818298 1.72724306
    endloop
  endfacet
  facet normal 0.430808079 -0.0447243306 -0.90133464
    outer loop
      vertex 1.27905431 0.889254831 1.64673547
      vertex 1.27793248 0.890793108 1.64612294
      vertex 1.27855895 0.891163946 1.64640397
    endloop
  endfacet
  facet normal -0.0736257748 0.993699805 -0.0844981806
    outer loop
      vertex 1.23978622 0.895189136 1.72752409
      vertex 1.2404881 0.895269329 1.72785558
      vertex 1.27926083 0.891244139 1.64673547
    endloop
  endfacet
  facet normal -0.0736257748 0.993699805 -0.0844981806
    outer loop
      vertex 1.23978622 0.895189136 1.72752409
      vertex 1.27926083 0.891244139 1.64673547
      vertex 1.27855895 0.891163946 1.64640397
    endloop
  endfacet
  facet normal -0.430808079 0.0447243306 0.90133464
    outer loop
      vertex 1.24028158 0.89328002 1.72785558
      vertex 1.2404881 0.895269329 1.72785558
      vertex 1.23978622 0.895189136 1.72752409
    endloop
  endfacet
  facet normal 0.430808079 -0.0447243306 -0.90133464
    outer loop
      vertex 1.27905431 0.889254831 1.64673547
      vertex 1.27855895 0.891163946 1.64640397
      vertex 1.27926083 0.891244139 1.64673547
    endloop
  endfacet
  facet normal 0.276177596 0.957384976 0.0844981806
    outer loop
      vertex 1.2404881 0.895269329 1.72785558
      vertex 1.24115855 0.895046668 1.72818708
      vertex 1.27993127 0.891021478 1.64706697
    endloop
  endfacet
  facet normal 0.276177596 0.957384976 0.0844981806
    outer loop
      vertex 1.2404881 0.895269329 1.72785558
      vertex 1.27993127 0.891021478 1.64706697
      vertex 1.27926083 0.891244139 1.64673547
    endloop
  endfacet
  facet normal -0.430808079 0.0447243306 0.90133464
    outer loop
      vertex 1.24028158 0.89328002 1.72785558
      vertex 1.24115855 0.895046668 1.72818708
      vertex 1.2404881 0.895269329 1.72785558
    endloop
  endfacet
  facet normal 0.430808079 -0.0447243306 -0.90133464
    outer loop
      vertex 1.27905431 0.889254831 1.64673547
      vertex 1.27926083 0.891244139 1.64673547
      vertex 1.27993127 0.891021478 1.64706697
    endloop
  endfacet
  facet normal 0.583935431 0.775316964 0.24063046
    outer loop
      vertex 1.24115855 0.895046668 1.72818708
      vertex 1.24169548 0.894555051 1.72846811
      vertex 1.28046821 0.890529861 1.647348
    endloop
  endfacet
  facet normal 0.583935431 0.775316964 0.24063046
    outer loop
      vertex 1.24115855 0.895046668 1.72818708
      vertex 1.28046821 0.890529861 1.647348
      vertex 1.27993127 0.891021478 1.64706697
    endloop
  endfacet
  facet normal -0.430808079 0.0447243306 0.90133464
    outer loop
      vertex 1.24028158 0.89328002 1.72785558
      vertex 1.24169548 0.894555051 1.72846811
      vertex 1.24115855 0.895046668 1.72818708
    endloop
  endfacet
  facet normal 0.430808079 -0.0447243306 -0.90133464
    outer loop
      vertex 1.27905431 0.889254831 1.64673547
      vertex 1.27993127 0.891021478 1.64706697
      vertex 1.28046821 0.890529861 1.647348
    endloop
  endfacet
  facet normal 0.80279439 0.475213972 0.360128933
    outer loop
      vertex 1.24169548 0.894555051 1.72846811
      vertex 1.24201716 0.893869322 1.72865589
      vertex 1.28078989 0.889844132 1.64753577
    endloop
  endfacet
  facet normal 0.80279439 0.475213972 0.360128933
    outer loop
      vertex 1.24169548 0.894555051 1.72846811
      vertex 1.28078989 0.889844132 1.64753577
      vertex 1.28046821 0.890529861 1.647348
    endloop
  endfacet
  facet normal -0.430808079 0.0447243306 0.90133464
    outer loop
      vertex 1.24028158 0.89328002 1.72785558
      vertex 1.24201716 0.893869322 1.72865589
      vertex 1.24169548 0.894555051 1.72846811
    endloop
  endfacet
  facet normal 0.430808079 -0.0447243306 -0.90133464
    outer loop
      vertex 1.27905431 0.889254831 1.64673547
      vertex 1.28046821 0.890529861 1.647348
      vertex 1.28078989 0.889844132 1.64753577
    endloop
  endfacet
  facet normal 0.899435181 0.10276396 0.42480104
    outer loop
      vertex 1.24201716 0.893869322 1.72865589
      vertex 1.24207462 0.893093877 1.72872183
      vertex 1.28084734 0.889068687 1.64760171
    endloop
  endfacet
  facet normal 0.899435181 0.10276396 0.42480104
    outer loop
      vertex 1.24201716 0.893869322 1.72865589
      vertex 1.28084734 0.889068687 1.64760171
      vertex 1.28078989 0.889844132 1.64753577
    endloop
  endfacet
  facet normal -0.430808079 0.0447243306 0.90133464
    outer loop
      vertex 1.24028158 0.89328002 1.72785558
      vertex 1.24207462 0.893093877 1.72872183
      vertex 1.24201716 0.893869322 1.72865589
    endloop
  endfacet
  facet normal 0.430808079 -0.0447243306 -0.90133464
    outer loop
      vertex 1.27905431 0.889254831 1.64673547
      vertex 1.28078989 0.889844132 1.64753577
      vertex 1.28084734 0.889068687 1.64760171
    endloop
  endfacet
  facet normal 0.859145119 -0.285330933 0.42480104
    outer loop
      vertex 1.24207462 0.893093877 1.72872183
      vertex 1.2418591 0.892346771 1.72865589
      vertex 1.28063182 0.888321581 1.64753577
    endloop
  endfacet
  facet normal 0.859145119 -0.285330933 0.42480104
    outer loop
      vertex 1.24207462 0.893093877 1.72872183
      vertex 1.28063182 0.888321581 1.64753577
      vertex 1.28084734 0.889068687 1.64760171
    endloop
  endfacet
  facet normal -0.430808079 0.0447243306 0.90133464
    outer loop
      vertex 1.24028158 0.89328002 1.72785558
      vertex 1.2418591 0.892346771 1.72865589
      vertex 1.24207462 0.893093877 1.72872183
    endloop
  endfacet
  facet normal 0.430808079 -0.0447243306 -0.90133464
    outer loop
      vertex 1.27905431 0.889254831 1.64673547
      vertex 1.28084734 0.889068687 1.64760171
      vertex 1.28063182 0.888321581 1.64753577
    endloop
  endfacet
  facet normal 0.688058 -0.629986778 0.360128933
    outer loop
      vertex 1.2418591 0.892346771 1.72865589
      vertex 1.24140342 0.891741743 1.72846811
      vertex 1.28017614 0.887716553 1.647348
    endloop
  endfacet
  facet normal 0.688058 -0.629986778 0.360128933
    outer loop
      vertex 1.2418591 0.892346771 1.72865589
      vertex 1.28017614 0.887716553 1.647348
      vertex 1.28063182 0.888321581 1.64753577
    endloop
  endfacet
  facet normal -0.430808079 0.0447243306 0.90133464
    outer loop
      vertex 1.24028158 0.89328002 1.72785558
      vertex 1.24140342 0.891741743 1.72846811
      vertex 1.2418591 0.892346771 1.72865589
    endloop
  endfacet
  facet normal 0.430808079 -0.0447243306 -0.90133464
    outer loop
      vertex 1.27905431 0.889254831 1.64673547
      vertex 1.28063182 0.888321581 1.64753577
      vertex 1.28017614 0.887716553 1.647348
    endloop
  endfacet
  facet normal 0.412220289 -0.878732846 0.24063046
    outer loop
      vertex 1.24140342 0.891741743 1.72846811
      vertex 1.24077695 0.891370905 1.72818708
      vertex 1.27954967 0.887345715 1.64706697
    endloop
  endfacet
  facet normal 0.412220289 -0.878732846 0.24063046
    outer loop
      vertex 1.24140342 0.891741743 1.72846811
      vertex 1.27954967 0.887345715 1.64706697
      vertex 1.28017614 0.887716553 1.647348
    endloop
  endfacet
  facet normal -0.430808079 0.0447243306 0.90133464
    outer loop
      vertex 1.24028158 0.89328002 1.72785558
      vertex 1.24077695 0.891370905 1.72818708
      vertex 1.24140342 0.891741743 1.72846811
    endloop
  endfacet
  facet normal 0.430808079 -0.0447243306 -0.90133464
    outer loop
      vertex 1.27905431 0.889254831 1.64673547
      vertex 1.28017614 0.887716553 1.647348
      vertex 1.27954967 0.887345715 1.64706697
    endloop
  endfacet
  facet normal 0.0736257748 -0.993699805 0.0844981806
    outer loop
      vertex 1.24077695 0.891370905 1.72818708
      vertex 1.24007506 0.891290712 1.72785558
      vertex 1.27884779 0.887265522 1.64673547
    endloop
  endfacet
  facet normal 0.0736257748 -0.993699805 0.0844981806
    outer loop
      vertex 1.24077695 0.891370905 1.72818708
      vertex 1.27884779 0.887265522 1.64673547
      vertex 1.27954967 0.887345715 1.64706697
    endloop
  endfacet
  facet normal -0.430808079 0.0447243306 0.90133464
    outer loop
      vertex 1.24028158 0.89328002 1.72785558
      vertex 1.24007506 0.891290712 1.72785558
      vertex 1.24077695 0.891370905 1.72818708
    endloop
  endfacet
  facet normal 0.430808079 -0.0447243306 -0.90133464
    outer loop
      vertex 1.27905431 0.889254831 1.64673547
      vertex 1.27954967 0.887345715 1.64706697
      vertex 1.27884779 0.887265522 1.64673547
    endloop
  endfacet
endsolid g19_features
