solid d30_blank
  facet normal -0.203181367 -0.186548922 0.961205926
    outer loop
      vertex 2.31653842 3.21902185 2.33170775
      vertex 2.26315975 3.24573361 2.32560864
      vertex 1.74449099 2.13501297 2.0004051
    endloop
  endfacet
  facet normal -0.203181367 -0.186548922 0.961205926
    outer loop
      vertex 2.31653842 3.21902185 2.33170775
      vertex 1.74449099 2.13501297 2.0004051
      vertex 1.79786966 2.10830121 2.00650421
    endloop
  endfacet
  facet normal 0.889644552 -0.445195992 0.101651854
    outer loop
      vertex 2.31653842 3.21902185 2.33170775
      vertex 1.79786966 2.10830121 2.00650421
      vertex 1.81412417 2.12322512 1.92960774
    endloop
  endfacet
  facet normal 0.889644552 -0.445195992 0.101651854
    outer loop
      vertex 2.31653842 3.21902185 2.33170775
      vertex 1.81412417 2.12322512 1.92960774
      vertex 2.33279293 3.23394577 2.25481127
    endloop
  endfacet
  facet normal -0.408961982 -0.875785378 -0.256417763
    outer loop
      vertex 1.79786966 2.10830121 2.00650421
      vertex 1.74449099 2.13501297 2.0004051
      vertex 1.7607455 2.14993688 1.92350863
    endloop
  endfacet
  facet normal -0.408961982 -0.875785378 -0.256417763
    outer loop
      vertex 1.79786966 2.10830121 2.00650421
      vertex 1.7607455 2.14993688 1.92350863
      vertex 1.81412417 2.12322512 1.92960774
    endloop
  endfacet
  facet normal -0.889644552 0.445195992 -0.101651854
    outer loop
      vertex 1.74449099 2.13501297 2.0004051
      vertex 2.26315975 3.24573361 2.32560864
      vertex 2.27941426 3.26065753 2.24871216
    endloop
  endfacet
  facet normal -0.889644552 0.445195992 -0.101651854
    outer loop
      vertex 1.74449099 2.13501297 2.0004051
      vertex 2.27941426 3.26065753 2.24871216
      vertex 1.7607455 2.14993688 1.92350863
    endloop
  endfacet
  facet normal 0.408961982 0.875785378 0.256417763
    outer loop
      vertex 2.26315975 3.24573361 2.32560864
      vertex 2.31653842 3.21902185 2.33170775
      vertex 2.33279293 3.23394577 2.25481127
    endloop
  endfacet
  facet normal 0.408961982 0.875785378 0.256417763
    outer loop
      vertex 2.26315975 3.24573361 2.32560864
      vertex 2.33279293 3.23394577 2.25481127
      vertex 2.27941426 3.26065753 2.24871216
    endloop
  endfacet
  facet normal 0.203181367 0.186548922 -0.961205926
    outer loop
      vertex 2.33279293 3.23394577 2.25481127
      vertex 1.81412417 2.12322512 1.92960774
      vertex 1.7607455 2.14993688 1.92350863
    endloop
  endfacet
  facet normal 0.203181367 0.186548922 -0.961205926
    outer loop
      vertex 2.33279293 3.23394577 2.25481127
      vertex 1.7607455 2.14993688 1.92350863
      vertex 2.27941426 3.26065753 2.24871216
    endloop
  endfacet
endsolid d30_blank
