solid a28_features
  facet normal -0.197773754 -0.973708036 -0.113040713
    outer loop
      vertex 4.00832398 2.16498696 1.64008613
      vertex 4.00934374 2.16486221 1.63937657
      vertex 4.06897011 2.14234321 1.72902918
    endloop
  endfacet
  facet normal -0.197773754 -0.973708036 -0.113040713
    outer loop
      vertex 4.00832398 2.16498696 1.64008613
      vertex 4.06897011 2.14234321 1.72902918
      vertex 4.06795035 2.14246797 1.72973874
    endloop
  endfacet
  facet normal -0.542057931 0.204718137 -0.815023732
    outer loop
      vertex 4.00945458 2.16798058 1.64008613
      vertex 4.00934374 2.16486221 1.63937657
      vertex 4.00832398 2.16498696 1.64008613
    endloop
  endfacet
  facet normal 0.542057931 -0.204718137 0.815023732
    outer loop
      vertex 4.06908095 2.14546158 1.72973874
      vertex 4.06795035 2.14246797 1.72973874
      vertex 4.06897011 2.14234321 1.72902918
    endloop
  endfacet
  facet normal 0.129832458 -0.937825004 -0.321912714
    outer loop
      vertex 4.00934374 2.16486221 1.63937657
      vertex 4.01038037 2.1652122 1.63877503
      vertex 4.07000675 2.1426932 1.72842764
    endloop
  endfacet
  facet normal 0.129832458 -0.937825004 -0.321912714
    outer loop
      vertex 4.00934374 2.16486221 1.63937657
      vertex 4.07000675 2.1426932 1.72842764
      vertex 4.06897011 2.14234321 1.72902918
    endloop
  endfacet
  facet normal -0.542057931 0.204718137 -0.815023732
    outer loop
      vertex 4.00945458 2.16798058 1.64008613
      vertex 4.01038037 2.1652122 1.63877503
      vertex 4.00934374 2.16486221 1.63937657
    endloop
  endfacet
  facet normal 0.542057931 -0.204718137 0.815023732
    outer loop
      vertex 4.06908095 2.14546158 1.72973874
      vertex 4.06897011 2.14234321 1.72902918
      vertex 4.07000675 2.1426932 1.72842764
    endloop
  endfacet
  facet normal 0.437672855 -0.759166616 -0.481776423
    outer loop
      vertex 4.01038037 2.1652122 1.63877503
      vertex 4.01127606 2.16598365 1.6383731
      vertex 4.07090243 2.14346466 1.72802571
    endloop
  endfacet
  facet normal 0.437672855 -0.759166616 -0.481776423
    outer loop
      vertex 4.01038037 2.1652122 1.63877503
      vertex 4.07090243 2.14346466 1.72802571
      vertex 4.07000675 2.1426932 1.72842764
    endloop
  endfacet
  facet normal -0.542057931 0.204718137 -0.815023732
    outer loop
      vertex 4.00945458 2.16798058 1.64008613
      vertex 4.01127606 2.16598365 1.6383731
      vertex 4.01038037 2.1652122 1.63877503
    endloop
  endfacet
  facet normal 0.542057931 -0.204718137 0.815023732
    outer loop
      vertex 4.06908095 2.14546158 1.72973874
      vertex 4.07000675 2.1426932 1.72842764
      vertex 4.07090243 2.14346466 1.72802571
    endloop
  endfacet
  facet normal 0.678881527 -0.464931992 -0.568294038
    outer loop
      vertex 4.01127606 2.16598365 1.6383731
      vertex 4.01189445 2.16705912 1.63823196
      vertex 4.07152082 2.14454012 1.72788457
    endloop
  endfacet
  facet normal 0.678881527 -0.464931992 -0.568294038
    outer loop
      vertex 4.01127606 2.16598365 1.6383731
      vertex 4.07152082 2.14454012 1.72788457
      vertex 4.07090243 2.14346466 1.72802571
    endloop
  endfacet
  facet normal -0.542057931 0.204718137 -0.815023732
    outer loop
      vertex 4.00945458 2.16798058 1.64008613
      vertex 4.01189445 2.16705912 1.63823196
      vertex 4.01127606 2.16598365 1.6383731
    endloop
  endfacet
  facet normal 0.542057931 -0.204718137 0.815023732
    outer loop
      vertex 4.06908095 2.14546158 1.72973874
      vertex 4.07090243 2.14346466 1.72802571
      vertex 4.07152082 2.14454012 1.72788457
    endloop
  endfacet
  facet normal 0.816736641 -0.0999156879 -0.568294038
    outer loop
      vertex 4.01189445 2.16705912 1.63823196
      vertex 4.01214138 2.16827487 1.6383731
      vertex 4.07176775 2.14575587 1.72802571
    endloop
  endfacet
  facet normal 0.816736641 -0.0999156879 -0.568294038
    outer loop
      vertex 4.01189445 2.16705912 1.63823196
      vertex 4.07176775 2.14575587 1.72802571
      vertex 4.07152082 2.14454012 1.72788457
    endloop
  endfacet
  facet normal -0.542057931 0.204718137 -0.815023732
    outer loop
      vertex 4.00945458 2.16798058 1.64008613
      vertex 4.01214138 2.16827487 1.6383731
      vertex 4.01189445 2.16705912 1.63823196
    endloop
  endfacet
  facet normal 0.542057931 -0.204718137 0.815023732
    outer loop
      vertex 4.06908095 2.14546158 1.72973874
      vertex 4.07152082 2.14454012 1.72788457
      vertex 4.07176775 2.14575587 1.72802571
    endloop
  endfacet
  facet normal 0.830251005 0.280311874 -0.481776423
    outer loop
      vertex 4.01214138 2.16827487 1.6383731
      vertex 4.01197928 2.16944582 1.63877503
      vertex 4.07160565 2.14692682 1.72842764
    endloop
  endfacet
  facet normal 0.830251005 0.280311874 -0.481776423
    outer loop
      vertex 4.01214138 2.16827487 1.6383731
      vertex 4.07160565 2.14692682 1.72842764
      vertex 4.07176775 2.14575587 1.72802571
    endloop
  endfacet
  facet normal -0.542057931 0.204718137 -0.815023732
    outer loop
      vertex 4.00945458 2.16798058 1.64008613
      vertex 4.01197928 2.16944582 1.63877503
      vertex 4.01214138 2.16827487 1.6383731
    endloop
  endfacet
  facet normal 0.542057931 -0.204718137 0.815023732
    outer loop
      vertex 4.06908095 2.14546158 1.72973874
      vertex 4.07176775 2.14575587 1.72802571
      vertex 4.07160565 2.14692682 1.72842764
    endloop
  endfacet
  facet normal 0.71736718 0.617864495 -0.321912714
    outer loop
      vertex 4.01197928 2.16944582 1.63877503
      vertex 4.01143281 2.17039369 1.63937657
      vertex 4.07105918 2.1478747 1.72902918
    endloop
  endfacet
  facet normal 0.71736718 0.617864495 -0.321912714
    outer loop
      vertex 4.01197928 2.16944582 1.63877503
      vertex 4.07105918 2.1478747 1.72902918
      vertex 4.07160565 2.14692682 1.72842764
    endloop
  endfacet
  facet normal -0.542057931 0.204718137 -0.815023732
    outer loop
      vertex 4.00945458 2.16798058 1.64008613
      vertex 4.01143281 2.17039369 1.63937657
      vertex 4.01197928 2.16944582 1.63877503
    endloop
  endfacet
  facet normal 0.542057931 -0.204718137 0.815023732
    outer loop
      vertex 4.06908095 2.14546158 1.72973874
      vertex 4.07160565 2.14692682 1.72842764
      vertex 4.07105918 2.1478747 1.72902918
    endloop
  endfacet
  facet normal 0.495270704 0.861352847 -0.113040713
    outer loop
      vertex 4.01143281 2.17039369 1.63937657
      vertex 4.01058517 2.1709742 1.64008613
      vertex 4.07021154 2.1484552 1.72973874
    endloop
  endfacet
  facet normal 0.495270704 0.861352847 -0.113040713
    outer loop
      vertex 4.01143281 2.17039369 1.63937657
      vertex 4.07021154 2.1484552 1.72973874
      vertex 4.07105918 2.1478747 1.72902918
    endloop
  endfacet
  facet normal -0.542057931 0.204718137 -0.815023732
    outer loop
      vertex 4.00945458 2.16798058 1.64008613
      vertex 4.01058517 2.1709742 1.64008613
      vertex 4.01143281 2.17039369 1.63937657
    endloop
  endfacet
  facet normal 0.542057931 -0.204718137 0.815023732
    outer loop
      vertex 4.06908095 2.14546158 1.72973874
      vertex 4.07105918 2.1478747 1.72902918
      vertex 4.07021154 2.1484552 1.72973874
    endloop
  endfacet
  facet normal 0.197773754 0.973708036 0.113040713
    outer loop
      vertex 4.01058517 2.1709742 1.64008613
      vertex 4.00956541 2.17109895 1.64079569
      vertex 4.06919178 2.14857996 1.7304483
    endloop
  endfacet
  facet normal 0.197773754 0.973708036 0.113040713
    outer loop
      vertex 4.01058517 2.1709742 1.64008613
      vertex 4.06919178 2.14857996 1.7304483
      vertex 4.07021154 2.1484552 1.72973874
    endloop
  endfacet
  facet normal -0.542057931 0.204718137 -0.815023732
    outer loop
      vertex 4.00945458 2.16798058 1.64008613
      vertex 4.00956541 2.17109895 1.64079569
      vertex 4.01058517 2.1709742 1.64008613
    endloop
  endfacet
  facet normal 0.542057931 -0.204718137 0.815023732
    outer loop
      vertex 4.06908095 2.14546158 1.72973874
      vertex 4.07021154 2.1484552 1.72973874
      vertex 4.06919178 2.14857996 1.7304483
    endloop
  endfacet
  facet normal -0.129832458 0.937825004 0.321912714
    outer loop
      vertex 4.00956541 2.17109895 1.64079569
      vertex 4.00852878 2.17074896 1.64139722
      vertex 4.06815515 2.14822996 1.73104983
    endloop
  endfacet
  facet normal -0.129832458 0.937825004 0.321912714
    outer loop
      vertex 4.00956541 2.17109895 1.64079569
      vertex 4.06815515 2.14822996 1.73104983
      vertex 4.06919178 2.14857996 1.7304483
    endloop
  endfacet
  facet normal -0.542057931 0.204718137 -0.815023732
    outer loop
      vertex 4.00945458 2.16798058 1.64008613
      vertex 4.00852878 2.17074896 1.64139722
      vertex 4.00956541 2.17109895 1.64079569
    endloop
  endfacet
  facet normal 0.542057931 -0.204718137 0.815023732
    outer loop
      vertex 4.06908095 2.14546158 1.72973874
      vertex 4.06919178 2.14857996 1.7304483
      vertex 4.06815515 2.14822996 1.73104983
    endloop
  endfacet
  facet normal -0.437672855 0.759166616 0.481776423
    outer loop
      vertex 4.00852878 2.17074896 1.64139722
      vertex 4.00763309 2.16997751 1.64179916
      vertex 4.06725946 2.14745851 1.73145177
    endloop
  endfacet
  facet normal -0.437672855 0.759166616 0.481776423
    outer loop
      vertex 4.00852878 2.17074896 1.64139722
      vertex 4.06725946 2.14745851 1.73145177
      vertex 4.06815515 2.14822996 1.73104983
    endloop
  endfacet
  facet normal -0.542057931 0.204718137 -0.815023732
    outer loop
      vertex 4.00945458 2.16798058 1.64008613
      vertex 4.00763309 2.16997751 1.64179916
      vertex 4.00852878 2.17074896 1.64139722
    endloop
  endfacet
  facet normal 0.542057931 -0.204718137 0.815023732
    outer loop
      vertex 4.06908095 2.14546158 1.72973874
      vertex 4.06815515 2.14822996 1.73104983
      vertex 4.06725946 2.14745851 1.73145177
    endloop
  endfacet
  facet normal -0.678881527 0.464931992 0.568294038
    outer loop
      vertex 4.00763309 2.16997751 1.64179916
      vertex 4.0070147 2.16890204 1.6419403
      vertex 4.06664108 2.14638305 1.73159291
    endloop
  endfacet
  facet normal -0.678881527 0.464931992 0.568294038
    outer loop
      vertex 4.00763309 2.16997751 1.64179916
      vertex 4.06664108 2.14638305 1.73159291
      vertex 4.06725946 2.14745851 1.73145177
    endloop
  endfacet
  facet normal -0.542057931 0.204718137 -0.815023732
    outer loop
      vertex 4.00945458 2.16798058 1.64008613
      vertex 4.0070147 2.16890204 1.6419403
      vertex 4.00763309 2.16997751 1.64179916
    endloop
  endfacet
  facet normal 0.542057931 -0.204718137 0.815023732
    outer loop
      vertex 4.06908095 2.14546158 1.72973874
      vertex 4.06725946 2.14745851 1.73145177
      vertex 4.06664108 2.14638305 1.73159291
    endloop
  endfacet
  facet normal -0.816736641 0.0999156879 0.568294038
    outer loop
      vertex 4.0070147 2.16890204 1.6419403
      vertex 4.00676777 2.16768629 1.64179916
      vertex 4.06639414 2.1451673 1.73145177
    endloop
  endfacet
  facet normal -0.816736641 0.0999156879 0.568294038
    outer loop
      vertex 4.0070147 2.16890204 1.6419403
      vertex 4.06639414 2.1451673 1.73145177
      vertex 4.06664108 2.14638305 1.73159291
    endloop
  endfacet
  facet normal -0.542057931 0.204718137 -0.815023732
    outer loop
      vertex 4.00945458 2.16798058 1.64008613
      vertex 4.00676777 2.16768629 1.64179916
      vertex 4.0070147 2.16890204 1.6419403
    endloop
  endfacet
  facet normal 0.542057931 -0.204718137 0.815023732
    outer loop
      vertex 4.06908095 2.14546158 1.72973874
      vertex 4.06664108 2.14638305 1.73159291
      vertex 4.06639414 2.1451673 1.73145177
    endloop
  endfacet
  facet normal -0.830251005 -0.280311874 0.481776423
    outer loop
      vertex 4.00676777 2.16768629 1.64179916
      vertex 4.00692987 2.16651534 1.64139722
      vertex 4.06655625 2.14399635 1.73104983
    endloop
  endfacet
  facet normal -0.830251005 -0.280311874 0.481776423
    outer loop
      vertex 4.00676777 2.16768629 1.64179916
      vertex 4.06655625 2.14399635 1.73104983
      vertex 4.06639414 2.1451673 1.73145177
    endloop
  endfacet
  facet normal -0.542057931 0.204718137 -0.815023732
    outer loop
      vertex 4.00945458 2.16798058 1.64008613
      vertex 4.00692987 2.16651534 1.64139722
      vertex 4.00676777 2.16768629 1.64179916
    endloop
  endfacet
  facet normal 0.542057931 -0.204718137 0.815023732
    outer loop
      vertex 4.06908095 2.14546158 1.72973874
      vertex 4.06639414 2.1451673 1.73145177
      vertex 4.06655625 2.14399635 1.73104983
    endloop
  endfacet
  facet normal -0.71736718 -0.617864495 0.321912714
    outer loop
      vertex 4.00692987 2.16651534 1.64139722
      vertex 4.00747634 2.16556746 1.64079569
      vertex 4.06710272 2.14304847 1.7304483
    endloop
  endfacet
  facet normal -0.71736718 -0.617864495 0.321912714
    outer loop
      vertex 4.00692987 2.16651534 1.64139722
      vertex 4.06710272 2.14304847 1.7304483
      vertex 4.06655625 2.14399635 1.73104983
    endloop
  endfacet
  facet normal -0.542057931 0.204718137 -0.815023732
    outer loop
      vertex 4.00945458 2.16798058 1.64008613
      vertex 4.00747634 2.16556746 1.64079569
      vertex 4.00692987 2.16651534 1.64139722
    endloop
  endfacet
  facet normal 0.542057931 -0.204718137 0.815023732
    outer loop
      vertex 4.06908095 2.14546158 1.72973874
      vertex 4.06655625 2.14399635 1.73104983
      vertex 4.06710272 2.14304847 1.7304483
    endloop
  endfacet
  facet normal -0.495270704 -0.861352847 0.113040713
    outer loop
      vertex 4.00747634 2.16556746 1.64079569
      vertex 4.00832398 2.16498696 1.64008613
      vertex 4.06795035 2.14246797 1.72973874
    endloop
  endfacet
  facet normal -0.495270704 -0.861352847 0.113040713
    outer loop
      vertex 4.00747634 2.16556746 1.64079569
      vertex 4.06795035 2.14246797 1.72973874
      vertex 4.06710272 2.14304847 1.7304483
    endloop
  endfacet
  facet normal -0.542057931 0.204718137 -0.815023732
    outer loop
      vertex 4.00945458 2.16798058 1.64008613
      vertex 4.00832398 2.16498696 1.64008613
      vertex 4.00747634 2.16556746 1.64079569
    endloop
  endfacet
  facet normal 0.542057931 -0.204718137 0.815023732
    outer loop
      vertex 4.06908095 2.14546158 1.72973874
      vertex 4.06710272 2.14304847 1.7304483
      vertex 4.06795035 2.14246797 1.72973874
    endloop
  endfacet
  facet normal -0.197773754 -0.973708036 -0.113040713
    outer loop
      vertex 4.00327857 2.19270164 1.65040313
      vertex 4.00429833 2.19257689 1.64969357
      vertex 4.0639247 2.17005789 1.73934618
    endloop
  endfacet
  facet normal -0.197773754 -0.973708036 -0.113040713
    outer loop
      vertex 4.00327857 2.19270164 1.65040313
      vertex 4.0639247 2.17005789 1.73934618
      vertex 4.06290495 2.17018264 1.74005574
    endloop
  endfacet
  facet normal -0.542057931 0.204718137 -0.815023732
    outer loop
      vertex 4.00440917 2.19569526 1.65040313
      vertex 4.00429833 2.19257689 1.64969357
      vertex 4.00327857 2.19270164 1.65040313
    endloop
  endfacet
  facet normal 0.542057931 -0.204718137 0.815023732
    outer loop
      vertex 4.06403554 2.17317626 1.74005574
      vertex 4.06290495 2.17018264 1.74005574
      vertex 4.0639247 2.17005789 1.73934618
    endloop
  endfacet
  facet normal 0.129832458 -0.937825004 -0.321912714
    outer loop
      vertex 4.00429833 2.19257689 1.64969357
      vertex 4.00533497 2.19292688 1.64909203
      vertex 4.06496134 2.17040788 1.73874464
    endloop
  endfacet
  facet normal 0.129832458 -0.937825004 -0.321912714
    outer loop
      vertex 4.00429833 2.19257689 1.64969357
      vertex 4.06496134 2.17040788 1.73874464
      vertex 4.0639247 2.17005789 1.73934618
    endloop
  endfacet
  facet normal -0.542057931 0.204718137 -0.815023732
    outer loop
      vertex 4.00440917 2.19569526 1.65040313
      vertex 4.00533497 2.19292688 1.64909203
      vertex 4.00429833 2.19257689 1.64969357
    endloop
  endfacet
  facet normal 0.542057931 -0.204718137 0.815023732
    outer loop
      vertex 4.06403554 2.17317626 1.74005574
      vertex 4.0639247 2.17005789 1.73934618
      vertex 4.06496134 2.17040788 1.73874464
    endloop
  endfacet
  facet normal 0.437672855 -0.759166616 -0.481776423
    outer loop
      vertex 4.00533497 2.19292688 1.64909203
      vertex 4.00623065 2.19369833 1.6486901
      vertex 4.06585703 2.17117933 1.73834271
    endloop
  endfacet
  facet normal 0.437672855 -0.759166616 -0.481776423
    outer loop
      vertex 4.00533497 2.19292688 1.64909203
      vertex 4.06585703 2.17117933 1.73834271
      vertex 4.06496134 2.17040788 1.73874464
    endloop
  endfacet
  facet normal -0.542057931 0.204718137 -0.815023732
    outer loop
      vertex 4.00440917 2.19569526 1.65040313
      vertex 4.00623065 2.19369833 1.6486901
      vertex 4.00533497 2.19292688 1.64909203
    endloop
  endfacet
  facet normal 0.542057931 -0.204718137 0.815023732
    outer loop
      vertex 4.06403554 2.17317626 1.74005574
      vertex 4.06496134 2.17040788 1.73874464
      vertex 4.06585703 2.17117933 1.73834271
    endloop
  endfacet
  facet normal 0.678881527 -0.464931992 -0.568294038
    outer loop
      vertex 4.00623065 2.19369833 1.6486901
      vertex 4.00684904 2.1947738 1.64854896
      vertex 4.06647541 2.1722548 1.73820157
    endloop
  endfacet
  facet normal 0.678881527 -0.464931992 -0.568294038
    outer loop
      vertex 4.00623065 2.19369833 1.6486901
      vertex 4.06647541 2.1722548 1.73820157
      vertex 4.06585703 2.17117933 1.73834271
    endloop
  endfacet
  facet normal -0.542057931 0.204718137 -0.815023732
    outer loop
      vertex 4.00440917 2.19569526 1.65040313
      vertex 4.00684904 2.1947738 1.64854896
      vertex 4.00623065 2.19369833 1.6486901
    endloop
  endfacet
  facet normal 0.542057931 -0.204718137 0.815023732
    outer loop
      vertex 4.06403554 2.17317626 1.74005574
      vertex 4.06585703 2.17117933 1.73834271
      vertex 4.06647541 2.1722548 1.73820157
    endloop
  endfacet
  facet normal 0.816736641 -0.0999156879 -0.568294038
    outer loop
      vertex 4.00684904 2.1947738 1.64854896
      vertex 4.00709597 2.19598955 1.6486901
      vertex 4.06672235 2.17347055 1.73834271
    endloop
  endfacet
  facet normal 0.816736641 -0.0999156879 -0.568294038
    outer loop
      vertex 4.00684904 2.1947738 1.64854896
      vertex 4.06672235 2.17347055 1.73834271
      vertex 4.06647541 2.1722548 1.73820157
    endloop
  endfacet
  facet normal -0.542057931 0.204718137 -0.815023732
    outer loop
      vertex 4.00440917 2.19569526 1.65040313
      vertex 4.00709597 2.19598955 1.6486901
      vertex 4.00684904 2.1947738 1.64854896
    endloop
  endfacet
  facet normal 0.542057931 -0.204718137 0.815023732
    outer loop
      vertex 4.06403554 2.17317626 1.74005574
      vertex 4.06647541 2.1722548 1.73820157
      vertex 4.06672235 2.17347055 1.73834271
    endloop
  endfacet
  facet normal 0.830251005 0.280311874 -0.481776423
    outer loop
      vertex 4.00709597 2.19598955 1.6486901
      vertex 4.00693387 2.19716049 1.64909203
      vertex 4.06656024 2.1746415 1.73874464
    endloop
  endfacet
  facet normal 0.830251005 0.280311874 -0.481776423
    outer loop
      vertex 4.00709597 2.19598955 1.6486901
      vertex 4.06656024 2.1746415 1.73874464
      vertex 4.06672235 2.17347055 1.73834271
    endloop
  endfacet
  facet normal -0.542057931 0.204718137 -0.815023732
    outer loop
      vertex 4.00440917 2.19569526 1.65040313
      vertex 4.00693387 2.19716049 1.64909203
      vertex 4.00709597 2.19598955 1.6486901
    endloop
  endfacet
  facet normal 0.542057931 -0.204718137 0.815023732
    outer loop
      vertex 4.06403554 2.17317626 1.74005574
      vertex 4.06672235 2.17347055 1.73834271
      vertex 4.06656024 2.1746415 1.73874464
    endloop
  endfacet
  facet normal 0.71736718 0.617864495 -0.321912714
    outer loop
      vertex 4.00693387 2.19716049 1.64909203
      vertex 4.0063874 2.19810837 1.64969357
      vertex 4.06601377 2.17558938 1.73934618
    endloop
  endfacet
  facet normal 0.71736718 0.617864495 -0.321912714
    outer loop
      vertex 4.00693387 2.19716049 1.64909203
      vertex 4.06601377 2.17558938 1.73934618
      vertex 4.06656024 2.1746415 1.73874464
    endloop
  endfacet
  facet normal -0.542057931 0.204718137 -0.815023732
    outer loop
      vertex 4.00440917 2.19569526 1.65040313
      vertex 4.0063874 2.19810837 1.64969357
      vertex 4.00693387 2.19716049 1.64909203
    endloop
  endfacet
  facet normal 0.542057931 -0.204718137 0.815023732
    outer loop
      vertex 4.06403554 2.17317626 1.74005574
      vertex 4.06656024 2.1746415 1.73874464
      vertex 4.06601377 2.17558938 1.73934618
    endloop
  endfacet
  facet normal 0.495270704 0.861352847 -0.113040713
    outer loop
      vertex 4.0063874 2.19810837 1.64969357
      vertex 4.00553976 2.19868888 1.65040313
      vertex 4.06516614 2.17616988 1.74005574
    endloop
  endfacet
  facet normal 0.495270704 0.861352847 -0.113040713
    outer loop
      vertex 4.0063874 2.19810837 1.64969357
      vertex 4.06516614 2.17616988 1.74005574
      vertex 4.06601377 2.17558938 1.73934618
    endloop
  endfacet
  facet normal -0.542057931 0.204718137 -0.815023732
    outer loop
      vertex 4.00440917 2.19569526 1.65040313
      vertex 4.00553976 2.19868888 1.65040313
      vertex 4.0063874 2.19810837 1.64969357
    endloop
  endfacet
  facet normal 0.542057931 -0.204718137 0.815023732
    outer loop
      vertex 4.06403554 2.17317626 1.74005574
      vertex 4.06601377 2.17558938 1.73934618
      vertex 4.06516614 2.17616988 1.74005574
    endloop
  endfacet
  facet normal 0.197773754 0.973708036 0.113040713
    outer loop
      vertex 4.00553976 2.19868888 1.65040313
      vertex 4.00452 2.19881363 1.65111269
      vertex 4.06414638 2.17629463 1.7407653
    endloop
  endfacet
  facet normal 0.197773754 0.973708036 0.113040713
    outer loop
      vertex 4.00553976 2.19868888 1.65040313
      vertex 4.06414638 2.17629463 1.7407653
      vertex 4.06516614 2.17616988 1.74005574
    endloop
  endfacet
  facet normal -0.542057931 0.204718137 -0.815023732
    outer loop
      vertex 4.00440917 2.19569526 1.65040313
      vertex 4.00452 2.19881363 1.65111269
      vertex 4.00553976 2.19868888 1.65040313
    endloop
  endfacet
  facet normal 0.542057931 -0.204718137 0.815023732
    outer loop
      vertex 4.06403554 2.17317626 1.74005574
      vertex 4.06516614 2.17616988 1.74005574
      vertex 4.06414638 2.17629463 1.7407653
    endloop
  endfacet
  facet normal -0.129832458 0.937825004 0.321912714
    outer loop
      vertex 4.00452 2.19881363 1.65111269
      vertex 4.00348337 2.19846364 1.65171422
      vertex 4.06310974 2.17594464 1.74136683
    endloop
  endfacet
  facet normal -0.129832458 0.937825004 0.321912714
    outer loop
      vertex 4.00452 2.19881363 1.65111269
      vertex 4.06310974 2.17594464 1.74136683
      vertex 4.06414638 2.17629463 1.7407653
    endloop
  endfacet
  facet normal -0.542057931 0.204718137 -0.815023732
    outer loop
      vertex 4.00440917 2.19569526 1.65040313
      vertex 4.00348337 2.19846364 1.65171422
      vertex 4.00452 2.19881363 1.65111269
    endloop
  endfacet
  facet normal 0.542057931 -0.204718137 0.815023732
    outer loop
      vertex 4.06403554 2.17317626 1.74005574
      vertex 4.06414638 2.17629463 1.7407653
      vertex 4.06310974 2.17594464 1.74136683
    endloop
  endfacet
  facet normal -0.437672855 0.759166616 0.481776423
    outer loop
      vertex 4.00348337 2.19846364 1.65171422
      vertex 4.00258768 2.19769219 1.65211616
      vertex 4.06221405 2.17517319 1.74176877
    endloop
  endfacet
  facet normal -0.437672855 0.759166616 0.481776423
    outer loop
      vertex 4.00348337 2.19846364 1.65171422
      vertex 4.06221405 2.17517319 1.74176877
      vertex 4.06310974 2.17594464 1.74136683
    endloop
  endfacet
  facet normal -0.542057931 0.204718137 -0.815023732
    outer loop
      vertex 4.00440917 2.19569526 1.65040313
      vertex 4.00258768 2.19769219 1.65211616
      vertex 4.00348337 2.19846364 1.65171422
    endloop
  endfacet
  facet normal 0.542057931 -0.204718137 0.815023732
    outer loop
      vertex 4.06403554 2.17317626 1.74005574
      vertex 4.06310974 2.17594464 1.74136683
      vertex 4.06221405 2.17517319 1.74176877
    endloop
  endfacet
  facet normal -0.678881527 0.464931992 0.568294038
    outer loop
      vertex 4.00258768 2.19769219 1.65211616
      vertex 4.0019693 2.19661672 1.6522573
      vertex 4.06159567 2.17409772 1.74190991
    endloop
  endfacet
  facet normal -0.678881527 0.464931992 0.568294038
    outer loop
      vertex 4.00258768 2.19769219 1.65211616
      vertex 4.06159567 2.17409772 1.74190991
      vertex 4.06221405 2.17517319 1.74176877
    endloop
  endfacet
  facet normal -0.542057931 0.204718137 -0.815023732
    outer loop
      vertex 4.00440917 2.19569526 1.65040313
      vertex 4.0019693 2.19661672 1.6522573
      vertex 4.00258768 2.19769219 1.65211616
    endloop
  endfacet
  facet normal 0.542057931 -0.204718137 0.815023732
    outer loop
      vertex 4.06403554 2.17317626 1.74005574
      vertex 4.06221405 2.17517319 1.74176877
      vertex 4.06159567 2.17409772 1.74190991
    endloop
  endfacet
  facet normal -0.816736641 0.0999156879 0.568294038
    outer loop
      vertex 4.0019693 2.19661672 1.6522573
      vertex 4.00172236 2.19540097 1.65211616
      vertex 4.06134873 2.17288197 1.74176877
    endloop
  endfacet
  facet normal -0.816736641 0.0999156879 0.568294038
    outer loop
      vertex 4.0019693 2.19661672 1.6522573
      vertex 4.06134873 2.17288197 1.74176877
      vertex 4.06159567 2.17409772 1.74190991
    endloop
  endfacet
  facet normal -0.542057931 0.204718137 -0.815023732
    outer loop
      vertex 4.00440917 2.19569526 1.65040313
      vertex 4.00172236 2.19540097 1.65211616
      vertex 4.0019693 2.19661672 1.6522573
    endloop
  endfacet
  facet normal 0.542057931 -0.204718137 0.815023732
    outer loop
      vertex 4.06403554 2.17317626 1.74005574
      vertex 4.06159567 2.17409772 1.74190991
      vertex 4.06134873 2.17288197 1.74176877
    endloop
  endfacet
  facet normal -0.830251005 -0.280311874 0.481776423
    outer loop
      vertex 4.00172236 2.19540097 1.65211616
      vertex 4.00188447 2.19423002 1.65171422
      vertex 4.06151084 2.17171103 1.74136683
    endloop
  endfacet
  facet normal -0.830251005 -0.280311874 0.481776423
    outer loop
      vertex 4.00172236 2.19540097 1.65211616
      vertex 4.06151084 2.17171103 1.74136683
      vertex 4.06134873 2.17288197 1.74176877
    endloop
  endfacet
  facet normal -0.542057931 0.204718137 -0.815023732
    outer loop
      vertex 4.00440917 2.19569526 1.65040313
      vertex 4.00188447 2.19423002 1.65171422
      vertex 4.00172236 2.19540097 1.65211616
    endloop
  endfacet
  facet normal 0.542057931 -0.204718137 0.815023732
    outer loop
      vertex 4.06403554 2.17317626 1.74005574
      vertex 4.06134873 2.17288197 1.74176877
      vertex 4.06151084 2.17171103 1.74136683
    endloop
  endfacet
  facet normal -0.71736718 -0.617864495 0.321912714
    outer loop
      vertex 4.00188447 2.19423002 1.65171422
      vertex 4.00243094 2.19328214 1.65111269
      vertex 4.06205731 2.17076315 1.7407653
    endloop
  endfacet
  facet normal -0.71736718 -0.617864495 0.321912714
    outer loop
      vertex 4.00188447 2.19423002 1.65171422
      vertex 4.06205731 2.17076315 1.7407653
      vertex 4.06151084 2.17171103 1.74136683
    endloop
  endfacet
  facet normal -0.542057931 0.204718137 -0.815023732
    outer loop
      vertex 4.00440917 2.19569526 1.65040313
      vertex 4.00243094 2.19328214 1.65111269
      vertex 4.00188447 2.19423002 1.65171422
    endloop
  endfacet
  facet normal 0.542057931 -0.204718137 0.815023732
    outer loop
      vertex 4.06403554 2.17317626 1.74005574
      vertex 4.06151084 2.17171103 1.74136683
      vertex 4.06205731 2.17076315 1.7407653
    endloop
  endfacet
  facet normal -0.495270704 -0.861352847 0.113040713
    outer loop
      vertex 4.00243094 2.19328214 1.65111269
      vertex 4.00327857 2.19270164 1.65040313
      vertex 4.06290495 2.17018264 1.74005574
    endloop
  endfacet
  facet normal -0.495270704 -0.861352847 0.113040713
    outer loop
      vertex 4.00243094 2.19328214 1.65111269
      vertex 4.06290495 2.17018264 1.74005574
      vertex 4.06205731 2.17076315 1.7407653
    endloop
  endfacet
  facet normal -0.542057931 0.204718137 -0.815023732
    outer loop
      vertex 4.00440917 2.19569526 1.65040313
      vertex 4.00327857 2.19270164 1.65040313
      vertex 4.00243094 2.19328214 1.65111269
    endloop
  endfacet
  facet normal 0.542057931 -0.204718137 0.815023732
    outer loop
      vertex 4.06403554 2.17317626 1.74005574
      vertex 4.06205731 2.17076315 1.7407653
      vertex 4.06290495 2.17018264 1.74005574
    endloop
  endfacet
  facet normal -0.812365112 0.55154282 -0.189376457
    outer loop
      vertex 4.29144662 2.11610662 1.54686929
      vertex 4.2918079 2.11623059 1.54568057
      vertex 4.21586305 1.99199812 1.50964347
    endloop
  endfacet
  facet normal -0.812365112 0.55154282 -0.189376457
    outer loop
      vertex 4.29144662 2.11610662 1.54686929
      vertex 4.21586305 1.99199812 1.50964347
      vertex 4.21550177 1.99187415 1.51083219
    endloop
  endfacet
  facet normal 0.506299004 0.828216465 0.240247384
    outer loop
      vertex 4.29417688 2.11443758 1.54686929
      vertex 4.2918079 2.11623059 1.54568057
      vertex 4.29144662 2.11610662 1.54686929
    endloop
  endfacet
  facet normal -0.506299004 -0.828216465 -0.240247384
    outer loop
      vertex 4.21823203 1.99020511 1.51083219
      vertex 4.21550177 1.99187415 1.51083219
      vertex 4.21586305 1.99199812 1.50964347
    endloop
  endfacet
  facet normal -0.639797505 0.547554797 -0.539298522
    outer loop
      vertex 4.2918079 2.11623059 1.54568057
      vertex 4.29252983 2.11608159 1.54467282
      vertex 4.21658498 1.99184912 1.50863572
    endloop
  endfacet
  facet normal -0.639797505 0.547554797 -0.539298522
    outer loop
      vertex 4.2918079 2.11623059 1.54568057
      vertex 4.21658498 1.99184912 1.50863572
      vertex 4.21586305 1.99199812 1.50964347
    endloop
  endfacet
  facet normal 0.506299004 0.828216465 0.240247384
    outer loop
      vertex 4.29417688 2.11443758 1.54686929
      vertex 4.29252983 2.11608159 1.54467282
      vertex 4.2918079 2.11623059 1.54568057
    endloop
  endfacet
  facet normal -0.506299004 -0.828216465 -0.240247384
    outer loop
      vertex 4.21823203 1.99020511 1.51083219
      vertex 4.21586305 1.99199812 1.50964347
      vertex 4.21658498 1.99184912 1.50863572
    endloop
  endfacet
  facet normal -0.369826528 0.46020652 -0.807117277
    outer loop
      vertex 4.29252983 2.11608159 1.54467282
      vertex 4.29350251 2.1156823 1.54399947
      vertex 4.21755766 1.99144983 1.50796236
    endloop
  endfacet
  facet normal -0.369826528 0.46020652 -0.807117277
    outer loop
      vertex 4.29252983 2.11608159 1.54467282
      vertex 4.21755766 1.99144983 1.50796236
      vertex 4.21658498 1.99184912 1.50863572
    endloop
  endfacet
  facet normal 0.506299004 0.828216465 0.240247384
    outer loop
      vertex 4.29417688 2.11443758 1.54686929
      vertex 4.29350251 2.1156823 1.54399947
      vertex 4.29252983 2.11608159 1.54467282
    endloop
  endfacet
  facet normal -0.506299004 -0.828216465 -0.240247384
    outer loop
      vertex 4.21823203 1.99020511 1.51083219
      vertex 4.21658498 1.99184912 1.50863572
      vertex 4.21755766 1.99144983 1.50796236
    endloop
  endfacet
  facet normal -0.0435528149 0.302795972 -0.952059742
    outer loop
      vertex 4.29350251 2.1156823 1.54399947
      vertex 4.29457786 2.11509352 1.54376302
      vertex 4.21863301 1.99086105 1.50772591
    endloop
  endfacet
  facet normal -0.0435528149 0.302795972 -0.952059742
    outer loop
      vertex 4.29350251 2.1156823 1.54399947
      vertex 4.21863301 1.99086105 1.50772591
      vertex 4.21755766 1.99144983 1.50796236
    endloop
  endfacet
  facet normal 0.506299004 0.828216465 0.240247384
    outer loop
      vertex 4.29417688 2.11443758 1.54686929
      vertex 4.29457786 2.11509352 1.54376302
      vertex 4.29350251 2.1156823 1.54399947
    endloop
  endfacet
  facet normal -0.506299004 -0.828216465 -0.240247384
    outer loop
      vertex 4.21823203 1.99020511 1.51083219
      vertex 4.21755766 1.99144983 1.50796236
      vertex 4.21863301 1.99086105 1.50772591
    endloop
  endfacet
  facet normal 0.28935142 0.0992874814 -0.952059742
    outer loop
      vertex 4.29457786 2.11509352 1.54376302
      vertex 4.29559216 2.11440488 1.54399947
      vertex 4.21964731 1.99017241 1.50796236
    endloop
  endfacet
  facet normal 0.28935142 0.0992874814 -0.952059742
    outer loop
      vertex 4.29457786 2.11509352 1.54376302
      vertex 4.21964731 1.99017241 1.50796236
      vertex 4.21863301 1.99086105 1.50772591
    endloop
  endfacet
  facet normal 0.506299004 0.828216465 0.240247384
    outer loop
      vertex 4.29417688 2.11443758 1.54686929
      vertex 4.29559216 2.11440488 1.54399947
      vertex 4.29457786 2.11509352 1.54376302
    endloop
  endfacet
  facet normal -0.506299004 -0.828216465 -0.240247384
    outer loop
      vertex 4.21823203 1.99020511 1.51083219
      vertex 4.21863301 1.99086105 1.50772591
      vertex 4.21964731 1.99017241 1.50796236
    endloop
  endfacet
  facet normal 0.578204524 -0.119336628 -0.807117277
    outer loop
      vertex 4.29559216 2.11440488 1.54399947
      vertex 4.296391 2.11372121 1.54467282
      vertex 4.22044615 1.98948874 1.50863572
    endloop
  endfacet
  facet normal 0.578204524 -0.119336628 -0.807117277
    outer loop
      vertex 4.29559216 2.11440488 1.54399947
      vertex 4.22044615 1.98948874 1.50863572
      vertex 4.21964731 1.99017241 1.50796236
    endloop
  endfacet
  facet normal 0.506299004 0.828216465 0.240247384
    outer loop
      vertex 4.29417688 2.11443758 1.54686929
      vertex 4.296391 2.11372121 1.54467282
      vertex 4.29559216 2.11440488 1.54399947
    endloop
  endfacet
  facet normal -0.506299004 -0.828216465 -0.240247384
    outer loop
      vertex 4.21823203 1.99020511 1.51083219
      vertex 4.21964731 1.99017241 1.50796236
      vertex 4.22044615 1.98948874 1.50863572
    endloop
  endfacet
  facet normal 0.77903123 -0.319792817 -0.539298522
    outer loop
      vertex 4.296391 2.11372121 1.54467282
      vertex 4.29685276 2.11314661 1.54568057
      vertex 4.22090791 1.98891414 1.50964347
    endloop
  endfacet
  facet normal 0.77903123 -0.319792817 -0.539298522
    outer loop
      vertex 4.296391 2.11372121 1.54467282
      vertex 4.22090791 1.98891414 1.50964347
      vertex 4.22044615 1.98948874 1.50863572
    endloop
  endfacet
  facet normal 0.506299004 0.828216465 0.240247384
    outer loop
      vertex 4.29417688 2.11443758 1.54686929
      vertex 4.29685276 2.11314661 1.54568057
      vertex 4.296391 2.11372121 1.54467282
    endloop
  endfacet
  facet normal -0.506299004 -0.828216465 -0.240247384
    outer loop
      vertex 4.21823203 1.99020511 1.51083219
      vertex 4.22044615 1.98948874 1.50863572
      vertex 4.22090791 1.98891414 1.50964347
    endloop
  endfacet
  facet normal 0.861257494 -0.471563449 -0.189376457
    outer loop
      vertex 4.29685276 2.11314661 1.54568057
      vertex 4.29690713 2.11276854 1.54686929
      vertex 4.22096228 1.98853607 1.51083219
    endloop
  endfacet
  facet normal 0.861257494 -0.471563449 -0.189376457
    outer loop
      vertex 4.29685276 2.11314661 1.54568057
      vertex 4.22096228 1.98853607 1.51083219
      vertex 4.22090791 1.98891414 1.50964347
    endloop
  endfacet
  facet normal 0.506299004 0.828216465 0.240247384
    outer loop
      vertex 4.29417688 2.11443758 1.54686929
      vertex 4.29690713 2.11276854 1.54686929
      vertex 4.29685276 2.11314661 1.54568057
    endloop
  endfacet
  facet normal -0.506299004 -0.828216465 -0.240247384
    outer loop
      vertex 4.21823203 1.99020511 1.51083219
      vertex 4.22090791 1.98891414 1.50964347
      vertex 4.22096228 1.98853607 1.51083219
    endloop
  endfacet
  facet normal 0.812365112 -0.55154282 0.189376457
    outer loop
      vertex 4.29690713 2.11276854 1.54686929
      vertex 4.29654586 2.11264457 1.54805802
      vertex 4.22060101 1.9884121 1.51202091
    endloop
  endfacet
  facet normal 0.812365112 -0.55154282 0.189376457
    outer loop
      vertex 4.29690713 2.11276854 1.54686929
      vertex 4.22060101 1.9884121 1.51202091
      vertex 4.22096228 1.98853607 1.51083219
    endloop
  endfacet
  facet normal 0.506299004 0.828216465 0.240247384
    outer loop
      vertex 4.29417688 2.11443758 1.54686929
      vertex 4.29654586 2.11264457 1.54805802
      vertex 4.29690713 2.11276854 1.54686929
    endloop
  endfacet
  facet normal -0.506299004 -0.828216465 -0.240247384
    outer loop
      vertex 4.21823203 1.99020511 1.51083219
      vertex 4.22096228 1.98853607 1.51083219
      vertex 4.22060101 1.9884121 1.51202091
    endloop
  endfacet
  facet normal 0.639797505 -0.547554797 0.539298522
    outer loop
      vertex 4.29654586 2.11264457 1.54805802
      vertex 4.29582392 2.11279358 1.54906576
      vertex 4.21987907 1.98856111 1.51302866
    endloop
  endfacet
  facet normal 0.639797505 -0.547554797 0.539298522
    outer loop
      vertex 4.29654586 2.11264457 1.54805802
      vertex 4.21987907 1.98856111 1.51302866
      vertex 4.22060101 1.9884121 1.51202091
    endloop
  endfacet
  facet normal 0.506299004 0.828216465 0.240247384
    outer loop
      vertex 4.29417688 2.11443758 1.54686929
      vertex 4.29582392 2.11279358 1.54906576
      vertex 4.29654586 2.11264457 1.54805802
    endloop
  endfacet
  facet normal -0.506299004 -0.828216465 -0.240247384
    outer loop
      vertex 4.21823203 1.99020511 1.51083219
      vertex 4.22060101 1.9884121 1.51202091
      vertex 4.21987907 1.98856111 1.51302866
    endloop
  endfacet
  facet normal 0.369826528 -0.46020652 0.807117277
    outer loop
      vertex 4.29582392 2.11279358 1.54906576
      vertex 4.29485124 2.11319286 1.54973912
      vertex 4.21890639 1.98896039 1.51370201
    endloop
  endfacet
  facet normal 0.369826528 -0.46020652 0.807117277
    outer loop
      vertex 4.29582392 2.11279358 1.54906576
      vertex 4.21890639 1.98896039 1.51370201
      vertex 4.21987907 1.98856111 1.51302866
    endloop
  endfacet
  facet normal 0.506299004 0.828216465 0.240247384
    outer loop
      vertex 4.29417688 2.11443758 1.54686929
      vertex 4.29485124 2.11319286 1.54973912
      vertex 4.29582392 2.11279358 1.54906576
    endloop
  endfacet
  facet normal -0.506299004 -0.828216465 -0.240247384
    outer loop
      vertex 4.21823203 1.99020511 1.51083219
      vertex 4.21987907 1.98856111 1.51302866
      vertex 4.21890639 1.98896039 1.51370201
    endloop
  endfacet
  facet normal 0.0435528149 -0.302795972 0.952059742
    outer loop
      vertex 4.29485124 2.11319286 1.54973912
      vertex 4.29377589 2.11378165 1.54997557
      vertex 4.21783104 1.98954918 1.51393846
    endloop
  endfacet
  facet normal 0.0435528149 -0.302795972 0.952059742
    outer loop
      vertex 4.29485124 2.11319286 1.54973912
      vertex 4.21783104 1.98954918 1.51393846
      vertex 4.21890639 1.98896039 1.51370201
    endloop
  endfacet
  facet normal 0.506299004 0.828216465 0.240247384
    outer loop
      vertex 4.29417688 2.11443758 1.54686929
      vertex 4.29377589 2.11378165 1.54997557
      vertex 4.29485124 2.11319286 1.54973912
    endloop
  endfacet
  facet normal -0.506299004 -0.828216465 -0.240247384
    outer loop
      vertex 4.21823203 1.99020511 1.51083219
      vertex 4.21890639 1.98896039 1.51370201
      vertex 4.21783104 1.98954918 1.51393846
    endloop
  endfacet
  facet normal -0.28935142 -0.0992874814 0.952059742
    outer loop
      vertex 4.29377589 2.11378165 1.54997557
      vertex 4.29276159 2.11447029 1.54973912
      vertex 4.21681674 1.99023782 1.51370201
    endloop
  endfacet
  facet normal -0.28935142 -0.0992874814 0.952059742
    outer loop
      vertex 4.29377589 2.11378165 1.54997557
      vertex 4.21681674 1.99023782 1.51370201
      vertex 4.21783104 1.98954918 1.51393846
    endloop
  endfacet
  facet normal 0.506299004 0.828216465 0.240247384
    outer loop
      vertex 4.29417688 2.11443758 1.54686929
      vertex 4.29276159 2.11447029 1.54973912
      vertex 4.29377589 2.11378165 1.54997557
    endloop
  endfacet
  facet normal -0.506299004 -0.828216465 -0.240247384
    outer loop
      vertex 4.21823203 1.99020511 1.51083219
      vertex 4.21783104 1.98954918 1.51393846
      vertex 4.21681674 1.99023782 1.51370201
    endloop
  endfacet
  facet normal -0.578204524 0.119336628 0.807117277
    outer loop
      vertex 4.29276159 2.11447029 1.54973912
      vertex 4.29196276 2.11515396 1.54906576
      vertex 4.21601791 1.99092149 1.51302866
    endloop
  endfacet
  facet normal -0.578204524 0.119336628 0.807117277
    outer loop
      vertex 4.29276159 2.11447029 1.54973912
      vertex 4.21601791 1.99092149 1.51302866
      vertex 4.21681674 1.99023782 1.51370201
    endloop
  endfacet
  facet normal 0.506299004 0.828216465 0.240247384
    outer loop
      vertex 4.29417688 2.11443758 1.54686929
      vertex 4.29196276 2.11515396 1.54906576
      vertex 4.29276159 2.11447029 1.54973912
    endloop
  endfacet
  facet normal -0.506299004 -0.828216465 -0.240247384
    outer loop
      vertex 4.21823203 1.99020511 1.51083219
      vertex 4.21681674 1.99023782 1.51370201
      vertex 4.21601791 1.99092149 1.51302866
    endloop
  endfacet
  facet normal -0.77903123 0.319792817 0.539298522
    outer loop
      vertex 4.29196276 2.11515396 1.54906576
      vertex 4.291501 2.11572856 1.54805802
      vertex 4.21555615 1.99149609 1.51202091
    endloop
  endfacet
  facet normal -0.77903123 0.319792817 0.539298522
    outer loop
      vertex 4.29196276 2.11515396 1.54906576
      vertex 4.21555615 1.99149609 1.51202091
      vertex 4.21601791 1.99092149 1.51302866
    endloop
  endfacet
  facet normal 0.506299004 0.828216465 0.240247384
    outer loop
      vertex 4.29417688 2.11443758 1.54686929
      vertex 4.291501 2.11572856 1.54805802
      vertex 4.29196276 2.11515396 1.54906576
    endloop
  endfacet
  facet normal -0.506299004 -0.828216465 -0.240247384
    outer loop
      vertex 4.21823203 1.99020511 1.51083219
      vertex 4.21601791 1.99092149 1.51302866
      vertex 4.21555615 1.99149609 1.51202091
    endloop
  endfacet
  facet normal -0.861257494 0.471563449 0.189376457
    outer loop
      vertex 4.291501 2.11572856 1.54805802
      vertex 4.29144662 2.11610662 1.54686929
      vertex 4.21550177 1.99187415 1.51083219
    endloop
  endfacet
  facet normal -0.861257494 0.471563449 0.189376457
    outer loop
      vertex 4.291501 2.11572856 1.54805802
      vertex 4.21550177 1.99187415 1.51083219
      vertex 4.21555615 1.99149609 1.51202091
    endloop
  endfacet
  facet normal 0.506299004 0.828216465 0.240247384
    outer loop
      vertex 4.29417688 2.11443758 1.54686929
      vertex 4.29144662 2.11610662 1.54686929
      vertex 4.291501 2.11572856 1.54805802
    endloop
  endfacet
  facet normal -0.506299004 -0.828216465 -0.240247384
    outer loop
      vertex 4.21823203 1.99020511 1.51083219
      vertex 4.21555615 1.99149609 1.51202091
      vertex 4.21550177 1.99187415 1.51083219
    endloop
  endfacet
  facet normal -0.812365112 0.55154282 -0.189376457
    outer loop
      vertex 4.30816398 2.11119195 1.5712901
      vertex 4.30852526 2.11131592 1.57010138
      vertex 4.23258041 1.98708345 1.53406427
    endloop
  endfacet
  facet normal -0.812365112 0.55154282 -0.189376457
    outer loop
      vertex 4.30816398 2.11119195 1.5712901
      vertex 4.23258041 1.98708345 1.53406427
      vertex 4.23221913 1.98695948 1.53525299
    endloop
  endfacet
  facet normal 0.506299004 0.828216465 0.240247384
    outer loop
      vertex 4.31089424 2.10952291 1.5712901
      vertex 4.30852526 2.11131592 1.57010138
      vertex 4.30816398 2.11119195 1.5712901
    endloop
  endfacet
  facet normal -0.506299004 -0.828216465 -0.240247384
    outer loop
      vertex 4.23494939 1.98529044 1.53525299
      vertex 4.23221913 1.98695948 1.53525299
      vertex 4.23258041 1.98708345 1.53406427
    endloop
  endfacet
  facet normal -0.639797505 0.547554797 -0.539298522
    outer loop
      vertex 4.30852526 2.11131592 1.57010138
      vertex 4.30924719 2.11116692 1.56909363
      vertex 4.23330234 1.98693445 1.53305652
    endloop
  endfacet
  facet normal -0.639797505 0.547554797 -0.539298522
    outer loop
      vertex 4.30852526 2.11131592 1.57010138
      vertex 4.23330234 1.98693445 1.53305652
      vertex 4.23258041 1.98708345 1.53406427
    endloop
  endfacet
  facet normal 0.506299004 0.828216465 0.240247384
    outer loop
      vertex 4.31089424 2.10952291 1.5712901
      vertex 4.30924719 2.11116692 1.56909363
      vertex 4.30852526 2.11131592 1.57010138
    endloop
  endfacet
  facet normal -0.506299004 -0.828216465 -0.240247384
    outer loop
      vertex 4.23494939 1.98529044 1.53525299
      vertex 4.23258041 1.98708345 1.53406427
      vertex 4.23330234 1.98693445 1.53305652
    endloop
  endfacet
  facet normal -0.369826528 0.46020652 -0.807117277
    outer loop
      vertex 4.30924719 2.11116692 1.56909363
      vertex 4.31021988 2.11076763 1.56842027
      vertex 4.23427503 1.98653516 1.53238317
    endloop
  endfacet
  facet normal -0.369826528 0.46020652 -0.807117277
    outer loop
      vertex 4.30924719 2.11116692 1.56909363
      vertex 4.23427503 1.98653516 1.53238317
      vertex 4.23330234 1.98693445 1.53305652
    endloop
  endfacet
  facet normal 0.506299004 0.828216465 0.240247384
    outer loop
      vertex 4.31089424 2.10952291 1.5712901
      vertex 4.31021988 2.11076763 1.56842027
      vertex 4.30924719 2.11116692 1.56909363
    endloop
  endfacet
  facet normal -0.506299004 -0.828216465 -0.240247384
    outer loop
      vertex 4.23494939 1.98529044 1.53525299
      vertex 4.23330234 1.98693445 1.53305652
      vertex 4.23427503 1.98653516 1.53238317
    endloop
  endfacet
  facet normal -0.0435528149 0.302795972 -0.952059742
    outer loop
      vertex 4.31021988 2.11076763 1.56842027
      vertex 4.31129522 2.11017885 1.56818382
      vertex 4.23535037 1.98594638 1.53214671
    endloop
  endfacet
  facet normal -0.0435528149 0.302795972 -0.952059742
    outer loop
      vertex 4.31021988 2.11076763 1.56842027
      vertex 4.23535037 1.98594638 1.53214671
      vertex 4.23427503 1.98653516 1.53238317
    endloop
  endfacet
  facet normal 0.506299004 0.828216465 0.240247384
    outer loop
      vertex 4.31089424 2.10952291 1.5712901
      vertex 4.31129522 2.11017885 1.56818382
      vertex 4.31021988 2.11076763 1.56842027
    endloop
  endfacet
  facet normal -0.506299004 -0.828216465 -0.240247384
    outer loop
      vertex 4.23494939 1.98529044 1.53525299
      vertex 4.23427503 1.98653516 1.53238317
      vertex 4.23535037 1.98594638 1.53214671
    endloop
  endfacet
  facet normal 0.28935142 0.0992874814 -0.952059742
    outer loop
      vertex 4.31129522 2.11017885 1.56818382
      vertex 4.31230952 2.1094902 1.56842027
      vertex 4.23636467 1.98525773 1.53238317
    endloop
  endfacet
  facet normal 0.28935142 0.0992874814 -0.952059742
    outer loop
      vertex 4.31129522 2.11017885 1.56818382
      vertex 4.23636467 1.98525773 1.53238317
      vertex 4.23535037 1.98594638 1.53214671
    endloop
  endfacet
  facet normal 0.506299004 0.828216465 0.240247384
    outer loop
      vertex 4.31089424 2.10952291 1.5712901
      vertex 4.31230952 2.1094902 1.56842027
      vertex 4.31129522 2.11017885 1.56818382
    endloop
  endfacet
  facet normal -0.506299004 -0.828216465 -0.240247384
    outer loop
      vertex 4.23494939 1.98529044 1.53525299
      vertex 4.23535037 1.98594638 1.53214671
      vertex 4.23636467 1.98525773 1.53238317
    endloop
  endfacet
  facet normal 0.578204524 -0.119336628 -0.807117277
    outer loop
      vertex 4.31230952 2.1094902 1.56842027
      vertex 4.31310836 2.10880654 1.56909363
      vertex 4.23716351 1.98457407 1.53305652
    endloop
  endfacet
  facet normal 0.578204524 -0.119336628 -0.807117277
    outer loop
      vertex 4.31230952 2.1094902 1.56842027
      vertex 4.23716351 1.98457407 1.53305652
      vertex 4.23636467 1.98525773 1.53238317
    endloop
  endfacet
  facet normal 0.506299004 0.828216465 0.240247384
    outer loop
      vertex 4.31089424 2.10952291 1.5712901
      vertex 4.31310836 2.10880654 1.56909363
      vertex 4.31230952 2.1094902 1.56842027
    endloop
  endfacet
  facet normal -0.506299004 -0.828216465 -0.240247384
    outer loop
      vertex 4.23494939 1.98529044 1.53525299
      vertex 4.23636467 1.98525773 1.53238317
      vertex 4.23716351 1.98457407 1.53305652
    endloop
  endfacet
  facet normal 0.77903123 -0.319792817 -0.539298522
    outer loop
      vertex 4.31310836 2.10880654 1.56909363
      vertex 4.31357012 2.10823193 1.57010138
      vertex 4.23762527 1.98399946 1.53406427
    endloop
  endfacet
  facet normal 0.77903123 -0.319792817 -0.539298522
    outer loop
      vertex 4.31310836 2.10880654 1.56909363
      vertex 4.23762527 1.98399946 1.53406427
      vertex 4.23716351 1.98457407 1.53305652
    endloop
  endfacet
  facet normal 0.506299004 0.828216465 0.240247384
    outer loop
      vertex 4.31089424 2.10952291 1.5712901
      vertex 4.31357012 2.10823193 1.57010138
      vertex 4.31310836 2.10880654 1.56909363
    endloop
  endfacet
  facet normal -0.506299004 -0.828216465 -0.240247384
    outer loop
      vertex 4.23494939 1.98529044 1.53525299
      vertex 4.23716351 1.98457407 1.53305652
      vertex 4.23762527 1.98399946 1.53406427
    endloop
  endfacet
  facet normal 0.861257494 -0.471563449 -0.189376457
    outer loop
      vertex 4.31357012 2.10823193 1.57010138
      vertex 4.3136245 2.10785387 1.5712901
      vertex 4.23767965 1.9836214 1.53525299
    endloop
  endfacet
  facet normal 0.861257494 -0.471563449 -0.189376457
    outer loop
      vertex 4.31357012 2.10823193 1.57010138
      vertex 4.23767965 1.9836214 1.53525299
      vertex 4.23762527 1.98399946 1.53406427
    endloop
  endfacet
  facet normal 0.506299004 0.828216465 0.240247384
    outer loop
      vertex 4.31089424 2.10952291 1.5712901
      vertex 4.3136245 2.10785387 1.5712901
      vertex 4.31357012 2.10823193 1.57010138
    endloop
  endfacet
  facet normal -0.506299004 -0.828216465 -0.240247384
    outer loop
      vertex 4.23494939 1.98529044 1.53525299
      vertex 4.23762527 1.98399946 1.53406427
      vertex 4.23767965 1.9836214 1.53525299
    endloop
  endfacet
  facet normal 0.812365112 -0.55154282 0.189376457
    outer loop
      vertex 4.3136245 2.10785387 1.5712901
      vertex 4.31326322 2.1077299 1.57247882
      vertex 4.23731837 1.98349743 1.53644171
    endloop
  endfacet
  facet normal 0.812365112 -0.55154282 0.189376457
    outer loop
      vertex 4.3136245 2.10785387 1.5712901
      vertex 4.23731837 1.98349743 1.53644171
      vertex 4.23767965 1.9836214 1.53525299
    endloop
  endfacet
  facet normal 0.506299004 0.828216465 0.240247384
    outer loop
      vertex 4.31089424 2.10952291 1.5712901
      vertex 4.31326322 2.1077299 1.57247882
      vertex 4.3136245 2.10785387 1.5712901
    endloop
  endfacet
  facet normal -0.506299004 -0.828216465 -0.240247384
    outer loop
      vertex 4.23494939 1.98529044 1.53525299
      vertex 4.23767965 1.9836214 1.53525299
      vertex 4.23731837 1.98349743 1.53644171
    endloop
  endfacet
  facet normal 0.639797505 -0.547554797 0.539298522
    outer loop
      vertex 4.31326322 2.1077299 1.57247882
      vertex 4.31254129 2.1078789 1.57348657
      vertex 4.23659644 1.98364643 1.53744946
    endloop
  endfacet
  facet normal 0.639797505 -0.547554797 0.539298522
    outer loop
      vertex 4.31326322 2.1077299 1.57247882
      vertex 4.23659644 1.98364643 1.53744946
      vertex 4.23731837 1.98349743 1.53644171
    endloop
  endfacet
  facet normal 0.506299004 0.828216465 0.240247384
    outer loop
      vertex 4.31089424 2.10952291 1.5712901
      vertex 4.31254129 2.1078789 1.57348657
      vertex 4.31326322 2.1077299 1.57247882
    endloop
  endfacet
  facet normal -0.506299004 -0.828216465 -0.240247384
    outer loop
      vertex 4.23494939 1.98529044 1.53525299
      vertex 4.23731837 1.98349743 1.53644171
      vertex 4.23659644 1.98364643 1.53744946
    endloop
  endfacet
  facet normal 0.369826528 -0.46020652 0.807117277
    outer loop
      vertex 4.31254129 2.1078789 1.57348657
      vertex 4.31156861 2.10827819 1.57415993
      vertex 4.23562375 1.98404572 1.53812282
    endloop
  endfacet
  facet normal 0.369826528 -0.46020652 0.807117277
    outer loop
      vertex 4.31254129 2.1078789 1.57348657
      vertex 4.23562375 1.98404572 1.53812282
      vertex 4.23659644 1.98364643 1.53744946
    endloop
  endfacet
  facet normal 0.506299004 0.828216465 0.240247384
    outer loop
      vertex 4.31089424 2.10952291 1.5712901
      vertex 4.31156861 2.10827819 1.57415993
      vertex 4.31254129 2.1078789 1.57348657
    endloop
  endfacet
  facet normal -0.506299004 -0.828216465 -0.240247384
    outer loop
      vertex 4.23494939 1.98529044 1.53525299
      vertex 4.23659644 1.98364643 1.53744946
      vertex 4.23562375 1.98404572 1.53812282
    endloop
  endfacet
  facet normal 0.0435528149 -0.302795972 0.952059742
    outer loop
      vertex 4.31156861 2.10827819 1.57415993
      vertex 4.31049326 2.10886697 1.57439638
      vertex 4.23454841 1.9846345 1.53835927
    endloop
  endfacet
  facet normal 0.0435528149 -0.302795972 0.952059742
    outer loop
      vertex 4.31156861 2.10827819 1.57415993
      vertex 4.23454841 1.9846345 1.53835927
      vertex 4.23562375 1.98404572 1.53812282
    endloop
  endfacet
  facet normal 0.506299004 0.828216465 0.240247384
    outer loop
      vertex 4.31089424 2.10952291 1.5712901
      vertex 4.31049326 2.10886697 1.57439638
      vertex 4.31156861 2.10827819 1.57415993
    endloop
  endfacet
  facet normal -0.506299004 -0.828216465 -0.240247384
    outer loop
      vertex 4.23494939 1.98529044 1.53525299
      vertex 4.23562375 1.98404572 1.53812282
      vertex 4.23454841 1.9846345 1.53835927
    endloop
  endfacet
  facet normal -0.28935142 -0.0992874814 0.952059742
    outer loop
      vertex 4.31049326 2.10886697 1.57439638
      vertex 4.30947896 2.10955562 1.57415993
      vertex 4.23353411 1.98532315 1.53812282
    endloop
  endfacet
  facet normal -0.28935142 -0.0992874814 0.952059742
    outer loop
      vertex 4.31049326 2.10886697 1.57439638
      vertex 4.23353411 1.98532315 1.53812282
      vertex 4.23454841 1.9846345 1.53835927
    endloop
  endfacet
  facet normal 0.506299004 0.828216465 0.240247384
    outer loop
      vertex 4.31089424 2.10952291 1.5712901
      vertex 4.30947896 2.10955562 1.57415993
      vertex 4.31049326 2.10886697 1.57439638
    endloop
  endfacet
  facet normal -0.506299004 -0.828216465 -0.240247384
    outer loop
      vertex 4.23494939 1.98529044 1.53525299
      vertex 4.23454841 1.9846345 1.53835927
      vertex 4.23353411 1.98532315 1.53812282
    endloop
  endfacet
  facet normal -0.578204524 0.119336628 0.807117277
    outer loop
      vertex 4.30947896 2.10955562 1.57415993
      vertex 4.30868012 2.11023928 1.57348657
      vertex 4.23273527 1.98600681 1.53744946
    endloop
  endfacet
  facet normal -0.578204524 0.119336628 0.807117277
    outer loop
      vertex 4.30947896 2.10955562 1.57415993
      vertex 4.23273527 1.98600681 1.53744946
      vertex 4.23353411 1.98532315 1.53812282
    endloop
  endfacet
  facet normal 0.506299004 0.828216465 0.240247384
    outer loop
      vertex 4.31089424 2.10952291 1.5712901
      vertex 4.30868012 2.11023928 1.57348657
      vertex 4.30947896 2.10955562 1.57415993
    endloop
  endfacet
  facet normal -0.506299004 -0.828216465 -0.240247384
    outer loop
      vertex 4.23494939 1.98529044 1.53525299
      vertex 4.23353411 1.98532315 1.53812282
      vertex 4.23273527 1.98600681 1.53744946
    endloop
  endfacet
  facet normal -0.77903123 0.319792817 0.539298522
    outer loop
      vertex 4.30868012 2.11023928 1.57348657
      vertex 4.30821836 2.11081388 1.57247882
      vertex 4.23227351 1.98658141 1.53644171
    endloop
  endfacet
  facet normal -0.77903123 0.319792817 0.539298522
    outer loop
      vertex 4.30868012 2.11023928 1.57348657
      vertex 4.23227351 1.98658141 1.53644171
      vertex 4.23273527 1.98600681 1.53744946
    endloop
  endfacet
  facet normal 0.506299004 0.828216465 0.240247384
    outer loop
      vertex 4.31089424 2.10952291 1.5712901
      vertex 4.30821836 2.11081388 1.57247882
      vertex 4.30868012 2.11023928 1.57348657
    endloop
  endfacet
  facet normal -0.506299004 -0.828216465 -0.240247384
    outer loop
      vertex 4.23494939 1.98529044 1.53525299
      vertex 4.23273527 1.98600681 1.53744946
      vertex 4.23227351 1.98658141 1.53644171
    endloop
  endfacet
  facet normal -0.861257494 0.471563449 0.189376457
    outer loop
      vertex 4.30821836 2.11081388 1.57247882
      vertex 4.30816398 2.11119195 1.5712901
      vertex 4.23221913 1.98695948 1.53525299
    endloop
  endfacet
  facet normal -0.861257494 0.471563449 0.189376457
    outer loop
      vertex 4.30821836 2.11081388 1.57247882
      vertex 4.23221913 1.98695948 1.53525299
      vertex 4.23227351 1.98658141 1.53644171
    endloop
  endfacet
  facet normal 0.506299004 0.828216465 0.240247384
    outer loop
      vertex 4.31089424 2.10952291 1.5712901
      vertex 4.30816398 2.11119195 1.5712901
      vertex 4.30821836 2.11081388 1.57247882
    endloop
  endfacet
  facet normal -0.506299004 -0.828216465 -0.240247384
    outer loop
      vertex 4.23494939 1.98529044 1.53525299
      vertex 4.23227351 1.98658141 1.53644171
      vertex 4.23221913 1.98695948 1.53525299
    endloop
  endfacet
  facet normal -0.0551868316 -0.991951844 -0.113955925
    outer loop
      vertex 4.37283902 2.04705717 1.3950456
      vertex 4.37386208 2.04708243 1.3943303
      vertex 4.42521514 2.03583338 1.46738043
    endloop
  endfacet
  facet normal -0.0551868316 -0.991951844 -0.113955925
    outer loop
      vertex 4.37283902 2.04705717 1.3950456
      vertex 4.42521514 2.03583338 1.46738043
      vertex 4.42419208 2.03580813 1.46809574
    endloop
  endfacet
  facet normal -0.570589549 0.124989361 -0.811668175
    outer loop
      vertex 4.37352376 2.05018305 1.3950456
      vertex 4.37386208 2.04708243 1.3943303
      vertex 4.37283902 2.04705717 1.3950456
    endloop
  endfacet
  facet normal 0.570589549 -0.124989361 0.811668175
    outer loop
      vertex 4.42487682 2.03893401 1.46809574
      vertex 4.42419208 2.03580813 1.46809574
      vertex 4.42521514 2.03583338 1.46738043
    endloop
  endfacet
  facet normal 0.262576792 -0.908702831 -0.324519019
    outer loop
      vertex 4.37386208 2.04708243 1.3943303
      vertex 4.37483363 2.04757972 1.39372389
      vertex 4.42618669 2.03633068 1.46677403
    endloop
  endfacet
  facet normal 0.262576792 -0.908702831 -0.324519019
    outer loop
      vertex 4.37386208 2.04708243 1.3943303
      vertex 4.42618669 2.03633068 1.46677403
      vertex 4.42521514 2.03583338 1.46738043
    endloop
  endfacet
  facet normal -0.570589549 0.124989361 -0.811668175
    outer loop
      vertex 4.37352376 2.05018305 1.3950456
      vertex 4.37483363 2.04757972 1.39372389
      vertex 4.37386208 2.04708243 1.3943303
    endloop
  endfacet
  facet normal 0.570589549 -0.124989361 0.811668175
    outer loop
      vertex 4.42487682 2.03893401 1.46809574
      vertex 4.42521514 2.03583338 1.46738043
      vertex 4.42618669 2.03633068 1.46677403
    endloop
  endfacet
  facet normal 0.540365479 -0.687112049 -0.485677033
    outer loop
      vertex 4.37483363 2.04757972 1.39372389
      vertex 4.37560577 2.04847336 1.3933187
      vertex 4.42695883 2.03722431 1.46636884
    endloop
  endfacet
  facet normal 0.540365479 -0.687112049 -0.485677033
    outer loop
      vertex 4.37483363 2.04757972 1.39372389
      vertex 4.42695883 2.03722431 1.46636884
      vertex 4.42618669 2.03633068 1.46677403
    endloop
  endfacet
  facet normal -0.570589549 0.124989361 -0.811668175
    outer loop
      vertex 4.37352376 2.05018305 1.3950456
      vertex 4.37560577 2.04847336 1.3933187
      vertex 4.37483363 2.04757972 1.39372389
    endloop
  endfacet
  facet normal 0.570589549 -0.124989361 0.811668175
    outer loop
      vertex 4.42487682 2.03893401 1.46809574
      vertex 4.42618669 2.03633068 1.46677403
      vertex 4.42695883 2.03722431 1.46636884
    endloop
  endfacet
  facet normal 0.735888421 -0.360914687 -0.572895122
    outer loop
      vertex 4.37560577 2.04847336 1.3933187
      vertex 4.37606094 2.04962727 1.39317642
      vertex 4.427414 2.03837823 1.46622656
    endloop
  endfacet
  facet normal 0.735888421 -0.360914687 -0.572895122
    outer loop
      vertex 4.37560577 2.04847336 1.3933187
      vertex 4.427414 2.03837823 1.46622656
      vertex 4.42695883 2.03722431 1.46636884
    endloop
  endfacet
  facet normal -0.570589549 0.124989361 -0.811668175
    outer loop
      vertex 4.37352376 2.05018305 1.3950456
      vertex 4.37606094 2.04962727 1.39317642
      vertex 4.37560577 2.04847336 1.3933187
    endloop
  endfacet
  facet normal 0.570589549 -0.124989361 0.811668175
    outer loop
      vertex 4.42487682 2.03893401 1.46809574
      vertex 4.42695883 2.03722431 1.46636884
      vertex 4.427414 2.03837823 1.46622656
    endloop
  endfacet
  facet normal 0.819379021 0.020228665 -0.572895122
    outer loop
      vertex 4.37606094 2.04962727 1.39317642
      vertex 4.37612984 2.0508658 1.3933187
      vertex 4.4274829 2.03961676 1.46636884
    endloop
  endfacet
  facet normal 0.819379021 0.020228665 -0.572895122
    outer loop
      vertex 4.37606094 2.04962727 1.39317642
      vertex 4.4274829 2.03961676 1.46636884
      vertex 4.427414 2.03837823 1.46622656
    endloop
  endfacet
  facet normal -0.570589549 0.124989361 -0.811668175
    outer loop
      vertex 4.37352376 2.05018305 1.3950456
      vertex 4.37612984 2.0508658 1.3933187
      vertex 4.37606094 2.04962727 1.39317642
    endloop
  endfacet
  facet normal 0.570589549 -0.124989361 0.811668175
    outer loop
      vertex 4.42487682 2.03893401 1.46809574
      vertex 4.427414 2.03837823 1.46622656
      vertex 4.4274829 2.03961676 1.46636884
    endloop
  endfacet
  facet normal 0.778126593 0.398292386 -0.485677033
    outer loop
      vertex 4.37612984 2.0508658 1.3933187
      vertex 4.37580199 2.05200039 1.39372389
      vertex 4.42715505 2.04075135 1.46677403
    endloop
  endfacet
  facet normal 0.778126593 0.398292386 -0.485677033
    outer loop
      vertex 4.37612984 2.0508658 1.3933187
      vertex 4.42715505 2.04075135 1.46677403
      vertex 4.4274829 2.03961676 1.46636884
    endloop
  endfacet
  facet normal -0.570589549 0.124989361 -0.811668175
    outer loop
      vertex 4.37352376 2.05018305 1.3950456
      vertex 4.37580199 2.05200039 1.39372389
      vertex 4.37612984 2.0508658 1.3933187
    endloop
  endfacet
  facet normal 0.570589549 -0.124989361 0.811668175
    outer loop
      vertex 4.42487682 2.03893401 1.46809574
      vertex 4.4274829 2.03961676 1.46636884
      vertex 4.42715505 2.04075135 1.46677403
    endloop
  endfacet
  facet normal 0.618411445 0.715719702 -0.324519019
    outer loop
      vertex 4.37580199 2.05200039 1.39372389
      vertex 4.37512731 2.0528583 1.3943303
      vertex 4.42648037 2.04160926 1.46738043
    endloop
  endfacet
  facet normal 0.618411445 0.715719702 -0.324519019
    outer loop
      vertex 4.37580199 2.05200039 1.39372389
      vertex 4.42648037 2.04160926 1.46738043
      vertex 4.42715505 2.04075135 1.46677403
    endloop
  endfacet
  facet normal -0.570589549 0.124989361 -0.811668175
    outer loop
      vertex 4.37352376 2.05018305 1.3950456
      vertex 4.37512731 2.0528583 1.3943303
      vertex 4.37580199 2.05200039 1.39372389
    endloop
  endfacet
  facet normal 0.570589549 -0.124989361 0.811668175
    outer loop
      vertex 4.42487682 2.03893401 1.46809574
      vertex 4.42715505 2.04075135 1.46677403
      vertex 4.42648037 2.04160926 1.46738043
    endloop
  endfacet
  facet normal 0.36454876 0.924185181 -0.113955925
    outer loop
      vertex 4.37512731 2.0528583 1.3943303
      vertex 4.37420849 2.05330893 1.3950456
      vertex 4.42556155 2.04205989 1.46809574
    endloop
  endfacet
  facet normal 0.36454876 0.924185181 -0.113955925
    outer loop
      vertex 4.37512731 2.0528583 1.3943303
      vertex 4.42556155 2.04205989 1.46809574
      vertex 4.42648037 2.04160926 1.46738043
    endloop
  endfacet
  facet normal -0.570589549 0.124989361 -0.811668175
    outer loop
      vertex 4.37352376 2.05018305 1.3950456
      vertex 4.37420849 2.05330893 1.3950456
      vertex 4.37512731 2.0528583 1.3943303
    endloop
  endfacet
  facet normal 0.570589549 -0.124989361 0.811668175
    outer loop
      vertex 4.42487682 2.03893401 1.46809574
      vertex 4.42648037 2.04160926 1.46738043
      vertex 4.42556155 2.04205989 1.46809574
    endloop
  endfacet
  facet normal 0.0551868316 0.991951844 0.113955925
    outer loop
      vertex 4.37420849 2.05330893 1.3950456
      vertex 4.37318543 2.05328368 1.39576091
      vertex 4.42453849 2.04203463 1.46881104
    endloop
  endfacet
  facet normal 0.0551868316 0.991951844 0.113955925
    outer loop
      vertex 4.37420849 2.05330893 1.3950456
      vertex 4.42453849 2.04203463 1.46881104
      vertex 4.42556155 2.04205989 1.46809574
    endloop
  endfacet
  facet normal -0.570589549 0.124989361 -0.811668175
    outer loop
      vertex 4.37352376 2.05018305 1.3950456
      vertex 4.37318543 2.05328368 1.39576091
      vertex 4.37420849 2.05330893 1.3950456
    endloop
  endfacet
  facet normal 0.570589549 -0.124989361 0.811668175
    outer loop
      vertex 4.42487682 2.03893401 1.46809574
      vertex 4.42556155 2.04205989 1.46809574
      vertex 4.42453849 2.04203463 1.46881104
    endloop
  endfacet
  facet normal -0.262576792 0.908702831 0.324519019
    outer loop
      vertex 4.37318543 2.05328368 1.39576091
      vertex 4.37221388 2.05278638 1.39636731
      vertex 4.42356694 2.04153733 1.46941745
    endloop
  endfacet
  facet normal -0.262576792 0.908702831 0.324519019
    outer loop
      vertex 4.37318543 2.05328368 1.39576091
      vertex 4.42356694 2.04153733 1.46941745
      vertex 4.42453849 2.04203463 1.46881104
    endloop
  endfacet
  facet normal -0.570589549 0.124989361 -0.811668175
    outer loop
      vertex 4.37352376 2.05018305 1.3950456
      vertex 4.37221388 2.05278638 1.39636731
      vertex 4.37318543 2.05328368 1.39576091
    endloop
  endfacet
  facet normal 0.570589549 -0.124989361 0.811668175
    outer loop
      vertex 4.42487682 2.03893401 1.46809574
      vertex 4.42453849 2.04203463 1.46881104
      vertex 4.42356694 2.04153733 1.46941745
    endloop
  endfacet
  facet normal -0.540365479 0.687112049 0.485677033
    outer loop
      vertex 4.37221388 2.05278638 1.39636731
      vertex 4.37144175 2.05189274 1.3967725
      vertex 4.42279481 2.0406437 1.46982263
    endloop
  endfacet
  facet normal -0.540365479 0.687112049 0.485677033
    outer loop
      vertex 4.37221388 2.05278638 1.39636731
      vertex 4.42279481 2.0406437 1.46982263
      vertex 4.42356694 2.04153733 1.46941745
    endloop
  endfacet
  facet normal -0.570589549 0.124989361 -0.811668175
    outer loop
      vertex 4.37352376 2.05018305 1.3950456
      vertex 4.37144175 2.05189274 1.3967725
      vertex 4.37221388 2.05278638 1.39636731
    endloop
  endfacet
  facet normal 0.570589549 -0.124989361 0.811668175
    outer loop
      vertex 4.42487682 2.03893401 1.46809574
      vertex 4.42356694 2.04153733 1.46941745
      vertex 4.42279481 2.0406437 1.46982263
    endloop
  endfacet
  facet normal -0.735888421 0.360914687 0.572895122
    outer loop
      vertex 4.37144175 2.05189274 1.3967725
      vertex 4.37098658 2.05073883 1.39691478
      vertex 4.42233964 2.03948979 1.46996492
    endloop
  endfacet
  facet normal -0.735888421 0.360914687 0.572895122
    outer loop
      vertex 4.37144175 2.05189274 1.3967725
      vertex 4.42233964 2.03948979 1.46996492
      vertex 4.42279481 2.0406437 1.46982263
    endloop
  endfacet
  facet normal -0.570589549 0.124989361 -0.811668175
    outer loop
      vertex 4.37352376 2.05018305 1.3950456
      vertex 4.37098658 2.05073883 1.39691478
      vertex 4.37144175 2.05189274 1.3967725
    endloop
  endfacet
  facet normal 0.570589549 -0.124989361 0.811668175
    outer loop
      vertex 4.42487682 2.03893401 1.46809574
      vertex 4.42279481 2.0406437 1.46982263
      vertex 4.42233964 2.03948979 1.46996492
    endloop
  endfacet
  facet normal -0.819379021 -0.020228665 0.572895122
    outer loop
      vertex 4.37098658 2.05073883 1.39691478
      vertex 4.37091767 2.0495003 1.3967725
      vertex 4.42227073 2.03825126 1.46982263
    endloop
  endfacet
  facet normal -0.819379021 -0.020228665 0.572895122
    outer loop
      vertex 4.37098658 2.05073883 1.39691478
      vertex 4.42227073 2.03825126 1.46982263
      vertex 4.42233964 2.03948979 1.46996492
    endloop
  endfacet
  facet normal -0.570589549 0.124989361 -0.811668175
    outer loop
      vertex 4.37352376 2.05018305 1.3950456
      vertex 4.37091767 2.0495003 1.3967725
      vertex 4.37098658 2.05073883 1.39691478
    endloop
  endfacet
  facet normal 0.570589549 -0.124989361 0.811668175
    outer loop
      vertex 4.42487682 2.03893401 1.46809574
      vertex 4.42233964 2.03948979 1.46996492
      vertex 4.42227073 2.03825126 1.46982263
    endloop
  endfacet
  facet normal -0.778126593 -0.398292386 0.485677033
    outer loop
      vertex 4.37091767 2.0495003 1.3967725
      vertex 4.37124552 2.04836571 1.39636731
      vertex 4.42259858 2.03711667 1.46941745
    endloop
  endfacet
  facet normal -0.778126593 -0.398292386 0.485677033
    outer loop
      vertex 4.37091767 2.0495003 1.3967725
      vertex 4.42259858 2.03711667 1.46941745
      vertex 4.42227073 2.03825126 1.46982263
    endloop
  endfacet
  facet normal -0.570589549 0.124989361 -0.811668175
    outer loop
      vertex 4.37352376 2.05018305 1.3950456
      vertex 4.37124552 2.04836571 1.39636731
      vertex 4.37091767 2.0495003 1.3967725
    endloop
  endfacet
  facet normal 0.570589549 -0.124989361 0.811668175
    outer loop
      vertex 4.42487682 2.03893401 1.46809574
      vertex 4.42227073 2.03825126 1.46982263
      vertex 4.42259858 2.03711667 1.46941745
    endloop
  endfacet
  facet normal -0.618411445 -0.715719702 0.324519019
    outer loop
      vertex 4.37124552 2.04836571 1.39636731
      vertex 4.37192021 2.0475078 1.39576091
      vertex 4.42327327 2.03625876 1.46881104
    endloop
  endfacet
  facet normal -0.618411445 -0.715719702 0.324519019
    outer loop
      vertex 4.37124552 2.04836571 1.39636731
      vertex 4.42327327 2.03625876 1.46881104
      vertex 4.42259858 2.03711667 1.46941745
    endloop
  endfacet
  facet normal -0.570589549 0.124989361 -0.811668175
    outer loop
      vertex 4.37352376 2.05018305 1.3950456
      vertex 4.37192021 2.0475078 1.39576091
      vertex 4.37124552 2.04836571 1.39636731
    endloop
  endfacet
  facet normal 0.570589549 -0.124989361 0.811668175
    outer loop
      vertex 4.42487682 2.03893401 1.46809574
      vertex 4.42259858 2.03711667 1.46941745
      vertex 4.42327327 2.03625876 1.46881104
    endloop
  endfacet
  facet normal -0.36454876 -0.924185181 0.113955925
    outer loop
      vertex 4.37192021 2.0475078 1.39576091
      vertex 4.37283902 2.04705717 1.3950456
      vertex 4.42419208 2.03580813 1.46809574
    endloop
  endfacet
  facet normal -0.36454876 -0.924185181 0.113955925
    outer loop
      vertex 4.37192021 2.0475078 1.39576091
      vertex 4.42419208 2.03580813 1.46809574
      vertex 4.42327327 2.03625876 1.46881104
    endloop
  endfacet
  facet normal -0.570589549 0.124989361 -0.811668175
    outer loop
      vertex 4.37352376 2.05018305 1.3950456
      vertex 4.37283902 2.04705717 1.3950456
      vertex 4.37192021 2.0475078 1.39576091
    endloop
  endfacet
  facet normal 0.570589549 -0.124989361 0.811668175
    outer loop
      vertex 4.42487682 2.03893401 1.46809574
      vertex 4.42327327 2.03625876 1.46881104
      vertex 4.42419208 2.03580813 1.46809574
    endloop
  endfacet
  facet normal -0.0551868316 -0.991951844 -0.113955925
    outer loop
      vertex 4.35657895 2.02306192 1.40278112
      vertex 4.35760201 2.02308718 1.40206582
      vertex 4.40895507 2.01183814 1.47511595
    endloop
  endfacet
  facet normal -0.0551868316 -0.991951844 -0.113955925
    outer loop
      vertex 4.35657895 2.02306192 1.40278112
      vertex 4.40895507 2.01183814 1.47511595
      vertex 4.40793201 2.01181288 1.47583126
    endloop
  endfacet
  facet normal -0.570589549 0.124989361 -0.811668175
    outer loop
      vertex 4.35726369 2.02618781 1.40278112
      vertex 4.35760201 2.02308718 1.40206582
      vertex 4.35657895 2.02306192 1.40278112
    endloop
  endfacet
  facet normal 0.570589549 -0.124989361 0.811668175
    outer loop
      vertex 4.40861675 2.01493876 1.47583126
      vertex 4.40793201 2.01181288 1.47583126
      vertex 4.40895507 2.01183814 1.47511595
    endloop
  endfacet
  facet normal 0.262576792 -0.908702831 -0.324519019
    outer loop
      vertex 4.35760201 2.02308718 1.40206582
      vertex 4.35857356 2.02358448 1.40145941
      vertex 4.40992662 2.01233544 1.47450955
    endloop
  endfacet
  facet normal 0.262576792 -0.908702831 -0.324519019
    outer loop
      vertex 4.35760201 2.02308718 1.40206582
      vertex 4.40992662 2.01233544 1.47450955
      vertex 4.40895507 2.01183814 1.47511595
    endloop
  endfacet
  facet normal -0.570589549 0.124989361 -0.811668175
    outer loop
      vertex 4.35726369 2.02618781 1.40278112
      vertex 4.35857356 2.02358448 1.40145941
      vertex 4.35760201 2.02308718 1.40206582
    endloop
  endfacet
  facet normal 0.570589549 -0.124989361 0.811668175
    outer loop
      vertex 4.40861675 2.01493876 1.47583126
      vertex 4.40895507 2.01183814 1.47511595
      vertex 4.40992662 2.01233544 1.47450955
    endloop
  endfacet
  facet normal 0.540365479 -0.687112049 -0.485677033
    outer loop
      vertex 4.35857356 2.02358448 1.40145941
      vertex 4.3593457 2.02447811 1.40105423
      vertex 4.41069876 2.01322907 1.47410436
    endloop
  endfacet
  facet normal 0.540365479 -0.687112049 -0.485677033
    outer loop
      vertex 4.35857356 2.02358448 1.40145941
      vertex 4.41069876 2.01322907 1.47410436
      vertex 4.40992662 2.01233544 1.47450955
    endloop
  endfacet
  facet normal -0.570589549 0.124989361 -0.811668175
    outer loop
      vertex 4.35726369 2.02618781 1.40278112
      vertex 4.3593457 2.02447811 1.40105423
      vertex 4.35857356 2.02358448 1.40145941
    endloop
  endfacet
  facet normal 0.570589549 -0.124989361 0.811668175
    outer loop
      vertex 4.40861675 2.01493876 1.47583126
      vertex 4.40992662 2.01233544 1.47450955
      vertex 4.41069876 2.01322907 1.47410436
    endloop
  endfacet
  facet normal 0.735888421 -0.360914687 -0.572895122
    outer loop
      vertex 4.3593457 2.02447811 1.40105423
      vertex 4.35980087 2.02563203 1.40091194
      vertex 4.41115392 2.01438299 1.47396208
    endloop
  endfacet
  facet normal 0.735888421 -0.360914687 -0.572895122
    outer loop
      vertex 4.3593457 2.02447811 1.40105423
      vertex 4.41115392 2.01438299 1.47396208
      vertex 4.41069876 2.01322907 1.47410436
    endloop
  endfacet
  facet normal -0.570589549 0.124989361 -0.811668175
    outer loop
      vertex 4.35726369 2.02618781 1.40278112
      vertex 4.35980087 2.02563203 1.40091194
      vertex 4.3593457 2.02447811 1.40105423
    endloop
  endfacet
  facet normal 0.570589549 -0.124989361 0.811668175
    outer loop
      vertex 4.40861675 2.01493876 1.47583126
      vertex 4.41069876 2.01322907 1.47410436
      vertex 4.41115392 2.01438299 1.47396208
    endloop
  endfacet
  facet normal 0.819379021 0.020228665 -0.572895122
    outer loop
      vertex 4.35980087 2.02563203 1.40091194
      vertex 4.35986977 2.02687056 1.40105423
      vertex 4.41122283 2.01562152 1.47410436
    endloop
  endfacet
  facet normal 0.819379021 0.020228665 -0.572895122
    outer loop
      vertex 4.35980087 2.02563203 1.40091194
      vertex 4.41122283 2.01562152 1.47410436
      vertex 4.41115392 2.01438299 1.47396208
    endloop
  endfacet
  facet normal -0.570589549 0.124989361 -0.811668175
    outer loop
      vertex 4.35726369 2.02618781 1.40278112
      vertex 4.35986977 2.02687056 1.40105423
      vertex 4.35980087 2.02563203 1.40091194
    endloop
  endfacet
  facet normal 0.570589549 -0.124989361 0.811668175
    outer loop
      vertex 4.40861675 2.01493876 1.47583126
      vertex 4.41115392 2.01438299 1.47396208
      vertex 4.41122283 2.01562152 1.47410436
    endloop
  endfacet
  facet normal 0.778126593 0.398292386 -0.485677033
    outer loop
      vertex 4.35986977 2.02687056 1.40105423
      vertex 4.35954192 2.02800515 1.40145941
      vertex 4.41089498 2.0167561 1.47450955
    endloop
  endfacet
  facet normal 0.778126593 0.398292386 -0.485677033
    outer loop
      vertex 4.35986977 2.02687056 1.40105423
      vertex 4.41089498 2.0167561 1.47450955
      vertex 4.41122283 2.01562152 1.47410436
    endloop
  endfacet
  facet normal -0.570589549 0.124989361 -0.811668175
    outer loop
      vertex 4.35726369 2.02618781 1.40278112
      vertex 4.35954192 2.02800515 1.40145941
      vertex 4.35986977 2.02687056 1.40105423
    endloop
  endfacet
  facet normal 0.570589549 -0.124989361 0.811668175
    outer loop
      vertex 4.40861675 2.01493876 1.47583126
      vertex 4.41122283 2.01562152 1.47410436
      vertex 4.41089498 2.0167561 1.47450955
    endloop
  endfacet
  facet normal 0.618411445 0.715719702 -0.324519019
    outer loop
      vertex 4.35954192 2.02800515 1.40145941
      vertex 4.35886723 2.02886306 1.40206582
      vertex 4.41022029 2.01761402 1.47511595
    endloop
  endfacet
  facet normal 0.618411445 0.715719702 -0.324519019
    outer loop
      vertex 4.35954192 2.02800515 1.40145941
      vertex 4.41022029 2.01761402 1.47511595
      vertex 4.41089498 2.0167561 1.47450955
    endloop
  endfacet
  facet normal -0.570589549 0.124989361 -0.811668175
    outer loop
      vertex 4.35726369 2.02618781 1.40278112
      vertex 4.35886723 2.02886306 1.40206582
      vertex 4.35954192 2.02800515 1.40145941
    endloop
  endfacet
  facet normal 0.570589549 -0.124989361 0.811668175
    outer loop
      vertex 4.40861675 2.01493876 1.47583126
      vertex 4.41089498 2.0167561 1.47450955
      vertex 4.41022029 2.01761402 1.47511595
    endloop
  endfacet
  facet normal 0.36454876 0.924185181 -0.113955925
    outer loop
      vertex 4.35886723 2.02886306 1.40206582
      vertex 4.35794842 2.02931369 1.40278112
      vertex 4.40930148 2.01806465 1.47583126
    endloop
  endfacet
  facet normal 0.36454876 0.924185181 -0.113955925
    outer loop
      vertex 4.35886723 2.02886306 1.40206582
      vertex 4.40930148 2.01806465 1.47583126
      vertex 4.41022029 2.01761402 1.47511595
    endloop
  endfacet
  facet normal -0.570589549 0.124989361 -0.811668175
    outer loop
      vertex 4.35726369 2.02618781 1.40278112
      vertex 4.35794842 2.02931369 1.40278112
      vertex 4.35886723 2.02886306 1.40206582
    endloop
  endfacet
  facet normal 0.570589549 -0.124989361 0.811668175
    outer loop
      vertex 4.40861675 2.01493876 1.47583126
      vertex 4.41022029 2.01761402 1.47511595
      vertex 4.40930148 2.01806465 1.47583126
    endloop
  endfacet
  facet normal 0.0551868316 0.991951844 0.113955925
    outer loop
      vertex 4.35794842 2.02931369 1.40278112
      vertex 4.35692536 2.02928843 1.40349643
      vertex 4.40827842 2.01803939 1.47654656
    endloop
  endfacet
  facet normal 0.0551868316 0.991951844 0.113955925
    outer loop
      vertex 4.35794842 2.02931369 1.40278112
      vertex 4.40827842 2.01803939 1.47654656
      vertex 4.40930148 2.01806465 1.47583126
    endloop
  endfacet
  facet normal -0.570589549 0.124989361 -0.811668175
    outer loop
      vertex 4.35726369 2.02618781 1.40278112
      vertex 4.35692536 2.02928843 1.40349643
      vertex 4.35794842 2.02931369 1.40278112
    endloop
  endfacet
  facet normal 0.570589549 -0.124989361 0.811668175
    outer loop
      vertex 4.40861675 2.01493876 1.47583126
      vertex 4.40930148 2.01806465 1.47583126
      vertex 4.40827842 2.01803939 1.47654656
    endloop
  endfacet
  facet normal -0.262576792 0.908702831 0.324519019
    outer loop
      vertex 4.35692536 2.02928843 1.40349643
      vertex 4.35595381 2.02879113 1.40410283
      vertex 4.40730687 2.01754209 1.47715297
    endloop
  endfacet
  facet normal -0.262576792 0.908702831 0.324519019
    outer loop
      vertex 4.35692536 2.02928843 1.40349643
      vertex 4.40730687 2.01754209 1.47715297
      vertex 4.40827842 2.01803939 1.47654656
    endloop
  endfacet
  facet normal -0.570589549 0.124989361 -0.811668175
    outer loop
      vertex 4.35726369 2.02618781 1.40278112
      vertex 4.35595381 2.02879113 1.40410283
      vertex 4.35692536 2.02928843 1.40349643
    endloop
  endfacet
  facet normal 0.570589549 -0.124989361 0.811668175
    outer loop
      vertex 4.40861675 2.01493876 1.47583126
      vertex 4.40827842 2.01803939 1.47654656
      vertex 4.40730687 2.01754209 1.47715297
    endloop
  endfacet
  facet normal -0.540365479 0.687112049 0.485677033
    outer loop
      vertex 4.35595381 2.02879113 1.40410283
      vertex 4.35518167 2.0278975 1.40450802
      vertex 4.40653473 2.01664846 1.47755816
    endloop
  endfacet
  facet normal -0.540365479 0.687112049 0.485677033
    outer loop
      vertex 4.35595381 2.02879113 1.40410283
      vertex 4.40653473 2.01664846 1.47755816
      vertex 4.40730687 2.01754209 1.47715297
    endloop
  endfacet
  facet normal -0.570589549 0.124989361 -0.811668175
    outer loop
      vertex 4.35726369 2.02618781 1.40278112
      vertex 4.35518167 2.0278975 1.40450802
      vertex 4.35595381 2.02879113 1.40410283
    endloop
  endfacet
  facet normal 0.570589549 -0.124989361 0.811668175
    outer loop
      vertex 4.40861675 2.01493876 1.47583126
      vertex 4.40730687 2.01754209 1.47715297
      vertex 4.40653473 2.01664846 1.47755816
    endloop
  endfacet
  facet normal -0.735888421 0.360914687 0.572895122
    outer loop
      vertex 4.35518167 2.0278975 1.40450802
      vertex 4.35472651 2.02674358 1.4046503
      vertex 4.40607957 2.01549454 1.47770044
    endloop
  endfacet
  facet normal -0.735888421 0.360914687 0.572895122
    outer loop
      vertex 4.35518167 2.0278975 1.40450802
      vertex 4.40607957 2.01549454 1.47770044
      vertex 4.40653473 2.01664846 1.47755816
    endloop
  endfacet
  facet normal -0.570589549 0.124989361 -0.811668175
    outer loop
      vertex 4.35726369 2.02618781 1.40278112
      vertex 4.35472651 2.02674358 1.4046503
      vertex 4.35518167 2.0278975 1.40450802
    endloop
  endfacet
  facet normal 0.570589549 -0.124989361 0.811668175
    outer loop
      vertex 4.40861675 2.01493876 1.47583126
      vertex 4.40653473 2.01664846 1.47755816
      vertex 4.40607957 2.01549454 1.47770044
    endloop
  endfacet
  facet normal -0.819379021 -0.020228665 0.572895122
    outer loop
      vertex 4.35472651 2.02674358 1.4046503
      vertex 4.3546576 2.02550505 1.40450802
      vertex 4.40601066 2.01425601 1.47755816
    endloop
  endfacet
  facet normal -0.819379021 -0.020228665 0.572895122
    outer loop
      vertex 4.35472651 2.02674358 1.4046503
      vertex 4.40601066 2.01425601 1.47755816
      vertex 4.40607957 2.01549454 1.47770044
    endloop
  endfacet
  facet normal -0.570589549 0.124989361 -0.811668175
    outer loop
      vertex 4.35726369 2.02618781 1.40278112
      vertex 4.3546576 2.02550505 1.40450802
      vertex 4.35472651 2.02674358 1.4046503
    endloop
  endfacet
  facet normal 0.570589549 -0.124989361 0.811668175
    outer loop
      vertex 4.40861675 2.01493876 1.47583126
      vertex 4.40607957 2.01549454 1.47770044
      vertex 4.40601066 2.01425601 1.47755816
    endloop
  endfacet
  facet normal -0.778126593 -0.398292386 0.485677033
    outer loop
      vertex 4.3546576 2.02550505 1.40450802
      vertex 4.35498545 2.02437047 1.40410283
      vertex 4.40633851 2.01312142 1.47715297
    endloop
  endfacet
  facet normal -0.778126593 -0.398292386 0.485677033
    outer loop
      vertex 4.3546576 2.02550505 1.40450802
      vertex 4.40633851 2.01312142 1.47715297
      vertex 4.40601066 2.01425601 1.47755816
    endloop
  endfacet
  facet normal -0.570589549 0.124989361 -0.811668175
    outer loop
      vertex 4.35726369 2.02618781 1.40278112
      vertex 4.35498545 2.02437047 1.40410283
      vertex 4.3546576 2.02550505 1.40450802
    endloop
  endfacet
  facet normal 0.570589549 -0.124989361 0.811668175
    outer loop
      vertex 4.40861675 2.01493876 1.47583126
      vertex 4.40601066 2.01425601 1.47755816
      vertex 4.40633851 2.01312142 1.47715297
    endloop
  endfacet
  facet normal -0.618411445 -0.715719702 0.324519019
    outer loop
      vertex 4.35498545 2.02437047 1.40410283
      vertex 4.35566014 2.02351255 1.40349643
      vertex 4.4070132 2.01226351 1.47654656
    endloop
  endfacet
  facet normal -0.618411445 -0.715719702 0.324519019
    outer loop
      vertex 4.35498545 2.02437047 1.40410283
      vertex 4.4070132 2.01226351 1.47654656
      vertex 4.40633851 2.01312142 1.47715297
    endloop
  endfacet
  facet normal -0.570589549 0.124989361 -0.811668175
    outer loop
      vertex 4.35726369 2.02618781 1.40278112
      vertex 4.35566014 2.02351255 1.40349643
      vertex 4.35498545 2.02437047 1.40410283
    endloop
  endfacet
  facet normal 0.570589549 -0.124989361 0.811668175
    outer loop
      vertex 4.40861675 2.01493876 1.47583126
      vertex 4.40633851 2.01312142 1.47715297
      vertex 4.4070132 2.01226351 1.47654656
    endloop
  endfacet
  facet normal -0.36454876 -0.924185181 0.113955925
    outer loop
      vertex 4.35566014 2.02351255 1.40349643
      vertex 4.35657895 2.02306192 1.40278112
      vertex 4.40793201 2.01181288 1.47583126
    endloop
  endfacet
  facet normal -0.36454876 -0.924185181 0.113955925
    outer loop
      vertex 4.35566014 2.02351255 1.40349643
      vertex 4.40793201 2.01181288 1.47583126
      vertex 4.4070132 2.01226351 1.47654656
    endloop
  endfacet
  facet normal -0.570589549 0.124989361 -0.811668175
    outer loop
      vertex 4.35726369 2.02618781 1.40278112
      vertex 4.35657895 2.02306192 1.40278112
      vertex 4.35566014 2.02351255 1.40349643
    endloop
  endfacet
  facet normal 0.570589549 -0.124989361 0.811668175
    outer loop
      vertex 4.40861675 2.01493876 1.47583126
      vertex 4.4070132 2.01226351 1.47654656
      vertex 4.40793201 2.01181288 1.47583126
    endloop
  endfacet
endsolid a28_features
