solid e4_blank
  facet normal 0.656854962 0.25444963 0.709786549
    outer loop
      vertex 5.24609097 -1.07621784 1.0378916
      vertex 5.26852413 -1.03376484 1.0019125
      vertex 4.96629277 -0.729468998 1.17251901
    endloop
  endfacet
  facet normal 0.656854962 0.25444963 0.709786549
    outer loop
      vertex 5.24609097 -1.07621784 1.0378916
      vertex 4.96629277 -0.729468998 1.17251901
      vertex 4.94385962 -0.771922003 1.20849811
    endloop
  endfacet
  facet normal -0.373885966 -0.707550086 0.599651699
    outer loop
      vertex 5.24609097 -1.07621784 1.0378916
      vertex 4.94385962 -0.771922003 1.20849811
      vertex 4.89131122 -0.792277973 1.15171519
    endloop
  endfacet
  facet normal -0.373885966 -0.707550086 0.599651699
    outer loop
      vertex 5.24609097 -1.07621784 1.0378916
      vertex 4.89131122 -0.792277973 1.15171519
      vertex 5.19354258 -1.09657381 0.981108681
    endloop
  endfacet
  facet normal -0.654790686 0.659263424 0.369622639
    outer loop
      vertex 4.94385962 -0.771922003 1.20849811
      vertex 4.96629277 -0.729468998 1.17251901
      vertex 4.91374438 -0.749824968 1.11573609
    endloop
  endfacet
  facet normal -0.654790686 0.659263424 0.369622639
    outer loop
      vertex 4.94385962 -0.771922003 1.20849811
      vertex 4.91374438 -0.749824968 1.11573609
      vertex 4.89131122 -0.792277973 1.15171519
    endloop
  endfacet
  facet normal 0.373885966 0.707550086 -0.599651699
    outer loop
      vertex 4.96629277 -0.729468998 1.17251901
      vertex 5.26852413 -1.03376484 1.0019125
      vertex 5.21597573 -1.05412081 0.945129579
    endloop
  endfacet
  facet normal 0.373885966 0.707550086 -0.599651699
    outer loop
      vertex 4.96629277 -0.729468998 1.17251901
      vertex 5.21597573 -1.05412081 0.945129579
      vertex 4.91374438 -0.749824968 1.11573609
    endloop
  endfacet
  facet normal 0.654790686 -0.659263424 -0.369622639
    outer loop
      vertex 5.26852413 -1.03376484 1.0019125
      vertex 5.24609097 -1.07621784 1.0378916
      vertex 5.19354258 -1.09657381 0.981108681
    endloop
  endfacet
  facet normal 0.654790686 -0.659263424 -0.369622639
    outer loop
      vertex 5.26852413 -1.03376484 1.0019125
      vertex 5.19354258 -1.09657381 0.981108681
      vertex 5.21597573 -1.05412081 0.945129579
    endloop
  endfacet
  facet normal -0.656854962 -0.25444963 -0.709786549
    outer loop
      vertex 5.19354258 -1.09657381 0.981108681
      vertex 4.89131122 -0.792277973 1.15171519
      vertex 4.91374438 -0.749824968 1.11573609
    endloop
  endfacet
  facet normal -0.656854962 -0.25444963 -0.709786549
    outer loop
      vertex 5.19354258 -1.09657381 0.981108681
      vertex 4.91374438 -0.749824968 1.11573609
      vertex 5.21597573 -1.05412081 0.945129579
    endloop
  endfacet
endsolid e4_blank
