solid d15_features
  facet normal -0.901713303 0.395585691 -0.174427866
    outer loop
      vertex 0.903107963 3.3890569 1.89749858
      vertex 0.903361573 3.38933326 1.89681427
      vertex 0.849188596 3.22832589 1.81171482
    endloop
  endfacet
  facet normal -0.901713303 0.395585691 -0.174427866
    outer loop
      vertex 0.903107963 3.3890569 1.89749858
      vertex 0.849188596 3.22832589 1.81171482
      vertex 0.848934985 3.22804954 1.81239912
    endloop
  endfacet
  facet normal 0.285120935 0.847407191 0.447891845
    outer loop
      vertex 0.905003542 3.38841911 1.89749858
      vertex 0.903361573 3.38933326 1.89681427
      vertex 0.903107963 3.3890569 1.89749858
    endloop
  endfacet
  facet normal -0.285120935 -0.847407191 -0.447891845
    outer loop
      vertex 0.850830565 3.22741175 1.81239912
      vertex 0.848934985 3.22804954 1.81239912
      vertex 0.849188596 3.22832589 1.81171482
    endloop
  endfacet
  facet normal -0.708705781 0.500995885 -0.496728537
    outer loop
      vertex 0.903361573 3.38933326 1.89681427
      vertex 0.903865159 3.38947044 1.89623414
      vertex 0.849692181 3.22846308 1.81113469
    endloop
  endfacet
  facet normal -0.708705781 0.500995885 -0.496728537
    outer loop
      vertex 0.903361573 3.38933326 1.89681427
      vertex 0.849692181 3.22846308 1.81113469
      vertex 0.849188596 3.22832589 1.81171482
    endloop
  endfacet
  facet normal 0.285120935 0.847407191 0.447891845
    outer loop
      vertex 0.905003542 3.38841911 1.89749858
      vertex 0.903865159 3.38947044 1.89623414
      vertex 0.903361573 3.38933326 1.89681427
    endloop
  endfacet
  facet normal -0.285120935 -0.847407191 -0.447891845
    outer loop
      vertex 0.850830565 3.22741175 1.81239912
      vertex 0.849188596 3.22832589 1.81171482
      vertex 0.849692181 3.22846308 1.81113469
    endloop
  endfacet
  facet normal -0.407804228 0.530133998 -0.74340679
    outer loop
      vertex 0.903865159 3.38947044 1.89623414
      vertex 0.904542052 3.38944757 1.89584652
      vertex 0.850369075 3.22844021 1.81074707
    endloop
  endfacet
  facet normal -0.407804228 0.530133998 -0.74340679
    outer loop
      vertex 0.903865159 3.38947044 1.89623414
      vertex 0.850369075 3.22844021 1.81074707
      vertex 0.849692181 3.22846308 1.81113469
    endloop
  endfacet
  facet normal 0.285120935 0.847407191 0.447891845
    outer loop
      vertex 0.905003542 3.38841911 1.89749858
      vertex 0.904542052 3.38944757 1.89584652
      vertex 0.903865159 3.38947044 1.89623414
    endloop
  endfacet
  facet normal -0.285120935 -0.847407191 -0.447891845
    outer loop
      vertex 0.850830565 3.22741175 1.81239912
      vertex 0.849692181 3.22846308 1.81113469
      vertex 0.850369075 3.22844021 1.81074707
    endloop
  endfacet
  facet normal -0.0448181784 0.478564015 -0.876908099
    outer loop
      vertex 0.904542052 3.38944757 1.89584652
      vertex 0.905289204 3.38926813 1.8957104
      vertex 0.851116226 3.22826076 1.81061095
    endloop
  endfacet
  facet normal -0.0448181784 0.478564015 -0.876908099
    outer loop
      vertex 0.904542052 3.38944757 1.89584652
      vertex 0.851116226 3.22826076 1.81061095
      vertex 0.850369075 3.22844021 1.81074707
    endloop
  endfacet
  facet normal 0.285120935 0.847407191 0.447891845
    outer loop
      vertex 0.905003542 3.38841911 1.89749858
      vertex 0.905289204 3.38926813 1.8957104
      vertex 0.904542052 3.38944757 1.89584652
    endloop
  endfacet
  facet normal -0.285120935 -0.847407191 -0.447891845
    outer loop
      vertex 0.850830565 3.22741175 1.81239912
      vertex 0.850369075 3.22844021 1.81074707
      vertex 0.851116226 3.22826076 1.81061095
    endloop
  endfacet
  facet normal 0.324991033 0.354136999 -0.876908099
    outer loop
      vertex 0.905289204 3.38926813 1.8957104
      vertex 0.905992866 3.38895943 1.89584652
      vertex 0.851819889 3.22795206 1.81074707
    endloop
  endfacet
  facet normal 0.324991033 0.354136999 -0.876908099
    outer loop
      vertex 0.905289204 3.38926813 1.8957104
      vertex 0.851819889 3.22795206 1.81074707
      vertex 0.851116226 3.22826076 1.81061095
    endloop
  endfacet
  facet normal 0.285120935 0.847407191 0.447891845
    outer loop
      vertex 0.905003542 3.38841911 1.89749858
      vertex 0.905992866 3.38895943 1.89584652
      vertex 0.905289204 3.38926813 1.8957104
    endloop
  endfacet
  facet normal -0.285120935 -0.847407191 -0.447891845
    outer loop
      vertex 0.850830565 3.22741175 1.81239912
      vertex 0.851116226 3.22826076 1.81061095
      vertex 0.851819889 3.22795206 1.81074707
    endloop
  endfacet
  facet normal 0.645323305 0.175795835 -0.74340679
    outer loop
      vertex 0.905992866 3.38895943 1.89584652
      vertex 0.906545913 3.38856847 1.89623414
      vertex 0.852372935 3.2275611 1.81113469
    endloop
  endfacet
  facet normal 0.645323305 0.175795835 -0.74340679
    outer loop
      vertex 0.905992866 3.38895943 1.89584652
      vertex 0.852372935 3.2275611 1.81113469
      vertex 0.851819889 3.22795206 1.81074707
    endloop
  endfacet
  facet normal 0.285120935 0.847407191 0.447891845
    outer loop
      vertex 0.905003542 3.38841911 1.89749858
      vertex 0.906545913 3.38856847 1.89623414
      vertex 0.905992866 3.38895943 1.89584652
    endloop
  endfacet
  facet normal -0.285120935 -0.847407191 -0.447891845
    outer loop
      vertex 0.850830565 3.22741175 1.81239912
      vertex 0.851819889 3.22795206 1.81074707
      vertex 0.852372935 3.2275611 1.81113469
    endloop
  endfacet
  facet normal 0.867410954 -0.0293086511 -0.496728537
    outer loop
      vertex 0.906545913 3.38856847 1.89623414
      vertex 0.906864147 3.38815477 1.89681427
      vertex 0.85269117 3.22714741 1.81171482
    endloop
  endfacet
  facet normal 0.867410954 -0.0293086511 -0.496728537
    outer loop
      vertex 0.906545913 3.38856847 1.89623414
      vertex 0.85269117 3.22714741 1.81171482
      vertex 0.852372935 3.2275611 1.81113469
    endloop
  endfacet
  facet normal 0.285120935 0.847407191 0.447891845
    outer loop
      vertex 0.905003542 3.38841911 1.89749858
      vertex 0.906864147 3.38815477 1.89681427
      vertex 0.906545913 3.38856847 1.89623414
    endloop
  endfacet
  facet normal -0.285120935 -0.847407191 -0.447891845
    outer loop
      vertex 0.850830565 3.22741175 1.81239912
      vertex 0.852372935 3.2275611 1.81113469
      vertex 0.85269117 3.22714741 1.81171482
    endloop
  endfacet
  facet normal 0.957443149 -0.229951161 -0.174427866
    outer loop
      vertex 0.906864147 3.38815477 1.89681427
      vertex 0.906899122 3.38778132 1.89749858
      vertex 0.852726144 3.22677395 1.81239912
    endloop
  endfacet
  facet normal 0.957443149 -0.229951161 -0.174427866
    outer loop
      vertex 0.906864147 3.38815477 1.89681427
      vertex 0.852726144 3.22677395 1.81239912
      vertex 0.85269117 3.22714741 1.81171482
    endloop
  endfacet
  facet normal 0.285120935 0.847407191 0.447891845
    outer loop
      vertex 0.905003542 3.38841911 1.89749858
      vertex 0.906899122 3.38778132 1.89749858
      vertex 0.906864147 3.38815477 1.89681427
    endloop
  endfacet
  facet normal -0.285120935 -0.847407191 -0.447891845
    outer loop
      vertex 0.850830565 3.22741175 1.81239912
      vertex 0.85269117 3.22714741 1.81171482
      vertex 0.852726144 3.22677395 1.81239912
    endloop
  endfacet
  facet normal 0.901713303 -0.395585691 0.174427866
    outer loop
      vertex 0.906899122 3.38778132 1.89749858
      vertex 0.906645511 3.38750497 1.89818288
      vertex 0.852472534 3.2264976 1.81308343
    endloop
  endfacet
  facet normal 0.901713303 -0.395585691 0.174427866
    outer loop
      vertex 0.906899122 3.38778132 1.89749858
      vertex 0.852472534 3.2264976 1.81308343
      vertex 0.852726144 3.22677395 1.81239912
    endloop
  endfacet
  facet normal 0.285120935 0.847407191 0.447891845
    outer loop
      vertex 0.905003542 3.38841911 1.89749858
      vertex 0.906645511 3.38750497 1.89818288
      vertex 0.906899122 3.38778132 1.89749858
    endloop
  endfacet
  facet normal -0.285120935 -0.847407191 -0.447891845
    outer loop
      vertex 0.850830565 3.22741175 1.81239912
      vertex 0.852726144 3.22677395 1.81239912
      vertex 0.852472534 3.2264976 1.81308343
    endloop
  endfacet
  facet normal 0.708705781 -0.500995885 0.496728537
    outer loop
      vertex 0.906645511 3.38750497 1.89818288
      vertex 0.906141926 3.38736778 1.89876301
      vertex 0.851968948 3.22636042 1.81366356
    endloop
  endfacet
  facet normal 0.708705781 -0.500995885 0.496728537
    outer loop
      vertex 0.906645511 3.38750497 1.89818288
      vertex 0.851968948 3.22636042 1.81366356
      vertex 0.852472534 3.2264976 1.81308343
    endloop
  endfacet
  facet normal 0.285120935 0.847407191 0.447891845
    outer loop
      vertex 0.905003542 3.38841911 1.89749858
      vertex 0.906141926 3.38736778 1.89876301
      vertex 0.906645511 3.38750497 1.89818288
    endloop
  endfacet
  facet normal -0.285120935 -0.847407191 -0.447891845
    outer loop
      vertex 0.850830565 3.22741175 1.81239912
      vertex 0.852472534 3.2264976 1.81308343
      vertex 0.851968948 3.22636042 1.81366356
    endloop
  endfacet
  facet normal 0.407804228 -0.530133998 0.74340679
    outer loop
      vertex 0.906141926 3.38736778 1.89876301
      vertex 0.905465032 3.38739065 1.89915063
      vertex 0.851292054 3.22638329 1.81405118
    endloop
  endfacet
  facet normal 0.407804228 -0.530133998 0.74340679
    outer loop
      vertex 0.906141926 3.38736778 1.89876301
      vertex 0.851292054 3.22638329 1.81405118
      vertex 0.851968948 3.22636042 1.81366356
    endloop
  endfacet
  facet normal 0.285120935 0.847407191 0.447891845
    outer loop
      vertex 0.905003542 3.38841911 1.89749858
      vertex 0.905465032 3.38739065 1.89915063
      vertex 0.906141926 3.38736778 1.89876301
    endloop
  endfacet
  facet normal -0.285120935 -0.847407191 -0.447891845
    outer loop
      vertex 0.850830565 3.22741175 1.81239912
      vertex 0.851968948 3.22636042 1.81366356
      vertex 0.851292054 3.22638329 1.81405118
    endloop
  endfacet
  facet normal 0.0448181784 -0.478564015 0.876908099
    outer loop
      vertex 0.905465032 3.38739065 1.89915063
      vertex 0.90471788 3.3875701 1.89928675
      vertex 0.850544903 3.22656273 1.8141873
    endloop
  endfacet
  facet normal 0.0448181784 -0.478564015 0.876908099
    outer loop
      vertex 0.905465032 3.38739065 1.89915063
      vertex 0.850544903 3.22656273 1.8141873
      vertex 0.851292054 3.22638329 1.81405118
    endloop
  endfacet
  facet normal 0.285120935 0.847407191 0.447891845
    outer loop
      vertex 0.905003542 3.38841911 1.89749858
      vertex 0.90471788 3.3875701 1.89928675
      vertex 0.905465032 3.38739065 1.89915063
    endloop
  endfacet
  facet normal -0.285120935 -0.847407191 -0.447891845
    outer loop
      vertex 0.850830565 3.22741175 1.81239912
      vertex 0.851292054 3.22638329 1.81405118
      vertex 0.850544903 3.22656273 1.8141873
    endloop
  endfacet
  facet normal -0.324991033 -0.354136999 0.876908099
    outer loop
      vertex 0.90471788 3.3875701 1.89928675
      vertex 0.904014218 3.3878788 1.89915063
      vertex 0.849841241 3.22687143 1.81405118
    endloop
  endfacet
  facet normal -0.324991033 -0.354136999 0.876908099
    outer loop
      vertex 0.90471788 3.3875701 1.89928675
      vertex 0.849841241 3.22687143 1.81405118
      vertex 0.850544903 3.22656273 1.8141873
    endloop
  endfacet
  facet normal 0.285120935 0.847407191 0.447891845
    outer loop
      vertex 0.905003542 3.38841911 1.89749858
      vertex 0.904014218 3.3878788 1.89915063
      vertex 0.90471788 3.3875701 1.89928675
    endloop
  endfacet
  facet normal -0.285120935 -0.847407191 -0.447891845
    outer loop
      vertex 0.850830565 3.22741175 1.81239912
      vertex 0.850544903 3.22656273 1.8141873
      vertex 0.849841241 3.22687143 1.81405118
    endloop
  endfacet
  facet normal -0.645323305 -0.175795835 0.74340679
    outer loop
      vertex 0.904014218 3.3878788 1.89915063
      vertex 0.903461172 3.38826976 1.89876301
      vertex 0.849288194 3.22726239 1.81366356
    endloop
  endfacet
  facet normal -0.645323305 -0.175795835 0.74340679
    outer loop
      vertex 0.904014218 3.3878788 1.89915063
      vertex 0.849288194 3.22726239 1.81366356
      vertex 0.849841241 3.22687143 1.81405118
    endloop
  endfacet
  facet normal 0.285120935 0.847407191 0.447891845
    outer loop
      vertex 0.905003542 3.38841911 1.89749858
      vertex 0.903461172 3.38826976 1.89876301
      vertex 0.904014218 3.3878788 1.89915063
    endloop
  endfacet
  facet normal -0.285120935 -0.847407191 -0.447891845
    outer loop
      vertex 0.850830565 3.22741175 1.81239912
      vertex 0.849841241 3.22687143 1.81405118
      vertex 0.849288194 3.22726239 1.81366356
    endloop
  endfacet
  facet normal -0.867410954 0.0293086511 0.496728537
    outer loop
      vertex 0.903461172 3.38826976 1.89876301
      vertex 0.903142937 3.38868345 1.89818288
      vertex 0.848969959 3.22767609 1.81308343
    endloop
  endfacet
  facet normal -0.867410954 0.0293086511 0.496728537
    outer loop
      vertex 0.903461172 3.38826976 1.89876301
      vertex 0.848969959 3.22767609 1.81308343
      vertex 0.849288194 3.22726239 1.81366356
    endloop
  endfacet
  facet normal 0.285120935 0.847407191 0.447891845
    outer loop
      vertex 0.905003542 3.38841911 1.89749858
      vertex 0.903142937 3.38868345 1.89818288
      vertex 0.903461172 3.38826976 1.89876301
    endloop
  endfacet
  facet normal -0.285120935 -0.847407191 -0.447891845
    outer loop
      vertex 0.850830565 3.22741175 1.81239912
      vertex 0.849288194 3.22726239 1.81366356
      vertex 0.848969959 3.22767609 1.81308343
    endloop
  endfacet
  facet normal -0.957443149 0.229951161 0.174427866
    outer loop
      vertex 0.903142937 3.38868345 1.89818288
      vertex 0.903107963 3.3890569 1.89749858
      vertex 0.848934985 3.22804954 1.81239912
    endloop
  endfacet
  facet normal -0.957443149 0.229951161 0.174427866
    outer loop
      vertex 0.903142937 3.38868345 1.89818288
      vertex 0.848934985 3.22804954 1.81239912
      vertex 0.848969959 3.22767609 1.81308343
    endloop
  endfacet
  facet normal 0.285120935 0.847407191 0.447891845
    outer loop
      vertex 0.905003542 3.38841911 1.89749858
      vertex 0.903107963 3.3890569 1.89749858
      vertex 0.903142937 3.38868345 1.89818288
    endloop
  endfacet
  facet normal -0.285120935 -0.847407191 -0.447891845
    outer loop
      vertex 0.850830565 3.22741175 1.81239912
      vertex 0.848969959 3.22767609 1.81308343
      vertex 0.848934985 3.22804954 1.81239912
    endloop
  endfacet
  facet normal -0.901713303 0.395585691 -0.174427866
    outer loop
      vertex 0.871678287 3.38718023 1.8838435
      vertex 0.871931897 3.38745659 1.88315919
      vertex 0.81775892 3.22644922 1.79805974
    endloop
  endfacet
  facet normal -0.901713303 0.395585691 -0.174427866
    outer loop
      vertex 0.871678287 3.38718023 1.8838435
      vertex 0.81775892 3.22644922 1.79805974
      vertex 0.817505309 3.22617287 1.79874405
    endloop
  endfacet
  facet normal 0.285120935 0.847407191 0.447891845
    outer loop
      vertex 0.873573866 3.38654244 1.8838435
      vertex 0.871931897 3.38745659 1.88315919
      vertex 0.871678287 3.38718023 1.8838435
    endloop
  endfacet
  facet normal -0.285120935 -0.847407191 -0.447891845
    outer loop
      vertex 0.819400889 3.22553508 1.79874405
      vertex 0.817505309 3.22617287 1.79874405
      vertex 0.81775892 3.22644922 1.79805974
    endloop
  endfacet
  facet normal -0.708705781 0.500995885 -0.496728537
    outer loop
      vertex 0.871931897 3.38745659 1.88315919
      vertex 0.872435483 3.38759377 1.88257907
      vertex 0.818262505 3.22658641 1.79747961
    endloop
  endfacet
  facet normal -0.708705781 0.500995885 -0.496728537
    outer loop
      vertex 0.871931897 3.38745659 1.88315919
      vertex 0.818262505 3.22658641 1.79747961
      vertex 0.81775892 3.22644922 1.79805974
    endloop
  endfacet
  facet normal 0.285120935 0.847407191 0.447891845
    outer loop
      vertex 0.873573866 3.38654244 1.8838435
      vertex 0.872435483 3.38759377 1.88257907
      vertex 0.871931897 3.38745659 1.88315919
    endloop
  endfacet
  facet normal -0.285120935 -0.847407191 -0.447891845
    outer loop
      vertex 0.819400889 3.22553508 1.79874405
      vertex 0.81775892 3.22644922 1.79805974
      vertex 0.818262505 3.22658641 1.79747961
    endloop
  endfacet
  facet normal -0.407804228 0.530133998 -0.74340679
    outer loop
      vertex 0.872435483 3.38759377 1.88257907
      vertex 0.873112377 3.3875709 1.88219144
      vertex 0.818939399 3.22656354 1.79709199
    endloop
  endfacet
  facet normal -0.407804228 0.530133998 -0.74340679
    outer loop
      vertex 0.872435483 3.38759377 1.88257907
      vertex 0.818939399 3.22656354 1.79709199
      vertex 0.818262505 3.22658641 1.79747961
    endloop
  endfacet
  facet normal 0.285120935 0.847407191 0.447891845
    outer loop
      vertex 0.873573866 3.38654244 1.8838435
      vertex 0.873112377 3.3875709 1.88219144
      vertex 0.872435483 3.38759377 1.88257907
    endloop
  endfacet
  facet normal -0.285120935 -0.847407191 -0.447891845
    outer loop
      vertex 0.819400889 3.22553508 1.79874405
      vertex 0.818262505 3.22658641 1.79747961
      vertex 0.818939399 3.22656354 1.79709199
    endloop
  endfacet
  facet normal -0.0448181784 0.478564015 -0.876908099
    outer loop
      vertex 0.873112377 3.3875709 1.88219144
      vertex 0.873859528 3.38739146 1.88205532
      vertex 0.81968655 3.22638409 1.79695587
    endloop
  endfacet
  facet normal -0.0448181784 0.478564015 -0.876908099
    outer loop
      vertex 0.873112377 3.3875709 1.88219144
      vertex 0.81968655 3.22638409 1.79695587
      vertex 0.818939399 3.22656354 1.79709199
    endloop
  endfacet
  facet normal 0.285120935 0.847407191 0.447891845
    outer loop
      vertex 0.873573866 3.38654244 1.8838435
      vertex 0.873859528 3.38739146 1.88205532
      vertex 0.873112377 3.3875709 1.88219144
    endloop
  endfacet
  facet normal -0.285120935 -0.847407191 -0.447891845
    outer loop
      vertex 0.819400889 3.22553508 1.79874405
      vertex 0.818939399 3.22656354 1.79709199
      vertex 0.81968655 3.22638409 1.79695587
    endloop
  endfacet
  facet normal 0.324991033 0.354136999 -0.876908099
    outer loop
      vertex 0.873859528 3.38739146 1.88205532
      vertex 0.87456319 3.38708276 1.88219144
      vertex 0.820390213 3.22607539 1.79709199
    endloop
  endfacet
  facet normal 0.324991033 0.354136999 -0.876908099
    outer loop
      vertex 0.873859528 3.38739146 1.88205532
      vertex 0.820390213 3.22607539 1.79709199
      vertex 0.81968655 3.22638409 1.79695587
    endloop
  endfacet
  facet normal 0.285120935 0.847407191 0.447891845
    outer loop
      vertex 0.873573866 3.38654244 1.8838435
      vertex 0.87456319 3.38708276 1.88219144
      vertex 0.873859528 3.38739146 1.88205532
    endloop
  endfacet
  facet normal -0.285120935 -0.847407191 -0.447891845
    outer loop
      vertex 0.819400889 3.22553508 1.79874405
      vertex 0.81968655 3.22638409 1.79695587
      vertex 0.820390213 3.22607539 1.79709199
    endloop
  endfacet
  facet normal 0.645323305 0.175795835 -0.74340679
    outer loop
      vertex 0.87456319 3.38708276 1.88219144
      vertex 0.875116237 3.3866918 1.88257907
      vertex 0.820943259 3.22568443 1.79747961
    endloop
  endfacet
  facet normal 0.645323305 0.175795835 -0.74340679
    outer loop
      vertex 0.87456319 3.38708276 1.88219144
      vertex 0.820943259 3.22568443 1.79747961
      vertex 0.820390213 3.22607539 1.79709199
    endloop
  endfacet
  facet normal 0.285120935 0.847407191 0.447891845
    outer loop
      vertex 0.873573866 3.38654244 1.8838435
      vertex 0.875116237 3.3866918 1.88257907
      vertex 0.87456319 3.38708276 1.88219144
    endloop
  endfacet
  facet normal -0.285120935 -0.847407191 -0.447891845
    outer loop
      vertex 0.819400889 3.22553508 1.79874405
      vertex 0.820390213 3.22607539 1.79709199
      vertex 0.820943259 3.22568443 1.79747961
    endloop
  endfacet
  facet normal 0.867410954 -0.0293086511 -0.496728537
    outer loop
      vertex 0.875116237 3.3866918 1.88257907
      vertex 0.875434471 3.3862781 1.88315919
      vertex 0.821261494 3.22527074 1.79805974
    endloop
  endfacet
  facet normal 0.867410954 -0.0293086511 -0.496728537
    outer loop
      vertex 0.875116237 3.3866918 1.88257907
      vertex 0.821261494 3.22527074 1.79805974
      vertex 0.820943259 3.22568443 1.79747961
    endloop
  endfacet
  facet normal 0.285120935 0.847407191 0.447891845
    outer loop
      vertex 0.873573866 3.38654244 1.8838435
      vertex 0.875434471 3.3862781 1.88315919
      vertex 0.875116237 3.3866918 1.88257907
    endloop
  endfacet
  facet normal -0.285120935 -0.847407191 -0.447891845
    outer loop
      vertex 0.819400889 3.22553508 1.79874405
      vertex 0.820943259 3.22568443 1.79747961
      vertex 0.821261494 3.22527074 1.79805974
    endloop
  endfacet
  facet normal 0.957443149 -0.229951161 -0.174427866
    outer loop
      vertex 0.875434471 3.3862781 1.88315919
      vertex 0.875469446 3.38590465 1.8838435
      vertex 0.821296468 3.22489728 1.79874405
    endloop
  endfacet
  facet normal 0.957443149 -0.229951161 -0.174427866
    outer loop
      vertex 0.875434471 3.3862781 1.88315919
      vertex 0.821296468 3.22489728 1.79874405
      vertex 0.821261494 3.22527074 1.79805974
    endloop
  endfacet
  facet normal 0.285120935 0.847407191 0.447891845
    outer loop
      vertex 0.873573866 3.38654244 1.8838435
      vertex 0.875469446 3.38590465 1.8838435
      vertex 0.875434471 3.3862781 1.88315919
    endloop
  endfacet
  facet normal -0.285120935 -0.847407191 -0.447891845
    outer loop
      vertex 0.819400889 3.22553508 1.79874405
      vertex 0.821261494 3.22527074 1.79805974
      vertex 0.821296468 3.22489728 1.79874405
    endloop
  endfacet
  facet normal 0.901713303 -0.395585691 0.174427866
    outer loop
      vertex 0.875469446 3.38590465 1.8838435
      vertex 0.875215835 3.3856283 1.8845278
      vertex 0.821042858 3.22462093 1.79942835
    endloop
  endfacet
  facet normal 0.901713303 -0.395585691 0.174427866
    outer loop
      vertex 0.875469446 3.38590465 1.8838435
      vertex 0.821042858 3.22462093 1.79942835
      vertex 0.821296468 3.22489728 1.79874405
    endloop
  endfacet
  facet normal 0.285120935 0.847407191 0.447891845
    outer loop
      vertex 0.873573866 3.38654244 1.8838435
      vertex 0.875215835 3.3856283 1.8845278
      vertex 0.875469446 3.38590465 1.8838435
    endloop
  endfacet
  facet normal -0.285120935 -0.847407191 -0.447891845
    outer loop
      vertex 0.819400889 3.22553508 1.79874405
      vertex 0.821296468 3.22489728 1.79874405
      vertex 0.821042858 3.22462093 1.79942835
    endloop
  endfacet
  facet normal 0.708705781 -0.500995885 0.496728537
    outer loop
      vertex 0.875215835 3.3856283 1.8845278
      vertex 0.87471225 3.38549111 1.88510793
      vertex 0.820539272 3.22448375 1.80000848
    endloop
  endfacet
  facet normal 0.708705781 -0.500995885 0.496728537
    outer loop
      vertex 0.875215835 3.3856283 1.8845278
      vertex 0.820539272 3.22448375 1.80000848
      vertex 0.821042858 3.22462093 1.79942835
    endloop
  endfacet
  facet normal 0.285120935 0.847407191 0.447891845
    outer loop
      vertex 0.873573866 3.38654244 1.8838435
      vertex 0.87471225 3.38549111 1.88510793
      vertex 0.875215835 3.3856283 1.8845278
    endloop
  endfacet
  facet normal -0.285120935 -0.847407191 -0.447891845
    outer loop
      vertex 0.819400889 3.22553508 1.79874405
      vertex 0.821042858 3.22462093 1.79942835
      vertex 0.820539272 3.22448375 1.80000848
    endloop
  endfacet
  facet normal 0.407804228 -0.530133998 0.74340679
    outer loop
      vertex 0.87471225 3.38549111 1.88510793
      vertex 0.874035356 3.38551398 1.88549556
      vertex 0.819862379 3.22450662 1.8003961
    endloop
  endfacet
  facet normal 0.407804228 -0.530133998 0.74340679
    outer loop
      vertex 0.87471225 3.38549111 1.88510793
      vertex 0.819862379 3.22450662 1.8003961
      vertex 0.820539272 3.22448375 1.80000848
    endloop
  endfacet
  facet normal 0.285120935 0.847407191 0.447891845
    outer loop
      vertex 0.873573866 3.38654244 1.8838435
      vertex 0.874035356 3.38551398 1.88549556
      vertex 0.87471225 3.38549111 1.88510793
    endloop
  endfacet
  facet normal -0.285120935 -0.847407191 -0.447891845
    outer loop
      vertex 0.819400889 3.22553508 1.79874405
      vertex 0.820539272 3.22448375 1.80000848
      vertex 0.819862379 3.22450662 1.8003961
    endloop
  endfacet
  facet normal 0.0448181784 -0.478564015 0.876908099
    outer loop
      vertex 0.874035356 3.38551398 1.88549556
      vertex 0.873288205 3.38569343 1.88563167
      vertex 0.819115227 3.22468606 1.80053222
    endloop
  endfacet
  facet normal 0.0448181784 -0.478564015 0.876908099
    outer loop
      vertex 0.874035356 3.38551398 1.88549556
      vertex 0.819115227 3.22468606 1.80053222
      vertex 0.819862379 3.22450662 1.8003961
    endloop
  endfacet
  facet normal 0.285120935 0.847407191 0.447891845
    outer loop
      vertex 0.873573866 3.38654244 1.8838435
      vertex 0.873288205 3.38569343 1.88563167
      vertex 0.874035356 3.38551398 1.88549556
    endloop
  endfacet
  facet normal -0.285120935 -0.847407191 -0.447891845
    outer loop
      vertex 0.819400889 3.22553508 1.79874405
      vertex 0.819862379 3.22450662 1.8003961
      vertex 0.819115227 3.22468606 1.80053222
    endloop
  endfacet
  facet normal -0.324991033 -0.354136999 0.876908099
    outer loop
      vertex 0.873288205 3.38569343 1.88563167
      vertex 0.872584542 3.38600213 1.88549556
      vertex 0.818411565 3.22499476 1.8003961
    endloop
  endfacet
  facet normal -0.324991033 -0.354136999 0.876908099
    outer loop
      vertex 0.873288205 3.38569343 1.88563167
      vertex 0.818411565 3.22499476 1.8003961
      vertex 0.819115227 3.22468606 1.80053222
    endloop
  endfacet
  facet normal 0.285120935 0.847407191 0.447891845
    outer loop
      vertex 0.873573866 3.38654244 1.8838435
      vertex 0.872584542 3.38600213 1.88549556
      vertex 0.873288205 3.38569343 1.88563167
    endloop
  endfacet
  facet normal -0.285120935 -0.847407191 -0.447891845
    outer loop
      vertex 0.819400889 3.22553508 1.79874405
      vertex 0.819115227 3.22468606 1.80053222
      vertex 0.818411565 3.22499476 1.8003961
    endloop
  endfacet
  facet normal -0.645323305 -0.175795835 0.74340679
    outer loop
      vertex 0.872584542 3.38600213 1.88549556
      vertex 0.872031496 3.38639309 1.88510793
      vertex 0.817858518 3.22538572 1.80000848
    endloop
  endfacet
  facet normal -0.645323305 -0.175795835 0.74340679
    outer loop
      vertex 0.872584542 3.38600213 1.88549556
      vertex 0.817858518 3.22538572 1.80000848
      vertex 0.818411565 3.22499476 1.8003961
    endloop
  endfacet
  facet normal 0.285120935 0.847407191 0.447891845
    outer loop
      vertex 0.873573866 3.38654244 1.8838435
      vertex 0.872031496 3.38639309 1.88510793
      vertex 0.872584542 3.38600213 1.88549556
    endloop
  endfacet
  facet normal -0.285120935 -0.847407191 -0.447891845
    outer loop
      vertex 0.819400889 3.22553508 1.79874405
      vertex 0.818411565 3.22499476 1.8003961
      vertex 0.817858518 3.22538572 1.80000848
    endloop
  endfacet
  facet normal -0.867410954 0.0293086511 0.496728537
    outer loop
      vertex 0.872031496 3.38639309 1.88510793
      vertex 0.871713261 3.38680678 1.8845278
      vertex 0.817540284 3.22579942 1.79942835
    endloop
  endfacet
  facet normal -0.867410954 0.0293086511 0.496728537
    outer loop
      vertex 0.872031496 3.38639309 1.88510793
      vertex 0.817540284 3.22579942 1.79942835
      vertex 0.817858518 3.22538572 1.80000848
    endloop
  endfacet
  facet normal 0.285120935 0.847407191 0.447891845
    outer loop
      vertex 0.873573866 3.38654244 1.8838435
      vertex 0.871713261 3.38680678 1.8845278
      vertex 0.872031496 3.38639309 1.88510793
    endloop
  endfacet
  facet normal -0.285120935 -0.847407191 -0.447891845
    outer loop
      vertex 0.819400889 3.22553508 1.79874405
      vertex 0.817858518 3.22538572 1.80000848
      vertex 0.817540284 3.22579942 1.79942835
    endloop
  endfacet
  facet normal -0.957443149 0.229951161 0.174427866
    outer loop
      vertex 0.871713261 3.38680678 1.8845278
      vertex 0.871678287 3.38718023 1.8838435
      vertex 0.817505309 3.22617287 1.79874405
    endloop
  endfacet
  facet normal -0.957443149 0.229951161 0.174427866
    outer loop
      vertex 0.871713261 3.38680678 1.8845278
      vertex 0.817505309 3.22617287 1.79874405
      vertex 0.817540284 3.22579942 1.79942835
    endloop
  endfacet
  facet normal 0.285120935 0.847407191 0.447891845
    outer loop
      vertex 0.873573866 3.38654244 1.8838435
      vertex 0.871678287 3.38718023 1.8838435
      vertex 0.871713261 3.38680678 1.8845278
    endloop
  endfacet
  facet normal -0.285120935 -0.847407191 -0.447891845
    outer loop
      vertex 0.819400889 3.22553508 1.79874405
      vertex 0.817540284 3.22579942 1.79942835
      vertex 0.817505309 3.22617287 1.79874405
    endloop
  endfacet
  facet normal -0.924497666 0.335980957 -0.180057942
    outer loop
      vertex 1.11614691 3.41228085 1.99133977
      vertex 1.11637274 3.41252369 1.99063338
      vertex 1.06923346 3.2436185 1.91749704
    endloop
  endfacet
  facet normal -0.924497666 0.335980957 -0.180057942
    outer loop
      vertex 1.11614691 3.41228085 1.99133977
      vertex 1.06923346 3.2436185 1.91749704
      vertex 1.06900763 3.24337565 1.91820343
    endloop
  endfacet
  facet normal 0.248101448 0.888974704 0.384928106
    outer loop
      vertex 1.11807329 3.41174322 1.99133977
      vertex 1.11637274 3.41252369 1.99063338
      vertex 1.11614691 3.41228085 1.99133977
    endloop
  endfacet
  facet normal -0.248101448 -0.888974704 -0.384928106
    outer loop
      vertex 1.07093401 3.24283802 1.91820343
      vertex 1.06900763 3.24337565 1.91820343
      vertex 1.06923346 3.2436185 1.91749704
    endloop
  endfacet
  facet normal -0.74337762 0.429494143 -0.512761636
    outer loop
      vertex 1.11637274 3.41252369 1.99063338
      vertex 1.11685747 3.41264771 1.99003453
      vertex 1.06971819 3.24374252 1.91689819
    endloop
  endfacet
  facet normal -0.74337762 0.429494143 -0.512761636
    outer loop
      vertex 1.11637274 3.41252369 1.99063338
      vertex 1.06971819 3.24374252 1.91689819
      vertex 1.06923346 3.2436185 1.91749704
    endloop
  endfacet
  facet normal 0.248101448 0.888974704 0.384928106
    outer loop
      vertex 1.11807329 3.41174322 1.99133977
      vertex 1.11685747 3.41264771 1.99003453
      vertex 1.11637274 3.41252369 1.99063338
    endloop
  endfacet
  facet normal -0.248101448 -0.888974704 -0.384928106
    outer loop
      vertex 1.07093401 3.24283802 1.91820343
      vertex 1.06923346 3.2436185 1.91749704
      vertex 1.06971819 3.24374252 1.91689819
    endloop
  endfacet
  facet normal -0.44908507 0.45762074 -0.767402019
    outer loop
      vertex 1.11685747 3.41264771 1.99003453
      vertex 1.11752729 3.41263403 1.98963439
      vertex 1.07038801 3.24372884 1.91649805
    endloop
  endfacet
  facet normal -0.44908507 0.45762074 -0.767402019
    outer loop
      vertex 1.11685747 3.41264771 1.99003453
      vertex 1.07038801 3.24372884 1.91649805
      vertex 1.06971819 3.24374252 1.91689819
    endloop
  endfacet
  facet normal 0.248101448 0.888974704 0.384928106
    outer loop
      vertex 1.11807329 3.41174322 1.99133977
      vertex 1.11752729 3.41263403 1.98963439
      vertex 1.11685747 3.41264771 1.99003453
    endloop
  endfacet
  facet normal -0.248101448 -0.888974704 -0.384928106
    outer loop
      vertex 1.07093401 3.24283802 1.91820343
      vertex 1.06971819 3.24374252 1.91689819
      vertex 1.07038801 3.24372884 1.91649805
    endloop
  endfacet
  facet normal -0.0864233895 0.416078727 -0.905212401
    outer loop
      vertex 1.11752729 3.41263403 1.98963439
      vertex 1.11828024 3.41248474 1.98949388
      vertex 1.07114096 3.24357954 1.91635754
    endloop
  endfacet
  facet normal -0.0864233895 0.416078727 -0.905212401
    outer loop
      vertex 1.11752729 3.41263403 1.98963439
      vertex 1.07114096 3.24357954 1.91635754
      vertex 1.07038801 3.24372884 1.91649805
    endloop
  endfacet
  facet normal 0.248101448 0.888974704 0.384928106
    outer loop
      vertex 1.11807329 3.41174322 1.99133977
      vertex 1.11828024 3.41248474 1.98949388
      vertex 1.11752729 3.41263403 1.98963439
    endloop
  endfacet
  facet normal -0.248101448 -0.888974704 -0.384928106
    outer loop
      vertex 1.07093401 3.24283802 1.91820343
      vertex 1.07038801 3.24372884 1.91649805
      vertex 1.07114096 3.24357954 1.91635754
    endloop
  endfacet
  facet normal 0.289395469 0.311192499 -0.905212401
    outer loop
      vertex 1.11828024 3.41248474 1.98949388
      vertex 1.11900168 3.41222255 1.98963439
      vertex 1.07186241 3.24331736 1.91649805
    endloop
  endfacet
  facet normal 0.289395469 0.311192499 -0.905212401
    outer loop
      vertex 1.11828024 3.41248474 1.98949388
      vertex 1.07186241 3.24331736 1.91649805
      vertex 1.07114096 3.24357954 1.91635754
    endloop
  endfacet
  facet normal 0.248101448 0.888974704 0.384928106
    outer loop
      vertex 1.11807329 3.41174322 1.99133977
      vertex 1.11900168 3.41222255 1.98963439
      vertex 1.11828024 3.41248474 1.98949388
    endloop
  endfacet
  facet normal -0.248101448 -0.888974704 -0.384928106
    outer loop
      vertex 1.07093401 3.24283802 1.91820343
      vertex 1.07114096 3.24357954 1.91635754
      vertex 1.07186241 3.24331736 1.91649805
    endloop
  endfacet
  facet normal 0.62115649 0.158930035 -0.767402019
    outer loop
      vertex 1.11900168 3.41222255 1.98963439
      vertex 1.11958178 3.41188739 1.99003453
      vertex 1.07244251 3.2429822 1.91689819
    endloop
  endfacet
  facet normal 0.62115649 0.158930035 -0.767402019
    outer loop
      vertex 1.11900168 3.41222255 1.98963439
      vertex 1.07244251 3.2429822 1.91689819
      vertex 1.07186241 3.24331736 1.91649805
    endloop
  endfacet
  facet normal 0.248101448 0.888974704 0.384928106
    outer loop
      vertex 1.11807329 3.41174322 1.99133977
      vertex 1.11958178 3.41188739 1.99003453
      vertex 1.11900168 3.41222255 1.98963439
    endloop
  endfacet
  facet normal -0.248101448 -0.888974704 -0.384928106
    outer loop
      vertex 1.07093401 3.24283802 1.91820343
      vertex 1.07186241 3.24331736 1.91649805
      vertex 1.07244251 3.2429822 1.91689819
    endloop
  endfacet
  facet normal 0.858352067 -0.0175280865 -0.512761636
    outer loop
      vertex 1.11958178 3.41188739 1.99003453
      vertex 1.11993223 3.41153028 1.99063338
      vertex 1.07279296 3.24262509 1.91749704
    endloop
  endfacet
  facet normal 0.858352067 -0.0175280865 -0.512761636
    outer loop
      vertex 1.11958178 3.41188739 1.99003453
      vertex 1.07279296 3.24262509 1.91749704
      vertex 1.07244251 3.2429822 1.91689819
    endloop
  endfacet
  facet normal 0.248101448 0.888974704 0.384928106
    outer loop
      vertex 1.11807329 3.41174322 1.99133977
      vertex 1.11993223 3.41153028 1.99063338
      vertex 1.11958178 3.41188739 1.99003453
    endloop
  endfacet
  facet normal -0.248101448 -0.888974704 -0.384928106
    outer loop
      vertex 1.07093401 3.24283802 1.91820343
      vertex 1.07244251 3.2429822 1.91689819
      vertex 1.07279296 3.24262509 1.91749704
    endloop
  endfacet
  facet normal 0.964871323 -0.191317716 -0.180057942
    outer loop
      vertex 1.11993223 3.41153028 1.99063338
      vertex 1.11999967 3.41120559 1.99133977
      vertex 1.0728604 3.2423004 1.91820343
    endloop
  endfacet
  facet normal 0.964871323 -0.191317716 -0.180057942
    outer loop
      vertex 1.11993223 3.41153028 1.99063338
      vertex 1.0728604 3.2423004 1.91820343
      vertex 1.07279296 3.24262509 1.91749704
    endloop
  endfacet
  facet normal 0.248101448 0.888974704 0.384928106
    outer loop
      vertex 1.11807329 3.41174322 1.99133977
      vertex 1.11999967 3.41120559 1.99133977
      vertex 1.11993223 3.41153028 1.99063338
    endloop
  endfacet
  facet normal -0.248101448 -0.888974704 -0.384928106
    outer loop
      vertex 1.07093401 3.24283802 1.91820343
      vertex 1.07279296 3.24262509 1.91749704
      vertex 1.0728604 3.2423004 1.91820343
    endloop
  endfacet
  facet normal 0.924497666 -0.335980957 0.180057942
    outer loop
      vertex 1.11999967 3.41120559 1.99133977
      vertex 1.11977384 3.41096275 1.99204616
      vertex 1.07263457 3.24205755 1.91890982
    endloop
  endfacet
  facet normal 0.924497666 -0.335980957 0.180057942
    outer loop
      vertex 1.11999967 3.41120559 1.99133977
      vertex 1.07263457 3.24205755 1.91890982
      vertex 1.0728604 3.2423004 1.91820343
    endloop
  endfacet
  facet normal 0.248101448 0.888974704 0.384928106
    outer loop
      vertex 1.11807329 3.41174322 1.99133977
      vertex 1.11977384 3.41096275 1.99204616
      vertex 1.11999967 3.41120559 1.99133977
    endloop
  endfacet
  facet normal -0.248101448 -0.888974704 -0.384928106
    outer loop
      vertex 1.07093401 3.24283802 1.91820343
      vertex 1.0728604 3.2423004 1.91820343
      vertex 1.07263457 3.24205755 1.91890982
    endloop
  endfacet
  facet normal 0.74337762 -0.429494143 0.512761636
    outer loop
      vertex 1.11977384 3.41096275 1.99204616
      vertex 1.11928911 3.41083872 1.99264501
      vertex 1.07214984 3.24193353 1.91950867
    endloop
  endfacet
  facet normal 0.74337762 -0.429494143 0.512761636
    outer loop
      vertex 1.11977384 3.41096275 1.99204616
      vertex 1.07214984 3.24193353 1.91950867
      vertex 1.07263457 3.24205755 1.91890982
    endloop
  endfacet
  facet normal 0.248101448 0.888974704 0.384928106
    outer loop
      vertex 1.11807329 3.41174322 1.99133977
      vertex 1.11928911 3.41083872 1.99264501
      vertex 1.11977384 3.41096275 1.99204616
    endloop
  endfacet
  facet normal -0.248101448 -0.888974704 -0.384928106
    outer loop
      vertex 1.07093401 3.24283802 1.91820343
      vertex 1.07263457 3.24205755 1.91890982
      vertex 1.07214984 3.24193353 1.91950867
    endloop
  endfacet
  facet normal 0.44908507 -0.45762074 0.767402019
    outer loop
      vertex 1.11928911 3.41083872 1.99264501
      vertex 1.11861929 3.4108524 1.99304515
      vertex 1.07148001 3.24194721 1.91990881
    endloop
  endfacet
  facet normal 0.44908507 -0.45762074 0.767402019
    outer loop
      vertex 1.11928911 3.41083872 1.99264501
      vertex 1.07148001 3.24194721 1.91990881
      vertex 1.07214984 3.24193353 1.91950867
    endloop
  endfacet
  facet normal 0.248101448 0.888974704 0.384928106
    outer loop
      vertex 1.11807329 3.41174322 1.99133977
      vertex 1.11861929 3.4108524 1.99304515
      vertex 1.11928911 3.41083872 1.99264501
    endloop
  endfacet
  facet normal -0.248101448 -0.888974704 -0.384928106
    outer loop
      vertex 1.07093401 3.24283802 1.91820343
      vertex 1.07214984 3.24193353 1.91950867
      vertex 1.07148001 3.24194721 1.91990881
    endloop
  endfacet
  facet normal 0.0864233895 -0.416078727 0.905212401
    outer loop
      vertex 1.11861929 3.4108524 1.99304515
      vertex 1.11786634 3.4110017 1.99318566
      vertex 1.07072707 3.24209651 1.92004932
    endloop
  endfacet
  facet normal 0.0864233895 -0.416078727 0.905212401
    outer loop
      vertex 1.11861929 3.4108524 1.99304515
      vertex 1.07072707 3.24209651 1.92004932
      vertex 1.07148001 3.24194721 1.91990881
    endloop
  endfacet
  facet normal 0.248101448 0.888974704 0.384928106
    outer loop
      vertex 1.11807329 3.41174322 1.99133977
      vertex 1.11786634 3.4110017 1.99318566
      vertex 1.11861929 3.4108524 1.99304515
    endloop
  endfacet
  facet normal -0.248101448 -0.888974704 -0.384928106
    outer loop
      vertex 1.07093401 3.24283802 1.91820343
      vertex 1.07148001 3.24194721 1.91990881
      vertex 1.07072707 3.24209651 1.92004932
    endloop
  endfacet
  facet normal -0.289395469 -0.311192499 0.905212401
    outer loop
      vertex 1.11786634 3.4110017 1.99318566
      vertex 1.1171449 3.41126389 1.99304515
      vertex 1.07000562 3.24235869 1.91990881
    endloop
  endfacet
  facet normal -0.289395469 -0.311192499 0.905212401
    outer loop
      vertex 1.11786634 3.4110017 1.99318566
      vertex 1.07000562 3.24235869 1.91990881
      vertex 1.07072707 3.24209651 1.92004932
    endloop
  endfacet
  facet normal 0.248101448 0.888974704 0.384928106
    outer loop
      vertex 1.11807329 3.41174322 1.99133977
      vertex 1.1171449 3.41126389 1.99304515
      vertex 1.11786634 3.4110017 1.99318566
    endloop
  endfacet
  facet normal -0.248101448 -0.888974704 -0.384928106
    outer loop
      vertex 1.07093401 3.24283802 1.91820343
      vertex 1.07072707 3.24209651 1.92004932
      vertex 1.07000562 3.24235869 1.91990881
    endloop
  endfacet
  facet normal -0.62115649 -0.158930035 0.767402019
    outer loop
      vertex 1.1171449 3.41126389 1.99304515
      vertex 1.1165648 3.41159905 1.99264501
      vertex 1.06942552 3.24269385 1.91950867
    endloop
  endfacet
  facet normal -0.62115649 -0.158930035 0.767402019
    outer loop
      vertex 1.1171449 3.41126389 1.99304515
      vertex 1.06942552 3.24269385 1.91950867
      vertex 1.07000562 3.24235869 1.91990881
    endloop
  endfacet
  facet normal 0.248101448 0.888974704 0.384928106
    outer loop
      vertex 1.11807329 3.41174322 1.99133977
      vertex 1.1165648 3.41159905 1.99264501
      vertex 1.1171449 3.41126389 1.99304515
    endloop
  endfacet
  facet normal -0.248101448 -0.888974704 -0.384928106
    outer loop
      vertex 1.07093401 3.24283802 1.91820343
      vertex 1.07000562 3.24235869 1.91990881
      vertex 1.06942552 3.24269385 1.91950867
    endloop
  endfacet
  facet normal -0.858352067 0.0175280865 0.512761636
    outer loop
      vertex 1.1165648 3.41159905 1.99264501
      vertex 1.11621435 3.41195616 1.99204616
      vertex 1.06907507 3.24305096 1.91890982
    endloop
  endfacet
  facet normal -0.858352067 0.0175280865 0.512761636
    outer loop
      vertex 1.1165648 3.41159905 1.99264501
      vertex 1.06907507 3.24305096 1.91890982
      vertex 1.06942552 3.24269385 1.91950867
    endloop
  endfacet
  facet normal 0.248101448 0.888974704 0.384928106
    outer loop
      vertex 1.11807329 3.41174322 1.99133977
      vertex 1.11621435 3.41195616 1.99204616
      vertex 1.1165648 3.41159905 1.99264501
    endloop
  endfacet
  facet normal -0.248101448 -0.888974704 -0.384928106
    outer loop
      vertex 1.07093401 3.24283802 1.91820343
      vertex 1.06942552 3.24269385 1.91950867
      vertex 1.06907507 3.24305096 1.91890982
    endloop
  endfacet
  facet normal -0.964871323 0.191317716 0.180057942
    outer loop
      vertex 1.11621435 3.41195616 1.99204616
      vertex 1.11614691 3.41228085 1.99133977
      vertex 1.06900763 3.24337565 1.91820343
    endloop
  endfacet
  facet normal -0.964871323 0.191317716 0.180057942
    outer loop
      vertex 1.11621435 3.41195616 1.99204616
      vertex 1.06900763 3.24337565 1.91820343
      vertex 1.06907507 3.24305096 1.91890982
    endloop
  endfacet
  facet normal 0.248101448 0.888974704 0.384928106
    outer loop
      vertex 1.11807329 3.41174322 1.99133977
      vertex 1.11614691 3.41228085 1.99133977
      vertex 1.11621435 3.41195616 1.99204616
    endloop
  endfacet
  facet normal -0.248101448 -0.888974704 -0.384928106
    outer loop
      vertex 1.07093401 3.24283802 1.91820343
      vertex 1.06907507 3.24305096 1.91890982
      vertex 1.06900763 3.24337565 1.91820343
    endloop
  endfacet
  facet normal -0.924497666 0.335980957 -0.180057942
    outer loop
      vertex 1.08573207 3.41046477 1.9781256
      vertex 1.0859579 3.41070762 1.97741921
      vertex 1.03881863 3.24180242 1.90428287
    endloop
  endfacet
  facet normal -0.924497666 0.335980957 -0.180057942
    outer loop
      vertex 1.08573207 3.41046477 1.9781256
      vertex 1.03881863 3.24180242 1.90428287
      vertex 1.0385928 3.24155958 1.90498926
    endloop
  endfacet
  facet normal 0.248101448 0.888974704 0.384928106
    outer loop
      vertex 1.08765845 3.40992714 1.9781256
      vertex 1.0859579 3.41070762 1.97741921
      vertex 1.08573207 3.41046477 1.9781256
    endloop
  endfacet
  facet normal -0.248101448 -0.888974704 -0.384928106
    outer loop
      vertex 1.04051918 3.24102195 1.90498926
      vertex 1.0385928 3.24155958 1.90498926
      vertex 1.03881863 3.24180242 1.90428287
    endloop
  endfacet
  facet normal -0.74337762 0.429494143 -0.512761636
    outer loop
      vertex 1.0859579 3.41070762 1.97741921
      vertex 1.08644263 3.41083164 1.97682036
      vertex 1.03930335 3.24192645 1.90368402
    endloop
  endfacet
  facet normal -0.74337762 0.429494143 -0.512761636
    outer loop
      vertex 1.0859579 3.41070762 1.97741921
      vertex 1.03930335 3.24192645 1.90368402
      vertex 1.03881863 3.24180242 1.90428287
    endloop
  endfacet
  facet normal 0.248101448 0.888974704 0.384928106
    outer loop
      vertex 1.08765845 3.40992714 1.9781256
      vertex 1.08644263 3.41083164 1.97682036
      vertex 1.0859579 3.41070762 1.97741921
    endloop
  endfacet
  facet normal -0.248101448 -0.888974704 -0.384928106
    outer loop
      vertex 1.04051918 3.24102195 1.90498926
      vertex 1.03881863 3.24180242 1.90428287
      vertex 1.03930335 3.24192645 1.90368402
    endloop
  endfacet
  facet normal -0.44908507 0.45762074 -0.767402019
    outer loop
      vertex 1.08644263 3.41083164 1.97682036
      vertex 1.08711245 3.41081796 1.97642022
      vertex 1.03997318 3.24191277 1.90328388
    endloop
  endfacet
  facet normal -0.44908507 0.45762074 -0.767402019
    outer loop
      vertex 1.08644263 3.41083164 1.97682036
      vertex 1.03997318 3.24191277 1.90328388
      vertex 1.03930335 3.24192645 1.90368402
    endloop
  endfacet
  facet normal 0.248101448 0.888974704 0.384928106
    outer loop
      vertex 1.08765845 3.40992714 1.9781256
      vertex 1.08711245 3.41081796 1.97642022
      vertex 1.08644263 3.41083164 1.97682036
    endloop
  endfacet
  facet normal -0.248101448 -0.888974704 -0.384928106
    outer loop
      vertex 1.04051918 3.24102195 1.90498926
      vertex 1.03930335 3.24192645 1.90368402
      vertex 1.03997318 3.24191277 1.90328388
    endloop
  endfacet
  facet normal -0.0864233895 0.416078727 -0.905212401
    outer loop
      vertex 1.08711245 3.41081796 1.97642022
      vertex 1.0878654 3.41066866 1.97627971
      vertex 1.04072613 3.24176347 1.90314337
    endloop
  endfacet
  facet normal -0.0864233895 0.416078727 -0.905212401
    outer loop
      vertex 1.08711245 3.41081796 1.97642022
      vertex 1.04072613 3.24176347 1.90314337
      vertex 1.03997318 3.24191277 1.90328388
    endloop
  endfacet
  facet normal 0.248101448 0.888974704 0.384928106
    outer loop
      vertex 1.08765845 3.40992714 1.9781256
      vertex 1.0878654 3.41066866 1.97627971
      vertex 1.08711245 3.41081796 1.97642022
    endloop
  endfacet
  facet normal -0.248101448 -0.888974704 -0.384928106
    outer loop
      vertex 1.04051918 3.24102195 1.90498926
      vertex 1.03997318 3.24191277 1.90328388
      vertex 1.04072613 3.24176347 1.90314337
    endloop
  endfacet
  facet normal 0.289395469 0.311192499 -0.905212401
    outer loop
      vertex 1.0878654 3.41066866 1.97627971
      vertex 1.08858685 3.41040648 1.97642022
      vertex 1.04144757 3.24150128 1.90328388
    endloop
  endfacet
  facet normal 0.289395469 0.311192499 -0.905212401
    outer loop
      vertex 1.0878654 3.41066866 1.97627971
      vertex 1.04144757 3.24150128 1.90328388
      vertex 1.04072613 3.24176347 1.90314337
    endloop
  endfacet
  facet normal 0.248101448 0.888974704 0.384928106
    outer loop
      vertex 1.08765845 3.40992714 1.9781256
      vertex 1.08858685 3.41040648 1.97642022
      vertex 1.0878654 3.41066866 1.97627971
    endloop
  endfacet
  facet normal -0.248101448 -0.888974704 -0.384928106
    outer loop
      vertex 1.04051918 3.24102195 1.90498926
      vertex 1.04072613 3.24176347 1.90314337
      vertex 1.04144757 3.24150128 1.90328388
    endloop
  endfacet
  facet normal 0.62115649 0.158930035 -0.767402019
    outer loop
      vertex 1.08858685 3.41040648 1.97642022
      vertex 1.08916695 3.41007132 1.97682036
      vertex 1.04202767 3.24116612 1.90368402
    endloop
  endfacet
  facet normal 0.62115649 0.158930035 -0.767402019
    outer loop
      vertex 1.08858685 3.41040648 1.97642022
      vertex 1.04202767 3.24116612 1.90368402
      vertex 1.04144757 3.24150128 1.90328388
    endloop
  endfacet
  facet normal 0.248101448 0.888974704 0.384928106
    outer loop
      vertex 1.08765845 3.40992714 1.9781256
      vertex 1.08916695 3.41007132 1.97682036
      vertex 1.08858685 3.41040648 1.97642022
    endloop
  endfacet
  facet normal -0.248101448 -0.888974704 -0.384928106
    outer loop
      vertex 1.04051918 3.24102195 1.90498926
      vertex 1.04144757 3.24150128 1.90328388
      vertex 1.04202767 3.24116612 1.90368402
    endloop
  endfacet
  facet normal 0.858352067 -0.0175280865 -0.512761636
    outer loop
      vertex 1.08916695 3.41007132 1.97682036
      vertex 1.0895174 3.40971421 1.97741921
      vertex 1.04237812 3.24080901 1.90428287
    endloop
  endfacet
  facet normal 0.858352067 -0.0175280865 -0.512761636
    outer loop
      vertex 1.08916695 3.41007132 1.97682036
      vertex 1.04237812 3.24080901 1.90428287
      vertex 1.04202767 3.24116612 1.90368402
    endloop
  endfacet
  facet normal 0.248101448 0.888974704 0.384928106
    outer loop
      vertex 1.08765845 3.40992714 1.9781256
      vertex 1.0895174 3.40971421 1.97741921
      vertex 1.08916695 3.41007132 1.97682036
    endloop
  endfacet
  facet normal -0.248101448 -0.888974704 -0.384928106
    outer loop
      vertex 1.04051918 3.24102195 1.90498926
      vertex 1.04202767 3.24116612 1.90368402
      vertex 1.04237812 3.24080901 1.90428287
    endloop
  endfacet
  facet normal 0.964871323 -0.191317716 -0.180057942
    outer loop
      vertex 1.0895174 3.40971421 1.97741921
      vertex 1.08958484 3.40938952 1.9781256
      vertex 1.04244556 3.24048432 1.90498926
    endloop
  endfacet
  facet normal 0.964871323 -0.191317716 -0.180057942
    outer loop
      vertex 1.0895174 3.40971421 1.97741921
      vertex 1.04244556 3.24048432 1.90498926
      vertex 1.04237812 3.24080901 1.90428287
    endloop
  endfacet
  facet normal 0.248101448 0.888974704 0.384928106
    outer loop
      vertex 1.08765845 3.40992714 1.9781256
      vertex 1.08958484 3.40938952 1.9781256
      vertex 1.0895174 3.40971421 1.97741921
    endloop
  endfacet
  facet normal -0.248101448 -0.888974704 -0.384928106
    outer loop
      vertex 1.04051918 3.24102195 1.90498926
      vertex 1.04237812 3.24080901 1.90428287
      vertex 1.04244556 3.24048432 1.90498926
    endloop
  endfacet
  facet normal 0.924497666 -0.335980957 0.180057942
    outer loop
      vertex 1.08958484 3.40938952 1.9781256
      vertex 1.08935901 3.40914667 1.978832
      vertex 1.04221973 3.24024148 1.90569566
    endloop
  endfacet
  facet normal 0.924497666 -0.335980957 0.180057942
    outer loop
      vertex 1.08958484 3.40938952 1.9781256
      vertex 1.04221973 3.24024148 1.90569566
      vertex 1.04244556 3.24048432 1.90498926
    endloop
  endfacet
  facet normal 0.248101448 0.888974704 0.384928106
    outer loop
      vertex 1.08765845 3.40992714 1.9781256
      vertex 1.08935901 3.40914667 1.978832
      vertex 1.08958484 3.40938952 1.9781256
    endloop
  endfacet
  facet normal -0.248101448 -0.888974704 -0.384928106
    outer loop
      vertex 1.04051918 3.24102195 1.90498926
      vertex 1.04244556 3.24048432 1.90498926
      vertex 1.04221973 3.24024148 1.90569566
    endloop
  endfacet
  facet normal 0.74337762 -0.429494143 0.512761636
    outer loop
      vertex 1.08935901 3.40914667 1.978832
      vertex 1.08887428 3.40902265 1.97943085
      vertex 1.041735 3.24011746 1.90629451
    endloop
  endfacet
  facet normal 0.74337762 -0.429494143 0.512761636
    outer loop
      vertex 1.08935901 3.40914667 1.978832
      vertex 1.041735 3.24011746 1.90629451
      vertex 1.04221973 3.24024148 1.90569566
    endloop
  endfacet
  facet normal 0.248101448 0.888974704 0.384928106
    outer loop
      vertex 1.08765845 3.40992714 1.9781256
      vertex 1.08887428 3.40902265 1.97943085
      vertex 1.08935901 3.40914667 1.978832
    endloop
  endfacet
  facet normal -0.248101448 -0.888974704 -0.384928106
    outer loop
      vertex 1.04051918 3.24102195 1.90498926
      vertex 1.04221973 3.24024148 1.90569566
      vertex 1.041735 3.24011746 1.90629451
    endloop
  endfacet
  facet normal 0.44908507 -0.45762074 0.767402019
    outer loop
      vertex 1.08887428 3.40902265 1.97943085
      vertex 1.08820445 3.40903633 1.97983099
      vertex 1.04106518 3.24013113 1.90669465
    endloop
  endfacet
  facet normal 0.44908507 -0.45762074 0.767402019
    outer loop
      vertex 1.08887428 3.40902265 1.97943085
      vertex 1.04106518 3.24013113 1.90669465
      vertex 1.041735 3.24011746 1.90629451
    endloop
  endfacet
  facet normal 0.248101448 0.888974704 0.384928106
    outer loop
      vertex 1.08765845 3.40992714 1.9781256
      vertex 1.08820445 3.40903633 1.97983099
      vertex 1.08887428 3.40902265 1.97943085
    endloop
  endfacet
  facet normal -0.248101448 -0.888974704 -0.384928106
    outer loop
      vertex 1.04051918 3.24102195 1.90498926
      vertex 1.041735 3.24011746 1.90629451
      vertex 1.04106518 3.24013113 1.90669465
    endloop
  endfacet
  facet normal 0.0864233895 -0.416078727 0.905212401
    outer loop
      vertex 1.08820445 3.40903633 1.97983099
      vertex 1.08745151 3.40918563 1.9799715
      vertex 1.04031223 3.24028043 1.90683516
    endloop
  endfacet
  facet normal 0.0864233895 -0.416078727 0.905212401
    outer loop
      vertex 1.08820445 3.40903633 1.97983099
      vertex 1.04031223 3.24028043 1.90683516
      vertex 1.04106518 3.24013113 1.90669465
    endloop
  endfacet
  facet normal 0.248101448 0.888974704 0.384928106
    outer loop
      vertex 1.08765845 3.40992714 1.9781256
      vertex 1.08745151 3.40918563 1.9799715
      vertex 1.08820445 3.40903633 1.97983099
    endloop
  endfacet
  facet normal -0.248101448 -0.888974704 -0.384928106
    outer loop
      vertex 1.04051918 3.24102195 1.90498926
      vertex 1.04106518 3.24013113 1.90669465
      vertex 1.04031223 3.24028043 1.90683516
    endloop
  endfacet
  facet normal -0.289395469 -0.311192499 0.905212401
    outer loop
      vertex 1.08745151 3.40918563 1.9799715
      vertex 1.08673006 3.40944781 1.97983099
      vertex 1.03959079 3.24054262 1.90669465
    endloop
  endfacet
  facet normal -0.289395469 -0.311192499 0.905212401
    outer loop
      vertex 1.08745151 3.40918563 1.9799715
      vertex 1.03959079 3.24054262 1.90669465
      vertex 1.04031223 3.24028043 1.90683516
    endloop
  endfacet
  facet normal 0.248101448 0.888974704 0.384928106
    outer loop
      vertex 1.08765845 3.40992714 1.9781256
      vertex 1.08673006 3.40944781 1.97983099
      vertex 1.08745151 3.40918563 1.9799715
    endloop
  endfacet
  facet normal -0.248101448 -0.888974704 -0.384928106
    outer loop
      vertex 1.04051918 3.24102195 1.90498926
      vertex 1.04031223 3.24028043 1.90683516
      vertex 1.03959079 3.24054262 1.90669465
    endloop
  endfacet
  facet normal -0.62115649 -0.158930035 0.767402019
    outer loop
      vertex 1.08673006 3.40944781 1.97983099
      vertex 1.08614996 3.40978297 1.97943085
      vertex 1.03901069 3.24087778 1.90629451
    endloop
  endfacet
  facet normal -0.62115649 -0.158930035 0.767402019
    outer loop
      vertex 1.08673006 3.40944781 1.97983099
      vertex 1.03901069 3.24087778 1.90629451
      vertex 1.03959079 3.24054262 1.90669465
    endloop
  endfacet
  facet normal 0.248101448 0.888974704 0.384928106
    outer loop
      vertex 1.08765845 3.40992714 1.9781256
      vertex 1.08614996 3.40978297 1.97943085
      vertex 1.08673006 3.40944781 1.97983099
    endloop
  endfacet
  facet normal -0.248101448 -0.888974704 -0.384928106
    outer loop
      vertex 1.04051918 3.24102195 1.90498926
      vertex 1.03959079 3.24054262 1.90669465
      vertex 1.03901069 3.24087778 1.90629451
    endloop
  endfacet
  facet normal -0.858352067 0.0175280865 0.512761636
    outer loop
      vertex 1.08614996 3.40978297 1.97943085
      vertex 1.08579951 3.41014008 1.978832
      vertex 1.03866024 3.24123489 1.90569566
    endloop
  endfacet
  facet normal -0.858352067 0.0175280865 0.512761636
    outer loop
      vertex 1.08614996 3.40978297 1.97943085
      vertex 1.03866024 3.24123489 1.90569566
      vertex 1.03901069 3.24087778 1.90629451
    endloop
  endfacet
  facet normal 0.248101448 0.888974704 0.384928106
    outer loop
      vertex 1.08765845 3.40992714 1.9781256
      vertex 1.08579951 3.41014008 1.978832
      vertex 1.08614996 3.40978297 1.97943085
    endloop
  endfacet
  facet normal -0.248101448 -0.888974704 -0.384928106
    outer loop
      vertex 1.04051918 3.24102195 1.90498926
      vertex 1.03901069 3.24087778 1.90629451
      vertex 1.03866024 3.24123489 1.90569566
    endloop
  endfacet
  facet normal -0.964871323 0.191317716 0.180057942
    outer loop
      vertex 1.08579951 3.41014008 1.978832
      vertex 1.08573207 3.41046477 1.9781256
      vertex 1.0385928 3.24155958 1.90498926
    endloop
  endfacet
  facet normal -0.964871323 0.191317716 0.180057942
    outer loop
      vertex 1.08579951 3.41014008 1.978832
      vertex 1.0385928 3.24155958 1.90498926
      vertex 1.03866024 3.24123489 1.90569566
    endloop
  endfacet
  facet normal 0.248101448 0.888974704 0.384928106
    outer loop
      vertex 1.08765845 3.40992714 1.9781256
      vertex 1.08573207 3.41046477 1.9781256
      vertex 1.08579951 3.41014008 1.978832
    endloop
  endfacet
  facet normal -0.248101448 -0.888974704 -0.384928106
    outer loop
      vertex 1.04051918 3.24102195 1.90498926
      vertex 1.03866024 3.24123489 1.90569566
      vertex 1.0385928 3.24155958 1.90498926
    endloop
  endfacet
  facet normal -0.885659073 -0.42199256 -0.193727348
    outer loop
      vertex 1.65641337 3.44177309 2.22321745
      vertex 1.65650849 3.44192238 2.22245743
      vertex 1.74163877 3.27354726 2.20003749
    endloop
  endfacet
  facet normal -0.885659073 -0.42199256 -0.193727348
    outer loop
      vertex 1.65641337 3.44177309 2.22321745
      vertex 1.74163877 3.27354726 2.20003749
      vertex 1.74154365 3.27339797 2.20079751
    endloop
  endfacet
  facet normal -0.448054107 0.886184847 0.117999722
    outer loop
      vertex 1.65819821 3.4426755 2.22321745
      vertex 1.65650849 3.44192238 2.22245743
      vertex 1.65641337 3.44177309 2.22321745
    endloop
  endfacet
  facet normal 0.448054107 -0.886184847 -0.117999722
    outer loop
      vertex 1.74332849 3.27430038 2.20079751
      vertex 1.74154365 3.27339797 2.20079751
      vertex 1.74163877 3.27354726 2.20003749
    endloop
  endfacet
  facet normal -0.771599596 -0.316659941 -0.551688813
    outer loop
      vertex 1.65650849 3.44192238 2.22245743
      vertex 1.65686085 3.44218632 2.22181312
      vertex 1.74199113 3.2738112 2.19939317
    endloop
  endfacet
  facet normal -0.771599596 -0.316659941 -0.551688813
    outer loop
      vertex 1.65650849 3.44192238 2.22245743
      vertex 1.74199113 3.2738112 2.19939317
      vertex 1.74163877 3.27354726 2.20003749
    endloop
  endfacet
  facet normal -0.448054107 0.886184847 0.117999722
    outer loop
      vertex 1.65819821 3.4426755 2.22321745
      vertex 1.65686085 3.44218632 2.22181312
      vertex 1.65650849 3.44192238 2.22245743
    endloop
  endfacet
  facet normal 0.448054107 -0.886184847 -0.117999722
    outer loop
      vertex 1.74332849 3.27430038 2.20079751
      vertex 1.74163877 3.27354726 2.20003749
      vertex 1.74199113 3.2738112 2.19939317
    endloop
  endfacet
  facet normal -0.540071074 -0.163118717 -0.825660656
    outer loop
      vertex 1.65686085 3.44218632 2.22181312
      vertex 1.65741681 3.44252474 2.2213826
      vertex 1.74254709 3.27414962 2.19896266
    endloop
  endfacet
  facet normal -0.540071074 -0.163118717 -0.825660656
    outer loop
      vertex 1.65686085 3.44218632 2.22181312
      vertex 1.74254709 3.27414962 2.19896266
      vertex 1.74199113 3.2738112 2.19939317
    endloop
  endfacet
  facet normal -0.448054107 0.886184847 0.117999722
    outer loop
      vertex 1.65819821 3.4426755 2.22321745
      vertex 1.65741681 3.44252474 2.2213826
      vertex 1.65686085 3.44218632 2.22181312
    endloop
  endfacet
  facet normal 0.448054107 -0.886184847 -0.117999722
    outer loop
      vertex 1.74332849 3.27430038 2.20079751
      vertex 1.74199113 3.2738112 2.19939317
      vertex 1.74254709 3.27414962 2.19896266
    endloop
  endfacet
  facet normal -0.226321627 0.0152558536 -0.97393315
    outer loop
      vertex 1.65741681 3.44252474 2.2213826
      vertex 1.65809173 3.44288611 2.22123143
      vertex 1.74322201 3.27451099 2.19881148
    endloop
  endfacet
  facet normal -0.226321627 0.0152558536 -0.97393315
    outer loop
      vertex 1.65741681 3.44252474 2.2213826
      vertex 1.74322201 3.27451099 2.19881148
      vertex 1.74254709 3.27414962 2.19896266
    endloop
  endfacet
  facet normal -0.448054107 0.886184847 0.117999722
    outer loop
      vertex 1.65819821 3.4426755 2.22321745
      vertex 1.65809173 3.44288611 2.22123143
      vertex 1.65741681 3.44252474 2.2213826
    endloop
  endfacet
  facet normal 0.448054107 -0.886184847 -0.117999722
    outer loop
      vertex 1.74332849 3.27430038 2.20079751
      vertex 1.74254709 3.27414962 2.19896266
      vertex 1.74322201 3.27451099 2.19881148
    endloop
  endfacet
  facet normal 0.121883236 0.191307858 -0.97393315
    outer loop
      vertex 1.65809173 3.44288611 2.22123143
      vertex 1.65878286 3.44321542 2.2213826
      vertex 1.74391314 3.2748403 2.19896266
    endloop
  endfacet
  facet normal 0.121883236 0.191307858 -0.97393315
    outer loop
      vertex 1.65809173 3.44288611 2.22123143
      vertex 1.74391314 3.2748403 2.19896266
      vertex 1.74322201 3.27451099 2.19881148
    endloop
  endfacet
  facet normal -0.448054107 0.886184847 0.117999722
    outer loop
      vertex 1.65819821 3.4426755 2.22321745
      vertex 1.65878286 3.44321542 2.2213826
      vertex 1.65809173 3.44288611 2.22123143
    endloop
  endfacet
  facet normal 0.448054107 -0.886184847 -0.117999722
    outer loop
      vertex 1.74332849 3.27430038 2.20079751
      vertex 1.74322201 3.27451099 2.19881148
      vertex 1.74391314 3.2748403 2.19896266
    endloop
  endfacet
  facet normal 0.451532481 0.338234976 -0.825660656
    outer loop
      vertex 1.65878286 3.44321542 2.2213826
      vertex 1.65938499 3.44346253 2.22181312
      vertex 1.74451527 3.27508741 2.19939317
    endloop
  endfacet
  facet normal 0.451532481 0.338234976 -0.825660656
    outer loop
      vertex 1.65878286 3.44321542 2.2213826
      vertex 1.74451527 3.27508741 2.19939317
      vertex 1.74391314 3.2748403 2.19896266
    endloop
  endfacet
  facet normal -0.448054107 0.886184847 0.117999722
    outer loop
      vertex 1.65819821 3.4426755 2.22321745
      vertex 1.65938499 3.44346253 2.22181312
      vertex 1.65878286 3.44321542 2.2213826
    endloop
  endfacet
  facet normal 0.448054107 -0.886184847 -0.117999722
    outer loop
      vertex 1.74332849 3.27430038 2.20079751
      vertex 1.74391314 3.2748403 2.19896266
      vertex 1.74451527 3.27508741 2.19939317
    endloop
  endfacet
  facet normal 0.712439999 0.433668884 -0.551688813
    outer loop
      vertex 1.65938499 3.44346253 2.22181312
      vertex 1.65980644 3.44358982 2.22245743
      vertex 1.74493672 3.2752147 2.20003749
    endloop
  endfacet
  facet normal 0.712439999 0.433668884 -0.551688813
    outer loop
      vertex 1.65938499 3.44346253 2.22181312
      vertex 1.74493672 3.2752147 2.20003749
      vertex 1.74451527 3.27508741 2.19939317
    endloop
  endfacet
  facet normal -0.448054107 0.886184847 0.117999722
    outer loop
      vertex 1.65819821 3.4426755 2.22321745
      vertex 1.65980644 3.44358982 2.22245743
      vertex 1.65938499 3.44346253 2.22181312
    endloop
  endfacet
  facet normal 0.448054107 -0.886184847 -0.117999722
    outer loop
      vertex 1.74332849 3.27430038 2.20079751
      vertex 1.74451527 3.27508741 2.19939317
      vertex 1.74493672 3.2752147 2.20003749
    endloop
  endfacet
  facet normal 0.864884986 0.463080637 -0.193727348
    outer loop
      vertex 1.65980644 3.44358982 2.22245743
      vertex 1.65998305 3.44357791 2.22321745
      vertex 1.74511333 3.27520279 2.20079751
    endloop
  endfacet
  facet normal 0.864884986 0.463080637 -0.193727348
    outer loop
      vertex 1.65980644 3.44358982 2.22245743
      vertex 1.74511333 3.27520279 2.20079751
      vertex 1.74493672 3.2752147 2.20003749
    endloop
  endfacet
  facet normal -0.448054107 0.886184847 0.117999722
    outer loop
      vertex 1.65819821 3.4426755 2.22321745
      vertex 1.65998305 3.44357791 2.22321745
      vertex 1.65980644 3.44358982 2.22245743
    endloop
  endfacet
  facet normal 0.448054107 -0.886184847 -0.117999722
    outer loop
      vertex 1.74332849 3.27430038 2.20079751
      vertex 1.74493672 3.2752147 2.20003749
      vertex 1.74511333 3.27520279 2.20079751
    endloop
  endfacet
  facet normal 0.885659073 0.42199256 0.193727348
    outer loop
      vertex 1.65998305 3.44357791 2.22321745
      vertex 1.65988794 3.44342863 2.22397747
      vertex 1.74501822 3.2750535 2.20155753
    endloop
  endfacet
  facet normal 0.885659073 0.42199256 0.193727348
    outer loop
      vertex 1.65998305 3.44357791 2.22321745
      vertex 1.74501822 3.2750535 2.20155753
      vertex 1.74511333 3.27520279 2.20079751
    endloop
  endfacet
  facet normal -0.448054107 0.886184847 0.117999722
    outer loop
      vertex 1.65819821 3.4426755 2.22321745
      vertex 1.65988794 3.44342863 2.22397747
      vertex 1.65998305 3.44357791 2.22321745
    endloop
  endfacet
  facet normal 0.448054107 -0.886184847 -0.117999722
    outer loop
      vertex 1.74332849 3.27430038 2.20079751
      vertex 1.74511333 3.27520279 2.20079751
      vertex 1.74501822 3.2750535 2.20155753
    endloop
  endfacet
  facet normal 0.771599596 0.316659941 0.551688813
    outer loop
      vertex 1.65988794 3.44342863 2.22397747
      vertex 1.65953558 3.44316468 2.22462179
      vertex 1.74466586 3.27478956 2.20220184
    endloop
  endfacet
  facet normal 0.771599596 0.316659941 0.551688813
    outer loop
      vertex 1.65988794 3.44342863 2.22397747
      vertex 1.74466586 3.27478956 2.20220184
      vertex 1.74501822 3.2750535 2.20155753
    endloop
  endfacet
  facet normal -0.448054107 0.886184847 0.117999722
    outer loop
      vertex 1.65819821 3.4426755 2.22321745
      vertex 1.65953558 3.44316468 2.22462179
      vertex 1.65988794 3.44342863 2.22397747
    endloop
  endfacet
  facet normal 0.448054107 -0.886184847 -0.117999722
    outer loop
      vertex 1.74332849 3.27430038 2.20079751
      vertex 1.74501822 3.2750535 2.20155753
      vertex 1.74466586 3.27478956 2.20220184
    endloop
  endfacet
  facet normal 0.540071074 0.163118717 0.825660656
    outer loop
      vertex 1.65953558 3.44316468 2.22462179
      vertex 1.65897962 3.44282626 2.2250523
      vertex 1.7441099 3.27445114 2.20263236
    endloop
  endfacet
  facet normal 0.540071074 0.163118717 0.825660656
    outer loop
      vertex 1.65953558 3.44316468 2.22462179
      vertex 1.7441099 3.27445114 2.20263236
      vertex 1.74466586 3.27478956 2.20220184
    endloop
  endfacet
  facet normal -0.448054107 0.886184847 0.117999722
    outer loop
      vertex 1.65819821 3.4426755 2.22321745
      vertex 1.65897962 3.44282626 2.2250523
      vertex 1.65953558 3.44316468 2.22462179
    endloop
  endfacet
  facet normal 0.448054107 -0.886184847 -0.117999722
    outer loop
      vertex 1.74332849 3.27430038 2.20079751
      vertex 1.74466586 3.27478956 2.20220184
      vertex 1.7441099 3.27445114 2.20263236
    endloop
  endfacet
  facet normal 0.226321627 -0.0152558536 0.97393315
    outer loop
      vertex 1.65897962 3.44282626 2.2250523
      vertex 1.6583047 3.44246489 2.22520348
      vertex 1.74343498 3.27408977 2.20278353
    endloop
  endfacet
  facet normal 0.226321627 -0.0152558536 0.97393315
    outer loop
      vertex 1.65897962 3.44282626 2.2250523
      vertex 1.74343498 3.27408977 2.20278353
      vertex 1.7441099 3.27445114 2.20263236
    endloop
  endfacet
  facet normal -0.448054107 0.886184847 0.117999722
    outer loop
      vertex 1.65819821 3.4426755 2.22321745
      vertex 1.6583047 3.44246489 2.22520348
      vertex 1.65897962 3.44282626 2.2250523
    endloop
  endfacet
  facet normal 0.448054107 -0.886184847 -0.117999722
    outer loop
      vertex 1.74332849 3.27430038 2.20079751
      vertex 1.7441099 3.27445114 2.20263236
      vertex 1.74343498 3.27408977 2.20278353
    endloop
  endfacet
  facet normal -0.121883236 -0.191307858 0.97393315
    outer loop
      vertex 1.6583047 3.44246489 2.22520348
      vertex 1.65761356 3.44213558 2.2250523
      vertex 1.74274384 3.27376046 2.20263236
    endloop
  endfacet
  facet normal -0.121883236 -0.191307858 0.97393315
    outer loop
      vertex 1.6583047 3.44246489 2.22520348
      vertex 1.74274384 3.27376046 2.20263236
      vertex 1.74343498 3.27408977 2.20278353
    endloop
  endfacet
  facet normal -0.448054107 0.886184847 0.117999722
    outer loop
      vertex 1.65819821 3.4426755 2.22321745
      vertex 1.65761356 3.44213558 2.2250523
      vertex 1.6583047 3.44246489 2.22520348
    endloop
  endfacet
  facet normal 0.448054107 -0.886184847 -0.117999722
    outer loop
      vertex 1.74332849 3.27430038 2.20079751
      vertex 1.74343498 3.27408977 2.20278353
      vertex 1.74274384 3.27376046 2.20263236
    endloop
  endfacet
  facet normal -0.451532481 -0.338234976 0.825660656
    outer loop
      vertex 1.65761356 3.44213558 2.2250523
      vertex 1.65701144 3.44188848 2.22462179
      vertex 1.74214172 3.27351335 2.20220184
    endloop
  endfacet
  facet normal -0.451532481 -0.338234976 0.825660656
    outer loop
      vertex 1.65761356 3.44213558 2.2250523
      vertex 1.74214172 3.27351335 2.20220184
      vertex 1.74274384 3.27376046 2.20263236
    endloop
  endfacet
  facet normal -0.448054107 0.886184847 0.117999722
    outer loop
      vertex 1.65819821 3.4426755 2.22321745
      vertex 1.65701144 3.44188848 2.22462179
      vertex 1.65761356 3.44213558 2.2250523
    endloop
  endfacet
  facet normal 0.448054107 -0.886184847 -0.117999722
    outer loop
      vertex 1.74332849 3.27430038 2.20079751
      vertex 1.74274384 3.27376046 2.20263236
      vertex 1.74214172 3.27351335 2.20220184
    endloop
  endfacet
  facet normal -0.712439999 -0.433668884 0.551688813
    outer loop
      vertex 1.65701144 3.44188848 2.22462179
      vertex 1.65658999 3.44176118 2.22397747
      vertex 1.74172027 3.27338606 2.20155753
    endloop
  endfacet
  facet normal -0.712439999 -0.433668884 0.551688813
    outer loop
      vertex 1.65701144 3.44188848 2.22462179
      vertex 1.74172027 3.27338606 2.20155753
      vertex 1.74214172 3.27351335 2.20220184
    endloop
  endfacet
  facet normal -0.448054107 0.886184847 0.117999722
    outer loop
      vertex 1.65819821 3.4426755 2.22321745
      vertex 1.65658999 3.44176118 2.22397747
      vertex 1.65701144 3.44188848 2.22462179
    endloop
  endfacet
  facet normal 0.448054107 -0.886184847 -0.117999722
    outer loop
      vertex 1.74332849 3.27430038 2.20079751
      vertex 1.74214172 3.27351335 2.20220184
      vertex 1.74172027 3.27338606 2.20155753
    endloop
  endfacet
  facet normal -0.864884986 -0.463080637 0.193727348
    outer loop
      vertex 1.65658999 3.44176118 2.22397747
      vertex 1.65641337 3.44177309 2.22321745
      vertex 1.74154365 3.27339797 2.20079751
    endloop
  endfacet
  facet normal -0.864884986 -0.463080637 0.193727348
    outer loop
      vertex 1.65658999 3.44176118 2.22397747
      vertex 1.74154365 3.27339797 2.20079751
      vertex 1.74172027 3.27338606 2.20155753
    endloop
  endfacet
  facet normal -0.448054107 0.886184847 0.117999722
    outer loop
      vertex 1.65819821 3.4426755 2.22321745
      vertex 1.65641337 3.44177309 2.22321745
      vertex 1.65658999 3.44176118 2.22397747
    endloop
  endfacet
  facet normal 0.448054107 -0.886184847 -0.117999722
    outer loop
      vertex 1.74332849 3.27430038 2.20079751
      vertex 1.74172027 3.27338606 2.20155753
      vertex 1.74154365 3.27339797 2.20079751
    endloop
  endfacet
  facet normal -0.885659073 -0.42199256 -0.193727348
    outer loop
      vertex 1.62746636 3.44004466 2.210641
      vertex 1.62756147 3.44019395 2.20988098
      vertex 1.71269175 3.27181883 2.18746104
    endloop
  endfacet
  facet normal -0.885659073 -0.42199256 -0.193727348
    outer loop
      vertex 1.62746636 3.44004466 2.210641
      vertex 1.71269175 3.27181883 2.18746104
      vertex 1.71259664 3.27166954 2.18822106
    endloop
  endfacet
  facet normal -0.448054107 0.886184847 0.117999722
    outer loop
      vertex 1.6292512 3.44094707 2.210641
      vertex 1.62756147 3.44019395 2.20988098
      vertex 1.62746636 3.44004466 2.210641
    endloop
  endfacet
  facet normal 0.448054107 -0.886184847 -0.117999722
    outer loop
      vertex 1.71438148 3.27257195 2.18822106
      vertex 1.71259664 3.27166954 2.18822106
      vertex 1.71269175 3.27181883 2.18746104
    endloop
  endfacet
  facet normal -0.771599596 -0.316659941 -0.551688813
    outer loop
      vertex 1.62756147 3.44019395 2.20988098
      vertex 1.62791383 3.44045789 2.20923667
      vertex 1.71304411 3.27208277 2.18681672
    endloop
  endfacet
  facet normal -0.771599596 -0.316659941 -0.551688813
    outer loop
      vertex 1.62756147 3.44019395 2.20988098
      vertex 1.71304411 3.27208277 2.18681672
      vertex 1.71269175 3.27181883 2.18746104
    endloop
  endfacet
  facet normal -0.448054107 0.886184847 0.117999722
    outer loop
      vertex 1.6292512 3.44094707 2.210641
      vertex 1.62791383 3.44045789 2.20923667
      vertex 1.62756147 3.44019395 2.20988098
    endloop
  endfacet
  facet normal 0.448054107 -0.886184847 -0.117999722
    outer loop
      vertex 1.71438148 3.27257195 2.18822106
      vertex 1.71269175 3.27181883 2.18746104
      vertex 1.71304411 3.27208277 2.18681672
    endloop
  endfacet
  facet normal -0.540071074 -0.163118717 -0.825660656
    outer loop
      vertex 1.62791383 3.44045789 2.20923667
      vertex 1.62846979 3.44079631 2.20880615
      vertex 1.71360007 3.27242119 2.18638621
    endloop
  endfacet
  facet normal -0.540071074 -0.163118717 -0.825660656
    outer loop
      vertex 1.62791383 3.44045789 2.20923667
      vertex 1.71360007 3.27242119 2.18638621
      vertex 1.71304411 3.27208277 2.18681672
    endloop
  endfacet
  facet normal -0.448054107 0.886184847 0.117999722
    outer loop
      vertex 1.6292512 3.44094707 2.210641
      vertex 1.62846979 3.44079631 2.20880615
      vertex 1.62791383 3.44045789 2.20923667
    endloop
  endfacet
  facet normal 0.448054107 -0.886184847 -0.117999722
    outer loop
      vertex 1.71438148 3.27257195 2.18822106
      vertex 1.71304411 3.27208277 2.18681672
      vertex 1.71360007 3.27242119 2.18638621
    endloop
  endfacet
  facet normal -0.226321627 0.0152558536 -0.97393315
    outer loop
      vertex 1.62846979 3.44079631 2.20880615
      vertex 1.62914472 3.44115768 2.20865498
      vertex 1.714275 3.27278256 2.18623503
    endloop
  endfacet
  facet normal -0.226321627 0.0152558536 -0.97393315
    outer loop
      vertex 1.62846979 3.44079631 2.20880615
      vertex 1.714275 3.27278256 2.18623503
      vertex 1.71360007 3.27242119 2.18638621
    endloop
  endfacet
  facet normal -0.448054107 0.886184847 0.117999722
    outer loop
      vertex 1.6292512 3.44094707 2.210641
      vertex 1.62914472 3.44115768 2.20865498
      vertex 1.62846979 3.44079631 2.20880615
    endloop
  endfacet
  facet normal 0.448054107 -0.886184847 -0.117999722
    outer loop
      vertex 1.71438148 3.27257195 2.18822106
      vertex 1.71360007 3.27242119 2.18638621
      vertex 1.714275 3.27278256 2.18623503
    endloop
  endfacet
  facet normal 0.121883236 0.191307858 -0.97393315
    outer loop
      vertex 1.62914472 3.44115768 2.20865498
      vertex 1.62983585 3.44148699 2.20880615
      vertex 1.71496613 3.27311187 2.18638621
    endloop
  endfacet
  facet normal 0.121883236 0.191307858 -0.97393315
    outer loop
      vertex 1.62914472 3.44115768 2.20865498
      vertex 1.71496613 3.27311187 2.18638621
      vertex 1.714275 3.27278256 2.18623503
    endloop
  endfacet
  facet normal -0.448054107 0.886184847 0.117999722
    outer loop
      vertex 1.6292512 3.44094707 2.210641
      vertex 1.62983585 3.44148699 2.20880615
      vertex 1.62914472 3.44115768 2.20865498
    endloop
  endfacet
  facet normal 0.448054107 -0.886184847 -0.117999722
    outer loop
      vertex 1.71438148 3.27257195 2.18822106
      vertex 1.714275 3.27278256 2.18623503
      vertex 1.71496613 3.27311187 2.18638621
    endloop
  endfacet
  facet normal 0.451532481 0.338234976 -0.825660656
    outer loop
      vertex 1.62983585 3.44148699 2.20880615
      vertex 1.63043798 3.4417341 2.20923667
      vertex 1.71556826 3.27335898 2.18681672
    endloop
  endfacet
  facet normal 0.451532481 0.338234976 -0.825660656
    outer loop
      vertex 1.62983585 3.44148699 2.20880615
      vertex 1.71556826 3.27335898 2.18681672
      vertex 1.71496613 3.27311187 2.18638621
    endloop
  endfacet
  facet normal -0.448054107 0.886184847 0.117999722
    outer loop
      vertex 1.6292512 3.44094707 2.210641
      vertex 1.63043798 3.4417341 2.20923667
      vertex 1.62983585 3.44148699 2.20880615
    endloop
  endfacet
  facet normal 0.448054107 -0.886184847 -0.117999722
    outer loop
      vertex 1.71438148 3.27257195 2.18822106
      vertex 1.71496613 3.27311187 2.18638621
      vertex 1.71556826 3.27335898 2.18681672
    endloop
  endfacet
  facet normal 0.712439999 0.433668884 -0.551688813
    outer loop
      vertex 1.63043798 3.4417341 2.20923667
      vertex 1.63085943 3.44186139 2.20988098
      vertex 1.71598971 3.27348627 2.18746104
    endloop
  endfacet
  facet normal 0.712439999 0.433668884 -0.551688813
    outer loop
      vertex 1.63043798 3.4417341 2.20923667
      vertex 1.71598971 3.27348627 2.18746104
      vertex 1.71556826 3.27335898 2.18681672
    endloop
  endfacet
  facet normal -0.448054107 0.886184847 0.117999722
    outer loop
      vertex 1.6292512 3.44094707 2.210641
      vertex 1.63085943 3.44186139 2.20988098
      vertex 1.63043798 3.4417341 2.20923667
    endloop
  endfacet
  facet normal 0.448054107 -0.886184847 -0.117999722
    outer loop
      vertex 1.71438148 3.27257195 2.18822106
      vertex 1.71556826 3.27335898 2.18681672
      vertex 1.71598971 3.27348627 2.18746104
    endloop
  endfacet
  facet normal 0.864884986 0.463080637 -0.193727348
    outer loop
      vertex 1.63085943 3.44186139 2.20988098
      vertex 1.63103604 3.44184948 2.210641
      vertex 1.71616632 3.27347436 2.18822106
    endloop
  endfacet
  facet normal 0.864884986 0.463080637 -0.193727348
    outer loop
      vertex 1.63085943 3.44186139 2.20988098
      vertex 1.71616632 3.27347436 2.18822106
      vertex 1.71598971 3.27348627 2.18746104
    endloop
  endfacet
  facet normal -0.448054107 0.886184847 0.117999722
    outer loop
      vertex 1.6292512 3.44094707 2.210641
      vertex 1.63103604 3.44184948 2.210641
      vertex 1.63085943 3.44186139 2.20988098
    endloop
  endfacet
  facet normal 0.448054107 -0.886184847 -0.117999722
    outer loop
      vertex 1.71438148 3.27257195 2.18822106
      vertex 1.71598971 3.27348627 2.18746104
      vertex 1.71616632 3.27347436 2.18822106
    endloop
  endfacet
  facet normal 0.885659073 0.42199256 0.193727348
    outer loop
      vertex 1.63103604 3.44184948 2.210641
      vertex 1.63094093 3.44170019 2.21140102
      vertex 1.71607121 3.27332507 2.18898108
    endloop
  endfacet
  facet normal 0.885659073 0.42199256 0.193727348
    outer loop
      vertex 1.63103604 3.44184948 2.210641
      vertex 1.71607121 3.27332507 2.18898108
      vertex 1.71616632 3.27347436 2.18822106
    endloop
  endfacet
  facet normal -0.448054107 0.886184847 0.117999722
    outer loop
      vertex 1.6292512 3.44094707 2.210641
      vertex 1.63094093 3.44170019 2.21140102
      vertex 1.63103604 3.44184948 2.210641
    endloop
  endfacet
  facet normal 0.448054107 -0.886184847 -0.117999722
    outer loop
      vertex 1.71438148 3.27257195 2.18822106
      vertex 1.71616632 3.27347436 2.18822106
      vertex 1.71607121 3.27332507 2.18898108
    endloop
  endfacet
  facet normal 0.771599596 0.316659941 0.551688813
    outer loop
      vertex 1.63094093 3.44170019 2.21140102
      vertex 1.63058857 3.44143625 2.21204534
      vertex 1.71571885 3.27306113 2.18962539
    endloop
  endfacet
  facet normal 0.771599596 0.316659941 0.551688813
    outer loop
      vertex 1.63094093 3.44170019 2.21140102
      vertex 1.71571885 3.27306113 2.18962539
      vertex 1.71607121 3.27332507 2.18898108
    endloop
  endfacet
  facet normal -0.448054107 0.886184847 0.117999722
    outer loop
      vertex 1.6292512 3.44094707 2.210641
      vertex 1.63058857 3.44143625 2.21204534
      vertex 1.63094093 3.44170019 2.21140102
    endloop
  endfacet
  facet normal 0.448054107 -0.886184847 -0.117999722
    outer loop
      vertex 1.71438148 3.27257195 2.18822106
      vertex 1.71607121 3.27332507 2.18898108
      vertex 1.71571885 3.27306113 2.18962539
    endloop
  endfacet
  facet normal 0.540071074 0.163118717 0.825660656
    outer loop
      vertex 1.63058857 3.44143625 2.21204534
      vertex 1.63003261 3.44109783 2.21247585
      vertex 1.71516289 3.27272271 2.19005591
    endloop
  endfacet
  facet normal 0.540071074 0.163118717 0.825660656
    outer loop
      vertex 1.63058857 3.44143625 2.21204534
      vertex 1.71516289 3.27272271 2.19005591
      vertex 1.71571885 3.27306113 2.18962539
    endloop
  endfacet
  facet normal -0.448054107 0.886184847 0.117999722
    outer loop
      vertex 1.6292512 3.44094707 2.210641
      vertex 1.63003261 3.44109783 2.21247585
      vertex 1.63058857 3.44143625 2.21204534
    endloop
  endfacet
  facet normal 0.448054107 -0.886184847 -0.117999722
    outer loop
      vertex 1.71438148 3.27257195 2.18822106
      vertex 1.71571885 3.27306113 2.18962539
      vertex 1.71516289 3.27272271 2.19005591
    endloop
  endfacet
  facet normal 0.226321627 -0.0152558536 0.97393315
    outer loop
      vertex 1.63003261 3.44109783 2.21247585
      vertex 1.62935768 3.44073646 2.21262703
      vertex 1.71448796 3.27236134 2.19020708
    endloop
  endfacet
  facet normal 0.226321627 -0.0152558536 0.97393315
    outer loop
      vertex 1.63003261 3.44109783 2.21247585
      vertex 1.71448796 3.27236134 2.19020708
      vertex 1.71516289 3.27272271 2.19005591
    endloop
  endfacet
  facet normal -0.448054107 0.886184847 0.117999722
    outer loop
      vertex 1.6292512 3.44094707 2.210641
      vertex 1.62935768 3.44073646 2.21262703
      vertex 1.63003261 3.44109783 2.21247585
    endloop
  endfacet
  facet normal 0.448054107 -0.886184847 -0.117999722
    outer loop
      vertex 1.71438148 3.27257195 2.18822106
      vertex 1.71516289 3.27272271 2.19005591
      vertex 1.71448796 3.27236134 2.19020708
    endloop
  endfacet
  facet normal -0.121883236 -0.191307858 0.97393315
    outer loop
      vertex 1.62935768 3.44073646 2.21262703
      vertex 1.62866655 3.44040715 2.21247585
      vertex 1.71379683 3.27203203 2.19005591
    endloop
  endfacet
  facet normal -0.121883236 -0.191307858 0.97393315
    outer loop
      vertex 1.62935768 3.44073646 2.21262703
      vertex 1.71379683 3.27203203 2.19005591
      vertex 1.71448796 3.27236134 2.19020708
    endloop
  endfacet
  facet normal -0.448054107 0.886184847 0.117999722
    outer loop
      vertex 1.6292512 3.44094707 2.210641
      vertex 1.62866655 3.44040715 2.21247585
      vertex 1.62935768 3.44073646 2.21262703
    endloop
  endfacet
  facet normal 0.448054107 -0.886184847 -0.117999722
    outer loop
      vertex 1.71438148 3.27257195 2.18822106
      vertex 1.71448796 3.27236134 2.19020708
      vertex 1.71379683 3.27203203 2.19005591
    endloop
  endfacet
  facet normal -0.451532481 -0.338234976 0.825660656
    outer loop
      vertex 1.62866655 3.44040715 2.21247585
      vertex 1.62806442 3.44016004 2.21204534
      vertex 1.7131947 3.27178492 2.18962539
    endloop
  endfacet
  facet normal -0.451532481 -0.338234976 0.825660656
    outer loop
      vertex 1.62866655 3.44040715 2.21247585
      vertex 1.7131947 3.27178492 2.18962539
      vertex 1.71379683 3.27203203 2.19005591
    endloop
  endfacet
  facet normal -0.448054107 0.886184847 0.117999722
    outer loop
      vertex 1.6292512 3.44094707 2.210641
      vertex 1.62806442 3.44016004 2.21204534
      vertex 1.62866655 3.44040715 2.21247585
    endloop
  endfacet
  facet normal 0.448054107 -0.886184847 -0.117999722
    outer loop
      vertex 1.71438148 3.27257195 2.18822106
      vertex 1.71379683 3.27203203 2.19005591
      vertex 1.7131947 3.27178492 2.18962539
    endloop
  endfacet
  facet normal -0.712439999 -0.433668884 0.551688813
    outer loop
      vertex 1.62806442 3.44016004 2.21204534
      vertex 1.62764297 3.44003275 2.21140102
      vertex 1.71277325 3.27165763 2.18898108
    endloop
  endfacet
  facet normal -0.712439999 -0.433668884 0.551688813
    outer loop
      vertex 1.62806442 3.44016004 2.21204534
      vertex 1.71277325 3.27165763 2.18898108
      vertex 1.7131947 3.27178492 2.18962539
    endloop
  endfacet
  facet normal -0.448054107 0.886184847 0.117999722
    outer loop
      vertex 1.6292512 3.44094707 2.210641
      vertex 1.62764297 3.44003275 2.21140102
      vertex 1.62806442 3.44016004 2.21204534
    endloop
  endfacet
  facet normal 0.448054107 -0.886184847 -0.117999722
    outer loop
      vertex 1.71438148 3.27257195 2.18822106
      vertex 1.7131947 3.27178492 2.18962539
      vertex 1.71277325 3.27165763 2.18898108
    endloop
  endfacet
  facet normal -0.864884986 -0.463080637 0.193727348
    outer loop
      vertex 1.62764297 3.44003275 2.21140102
      vertex 1.62746636 3.44004466 2.210641
      vertex 1.71259664 3.27166954 2.18822106
    endloop
  endfacet
  facet normal -0.864884986 -0.463080637 0.193727348
    outer loop
      vertex 1.62764297 3.44003275 2.21140102
      vertex 1.71259664 3.27166954 2.18822106
      vertex 1.71277325 3.27165763 2.18898108
    endloop
  endfacet
  facet normal -0.448054107 0.886184847 0.117999722
    outer loop
      vertex 1.6292512 3.44094707 2.210641
      vertex 1.62746636 3.44004466 2.210641
      vertex 1.62764297 3.44003275 2.21140102
    endloop
  endfacet
  facet normal 0.448054107 -0.886184847 -0.117999722
    outer loop
      vertex 1.71438148 3.27257195 2.18822106
      vertex 1.71277325 3.27165763 2.18898108
      vertex 1.71259664 3.27166954 2.18822106
    endloop
  endfacet
endsolid d15_features
