solid beam
  facet normal -0.6333496841050773 0.5210581493893143 -0.5721595779142231
    outer loop
      vertex 0.9561418890953064 -1.203383445739746 1.985451340675354
      vertex 0.9628011584281921 -1.1621538400650024 2.015627145767212
      vertex 0.9999140501022339 -1.1556396484375 1.9804775714874268
    endloop
  endfacet
  facet normal -0.6333498550824651 0.5210576395858293 -0.5721598529224717
    outer loop
      vertex 0.9999140501022339 -1.1556396484375 1.9804775714874268
      vertex 0.9628011584281921 -1.1621538400650024 2.015627145767212
      vertex 0.9846872687339783 -1.1382819414138794 2.0131402015686035
    endloop
  endfacet
  facet normal -0.6333513849013015 0.5210593840734997 -0.572156570802563
    outer loop
      vertex 0.9932547807693481 -1.196869134902954 1.9503016471862793
      vertex 0.9999140501022339 -1.1556396484375 1.9804775714874268
      vertex 1.0151408910751343 -1.172997236251831 1.947814702987671
    endloop
  endfacet
  facet normal -0.6333510951119691 0.521059053619797 -0.5721571925278148
    outer loop
      vertex 0.9561418890953064 -1.203383445739746 1.985451340675354
      vertex 0.9932547807693481 -1.196869134902954 1.9503016471862793
      vertex 0.971368670463562 -1.2207410335540771 1.9527885913848877
    endloop
  endfacet
  facet normal -0.6333512871394064 0.521057525447924 -0.5721583716532891
    outer loop
      vertex 0.9561418890953064 -1.203383445739746 1.985451340675354
      vertex 0.9409151077270508 -1.1860257387161255 2.0181140899658203
      vertex 0.9628011584281921 -1.1621538400650024 2.015627145767212
    endloop
  endfacet
  facet normal -0.6333509241362573 0.5210595634163934 -0.5721569175218161
    outer loop
      vertex 0.9932547807693481 -1.196869134902954 1.9503016471862793
      vertex 0.9561418890953064 -1.203383445739746 1.985451340675354
      vertex 0.9999140501022339 -1.1556396484375 1.9804775714874268
    endloop
  endfacet
  facet normal 0.8650869010819806 0.47907564858113044 0.14869827340270197
    outer loop
      vertex 1.1872320175170898 -1.6023298501968384 2.3298587799072266
      vertex 1.2197213172912598 -1.6782265901565552 2.385368585586548
      vertex 1.2273364067077637 -1.6869093179702759 2.369040012359619
    endloop
  endfacet
  facet normal 0.8650876260638772 0.47907500259545444 0.1486961368675405
    outer loop
      vertex 1.1872320175170898 -1.6023298501968384 2.3298587799072266
      vertex 1.2273364067077637 -1.6869093179702759 2.369040012359619
      vertex 1.1948469877243042 -1.6110124588012695 2.313530206680298
    endloop
  endfacet
  facet normal 0.8650856627770329 0.4790772411280138 0.14870034663978549
    outer loop
      vertex 1.1948469877243042 -1.6110124588012695 2.313530206680298
      vertex 1.2273364067077637 -1.6869093179702759 2.369040012359619
      vertex 1.2349514961242676 -1.695591926574707 2.3527114391326904
    endloop
  endfacet
  facet normal 0.8650865625521414 0.47907643940446215 0.14869769500319324
    outer loop
      vertex 1.1948469877243042 -1.6110124588012695 2.313530206680298
      vertex 1.2349514961242676 -1.695591926574707 2.3527114391326904
      vertex 1.202462077140808 -1.6196951866149902 2.297201633453369
    endloop
  endfacet
  facet normal 0.8650865625521414 0.47907643940446215 0.14869769500319324
    outer loop
      vertex 1.024785041809082 -1.2228460311889648 2.0523102283477783
      vertex 1.0572744607925415 -1.2987427711486816 2.1078200340270996
      vertex 1.0648895502090454 -1.3074254989624023 2.091491460800171
    endloop
  endfacet
  facet normal 0.8650856627770329 0.4790772411280138 0.14870034663978549
    outer loop
      vertex 1.024785041809082 -1.2228460311889648 2.0523102283477783
      vertex 1.0648895502090454 -1.3074254989624023 2.091491460800171
      vertex 1.032400131225586 -1.231528639793396 2.0359816551208496
    endloop
  endfacet
  facet normal 0.8650876260638772 0.47907500259545444 0.1486961368675405
    outer loop
      vertex 1.032400131225586 -1.231528639793396 2.0359816551208496
      vertex 1.0648895502090454 -1.3074254989624023 2.091491460800171
      vertex 1.0725045204162598 -1.3161081075668335 2.075162887573242
    endloop
  endfacet
  facet normal 0.8650869010819806 0.47907564858113044 0.14869827340270197
    outer loop
      vertex 1.032400131225586 -1.231528639793396 2.0359816551208496
      vertex 1.0725045204162598 -1.3161081075668335 2.075162887573242
      vertex 1.0400152206420898 -1.2402113676071167 2.019653081893921
    endloop
  endfacet
  facet normal 0.8650871149430397 0.4790754580237352 0.1486976431517202
    outer loop
      vertex 1.2349514961242676 -1.695591926574707 2.3527114391326904
      vertex 1.25822114944458 -1.7590575218200684 2.4218082427978516
      vertex 1.2750558853149414 -1.7801713943481445 2.391892671585083
    endloop
  endfacet
  facet normal 0.8650878040777562 0.47907484397745387 0.1486956122550497
    outer loop
      vertex 1.22307288646698 -1.6587365865707397 2.303076982498169
      vertex 1.2349514961242676 -1.695591926574707 2.3527114391326904
      vertex 1.2750558853149414 -1.7801713943481445 2.391892671585083
    endloop
  endfacet
  facet normal 0.8650855251818513 0.47907756255648726 0.1487001115526663
    outer loop
      vertex 1.2273364067077637 -1.6869093179702759 2.369040012359619
      vertex 1.25822114944458 -1.7590575218200684 2.4218082427978516
      vertex 1.2349514961242676 -1.695591926574707 2.3527114391326904
    endloop
  endfacet
  facet normal 0.865086835948733 0.4790758608600981 0.14869796841035085
    outer loop
      vertex 1.202462077140808 -1.6196951866149902 2.297201633453369
      vertex 1.22307288646698 -1.6587365865707397 2.303076982498169
      vertex 1.1710898876190186 -1.537301778793335 2.214261531829834
    endloop
  endfacet
  facet normal 0.8650867784473227 0.4790759350623871 0.14869806387351578
    outer loop
      vertex 1.1710898876190186 -1.537301778793335 2.214261531829834
      vertex 1.1948469877243042 -1.6110124588012695 2.313530206680298
      vertex 1.202462077140808 -1.6196951866149902 2.297201633453369
    endloop
  endfacet
  facet normal 0.8650866914438998 0.47907602044044256 0.1486982949653269
    outer loop
      vertex 1.1948469877243042 -1.6110124588012695 2.313530206680298
      vertex 1.0648895502090454 -1.3074254989624023 2.091491460800171
      vertex 1.0947011709213257 -1.395279884338379 2.2011046409606934
    endloop
  endfacet
  facet normal 0.8650865169784205 0.47907618765197346 0.148698771235663
    outer loop
      vertex 1.1948469877243042 -1.6110124588012695 2.313530206680298
      vertex 1.0947011709213257 -1.395279884338379 2.2011046409606934
      vertex 1.1313724517822266 -1.4809458255767822 2.2637593746185303
    endloop
  endfacet
  facet normal 0.865087130414661 0.4790757919271319 0.14869647736351563
    outer loop
      vertex 1.22307288646698 -1.6587365865707397 2.303076982498169
      vertex 1.202462077140808 -1.6196951866149902 2.297201633453369
      vertex 1.2349514961242676 -1.695591926574707 2.3527114391326904
    endloop
  endfacet
  facet normal 0.8650864021157249 0.47907650695366893 0.14869841074988482
    outer loop
      vertex 1.2413864135742188 -1.7379437685012817 2.45172381401062
      vertex 1.25822114944458 -1.7590575218200684 2.4218082427978516
      vertex 1.2197213172912598 -1.6782265901565552 2.385368585586548
    endloop
  endfacet
  facet normal 0.8650866124330517 0.4790763228802271 0.14869778022777405
    outer loop
      vertex 1.2197213172912598 -1.6782265901565552 2.385368585586548
      vertex 1.25822114944458 -1.7590575218200684 2.4218082427978516
      vertex 1.2273364067077637 -1.6869093179702759 2.369040012359619
    endloop
  endfacet
  facet normal 0.8650884169319747 0.47907382269495785 0.14869533717830558
    outer loop
      vertex 1.2047151327133179 -1.6522777080535889 2.389069080352783
      vertex 1.2413864135742188 -1.7379437685012817 2.45172381401062
      vertex 1.2197213172912598 -1.6782265901565552 2.385368585586548
    endloop
  endfacet
  facet normal 0.8650885028923917 0.47907404660016856 0.1486941156789339
    outer loop
      vertex 1.168043851852417 -1.5666117668151855 2.326414108276367
      vertex 1.2047151327133179 -1.6522777080535889 2.389069080352783
      vertex 1.2197213172912598 -1.6782265901565552 2.385368585586548
    endloop
  endfacet
  facet normal 0.8650872145526569 0.47907529116185393 0.14869760124396889
    outer loop
      vertex 1.168043851852417 -1.5666117668151855 2.326414108276367
      vertex 1.2197213172912598 -1.6782265901565552 2.385368585586548
      vertex 1.1872320175170898 -1.6023298501968384 2.3298587799072266
    endloop
  endfacet
  facet normal 0.865087624340167 0.47907528370178465 0.1486952412134993
    outer loop
      vertex 1.1872320175170898 -1.6023298501968384 2.3298587799072266
      vertex 1.1313724517822266 -1.4809458255767822 2.2637593746185303
      vertex 1.168043851852417 -1.5666117668151855 2.326414108276367
    endloop
  endfacet
  facet normal 0.8650874195419909 0.4790754850390538 0.14869578401815928
    outer loop
      vertex 1.1313724517822266 -1.4809458255767822 2.2637593746185303
      vertex 1.1872320175170898 -1.6023298501968384 2.3298587799072266
      vertex 1.1948469877243042 -1.6110124588012695 2.313530206680298
    endloop
  endfacet
  facet normal 0.8650868302279584 0.47907586219928655 0.14869799737775122
    outer loop
      vertex 1.0648895502090454 -1.3074254989624023 2.091491460800171
      vertex 1.1948469877243042 -1.6110124588012695 2.313530206680298
      vertex 1.1710898876190186 -1.537301778793335 2.214261531829834
    endloop
  endfacet
  facet normal 0.8650865447468647 0.47907613974973656 0.14869876401780116
    outer loop
      vertex 1.0648895502090454 -1.3074254989624023 2.091491460800171
      vertex 1.1710898876190186 -1.537301778793335 2.214261531829834
      vertex 1.1191068887710571 -1.4158668518066406 2.12544584274292
    endloop
  endfacet
  facet normal 0.8650873723730456 0.4790755952275046 0.14869570342855198
    outer loop
      vertex 1.0648895502090454 -1.3074254989624023 2.091491460800171
      vertex 1.1191068887710571 -1.4158668518066406 2.12544584274292
      vertex 1.0725045204162598 -1.3161081075668335 2.075162887573242
    endloop
  endfacet
  facet normal 0.8650856481498495 0.4790772151781034 0.14870051533988782
    outer loop
      vertex 1.0671238899230957 -1.2944320440292358 2.036630392074585
      vertex 1.0725045204162598 -1.3161081075668335 2.075162887573242
      vertex 1.1191068887710571 -1.4158668518066406 2.12544584274292
    endloop
  endfacet
  facet normal 0.865086497825784 0.47907633336924554 0.14869841318924557
    outer loop
      vertex 1.0400152206420898 -1.2402113676071167 2.019653081893921
      vertex 1.0671238899230957 -1.2944320440292358 2.036630392074585
      vertex 1.0151408910751343 -1.172997236251831 1.947814702987671
    endloop
  endfacet
  facet normal 0.8650866486307769 0.47907623832054236 0.14869784207381698
    outer loop
      vertex 1.0400152206420898 -1.2402113676071167 2.019653081893921
      vertex 0.9999140501022339 -1.1556396484375 1.9804775714874268
      vertex 1.032400131225586 -1.231528639793396 2.0359816551208496
    endloop
  endfacet
  facet normal 0.8650864053273494 0.47907645510371977 0.14869855911561036
    outer loop
      vertex 0.9999140501022339 -1.1556396484375 1.9804775714874268
      vertex 1.0400152206420898 -1.2402113676071167 2.019653081893921
      vertex 1.0151408910751343 -1.172997236251831 1.947814702987671
    endloop
  endfacet
  facet normal 0.8650860312833251 0.47907664032038744 0.1487001384592355
    outer loop
      vertex 1.0671238899230957 -1.2944320440292358 2.036630392074585
      vertex 1.0400152206420898 -1.2402113676071167 2.019653081893921
      vertex 1.0725045204162598 -1.3161081075668335 2.075162887573242
    endloop
  endfacet
  facet normal 0.865086832617021 0.4790758277621445 0.14869809442849727
    outer loop
      vertex 1.0580298900604248 -1.3096139430999756 2.1384499073028564
      vertex 1.0947011709213257 -1.395279884338379 2.2011046409606934
      vertex 1.0572744607925415 -1.2987427711486816 2.1078200340270996
    endloop
  endfacet
  facet normal 0.8650868145241569 0.47907585078496934 0.14869812551308365
    outer loop
      vertex 1.0648895502090454 -1.3074254989624023 2.091491460800171
      vertex 1.0572744607925415 -1.2987427711486816 2.1078200340270996
      vertex 1.0947011709213257 -1.395279884338379 2.2011046409606934
    endloop
  endfacet
  facet normal 0.865086832617021 0.4790758277621445 0.14869809442849727
    outer loop
      vertex 1.021358609199524 -1.2239480018615723 2.0757951736450195
      vertex 1.0580298900604248 -1.3096139430999756 2.1384499073028564
      vertex 1.0572744607925415 -1.2987427711486816 2.1078200340270996
    endloop
  endfacet
  facet normal 0.8650878616534777 0.4790749581632071 0.14869490939751376
    outer loop
      vertex 1.021358609199524 -1.2239480018615723 2.0757951736450195
      vertex 1.0572744607925415 -1.2987427711486816 2.1078200340270996
      vertex 1.024785041809082 -1.2228460311889648 2.0523102283477783
    endloop
  endfacet
  facet normal 0.8650873086628412 0.47907517842255654 0.14869741695765062
    outer loop
      vertex 0.9846872687339783 -1.1382819414138794 2.0131402015686035
      vertex 1.024785041809082 -1.2228460311889648 2.0523102283477783
      vertex 0.9999140501022339 -1.1556396484375 1.9804775714874268
    endloop
  endfacet
  facet normal 0.8650881535134409 0.47907442567616065 0.14869492699403705
    outer loop
      vertex 1.024785041809082 -1.2228460311889648 2.0523102283477783
      vertex 0.9846872687339783 -1.1382819414138794 2.0131402015686035
      vertex 1.021358609199524 -1.2239480018615723 2.0757951736450195
    endloop
  endfacet
  facet normal 0.8650855613806216 0.47907747799459055 0.1487001733997555
    outer loop
      vertex 1.024785041809082 -1.2228460311889648 2.0523102283477783
      vertex 1.032400131225586 -1.231528639793396 2.0359816551208496
      vertex 0.9999140501022339 -1.1556396484375 1.9804775714874268
    endloop
  endfacet
  facet normal -0.8650868005832123 -0.4790758833517666 -0.14869810169409037
    outer loop
      vertex 1.0061373710632324 -1.3292816877365112 2.100210428237915
      vertex 0.9773304462432861 -1.261987328529358 2.050992488861084
      vertex 0.98494553565979 -1.2706700563430786 2.0346639156341553
    endloop
  endfacet
  facet normal -0.8650868005832123 -0.4790758833517666 -0.14869810169409037
    outer loop
      vertex 1.0061373710632324 -1.3292816877365112 2.100210428237915
      vertex 0.98494553565979 -1.2706700563430786 2.0346639156341553
      vertex 1.0137524604797363 -1.337964415550232 2.0838818550109863
    endloop
  endfacet
  facet normal -0.8650866949793541 -0.4790760037608278 -0.14869832813536696
    outer loop
      vertex 1.0137524604797363 -1.337964415550232 2.0838818550109863
      vertex 0.98494553565979 -1.2706700563430786 2.0346639156341553
      vertex 0.9925605654716492 -1.2793526649475098 2.0183353424072266
    endloop
  endfacet
  facet normal -0.8650878675241384 -0.47907443853311144 -0.14869654941094854
    outer loop
      vertex 1.0137524604797363 -1.337964415550232 2.0838818550109863
      vertex 0.9925605654716492 -1.2793526649475098 2.0183353424072266
      vertex 1.0213674306869507 -1.346647024154663 2.0675532817840576
    endloop
  endfacet
  facet normal -0.8650866693278481 -0.4790761899711417 -0.1486978774360452
    outer loop
      vertex 1.1501719951629639 -1.6657534837722778 2.3463008403778076
      vertex 1.1213650703430176 -1.5984591245651245 2.2970826625823975
      vertex 1.1289801597595215 -1.6071418523788452 2.2807540893554688
    endloop
  endfacet
  facet normal -0.865089014407024 -0.47907305951154977 -0.1486943200076149
    outer loop
      vertex 1.1501719951629639 -1.6657534837722778 2.3463008403778076
      vertex 1.1289801597595215 -1.6071418523788452 2.2807540893554688
      vertex 1.1577869653701782 -1.6744362115859985 2.329972267150879
    endloop
  endfacet
  facet normal -0.8650879271730944 -0.47907429919017996 -0.1486966513234142
    outer loop
      vertex 1.1577869653701782 -1.6744362115859985 2.329972267150879
      vertex 1.1289801597595215 -1.6071418523788452 2.2807540893554688
      vertex 1.1365951299667358 -1.6158244609832764 2.26442551612854
    endloop
  endfacet
  facet normal -0.8650855820770237 -0.47907742964688416 -0.14870020876041778
    outer loop
      vertex 1.1577869653701782 -1.6744362115859985 2.329972267150879
      vertex 1.1365951299667358 -1.6158244609832764 2.26442551612854
      vertex 1.1654020547866821 -1.6831188201904297 2.31364369392395
    endloop
  endfacet
  facet normal -0.8650865118944207 -0.47907659125095703 -0.14869750049583147
    outer loop
      vertex 0.9561418890953064 -1.203383445739746 1.985451340675354
      vertex 0.971368670463562 -1.2207410335540771 1.9527885913848877
      vertex 0.9925605654716492 -1.2793526649475098 2.0183353424072266
    endloop
  endfacet
  facet normal -0.8650867349554981 -0.47907603666157944 -0.14869798956498623
    outer loop
      vertex 0.971368670463562 -1.2207410335540771 1.9527885913848877
      vertex 1.0289825201034546 -1.3553297519683838 2.051224708557129
      vertex 1.0213674306869507 -1.346647024154663 2.0675532817840576
    endloop
  endfacet
  facet normal -0.8650896296519608 -0.4790724293299042 -0.1486927709223857
    outer loop
      vertex 0.971368670463562 -1.2207410335540771 1.9527885913848877
      vertex 1.0213674306869507 -1.346647024154663 2.0675532817840576
      vertex 0.9925605654716492 -1.2793526649475098 2.0183353424072266
    endloop
  endfacet
  facet normal -0.8650864042580232 -0.4790766828982348 -0.14869783142718665
    outer loop
      vertex 0.98494553565979 -1.2706700563430786 2.0346639156341553
      vertex 0.9561418890953064 -1.203383445739746 1.985451340675354
      vertex 0.9925605654716492 -1.2793526649475098 2.0183353424072266
    endloop
  endfacet
  facet normal -0.8650875258089538 -0.47907523679519376 -0.14869596557866616
    outer loop
      vertex 1.0213674306869507 -1.346647024154663 2.0675532817840576
      vertex 1.0865963697433472 -1.4899184703826904 2.14966082572937
      vertex 1.0137524604797363 -1.337964415550232 2.0838818550109863
    endloop
  endfacet
  facet normal -0.8650865098639915 -0.47907656248648245 -0.14869760498230572
    outer loop
      vertex 0.9773304462432861 -1.261987328529358 2.050992488861084
      vertex 0.9561418890953064 -1.203383445739746 1.985451340675354
      vertex 0.98494553565979 -1.2706700563430786 2.0346639156341553
    endloop
  endfacet
  facet normal -0.8650861841159952 -0.4790765096581397 -0.14869967029351627
    outer loop
      vertex 0.9787883162498474 -1.274499535560608 2.082822561264038
      vertex 0.9409151077270508 -1.1860257387161255 2.0181140899658203
      vertex 0.9773304462432861 -1.261987328529358 2.050992488861084
    endloop
  endfacet
  facet normal -0.8650871927376214 -0.47907565090659027 -0.14869656912574897
    outer loop
      vertex 0.9561418890953064 -1.203383445739746 1.985451340675354
      vertex 0.9773304462432861 -1.261987328529358 2.050992488861084
      vertex 0.9409151077270508 -1.1860257387161255 2.0181140899658203
    endloop
  endfacet
  facet normal -0.8650860163550639 -0.47907677752261146 -0.14869978327313227
    outer loop
      vertex 1.0061373710632324 -1.3292816877365112 2.100210428237915
      vertex 0.9787883162498474 -1.274499535560608 2.082822561264038
      vertex 0.9773304462432861 -1.261987328529358 2.050992488861084
    endloop
  endfacet
  facet normal -0.865086826206452 -0.47907582349449535 -0.1486981454730321
    outer loop
      vertex 1.0545347929000854 -1.4514470100402832 2.2122392654418945
      vertex 1.0061373710632324 -1.3292816877365112 2.100210428237915
      vertex 1.0137524604797363 -1.337964415550232 2.0838818550109863
    endloop
  endfacet
  facet normal -0.865088845761665 -0.479073301197285 -0.14869452249052742
    outer loop
      vertex 1.0061373710632324 -1.3292816877365112 2.100210428237915
      vertex 1.0545347929000854 -1.4514470100402832 2.2122392654418945
      vertex 1.0166616439819336 -1.3629732131958008 2.1475307941436768
    endloop
  endfacet
  facet normal -0.8650862787751031 -0.479076556796196 -0.14869896772790955
    outer loop
      vertex 1.1289801597595215 -1.6071418523788452 2.2807540893554688
      vertex 1.0545347929000854 -1.4514470100402832 2.2122392654418945
      vertex 1.0137524604797363 -1.337964415550232 2.0838818550109863
    endloop
  endfacet
  facet normal -0.8650867412208887 -0.47907629466803064 -0.14869712186513034
    outer loop
      vertex 0.9787883162498474 -1.274499535560608 2.082822561264038
      vertex 1.0061373710632324 -1.3292816877365112 2.100210428237915
      vertex 1.0166616439819336 -1.3629732131958008 2.1475307941436768
    endloop
  endfacet
  facet normal -0.8650867349554981 -0.47907603666157944 -0.14869798956498623
    outer loop
      vertex 1.0865963697433472 -1.4899184703826904 2.14966082572937
      vertex 1.0213674306869507 -1.346647024154663 2.0675532817840576
      vertex 1.0289825201034546 -1.3553297519683838 2.051224708557129
    endloop
  endfacet
  facet normal -0.865087696176437 -0.47907483880941154 -0.14869625665725705
    outer loop
      vertex 1.1289801597595215 -1.6071418523788452 2.2807540893554688
      vertex 1.0865963697433472 -1.4899184703826904 2.14966082572937
      vertex 1.1365951299667358 -1.6158244609832764 2.26442551612854
    endloop
  endfacet
  facet normal -0.8650867349554981 -0.47907603666157944 -0.14869798956498623
    outer loop
      vertex 1.1442102193832397 -1.624507188796997 2.2480969429016113
      vertex 1.1365951299667358 -1.6158244609832764 2.26442551612854
      vertex 1.0865963697433472 -1.4899184703826904 2.14966082572937
    endloop
  endfacet
  facet normal -0.8650866486396634 -0.4790762382997831 -0.14869784208900008
    outer loop
      vertex 1.1289801597595215 -1.6071418523788452 2.2807540893554688
      vertex 1.1213650703430176 -1.5984591245651245 2.2970826625823975
      vertex 1.0545347929000854 -1.4514470100402832 2.2122392654418945
    endloop
  endfacet
  facet normal -0.8650870724174089 -0.47907565188783446 -0.14869726596183075
    outer loop
      vertex 1.1654020547866821 -1.6831188201904297 2.31364369392395
      vertex 1.1442102193832397 -1.624507188796997 2.2480969429016113
      vertex 1.2018240690231323 -1.7590959072113037 2.3465330600738525
    endloop
  endfacet
  facet normal -0.8650866693278481 -0.4790761899711417 -0.1486978774360452
    outer loop
      vertex 1.1365951299667358 -1.6158244609832764 2.26442551612854
      vertex 1.1442102193832397 -1.624507188796997 2.2480969429016113
      vertex 1.1654020547866821 -1.6831188201904297 2.31364369392395
    endloop
  endfacet
  facet normal -0.8650870213493452 -0.47907569537182493 -0.14869742296664032
    outer loop
      vertex 1.2018240690231323 -1.7590959072113037 2.3465330600738525
      vertex 1.184989333152771 -1.7379820346832275 2.376448631286621
      vertex 1.1654020547866821 -1.6831188201904297 2.31364369392395
    endloop
  endfacet
  facet normal -0.865086383554551 -0.479076455901992 -0.14869868321170443
    outer loop
      vertex 1.1302813291549683 -1.6283944845199585 2.341655969619751
      vertex 1.0924080610275269 -1.539920687675476 2.276947498321533
      vertex 1.1213650703430176 -1.5984591245651245 2.2970826625823975
    endloop
  endfacet
  facet normal -0.8650865549086729 -0.47907633345907513 -0.1486980808068912
    outer loop
      vertex 1.1213650703430176 -1.5984591245651245 2.2970826625823975
      vertex 1.0924080610275269 -1.539920687675476 2.276947498321533
      vertex 1.0545347929000854 -1.4514470100402832 2.2122392654418945
    endloop
  endfacet
  facet normal -0.8650861856324262 -0.47907674147873486 -0.14869891459609494
    outer loop
      vertex 1.1501719951629639 -1.6657534837722778 2.3463008403778076
      vertex 1.1302813291549683 -1.6283944845199585 2.341655969619751
      vertex 1.1213650703430176 -1.5984591245651245 2.2970826625823975
    endloop
  endfacet
  facet normal -0.8650884301988114 -0.4790744242511414 -0.14869332185607298
    outer loop
      vertex 1.1501719951629639 -1.6657534837722778 2.3463008403778076
      vertex 1.1577869653701782 -1.6744362115859985 2.329972267150879
      vertex 1.184989333152771 -1.7379820346832275 2.376448631286621
    endloop
  endfacet
  facet normal -0.8650853796802529 -0.4790779024542198 -0.1486998629573602
    outer loop
      vertex 1.1654020547866821 -1.6831188201904297 2.31364369392395
      vertex 1.184989333152771 -1.7379820346832275 2.376448631286621
      vertex 1.1577869653701782 -1.6744362115859985 2.329972267150879
    endloop
  endfacet
  facet normal -0.865086198608805 -0.47907673971003295 -0.14869884480174184
    outer loop
      vertex 1.1302813291549683 -1.6283944845199585 2.341655969619751
      vertex 1.1501719951629639 -1.6657534837722778 2.3463008403778076
      vertex 1.1681545972824097 -1.7168681621551514 2.4063642024993896
    endloop
  endfacet
  facet normal -0.8650870809672753 -0.47907554418430515 -0.14869756322156294
    outer loop
      vertex 1.184989333152771 -1.7379820346832275 2.376448631286621
      vertex 1.1681545972824097 -1.7168681621551514 2.4063642024993896
      vertex 1.1501719951629639 -1.6657534837722778 2.3463008403778076
    endloop
  endfacet
  facet normal -0.8650871729735887 -0.47907553723355234 -0.1486970503438022
    outer loop
      vertex 1.0865963697433472 -1.4899184703826904 2.14966082572937
      vertex 1.1289801597595215 -1.6071418523788452 2.2807540893554688
      vertex 1.0137524604797363 -1.337964415550232 2.0838818550109863
    endloop
  endfacet
  facet normal 0.38075309390587075 -0.43413372052558813 -0.8164281929133252
    outer loop
      vertex 1.238439917564392 -1.7696336507797241 2.3692128658294678
      vertex 1.22307288646698 -1.6587365865707397 2.303076982498169
      vertex 1.2750558853149414 -1.7801713943481445 2.391892671585083
    endloop
  endfacet
  facet normal 0.380752911167038 -0.43413266763227737 -0.8164288380087442
    outer loop
      vertex 1.1442102193832397 -1.624507188796997 2.2480969429016113
      vertex 1.1710898876190186 -1.537301778793335 2.214261531829834
      vertex 1.22307288646698 -1.6587365865707397 2.303076982498169
    endloop
  endfacet
  facet normal 0.38075206813377105 -0.4341331344951402 -0.8164289829160162
    outer loop
      vertex 1.0671238899230957 -1.2944320440292358 2.036630392074585
      vertex 1.1191068887710571 -1.4158668518066406 2.12544584274292
      vertex 1.0865963697433472 -1.4899184703826904 2.14966082572937
    endloop
  endfacet
  facet normal 0.38075373253714706 -0.4341326644207479 -0.8164284566586181
    outer loop
      vertex 1.0671238899230957 -1.2944320440292358 2.036630392074585
      vertex 1.0865963697433472 -1.4899184703826904 2.14966082572937
      vertex 1.0289825201034546 -1.3553297519683838 2.051224708557129
    endloop
  endfacet
  facet normal 0.3807525346850989 -0.4341340302162076 -0.8164282890365238
    outer loop
      vertex 0.9932547807693481 -1.196869134902954 1.9503016471862793
      vertex 1.0151408910751343 -1.172997236251831 1.947814702987671
      vertex 1.0671238899230957 -1.2944320440292358 2.036630392074585
    endloop
  endfacet
  facet normal 0.380754196229858 -0.43413280322730524 -0.8164281665984807
    outer loop
      vertex 1.1191068887710571 -1.4158668518066406 2.12544584274292
      vertex 1.1710898876190186 -1.537301778793335 2.214261531829834
      vertex 1.1442102193832397 -1.624507188796997 2.2480969429016113
    endloop
  endfacet
  facet normal 0.3807526342088299 -0.4341332726639909 -0.816428645448633
    outer loop
      vertex 1.1191068887710571 -1.4158668518066406 2.12544584274292
      vertex 1.1442102193832397 -1.624507188796997 2.2480969429016113
      vertex 1.0865963697433472 -1.4899184703826904 2.14966082572937
    endloop
  endfacet
  facet normal 0.38075486049411755 -0.4341320397683707 -0.8164282627742985
    outer loop
      vertex 1.1442102193832397 -1.624507188796997 2.2480969429016113
      vertex 1.238439917564392 -1.7696336507797241 2.3692128658294678
      vertex 1.2018240690231323 -1.7590959072113037 2.3465330600738525
    endloop
  endfacet
  facet normal 0.3807540623524873 -0.43413281494602923 -0.816428222802908
    outer loop
      vertex 0.9932547807693481 -1.196869134902954 1.9503016471862793
      vertex 1.0671238899230957 -1.2944320440292358 2.036630392074585
      vertex 1.0289825201034546 -1.3553297519683838 2.051224708557129
    endloop
  endfacet
  facet normal 0.3807520243586172 -0.4341336103924936 -0.816428750274262
    outer loop
      vertex 0.9932547807693481 -1.196869134902954 1.9503016471862793
      vertex 1.0289825201034546 -1.3553297519683838 2.051224708557129
      vertex 0.971368670463562 -1.2207410335540771 1.9527885913848877
    endloop
  endfacet
  facet normal 0.38075207621507723 -0.43413404249194376 -0.8164284963225569
    outer loop
      vertex 1.1442102193832397 -1.624507188796997 2.2480969429016113
      vertex 1.22307288646698 -1.6587365865707397 2.303076982498169
      vertex 1.238439917564392 -1.7696336507797241 2.3692128658294678
    endloop
  endfacet
  facet normal -0.3807590396313356 0.4341296767867707 0.8164275702547268
    outer loop
      vertex 0.9844045639038086 -1.212620496749878 2.052537679672241
      vertex 1.010074496269226 -1.2725865840911865 2.096395969390869
      vertex 1.0230507850646973 -1.2654005289077759 2.0986266136169434
    endloop
  endfacet
  facet normal -0.38075139200871805 0.4341356277048771 0.8164279724756592
    outer loop
      vertex 0.9844045639038086 -1.212620496749878 2.052537679672241
      vertex 1.0230507850646973 -1.2654005289077759 2.0986266136169434
      vertex 0.9973808526992798 -1.2054343223571777 2.0547680854797363
    endloop
  endfacet
  facet normal -0.3807493687151311 0.43413468356506796 0.8164294181059912
    outer loop
      vertex 0.9714282751083374 -1.2198065519332886 2.050307273864746
      vertex 0.9970981478691101 -1.2797727584838867 2.094165563583374
      vertex 1.010074496269226 -1.2725865840911865 2.096395969390869
    endloop
  endfacet
  facet normal -0.38074781356333653 0.43413589368007566 0.8164294998867573
    outer loop
      vertex 0.9714282751083374 -1.2198065519332886 2.050307273864746
      vertex 1.010074496269226 -1.2725865840911865 2.096395969390869
      vertex 0.9844045639038086 -1.212620496749878 2.052537679672241
    endloop
  endfacet
  facet normal -0.380752358503294 0.434132966163276 0.8164289370082708
    outer loop
      vertex 1.2047704458236694 -1.7274059057235718 2.429044008255005
      vertex 1.2413864135742188 -1.7379437685012817 2.45172381401062
      vertex 1.2047151327133179 -1.6522777080535889 2.389069080352783
    endloop
  endfacet
  facet normal -0.380758114366481 0.4341318495451462 0.8164268464195628
    outer loop
      vertex 1.168043851852417 -1.5666117668151855 2.326414108276367
      vertex 1.2047704458236694 -1.7274059057235718 2.429044008255005
      vertex 1.2047151327133179 -1.6522777080535889 2.389069080352783
    endloop
  endfacet
  facet normal -0.3807506625034429 0.4341347764098279 0.8164287653646081
    outer loop
      vertex 1.1127541065216064 -1.5124512910842896 2.27182936668396
      vertex 1.2047704458236694 -1.7274059057235718 2.429044008255005
      vertex 1.168043851852417 -1.5666117668151855 2.326414108276367
    endloop
  endfacet
  facet normal -0.38075262358197876 0.4341328728477013 0.8164288630054927
    outer loop
      vertex 1.1313724517822266 -1.4809458255767822 2.2637593746185303
      vertex 1.1127541065216064 -1.5124512910842896 2.27182936668396
      vertex 1.168043851852417 -1.5666117668151855 2.326414108276367
    endloop
  endfacet
  facet normal -0.38075271676795747 0.43413320272108397 0.8164286441379637
    outer loop
      vertex 1.1313724517822266 -1.4809458255767822 2.2637593746185303
      vertex 1.0947011709213257 -1.395279884338379 2.2011046409606934
      vertex 1.061414361000061 -1.3925189971923828 2.184112787246704
    endloop
  endfacet
  facet normal -0.3807529527633448 0.43413300945044675 0.8164286368492303
    outer loop
      vertex 1.1313724517822266 -1.4809458255767822 2.2637593746185303
      vertex 1.061414361000061 -1.3925189971923828 2.184112787246704
      vertex 1.1127541065216064 -1.5124512910842896 2.27182936668396
    endloop
  endfacet
  facet normal -0.3807551728495235 0.4341313874440796 0.8164284639723238
    outer loop
      vertex 1.1302813291549683 -1.6283944845199585 2.341655969619751
      vertex 1.1681545972824097 -1.7168681621551514 2.4063642024993896
      vertex 1.2047704458236694 -1.7274059057235718 2.429044008255005
    endloop
  endfacet
  facet normal -0.38075263362027 0.4341339565407446 0.8164282820735128
    outer loop
      vertex 1.1127541065216064 -1.5124512910842896 2.27182936668396
      vertex 1.0924080610275269 -1.539920687675476 2.276947498321533
      vertex 1.1302813291549683 -1.6283944845199585 2.341655969619751
    endloop
  endfacet
  facet normal -0.3807505720038941 0.4341343278871195 0.8164290460711857
    outer loop
      vertex 1.1127541065216064 -1.5124512910842896 2.27182936668396
      vertex 1.061414361000061 -1.3925189971923828 2.184112787246704
      vertex 1.0545347929000854 -1.4514470100402832 2.2122392654418945
    endloop
  endfacet
  facet normal -0.38075162121163453 0.43413335430770955 0.8164290744591649
    outer loop
      vertex 1.1127541065216064 -1.5124512910842896 2.27182936668396
      vertex 1.0545347929000854 -1.4514470100402832 2.2122392654418945
      vertex 1.0924080610275269 -1.539920687675476 2.276947498321533
    endloop
  endfacet
  facet normal -0.3807530002309082 0.434134122887449 0.8164280226449282
    outer loop
      vertex 1.0166616439819336 -1.3629732131958008 2.1475307941436768
      vertex 1.0545347929000854 -1.4514470100402832 2.2122392654418945
      vertex 1.061414361000061 -1.3925189971923828 2.184112787246704
    endloop
  endfacet
  facet normal -0.380751434262145 0.43413434901905573 0.8164286327102449
    outer loop
      vertex 1.1302813291549683 -1.6283944845199585 2.341655969619751
      vertex 1.2047704458236694 -1.7274059057235718 2.429044008255005
      vertex 1.1127541065216064 -1.5124512910842896 2.27182936668396
    endloop
  endfacet
  facet normal -0.38075271676795747 0.43413320272108397 0.8164286441379637
    outer loop
      vertex 1.061414361000061 -1.3925189971923828 2.184112787246704
      vertex 1.0947011709213257 -1.395279884338379 2.2011046409606934
      vertex 1.0580298900604248 -1.3096139430999756 2.1384499073028564
    endloop
  endfacet
  facet normal -0.3807592289725037 0.43413011911220073 0.8164272467476149
    outer loop
      vertex 1.061414361000061 -1.3925189971923828 2.184112787246704
      vertex 1.0230507850646973 -1.2654005289077759 2.0986266136169434
      vertex 1.010074496269226 -1.2725865840911865 2.096395969390869
    endloop
  endfacet
  facet normal -0.3807514079153716 0.43413392754895086 0.8164288691131546
    outer loop
      vertex 1.021358609199524 -1.2239480018615723 2.0757951736450195
      vertex 1.0230507850646973 -1.2654005289077759 2.0986266136169434
      vertex 1.0580298900604248 -1.3096139430999756 2.1384499073028564
    endloop
  endfacet
  facet normal -0.38074967879332755 0.43413540791535143 0.8164288883258292
    outer loop
      vertex 1.010074496269226 -1.2725865840911865 2.096395969390869
      vertex 0.9970981478691101 -1.2797727584838867 2.094165563583374
      vertex 1.061414361000061 -1.3925189971923828 2.184112787246704
    endloop
  endfacet
  facet normal -0.38075780197395476 0.4341313968453068 0.8164272328316257
    outer loop
      vertex 0.9973808526992798 -1.2054343223571777 2.0547680854797363
      vertex 1.021358609199524 -1.2239480018615723 2.0757951736450195
      vertex 0.9846872687339783 -1.1382819414138794 2.0131402015686035
    endloop
  endfacet
  facet normal -0.38075190936881304 0.4341335157953015 0.8164288542029942
    outer loop
      vertex 0.9628011584281921 -1.1621538400650024 2.015627145767212
      vertex 0.9973808526992798 -1.2054343223571777 2.0547680854797363
      vertex 0.9846872687339783 -1.1382819414138794 2.0131402015686035
    endloop
  endfacet
  facet normal -0.3807566355870159 0.434132723861003 0.8164270711640338
    outer loop
      vertex 1.0230507850646973 -1.2654005289077759 2.0986266136169434
      vertex 1.021358609199524 -1.2239480018615723 2.0757951736450195
      vertex 0.9973808526992798 -1.2054343223571777 2.0547680854797363
    endloop
  endfacet
  facet normal -0.3807504068683425 0.43413384211199074 0.8164293813935609
    outer loop
      vertex 0.9787883162498474 -1.274499535560608 2.082822561264038
      vertex 1.0166616439819336 -1.3629732131958008 2.1475307941436768
      vertex 0.9970981478691101 -1.2797727584838867 2.094165563583374
    endloop
  endfacet
  facet normal -0.38075452248523384 0.4341322024975145 0.8164283338797709
    outer loop
      vertex 1.0166616439819336 -1.3629732131958008 2.1475307941436768
      vertex 1.061414361000061 -1.3925189971923828 2.184112787246704
      vertex 0.9970981478691101 -1.2797727584838867 2.094165563583374
    endloop
  endfacet
  facet normal -0.3807502330915027 0.4341342048852907 0.8164292695325069
    outer loop
      vertex 0.9714282751083374 -1.2198065519332886 2.050307273864746
      vertex 0.9787883162498474 -1.274499535560608 2.082822561264038
      vertex 0.9970981478691101 -1.2797727584838867 2.094165563583374
    endloop
  endfacet
  facet normal -0.3807478739667677 0.4341360347861769 0.8164293966840745
    outer loop
      vertex 0.9714282751083374 -1.2198065519332886 2.050307273864746
      vertex 0.9844045639038086 -1.212620496749878 2.052537679672241
      vertex 0.9628011584281921 -1.1621538400650024 2.015627145767212
    endloop
  endfacet
  facet normal -0.3807508586981405 0.4341343818828994 0.8164288836559994
    outer loop
      vertex 0.9973808526992798 -1.2054343223571777 2.0547680854797363
      vertex 0.9628011584281921 -1.1621538400650024 2.015627145767212
      vertex 0.9844045639038086 -1.212620496749878 2.052537679672241
    endloop
  endfacet
  facet normal -0.38075548764885314 0.4341325606937978 0.8164276932899386
    outer loop
      vertex 0.9787883162498474 -1.274499535560608 2.082822561264038
      vertex 0.9714282751083374 -1.2198065519332886 2.050307273864746
      vertex 0.9409151077270508 -1.1860257387161255 2.0181140899658203
    endloop
  endfacet
  facet normal -0.3807537416809463 0.4341341223739158 0.8164276771316544
    outer loop
      vertex 0.9628011584281921 -1.1621538400650024 2.015627145767212
      vertex 0.9409151077270508 -1.1860257387161255 2.0181140899658203
      vertex 0.9714282751083374 -1.2198065519332886 2.050307273864746
    endloop
  endfacet
  facet normal -0.38075212722233354 0.4341333384659159 0.8164288468985563
    outer loop
      vertex 1.0230507850646973 -1.2654005289077759 2.0986266136169434
      vertex 1.061414361000061 -1.3925189971923828 2.184112787246704
      vertex 1.0580298900604248 -1.3096139430999756 2.1384499073028564
    endloop
  endfacet
  facet normal -0.44618299018478275 -0.8299945133132667 0.3347086003371286
    outer loop
      vertex 1.25822114944458 -1.7590575218200684 2.4218082427978516
      vertex 1.2047704458236694 -1.7274059057235718 2.429044008255005
      vertex 1.184989333152771 -1.7379820346832275 2.376448631286621
    endloop
  endfacet
  facet normal -0.44618369539045094 -0.8299940637139666 0.3347087751572959
    outer loop
      vertex 1.184989333152771 -1.7379820346832275 2.376448631286621
      vertex 1.2047704458236694 -1.7274059057235718 2.429044008255005
      vertex 1.1681545972824097 -1.7168681621551514 2.4063642024993896
    endloop
  endfacet
  facet normal -0.44618369539045094 -0.8299940637139666 0.3347087751572959
    outer loop
      vertex 1.238439917564392 -1.7696336507797241 2.3692128658294678
      vertex 1.184989333152771 -1.7379820346832275 2.376448631286621
      vertex 1.2018240690231323 -1.7590959072113037 2.3465330600738525
    endloop
  endfacet
  facet normal -0.44618274213948445 -0.8299942942235168 0.3347094742807508
    outer loop
      vertex 1.25822114944458 -1.7590575218200684 2.4218082427978516
      vertex 1.238439917564392 -1.7696336507797241 2.3692128658294678
      vertex 1.2750558853149414 -1.7801713943481445 2.391892671585083
    endloop
  endfacet
  facet normal -0.4461836649713679 -0.8299951093267662 0.33470622283783075
    outer loop
      vertex 1.25822114944458 -1.7590575218200684 2.4218082427978516
      vertex 1.2413864135742188 -1.7379437685012817 2.45172381401062
      vertex 1.2047704458236694 -1.7274059057235718 2.429044008255005
    endloop
  endfacet
  facet normal -0.4461834473443345 -0.829993844624057 0.33470964910217665
    outer loop
      vertex 1.238439917564392 -1.7696336507797241 2.3692128658294678
      vertex 1.25822114944458 -1.7590575218200684 2.4218082427978516
      vertex 1.184989333152771 -1.7379820346832275 2.376448631286621
    endloop
  endfacet
endsolid beam