solid b14_features
  facet normal -0.548604385 0.827788546 -0.117470641
    outer loop
      vertex -0.00759517144 2.38638741 0.924140142
      vertex -0.00838372099 2.38576017 0.923402776
      vertex -0.0631712775 2.36078048 1.00324223
    endloop
  endfacet
  facet normal -0.548604385 0.827788546 -0.117470641
    outer loop
      vertex -0.00759517144 2.38638741 0.924140142
      vertex -0.0631712775 2.36078048 1.00324223
      vertex -0.062382728 2.36140772 1.0039796
    endloop
  endfacet
  facet normal 0.547875565 0.249796905 -0.798394559
    outer loop
      vertex -0.00626764427 2.38347577 0.924140142
      vertex -0.00838372099 2.38576017 0.923402776
      vertex -0.00759517144 2.38638741 0.924140142
    endloop
  endfacet
  facet normal -0.547875565 -0.249796905 0.798394559
    outer loop
      vertex -0.0610552008 2.35849608 1.0039796
      vertex -0.062382728 2.36140772 1.0039796
      vertex -0.0631712775 2.36078048 1.00324223
    endloop
  endfacet
  facet normal -0.748531172 0.572531261 -0.334528084
    outer loop
      vertex -0.00838372099 2.38576017 0.923402776
      vertex -0.00885011704 2.38478515 0.922777667
      vertex -0.0636376736 2.35980546 1.00261712
    endloop
  endfacet
  facet normal -0.748531172 0.572531261 -0.334528084
    outer loop
      vertex -0.00838372099 2.38576017 0.923402776
      vertex -0.0636376736 2.35980546 1.00261712
      vertex -0.0631712775 2.36078048 1.00324223
    endloop
  endfacet
  facet normal 0.547875565 0.249796905 -0.798394559
    outer loop
      vertex -0.00626764427 2.38347577 0.924140142
      vertex -0.00885011704 2.38478515 0.922777667
      vertex -0.00838372099 2.38576017 0.923402776
    endloop
  endfacet
  facet normal -0.547875565 -0.249796905 0.798394559
    outer loop
      vertex -0.0610552008 2.35849608 1.0039796
      vertex -0.0631712775 2.36078048 1.00324223
      vertex -0.0636376736 2.35980546 1.00261712
    endloop
  endfacet
  facet normal -0.834500874 0.230111282 -0.500656659
    outer loop
      vertex -0.00885011704 2.38478515 0.922777667
      vertex -0.00892335502 2.38361079 0.922359983
      vertex -0.0637109116 2.3586311 1.00219944
    endloop
  endfacet
  facet normal -0.834500874 0.230111282 -0.500656659
    outer loop
      vertex -0.00885011704 2.38478515 0.922777667
      vertex -0.0637109116 2.3586311 1.00219944
      vertex -0.0636376736 2.35980546 1.00261712
    endloop
  endfacet
  facet normal 0.547875565 0.249796905 -0.798394559
    outer loop
      vertex -0.00626764427 2.38347577 0.924140142
      vertex -0.00892335502 2.38361079 0.922359983
      vertex -0.00885011704 2.38478515 0.922777667
    endloop
  endfacet
  facet normal -0.547875565 -0.249796905 0.798394559
    outer loop
      vertex -0.0610552008 2.35849608 1.0039796
      vertex -0.0636376736 2.35980546 1.00261712
      vertex -0.0637109116 2.3586311 1.00219944
    endloop
  endfacet
  facet normal -0.793425382 -0.147341054 -0.590564795
    outer loop
      vertex -0.00892335502 2.38361079 0.922359983
      vertex -0.00859228512 2.38241588 0.922213311
      vertex -0.0633798417 2.35743619 1.00205277
    endloop
  endfacet
  facet normal -0.793425382 -0.147341054 -0.590564795
    outer loop
      vertex -0.00892335502 2.38361079 0.922359983
      vertex -0.0633798417 2.35743619 1.00205277
      vertex -0.0637109116 2.3586311 1.00219944
    endloop
  endfacet
  facet normal 0.547875565 0.249796905 -0.798394559
    outer loop
      vertex -0.00626764427 2.38347577 0.924140142
      vertex -0.00859228512 2.38241588 0.922213311
      vertex -0.00892335502 2.38361079 0.922359983
    endloop
  endfacet
  facet normal -0.547875565 -0.249796905 0.798394559
    outer loop
      vertex -0.0610552008 2.35849608 1.0039796
      vertex -0.0637109116 2.3586311 1.00219944
      vertex -0.0633798417 2.35743619 1.00205277
    endloop
  endfacet
  facet normal -0.631558068 -0.50236205 -0.590564795
    outer loop
      vertex -0.00859228512 2.38241588 0.922213311
      vertex -0.00790730972 2.38138232 0.922359983
      vertex -0.0626948663 2.35640263 1.00219944
    endloop
  endfacet
  facet normal -0.631558068 -0.50236205 -0.590564795
    outer loop
      vertex -0.00859228512 2.38241588 0.922213311
      vertex -0.0626948663 2.35640263 1.00219944
      vertex -0.0633798417 2.35743619 1.00205277
    endloop
  endfacet
  facet normal 0.547875565 0.249796905 -0.798394559
    outer loop
      vertex -0.00626764427 2.38347577 0.924140142
      vertex -0.00790730972 2.38138232 0.922359983
      vertex -0.00859228512 2.38241588 0.922213311
    endloop
  endfacet
  facet normal -0.547875565 -0.249796905 0.798394559
    outer loop
      vertex -0.0610552008 2.35849608 1.0039796
      vertex -0.0633798417 2.35743619 1.00205277
      vertex -0.0626948663 2.35640263 1.00219944
    endloop
  endfacet
  facet normal -0.373541763 -0.780902978 -0.500656659
    outer loop
      vertex -0.00790730972 2.38138232 0.922359983
      vertex -0.00697271012 2.38066747 0.922777667
      vertex -0.0617602667 2.35568778 1.00261712
    endloop
  endfacet
  facet normal -0.373541763 -0.780902978 -0.500656659
    outer loop
      vertex -0.00790730972 2.38138232 0.922359983
      vertex -0.0617602667 2.35568778 1.00261712
      vertex -0.0626948663 2.35640263 1.00219944
    endloop
  endfacet
  facet normal 0.547875565 0.249796905 -0.798394559
    outer loop
      vertex -0.00626764427 2.38347577 0.924140142
      vertex -0.00697271012 2.38066747 0.922777667
      vertex -0.00790730972 2.38138232 0.922359983
    endloop
  endfacet
  facet normal -0.547875565 -0.249796905 0.798394559
    outer loop
      vertex -0.0610552008 2.35849608 1.0039796
      vertex -0.0626948663 2.35640263 1.00219944
      vertex -0.0617602667 2.35568778 1.00261712
    endloop
  endfacet
  facet normal -0.0586571116 -0.940558506 -0.334528084
    outer loop
      vertex -0.00697271012 2.38066747 0.922777667
      vertex -0.00593077063 2.38038016 0.923402776
      vertex -0.0607183272 2.35540047 1.00324223
    endloop
  endfacet
  facet normal -0.0586571116 -0.940558506 -0.334528084
    outer loop
      vertex -0.00697271012 2.38066747 0.922777667
      vertex -0.0607183272 2.35540047 1.00324223
      vertex -0.0617602667 2.35568778 1.00261712
    endloop
  endfacet
  facet normal 0.547875565 0.249796905 -0.798394559
    outer loop
      vertex -0.00626764427 2.38347577 0.924140142
      vertex -0.00593077063 2.38038016 0.923402776
      vertex -0.00697271012 2.38066747 0.922777667
    endloop
  endfacet
  facet normal -0.547875565 -0.249796905 0.798394559
    outer loop
      vertex -0.0610552008 2.35849608 1.0039796
      vertex -0.0617602667 2.35568778 1.00261712
      vertex -0.0607183272 2.35540047 1.00324223
    endloop
  endfacet
  facet normal 0.265157554 -0.957022528 -0.117470641
    outer loop
      vertex -0.00593077063 2.38038016 0.923402776
      vertex -0.00494011711 2.38056412 0.924140142
      vertex -0.0597276736 2.35558443 1.0039796
    endloop
  endfacet
  facet normal 0.265157554 -0.957022528 -0.117470641
    outer loop
      vertex -0.00593077063 2.38038016 0.923402776
      vertex -0.0597276736 2.35558443 1.0039796
      vertex -0.0607183272 2.35540047 1.00324223
    endloop
  endfacet
  facet normal 0.547875565 0.249796905 -0.798394559
    outer loop
      vertex -0.00626764427 2.38347577 0.924140142
      vertex -0.00494011711 2.38056412 0.924140142
      vertex -0.00593077063 2.38038016 0.923402776
    endloop
  endfacet
  facet normal -0.547875565 -0.249796905 0.798394559
    outer loop
      vertex -0.0610552008 2.35849608 1.0039796
      vertex -0.0607183272 2.35540047 1.00324223
      vertex -0.0597276736 2.35558443 1.0039796
    endloop
  endfacet
  facet normal 0.548604385 -0.827788546 0.117470641
    outer loop
      vertex -0.00494011711 2.38056412 0.924140142
      vertex -0.00415156756 2.38119136 0.924877509
      vertex -0.0589391241 2.35621167 1.00471696
    endloop
  endfacet
  facet normal 0.548604385 -0.827788546 0.117470641
    outer loop
      vertex -0.00494011711 2.38056412 0.924140142
      vertex -0.0589391241 2.35621167 1.00471696
      vertex -0.0597276736 2.35558443 1.0039796
    endloop
  endfacet
  facet normal 0.547875565 0.249796905 -0.798394559
    outer loop
      vertex -0.00626764427 2.38347577 0.924140142
      vertex -0.00415156756 2.38119136 0.924877509
      vertex -0.00494011711 2.38056412 0.924140142
    endloop
  endfacet
  facet normal -0.547875565 -0.249796905 0.798394559
    outer loop
      vertex -0.0610552008 2.35849608 1.0039796
      vertex -0.0597276736 2.35558443 1.0039796
      vertex -0.0589391241 2.35621167 1.00471696
    endloop
  endfacet
  facet normal 0.748531172 -0.572531261 0.334528084
    outer loop
      vertex -0.00415156756 2.38119136 0.924877509
      vertex -0.00368517151 2.38216638 0.925502618
      vertex -0.058472728 2.35718669 1.00534207
    endloop
  endfacet
  facet normal 0.748531172 -0.572531261 0.334528084
    outer loop
      vertex -0.00415156756 2.38119136 0.924877509
      vertex -0.058472728 2.35718669 1.00534207
      vertex -0.0589391241 2.35621167 1.00471696
    endloop
  endfacet
  facet normal 0.547875565 0.249796905 -0.798394559
    outer loop
      vertex -0.00626764427 2.38347577 0.924140142
      vertex -0.00368517151 2.38216638 0.925502618
      vertex -0.00415156756 2.38119136 0.924877509
    endloop
  endfacet
  facet normal -0.547875565 -0.249796905 0.798394559
    outer loop
      vertex -0.0610552008 2.35849608 1.0039796
      vertex -0.0589391241 2.35621167 1.00471696
      vertex -0.058472728 2.35718669 1.00534207
    endloop
  endfacet
  facet normal 0.834500874 -0.230111282 0.500656659
    outer loop
      vertex -0.00368517151 2.38216638 0.925502618
      vertex -0.00361193353 2.38334074 0.925920302
      vertex -0.0583994901 2.35836105 1.00575976
    endloop
  endfacet
  facet normal 0.834500874 -0.230111282 0.500656659
    outer loop
      vertex -0.00368517151 2.38216638 0.925502618
      vertex -0.0583994901 2.35836105 1.00575976
      vertex -0.058472728 2.35718669 1.00534207
    endloop
  endfacet
  facet normal 0.547875565 0.249796905 -0.798394559
    outer loop
      vertex -0.00626764427 2.38347577 0.924140142
      vertex -0.00361193353 2.38334074 0.925920302
      vertex -0.00368517151 2.38216638 0.925502618
    endloop
  endfacet
  facet normal -0.547875565 -0.249796905 0.798394559
    outer loop
      vertex -0.0610552008 2.35849608 1.0039796
      vertex -0.058472728 2.35718669 1.00534207
      vertex -0.0583994901 2.35836105 1.00575976
    endloop
  endfacet
  facet normal 0.793425382 0.147341054 0.590564795
    outer loop
      vertex -0.00361193353 2.38334074 0.925920302
      vertex -0.00394300343 2.38453566 0.926066973
      vertex -0.05873056 2.35955597 1.00590643
    endloop
  endfacet
  facet normal 0.793425382 0.147341054 0.590564795
    outer loop
      vertex -0.00361193353 2.38334074 0.925920302
      vertex -0.05873056 2.35955597 1.00590643
      vertex -0.0583994901 2.35836105 1.00575976
    endloop
  endfacet
  facet normal 0.547875565 0.249796905 -0.798394559
    outer loop
      vertex -0.00626764427 2.38347577 0.924140142
      vertex -0.00394300343 2.38453566 0.926066973
      vertex -0.00361193353 2.38334074 0.925920302
    endloop
  endfacet
  facet normal -0.547875565 -0.249796905 0.798394559
    outer loop
      vertex -0.0610552008 2.35849608 1.0039796
      vertex -0.0583994901 2.35836105 1.00575976
      vertex -0.05873056 2.35955597 1.00590643
    endloop
  endfacet
  facet normal 0.631558068 0.50236205 0.590564795
    outer loop
      vertex -0.00394300343 2.38453566 0.926066973
      vertex -0.00462797883 2.38556922 0.925920302
      vertex -0.0594155354 2.36058953 1.00575976
    endloop
  endfacet
  facet normal 0.631558068 0.50236205 0.590564795
    outer loop
      vertex -0.00394300343 2.38453566 0.926066973
      vertex -0.0594155354 2.36058953 1.00575976
      vertex -0.05873056 2.35955597 1.00590643
    endloop
  endfacet
  facet normal 0.547875565 0.249796905 -0.798394559
    outer loop
      vertex -0.00626764427 2.38347577 0.924140142
      vertex -0.00462797883 2.38556922 0.925920302
      vertex -0.00394300343 2.38453566 0.926066973
    endloop
  endfacet
  facet normal -0.547875565 -0.249796905 0.798394559
    outer loop
      vertex -0.0610552008 2.35849608 1.0039796
      vertex -0.05873056 2.35955597 1.00590643
      vertex -0.0594155354 2.36058953 1.00575976
    endloop
  endfacet
  facet normal 0.373541763 0.780902978 0.500656659
    outer loop
      vertex -0.00462797883 2.38556922 0.925920302
      vertex -0.00556257843 2.38628407 0.925502618
      vertex -0.060350135 2.36130438 1.00534207
    endloop
  endfacet
  facet normal 0.373541763 0.780902978 0.500656659
    outer loop
      vertex -0.00462797883 2.38556922 0.925920302
      vertex -0.060350135 2.36130438 1.00534207
      vertex -0.0594155354 2.36058953 1.00575976
    endloop
  endfacet
  facet normal 0.547875565 0.249796905 -0.798394559
    outer loop
      vertex -0.00626764427 2.38347577 0.924140142
      vertex -0.00556257843 2.38628407 0.925502618
      vertex -0.00462797883 2.38556922 0.925920302
    endloop
  endfacet
  facet normal -0.547875565 -0.249796905 0.798394559
    outer loop
      vertex -0.0610552008 2.35849608 1.0039796
      vertex -0.0594155354 2.36058953 1.00575976
      vertex -0.060350135 2.36130438 1.00534207
    endloop
  endfacet
  facet normal 0.0586571116 0.940558506 0.334528084
    outer loop
      vertex -0.00556257843 2.38628407 0.925502618
      vertex -0.00660451791 2.38657138 0.924877509
      vertex -0.0613920745 2.36159169 1.00471696
    endloop
  endfacet
  facet normal 0.0586571116 0.940558506 0.334528084
    outer loop
      vertex -0.00556257843 2.38628407 0.925502618
      vertex -0.0613920745 2.36159169 1.00471696
      vertex -0.060350135 2.36130438 1.00534207
    endloop
  endfacet
  facet normal 0.547875565 0.249796905 -0.798394559
    outer loop
      vertex -0.00626764427 2.38347577 0.924140142
      vertex -0.00660451791 2.38657138 0.924877509
      vertex -0.00556257843 2.38628407 0.925502618
    endloop
  endfacet
  facet normal -0.547875565 -0.249796905 0.798394559
    outer loop
      vertex -0.0610552008 2.35849608 1.0039796
      vertex -0.060350135 2.36130438 1.00534207
      vertex -0.0613920745 2.36159169 1.00471696
    endloop
  endfacet
  facet normal -0.265157554 0.957022528 0.117470641
    outer loop
      vertex -0.00660451791 2.38657138 0.924877509
      vertex -0.00759517144 2.38638741 0.924140142
      vertex -0.062382728 2.36140772 1.0039796
    endloop
  endfacet
  facet normal -0.265157554 0.957022528 0.117470641
    outer loop
      vertex -0.00660451791 2.38657138 0.924877509
      vertex -0.062382728 2.36140772 1.0039796
      vertex -0.0613920745 2.36159169 1.00471696
    endloop
  endfacet
  facet normal 0.547875565 0.249796905 -0.798394559
    outer loop
      vertex -0.00626764427 2.38347577 0.924140142
      vertex -0.00759517144 2.38638741 0.924140142
      vertex -0.00660451791 2.38657138 0.924877509
    endloop
  endfacet
  facet normal -0.547875565 -0.249796905 0.798394559
    outer loop
      vertex -0.0610552008 2.35849608 1.0039796
      vertex -0.0613920745 2.36159169 1.00471696
      vertex -0.062382728 2.36140772 1.0039796
    endloop
  endfacet
  facet normal -0.548604385 0.827788546 -0.117470641
    outer loop
      vertex -0.025940229 2.40951317 0.918786817
      vertex -0.0267287785 2.40888593 0.918049451
      vertex -0.0815163351 2.38390624 0.997888907
    endloop
  endfacet
  facet normal -0.548604385 0.827788546 -0.117470641
    outer loop
      vertex -0.025940229 2.40951317 0.918786817
      vertex -0.0815163351 2.38390624 0.997888907
      vertex -0.0807277855 2.38453348 0.998626273
    endloop
  endfacet
  facet normal 0.547875565 0.249796905 -0.798394559
    outer loop
      vertex -0.0246127018 2.40660153 0.918786817
      vertex -0.0267287785 2.40888593 0.918049451
      vertex -0.025940229 2.40951317 0.918786817
    endloop
  endfacet
  facet normal -0.547875565 -0.249796905 0.798394559
    outer loop
      vertex -0.0794002583 2.38162184 0.998626273
      vertex -0.0807277855 2.38453348 0.998626273
      vertex -0.0815163351 2.38390624 0.997888907
    endloop
  endfacet
  facet normal -0.748531172 0.572531261 -0.334528084
    outer loop
      vertex -0.0267287785 2.40888593 0.918049451
      vertex -0.0271951746 2.40791091 0.917424342
      vertex -0.0819827311 2.38293122 0.997263798
    endloop
  endfacet
  facet normal -0.748531172 0.572531261 -0.334528084
    outer loop
      vertex -0.0267287785 2.40888593 0.918049451
      vertex -0.0819827311 2.38293122 0.997263798
      vertex -0.0815163351 2.38390624 0.997888907
    endloop
  endfacet
  facet normal 0.547875565 0.249796905 -0.798394559
    outer loop
      vertex -0.0246127018 2.40660153 0.918786817
      vertex -0.0271951746 2.40791091 0.917424342
      vertex -0.0267287785 2.40888593 0.918049451
    endloop
  endfacet
  facet normal -0.547875565 -0.249796905 0.798394559
    outer loop
      vertex -0.0794002583 2.38162184 0.998626273
      vertex -0.0815163351 2.38390624 0.997888907
      vertex -0.0819827311 2.38293122 0.997263798
    endloop
  endfacet
  facet normal -0.834500874 0.230111282 -0.500656659
    outer loop
      vertex -0.0271951746 2.40791091 0.917424342
      vertex -0.0272684126 2.40673655 0.917006658
      vertex -0.0820559691 2.38175686 0.996846114
    endloop
  endfacet
  facet normal -0.834500874 0.230111282 -0.500656659
    outer loop
      vertex -0.0271951746 2.40791091 0.917424342
      vertex -0.0820559691 2.38175686 0.996846114
      vertex -0.0819827311 2.38293122 0.997263798
    endloop
  endfacet
  facet normal 0.547875565 0.249796905 -0.798394559
    outer loop
      vertex -0.0246127018 2.40660153 0.918786817
      vertex -0.0272684126 2.40673655 0.917006658
      vertex -0.0271951746 2.40791091 0.917424342
    endloop
  endfacet
  facet normal -0.547875565 -0.249796905 0.798394559
    outer loop
      vertex -0.0794002583 2.38162184 0.998626273
      vertex -0.0819827311 2.38293122 0.997263798
      vertex -0.0820559691 2.38175686 0.996846114
    endloop
  endfacet
  facet normal -0.793425382 -0.147341054 -0.590564795
    outer loop
      vertex -0.0272684126 2.40673655 0.917006658
      vertex -0.0269373427 2.40554164 0.916859987
      vertex -0.0817248992 2.38056195 0.996699442
    endloop
  endfacet
  facet normal -0.793425382 -0.147341054 -0.590564795
    outer loop
      vertex -0.0272684126 2.40673655 0.917006658
      vertex -0.0817248992 2.38056195 0.996699442
      vertex -0.0820559691 2.38175686 0.996846114
    endloop
  endfacet
  facet normal 0.547875565 0.249796905 -0.798394559
    outer loop
      vertex -0.0246127018 2.40660153 0.918786817
      vertex -0.0269373427 2.40554164 0.916859987
      vertex -0.0272684126 2.40673655 0.917006658
    endloop
  endfacet
  facet normal -0.547875565 -0.249796905 0.798394559
    outer loop
      vertex -0.0794002583 2.38162184 0.998626273
      vertex -0.0820559691 2.38175686 0.996846114
      vertex -0.0817248992 2.38056195 0.996699442
    endloop
  endfacet
  facet normal -0.631558068 -0.50236205 -0.590564795
    outer loop
      vertex -0.0269373427 2.40554164 0.916859987
      vertex -0.0262523673 2.40450808 0.917006658
      vertex -0.0810399238 2.37952839 0.996846114
    endloop
  endfacet
  facet normal -0.631558068 -0.50236205 -0.590564795
    outer loop
      vertex -0.0269373427 2.40554164 0.916859987
      vertex -0.0810399238 2.37952839 0.996846114
      vertex -0.0817248992 2.38056195 0.996699442
    endloop
  endfacet
  facet normal 0.547875565 0.249796905 -0.798394559
    outer loop
      vertex -0.0246127018 2.40660153 0.918786817
      vertex -0.0262523673 2.40450808 0.917006658
      vertex -0.0269373427 2.40554164 0.916859987
    endloop
  endfacet
  facet normal -0.547875565 -0.249796905 0.798394559
    outer loop
      vertex -0.0794002583 2.38162184 0.998626273
      vertex -0.0817248992 2.38056195 0.996699442
      vertex -0.0810399238 2.37952839 0.996846114
    endloop
  endfacet
  facet normal -0.373541763 -0.780902978 -0.500656659
    outer loop
      vertex -0.0262523673 2.40450808 0.917006658
      vertex -0.0253177677 2.40379323 0.917424342
      vertex -0.0801053242 2.37881354 0.997263798
    endloop
  endfacet
  facet normal -0.373541763 -0.780902978 -0.500656659
    outer loop
      vertex -0.0262523673 2.40450808 0.917006658
      vertex -0.0801053242 2.37881354 0.997263798
      vertex -0.0810399238 2.37952839 0.996846114
    endloop
  endfacet
  facet normal 0.547875565 0.249796905 -0.798394559
    outer loop
      vertex -0.0246127018 2.40660153 0.918786817
      vertex -0.0253177677 2.40379323 0.917424342
      vertex -0.0262523673 2.40450808 0.917006658
    endloop
  endfacet
  facet normal -0.547875565 -0.249796905 0.798394559
    outer loop
      vertex -0.0794002583 2.38162184 0.998626273
      vertex -0.0810399238 2.37952839 0.996846114
      vertex -0.0801053242 2.37881354 0.997263798
    endloop
  endfacet
  facet normal -0.0586571116 -0.940558506 -0.334528084
    outer loop
      vertex -0.0253177677 2.40379323 0.917424342
      vertex -0.0242758282 2.40350592 0.918049451
      vertex -0.0790633847 2.37852623 0.997888907
    endloop
  endfacet
  facet normal -0.0586571116 -0.940558506 -0.334528084
    outer loop
      vertex -0.0253177677 2.40379323 0.917424342
      vertex -0.0790633847 2.37852623 0.997888907
      vertex -0.0801053242 2.37881354 0.997263798
    endloop
  endfacet
  facet normal 0.547875565 0.249796905 -0.798394559
    outer loop
      vertex -0.0246127018 2.40660153 0.918786817
      vertex -0.0242758282 2.40350592 0.918049451
      vertex -0.0253177677 2.40379323 0.917424342
    endloop
  endfacet
  facet normal -0.547875565 -0.249796905 0.798394559
    outer loop
      vertex -0.0794002583 2.38162184 0.998626273
      vertex -0.0801053242 2.37881354 0.997263798
      vertex -0.0790633847 2.37852623 0.997888907
    endloop
  endfacet
  facet normal 0.265157554 -0.957022528 -0.117470641
    outer loop
      vertex -0.0242758282 2.40350592 0.918049451
      vertex -0.0232851746 2.40368988 0.918786817
      vertex -0.0780727312 2.37871019 0.998626273
    endloop
  endfacet
  facet normal 0.265157554 -0.957022528 -0.117470641
    outer loop
      vertex -0.0242758282 2.40350592 0.918049451
      vertex -0.0780727312 2.37871019 0.998626273
      vertex -0.0790633847 2.37852623 0.997888907
    endloop
  endfacet
  facet normal 0.547875565 0.249796905 -0.798394559
    outer loop
      vertex -0.0246127018 2.40660153 0.918786817
      vertex -0.0232851746 2.40368988 0.918786817
      vertex -0.0242758282 2.40350592 0.918049451
    endloop
  endfacet
  facet normal -0.547875565 -0.249796905 0.798394559
    outer loop
      vertex -0.0794002583 2.38162184 0.998626273
      vertex -0.0790633847 2.37852623 0.997888907
      vertex -0.0780727312 2.37871019 0.998626273
    endloop
  endfacet
  facet normal 0.548604385 -0.827788546 0.117470641
    outer loop
      vertex -0.0232851746 2.40368988 0.918786817
      vertex -0.0224966251 2.40431712 0.919524184
      vertex -0.0772841816 2.37933743 0.99936364
    endloop
  endfacet
  facet normal 0.548604385 -0.827788546 0.117470641
    outer loop
      vertex -0.0232851746 2.40368988 0.918786817
      vertex -0.0772841816 2.37933743 0.99936364
      vertex -0.0780727312 2.37871019 0.998626273
    endloop
  endfacet
  facet normal 0.547875565 0.249796905 -0.798394559
    outer loop
      vertex -0.0246127018 2.40660153 0.918786817
      vertex -0.0224966251 2.40431712 0.919524184
      vertex -0.0232851746 2.40368988 0.918786817
    endloop
  endfacet
  facet normal -0.547875565 -0.249796905 0.798394559
    outer loop
      vertex -0.0794002583 2.38162184 0.998626273
      vertex -0.0780727312 2.37871019 0.998626273
      vertex -0.0772841816 2.37933743 0.99936364
    endloop
  endfacet
  facet normal 0.748531172 -0.572531261 0.334528084
    outer loop
      vertex -0.0224966251 2.40431712 0.919524184
      vertex -0.022030229 2.40529214 0.920149293
      vertex -0.0768177856 2.38031245 0.999988748
    endloop
  endfacet
  facet normal 0.748531172 -0.572531261 0.334528084
    outer loop
      vertex -0.0224966251 2.40431712 0.919524184
      vertex -0.0768177856 2.38031245 0.999988748
      vertex -0.0772841816 2.37933743 0.99936364
    endloop
  endfacet
  facet normal 0.547875565 0.249796905 -0.798394559
    outer loop
      vertex -0.0246127018 2.40660153 0.918786817
      vertex -0.022030229 2.40529214 0.920149293
      vertex -0.0224966251 2.40431712 0.919524184
    endloop
  endfacet
  facet normal -0.547875565 -0.249796905 0.798394559
    outer loop
      vertex -0.0794002583 2.38162184 0.998626273
      vertex -0.0772841816 2.37933743 0.99936364
      vertex -0.0768177856 2.38031245 0.999988748
    endloop
  endfacet
  facet normal 0.834500874 -0.230111282 0.500656659
    outer loop
      vertex -0.022030229 2.40529214 0.920149293
      vertex -0.0219569911 2.4064665 0.920566977
      vertex -0.0767445476 2.38148681 1.00040643
    endloop
  endfacet
  facet normal 0.834500874 -0.230111282 0.500656659
    outer loop
      vertex -0.022030229 2.40529214 0.920149293
      vertex -0.0767445476 2.38148681 1.00040643
      vertex -0.0768177856 2.38031245 0.999988748
    endloop
  endfacet
  facet normal 0.547875565 0.249796905 -0.798394559
    outer loop
      vertex -0.0246127018 2.40660153 0.918786817
      vertex -0.0219569911 2.4064665 0.920566977
      vertex -0.022030229 2.40529214 0.920149293
    endloop
  endfacet
  facet normal -0.547875565 -0.249796905 0.798394559
    outer loop
      vertex -0.0794002583 2.38162184 0.998626273
      vertex -0.0768177856 2.38031245 0.999988748
      vertex -0.0767445476 2.38148681 1.00040643
    endloop
  endfacet
  facet normal 0.793425382 0.147341054 0.590564795
    outer loop
      vertex -0.0219569911 2.4064665 0.920566977
      vertex -0.022288061 2.40766142 0.920713648
      vertex -0.0770756175 2.38268173 1.0005531
    endloop
  endfacet
  facet normal 0.793425382 0.147341054 0.590564795
    outer loop
      vertex -0.0219569911 2.4064665 0.920566977
      vertex -0.0770756175 2.38268173 1.0005531
      vertex -0.0767445476 2.38148681 1.00040643
    endloop
  endfacet
  facet normal 0.547875565 0.249796905 -0.798394559
    outer loop
      vertex -0.0246127018 2.40660153 0.918786817
      vertex -0.022288061 2.40766142 0.920713648
      vertex -0.0219569911 2.4064665 0.920566977
    endloop
  endfacet
  facet normal -0.547875565 -0.249796905 0.798394559
    outer loop
      vertex -0.0794002583 2.38162184 0.998626273
      vertex -0.0767445476 2.38148681 1.00040643
      vertex -0.0770756175 2.38268173 1.0005531
    endloop
  endfacet
  facet normal 0.631558068 0.50236205 0.590564795
    outer loop
      vertex -0.022288061 2.40766142 0.920713648
      vertex -0.0229730364 2.40869498 0.920566977
      vertex -0.0777605929 2.38371529 1.00040643
    endloop
  endfacet
  facet normal 0.631558068 0.50236205 0.590564795
    outer loop
      vertex -0.022288061 2.40766142 0.920713648
      vertex -0.0777605929 2.38371529 1.00040643
      vertex -0.0770756175 2.38268173 1.0005531
    endloop
  endfacet
  facet normal 0.547875565 0.249796905 -0.798394559
    outer loop
      vertex -0.0246127018 2.40660153 0.918786817
      vertex -0.0229730364 2.40869498 0.920566977
      vertex -0.022288061 2.40766142 0.920713648
    endloop
  endfacet
  facet normal -0.547875565 -0.249796905 0.798394559
    outer loop
      vertex -0.0794002583 2.38162184 0.998626273
      vertex -0.0770756175 2.38268173 1.0005531
      vertex -0.0777605929 2.38371529 1.00040643
    endloop
  endfacet
  facet normal 0.373541763 0.780902978 0.500656659
    outer loop
      vertex -0.0229730364 2.40869498 0.920566977
      vertex -0.023907636 2.40940983 0.920149293
      vertex -0.0786951925 2.38443014 0.999988748
    endloop
  endfacet
  facet normal 0.373541763 0.780902978 0.500656659
    outer loop
      vertex -0.0229730364 2.40869498 0.920566977
      vertex -0.0786951925 2.38443014 0.999988748
      vertex -0.0777605929 2.38371529 1.00040643
    endloop
  endfacet
  facet normal 0.547875565 0.249796905 -0.798394559
    outer loop
      vertex -0.0246127018 2.40660153 0.918786817
      vertex -0.023907636 2.40940983 0.920149293
      vertex -0.0229730364 2.40869498 0.920566977
    endloop
  endfacet
  facet normal -0.547875565 -0.249796905 0.798394559
    outer loop
      vertex -0.0794002583 2.38162184 0.998626273
      vertex -0.0777605929 2.38371529 1.00040643
      vertex -0.0786951925 2.38443014 0.999988748
    endloop
  endfacet
  facet normal 0.0586571116 0.940558506 0.334528084
    outer loop
      vertex -0.023907636 2.40940983 0.920149293
      vertex -0.0249495755 2.40969714 0.919524184
      vertex -0.079737132 2.38471745 0.99936364
    endloop
  endfacet
  facet normal 0.0586571116 0.940558506 0.334528084
    outer loop
      vertex -0.023907636 2.40940983 0.920149293
      vertex -0.079737132 2.38471745 0.99936364
      vertex -0.0786951925 2.38443014 0.999988748
    endloop
  endfacet
  facet normal 0.547875565 0.249796905 -0.798394559
    outer loop
      vertex -0.0246127018 2.40660153 0.918786817
      vertex -0.0249495755 2.40969714 0.919524184
      vertex -0.023907636 2.40940983 0.920149293
    endloop
  endfacet
  facet normal -0.547875565 -0.249796905 0.798394559
    outer loop
      vertex -0.0794002583 2.38162184 0.998626273
      vertex -0.0786951925 2.38443014 0.999988748
      vertex -0.079737132 2.38471745 0.99936364
    endloop
  endfacet
  facet normal -0.265157554 0.957022528 0.117470641
    outer loop
      vertex -0.0249495755 2.40969714 0.919524184
      vertex -0.025940229 2.40951317 0.918786817
      vertex -0.0807277855 2.38453348 0.998626273
    endloop
  endfacet
  facet normal -0.265157554 0.957022528 0.117470641
    outer loop
      vertex -0.0249495755 2.40969714 0.919524184
      vertex -0.0807277855 2.38453348 0.998626273
      vertex -0.079737132 2.38471745 0.99936364
    endloop
  endfacet
  facet normal 0.547875565 0.249796905 -0.798394559
    outer loop
      vertex -0.0246127018 2.40660153 0.918786817
      vertex -0.025940229 2.40951317 0.918786817
      vertex -0.0249495755 2.40969714 0.919524184
    endloop
  endfacet
  facet normal -0.547875565 -0.249796905 0.798394559
    outer loop
      vertex -0.0794002583 2.38162184 0.998626273
      vertex -0.079737132 2.38471745 0.99936364
      vertex -0.0807277855 2.38453348 0.998626273
    endloop
  endfacet
  facet normal -0.927417138 0.328370095 -0.179082476
    outer loop
      vertex 0.21121012 2.45267458 1.18701287
      vertex 0.211571038 2.45308087 1.18588876
      vertex 0.175966987 2.32007173 1.12638312
    endloop
  endfacet
  facet normal -0.927417138 0.328370095 -0.179082476
    outer loop
      vertex 0.21121012 2.45267458 1.18701287
      vertex 0.175966987 2.32007173 1.12638312
      vertex 0.175606069 2.31966544 1.12750723
    endloop
  endfacet
  facet normal 0.23736034 0.886727591 0.396704233
    outer loop
      vertex 0.214301289 2.45184713 1.18701287
      vertex 0.211571038 2.45308087 1.18588876
      vertex 0.21121012 2.45267458 1.18701287
    endloop
  endfacet
  facet normal -0.23736034 -0.886727591 -0.396704233
    outer loop
      vertex 0.178697238 2.31883799 1.12750723
      vertex 0.175606069 2.31966544 1.12750723
      vertex 0.175966987 2.32007173 1.12638312
    endloop
  endfacet
  facet normal -0.746202022 0.427900834 -0.509983743
    outer loop
      vertex 0.211571038 2.45308087 1.18588876
      vertex 0.212347612 2.45329934 1.18493579
      vertex 0.176743561 2.3202902 1.12543015
    endloop
  endfacet
  facet normal -0.746202022 0.427900834 -0.509983743
    outer loop
      vertex 0.211571038 2.45308087 1.18588876
      vertex 0.176743561 2.3202902 1.12543015
      vertex 0.175966987 2.32007173 1.12638312
    endloop
  endfacet
  facet normal 0.23736034 0.886727591 0.396704233
    outer loop
      vertex 0.214301289 2.45184713 1.18701287
      vertex 0.212347612 2.45329934 1.18493579
      vertex 0.211571038 2.45308087 1.18588876
    endloop
  endfacet
  facet normal -0.23736034 -0.886727591 -0.396704233
    outer loop
      vertex 0.178697238 2.31883799 1.12750723
      vertex 0.175966987 2.32007173 1.12638312
      vertex 0.176743561 2.3202902 1.12543015
    endloop
  endfacet
  facet normal -0.451384413 0.462287549 -0.763244609
    outer loop
      vertex 0.212347612 2.45329934 1.18493579
      vertex 0.213421615 2.45329672 1.18429903
      vertex 0.177817564 2.32028758 1.1247934
    endloop
  endfacet
  facet normal -0.451384413 0.462287549 -0.763244609
    outer loop
      vertex 0.212347612 2.45329934 1.18493579
      vertex 0.177817564 2.32028758 1.1247934
      vertex 0.176743561 2.3202902 1.12543015
    endloop
  endfacet
  facet normal 0.23736034 0.886727591 0.396704233
    outer loop
      vertex 0.214301289 2.45184713 1.18701287
      vertex 0.213421615 2.45329672 1.18429903
      vertex 0.212347612 2.45329934 1.18493579
    endloop
  endfacet
  facet normal -0.23736034 -0.886727591 -0.396704233
    outer loop
      vertex 0.178697238 2.31883799 1.12750723
      vertex 0.176743561 2.3202902 1.12543015
      vertex 0.177817564 2.32028758 1.1247934
    endloop
  endfacet
  facet normal -0.087847619 0.426295176 -0.900308402
    outer loop
      vertex 0.213421615 2.45329672 1.18429903
      vertex 0.214629541 2.45307341 1.18407544
      vertex 0.17902549 2.32006427 1.1245698
    endloop
  endfacet
  facet normal -0.087847619 0.426295176 -0.900308402
    outer loop
      vertex 0.213421615 2.45329672 1.18429903
      vertex 0.17902549 2.32006427 1.1245698
      vertex 0.177817564 2.32028758 1.1247934
    endloop
  endfacet
  facet normal 0.23736034 0.886727591 0.396704233
    outer loop
      vertex 0.214301289 2.45184713 1.18701287
      vertex 0.214629541 2.45307341 1.18407544
      vertex 0.213421615 2.45329672 1.18429903
    endloop
  endfacet
  facet normal -0.23736034 -0.886727591 -0.396704233
    outer loop
      vertex 0.178697238 2.31883799 1.12750723
      vertex 0.177817564 2.32028758 1.1247934
      vertex 0.17902549 2.32006427 1.1245698
    endloop
  endfacet
  facet normal 0.289063179 0.325403227 -0.900308402
    outer loop
      vertex 0.214629541 2.45307341 1.18407544
      vertex 0.215787494 2.45266342 1.18429903
      vertex 0.180183443 2.31965428 1.1247934
    endloop
  endfacet
  facet normal 0.289063179 0.325403227 -0.900308402
    outer loop
      vertex 0.214629541 2.45307341 1.18407544
      vertex 0.180183443 2.31965428 1.1247934
      vertex 0.17902549 2.32006427 1.1245698
    endloop
  endfacet
  facet normal 0.23736034 0.886727591 0.396704233
    outer loop
      vertex 0.214301289 2.45184713 1.18701287
      vertex 0.215787494 2.45266342 1.18429903
      vertex 0.214629541 2.45307341 1.18407544
    endloop
  endfacet
  facet normal -0.23736034 -0.886727591 -0.396704233
    outer loop
      vertex 0.178697238 2.31883799 1.12750723
      vertex 0.17902549 2.32006427 1.1245698
      vertex 0.180183443 2.31965428 1.1247934
    endloop
  endfacet
  facet normal 0.621966728 0.174971586 -0.763244609
    outer loop
      vertex 0.215787494 2.45266342 1.18429903
      vertex 0.216719186 2.45212915 1.18493579
      vertex 0.181115135 2.31912001 1.12543015
    endloop
  endfacet
  facet normal 0.621966728 0.174971586 -0.763244609
    outer loop
      vertex 0.215787494 2.45266342 1.18429903
      vertex 0.181115135 2.31912001 1.12543015
      vertex 0.180183443 2.31965428 1.1247934
    endloop
  endfacet
  facet normal 0.23736034 0.886727591 0.396704233
    outer loop
      vertex 0.214301289 2.45184713 1.18701287
      vertex 0.216719186 2.45212915 1.18493579
      vertex 0.215787494 2.45266342 1.18429903
    endloop
  endfacet
  facet normal -0.23736034 -0.886727591 -0.396704233
    outer loop
      vertex 0.178697238 2.31883799 1.12750723
      vertex 0.180183443 2.31965428 1.1247934
      vertex 0.181115135 2.31912001 1.12543015
    endloop
  endfacet
  facet normal 0.860181481 -0.00209789255 -0.509983743
    outer loop
      vertex 0.216719186 2.45212915 1.18493579
      vertex 0.217282774 2.45155195 1.18588876
      vertex 0.181678723 2.31854281 1.12638312
    endloop
  endfacet
  facet normal 0.860181481 -0.00209789255 -0.509983743
    outer loop
      vertex 0.216719186 2.45212915 1.18493579
      vertex 0.181678723 2.31854281 1.12638312
      vertex 0.181115135 2.31912001 1.12543015
    endloop
  endfacet
  facet normal 0.23736034 0.886727591 0.396704233
    outer loop
      vertex 0.214301289 2.45184713 1.18701287
      vertex 0.217282774 2.45155195 1.18588876
      vertex 0.216719186 2.45212915 1.18493579
    endloop
  endfacet
  facet normal -0.23736034 -0.886727591 -0.396704233
    outer loop
      vertex 0.178697238 2.31883799 1.12750723
      vertex 0.181115135 2.31912001 1.12543015
      vertex 0.181678723 2.31854281 1.12638312
    endloop
  endfacet
  facet normal 0.967441401 -0.178847986 -0.179082476
    outer loop
      vertex 0.217282774 2.45155195 1.18588876
      vertex 0.217392459 2.45101968 1.18701287
      vertex 0.181788408 2.31801055 1.12750723
    endloop
  endfacet
  facet normal 0.967441401 -0.178847986 -0.179082476
    outer loop
      vertex 0.217282774 2.45155195 1.18588876
      vertex 0.181788408 2.31801055 1.12750723
      vertex 0.181678723 2.31854281 1.12638312
    endloop
  endfacet
  facet normal 0.23736034 0.886727591 0.396704233
    outer loop
      vertex 0.214301289 2.45184713 1.18701287
      vertex 0.217392459 2.45101968 1.18701287
      vertex 0.217282774 2.45155195 1.18588876
    endloop
  endfacet
  facet normal -0.23736034 -0.886727591 -0.396704233
    outer loop
      vertex 0.178697238 2.31883799 1.12750723
      vertex 0.181678723 2.31854281 1.12638312
      vertex 0.181788408 2.31801055 1.12750723
    endloop
  endfacet
  facet normal 0.927417138 -0.328370095 0.179082476
    outer loop
      vertex 0.217392459 2.45101968 1.18701287
      vertex 0.217031541 2.45061339 1.18813697
      vertex 0.18142749 2.31760425 1.12863134
    endloop
  endfacet
  facet normal 0.927417138 -0.328370095 0.179082476
    outer loop
      vertex 0.217392459 2.45101968 1.18701287
      vertex 0.18142749 2.31760425 1.12863134
      vertex 0.181788408 2.31801055 1.12750723
    endloop
  endfacet
  facet normal 0.23736034 0.886727591 0.396704233
    outer loop
      vertex 0.214301289 2.45184713 1.18701287
      vertex 0.217031541 2.45061339 1.18813697
      vertex 0.217392459 2.45101968 1.18701287
    endloop
  endfacet
  facet normal -0.23736034 -0.886727591 -0.396704233
    outer loop
      vertex 0.178697238 2.31883799 1.12750723
      vertex 0.181788408 2.31801055 1.12750723
      vertex 0.18142749 2.31760425 1.12863134
    endloop
  endfacet
  facet normal 0.746202022 -0.427900834 0.509983743
    outer loop
      vertex 0.217031541 2.45061339 1.18813697
      vertex 0.216254967 2.45039493 1.18908994
      vertex 0.180650916 2.31738579 1.12958431
    endloop
  endfacet
  facet normal 0.746202022 -0.427900834 0.509983743
    outer loop
      vertex 0.217031541 2.45061339 1.18813697
      vertex 0.180650916 2.31738579 1.12958431
      vertex 0.18142749 2.31760425 1.12863134
    endloop
  endfacet
  facet normal 0.23736034 0.886727591 0.396704233
    outer loop
      vertex 0.214301289 2.45184713 1.18701287
      vertex 0.216254967 2.45039493 1.18908994
      vertex 0.217031541 2.45061339 1.18813697
    endloop
  endfacet
  facet normal -0.23736034 -0.886727591 -0.396704233
    outer loop
      vertex 0.178697238 2.31883799 1.12750723
      vertex 0.18142749 2.31760425 1.12863134
      vertex 0.180650916 2.31738579 1.12958431
    endloop
  endfacet
  facet normal 0.451384413 -0.462287549 0.763244609
    outer loop
      vertex 0.216254967 2.45039493 1.18908994
      vertex 0.215180963 2.45039755 1.1897267
      vertex 0.179576912 2.31738841 1.13022106
    endloop
  endfacet
  facet normal 0.451384413 -0.462287549 0.763244609
    outer loop
      vertex 0.216254967 2.45039493 1.18908994
      vertex 0.179576912 2.31738841 1.13022106
      vertex 0.180650916 2.31738579 1.12958431
    endloop
  endfacet
  facet normal 0.23736034 0.886727591 0.396704233
    outer loop
      vertex 0.214301289 2.45184713 1.18701287
      vertex 0.215180963 2.45039755 1.1897267
      vertex 0.216254967 2.45039493 1.18908994
    endloop
  endfacet
  facet normal -0.23736034 -0.886727591 -0.396704233
    outer loop
      vertex 0.178697238 2.31883799 1.12750723
      vertex 0.180650916 2.31738579 1.12958431
      vertex 0.179576912 2.31738841 1.13022106
    endloop
  endfacet
  facet normal 0.087847619 -0.426295176 0.900308402
    outer loop
      vertex 0.215180963 2.45039755 1.1897267
      vertex 0.213973037 2.45062085 1.18995029
      vertex 0.178368986 2.31761171 1.13044466
    endloop
  endfacet
  facet normal 0.087847619 -0.426295176 0.900308402
    outer loop
      vertex 0.215180963 2.45039755 1.1897267
      vertex 0.178368986 2.31761171 1.13044466
      vertex 0.179576912 2.31738841 1.13022106
    endloop
  endfacet
  facet normal 0.23736034 0.886727591 0.396704233
    outer loop
      vertex 0.214301289 2.45184713 1.18701287
      vertex 0.213973037 2.45062085 1.18995029
      vertex 0.215180963 2.45039755 1.1897267
    endloop
  endfacet
  facet normal -0.23736034 -0.886727591 -0.396704233
    outer loop
      vertex 0.178697238 2.31883799 1.12750723
      vertex 0.179576912 2.31738841 1.13022106
      vertex 0.178368986 2.31761171 1.13044466
    endloop
  endfacet
  facet normal -0.289063179 -0.325403227 0.900308402
    outer loop
      vertex 0.213973037 2.45062085 1.18995029
      vertex 0.212815084 2.45103085 1.1897267
      vertex 0.177211033 2.31802171 1.13022106
    endloop
  endfacet
  facet normal -0.289063179 -0.325403227 0.900308402
    outer loop
      vertex 0.213973037 2.45062085 1.18995029
      vertex 0.177211033 2.31802171 1.13022106
      vertex 0.178368986 2.31761171 1.13044466
    endloop
  endfacet
  facet normal 0.23736034 0.886727591 0.396704233
    outer loop
      vertex 0.214301289 2.45184713 1.18701287
      vertex 0.212815084 2.45103085 1.1897267
      vertex 0.213973037 2.45062085 1.18995029
    endloop
  endfacet
  facet normal -0.23736034 -0.886727591 -0.396704233
    outer loop
      vertex 0.178697238 2.31883799 1.12750723
      vertex 0.178368986 2.31761171 1.13044466
      vertex 0.177211033 2.31802171 1.13022106
    endloop
  endfacet
  facet normal -0.621966728 -0.174971586 0.763244609
    outer loop
      vertex 0.212815084 2.45103085 1.1897267
      vertex 0.211883393 2.45156512 1.18908994
      vertex 0.176279342 2.31855598 1.12958431
    endloop
  endfacet
  facet normal -0.621966728 -0.174971586 0.763244609
    outer loop
      vertex 0.212815084 2.45103085 1.1897267
      vertex 0.176279342 2.31855598 1.12958431
      vertex 0.177211033 2.31802171 1.13022106
    endloop
  endfacet
  facet normal 0.23736034 0.886727591 0.396704233
    outer loop
      vertex 0.214301289 2.45184713 1.18701287
      vertex 0.211883393 2.45156512 1.18908994
      vertex 0.212815084 2.45103085 1.1897267
    endloop
  endfacet
  facet normal -0.23736034 -0.886727591 -0.396704233
    outer loop
      vertex 0.178697238 2.31883799 1.12750723
      vertex 0.177211033 2.31802171 1.13022106
      vertex 0.176279342 2.31855598 1.12958431
    endloop
  endfacet
  facet normal -0.860181481 0.00209789255 0.509983743
    outer loop
      vertex 0.211883393 2.45156512 1.18908994
      vertex 0.211319804 2.45214232 1.18813697
      vertex 0.175715753 2.31913318 1.12863134
    endloop
  endfacet
  facet normal -0.860181481 0.00209789255 0.509983743
    outer loop
      vertex 0.211883393 2.45156512 1.18908994
      vertex 0.175715753 2.31913318 1.12863134
      vertex 0.176279342 2.31855598 1.12958431
    endloop
  endfacet
  facet normal 0.23736034 0.886727591 0.396704233
    outer loop
      vertex 0.214301289 2.45184713 1.18701287
      vertex 0.211319804 2.45214232 1.18813697
      vertex 0.211883393 2.45156512 1.18908994
    endloop
  endfacet
  facet normal -0.23736034 -0.886727591 -0.396704233
    outer loop
      vertex 0.178697238 2.31883799 1.12750723
      vertex 0.176279342 2.31855598 1.12958431
      vertex 0.175715753 2.31913318 1.12863134
    endloop
  endfacet
  facet normal -0.967441401 0.178847986 0.179082476
    outer loop
      vertex 0.211319804 2.45214232 1.18813697
      vertex 0.21121012 2.45267458 1.18701287
      vertex 0.175606069 2.31966544 1.12750723
    endloop
  endfacet
  facet normal -0.967441401 0.178847986 0.179082476
    outer loop
      vertex 0.211319804 2.45214232 1.18813697
      vertex 0.175606069 2.31966544 1.12750723
      vertex 0.175715753 2.31913318 1.12863134
    endloop
  endfacet
  facet normal 0.23736034 0.886727591 0.396704233
    outer loop
      vertex 0.214301289 2.45184713 1.18701287
      vertex 0.21121012 2.45267458 1.18701287
      vertex 0.211319804 2.45214232 1.18813697
    endloop
  endfacet
  facet normal -0.23736034 -0.886727591 -0.396704233
    outer loop
      vertex 0.178697238 2.31883799 1.12750723
      vertex 0.175715753 2.31913318 1.12863134
      vertex 0.175606069 2.31966544 1.12750723
    endloop
  endfacet
  facet normal -0.927417138 0.328370095 -0.179082476
    outer loop
      vertex 0.227931071 2.45897918 1.16291594
      vertex 0.228291989 2.45938547 1.16179183
      vertex 0.192687938 2.32637633 1.1022862
    endloop
  endfacet
  facet normal -0.927417138 0.328370095 -0.179082476
    outer loop
      vertex 0.227931071 2.45897918 1.16291594
      vertex 0.192687938 2.32637633 1.1022862
      vertex 0.19232702 2.32597004 1.1034103
    endloop
  endfacet
  facet normal 0.23736034 0.886727591 0.396704233
    outer loop
      vertex 0.231022241 2.45815173 1.16291594
      vertex 0.228291989 2.45938547 1.16179183
      vertex 0.227931071 2.45897918 1.16291594
    endloop
  endfacet
  facet normal -0.23736034 -0.886727591 -0.396704233
    outer loop
      vertex 0.19541819 2.32514259 1.1034103
      vertex 0.19232702 2.32597004 1.1034103
      vertex 0.192687938 2.32637633 1.1022862
    endloop
  endfacet
  facet normal -0.746202022 0.427900834 -0.509983743
    outer loop
      vertex 0.228291989 2.45938547 1.16179183
      vertex 0.229068563 2.45960394 1.16083886
      vertex 0.193464512 2.3265948 1.10133323
    endloop
  endfacet
  facet normal -0.746202022 0.427900834 -0.509983743
    outer loop
      vertex 0.228291989 2.45938547 1.16179183
      vertex 0.193464512 2.3265948 1.10133323
      vertex 0.192687938 2.32637633 1.1022862
    endloop
  endfacet
  facet normal 0.23736034 0.886727591 0.396704233
    outer loop
      vertex 0.231022241 2.45815173 1.16291594
      vertex 0.229068563 2.45960394 1.16083886
      vertex 0.228291989 2.45938547 1.16179183
    endloop
  endfacet
  facet normal -0.23736034 -0.886727591 -0.396704233
    outer loop
      vertex 0.19541819 2.32514259 1.1034103
      vertex 0.192687938 2.32637633 1.1022862
      vertex 0.193464512 2.3265948 1.10133323
    endloop
  endfacet
  facet normal -0.451384413 0.462287549 -0.763244609
    outer loop
      vertex 0.229068563 2.45960394 1.16083886
      vertex 0.230142567 2.45960132 1.16020211
      vertex 0.194538516 2.32659218 1.10069647
    endloop
  endfacet
  facet normal -0.451384413 0.462287549 -0.763244609
    outer loop
      vertex 0.229068563 2.45960394 1.16083886
      vertex 0.194538516 2.32659218 1.10069647
      vertex 0.193464512 2.3265948 1.10133323
    endloop
  endfacet
  facet normal 0.23736034 0.886727591 0.396704233
    outer loop
      vertex 0.231022241 2.45815173 1.16291594
      vertex 0.230142567 2.45960132 1.16020211
      vertex 0.229068563 2.45960394 1.16083886
    endloop
  endfacet
  facet normal -0.23736034 -0.886727591 -0.396704233
    outer loop
      vertex 0.19541819 2.32514259 1.1034103
      vertex 0.193464512 2.3265948 1.10133323
      vertex 0.194538516 2.32659218 1.10069647
    endloop
  endfacet
  facet normal -0.087847619 0.426295176 -0.900308402
    outer loop
      vertex 0.230142567 2.45960132 1.16020211
      vertex 0.231350493 2.45937801 1.15997851
      vertex 0.195746442 2.32636887 1.10047288
    endloop
  endfacet
  facet normal -0.087847619 0.426295176 -0.900308402
    outer loop
      vertex 0.230142567 2.45960132 1.16020211
      vertex 0.195746442 2.32636887 1.10047288
      vertex 0.194538516 2.32659218 1.10069647
    endloop
  endfacet
  facet normal 0.23736034 0.886727591 0.396704233
    outer loop
      vertex 0.231022241 2.45815173 1.16291594
      vertex 0.231350493 2.45937801 1.15997851
      vertex 0.230142567 2.45960132 1.16020211
    endloop
  endfacet
  facet normal -0.23736034 -0.886727591 -0.396704233
    outer loop
      vertex 0.19541819 2.32514259 1.1034103
      vertex 0.194538516 2.32659218 1.10069647
      vertex 0.195746442 2.32636887 1.10047288
    endloop
  endfacet
  facet normal 0.289063179 0.325403227 -0.900308402
    outer loop
      vertex 0.231350493 2.45937801 1.15997851
      vertex 0.232508446 2.45896802 1.16020211
      vertex 0.196904395 2.32595888 1.10069647
    endloop
  endfacet
  facet normal 0.289063179 0.325403227 -0.900308402
    outer loop
      vertex 0.231350493 2.45937801 1.15997851
      vertex 0.196904395 2.32595888 1.10069647
      vertex 0.195746442 2.32636887 1.10047288
    endloop
  endfacet
  facet normal 0.23736034 0.886727591 0.396704233
    outer loop
      vertex 0.231022241 2.45815173 1.16291594
      vertex 0.232508446 2.45896802 1.16020211
      vertex 0.231350493 2.45937801 1.15997851
    endloop
  endfacet
  facet normal -0.23736034 -0.886727591 -0.396704233
    outer loop
      vertex 0.19541819 2.32514259 1.1034103
      vertex 0.195746442 2.32636887 1.10047288
      vertex 0.196904395 2.32595888 1.10069647
    endloop
  endfacet
  facet normal 0.621966728 0.174971586 -0.763244609
    outer loop
      vertex 0.232508446 2.45896802 1.16020211
      vertex 0.233440137 2.45843375 1.16083886
      vertex 0.197836086 2.32542461 1.10133323
    endloop
  endfacet
  facet normal 0.621966728 0.174971586 -0.763244609
    outer loop
      vertex 0.232508446 2.45896802 1.16020211
      vertex 0.197836086 2.32542461 1.10133323
      vertex 0.196904395 2.32595888 1.10069647
    endloop
  endfacet
  facet normal 0.23736034 0.886727591 0.396704233
    outer loop
      vertex 0.231022241 2.45815173 1.16291594
      vertex 0.233440137 2.45843375 1.16083886
      vertex 0.232508446 2.45896802 1.16020211
    endloop
  endfacet
  facet normal -0.23736034 -0.886727591 -0.396704233
    outer loop
      vertex 0.19541819 2.32514259 1.1034103
      vertex 0.196904395 2.32595888 1.10069647
      vertex 0.197836086 2.32542461 1.10133323
    endloop
  endfacet
  facet normal 0.860181481 -0.00209789255 -0.509983743
    outer loop
      vertex 0.233440137 2.45843375 1.16083886
      vertex 0.234003726 2.45785655 1.16179183
      vertex 0.198399675 2.32484741 1.1022862
    endloop
  endfacet
  facet normal 0.860181481 -0.00209789255 -0.509983743
    outer loop
      vertex 0.233440137 2.45843375 1.16083886
      vertex 0.198399675 2.32484741 1.1022862
      vertex 0.197836086 2.32542461 1.10133323
    endloop
  endfacet
  facet normal 0.23736034 0.886727591 0.396704233
    outer loop
      vertex 0.231022241 2.45815173 1.16291594
      vertex 0.234003726 2.45785655 1.16179183
      vertex 0.233440137 2.45843375 1.16083886
    endloop
  endfacet
  facet normal -0.23736034 -0.886727591 -0.396704233
    outer loop
      vertex 0.19541819 2.32514259 1.1034103
      vertex 0.197836086 2.32542461 1.10133323
      vertex 0.198399675 2.32484741 1.1022862
    endloop
  endfacet
  facet normal 0.967441401 -0.178847986 -0.179082476
    outer loop
      vertex 0.234003726 2.45785655 1.16179183
      vertex 0.23411341 2.45732428 1.16291594
      vertex 0.198509359 2.32431514 1.1034103
    endloop
  endfacet
  facet normal 0.967441401 -0.178847986 -0.179082476
    outer loop
      vertex 0.234003726 2.45785655 1.16179183
      vertex 0.198509359 2.32431514 1.1034103
      vertex 0.198399675 2.32484741 1.1022862
    endloop
  endfacet
  facet normal 0.23736034 0.886727591 0.396704233
    outer loop
      vertex 0.231022241 2.45815173 1.16291594
      vertex 0.23411341 2.45732428 1.16291594
      vertex 0.234003726 2.45785655 1.16179183
    endloop
  endfacet
  facet normal -0.23736034 -0.886727591 -0.396704233
    outer loop
      vertex 0.19541819 2.32514259 1.1034103
      vertex 0.198399675 2.32484741 1.1022862
      vertex 0.198509359 2.32431514 1.1034103
    endloop
  endfacet
  facet normal 0.927417138 -0.328370095 0.179082476
    outer loop
      vertex 0.23411341 2.45732428 1.16291594
      vertex 0.233752492 2.45691799 1.16404005
      vertex 0.198148441 2.32390885 1.10453441
    endloop
  endfacet
  facet normal 0.927417138 -0.328370095 0.179082476
    outer loop
      vertex 0.23411341 2.45732428 1.16291594
      vertex 0.198148441 2.32390885 1.10453441
      vertex 0.198509359 2.32431514 1.1034103
    endloop
  endfacet
  facet normal 0.23736034 0.886727591 0.396704233
    outer loop
      vertex 0.231022241 2.45815173 1.16291594
      vertex 0.233752492 2.45691799 1.16404005
      vertex 0.23411341 2.45732428 1.16291594
    endloop
  endfacet
  facet normal -0.23736034 -0.886727591 -0.396704233
    outer loop
      vertex 0.19541819 2.32514259 1.1034103
      vertex 0.198509359 2.32431514 1.1034103
      vertex 0.198148441 2.32390885 1.10453441
    endloop
  endfacet
  facet normal 0.746202022 -0.427900834 0.509983743
    outer loop
      vertex 0.233752492 2.45691799 1.16404005
      vertex 0.232975918 2.45669953 1.16499302
      vertex 0.197371867 2.32369039 1.10548738
    endloop
  endfacet
  facet normal 0.746202022 -0.427900834 0.509983743
    outer loop
      vertex 0.233752492 2.45691799 1.16404005
      vertex 0.197371867 2.32369039 1.10548738
      vertex 0.198148441 2.32390885 1.10453441
    endloop
  endfacet
  facet normal 0.23736034 0.886727591 0.396704233
    outer loop
      vertex 0.231022241 2.45815173 1.16291594
      vertex 0.232975918 2.45669953 1.16499302
      vertex 0.233752492 2.45691799 1.16404005
    endloop
  endfacet
  facet normal -0.23736034 -0.886727591 -0.396704233
    outer loop
      vertex 0.19541819 2.32514259 1.1034103
      vertex 0.198148441 2.32390885 1.10453441
      vertex 0.197371867 2.32369039 1.10548738
    endloop
  endfacet
  facet normal 0.451384413 -0.462287549 0.763244609
    outer loop
      vertex 0.232975918 2.45669953 1.16499302
      vertex 0.231901915 2.45670214 1.16562977
      vertex 0.196297864 2.32369301 1.10612414
    endloop
  endfacet
  facet normal 0.451384413 -0.462287549 0.763244609
    outer loop
      vertex 0.232975918 2.45669953 1.16499302
      vertex 0.196297864 2.32369301 1.10612414
      vertex 0.197371867 2.32369039 1.10548738
    endloop
  endfacet
  facet normal 0.23736034 0.886727591 0.396704233
    outer loop
      vertex 0.231022241 2.45815173 1.16291594
      vertex 0.231901915 2.45670214 1.16562977
      vertex 0.232975918 2.45669953 1.16499302
    endloop
  endfacet
  facet normal -0.23736034 -0.886727591 -0.396704233
    outer loop
      vertex 0.19541819 2.32514259 1.1034103
      vertex 0.197371867 2.32369039 1.10548738
      vertex 0.196297864 2.32369301 1.10612414
    endloop
  endfacet
  facet normal 0.087847619 -0.426295176 0.900308402
    outer loop
      vertex 0.231901915 2.45670214 1.16562977
      vertex 0.230693989 2.45692545 1.16585337
      vertex 0.195089938 2.32391631 1.10634773
    endloop
  endfacet
  facet normal 0.087847619 -0.426295176 0.900308402
    outer loop
      vertex 0.231901915 2.45670214 1.16562977
      vertex 0.195089938 2.32391631 1.10634773
      vertex 0.196297864 2.32369301 1.10612414
    endloop
  endfacet
  facet normal 0.23736034 0.886727591 0.396704233
    outer loop
      vertex 0.231022241 2.45815173 1.16291594
      vertex 0.230693989 2.45692545 1.16585337
      vertex 0.231901915 2.45670214 1.16562977
    endloop
  endfacet
  facet normal -0.23736034 -0.886727591 -0.396704233
    outer loop
      vertex 0.19541819 2.32514259 1.1034103
      vertex 0.196297864 2.32369301 1.10612414
      vertex 0.195089938 2.32391631 1.10634773
    endloop
  endfacet
  facet normal -0.289063179 -0.325403227 0.900308402
    outer loop
      vertex 0.230693989 2.45692545 1.16585337
      vertex 0.229536036 2.45733545 1.16562977
      vertex 0.193931985 2.32432631 1.10612414
    endloop
  endfacet
  facet normal -0.289063179 -0.325403227 0.900308402
    outer loop
      vertex 0.230693989 2.45692545 1.16585337
      vertex 0.193931985 2.32432631 1.10612414
      vertex 0.195089938 2.32391631 1.10634773
    endloop
  endfacet
  facet normal 0.23736034 0.886727591 0.396704233
    outer loop
      vertex 0.231022241 2.45815173 1.16291594
      vertex 0.229536036 2.45733545 1.16562977
      vertex 0.230693989 2.45692545 1.16585337
    endloop
  endfacet
  facet normal -0.23736034 -0.886727591 -0.396704233
    outer loop
      vertex 0.19541819 2.32514259 1.1034103
      vertex 0.195089938 2.32391631 1.10634773
      vertex 0.193931985 2.32432631 1.10612414
    endloop
  endfacet
  facet normal -0.621966728 -0.174971586 0.763244609
    outer loop
      vertex 0.229536036 2.45733545 1.16562977
      vertex 0.228604344 2.45786971 1.16499302
      vertex 0.193000293 2.32486058 1.10548738
    endloop
  endfacet
  facet normal -0.621966728 -0.174971586 0.763244609
    outer loop
      vertex 0.229536036 2.45733545 1.16562977
      vertex 0.193000293 2.32486058 1.10548738
      vertex 0.193931985 2.32432631 1.10612414
    endloop
  endfacet
  facet normal 0.23736034 0.886727591 0.396704233
    outer loop
      vertex 0.231022241 2.45815173 1.16291594
      vertex 0.228604344 2.45786971 1.16499302
      vertex 0.229536036 2.45733545 1.16562977
    endloop
  endfacet
  facet normal -0.23736034 -0.886727591 -0.396704233
    outer loop
      vertex 0.19541819 2.32514259 1.1034103
      vertex 0.193931985 2.32432631 1.10612414
      vertex 0.193000293 2.32486058 1.10548738
    endloop
  endfacet
  facet normal -0.860181481 0.00209789255 0.509983743
    outer loop
      vertex 0.228604344 2.45786971 1.16499302
      vertex 0.228040756 2.45844692 1.16404005
      vertex 0.192436705 2.32543778 1.10453441
    endloop
  endfacet
  facet normal -0.860181481 0.00209789255 0.509983743
    outer loop
      vertex 0.228604344 2.45786971 1.16499302
      vertex 0.192436705 2.32543778 1.10453441
      vertex 0.193000293 2.32486058 1.10548738
    endloop
  endfacet
  facet normal 0.23736034 0.886727591 0.396704233
    outer loop
      vertex 0.231022241 2.45815173 1.16291594
      vertex 0.228040756 2.45844692 1.16404005
      vertex 0.228604344 2.45786971 1.16499302
    endloop
  endfacet
  facet normal -0.23736034 -0.886727591 -0.396704233
    outer loop
      vertex 0.19541819 2.32514259 1.1034103
      vertex 0.193000293 2.32486058 1.10548738
      vertex 0.192436705 2.32543778 1.10453441
    endloop
  endfacet
  facet normal -0.967441401 0.178847986 0.179082476
    outer loop
      vertex 0.228040756 2.45844692 1.16404005
      vertex 0.227931071 2.45897918 1.16291594
      vertex 0.19232702 2.32597004 1.1034103
    endloop
  endfacet
  facet normal -0.967441401 0.178847986 0.179082476
    outer loop
      vertex 0.228040756 2.45844692 1.16404005
      vertex 0.19232702 2.32597004 1.1034103
      vertex 0.192436705 2.32543778 1.10453441
    endloop
  endfacet
  facet normal 0.23736034 0.886727591 0.396704233
    outer loop
      vertex 0.231022241 2.45815173 1.16291594
      vertex 0.227931071 2.45897918 1.16291594
      vertex 0.228040756 2.45844692 1.16404005
    endloop
  endfacet
  facet normal -0.23736034 -0.886727591 -0.396704233
    outer loop
      vertex 0.19541819 2.32514259 1.1034103
      vertex 0.192436705 2.32543778 1.10453441
      vertex 0.19232702 2.32597004 1.1034103
    endloop
  endfacet
  facet normal -0.531217967 0.839112992 -0.117033578
    outer loop
      vertex 0.399819986 2.4706983 1.24722579
      vertex 0.399016409 2.47008712 1.24649117
      vertex 0.349426865 2.44873647 1.3184983
    endloop
  endfacet
  facet normal -0.531217967 0.839112992 -0.117033578
    outer loop
      vertex 0.399819986 2.4706983 1.24722579
      vertex 0.349426865 2.44873647 1.3184983
      vertex 0.350230442 2.44934765 1.31923292
    endloop
  endfacet
  facet normal 0.550994933 0.237229401 -0.800079243
    outer loop
      vertex 0.401085432 2.46775914 1.24722579
      vertex 0.399016409 2.47008712 1.24649117
      vertex 0.399819986 2.4706983 1.24722579
    endloop
  endfacet
  facet normal -0.550994933 -0.237229401 0.800079243
    outer loop
      vertex 0.351495888 2.4464085 1.31923292
      vertex 0.350230442 2.44934765 1.31923292
      vertex 0.349426865 2.44873647 1.3184983
    endloop
  endfacet
  facet normal -0.737073817 0.587915251 -0.333283432
    outer loop
      vertex 0.399016409 2.47008712 1.24649117
      vertex 0.398527823 2.46912153 1.24586838
      vertex 0.348938279 2.44777088 1.31787552
    endloop
  endfacet
  facet normal -0.737073817 0.587915251 -0.333283432
    outer loop
      vertex 0.399016409 2.47008712 1.24649117
      vertex 0.348938279 2.44777088 1.31787552
      vertex 0.349426865 2.44873647 1.3184983
    endloop
  endfacet
  facet normal 0.550994933 0.237229401 -0.800079243
    outer loop
      vertex 0.401085432 2.46775914 1.24722579
      vertex 0.398527823 2.46912153 1.24586838
      vertex 0.399016409 2.47008712 1.24649117
    endloop
  endfacet
  facet normal -0.550994933 -0.237229401 0.800079243
    outer loop
      vertex 0.351495888 2.4464085 1.31923292
      vertex 0.349426865 2.44873647 1.3184983
      vertex 0.348938279 2.44777088 1.31787552
    endloop
  endfacet
  facet normal -0.83071686 0.247212743 -0.498793904
    outer loop
      vertex 0.398527823 2.46912153 1.24586838
      vertex 0.39842861 2.46794852 1.24545225
      vertex 0.348839066 2.44659787 1.31745939
    endloop
  endfacet
  facet normal -0.83071686 0.247212743 -0.498793904
    outer loop
      vertex 0.398527823 2.46912153 1.24586838
      vertex 0.348839066 2.44659787 1.31745939
      vertex 0.348938279 2.44777088 1.31787552
    endloop
  endfacet
  facet normal 0.550994933 0.237229401 -0.800079243
    outer loop
      vertex 0.401085432 2.46775914 1.24722579
      vertex 0.39842861 2.46794852 1.24545225
      vertex 0.398527823 2.46912153 1.24586838
    endloop
  endfacet
  facet normal -0.550994933 -0.237229401 0.800079243
    outer loop
      vertex 0.351495888 2.4464085 1.31923292
      vertex 0.348938279 2.44777088 1.31787552
      vertex 0.348839066 2.44659787 1.31745939
    endloop
  endfacet
  facet normal -0.797890791 -0.131125664 -0.588367527
    outer loop
      vertex 0.39842861 2.46794852 1.24545225
      vertex 0.398733873 2.46674669 1.24530613
      vertex 0.349144329 2.44539604 1.31731326
    endloop
  endfacet
  facet normal -0.797890791 -0.131125664 -0.588367527
    outer loop
      vertex 0.39842861 2.46794852 1.24545225
      vertex 0.349144329 2.44539604 1.31731326
      vertex 0.348839066 2.44659787 1.31745939
    endloop
  endfacet
  facet normal 0.550994933 0.237229401 -0.800079243
    outer loop
      vertex 0.401085432 2.46775914 1.24722579
      vertex 0.398733873 2.46674669 1.24530613
      vertex 0.39842861 2.46794852 1.24545225
    endloop
  endfacet
  facet normal -0.550994933 -0.237229401 0.800079243
    outer loop
      vertex 0.351495888 2.4464085 1.31923292
      vertex 0.348839066 2.44659787 1.31745939
      vertex 0.349144329 2.44539604 1.31731326
    endloop
  endfacet
  facet normal -0.643593082 -0.489501378 -0.588367527
    outer loop
      vertex 0.398733873 2.46674669 1.24530613
      vertex 0.39939714 2.46569899 1.24545225
      vertex 0.349807596 2.44434834 1.31745939
    endloop
  endfacet
  facet normal -0.643593082 -0.489501378 -0.588367527
    outer loop
      vertex 0.398733873 2.46674669 1.24530613
      vertex 0.349807596 2.44434834 1.31745939
      vertex 0.349144329 2.44539604 1.31731326
    endloop
  endfacet
  facet normal 0.550994933 0.237229401 -0.800079243
    outer loop
      vertex 0.401085432 2.46775914 1.24722579
      vertex 0.39939714 2.46569899 1.24545225
      vertex 0.398733873 2.46674669 1.24530613
    endloop
  endfacet
  facet normal -0.550994933 -0.237229401 0.800079243
    outer loop
      vertex 0.351495888 2.4464085 1.31923292
      vertex 0.349144329 2.44539604 1.31731326
      vertex 0.349807596 2.44434834 1.31745939
    endloop
  endfacet
  facet normal -0.39131416 -0.773354944 -0.498793904
    outer loop
      vertex 0.39939714 2.46569899 1.24545225
      vertex 0.400317434 2.46496493 1.24586838
      vertex 0.35072789 2.44361428 1.31787552
    endloop
  endfacet
  facet normal -0.39131416 -0.773354944 -0.498793904
    outer loop
      vertex 0.39939714 2.46569899 1.24545225
      vertex 0.35072789 2.44361428 1.31787552
      vertex 0.349807596 2.44434834 1.31745939
    endloop
  endfacet
  facet normal 0.550994933 0.237229401 -0.800079243
    outer loop
      vertex 0.401085432 2.46775914 1.24722579
      vertex 0.400317434 2.46496493 1.24586838
      vertex 0.39939714 2.46569899 1.24545225
    endloop
  endfacet
  facet normal -0.550994933 -0.237229401 0.800079243
    outer loop
      vertex 0.351495888 2.4464085 1.31923292
      vertex 0.349807596 2.44434834 1.31745939
      vertex 0.35072789 2.44361428 1.31787552
    endloop
  endfacet
  facet normal -0.0794612054 -0.93947223 -0.333283432
    outer loop
      vertex 0.400317434 2.46496493 1.24586838
      vertex 0.401354649 2.46465626 1.24649117
      vertex 0.351765105 2.44330562 1.3184983
    endloop
  endfacet
  facet normal -0.0794612054 -0.93947223 -0.333283432
    outer loop
      vertex 0.400317434 2.46496493 1.24586838
      vertex 0.351765105 2.44330562 1.3184983
      vertex 0.35072789 2.44361428 1.31787552
    endloop
  endfacet
  facet normal 0.550994933 0.237229401 -0.800079243
    outer loop
      vertex 0.401085432 2.46775914 1.24722579
      vertex 0.401354649 2.46465626 1.24649117
      vertex 0.400317434 2.46496493 1.24586838
    endloop
  endfacet
  facet normal -0.550994933 -0.237229401 0.800079243
    outer loop
      vertex 0.351495888 2.4464085 1.31923292
      vertex 0.35072789 2.44361428 1.31787552
      vertex 0.351765105 2.44330562 1.3184983
    endloop
  endfacet
  facet normal 0.244488998 -0.962563386 -0.117033578
    outer loop
      vertex 0.401354649 2.46465626 1.24649117
      vertex 0.402350878 2.46481999 1.24722579
      vertex 0.352761334 2.44346934 1.31923292
    endloop
  endfacet
  facet normal 0.244488998 -0.962563386 -0.117033578
    outer loop
      vertex 0.401354649 2.46465626 1.24649117
      vertex 0.352761334 2.44346934 1.31923292
      vertex 0.351765105 2.44330562 1.3184983
    endloop
  endfacet
  facet normal 0.550994933 0.237229401 -0.800079243
    outer loop
      vertex 0.401085432 2.46775914 1.24722579
      vertex 0.402350878 2.46481999 1.24722579
      vertex 0.401354649 2.46465626 1.24649117
    endloop
  endfacet
  facet normal -0.550994933 -0.237229401 0.800079243
    outer loop
      vertex 0.351495888 2.4464085 1.31923292
      vertex 0.351765105 2.44330562 1.3184983
      vertex 0.352761334 2.44346934 1.31923292
    endloop
  endfacet
  facet normal 0.531217967 -0.839112992 0.117033578
    outer loop
      vertex 0.402350878 2.46481999 1.24722579
      vertex 0.403154454 2.46543117 1.24796041
      vertex 0.35356491 2.44408052 1.31996754
    endloop
  endfacet
  facet normal 0.531217967 -0.839112992 0.117033578
    outer loop
      vertex 0.402350878 2.46481999 1.24722579
      vertex 0.35356491 2.44408052 1.31996754
      vertex 0.352761334 2.44346934 1.31923292
    endloop
  endfacet
  facet normal 0.550994933 0.237229401 -0.800079243
    outer loop
      vertex 0.401085432 2.46775914 1.24722579
      vertex 0.403154454 2.46543117 1.24796041
      vertex 0.402350878 2.46481999 1.24722579
    endloop
  endfacet
  facet normal -0.550994933 -0.237229401 0.800079243
    outer loop
      vertex 0.351495888 2.4464085 1.31923292
      vertex 0.352761334 2.44346934 1.31923292
      vertex 0.35356491 2.44408052 1.31996754
    endloop
  endfacet
  facet normal 0.737073817 -0.587915251 0.333283432
    outer loop
      vertex 0.403154454 2.46543117 1.24796041
      vertex 0.403643041 2.46639676 1.2485832
      vertex 0.354053497 2.44504611 1.32059033
    endloop
  endfacet
  facet normal 0.737073817 -0.587915251 0.333283432
    outer loop
      vertex 0.403154454 2.46543117 1.24796041
      vertex 0.354053497 2.44504611 1.32059033
      vertex 0.35356491 2.44408052 1.31996754
    endloop
  endfacet
  facet normal 0.550994933 0.237229401 -0.800079243
    outer loop
      vertex 0.401085432 2.46775914 1.24722579
      vertex 0.403643041 2.46639676 1.2485832
      vertex 0.403154454 2.46543117 1.24796041
    endloop
  endfacet
  facet normal -0.550994933 -0.237229401 0.800079243
    outer loop
      vertex 0.351495888 2.4464085 1.31923292
      vertex 0.35356491 2.44408052 1.31996754
      vertex 0.354053497 2.44504611 1.32059033
    endloop
  endfacet
  facet normal 0.83071686 -0.247212743 0.498793904
    outer loop
      vertex 0.403643041 2.46639676 1.2485832
      vertex 0.403742254 2.46756976 1.24899933
      vertex 0.35415271 2.44621912 1.32100646
    endloop
  endfacet
  facet normal 0.83071686 -0.247212743 0.498793904
    outer loop
      vertex 0.403643041 2.46639676 1.2485832
      vertex 0.35415271 2.44621912 1.32100646
      vertex 0.354053497 2.44504611 1.32059033
    endloop
  endfacet
  facet normal 0.550994933 0.237229401 -0.800079243
    outer loop
      vertex 0.401085432 2.46775914 1.24722579
      vertex 0.403742254 2.46756976 1.24899933
      vertex 0.403643041 2.46639676 1.2485832
    endloop
  endfacet
  facet normal -0.550994933 -0.237229401 0.800079243
    outer loop
      vertex 0.351495888 2.4464085 1.31923292
      vertex 0.354053497 2.44504611 1.32059033
      vertex 0.35415271 2.44621912 1.32100646
    endloop
  endfacet
  facet normal 0.797890791 0.131125664 0.588367527
    outer loop
      vertex 0.403742254 2.46756976 1.24899933
      vertex 0.403436991 2.4687716 1.24914545
      vertex 0.353847447 2.44742095 1.32115258
    endloop
  endfacet
  facet normal 0.797890791 0.131125664 0.588367527
    outer loop
      vertex 0.403742254 2.46756976 1.24899933
      vertex 0.353847447 2.44742095 1.32115258
      vertex 0.35415271 2.44621912 1.32100646
    endloop
  endfacet
  facet normal 0.550994933 0.237229401 -0.800079243
    outer loop
      vertex 0.401085432 2.46775914 1.24722579
      vertex 0.403436991 2.4687716 1.24914545
      vertex 0.403742254 2.46756976 1.24899933
    endloop
  endfacet
  facet normal -0.550994933 -0.237229401 0.800079243
    outer loop
      vertex 0.351495888 2.4464085 1.31923292
      vertex 0.35415271 2.44621912 1.32100646
      vertex 0.353847447 2.44742095 1.32115258
    endloop
  endfacet
  facet normal 0.643593082 0.489501378 0.588367527
    outer loop
      vertex 0.403436991 2.4687716 1.24914545
      vertex 0.402773724 2.4698193 1.24899933
      vertex 0.35318418 2.44846865 1.32100646
    endloop
  endfacet
  facet normal 0.643593082 0.489501378 0.588367527
    outer loop
      vertex 0.403436991 2.4687716 1.24914545
      vertex 0.35318418 2.44846865 1.32100646
      vertex 0.353847447 2.44742095 1.32115258
    endloop
  endfacet
  facet normal 0.550994933 0.237229401 -0.800079243
    outer loop
      vertex 0.401085432 2.46775914 1.24722579
      vertex 0.402773724 2.4698193 1.24899933
      vertex 0.403436991 2.4687716 1.24914545
    endloop
  endfacet
  facet normal -0.550994933 -0.237229401 0.800079243
    outer loop
      vertex 0.351495888 2.4464085 1.31923292
      vertex 0.353847447 2.44742095 1.32115258
      vertex 0.35318418 2.44846865 1.32100646
    endloop
  endfacet
  facet normal 0.39131416 0.773354944 0.498793904
    outer loop
      vertex 0.402773724 2.4698193 1.24899933
      vertex 0.401853429 2.47055336 1.2485832
      vertex 0.352263885 2.44920271 1.32059033
    endloop
  endfacet
  facet normal 0.39131416 0.773354944 0.498793904
    outer loop
      vertex 0.402773724 2.4698193 1.24899933
      vertex 0.352263885 2.44920271 1.32059033
      vertex 0.35318418 2.44846865 1.32100646
    endloop
  endfacet
  facet normal 0.550994933 0.237229401 -0.800079243
    outer loop
      vertex 0.401085432 2.46775914 1.24722579
      vertex 0.401853429 2.47055336 1.2485832
      vertex 0.402773724 2.4698193 1.24899933
    endloop
  endfacet
  facet normal -0.550994933 -0.237229401 0.800079243
    outer loop
      vertex 0.351495888 2.4464085 1.31923292
      vertex 0.35318418 2.44846865 1.32100646
      vertex 0.352263885 2.44920271 1.32059033
    endloop
  endfacet
  facet normal 0.0794612054 0.93947223 0.333283432
    outer loop
      vertex 0.401853429 2.47055336 1.2485832
      vertex 0.400816214 2.47086202 1.24796041
      vertex 0.35122667 2.44951137 1.31996754
    endloop
  endfacet
  facet normal 0.0794612054 0.93947223 0.333283432
    outer loop
      vertex 0.401853429 2.47055336 1.2485832
      vertex 0.35122667 2.44951137 1.31996754
      vertex 0.352263885 2.44920271 1.32059033
    endloop
  endfacet
  facet normal 0.550994933 0.237229401 -0.800079243
    outer loop
      vertex 0.401085432 2.46775914 1.24722579
      vertex 0.400816214 2.47086202 1.24796041
      vertex 0.401853429 2.47055336 1.2485832
    endloop
  endfacet
  facet normal -0.550994933 -0.237229401 0.800079243
    outer loop
      vertex 0.351495888 2.4464085 1.31923292
      vertex 0.352263885 2.44920271 1.32059033
      vertex 0.35122667 2.44951137 1.31996754
    endloop
  endfacet
  facet normal -0.244488998 0.962563386 0.117033578
    outer loop
      vertex 0.400816214 2.47086202 1.24796041
      vertex 0.399819986 2.4706983 1.24722579
      vertex 0.350230442 2.44934765 1.31923292
    endloop
  endfacet
  facet normal -0.244488998 0.962563386 0.117033578
    outer loop
      vertex 0.400816214 2.47086202 1.24796041
      vertex 0.350230442 2.44934765 1.31923292
      vertex 0.35122667 2.44951137 1.31996754
    endloop
  endfacet
  facet normal 0.550994933 0.237229401 -0.800079243
    outer loop
      vertex 0.401085432 2.46775914 1.24722579
      vertex 0.399819986 2.4706983 1.24722579
      vertex 0.400816214 2.47086202 1.24796041
    endloop
  endfacet
  facet normal -0.550994933 -0.237229401 0.800079243
    outer loop
      vertex 0.351495888 2.4464085 1.31923292
      vertex 0.35122667 2.44951137 1.31996754
      vertex 0.350230442 2.44934765 1.31923292
    endloop
  endfacet
  facet normal -0.531217967 0.839112992 -0.117033578
    outer loop
      vertex 0.394578605 2.44355721 1.23556865
      vertex 0.393775029 2.44294603 1.23483402
      vertex 0.344185485 2.42159538 1.30684115
    endloop
  endfacet
  facet normal -0.531217967 0.839112992 -0.117033578
    outer loop
      vertex 0.394578605 2.44355721 1.23556865
      vertex 0.344185485 2.42159538 1.30684115
      vertex 0.344989061 2.42220656 1.30757578
    endloop
  endfacet
  facet normal 0.550994933 0.237229401 -0.800079243
    outer loop
      vertex 0.395844052 2.44061805 1.23556865
      vertex 0.393775029 2.44294603 1.23483402
      vertex 0.394578605 2.44355721 1.23556865
    endloop
  endfacet
  facet normal -0.550994933 -0.237229401 0.800079243
    outer loop
      vertex 0.346254508 2.4192674 1.30757578
      vertex 0.344989061 2.42220656 1.30757578
      vertex 0.344185485 2.42159538 1.30684115
    endloop
  endfacet
  facet normal -0.737073817 0.587915251 -0.333283432
    outer loop
      vertex 0.393775029 2.44294603 1.23483402
      vertex 0.393286443 2.44198043 1.23421124
      vertex 0.343696899 2.42062979 1.30621837
    endloop
  endfacet
  facet normal -0.737073817 0.587915251 -0.333283432
    outer loop
      vertex 0.393775029 2.44294603 1.23483402
      vertex 0.343696899 2.42062979 1.30621837
      vertex 0.344185485 2.42159538 1.30684115
    endloop
  endfacet
  facet normal 0.550994933 0.237229401 -0.800079243
    outer loop
      vertex 0.395844052 2.44061805 1.23556865
      vertex 0.393286443 2.44198043 1.23421124
      vertex 0.393775029 2.44294603 1.23483402
    endloop
  endfacet
  facet normal -0.550994933 -0.237229401 0.800079243
    outer loop
      vertex 0.346254508 2.4192674 1.30757578
      vertex 0.344185485 2.42159538 1.30684115
      vertex 0.343696899 2.42062979 1.30621837
    endloop
  endfacet
  facet normal -0.83071686 0.247212743 -0.498793904
    outer loop
      vertex 0.393286443 2.44198043 1.23421124
      vertex 0.393187229 2.44080743 1.23379511
      vertex 0.343597685 2.41945678 1.30580224
    endloop
  endfacet
  facet normal -0.83071686 0.247212743 -0.498793904
    outer loop
      vertex 0.393286443 2.44198043 1.23421124
      vertex 0.343597685 2.41945678 1.30580224
      vertex 0.343696899 2.42062979 1.30621837
    endloop
  endfacet
  facet normal 0.550994933 0.237229401 -0.800079243
    outer loop
      vertex 0.395844052 2.44061805 1.23556865
      vertex 0.393187229 2.44080743 1.23379511
      vertex 0.393286443 2.44198043 1.23421124
    endloop
  endfacet
  facet normal -0.550994933 -0.237229401 0.800079243
    outer loop
      vertex 0.346254508 2.4192674 1.30757578
      vertex 0.343696899 2.42062979 1.30621837
      vertex 0.343597685 2.41945678 1.30580224
    endloop
  endfacet
  facet normal -0.797890791 -0.131125664 -0.588367527
    outer loop
      vertex 0.393187229 2.44080743 1.23379511
      vertex 0.393492493 2.43960559 1.23364898
      vertex 0.343902949 2.41825495 1.30565612
    endloop
  endfacet
  facet normal -0.797890791 -0.131125664 -0.588367527
    outer loop
      vertex 0.393187229 2.44080743 1.23379511
      vertex 0.343902949 2.41825495 1.30565612
      vertex 0.343597685 2.41945678 1.30580224
    endloop
  endfacet
  facet normal 0.550994933 0.237229401 -0.800079243
    outer loop
      vertex 0.395844052 2.44061805 1.23556865
      vertex 0.393492493 2.43960559 1.23364898
      vertex 0.393187229 2.44080743 1.23379511
    endloop
  endfacet
  facet normal -0.550994933 -0.237229401 0.800079243
    outer loop
      vertex 0.346254508 2.4192674 1.30757578
      vertex 0.343597685 2.41945678 1.30580224
      vertex 0.343902949 2.41825495 1.30565612
    endloop
  endfacet
  facet normal -0.643593082 -0.489501378 -0.588367527
    outer loop
      vertex 0.393492493 2.43960559 1.23364898
      vertex 0.39415576 2.43855789 1.23379511
      vertex 0.344566216 2.41720725 1.30580224
    endloop
  endfacet
  facet normal -0.643593082 -0.489501378 -0.588367527
    outer loop
      vertex 0.393492493 2.43960559 1.23364898
      vertex 0.344566216 2.41720725 1.30580224
      vertex 0.343902949 2.41825495 1.30565612
    endloop
  endfacet
  facet normal 0.550994933 0.237229401 -0.800079243
    outer loop
      vertex 0.395844052 2.44061805 1.23556865
      vertex 0.39415576 2.43855789 1.23379511
      vertex 0.393492493 2.43960559 1.23364898
    endloop
  endfacet
  facet normal -0.550994933 -0.237229401 0.800079243
    outer loop
      vertex 0.346254508 2.4192674 1.30757578
      vertex 0.343902949 2.41825495 1.30565612
      vertex 0.344566216 2.41720725 1.30580224
    endloop
  endfacet
  facet normal -0.39131416 -0.773354944 -0.498793904
    outer loop
      vertex 0.39415576 2.43855789 1.23379511
      vertex 0.395076054 2.43782384 1.23421124
      vertex 0.34548651 2.41647319 1.30621837
    endloop
  endfacet
  facet normal -0.39131416 -0.773354944 -0.498793904
    outer loop
      vertex 0.39415576 2.43855789 1.23379511
      vertex 0.34548651 2.41647319 1.30621837
      vertex 0.344566216 2.41720725 1.30580224
    endloop
  endfacet
  facet normal 0.550994933 0.237229401 -0.800079243
    outer loop
      vertex 0.395844052 2.44061805 1.23556865
      vertex 0.395076054 2.43782384 1.23421124
      vertex 0.39415576 2.43855789 1.23379511
    endloop
  endfacet
  facet normal -0.550994933 -0.237229401 0.800079243
    outer loop
      vertex 0.346254508 2.4192674 1.30757578
      vertex 0.344566216 2.41720725 1.30580224
      vertex 0.34548651 2.41647319 1.30621837
    endloop
  endfacet
  facet normal -0.0794612054 -0.93947223 -0.333283432
    outer loop
      vertex 0.395076054 2.43782384 1.23421124
      vertex 0.396113269 2.43751517 1.23483402
      vertex 0.346523725 2.41616453 1.30684115
    endloop
  endfacet
  facet normal -0.0794612054 -0.93947223 -0.333283432
    outer loop
      vertex 0.395076054 2.43782384 1.23421124
      vertex 0.346523725 2.41616453 1.30684115
      vertex 0.34548651 2.41647319 1.30621837
    endloop
  endfacet
  facet normal 0.550994933 0.237229401 -0.800079243
    outer loop
      vertex 0.395844052 2.44061805 1.23556865
      vertex 0.396113269 2.43751517 1.23483402
      vertex 0.395076054 2.43782384 1.23421124
    endloop
  endfacet
  facet normal -0.550994933 -0.237229401 0.800079243
    outer loop
      vertex 0.346254508 2.4192674 1.30757578
      vertex 0.34548651 2.41647319 1.30621837
      vertex 0.346523725 2.41616453 1.30684115
    endloop
  endfacet
  facet normal 0.244488998 -0.962563386 -0.117033578
    outer loop
      vertex 0.396113269 2.43751517 1.23483402
      vertex 0.397109498 2.43767889 1.23556865
      vertex 0.347519954 2.41632825 1.30757578
    endloop
  endfacet
  facet normal 0.244488998 -0.962563386 -0.117033578
    outer loop
      vertex 0.396113269 2.43751517 1.23483402
      vertex 0.347519954 2.41632825 1.30757578
      vertex 0.346523725 2.41616453 1.30684115
    endloop
  endfacet
  facet normal 0.550994933 0.237229401 -0.800079243
    outer loop
      vertex 0.395844052 2.44061805 1.23556865
      vertex 0.397109498 2.43767889 1.23556865
      vertex 0.396113269 2.43751517 1.23483402
    endloop
  endfacet
  facet normal -0.550994933 -0.237229401 0.800079243
    outer loop
      vertex 0.346254508 2.4192674 1.30757578
      vertex 0.346523725 2.41616453 1.30684115
      vertex 0.347519954 2.41632825 1.30757578
    endloop
  endfacet
  facet normal 0.531217967 -0.839112992 0.117033578
    outer loop
      vertex 0.397109498 2.43767889 1.23556865
      vertex 0.397913074 2.43829007 1.23630327
      vertex 0.34832353 2.41693943 1.3083104
    endloop
  endfacet
  facet normal 0.531217967 -0.839112992 0.117033578
    outer loop
      vertex 0.397109498 2.43767889 1.23556865
      vertex 0.34832353 2.41693943 1.3083104
      vertex 0.347519954 2.41632825 1.30757578
    endloop
  endfacet
  facet normal 0.550994933 0.237229401 -0.800079243
    outer loop
      vertex 0.395844052 2.44061805 1.23556865
      vertex 0.397913074 2.43829007 1.23630327
      vertex 0.397109498 2.43767889 1.23556865
    endloop
  endfacet
  facet normal -0.550994933 -0.237229401 0.800079243
    outer loop
      vertex 0.346254508 2.4192674 1.30757578
      vertex 0.347519954 2.41632825 1.30757578
      vertex 0.34832353 2.41693943 1.3083104
    endloop
  endfacet
  facet normal 0.737073817 -0.587915251 0.333283432
    outer loop
      vertex 0.397913074 2.43829007 1.23630327
      vertex 0.39840166 2.43925567 1.23692605
      vertex 0.348812116 2.41790502 1.30893318
    endloop
  endfacet
  facet normal 0.737073817 -0.587915251 0.333283432
    outer loop
      vertex 0.397913074 2.43829007 1.23630327
      vertex 0.348812116 2.41790502 1.30893318
      vertex 0.34832353 2.41693943 1.3083104
    endloop
  endfacet
  facet normal 0.550994933 0.237229401 -0.800079243
    outer loop
      vertex 0.395844052 2.44061805 1.23556865
      vertex 0.39840166 2.43925567 1.23692605
      vertex 0.397913074 2.43829007 1.23630327
    endloop
  endfacet
  facet normal -0.550994933 -0.237229401 0.800079243
    outer loop
      vertex 0.346254508 2.4192674 1.30757578
      vertex 0.34832353 2.41693943 1.3083104
      vertex 0.348812116 2.41790502 1.30893318
    endloop
  endfacet
  facet normal 0.83071686 -0.247212743 0.498793904
    outer loop
      vertex 0.39840166 2.43925567 1.23692605
      vertex 0.398500874 2.44042867 1.23734218
      vertex 0.34891133 2.41907803 1.30934931
    endloop
  endfacet
  facet normal 0.83071686 -0.247212743 0.498793904
    outer loop
      vertex 0.39840166 2.43925567 1.23692605
      vertex 0.34891133 2.41907803 1.30934931
      vertex 0.348812116 2.41790502 1.30893318
    endloop
  endfacet
  facet normal 0.550994933 0.237229401 -0.800079243
    outer loop
      vertex 0.395844052 2.44061805 1.23556865
      vertex 0.398500874 2.44042867 1.23734218
      vertex 0.39840166 2.43925567 1.23692605
    endloop
  endfacet
  facet normal -0.550994933 -0.237229401 0.800079243
    outer loop
      vertex 0.346254508 2.4192674 1.30757578
      vertex 0.348812116 2.41790502 1.30893318
      vertex 0.34891133 2.41907803 1.30934931
    endloop
  endfacet
  facet normal 0.797890791 0.131125664 0.588367527
    outer loop
      vertex 0.398500874 2.44042867 1.23734218
      vertex 0.39819561 2.44163051 1.23748831
      vertex 0.348606066 2.42027986 1.30949544
    endloop
  endfacet
  facet normal 0.797890791 0.131125664 0.588367527
    outer loop
      vertex 0.398500874 2.44042867 1.23734218
      vertex 0.348606066 2.42027986 1.30949544
      vertex 0.34891133 2.41907803 1.30934931
    endloop
  endfacet
  facet normal 0.550994933 0.237229401 -0.800079243
    outer loop
      vertex 0.395844052 2.44061805 1.23556865
      vertex 0.39819561 2.44163051 1.23748831
      vertex 0.398500874 2.44042867 1.23734218
    endloop
  endfacet
  facet normal -0.550994933 -0.237229401 0.800079243
    outer loop
      vertex 0.346254508 2.4192674 1.30757578
      vertex 0.34891133 2.41907803 1.30934931
      vertex 0.348606066 2.42027986 1.30949544
    endloop
  endfacet
  facet normal 0.643593082 0.489501378 0.588367527
    outer loop
      vertex 0.39819561 2.44163051 1.23748831
      vertex 0.397532343 2.44267821 1.23734218
      vertex 0.347942799 2.42132756 1.30934931
    endloop
  endfacet
  facet normal 0.643593082 0.489501378 0.588367527
    outer loop
      vertex 0.39819561 2.44163051 1.23748831
      vertex 0.347942799 2.42132756 1.30934931
      vertex 0.348606066 2.42027986 1.30949544
    endloop
  endfacet
  facet normal 0.550994933 0.237229401 -0.800079243
    outer loop
      vertex 0.395844052 2.44061805 1.23556865
      vertex 0.397532343 2.44267821 1.23734218
      vertex 0.39819561 2.44163051 1.23748831
    endloop
  endfacet
  facet normal -0.550994933 -0.237229401 0.800079243
    outer loop
      vertex 0.346254508 2.4192674 1.30757578
      vertex 0.348606066 2.42027986 1.30949544
      vertex 0.347942799 2.42132756 1.30934931
    endloop
  endfacet
  facet normal 0.39131416 0.773354944 0.498793904
    outer loop
      vertex 0.397532343 2.44267821 1.23734218
      vertex 0.396612049 2.44341226 1.23692605
      vertex 0.347022505 2.42206162 1.30893318
    endloop
  endfacet
  facet normal 0.39131416 0.773354944 0.498793904
    outer loop
      vertex 0.397532343 2.44267821 1.23734218
      vertex 0.347022505 2.42206162 1.30893318
      vertex 0.347942799 2.42132756 1.30934931
    endloop
  endfacet
  facet normal 0.550994933 0.237229401 -0.800079243
    outer loop
      vertex 0.395844052 2.44061805 1.23556865
      vertex 0.396612049 2.44341226 1.23692605
      vertex 0.397532343 2.44267821 1.23734218
    endloop
  endfacet
  facet normal -0.550994933 -0.237229401 0.800079243
    outer loop
      vertex 0.346254508 2.4192674 1.30757578
      vertex 0.347942799 2.42132756 1.30934931
      vertex 0.347022505 2.42206162 1.30893318
    endloop
  endfacet
  facet normal 0.0794612054 0.93947223 0.333283432
    outer loop
      vertex 0.396612049 2.44341226 1.23692605
      vertex 0.395574834 2.44372093 1.23630327
      vertex 0.34598529 2.42237028 1.3083104
    endloop
  endfacet
  facet normal 0.0794612054 0.93947223 0.333283432
    outer loop
      vertex 0.396612049 2.44341226 1.23692605
      vertex 0.34598529 2.42237028 1.3083104
      vertex 0.347022505 2.42206162 1.30893318
    endloop
  endfacet
  facet normal 0.550994933 0.237229401 -0.800079243
    outer loop
      vertex 0.395844052 2.44061805 1.23556865
      vertex 0.395574834 2.44372093 1.23630327
      vertex 0.396612049 2.44341226 1.23692605
    endloop
  endfacet
  facet normal -0.550994933 -0.237229401 0.800079243
    outer loop
      vertex 0.346254508 2.4192674 1.30757578
      vertex 0.347022505 2.42206162 1.30893318
      vertex 0.34598529 2.42237028 1.3083104
    endloop
  endfacet
  facet normal -0.244488998 0.962563386 0.117033578
    outer loop
      vertex 0.395574834 2.44372093 1.23630327
      vertex 0.394578605 2.44355721 1.23556865
      vertex 0.344989061 2.42220656 1.30757578
    endloop
  endfacet
  facet normal -0.244488998 0.962563386 0.117033578
    outer loop
      vertex 0.395574834 2.44372093 1.23630327
      vertex 0.344989061 2.42220656 1.30757578
      vertex 0.34598529 2.42237028 1.3083104
    endloop
  endfacet
  facet normal 0.550994933 0.237229401 -0.800079243
    outer loop
      vertex 0.395844052 2.44061805 1.23556865
      vertex 0.394578605 2.44355721 1.23556865
      vertex 0.395574834 2.44372093 1.23630327
    endloop
  endfacet
  facet normal -0.550994933 -0.237229401 0.800079243
    outer loop
      vertex 0.346254508 2.4192674 1.30757578
      vertex 0.34598529 2.42237028 1.3083104
      vertex 0.344989061 2.42220656 1.30757578
    endloop
  endfacet
endsolid b14_features
