solid g18_blank
  facet normal 0 0 -1
    outer loop
      vertex -1.30980191 -1.32494131 -0.07
      vertex -1.41824503 -1.27355952 -0.07
      vertex -0.894381345 -0.167926274 -0.07
    endloop
  endfacet
  facet normal 0 0 -1
    outer loop
      vertex -1.30980191 -1.32494131 -0.07
      vertex -0.894381345 -0.167926274 -0.07
      vertex -0.785938219 -0.219308065 -0.07
    endloop
  endfacet
  facet normal 0.903692717 -0.428181589 0
    outer loop
      vertex -1.30980191 -1.32494131 -0.07
      vertex -0.785938219 -0.219308065 -0.07
      vertex -0.785938219 -0.219308065 0.07
    endloop
  endfacet
  facet normal 0.903692717 -0.428181589 0
    outer loop
      vertex -1.30980191 -1.32494131 -0.07
      vertex -0.785938219 -0.219308065 0.07
      vertex -1.30980191 -1.32494131 0.07
    endloop
  endfacet
  facet normal 0.428181589 0.903692717 0
    outer loop
      vertex -0.785938219 -0.219308065 -0.07
      vertex -0.894381345 -0.167926274 -0.07
      vertex -0.894381345 -0.167926274 0.07
    endloop
  endfacet
  facet normal 0.428181589 0.903692717 -0
    outer loop
      vertex -0.785938219 -0.219308065 -0.07
      vertex -0.894381345 -0.167926274 0.07
      vertex -0.785938219 -0.219308065 0.07
    endloop
  endfacet
  facet normal -0.903692717 0.428181589 0
    outer loop
      vertex -0.894381345 -0.167926274 -0.07
      vertex -1.41824503 -1.27355952 -0.07
      vertex -1.41824503 -1.27355952 0.07
    endloop
  endfacet
  facet normal -0.903692717 0.428181589 0
    outer loop
      vertex -0.894381345 -0.167926274 -0.07
      vertex -1.41824503 -1.27355952 0.07
      vertex -0.894381345 -0.167926274 0.07
    endloop
  endfacet
  facet normal -0.428181589 -0.903692717 0
    outer loop
      vertex -1.41824503 -1.27355952 -0.07
      vertex -1.30980191 -1.32494131 -0.07
      vertex -1.30980191 -1.32494131 0.07
    endloop
  endfacet
  facet normal -0.428181589 -0.903692717 0
    outer loop
      vertex -1.41824503 -1.27355952 -0.07
      vertex -1.30980191 -1.32494131 0.07
      vertex -1.41824503 -1.27355952 0.07
    endloop
  endfacet
  facet normal 0 0 1
    outer loop
      vertex -1.30980191 -1.32494131 0.07
      vertex -0.785938219 -0.219308065 0.07
      vertex -0.894381345 -0.167926274 0.07
    endloop
  endfacet
  facet normal 0 -0 1
    outer loop
      vertex -1.30980191 -1.32494131 0.07
      vertex -0.894381345 -0.167926274 0.07
      vertex -1.41824503 -1.27355952 0.07
    endloop
  endfacet
endsolid g18_blank
