solid f9_blank
  facet normal 0.589843005 -0.0211203863 0.807241698
    outer loop
      vertex 5.21363198 0.997866089 0.793895547
      vertex 5.22132592 1.05723148 0.789826879
      vertex 4.27410939 1.22773471 1.486409
    endloop
  endfacet
  facet normal 0.589843005 -0.0211203863 0.807241698
    outer loop
      vertex 5.21363198 0.997866089 0.793895547
      vertex 4.27410939 1.22773471 1.486409
      vertex 4.26641545 1.16836932 1.49047767
    endloop
  endfacet
  facet normal -0.128232371 -0.98942312 0.0678111261
    outer loop
      vertex 5.21363198 0.997866089 0.793895547
      vertex 4.26641545 1.16836932 1.49047767
      vertex 4.21922801 1.17005895 1.42589834
    endloop
  endfacet
  facet normal -0.128232371 -0.98942312 0.0678111261
    outer loop
      vertex 5.21363198 0.997866089 0.793895547
      vertex 4.21922801 1.17005895 1.42589834
      vertex 5.16644454 0.99955572 0.729316211
    endloop
  endfacet
  facet normal -0.797271402 0.143512435 0.586312623
    outer loop
      vertex 4.26641545 1.16836932 1.49047767
      vertex 4.27410939 1.22773471 1.486409
      vertex 4.22692195 1.22942434 1.42182967
    endloop
  endfacet
  facet normal -0.797271402 0.143512435 0.586312623
    outer loop
      vertex 4.26641545 1.16836932 1.49047767
      vertex 4.22692195 1.22942434 1.42182967
      vertex 4.21922801 1.17005895 1.42589834
    endloop
  endfacet
  facet normal 0.128232371 0.98942312 -0.0678111261
    outer loop
      vertex 4.27410939 1.22773471 1.486409
      vertex 5.22132592 1.05723148 0.789826879
      vertex 5.17413848 1.05892111 0.725247544
    endloop
  endfacet
  facet normal 0.128232371 0.98942312 -0.0678111261
    outer loop
      vertex 4.27410939 1.22773471 1.486409
      vertex 5.17413848 1.05892111 0.725247544
      vertex 4.22692195 1.22942434 1.42182967
    endloop
  endfacet
  facet normal 0.797271402 -0.143512435 -0.586312623
    outer loop
      vertex 5.22132592 1.05723148 0.789826879
      vertex 5.21363198 0.997866089 0.793895547
      vertex 5.16644454 0.99955572 0.729316211
    endloop
  endfacet
  facet normal 0.797271402 -0.143512435 -0.586312623
    outer loop
      vertex 5.22132592 1.05723148 0.789826879
      vertex 5.16644454 0.99955572 0.729316211
      vertex 5.17413848 1.05892111 0.725247544
    endloop
  endfacet
  facet normal -0.589843005 0.0211203863 -0.807241698
    outer loop
      vertex 5.16644454 0.99955572 0.729316211
      vertex 4.21922801 1.17005895 1.42589834
      vertex 4.22692195 1.22942434 1.42182967
    endloop
  endfacet
  facet normal -0.589843005 0.0211203863 -0.807241698
    outer loop
      vertex 5.16644454 0.99955572 0.729316211
      vertex 4.22692195 1.22942434 1.42182967
      vertex 5.17413848 1.05892111 0.725247544
    endloop
  endfacet
endsolid f9_blank
