solid d1_blank
  facet normal -0.216258167 -0.128537752 0.96783803
    outer loop
      vertex 1.72905751 1.48001447 1.91950105
      vertex 1.78255484 1.45422091 1.92802912
      vertex 2.26122443 2.52959187 2.17780435
    endloop
  endfacet
  facet normal -0.216258167 -0.128537752 0.96783803
    outer loop
      vertex 1.72905751 1.48001447 1.91950105
      vertex 2.26122443 2.52959187 2.17780435
      vertex 2.2077271 2.55538543 2.16927629
    endloop
  endfacet
  facet normal -0.891622167 0.429892668 -0.142134463
    outer loop
      vertex 1.72905751 1.48001447 1.91950105
      vertex 2.2077271 2.55538543 2.16927629
      vertex 2.22502776 2.56566845 2.09184924
    endloop
  endfacet
  facet normal -0.891622167 0.429892668 -0.142134463
    outer loop
      vertex 1.72905751 1.48001447 1.91950105
      vertex 2.22502776 2.56566845 2.09184924
      vertex 1.74635816 1.49029749 1.84207401
    endloop
  endfacet
  facet normal 0.397796829 0.893683579 0.207574909
    outer loop
      vertex 2.2077271 2.55538543 2.16927629
      vertex 2.26122443 2.52959187 2.17780435
      vertex 2.27852509 2.53987489 2.10037731
    endloop
  endfacet
  facet normal 0.397796829 0.893683579 0.207574909
    outer loop
      vertex 2.2077271 2.55538543 2.16927629
      vertex 2.27852509 2.53987489 2.10037731
      vertex 2.22502776 2.56566845 2.09184924
    endloop
  endfacet
  facet normal 0.891622167 -0.429892668 0.142134463
    outer loop
      vertex 2.26122443 2.52959187 2.17780435
      vertex 1.78255484 1.45422091 1.92802912
      vertex 1.79985549 1.46450393 1.85060207
    endloop
  endfacet
  facet normal 0.891622167 -0.429892668 0.142134463
    outer loop
      vertex 2.26122443 2.52959187 2.17780435
      vertex 1.79985549 1.46450393 1.85060207
      vertex 2.27852509 2.53987489 2.10037731
    endloop
  endfacet
  facet normal -0.397796829 -0.893683579 -0.207574909
    outer loop
      vertex 1.78255484 1.45422091 1.92802912
      vertex 1.72905751 1.48001447 1.91950105
      vertex 1.74635816 1.49029749 1.84207401
    endloop
  endfacet
  facet normal -0.397796829 -0.893683579 -0.207574909
    outer loop
      vertex 1.78255484 1.45422091 1.92802912
      vertex 1.74635816 1.49029749 1.84207401
      vertex 1.79985549 1.46450393 1.85060207
    endloop
  endfacet
  facet normal 0.216258167 0.128537752 -0.96783803
    outer loop
      vertex 1.74635816 1.49029749 1.84207401
      vertex 2.22502776 2.56566845 2.09184924
      vertex 2.27852509 2.53987489 2.10037731
    endloop
  endfacet
  facet normal 0.216258167 0.128537752 -0.96783803
    outer loop
      vertex 1.74635816 1.49029749 1.84207401
      vertex 2.27852509 2.53987489 2.10037731
      vertex 1.79985549 1.46450393 1.85060207
    endloop
  endfacet
endsolid d1_blank
