solid f30
  facet normal 0.677042677 -0.561253323 -0.476033528
    outer loop
      vertex 4.09416914 2.27143598 1.70770991
      vertex 4.07533741 2.24565244 1.71132565
      vertex 4.05785036 2.25422192 1.67635095
    endloop
  endfacet
  facet normal 0.677041526 -0.561248396 -0.476040976
    outer loop
      vertex 4.09416914 2.27143598 1.70770991
      vertex 4.09551287 2.30578876 1.66911936
      vertex 4.11300039 2.29721928 1.70409405
    endloop
  endfacet
  facet normal 0.677043852 -0.561248512 -0.47603753
    outer loop
      vertex 4.05919409 2.28857446 1.6377604
      vertex 4.09416914 2.27143598 1.70770991
      vertex 4.05785036 2.25422192 1.67635095
    endloop
  endfacet
  facet normal 0.677046319 -0.561245182 -0.476037948
    outer loop
      vertex 4.09416914 2.27143598 1.70770991
      vertex 4.05919409 2.28857446 1.6377604
      vertex 4.09551287 2.30578876 1.66911936
    endloop
  endfacet
  facet normal 0.677044166 -0.561254001 -0.476030612
    outer loop
      vertex 4.05919409 2.28857446 1.6377604
      vertex 4.07802582 2.314358 1.63414466
      vertex 4.09551287 2.30578876 1.66911936
    endloop
  endfacet
  facet normal 0.677044691 -0.561247949 -0.476037
    outer loop
      vertex 4.04036283 2.26279116 1.64137614
      vertex 4.05919409 2.28857446 1.6377604
      vertex 4.05785036 2.25422192 1.67635095
    endloop
  endfacet
  facet normal 0.79538093 0.545592886 -0.264002992
    outer loop
      vertex 4.04444885 2.38929367 1.68784881
      vertex 4.00109816 2.47044301 1.72494757
      vertex 4.00949812 2.4668014 1.74272895
    endloop
  endfacet
  facet normal 0.795371294 0.545599466 -0.264018422
    outer loop
      vertex 4.04444885 2.38929367 1.68784881
      vertex 4.00949812 2.4668014 1.74272895
      vertex 4.05284929 2.38565207 1.70563018
    endloop
  endfacet
  facet normal 0.795379259 0.545596013 -0.264001563
    outer loop
      vertex 4.05284929 2.38565207 1.70563018
      vertex 4.00949812 2.4668014 1.74272895
      vertex 4.01789808 2.4631598 1.76051033
    endloop
  endfacet
  facet normal 0.795379259 0.545596013 -0.264001563
    outer loop
      vertex 4.05284929 2.38565207 1.70563018
      vertex 4.01789808 2.4631598 1.76051033
      vertex 4.06124926 2.38201046 1.72341156
    endloop
  endfacet
  facet normal 0.795377232 0.545595278 -0.264009188
    outer loop
      vertex 3.76619267 2.94641495 2.00088429
      vertex 3.85289454 2.78411603 1.92668676
      vertex 3.84353757 2.75330043 1.83481431
    endloop
  endfacet
  facet normal 0.795376192 0.545596098 -0.264010626
    outer loop
      vertex 3.76619267 2.94641495 2.00088429
      vertex 3.84353757 2.75330043 1.83481431
      vertex 3.76537466 2.89961481 1.90170419
    endloop
  endfacet
  facet normal 0.795371998 0.545598148 -0.264019025
    outer loop
      vertex 4.01789808 2.4631598 1.76051033
      vertex 3.93959641 2.62181711 1.85248923
      vertex 4.02629852 2.45951819 1.7782917
    endloop
  endfacet
  facet normal 0.795377471 0.545595175 -0.264008682
    outer loop
      vertex 3.85289454 2.78411603 1.92668676
      vertex 3.93959641 2.62181711 1.85248923
      vertex 3.92170024 2.60698628 1.76792443
    endloop
  endfacet
  facet normal 0.795377047 0.545595518 -0.26400925
    outer loop
      vertex 3.85289454 2.78411603 1.92668676
      vertex 3.92170024 2.60698628 1.76792443
      vertex 3.84353757 2.75330043 1.83481431
    endloop
  endfacet
  facet normal 0.795380798 0.545593131 -0.26400288
    outer loop
      vertex 4.01789808 2.4631598 1.76051033
      vertex 4.00949812 2.4668014 1.74272895
      vertex 3.93959641 2.62181711 1.85248923
    endloop
  endfacet
  facet normal 0.795377167 0.545595611 -0.264008695
    outer loop
      vertex 3.92170024 2.60698628 1.76792443
      vertex 3.93959641 2.62181711 1.85248923
      vertex 4.00949812 2.4668014 1.74272895
    endloop
  endfacet
  facet normal 0.795371294 0.545599466 -0.264018422
    outer loop
      vertex 4.01789808 2.4631598 1.76051033
      vertex 4.02629852 2.45951819 1.7782917
      vertex 4.06124926 2.38201046 1.72341156
    endloop
  endfacet
  facet normal 0.795376603 0.54559536 -0.264010914
    outer loop
      vertex 4.11300039 2.29721928 1.70409405
      vertex 4.09551287 2.30578876 1.66911936
      vertex 4.06124926 2.38201046 1.72341156
    endloop
  endfacet
  facet normal 0.795381347 0.545592104 -0.26400335
    outer loop
      vertex 4.05284929 2.38565207 1.70563018
      vertex 4.06124926 2.38201046 1.72341156
      vertex 4.09551287 2.30578876 1.66911936
    endloop
  endfacet
  facet normal 0.795377364 0.54559532 -0.264008701
    outer loop
      vertex 4.11300039 2.29721928 1.70409405
      vertex 4.06124926 2.38201046 1.72341156
      vertex 4.02629852 2.45951819 1.7782917
    endloop
  endfacet
  facet normal 0.79537348 0.545597064 -0.264016799
    outer loop
      vertex 3.92170024 2.60698628 1.76792443
      vertex 4.00109816 2.47044301 1.72494757
      vertex 3.99986291 2.46067214 1.70103455
    endloop
  endfacet
  facet normal 0.79537466 0.545595603 -0.264016263
    outer loop
      vertex 4.04444885 2.38929367 1.68784881
      vertex 3.99986291 2.46067214 1.70103455
      vertex 4.00109816 2.47044301 1.72494757
    endloop
  endfacet
  facet normal 0.795378649 0.545595326 -0.264004821
    outer loop
      vertex 4.07802582 2.314358 1.63414466
      vertex 4.04444885 2.38929367 1.68784881
      vertex 4.09551287 2.30578876 1.66911936
    endloop
  endfacet
  facet normal 0.795378007 0.545595768 -0.264005839
    outer loop
      vertex 3.99986291 2.46067214 1.70103455
      vertex 4.04444885 2.38929367 1.68784881
      vertex 4.07802582 2.314358 1.63414466
    endloop
  endfacet
  facet normal 0.795373382 0.545595557 -0.264020209
    outer loop
      vertex 4.04444885 2.38929367 1.68784881
      vertex 4.05284929 2.38565207 1.70563018
      vertex 4.09551287 2.30578876 1.66911936
    endloop
  endfacet
  facet normal 0.7953794 0.545595749 -0.264001683
    outer loop
      vertex 3.92170024 2.60698628 1.76792443
      vertex 4.00949812 2.4668014 1.74272895
      vertex 4.00109816 2.47044301 1.72494757
    endloop
  endfacet
  facet normal -0.795372639 -0.545596948 0.264019573
    outer loop
      vertex 3.95089889 2.442343 1.7429074
      vertex 4.00051785 2.34946012 1.70044446
      vertex 4.00891829 2.34581852 1.71822584
    endloop
  endfacet
  facet normal -0.795375892 -0.545596588 0.264010519
    outer loop
      vertex 3.95089889 2.442343 1.7429074
      vertex 4.00891829 2.34581852 1.71822584
      vertex 3.95929909 2.43870139 1.76068878
    endloop
  endfacet
  facet normal -0.795379874 -0.545594862 0.264002089
    outer loop
      vertex 3.95929909 2.43870139 1.76068878
      vertex 4.00891829 2.34581852 1.71822584
      vertex 4.01731825 2.34217691 1.73600721
    endloop
  endfacet
  facet normal -0.795376082 -0.545595282 0.264012646
    outer loop
      vertex 3.95929909 2.43870139 1.76068878
      vertex 4.01731825 2.34217691 1.73600721
      vertex 3.96769929 2.43505979 1.77847004
    endloop
  endfacet
  facet normal -0.795379953 -0.545594853 0.264001869
    outer loop
      vertex 4.01731825 2.34217691 1.73600721
      vertex 4.05785036 2.25422192 1.67635095
      vertex 4.07533741 2.24565244 1.71132565
    endloop
  endfacet
  facet normal -0.795377135 -0.545595165 0.264009714
    outer loop
      vertex 3.97719193 2.42937303 1.79531646
      vertex 4.01731825 2.34217691 1.73600721
      vertex 4.07533741 2.24565244 1.71132565
    endloop
  endfacet
  facet normal -0.795379838 -0.545594929 0.264002058
    outer loop
      vertex 4.00891829 2.34581852 1.71822584
      vertex 4.05785036 2.25422192 1.67635095
      vertex 4.01731825 2.34217691 1.73600721
    endloop
  endfacet
  facet normal -0.79537437 -0.545598119 0.264011941
    outer loop
      vertex 4.00051785 2.34946012 1.70044446
      vertex 4.04036283 2.26279116 1.64137614
      vertex 4.05785036 2.25422192 1.67635095
    endloop
  endfacet
  facet normal -0.795378967 -0.545595077 0.264004376
    outer loop
      vertex 4.04036283 2.26279116 1.64137614
      vertex 4.00051785 2.34946012 1.70044446
      vertex 3.95075631 2.43052697 1.7180593
    endloop
  endfacet
  facet normal -0.795376816 -0.545595137 0.264010731
    outer loop
      vertex 4.00051785 2.34946012 1.70044446
      vertex 3.95089889 2.442343 1.7429074
      vertex 3.95075631 2.43052697 1.7180593
    endloop
  endfacet
  facet normal -0.795371874 -0.545598381 0.264018918
    outer loop
      vertex 4.00051785 2.34946012 1.70044446
      vertex 4.05785036 2.25422192 1.67635095
      vertex 4.00891829 2.34581852 1.71822584
    endloop
  endfacet
  facet normal -0.795378633 -0.545594176 0.264007246
    outer loop
      vertex 3.97719193 2.42937303 1.79531646
      vertex 3.96769929 2.43505979 1.77847004
      vertex 4.01731825 2.34217691 1.73600721
    endloop
  endfacet
  facet normal -0.795375168 -0.545596991 0.264011865
    outer loop
      vertex 3.8790462 2.61309361 1.87930739
      vertex 3.95929909 2.43870139 1.76068878
      vertex 3.96769929 2.43505979 1.77847004
    endloop
  endfacet
  facet normal -0.795378046 -0.545595389 0.264006506
    outer loop
      vertex 3.97719193 2.42937303 1.79531646
      vertex 3.8790462 2.61309361 1.87930739
      vertex 3.96769929 2.43505979 1.77847004
    endloop
  endfacet
  facet normal -0.79537748 -0.545595546 0.264007887
    outer loop
      vertex 3.8790462 2.61309361 1.87930739
      vertex 3.78090048 2.7968142 1.9632982
      vertex 3.7715435 2.76599884 1.87142575
    endloop
  endfacet
  facet normal -0.795377319 -0.545595393 0.264008689
    outer loop
      vertex 3.8790462 2.61309361 1.87930739
      vertex 3.7715435 2.76599884 1.87142575
      vertex 3.86115003 2.59826279 1.79474258
    endloop
  endfacet
  facet normal -0.795377228 -0.545595744 0.264008238
    outer loop
      vertex 3.78090048 2.7968142 1.9632982
      vertex 3.68275476 2.98053479 2.04728913
      vertex 3.68193698 2.93373466 1.94810891
    endloop
  endfacet
  facet normal -0.795377276 -0.54559581 0.264007955
    outer loop
      vertex 3.78090048 2.7968142 1.9632982
      vertex 3.68193698 2.93373466 1.94810891
      vertex 3.7715435 2.76599884 1.87142575
    endloop
  endfacet
  facet normal -0.795376347 -0.545595736 0.264010908
    outer loop
      vertex 3.86115003 2.59826279 1.79474258
      vertex 3.95089889 2.442343 1.7429074
      vertex 3.95929909 2.43870139 1.76068878
    endloop
  endfacet
  facet normal -0.795377091 -0.545595722 0.264008698
    outer loop
      vertex 3.8790462 2.61309361 1.87930739
      vertex 3.86115003 2.59826279 1.79474258
      vertex 3.95929909 2.43870139 1.76068878
    endloop
  endfacet
  facet normal -0.795376303 -0.545595747 0.264011017
    outer loop
      vertex 3.95075631 2.43052697 1.7180593
      vertex 3.95089889 2.442343 1.7429074
      vertex 3.86115003 2.59826279 1.79474258
    endloop
  endfacet
  facet normal 0.420011501 -0.182077472 0.889065877
    outer loop
      vertex 4.05418873 2.31575823 1.73567414
      vertex 4.06611919 2.32394218 1.73171401
      vertex 4.03304005 2.38586426 1.76002264
    endloop
  endfacet
  facet normal 0.420011501 -0.182077472 0.889065877
    outer loop
      vertex 4.05418873 2.31575823 1.73567414
      vertex 4.03304005 2.38586426 1.76002264
      vertex 4.02110958 2.3776803 1.76398277
    endloop
  endfacet
  facet normal 0.419999976 -0.182083062 0.889070176
    outer loop
      vertex 4.06611919 2.32394218 1.73171401
      vertex 4.07805014 2.33212614 1.72775388
      vertex 4.04497051 2.39404798 1.75606251
    endloop
  endfacet
  facet normal 0.420009199 -0.182079051 0.889066641
    outer loop
      vertex 4.06611919 2.32394218 1.73171401
      vertex 4.04497051 2.39404798 1.75606251
      vertex 4.03304005 2.38586426 1.76002264
    endloop
  endfacet
  facet normal 0.420006506 -0.182079397 0.889067842
    outer loop
      vertex 3.93959641 2.62181711 1.85248923
      vertex 3.85289454 2.78411603 1.92668676
      vertex 3.78090048 2.7968142 1.9632982
    endloop
  endfacet
  facet normal 0.420007107 -0.182078755 0.88906769
    outer loop
      vertex 3.93959641 2.62181711 1.85248923
      vertex 3.78090048 2.7968142 1.9632982
      vertex 3.8790462 2.61309361 1.87930739
    endloop
  endfacet
  facet normal 0.420003031 -0.182081217 0.889069111
    outer loop
      vertex 4.03304005 2.38586426 1.76002264
      vertex 4.02629852 2.45951819 1.7782917
      vertex 3.93959641 2.62181711 1.85248923
    endloop
  endfacet
  facet normal 0.420005976 -0.182079632 0.889068044
    outer loop
      vertex 4.03304005 2.38586426 1.76002264
      vertex 3.93959641 2.62181711 1.85248923
      vertex 3.97719193 2.42937303 1.79531646
    endloop
  endfacet
  facet normal 0.420010027 -0.182076167 0.88906684
    outer loop
      vertex 4.07805014 2.33212614 1.72775388
      vertex 4.11300039 2.29721928 1.70409405
      vertex 4.04497051 2.39404798 1.75606251
    endloop
  endfacet
  facet normal 0.420001982 -0.182083097 0.889069222
    outer loop
      vertex 4.02629852 2.45951819 1.7782917
      vertex 4.04497051 2.39404798 1.75606251
      vertex 4.11300039 2.29721928 1.70409405
    endloop
  endfacet
  facet normal 0.420009653 -0.182079901 0.889066252
    outer loop
      vertex 4.03304005 2.38586426 1.76002264
      vertex 4.04497051 2.39404798 1.75606251
      vertex 4.02629852 2.45951819 1.7782917
    endloop
  endfacet
  facet normal 0.420008963 -0.182077402 0.88906709
    outer loop
      vertex 4.09416914 2.27143598 1.70770991
      vertex 4.11300039 2.29721928 1.70409405
      vertex 4.07805014 2.33212614 1.72775388
    endloop
  endfacet
  facet normal 0.4200073 -0.182078852 0.889067579
    outer loop
      vertex 3.85289454 2.78411603 1.92668676
      vertex 3.76619267 2.94641495 2.00088429
      vertex 3.68275476 2.98053479 2.04728913
    endloop
  endfacet
  facet normal 0.420006426 -0.18207975 0.889067808
    outer loop
      vertex 3.85289454 2.78411603 1.92668676
      vertex 3.68275476 2.98053479 2.04728913
      vertex 3.78090048 2.7968142 1.9632982
    endloop
  endfacet
  facet normal 0.420009763 -0.182074219 0.889067364
    outer loop
      vertex 4.03304005 2.38586426 1.76002264
      vertex 3.97719193 2.42937303 1.79531646
      vertex 4.02110958 2.3776803 1.76398277
    endloop
  endfacet
  facet normal 0.42000713 -0.182079267 0.889067574
    outer loop
      vertex 3.97719193 2.42937303 1.79531646
      vertex 3.93959641 2.62181711 1.85248923
      vertex 3.8790462 2.61309361 1.87930739
    endloop
  endfacet
  facet normal 0.419999045 -0.182081318 0.889070973
    outer loop
      vertex 4.07805014 2.33212614 1.72775388
      vertex 4.06611919 2.32394218 1.73171401
      vertex 4.09416914 2.27143598 1.70770991
    endloop
  endfacet
  facet normal 0.420009664 -0.182074034 0.889067449
    outer loop
      vertex 4.05418873 2.31575823 1.73567414
      vertex 4.09416914 2.27143598 1.70770991
      vertex 4.06611919 2.32394218 1.73171401
    endloop
  endfacet
  facet normal 0.419996065 -0.182088061 0.889071
    outer loop
      vertex 4.02110958 2.3776803 1.76398277
      vertex 3.97719193 2.42937303 1.79531646
      vertex 4.05418873 2.31575823 1.73567414
    endloop
  endfacet
  facet normal 0.42000429 -0.182081186 0.889068523
    outer loop
      vertex 4.07533741 2.24565244 1.71132565
      vertex 4.05418873 2.31575823 1.73567414
      vertex 3.97719193 2.42937303 1.79531646
    endloop
  endfacet
  facet normal 0.420001996 -0.182082183 0.889069402
    outer loop
      vertex 4.09416914 2.27143598 1.70770991
      vertex 4.05418873 2.31575823 1.73567414
      vertex 4.07533741 2.24565244 1.71132565
    endloop
  endfacet
  facet normal -0.420005964 0.182080689 -0.889067834
    outer loop
      vertex 4.0224247 2.32688713 1.6629771
      vertex 3.99255586 2.38279891 1.68853819
      vertex 4.00448656 2.39098287 1.68457806
    endloop
  endfacet
  facet normal -0.420009335 0.182079304 -0.889066525
    outer loop
      vertex 4.0224247 2.32688713 1.6629771
      vertex 4.00448656 2.39098287 1.68457806
      vertex 4.03435516 2.33507085 1.65901697
    endloop
  endfacet
  facet normal -0.420011636 0.182077725 -0.889065761
    outer loop
      vertex 4.03435516 2.33507085 1.65901697
      vertex 4.00448656 2.39098287 1.68457806
      vertex 4.01641703 2.39916682 1.68061793
    endloop
  endfacet
  facet normal -0.419999736 0.182082613 -0.889070382
    outer loop
      vertex 4.03435516 2.33507085 1.65901697
      vertex 4.01641703 2.39916682 1.68061793
      vertex 4.04628611 2.3432548 1.65505683
    endloop
  endfacet
  facet normal -0.420006134 0.182078893 -0.889068121
    outer loop
      vertex 3.76537466 2.89961481 1.90170419
      vertex 3.84353757 2.75330043 1.83481431
      vertex 3.7715435 2.76599884 1.87142575
    endloop
  endfacet
  facet normal -0.420007298 0.182078722 -0.889067606
    outer loop
      vertex 3.76537466 2.89961481 1.90170419
      vertex 3.7715435 2.76599884 1.87142575
      vertex 3.68193698 2.93373466 1.94810891
    endloop
  endfacet
  facet normal -0.420003656 0.182080929 -0.889068875
    outer loop
      vertex 4.00448656 2.39098287 1.68457806
      vertex 3.95075631 2.43052697 1.7180593
      vertex 3.92170024 2.60698628 1.76792443
    endloop
  endfacet
  facet normal -0.420007123 0.182079111 -0.889067609
    outer loop
      vertex 3.84353757 2.75330043 1.83481431
      vertex 3.92170024 2.60698628 1.76792443
      vertex 3.86115003 2.59826279 1.79474258
    endloop
  endfacet
  facet normal -0.420006029 0.182079356 -0.889068076
    outer loop
      vertex 3.84353757 2.75330043 1.83481431
      vertex 3.86115003 2.59826279 1.79474258
      vertex 3.7715435 2.76599884 1.87142575
    endloop
  endfacet
  facet normal -0.42000716 0.182079941 -0.889067422
    outer loop
      vertex 3.92170024 2.60698628 1.76792443
      vertex 3.95075631 2.43052697 1.7180593
      vertex 3.86115003 2.59826279 1.79474258
    endloop
  endfacet
  facet normal -0.420007124 0.182079111 -0.889067609
    outer loop
      vertex 4.00448656 2.39098287 1.68457806
      vertex 3.92170024 2.60698628 1.76792443
      vertex 3.99986291 2.46067214 1.70103455
    endloop
  endfacet
  facet normal -0.42001194 0.182078294 -0.889065501
    outer loop
      vertex 3.99986291 2.46067214 1.70103455
      vertex 4.01641703 2.39916682 1.68061793
      vertex 4.00448656 2.39098287 1.68457806
    endloop
  endfacet
  facet normal -0.420002498 0.182082595 -0.889069081
    outer loop
      vertex 4.05919409 2.28857446 1.6377604
      vertex 4.04628611 2.3432548 1.65505683
      vertex 4.07802582 2.314358 1.63414466
    endloop
  endfacet
  facet normal -0.420005799 0.182078454 -0.889068369
    outer loop
      vertex 4.01641703 2.39916682 1.68061793
      vertex 4.07802582 2.314358 1.63414466
      vertex 4.04628611 2.3432548 1.65505683
    endloop
  endfacet
  facet normal -0.4200011 0.182082617 -0.889069737
    outer loop
      vertex 4.07802582 2.314358 1.63414466
      vertex 4.01641703 2.39916682 1.68061793
      vertex 3.99986291 2.46067214 1.70103455
    endloop
  endfacet
  facet normal -0.42000668 0.182079761 -0.889067686
    outer loop
      vertex 4.04036283 2.26279116 1.64137614
      vertex 4.0224247 2.32688713 1.6629771
      vertex 4.05919409 2.28857446 1.6377604
    endloop
  endfacet
  facet normal -0.420008494 0.18207773 -0.889067245
    outer loop
      vertex 4.03435516 2.33507085 1.65901697
      vertex 4.05919409 2.28857446 1.6377604
      vertex 4.0224247 2.32688713 1.6629771
    endloop
  endfacet
  facet normal -0.420008266 0.18207911 -0.88906707
    outer loop
      vertex 3.99255586 2.38279891 1.68853819
      vertex 4.0224247 2.32688713 1.6629771
      vertex 4.04036283 2.26279116 1.64137614
    endloop
  endfacet
  facet normal -0.420000176 0.182083436 -0.889070006
    outer loop
      vertex 4.05919409 2.28857446 1.6377604
      vertex 4.03435516 2.33507085 1.65901697
      vertex 4.04628611 2.3432548 1.65505683
    endloop
  endfacet
  facet normal -0.420001039 0.182083016 -0.889069684
    outer loop
      vertex 3.95075631 2.43052697 1.7180593
      vertex 3.99255586 2.38279891 1.68853819
      vertex 4.04036283 2.26279116 1.64137614
    endloop
  endfacet
  facet normal -0.420005009 0.182078901 -0.889068651
    outer loop
      vertex 3.95075631 2.43052697 1.7180593
      vertex 4.00448656 2.39098287 1.68457806
      vertex 3.99255586 2.38279891 1.68853819
    endloop
  endfacet
  facet normal 0.130684856 0.896199501 -0.423966889
    outer loop
      vertex 3.68193698 2.93373466 1.94810891
      vertex 3.68275476 2.98053479 2.04728913
      vertex 3.76619267 2.94641495 2.00088429
    endloop
  endfacet
  facet normal 0.13068532 0.896199126 -0.423967539
    outer loop
      vertex 3.76619267 2.94641495 2.00088429
      vertex 3.76537466 2.89961481 1.90170419
      vertex 3.68193698 2.93373466 1.94810891
    endloop
  endfacet
endsolid f30
