solid e18_features
  facet normal -0.980636234 -0.191799955 0.0395645657
    outer loop
      vertex 2.85618512 2.36502357 2.062366
      vertex 2.85641083 2.36381963 2.06212404
      vertex 2.86318954 2.3473599 2.15034607
    endloop
  endfacet
  facet normal -0.980636234 -0.191799955 0.0395645657
    outer loop
      vertex 2.85618512 2.36502357 2.062366
      vertex 2.86318954 2.3473599 2.15034607
      vertex 2.86296383 2.34856383 2.15058803
    endloop
  endfacet
  facet normal -0.0753189366 0.182885967 -0.980244756
    outer loop
      vertex 2.85937572 2.36502357 2.06212084
      vertex 2.85641083 2.36381963 2.06212404
      vertex 2.85618512 2.36502357 2.062366
    endloop
  endfacet
  facet normal 0.0753189366 -0.182885967 0.980244756
    outer loop
      vertex 2.86615442 2.34856383 2.15034287
      vertex 2.86296383 2.34856383 2.15058803
      vertex 2.86318954 2.3473599 2.15034607
    endloop
  endfacet
  facet normal -0.836810111 -0.546200059 -0.0376076264
    outer loop
      vertex 2.85641083 2.36381963 2.06212404
      vertex 2.85708792 2.36279899 2.06188159
      vertex 2.86386663 2.34633925 2.15010362
    endloop
  endfacet
  facet normal -0.836810111 -0.546200059 -0.0376076264
    outer loop
      vertex 2.85641083 2.36381963 2.06212404
      vertex 2.86386663 2.34633925 2.15010362
      vertex 2.86318954 2.3473599 2.15034607
    endloop
  endfacet
  facet normal -0.0753189366 0.182885967 -0.980244756
    outer loop
      vertex 2.85937572 2.36502357 2.06212084
      vertex 2.85708792 2.36279899 2.06188159
      vertex 2.85641083 2.36381963 2.06212404
    endloop
  endfacet
  facet normal 0.0753189366 -0.182885967 0.980244756
    outer loop
      vertex 2.86615442 2.34856383 2.15034287
      vertex 2.86318954 2.3473599 2.15034607
      vertex 2.86386663 2.34633925 2.15010362
    endloop
  endfacet
  facet normal -0.565587235 -0.817446156 -0.109054398
    outer loop
      vertex 2.85708792 2.36279899 2.06188159
      vertex 2.85811331 2.36211702 2.06167556
      vertex 2.86489201 2.34565728 2.14989759
    endloop
  endfacet
  facet normal -0.565587235 -0.817446156 -0.109054398
    outer loop
      vertex 2.85708792 2.36279899 2.06188159
      vertex 2.86489201 2.34565728 2.14989759
      vertex 2.86386663 2.34633925 2.15010362
    endloop
  endfacet
  facet normal -0.0753189366 0.182885967 -0.980244756
    outer loop
      vertex 2.85937572 2.36502357 2.06212084
      vertex 2.85811331 2.36211702 2.06167556
      vertex 2.85708792 2.36279899 2.06188159
    endloop
  endfacet
  facet normal 0.0753189366 -0.182885967 0.980244756
    outer loop
      vertex 2.86615442 2.34856383 2.15034287
      vertex 2.86386663 2.34633925 2.15010362
      vertex 2.86489201 2.34565728 2.14989759
    endloop
  endfacet
  facet normal -0.208258829 -0.964243486 -0.163898627
    outer loop
      vertex 2.85811331 2.36211702 2.06167556
      vertex 2.85933088 2.36187754 2.06153733
      vertex 2.86610959 2.3454178 2.14975936
    endloop
  endfacet
  facet normal -0.208258829 -0.964243486 -0.163898627
    outer loop
      vertex 2.85811331 2.36211702 2.06167556
      vertex 2.86610959 2.3454178 2.14975936
      vertex 2.86489201 2.34565728 2.14989759
    endloop
  endfacet
  facet normal -0.0753189366 0.182885967 -0.980244756
    outer loop
      vertex 2.85937572 2.36502357 2.06212084
      vertex 2.85933088 2.36187754 2.06153733
      vertex 2.85811331 2.36211702 2.06167556
    endloop
  endfacet
  facet normal 0.0753189366 -0.182885967 0.980244756
    outer loop
      vertex 2.86615442 2.34856383 2.15034287
      vertex 2.86489201 2.34565728 2.14989759
      vertex 2.86610959 2.3454178 2.14975936
    endloop
  endfacet
  facet normal 0.180775096 -0.964243486 -0.193790775
    outer loop
      vertex 2.85933088 2.36187754 2.06153733
      vertex 2.86055528 2.36211702 2.06148793
      vertex 2.86733399 2.34565728 2.14970996
    endloop
  endfacet
  facet normal 0.180775096 -0.964243486 -0.193790775
    outer loop
      vertex 2.85933088 2.36187754 2.06153733
      vertex 2.86733399 2.34565728 2.14970996
      vertex 2.86610959 2.3454178 2.14975936
    endloop
  endfacet
  facet normal -0.0753189366 0.182885967 -0.980244756
    outer loop
      vertex 2.85937572 2.36502357 2.06212084
      vertex 2.86055528 2.36211702 2.06148793
      vertex 2.85933088 2.36187754 2.06153733
    endloop
  endfacet
  facet normal 0.0753189366 -0.182885967 0.980244756
    outer loop
      vertex 2.86615442 2.34856383 2.15034287
      vertex 2.86610959 2.3454178 2.14975936
      vertex 2.86733399 2.34565728 2.14970996
    endloop
  endfacet
  facet normal 0.542287651 -0.817446156 -0.194180034
    outer loop
      vertex 2.86055528 2.36211702 2.06148793
      vertex 2.8616001 2.36279899 2.06153489
      vertex 2.86837881 2.34633925 2.14975691
    endloop
  endfacet
  facet normal 0.542287651 -0.817446156 -0.194180034
    outer loop
      vertex 2.86055528 2.36211702 2.06148793
      vertex 2.86837881 2.34633925 2.14975691
      vertex 2.86733399 2.34565728 2.14970996
    endloop
  endfacet
  facet normal -0.0753189366 0.182885967 -0.980244756
    outer loop
      vertex 2.85937572 2.36502357 2.06212084
      vertex 2.8616001 2.36279899 2.06153489
      vertex 2.86055528 2.36211702 2.06148793
    endloop
  endfacet
  facet normal 0.0753189366 -0.182885967 0.980244756
    outer loop
      vertex 2.86615442 2.34856383 2.15034287
      vertex 2.86733399 2.34565728 2.14970996
      vertex 2.86837881 2.34633925 2.14975691
    endloop
  endfacet
  facet normal 0.821241827 -0.546200059 -0.165007144
    outer loop
      vertex 2.8616001 2.36279899 2.06153489
      vertex 2.86230628 2.36381963 2.06167105
      vertex 2.86908499 2.3473599 2.14989308
    endloop
  endfacet
  facet normal 0.821241827 -0.546200059 -0.165007144
    outer loop
      vertex 2.8616001 2.36279899 2.06153489
      vertex 2.86908499 2.3473599 2.14989308
      vertex 2.86837881 2.34633925 2.14975691
    endloop
  endfacet
  facet normal -0.0753189366 0.182885967 -0.980244756
    outer loop
      vertex 2.85937572 2.36502357 2.06212084
      vertex 2.86230628 2.36381963 2.06167105
      vertex 2.8616001 2.36279899 2.06153489
    endloop
  endfacet
  facet normal 0.0753189366 -0.182885967 0.980244756
    outer loop
      vertex 2.86615442 2.34856383 2.15034287
      vertex 2.86837881 2.34633925 2.14975691
      vertex 2.86908499 2.3473599 2.14989308
    endloop
  endfacet
  facet normal 0.975169379 -0.191799955 -0.110713411
    outer loop
      vertex 2.86230628 2.36381963 2.06167105
      vertex 2.86256631 2.36502357 2.06187569
      vertex 2.86934502 2.34856383 2.15009772
    endloop
  endfacet
  facet normal 0.975169379 -0.191799955 -0.110713411
    outer loop
      vertex 2.86230628 2.36381963 2.06167105
      vertex 2.86934502 2.34856383 2.15009772
      vertex 2.86908499 2.3473599 2.14989308
    endloop
  endfacet
  facet normal -0.0753189366 0.182885967 -0.980244756
    outer loop
      vertex 2.85937572 2.36502357 2.06212084
      vertex 2.86256631 2.36502357 2.06187569
      vertex 2.86230628 2.36381963 2.06167105
    endloop
  endfacet
  facet normal 0.0753189366 -0.182885967 0.980244756
    outer loop
      vertex 2.86615442 2.34856383 2.15034287
      vertex 2.86908499 2.3473599 2.14989308
      vertex 2.86934502 2.34856383 2.15009772
    endloop
  endfacet
  facet normal 0.980636234 0.191799955 -0.0395645657
    outer loop
      vertex 2.86256631 2.36502357 2.06187569
      vertex 2.8623406 2.3662275 2.06211765
      vertex 2.8691193 2.34976776 2.15033968
    endloop
  endfacet
  facet normal 0.980636234 0.191799955 -0.0395645657
    outer loop
      vertex 2.86256631 2.36502357 2.06187569
      vertex 2.8691193 2.34976776 2.15033968
      vertex 2.86934502 2.34856383 2.15009772
    endloop
  endfacet
  facet normal -0.0753189366 0.182885967 -0.980244756
    outer loop
      vertex 2.85937572 2.36502357 2.06212084
      vertex 2.8623406 2.3662275 2.06211765
      vertex 2.86256631 2.36502357 2.06187569
    endloop
  endfacet
  facet normal 0.0753189366 -0.182885967 0.980244756
    outer loop
      vertex 2.86615442 2.34856383 2.15034287
      vertex 2.86934502 2.34856383 2.15009772
      vertex 2.8691193 2.34976776 2.15033968
    endloop
  endfacet
  facet normal 0.836810111 0.546200059 0.0376076264
    outer loop
      vertex 2.8623406 2.3662275 2.06211765
      vertex 2.86166351 2.36724815 2.0623601
      vertex 2.86844222 2.35078841 2.15058213
    endloop
  endfacet
  facet normal 0.836810111 0.546200059 0.0376076264
    outer loop
      vertex 2.8623406 2.3662275 2.06211765
      vertex 2.86844222 2.35078841 2.15058213
      vertex 2.8691193 2.34976776 2.15033968
    endloop
  endfacet
  facet normal -0.0753189366 0.182885967 -0.980244756
    outer loop
      vertex 2.85937572 2.36502357 2.06212084
      vertex 2.86166351 2.36724815 2.0623601
      vertex 2.8623406 2.3662275 2.06211765
    endloop
  endfacet
  facet normal 0.0753189366 -0.182885967 0.980244756
    outer loop
      vertex 2.86615442 2.34856383 2.15034287
      vertex 2.8691193 2.34976776 2.15033968
      vertex 2.86844222 2.35078841 2.15058213
    endloop
  endfacet
  facet normal 0.565587235 0.817446156 0.109054398
    outer loop
      vertex 2.86166351 2.36724815 2.0623601
      vertex 2.86063813 2.36793012 2.06256613
      vertex 2.86741683 2.35147038 2.15078815
    endloop
  endfacet
  facet normal 0.565587235 0.817446156 0.109054398
    outer loop
      vertex 2.86166351 2.36724815 2.0623601
      vertex 2.86741683 2.35147038 2.15078815
      vertex 2.86844222 2.35078841 2.15058213
    endloop
  endfacet
  facet normal -0.0753189366 0.182885967 -0.980244756
    outer loop
      vertex 2.85937572 2.36502357 2.06212084
      vertex 2.86063813 2.36793012 2.06256613
      vertex 2.86166351 2.36724815 2.0623601
    endloop
  endfacet
  facet normal 0.0753189366 -0.182885967 0.980244756
    outer loop
      vertex 2.86615442 2.34856383 2.15034287
      vertex 2.86844222 2.35078841 2.15058213
      vertex 2.86741683 2.35147038 2.15078815
    endloop
  endfacet
  facet normal 0.208258829 0.964243486 0.163898627
    outer loop
      vertex 2.86063813 2.36793012 2.06256613
      vertex 2.85942055 2.3681696 2.06270436
      vertex 2.86619926 2.35170986 2.15092639
    endloop
  endfacet
  facet normal 0.208258829 0.964243486 0.163898627
    outer loop
      vertex 2.86063813 2.36793012 2.06256613
      vertex 2.86619926 2.35170986 2.15092639
      vertex 2.86741683 2.35147038 2.15078815
    endloop
  endfacet
  facet normal -0.0753189366 0.182885967 -0.980244756
    outer loop
      vertex 2.85937572 2.36502357 2.06212084
      vertex 2.85942055 2.3681696 2.06270436
      vertex 2.86063813 2.36793012 2.06256613
    endloop
  endfacet
  facet normal 0.0753189366 -0.182885967 0.980244756
    outer loop
      vertex 2.86615442 2.34856383 2.15034287
      vertex 2.86741683 2.35147038 2.15078815
      vertex 2.86619926 2.35170986 2.15092639
    endloop
  endfacet
  facet normal -0.180775096 0.964243486 0.193790775
    outer loop
      vertex 2.85942055 2.3681696 2.06270436
      vertex 2.85819615 2.36793012 2.06275376
      vertex 2.86497486 2.35147038 2.15097579
    endloop
  endfacet
  facet normal -0.180775096 0.964243486 0.193790775
    outer loop
      vertex 2.85942055 2.3681696 2.06270436
      vertex 2.86497486 2.35147038 2.15097579
      vertex 2.86619926 2.35170986 2.15092639
    endloop
  endfacet
  facet normal -0.0753189366 0.182885967 -0.980244756
    outer loop
      vertex 2.85937572 2.36502357 2.06212084
      vertex 2.85819615 2.36793012 2.06275376
      vertex 2.85942055 2.3681696 2.06270436
    endloop
  endfacet
  facet normal 0.0753189366 -0.182885967 0.980244756
    outer loop
      vertex 2.86615442 2.34856383 2.15034287
      vertex 2.86619926 2.35170986 2.15092639
      vertex 2.86497486 2.35147038 2.15097579
    endloop
  endfacet
  facet normal -0.542287651 0.817446156 0.194180034
    outer loop
      vertex 2.85819615 2.36793012 2.06275376
      vertex 2.85715133 2.36724815 2.0627068
      vertex 2.86393003 2.35078841 2.15092883
    endloop
  endfacet
  facet normal -0.542287651 0.817446156 0.194180034
    outer loop
      vertex 2.85819615 2.36793012 2.06275376
      vertex 2.86393003 2.35078841 2.15092883
      vertex 2.86497486 2.35147038 2.15097579
    endloop
  endfacet
  facet normal -0.0753189366 0.182885967 -0.980244756
    outer loop
      vertex 2.85937572 2.36502357 2.06212084
      vertex 2.85715133 2.36724815 2.0627068
      vertex 2.85819615 2.36793012 2.06275376
    endloop
  endfacet
  facet normal 0.0753189366 -0.182885967 0.980244756
    outer loop
      vertex 2.86615442 2.34856383 2.15034287
      vertex 2.86497486 2.35147038 2.15097579
      vertex 2.86393003 2.35078841 2.15092883
    endloop
  endfacet
  facet normal -0.821241827 0.546200059 0.165007144
    outer loop
      vertex 2.85715133 2.36724815 2.0627068
      vertex 2.85644515 2.3662275 2.06257064
      vertex 2.86322385 2.34976776 2.15079267
    endloop
  endfacet
  facet normal -0.821241827 0.546200059 0.165007144
    outer loop
      vertex 2.85715133 2.36724815 2.0627068
      vertex 2.86322385 2.34976776 2.15079267
      vertex 2.86393003 2.35078841 2.15092883
    endloop
  endfacet
  facet normal -0.0753189366 0.182885967 -0.980244756
    outer loop
      vertex 2.85937572 2.36502357 2.06212084
      vertex 2.85644515 2.3662275 2.06257064
      vertex 2.85715133 2.36724815 2.0627068
    endloop
  endfacet
  facet normal 0.0753189366 -0.182885967 0.980244756
    outer loop
      vertex 2.86615442 2.34856383 2.15034287
      vertex 2.86393003 2.35078841 2.15092883
      vertex 2.86322385 2.34976776 2.15079267
    endloop
  endfacet
  facet normal -0.975169379 0.191799955 0.110713411
    outer loop
      vertex 2.85644515 2.3662275 2.06257064
      vertex 2.85618512 2.36502357 2.062366
      vertex 2.86296383 2.34856383 2.15058803
    endloop
  endfacet
  facet normal -0.975169379 0.191799955 0.110713411
    outer loop
      vertex 2.85644515 2.3662275 2.06257064
      vertex 2.86296383 2.34856383 2.15058803
      vertex 2.86322385 2.34976776 2.15079267
    endloop
  endfacet
  facet normal -0.0753189366 0.182885967 -0.980244756
    outer loop
      vertex 2.85937572 2.36502357 2.06212084
      vertex 2.85618512 2.36502357 2.062366
      vertex 2.85644515 2.3662275 2.06257064
    endloop
  endfacet
  facet normal 0.0753189366 -0.182885967 0.980244756
    outer loop
      vertex 2.86615442 2.34856383 2.15034287
      vertex 2.86322385 2.34976776 2.15079267
      vertex 2.86296383 2.34856383 2.15058803
    endloop
  endfacet
  facet normal -0.980636234 -0.191799955 0.0395645657
    outer loop
      vertex 2.82628494 2.36368788 2.06441423
      vertex 2.82651065 2.36248394 2.06417227
      vertex 2.83328936 2.34602421 2.1523943
    endloop
  endfacet
  facet normal -0.980636234 -0.191799955 0.0395645657
    outer loop
      vertex 2.82628494 2.36368788 2.06441423
      vertex 2.83328936 2.34602421 2.1523943
      vertex 2.83306365 2.34722814 2.15263626
    endloop
  endfacet
  facet normal -0.0753189366 0.182885967 -0.980244756
    outer loop
      vertex 2.82947554 2.36368788 2.06416908
      vertex 2.82651065 2.36248394 2.06417227
      vertex 2.82628494 2.36368788 2.06441423
    endloop
  endfacet
  facet normal 0.0753189366 -0.182885967 0.980244756
    outer loop
      vertex 2.83625424 2.34722814 2.15239111
      vertex 2.83306365 2.34722814 2.15263626
      vertex 2.83328936 2.34602421 2.1523943
    endloop
  endfacet
  facet normal -0.836810111 -0.546200059 -0.0376076264
    outer loop
      vertex 2.82651065 2.36248394 2.06417227
      vertex 2.82718774 2.3614633 2.06392982
      vertex 2.83396645 2.34500356 2.15215185
    endloop
  endfacet
  facet normal -0.836810111 -0.546200059 -0.0376076264
    outer loop
      vertex 2.82651065 2.36248394 2.06417227
      vertex 2.83396645 2.34500356 2.15215185
      vertex 2.83328936 2.34602421 2.1523943
    endloop
  endfacet
  facet normal -0.0753189366 0.182885967 -0.980244756
    outer loop
      vertex 2.82947554 2.36368788 2.06416908
      vertex 2.82718774 2.3614633 2.06392982
      vertex 2.82651065 2.36248394 2.06417227
    endloop
  endfacet
  facet normal 0.0753189366 -0.182885967 0.980244756
    outer loop
      vertex 2.83625424 2.34722814 2.15239111
      vertex 2.83328936 2.34602421 2.1523943
      vertex 2.83396645 2.34500356 2.15215185
    endloop
  endfacet
  facet normal -0.565587235 -0.817446156 -0.109054398
    outer loop
      vertex 2.82718774 2.3614633 2.06392982
      vertex 2.82821313 2.36078133 2.0637238
      vertex 2.83499183 2.34432159 2.15194583
    endloop
  endfacet
  facet normal -0.565587235 -0.817446156 -0.109054398
    outer loop
      vertex 2.82718774 2.3614633 2.06392982
      vertex 2.83499183 2.34432159 2.15194583
      vertex 2.83396645 2.34500356 2.15215185
    endloop
  endfacet
  facet normal -0.0753189366 0.182885967 -0.980244756
    outer loop
      vertex 2.82947554 2.36368788 2.06416908
      vertex 2.82821313 2.36078133 2.0637238
      vertex 2.82718774 2.3614633 2.06392982
    endloop
  endfacet
  facet normal 0.0753189366 -0.182885967 0.980244756
    outer loop
      vertex 2.83625424 2.34722814 2.15239111
      vertex 2.83396645 2.34500356 2.15215185
      vertex 2.83499183 2.34432159 2.15194583
    endloop
  endfacet
  facet normal -0.208258829 -0.964243486 -0.163898627
    outer loop
      vertex 2.82821313 2.36078133 2.0637238
      vertex 2.8294307 2.36054185 2.06358556
      vertex 2.83620941 2.34408211 2.15180759
    endloop
  endfacet
  facet normal -0.208258829 -0.964243486 -0.163898627
    outer loop
      vertex 2.82821313 2.36078133 2.0637238
      vertex 2.83620941 2.34408211 2.15180759
      vertex 2.83499183 2.34432159 2.15194583
    endloop
  endfacet
  facet normal -0.0753189366 0.182885967 -0.980244756
    outer loop
      vertex 2.82947554 2.36368788 2.06416908
      vertex 2.8294307 2.36054185 2.06358556
      vertex 2.82821313 2.36078133 2.0637238
    endloop
  endfacet
  facet normal 0.0753189366 -0.182885967 0.980244756
    outer loop
      vertex 2.83625424 2.34722814 2.15239111
      vertex 2.83499183 2.34432159 2.15194583
      vertex 2.83620941 2.34408211 2.15180759
    endloop
  endfacet
  facet normal 0.180775096 -0.964243486 -0.193790775
    outer loop
      vertex 2.8294307 2.36054185 2.06358556
      vertex 2.8306551 2.36078133 2.06353616
      vertex 2.83743381 2.34432159 2.15175819
    endloop
  endfacet
  facet normal 0.180775096 -0.964243486 -0.193790775
    outer loop
      vertex 2.8294307 2.36054185 2.06358556
      vertex 2.83743381 2.34432159 2.15175819
      vertex 2.83620941 2.34408211 2.15180759
    endloop
  endfacet
  facet normal -0.0753189366 0.182885967 -0.980244756
    outer loop
      vertex 2.82947554 2.36368788 2.06416908
      vertex 2.8306551 2.36078133 2.06353616
      vertex 2.8294307 2.36054185 2.06358556
    endloop
  endfacet
  facet normal 0.0753189366 -0.182885967 0.980244756
    outer loop
      vertex 2.83625424 2.34722814 2.15239111
      vertex 2.83620941 2.34408211 2.15180759
      vertex 2.83743381 2.34432159 2.15175819
    endloop
  endfacet
  facet normal 0.542287651 -0.817446156 -0.194180034
    outer loop
      vertex 2.8306551 2.36078133 2.06353616
      vertex 2.83169993 2.3614633 2.06358312
      vertex 2.83847863 2.34500356 2.15180515
    endloop
  endfacet
  facet normal 0.542287651 -0.817446156 -0.194180034
    outer loop
      vertex 2.8306551 2.36078133 2.06353616
      vertex 2.83847863 2.34500356 2.15180515
      vertex 2.83743381 2.34432159 2.15175819
    endloop
  endfacet
  facet normal -0.0753189366 0.182885967 -0.980244756
    outer loop
      vertex 2.82947554 2.36368788 2.06416908
      vertex 2.83169993 2.3614633 2.06358312
      vertex 2.8306551 2.36078133 2.06353616
    endloop
  endfacet
  facet normal 0.0753189366 -0.182885967 0.980244756
    outer loop
      vertex 2.83625424 2.34722814 2.15239111
      vertex 2.83743381 2.34432159 2.15175819
      vertex 2.83847863 2.34500356 2.15180515
    endloop
  endfacet
  facet normal 0.821241827 -0.546200059 -0.165007144
    outer loop
      vertex 2.83169993 2.3614633 2.06358312
      vertex 2.83240611 2.36248394 2.06371928
      vertex 2.83918481 2.34602421 2.15194131
    endloop
  endfacet
  facet normal 0.821241827 -0.546200059 -0.165007144
    outer loop
      vertex 2.83169993 2.3614633 2.06358312
      vertex 2.83918481 2.34602421 2.15194131
      vertex 2.83847863 2.34500356 2.15180515
    endloop
  endfacet
  facet normal -0.0753189366 0.182885967 -0.980244756
    outer loop
      vertex 2.82947554 2.36368788 2.06416908
      vertex 2.83240611 2.36248394 2.06371928
      vertex 2.83169993 2.3614633 2.06358312
    endloop
  endfacet
  facet normal 0.0753189366 -0.182885967 0.980244756
    outer loop
      vertex 2.83625424 2.34722814 2.15239111
      vertex 2.83847863 2.34500356 2.15180515
      vertex 2.83918481 2.34602421 2.15194131
    endloop
  endfacet
  facet normal 0.975169379 -0.191799955 -0.110713411
    outer loop
      vertex 2.83240611 2.36248394 2.06371928
      vertex 2.83266613 2.36368788 2.06392392
      vertex 2.83944484 2.34722814 2.15214595
    endloop
  endfacet
  facet normal 0.975169379 -0.191799955 -0.110713411
    outer loop
      vertex 2.83240611 2.36248394 2.06371928
      vertex 2.83944484 2.34722814 2.15214595
      vertex 2.83918481 2.34602421 2.15194131
    endloop
  endfacet
  facet normal -0.0753189366 0.182885967 -0.980244756
    outer loop
      vertex 2.82947554 2.36368788 2.06416908
      vertex 2.83266613 2.36368788 2.06392392
      vertex 2.83240611 2.36248394 2.06371928
    endloop
  endfacet
  facet normal 0.0753189366 -0.182885967 0.980244756
    outer loop
      vertex 2.83625424 2.34722814 2.15239111
      vertex 2.83918481 2.34602421 2.15194131
      vertex 2.83944484 2.34722814 2.15214595
    endloop
  endfacet
  facet normal 0.980636234 0.191799955 -0.0395645657
    outer loop
      vertex 2.83266613 2.36368788 2.06392392
      vertex 2.83244042 2.36489181 2.06416589
      vertex 2.83921913 2.34843207 2.15238791
    endloop
  endfacet
  facet normal 0.980636234 0.191799955 -0.0395645657
    outer loop
      vertex 2.83266613 2.36368788 2.06392392
      vertex 2.83921913 2.34843207 2.15238791
      vertex 2.83944484 2.34722814 2.15214595
    endloop
  endfacet
  facet normal -0.0753189366 0.182885967 -0.980244756
    outer loop
      vertex 2.82947554 2.36368788 2.06416908
      vertex 2.83244042 2.36489181 2.06416589
      vertex 2.83266613 2.36368788 2.06392392
    endloop
  endfacet
  facet normal 0.0753189366 -0.182885967 0.980244756
    outer loop
      vertex 2.83625424 2.34722814 2.15239111
      vertex 2.83944484 2.34722814 2.15214595
      vertex 2.83921913 2.34843207 2.15238791
    endloop
  endfacet
  facet normal 0.836810111 0.546200059 0.0376076264
    outer loop
      vertex 2.83244042 2.36489181 2.06416589
      vertex 2.83176333 2.36591246 2.06440834
      vertex 2.83854204 2.34945272 2.15263036
    endloop
  endfacet
  facet normal 0.836810111 0.546200059 0.0376076264
    outer loop
      vertex 2.83244042 2.36489181 2.06416589
      vertex 2.83854204 2.34945272 2.15263036
      vertex 2.83921913 2.34843207 2.15238791
    endloop
  endfacet
  facet normal -0.0753189366 0.182885967 -0.980244756
    outer loop
      vertex 2.82947554 2.36368788 2.06416908
      vertex 2.83176333 2.36591246 2.06440834
      vertex 2.83244042 2.36489181 2.06416589
    endloop
  endfacet
  facet normal 0.0753189366 -0.182885967 0.980244756
    outer loop
      vertex 2.83625424 2.34722814 2.15239111
      vertex 2.83921913 2.34843207 2.15238791
      vertex 2.83854204 2.34945272 2.15263036
    endloop
  endfacet
  facet normal 0.565587235 0.817446156 0.109054398
    outer loop
      vertex 2.83176333 2.36591246 2.06440834
      vertex 2.83073795 2.36659443 2.06461436
      vertex 2.83751665 2.35013469 2.15283639
    endloop
  endfacet
  facet normal 0.565587235 0.817446156 0.109054398
    outer loop
      vertex 2.83176333 2.36591246 2.06440834
      vertex 2.83751665 2.35013469 2.15283639
      vertex 2.83854204 2.34945272 2.15263036
    endloop
  endfacet
  facet normal -0.0753189366 0.182885967 -0.980244756
    outer loop
      vertex 2.82947554 2.36368788 2.06416908
      vertex 2.83073795 2.36659443 2.06461436
      vertex 2.83176333 2.36591246 2.06440834
    endloop
  endfacet
  facet normal 0.0753189366 -0.182885967 0.980244756
    outer loop
      vertex 2.83625424 2.34722814 2.15239111
      vertex 2.83854204 2.34945272 2.15263036
      vertex 2.83751665 2.35013469 2.15283639
    endloop
  endfacet
  facet normal 0.208258829 0.964243486 0.163898627
    outer loop
      vertex 2.83073795 2.36659443 2.06461436
      vertex 2.82952037 2.36683391 2.06475259
      vertex 2.83629908 2.35037417 2.15297462
    endloop
  endfacet
  facet normal 0.208258829 0.964243486 0.163898627
    outer loop
      vertex 2.83073795 2.36659443 2.06461436
      vertex 2.83629908 2.35037417 2.15297462
      vertex 2.83751665 2.35013469 2.15283639
    endloop
  endfacet
  facet normal -0.0753189366 0.182885967 -0.980244756
    outer loop
      vertex 2.82947554 2.36368788 2.06416908
      vertex 2.82952037 2.36683391 2.06475259
      vertex 2.83073795 2.36659443 2.06461436
    endloop
  endfacet
  facet normal 0.0753189366 -0.182885967 0.980244756
    outer loop
      vertex 2.83625424 2.34722814 2.15239111
      vertex 2.83751665 2.35013469 2.15283639
      vertex 2.83629908 2.35037417 2.15297462
    endloop
  endfacet
  facet normal -0.180775096 0.964243486 0.193790775
    outer loop
      vertex 2.82952037 2.36683391 2.06475259
      vertex 2.82829597 2.36659443 2.06480199
      vertex 2.83507468 2.35013469 2.15302402
    endloop
  endfacet
  facet normal -0.180775096 0.964243486 0.193790775
    outer loop
      vertex 2.82952037 2.36683391 2.06475259
      vertex 2.83507468 2.35013469 2.15302402
      vertex 2.83629908 2.35037417 2.15297462
    endloop
  endfacet
  facet normal -0.0753189366 0.182885967 -0.980244756
    outer loop
      vertex 2.82947554 2.36368788 2.06416908
      vertex 2.82829597 2.36659443 2.06480199
      vertex 2.82952037 2.36683391 2.06475259
    endloop
  endfacet
  facet normal 0.0753189366 -0.182885967 0.980244756
    outer loop
      vertex 2.83625424 2.34722814 2.15239111
      vertex 2.83629908 2.35037417 2.15297462
      vertex 2.83507468 2.35013469 2.15302402
    endloop
  endfacet
  facet normal -0.542287651 0.817446156 0.194180034
    outer loop
      vertex 2.82829597 2.36659443 2.06480199
      vertex 2.82725115 2.36591246 2.06475504
      vertex 2.83402985 2.34945272 2.15297707
    endloop
  endfacet
  facet normal -0.542287651 0.817446156 0.194180034
    outer loop
      vertex 2.82829597 2.36659443 2.06480199
      vertex 2.83402985 2.34945272 2.15297707
      vertex 2.83507468 2.35013469 2.15302402
    endloop
  endfacet
  facet normal -0.0753189366 0.182885967 -0.980244756
    outer loop
      vertex 2.82947554 2.36368788 2.06416908
      vertex 2.82725115 2.36591246 2.06475504
      vertex 2.82829597 2.36659443 2.06480199
    endloop
  endfacet
  facet normal 0.0753189366 -0.182885967 0.980244756
    outer loop
      vertex 2.83625424 2.34722814 2.15239111
      vertex 2.83507468 2.35013469 2.15302402
      vertex 2.83402985 2.34945272 2.15297707
    endloop
  endfacet
  facet normal -0.821241827 0.546200059 0.165007144
    outer loop
      vertex 2.82725115 2.36591246 2.06475504
      vertex 2.82654497 2.36489181 2.06461887
      vertex 2.83332367 2.34843207 2.1528409
    endloop
  endfacet
  facet normal -0.821241827 0.546200059 0.165007144
    outer loop
      vertex 2.82725115 2.36591246 2.06475504
      vertex 2.83332367 2.34843207 2.1528409
      vertex 2.83402985 2.34945272 2.15297707
    endloop
  endfacet
  facet normal -0.0753189366 0.182885967 -0.980244756
    outer loop
      vertex 2.82947554 2.36368788 2.06416908
      vertex 2.82654497 2.36489181 2.06461887
      vertex 2.82725115 2.36591246 2.06475504
    endloop
  endfacet
  facet normal 0.0753189366 -0.182885967 0.980244756
    outer loop
      vertex 2.83625424 2.34722814 2.15239111
      vertex 2.83402985 2.34945272 2.15297707
      vertex 2.83332367 2.34843207 2.1528409
    endloop
  endfacet
  facet normal -0.975169379 0.191799955 0.110713411
    outer loop
      vertex 2.82654497 2.36489181 2.06461887
      vertex 2.82628494 2.36368788 2.06441423
      vertex 2.83306365 2.34722814 2.15263626
    endloop
  endfacet
  facet normal -0.975169379 0.191799955 0.110713411
    outer loop
      vertex 2.82654497 2.36489181 2.06461887
      vertex 2.83306365 2.34722814 2.15263626
      vertex 2.83332367 2.34843207 2.1528409
    endloop
  endfacet
  facet normal -0.0753189366 0.182885967 -0.980244756
    outer loop
      vertex 2.82947554 2.36368788 2.06416908
      vertex 2.82628494 2.36368788 2.06441423
      vertex 2.82654497 2.36489181 2.06461887
    endloop
  endfacet
  facet normal 0.0753189366 -0.182885967 0.980244756
    outer loop
      vertex 2.83625424 2.34722814 2.15239111
      vertex 2.83332367 2.34843207 2.1528409
      vertex 2.83306365 2.34722814 2.15263626
    endloop
  endfacet
  facet normal -0.886051663 -0.422995385 -0.189703335
    outer loop
      vertex 2.92495117 2.61798598 2.15082091
      vertex 2.92503094 2.61835292 2.14963013
      vertex 2.9939054 2.48978042 2.11462414
    endloop
  endfacet
  facet normal -0.886051663 -0.422995385 -0.189703335
    outer loop
      vertex 2.92495117 2.61798598 2.15082091
      vertex 2.9939054 2.48978042 2.11462414
      vertex 2.99382563 2.48941348 2.11581491
    endloop
  endfacet
  facet normal -0.459163071 0.857150027 0.233373317
    outer loop
      vertex 2.92777193 2.61949703 2.15082091
      vertex 2.92503094 2.61835292 2.14963013
      vertex 2.92495117 2.61798598 2.15082091
    endloop
  endfacet
  facet normal 0.459163071 -0.857150027 -0.233373317
    outer loop
      vertex 2.9966464 2.49092452 2.11581491
      vertex 2.99382563 2.48941348 2.11581491
      vertex 2.9939054 2.48978042 2.11462414
    endloop
  endfacet
  facet normal -0.79415597 -0.278331636 -0.540229391
    outer loop
      vertex 2.92503094 2.61835292 2.14963013
      vertex 2.925528 2.61889404 2.14862064
      vertex 2.99440246 2.49032154 2.11361465
    endloop
  endfacet
  facet normal -0.79415597 -0.278331636 -0.540229391
    outer loop
      vertex 2.92503094 2.61835292 2.14963013
      vertex 2.99440246 2.49032154 2.11361465
      vertex 2.9939054 2.48978042 2.11462414
    endloop
  endfacet
  facet normal -0.459163071 0.857150027 0.233373317
    outer loop
      vertex 2.92777193 2.61949703 2.15082091
      vertex 2.925528 2.61889404 2.14862064
      vertex 2.92503094 2.61835292 2.14963013
    endloop
  endfacet
  facet normal 0.459163071 -0.857150027 -0.233373317
    outer loop
      vertex 2.9966464 2.49092452 2.11581491
      vertex 2.9939054 2.48978042 2.11462414
      vertex 2.99440246 2.49032154 2.11361465
    endloop
  endfacet
  facet normal -0.581357231 -0.0912944179 -0.80851042
    outer loop
      vertex 2.925528 2.61889404 2.14862064
      vertex 2.92636668 2.61952696 2.14794613
      vertex 2.99524114 2.49095445 2.11294013
    endloop
  endfacet
  facet normal -0.581357231 -0.0912944179 -0.80851042
    outer loop
      vertex 2.925528 2.61889404 2.14862064
      vertex 2.99524114 2.49095445 2.11294013
      vertex 2.99440246 2.49032154 2.11361465
    endloop
  endfacet
  facet normal -0.459163071 0.857150027 0.233373317
    outer loop
      vertex 2.92777193 2.61949703 2.15082091
      vertex 2.92636668 2.61952696 2.14794613
      vertex 2.925528 2.61889404 2.14862064
    endloop
  endfacet
  facet normal 0.459163071 -0.857150027 -0.233373317
    outer loop
      vertex 2.9966464 2.49092452 2.11581491
      vertex 2.99440246 2.49032154 2.11361465
      vertex 2.99524114 2.49095445 2.11294013
    endloop
  endfacet
  facet normal -0.280052122 0.109641547 -0.953703067
    outer loop
      vertex 2.92636668 2.61952696 2.14794613
      vertex 2.9274193 2.62015532 2.14770927
      vertex 2.99629376 2.49158282 2.11270327
    endloop
  endfacet
  facet normal -0.280052122 0.109641547 -0.953703067
    outer loop
      vertex 2.92636668 2.61952696 2.14794613
      vertex 2.99629376 2.49158282 2.11270327
      vertex 2.99524114 2.49095445 2.11294013
    endloop
  endfacet
  facet normal -0.459163071 0.857150027 0.233373317
    outer loop
      vertex 2.92777193 2.61949703 2.15082091
      vertex 2.9274193 2.62015532 2.14770927
      vertex 2.92636668 2.61952696 2.14794613
    endloop
  endfacet
  facet normal 0.459163071 -0.857150027 -0.233373317
    outer loop
      vertex 2.9966464 2.49092452 2.11581491
      vertex 2.99524114 2.49095445 2.11294013
      vertex 2.99629376 2.49158282 2.11270327
    endloop
  endfacet
  facet normal 0.0638883826 0.293885581 -0.953703067
    outer loop
      vertex 2.9274193 2.62015532 2.14770927
      vertex 2.9285256 2.62068346 2.14794613
      vertex 2.99740006 2.49211096 2.11294013
    endloop
  endfacet
  facet normal 0.0638883826 0.293885581 -0.953703067
    outer loop
      vertex 2.9274193 2.62015532 2.14770927
      vertex 2.99740006 2.49211096 2.11294013
      vertex 2.99629376 2.49158282 2.11270327
    endloop
  endfacet
  facet normal -0.459163071 0.857150027 0.233373317
    outer loop
      vertex 2.92777193 2.61949703 2.15082091
      vertex 2.9285256 2.62068346 2.14794613
      vertex 2.9274193 2.62015532 2.14770927
    endloop
  endfacet
  facet normal 0.459163071 -0.857150027 -0.233373317
    outer loop
      vertex 2.9966464 2.49092452 2.11581491
      vertex 2.99629376 2.49158282 2.11270327
      vertex 2.99740006 2.49211096 2.11294013
    endloop
  endfacet
  facet normal 0.398102461 0.433388199 -0.80851042
    outer loop
      vertex 2.9285256 2.62068346 2.14794613
      vertex 2.92951717 2.62103098 2.14862064
      vertex 2.99839163 2.49245848 2.11361465
    endloop
  endfacet
  facet normal 0.398102461 0.433388199 -0.80851042
    outer loop
      vertex 2.9285256 2.62068346 2.14794613
      vertex 2.99839163 2.49245848 2.11361465
      vertex 2.99740006 2.49211096 2.11294013
    endloop
  endfacet
  facet normal -0.459163071 0.857150027 0.233373317
    outer loop
      vertex 2.92777193 2.61949703 2.15082091
      vertex 2.92951717 2.62103098 2.14862064
      vertex 2.9285256 2.62068346 2.14794613
    endloop
  endfacet
  facet normal 0.459163071 -0.857150027 -0.233373317
    outer loop
      vertex 2.9966464 2.49092452 2.11581491
      vertex 2.99740006 2.49211096 2.11294013
      vertex 2.99839163 2.49245848 2.11361465
    endloop
  endfacet
  facet normal 0.671709048 0.506911392 -0.540229391
    outer loop
      vertex 2.92951717 2.62103098 2.14862064
      vertex 2.93024304 2.62114497 2.14963013
      vertex 2.9991175 2.49257247 2.11462414
    endloop
  endfacet
  facet normal 0.671709048 0.506911392 -0.540229391
    outer loop
      vertex 2.92951717 2.62103098 2.14862064
      vertex 2.9991175 2.49257247 2.11462414
      vertex 2.99839163 2.49245848 2.11361465
    endloop
  endfacet
  facet normal -0.459163071 0.857150027 0.233373317
    outer loop
      vertex 2.92777193 2.61949703 2.15082091
      vertex 2.93024304 2.62114497 2.14963013
      vertex 2.92951717 2.62103098 2.14862064
    endloop
  endfacet
  facet normal 0.459163071 -0.857150027 -0.233373317
    outer loop
      vertex 2.9966464 2.49092452 2.11581491
      vertex 2.99839163 2.49245848 2.11361465
      vertex 2.9991175 2.49257247 2.11462414
    endloop
  endfacet
  facet normal 0.843054022 0.503261921 -0.189703335
    outer loop
      vertex 2.93024304 2.62114497 2.14963013
      vertex 2.9305927 2.62100807 2.15082091
      vertex 2.99946716 2.49243557 2.11581491
    endloop
  endfacet
  facet normal 0.843054022 0.503261921 -0.189703335
    outer loop
      vertex 2.93024304 2.62114497 2.14963013
      vertex 2.99946716 2.49243557 2.11581491
      vertex 2.9991175 2.49257247 2.11462414
    endloop
  endfacet
  facet normal -0.459163071 0.857150027 0.233373317
    outer loop
      vertex 2.92777193 2.61949703 2.15082091
      vertex 2.9305927 2.62100807 2.15082091
      vertex 2.93024304 2.62114497 2.14963013
    endloop
  endfacet
  facet normal 0.459163071 -0.857150027 -0.233373317
    outer loop
      vertex 2.9966464 2.49092452 2.11581491
      vertex 2.9991175 2.49257247 2.11462414
      vertex 2.99946716 2.49243557 2.11581491
    endloop
  endfacet
  facet normal 0.886051663 0.422995385 0.189703335
    outer loop
      vertex 2.9305927 2.62100807 2.15082091
      vertex 2.93051293 2.62064113 2.15201168
      vertex 2.9993874 2.49206863 2.11700568
    endloop
  endfacet
  facet normal 0.886051663 0.422995385 0.189703335
    outer loop
      vertex 2.9305927 2.62100807 2.15082091
      vertex 2.9993874 2.49206863 2.11700568
      vertex 2.99946716 2.49243557 2.11581491
    endloop
  endfacet
  facet normal -0.459163071 0.857150027 0.233373317
    outer loop
      vertex 2.92777193 2.61949703 2.15082091
      vertex 2.93051293 2.62064113 2.15201168
      vertex 2.9305927 2.62100807 2.15082091
    endloop
  endfacet
  facet normal 0.459163071 -0.857150027 -0.233373317
    outer loop
      vertex 2.9966464 2.49092452 2.11581491
      vertex 2.99946716 2.49243557 2.11581491
      vertex 2.9993874 2.49206863 2.11700568
    endloop
  endfacet
  facet normal 0.79415597 0.278331636 0.540229391
    outer loop
      vertex 2.93051293 2.62064113 2.15201168
      vertex 2.93001587 2.62010002 2.15302117
      vertex 2.99889033 2.49152751 2.11801517
    endloop
  endfacet
  facet normal 0.79415597 0.278331636 0.540229391
    outer loop
      vertex 2.93051293 2.62064113 2.15201168
      vertex 2.99889033 2.49152751 2.11801517
      vertex 2.9993874 2.49206863 2.11700568
    endloop
  endfacet
  facet normal -0.459163071 0.857150027 0.233373317
    outer loop
      vertex 2.92777193 2.61949703 2.15082091
      vertex 2.93001587 2.62010002 2.15302117
      vertex 2.93051293 2.62064113 2.15201168
    endloop
  endfacet
  facet normal 0.459163071 -0.857150027 -0.233373317
    outer loop
      vertex 2.9966464 2.49092452 2.11581491
      vertex 2.9993874 2.49206863 2.11700568
      vertex 2.99889033 2.49152751 2.11801517
    endloop
  endfacet
  facet normal 0.581357231 0.0912944179 0.80851042
    outer loop
      vertex 2.93001587 2.62010002 2.15302117
      vertex 2.92917719 2.6194671 2.15369569
      vertex 2.99805165 2.49089459 2.11868969
    endloop
  endfacet
  facet normal 0.581357231 0.0912944179 0.80851042
    outer loop
      vertex 2.93001587 2.62010002 2.15302117
      vertex 2.99805165 2.49089459 2.11868969
      vertex 2.99889033 2.49152751 2.11801517
    endloop
  endfacet
  facet normal -0.459163071 0.857150027 0.233373317
    outer loop
      vertex 2.92777193 2.61949703 2.15082091
      vertex 2.92917719 2.6194671 2.15369569
      vertex 2.93001587 2.62010002 2.15302117
    endloop
  endfacet
  facet normal 0.459163071 -0.857150027 -0.233373317
    outer loop
      vertex 2.9966464 2.49092452 2.11581491
      vertex 2.99889033 2.49152751 2.11801517
      vertex 2.99805165 2.49089459 2.11868969
    endloop
  endfacet
  facet normal 0.280052122 -0.109641547 0.953703067
    outer loop
      vertex 2.92917719 2.6194671 2.15369569
      vertex 2.92812457 2.61883874 2.15393254
      vertex 2.99699903 2.49026623 2.11892655
    endloop
  endfacet
  facet normal 0.280052122 -0.109641547 0.953703067
    outer loop
      vertex 2.92917719 2.6194671 2.15369569
      vertex 2.99699903 2.49026623 2.11892655
      vertex 2.99805165 2.49089459 2.11868969
    endloop
  endfacet
  facet normal -0.459163071 0.857150027 0.233373317
    outer loop
      vertex 2.92777193 2.61949703 2.15082091
      vertex 2.92812457 2.61883874 2.15393254
      vertex 2.92917719 2.6194671 2.15369569
    endloop
  endfacet
  facet normal 0.459163071 -0.857150027 -0.233373317
    outer loop
      vertex 2.9966464 2.49092452 2.11581491
      vertex 2.99805165 2.49089459 2.11868969
      vertex 2.99699903 2.49026623 2.11892655
    endloop
  endfacet
  facet normal -0.0638883826 -0.293885581 0.953703067
    outer loop
      vertex 2.92812457 2.61883874 2.15393254
      vertex 2.92701827 2.61831059 2.15369569
      vertex 2.99589273 2.48973809 2.11868969
    endloop
  endfacet
  facet normal -0.0638883826 -0.293885581 0.953703067
    outer loop
      vertex 2.92812457 2.61883874 2.15393254
      vertex 2.99589273 2.48973809 2.11868969
      vertex 2.99699903 2.49026623 2.11892655
    endloop
  endfacet
  facet normal -0.459163071 0.857150027 0.233373317
    outer loop
      vertex 2.92777193 2.61949703 2.15082091
      vertex 2.92701827 2.61831059 2.15369569
      vertex 2.92812457 2.61883874 2.15393254
    endloop
  endfacet
  facet normal 0.459163071 -0.857150027 -0.233373317
    outer loop
      vertex 2.9966464 2.49092452 2.11581491
      vertex 2.99699903 2.49026623 2.11892655
      vertex 2.99589273 2.48973809 2.11868969
    endloop
  endfacet
  facet normal -0.398102461 -0.433388199 0.80851042
    outer loop
      vertex 2.92701827 2.61831059 2.15369569
      vertex 2.9260267 2.61796307 2.15302117
      vertex 2.99490116 2.48939057 2.11801517
    endloop
  endfacet
  facet normal -0.398102461 -0.433388199 0.80851042
    outer loop
      vertex 2.92701827 2.61831059 2.15369569
      vertex 2.99490116 2.48939057 2.11801517
      vertex 2.99589273 2.48973809 2.11868969
    endloop
  endfacet
  facet normal -0.459163071 0.857150027 0.233373317
    outer loop
      vertex 2.92777193 2.61949703 2.15082091
      vertex 2.9260267 2.61796307 2.15302117
      vertex 2.92701827 2.61831059 2.15369569
    endloop
  endfacet
  facet normal 0.459163071 -0.857150027 -0.233373317
    outer loop
      vertex 2.9966464 2.49092452 2.11581491
      vertex 2.99589273 2.48973809 2.11868969
      vertex 2.99490116 2.48939057 2.11801517
    endloop
  endfacet
  facet normal -0.671709048 -0.506911392 0.540229391
    outer loop
      vertex 2.9260267 2.61796307 2.15302117
      vertex 2.92530083 2.61784909 2.15201168
      vertex 2.99417529 2.48927658 2.11700568
    endloop
  endfacet
  facet normal -0.671709048 -0.506911392 0.540229391
    outer loop
      vertex 2.9260267 2.61796307 2.15302117
      vertex 2.99417529 2.48927658 2.11700568
      vertex 2.99490116 2.48939057 2.11801517
    endloop
  endfacet
  facet normal -0.459163071 0.857150027 0.233373317
    outer loop
      vertex 2.92777193 2.61949703 2.15082091
      vertex 2.92530083 2.61784909 2.15201168
      vertex 2.9260267 2.61796307 2.15302117
    endloop
  endfacet
  facet normal 0.459163071 -0.857150027 -0.233373317
    outer loop
      vertex 2.9966464 2.49092452 2.11581491
      vertex 2.99490116 2.48939057 2.11801517
      vertex 2.99417529 2.48927658 2.11700568
    endloop
  endfacet
  facet normal -0.843054022 -0.503261921 0.189703335
    outer loop
      vertex 2.92530083 2.61784909 2.15201168
      vertex 2.92495117 2.61798598 2.15082091
      vertex 2.99382563 2.48941348 2.11581491
    endloop
  endfacet
  facet normal -0.843054022 -0.503261921 0.189703335
    outer loop
      vertex 2.92530083 2.61784909 2.15201168
      vertex 2.99382563 2.48941348 2.11581491
      vertex 2.99417529 2.48927658 2.11700568
    endloop
  endfacet
  facet normal -0.459163071 0.857150027 0.233373317
    outer loop
      vertex 2.92777193 2.61949703 2.15082091
      vertex 2.92495117 2.61798598 2.15082091
      vertex 2.92530083 2.61784909 2.15201168
    endloop
  endfacet
  facet normal 0.459163071 -0.857150027 -0.233373317
    outer loop
      vertex 2.9966464 2.49092452 2.11581491
      vertex 2.99417529 2.48927658 2.11700568
      vertex 2.99382563 2.48941348 2.11581491
    endloop
  endfacet
  facet normal -0.886051663 -0.422995385 -0.189703335
    outer loop
      vertex 2.92136458 2.6240067 2.12165093
      vertex 2.92144435 2.62437364 2.12046016
      vertex 2.99031881 2.49580114 2.08545416
    endloop
  endfacet
  facet normal -0.886051663 -0.422995385 -0.189703335
    outer loop
      vertex 2.92136458 2.6240067 2.12165093
      vertex 2.99031881 2.49580114 2.08545416
      vertex 2.99023904 2.4954342 2.08664494
    endloop
  endfacet
  facet normal -0.459163071 0.857150027 0.233373317
    outer loop
      vertex 2.92418534 2.62551775 2.12165093
      vertex 2.92144435 2.62437364 2.12046016
      vertex 2.92136458 2.6240067 2.12165093
    endloop
  endfacet
  facet normal 0.459163071 -0.857150027 -0.233373317
    outer loop
      vertex 2.99305981 2.49694525 2.08664494
      vertex 2.99023904 2.4954342 2.08664494
      vertex 2.99031881 2.49580114 2.08545416
    endloop
  endfacet
  facet normal -0.79415597 -0.278331636 -0.540229391
    outer loop
      vertex 2.92144435 2.62437364 2.12046016
      vertex 2.92194141 2.62491476 2.11945067
      vertex 2.99081587 2.49634226 2.08444468
    endloop
  endfacet
  facet normal -0.79415597 -0.278331636 -0.540229391
    outer loop
      vertex 2.92144435 2.62437364 2.12046016
      vertex 2.99081587 2.49634226 2.08444468
      vertex 2.99031881 2.49580114 2.08545416
    endloop
  endfacet
  facet normal -0.459163071 0.857150027 0.233373317
    outer loop
      vertex 2.92418534 2.62551775 2.12165093
      vertex 2.92194141 2.62491476 2.11945067
      vertex 2.92144435 2.62437364 2.12046016
    endloop
  endfacet
  facet normal 0.459163071 -0.857150027 -0.233373317
    outer loop
      vertex 2.99305981 2.49694525 2.08664494
      vertex 2.99031881 2.49580114 2.08545416
      vertex 2.99081587 2.49634226 2.08444468
    endloop
  endfacet
  facet normal -0.581357231 -0.0912944179 -0.80851042
    outer loop
      vertex 2.92194141 2.62491476 2.11945067
      vertex 2.92278009 2.62554768 2.11877615
      vertex 2.99165455 2.49697518 2.08377016
    endloop
  endfacet
  facet normal -0.581357231 -0.0912944179 -0.80851042
    outer loop
      vertex 2.92194141 2.62491476 2.11945067
      vertex 2.99165455 2.49697518 2.08377016
      vertex 2.99081587 2.49634226 2.08444468
    endloop
  endfacet
  facet normal -0.459163071 0.857150027 0.233373317
    outer loop
      vertex 2.92418534 2.62551775 2.12165093
      vertex 2.92278009 2.62554768 2.11877615
      vertex 2.92194141 2.62491476 2.11945067
    endloop
  endfacet
  facet normal 0.459163071 -0.857150027 -0.233373317
    outer loop
      vertex 2.99305981 2.49694525 2.08664494
      vertex 2.99081587 2.49634226 2.08444468
      vertex 2.99165455 2.49697518 2.08377016
    endloop
  endfacet
  facet normal -0.280052122 0.109641547 -0.953703067
    outer loop
      vertex 2.92278009 2.62554768 2.11877615
      vertex 2.92383271 2.62617604 2.11853929
      vertex 2.99270717 2.49760354 2.0835333
    endloop
  endfacet
  facet normal -0.280052122 0.109641547 -0.953703067
    outer loop
      vertex 2.92278009 2.62554768 2.11877615
      vertex 2.99270717 2.49760354 2.0835333
      vertex 2.99165455 2.49697518 2.08377016
    endloop
  endfacet
  facet normal -0.459163071 0.857150027 0.233373317
    outer loop
      vertex 2.92418534 2.62551775 2.12165093
      vertex 2.92383271 2.62617604 2.11853929
      vertex 2.92278009 2.62554768 2.11877615
    endloop
  endfacet
  facet normal 0.459163071 -0.857150027 -0.233373317
    outer loop
      vertex 2.99305981 2.49694525 2.08664494
      vertex 2.99165455 2.49697518 2.08377016
      vertex 2.99270717 2.49760354 2.0835333
    endloop
  endfacet
  facet normal 0.0638883826 0.293885581 -0.953703067
    outer loop
      vertex 2.92383271 2.62617604 2.11853929
      vertex 2.92493901 2.62670419 2.11877615
      vertex 2.99381347 2.49813168 2.08377016
    endloop
  endfacet
  facet normal 0.0638883826 0.293885581 -0.953703067
    outer loop
      vertex 2.92383271 2.62617604 2.11853929
      vertex 2.99381347 2.49813168 2.08377016
      vertex 2.99270717 2.49760354 2.0835333
    endloop
  endfacet
  facet normal -0.459163071 0.857150027 0.233373317
    outer loop
      vertex 2.92418534 2.62551775 2.12165093
      vertex 2.92493901 2.62670419 2.11877615
      vertex 2.92383271 2.62617604 2.11853929
    endloop
  endfacet
  facet normal 0.459163071 -0.857150027 -0.233373317
    outer loop
      vertex 2.99305981 2.49694525 2.08664494
      vertex 2.99270717 2.49760354 2.0835333
      vertex 2.99381347 2.49813168 2.08377016
    endloop
  endfacet
  facet normal 0.398102461 0.433388199 -0.80851042
    outer loop
      vertex 2.92493901 2.62670419 2.11877615
      vertex 2.92593058 2.6270517 2.11945067
      vertex 2.99480504 2.4984792 2.08444468
    endloop
  endfacet
  facet normal 0.398102461 0.433388199 -0.80851042
    outer loop
      vertex 2.92493901 2.62670419 2.11877615
      vertex 2.99480504 2.4984792 2.08444468
      vertex 2.99381347 2.49813168 2.08377016
    endloop
  endfacet
  facet normal -0.459163071 0.857150027 0.233373317
    outer loop
      vertex 2.92418534 2.62551775 2.12165093
      vertex 2.92593058 2.6270517 2.11945067
      vertex 2.92493901 2.62670419 2.11877615
    endloop
  endfacet
  facet normal 0.459163071 -0.857150027 -0.233373317
    outer loop
      vertex 2.99305981 2.49694525 2.08664494
      vertex 2.99381347 2.49813168 2.08377016
      vertex 2.99480504 2.4984792 2.08444468
    endloop
  endfacet
  facet normal 0.671709048 0.506911392 -0.540229391
    outer loop
      vertex 2.92593058 2.6270517 2.11945067
      vertex 2.92665645 2.62716569 2.12046016
      vertex 2.99553091 2.49859319 2.08545416
    endloop
  endfacet
  facet normal 0.671709048 0.506911392 -0.540229391
    outer loop
      vertex 2.92593058 2.6270517 2.11945067
      vertex 2.99553091 2.49859319 2.08545416
      vertex 2.99480504 2.4984792 2.08444468
    endloop
  endfacet
  facet normal -0.459163071 0.857150027 0.233373317
    outer loop
      vertex 2.92418534 2.62551775 2.12165093
      vertex 2.92665645 2.62716569 2.12046016
      vertex 2.92593058 2.6270517 2.11945067
    endloop
  endfacet
  facet normal 0.459163071 -0.857150027 -0.233373317
    outer loop
      vertex 2.99305981 2.49694525 2.08664494
      vertex 2.99480504 2.4984792 2.08444468
      vertex 2.99553091 2.49859319 2.08545416
    endloop
  endfacet
  facet normal 0.843054022 0.503261921 -0.189703335
    outer loop
      vertex 2.92665645 2.62716569 2.12046016
      vertex 2.92700611 2.6270288 2.12165093
      vertex 2.99588057 2.49845629 2.08664494
    endloop
  endfacet
  facet normal 0.843054022 0.503261921 -0.189703335
    outer loop
      vertex 2.92665645 2.62716569 2.12046016
      vertex 2.99588057 2.49845629 2.08664494
      vertex 2.99553091 2.49859319 2.08545416
    endloop
  endfacet
  facet normal -0.459163071 0.857150027 0.233373317
    outer loop
      vertex 2.92418534 2.62551775 2.12165093
      vertex 2.92700611 2.6270288 2.12165093
      vertex 2.92665645 2.62716569 2.12046016
    endloop
  endfacet
  facet normal 0.459163071 -0.857150027 -0.233373317
    outer loop
      vertex 2.99305981 2.49694525 2.08664494
      vertex 2.99553091 2.49859319 2.08545416
      vertex 2.99588057 2.49845629 2.08664494
    endloop
  endfacet
  facet normal 0.886051663 0.422995385 0.189703335
    outer loop
      vertex 2.92700611 2.6270288 2.12165093
      vertex 2.92692634 2.62666186 2.12284171
      vertex 2.99580081 2.49808935 2.08783571
    endloop
  endfacet
  facet normal 0.886051663 0.422995385 0.189703335
    outer loop
      vertex 2.92700611 2.6270288 2.12165093
      vertex 2.99580081 2.49808935 2.08783571
      vertex 2.99588057 2.49845629 2.08664494
    endloop
  endfacet
  facet normal -0.459163071 0.857150027 0.233373317
    outer loop
      vertex 2.92418534 2.62551775 2.12165093
      vertex 2.92692634 2.62666186 2.12284171
      vertex 2.92700611 2.6270288 2.12165093
    endloop
  endfacet
  facet normal 0.459163071 -0.857150027 -0.233373317
    outer loop
      vertex 2.99305981 2.49694525 2.08664494
      vertex 2.99588057 2.49845629 2.08664494
      vertex 2.99580081 2.49808935 2.08783571
    endloop
  endfacet
  facet normal 0.79415597 0.278331636 0.540229391
    outer loop
      vertex 2.92692634 2.62666186 2.12284171
      vertex 2.92642928 2.62612074 2.12385119
      vertex 2.99530374 2.49754823 2.0888452
    endloop
  endfacet
  facet normal 0.79415597 0.278331636 0.540229391
    outer loop
      vertex 2.92692634 2.62666186 2.12284171
      vertex 2.99530374 2.49754823 2.0888452
      vertex 2.99580081 2.49808935 2.08783571
    endloop
  endfacet
  facet normal -0.459163071 0.857150027 0.233373317
    outer loop
      vertex 2.92418534 2.62551775 2.12165093
      vertex 2.92642928 2.62612074 2.12385119
      vertex 2.92692634 2.62666186 2.12284171
    endloop
  endfacet
  facet normal 0.459163071 -0.857150027 -0.233373317
    outer loop
      vertex 2.99305981 2.49694525 2.08664494
      vertex 2.99580081 2.49808935 2.08783571
      vertex 2.99530374 2.49754823 2.0888452
    endloop
  endfacet
  facet normal 0.581357231 0.0912944179 0.80851042
    outer loop
      vertex 2.92642928 2.62612074 2.12385119
      vertex 2.9255906 2.62548782 2.12452571
      vertex 2.99446506 2.49691532 2.08951972
    endloop
  endfacet
  facet normal 0.581357231 0.0912944179 0.80851042
    outer loop
      vertex 2.92642928 2.62612074 2.12385119
      vertex 2.99446506 2.49691532 2.08951972
      vertex 2.99530374 2.49754823 2.0888452
    endloop
  endfacet
  facet normal -0.459163071 0.857150027 0.233373317
    outer loop
      vertex 2.92418534 2.62551775 2.12165093
      vertex 2.9255906 2.62548782 2.12452571
      vertex 2.92642928 2.62612074 2.12385119
    endloop
  endfacet
  facet normal 0.459163071 -0.857150027 -0.233373317
    outer loop
      vertex 2.99305981 2.49694525 2.08664494
      vertex 2.99530374 2.49754823 2.0888452
      vertex 2.99446506 2.49691532 2.08951972
    endloop
  endfacet
  facet normal 0.280052122 -0.109641547 0.953703067
    outer loop
      vertex 2.9255906 2.62548782 2.12452571
      vertex 2.92453798 2.62485946 2.12476257
      vertex 2.99341244 2.49628695 2.08975658
    endloop
  endfacet
  facet normal 0.280052122 -0.109641547 0.953703067
    outer loop
      vertex 2.9255906 2.62548782 2.12452571
      vertex 2.99341244 2.49628695 2.08975658
      vertex 2.99446506 2.49691532 2.08951972
    endloop
  endfacet
  facet normal -0.459163071 0.857150027 0.233373317
    outer loop
      vertex 2.92418534 2.62551775 2.12165093
      vertex 2.92453798 2.62485946 2.12476257
      vertex 2.9255906 2.62548782 2.12452571
    endloop
  endfacet
  facet normal 0.459163071 -0.857150027 -0.233373317
    outer loop
      vertex 2.99305981 2.49694525 2.08664494
      vertex 2.99446506 2.49691532 2.08951972
      vertex 2.99341244 2.49628695 2.08975658
    endloop
  endfacet
  facet normal -0.0638883826 -0.293885581 0.953703067
    outer loop
      vertex 2.92453798 2.62485946 2.12476257
      vertex 2.92343168 2.62433132 2.12452571
      vertex 2.99230614 2.49575881 2.08951972
    endloop
  endfacet
  facet normal -0.0638883826 -0.293885581 0.953703067
    outer loop
      vertex 2.92453798 2.62485946 2.12476257
      vertex 2.99230614 2.49575881 2.08951972
      vertex 2.99341244 2.49628695 2.08975658
    endloop
  endfacet
  facet normal -0.459163071 0.857150027 0.233373317
    outer loop
      vertex 2.92418534 2.62551775 2.12165093
      vertex 2.92343168 2.62433132 2.12452571
      vertex 2.92453798 2.62485946 2.12476257
    endloop
  endfacet
  facet normal 0.459163071 -0.857150027 -0.233373317
    outer loop
      vertex 2.99305981 2.49694525 2.08664494
      vertex 2.99341244 2.49628695 2.08975658
      vertex 2.99230614 2.49575881 2.08951972
    endloop
  endfacet
  facet normal -0.398102461 -0.433388199 0.80851042
    outer loop
      vertex 2.92343168 2.62433132 2.12452571
      vertex 2.92244011 2.6239838 2.12385119
      vertex 2.99131457 2.49541129 2.0888452
    endloop
  endfacet
  facet normal -0.398102461 -0.433388199 0.80851042
    outer loop
      vertex 2.92343168 2.62433132 2.12452571
      vertex 2.99131457 2.49541129 2.0888452
      vertex 2.99230614 2.49575881 2.08951972
    endloop
  endfacet
  facet normal -0.459163071 0.857150027 0.233373317
    outer loop
      vertex 2.92418534 2.62551775 2.12165093
      vertex 2.92244011 2.6239838 2.12385119
      vertex 2.92343168 2.62433132 2.12452571
    endloop
  endfacet
  facet normal 0.459163071 -0.857150027 -0.233373317
    outer loop
      vertex 2.99305981 2.49694525 2.08664494
      vertex 2.99230614 2.49575881 2.08951972
      vertex 2.99131457 2.49541129 2.0888452
    endloop
  endfacet
  facet normal -0.671709048 -0.506911392 0.540229391
    outer loop
      vertex 2.92244011 2.6239838 2.12385119
      vertex 2.92171424 2.62386981 2.12284171
      vertex 2.9905887 2.4952973 2.08783571
    endloop
  endfacet
  facet normal -0.671709048 -0.506911392 0.540229391
    outer loop
      vertex 2.92244011 2.6239838 2.12385119
      vertex 2.9905887 2.4952973 2.08783571
      vertex 2.99131457 2.49541129 2.0888452
    endloop
  endfacet
  facet normal -0.459163071 0.857150027 0.233373317
    outer loop
      vertex 2.92418534 2.62551775 2.12165093
      vertex 2.92171424 2.62386981 2.12284171
      vertex 2.92244011 2.6239838 2.12385119
    endloop
  endfacet
  facet normal 0.459163071 -0.857150027 -0.233373317
    outer loop
      vertex 2.99305981 2.49694525 2.08664494
      vertex 2.99131457 2.49541129 2.0888452
      vertex 2.9905887 2.4952973 2.08783571
    endloop
  endfacet
  facet normal -0.843054022 -0.503261921 0.189703335
    outer loop
      vertex 2.92171424 2.62386981 2.12284171
      vertex 2.92136458 2.6240067 2.12165093
      vertex 2.99023904 2.4954342 2.08664494
    endloop
  endfacet
  facet normal -0.843054022 -0.503261921 0.189703335
    outer loop
      vertex 2.92171424 2.62386981 2.12284171
      vertex 2.99023904 2.4954342 2.08664494
      vertex 2.9905887 2.4952973 2.08783571
    endloop
  endfacet
  facet normal -0.459163071 0.857150027 0.233373317
    outer loop
      vertex 2.92418534 2.62551775 2.12165093
      vertex 2.92136458 2.6240067 2.12165093
      vertex 2.92171424 2.62386981 2.12284171
    endloop
  endfacet
  facet normal 0.459163071 -0.857150027 -0.233373317
    outer loop
      vertex 2.99305981 2.49694525 2.08664494
      vertex 2.9905887 2.4952973 2.08783571
      vertex 2.99023904 2.4954342 2.08664494
    endloop
  endfacet
  facet normal -0.980808526 -0.192820918 -0.0288916806
    outer loop
      vertex 2.98617021 2.72296797 2.11867332
      vertex 2.98641364 2.72175763 2.11848689
      vertex 2.98649995 2.70502828 2.22720727
    endloop
  endfacet
  facet normal -0.980808526 -0.192820918 -0.0288916806
    outer loop
      vertex 2.98617021 2.72296797 2.11867332
      vertex 2.98649995 2.70502828 2.22720727
      vertex 2.98625652 2.70623862 2.22739371
    endloop
  endfacet
  facet normal -0.000784638176 0.152084986 -0.988367109
    outer loop
      vertex 2.9893702 2.72296797 2.11867078
      vertex 2.98641364 2.72175763 2.11848689
      vertex 2.98617021 2.72296797 2.11867332
    endloop
  endfacet
  facet normal 0.000784638176 -0.152084986 0.988367109
    outer loop
      vertex 2.98945651 2.70623862 2.22739117
      vertex 2.98625652 2.70623862 2.22739371
      vertex 2.98649995 2.70502828 2.22720727
    endloop
  endfacet
  facet normal -0.831536428 -0.549107518 -0.0838337832
    outer loop
      vertex 2.98641364 2.72175763 2.11848689
      vertex 2.98710719 2.72073155 2.11832845
      vertex 2.9871935 2.7040022 2.22704883
    endloop
  endfacet
  facet normal -0.831536428 -0.549107518 -0.0838337832
    outer loop
      vertex 2.98641364 2.72175763 2.11848689
      vertex 2.9871935 2.7040022 2.22704883
      vertex 2.98649995 2.70502828 2.22720727
    endloop
  endfacet
  facet normal -0.000784638176 0.152084986 -0.988367109
    outer loop
      vertex 2.9893702 2.72296797 2.11867078
      vertex 2.98710719 2.72073155 2.11832845
      vertex 2.98641364 2.72175763 2.11848689
    endloop
  endfacet
  facet normal 0.000784638176 -0.152084986 0.988367109
    outer loop
      vertex 2.98945651 2.70623862 2.22739117
      vertex 2.98649995 2.70502828 2.22720727
      vertex 2.9871935 2.7040022 2.22704883
    endloop
  endfacet
  facet normal -0.555670446 -0.821797476 -0.126012952
    outer loop
      vertex 2.98710719 2.72073155 2.11832845
      vertex 2.98814526 2.72004595 2.11822213
      vertex 2.98823157 2.7033166 2.22694251
    endloop
  endfacet
  facet normal -0.555670446 -0.821797476 -0.126012952
    outer loop
      vertex 2.98710719 2.72073155 2.11832845
      vertex 2.98823157 2.7033166 2.22694251
      vertex 2.9871935 2.7040022 2.22704883
    endloop
  endfacet
  facet normal -0.000784638176 0.152084986 -0.988367109
    outer loop
      vertex 2.9893702 2.72296797 2.11867078
      vertex 2.98814526 2.72004595 2.11822213
      vertex 2.98710719 2.72073155 2.11832845
    endloop
  endfacet
  facet normal 0.000784638176 -0.152084986 0.988367109
    outer loop
      vertex 2.98945651 2.70623862 2.22739117
      vertex 2.9871935 2.7040022 2.22704883
      vertex 2.98823157 2.7033166 2.22694251
    endloop
  endfacet
  facet normal -0.195208677 -0.969376217 -0.149007792
    outer loop
      vertex 2.98814526 2.72004595 2.11822213
      vertex 2.98936982 2.71980519 2.11818411
      vertex 2.98945613 2.70307584 2.22690449
    endloop
  endfacet
  facet normal -0.195208677 -0.969376217 -0.149007792
    outer loop
      vertex 2.98814526 2.72004595 2.11822213
      vertex 2.98945613 2.70307584 2.22690449
      vertex 2.98823157 2.7033166 2.22694251
    endloop
  endfacet
  facet normal -0.000784638176 0.152084986 -0.988367109
    outer loop
      vertex 2.9893702 2.72296797 2.11867078
      vertex 2.98936982 2.71980519 2.11818411
      vertex 2.98814526 2.72004595 2.11822213
    endloop
  endfacet
  facet normal 0.000784638176 -0.152084986 0.988367109
    outer loop
      vertex 2.98945651 2.70623862 2.22739117
      vertex 2.98823157 2.7033166 2.22694251
      vertex 2.98945613 2.70307584 2.22690449
    endloop
  endfacet
  facet normal 0.194971844 -0.969376217 -0.149317546
    outer loop
      vertex 2.98936982 2.71980519 2.11818411
      vertex 2.99059443 2.72004595 2.11822019
      vertex 2.99068074 2.7033166 2.22694057
    endloop
  endfacet
  facet normal 0.194971844 -0.969376217 -0.149317546
    outer loop
      vertex 2.98936982 2.71980519 2.11818411
      vertex 2.99068074 2.7033166 2.22694057
      vertex 2.98945613 2.70307584 2.22690449
    endloop
  endfacet
  facet normal -0.000784638176 0.152084986 -0.988367109
    outer loop
      vertex 2.9893702 2.72296797 2.11867078
      vertex 2.99059443 2.72004595 2.11822019
      vertex 2.98936982 2.71980519 2.11818411
    endloop
  endfacet
  facet normal 0.000784638176 -0.152084986 0.988367109
    outer loop
      vertex 2.98945651 2.70623862 2.22739117
      vertex 2.98945613 2.70307584 2.22690449
      vertex 2.99068074 2.7033166 2.22694057
    endloop
  endfacet
  facet normal 0.55546967 -0.821797476 -0.126895057
    outer loop
      vertex 2.99059443 2.72004595 2.11822019
      vertex 2.99163267 2.72073155 2.11832486
      vertex 2.99171898 2.7040022 2.22704524
    endloop
  endfacet
  facet normal 0.55546967 -0.821797476 -0.126895057
    outer loop
      vertex 2.99059443 2.72004595 2.11822019
      vertex 2.99171898 2.7040022 2.22704524
      vertex 2.99068074 2.7033166 2.22694057
    endloop
  endfacet
  facet normal -0.000784638176 0.152084986 -0.988367109
    outer loop
      vertex 2.9893702 2.72296797 2.11867078
      vertex 2.99163267 2.72073155 2.11832486
      vertex 2.99059443 2.72004595 2.11822019
    endloop
  endfacet
  facet normal 0.000784638176 -0.152084986 0.988367109
    outer loop
      vertex 2.98945651 2.70623862 2.22739117
      vertex 2.99068074 2.7033166 2.22694057
      vertex 2.99171898 2.7040022 2.22704524
    endloop
  endfacet
  facet normal 0.831402273 -0.549107518 -0.0851539457
    outer loop
      vertex 2.99163267 2.72073155 2.11832486
      vertex 2.99232647 2.72175763 2.1184822
      vertex 2.99241278 2.70502828 2.22720258
    endloop
  endfacet
  facet normal 0.831402273 -0.549107518 -0.0851539457
    outer loop
      vertex 2.99163267 2.72073155 2.11832486
      vertex 2.99241278 2.70502828 2.22720258
      vertex 2.99171898 2.7040022 2.22704524
    endloop
  endfacet
  facet normal -0.000784638176 0.152084986 -0.988367109
    outer loop
      vertex 2.9893702 2.72296797 2.11867078
      vertex 2.99232647 2.72175763 2.1184822
      vertex 2.99163267 2.72073155 2.11832486
    endloop
  endfacet
  facet normal 0.000784638176 -0.152084986 0.988367109
    outer loop
      vertex 2.98945651 2.70623862 2.22739117
      vertex 2.99171898 2.7040022 2.22704524
      vertex 2.99241278 2.70502828 2.22720258
    endloop
  endfacet
  facet normal 0.980761417 -0.192820918 -0.0304489185
    outer loop
      vertex 2.99232647 2.72175763 2.1184822
      vertex 2.9925702 2.72296797 2.11866824
      vertex 2.99265651 2.70623862 2.22738863
    endloop
  endfacet
  facet normal 0.980761417 -0.192820918 -0.0304489185
    outer loop
      vertex 2.99232647 2.72175763 2.1184822
      vertex 2.99265651 2.70623862 2.22738863
      vertex 2.99241278 2.70502828 2.22720258
    endloop
  endfacet
  facet normal -0.000784638176 0.152084986 -0.988367109
    outer loop
      vertex 2.9893702 2.72296797 2.11867078
      vertex 2.9925702 2.72296797 2.11866824
      vertex 2.99232647 2.72175763 2.1184822
    endloop
  endfacet
  facet normal 0.000784638176 -0.152084986 0.988367109
    outer loop
      vertex 2.98945651 2.70623862 2.22739117
      vertex 2.99241278 2.70502828 2.22720258
      vertex 2.99265651 2.70623862 2.22738863
    endloop
  endfacet
  facet normal 0.980808526 0.192820918 0.0288916806
    outer loop
      vertex 2.9925702 2.72296797 2.11866824
      vertex 2.99232677 2.72417831 2.11885468
      vertex 2.99241308 2.70744896 2.22757506
    endloop
  endfacet
  facet normal 0.980808526 0.192820918 0.0288916806
    outer loop
      vertex 2.9925702 2.72296797 2.11866824
      vertex 2.99241308 2.70744896 2.22757506
      vertex 2.99265651 2.70623862 2.22738863
    endloop
  endfacet
  facet normal -0.000784638176 0.152084986 -0.988367109
    outer loop
      vertex 2.9893702 2.72296797 2.11867078
      vertex 2.99232677 2.72417831 2.11885468
      vertex 2.9925702 2.72296797 2.11866824
    endloop
  endfacet
  facet normal 0.000784638176 -0.152084986 0.988367109
    outer loop
      vertex 2.98945651 2.70623862 2.22739117
      vertex 2.99265651 2.70623862 2.22738863
      vertex 2.99241308 2.70744896 2.22757506
    endloop
  endfacet
  facet normal 0.831536428 0.549107518 0.0838337832
    outer loop
      vertex 2.99232677 2.72417831 2.11885468
      vertex 2.99163322 2.72520439 2.11901312
      vertex 2.99171953 2.70847504 2.2277335
    endloop
  endfacet
  facet normal 0.831536428 0.549107518 0.0838337832
    outer loop
      vertex 2.99232677 2.72417831 2.11885468
      vertex 2.99171953 2.70847504 2.2277335
      vertex 2.99241308 2.70744896 2.22757506
    endloop
  endfacet
  facet normal -0.000784638176 0.152084986 -0.988367109
    outer loop
      vertex 2.9893702 2.72296797 2.11867078
      vertex 2.99163322 2.72520439 2.11901312
      vertex 2.99232677 2.72417831 2.11885468
    endloop
  endfacet
  facet normal 0.000784638176 -0.152084986 0.988367109
    outer loop
      vertex 2.98945651 2.70623862 2.22739117
      vertex 2.99241308 2.70744896 2.22757506
      vertex 2.99171953 2.70847504 2.2277335
    endloop
  endfacet
  facet normal 0.555670446 0.821797476 0.126012952
    outer loop
      vertex 2.99163322 2.72520439 2.11901312
      vertex 2.99059515 2.72588999 2.11911944
      vertex 2.99068146 2.70916064 2.22783982
    endloop
  endfacet
  facet normal 0.555670446 0.821797476 0.126012952
    outer loop
      vertex 2.99163322 2.72520439 2.11901312
      vertex 2.99068146 2.70916064 2.22783982
      vertex 2.99171953 2.70847504 2.2277335
    endloop
  endfacet
  facet normal -0.000784638176 0.152084986 -0.988367109
    outer loop
      vertex 2.9893702 2.72296797 2.11867078
      vertex 2.99059515 2.72588999 2.11911944
      vertex 2.99163322 2.72520439 2.11901312
    endloop
  endfacet
  facet normal 0.000784638176 -0.152084986 0.988367109
    outer loop
      vertex 2.98945651 2.70623862 2.22739117
      vertex 2.99171953 2.70847504 2.2277335
      vertex 2.99068146 2.70916064 2.22783982
    endloop
  endfacet
  facet normal 0.195208677 0.969376217 0.149007792
    outer loop
      vertex 2.99059515 2.72588999 2.11911944
      vertex 2.98937059 2.72613074 2.11915746
      vertex 2.9894569 2.7094014 2.22787784
    endloop
  endfacet
  facet normal 0.195208677 0.969376217 0.149007792
    outer loop
      vertex 2.99059515 2.72588999 2.11911944
      vertex 2.9894569 2.7094014 2.22787784
      vertex 2.99068146 2.70916064 2.22783982
    endloop
  endfacet
  facet normal -0.000784638176 0.152084986 -0.988367109
    outer loop
      vertex 2.9893702 2.72296797 2.11867078
      vertex 2.98937059 2.72613074 2.11915746
      vertex 2.99059515 2.72588999 2.11911944
    endloop
  endfacet
  facet normal 0.000784638176 -0.152084986 0.988367109
    outer loop
      vertex 2.98945651 2.70623862 2.22739117
      vertex 2.99068146 2.70916064 2.22783982
      vertex 2.9894569 2.7094014 2.22787784
    endloop
  endfacet
  facet normal -0.194971844 0.969376217 0.149317546
    outer loop
      vertex 2.98937059 2.72613074 2.11915746
      vertex 2.98814597 2.72588999 2.11912138
      vertex 2.98823228 2.70916064 2.22784176
    endloop
  endfacet
  facet normal -0.194971844 0.969376217 0.149317546
    outer loop
      vertex 2.98937059 2.72613074 2.11915746
      vertex 2.98823228 2.70916064 2.22784176
      vertex 2.9894569 2.7094014 2.22787784
    endloop
  endfacet
  facet normal -0.000784638176 0.152084986 -0.988367109
    outer loop
      vertex 2.9893702 2.72296797 2.11867078
      vertex 2.98814597 2.72588999 2.11912138
      vertex 2.98937059 2.72613074 2.11915746
    endloop
  endfacet
  facet normal 0.000784638176 -0.152084986 0.988367109
    outer loop
      vertex 2.98945651 2.70623862 2.22739117
      vertex 2.9894569 2.7094014 2.22787784
      vertex 2.98823228 2.70916064 2.22784176
    endloop
  endfacet
  facet normal -0.55546967 0.821797476 0.126895057
    outer loop
      vertex 2.98814597 2.72588999 2.11912138
      vertex 2.98710774 2.72520439 2.11901671
      vertex 2.98719405 2.70847504 2.22773709
    endloop
  endfacet
  facet normal -0.55546967 0.821797476 0.126895057
    outer loop
      vertex 2.98814597 2.72588999 2.11912138
      vertex 2.98719405 2.70847504 2.22773709
      vertex 2.98823228 2.70916064 2.22784176
    endloop
  endfacet
  facet normal -0.000784638176 0.152084986 -0.988367109
    outer loop
      vertex 2.9893702 2.72296797 2.11867078
      vertex 2.98710774 2.72520439 2.11901671
      vertex 2.98814597 2.72588999 2.11912138
    endloop
  endfacet
  facet normal 0.000784638176 -0.152084986 0.988367109
    outer loop
      vertex 2.98945651 2.70623862 2.22739117
      vertex 2.98823228 2.70916064 2.22784176
      vertex 2.98719405 2.70847504 2.22773709
    endloop
  endfacet
  facet normal -0.831402273 0.549107518 0.0851539457
    outer loop
      vertex 2.98710774 2.72520439 2.11901671
      vertex 2.98641394 2.72417831 2.11885937
      vertex 2.98650025 2.70744896 2.22757975
    endloop
  endfacet
  facet normal -0.831402273 0.549107518 0.0851539457
    outer loop
      vertex 2.98710774 2.72520439 2.11901671
      vertex 2.98650025 2.70744896 2.22757975
      vertex 2.98719405 2.70847504 2.22773709
    endloop
  endfacet
  facet normal -0.000784638176 0.152084986 -0.988367109
    outer loop
      vertex 2.9893702 2.72296797 2.11867078
      vertex 2.98641394 2.72417831 2.11885937
      vertex 2.98710774 2.72520439 2.11901671
    endloop
  endfacet
  facet normal 0.000784638176 -0.152084986 0.988367109
    outer loop
      vertex 2.98945651 2.70623862 2.22739117
      vertex 2.98719405 2.70847504 2.22773709
      vertex 2.98650025 2.70744896 2.22757975
    endloop
  endfacet
  facet normal -0.980761417 0.192820918 0.0304489185
    outer loop
      vertex 2.98641394 2.72417831 2.11885937
      vertex 2.98617021 2.72296797 2.11867332
      vertex 2.98625652 2.70623862 2.22739371
    endloop
  endfacet
  facet normal -0.980761417 0.192820918 0.0304489185
    outer loop
      vertex 2.98641394 2.72417831 2.11885937
      vertex 2.98625652 2.70623862 2.22739371
      vertex 2.98650025 2.70744896 2.22757975
    endloop
  endfacet
  facet normal -0.000784638176 0.152084986 -0.988367109
    outer loop
      vertex 2.9893702 2.72296797 2.11867078
      vertex 2.98617021 2.72296797 2.11867332
      vertex 2.98641394 2.72417831 2.11885937
    endloop
  endfacet
  facet normal 0.000784638176 -0.152084986 0.988367109
    outer loop
      vertex 2.98945651 2.70623862 2.22739117
      vertex 2.98650025 2.70744896 2.22757975
      vertex 2.98625652 2.70623862 2.22739371
    endloop
  endfacet
  facet normal -0.980808526 -0.192820918 -0.0288916806
    outer loop
      vertex 3.00168932 2.69759443 2.11475665
      vertex 3.00193276 2.69638408 2.11457022
      vertex 3.00201907 2.67965474 2.2232906
    endloop
  endfacet
  facet normal -0.980808526 -0.192820918 -0.0288916806
    outer loop
      vertex 3.00168932 2.69759443 2.11475665
      vertex 3.00201907 2.67965474 2.2232906
      vertex 3.00177563 2.68086508 2.22347703
    endloop
  endfacet
  facet normal -0.000784638176 0.152084986 -0.988367109
    outer loop
      vertex 3.00488932 2.69759443 2.11475411
      vertex 3.00193276 2.69638408 2.11457022
      vertex 3.00168932 2.69759443 2.11475665
    endloop
  endfacet
  facet normal 0.000784638176 -0.152084986 0.988367109
    outer loop
      vertex 3.00497563 2.68086508 2.22347449
      vertex 3.00177563 2.68086508 2.22347703
      vertex 3.00201907 2.67965474 2.2232906
    endloop
  endfacet
  facet normal -0.831536428 -0.549107518 -0.0838337832
    outer loop
      vertex 3.00193276 2.69638408 2.11457022
      vertex 3.00262631 2.69535801 2.11441178
      vertex 3.00271262 2.67862866 2.22313216
    endloop
  endfacet
  facet normal -0.831536428 -0.549107518 -0.0838337832
    outer loop
      vertex 3.00193276 2.69638408 2.11457022
      vertex 3.00271262 2.67862866 2.22313216
      vertex 3.00201907 2.67965474 2.2232906
    endloop
  endfacet
  facet normal -0.000784638176 0.152084986 -0.988367109
    outer loop
      vertex 3.00488932 2.69759443 2.11475411
      vertex 3.00262631 2.69535801 2.11441178
      vertex 3.00193276 2.69638408 2.11457022
    endloop
  endfacet
  facet normal 0.000784638176 -0.152084986 0.988367109
    outer loop
      vertex 3.00497563 2.68086508 2.22347449
      vertex 3.00201907 2.67965474 2.2232906
      vertex 3.00271262 2.67862866 2.22313216
    endloop
  endfacet
  facet normal -0.555670446 -0.821797476 -0.126012952
    outer loop
      vertex 3.00262631 2.69535801 2.11441178
      vertex 3.00366438 2.6946724 2.11430546
      vertex 3.00375069 2.67794305 2.22302584
    endloop
  endfacet
  facet normal -0.555670446 -0.821797476 -0.126012952
    outer loop
      vertex 3.00262631 2.69535801 2.11441178
      vertex 3.00375069 2.67794305 2.22302584
      vertex 3.00271262 2.67862866 2.22313216
    endloop
  endfacet
  facet normal -0.000784638176 0.152084986 -0.988367109
    outer loop
      vertex 3.00488932 2.69759443 2.11475411
      vertex 3.00366438 2.6946724 2.11430546
      vertex 3.00262631 2.69535801 2.11441178
    endloop
  endfacet
  facet normal 0.000784638176 -0.152084986 0.988367109
    outer loop
      vertex 3.00497563 2.68086508 2.22347449
      vertex 3.00271262 2.67862866 2.22313216
      vertex 3.00375069 2.67794305 2.22302584
    endloop
  endfacet
  facet normal -0.195208677 -0.969376217 -0.149007792
    outer loop
      vertex 3.00366438 2.6946724 2.11430546
      vertex 3.00488894 2.69443165 2.11426744
      vertex 3.00497525 2.6777023 2.22298782
    endloop
  endfacet
  facet normal -0.195208677 -0.969376217 -0.149007792
    outer loop
      vertex 3.00366438 2.6946724 2.11430546
      vertex 3.00497525 2.6777023 2.22298782
      vertex 3.00375069 2.67794305 2.22302584
    endloop
  endfacet
  facet normal -0.000784638176 0.152084986 -0.988367109
    outer loop
      vertex 3.00488932 2.69759443 2.11475411
      vertex 3.00488894 2.69443165 2.11426744
      vertex 3.00366438 2.6946724 2.11430546
    endloop
  endfacet
  facet normal 0.000784638176 -0.152084986 0.988367109
    outer loop
      vertex 3.00497563 2.68086508 2.22347449
      vertex 3.00375069 2.67794305 2.22302584
      vertex 3.00497525 2.6777023 2.22298782
    endloop
  endfacet
  facet normal 0.194971844 -0.969376217 -0.149317546
    outer loop
      vertex 3.00488894 2.69443165 2.11426744
      vertex 3.00611355 2.6946724 2.11430351
      vertex 3.00619986 2.67794305 2.22302389
    endloop
  endfacet
  facet normal 0.194971844 -0.969376217 -0.149317546
    outer loop
      vertex 3.00488894 2.69443165 2.11426744
      vertex 3.00619986 2.67794305 2.22302389
      vertex 3.00497525 2.6777023 2.22298782
    endloop
  endfacet
  facet normal -0.000784638176 0.152084986 -0.988367109
    outer loop
      vertex 3.00488932 2.69759443 2.11475411
      vertex 3.00611355 2.6946724 2.11430351
      vertex 3.00488894 2.69443165 2.11426744
    endloop
  endfacet
  facet normal 0.000784638176 -0.152084986 0.988367109
    outer loop
      vertex 3.00497563 2.68086508 2.22347449
      vertex 3.00497525 2.6777023 2.22298782
      vertex 3.00619986 2.67794305 2.22302389
    endloop
  endfacet
  facet normal 0.55546967 -0.821797476 -0.126895057
    outer loop
      vertex 3.00611355 2.6946724 2.11430351
      vertex 3.00715179 2.69535801 2.11440818
      vertex 3.0072381 2.67862866 2.22312857
    endloop
  endfacet
  facet normal 0.55546967 -0.821797476 -0.126895057
    outer loop
      vertex 3.00611355 2.6946724 2.11430351
      vertex 3.0072381 2.67862866 2.22312857
      vertex 3.00619986 2.67794305 2.22302389
    endloop
  endfacet
  facet normal -0.000784638176 0.152084986 -0.988367109
    outer loop
      vertex 3.00488932 2.69759443 2.11475411
      vertex 3.00715179 2.69535801 2.11440818
      vertex 3.00611355 2.6946724 2.11430351
    endloop
  endfacet
  facet normal 0.000784638176 -0.152084986 0.988367109
    outer loop
      vertex 3.00497563 2.68086508 2.22347449
      vertex 3.00619986 2.67794305 2.22302389
      vertex 3.0072381 2.67862866 2.22312857
    endloop
  endfacet
  facet normal 0.831402273 -0.549107518 -0.0851539457
    outer loop
      vertex 3.00715179 2.69535801 2.11440818
      vertex 3.00784559 2.69638408 2.11456552
      vertex 3.0079319 2.67965474 2.2232859
    endloop
  endfacet
  facet normal 0.831402273 -0.549107518 -0.0851539457
    outer loop
      vertex 3.00715179 2.69535801 2.11440818
      vertex 3.0079319 2.67965474 2.2232859
      vertex 3.0072381 2.67862866 2.22312857
    endloop
  endfacet
  facet normal -0.000784638176 0.152084986 -0.988367109
    outer loop
      vertex 3.00488932 2.69759443 2.11475411
      vertex 3.00784559 2.69638408 2.11456552
      vertex 3.00715179 2.69535801 2.11440818
    endloop
  endfacet
  facet normal 0.000784638176 -0.152084986 0.988367109
    outer loop
      vertex 3.00497563 2.68086508 2.22347449
      vertex 3.0072381 2.67862866 2.22312857
      vertex 3.0079319 2.67965474 2.2232859
    endloop
  endfacet
  facet normal 0.980761417 -0.192820918 -0.0304489185
    outer loop
      vertex 3.00784559 2.69638408 2.11456552
      vertex 3.00808932 2.69759443 2.11475157
      vertex 3.00817563 2.68086508 2.22347195
    endloop
  endfacet
  facet normal 0.980761417 -0.192820918 -0.0304489185
    outer loop
      vertex 3.00784559 2.69638408 2.11456552
      vertex 3.00817563 2.68086508 2.22347195
      vertex 3.0079319 2.67965474 2.2232859
    endloop
  endfacet
  facet normal -0.000784638176 0.152084986 -0.988367109
    outer loop
      vertex 3.00488932 2.69759443 2.11475411
      vertex 3.00808932 2.69759443 2.11475157
      vertex 3.00784559 2.69638408 2.11456552
    endloop
  endfacet
  facet normal 0.000784638176 -0.152084986 0.988367109
    outer loop
      vertex 3.00497563 2.68086508 2.22347449
      vertex 3.0079319 2.67965474 2.2232859
      vertex 3.00817563 2.68086508 2.22347195
    endloop
  endfacet
  facet normal 0.980808526 0.192820918 0.0288916806
    outer loop
      vertex 3.00808932 2.69759443 2.11475157
      vertex 3.00784588 2.69880477 2.114938
      vertex 3.00793219 2.68207542 2.22365839
    endloop
  endfacet
  facet normal 0.980808526 0.192820918 0.0288916806
    outer loop
      vertex 3.00808932 2.69759443 2.11475157
      vertex 3.00793219 2.68207542 2.22365839
      vertex 3.00817563 2.68086508 2.22347195
    endloop
  endfacet
  facet normal -0.000784638176 0.152084986 -0.988367109
    outer loop
      vertex 3.00488932 2.69759443 2.11475411
      vertex 3.00784588 2.69880477 2.114938
      vertex 3.00808932 2.69759443 2.11475157
    endloop
  endfacet
  facet normal 0.000784638176 -0.152084986 0.988367109
    outer loop
      vertex 3.00497563 2.68086508 2.22347449
      vertex 3.00817563 2.68086508 2.22347195
      vertex 3.00793219 2.68207542 2.22365839
    endloop
  endfacet
  facet normal 0.831536428 0.549107518 0.0838337832
    outer loop
      vertex 3.00784588 2.69880477 2.114938
      vertex 3.00715234 2.69983085 2.11509644
      vertex 3.00723865 2.6831015 2.22381682
    endloop
  endfacet
  facet normal 0.831536428 0.549107518 0.0838337832
    outer loop
      vertex 3.00784588 2.69880477 2.114938
      vertex 3.00723865 2.6831015 2.22381682
      vertex 3.00793219 2.68207542 2.22365839
    endloop
  endfacet
  facet normal -0.000784638176 0.152084986 -0.988367109
    outer loop
      vertex 3.00488932 2.69759443 2.11475411
      vertex 3.00715234 2.69983085 2.11509644
      vertex 3.00784588 2.69880477 2.114938
    endloop
  endfacet
  facet normal 0.000784638176 -0.152084986 0.988367109
    outer loop
      vertex 3.00497563 2.68086508 2.22347449
      vertex 3.00793219 2.68207542 2.22365839
      vertex 3.00723865 2.6831015 2.22381682
    endloop
  endfacet
  facet normal 0.555670446 0.821797476 0.126012952
    outer loop
      vertex 3.00715234 2.69983085 2.11509644
      vertex 3.00611427 2.70051645 2.11520276
      vertex 3.00620058 2.6837871 2.22392315
    endloop
  endfacet
  facet normal 0.555670446 0.821797476 0.126012952
    outer loop
      vertex 3.00715234 2.69983085 2.11509644
      vertex 3.00620058 2.6837871 2.22392315
      vertex 3.00723865 2.6831015 2.22381682
    endloop
  endfacet
  facet normal -0.000784638176 0.152084986 -0.988367109
    outer loop
      vertex 3.00488932 2.69759443 2.11475411
      vertex 3.00611427 2.70051645 2.11520276
      vertex 3.00715234 2.69983085 2.11509644
    endloop
  endfacet
  facet normal 0.000784638176 -0.152084986 0.988367109
    outer loop
      vertex 3.00497563 2.68086508 2.22347449
      vertex 3.00723865 2.6831015 2.22381682
      vertex 3.00620058 2.6837871 2.22392315
    endloop
  endfacet
  facet normal 0.195208677 0.969376217 0.149007792
    outer loop
      vertex 3.00611427 2.70051645 2.11520276
      vertex 3.00488971 2.7007572 2.11524078
      vertex 3.00497602 2.68402785 2.22396116
    endloop
  endfacet
  facet normal 0.195208677 0.969376217 0.149007792
    outer loop
      vertex 3.00611427 2.70051645 2.11520276
      vertex 3.00497602 2.68402785 2.22396116
      vertex 3.00620058 2.6837871 2.22392315
    endloop
  endfacet
  facet normal -0.000784638176 0.152084986 -0.988367109
    outer loop
      vertex 3.00488932 2.69759443 2.11475411
      vertex 3.00488971 2.7007572 2.11524078
      vertex 3.00611427 2.70051645 2.11520276
    endloop
  endfacet
  facet normal 0.000784638176 -0.152084986 0.988367109
    outer loop
      vertex 3.00497563 2.68086508 2.22347449
      vertex 3.00620058 2.6837871 2.22392315
      vertex 3.00497602 2.68402785 2.22396116
    endloop
  endfacet
  facet normal -0.194971844 0.969376217 0.149317546
    outer loop
      vertex 3.00488971 2.7007572 2.11524078
      vertex 3.00366509 2.70051645 2.11520471
      vertex 3.0037514 2.6837871 2.22392509
    endloop
  endfacet
  facet normal -0.194971844 0.969376217 0.149317546
    outer loop
      vertex 3.00488971 2.7007572 2.11524078
      vertex 3.0037514 2.6837871 2.22392509
      vertex 3.00497602 2.68402785 2.22396116
    endloop
  endfacet
  facet normal -0.000784638176 0.152084986 -0.988367109
    outer loop
      vertex 3.00488932 2.69759443 2.11475411
      vertex 3.00366509 2.70051645 2.11520471
      vertex 3.00488971 2.7007572 2.11524078
    endloop
  endfacet
  facet normal 0.000784638176 -0.152084986 0.988367109
    outer loop
      vertex 3.00497563 2.68086508 2.22347449
      vertex 3.00497602 2.68402785 2.22396116
      vertex 3.0037514 2.6837871 2.22392509
    endloop
  endfacet
  facet normal -0.55546967 0.821797476 0.126895057
    outer loop
      vertex 3.00366509 2.70051645 2.11520471
      vertex 3.00262685 2.69983085 2.11510004
      vertex 3.00271316 2.6831015 2.22382042
    endloop
  endfacet
  facet normal -0.55546967 0.821797476 0.126895057
    outer loop
      vertex 3.00366509 2.70051645 2.11520471
      vertex 3.00271316 2.6831015 2.22382042
      vertex 3.0037514 2.6837871 2.22392509
    endloop
  endfacet
  facet normal -0.000784638176 0.152084986 -0.988367109
    outer loop
      vertex 3.00488932 2.69759443 2.11475411
      vertex 3.00262685 2.69983085 2.11510004
      vertex 3.00366509 2.70051645 2.11520471
    endloop
  endfacet
  facet normal 0.000784638176 -0.152084986 0.988367109
    outer loop
      vertex 3.00497563 2.68086508 2.22347449
      vertex 3.0037514 2.6837871 2.22392509
      vertex 3.00271316 2.6831015 2.22382042
    endloop
  endfacet
  facet normal -0.831402273 0.549107518 0.0851539457
    outer loop
      vertex 3.00262685 2.69983085 2.11510004
      vertex 3.00193306 2.69880477 2.1149427
      vertex 3.00201937 2.68207542 2.22366308
    endloop
  endfacet
  facet normal -0.831402273 0.549107518 0.0851539457
    outer loop
      vertex 3.00262685 2.69983085 2.11510004
      vertex 3.00201937 2.68207542 2.22366308
      vertex 3.00271316 2.6831015 2.22382042
    endloop
  endfacet
  facet normal -0.000784638176 0.152084986 -0.988367109
    outer loop
      vertex 3.00488932 2.69759443 2.11475411
      vertex 3.00193306 2.69880477 2.1149427
      vertex 3.00262685 2.69983085 2.11510004
    endloop
  endfacet
  facet normal 0.000784638176 -0.152084986 0.988367109
    outer loop
      vertex 3.00497563 2.68086508 2.22347449
      vertex 3.00271316 2.6831015 2.22382042
      vertex 3.00201937 2.68207542 2.22366308
    endloop
  endfacet
  facet normal -0.980761417 0.192820918 0.0304489185
    outer loop
      vertex 3.00193306 2.69880477 2.1149427
      vertex 3.00168932 2.69759443 2.11475665
      vertex 3.00177563 2.68086508 2.22347703
    endloop
  endfacet
  facet normal -0.980761417 0.192820918 0.0304489185
    outer loop
      vertex 3.00193306 2.69880477 2.1149427
      vertex 3.00177563 2.68086508 2.22347703
      vertex 3.00201937 2.68207542 2.22366308
    endloop
  endfacet
  facet normal -0.000784638176 0.152084986 -0.988367109
    outer loop
      vertex 3.00488932 2.69759443 2.11475411
      vertex 3.00168932 2.69759443 2.11475665
      vertex 3.00193306 2.69880477 2.1149427
    endloop
  endfacet
  facet normal 0.000784638176 -0.152084986 0.988367109
    outer loop
      vertex 3.00497563 2.68086508 2.22347449
      vertex 3.00201937 2.68207542 2.22366308
      vertex 3.00177563 2.68086508 2.22347703
    endloop
  endfacet
endsolid e18_features
