solid f14_blank
  facet normal 0.714282752 -0.117857615 0.689862112
    outer loop
      vertex 5.96357158 1.49046666 0.0106544266
      vertex 5.95210833 1.54539309 0.0319072183
      vertex 5.63691928 1.36524711 0.327477191
    endloop
  endfacet
  facet normal 0.714282752 -0.117857615 0.689862112
    outer loop
      vertex 5.96357158 1.49046666 0.0106544266
      vertex 5.63691928 1.36524711 0.327477191
      vertex 5.64838253 1.31032068 0.306224399
    endloop
  endfacet
  facet normal 0.191054069 -0.915440525 -0.354213195
    outer loop
      vertex 5.96357158 1.49046666 0.0106544266
      vertex 5.64838253 1.31032068 0.306224399
      vertex 5.59123991 1.31974929 0.251035431
    endloop
  endfacet
  facet normal 0.191054069 -0.915440525 -0.354213195
    outer loop
      vertex 5.96357158 1.49046666 0.0106544266
      vertex 5.59123991 1.31974929 0.251035431
      vertex 5.90642896 1.49989527 -0.0445345423
    endloop
  endfacet
  facet normal -0.673274456 -0.384809339 0.631366201
    outer loop
      vertex 5.64838253 1.31032068 0.306224399
      vertex 5.63691928 1.36524711 0.327477191
      vertex 5.57977666 1.37467572 0.272288222
    endloop
  endfacet
  facet normal -0.673274456 -0.384809339 0.631366201
    outer loop
      vertex 5.64838253 1.31032068 0.306224399
      vertex 5.57977666 1.37467572 0.272288222
      vertex 5.59123991 1.31974929 0.251035431
    endloop
  endfacet
  facet normal -0.191054069 0.915440525 0.354213195
    outer loop
      vertex 5.63691928 1.36524711 0.327477191
      vertex 5.95210833 1.54539309 0.0319072183
      vertex 5.89496571 1.5548217 -0.0232817506
    endloop
  endfacet
  facet normal -0.191054069 0.915440525 0.354213195
    outer loop
      vertex 5.63691928 1.36524711 0.327477191
      vertex 5.89496571 1.5548217 -0.0232817506
      vertex 5.57977666 1.37467572 0.272288222
    endloop
  endfacet
  facet normal 0.673274456 0.384809339 -0.631366201
    outer loop
      vertex 5.95210833 1.54539309 0.0319072183
      vertex 5.96357158 1.49046666 0.0106544266
      vertex 5.90642896 1.49989527 -0.0445345423
    endloop
  endfacet
  facet normal 0.673274456 0.384809339 -0.631366201
    outer loop
      vertex 5.95210833 1.54539309 0.0319072183
      vertex 5.90642896 1.49989527 -0.0445345423
      vertex 5.89496571 1.5548217 -0.0232817506
    endloop
  endfacet
  facet normal -0.714282752 0.117857615 -0.689862112
    outer loop
      vertex 5.90642896 1.49989527 -0.0445345423
      vertex 5.59123991 1.31974929 0.251035431
      vertex 5.57977666 1.37467572 0.272288222
    endloop
  endfacet
  facet normal -0.714282752 0.117857615 -0.689862112
    outer loop
      vertex 5.90642896 1.49989527 -0.0445345423
      vertex 5.57977666 1.37467572 0.272288222
      vertex 5.89496571 1.5548217 -0.0232817506
    endloop
  endfacet
endsolid f14_blank
