solid f5_features
  facet normal -0.339483378 -0.932679812 -0.121899154
    outer loop
      vertex 0.276940579 0.301570636 1.12211122
      vertex 0.27638384 0.301835785 1.12163299
      vertex 0.331553054 0.290938795 1.05136484
    endloop
  endfacet
  facet normal -0.339483378 -0.932679812 -0.121899154
    outer loop
      vertex 0.276940579 0.301570636 1.12211122
      vertex 0.331553054 0.290938795 1.05136484
      vertex 0.332109793 0.290673646 1.05184306
    endloop
  endfacet
  facet normal -0.612991265 0.121077666 0.780757266
    outer loop
      vertex 0.27732813 0.303532728 1.12211122
      vertex 0.27638384 0.301835785 1.12163299
      vertex 0.276940579 0.301570636 1.12211122
    endloop
  endfacet
  facet normal 0.612991265 -0.121077666 -0.780757266
    outer loop
      vertex 0.332497344 0.292635738 1.05184306
      vertex 0.332109793 0.290673646 1.05184306
      vertex 0.331553054 0.290938795 1.05136484
    endloop
  endfacet
  facet normal -0.58666237 -0.731656672 -0.347139422
    outer loop
      vertex 0.27638384 0.301835785 1.12163299
      vertex 0.275970861 0.302359278 1.12122757
      vertex 0.331140075 0.291462288 1.05095942
    endloop
  endfacet
  facet normal -0.58666237 -0.731656672 -0.347139422
    outer loop
      vertex 0.27638384 0.301835785 1.12163299
      vertex 0.331140075 0.291462288 1.05095942
      vertex 0.331553054 0.290938795 1.05136484
    endloop
  endfacet
  facet normal -0.612991265 0.121077666 0.780757266
    outer loop
      vertex 0.27732813 0.303532728 1.12211122
      vertex 0.275970861 0.302359278 1.12122757
      vertex 0.27638384 0.301835785 1.12163299
    endloop
  endfacet
  facet normal 0.612991265 -0.121077666 -0.780757266
    outer loop
      vertex 0.332497344 0.292635738 1.05184306
      vertex 0.331553054 0.290938795 1.05136484
      vertex 0.331140075 0.291462288 1.05095942
    endloop
  endfacet
  facet normal -0.744527334 -0.419245436 -0.519530859
    outer loop
      vertex 0.275970861 0.302359278 1.12122757
      vertex 0.275764514 0.303061419 1.12095668
      vertex 0.330933728 0.292164429 1.05068852
    endloop
  endfacet
  facet normal -0.744527334 -0.419245436 -0.519530859
    outer loop
      vertex 0.275970861 0.302359278 1.12122757
      vertex 0.330933728 0.292164429 1.05068852
      vertex 0.331140075 0.291462288 1.05095942
    endloop
  endfacet
  facet normal -0.612991265 0.121077666 0.780757266
    outer loop
      vertex 0.27732813 0.303532728 1.12211122
      vertex 0.275764514 0.303061419 1.12095668
      vertex 0.275970861 0.302359278 1.12122757
    endloop
  endfacet
  facet normal 0.612991265 -0.121077666 -0.780757266
    outer loop
      vertex 0.332497344 0.292635738 1.05184306
      vertex 0.331140075 0.291462288 1.05095942
      vertex 0.330933728 0.292164429 1.05068852
    endloop
  endfacet
  facet normal -0.789044761 -0.0430078829 -0.612828433
    outer loop
      vertex 0.275764514 0.303061419 1.12095668
      vertex 0.275796213 0.303835311 1.12086155
      vertex 0.330965427 0.292938321 1.0505934
    endloop
  endfacet
  facet normal -0.789044761 -0.0430078829 -0.612828433
    outer loop
      vertex 0.275764514 0.303061419 1.12095668
      vertex 0.330965427 0.292938321 1.0505934
      vertex 0.330933728 0.292164429 1.05068852
    endloop
  endfacet
  facet normal -0.612991265 0.121077666 0.780757266
    outer loop
      vertex 0.27732813 0.303532728 1.12211122
      vertex 0.275796213 0.303835311 1.12086155
      vertex 0.275764514 0.303061419 1.12095668
    endloop
  endfacet
  facet normal 0.612991265 -0.121077666 -0.780757266
    outer loop
      vertex 0.332497344 0.292635738 1.05184306
      vertex 0.330933728 0.292164429 1.05068852
      vertex 0.330965427 0.292938321 1.0505934
    endloop
  endfacet
  facet normal -0.713437275 0.339777231 -0.612828433
    outer loop
      vertex 0.275796213 0.303835311 1.12086155
      vertex 0.276061133 0.304563139 1.12095668
      vertex 0.331230346 0.293666149 1.05068852
    endloop
  endfacet
  facet normal -0.713437275 0.339777231 -0.612828433
    outer loop
      vertex 0.275796213 0.303835311 1.12086155
      vertex 0.331230346 0.293666149 1.05068852
      vertex 0.330965427 0.292938321 1.0505934
    endloop
  endfacet
  facet normal -0.612991265 0.121077666 0.780757266
    outer loop
      vertex 0.27732813 0.303532728 1.12211122
      vertex 0.276061133 0.304563139 1.12095668
      vertex 0.275796213 0.303835311 1.12086155
    endloop
  endfacet
  facet normal 0.612991265 -0.121077666 -0.780757266
    outer loop
      vertex 0.332497344 0.292635738 1.05184306
      vertex 0.330965427 0.292938321 1.0505934
      vertex 0.331230346 0.293666149 1.05068852
    endloop
  endfacet
  facet normal -0.529215432 0.670834341 -0.519530859
    outer loop
      vertex 0.276061133 0.304563139 1.12095668
      vertex 0.276518941 0.305134095 1.12122757
      vertex 0.331688155 0.294237105 1.05095942
    endloop
  endfacet
  facet normal -0.529215432 0.670834341 -0.519530859
    outer loop
      vertex 0.276061133 0.304563139 1.12095668
      vertex 0.331688155 0.294237105 1.05095942
      vertex 0.331230346 0.293666149 1.05068852
    endloop
  endfacet
  facet normal -0.612991265 0.121077666 0.780757266
    outer loop
      vertex 0.27732813 0.303532728 1.12211122
      vertex 0.276518941 0.305134095 1.12122757
      vertex 0.276061133 0.304563139 1.12095668
    endloop
  endfacet
  facet normal 0.612991265 -0.121077666 -0.780757266
    outer loop
      vertex 0.332497344 0.292635738 1.05184306
      vertex 0.331230346 0.293666149 1.05068852
      vertex 0.331688155 0.294237105 1.05095942
    endloop
  endfacet
  facet normal -0.264425337 0.899763004 -0.347139422
    outer loop
      vertex 0.276518941 0.305134095 1.12122757
      vertex 0.277099942 0.305461258 1.12163299
      vertex 0.332269155 0.294564268 1.05136484
    endloop
  endfacet
  facet normal -0.264425337 0.899763004 -0.347139422
    outer loop
      vertex 0.276518941 0.305134095 1.12122757
      vertex 0.332269155 0.294564268 1.05136484
      vertex 0.331688155 0.294237105 1.05095942
    endloop
  endfacet
  facet normal -0.612991265 0.121077666 0.780757266
    outer loop
      vertex 0.27732813 0.303532728 1.12211122
      vertex 0.277099942 0.305461258 1.12163299
      vertex 0.276518941 0.305134095 1.12122757
    endloop
  endfacet
  facet normal 0.612991265 -0.121077666 -0.780757266
    outer loop
      vertex 0.332497344 0.292635738 1.05184306
      vertex 0.331688155 0.294237105 1.05095942
      vertex 0.332269155 0.294564268 1.05136484
    endloop
  endfacet
  facet normal 0.0406211191 0.991710906 -0.121899154
    outer loop
      vertex 0.277099942 0.305461258 1.12163299
      vertex 0.277715682 0.30549482 1.12211122
      vertex 0.332884895 0.29459783 1.05184306
    endloop
  endfacet
  facet normal 0.0406211191 0.991710906 -0.121899154
    outer loop
      vertex 0.277099942 0.305461258 1.12163299
      vertex 0.332884895 0.29459783 1.05184306
      vertex 0.332269155 0.294564268 1.05136484
    endloop
  endfacet
  facet normal -0.612991265 0.121077666 0.780757266
    outer loop
      vertex 0.27732813 0.303532728 1.12211122
      vertex 0.277715682 0.30549482 1.12211122
      vertex 0.277099942 0.305461258 1.12163299
    endloop
  endfacet
  facet normal 0.612991265 -0.121077666 -0.780757266
    outer loop
      vertex 0.332497344 0.292635738 1.05184306
      vertex 0.332269155 0.294564268 1.05136484
      vertex 0.332884895 0.29459783 1.05184306
    endloop
  endfacet
  facet normal 0.339483378 0.932679812 0.121899154
    outer loop
      vertex 0.277715682 0.30549482 1.12211122
      vertex 0.27827242 0.305229671 1.12258945
      vertex 0.333441634 0.294332681 1.05232129
    endloop
  endfacet
  facet normal 0.339483378 0.932679812 0.121899154
    outer loop
      vertex 0.277715682 0.30549482 1.12211122
      vertex 0.333441634 0.294332681 1.05232129
      vertex 0.332884895 0.29459783 1.05184306
    endloop
  endfacet
  facet normal -0.612991265 0.121077666 0.780757266
    outer loop
      vertex 0.27732813 0.303532728 1.12211122
      vertex 0.27827242 0.305229671 1.12258945
      vertex 0.277715682 0.30549482 1.12211122
    endloop
  endfacet
  facet normal 0.612991265 -0.121077666 -0.780757266
    outer loop
      vertex 0.332497344 0.292635738 1.05184306
      vertex 0.332884895 0.29459783 1.05184306
      vertex 0.333441634 0.294332681 1.05232129
    endloop
  endfacet
  facet normal 0.58666237 0.731656672 0.347139422
    outer loop
      vertex 0.27827242 0.305229671 1.12258945
      vertex 0.2786854 0.304706178 1.12299487
      vertex 0.333854613 0.293809188 1.05272671
    endloop
  endfacet
  facet normal 0.58666237 0.731656672 0.347139422
    outer loop
      vertex 0.27827242 0.305229671 1.12258945
      vertex 0.333854613 0.293809188 1.05272671
      vertex 0.333441634 0.294332681 1.05232129
    endloop
  endfacet
  facet normal -0.612991265 0.121077666 0.780757266
    outer loop
      vertex 0.27732813 0.303532728 1.12211122
      vertex 0.2786854 0.304706178 1.12299487
      vertex 0.27827242 0.305229671 1.12258945
    endloop
  endfacet
  facet normal 0.612991265 -0.121077666 -0.780757266
    outer loop
      vertex 0.332497344 0.292635738 1.05184306
      vertex 0.333441634 0.294332681 1.05232129
      vertex 0.333854613 0.293809188 1.05272671
    endloop
  endfacet
  facet normal 0.744527334 0.419245436 0.519530859
    outer loop
      vertex 0.2786854 0.304706178 1.12299487
      vertex 0.278891747 0.304004037 1.12326576
      vertex 0.334060961 0.293107047 1.05299761
    endloop
  endfacet
  facet normal 0.744527334 0.419245436 0.519530859
    outer loop
      vertex 0.2786854 0.304706178 1.12299487
      vertex 0.334060961 0.293107047 1.05299761
      vertex 0.333854613 0.293809188 1.05272671
    endloop
  endfacet
  facet normal -0.612991265 0.121077666 0.780757266
    outer loop
      vertex 0.27732813 0.303532728 1.12211122
      vertex 0.278891747 0.304004037 1.12326576
      vertex 0.2786854 0.304706178 1.12299487
    endloop
  endfacet
  facet normal 0.612991265 -0.121077666 -0.780757266
    outer loop
      vertex 0.332497344 0.292635738 1.05184306
      vertex 0.333854613 0.293809188 1.05272671
      vertex 0.334060961 0.293107047 1.05299761
    endloop
  endfacet
  facet normal 0.789044761 0.0430078829 0.612828433
    outer loop
      vertex 0.278891747 0.304004037 1.12326576
      vertex 0.278860048 0.303230145 1.12336089
      vertex 0.334029262 0.292333155 1.05309273
    endloop
  endfacet
  facet normal 0.789044761 0.0430078829 0.612828433
    outer loop
      vertex 0.278891747 0.304004037 1.12326576
      vertex 0.334029262 0.292333155 1.05309273
      vertex 0.334060961 0.293107047 1.05299761
    endloop
  endfacet
  facet normal -0.612991265 0.121077666 0.780757266
    outer loop
      vertex 0.27732813 0.303532728 1.12211122
      vertex 0.278860048 0.303230145 1.12336089
      vertex 0.278891747 0.304004037 1.12326576
    endloop
  endfacet
  facet normal 0.612991265 -0.121077666 -0.780757266
    outer loop
      vertex 0.332497344 0.292635738 1.05184306
      vertex 0.334060961 0.293107047 1.05299761
      vertex 0.334029262 0.292333155 1.05309273
    endloop
  endfacet
  facet normal 0.713437275 -0.339777231 0.612828433
    outer loop
      vertex 0.278860048 0.303230145 1.12336089
      vertex 0.278595128 0.302502317 1.12326576
      vertex 0.333764342 0.291605327 1.05299761
    endloop
  endfacet
  facet normal 0.713437275 -0.339777231 0.612828433
    outer loop
      vertex 0.278860048 0.303230145 1.12336089
      vertex 0.333764342 0.291605327 1.05299761
      vertex 0.334029262 0.292333155 1.05309273
    endloop
  endfacet
  facet normal -0.612991265 0.121077666 0.780757266
    outer loop
      vertex 0.27732813 0.303532728 1.12211122
      vertex 0.278595128 0.302502317 1.12326576
      vertex 0.278860048 0.303230145 1.12336089
    endloop
  endfacet
  facet normal 0.612991265 -0.121077666 -0.780757266
    outer loop
      vertex 0.332497344 0.292635738 1.05184306
      vertex 0.334029262 0.292333155 1.05309273
      vertex 0.333764342 0.291605327 1.05299761
    endloop
  endfacet
  facet normal 0.529215432 -0.670834341 0.519530859
    outer loop
      vertex 0.278595128 0.302502317 1.12326576
      vertex 0.278137319 0.301931361 1.12299487
      vertex 0.333306533 0.291034371 1.05272671
    endloop
  endfacet
  facet normal 0.529215432 -0.670834341 0.519530859
    outer loop
      vertex 0.278595128 0.302502317 1.12326576
      vertex 0.333306533 0.291034371 1.05272671
      vertex 0.333764342 0.291605327 1.05299761
    endloop
  endfacet
  facet normal -0.612991265 0.121077666 0.780757266
    outer loop
      vertex 0.27732813 0.303532728 1.12211122
      vertex 0.278137319 0.301931361 1.12299487
      vertex 0.278595128 0.302502317 1.12326576
    endloop
  endfacet
  facet normal 0.612991265 -0.121077666 -0.780757266
    outer loop
      vertex 0.332497344 0.292635738 1.05184306
      vertex 0.333764342 0.291605327 1.05299761
      vertex 0.333306533 0.291034371 1.05272671
    endloop
  endfacet
  facet normal 0.264425337 -0.899763004 0.347139422
    outer loop
      vertex 0.278137319 0.301931361 1.12299487
      vertex 0.277556319 0.301604198 1.12258945
      vertex 0.332725533 0.290707208 1.05232129
    endloop
  endfacet
  facet normal 0.264425337 -0.899763004 0.347139422
    outer loop
      vertex 0.278137319 0.301931361 1.12299487
      vertex 0.332725533 0.290707208 1.05232129
      vertex 0.333306533 0.291034371 1.05272671
    endloop
  endfacet
  facet normal -0.612991265 0.121077666 0.780757266
    outer loop
      vertex 0.27732813 0.303532728 1.12211122
      vertex 0.277556319 0.301604198 1.12258945
      vertex 0.278137319 0.301931361 1.12299487
    endloop
  endfacet
  facet normal 0.612991265 -0.121077666 -0.780757266
    outer loop
      vertex 0.332497344 0.292635738 1.05184306
      vertex 0.333306533 0.291034371 1.05272671
      vertex 0.332725533 0.290707208 1.05232129
    endloop
  endfacet
  facet normal -0.0406211191 -0.991710906 0.121899154
    outer loop
      vertex 0.277556319 0.301604198 1.12258945
      vertex 0.276940579 0.301570636 1.12211122
      vertex 0.332109793 0.290673646 1.05184306
    endloop
  endfacet
  facet normal -0.0406211191 -0.991710906 0.121899154
    outer loop
      vertex 0.277556319 0.301604198 1.12258945
      vertex 0.332109793 0.290673646 1.05184306
      vertex 0.332725533 0.290707208 1.05232129
    endloop
  endfacet
  facet normal -0.612991265 0.121077666 0.780757266
    outer loop
      vertex 0.27732813 0.303532728 1.12211122
      vertex 0.276940579 0.301570636 1.12211122
      vertex 0.277556319 0.301604198 1.12258945
    endloop
  endfacet
  facet normal 0.612991265 -0.121077666 -0.780757266
    outer loop
      vertex 0.332497344 0.292635738 1.05184306
      vertex 0.332725533 0.290707208 1.05232129
      vertex 0.332109793 0.290673646 1.05184306
    endloop
  endfacet
  facet normal -0.339483378 -0.932679812 -0.121899154
    outer loop
      vertex 0.300363465 0.299813807 1.14077353
      vertex 0.299806726 0.300078956 1.14029531
      vertex 0.35497594 0.289181967 1.07002715
    endloop
  endfacet
  facet normal -0.339483378 -0.932679812 -0.121899154
    outer loop
      vertex 0.300363465 0.299813807 1.14077353
      vertex 0.35497594 0.289181967 1.07002715
      vertex 0.355532679 0.288916818 1.07050538
    endloop
  endfacet
  facet normal -0.612991265 0.121077666 0.780757266
    outer loop
      vertex 0.300751016 0.301775899 1.14077353
      vertex 0.299806726 0.300078956 1.14029531
      vertex 0.300363465 0.299813807 1.14077353
    endloop
  endfacet
  facet normal 0.612991265 -0.121077666 -0.780757266
    outer loop
      vertex 0.35592023 0.290878909 1.07050538
      vertex 0.355532679 0.288916818 1.07050538
      vertex 0.35497594 0.289181967 1.07002715
    endloop
  endfacet
  facet normal -0.58666237 -0.731656672 -0.347139422
    outer loop
      vertex 0.299806726 0.300078956 1.14029531
      vertex 0.299393747 0.30060245 1.13988988
      vertex 0.354562961 0.28970546 1.06962173
    endloop
  endfacet
  facet normal -0.58666237 -0.731656672 -0.347139422
    outer loop
      vertex 0.299806726 0.300078956 1.14029531
      vertex 0.354562961 0.28970546 1.06962173
      vertex 0.35497594 0.289181967 1.07002715
    endloop
  endfacet
  facet normal -0.612991265 0.121077666 0.780757266
    outer loop
      vertex 0.300751016 0.301775899 1.14077353
      vertex 0.299393747 0.30060245 1.13988988
      vertex 0.299806726 0.300078956 1.14029531
    endloop
  endfacet
  facet normal 0.612991265 -0.121077666 -0.780757266
    outer loop
      vertex 0.35592023 0.290878909 1.07050538
      vertex 0.35497594 0.289181967 1.07002715
      vertex 0.354562961 0.28970546 1.06962173
    endloop
  endfacet
  facet normal -0.744527334 -0.419245436 -0.519530859
    outer loop
      vertex 0.299393747 0.30060245 1.13988988
      vertex 0.2991874 0.30130459 1.13961899
      vertex 0.354356614 0.2904076 1.06935084
    endloop
  endfacet
  facet normal -0.744527334 -0.419245436 -0.519530859
    outer loop
      vertex 0.299393747 0.30060245 1.13988988
      vertex 0.354356614 0.2904076 1.06935084
      vertex 0.354562961 0.28970546 1.06962173
    endloop
  endfacet
  facet normal -0.612991265 0.121077666 0.780757266
    outer loop
      vertex 0.300751016 0.301775899 1.14077353
      vertex 0.2991874 0.30130459 1.13961899
      vertex 0.299393747 0.30060245 1.13988988
    endloop
  endfacet
  facet normal 0.612991265 -0.121077666 -0.780757266
    outer loop
      vertex 0.35592023 0.290878909 1.07050538
      vertex 0.354562961 0.28970546 1.06962173
      vertex 0.354356614 0.2904076 1.06935084
    endloop
  endfacet
  facet normal -0.789044761 -0.0430078829 -0.612828433
    outer loop
      vertex 0.2991874 0.30130459 1.13961899
      vertex 0.299219099 0.302078483 1.13952386
      vertex 0.354388313 0.291181493 1.06925571
    endloop
  endfacet
  facet normal -0.789044761 -0.0430078829 -0.612828433
    outer loop
      vertex 0.2991874 0.30130459 1.13961899
      vertex 0.354388313 0.291181493 1.06925571
      vertex 0.354356614 0.2904076 1.06935084
    endloop
  endfacet
  facet normal -0.612991265 0.121077666 0.780757266
    outer loop
      vertex 0.300751016 0.301775899 1.14077353
      vertex 0.299219099 0.302078483 1.13952386
      vertex 0.2991874 0.30130459 1.13961899
    endloop
  endfacet
  facet normal 0.612991265 -0.121077666 -0.780757266
    outer loop
      vertex 0.35592023 0.290878909 1.07050538
      vertex 0.354356614 0.2904076 1.06935084
      vertex 0.354388313 0.291181493 1.06925571
    endloop
  endfacet
  facet normal -0.713437275 0.339777231 -0.612828433
    outer loop
      vertex 0.299219099 0.302078483 1.13952386
      vertex 0.299484019 0.30280631 1.13961899
      vertex 0.354653232 0.29190932 1.06935084
    endloop
  endfacet
  facet normal -0.713437275 0.339777231 -0.612828433
    outer loop
      vertex 0.299219099 0.302078483 1.13952386
      vertex 0.354653232 0.29190932 1.06935084
      vertex 0.354388313 0.291181493 1.06925571
    endloop
  endfacet
  facet normal -0.612991265 0.121077666 0.780757266
    outer loop
      vertex 0.300751016 0.301775899 1.14077353
      vertex 0.299484019 0.30280631 1.13961899
      vertex 0.299219099 0.302078483 1.13952386
    endloop
  endfacet
  facet normal 0.612991265 -0.121077666 -0.780757266
    outer loop
      vertex 0.35592023 0.290878909 1.07050538
      vertex 0.354388313 0.291181493 1.06925571
      vertex 0.354653232 0.29190932 1.06935084
    endloop
  endfacet
  facet normal -0.529215432 0.670834341 -0.519530859
    outer loop
      vertex 0.299484019 0.30280631 1.13961899
      vertex 0.299941827 0.303377266 1.13988988
      vertex 0.355111041 0.292480276 1.06962173
    endloop
  endfacet
  facet normal -0.529215432 0.670834341 -0.519530859
    outer loop
      vertex 0.299484019 0.30280631 1.13961899
      vertex 0.355111041 0.292480276 1.06962173
      vertex 0.354653232 0.29190932 1.06935084
    endloop
  endfacet
  facet normal -0.612991265 0.121077666 0.780757266
    outer loop
      vertex 0.300751016 0.301775899 1.14077353
      vertex 0.299941827 0.303377266 1.13988988
      vertex 0.299484019 0.30280631 1.13961899
    endloop
  endfacet
  facet normal 0.612991265 -0.121077666 -0.780757266
    outer loop
      vertex 0.35592023 0.290878909 1.07050538
      vertex 0.354653232 0.29190932 1.06935084
      vertex 0.355111041 0.292480276 1.06962173
    endloop
  endfacet
  facet normal -0.264425337 0.899763004 -0.347139422
    outer loop
      vertex 0.299941827 0.303377266 1.13988988
      vertex 0.300522828 0.303704429 1.14029531
      vertex 0.355692041 0.292807439 1.07002715
    endloop
  endfacet
  facet normal -0.264425337 0.899763004 -0.347139422
    outer loop
      vertex 0.299941827 0.303377266 1.13988988
      vertex 0.355692041 0.292807439 1.07002715
      vertex 0.355111041 0.292480276 1.06962173
    endloop
  endfacet
  facet normal -0.612991265 0.121077666 0.780757266
    outer loop
      vertex 0.300751016 0.301775899 1.14077353
      vertex 0.300522828 0.303704429 1.14029531
      vertex 0.299941827 0.303377266 1.13988988
    endloop
  endfacet
  facet normal 0.612991265 -0.121077666 -0.780757266
    outer loop
      vertex 0.35592023 0.290878909 1.07050538
      vertex 0.355111041 0.292480276 1.06962173
      vertex 0.355692041 0.292807439 1.07002715
    endloop
  endfacet
  facet normal 0.0406211191 0.991710906 -0.121899154
    outer loop
      vertex 0.300522828 0.303704429 1.14029531
      vertex 0.301138568 0.303737991 1.14077353
      vertex 0.356307781 0.292841001 1.07050538
    endloop
  endfacet
  facet normal 0.0406211191 0.991710906 -0.121899154
    outer loop
      vertex 0.300522828 0.303704429 1.14029531
      vertex 0.356307781 0.292841001 1.07050538
      vertex 0.355692041 0.292807439 1.07002715
    endloop
  endfacet
  facet normal -0.612991265 0.121077666 0.780757266
    outer loop
      vertex 0.300751016 0.301775899 1.14077353
      vertex 0.301138568 0.303737991 1.14077353
      vertex 0.300522828 0.303704429 1.14029531
    endloop
  endfacet
  facet normal 0.612991265 -0.121077666 -0.780757266
    outer loop
      vertex 0.35592023 0.290878909 1.07050538
      vertex 0.355692041 0.292807439 1.07002715
      vertex 0.356307781 0.292841001 1.07050538
    endloop
  endfacet
  facet normal 0.339483378 0.932679812 0.121899154
    outer loop
      vertex 0.301138568 0.303737991 1.14077353
      vertex 0.301695306 0.303472842 1.14125176
      vertex 0.35686452 0.292575852 1.07098361
    endloop
  endfacet
  facet normal 0.339483378 0.932679812 0.121899154
    outer loop
      vertex 0.301138568 0.303737991 1.14077353
      vertex 0.35686452 0.292575852 1.07098361
      vertex 0.356307781 0.292841001 1.07050538
    endloop
  endfacet
  facet normal -0.612991265 0.121077666 0.780757266
    outer loop
      vertex 0.300751016 0.301775899 1.14077353
      vertex 0.301695306 0.303472842 1.14125176
      vertex 0.301138568 0.303737991 1.14077353
    endloop
  endfacet
  facet normal 0.612991265 -0.121077666 -0.780757266
    outer loop
      vertex 0.35592023 0.290878909 1.07050538
      vertex 0.356307781 0.292841001 1.07050538
      vertex 0.35686452 0.292575852 1.07098361
    endloop
  endfacet
  facet normal 0.58666237 0.731656672 0.347139422
    outer loop
      vertex 0.301695306 0.303472842 1.14125176
      vertex 0.302108286 0.302949349 1.14165718
      vertex 0.357277499 0.292052359 1.07138903
    endloop
  endfacet
  facet normal 0.58666237 0.731656672 0.347139422
    outer loop
      vertex 0.301695306 0.303472842 1.14125176
      vertex 0.357277499 0.292052359 1.07138903
      vertex 0.35686452 0.292575852 1.07098361
    endloop
  endfacet
  facet normal -0.612991265 0.121077666 0.780757266
    outer loop
      vertex 0.300751016 0.301775899 1.14077353
      vertex 0.302108286 0.302949349 1.14165718
      vertex 0.301695306 0.303472842 1.14125176
    endloop
  endfacet
  facet normal 0.612991265 -0.121077666 -0.780757266
    outer loop
      vertex 0.35592023 0.290878909 1.07050538
      vertex 0.35686452 0.292575852 1.07098361
      vertex 0.357277499 0.292052359 1.07138903
    endloop
  endfacet
  facet normal 0.744527334 0.419245436 0.519530859
    outer loop
      vertex 0.302108286 0.302949349 1.14165718
      vertex 0.302314633 0.302247209 1.14192808
      vertex 0.357483847 0.291350219 1.07165992
    endloop
  endfacet
  facet normal 0.744527334 0.419245436 0.519530859
    outer loop
      vertex 0.302108286 0.302949349 1.14165718
      vertex 0.357483847 0.291350219 1.07165992
      vertex 0.357277499 0.292052359 1.07138903
    endloop
  endfacet
  facet normal -0.612991265 0.121077666 0.780757266
    outer loop
      vertex 0.300751016 0.301775899 1.14077353
      vertex 0.302314633 0.302247209 1.14192808
      vertex 0.302108286 0.302949349 1.14165718
    endloop
  endfacet
  facet normal 0.612991265 -0.121077666 -0.780757266
    outer loop
      vertex 0.35592023 0.290878909 1.07050538
      vertex 0.357277499 0.292052359 1.07138903
      vertex 0.357483847 0.291350219 1.07165992
    endloop
  endfacet
  facet normal 0.789044761 0.0430078829 0.612828433
    outer loop
      vertex 0.302314633 0.302247209 1.14192808
      vertex 0.302282934 0.301473316 1.1420232
      vertex 0.357452148 0.290576326 1.07175505
    endloop
  endfacet
  facet normal 0.789044761 0.0430078829 0.612828433
    outer loop
      vertex 0.302314633 0.302247209 1.14192808
      vertex 0.357452148 0.290576326 1.07175505
      vertex 0.357483847 0.291350219 1.07165992
    endloop
  endfacet
  facet normal -0.612991265 0.121077666 0.780757266
    outer loop
      vertex 0.300751016 0.301775899 1.14077353
      vertex 0.302282934 0.301473316 1.1420232
      vertex 0.302314633 0.302247209 1.14192808
    endloop
  endfacet
  facet normal 0.612991265 -0.121077666 -0.780757266
    outer loop
      vertex 0.35592023 0.290878909 1.07050538
      vertex 0.357483847 0.291350219 1.07165992
      vertex 0.357452148 0.290576326 1.07175505
    endloop
  endfacet
  facet normal 0.713437275 -0.339777231 0.612828433
    outer loop
      vertex 0.302282934 0.301473316 1.1420232
      vertex 0.302018014 0.300745489 1.14192808
      vertex 0.357187228 0.289848499 1.07165992
    endloop
  endfacet
  facet normal 0.713437275 -0.339777231 0.612828433
    outer loop
      vertex 0.302282934 0.301473316 1.1420232
      vertex 0.357187228 0.289848499 1.07165992
      vertex 0.357452148 0.290576326 1.07175505
    endloop
  endfacet
  facet normal -0.612991265 0.121077666 0.780757266
    outer loop
      vertex 0.300751016 0.301775899 1.14077353
      vertex 0.302018014 0.300745489 1.14192808
      vertex 0.302282934 0.301473316 1.1420232
    endloop
  endfacet
  facet normal 0.612991265 -0.121077666 -0.780757266
    outer loop
      vertex 0.35592023 0.290878909 1.07050538
      vertex 0.357452148 0.290576326 1.07175505
      vertex 0.357187228 0.289848499 1.07165992
    endloop
  endfacet
  facet normal 0.529215432 -0.670834341 0.519530859
    outer loop
      vertex 0.302018014 0.300745489 1.14192808
      vertex 0.301560205 0.300174532 1.14165718
      vertex 0.356729419 0.289277542 1.07138903
    endloop
  endfacet
  facet normal 0.529215432 -0.670834341 0.519530859
    outer loop
      vertex 0.302018014 0.300745489 1.14192808
      vertex 0.356729419 0.289277542 1.07138903
      vertex 0.357187228 0.289848499 1.07165992
    endloop
  endfacet
  facet normal -0.612991265 0.121077666 0.780757266
    outer loop
      vertex 0.300751016 0.301775899 1.14077353
      vertex 0.301560205 0.300174532 1.14165718
      vertex 0.302018014 0.300745489 1.14192808
    endloop
  endfacet
  facet normal 0.612991265 -0.121077666 -0.780757266
    outer loop
      vertex 0.35592023 0.290878909 1.07050538
      vertex 0.357187228 0.289848499 1.07165992
      vertex 0.356729419 0.289277542 1.07138903
    endloop
  endfacet
  facet normal 0.264425337 -0.899763004 0.347139422
    outer loop
      vertex 0.301560205 0.300174532 1.14165718
      vertex 0.300979205 0.299847369 1.14125176
      vertex 0.356148419 0.288950379 1.07098361
    endloop
  endfacet
  facet normal 0.264425337 -0.899763004 0.347139422
    outer loop
      vertex 0.301560205 0.300174532 1.14165718
      vertex 0.356148419 0.288950379 1.07098361
      vertex 0.356729419 0.289277542 1.07138903
    endloop
  endfacet
  facet normal -0.612991265 0.121077666 0.780757266
    outer loop
      vertex 0.300751016 0.301775899 1.14077353
      vertex 0.300979205 0.299847369 1.14125176
      vertex 0.301560205 0.300174532 1.14165718
    endloop
  endfacet
  facet normal 0.612991265 -0.121077666 -0.780757266
    outer loop
      vertex 0.35592023 0.290878909 1.07050538
      vertex 0.356729419 0.289277542 1.07138903
      vertex 0.356148419 0.288950379 1.07098361
    endloop
  endfacet
  facet normal -0.0406211191 -0.991710906 0.121899154
    outer loop
      vertex 0.300979205 0.299847369 1.14125176
      vertex 0.300363465 0.299813807 1.14077353
      vertex 0.355532679 0.288916818 1.07050538
    endloop
  endfacet
  facet normal -0.0406211191 -0.991710906 0.121899154
    outer loop
      vertex 0.300979205 0.299847369 1.14125176
      vertex 0.355532679 0.288916818 1.07050538
      vertex 0.356148419 0.288950379 1.07098361
    endloop
  endfacet
  facet normal -0.612991265 0.121077666 0.780757266
    outer loop
      vertex 0.300751016 0.301775899 1.14077353
      vertex 0.300363465 0.299813807 1.14077353
      vertex 0.300979205 0.299847369 1.14125176
    endloop
  endfacet
  facet normal 0.612991265 -0.121077666 -0.780757266
    outer loop
      vertex 0.35592023 0.290878909 1.07050538
      vertex 0.356148419 0.288950379 1.07098361
      vertex 0.355532679 0.288916818 1.07050538
    endloop
  endfacet
  facet normal -0.0748582706 -0.979696356 -0.185987335
    outer loop
      vertex 0.299702718 0.217950541 1.13868899
      vertex 0.299952318 0.218069988 1.13795934
      vertex 0.441628149 0.198647601 1.18324433
    endloop
  endfacet
  facet normal -0.0748582706 -0.979696356 -0.185987335
    outer loop
      vertex 0.299702718 0.217950541 1.13868899
      vertex 0.441628149 0.198647601 1.18324433
      vertex 0.441378548 0.198528154 1.18397398
    endloop
  endfacet
  facet normal -0.944505534 0.129482579 -0.301899914
    outer loop
      vertex 0.299974358 0.219932008 1.13868899
      vertex 0.299952318 0.218069988 1.13795934
      vertex 0.299702718 0.217950541 1.13868899
    endloop
  endfacet
  facet normal 0.944505534 -0.129482579 0.301899914
    outer loop
      vertex 0.441650188 0.200509621 1.18397398
      vertex 0.441378548 0.198528154 1.18397398
      vertex 0.441628149 0.198647601 1.18324433
    endloop
  endfacet
  facet normal 0.053242177 -0.846545451 -0.529647118
    outer loop
      vertex 0.299952318 0.218069988 1.13795934
      vertex 0.300205274 0.218472911 1.13734077
      vertex 0.441881104 0.199050524 1.18262575
    endloop
  endfacet
  facet normal 0.053242177 -0.846545451 -0.529647118
    outer loop
      vertex 0.299952318 0.218069988 1.13795934
      vertex 0.441881104 0.199050524 1.18262575
      vertex 0.441628149 0.198647601 1.18324433
    endloop
  endfacet
  facet normal -0.944505534 0.129482579 -0.301899914
    outer loop
      vertex 0.299974358 0.219932008 1.13868899
      vertex 0.300205274 0.218472911 1.13734077
      vertex 0.299952318 0.218069988 1.13795934
    endloop
  endfacet
  facet normal 0.944505534 -0.129482579 0.301899914
    outer loop
      vertex 0.441650188 0.200509621 1.18397398
      vertex 0.441628149 0.198647601 1.18324433
      vertex 0.441881104 0.199050524 1.18262575
    endloop
  endfacet
  facet normal 0.173236986 -0.584515675 -0.792672929
    outer loop
      vertex 0.300205274 0.218472911 1.13734077
      vertex 0.300423075 0.219097968 1.13692745
      vertex 0.442098905 0.199675581 1.18221244
    endloop
  endfacet
  facet normal 0.173236986 -0.584515675 -0.792672929
    outer loop
      vertex 0.300205274 0.218472911 1.13734077
      vertex 0.442098905 0.199675581 1.18221244
      vertex 0.441881104 0.199050524 1.18262575
    endloop
  endfacet
  facet normal -0.944505534 0.129482579 -0.301899914
    outer loop
      vertex 0.299974358 0.219932008 1.13868899
      vertex 0.300423075 0.219097968 1.13692745
      vertex 0.300205274 0.218472911 1.13734077
    endloop
  endfacet
  facet normal 0.944505534 -0.129482579 0.301899914
    outer loop
      vertex 0.441650188 0.200509621 1.18397398
      vertex 0.441881104 0.199050524 1.18262575
      vertex 0.442098905 0.199675581 1.18221244
    endloop
  endfacet
  facet normal 0.266858034 -0.233498686 -0.935021472
    outer loop
      vertex 0.300423075 0.219097968 1.13692745
      vertex 0.300572563 0.21985 1.13678231
      vertex 0.442248393 0.200427613 1.1820673
    endloop
  endfacet
  facet normal 0.266858034 -0.233498686 -0.935021472
    outer loop
      vertex 0.300423075 0.219097968 1.13692745
      vertex 0.442248393 0.200427613 1.1820673
      vertex 0.442098905 0.199675581 1.18221244
    endloop
  endfacet
  facet normal -0.944505534 0.129482579 -0.301899914
    outer loop
      vertex 0.299974358 0.219932008 1.13868899
      vertex 0.300572563 0.21985 1.13678231
      vertex 0.300423075 0.219097968 1.13692745
    endloop
  endfacet
  facet normal 0.944505534 -0.129482579 0.301899914
    outer loop
      vertex 0.441650188 0.200509621 1.18397398
      vertex 0.442098905 0.199675581 1.18221244
      vertex 0.442248393 0.200427613 1.1820673
    endloop
  endfacet
  facet normal 0.319852365 0.153066361 -0.935021472
    outer loop
      vertex 0.300572563 0.21985 1.13678231
      vertex 0.300630979 0.220614517 1.13692745
      vertex 0.442306809 0.20119213 1.18221244
    endloop
  endfacet
  facet normal 0.319852365 0.153066361 -0.935021472
    outer loop
      vertex 0.300572563 0.21985 1.13678231
      vertex 0.442306809 0.20119213 1.18221244
      vertex 0.442248393 0.200427613 1.1820673
    endloop
  endfacet
  facet normal -0.944505534 0.129482579 -0.301899914
    outer loop
      vertex 0.299974358 0.219932008 1.13868899
      vertex 0.300630979 0.220614517 1.13692745
      vertex 0.300572563 0.21985 1.13678231
    endloop
  endfacet
  facet normal 0.944505534 -0.129482579 0.301899914
    outer loop
      vertex 0.441650188 0.200509621 1.18397398
      vertex 0.442248393 0.200427613 1.1820673
      vertex 0.442306809 0.20119213 1.18221244
    endloop
  endfacet
  facet normal 0.324152074 0.516328443 -0.792672929
    outer loop
      vertex 0.300630979 0.220614517 1.13692745
      vertex 0.300589431 0.221275129 1.13734077
      vertex 0.442265261 0.201852742 1.18262575
    endloop
  endfacet
  facet normal 0.324152074 0.516328443 -0.792672929
    outer loop
      vertex 0.300630979 0.220614517 1.13692745
      vertex 0.442265261 0.201852742 1.18262575
      vertex 0.442306809 0.20119213 1.18221244
    endloop
  endfacet
  facet normal -0.944505534 0.129482579 -0.301899914
    outer loop
      vertex 0.299974358 0.219932008 1.13868899
      vertex 0.300589431 0.221275129 1.13734077
      vertex 0.300630979 0.220614517 1.13692745
    endloop
  endfacet
  facet normal 0.944505534 -0.129482579 0.301899914
    outer loop
      vertex 0.441650188 0.200509621 1.18397398
      vertex 0.442306809 0.20119213 1.18221244
      vertex 0.442265261 0.201852742 1.18262575
    endloop
  endfacet
  facet normal 0.279102567 0.800984199 -0.529647118
    outer loop
      vertex 0.300589431 0.221275129 1.13734077
      vertex 0.300454244 0.221731262 1.13795934
      vertex 0.442130074 0.202308875 1.18324433
    endloop
  endfacet
  facet normal 0.279102567 0.800984199 -0.529647118
    outer loop
      vertex 0.300589431 0.221275129 1.13734077
      vertex 0.442130074 0.202308875 1.18324433
      vertex 0.442265261 0.201852742 1.18262575
    endloop
  endfacet
  facet normal -0.944505534 0.129482579 -0.301899914
    outer loop
      vertex 0.299974358 0.219932008 1.13868899
      vertex 0.300454244 0.221731262 1.13795934
      vertex 0.300589431 0.221275129 1.13734077
    endloop
  endfacet
  facet normal 0.944505534 -0.129482579 0.301899914
    outer loop
      vertex 0.441650188 0.200509621 1.18397398
      vertex 0.442265261 0.201852742 1.18262575
      vertex 0.442130074 0.202308875 1.18324433
    endloop
  endfacet
  facet normal 0.191562225 0.963697372 -0.185987335
    outer loop
      vertex 0.300454244 0.221731262 1.13795934
      vertex 0.300245998 0.221913475 1.13868899
      vertex 0.441921828 0.202491088 1.18397398
    endloop
  endfacet
  facet normal 0.191562225 0.963697372 -0.185987335
    outer loop
      vertex 0.300454244 0.221731262 1.13795934
      vertex 0.441921828 0.202491088 1.18397398
      vertex 0.442130074 0.202308875 1.18324433
    endloop
  endfacet
  facet normal -0.944505534 0.129482579 -0.301899914
    outer loop
      vertex 0.299974358 0.219932008 1.13868899
      vertex 0.300245998 0.221913475 1.13868899
      vertex 0.300454244 0.221731262 1.13795934
    endloop
  endfacet
  facet normal 0.944505534 -0.129482579 0.301899914
    outer loop
      vertex 0.441650188 0.200509621 1.18397398
      vertex 0.442130074 0.202308875 1.18324433
      vertex 0.441921828 0.202491088 1.18397398
    endloop
  endfacet
  facet normal 0.0748582706 0.979696356 0.185987335
    outer loop
      vertex 0.300245998 0.221913475 1.13868899
      vertex 0.299996398 0.221794028 1.13941865
      vertex 0.441672228 0.202371641 1.18470363
    endloop
  endfacet
  facet normal 0.0748582706 0.979696356 0.185987335
    outer loop
      vertex 0.300245998 0.221913475 1.13868899
      vertex 0.441672228 0.202371641 1.18470363
      vertex 0.441921828 0.202491088 1.18397398
    endloop
  endfacet
  facet normal -0.944505534 0.129482579 -0.301899914
    outer loop
      vertex 0.299974358 0.219932008 1.13868899
      vertex 0.299996398 0.221794028 1.13941865
      vertex 0.300245998 0.221913475 1.13868899
    endloop
  endfacet
  facet normal 0.944505534 -0.129482579 0.301899914
    outer loop
      vertex 0.441650188 0.200509621 1.18397398
      vertex 0.441921828 0.202491088 1.18397398
      vertex 0.441672228 0.202371641 1.18470363
    endloop
  endfacet
  facet normal -0.053242177 0.846545451 0.529647118
    outer loop
      vertex 0.299996398 0.221794028 1.13941865
      vertex 0.299743442 0.221391105 1.14003722
      vertex 0.441419272 0.201968719 1.18532221
    endloop
  endfacet
  facet normal -0.053242177 0.846545451 0.529647118
    outer loop
      vertex 0.299996398 0.221794028 1.13941865
      vertex 0.441419272 0.201968719 1.18532221
      vertex 0.441672228 0.202371641 1.18470363
    endloop
  endfacet
  facet normal -0.944505534 0.129482579 -0.301899914
    outer loop
      vertex 0.299974358 0.219932008 1.13868899
      vertex 0.299743442 0.221391105 1.14003722
      vertex 0.299996398 0.221794028 1.13941865
    endloop
  endfacet
  facet normal 0.944505534 -0.129482579 0.301899914
    outer loop
      vertex 0.441650188 0.200509621 1.18397398
      vertex 0.441672228 0.202371641 1.18470363
      vertex 0.441419272 0.201968719 1.18532221
    endloop
  endfacet
  facet normal -0.173236986 0.584515675 0.792672929
    outer loop
      vertex 0.299743442 0.221391105 1.14003722
      vertex 0.299525641 0.220766048 1.14045054
      vertex 0.441201471 0.201343662 1.18573552
    endloop
  endfacet
  facet normal -0.173236986 0.584515675 0.792672929
    outer loop
      vertex 0.299743442 0.221391105 1.14003722
      vertex 0.441201471 0.201343662 1.18573552
      vertex 0.441419272 0.201968719 1.18532221
    endloop
  endfacet
  facet normal -0.944505534 0.129482579 -0.301899914
    outer loop
      vertex 0.299974358 0.219932008 1.13868899
      vertex 0.299525641 0.220766048 1.14045054
      vertex 0.299743442 0.221391105 1.14003722
    endloop
  endfacet
  facet normal 0.944505534 -0.129482579 0.301899914
    outer loop
      vertex 0.441650188 0.200509621 1.18397398
      vertex 0.441419272 0.201968719 1.18532221
      vertex 0.441201471 0.201343662 1.18573552
    endloop
  endfacet
  facet normal -0.266858034 0.233498686 0.935021472
    outer loop
      vertex 0.299525641 0.220766048 1.14045054
      vertex 0.299376153 0.220014016 1.14059567
      vertex 0.441051983 0.200591629 1.18588066
    endloop
  endfacet
  facet normal -0.266858034 0.233498686 0.935021472
    outer loop
      vertex 0.299525641 0.220766048 1.14045054
      vertex 0.441051983 0.200591629 1.18588066
      vertex 0.441201471 0.201343662 1.18573552
    endloop
  endfacet
  facet normal -0.944505534 0.129482579 -0.301899914
    outer loop
      vertex 0.299974358 0.219932008 1.13868899
      vertex 0.299376153 0.220014016 1.14059567
      vertex 0.299525641 0.220766048 1.14045054
    endloop
  endfacet
  facet normal 0.944505534 -0.129482579 0.301899914
    outer loop
      vertex 0.441650188 0.200509621 1.18397398
      vertex 0.441201471 0.201343662 1.18573552
      vertex 0.441051983 0.200591629 1.18588066
    endloop
  endfacet
  facet normal -0.319852365 -0.153066361 0.935021472
    outer loop
      vertex 0.299376153 0.220014016 1.14059567
      vertex 0.299317737 0.219249499 1.14045054
      vertex 0.440993567 0.199827112 1.18573552
    endloop
  endfacet
  facet normal -0.319852365 -0.153066361 0.935021472
    outer loop
      vertex 0.299376153 0.220014016 1.14059567
      vertex 0.440993567 0.199827112 1.18573552
      vertex 0.441051983 0.200591629 1.18588066
    endloop
  endfacet
  facet normal -0.944505534 0.129482579 -0.301899914
    outer loop
      vertex 0.299974358 0.219932008 1.13868899
      vertex 0.299317737 0.219249499 1.14045054
      vertex 0.299376153 0.220014016 1.14059567
    endloop
  endfacet
  facet normal 0.944505534 -0.129482579 0.301899914
    outer loop
      vertex 0.441650188 0.200509621 1.18397398
      vertex 0.441051983 0.200591629 1.18588066
      vertex 0.440993567 0.199827112 1.18573552
    endloop
  endfacet
  facet normal -0.324152074 -0.516328443 0.792672929
    outer loop
      vertex 0.299317737 0.219249499 1.14045054
      vertex 0.299359285 0.218588888 1.14003722
      vertex 0.441035115 0.199166501 1.18532221
    endloop
  endfacet
  facet normal -0.324152074 -0.516328443 0.792672929
    outer loop
      vertex 0.299317737 0.219249499 1.14045054
      vertex 0.441035115 0.199166501 1.18532221
      vertex 0.440993567 0.199827112 1.18573552
    endloop
  endfacet
  facet normal -0.944505534 0.129482579 -0.301899914
    outer loop
      vertex 0.299974358 0.219932008 1.13868899
      vertex 0.299359285 0.218588888 1.14003722
      vertex 0.299317737 0.219249499 1.14045054
    endloop
  endfacet
  facet normal 0.944505534 -0.129482579 0.301899914
    outer loop
      vertex 0.441650188 0.200509621 1.18397398
      vertex 0.440993567 0.199827112 1.18573552
      vertex 0.441035115 0.199166501 1.18532221
    endloop
  endfacet
  facet normal -0.279102567 -0.800984199 0.529647118
    outer loop
      vertex 0.299359285 0.218588888 1.14003722
      vertex 0.299494472 0.218132754 1.13941865
      vertex 0.441170302 0.198710368 1.18470363
    endloop
  endfacet
  facet normal -0.279102567 -0.800984199 0.529647118
    outer loop
      vertex 0.299359285 0.218588888 1.14003722
      vertex 0.441170302 0.198710368 1.18470363
      vertex 0.441035115 0.199166501 1.18532221
    endloop
  endfacet
  facet normal -0.944505534 0.129482579 -0.301899914
    outer loop
      vertex 0.299974358 0.219932008 1.13868899
      vertex 0.299494472 0.218132754 1.13941865
      vertex 0.299359285 0.218588888 1.14003722
    endloop
  endfacet
  facet normal 0.944505534 -0.129482579 0.301899914
    outer loop
      vertex 0.441650188 0.200509621 1.18397398
      vertex 0.441035115 0.199166501 1.18532221
      vertex 0.441170302 0.198710368 1.18470363
    endloop
  endfacet
  facet normal -0.191562225 -0.963697372 0.185987335
    outer loop
      vertex 0.299494472 0.218132754 1.13941865
      vertex 0.299702718 0.217950541 1.13868899
      vertex 0.441378548 0.198528154 1.18397398
    endloop
  endfacet
  facet normal -0.191562225 -0.963697372 0.185987335
    outer loop
      vertex 0.299494472 0.218132754 1.13941865
      vertex 0.441378548 0.198528154 1.18397398
      vertex 0.441170302 0.198710368 1.18470363
    endloop
  endfacet
  facet normal -0.944505534 0.129482579 -0.301899914
    outer loop
      vertex 0.299974358 0.219932008 1.13868899
      vertex 0.299702718 0.217950541 1.13868899
      vertex 0.299494472 0.218132754 1.13941865
    endloop
  endfacet
  facet normal 0.944505534 -0.129482579 0.301899914
    outer loop
      vertex 0.441650188 0.200509621 1.18397398
      vertex 0.441170302 0.198710368 1.18470363
      vertex 0.441378548 0.198528154 1.18397398
    endloop
  endfacet
  facet normal -0.0748582706 -0.979696356 -0.185987335
    outer loop
      vertex 0.312332406 0.18638363 1.15350017
      vertex 0.312582006 0.186503077 1.15277052
      vertex 0.454257836 0.16708069 1.19805551
    endloop
  endfacet
  facet normal -0.0748582706 -0.979696356 -0.185987335
    outer loop
      vertex 0.312332406 0.18638363 1.15350017
      vertex 0.454257836 0.16708069 1.19805551
      vertex 0.454008236 0.166961243 1.19878516
    endloop
  endfacet
  facet normal -0.944505534 0.129482579 -0.301899914
    outer loop
      vertex 0.312604046 0.188365097 1.15350017
      vertex 0.312582006 0.186503077 1.15277052
      vertex 0.312332406 0.18638363 1.15350017
    endloop
  endfacet
  facet normal 0.944505534 -0.129482579 0.301899914
    outer loop
      vertex 0.454279876 0.16894271 1.19878516
      vertex 0.454008236 0.166961243 1.19878516
      vertex 0.454257836 0.16708069 1.19805551
    endloop
  endfacet
  facet normal 0.053242177 -0.846545451 -0.529647118
    outer loop
      vertex 0.312582006 0.186503077 1.15277052
      vertex 0.312834962 0.186905999 1.15215195
      vertex 0.454510792 0.167483613 1.19743693
    endloop
  endfacet
  facet normal 0.053242177 -0.846545451 -0.529647118
    outer loop
      vertex 0.312582006 0.186503077 1.15277052
      vertex 0.454510792 0.167483613 1.19743693
      vertex 0.454257836 0.16708069 1.19805551
    endloop
  endfacet
  facet normal -0.944505534 0.129482579 -0.301899914
    outer loop
      vertex 0.312604046 0.188365097 1.15350017
      vertex 0.312834962 0.186905999 1.15215195
      vertex 0.312582006 0.186503077 1.15277052
    endloop
  endfacet
  facet normal 0.944505534 -0.129482579 0.301899914
    outer loop
      vertex 0.454279876 0.16894271 1.19878516
      vertex 0.454257836 0.16708069 1.19805551
      vertex 0.454510792 0.167483613 1.19743693
    endloop
  endfacet
  facet normal 0.173236986 -0.584515675 -0.792672929
    outer loop
      vertex 0.312834962 0.186905999 1.15215195
      vertex 0.313052763 0.187531056 1.15173863
      vertex 0.454728593 0.16810867 1.19702362
    endloop
  endfacet
  facet normal 0.173236986 -0.584515675 -0.792672929
    outer loop
      vertex 0.312834962 0.186905999 1.15215195
      vertex 0.454728593 0.16810867 1.19702362
      vertex 0.454510792 0.167483613 1.19743693
    endloop
  endfacet
  facet normal -0.944505534 0.129482579 -0.301899914
    outer loop
      vertex 0.312604046 0.188365097 1.15350017
      vertex 0.313052763 0.187531056 1.15173863
      vertex 0.312834962 0.186905999 1.15215195
    endloop
  endfacet
  facet normal 0.944505534 -0.129482579 0.301899914
    outer loop
      vertex 0.454279876 0.16894271 1.19878516
      vertex 0.454510792 0.167483613 1.19743693
      vertex 0.454728593 0.16810867 1.19702362
    endloop
  endfacet
  facet normal 0.266858034 -0.233498686 -0.935021472
    outer loop
      vertex 0.313052763 0.187531056 1.15173863
      vertex 0.31320225 0.188283089 1.15159349
      vertex 0.45487808 0.168860702 1.19687848
    endloop
  endfacet
  facet normal 0.266858034 -0.233498686 -0.935021472
    outer loop
      vertex 0.313052763 0.187531056 1.15173863
      vertex 0.45487808 0.168860702 1.19687848
      vertex 0.454728593 0.16810867 1.19702362
    endloop
  endfacet
  facet normal -0.944505534 0.129482579 -0.301899914
    outer loop
      vertex 0.312604046 0.188365097 1.15350017
      vertex 0.31320225 0.188283089 1.15159349
      vertex 0.313052763 0.187531056 1.15173863
    endloop
  endfacet
  facet normal 0.944505534 -0.129482579 0.301899914
    outer loop
      vertex 0.454279876 0.16894271 1.19878516
      vertex 0.454728593 0.16810867 1.19702362
      vertex 0.45487808 0.168860702 1.19687848
    endloop
  endfacet
  facet normal 0.319852365 0.153066361 -0.935021472
    outer loop
      vertex 0.31320225 0.188283089 1.15159349
      vertex 0.313260667 0.189047606 1.15173863
      vertex 0.454936497 0.169625219 1.19702362
    endloop
  endfacet
  facet normal 0.319852365 0.153066361 -0.935021472
    outer loop
      vertex 0.31320225 0.188283089 1.15159349
      vertex 0.454936497 0.169625219 1.19702362
      vertex 0.45487808 0.168860702 1.19687848
    endloop
  endfacet
  facet normal -0.944505534 0.129482579 -0.301899914
    outer loop
      vertex 0.312604046 0.188365097 1.15350017
      vertex 0.313260667 0.189047606 1.15173863
      vertex 0.31320225 0.188283089 1.15159349
    endloop
  endfacet
  facet normal 0.944505534 -0.129482579 0.301899914
    outer loop
      vertex 0.454279876 0.16894271 1.19878516
      vertex 0.45487808 0.168860702 1.19687848
      vertex 0.454936497 0.169625219 1.19702362
    endloop
  endfacet
  facet normal 0.324152074 0.516328443 -0.792672929
    outer loop
      vertex 0.313260667 0.189047606 1.15173863
      vertex 0.313219119 0.189708217 1.15215195
      vertex 0.454894949 0.17028583 1.19743693
    endloop
  endfacet
  facet normal 0.324152074 0.516328443 -0.792672929
    outer loop
      vertex 0.313260667 0.189047606 1.15173863
      vertex 0.454894949 0.17028583 1.19743693
      vertex 0.454936497 0.169625219 1.19702362
    endloop
  endfacet
  facet normal -0.944505534 0.129482579 -0.301899914
    outer loop
      vertex 0.312604046 0.188365097 1.15350017
      vertex 0.313219119 0.189708217 1.15215195
      vertex 0.313260667 0.189047606 1.15173863
    endloop
  endfacet
  facet normal 0.944505534 -0.129482579 0.301899914
    outer loop
      vertex 0.454279876 0.16894271 1.19878516
      vertex 0.454936497 0.169625219 1.19702362
      vertex 0.454894949 0.17028583 1.19743693
    endloop
  endfacet
  facet normal 0.279102567 0.800984199 -0.529647118
    outer loop
      vertex 0.313219119 0.189708217 1.15215195
      vertex 0.313083931 0.19016435 1.15277052
      vertex 0.454759761 0.170741964 1.19805551
    endloop
  endfacet
  facet normal 0.279102567 0.800984199 -0.529647118
    outer loop
      vertex 0.313219119 0.189708217 1.15215195
      vertex 0.454759761 0.170741964 1.19805551
      vertex 0.454894949 0.17028583 1.19743693
    endloop
  endfacet
  facet normal -0.944505534 0.129482579 -0.301899914
    outer loop
      vertex 0.312604046 0.188365097 1.15350017
      vertex 0.313083931 0.19016435 1.15277052
      vertex 0.313219119 0.189708217 1.15215195
    endloop
  endfacet
  facet normal 0.944505534 -0.129482579 0.301899914
    outer loop
      vertex 0.454279876 0.16894271 1.19878516
      vertex 0.454894949 0.17028583 1.19743693
      vertex 0.454759761 0.170741964 1.19805551
    endloop
  endfacet
  facet normal 0.191562225 0.963697372 -0.185987335
    outer loop
      vertex 0.313083931 0.19016435 1.15277052
      vertex 0.312875685 0.190346564 1.15350017
      vertex 0.454551516 0.170924177 1.19878516
    endloop
  endfacet
  facet normal 0.191562225 0.963697372 -0.185987335
    outer loop
      vertex 0.313083931 0.19016435 1.15277052
      vertex 0.454551516 0.170924177 1.19878516
      vertex 0.454759761 0.170741964 1.19805551
    endloop
  endfacet
  facet normal -0.944505534 0.129482579 -0.301899914
    outer loop
      vertex 0.312604046 0.188365097 1.15350017
      vertex 0.312875685 0.190346564 1.15350017
      vertex 0.313083931 0.19016435 1.15277052
    endloop
  endfacet
  facet normal 0.944505534 -0.129482579 0.301899914
    outer loop
      vertex 0.454279876 0.16894271 1.19878516
      vertex 0.454759761 0.170741964 1.19805551
      vertex 0.454551516 0.170924177 1.19878516
    endloop
  endfacet
  facet normal 0.0748582706 0.979696356 0.185987335
    outer loop
      vertex 0.312875685 0.190346564 1.15350017
      vertex 0.312626085 0.190227117 1.15422983
      vertex 0.454301915 0.17080473 1.19951481
    endloop
  endfacet
  facet normal 0.0748582706 0.979696356 0.185987335
    outer loop
      vertex 0.312875685 0.190346564 1.15350017
      vertex 0.454301915 0.17080473 1.19951481
      vertex 0.454551516 0.170924177 1.19878516
    endloop
  endfacet
  facet normal -0.944505534 0.129482579 -0.301899914
    outer loop
      vertex 0.312604046 0.188365097 1.15350017
      vertex 0.312626085 0.190227117 1.15422983
      vertex 0.312875685 0.190346564 1.15350017
    endloop
  endfacet
  facet normal 0.944505534 -0.129482579 0.301899914
    outer loop
      vertex 0.454279876 0.16894271 1.19878516
      vertex 0.454551516 0.170924177 1.19878516
      vertex 0.454301915 0.17080473 1.19951481
    endloop
  endfacet
  facet normal -0.053242177 0.846545451 0.529647118
    outer loop
      vertex 0.312626085 0.190227117 1.15422983
      vertex 0.312373129 0.189824194 1.1548484
      vertex 0.454048959 0.170401807 1.20013339
    endloop
  endfacet
  facet normal -0.053242177 0.846545451 0.529647118
    outer loop
      vertex 0.312626085 0.190227117 1.15422983
      vertex 0.454048959 0.170401807 1.20013339
      vertex 0.454301915 0.17080473 1.19951481
    endloop
  endfacet
  facet normal -0.944505534 0.129482579 -0.301899914
    outer loop
      vertex 0.312604046 0.188365097 1.15350017
      vertex 0.312373129 0.189824194 1.1548484
      vertex 0.312626085 0.190227117 1.15422983
    endloop
  endfacet
  facet normal 0.944505534 -0.129482579 0.301899914
    outer loop
      vertex 0.454279876 0.16894271 1.19878516
      vertex 0.454301915 0.17080473 1.19951481
      vertex 0.454048959 0.170401807 1.20013339
    endloop
  endfacet
  facet normal -0.173236986 0.584515675 0.792672929
    outer loop
      vertex 0.312373129 0.189824194 1.1548484
      vertex 0.312155329 0.189199137 1.15526171
      vertex 0.453831159 0.16977675 1.2005467
    endloop
  endfacet
  facet normal -0.173236986 0.584515675 0.792672929
    outer loop
      vertex 0.312373129 0.189824194 1.1548484
      vertex 0.453831159 0.16977675 1.2005467
      vertex 0.454048959 0.170401807 1.20013339
    endloop
  endfacet
  facet normal -0.944505534 0.129482579 -0.301899914
    outer loop
      vertex 0.312604046 0.188365097 1.15350017
      vertex 0.312155329 0.189199137 1.15526171
      vertex 0.312373129 0.189824194 1.1548484
    endloop
  endfacet
  facet normal 0.944505534 -0.129482579 0.301899914
    outer loop
      vertex 0.454279876 0.16894271 1.19878516
      vertex 0.454048959 0.170401807 1.20013339
      vertex 0.453831159 0.16977675 1.2005467
    endloop
  endfacet
  facet normal -0.266858034 0.233498686 0.935021472
    outer loop
      vertex 0.312155329 0.189199137 1.15526171
      vertex 0.312005841 0.188447105 1.15540685
      vertex 0.453681671 0.169024718 1.20069184
    endloop
  endfacet
  facet normal -0.266858034 0.233498686 0.935021472
    outer loop
      vertex 0.312155329 0.189199137 1.15526171
      vertex 0.453681671 0.169024718 1.20069184
      vertex 0.453831159 0.16977675 1.2005467
    endloop
  endfacet
  facet normal -0.944505534 0.129482579 -0.301899914
    outer loop
      vertex 0.312604046 0.188365097 1.15350017
      vertex 0.312005841 0.188447105 1.15540685
      vertex 0.312155329 0.189199137 1.15526171
    endloop
  endfacet
  facet normal 0.944505534 -0.129482579 0.301899914
    outer loop
      vertex 0.454279876 0.16894271 1.19878516
      vertex 0.453831159 0.16977675 1.2005467
      vertex 0.453681671 0.169024718 1.20069184
    endloop
  endfacet
  facet normal -0.319852365 -0.153066361 0.935021472
    outer loop
      vertex 0.312005841 0.188447105 1.15540685
      vertex 0.311947424 0.187682588 1.15526171
      vertex 0.453623254 0.168260201 1.2005467
    endloop
  endfacet
  facet normal -0.319852365 -0.153066361 0.935021472
    outer loop
      vertex 0.312005841 0.188447105 1.15540685
      vertex 0.453623254 0.168260201 1.2005467
      vertex 0.453681671 0.169024718 1.20069184
    endloop
  endfacet
  facet normal -0.944505534 0.129482579 -0.301899914
    outer loop
      vertex 0.312604046 0.188365097 1.15350017
      vertex 0.311947424 0.187682588 1.15526171
      vertex 0.312005841 0.188447105 1.15540685
    endloop
  endfacet
  facet normal 0.944505534 -0.129482579 0.301899914
    outer loop
      vertex 0.454279876 0.16894271 1.19878516
      vertex 0.453681671 0.169024718 1.20069184
      vertex 0.453623254 0.168260201 1.2005467
    endloop
  endfacet
  facet normal -0.324152074 -0.516328443 0.792672929
    outer loop
      vertex 0.311947424 0.187682588 1.15526171
      vertex 0.311988972 0.187021976 1.1548484
      vertex 0.453664803 0.167599589 1.20013339
    endloop
  endfacet
  facet normal -0.324152074 -0.516328443 0.792672929
    outer loop
      vertex 0.311947424 0.187682588 1.15526171
      vertex 0.453664803 0.167599589 1.20013339
      vertex 0.453623254 0.168260201 1.2005467
    endloop
  endfacet
  facet normal -0.944505534 0.129482579 -0.301899914
    outer loop
      vertex 0.312604046 0.188365097 1.15350017
      vertex 0.311988972 0.187021976 1.1548484
      vertex 0.311947424 0.187682588 1.15526171
    endloop
  endfacet
  facet normal 0.944505534 -0.129482579 0.301899914
    outer loop
      vertex 0.454279876 0.16894271 1.19878516
      vertex 0.453623254 0.168260201 1.2005467
      vertex 0.453664803 0.167599589 1.20013339
    endloop
  endfacet
  facet normal -0.279102567 -0.800984199 0.529647118
    outer loop
      vertex 0.311988972 0.187021976 1.1548484
      vertex 0.31212416 0.186565843 1.15422983
      vertex 0.45379999 0.167143456 1.19951481
    endloop
  endfacet
  facet normal -0.279102567 -0.800984199 0.529647118
    outer loop
      vertex 0.311988972 0.187021976 1.1548484
      vertex 0.45379999 0.167143456 1.19951481
      vertex 0.453664803 0.167599589 1.20013339
    endloop
  endfacet
  facet normal -0.944505534 0.129482579 -0.301899914
    outer loop
      vertex 0.312604046 0.188365097 1.15350017
      vertex 0.31212416 0.186565843 1.15422983
      vertex 0.311988972 0.187021976 1.1548484
    endloop
  endfacet
  facet normal 0.944505534 -0.129482579 0.301899914
    outer loop
      vertex 0.454279876 0.16894271 1.19878516
      vertex 0.453664803 0.167599589 1.20013339
      vertex 0.45379999 0.167143456 1.19951481
    endloop
  endfacet
  facet normal -0.191562225 -0.963697372 0.185987335
    outer loop
      vertex 0.31212416 0.186565843 1.15422983
      vertex 0.312332406 0.18638363 1.15350017
      vertex 0.454008236 0.166961243 1.19878516
    endloop
  endfacet
  facet normal -0.191562225 -0.963697372 0.185987335
    outer loop
      vertex 0.31212416 0.186565843 1.15422983
      vertex 0.454008236 0.166961243 1.19878516
      vertex 0.45379999 0.167143456 1.19951481
    endloop
  endfacet
  facet normal -0.944505534 0.129482579 -0.301899914
    outer loop
      vertex 0.312604046 0.188365097 1.15350017
      vertex 0.312332406 0.18638363 1.15350017
      vertex 0.31212416 0.186565843 1.15422983
    endloop
  endfacet
  facet normal 0.944505534 -0.129482579 0.301899914
    outer loop
      vertex 0.454279876 0.16894271 1.19878516
      vertex 0.45379999 0.167143456 1.19951481
      vertex 0.454008236 0.166961243 1.19878516
    endloop
  endfacet
  facet normal 0.0540273613 0.991275431 -0.120225056
    outer loop
      vertex 0.490997973 -0.0508681753 1.23695574
      vertex 0.49037672 -0.0508915196 1.23648408
      vertex 0.43613053 -0.0393384755 1.3073634
    endloop
  endfacet
  facet normal 0.0540273613 0.991275431 -0.120225056
    outer loop
      vertex 0.490997973 -0.0508681753 1.23695574
      vertex 0.43613053 -0.0393384755 1.3073634
      vertex 0.436751784 -0.0393151312 1.30783506
    endloop
  endfacet
  facet normal 0.602735441 -0.128367157 -0.787548006
    outer loop
      vertex 0.490581368 -0.0528243042 1.23695574
      vertex 0.49037672 -0.0508915196 1.23648408
      vertex 0.490997973 -0.0508681753 1.23695574
    endloop
  endfacet
  facet normal -0.602735441 0.128367157 0.787548006
    outer loop
      vertex 0.436335178 -0.0412712601 1.30783506
      vertex 0.436751784 -0.0393151312 1.30783506
      vertex 0.43613053 -0.0393384755 1.3073634
    endloop
  endfacet
  facet normal -0.25474331 0.904371198 -0.342371993
    outer loop
      vertex 0.49037672 -0.0508915196 1.23648408
      vertex 0.489786622 -0.0512091129 1.23608422
      vertex 0.435540433 -0.0396560688 1.30696354
    endloop
  endfacet
  facet normal -0.25474331 0.904371198 -0.342371993
    outer loop
      vertex 0.49037672 -0.0508915196 1.23648408
      vertex 0.435540433 -0.0396560688 1.30696354
      vertex 0.43613053 -0.0393384755 1.3073634
    endloop
  endfacet
  facet normal 0.602735441 -0.128367157 -0.787548006
    outer loop
      vertex 0.490581368 -0.0528243042 1.23695574
      vertex 0.489786622 -0.0512091129 1.23608422
      vertex 0.49037672 -0.0508915196 1.23648408
    endloop
  endfacet
  facet normal -0.602735441 0.128367157 0.787548006
    outer loop
      vertex 0.436335178 -0.0412712601 1.30783506
      vertex 0.43613053 -0.0393384755 1.3073634
      vertex 0.435540433 -0.0396560688 1.30696354
    endloop
  endfacet
  facet normal -0.524731622 0.679784649 -0.512395898
    outer loop
      vertex 0.489786622 -0.0512091129 1.23608422
      vertex 0.489317518 -0.0517726044 1.23581705
      vertex 0.435071328 -0.0402195602 1.30669637
    endloop
  endfacet
  facet normal -0.524731622 0.679784649 -0.512395898
    outer loop
      vertex 0.489786622 -0.0512091129 1.23608422
      vertex 0.435071328 -0.0402195602 1.30669637
      vertex 0.435540433 -0.0396560688 1.30696354
    endloop
  endfacet
  facet normal 0.602735441 -0.128367157 -0.787548006
    outer loop
      vertex 0.490581368 -0.0528243042 1.23695574
      vertex 0.489317518 -0.0517726044 1.23581705
      vertex 0.489786622 -0.0512091129 1.23608422
    endloop
  endfacet
  facet normal -0.602735441 0.128367157 0.787548006
    outer loop
      vertex 0.436335178 -0.0412712601 1.30783506
      vertex 0.435540433 -0.0396560688 1.30696354
      vertex 0.435071328 -0.0402195602 1.30669637
    endloop
  endfacet
  facet normal -0.714834301 0.351707048 -0.604412173
    outer loop
      vertex 0.489317518 -0.0517726044 1.23581705
      vertex 0.489040823 -0.0524962076 1.23572323
      vertex 0.434794633 -0.0409431635 1.30660255
    endloop
  endfacet
  facet normal -0.714834301 0.351707048 -0.604412173
    outer loop
      vertex 0.489317518 -0.0517726044 1.23581705
      vertex 0.434794633 -0.0409431635 1.30660255
      vertex 0.435071328 -0.0402195602 1.30669637
    endloop
  endfacet
  facet normal 0.602735441 -0.128367157 -0.787548006
    outer loop
      vertex 0.490581368 -0.0528243042 1.23695574
      vertex 0.489040823 -0.0524962076 1.23572323
      vertex 0.489317518 -0.0517726044 1.23581705
    endloop
  endfacet
  facet normal -0.602735441 0.128367157 0.787548006
    outer loop
      vertex 0.436335178 -0.0412712601 1.30783506
      vertex 0.435071328 -0.0402195602 1.30669637
      vertex 0.434794633 -0.0409431635 1.30660255
    endloop
  endfacet
  facet normal -0.796109937 -0.0299147616 -0.604412173
    outer loop
      vertex 0.489040823 -0.0524962076 1.23572323
      vertex 0.488998662 -0.0532697606 1.23581705
      vertex 0.434752472 -0.0417167165 1.30669637
    endloop
  endfacet
  facet normal -0.796109937 -0.0299147616 -0.604412173
    outer loop
      vertex 0.489040823 -0.0524962076 1.23572323
      vertex 0.434752472 -0.0417167165 1.30669637
      vertex 0.434794633 -0.0409431635 1.30660255
    endloop
  endfacet
  facet normal 0.602735441 -0.128367157 -0.787548006
    outer loop
      vertex 0.490581368 -0.0528243042 1.23695574
      vertex 0.488998662 -0.0532697606 1.23581705
      vertex 0.489040823 -0.0524962076 1.23572323
    endloop
  endfacet
  facet normal -0.602735441 0.128367157 0.787548006
    outer loop
      vertex 0.436335178 -0.0412712601 1.30783506
      vertex 0.434794633 -0.0409431635 1.30660255
      vertex 0.434752472 -0.0417167165 1.30669637
    endloop
  endfacet
  facet normal -0.756185053 -0.40698232 -0.512395898
    outer loop
      vertex 0.488998662 -0.0532697606 1.23581705
      vertex 0.489197454 -0.0539754968 1.23608422
      vertex 0.434951264 -0.0424224527 1.30696354
    endloop
  endfacet
  facet normal -0.756185053 -0.40698232 -0.512395898
    outer loop
      vertex 0.488998662 -0.0532697606 1.23581705
      vertex 0.434951264 -0.0424224527 1.30696354
      vertex 0.434752472 -0.0417167165 1.30669637
    endloop
  endfacet
  facet normal 0.602735441 -0.128367157 -0.787548006
    outer loop
      vertex 0.490581368 -0.0528243042 1.23695574
      vertex 0.489197454 -0.0539754968 1.23608422
      vertex 0.488998662 -0.0532697606 1.23581705
    endloop
  endfacet
  facet normal -0.602735441 0.128367157 0.787548006
    outer loop
      vertex 0.436335178 -0.0412712601 1.30783506
      vertex 0.434752472 -0.0417167165 1.30669637
      vertex 0.434951264 -0.0424224527 1.30696354
    endloop
  endfacet
  facet normal -0.601137849 -0.72209051 -0.342371993
    outer loop
      vertex 0.489197454 -0.0539754968 1.23608422
      vertex 0.489606934 -0.0545059745 1.23648408
      vertex 0.435360744 -0.0429529304 1.3073634
    endloop
  endfacet
  facet normal -0.601137849 -0.72209051 -0.342371993
    outer loop
      vertex 0.489197454 -0.0539754968 1.23608422
      vertex 0.435360744 -0.0429529304 1.3073634
      vertex 0.434951264 -0.0424224527 1.30696354
    endloop
  endfacet
  facet normal 0.602735441 -0.128367157 -0.787548006
    outer loop
      vertex 0.490581368 -0.0528243042 1.23695574
      vertex 0.489606934 -0.0545059745 1.23648408
      vertex 0.489197454 -0.0539754968 1.23608422
    endloop
  endfacet
  facet normal -0.602735441 0.128367157 0.787548006
    outer loop
      vertex 0.436335178 -0.0412712601 1.30783506
      vertex 0.434951264 -0.0424224527 1.30696354
      vertex 0.435360744 -0.0429529304 1.3073634
    endloop
  endfacet
  facet normal -0.354572857 -0.927266965 -0.120225056
    outer loop
      vertex 0.489606934 -0.0545059745 1.23648408
      vertex 0.490164763 -0.054780433 1.23695574
      vertex 0.435918573 -0.0432273889 1.30783506
    endloop
  endfacet
  facet normal -0.354572857 -0.927266965 -0.120225056
    outer loop
      vertex 0.489606934 -0.0545059745 1.23648408
      vertex 0.435918573 -0.0432273889 1.30783506
      vertex 0.435360744 -0.0429529304 1.3073634
    endloop
  endfacet
  facet normal 0.602735441 -0.128367157 -0.787548006
    outer loop
      vertex 0.490581368 -0.0528243042 1.23695574
      vertex 0.490164763 -0.054780433 1.23695574
      vertex 0.489606934 -0.0545059745 1.23648408
    endloop
  endfacet
  facet normal -0.602735441 0.128367157 0.787548006
    outer loop
      vertex 0.436335178 -0.0412712601 1.30783506
      vertex 0.435360744 -0.0429529304 1.3073634
      vertex 0.435918573 -0.0432273889 1.30783506
    endloop
  endfacet
  facet normal -0.0540273613 -0.991275431 0.120225056
    outer loop
      vertex 0.490164763 -0.054780433 1.23695574
      vertex 0.490786016 -0.0547570887 1.2374274
      vertex 0.436539827 -0.0432040446 1.30830672
    endloop
  endfacet
  facet normal -0.0540273613 -0.991275431 0.120225056
    outer loop
      vertex 0.490164763 -0.054780433 1.23695574
      vertex 0.436539827 -0.0432040446 1.30830672
      vertex 0.435918573 -0.0432273889 1.30783506
    endloop
  endfacet
  facet normal 0.602735441 -0.128367157 -0.787548006
    outer loop
      vertex 0.490581368 -0.0528243042 1.23695574
      vertex 0.490786016 -0.0547570887 1.2374274
      vertex 0.490164763 -0.054780433 1.23695574
    endloop
  endfacet
  facet normal -0.602735441 0.128367157 0.787548006
    outer loop
      vertex 0.436335178 -0.0412712601 1.30783506
      vertex 0.435918573 -0.0432273889 1.30783506
      vertex 0.436539827 -0.0432040446 1.30830672
    endloop
  endfacet
  facet normal 0.25474331 -0.904371198 0.342371993
    outer loop
      vertex 0.490786016 -0.0547570887 1.2374274
      vertex 0.491376114 -0.0544394955 1.23782725
      vertex 0.437129924 -0.0428864514 1.30870657
    endloop
  endfacet
  facet normal 0.25474331 -0.904371198 0.342371993
    outer loop
      vertex 0.490786016 -0.0547570887 1.2374274
      vertex 0.437129924 -0.0428864514 1.30870657
      vertex 0.436539827 -0.0432040446 1.30830672
    endloop
  endfacet
  facet normal 0.602735441 -0.128367157 -0.787548006
    outer loop
      vertex 0.490581368 -0.0528243042 1.23695574
      vertex 0.491376114 -0.0544394955 1.23782725
      vertex 0.490786016 -0.0547570887 1.2374274
    endloop
  endfacet
  facet normal -0.602735441 0.128367157 0.787548006
    outer loop
      vertex 0.436335178 -0.0412712601 1.30783506
      vertex 0.436539827 -0.0432040446 1.30830672
      vertex 0.437129924 -0.0428864514 1.30870657
    endloop
  endfacet
  facet normal 0.524731622 -0.679784649 0.512395898
    outer loop
      vertex 0.491376114 -0.0544394955 1.23782725
      vertex 0.491845219 -0.053876004 1.23809442
      vertex 0.437599029 -0.0423229599 1.30897374
    endloop
  endfacet
  facet normal 0.524731622 -0.679784649 0.512395898
    outer loop
      vertex 0.491376114 -0.0544394955 1.23782725
      vertex 0.437599029 -0.0423229599 1.30897374
      vertex 0.437129924 -0.0428864514 1.30870657
    endloop
  endfacet
  facet normal 0.602735441 -0.128367157 -0.787548006
    outer loop
      vertex 0.490581368 -0.0528243042 1.23695574
      vertex 0.491845219 -0.053876004 1.23809442
      vertex 0.491376114 -0.0544394955 1.23782725
    endloop
  endfacet
  facet normal -0.602735441 0.128367157 0.787548006
    outer loop
      vertex 0.436335178 -0.0412712601 1.30783506
      vertex 0.437129924 -0.0428864514 1.30870657
      vertex 0.437599029 -0.0423229599 1.30897374
    endloop
  endfacet
  facet normal 0.714834301 -0.351707048 0.604412173
    outer loop
      vertex 0.491845219 -0.053876004 1.23809442
      vertex 0.492121913 -0.0531524007 1.23818824
      vertex 0.437875724 -0.0415993566 1.30906756
    endloop
  endfacet
  facet normal 0.714834301 -0.351707048 0.604412173
    outer loop
      vertex 0.491845219 -0.053876004 1.23809442
      vertex 0.437875724 -0.0415993566 1.30906756
      vertex 0.437599029 -0.0423229599 1.30897374
    endloop
  endfacet
  facet normal 0.602735441 -0.128367157 -0.787548006
    outer loop
      vertex 0.490581368 -0.0528243042 1.23695574
      vertex 0.492121913 -0.0531524007 1.23818824
      vertex 0.491845219 -0.053876004 1.23809442
    endloop
  endfacet
  facet normal -0.602735441 0.128367157 0.787548006
    outer loop
      vertex 0.436335178 -0.0412712601 1.30783506
      vertex 0.437599029 -0.0423229599 1.30897374
      vertex 0.437875724 -0.0415993566 1.30906756
    endloop
  endfacet
  facet normal 0.796109937 0.0299147616 0.604412173
    outer loop
      vertex 0.492121913 -0.0531524007 1.23818824
      vertex 0.492164074 -0.0523788478 1.23809442
      vertex 0.437917885 -0.0408258037 1.30897374
    endloop
  endfacet
  facet normal 0.796109937 0.0299147616 0.604412173
    outer loop
      vertex 0.492121913 -0.0531524007 1.23818824
      vertex 0.437917885 -0.0408258037 1.30897374
      vertex 0.437875724 -0.0415993566 1.30906756
    endloop
  endfacet
  facet normal 0.602735441 -0.128367157 -0.787548006
    outer loop
      vertex 0.490581368 -0.0528243042 1.23695574
      vertex 0.492164074 -0.0523788478 1.23809442
      vertex 0.492121913 -0.0531524007 1.23818824
    endloop
  endfacet
  facet normal -0.602735441 0.128367157 0.787548006
    outer loop
      vertex 0.436335178 -0.0412712601 1.30783506
      vertex 0.437875724 -0.0415993566 1.30906756
      vertex 0.437917885 -0.0408258037 1.30897374
    endloop
  endfacet
  facet normal 0.756185053 0.40698232 0.512395898
    outer loop
      vertex 0.492164074 -0.0523788478 1.23809442
      vertex 0.491965283 -0.0516731115 1.23782725
      vertex 0.437719093 -0.0401200674 1.30870657
    endloop
  endfacet
  facet normal 0.756185053 0.40698232 0.512395898
    outer loop
      vertex 0.492164074 -0.0523788478 1.23809442
      vertex 0.437719093 -0.0401200674 1.30870657
      vertex 0.437917885 -0.0408258037 1.30897374
    endloop
  endfacet
  facet normal 0.602735441 -0.128367157 -0.787548006
    outer loop
      vertex 0.490581368 -0.0528243042 1.23695574
      vertex 0.491965283 -0.0516731115 1.23782725
      vertex 0.492164074 -0.0523788478 1.23809442
    endloop
  endfacet
  facet normal -0.602735441 0.128367157 0.787548006
    outer loop
      vertex 0.436335178 -0.0412712601 1.30783506
      vertex 0.437917885 -0.0408258037 1.30897374
      vertex 0.437719093 -0.0401200674 1.30870657
    endloop
  endfacet
  facet normal 0.601137849 0.72209051 0.342371993
    outer loop
      vertex 0.491965283 -0.0516731115 1.23782725
      vertex 0.491555802 -0.0511426339 1.2374274
      vertex 0.437309613 -0.0395895898 1.30830672
    endloop
  endfacet
  facet normal 0.601137849 0.72209051 0.342371993
    outer loop
      vertex 0.491965283 -0.0516731115 1.23782725
      vertex 0.437309613 -0.0395895898 1.30830672
      vertex 0.437719093 -0.0401200674 1.30870657
    endloop
  endfacet
  facet normal 0.602735441 -0.128367157 -0.787548006
    outer loop
      vertex 0.490581368 -0.0528243042 1.23695574
      vertex 0.491555802 -0.0511426339 1.2374274
      vertex 0.491965283 -0.0516731115 1.23782725
    endloop
  endfacet
  facet normal -0.602735441 0.128367157 0.787548006
    outer loop
      vertex 0.436335178 -0.0412712601 1.30783506
      vertex 0.437719093 -0.0401200674 1.30870657
      vertex 0.437309613 -0.0395895898 1.30830672
    endloop
  endfacet
  facet normal 0.354572857 0.927266965 0.120225056
    outer loop
      vertex 0.491555802 -0.0511426339 1.2374274
      vertex 0.490997973 -0.0508681753 1.23695574
      vertex 0.436751784 -0.0393151312 1.30783506
    endloop
  endfacet
  facet normal 0.354572857 0.927266965 0.120225056
    outer loop
      vertex 0.491555802 -0.0511426339 1.2374274
      vertex 0.436751784 -0.0393151312 1.30783506
      vertex 0.437309613 -0.0395895898 1.30830672
    endloop
  endfacet
  facet normal 0.602735441 -0.128367157 -0.787548006
    outer loop
      vertex 0.490581368 -0.0528243042 1.23695574
      vertex 0.490997973 -0.0508681753 1.23695574
      vertex 0.491555802 -0.0511426339 1.2374274
    endloop
  endfacet
  facet normal -0.602735441 0.128367157 0.787548006
    outer loop
      vertex 0.436335178 -0.0412712601 1.30783506
      vertex 0.437309613 -0.0395895898 1.30830672
      vertex 0.436751784 -0.0393151312 1.30783506
    endloop
  endfacet
  facet normal 0.0540273613 0.991275431 -0.120225056
    outer loop
      vertex 0.476111806 -0.0758650151 1.22963726
      vertex 0.475490552 -0.0758883594 1.2291656
      vertex 0.421244363 -0.0643353153 1.30004493
    endloop
  endfacet
  facet normal 0.0540273613 0.991275431 -0.120225056
    outer loop
      vertex 0.476111806 -0.0758650151 1.22963726
      vertex 0.421244363 -0.0643353153 1.30004493
      vertex 0.421865616 -0.0643119709 1.30051659
    endloop
  endfacet
  facet normal 0.602735441 -0.128367157 -0.787548006
    outer loop
      vertex 0.475695201 -0.0778211439 1.22963726
      vertex 0.475490552 -0.0758883594 1.2291656
      vertex 0.476111806 -0.0758650151 1.22963726
    endloop
  endfacet
  facet normal -0.602735441 0.128367157 0.787548006
    outer loop
      vertex 0.421449011 -0.0662680998 1.30051659
      vertex 0.421865616 -0.0643119709 1.30051659
      vertex 0.421244363 -0.0643353153 1.30004493
    endloop
  endfacet
  facet normal -0.25474331 0.904371198 -0.342371993
    outer loop
      vertex 0.475490552 -0.0758883594 1.2291656
      vertex 0.474900455 -0.0762059526 1.22876575
      vertex 0.420654265 -0.0646529085 1.29964507
    endloop
  endfacet
  facet normal -0.25474331 0.904371198 -0.342371993
    outer loop
      vertex 0.475490552 -0.0758883594 1.2291656
      vertex 0.420654265 -0.0646529085 1.29964507
      vertex 0.421244363 -0.0643353153 1.30004493
    endloop
  endfacet
  facet normal 0.602735441 -0.128367157 -0.787548006
    outer loop
      vertex 0.475695201 -0.0778211439 1.22963726
      vertex 0.474900455 -0.0762059526 1.22876575
      vertex 0.475490552 -0.0758883594 1.2291656
    endloop
  endfacet
  facet normal -0.602735441 0.128367157 0.787548006
    outer loop
      vertex 0.421449011 -0.0662680998 1.30051659
      vertex 0.421244363 -0.0643353153 1.30004493
      vertex 0.420654265 -0.0646529085 1.29964507
    endloop
  endfacet
  facet normal -0.524731622 0.679784649 -0.512395898
    outer loop
      vertex 0.474900455 -0.0762059526 1.22876575
      vertex 0.47443135 -0.0767694441 1.22849858
      vertex 0.420185161 -0.0652164 1.2993779
    endloop
  endfacet
  facet normal -0.524731622 0.679784649 -0.512395898
    outer loop
      vertex 0.474900455 -0.0762059526 1.22876575
      vertex 0.420185161 -0.0652164 1.2993779
      vertex 0.420654265 -0.0646529085 1.29964507
    endloop
  endfacet
  facet normal 0.602735441 -0.128367157 -0.787548006
    outer loop
      vertex 0.475695201 -0.0778211439 1.22963726
      vertex 0.47443135 -0.0767694441 1.22849858
      vertex 0.474900455 -0.0762059526 1.22876575
    endloop
  endfacet
  facet normal -0.602735441 0.128367157 0.787548006
    outer loop
      vertex 0.421449011 -0.0662680998 1.30051659
      vertex 0.420654265 -0.0646529085 1.29964507
      vertex 0.420185161 -0.0652164 1.2993779
    endloop
  endfacet
  facet normal -0.714834301 0.351707048 -0.604412173
    outer loop
      vertex 0.47443135 -0.0767694441 1.22849858
      vertex 0.474154655 -0.0774930473 1.22840476
      vertex 0.419908466 -0.0659400032 1.29928408
    endloop
  endfacet
  facet normal -0.714834301 0.351707048 -0.604412173
    outer loop
      vertex 0.47443135 -0.0767694441 1.22849858
      vertex 0.419908466 -0.0659400032 1.29928408
      vertex 0.420185161 -0.0652164 1.2993779
    endloop
  endfacet
  facet normal 0.602735441 -0.128367157 -0.787548006
    outer loop
      vertex 0.475695201 -0.0778211439 1.22963726
      vertex 0.474154655 -0.0774930473 1.22840476
      vertex 0.47443135 -0.0767694441 1.22849858
    endloop
  endfacet
  facet normal -0.602735441 0.128367157 0.787548006
    outer loop
      vertex 0.421449011 -0.0662680998 1.30051659
      vertex 0.420185161 -0.0652164 1.2993779
      vertex 0.419908466 -0.0659400032 1.29928408
    endloop
  endfacet
  facet normal -0.796109937 -0.0299147616 -0.604412173
    outer loop
      vertex 0.474154655 -0.0774930473 1.22840476
      vertex 0.474112494 -0.0782666003 1.22849858
      vertex 0.419866305 -0.0667135562 1.2993779
    endloop
  endfacet
  facet normal -0.796109937 -0.0299147616 -0.604412173
    outer loop
      vertex 0.474154655 -0.0774930473 1.22840476
      vertex 0.419866305 -0.0667135562 1.2993779
      vertex 0.419908466 -0.0659400032 1.29928408
    endloop
  endfacet
  facet normal 0.602735441 -0.128367157 -0.787548006
    outer loop
      vertex 0.475695201 -0.0778211439 1.22963726
      vertex 0.474112494 -0.0782666003 1.22849858
      vertex 0.474154655 -0.0774930473 1.22840476
    endloop
  endfacet
  facet normal -0.602735441 0.128367157 0.787548006
    outer loop
      vertex 0.421449011 -0.0662680998 1.30051659
      vertex 0.419908466 -0.0659400032 1.29928408
      vertex 0.419866305 -0.0667135562 1.2993779
    endloop
  endfacet
  facet normal -0.756185053 -0.40698232 -0.512395898
    outer loop
      vertex 0.474112494 -0.0782666003 1.22849858
      vertex 0.474311286 -0.0789723366 1.22876575
      vertex 0.420065097 -0.0674192925 1.29964507
    endloop
  endfacet
  facet normal -0.756185053 -0.40698232 -0.512395898
    outer loop
      vertex 0.474112494 -0.0782666003 1.22849858
      vertex 0.420065097 -0.0674192925 1.29964507
      vertex 0.419866305 -0.0667135562 1.2993779
    endloop
  endfacet
  facet normal 0.602735441 -0.128367157 -0.787548006
    outer loop
      vertex 0.475695201 -0.0778211439 1.22963726
      vertex 0.474311286 -0.0789723366 1.22876575
      vertex 0.474112494 -0.0782666003 1.22849858
    endloop
  endfacet
  facet normal -0.602735441 0.128367157 0.787548006
    outer loop
      vertex 0.421449011 -0.0662680998 1.30051659
      vertex 0.419866305 -0.0667135562 1.2993779
      vertex 0.420065097 -0.0674192925 1.29964507
    endloop
  endfacet
  facet normal -0.601137849 -0.72209051 -0.342371993
    outer loop
      vertex 0.474311286 -0.0789723366 1.22876575
      vertex 0.474720766 -0.0795028142 1.2291656
      vertex 0.420474577 -0.0679497701 1.30004493
    endloop
  endfacet
  facet normal -0.601137849 -0.72209051 -0.342371993
    outer loop
      vertex 0.474311286 -0.0789723366 1.22876575
      vertex 0.420474577 -0.0679497701 1.30004493
      vertex 0.420065097 -0.0674192925 1.29964507
    endloop
  endfacet
  facet normal 0.602735441 -0.128367157 -0.787548006
    outer loop
      vertex 0.475695201 -0.0778211439 1.22963726
      vertex 0.474720766 -0.0795028142 1.2291656
      vertex 0.474311286 -0.0789723366 1.22876575
    endloop
  endfacet
  facet normal -0.602735441 0.128367157 0.787548006
    outer loop
      vertex 0.421449011 -0.0662680998 1.30051659
      vertex 0.420065097 -0.0674192925 1.29964507
      vertex 0.420474577 -0.0679497701 1.30004493
    endloop
  endfacet
  facet normal -0.354572857 -0.927266965 -0.120225056
    outer loop
      vertex 0.474720766 -0.0795028142 1.2291656
      vertex 0.475278596 -0.0797772728 1.22963726
      vertex 0.421032406 -0.0682242287 1.30051659
    endloop
  endfacet
  facet normal -0.354572857 -0.927266965 -0.120225056
    outer loop
      vertex 0.474720766 -0.0795028142 1.2291656
      vertex 0.421032406 -0.0682242287 1.30051659
      vertex 0.420474577 -0.0679497701 1.30004493
    endloop
  endfacet
  facet normal 0.602735441 -0.128367157 -0.787548006
    outer loop
      vertex 0.475695201 -0.0778211439 1.22963726
      vertex 0.475278596 -0.0797772728 1.22963726
      vertex 0.474720766 -0.0795028142 1.2291656
    endloop
  endfacet
  facet normal -0.602735441 0.128367157 0.787548006
    outer loop
      vertex 0.421449011 -0.0662680998 1.30051659
      vertex 0.420474577 -0.0679497701 1.30004493
      vertex 0.421032406 -0.0682242287 1.30051659
    endloop
  endfacet
  facet normal -0.0540273613 -0.991275431 0.120225056
    outer loop
      vertex 0.475278596 -0.0797772728 1.22963726
      vertex 0.475899849 -0.0797539285 1.23010892
      vertex 0.421653659 -0.0682008844 1.30098825
    endloop
  endfacet
  facet normal -0.0540273613 -0.991275431 0.120225056
    outer loop
      vertex 0.475278596 -0.0797772728 1.22963726
      vertex 0.421653659 -0.0682008844 1.30098825
      vertex 0.421032406 -0.0682242287 1.30051659
    endloop
  endfacet
  facet normal 0.602735441 -0.128367157 -0.787548006
    outer loop
      vertex 0.475695201 -0.0778211439 1.22963726
      vertex 0.475899849 -0.0797539285 1.23010892
      vertex 0.475278596 -0.0797772728 1.22963726
    endloop
  endfacet
  facet normal -0.602735441 0.128367157 0.787548006
    outer loop
      vertex 0.421449011 -0.0662680998 1.30051659
      vertex 0.421032406 -0.0682242287 1.30051659
      vertex 0.421653659 -0.0682008844 1.30098825
    endloop
  endfacet
  facet normal 0.25474331 -0.904371198 0.342371993
    outer loop
      vertex 0.475899849 -0.0797539285 1.23010892
      vertex 0.476489946 -0.0794363352 1.23050878
      vertex 0.422243757 -0.0678832911 1.3013881
    endloop
  endfacet
  facet normal 0.25474331 -0.904371198 0.342371993
    outer loop
      vertex 0.475899849 -0.0797539285 1.23010892
      vertex 0.422243757 -0.0678832911 1.3013881
      vertex 0.421653659 -0.0682008844 1.30098825
    endloop
  endfacet
  facet normal 0.602735441 -0.128367157 -0.787548006
    outer loop
      vertex 0.475695201 -0.0778211439 1.22963726
      vertex 0.476489946 -0.0794363352 1.23050878
      vertex 0.475899849 -0.0797539285 1.23010892
    endloop
  endfacet
  facet normal -0.602735441 0.128367157 0.787548006
    outer loop
      vertex 0.421449011 -0.0662680998 1.30051659
      vertex 0.421653659 -0.0682008844 1.30098825
      vertex 0.422243757 -0.0678832911 1.3013881
    endloop
  endfacet
  facet normal 0.524731622 -0.679784649 0.512395898
    outer loop
      vertex 0.476489946 -0.0794363352 1.23050878
      vertex 0.476959051 -0.0788728437 1.23077595
      vertex 0.422712861 -0.0673197996 1.30165527
    endloop
  endfacet
  facet normal 0.524731622 -0.679784649 0.512395898
    outer loop
      vertex 0.476489946 -0.0794363352 1.23050878
      vertex 0.422712861 -0.0673197996 1.30165527
      vertex 0.422243757 -0.0678832911 1.3013881
    endloop
  endfacet
  facet normal 0.602735441 -0.128367157 -0.787548006
    outer loop
      vertex 0.475695201 -0.0778211439 1.22963726
      vertex 0.476959051 -0.0788728437 1.23077595
      vertex 0.476489946 -0.0794363352 1.23050878
    endloop
  endfacet
  facet normal -0.602735441 0.128367157 0.787548006
    outer loop
      vertex 0.421449011 -0.0662680998 1.30051659
      vertex 0.422243757 -0.0678832911 1.3013881
      vertex 0.422712861 -0.0673197996 1.30165527
    endloop
  endfacet
  facet normal 0.714834301 -0.351707048 0.604412173
    outer loop
      vertex 0.476959051 -0.0788728437 1.23077595
      vertex 0.477235746 -0.0781492405 1.23086977
      vertex 0.422989556 -0.0665961964 1.30174909
    endloop
  endfacet
  facet normal 0.714834301 -0.351707048 0.604412173
    outer loop
      vertex 0.476959051 -0.0788728437 1.23077595
      vertex 0.422989556 -0.0665961964 1.30174909
      vertex 0.422712861 -0.0673197996 1.30165527
    endloop
  endfacet
  facet normal 0.602735441 -0.128367157 -0.787548006
    outer loop
      vertex 0.475695201 -0.0778211439 1.22963726
      vertex 0.477235746 -0.0781492405 1.23086977
      vertex 0.476959051 -0.0788728437 1.23077595
    endloop
  endfacet
  facet normal -0.602735441 0.128367157 0.787548006
    outer loop
      vertex 0.421449011 -0.0662680998 1.30051659
      vertex 0.422712861 -0.0673197996 1.30165527
      vertex 0.422989556 -0.0665961964 1.30174909
    endloop
  endfacet
  facet normal 0.796109937 0.0299147616 0.604412173
    outer loop
      vertex 0.477235746 -0.0781492405 1.23086977
      vertex 0.477277907 -0.0773756875 1.23077595
      vertex 0.423031717 -0.0658226434 1.30165527
    endloop
  endfacet
  facet normal 0.796109937 0.0299147616 0.604412173
    outer loop
      vertex 0.477235746 -0.0781492405 1.23086977
      vertex 0.423031717 -0.0658226434 1.30165527
      vertex 0.422989556 -0.0665961964 1.30174909
    endloop
  endfacet
  facet normal 0.602735441 -0.128367157 -0.787548006
    outer loop
      vertex 0.475695201 -0.0778211439 1.22963726
      vertex 0.477277907 -0.0773756875 1.23077595
      vertex 0.477235746 -0.0781492405 1.23086977
    endloop
  endfacet
  facet normal -0.602735441 0.128367157 0.787548006
    outer loop
      vertex 0.421449011 -0.0662680998 1.30051659
      vertex 0.422989556 -0.0665961964 1.30174909
      vertex 0.423031717 -0.0658226434 1.30165527
    endloop
  endfacet
  facet normal 0.756185053 0.40698232 0.512395898
    outer loop
      vertex 0.477277907 -0.0773756875 1.23077595
      vertex 0.477079115 -0.0766699512 1.23050878
      vertex 0.422832925 -0.0651169071 1.3013881
    endloop
  endfacet
  facet normal 0.756185053 0.40698232 0.512395898
    outer loop
      vertex 0.477277907 -0.0773756875 1.23077595
      vertex 0.422832925 -0.0651169071 1.3013881
      vertex 0.423031717 -0.0658226434 1.30165527
    endloop
  endfacet
  facet normal 0.602735441 -0.128367157 -0.787548006
    outer loop
      vertex 0.475695201 -0.0778211439 1.22963726
      vertex 0.477079115 -0.0766699512 1.23050878
      vertex 0.477277907 -0.0773756875 1.23077595
    endloop
  endfacet
  facet normal -0.602735441 0.128367157 0.787548006
    outer loop
      vertex 0.421449011 -0.0662680998 1.30051659
      vertex 0.423031717 -0.0658226434 1.30165527
      vertex 0.422832925 -0.0651169071 1.3013881
    endloop
  endfacet
  facet normal 0.601137849 0.72209051 0.342371993
    outer loop
      vertex 0.477079115 -0.0766699512 1.23050878
      vertex 0.476669635 -0.0761394736 1.23010892
      vertex 0.422423445 -0.0645864295 1.30098825
    endloop
  endfacet
  facet normal 0.601137849 0.72209051 0.342371993
    outer loop
      vertex 0.477079115 -0.0766699512 1.23050878
      vertex 0.422423445 -0.0645864295 1.30098825
      vertex 0.422832925 -0.0651169071 1.3013881
    endloop
  endfacet
  facet normal 0.602735441 -0.128367157 -0.787548006
    outer loop
      vertex 0.475695201 -0.0778211439 1.22963726
      vertex 0.476669635 -0.0761394736 1.23010892
      vertex 0.477079115 -0.0766699512 1.23050878
    endloop
  endfacet
  facet normal -0.602735441 0.128367157 0.787548006
    outer loop
      vertex 0.421449011 -0.0662680998 1.30051659
      vertex 0.422832925 -0.0651169071 1.3013881
      vertex 0.422423445 -0.0645864295 1.30098825
    endloop
  endfacet
  facet normal 0.354572857 0.927266965 0.120225056
    outer loop
      vertex 0.476669635 -0.0761394736 1.23010892
      vertex 0.476111806 -0.0758650151 1.22963726
      vertex 0.421865616 -0.0643119709 1.30051659
    endloop
  endfacet
  facet normal 0.354572857 0.927266965 0.120225056
    outer loop
      vertex 0.476669635 -0.0761394736 1.23010892
      vertex 0.421865616 -0.0643119709 1.30051659
      vertex 0.422423445 -0.0645864295 1.30098825
    endloop
  endfacet
  facet normal 0.602735441 -0.128367157 -0.787548006
    outer loop
      vertex 0.475695201 -0.0778211439 1.22963726
      vertex 0.476111806 -0.0758650151 1.22963726
      vertex 0.476669635 -0.0761394736 1.23010892
    endloop
  endfacet
  facet normal -0.602735441 0.128367157 0.787548006
    outer loop
      vertex 0.421449011 -0.0662680998 1.30051659
      vertex 0.422423445 -0.0645864295 1.30098825
      vertex 0.421865616 -0.0643119709 1.30051659
    endloop
  endfacet
endsolid f5_features
