solid h12_features
  facet normal 0.906547226 -0.195086865 -0.374317035
    outer loop
      vertex 3.05716558 0.426790033 2.09430155
      vertex 3.05694333 0.425565468 2.09440151
      vertex 3.01101483 0.424851083 1.98354096
    endloop
  endfacet
  facet normal 0.906547226 -0.195086865 -0.374317035
    outer loop
      vertex 3.05716558 0.426790033 2.09430155
      vertex 3.01101483 0.424851083 1.98354096
      vertex 3.01123707 0.426075648 1.98344099
    endloop
  endfacet
  facet normal 0.382737554 0.00595320522 0.923837932
    outer loop
      vertex 3.05420925 0.426790033 2.09552633
      vertex 3.05694333 0.425565468 2.09440151
      vertex 3.05716558 0.426790033 2.09430155
    endloop
  endfacet
  facet normal -0.382737554 -0.00595320522 -0.923837932
    outer loop
      vertex 3.00828074 0.426075648 1.98466578
      vertex 3.01123707 0.426075648 1.98344099
      vertex 3.01101483 0.424851083 1.98354096
    endloop
  endfacet
  facet normal 0.769422677 -0.555560388 -0.315184707
    outer loop
      vertex 3.05694333 0.425565468 2.09440151
      vertex 3.05630485 0.424527331 2.09467272
      vertex 3.01037634 0.423812947 1.98381217
    endloop
  endfacet
  facet normal 0.769422677 -0.555560388 -0.315184707
    outer loop
      vertex 3.05694333 0.425565468 2.09440151
      vertex 3.01037634 0.423812947 1.98381217
      vertex 3.01101483 0.424851083 1.98354096
    endloop
  endfacet
  facet normal 0.382737554 0.00595320522 0.923837932
    outer loop
      vertex 3.05420925 0.426790033 2.09552633
      vertex 3.05630485 0.424527331 2.09467272
      vertex 3.05694333 0.425565468 2.09440151
    endloop
  endfacet
  facet normal -0.382737554 -0.00595320522 -0.923837932
    outer loop
      vertex 3.00828074 0.426075648 1.98466578
      vertex 3.01101483 0.424851083 1.98354096
      vertex 3.01037634 0.423812947 1.98381217
    endloop
  endfacet
  facet normal 0.5151605 -0.831454878 -0.208068365
    outer loop
      vertex 3.05630485 0.424527331 2.09467272
      vertex 3.05534732 0.423833671 2.09507388
      vertex 3.00941882 0.423119286 1.98421333
    endloop
  endfacet
  facet normal 0.5151605 -0.831454878 -0.208068365
    outer loop
      vertex 3.05630485 0.424527331 2.09467272
      vertex 3.00941882 0.423119286 1.98421333
      vertex 3.01037634 0.423812947 1.98381217
    endloop
  endfacet
  facet normal 0.382737554 0.00595320522 0.923837932
    outer loop
      vertex 3.05420925 0.426790033 2.09552633
      vertex 3.05534732 0.423833671 2.09507388
      vertex 3.05630485 0.424527331 2.09467272
    endloop
  endfacet
  facet normal -0.382737554 -0.00595320522 -0.923837932
    outer loop
      vertex 3.00828074 0.426075648 1.98466578
      vertex 3.01037634 0.423812947 1.98381217
      vertex 3.00941882 0.423119286 1.98421333
    endloop
  endfacet
  facet normal 0.182469807 -0.9807679 -0.0692755004
    outer loop
      vertex 3.05534732 0.423833671 2.09507388
      vertex 3.05421654 0.42359009 2.09554393
      vertex 3.00828803 0.422875705 1.98468338
    endloop
  endfacet
  facet normal 0.182469807 -0.9807679 -0.0692755004
    outer loop
      vertex 3.05534732 0.423833671 2.09507388
      vertex 3.00828803 0.422875705 1.98468338
      vertex 3.00941882 0.423119286 1.98421333
    endloop
  endfacet
  facet normal 0.382737554 0.00595320522 0.923837932
    outer loop
      vertex 3.05420925 0.426790033 2.09552633
      vertex 3.05421654 0.42359009 2.09554393
      vertex 3.05534732 0.423833671 2.09507388
    endloop
  endfacet
  facet normal -0.382737554 -0.00595320522 -0.923837932
    outer loop
      vertex 3.00828074 0.426075648 1.98466578
      vertex 3.00941882 0.423119286 1.98421333
      vertex 3.00828803 0.422875705 1.98468338
    endloop
  endfacet
  facet normal -0.17800026 -0.9807679 0.0800639311
    outer loop
      vertex 3.05421654 0.42359009 2.09554393
      vertex 3.05308464 0.423833671 2.09601129
      vertex 3.00715614 0.423119286 1.98515074
    endloop
  endfacet
  facet normal -0.17800026 -0.9807679 0.0800639311
    outer loop
      vertex 3.05421654 0.42359009 2.09554393
      vertex 3.00715614 0.423119286 1.98515074
      vertex 3.00828803 0.422875705 1.98468338
    endloop
  endfacet
  facet normal 0.382737554 0.00595320522 0.923837932
    outer loop
      vertex 3.05420925 0.426790033 2.09552633
      vertex 3.05308464 0.423833671 2.09601129
      vertex 3.05421654 0.42359009 2.09554393
    endloop
  endfacet
  facet normal -0.382737554 -0.00595320522 -0.923837932
    outer loop
      vertex 3.00828074 0.426075648 1.98466578
      vertex 3.00828803 0.422875705 1.98468338
      vertex 3.00715614 0.423119286 1.98515074
    endloop
  endfacet
  facet normal -0.511371401 -0.831454878 0.217214355
    outer loop
      vertex 3.05308464 0.423833671 2.09601129
      vertex 3.05212396 0.424527331 2.09640482
      vertex 3.00619545 0.423812947 1.98554427
    endloop
  endfacet
  facet normal -0.511371401 -0.831454878 0.217214355
    outer loop
      vertex 3.05308464 0.423833671 2.09601129
      vertex 3.00619545 0.423812947 1.98554427
      vertex 3.00715614 0.423119286 1.98515074
    endloop
  endfacet
  facet normal 0.382737554 0.00595320522 0.923837932
    outer loop
      vertex 3.05420925 0.426790033 2.09552633
      vertex 3.05212396 0.424527331 2.09640482
      vertex 3.05308464 0.423833671 2.09601129
    endloop
  endfacet
  facet normal -0.382737554 -0.00595320522 -0.923837932
    outer loop
      vertex 3.00828074 0.426075648 1.98466578
      vertex 3.00715614 0.423119286 1.98515074
      vertex 3.00619545 0.423812947 1.98554427
    endloop
  endfacet
  facet normal -0.766890882 -0.555560388 0.321295862
    outer loop
      vertex 3.05212396 0.424527331 2.09640482
      vertex 3.05148074 0.425565468 2.09666461
      vertex 3.00555223 0.424851083 1.98580406
    endloop
  endfacet
  facet normal -0.766890882 -0.555560388 0.321295862
    outer loop
      vertex 3.05212396 0.424527331 2.09640482
      vertex 3.00555223 0.424851083 1.98580406
      vertex 3.00619545 0.423812947 1.98554427
    endloop
  endfacet
  facet normal 0.382737554 0.00595320522 0.923837932
    outer loop
      vertex 3.05420925 0.426790033 2.09552633
      vertex 3.05148074 0.425565468 2.09666461
      vertex 3.05212396 0.424527331 2.09640482
    endloop
  endfacet
  facet normal -0.382737554 -0.00595320522 -0.923837932
    outer loop
      vertex 3.00828074 0.426075648 1.98466578
      vertex 3.00619545 0.423812947 1.98554427
      vertex 3.00555223 0.424851083 1.98580406
    endloop
  endfacet
  facet normal -0.905658178 -0.195086865 0.376462987
    outer loop
      vertex 3.05148074 0.425565468 2.09666461
      vertex 3.05125291 0.426790033 2.09675111
      vertex 3.00532441 0.426075648 1.98589056
    endloop
  endfacet
  facet normal -0.905658178 -0.195086865 0.376462987
    outer loop
      vertex 3.05148074 0.425565468 2.09666461
      vertex 3.00532441 0.426075648 1.98589056
      vertex 3.00555223 0.424851083 1.98580406
    endloop
  endfacet
  facet normal 0.382737554 0.00595320522 0.923837932
    outer loop
      vertex 3.05420925 0.426790033 2.09552633
      vertex 3.05125291 0.426790033 2.09675111
      vertex 3.05148074 0.425565468 2.09666461
    endloop
  endfacet
  facet normal -0.382737554 -0.00595320522 -0.923837932
    outer loop
      vertex 3.00828074 0.426075648 1.98466578
      vertex 3.00555223 0.424851083 1.98580406
      vertex 3.00532441 0.426075648 1.98589056
    endloop
  endfacet
  facet normal -0.906547226 0.195086865 0.374317035
    outer loop
      vertex 3.05125291 0.426790033 2.09675111
      vertex 3.05147516 0.428014598 2.09665114
      vertex 3.00554665 0.427300214 1.98579059
    endloop
  endfacet
  facet normal -0.906547226 0.195086865 0.374317035
    outer loop
      vertex 3.05125291 0.426790033 2.09675111
      vertex 3.00554665 0.427300214 1.98579059
      vertex 3.00532441 0.426075648 1.98589056
    endloop
  endfacet
  facet normal 0.382737554 0.00595320522 0.923837932
    outer loop
      vertex 3.05420925 0.426790033 2.09552633
      vertex 3.05147516 0.428014598 2.09665114
      vertex 3.05125291 0.426790033 2.09675111
    endloop
  endfacet
  facet normal -0.382737554 -0.00595320522 -0.923837932
    outer loop
      vertex 3.00828074 0.426075648 1.98466578
      vertex 3.00532441 0.426075648 1.98589056
      vertex 3.00554665 0.427300214 1.98579059
    endloop
  endfacet
  facet normal -0.769422677 0.555560388 0.315184707
    outer loop
      vertex 3.05147516 0.428014598 2.09665114
      vertex 3.05211365 0.429052735 2.09637994
      vertex 3.00618514 0.42833835 1.98551938
    endloop
  endfacet
  facet normal -0.769422677 0.555560388 0.315184707
    outer loop
      vertex 3.05147516 0.428014598 2.09665114
      vertex 3.00618514 0.42833835 1.98551938
      vertex 3.00554665 0.427300214 1.98579059
    endloop
  endfacet
  facet normal 0.382737554 0.00595320522 0.923837932
    outer loop
      vertex 3.05420925 0.426790033 2.09552633
      vertex 3.05211365 0.429052735 2.09637994
      vertex 3.05147516 0.428014598 2.09665114
    endloop
  endfacet
  facet normal -0.382737554 -0.00595320522 -0.923837932
    outer loop
      vertex 3.00828074 0.426075648 1.98466578
      vertex 3.00554665 0.427300214 1.98579059
      vertex 3.00618514 0.42833835 1.98551938
    endloop
  endfacet
  facet normal -0.5151605 0.831454878 0.208068365
    outer loop
      vertex 3.05211365 0.429052735 2.09637994
      vertex 3.05307117 0.429746395 2.09597877
      vertex 3.00714266 0.42903201 1.98511822
    endloop
  endfacet
  facet normal -0.5151605 0.831454878 0.208068365
    outer loop
      vertex 3.05211365 0.429052735 2.09637994
      vertex 3.00714266 0.42903201 1.98511822
      vertex 3.00618514 0.42833835 1.98551938
    endloop
  endfacet
  facet normal 0.382737554 0.00595320522 0.923837932
    outer loop
      vertex 3.05420925 0.426790033 2.09552633
      vertex 3.05307117 0.429746395 2.09597877
      vertex 3.05211365 0.429052735 2.09637994
    endloop
  endfacet
  facet normal -0.382737554 -0.00595320522 -0.923837932
    outer loop
      vertex 3.00828074 0.426075648 1.98466578
      vertex 3.00618514 0.42833835 1.98551938
      vertex 3.00714266 0.42903201 1.98511822
    endloop
  endfacet
  facet normal -0.182469807 0.9807679 0.0692755004
    outer loop
      vertex 3.05307117 0.429746395 2.09597877
      vertex 3.05420195 0.429989976 2.09550873
      vertex 3.00827345 0.429275592 1.98464818
    endloop
  endfacet
  facet normal -0.182469807 0.9807679 0.0692755004
    outer loop
      vertex 3.05307117 0.429746395 2.09597877
      vertex 3.00827345 0.429275592 1.98464818
      vertex 3.00714266 0.42903201 1.98511822
    endloop
  endfacet
  facet normal 0.382737554 0.00595320522 0.923837932
    outer loop
      vertex 3.05420925 0.426790033 2.09552633
      vertex 3.05420195 0.429989976 2.09550873
      vertex 3.05307117 0.429746395 2.09597877
    endloop
  endfacet
  facet normal -0.382737554 -0.00595320522 -0.923837932
    outer loop
      vertex 3.00828074 0.426075648 1.98466578
      vertex 3.00714266 0.42903201 1.98511822
      vertex 3.00827345 0.429275592 1.98464818
    endloop
  endfacet
  facet normal 0.17800026 0.9807679 -0.0800639311
    outer loop
      vertex 3.05420195 0.429989976 2.09550873
      vertex 3.05533385 0.429746395 2.09504136
      vertex 3.00940534 0.42903201 1.98418081
    endloop
  endfacet
  facet normal 0.17800026 0.9807679 -0.0800639311
    outer loop
      vertex 3.05420195 0.429989976 2.09550873
      vertex 3.00940534 0.42903201 1.98418081
      vertex 3.00827345 0.429275592 1.98464818
    endloop
  endfacet
  facet normal 0.382737554 0.00595320522 0.923837932
    outer loop
      vertex 3.05420925 0.426790033 2.09552633
      vertex 3.05533385 0.429746395 2.09504136
      vertex 3.05420195 0.429989976 2.09550873
    endloop
  endfacet
  facet normal -0.382737554 -0.00595320522 -0.923837932
    outer loop
      vertex 3.00828074 0.426075648 1.98466578
      vertex 3.00827345 0.429275592 1.98464818
      vertex 3.00940534 0.42903201 1.98418081
    endloop
  endfacet
  facet normal 0.511371401 0.831454878 -0.217214355
    outer loop
      vertex 3.05533385 0.429746395 2.09504136
      vertex 3.05629453 0.429052735 2.09464783
      vertex 3.01036603 0.42833835 1.98378728
    endloop
  endfacet
  facet normal 0.511371401 0.831454878 -0.217214355
    outer loop
      vertex 3.05533385 0.429746395 2.09504136
      vertex 3.01036603 0.42833835 1.98378728
      vertex 3.00940534 0.42903201 1.98418081
    endloop
  endfacet
  facet normal 0.382737554 0.00595320522 0.923837932
    outer loop
      vertex 3.05420925 0.426790033 2.09552633
      vertex 3.05629453 0.429052735 2.09464783
      vertex 3.05533385 0.429746395 2.09504136
    endloop
  endfacet
  facet normal -0.382737554 -0.00595320522 -0.923837932
    outer loop
      vertex 3.00828074 0.426075648 1.98466578
      vertex 3.00940534 0.42903201 1.98418081
      vertex 3.01036603 0.42833835 1.98378728
    endloop
  endfacet
  facet normal 0.766890882 0.555560388 -0.321295862
    outer loop
      vertex 3.05629453 0.429052735 2.09464783
      vertex 3.05693775 0.428014598 2.09438804
      vertex 3.01100925 0.427300214 1.98352749
    endloop
  endfacet
  facet normal 0.766890882 0.555560388 -0.321295862
    outer loop
      vertex 3.05629453 0.429052735 2.09464783
      vertex 3.01100925 0.427300214 1.98352749
      vertex 3.01036603 0.42833835 1.98378728
    endloop
  endfacet
  facet normal 0.382737554 0.00595320522 0.923837932
    outer loop
      vertex 3.05420925 0.426790033 2.09552633
      vertex 3.05693775 0.428014598 2.09438804
      vertex 3.05629453 0.429052735 2.09464783
    endloop
  endfacet
  facet normal -0.382737554 -0.00595320522 -0.923837932
    outer loop
      vertex 3.00828074 0.426075648 1.98466578
      vertex 3.01036603 0.42833835 1.98378728
      vertex 3.01100925 0.427300214 1.98352749
    endloop
  endfacet
  facet normal 0.905658178 0.195086865 -0.376462987
    outer loop
      vertex 3.05693775 0.428014598 2.09438804
      vertex 3.05716558 0.426790033 2.09430155
      vertex 3.01123707 0.426075648 1.98344099
    endloop
  endfacet
  facet normal 0.905658178 0.195086865 -0.376462987
    outer loop
      vertex 3.05693775 0.428014598 2.09438804
      vertex 3.01123707 0.426075648 1.98344099
      vertex 3.01100925 0.427300214 1.98352749
    endloop
  endfacet
  facet normal 0.382737554 0.00595320522 0.923837932
    outer loop
      vertex 3.05420925 0.426790033 2.09552633
      vertex 3.05716558 0.426790033 2.09430155
      vertex 3.05693775 0.428014598 2.09438804
    endloop
  endfacet
  facet normal -0.382737554 -0.00595320522 -0.923837932
    outer loop
      vertex 3.00828074 0.426075648 1.98466578
      vertex 3.01100925 0.427300214 1.98352749
      vertex 3.01123707 0.426075648 1.98344099
    endloop
  endfacet
  facet normal 0.906547226 -0.195086865 -0.374317035
    outer loop
      vertex 3.04328625 0.452793873 2.09988406
      vertex 3.043064 0.451569308 2.09998402
      vertex 2.99713549 0.450854923 1.98912347
    endloop
  endfacet
  facet normal 0.906547226 -0.195086865 -0.374317035
    outer loop
      vertex 3.04328625 0.452793873 2.09988406
      vertex 2.99713549 0.450854923 1.98912347
      vertex 2.99735774 0.452079488 1.98902351
    endloop
  endfacet
  facet normal 0.382737554 0.00595320522 0.923837932
    outer loop
      vertex 3.04032991 0.452793873 2.10110884
      vertex 3.043064 0.451569308 2.09998402
      vertex 3.04328625 0.452793873 2.09988406
    endloop
  endfacet
  facet normal -0.382737554 -0.00595320522 -0.923837932
    outer loop
      vertex 2.99440141 0.452079488 1.99024829
      vertex 2.99735774 0.452079488 1.98902351
      vertex 2.99713549 0.450854923 1.98912347
    endloop
  endfacet
  facet normal 0.769422677 -0.555560388 -0.315184707
    outer loop
      vertex 3.043064 0.451569308 2.09998402
      vertex 3.04242551 0.450531171 2.10025523
      vertex 2.99649701 0.449816787 1.98939468
    endloop
  endfacet
  facet normal 0.769422677 -0.555560388 -0.315184707
    outer loop
      vertex 3.043064 0.451569308 2.09998402
      vertex 2.99649701 0.449816787 1.98939468
      vertex 2.99713549 0.450854923 1.98912347
    endloop
  endfacet
  facet normal 0.382737554 0.00595320522 0.923837932
    outer loop
      vertex 3.04032991 0.452793873 2.10110884
      vertex 3.04242551 0.450531171 2.10025523
      vertex 3.043064 0.451569308 2.09998402
    endloop
  endfacet
  facet normal -0.382737554 -0.00595320522 -0.923837932
    outer loop
      vertex 2.99440141 0.452079488 1.99024829
      vertex 2.99713549 0.450854923 1.98912347
      vertex 2.99649701 0.449816787 1.98939468
    endloop
  endfacet
  facet normal 0.5151605 -0.831454878 -0.208068365
    outer loop
      vertex 3.04242551 0.450531171 2.10025523
      vertex 3.04146799 0.449837511 2.1006564
      vertex 2.99553948 0.449123126 1.98979584
    endloop
  endfacet
  facet normal 0.5151605 -0.831454878 -0.208068365
    outer loop
      vertex 3.04242551 0.450531171 2.10025523
      vertex 2.99553948 0.449123126 1.98979584
      vertex 2.99649701 0.449816787 1.98939468
    endloop
  endfacet
  facet normal 0.382737554 0.00595320522 0.923837932
    outer loop
      vertex 3.04032991 0.452793873 2.10110884
      vertex 3.04146799 0.449837511 2.1006564
      vertex 3.04242551 0.450531171 2.10025523
    endloop
  endfacet
  facet normal -0.382737554 -0.00595320522 -0.923837932
    outer loop
      vertex 2.99440141 0.452079488 1.99024829
      vertex 2.99649701 0.449816787 1.98939468
      vertex 2.99553948 0.449123126 1.98979584
    endloop
  endfacet
  facet normal 0.182469807 -0.9807679 -0.0692755004
    outer loop
      vertex 3.04146799 0.449837511 2.1006564
      vertex 3.0403372 0.44959393 2.10112644
      vertex 2.9944087 0.448879545 1.99026589
    endloop
  endfacet
  facet normal 0.182469807 -0.9807679 -0.0692755004
    outer loop
      vertex 3.04146799 0.449837511 2.1006564
      vertex 2.9944087 0.448879545 1.99026589
      vertex 2.99553948 0.449123126 1.98979584
    endloop
  endfacet
  facet normal 0.382737554 0.00595320522 0.923837932
    outer loop
      vertex 3.04032991 0.452793873 2.10110884
      vertex 3.0403372 0.44959393 2.10112644
      vertex 3.04146799 0.449837511 2.1006564
    endloop
  endfacet
  facet normal -0.382737554 -0.00595320522 -0.923837932
    outer loop
      vertex 2.99440141 0.452079488 1.99024829
      vertex 2.99553948 0.449123126 1.98979584
      vertex 2.9944087 0.448879545 1.99026589
    endloop
  endfacet
  facet normal -0.17800026 -0.9807679 0.0800639311
    outer loop
      vertex 3.0403372 0.44959393 2.10112644
      vertex 3.03920531 0.449837511 2.1015938
      vertex 2.9932768 0.449123126 1.99073325
    endloop
  endfacet
  facet normal -0.17800026 -0.9807679 0.0800639311
    outer loop
      vertex 3.0403372 0.44959393 2.10112644
      vertex 2.9932768 0.449123126 1.99073325
      vertex 2.9944087 0.448879545 1.99026589
    endloop
  endfacet
  facet normal 0.382737554 0.00595320522 0.923837932
    outer loop
      vertex 3.04032991 0.452793873 2.10110884
      vertex 3.03920531 0.449837511 2.1015938
      vertex 3.0403372 0.44959393 2.10112644
    endloop
  endfacet
  facet normal -0.382737554 -0.00595320522 -0.923837932
    outer loop
      vertex 2.99440141 0.452079488 1.99024829
      vertex 2.9944087 0.448879545 1.99026589
      vertex 2.9932768 0.449123126 1.99073325
    endloop
  endfacet
  facet normal -0.511371401 -0.831454878 0.217214355
    outer loop
      vertex 3.03920531 0.449837511 2.1015938
      vertex 3.03824463 0.450531171 2.10198734
      vertex 2.99231612 0.449816787 1.99112678
    endloop
  endfacet
  facet normal -0.511371401 -0.831454878 0.217214355
    outer loop
      vertex 3.03920531 0.449837511 2.1015938
      vertex 2.99231612 0.449816787 1.99112678
      vertex 2.9932768 0.449123126 1.99073325
    endloop
  endfacet
  facet normal 0.382737554 0.00595320522 0.923837932
    outer loop
      vertex 3.04032991 0.452793873 2.10110884
      vertex 3.03824463 0.450531171 2.10198734
      vertex 3.03920531 0.449837511 2.1015938
    endloop
  endfacet
  facet normal -0.382737554 -0.00595320522 -0.923837932
    outer loop
      vertex 2.99440141 0.452079488 1.99024829
      vertex 2.9932768 0.449123126 1.99073325
      vertex 2.99231612 0.449816787 1.99112678
    endloop
  endfacet
  facet normal -0.766890882 -0.555560388 0.321295862
    outer loop
      vertex 3.03824463 0.450531171 2.10198734
      vertex 3.03760141 0.451569308 2.10224713
      vertex 2.9916729 0.450854923 1.99138657
    endloop
  endfacet
  facet normal -0.766890882 -0.555560388 0.321295862
    outer loop
      vertex 3.03824463 0.450531171 2.10198734
      vertex 2.9916729 0.450854923 1.99138657
      vertex 2.99231612 0.449816787 1.99112678
    endloop
  endfacet
  facet normal 0.382737554 0.00595320522 0.923837932
    outer loop
      vertex 3.04032991 0.452793873 2.10110884
      vertex 3.03760141 0.451569308 2.10224713
      vertex 3.03824463 0.450531171 2.10198734
    endloop
  endfacet
  facet normal -0.382737554 -0.00595320522 -0.923837932
    outer loop
      vertex 2.99440141 0.452079488 1.99024829
      vertex 2.99231612 0.449816787 1.99112678
      vertex 2.9916729 0.450854923 1.99138657
    endloop
  endfacet
  facet normal -0.905658178 -0.195086865 0.376462987
    outer loop
      vertex 3.03760141 0.451569308 2.10224713
      vertex 3.03737358 0.452793873 2.10233362
      vertex 2.99144507 0.452079488 1.99147307
    endloop
  endfacet
  facet normal -0.905658178 -0.195086865 0.376462987
    outer loop
      vertex 3.03760141 0.451569308 2.10224713
      vertex 2.99144507 0.452079488 1.99147307
      vertex 2.9916729 0.450854923 1.99138657
    endloop
  endfacet
  facet normal 0.382737554 0.00595320522 0.923837932
    outer loop
      vertex 3.04032991 0.452793873 2.10110884
      vertex 3.03737358 0.452793873 2.10233362
      vertex 3.03760141 0.451569308 2.10224713
    endloop
  endfacet
  facet normal -0.382737554 -0.00595320522 -0.923837932
    outer loop
      vertex 2.99440141 0.452079488 1.99024829
      vertex 2.9916729 0.450854923 1.99138657
      vertex 2.99144507 0.452079488 1.99147307
    endloop
  endfacet
  facet normal -0.906547226 0.195086865 0.374317035
    outer loop
      vertex 3.03737358 0.452793873 2.10233362
      vertex 3.03759583 0.454018438 2.10223366
      vertex 2.99166732 0.453304054 1.9913731
    endloop
  endfacet
  facet normal -0.906547226 0.195086865 0.374317035
    outer loop
      vertex 3.03737358 0.452793873 2.10233362
      vertex 2.99166732 0.453304054 1.9913731
      vertex 2.99144507 0.452079488 1.99147307
    endloop
  endfacet
  facet normal 0.382737554 0.00595320522 0.923837932
    outer loop
      vertex 3.04032991 0.452793873 2.10110884
      vertex 3.03759583 0.454018438 2.10223366
      vertex 3.03737358 0.452793873 2.10233362
    endloop
  endfacet
  facet normal -0.382737554 -0.00595320522 -0.923837932
    outer loop
      vertex 2.99440141 0.452079488 1.99024829
      vertex 2.99144507 0.452079488 1.99147307
      vertex 2.99166732 0.453304054 1.9913731
    endloop
  endfacet
  facet normal -0.769422677 0.555560388 0.315184707
    outer loop
      vertex 3.03759583 0.454018438 2.10223366
      vertex 3.03823431 0.455056574 2.10196245
      vertex 2.99230581 0.45434219 1.99110189
    endloop
  endfacet
  facet normal -0.769422677 0.555560388 0.315184707
    outer loop
      vertex 3.03759583 0.454018438 2.10223366
      vertex 2.99230581 0.45434219 1.99110189
      vertex 2.99166732 0.453304054 1.9913731
    endloop
  endfacet
  facet normal 0.382737554 0.00595320522 0.923837932
    outer loop
      vertex 3.04032991 0.452793873 2.10110884
      vertex 3.03823431 0.455056574 2.10196245
      vertex 3.03759583 0.454018438 2.10223366
    endloop
  endfacet
  facet normal -0.382737554 -0.00595320522 -0.923837932
    outer loop
      vertex 2.99440141 0.452079488 1.99024829
      vertex 2.99166732 0.453304054 1.9913731
      vertex 2.99230581 0.45434219 1.99110189
    endloop
  endfacet
  facet normal -0.5151605 0.831454878 0.208068365
    outer loop
      vertex 3.03823431 0.455056574 2.10196245
      vertex 3.03919184 0.455750235 2.10156128
      vertex 2.99326333 0.45503585 1.99070073
    endloop
  endfacet
  facet normal -0.5151605 0.831454878 0.208068365
    outer loop
      vertex 3.03823431 0.455056574 2.10196245
      vertex 2.99326333 0.45503585 1.99070073
      vertex 2.99230581 0.45434219 1.99110189
    endloop
  endfacet
  facet normal 0.382737554 0.00595320522 0.923837932
    outer loop
      vertex 3.04032991 0.452793873 2.10110884
      vertex 3.03919184 0.455750235 2.10156128
      vertex 3.03823431 0.455056574 2.10196245
    endloop
  endfacet
  facet normal -0.382737554 -0.00595320522 -0.923837932
    outer loop
      vertex 2.99440141 0.452079488 1.99024829
      vertex 2.99230581 0.45434219 1.99110189
      vertex 2.99326333 0.45503585 1.99070073
    endloop
  endfacet
  facet normal -0.182469807 0.9807679 0.0692755004
    outer loop
      vertex 3.03919184 0.455750235 2.10156128
      vertex 3.04032262 0.455993816 2.10109124
      vertex 2.99439412 0.455279432 1.99023069
    endloop
  endfacet
  facet normal -0.182469807 0.9807679 0.0692755004
    outer loop
      vertex 3.03919184 0.455750235 2.10156128
      vertex 2.99439412 0.455279432 1.99023069
      vertex 2.99326333 0.45503585 1.99070073
    endloop
  endfacet
  facet normal 0.382737554 0.00595320522 0.923837932
    outer loop
      vertex 3.04032991 0.452793873 2.10110884
      vertex 3.04032262 0.455993816 2.10109124
      vertex 3.03919184 0.455750235 2.10156128
    endloop
  endfacet
  facet normal -0.382737554 -0.00595320522 -0.923837932
    outer loop
      vertex 2.99440141 0.452079488 1.99024829
      vertex 2.99326333 0.45503585 1.99070073
      vertex 2.99439412 0.455279432 1.99023069
    endloop
  endfacet
  facet normal 0.17800026 0.9807679 -0.0800639311
    outer loop
      vertex 3.04032262 0.455993816 2.10109124
      vertex 3.04145452 0.455750235 2.10062388
      vertex 2.99552601 0.45503585 1.98976332
    endloop
  endfacet
  facet normal 0.17800026 0.9807679 -0.0800639311
    outer loop
      vertex 3.04032262 0.455993816 2.10109124
      vertex 2.99552601 0.45503585 1.98976332
      vertex 2.99439412 0.455279432 1.99023069
    endloop
  endfacet
  facet normal 0.382737554 0.00595320522 0.923837932
    outer loop
      vertex 3.04032991 0.452793873 2.10110884
      vertex 3.04145452 0.455750235 2.10062388
      vertex 3.04032262 0.455993816 2.10109124
    endloop
  endfacet
  facet normal -0.382737554 -0.00595320522 -0.923837932
    outer loop
      vertex 2.99440141 0.452079488 1.99024829
      vertex 2.99439412 0.455279432 1.99023069
      vertex 2.99552601 0.45503585 1.98976332
    endloop
  endfacet
  facet normal 0.511371401 0.831454878 -0.217214355
    outer loop
      vertex 3.04145452 0.455750235 2.10062388
      vertex 3.0424152 0.455056574 2.10023034
      vertex 2.99648669 0.45434219 1.98936979
    endloop
  endfacet
  facet normal 0.511371401 0.831454878 -0.217214355
    outer loop
      vertex 3.04145452 0.455750235 2.10062388
      vertex 2.99648669 0.45434219 1.98936979
      vertex 2.99552601 0.45503585 1.98976332
    endloop
  endfacet
  facet normal 0.382737554 0.00595320522 0.923837932
    outer loop
      vertex 3.04032991 0.452793873 2.10110884
      vertex 3.0424152 0.455056574 2.10023034
      vertex 3.04145452 0.455750235 2.10062388
    endloop
  endfacet
  facet normal -0.382737554 -0.00595320522 -0.923837932
    outer loop
      vertex 2.99440141 0.452079488 1.99024829
      vertex 2.99552601 0.45503585 1.98976332
      vertex 2.99648669 0.45434219 1.98936979
    endloop
  endfacet
  facet normal 0.766890882 0.555560388 -0.321295862
    outer loop
      vertex 3.0424152 0.455056574 2.10023034
      vertex 3.04305842 0.454018438 2.09997055
      vertex 2.99712991 0.453304054 1.98911
    endloop
  endfacet
  facet normal 0.766890882 0.555560388 -0.321295862
    outer loop
      vertex 3.0424152 0.455056574 2.10023034
      vertex 2.99712991 0.453304054 1.98911
      vertex 2.99648669 0.45434219 1.98936979
    endloop
  endfacet
  facet normal 0.382737554 0.00595320522 0.923837932
    outer loop
      vertex 3.04032991 0.452793873 2.10110884
      vertex 3.04305842 0.454018438 2.09997055
      vertex 3.0424152 0.455056574 2.10023034
    endloop
  endfacet
  facet normal -0.382737554 -0.00595320522 -0.923837932
    outer loop
      vertex 2.99440141 0.452079488 1.99024829
      vertex 2.99648669 0.45434219 1.98936979
      vertex 2.99712991 0.453304054 1.98911
    endloop
  endfacet
  facet normal 0.905658178 0.195086865 -0.376462987
    outer loop
      vertex 3.04305842 0.454018438 2.09997055
      vertex 3.04328625 0.452793873 2.09988406
      vertex 2.99735774 0.452079488 1.98902351
    endloop
  endfacet
  facet normal 0.905658178 0.195086865 -0.376462987
    outer loop
      vertex 3.04305842 0.454018438 2.09997055
      vertex 2.99735774 0.452079488 1.98902351
      vertex 2.99712991 0.453304054 1.98911
    endloop
  endfacet
  facet normal 0.382737554 0.00595320522 0.923837932
    outer loop
      vertex 3.04032991 0.452793873 2.10110884
      vertex 3.04328625 0.452793873 2.09988406
      vertex 3.04305842 0.454018438 2.09997055
    endloop
  endfacet
  facet normal -0.382737554 -0.00595320522 -0.923837932
    outer loop
      vertex 2.99440141 0.452079488 1.99024829
      vertex 2.99712991 0.453304054 1.98911
      vertex 2.99735774 0.452079488 1.98902351
    endloop
  endfacet
  facet normal 0.73550192 0.649098669 -0.194185077
    outer loop
      vertex 3.1196683 0.551308765 1.97492535
      vertex 3.11940635 0.551240934 1.97370644
      vertex 3.02277308 0.665055212 1.98813979
    endloop
  endfacet
  facet normal 0.73550192 0.649098669 -0.194185077
    outer loop
      vertex 3.1196683 0.551308765 1.97492535
      vertex 3.02277308 0.665055212 1.98813979
      vertex 3.02303503 0.665123043 1.98935869
    endloop
  endfacet
  facet normal 0.644221796 -0.758761848 -0.0962223179
    outer loop
      vertex 3.11722894 0.549237645 1.97492535
      vertex 3.11940635 0.551240934 1.97370644
      vertex 3.1196683 0.551308765 1.97492535
    endloop
  endfacet
  facet normal -0.644221796 0.758761848 0.0962223179
    outer loop
      vertex 3.02059567 0.663051922 1.98935869
      vertex 3.02303503 0.665123043 1.98935869
      vertex 3.02277308 0.665055212 1.98813979
    endloop
  endfacet
  facet normal 0.599228948 0.578899101 -0.552992313
    outer loop
      vertex 3.11940635 0.551240934 1.97370644
      vertex 3.11881291 0.550868121 1.97267311
      vertex 3.02217964 0.664682398 1.98710645
    endloop
  endfacet
  facet normal 0.599228948 0.578899101 -0.552992313
    outer loop
      vertex 3.11940635 0.551240934 1.97370644
      vertex 3.02217964 0.664682398 1.98710645
      vertex 3.02277308 0.665055212 1.98813979
    endloop
  endfacet
  facet normal 0.644221796 -0.758761848 -0.0962223179
    outer loop
      vertex 3.11722894 0.549237645 1.97492535
      vertex 3.11881291 0.550868121 1.97267311
      vertex 3.11940635 0.551240934 1.97370644
    endloop
  endfacet
  facet normal -0.644221796 0.758761848 0.0962223179
    outer loop
      vertex 3.02059567 0.663051922 1.98935869
      vertex 3.02277308 0.665055212 1.98813979
      vertex 3.02217964 0.664682398 1.98710645
    endloop
  endfacet
  facet normal 0.371728802 0.420567392 -0.827611483
    outer loop
      vertex 3.11881291 0.550868121 1.97267311
      vertex 3.11797833 0.550247082 1.97198265
      vertex 3.02134506 0.664061359 1.986416
    endloop
  endfacet
  facet normal 0.371728802 0.420567392 -0.827611483
    outer loop
      vertex 3.11881291 0.550868121 1.97267311
      vertex 3.02134506 0.664061359 1.986416
      vertex 3.02217964 0.664682398 1.98710645
    endloop
  endfacet
  facet normal 0.644221796 -0.758761848 -0.0962223179
    outer loop
      vertex 3.11722894 0.549237645 1.97492535
      vertex 3.11797833 0.550247082 1.97198265
      vertex 3.11881291 0.550868121 1.97267311
    endloop
  endfacet
  facet normal -0.644221796 0.758761848 0.0962223179
    outer loop
      vertex 3.02059567 0.663051922 1.98935869
      vertex 3.02217964 0.664682398 1.98710645
      vertex 3.02134506 0.664061359 1.986416
    endloop
  endfacet
  facet normal 0.0876363149 0.19820811 -0.976234307
    outer loop
      vertex 3.11797833 0.550247082 1.97198265
      vertex 3.11702965 0.549472366 1.9717402
      vertex 3.02039638 0.663286643 1.98617354
    endloop
  endfacet
  facet normal 0.0876363149 0.19820811 -0.976234307
    outer loop
      vertex 3.11797833 0.550247082 1.97198265
      vertex 3.02039638 0.663286643 1.98617354
      vertex 3.02134506 0.664061359 1.986416
    endloop
  endfacet
  facet normal 0.644221796 -0.758761848 -0.0962223179
    outer loop
      vertex 3.11722894 0.549237645 1.97492535
      vertex 3.11702965 0.549472366 1.9717402
      vertex 3.11797833 0.550247082 1.97198265
    endloop
  endfacet
  facet normal -0.644221796 0.758761848 0.0962223179
    outer loop
      vertex 3.02059567 0.663051922 1.98935869
      vertex 3.02134506 0.664061359 1.986416
      vertex 3.02039638 0.663286643 1.98617354
    endloop
  endfacet
  facet normal -0.209798007 -0.0543265596 -0.976234307
    outer loop
      vertex 3.11702965 0.549472366 1.9717402
      vertex 3.11611132 0.548661915 1.97198265
      vertex 3.01947805 0.662476193 1.986416
    endloop
  endfacet
  facet normal -0.209798007 -0.0543265596 -0.976234307
    outer loop
      vertex 3.11702965 0.549472366 1.9717402
      vertex 3.01947805 0.662476193 1.986416
      vertex 3.02039638 0.663286643 1.98617354
    endloop
  endfacet
  facet normal 0.644221796 -0.758761848 -0.0962223179
    outer loop
      vertex 3.11722894 0.549237645 1.97492535
      vertex 3.11611132 0.548661915 1.97198265
      vertex 3.11702965 0.549472366 1.9717402
    endloop
  endfacet
  facet normal -0.644221796 0.758761848 0.0962223179
    outer loop
      vertex 3.02059567 0.663051922 1.98935869
      vertex 3.02039638 0.663286643 1.98617354
      vertex 3.01947805 0.662476193 1.986416
    endloop
  endfacet
  facet normal -0.475292483 -0.298590503 -0.827611483
    outer loop
      vertex 3.11611132 0.548661915 1.97198265
      vertex 3.11536314 0.547939115 1.97267311
      vertex 3.01872987 0.661753392 1.98710645
    endloop
  endfacet
  facet normal -0.475292483 -0.298590503 -0.827611483
    outer loop
      vertex 3.11611132 0.548661915 1.97198265
      vertex 3.01872987 0.661753392 1.98710645
      vertex 3.01947805 0.662476193 1.986416
    endloop
  endfacet
  facet normal 0.644221796 -0.758761848 -0.0962223179
    outer loop
      vertex 3.11722894 0.549237645 1.97492535
      vertex 3.11536314 0.547939115 1.97267311
      vertex 3.11611132 0.548661915 1.97198265
    endloop
  endfacet
  facet normal -0.644221796 0.758761848 0.0962223179
    outer loop
      vertex 3.02059567 0.663051922 1.98935869
      vertex 3.01947805 0.662476193 1.986416
      vertex 3.01872987 0.661753392 1.98710645
    endloop
  endfacet
  facet normal -0.668427988 -0.497396749 -0.552992313
    outer loop
      vertex 3.11536314 0.547939115 1.97267311
      vertex 3.11489901 0.547414003 1.97370644
      vertex 3.01826574 0.661228281 1.98813979
    endloop
  endfacet
  facet normal -0.668427988 -0.497396749 -0.552992313
    outer loop
      vertex 3.11536314 0.547939115 1.97267311
      vertex 3.01826574 0.661228281 1.98813979
      vertex 3.01872987 0.661753392 1.98710645
    endloop
  endfacet
  facet normal 0.644221796 -0.758761848 -0.0962223179
    outer loop
      vertex 3.11722894 0.549237645 1.97492535
      vertex 3.11489901 0.547414003 1.97370644
      vertex 3.11536314 0.547939115 1.97267311
    endloop
  endfacet
  facet normal -0.644221796 0.758761848 0.0962223179
    outer loop
      vertex 3.02059567 0.663051922 1.98935869
      vertex 3.01872987 0.661753392 1.98710645
      vertex 3.01826574 0.661228281 1.98813979
    endloop
  endfacet
  facet normal -0.759801391 -0.620478849 -0.194185077
    outer loop
      vertex 3.11489901 0.547414003 1.97370644
      vertex 3.11478958 0.547166525 1.97492535
      vertex 3.01815632 0.660980802 1.98935869
    endloop
  endfacet
  facet normal -0.759801391 -0.620478849 -0.194185077
    outer loop
      vertex 3.11489901 0.547414003 1.97370644
      vertex 3.01815632 0.660980802 1.98935869
      vertex 3.01826574 0.661228281 1.98813979
    endloop
  endfacet
  facet normal 0.644221796 -0.758761848 -0.0962223179
    outer loop
      vertex 3.11722894 0.549237645 1.97492535
      vertex 3.11478958 0.547166525 1.97492535
      vertex 3.11489901 0.547414003 1.97370644
    endloop
  endfacet
  facet normal -0.644221796 0.758761848 0.0962223179
    outer loop
      vertex 3.02059567 0.663051922 1.98935869
      vertex 3.01826574 0.661228281 1.98813979
      vertex 3.01815632 0.660980802 1.98935869
    endloop
  endfacet
  facet normal -0.73550192 -0.649098669 0.194185077
    outer loop
      vertex 3.11478958 0.547166525 1.97492535
      vertex 3.11505153 0.547234356 1.97614425
      vertex 3.01841826 0.661048633 1.9905776
    endloop
  endfacet
  facet normal -0.73550192 -0.649098669 0.194185077
    outer loop
      vertex 3.11478958 0.547166525 1.97492535
      vertex 3.01841826 0.661048633 1.9905776
      vertex 3.01815632 0.660980802 1.98935869
    endloop
  endfacet
  facet normal 0.644221796 -0.758761848 -0.0962223179
    outer loop
      vertex 3.11722894 0.549237645 1.97492535
      vertex 3.11505153 0.547234356 1.97614425
      vertex 3.11478958 0.547166525 1.97492535
    endloop
  endfacet
  facet normal -0.644221796 0.758761848 0.0962223179
    outer loop
      vertex 3.02059567 0.663051922 1.98935869
      vertex 3.01815632 0.660980802 1.98935869
      vertex 3.01841826 0.661048633 1.9905776
    endloop
  endfacet
  facet normal -0.599228948 -0.578899101 0.552992313
    outer loop
      vertex 3.11505153 0.547234356 1.97614425
      vertex 3.11564497 0.54760717 1.97717759
      vertex 3.0190117 0.661421447 1.99161094
    endloop
  endfacet
  facet normal -0.599228948 -0.578899101 0.552992313
    outer loop
      vertex 3.11505153 0.547234356 1.97614425
      vertex 3.0190117 0.661421447 1.99161094
      vertex 3.01841826 0.661048633 1.9905776
    endloop
  endfacet
  facet normal 0.644221796 -0.758761848 -0.0962223179
    outer loop
      vertex 3.11722894 0.549237645 1.97492535
      vertex 3.11564497 0.54760717 1.97717759
      vertex 3.11505153 0.547234356 1.97614425
    endloop
  endfacet
  facet normal -0.644221796 0.758761848 0.0962223179
    outer loop
      vertex 3.02059567 0.663051922 1.98935869
      vertex 3.01841826 0.661048633 1.9905776
      vertex 3.0190117 0.661421447 1.99161094
    endloop
  endfacet
  facet normal -0.371728802 -0.420567392 0.827611483
    outer loop
      vertex 3.11564497 0.54760717 1.97717759
      vertex 3.11647956 0.548228208 1.97786804
      vertex 3.01984629 0.662042486 1.99230139
    endloop
  endfacet
  facet normal -0.371728802 -0.420567392 0.827611483
    outer loop
      vertex 3.11564497 0.54760717 1.97717759
      vertex 3.01984629 0.662042486 1.99230139
      vertex 3.0190117 0.661421447 1.99161094
    endloop
  endfacet
  facet normal 0.644221796 -0.758761848 -0.0962223179
    outer loop
      vertex 3.11722894 0.549237645 1.97492535
      vertex 3.11647956 0.548228208 1.97786804
      vertex 3.11564497 0.54760717 1.97717759
    endloop
  endfacet
  facet normal -0.644221796 0.758761848 0.0962223179
    outer loop
      vertex 3.02059567 0.663051922 1.98935869
      vertex 3.0190117 0.661421447 1.99161094
      vertex 3.01984629 0.662042486 1.99230139
    endloop
  endfacet
  facet normal -0.0876363149 -0.19820811 0.976234307
    outer loop
      vertex 3.11647956 0.548228208 1.97786804
      vertex 3.11742823 0.549002925 1.9781105
      vertex 3.02079496 0.662817202 1.99254385
    endloop
  endfacet
  facet normal -0.0876363149 -0.19820811 0.976234307
    outer loop
      vertex 3.11647956 0.548228208 1.97786804
      vertex 3.02079496 0.662817202 1.99254385
      vertex 3.01984629 0.662042486 1.99230139
    endloop
  endfacet
  facet normal 0.644221796 -0.758761848 -0.0962223179
    outer loop
      vertex 3.11722894 0.549237645 1.97492535
      vertex 3.11742823 0.549002925 1.9781105
      vertex 3.11647956 0.548228208 1.97786804
    endloop
  endfacet
  facet normal -0.644221796 0.758761848 0.0962223179
    outer loop
      vertex 3.02059567 0.663051922 1.98935869
      vertex 3.01984629 0.662042486 1.99230139
      vertex 3.02079496 0.662817202 1.99254385
    endloop
  endfacet
  facet normal 0.209798007 0.0543265596 0.976234307
    outer loop
      vertex 3.11742823 0.549002925 1.9781105
      vertex 3.11834656 0.549813375 1.97786804
      vertex 3.02171329 0.663627652 1.99230139
    endloop
  endfacet
  facet normal 0.209798007 0.0543265596 0.976234307
    outer loop
      vertex 3.11742823 0.549002925 1.9781105
      vertex 3.02171329 0.663627652 1.99230139
      vertex 3.02079496 0.662817202 1.99254385
    endloop
  endfacet
  facet normal 0.644221796 -0.758761848 -0.0962223179
    outer loop
      vertex 3.11722894 0.549237645 1.97492535
      vertex 3.11834656 0.549813375 1.97786804
      vertex 3.11742823 0.549002925 1.9781105
    endloop
  endfacet
  facet normal -0.644221796 0.758761848 0.0962223179
    outer loop
      vertex 3.02059567 0.663051922 1.98935869
      vertex 3.02079496 0.662817202 1.99254385
      vertex 3.02171329 0.663627652 1.99230139
    endloop
  endfacet
  facet normal 0.475292483 0.298590503 0.827611483
    outer loop
      vertex 3.11834656 0.549813375 1.97786804
      vertex 3.11909475 0.550536176 1.97717759
      vertex 3.02246148 0.664350453 1.99161094
    endloop
  endfacet
  facet normal 0.475292483 0.298590503 0.827611483
    outer loop
      vertex 3.11834656 0.549813375 1.97786804
      vertex 3.02246148 0.664350453 1.99161094
      vertex 3.02171329 0.663627652 1.99230139
    endloop
  endfacet
  facet normal 0.644221796 -0.758761848 -0.0962223179
    outer loop
      vertex 3.11722894 0.549237645 1.97492535
      vertex 3.11909475 0.550536176 1.97717759
      vertex 3.11834656 0.549813375 1.97786804
    endloop
  endfacet
  facet normal -0.644221796 0.758761848 0.0962223179
    outer loop
      vertex 3.02059567 0.663051922 1.98935869
      vertex 3.02171329 0.663627652 1.99230139
      vertex 3.02246148 0.664350453 1.99161094
    endloop
  endfacet
  facet normal 0.668427988 0.497396749 0.552992313
    outer loop
      vertex 3.11909475 0.550536176 1.97717759
      vertex 3.11955888 0.551061287 1.97614425
      vertex 3.02292561 0.664875564 1.9905776
    endloop
  endfacet
  facet normal 0.668427988 0.497396749 0.552992313
    outer loop
      vertex 3.11909475 0.550536176 1.97717759
      vertex 3.02292561 0.664875564 1.9905776
      vertex 3.02246148 0.664350453 1.99161094
    endloop
  endfacet
  facet normal 0.644221796 -0.758761848 -0.0962223179
    outer loop
      vertex 3.11722894 0.549237645 1.97492535
      vertex 3.11955888 0.551061287 1.97614425
      vertex 3.11909475 0.550536176 1.97717759
    endloop
  endfacet
  facet normal -0.644221796 0.758761848 0.0962223179
    outer loop
      vertex 3.02059567 0.663051922 1.98935869
      vertex 3.02246148 0.664350453 1.99161094
      vertex 3.02292561 0.664875564 1.9905776
    endloop
  endfacet
  facet normal 0.759801391 0.620478849 0.194185077
    outer loop
      vertex 3.11955888 0.551061287 1.97614425
      vertex 3.1196683 0.551308765 1.97492535
      vertex 3.02303503 0.665123043 1.98935869
    endloop
  endfacet
  facet normal 0.759801391 0.620478849 0.194185077
    outer loop
      vertex 3.11955888 0.551061287 1.97614425
      vertex 3.02303503 0.665123043 1.98935869
      vertex 3.02292561 0.664875564 1.9905776
    endloop
  endfacet
  facet normal 0.644221796 -0.758761848 -0.0962223179
    outer loop
      vertex 3.11722894 0.549237645 1.97492535
      vertex 3.1196683 0.551308765 1.97492535
      vertex 3.11955888 0.551061287 1.97614425
    endloop
  endfacet
  facet normal -0.644221796 0.758761848 0.0962223179
    outer loop
      vertex 3.02059567 0.663051922 1.98935869
      vertex 3.02292561 0.664875564 1.9905776
      vertex 3.02303503 0.665123043 1.98935869
    endloop
  endfacet
  facet normal 0.73550192 0.649098669 -0.194185077
    outer loop
      vertex 3.12707899 0.553929223 2.00387729
      vertex 3.12681704 0.553861392 2.00265838
      vertex 3.03018377 0.667675669 2.01709173
    endloop
  endfacet
  facet normal 0.73550192 0.649098669 -0.194185077
    outer loop
      vertex 3.12707899 0.553929223 2.00387729
      vertex 3.03018377 0.667675669 2.01709173
      vertex 3.03044572 0.6677435 2.01831064
    endloop
  endfacet
  facet normal 0.644221796 -0.758761848 -0.0962223179
    outer loop
      vertex 3.12463963 0.551858103 2.00387729
      vertex 3.12681704 0.553861392 2.00265838
      vertex 3.12707899 0.553929223 2.00387729
    endloop
  endfacet
  facet normal -0.644221796 0.758761848 0.0962223179
    outer loop
      vertex 3.02800636 0.66567238 2.01831064
      vertex 3.03044572 0.6677435 2.01831064
      vertex 3.03018377 0.667675669 2.01709173
    endloop
  endfacet
  facet normal 0.599228948 0.578899101 -0.552992313
    outer loop
      vertex 3.12681704 0.553861392 2.00265838
      vertex 3.1262236 0.553488579 2.00162505
      vertex 3.02959033 0.667302856 2.01605839
    endloop
  endfacet
  facet normal 0.599228948 0.578899101 -0.552992313
    outer loop
      vertex 3.12681704 0.553861392 2.00265838
      vertex 3.02959033 0.667302856 2.01605839
      vertex 3.03018377 0.667675669 2.01709173
    endloop
  endfacet
  facet normal 0.644221796 -0.758761848 -0.0962223179
    outer loop
      vertex 3.12463963 0.551858103 2.00387729
      vertex 3.1262236 0.553488579 2.00162505
      vertex 3.12681704 0.553861392 2.00265838
    endloop
  endfacet
  facet normal -0.644221796 0.758761848 0.0962223179
    outer loop
      vertex 3.02800636 0.66567238 2.01831064
      vertex 3.03018377 0.667675669 2.01709173
      vertex 3.02959033 0.667302856 2.01605839
    endloop
  endfacet
  facet normal 0.371728802 0.420567392 -0.827611483
    outer loop
      vertex 3.1262236 0.553488579 2.00162505
      vertex 3.12538901 0.55286754 2.00093459
      vertex 3.02875574 0.666681817 2.01536794
    endloop
  endfacet
  facet normal 0.371728802 0.420567392 -0.827611483
    outer loop
      vertex 3.1262236 0.553488579 2.00162505
      vertex 3.02875574 0.666681817 2.01536794
      vertex 3.02959033 0.667302856 2.01605839
    endloop
  endfacet
  facet normal 0.644221796 -0.758761848 -0.0962223179
    outer loop
      vertex 3.12463963 0.551858103 2.00387729
      vertex 3.12538901 0.55286754 2.00093459
      vertex 3.1262236 0.553488579 2.00162505
    endloop
  endfacet
  facet normal -0.644221796 0.758761848 0.0962223179
    outer loop
      vertex 3.02800636 0.66567238 2.01831064
      vertex 3.02959033 0.667302856 2.01605839
      vertex 3.02875574 0.666681817 2.01536794
    endloop
  endfacet
  facet normal 0.0876363149 0.19820811 -0.976234307
    outer loop
      vertex 3.12538901 0.55286754 2.00093459
      vertex 3.12444034 0.552092824 2.00069214
      vertex 3.02780707 0.665907101 2.01512548
    endloop
  endfacet
  facet normal 0.0876363149 0.19820811 -0.976234307
    outer loop
      vertex 3.12538901 0.55286754 2.00093459
      vertex 3.02780707 0.665907101 2.01512548
      vertex 3.02875574 0.666681817 2.01536794
    endloop
  endfacet
  facet normal 0.644221796 -0.758761848 -0.0962223179
    outer loop
      vertex 3.12463963 0.551858103 2.00387729
      vertex 3.12444034 0.552092824 2.00069214
      vertex 3.12538901 0.55286754 2.00093459
    endloop
  endfacet
  facet normal -0.644221796 0.758761848 0.0962223179
    outer loop
      vertex 3.02800636 0.66567238 2.01831064
      vertex 3.02875574 0.666681817 2.01536794
      vertex 3.02780707 0.665907101 2.01512548
    endloop
  endfacet
  facet normal -0.209798007 -0.0543265596 -0.976234307
    outer loop
      vertex 3.12444034 0.552092824 2.00069214
      vertex 3.12352201 0.551282373 2.00093459
      vertex 3.02688874 0.66509665 2.01536794
    endloop
  endfacet
  facet normal -0.209798007 -0.0543265596 -0.976234307
    outer loop
      vertex 3.12444034 0.552092824 2.00069214
      vertex 3.02688874 0.66509665 2.01536794
      vertex 3.02780707 0.665907101 2.01512548
    endloop
  endfacet
  facet normal 0.644221796 -0.758761848 -0.0962223179
    outer loop
      vertex 3.12463963 0.551858103 2.00387729
      vertex 3.12352201 0.551282373 2.00093459
      vertex 3.12444034 0.552092824 2.00069214
    endloop
  endfacet
  facet normal -0.644221796 0.758761848 0.0962223179
    outer loop
      vertex 3.02800636 0.66567238 2.01831064
      vertex 3.02780707 0.665907101 2.01512548
      vertex 3.02688874 0.66509665 2.01536794
    endloop
  endfacet
  facet normal -0.475292483 -0.298590503 -0.827611483
    outer loop
      vertex 3.12352201 0.551282373 2.00093459
      vertex 3.12277383 0.550559572 2.00162505
      vertex 3.02614056 0.66437385 2.01605839
    endloop
  endfacet
  facet normal -0.475292483 -0.298590503 -0.827611483
    outer loop
      vertex 3.12352201 0.551282373 2.00093459
      vertex 3.02614056 0.66437385 2.01605839
      vertex 3.02688874 0.66509665 2.01536794
    endloop
  endfacet
  facet normal 0.644221796 -0.758761848 -0.0962223179
    outer loop
      vertex 3.12463963 0.551858103 2.00387729
      vertex 3.12277383 0.550559572 2.00162505
      vertex 3.12352201 0.551282373 2.00093459
    endloop
  endfacet
  facet normal -0.644221796 0.758761848 0.0962223179
    outer loop
      vertex 3.02800636 0.66567238 2.01831064
      vertex 3.02688874 0.66509665 2.01536794
      vertex 3.02614056 0.66437385 2.01605839
    endloop
  endfacet
  facet normal -0.668427988 -0.497396749 -0.552992313
    outer loop
      vertex 3.12277383 0.550559572 2.00162505
      vertex 3.12230969 0.550034461 2.00265838
      vertex 3.02567642 0.663848739 2.01709173
    endloop
  endfacet
  facet normal -0.668427988 -0.497396749 -0.552992313
    outer loop
      vertex 3.12277383 0.550559572 2.00162505
      vertex 3.02567642 0.663848739 2.01709173
      vertex 3.02614056 0.66437385 2.01605839
    endloop
  endfacet
  facet normal 0.644221796 -0.758761848 -0.0962223179
    outer loop
      vertex 3.12463963 0.551858103 2.00387729
      vertex 3.12230969 0.550034461 2.00265838
      vertex 3.12277383 0.550559572 2.00162505
    endloop
  endfacet
  facet normal -0.644221796 0.758761848 0.0962223179
    outer loop
      vertex 3.02800636 0.66567238 2.01831064
      vertex 3.02614056 0.66437385 2.01605839
      vertex 3.02567642 0.663848739 2.01709173
    endloop
  endfacet
  facet normal -0.759801391 -0.620478849 -0.194185077
    outer loop
      vertex 3.12230969 0.550034461 2.00265838
      vertex 3.12220027 0.549786983 2.00387729
      vertex 3.025567 0.66360126 2.01831064
    endloop
  endfacet
  facet normal -0.759801391 -0.620478849 -0.194185077
    outer loop
      vertex 3.12230969 0.550034461 2.00265838
      vertex 3.025567 0.66360126 2.01831064
      vertex 3.02567642 0.663848739 2.01709173
    endloop
  endfacet
  facet normal 0.644221796 -0.758761848 -0.0962223179
    outer loop
      vertex 3.12463963 0.551858103 2.00387729
      vertex 3.12220027 0.549786983 2.00387729
      vertex 3.12230969 0.550034461 2.00265838
    endloop
  endfacet
  facet normal -0.644221796 0.758761848 0.0962223179
    outer loop
      vertex 3.02800636 0.66567238 2.01831064
      vertex 3.02567642 0.663848739 2.01709173
      vertex 3.025567 0.66360126 2.01831064
    endloop
  endfacet
  facet normal -0.73550192 -0.649098669 0.194185077
    outer loop
      vertex 3.12220027 0.549786983 2.00387729
      vertex 3.12246222 0.549854814 2.00509619
      vertex 3.02582895 0.663669091 2.01952954
    endloop
  endfacet
  facet normal -0.73550192 -0.649098669 0.194185077
    outer loop
      vertex 3.12220027 0.549786983 2.00387729
      vertex 3.02582895 0.663669091 2.01952954
      vertex 3.025567 0.66360126 2.01831064
    endloop
  endfacet
  facet normal 0.644221796 -0.758761848 -0.0962223179
    outer loop
      vertex 3.12463963 0.551858103 2.00387729
      vertex 3.12246222 0.549854814 2.00509619
      vertex 3.12220027 0.549786983 2.00387729
    endloop
  endfacet
  facet normal -0.644221796 0.758761848 0.0962223179
    outer loop
      vertex 3.02800636 0.66567238 2.01831064
      vertex 3.025567 0.66360126 2.01831064
      vertex 3.02582895 0.663669091 2.01952954
    endloop
  endfacet
  facet normal -0.599228948 -0.578899101 0.552992313
    outer loop
      vertex 3.12246222 0.549854814 2.00509619
      vertex 3.12305566 0.550227627 2.00612953
      vertex 3.02642239 0.664041905 2.02056288
    endloop
  endfacet
  facet normal -0.599228948 -0.578899101 0.552992313
    outer loop
      vertex 3.12246222 0.549854814 2.00509619
      vertex 3.02642239 0.664041905 2.02056288
      vertex 3.02582895 0.663669091 2.01952954
    endloop
  endfacet
  facet normal 0.644221796 -0.758761848 -0.0962223179
    outer loop
      vertex 3.12463963 0.551858103 2.00387729
      vertex 3.12305566 0.550227627 2.00612953
      vertex 3.12246222 0.549854814 2.00509619
    endloop
  endfacet
  facet normal -0.644221796 0.758761848 0.0962223179
    outer loop
      vertex 3.02800636 0.66567238 2.01831064
      vertex 3.02582895 0.663669091 2.01952954
      vertex 3.02642239 0.664041905 2.02056288
    endloop
  endfacet
  facet normal -0.371728802 -0.420567392 0.827611483
    outer loop
      vertex 3.12305566 0.550227627 2.00612953
      vertex 3.12389025 0.550848666 2.00681999
      vertex 3.02725698 0.664662943 2.02125333
    endloop
  endfacet
  facet normal -0.371728802 -0.420567392 0.827611483
    outer loop
      vertex 3.12305566 0.550227627 2.00612953
      vertex 3.02725698 0.664662943 2.02125333
      vertex 3.02642239 0.664041905 2.02056288
    endloop
  endfacet
  facet normal 0.644221796 -0.758761848 -0.0962223179
    outer loop
      vertex 3.12463963 0.551858103 2.00387729
      vertex 3.12389025 0.550848666 2.00681999
      vertex 3.12305566 0.550227627 2.00612953
    endloop
  endfacet
  facet normal -0.644221796 0.758761848 0.0962223179
    outer loop
      vertex 3.02800636 0.66567238 2.01831064
      vertex 3.02642239 0.664041905 2.02056288
      vertex 3.02725698 0.664662943 2.02125333
    endloop
  endfacet
  facet normal -0.0876363149 -0.19820811 0.976234307
    outer loop
      vertex 3.12389025 0.550848666 2.00681999
      vertex 3.12483892 0.551623382 2.00706244
      vertex 3.02820565 0.66543766 2.02149579
    endloop
  endfacet
  facet normal -0.0876363149 -0.19820811 0.976234307
    outer loop
      vertex 3.12389025 0.550848666 2.00681999
      vertex 3.02820565 0.66543766 2.02149579
      vertex 3.02725698 0.664662943 2.02125333
    endloop
  endfacet
  facet normal 0.644221796 -0.758761848 -0.0962223179
    outer loop
      vertex 3.12463963 0.551858103 2.00387729
      vertex 3.12483892 0.551623382 2.00706244
      vertex 3.12389025 0.550848666 2.00681999
    endloop
  endfacet
  facet normal -0.644221796 0.758761848 0.0962223179
    outer loop
      vertex 3.02800636 0.66567238 2.01831064
      vertex 3.02725698 0.664662943 2.02125333
      vertex 3.02820565 0.66543766 2.02149579
    endloop
  endfacet
  facet normal 0.209798007 0.0543265596 0.976234307
    outer loop
      vertex 3.12483892 0.551623382 2.00706244
      vertex 3.12575725 0.552433833 2.00681999
      vertex 3.02912398 0.66624811 2.02125333
    endloop
  endfacet
  facet normal 0.209798007 0.0543265596 0.976234307
    outer loop
      vertex 3.12483892 0.551623382 2.00706244
      vertex 3.02912398 0.66624811 2.02125333
      vertex 3.02820565 0.66543766 2.02149579
    endloop
  endfacet
  facet normal 0.644221796 -0.758761848 -0.0962223179
    outer loop
      vertex 3.12463963 0.551858103 2.00387729
      vertex 3.12575725 0.552433833 2.00681999
      vertex 3.12483892 0.551623382 2.00706244
    endloop
  endfacet
  facet normal -0.644221796 0.758761848 0.0962223179
    outer loop
      vertex 3.02800636 0.66567238 2.01831064
      vertex 3.02820565 0.66543766 2.02149579
      vertex 3.02912398 0.66624811 2.02125333
    endloop
  endfacet
  facet normal 0.475292483 0.298590503 0.827611483
    outer loop
      vertex 3.12575725 0.552433833 2.00681999
      vertex 3.12650543 0.553156634 2.00612953
      vertex 3.02987216 0.666970911 2.02056288
    endloop
  endfacet
  facet normal 0.475292483 0.298590503 0.827611483
    outer loop
      vertex 3.12575725 0.552433833 2.00681999
      vertex 3.02987216 0.666970911 2.02056288
      vertex 3.02912398 0.66624811 2.02125333
    endloop
  endfacet
  facet normal 0.644221796 -0.758761848 -0.0962223179
    outer loop
      vertex 3.12463963 0.551858103 2.00387729
      vertex 3.12650543 0.553156634 2.00612953
      vertex 3.12575725 0.552433833 2.00681999
    endloop
  endfacet
  facet normal -0.644221796 0.758761848 0.0962223179
    outer loop
      vertex 3.02800636 0.66567238 2.01831064
      vertex 3.02912398 0.66624811 2.02125333
      vertex 3.02987216 0.666970911 2.02056288
    endloop
  endfacet
  facet normal 0.668427988 0.497396749 0.552992313
    outer loop
      vertex 3.12650543 0.553156634 2.00612953
      vertex 3.12696957 0.553681745 2.00509619
      vertex 3.0303363 0.667496022 2.01952954
    endloop
  endfacet
  facet normal 0.668427988 0.497396749 0.552992313
    outer loop
      vertex 3.12650543 0.553156634 2.00612953
      vertex 3.0303363 0.667496022 2.01952954
      vertex 3.02987216 0.666970911 2.02056288
    endloop
  endfacet
  facet normal 0.644221796 -0.758761848 -0.0962223179
    outer loop
      vertex 3.12463963 0.551858103 2.00387729
      vertex 3.12696957 0.553681745 2.00509619
      vertex 3.12650543 0.553156634 2.00612953
    endloop
  endfacet
  facet normal -0.644221796 0.758761848 0.0962223179
    outer loop
      vertex 3.02800636 0.66567238 2.01831064
      vertex 3.02987216 0.666970911 2.02056288
      vertex 3.0303363 0.667496022 2.01952954
    endloop
  endfacet
  facet normal 0.759801391 0.620478849 0.194185077
    outer loop
      vertex 3.12696957 0.553681745 2.00509619
      vertex 3.12707899 0.553929223 2.00387729
      vertex 3.03044572 0.6677435 2.01831064
    endloop
  endfacet
  facet normal 0.759801391 0.620478849 0.194185077
    outer loop
      vertex 3.12696957 0.553681745 2.00509619
      vertex 3.03044572 0.6677435 2.01831064
      vertex 3.0303363 0.667496022 2.01952954
    endloop
  endfacet
  facet normal 0.644221796 -0.758761848 -0.0962223179
    outer loop
      vertex 3.12463963 0.551858103 2.00387729
      vertex 3.12707899 0.553929223 2.00387729
      vertex 3.12696957 0.553681745 2.00509619
    endloop
  endfacet
  facet normal -0.644221796 0.758761848 0.0962223179
    outer loop
      vertex 3.02800636 0.66567238 2.01831064
      vertex 3.0303363 0.667496022 2.01952954
      vertex 3.03044572 0.6677435 2.01831064
    endloop
  endfacet
  facet normal 0.939237566 -0.194771157 -0.282660558
    outer loop
      vertex 3.22495334 0.828085934 1.98747029
      vertex 3.22474184 0.826863351 1.98760995
      vertex 3.19787127 0.821717353 1.90186911
    endloop
  endfacet
  facet normal 0.939237566 -0.194771157 -0.282660558
    outer loop
      vertex 3.22495334 0.828085934 1.98747029
      vertex 3.19787127 0.821717353 1.90186911
      vertex 3.19808277 0.822939936 1.90172945
    endloop
  endfacet
  facet normal 0.298561846 0.0571777534 0.952675983
    outer loop
      vertex 3.22189978 0.828085934 1.98842725
      vertex 3.22474184 0.826863351 1.98760995
      vertex 3.22495334 0.828085934 1.98747029
    endloop
  endfacet
  facet normal -0.298561846 -0.0571777534 -0.952675983
    outer loop
      vertex 3.19502921 0.822939936 1.90268642
      vertex 3.19808277 0.822939936 1.90172945
      vertex 3.19787127 0.821717353 1.90186911
    endloop
  endfacet
  facet normal 0.802918887 -0.554661328 -0.218339352
    outer loop
      vertex 3.22474184 0.826863351 1.98760995
      vertex 3.22409766 0.825826894 1.98787404
      vertex 3.1972271 0.820680896 1.9021332
    endloop
  endfacet
  facet normal 0.802918887 -0.554661328 -0.218339352
    outer loop
      vertex 3.22474184 0.826863351 1.98760995
      vertex 3.1972271 0.820680896 1.9021332
      vertex 3.19787127 0.821717353 1.90186911
    endloop
  endfacet
  facet normal 0.298561846 0.0571777534 0.952675983
    outer loop
      vertex 3.22189978 0.828085934 1.98842725
      vertex 3.22409766 0.825826894 1.98787404
      vertex 3.22474184 0.826863351 1.98760995
    endloop
  endfacet
  facet normal -0.298561846 -0.0571777534 -0.952675983
    outer loop
      vertex 3.19502921 0.822939936 1.90268642
      vertex 3.19787127 0.821717353 1.90186911
      vertex 3.1972271 0.820680896 1.9021332
    endloop
  endfacet
  facet normal 0.544363085 -0.83010934 -0.120777959
    outer loop
      vertex 3.22409766 0.825826894 1.98787404
      vertex 3.22311888 0.825134356 1.98822235
      vertex 3.19624831 0.819988358 1.90248151
    endloop
  endfacet
  facet normal 0.544363085 -0.83010934 -0.120777959
    outer loop
      vertex 3.22409766 0.825826894 1.98787404
      vertex 3.19624831 0.819988358 1.90248151
      vertex 3.1972271 0.820680896 1.9021332
    endloop
  endfacet
  facet normal 0.298561846 0.0571777534 0.952675983
    outer loop
      vertex 3.22189978 0.828085934 1.98842725
      vertex 3.22311888 0.825134356 1.98822235
      vertex 3.22409766 0.825826894 1.98787404
    endloop
  endfacet
  facet normal -0.298561846 -0.0571777534 -0.952675983
    outer loop
      vertex 3.19502921 0.822939936 1.90268642
      vertex 3.1972271 0.820680896 1.9021332
      vertex 3.19624831 0.819988358 1.90248151
    endloop
  endfacet
  facet normal 0.202932939 -0.979180729 -0.00482921659
    outer loop
      vertex 3.22311888 0.825134356 1.98822235
      vertex 3.2219545 0.824891169 1.98860185
      vertex 3.19508393 0.819745171 1.90286101
    endloop
  endfacet
  facet normal 0.202932939 -0.979180729 -0.00482921659
    outer loop
      vertex 3.22311888 0.825134356 1.98822235
      vertex 3.19508393 0.819745171 1.90286101
      vertex 3.19624831 0.819988358 1.90248151
    endloop
  endfacet
  facet normal 0.298561846 0.0571777534 0.952675983
    outer loop
      vertex 3.22189978 0.828085934 1.98842725
      vertex 3.2219545 0.824891169 1.98860185
      vertex 3.22311888 0.825134356 1.98822235
    endloop
  endfacet
  facet normal -0.298561846 -0.0571777534 -0.952675983
    outer loop
      vertex 3.19502921 0.822939936 1.90268642
      vertex 3.19624831 0.819988358 1.90248151
      vertex 3.19508393 0.819745171 1.90286101
    endloop
  endfacet
  facet normal -0.169391908 -0.979180729 0.11185473
    outer loop
      vertex 3.2219545 0.824891169 1.98860185
      vertex 3.22078179 0.825134356 1.98895477
      vertex 3.19391122 0.819988358 1.90321394
    endloop
  endfacet
  facet normal -0.169391908 -0.979180729 0.11185473
    outer loop
      vertex 3.2219545 0.824891169 1.98860185
      vertex 3.19391122 0.819988358 1.90321394
      vertex 3.19508393 0.819745171 1.90286101
    endloop
  endfacet
  facet normal 0.298561846 0.0571777534 0.952675983
    outer loop
      vertex 3.22189978 0.828085934 1.98842725
      vertex 3.22078179 0.825134356 1.98895477
      vertex 3.2219545 0.824891169 1.98860185
    endloop
  endfacet
  facet normal -0.298561846 -0.0571777534 -0.952675983
    outer loop
      vertex 3.19502921 0.822939936 1.90268642
      vertex 3.19508393 0.819745171 1.90286101
      vertex 3.19391122 0.819988358 1.90321394
    endloop
  endfacet
  facet normal -0.515928372 -0.83010934 0.211509808
    outer loop
      vertex 3.22078179 0.825134356 1.98895477
      vertex 3.21977928 0.825826894 1.98922739
      vertex 3.19290871 0.820680896 1.90348655
    endloop
  endfacet
  facet normal -0.515928372 -0.83010934 0.211509808
    outer loop
      vertex 3.22078179 0.825134356 1.98895477
      vertex 3.19290871 0.820680896 1.90348655
      vertex 3.19391122 0.819988358 1.90321394
    endloop
  endfacet
  facet normal 0.298561846 0.0571777534 0.952675983
    outer loop
      vertex 3.22189978 0.828085934 1.98842725
      vertex 3.21977928 0.825826894 1.98922739
      vertex 3.22078179 0.825134356 1.98895477
    endloop
  endfacet
  facet normal -0.298561846 -0.0571777534 -0.952675983
    outer loop
      vertex 3.19502921 0.822939936 1.90268642
      vertex 3.19391122 0.819988358 1.90321394
      vertex 3.19290871 0.820680896 1.90348655
    endloop
  endfacet
  facet normal -0.783919419 -0.554661328 0.278964435
    outer loop
      vertex 3.21977928 0.825826894 1.98922739
      vertex 3.2190996 0.826863351 1.98937819
      vertex 3.19222903 0.821717353 1.90363735
    endloop
  endfacet
  facet normal -0.783919419 -0.554661328 0.278964435
    outer loop
      vertex 3.21977928 0.825826894 1.98922739
      vertex 3.19222903 0.821717353 1.90363735
      vertex 3.19290871 0.820680896 1.90348655
    endloop
  endfacet
  facet normal 0.298561846 0.0571777534 0.952675983
    outer loop
      vertex 3.22189978 0.828085934 1.98842725
      vertex 3.2190996 0.826863351 1.98937819
      vertex 3.21977928 0.825826894 1.98922739
    endloop
  endfacet
  facet normal -0.298561846 -0.0571777534 -0.952675983
    outer loop
      vertex 3.19502921 0.822939936 1.90268642
      vertex 3.19290871 0.820680896 1.90348655
      vertex 3.19222903 0.821717353 1.90363735
    endloop
  endfacet
  facet normal -0.93256584 -0.194771157 0.303949256
    outer loop
      vertex 3.2190996 0.826863351 1.98937819
      vertex 3.21884622 0.828085934 1.98938422
      vertex 3.19197565 0.822939936 1.90364338
    endloop
  endfacet
  facet normal -0.93256584 -0.194771157 0.303949256
    outer loop
      vertex 3.2190996 0.826863351 1.98937819
      vertex 3.19197565 0.822939936 1.90364338
      vertex 3.19222903 0.821717353 1.90363735
    endloop
  endfacet
  facet normal 0.298561846 0.0571777534 0.952675983
    outer loop
      vertex 3.22189978 0.828085934 1.98842725
      vertex 3.21884622 0.828085934 1.98938422
      vertex 3.2190996 0.826863351 1.98937819
    endloop
  endfacet
  facet normal -0.298561846 -0.0571777534 -0.952675983
    outer loop
      vertex 3.19502921 0.822939936 1.90268642
      vertex 3.19222903 0.821717353 1.90363735
      vertex 3.19197565 0.822939936 1.90364338
    endloop
  endfacet
  facet normal -0.939237566 0.194771157 0.282660558
    outer loop
      vertex 3.21884622 0.828085934 1.98938422
      vertex 3.21905772 0.829308518 1.98924456
      vertex 3.19218715 0.82416252 1.90350372
    endloop
  endfacet
  facet normal -0.939237566 0.194771157 0.282660558
    outer loop
      vertex 3.21884622 0.828085934 1.98938422
      vertex 3.19218715 0.82416252 1.90350372
      vertex 3.19197565 0.822939936 1.90364338
    endloop
  endfacet
  facet normal 0.298561846 0.0571777534 0.952675983
    outer loop
      vertex 3.22189978 0.828085934 1.98842725
      vertex 3.21905772 0.829308518 1.98924456
      vertex 3.21884622 0.828085934 1.98938422
    endloop
  endfacet
  facet normal -0.298561846 -0.0571777534 -0.952675983
    outer loop
      vertex 3.19502921 0.822939936 1.90268642
      vertex 3.19197565 0.822939936 1.90364338
      vertex 3.19218715 0.82416252 1.90350372
    endloop
  endfacet
  facet normal -0.802918887 0.554661328 0.218339352
    outer loop
      vertex 3.21905772 0.829308518 1.98924456
      vertex 3.2197019 0.830344974 1.98898047
      vertex 3.19283133 0.825198976 1.90323963
    endloop
  endfacet
  facet normal -0.802918887 0.554661328 0.218339352
    outer loop
      vertex 3.21905772 0.829308518 1.98924456
      vertex 3.19283133 0.825198976 1.90323963
      vertex 3.19218715 0.82416252 1.90350372
    endloop
  endfacet
  facet normal 0.298561846 0.0571777534 0.952675983
    outer loop
      vertex 3.22189978 0.828085934 1.98842725
      vertex 3.2197019 0.830344974 1.98898047
      vertex 3.21905772 0.829308518 1.98924456
    endloop
  endfacet
  facet normal -0.298561846 -0.0571777534 -0.952675983
    outer loop
      vertex 3.19502921 0.822939936 1.90268642
      vertex 3.19218715 0.82416252 1.90350372
      vertex 3.19283133 0.825198976 1.90323963
    endloop
  endfacet
  facet normal -0.544363085 0.83010934 0.120777959
    outer loop
      vertex 3.2197019 0.830344974 1.98898047
      vertex 3.22068068 0.831037512 1.98863216
      vertex 3.19381012 0.825891514 1.90289132
    endloop
  endfacet
  facet normal -0.544363085 0.83010934 0.120777959
    outer loop
      vertex 3.2197019 0.830344974 1.98898047
      vertex 3.19381012 0.825891514 1.90289132
      vertex 3.19283133 0.825198976 1.90323963
    endloop
  endfacet
  facet normal 0.298561846 0.0571777534 0.952675983
    outer loop
      vertex 3.22189978 0.828085934 1.98842725
      vertex 3.22068068 0.831037512 1.98863216
      vertex 3.2197019 0.830344974 1.98898047
    endloop
  endfacet
  facet normal -0.298561846 -0.0571777534 -0.952675983
    outer loop
      vertex 3.19502921 0.822939936 1.90268642
      vertex 3.19283133 0.825198976 1.90323963
      vertex 3.19381012 0.825891514 1.90289132
    endloop
  endfacet
  facet normal -0.202932939 0.979180729 0.00482921659
    outer loop
      vertex 3.22068068 0.831037512 1.98863216
      vertex 3.22184506 0.831280699 1.98825266
      vertex 3.1949745 0.826134701 1.90251182
    endloop
  endfacet
  facet normal -0.202932939 0.979180729 0.00482921659
    outer loop
      vertex 3.22068068 0.831037512 1.98863216
      vertex 3.1949745 0.826134701 1.90251182
      vertex 3.19381012 0.825891514 1.90289132
    endloop
  endfacet
  facet normal 0.298561846 0.0571777534 0.952675983
    outer loop
      vertex 3.22189978 0.828085934 1.98842725
      vertex 3.22184506 0.831280699 1.98825266
      vertex 3.22068068 0.831037512 1.98863216
    endloop
  endfacet
  facet normal -0.298561846 -0.0571777534 -0.952675983
    outer loop
      vertex 3.19502921 0.822939936 1.90268642
      vertex 3.19381012 0.825891514 1.90289132
      vertex 3.1949745 0.826134701 1.90251182
    endloop
  endfacet
  facet normal 0.169391908 0.979180729 -0.11185473
    outer loop
      vertex 3.22184506 0.831280699 1.98825266
      vertex 3.22301777 0.831037512 1.98789974
      vertex 3.19614721 0.825891514 1.9021589
    endloop
  endfacet
  facet normal 0.169391908 0.979180729 -0.11185473
    outer loop
      vertex 3.22184506 0.831280699 1.98825266
      vertex 3.19614721 0.825891514 1.9021589
      vertex 3.1949745 0.826134701 1.90251182
    endloop
  endfacet
  facet normal 0.298561846 0.0571777534 0.952675983
    outer loop
      vertex 3.22189978 0.828085934 1.98842725
      vertex 3.22301777 0.831037512 1.98789974
      vertex 3.22184506 0.831280699 1.98825266
    endloop
  endfacet
  facet normal -0.298561846 -0.0571777534 -0.952675983
    outer loop
      vertex 3.19502921 0.822939936 1.90268642
      vertex 3.1949745 0.826134701 1.90251182
      vertex 3.19614721 0.825891514 1.9021589
    endloop
  endfacet
  facet normal 0.515928372 0.83010934 -0.211509808
    outer loop
      vertex 3.22301777 0.831037512 1.98789974
      vertex 3.22402028 0.830344974 1.98762712
      vertex 3.19714972 0.825198976 1.90188628
    endloop
  endfacet
  facet normal 0.515928372 0.83010934 -0.211509808
    outer loop
      vertex 3.22301777 0.831037512 1.98789974
      vertex 3.19714972 0.825198976 1.90188628
      vertex 3.19614721 0.825891514 1.9021589
    endloop
  endfacet
  facet normal 0.298561846 0.0571777534 0.952675983
    outer loop
      vertex 3.22189978 0.828085934 1.98842725
      vertex 3.22402028 0.830344974 1.98762712
      vertex 3.22301777 0.831037512 1.98789974
    endloop
  endfacet
  facet normal -0.298561846 -0.0571777534 -0.952675983
    outer loop
      vertex 3.19502921 0.822939936 1.90268642
      vertex 3.19614721 0.825891514 1.9021589
      vertex 3.19714972 0.825198976 1.90188628
    endloop
  endfacet
  facet normal 0.783919419 0.554661328 -0.278964435
    outer loop
      vertex 3.22402028 0.830344974 1.98762712
      vertex 3.22469996 0.829308518 1.98747632
      vertex 3.19782939 0.82416252 1.90173548
    endloop
  endfacet
  facet normal 0.783919419 0.554661328 -0.278964435
    outer loop
      vertex 3.22402028 0.830344974 1.98762712
      vertex 3.19782939 0.82416252 1.90173548
      vertex 3.19714972 0.825198976 1.90188628
    endloop
  endfacet
  facet normal 0.298561846 0.0571777534 0.952675983
    outer loop
      vertex 3.22189978 0.828085934 1.98842725
      vertex 3.22469996 0.829308518 1.98747632
      vertex 3.22402028 0.830344974 1.98762712
    endloop
  endfacet
  facet normal -0.298561846 -0.0571777534 -0.952675983
    outer loop
      vertex 3.19502921 0.822939936 1.90268642
      vertex 3.19714972 0.825198976 1.90188628
      vertex 3.19782939 0.82416252 1.90173548
    endloop
  endfacet
  facet normal 0.93256584 0.194771157 -0.303949256
    outer loop
      vertex 3.22469996 0.829308518 1.98747632
      vertex 3.22495334 0.828085934 1.98747029
      vertex 3.19808277 0.822939936 1.90172945
    endloop
  endfacet
  facet normal 0.93256584 0.194771157 -0.303949256
    outer loop
      vertex 3.22469996 0.829308518 1.98747632
      vertex 3.19808277 0.822939936 1.90172945
      vertex 3.19782939 0.82416252 1.90173548
    endloop
  endfacet
  facet normal 0.298561846 0.0571777534 0.952675983
    outer loop
      vertex 3.22189978 0.828085934 1.98842725
      vertex 3.22495334 0.828085934 1.98747029
      vertex 3.22469996 0.829308518 1.98747632
    endloop
  endfacet
  facet normal -0.298561846 -0.0571777534 -0.952675983
    outer loop
      vertex 3.19502921 0.822939936 1.90268642
      vertex 3.19782939 0.82416252 1.90173548
      vertex 3.19808277 0.822939936 1.90172945
    endloop
  endfacet
  facet normal 0.939237566 -0.194771157 -0.282660558
    outer loop
      vertex 3.25358196 0.827109622 1.97855688
      vertex 3.25337046 0.825887039 1.97869654
      vertex 3.22649989 0.820741041 1.8929557
    endloop
  endfacet
  facet normal 0.939237566 -0.194771157 -0.282660558
    outer loop
      vertex 3.25358196 0.827109622 1.97855688
      vertex 3.22649989 0.820741041 1.8929557
      vertex 3.22671139 0.821963625 1.89281604
    endloop
  endfacet
  facet normal 0.298561846 0.0571777534 0.952675983
    outer loop
      vertex 3.2505284 0.827109622 1.97951385
      vertex 3.25337046 0.825887039 1.97869654
      vertex 3.25358196 0.827109622 1.97855688
    endloop
  endfacet
  facet normal -0.298561846 -0.0571777534 -0.952675983
    outer loop
      vertex 3.22365783 0.821963625 1.89377301
      vertex 3.22671139 0.821963625 1.89281604
      vertex 3.22649989 0.820741041 1.8929557
    endloop
  endfacet
  facet normal 0.802918887 -0.554661328 -0.218339352
    outer loop
      vertex 3.25337046 0.825887039 1.97869654
      vertex 3.25272628 0.824850582 1.97896063
      vertex 3.22585572 0.819704585 1.89321979
    endloop
  endfacet
  facet normal 0.802918887 -0.554661328 -0.218339352
    outer loop
      vertex 3.25337046 0.825887039 1.97869654
      vertex 3.22585572 0.819704585 1.89321979
      vertex 3.22649989 0.820741041 1.8929557
    endloop
  endfacet
  facet normal 0.298561846 0.0571777534 0.952675983
    outer loop
      vertex 3.2505284 0.827109622 1.97951385
      vertex 3.25272628 0.824850582 1.97896063
      vertex 3.25337046 0.825887039 1.97869654
    endloop
  endfacet
  facet normal -0.298561846 -0.0571777534 -0.952675983
    outer loop
      vertex 3.22365783 0.821963625 1.89377301
      vertex 3.22649989 0.820741041 1.8929557
      vertex 3.22585572 0.819704585 1.89321979
    endloop
  endfacet
  facet normal 0.544363085 -0.83010934 -0.120777959
    outer loop
      vertex 3.25272628 0.824850582 1.97896063
      vertex 3.2517475 0.824158045 1.97930894
      vertex 3.22487693 0.819012047 1.8935681
    endloop
  endfacet
  facet normal 0.544363085 -0.83010934 -0.120777959
    outer loop
      vertex 3.25272628 0.824850582 1.97896063
      vertex 3.22487693 0.819012047 1.8935681
      vertex 3.22585572 0.819704585 1.89321979
    endloop
  endfacet
  facet normal 0.298561846 0.0571777534 0.952675983
    outer loop
      vertex 3.2505284 0.827109622 1.97951385
      vertex 3.2517475 0.824158045 1.97930894
      vertex 3.25272628 0.824850582 1.97896063
    endloop
  endfacet
  facet normal -0.298561846 -0.0571777534 -0.952675983
    outer loop
      vertex 3.22365783 0.821963625 1.89377301
      vertex 3.22585572 0.819704585 1.89321979
      vertex 3.22487693 0.819012047 1.8935681
    endloop
  endfacet
  facet normal 0.202932939 -0.979180729 -0.00482921659
    outer loop
      vertex 3.2517475 0.824158045 1.97930894
      vertex 3.25058312 0.823914858 1.97968844
      vertex 3.22371255 0.81876886 1.8939476
    endloop
  endfacet
  facet normal 0.202932939 -0.979180729 -0.00482921659
    outer loop
      vertex 3.2517475 0.824158045 1.97930894
      vertex 3.22371255 0.81876886 1.8939476
      vertex 3.22487693 0.819012047 1.8935681
    endloop
  endfacet
  facet normal 0.298561846 0.0571777534 0.952675983
    outer loop
      vertex 3.2505284 0.827109622 1.97951385
      vertex 3.25058312 0.823914858 1.97968844
      vertex 3.2517475 0.824158045 1.97930894
    endloop
  endfacet
  facet normal -0.298561846 -0.0571777534 -0.952675983
    outer loop
      vertex 3.22365783 0.821963625 1.89377301
      vertex 3.22487693 0.819012047 1.8935681
      vertex 3.22371255 0.81876886 1.8939476
    endloop
  endfacet
  facet normal -0.169391908 -0.979180729 0.11185473
    outer loop
      vertex 3.25058312 0.823914858 1.97968844
      vertex 3.24941041 0.824158045 1.98004136
      vertex 3.22253984 0.819012047 1.89430053
    endloop
  endfacet
  facet normal -0.169391908 -0.979180729 0.11185473
    outer loop
      vertex 3.25058312 0.823914858 1.97968844
      vertex 3.22253984 0.819012047 1.89430053
      vertex 3.22371255 0.81876886 1.8939476
    endloop
  endfacet
  facet normal 0.298561846 0.0571777534 0.952675983
    outer loop
      vertex 3.2505284 0.827109622 1.97951385
      vertex 3.24941041 0.824158045 1.98004136
      vertex 3.25058312 0.823914858 1.97968844
    endloop
  endfacet
  facet normal -0.298561846 -0.0571777534 -0.952675983
    outer loop
      vertex 3.22365783 0.821963625 1.89377301
      vertex 3.22371255 0.81876886 1.8939476
      vertex 3.22253984 0.819012047 1.89430053
    endloop
  endfacet
  facet normal -0.515928372 -0.83010934 0.211509808
    outer loop
      vertex 3.24941041 0.824158045 1.98004136
      vertex 3.2484079 0.824850582 1.98031398
      vertex 3.22153733 0.819704585 1.89457314
    endloop
  endfacet
  facet normal -0.515928372 -0.83010934 0.211509808
    outer loop
      vertex 3.24941041 0.824158045 1.98004136
      vertex 3.22153733 0.819704585 1.89457314
      vertex 3.22253984 0.819012047 1.89430053
    endloop
  endfacet
  facet normal 0.298561846 0.0571777534 0.952675983
    outer loop
      vertex 3.2505284 0.827109622 1.97951385
      vertex 3.2484079 0.824850582 1.98031398
      vertex 3.24941041 0.824158045 1.98004136
    endloop
  endfacet
  facet normal -0.298561846 -0.0571777534 -0.952675983
    outer loop
      vertex 3.22365783 0.821963625 1.89377301
      vertex 3.22253984 0.819012047 1.89430053
      vertex 3.22153733 0.819704585 1.89457314
    endloop
  endfacet
  facet normal -0.783919419 -0.554661328 0.278964435
    outer loop
      vertex 3.2484079 0.824850582 1.98031398
      vertex 3.24772822 0.825887039 1.98046478
      vertex 3.22085765 0.820741041 1.89472394
    endloop
  endfacet
  facet normal -0.783919419 -0.554661328 0.278964435
    outer loop
      vertex 3.2484079 0.824850582 1.98031398
      vertex 3.22085765 0.820741041 1.89472394
      vertex 3.22153733 0.819704585 1.89457314
    endloop
  endfacet
  facet normal 0.298561846 0.0571777534 0.952675983
    outer loop
      vertex 3.2505284 0.827109622 1.97951385
      vertex 3.24772822 0.825887039 1.98046478
      vertex 3.2484079 0.824850582 1.98031398
    endloop
  endfacet
  facet normal -0.298561846 -0.0571777534 -0.952675983
    outer loop
      vertex 3.22365783 0.821963625 1.89377301
      vertex 3.22153733 0.819704585 1.89457314
      vertex 3.22085765 0.820741041 1.89472394
    endloop
  endfacet
  facet normal -0.93256584 -0.194771157 0.303949256
    outer loop
      vertex 3.24772822 0.825887039 1.98046478
      vertex 3.24747484 0.827109622 1.98047081
      vertex 3.22060428 0.821963625 1.89472997
    endloop
  endfacet
  facet normal -0.93256584 -0.194771157 0.303949256
    outer loop
      vertex 3.24772822 0.825887039 1.98046478
      vertex 3.22060428 0.821963625 1.89472997
      vertex 3.22085765 0.820741041 1.89472394
    endloop
  endfacet
  facet normal 0.298561846 0.0571777534 0.952675983
    outer loop
      vertex 3.2505284 0.827109622 1.97951385
      vertex 3.24747484 0.827109622 1.98047081
      vertex 3.24772822 0.825887039 1.98046478
    endloop
  endfacet
  facet normal -0.298561846 -0.0571777534 -0.952675983
    outer loop
      vertex 3.22365783 0.821963625 1.89377301
      vertex 3.22085765 0.820741041 1.89472394
      vertex 3.22060428 0.821963625 1.89472997
    endloop
  endfacet
  facet normal -0.939237566 0.194771157 0.282660558
    outer loop
      vertex 3.24747484 0.827109622 1.98047081
      vertex 3.24768634 0.828332206 1.98033115
      vertex 3.22081578 0.823186208 1.89459031
    endloop
  endfacet
  facet normal -0.939237566 0.194771157 0.282660558
    outer loop
      vertex 3.24747484 0.827109622 1.98047081
      vertex 3.22081578 0.823186208 1.89459031
      vertex 3.22060428 0.821963625 1.89472997
    endloop
  endfacet
  facet normal 0.298561846 0.0571777534 0.952675983
    outer loop
      vertex 3.2505284 0.827109622 1.97951385
      vertex 3.24768634 0.828332206 1.98033115
      vertex 3.24747484 0.827109622 1.98047081
    endloop
  endfacet
  facet normal -0.298561846 -0.0571777534 -0.952675983
    outer loop
      vertex 3.22365783 0.821963625 1.89377301
      vertex 3.22060428 0.821963625 1.89472997
      vertex 3.22081578 0.823186208 1.89459031
    endloop
  endfacet
  facet normal -0.802918887 0.554661328 0.218339352
    outer loop
      vertex 3.24768634 0.828332206 1.98033115
      vertex 3.24833052 0.829368662 1.98006706
      vertex 3.22145995 0.824222664 1.89432622
    endloop
  endfacet
  facet normal -0.802918887 0.554661328 0.218339352
    outer loop
      vertex 3.24768634 0.828332206 1.98033115
      vertex 3.22145995 0.824222664 1.89432622
      vertex 3.22081578 0.823186208 1.89459031
    endloop
  endfacet
  facet normal 0.298561846 0.0571777534 0.952675983
    outer loop
      vertex 3.2505284 0.827109622 1.97951385
      vertex 3.24833052 0.829368662 1.98006706
      vertex 3.24768634 0.828332206 1.98033115
    endloop
  endfacet
  facet normal -0.298561846 -0.0571777534 -0.952675983
    outer loop
      vertex 3.22365783 0.821963625 1.89377301
      vertex 3.22081578 0.823186208 1.89459031
      vertex 3.22145995 0.824222664 1.89432622
    endloop
  endfacet
  facet normal -0.544363085 0.83010934 0.120777959
    outer loop
      vertex 3.24833052 0.829368662 1.98006706
      vertex 3.2493093 0.8300612 1.97971875
      vertex 3.22243874 0.824915202 1.89397792
    endloop
  endfacet
  facet normal -0.544363085 0.83010934 0.120777959
    outer loop
      vertex 3.24833052 0.829368662 1.98006706
      vertex 3.22243874 0.824915202 1.89397792
      vertex 3.22145995 0.824222664 1.89432622
    endloop
  endfacet
  facet normal 0.298561846 0.0571777534 0.952675983
    outer loop
      vertex 3.2505284 0.827109622 1.97951385
      vertex 3.2493093 0.8300612 1.97971875
      vertex 3.24833052 0.829368662 1.98006706
    endloop
  endfacet
  facet normal -0.298561846 -0.0571777534 -0.952675983
    outer loop
      vertex 3.22365783 0.821963625 1.89377301
      vertex 3.22145995 0.824222664 1.89432622
      vertex 3.22243874 0.824915202 1.89397792
    endloop
  endfacet
  facet normal -0.202932939 0.979180729 0.00482921659
    outer loop
      vertex 3.2493093 0.8300612 1.97971875
      vertex 3.25047368 0.830304387 1.97933925
      vertex 3.22360312 0.825158389 1.89359841
    endloop
  endfacet
  facet normal -0.202932939 0.979180729 0.00482921659
    outer loop
      vertex 3.2493093 0.8300612 1.97971875
      vertex 3.22360312 0.825158389 1.89359841
      vertex 3.22243874 0.824915202 1.89397792
    endloop
  endfacet
  facet normal 0.298561846 0.0571777534 0.952675983
    outer loop
      vertex 3.2505284 0.827109622 1.97951385
      vertex 3.25047368 0.830304387 1.97933925
      vertex 3.2493093 0.8300612 1.97971875
    endloop
  endfacet
  facet normal -0.298561846 -0.0571777534 -0.952675983
    outer loop
      vertex 3.22365783 0.821963625 1.89377301
      vertex 3.22243874 0.824915202 1.89397792
      vertex 3.22360312 0.825158389 1.89359841
    endloop
  endfacet
  facet normal 0.169391908 0.979180729 -0.11185473
    outer loop
      vertex 3.25047368 0.830304387 1.97933925
      vertex 3.2516464 0.8300612 1.97898633
      vertex 3.22477583 0.824915202 1.89324549
    endloop
  endfacet
  facet normal 0.169391908 0.979180729 -0.11185473
    outer loop
      vertex 3.25047368 0.830304387 1.97933925
      vertex 3.22477583 0.824915202 1.89324549
      vertex 3.22360312 0.825158389 1.89359841
    endloop
  endfacet
  facet normal 0.298561846 0.0571777534 0.952675983
    outer loop
      vertex 3.2505284 0.827109622 1.97951385
      vertex 3.2516464 0.8300612 1.97898633
      vertex 3.25047368 0.830304387 1.97933925
    endloop
  endfacet
  facet normal -0.298561846 -0.0571777534 -0.952675983
    outer loop
      vertex 3.22365783 0.821963625 1.89377301
      vertex 3.22360312 0.825158389 1.89359841
      vertex 3.22477583 0.824915202 1.89324549
    endloop
  endfacet
  facet normal 0.515928372 0.83010934 -0.211509808
    outer loop
      vertex 3.2516464 0.8300612 1.97898633
      vertex 3.2526489 0.829368662 1.97871371
      vertex 3.22577834 0.824222664 1.89297287
    endloop
  endfacet
  facet normal 0.515928372 0.83010934 -0.211509808
    outer loop
      vertex 3.2516464 0.8300612 1.97898633
      vertex 3.22577834 0.824222664 1.89297287
      vertex 3.22477583 0.824915202 1.89324549
    endloop
  endfacet
  facet normal 0.298561846 0.0571777534 0.952675983
    outer loop
      vertex 3.2505284 0.827109622 1.97951385
      vertex 3.2526489 0.829368662 1.97871371
      vertex 3.2516464 0.8300612 1.97898633
    endloop
  endfacet
  facet normal -0.298561846 -0.0571777534 -0.952675983
    outer loop
      vertex 3.22365783 0.821963625 1.89377301
      vertex 3.22477583 0.824915202 1.89324549
      vertex 3.22577834 0.824222664 1.89297287
    endloop
  endfacet
  facet normal 0.783919419 0.554661328 -0.278964435
    outer loop
      vertex 3.2526489 0.829368662 1.97871371
      vertex 3.25332858 0.828332206 1.97856291
      vertex 3.22645802 0.823186208 1.89282207
    endloop
  endfacet
  facet normal 0.783919419 0.554661328 -0.278964435
    outer loop
      vertex 3.2526489 0.829368662 1.97871371
      vertex 3.22645802 0.823186208 1.89282207
      vertex 3.22577834 0.824222664 1.89297287
    endloop
  endfacet
  facet normal 0.298561846 0.0571777534 0.952675983
    outer loop
      vertex 3.2505284 0.827109622 1.97951385
      vertex 3.25332858 0.828332206 1.97856291
      vertex 3.2526489 0.829368662 1.97871371
    endloop
  endfacet
  facet normal -0.298561846 -0.0571777534 -0.952675983
    outer loop
      vertex 3.22365783 0.821963625 1.89377301
      vertex 3.22577834 0.824222664 1.89297287
      vertex 3.22645802 0.823186208 1.89282207
    endloop
  endfacet
  facet normal 0.93256584 0.194771157 -0.303949256
    outer loop
      vertex 3.25332858 0.828332206 1.97856291
      vertex 3.25358196 0.827109622 1.97855688
      vertex 3.22671139 0.821963625 1.89281604
    endloop
  endfacet
  facet normal 0.93256584 0.194771157 -0.303949256
    outer loop
      vertex 3.25332858 0.828332206 1.97856291
      vertex 3.22671139 0.821963625 1.89281604
      vertex 3.22645802 0.823186208 1.89282207
    endloop
  endfacet
  facet normal 0.298561846 0.0571777534 0.952675983
    outer loop
      vertex 3.2505284 0.827109622 1.97951385
      vertex 3.25358196 0.827109622 1.97855688
      vertex 3.25332858 0.828332206 1.97856291
    endloop
  endfacet
  facet normal -0.298561846 -0.0571777534 -0.952675983
    outer loop
      vertex 3.22365783 0.821963625 1.89377301
      vertex 3.22645802 0.823186208 1.89282207
      vertex 3.22671139 0.821963625 1.89281604
    endloop
  endfacet
endsolid h12_features
