solid a27
  facet normal -0.521171379 0.68441094 0.509864746
    outer loop
      vertex 5.73004627 -0.449656337 0.228261605
      vertex 5.70349216 -0.501861274 0.271195322
      vertex 5.71891546 -0.499427438 0.283693612
    endloop
  endfacet
  facet normal -0.521181388 0.684407167 0.50985958
    outer loop
      vertex 5.74546909 -0.447222501 0.240759879
      vertex 5.71891546 -0.499427438 0.283693612
      vertex 5.76089191 -0.444788694 0.253258169
    endloop
  endfacet
  facet normal -0.521176849 0.684408427 0.509862528
    outer loop
      vertex 5.63280439 -0.724497318 0.497792512
      vertex 5.57123661 -0.789764047 0.522468567
      vertex 5.59043837 -0.807789326 0.566292465
    endloop
  endfacet
  facet normal -0.521174151 0.684410271 0.50986281
    outer loop
      vertex 5.71753693 -0.557913363 0.360792607
      vertex 5.71891546 -0.499427438 0.283693612
      vertex 5.67517042 -0.64120537 0.42929256
    endloop
  endfacet
  facet normal -0.521175286 0.684408674 0.509863794
    outer loop
      vertex 5.75990295 -0.474621356 0.292292655
      vertex 5.73433828 -0.496993601 0.296191901
      vertex 5.71753693 -0.557913363 0.360792607
    endloop
  endfacet
  facet normal -0.52117729 0.68440859 0.509861857
    outer loop
      vertex 5.57123661 -0.789764047 0.522468567
      vertex 5.63280439 -0.724497318 0.497792512
      vertex 5.67517042 -0.64120537 0.42929256
    endloop
  endfacet
  facet normal -0.521182582 0.684406241 0.509859602
    outer loop
      vertex 5.71891546 -0.499427438 0.283693612
      vertex 5.71753693 -0.557913363 0.360792607
      vertex 5.73433828 -0.496993601 0.296191901
    endloop
  endfacet
  facet normal -0.521175747 0.684409345 0.509862422
    outer loop
      vertex 5.59932041 -0.67877543 0.402190924
      vertex 5.55203485 -0.771738768 0.478644669
      vertex 5.57123661 -0.789764047 0.522468567
    endloop
  endfacet
  facet normal -0.521177865 0.68440888 0.509860882
    outer loop
      vertex 5.59932041 -0.67877543 0.402190924
      vertex 5.67517042 -0.64120537 0.42929256
      vertex 5.64660597 -0.585812032 0.325737149
    endloop
  endfacet
  facet normal -0.521177861 0.684408609 0.509861249
    outer loop
      vertex 5.67517042 -0.64120537 0.42929256
      vertex 5.59932041 -0.67877543 0.402190924
      vertex 5.57123661 -0.789764047 0.522468567
    endloop
  endfacet
  facet normal -0.521172686 0.684408369 0.50986686
    outer loop
      vertex 5.70349216 -0.501861274 0.271195322
      vertex 5.64660597 -0.585812032 0.325737149
      vertex 5.71891546 -0.499427438 0.283693612
    endloop
  endfacet
  facet normal -0.521177248 0.684409306 0.50986094
    outer loop
      vertex 5.67517042 -0.64120537 0.42929256
      vertex 5.71891546 -0.499427438 0.283693612
      vertex 5.64660597 -0.585812032 0.325737149
    endloop
  endfacet
  facet normal -0.521173905 0.684408848 0.509864971
    outer loop
      vertex 5.75990295 -0.474621356 0.292292655
      vertex 5.80226898 -0.391329348 0.223792717
      vertex 5.76089191 -0.444788694 0.253258169
    endloop
  endfacet
  facet normal -0.521180758 0.684408404 0.509858562
    outer loop
      vertex 5.74546909 -0.447222501 0.240759879
      vertex 5.76089191 -0.444788694 0.253258169
      vertex 5.78699589 -0.39346832 0.211051941
    endloop
  endfacet
  facet normal -0.521177072 0.684407965 0.509862921
    outer loop
      vertex 5.77172279 -0.395607293 0.19831115
      vertex 5.74546909 -0.447222501 0.240759879
      vertex 5.78699589 -0.39346832 0.211051941
    endloop
  endfacet
  facet normal -0.521179196 0.684409706 0.509858411
    outer loop
      vertex 5.73004627 -0.449656337 0.228261605
      vertex 5.69389153 -0.492848635 0.249283373
      vertex 5.70349216 -0.501861274 0.271195322
    endloop
  endfacet
  facet normal -0.521180732 0.684408427 0.509858558
    outer loop
      vertex 5.64660597 -0.585812032 0.325737149
      vertex 5.70349216 -0.501861274 0.271195322
      vertex 5.69389153 -0.492848635 0.249283373
    endloop
  endfacet
  facet normal -0.521187051 0.684405193 0.50985644
    outer loop
      vertex 5.74117708 -0.399885237 0.172829598
      vertex 5.73004627 -0.449656337 0.228261605
      vertex 5.7564497 -0.397746265 0.185570374
    endloop
  endfacet
  facet normal -0.521181817 0.684407216 0.509859076
    outer loop
      vertex 5.77172279 -0.395607293 0.19831115
      vertex 5.73004627 -0.449656337 0.228261605
      vertex 5.74546909 -0.447222501 0.240759879
    endloop
  endfacet
  facet normal -0.521176342 0.68440912 0.509862116
    outer loop
      vertex 5.69389153 -0.492848635 0.249283373
      vertex 5.73004627 -0.449656337 0.228261605
      vertex 5.74117708 -0.399885237 0.172829598
    endloop
  endfacet
  facet normal -0.521177469 0.684406706 0.509864205
    outer loop
      vertex 5.73004627 -0.449656337 0.228261605
      vertex 5.77172279 -0.395607293 0.19831115
      vertex 5.7564497 -0.397746265 0.185570374
    endloop
  endfacet
  facet normal -0.521174904 0.684408376 0.509864584
    outer loop
      vertex 5.75990295 -0.474621356 0.292292655
      vertex 5.76089191 -0.444788694 0.253258169
      vertex 5.73433828 -0.496993601 0.296191901
    endloop
  endfacet
  facet normal -0.521181881 0.684407089 0.50985918
    outer loop
      vertex 5.73004627 -0.449656337 0.228261605
      vertex 5.71891546 -0.499427438 0.283693612
      vertex 5.74546909 -0.447222501 0.240759879
    endloop
  endfacet
  facet normal -0.521182071 0.684407245 0.509858776
    outer loop
      vertex 5.71891546 -0.499427438 0.283693612
      vertex 5.73433828 -0.496993601 0.296191901
      vertex 5.76089191 -0.444788694 0.253258169
    endloop
  endfacet
  facet normal -0.52117619 0.684409125 0.509862265
    outer loop
      vertex 5.80226898 -0.391329348 0.223792717
      vertex 5.78699589 -0.39346832 0.211051941
      vertex 5.76089191 -0.444788694 0.253258169
    endloop
  endfacet
  facet normal 0.0677212251 -0.911915112 -0.404752596
    outer loop
      vertex 5.59192944 -0.744577885 0.424125612
      vertex 5.6510253 -0.735442221 0.413430423
      vertex 5.67022705 -0.753467441 0.45725432
    endloop
  endfacet
  facet normal 0.0677209866 -0.911914701 -0.404753563
    outer loop
      vertex 5.6510253 -0.735442221 0.413430423
      vertex 5.59192944 -0.744577885 0.424125612
      vertex 5.63182354 -0.717416942 0.369606525
    endloop
  endfacet
  facet normal 0.0677213468 -0.91191499 -0.404752851
    outer loop
      vertex 5.67022705 -0.753467441 0.45725432
      vertex 5.63033247 -0.780628383 0.511773407
      vertex 5.59192944 -0.744577885 0.424125612
    endloop
  endfacet
  facet normal 0.0677211726 -0.911914659 -0.404753627
    outer loop
      vertex 5.57123661 -0.789764047 0.522468567
      vertex 5.63033247 -0.780628383 0.511773407
      vertex 5.59043837 -0.807789326 0.566292465
    endloop
  endfacet
  facet normal 0.0677211726 -0.911914659 -0.404753627
    outer loop
      vertex 5.63033247 -0.780628383 0.511773407
      vertex 5.57123661 -0.789764047 0.522468567
      vertex 5.55203485 -0.771738768 0.478644669
    endloop
  endfacet
  facet normal 0.0677206947 -0.911915138 -0.404752626
    outer loop
      vertex 5.63033247 -0.780628383 0.511773407
      vertex 5.55203485 -0.771738768 0.478644669
      vertex 5.59192944 -0.744577885 0.424125612
    endloop
  endfacet
  facet normal -0.521177273 0.684407077 0.509863907
    outer loop
      vertex 5.75532436 -0.380616605 0.1516193
      vertex 5.78213882 -0.355786949 0.145699084
      vertex 5.76686573 -0.357925922 0.132958308
    endloop
  endfacet
  facet normal -0.521177474 0.684407204 0.50986353
    outer loop
      vertex 5.75532436 -0.380616605 0.1516193
      vertex 5.79741192 -0.353647977 0.158439875
      vertex 5.78213882 -0.355786949 0.145699084
    endloop
  endfacet
  facet normal -0.521174269 0.684412756 0.509859353
    outer loop
      vertex 5.74378252 -0.403307289 0.170280293
      vertex 5.75905561 -0.401168317 0.183021069
      vertex 5.75532436 -0.380616605 0.1516193
    endloop
  endfacet
  facet normal -0.521174269 0.684412756 0.509859353
    outer loop
      vertex 5.75532436 -0.380616605 0.1516193
      vertex 5.75905561 -0.401168317 0.183021069
      vertex 5.77432871 -0.399029344 0.195761845
    endloop
  endfacet
  facet normal -0.521178286 0.68440944 0.509859699
    outer loop
      vertex 5.81641626 -0.372060716 0.202582419
      vertex 5.79741192 -0.353647977 0.158439875
      vertex 5.75532436 -0.380616605 0.1516193
    endloop
  endfacet
  facet normal -0.521174269 0.684412756 0.509859353
    outer loop
      vertex 5.81641626 -0.372060716 0.202582419
      vertex 5.82795811 -0.349370033 0.183921427
      vertex 5.81268501 -0.351509005 0.171180651
    endloop
  endfacet
  facet normal -0.521178286 0.68440944 0.509859699
    outer loop
      vertex 5.75532436 -0.380616605 0.1516193
      vertex 5.77432871 -0.399029344 0.195761845
      vertex 5.81641626 -0.372060716 0.202582419
    endloop
  endfacet
  facet normal -0.521177474 0.684407204 0.50986353
    outer loop
      vertex 5.81641626 -0.372060716 0.202582419
      vertex 5.77432871 -0.399029344 0.195761845
      vertex 5.7896018 -0.396890372 0.208502635
    endloop
  endfacet
  facet normal -0.521177273 0.684407077 0.509863907
    outer loop
      vertex 5.81641626 -0.372060716 0.202582419
      vertex 5.7896018 -0.396890372 0.208502635
      vertex 5.8048749 -0.3947514 0.221243411
    endloop
  endfacet
  facet normal -0.521174269 0.684412756 0.509859353
    outer loop
      vertex 5.81268501 -0.351509005 0.171180651
      vertex 5.79741192 -0.353647977 0.158439875
      vertex 5.81641626 -0.372060716 0.202582419
    endloop
  endfacet
  facet normal -0.381384522 -0.721215677 0.578267925
    outer loop
      vertex 5.76425982 -0.35450387 0.135507613
      vertex 5.76686573 -0.357925922 0.132958308
      vertex 5.77953291 -0.352364898 0.148248389
    endloop
  endfacet
  facet normal -0.381384851 -0.721215723 0.578267651
    outer loop
      vertex 5.79741192 -0.353647977 0.158439875
      vertex 5.794806 -0.350225925 0.16098918
      vertex 5.78213882 -0.355786949 0.145699084
    endloop
  endfacet
  facet normal -0.381384522 -0.721215677 0.578267925
    outer loop
      vertex 5.794806 -0.350225925 0.16098918
      vertex 5.79741192 -0.353647977 0.158439875
      vertex 5.8100791 -0.348086953 0.173729956
    endloop
  endfacet
  facet normal -0.381384522 -0.721215677 0.578267925
    outer loop
      vertex 5.82795811 -0.349370033 0.183921427
      vertex 5.82535219 -0.345947981 0.186470732
      vertex 5.81268501 -0.351509005 0.171180651
    endloop
  endfacet
  facet normal -0.381384522 -0.721215677 0.578267925
    outer loop
      vertex 5.76686573 -0.357925922 0.132958308
      vertex 5.78213882 -0.355786949 0.145699084
      vertex 5.77953291 -0.352364898 0.148248389
    endloop
  endfacet
  facet normal -0.381384851 -0.721215723 0.578267651
    outer loop
      vertex 5.794806 -0.350225925 0.16098918
      vertex 5.77953291 -0.352364898 0.148248389
      vertex 5.78213882 -0.355786949 0.145699084
    endloop
  endfacet
  facet normal -0.381384522 -0.721215677 0.578267925
    outer loop
      vertex 5.79741192 -0.353647977 0.158439875
      vertex 5.81268501 -0.351509005 0.171180651
      vertex 5.8100791 -0.348086953 0.173729956
    endloop
  endfacet
  facet normal -0.381384522 -0.721215677 0.578267925
    outer loop
      vertex 5.82535219 -0.345947981 0.186470732
      vertex 5.8100791 -0.348086953 0.173729956
      vertex 5.81268501 -0.351509005 0.171180651
    endloop
  endfacet
  facet normal 0.381384522 0.721215677 -0.578267925
    outer loop
      vertex 5.80226898 -0.391329348 0.223792717
      vertex 5.8048749 -0.3947514 0.221243411
      vertex 5.7896018 -0.396890372 0.208502635
    endloop
  endfacet
  facet normal 0.381384851 0.721215723 -0.578267651
    outer loop
      vertex 5.77432871 -0.399029344 0.195761845
      vertex 5.77172279 -0.395607293 0.19831115
      vertex 5.78699589 -0.39346832 0.211051941
    endloop
  endfacet
  facet normal 0.381384522 0.721215677 -0.578267925
    outer loop
      vertex 5.77172279 -0.395607293 0.19831115
      vertex 5.77432871 -0.399029344 0.195761845
      vertex 5.75905561 -0.401168317 0.183021069
    endloop
  endfacet
  facet normal 0.381403479 0.721190782 -0.57828647
    outer loop
      vertex 5.74378252 -0.403307289 0.170280293
      vertex 5.74117708 -0.399885237 0.172829598
      vertex 5.75905561 -0.401168317 0.183021069
    endloop
  endfacet
  facet normal 0.381384522 0.721215677 -0.578267925
    outer loop
      vertex 5.80226898 -0.391329348 0.223792717
      vertex 5.7896018 -0.396890372 0.208502635
      vertex 5.78699589 -0.39346832 0.211051941
    endloop
  endfacet
  facet normal 0.381384851 0.721215723 -0.578267651
    outer loop
      vertex 5.77432871 -0.399029344 0.195761845
      vertex 5.78699589 -0.39346832 0.211051941
      vertex 5.7896018 -0.396890372 0.208502635
    endloop
  endfacet
  facet normal 0.381384522 0.721215677 -0.578267925
    outer loop
      vertex 5.77172279 -0.395607293 0.19831115
      vertex 5.75905561 -0.401168317 0.183021069
      vertex 5.7564497 -0.397746265 0.185570374
    endloop
  endfacet
  facet normal 0.381391463 0.721216649 -0.578262135
    outer loop
      vertex 5.74117708 -0.399885237 0.172829598
      vertex 5.7564497 -0.397746265 0.185570374
      vertex 5.75905561 -0.401168317 0.183021069
    endloop
  endfacet
  facet normal 0.521176967 -0.684409185 -0.509861389
    outer loop
      vertex 5.8727088 -0.299611449 0.0549999997
      vertex 5.91901493 -0.264349371 0.0549999997
      vertex 5.87755013 -0.345869064 0.122042388
    endloop
  endfacet
  facet normal 0.521176713 -0.684409322 -0.509861466
    outer loop
      vertex 5.8727088 -0.299611449 0.0549999997
      vertex 5.87755013 -0.345869064 0.122042388
      vertex 5.83608532 -0.427388728 0.189084768
    endloop
  endfacet
  facet normal 0.521175839 -0.684408282 -0.509863755
    outer loop
      vertex 5.77775812 -0.430509359 0.133651629
      vertex 5.82640266 -0.334873497 0.0549999997
      vertex 5.8727088 -0.299611449 0.0549999997
    endloop
  endfacet
  facet normal 0.521175994 -0.684409512 -0.509861946
    outer loop
      vertex 5.7291131 -0.52614522 0.212303266
      vertex 5.77775812 -0.430509359 0.133651629
      vertex 5.79462099 -0.508908451 0.256127149
    endloop
  endfacet
  facet normal 0.521179255 -0.684408492 -0.509859981
    outer loop
      vertex 5.83608532 -0.427388728 0.189084768
      vertex 5.77775812 -0.430509359 0.133651629
      vertex 5.8727088 -0.299611449 0.0549999997
    endloop
  endfacet
  facet normal 0.521181294 -0.684408687 -0.509857634
    outer loop
      vertex 5.6510253 -0.735442221 0.413430423
      vertex 5.75315619 -0.590428114 0.323169529
      vertex 5.71169138 -0.671947777 0.39021194
    endloop
  endfacet
  facet normal 0.521178488 -0.684407593 -0.509861972
    outer loop
      vertex 5.6510253 -0.735442221 0.413430423
      vertex 5.71169138 -0.671947777 0.39021194
      vertex 5.67022705 -0.753467441 0.45725432
    endloop
  endfacet
  facet normal 0.521178274 -0.68440798 -0.509861671
    outer loop
      vertex 5.68046856 -0.621781051 0.290954888
      vertex 5.7291131 -0.52614522 0.212303266
      vertex 5.75315619 -0.590428114 0.323169529
    endloop
  endfacet
  facet normal 0.521175592 -0.684409473 -0.509862407
    outer loop
      vertex 5.68046856 -0.621781051 0.290954888
      vertex 5.6510253 -0.735442221 0.413430423
      vertex 5.63182354 -0.717416942 0.369606525
    endloop
  endfacet
  facet normal 0.521178207 -0.684408573 -0.509860943
    outer loop
      vertex 5.68046856 -0.621781051 0.290954888
      vertex 5.75315619 -0.590428114 0.323169529
      vertex 5.6510253 -0.735442221 0.413430423
    endloop
  endfacet
  facet normal 0.52118012 -0.684407097 -0.509860969
    outer loop
      vertex 5.77775812 -0.430509359 0.133651629
      vertex 5.83608532 -0.427388728 0.189084768
      vertex 5.79462099 -0.508908451 0.256127149
    endloop
  endfacet
  facet normal 0.521176024 -0.684409431 -0.509862024
    outer loop
      vertex 5.7291131 -0.52614522 0.212303266
      vertex 5.79462099 -0.508908451 0.256127149
      vertex 5.75315619 -0.590428114 0.323169529
    endloop
  endfacet
  facet normal 0.771147421 0.121692764 0.624918015
    outer loop
      vertex 5.81162071 -0.424215168 0.218656525
      vertex 5.79580927 -0.455300272 0.244221136
      vertex 5.80362701 -0.465566397 0.236573219
    endloop
  endfacet
  facet normal 0.7711475 0.121692919 0.624917888
    outer loop
      vertex 5.8352499 -0.403396189 0.185443982
      vertex 5.82743216 -0.393130064 0.193091899
      vertex 5.81162071 -0.424215168 0.218656525
    endloop
  endfacet
  facet normal 0.771147623 0.121692629 0.624917793
    outer loop
      vertex 5.80362701 -0.465566397 0.236573219
      vertex 5.8352499 -0.403396189 0.185443982
      vertex 5.81162071 -0.424215168 0.218656525
    endloop
  endfacet
  facet normal 0.771147469 0.121692858 0.624917938
    outer loop
      vertex 5.8432436 -0.36204493 0.167527273
      vertex 5.82743216 -0.393130064 0.193091899
      vertex 5.8352499 -0.403396189 0.185443982
    endloop
  endfacet
  facet normal 0.771150609 0.121699032 0.62491286
    outer loop
      vertex 5.86687231 -0.341225952 0.134314731
      vertex 5.85905457 -0.330959827 0.141962647
      vertex 5.8432436 -0.36204493 0.167527273
    endloop
  endfacet
  facet normal 0.771155491 0.121687473 0.624909088
    outer loop
      vertex 5.8352499 -0.403396189 0.185443982
      vertex 5.86687231 -0.341225952 0.134314731
      vertex 5.8432436 -0.36204493 0.167527273
    endloop
  endfacet
  facet normal 0.77116056 0.121675638 0.624905136
    outer loop
      vertex 5.84732819 -0.315560639 0.15343453
      vertex 5.85123682 -0.320693702 0.149610564
      vertex 5.86704826 -0.289608598 0.124045946
    endloop
  endfacet
  facet normal 0.771160237 0.121676063 0.624905452
    outer loop
      vertex 5.86313963 -0.284475535 0.127869904
      vertex 5.86704826 -0.289608598 0.124045946
      vertex 5.88285971 -0.258523494 0.0984813273
    endloop
  endfacet
  facet normal 0.771134361 0.121710043 0.624930766
    outer loop
      vertex 5.86704826 -0.289608598 0.124045946
      vertex 5.85123682 -0.320693702 0.149610564
      vertex 5.85514593 -0.325826764 0.145786613
    endloop
  endfacet
  facet normal 0.77116058 0.121675677 0.624905104
    outer loop
      vertex 5.85514593 -0.325826764 0.145786613
      vertex 5.85905457 -0.330959827 0.141962647
      vertex 5.89067745 -0.268789619 0.0908334032
    endloop
  endfacet
  facet normal 0.771147623 0.121692629 0.624917793
    outer loop
      vertex 5.89067745 -0.268789619 0.0908334032
      vertex 5.88285971 -0.258523494 0.0984813273
      vertex 5.86704826 -0.289608598 0.124045946
    endloop
  endfacet
  facet normal 0.771144278 0.121700549 0.624920378
    outer loop
      vertex 5.86704826 -0.289608598 0.124045946
      vertex 5.85514593 -0.325826764 0.145786613
      vertex 5.89067745 -0.268789619 0.0908334032
    endloop
  endfacet
  facet normal 0.771139594 0.121713139 0.624923707
    outer loop
      vertex 5.78212833 -0.437334538 0.257605016
      vertex 5.78408289 -0.439901084 0.255693018
      vertex 5.79198837 -0.424358517 0.242910713
    endloop
  endfacet
  facet normal 0.771187764 0.121650396 0.624876479
    outer loop
      vertex 5.79891682 -0.407532692 0.231084391
      vertex 5.79793978 -0.406249434 0.232040375
      vertex 5.79003429 -0.421792001 0.244822696
    endloop
  endfacet
  facet normal 0.771080247 0.121770873 0.624985685
    outer loop
      vertex 5.79198837 -0.424358517 0.242910713
      vertex 5.79989433 -0.40881598 0.230128407
      vertex 5.79891682 -0.407532692 0.231084391
    endloop
  endfacet
  facet normal 0.771188979 0.121648542 0.62487534
    outer loop
      vertex 5.79003429 -0.421792001 0.244822696
      vertex 5.79198837 -0.424358517 0.242910713
      vertex 5.79891682 -0.407532692 0.231084391
    endloop
  endfacet
  facet normal 0.771131638 0.121703395 0.624935421
    outer loop
      vertex 5.80184889 -0.411382496 0.228216425
      vertex 5.79989433 -0.40881598 0.230128407
      vertex 5.79198837 -0.424358517 0.242910713
    endloop
  endfacet
  facet normal 0.771138047 0.121715169 0.624925219
    outer loop
      vertex 5.79198837 -0.424358517 0.242910713
      vertex 5.78408289 -0.439901084 0.255693018
      vertex 5.787992 -0.445034146 0.251869053
    endloop
  endfacet
  facet normal 0.771189435 0.121647786 0.624874925
    outer loop
      vertex 5.787992 -0.445034146 0.251869053
      vertex 5.80380297 -0.413949043 0.226304442
      vertex 5.80184889 -0.411382496 0.228216425
    endloop
  endfacet
  facet normal 0.771116971 0.121729317 0.62494847
    outer loop
      vertex 5.80184889 -0.411382496 0.228216425
      vertex 5.79198837 -0.424358517 0.242910713
      vertex 5.787992 -0.445034146 0.251869053
    endloop
  endfacet
  facet normal 0.771131892 0.121703893 0.624935011
    outer loop
      vertex 5.80384731 -0.401044697 0.22373724
      vertex 5.79989433 -0.40881598 0.230128407
      vertex 5.80184889 -0.411382496 0.228216425
    endloop
  endfacet
  facet normal 0.771144518 0.121727064 0.624914918
    outer loop
      vertex 5.80975437 -0.395839959 0.215434104
      vertex 5.80779982 -0.393273413 0.217346087
      vertex 5.80384731 -0.401044697 0.22373724
    endloop
  endfacet
  facet normal 0.771163172 0.121682894 0.624900501
    outer loop
      vertex 5.80184889 -0.411382496 0.228216425
      vertex 5.80975437 -0.395839959 0.215434104
      vertex 5.80384731 -0.401044697 0.22373724
    endloop
  endfacet
  facet normal 0.771183342 0.121635809 0.624884775
    outer loop
      vertex 5.80184889 -0.411382496 0.228216425
      vertex 5.80380297 -0.413949043 0.226304442
      vertex 5.81170893 -0.398406476 0.213522121
    endloop
  endfacet
  facet normal 0.771137795 0.1217155 0.624925466
    outer loop
      vertex 5.80975437 -0.395839959 0.215434104
      vertex 5.81170893 -0.398406476 0.213522121
      vertex 5.81765985 -0.380297393 0.202651799
    endloop
  endfacet
  facet normal 0.771138299 0.121714838 0.624924973
    outer loop
      vertex 5.80779982 -0.393273413 0.217346087
      vertex 5.80975437 -0.395839959 0.215434104
      vertex 5.81765985 -0.380297393 0.202651799
    endloop
  endfacet
  facet normal 0.771196414 0.121658914 0.624864145
    outer loop
      vertex 5.79696274 -0.404966176 0.232996374
      vertex 5.79793978 -0.406249434 0.232040375
      vertex 5.80091524 -0.397194892 0.226605222
    endloop
  endfacet
  facet normal 0.77118151 0.121638101 0.624886591
    outer loop
      vertex 5.79793978 -0.406249434 0.232040375
      vertex 5.79891682 -0.407532692 0.231084391
      vertex 5.8028698 -0.399761438 0.224693239
    endloop
  endfacet
  facet normal 0.771080309 0.121770994 0.624985586
    outer loop
      vertex 5.79891682 -0.407532692 0.231084391
      vertex 5.79989433 -0.40881598 0.230128407
      vertex 5.8028698 -0.399761438 0.224693239
    endloop
  endfacet
  facet normal 0.771081766 0.121768678 0.624984239
    outer loop
      vertex 5.8028698 -0.399761438 0.224693239
      vertex 5.80384731 -0.401044697 0.22373724
      vertex 5.80682278 -0.391990155 0.218302086
    endloop
  endfacet
  facet normal 0.771162984 0.121682524 0.624900805
    outer loop
      vertex 5.787992 -0.445034146 0.251869053
      vertex 5.79190063 -0.450167209 0.248045102
      vertex 5.80380297 -0.413949043 0.226304442
    endloop
  endfacet
  facet normal 0.771160521 0.121675561 0.6249052
    outer loop
      vertex 5.79190063 -0.450167209 0.248045102
      vertex 5.79580927 -0.455300272 0.244221136
      vertex 5.81162071 -0.424215168 0.218656525
    endloop
  endfacet
  facet normal 0.771163062 0.121682679 0.624900678
    outer loop
      vertex 5.80771208 -0.419082105 0.222480476
      vertex 5.81162071 -0.424215168 0.218656525
      vertex 5.82352304 -0.387997001 0.19691585
    endloop
  endfacet
  facet normal 0.771131986 0.121703253 0.624935019
    outer loop
      vertex 5.81170893 -0.398406476 0.213522121
      vertex 5.80380297 -0.413949043 0.226304442
      vertex 5.80771208 -0.419082105 0.222480476
    endloop
  endfacet
  facet normal 0.771163852 0.121681283 0.624899975
    outer loop
      vertex 5.82352304 -0.387997001 0.19691585
      vertex 5.81961441 -0.382863909 0.200739816
      vertex 5.81170893 -0.398406476 0.213522121
    endloop
  endfacet
  facet normal 0.771163512 0.121682088 0.624900238
    outer loop
      vertex 5.80771208 -0.419082105 0.222480476
      vertex 5.82352304 -0.387997001 0.19691585
      vertex 5.81170893 -0.398406476 0.213522121
    endloop
  endfacet
  facet normal 0.771163913 0.121681403 0.624899876
    outer loop
      vertex 5.82751989 -0.367321372 0.18795751
      vertex 5.81961441 -0.382863909 0.200739816
      vertex 5.82352304 -0.387997001 0.19691585
    endloop
  endfacet
  facet normal 0.771156891 0.121670547 0.624910655
    outer loop
      vertex 5.83933449 -0.356911868 0.171351239
      vertex 5.83542585 -0.351778805 0.17517519
      vertex 5.82751989 -0.367321372 0.18795751
    endloop
  endfacet
  facet normal 0.771147714 0.121692279 0.624917748
    outer loop
      vertex 5.82352304 -0.387997001 0.19691585
      vertex 5.83933449 -0.356911868 0.171351239
      vertex 5.82751989 -0.367321372 0.18795751
    endloop
  endfacet
  facet normal 0.771134291 0.121709906 0.62493088
    outer loop
      vertex 5.82352304 -0.387997001 0.19691585
      vertex 5.82743216 -0.393130064 0.193091899
      vertex 5.83933449 -0.356911868 0.171351239
    endloop
  endfacet
  facet normal 0.771135047 0.121709271 0.62493007
    outer loop
      vertex 5.83933449 -0.356911868 0.171351239
      vertex 5.8432436 -0.36204493 0.167527273
      vertex 5.85514593 -0.325826764 0.145786613
    endloop
  endfacet
  facet normal 0.771163062 0.121682679 0.624900678
    outer loop
      vertex 5.83542585 -0.351778805 0.17517519
      vertex 5.83933449 -0.356911868 0.171351239
      vertex 5.85123682 -0.320693702 0.149610564
    endloop
  endfacet
  facet normal 0.771197544 0.121657832 0.624862961
    outer loop
      vertex 5.82263422 -0.360905021 0.19273746
      vertex 5.82361126 -0.362188309 0.191781461
      vertex 5.82658672 -0.353133768 0.186346307
    endloop
  endfacet
  facet normal 0.771082081 0.121769297 0.62498373
    outer loop
      vertex 5.82658672 -0.353133768 0.186346307
      vertex 5.82756424 -0.354417026 0.185390308
      vertex 5.8305397 -0.345362484 0.17995514
    endloop
  endfacet
  facet normal 0.771183185 0.121635499 0.62488503
    outer loop
      vertex 5.81570578 -0.377730846 0.204563782
      vertex 5.81765985 -0.380297393 0.202651799
      vertex 5.82556581 -0.364754826 0.189869493
    endloop
  endfacet
  facet normal 0.771137857 0.121715621 0.624925367
    outer loop
      vertex 5.81765985 -0.380297393 0.202651799
      vertex 5.81961441 -0.382863909 0.200739816
      vertex 5.82751989 -0.367321372 0.18795751
    endloop
  endfacet
  facet normal 0.771183342 0.121635809 0.624884775
    outer loop
      vertex 5.82556581 -0.364754826 0.189869493
      vertex 5.82751989 -0.367321372 0.18795751
      vertex 5.83542585 -0.351778805 0.17517519
    endloop
  endfacet
  facet normal 0.771130282 0.121704974 0.624936786
    outer loop
      vertex 5.82756424 -0.354417026 0.185390308
      vertex 5.82361126 -0.362188309 0.191781461
      vertex 5.82556581 -0.364754826 0.189869493
    endloop
  endfacet
  facet normal 0.771144518 0.121727064 0.624914918
    outer loop
      vertex 5.8334713 -0.349212289 0.177087173
      vertex 5.83151674 -0.346645743 0.178999156
      vertex 5.82756424 -0.354417026 0.185390308
    endloop
  endfacet
  facet normal 0.771163172 0.121682894 0.624900501
    outer loop
      vertex 5.82556581 -0.364754826 0.189869493
      vertex 5.8334713 -0.349212289 0.177087173
      vertex 5.82756424 -0.354417026 0.185390308
    endloop
  endfacet
  facet normal 0.771132142 0.121702733 0.624934928
    outer loop
      vertex 5.8394227 -0.331103206 0.16621685
      vertex 5.83151674 -0.346645743 0.178999156
      vertex 5.8334713 -0.349212289 0.177087173
    endloop
  endfacet
  facet normal 0.771137905 0.121715715 0.624925289
    outer loop
      vertex 5.8334713 -0.349212289 0.177087173
      vertex 5.83542585 -0.351778805 0.17517519
      vertex 5.85123682 -0.320693702 0.149610564
    endloop
  endfacet
  facet normal 0.771163757 0.121681923 0.624899967
    outer loop
      vertex 5.85123682 -0.320693702 0.149610564
      vertex 5.84732819 -0.315560639 0.15343453
      vertex 5.8394227 -0.331103206 0.16621685
    endloop
  endfacet
  facet normal 0.771170465 0.12166604 0.624894782
    outer loop
      vertex 5.8394227 -0.331103206 0.16621685
      vertex 5.8334713 -0.349212289 0.177087173
      vertex 5.85123682 -0.320693702 0.149610564
    endloop
  endfacet
  facet normal 0.771181448 0.121637981 0.62488669
    outer loop
      vertex 5.8305397 -0.345362484 0.17995514
      vertex 5.83151674 -0.346645743 0.178999156
      vertex 5.8394227 -0.331103206 0.16621685
    endloop
  endfacet
  facet normal 0.771190352 0.121646997 0.624873947
    outer loop
      vertex 5.83746815 -0.328536659 0.168128818
      vertex 5.82956266 -0.344079226 0.180911139
      vertex 5.8305397 -0.345362484 0.17995514
    endloop
  endfacet
  facet normal 0.771133926 0.121710485 0.624931216
    outer loop
      vertex 5.8394227 -0.331103206 0.16621685
      vertex 5.83746815 -0.328536659 0.168128818
      vertex 5.8305397 -0.345362484 0.17995514
    endloop
  endfacet
  facet normal 0.771137005 0.121716538 0.624926239
    outer loop
      vertex 5.83746815 -0.328536659 0.168128818
      vertex 5.8394227 -0.331103206 0.16621685
      vertex 5.84537363 -0.312994093 0.155346513
    endloop
  endfacet
  facet normal 0.771160521 0.121675561 0.6249052
    outer loop
      vertex 5.7247467 -0.569374561 0.354127556
      vertex 5.73256397 -0.579640687 0.346479625
      vertex 5.76418686 -0.517470479 0.295350403
    endloop
  endfacet
  facet normal 0.771160032 0.12167672 0.624905578
    outer loop
      vertex 5.79190063 -0.450167209 0.248045102
      vertex 5.787992 -0.445034146 0.251869053
      vertex 5.77218056 -0.47611925 0.277433693
    endloop
  endfacet
  facet normal 0.771147098 0.121693189 0.624918332
    outer loop
      vertex 5.77218056 -0.47611925 0.277433693
      vertex 5.75636911 -0.507204354 0.302998304
      vertex 5.76418686 -0.517470479 0.295350403
    endloop
  endfacet
  facet normal 0.771162194 0.12167885 0.624902495
    outer loop
      vertex 5.76418686 -0.517470479 0.295350403
      vertex 5.79580927 -0.455300272 0.244221136
      vertex 5.79190063 -0.450167209 0.248045102
    endloop
  endfacet
  facet normal 0.771152929 0.121689274 0.624911898
    outer loop
      vertex 5.79190063 -0.450167209 0.248045102
      vertex 5.77218056 -0.47611925 0.277433693
      vertex 5.76418686 -0.517470479 0.295350403
    endloop
  endfacet
  facet normal 0.771163348 0.121681945 0.624900468
    outer loop
      vertex 5.75246048 -0.502071321 0.30682227
      vertex 5.75636911 -0.507204354 0.302998304
      vertex 5.76827145 -0.470986187 0.281257659
    endloop
  endfacet
  facet normal 0.771135126 0.121709426 0.624929942
    outer loop
      vertex 5.76827145 -0.470986187 0.281257659
      vertex 5.77218056 -0.47611925 0.277433693
      vertex 5.78408289 -0.439901084 0.255693018
    endloop
  endfacet
  facet normal 0.771150068 0.121690994 0.624915094
    outer loop
      vertex 5.86687231 -0.341225952 0.134314731
      vertex 5.87755013 -0.345869064 0.122042388
      vertex 5.91901493 -0.264349371 0.0549999997
    endloop
  endfacet
  facet normal 0.771147647 0.121692676 0.624917754
    outer loop
      vertex 5.90666485 -0.186087132 0.0549999997
      vertex 5.88285971 -0.258523494 0.0984813273
      vertex 5.89067745 -0.268789619 0.0908334032
    endloop
  endfacet
  facet normal 0.771150955 0.121689553 0.62491428
    outer loop
      vertex 5.89067745 -0.268789619 0.0908334032
      vertex 5.86687231 -0.341225952 0.134314731
      vertex 5.91901493 -0.264349371 0.0549999997
    endloop
  endfacet
  facet normal 0.771159116 0.121679102 0.624906244
    outer loop
      vertex 5.83608532 -0.427388728 0.189084768
      vertex 5.87755013 -0.345869064 0.122042388
      vertex 5.8352499 -0.403396189 0.185443982
    endloop
  endfacet
  facet normal 0.771157771 0.121679301 0.624907865
    outer loop
      vertex 5.8352499 -0.403396189 0.185443982
      vertex 5.80362701 -0.465566397 0.236573219
      vertex 5.83608532 -0.427388728 0.189084768
    endloop
  endfacet
  facet normal 0.77114748 0.12169288 0.62491792
    outer loop
      vertex 5.85905457 -0.330959827 0.141962647
      vertex 5.86687231 -0.341225952 0.134314731
      vertex 5.89067745 -0.268789619 0.0908334032
    endloop
  endfacet
  facet normal 0.771161796 0.121679128 0.624902932
    outer loop
      vertex 5.88285971 -0.258523494 0.0984813273
      vertex 5.90666485 -0.186087132 0.0549999997
      vertex 5.87895107 -0.253390431 0.102305286
    endloop
  endfacet
  facet normal 0.771137679 0.121705686 0.62492752
    outer loop
      vertex 5.86600828 -0.266017556 0.12073537
      vertex 5.86313963 -0.284475535 0.127869904
      vertex 5.87895107 -0.253390431 0.102305286
    endloop
  endfacet
  facet normal 0.771101674 0.121763647 0.624960657
    outer loop
      vertex 5.81641626 -0.372060716 0.202582419
      vertex 5.81570578 -0.377730846 0.204563782
      vertex 5.82361126 -0.362188309 0.191781461
    endloop
  endfacet
  facet normal 0.771135299 0.12170894 0.624929823
    outer loop
      vertex 5.84732819 -0.315560639 0.15343453
      vertex 5.86313963 -0.284475535 0.127869904
      vertex 5.84537363 -0.312994093 0.155346513
    endloop
  endfacet
  facet normal 0.771150797 0.121690561 0.624914279
    outer loop
      vertex 5.91901493 -0.264349371 0.0549999997
      vertex 5.90666485 -0.186087132 0.0549999997
      vertex 5.89067745 -0.268789619 0.0908334032
    endloop
  endfacet
  facet normal 0.771148969 0.121696275 0.624915422
    outer loop
      vertex 5.80362701 -0.465566397 0.236573219
      vertex 5.76418686 -0.517470479 0.295350403
      vertex 5.79462099 -0.508908451 0.256127149
    endloop
  endfacet
  facet normal 0.77114891 0.121696316 0.624915487
    outer loop
      vertex 5.83608532 -0.427388728 0.189084768
      vertex 5.80362701 -0.465566397 0.236573219
      vertex 5.79462099 -0.508908451 0.256127149
    endloop
  endfacet
  facet normal 0.771149094 0.121696053 0.624915311
    outer loop
      vertex 5.79580927 -0.455300272 0.244221136
      vertex 5.76418686 -0.517470479 0.295350403
      vertex 5.80362701 -0.465566397 0.236573219
    endloop
  endfacet
  facet normal 0.771147948 0.121693964 0.624917131
    outer loop
      vertex 5.75315619 -0.590428114 0.323169529
      vertex 5.73256397 -0.579640687 0.346479625
      vertex 5.71169138 -0.671947777 0.39021194
    endloop
  endfacet
  facet normal 0.771147743 0.121692342 0.624917701
    outer loop
      vertex 5.76418686 -0.517470479 0.295350403
      vertex 5.73256397 -0.579640687 0.346479625
      vertex 5.75315619 -0.590428114 0.323169529
    endloop
  endfacet
  facet normal 0.77114491 0.121701645 0.624919385
    outer loop
      vertex 5.67022705 -0.753467441 0.45725432
      vertex 5.71169138 -0.671947777 0.39021194
      vertex 5.63033247 -0.780628383 0.511773407
    endloop
  endfacet
  facet normal 0.771136672 0.121707395 0.62492843
    outer loop
      vertex 5.78212833 -0.437334538 0.257605016
      vertex 5.76827145 -0.470986187 0.281257659
      vertex 5.78408289 -0.439901084 0.255693018
    endloop
  endfacet
  facet normal 0.771150304 0.121692216 0.624914565
    outer loop
      vertex 5.71169138 -0.671947777 0.39021194
      vertex 5.73256397 -0.579640687 0.346479625
      vertex 5.63033247 -0.780628383 0.511773407
    endloop
  endfacet
  facet normal 0.771150518 0.121691935 0.624914356
    outer loop
      vertex 5.73256397 -0.579640687 0.346479625
      vertex 5.67517042 -0.64120537 0.42929256
      vertex 5.63033247 -0.780628383 0.511773407
    endloop
  endfacet
  facet normal 0.771161903 0.121679103 0.624902805
    outer loop
      vertex 5.75636911 -0.507204354 0.302998304
      vertex 5.75246048 -0.502071321 0.30682227
      vertex 5.7247467 -0.569374561 0.354127556
    endloop
  endfacet
  facet normal 0.771159483 0.12167352 0.624906878
    outer loop
      vertex 5.73256397 -0.579640687 0.346479625
      vertex 5.7247467 -0.569374561 0.354127556
      vertex 5.67517042 -0.64120537 0.42929256
    endloop
  endfacet
  facet normal 0.771183975 0.121634461 0.624884257
    outer loop
      vertex 5.80779982 -0.393273413 0.217346087
      vertex 5.81570578 -0.377730846 0.204563782
      vertex 5.80682278 -0.391990155 0.218302086
    endloop
  endfacet
  facet normal 0.771286971 0.1215002 0.62478325
    outer loop
      vertex 5.82658672 -0.353133768 0.186346307
      vertex 5.8305397 -0.345362484 0.17995514
      vertex 5.82795811 -0.349370033 0.183921427
    endloop
  endfacet
  facet normal 0.771191589 0.121649428 0.624871947
    outer loop
      vertex 5.82956266 -0.344079226 0.180911139
      vertex 5.82795811 -0.349370033 0.183921427
      vertex 5.8305397 -0.345362484 0.17995514
    endloop
  endfacet
  facet normal 0.771428809 0.121353994 0.624636535
    outer loop
      vertex 5.82263422 -0.360905021 0.19273746
      vertex 5.82658672 -0.353133768 0.186346307
      vertex 5.82795811 -0.349370033 0.183921427
    endloop
  endfacet
  facet normal 0.771098064 0.121765528 0.624964745
    outer loop
      vertex 5.81570578 -0.377730846 0.204563782
      vertex 5.81641626 -0.372060716 0.202582419
      vertex 5.80682278 -0.391990155 0.218302086
    endloop
  endfacet
  facet normal 0.771018412 0.121855898 0.625045397
    outer loop
      vertex 5.82795811 -0.349370033 0.183921427
      vertex 5.81641626 -0.372060716 0.202582419
      vertex 5.82263422 -0.360905021 0.19273746
    endloop
  endfacet
  facet normal 0.771181651 0.121626588 0.624888658
    outer loop
      vertex 5.81641626 -0.372060716 0.202582419
      vertex 5.82361126 -0.362188309 0.191781461
      vertex 5.82263422 -0.360905021 0.19273746
    endloop
  endfacet
  facet normal 0.771137278 0.121705922 0.62492797
    outer loop
      vertex 5.84537363 -0.312994093 0.155346513
      vertex 5.86313963 -0.284475535 0.127869904
      vertex 5.86600828 -0.266017556 0.12073537
    endloop
  endfacet
  facet normal 0.771172233 0.121664701 0.624892861
    outer loop
      vertex 5.82535219 -0.345947981 0.186470732
      vertex 5.84537363 -0.312994093 0.155346513
      vertex 5.86600828 -0.266017556 0.12073537
    endloop
  endfacet
  facet normal 0.771140494 0.121712473 0.624922726
    outer loop
      vertex 5.82535219 -0.345947981 0.186470732
      vertex 5.82956266 -0.344079226 0.180911139
      vertex 5.83746815 -0.328536659 0.168128818
    endloop
  endfacet
  facet normal 0.771142 0.121709979 0.624921353
    outer loop
      vertex 5.82535219 -0.345947981 0.186470732
      vertex 5.83746815 -0.328536659 0.168128818
      vertex 5.84537363 -0.312994093 0.155346513
    endloop
  endfacet
  facet normal 0.771146396 0.121690334 0.624919754
    outer loop
      vertex 5.82956266 -0.344079226 0.180911139
      vertex 5.82535219 -0.345947981 0.186470732
      vertex 5.82795811 -0.349370033 0.183921427
    endloop
  endfacet
  facet normal 0.771137143 0.121706866 0.624927952
    outer loop
      vertex 5.87895107 -0.253390431 0.102305286
      vertex 5.90666485 -0.186087132 0.0549999997
      vertex 5.86600828 -0.266017556 0.12073537
    endloop
  endfacet
  facet normal 0.77109359 0.121771169 0.624969166
    outer loop
      vertex 5.80682278 -0.391990155 0.218302086
      vertex 5.81641626 -0.372060716 0.202582419
      vertex 5.8048749 -0.3947514 0.221243411
    endloop
  endfacet
  facet normal 0.771185058 0.121641773 0.624881497
    outer loop
      vertex 5.80189276 -0.39847815 0.225649223
      vertex 5.8028698 -0.399761438 0.224693239
      vertex 5.8048749 -0.3947514 0.221243411
    endloop
  endfacet
  facet normal 0.771143683 0.121687377 0.624923678
    outer loop
      vertex 5.80682278 -0.391990155 0.218302086
      vertex 5.8048749 -0.3947514 0.221243411
      vertex 5.8028698 -0.399761438 0.224693239
    endloop
  endfacet
  facet normal 0.771098271 0.121801132 0.624957551
    outer loop
      vertex 5.80091524 -0.397194892 0.226605222
      vertex 5.80189276 -0.39847815 0.225649223
      vertex 5.8048749 -0.3947514 0.221243411
    endloop
  endfacet
  facet normal 0.771162793 0.121678007 0.62490192
    outer loop
      vertex 5.75990295 -0.474621356 0.292292655
      vertex 5.76827145 -0.470986187 0.281257659
      vertex 5.78212833 -0.437334538 0.257605016
    endloop
  endfacet
  facet normal 0.771082994 0.121767784 0.624982899
    outer loop
      vertex 5.79696274 -0.404966176 0.232996374
      vertex 5.78212833 -0.437334538 0.257605016
      vertex 5.79003429 -0.421792001 0.244822696
    endloop
  endfacet
  facet normal 0.771190352 0.121646997 0.624873947
    outer loop
      vertex 5.79003429 -0.421792001 0.244822696
      vertex 5.79793978 -0.406249434 0.232040375
      vertex 5.79696274 -0.404966176 0.232996374
    endloop
  endfacet
  facet normal 0.771160917 0.121685137 0.624902847
    outer loop
      vertex 5.75246048 -0.502071321 0.30682227
      vertex 5.76827145 -0.470986187 0.281257659
      vertex 5.75990295 -0.474621356 0.292292655
    endloop
  endfacet
  facet normal 0.771241525 0.121599664 0.624819999
    outer loop
      vertex 5.80091524 -0.397194892 0.226605222
      vertex 5.80226898 -0.391329348 0.223792717
      vertex 5.79696274 -0.404966176 0.232996374
    endloop
  endfacet
  facet normal 0.77112663 0.121723764 0.624937633
    outer loop
      vertex 5.75990295 -0.474621356 0.292292655
      vertex 5.79696274 -0.404966176 0.232996374
      vertex 5.80226898 -0.391329348 0.223792717
    endloop
  endfacet
  facet normal 0.771147659 0.121696247 0.624917044
    outer loop
      vertex 5.75246048 -0.502071321 0.30682227
      vertex 5.75990295 -0.474621356 0.292292655
      vertex 5.71753693 -0.557913363 0.360792607
    endloop
  endfacet
  facet normal 0.771149285 0.121690306 0.624916194
    outer loop
      vertex 5.67517042 -0.64120537 0.42929256
      vertex 5.7247467 -0.569374561 0.354127556
      vertex 5.71753693 -0.557913363 0.360792607
    endloop
  endfacet
  facet normal 0.771152149 0.121690351 0.624912652
    outer loop
      vertex 5.59043837 -0.807789326 0.566292465
      vertex 5.63033247 -0.780628383 0.511773407
      vertex 5.63280439 -0.724497318 0.497792512
    endloop
  endfacet
  facet normal 0.771152225 0.121690325 0.624912562
    outer loop
      vertex 5.63280439 -0.724497318 0.497792512
      vertex 5.63033247 -0.780628383 0.511773407
      vertex 5.67517042 -0.64120537 0.42929256
    endloop
  endfacet
  facet normal 0.771190782 0.121636675 0.624875425
    outer loop
      vertex 5.79696274 -0.404966176 0.232996374
      vertex 5.75990295 -0.474621356 0.292292655
      vertex 5.78212833 -0.437334538 0.257605016
    endloop
  endfacet
  facet normal 0.771139369 0.121676521 0.624931114
    outer loop
      vertex 5.80091524 -0.397194892 0.226605222
      vertex 5.8048749 -0.3947514 0.221243411
      vertex 5.80226898 -0.391329348 0.223792717
    endloop
  endfacet
  facet normal 0.771150418 0.121692025 0.624914462
    outer loop
      vertex 5.7247467 -0.569374561 0.354127556
      vertex 5.75246048 -0.502071321 0.30682227
      vertex 5.71753693 -0.557913363 0.360792607
    endloop
  endfacet
  facet normal 0.771160276 0.121676141 0.624905389
    outer loop
      vertex 5.84732819 -0.315560639 0.15343453
      vertex 5.86704826 -0.289608598 0.124045946
      vertex 5.86313963 -0.284475535 0.127869904
    endloop
  endfacet
  facet normal 0.771160237 0.121676063 0.624905452
    outer loop
      vertex 5.86313963 -0.284475535 0.127869904
      vertex 5.88285971 -0.258523494 0.0984813273
      vertex 5.87895107 -0.253390431 0.102305286
    endloop
  endfacet
  facet normal 0.7711829 0.121636591 0.624885169
    outer loop
      vertex 5.78212833 -0.437334538 0.257605016
      vertex 5.79198837 -0.424358517 0.242910713
      vertex 5.79003429 -0.421792001 0.244822696
    endloop
  endfacet
  facet normal 0.771138014 0.12171593 0.624925112
    outer loop
      vertex 5.80184889 -0.411382496 0.228216425
      vertex 5.81170893 -0.398406476 0.213522121
      vertex 5.80975437 -0.395839959 0.215434104
    endloop
  endfacet
  facet normal 0.771137795 0.1217155 0.624925466
    outer loop
      vertex 5.81170893 -0.398406476 0.213522121
      vertex 5.81961441 -0.382863909 0.200739816
      vertex 5.81765985 -0.380297393 0.202651799
    endloop
  endfacet
  facet normal 0.771183185 0.121635499 0.62488503
    outer loop
      vertex 5.80779982 -0.393273413 0.217346087
      vertex 5.81765985 -0.380297393 0.202651799
      vertex 5.81570578 -0.377730846 0.204563782
    endloop
  endfacet
  facet normal 0.771081766 0.121768678 0.624984239
    outer loop
      vertex 5.79793978 -0.406249434 0.232040375
      vertex 5.80189276 -0.39847815 0.225649223
      vertex 5.80091524 -0.397194892 0.226605222
    endloop
  endfacet
  facet normal 0.771182395 0.121636537 0.624885803
    outer loop
      vertex 5.79793978 -0.406249434 0.232040375
      vertex 5.8028698 -0.399761438 0.224693239
      vertex 5.80189276 -0.39847815 0.225649223
    endloop
  endfacet
  facet normal 0.771082081 0.121769297 0.62498373
    outer loop
      vertex 5.79989433 -0.40881598 0.230128407
      vertex 5.80384731 -0.401044697 0.22373724
      vertex 5.8028698 -0.399761438 0.224693239
    endloop
  endfacet
  facet normal 0.771196414 0.121658914 0.624864145
    outer loop
      vertex 5.80384731 -0.401044697 0.22373724
      vertex 5.80779982 -0.393273413 0.217346087
      vertex 5.80682278 -0.391990155 0.218302086
    endloop
  endfacet
  facet normal 0.771135047 0.121709271 0.62493007
    outer loop
      vertex 5.79190063 -0.450167209 0.248045102
      vertex 5.80771208 -0.419082105 0.222480476
      vertex 5.80380297 -0.413949043 0.226304442
    endloop
  endfacet
  facet normal 0.771159953 0.121676566 0.624905705
    outer loop
      vertex 5.79190063 -0.450167209 0.248045102
      vertex 5.81162071 -0.424215168 0.218656525
      vertex 5.80771208 -0.419082105 0.222480476
    endloop
  endfacet
  facet normal 0.7711344 0.121710121 0.624930703
    outer loop
      vertex 5.81162071 -0.424215168 0.218656525
      vertex 5.82743216 -0.393130064 0.193091899
      vertex 5.82352304 -0.387997001 0.19691585
    endloop
  endfacet
  facet normal 0.771135017 0.121709211 0.624930119
    outer loop
      vertex 5.82743216 -0.393130064 0.193091899
      vertex 5.8432436 -0.36204493 0.167527273
      vertex 5.83933449 -0.356911868 0.171351239
    endloop
  endfacet
  facet normal 0.771163709 0.121681829 0.624900045
    outer loop
      vertex 5.8432436 -0.36204493 0.167527273
      vertex 5.85905457 -0.330959827 0.141962647
      vertex 5.85514593 -0.325826764 0.145786613
    endloop
  endfacet
  facet normal 0.7711344 0.121710121 0.624930703
    outer loop
      vertex 5.83933449 -0.356911868 0.171351239
      vertex 5.85514593 -0.325826764 0.145786613
      vertex 5.85123682 -0.320693702 0.149610564
    endloop
  endfacet
  facet normal 0.771081766 0.121768678 0.624984239
    outer loop
      vertex 5.82361126 -0.362188309 0.191781461
      vertex 5.82756424 -0.354417026 0.185390308
      vertex 5.82658672 -0.353133768 0.186346307
    endloop
  endfacet
  facet normal 0.771193826 0.121662313 0.624866678
    outer loop
      vertex 5.82756424 -0.354417026 0.185390308
      vertex 5.83151674 -0.346645743 0.178999156
      vertex 5.8305397 -0.345362484 0.17995514
    endloop
  endfacet
  facet normal 0.77113672 0.12171763 0.624926378
    outer loop
      vertex 5.81570578 -0.377730846 0.204563782
      vertex 5.82556581 -0.364754826 0.189869493
      vertex 5.82361126 -0.362188309 0.191781461
    endloop
  endfacet
  facet normal 0.771183185 0.121635499 0.62488503
    outer loop
      vertex 5.81765985 -0.380297393 0.202651799
      vertex 5.82751989 -0.367321372 0.18795751
      vertex 5.82556581 -0.364754826 0.189869493
    endloop
  endfacet
  facet normal 0.771138014 0.12171593 0.624925112
    outer loop
      vertex 5.82556581 -0.364754826 0.189869493
      vertex 5.83542585 -0.351778805 0.17517519
      vertex 5.8334713 -0.349212289 0.177087173
    endloop
  endfacet
  facet normal 0.771138457 0.121715148 0.624924718
    outer loop
      vertex 5.8394227 -0.331103206 0.16621685
      vertex 5.84732819 -0.315560639 0.15343453
      vertex 5.84537363 -0.312994093 0.155346513
    endloop
  endfacet
  facet normal 0.771148731 0.1216964 0.624915691
    outer loop
      vertex 5.7247467 -0.569374561 0.354127556
      vertex 5.76418686 -0.517470479 0.295350403
      vertex 5.75636911 -0.507204354 0.302998304
    endloop
  endfacet
  facet normal 0.771134969 0.121709116 0.624930197
    outer loop
      vertex 5.75636911 -0.507204354 0.302998304
      vertex 5.77218056 -0.47611925 0.277433693
      vertex 5.76827145 -0.470986187 0.281257659
    endloop
  endfacet
  facet normal 0.771135126 0.121709426 0.624929942
    outer loop
      vertex 5.77218056 -0.47611925 0.277433693
      vertex 5.787992 -0.445034146 0.251869053
      vertex 5.78408289 -0.439901084 0.255693018
    endloop
  endfacet
  facet normal 0.77115035 0.121694224 0.624914117
    outer loop
      vertex 5.87755013 -0.345869064 0.122042388
      vertex 5.86687231 -0.341225952 0.134314731
      vertex 5.8352499 -0.403396189 0.185443982
    endloop
  endfacet
  facet normal 0.771150051 0.121691006 0.624915112
    outer loop
      vertex 5.76418686 -0.517470479 0.295350403
      vertex 5.75315619 -0.590428114 0.323169529
      vertex 5.79462099 -0.508908451 0.256127149
    endloop
  endfacet
  facet normal -0.771148916 -0.121695288 -0.62491568
    outer loop
      vertex 5.78055954 -0.373729914 0.119137533
      vertex 5.79693556 -0.341534436 0.0926597416
      vertex 5.8047533 -0.351800591 0.085011825
    endloop
  endfacet
  facet normal -0.77114879 -0.121695454 -0.624915803
    outer loop
      vertex 5.77200127 -0.416191518 0.137967408
      vertex 5.76418352 -0.405925393 0.145615324
      vertex 5.78055954 -0.373729914 0.119137533
    endloop
  endfacet
  facet normal -0.771148867 -0.1216954 -0.624915717
    outer loop
      vertex 5.8047533 -0.351800591 0.085011825
      vertex 5.77200127 -0.416191518 0.137967408
      vertex 5.78055954 -0.373729914 0.119137533
    endloop
  endfacet
  facet normal -0.771183037 -0.121641104 -0.624884121
    outer loop
      vertex 5.763762 -0.365096331 0.13818486
      vertex 5.76785612 -0.357047468 0.131565407
      vertex 5.76883316 -0.358330727 0.130609423
    endloop
  endfacet
  facet normal -0.771185321 -0.121637107 -0.624882081
    outer loop
      vertex 5.75966787 -0.373145193 0.144804299
      vertex 5.763762 -0.365096331 0.13818486
      vertex 5.76473904 -0.366379589 0.137228861
    endloop
  endfacet
  facet normal -0.771138935 -0.121718211 -0.624923531
    outer loop
      vertex 5.77506685 -0.339666456 0.119282499
      vertex 5.78325462 -0.323568732 0.106043607
      vertex 5.77702141 -0.342233002 0.117370524
    endloop
  endfacet
  facet normal -0.77113315 -0.121706368 -0.624932976
    outer loop
      vertex 5.77078772 -0.360897243 0.12869744
      vertex 5.76883316 -0.358330727 0.130609423
      vertex 5.77702141 -0.342233002 0.117370524
    endloop
  endfacet
  facet normal -0.771139024 -0.12171815 -0.624923434
    outer loop
      vertex 5.77702141 -0.342233002 0.117370524
      vertex 5.78520918 -0.326135248 0.104131624
      vertex 5.78911829 -0.331268311 0.100307666
    endloop
  endfacet
  facet normal -0.771184691 -0.12163846 -0.624882595
    outer loop
      vertex 5.78911829 -0.331268311 0.100307666
      vertex 5.77274179 -0.363463789 0.126785457
      vertex 5.77078772 -0.360897243 0.12869744
    endloop
  endfacet
  facet normal -0.771151946 -0.121688166 -0.624913327
    outer loop
      vertex 5.77078772 -0.360897243 0.12869744
      vertex 5.77702141 -0.342233002 0.117370524
      vertex 5.78911829 -0.331268311 0.100307666
    endloop
  endfacet
  facet normal -0.771139019 -0.121717907 -0.624923487
    outer loop
      vertex 5.75245714 -0.390526205 0.157087207
      vertex 5.76064491 -0.374428451 0.143848315
      vertex 5.7544117 -0.393092722 0.155175224
    endloop
  endfacet
  facet normal -0.771132922 -0.12170592 -0.624933345
    outer loop
      vertex 5.76473904 -0.366379589 0.137228861
      vertex 5.76883316 -0.358330727 0.130609423
      vertex 5.77078772 -0.360897243 0.12869744
    endloop
  endfacet
  facet normal -0.771133731 -0.121705856 -0.62493236
    outer loop
      vertex 5.76259947 -0.376994997 0.141936332
      vertex 5.76064491 -0.374428451 0.143848315
      vertex 5.76473904 -0.366379589 0.137228861
    endloop
  endfacet
  facet normal -0.77113262 -0.121706621 -0.624933581
    outer loop
      vertex 5.77078772 -0.360897243 0.12869744
      vertex 5.76259947 -0.376994997 0.141936332
      vertex 5.76473904 -0.366379589 0.137228861
    endloop
  endfacet
  facet normal -0.771184624 -0.121638327 -0.624882704
    outer loop
      vertex 5.76259947 -0.376994997 0.141936332
      vertex 5.77078772 -0.360897243 0.12869744
      vertex 5.77274179 -0.363463789 0.126785457
    endloop
  endfacet
  facet normal -0.771139078 -0.121718023 -0.624923391
    outer loop
      vertex 5.7544117 -0.393092722 0.155175224
      vertex 5.76259947 -0.376994997 0.141936332
      vertex 5.76455402 -0.379561514 0.140024349
    endloop
  endfacet
  facet normal -0.771136013 -0.121712231 -0.624928301
    outer loop
      vertex 5.78520918 -0.326135248 0.104131624
      vertex 5.8015852 -0.293939769 0.0776538327
      vertex 5.78911829 -0.331268311 0.100307666
    endloop
  endfacet
  facet normal -0.771139007 -0.121718117 -0.624923461
    outer loop
      vertex 5.76455402 -0.379561514 0.140024349
      vertex 5.77274179 -0.363463789 0.126785457
      vertex 5.77665091 -0.368596852 0.122961499
    endloop
  endfacet
  facet normal -0.771133419 -0.12170607 -0.624932702
    outer loop
      vertex 5.76027489 -0.400792331 0.14943929
      vertex 5.75636578 -0.395659268 0.153263256
      vertex 5.76455402 -0.379561514 0.140024349
    endloop
  endfacet
  facet normal -0.771148754 -0.121695501 -0.624915838
    outer loop
      vertex 5.77665091 -0.368596852 0.122961499
      vertex 5.76027489 -0.400792331 0.14943929
      vertex 5.76455402 -0.379561514 0.140024349
    endloop
  endfacet
  facet normal -0.771133011 -0.121706329 -0.624933155
    outer loop
      vertex 5.77274179 -0.363463789 0.126785457
      vertex 5.78911829 -0.331268311 0.100307666
      vertex 5.77665091 -0.368596852 0.122961499
    endloop
  endfacet
  facet normal -0.771161889 -0.121678251 -0.624902987
    outer loop
      vertex 5.77665091 -0.368596852 0.122961499
      vertex 5.79302692 -0.336401373 0.0964837074
      vertex 5.79693556 -0.341534436 0.0926597416
    endloop
  endfacet
  facet normal -0.771161889 -0.121678251 -0.624902987
    outer loop
      vertex 5.76027489 -0.400792331 0.14943929
      vertex 5.77665091 -0.368596852 0.122961499
      vertex 5.78055954 -0.373729914 0.119137533
    endloop
  endfacet
  facet normal -0.771147917 -0.121691851 -0.624917581
    outer loop
      vertex 5.69867897 -0.534707248 0.251526505
      vertex 5.73143148 -0.470316321 0.198570907
      vertex 5.70649672 -0.544973433 0.243878573
    endloop
  endfacet
  facet normal -0.771148828 -0.121695529 -0.624915741
    outer loop
      vertex 5.7478075 -0.438120872 0.172093123
      vertex 5.76418352 -0.405925393 0.145615324
      vertex 5.77200127 -0.416191518 0.137967408
    endloop
  endfacet
  facet normal -0.771148907 -0.121695272 -0.624915693
    outer loop
      vertex 5.73924923 -0.480582476 0.19092299
      vertex 5.73143148 -0.470316321 0.198570907
      vertex 5.7478075 -0.438120872 0.172093123
    endloop
  endfacet
  facet normal -0.771148951 -0.121695241 -0.624915645
    outer loop
      vertex 5.77200127 -0.416191518 0.137967408
      vertex 5.73924923 -0.480582476 0.19092299
      vertex 5.7478075 -0.438120872 0.172093123
    endloop
  endfacet
  facet normal -0.771194624 -0.121663883 -0.624865387
    outer loop
      vertex 5.74738598 -0.397291809 0.164662644
      vertex 5.75147963 -0.389242917 0.158043206
      vertex 5.74836302 -0.398575068 0.16370666
    endloop
  endfacet
  facet normal -0.771183037 -0.121641104 -0.624884121
    outer loop
      vertex 5.74329185 -0.405340672 0.171282098
      vertex 5.74738598 -0.397291809 0.164662644
      vertex 5.74836302 -0.398575068 0.16370666
    endloop
  endfacet
  facet normal -0.771139583 -0.121717361 -0.624922898
    outer loop
      vertex 5.73608112 -0.422721654 0.183565006
      vertex 5.74426889 -0.40662393 0.170326114
      vertex 5.74622345 -0.409190476 0.168414131
    endloop
  endfacet
  facet normal -0.771133226 -0.121706518 -0.624932853
    outer loop
      vertex 5.74836302 -0.398575068 0.16370666
      vertex 5.75245714 -0.390526205 0.157087207
      vertex 5.7544117 -0.393092722 0.155175224
    endloop
  endfacet
  facet normal -0.771133731 -0.121705856 -0.62493236
    outer loop
      vertex 5.74622345 -0.409190476 0.168414131
      vertex 5.74426889 -0.40662393 0.170326114
      vertex 5.74836302 -0.398575068 0.16370666
    endloop
  endfacet
  facet normal -0.771133419 -0.12170607 -0.624932702
    outer loop
      vertex 5.7544117 -0.393092722 0.155175224
      vertex 5.74622345 -0.409190476 0.168414131
      vertex 5.74836302 -0.398575068 0.16370666
    endloop
  endfacet
  facet normal -0.771183482 -0.121640326 -0.624883724
    outer loop
      vertex 5.74622345 -0.409190476 0.168414131
      vertex 5.7544117 -0.393092722 0.155175224
      vertex 5.75636578 -0.395659268 0.153263256
    endloop
  endfacet
  facet normal -0.771133578 -0.121705557 -0.624932606
    outer loop
      vertex 5.7380352 -0.4252882 0.181653023
      vertex 5.74622345 -0.409190476 0.168414131
      vertex 5.73998976 -0.427854747 0.17974104
    endloop
  endfacet
  facet normal -0.771136657 -0.121711608 -0.624927629
    outer loop
      vertex 5.7380352 -0.4252882 0.181653023
      vertex 5.73998976 -0.427854747 0.17974104
      vertex 5.72361374 -0.460050195 0.206218839
    endloop
  endfacet
  facet normal -0.771184653 -0.121638385 -0.624882656
    outer loop
      vertex 5.71970463 -0.454917133 0.21004279
      vertex 5.73608112 -0.422721654 0.183565006
      vertex 5.7380352 -0.4252882 0.181653023
    endloop
  endfacet
  facet normal -0.771135705 -0.121712685 -0.624928594
    outer loop
      vertex 5.72361374 -0.460050195 0.206218839
      vertex 5.71970463 -0.454917133 0.21004279
      vertex 5.7380352 -0.4252882 0.181653023
    endloop
  endfacet
  facet normal -0.77116131 -0.121679234 -0.624903511
    outer loop
      vertex 5.72361374 -0.460050195 0.206218839
      vertex 5.73998976 -0.427854747 0.17974104
      vertex 5.74389839 -0.432987809 0.175917089
    endloop
  endfacet
  facet normal -0.77113933 -0.121717692 -0.624923144
    outer loop
      vertex 5.74817801 -0.411756992 0.166502148
      vertex 5.75636578 -0.395659268 0.153263256
      vertex 5.76027489 -0.400792331 0.14943929
    endloop
  endfacet
  facet normal -0.771158173 -0.121673066 -0.624908584
    outer loop
      vertex 5.74389839 -0.432987809 0.175917089
      vertex 5.73998976 -0.427854747 0.17974104
      vertex 5.74817801 -0.411756992 0.166502148
    endloop
  endfacet
  facet normal -0.771158728 -0.121672683 -0.624907973
    outer loop
      vertex 5.76027489 -0.400792331 0.14943929
      vertex 5.74389839 -0.432987809 0.175917089
      vertex 5.74817801 -0.411756992 0.166502148
    endloop
  endfacet
  facet normal -0.771133373 -0.121705979 -0.624932777
    outer loop
      vertex 5.74389839 -0.432987809 0.175917089
      vertex 5.76027489 -0.400792331 0.14943929
      vertex 5.7478075 -0.438120872 0.172093123
    endloop
  endfacet
  facet normal -0.771136328 -0.12171179 -0.624927998
    outer loop
      vertex 5.72752237 -0.465183258 0.202394873
      vertex 5.74389839 -0.432987809 0.175917089
      vertex 5.73143148 -0.470316321 0.198570907
    endloop
  endfacet
  facet normal -0.771134889 -0.121708959 -0.624930326
    outer loop
      vertex 5.72752237 -0.465183258 0.202394873
      vertex 5.73143148 -0.470316321 0.198570907
      vertex 5.69867897 -0.534707248 0.251526505
    endloop
  endfacet
  facet normal -0.771161866 -0.121678205 -0.624903025
    outer loop
      vertex 5.6908617 -0.524441123 0.259174407
      vertex 5.72361374 -0.460050195 0.206218839
      vertex 5.72752237 -0.465183258 0.202394873
    endloop
  endfacet
  facet normal -0.771161257 -0.12167913 -0.624903596
    outer loop
      vertex 5.69867897 -0.534707248 0.251526505
      vertex 5.6908617 -0.524441123 0.259174407
      vertex 5.72752237 -0.465183258 0.202394873
    endloop
  endfacet
  facet normal -0.771152422 -0.121687644 -0.624912841
    outer loop
      vertex 5.80549431 -0.299072832 0.0738298744
      vertex 5.82640266 -0.334873497 0.0549999997
      vertex 5.8047533 -0.351800591 0.085011825
    endloop
  endfacet
  facet normal -0.771149596 -0.121694443 -0.624915004
    outer loop
      vertex 5.77200127 -0.416191518 0.137967408
      vertex 5.8047533 -0.351800591 0.085011825
      vertex 5.77775812 -0.430509359 0.133651629
    endloop
  endfacet
  facet normal -0.771145905 -0.12168937 -0.624920547
    outer loop
      vertex 5.8047533 -0.351800591 0.085011825
      vertex 5.79693556 -0.341534436 0.0926597416
      vertex 5.80549431 -0.299072832 0.0738298744
    endloop
  endfacet
  facet normal -0.771161927 -0.121678326 -0.624902926
    outer loop
      vertex 5.79693556 -0.341534436 0.0926597416
      vertex 5.79302692 -0.336401373 0.0964837074
      vertex 5.80549431 -0.299072832 0.0738298744
    endloop
  endfacet
  facet normal -0.771133041 -0.121706387 -0.624933107
    outer loop
      vertex 5.81405258 -0.256611258 0.0549999997
      vertex 5.80549431 -0.299072832 0.0738298744
      vertex 5.8015852 -0.293939769 0.0776538327
    endloop
  endfacet
  facet normal -0.771155032 -0.12169123 -0.624908922
    outer loop
      vertex 5.81405258 -0.256611258 0.0549999997
      vertex 5.82640266 -0.334873497 0.0549999997
      vertex 5.80549431 -0.299072832 0.0738298744
    endloop
  endfacet
  facet normal -0.771161566 -0.121678676 -0.624903304
    outer loop
      vertex 5.80549431 -0.299072832 0.0738298744
      vertex 5.79302692 -0.336401373 0.0964837074
      vertex 5.78911829 -0.331268311 0.100307666
    endloop
  endfacet
  facet normal -0.771182961 -0.121640954 -0.624884244
    outer loop
      vertex 5.76785612 -0.357047468 0.131565407
      vertex 5.77702141 -0.342233002 0.117370524
      vertex 5.76883316 -0.358330727 0.130609423
    endloop
  endfacet
  facet normal -0.771136085 -0.121712137 -0.624928231
    outer loop
      vertex 5.78325462 -0.323568732 0.106043607
      vertex 5.8015852 -0.293939769 0.0776538327
      vertex 5.78520918 -0.326135248 0.104131624
    endloop
  endfacet
  facet normal -0.771135942 -0.121712325 -0.624928371
    outer loop
      vertex 5.77506685 -0.339666456 0.119282499
      vertex 5.77702141 -0.342233002 0.117370524
      vertex 5.76785612 -0.357047468 0.131565407
    endloop
  endfacet
  facet normal -0.771164852 -0.121675581 -0.624899852
    outer loop
      vertex 5.8015852 -0.293939769 0.0776538327
      vertex 5.78915644 -0.305557549 0.0952538103
      vertex 5.81405258 -0.256611258 0.0549999997
    endloop
  endfacet
  facet normal -0.771223609 -0.121607009 -0.624840684
    outer loop
      vertex 5.77506685 -0.339666456 0.119282499
      vertex 5.78915644 -0.305557549 0.0952538103
      vertex 5.78325462 -0.323568732 0.106043607
    endloop
  endfacet
  facet normal -0.771141568 -0.121699535 -0.624923919
    outer loop
      vertex 5.77506685 -0.339666456 0.119282499
      vertex 5.76425982 -0.35450387 0.135507613
      vertex 5.78915644 -0.305557549 0.0952538103
    endloop
  endfacet
  facet normal -0.771007286 -0.121857832 -0.625058744
    outer loop
      vertex 5.76686573 -0.357925922 0.132958308
      vertex 5.77506685 -0.339666456 0.119282499
      vertex 5.76785612 -0.357047468 0.131565407
    endloop
  endfacet
  facet normal -0.771174304 -0.121654125 -0.624892364
    outer loop
      vertex 5.78915644 -0.305557549 0.0952538103
      vertex 5.8015852 -0.293939769 0.0776538327
      vertex 5.78325462 -0.323568732 0.106043607
    endloop
  endfacet
  facet normal -0.770993828 -0.121889527 -0.625069164
    outer loop
      vertex 5.76785612 -0.357047468 0.131565407
      vertex 5.763762 -0.365096331 0.13818486
      vertex 5.76686573 -0.357925922 0.132958308
    endloop
  endfacet
  facet normal -0.771186841 -0.121648582 -0.624877971
    outer loop
      vertex 5.75532436 -0.380616605 0.1516193
      vertex 5.75966787 -0.373145193 0.144804299
      vertex 5.76064491 -0.374428451 0.143848315
    endloop
  endfacet
  facet normal -0.771185851 -0.121650016 -0.624878913
    outer loop
      vertex 5.75966787 -0.373145193 0.144804299
      vertex 5.75532436 -0.380616605 0.1516193
      vertex 5.76686573 -0.357925922 0.132958308
    endloop
  endfacet
  facet normal -0.770987016 -0.121897472 -0.625076018
    outer loop
      vertex 5.75966787 -0.373145193 0.144804299
      vertex 5.76686573 -0.357925922 0.132958308
      vertex 5.763762 -0.365096331 0.13818486
    endloop
  endfacet
  facet normal -0.771146649 -0.121690832 -0.624919345
    outer loop
      vertex 5.77506685 -0.339666456 0.119282499
      vertex 5.76686573 -0.357925922 0.132958308
      vertex 5.76425982 -0.35450387 0.135507613
    endloop
  endfacet
  facet normal -0.771176367 -0.121668862 -0.624886949
    outer loop
      vertex 5.75245714 -0.390526205 0.157087207
      vertex 5.75532436 -0.380616605 0.1516193
      vertex 5.76064491 -0.374428451 0.143848315
    endloop
  endfacet
  facet normal -0.77115622 -0.121682571 -0.624909142
    outer loop
      vertex 5.77775812 -0.430509359 0.133651629
      vertex 5.7291131 -0.52614522 0.212303266
      vertex 5.73924923 -0.480582476 0.19092299
    endloop
  endfacet
  facet normal -0.771153114 -0.121684852 -0.624912531
    outer loop
      vertex 5.70649672 -0.544973433 0.243878573
      vertex 5.73924923 -0.480582476 0.19092299
      vertex 5.7291131 -0.52614522 0.212303266
    endloop
  endfacet
  facet normal -0.771149485 -0.121694934 -0.624915046
    outer loop
      vertex 5.68046856 -0.621781051 0.290954888
      vertex 5.69867897 -0.534707248 0.251526505
      vertex 5.70649672 -0.544973433 0.243878573
    endloop
  endfacet
  facet normal -0.771148722 -0.12169568 -0.624915842
    outer loop
      vertex 5.7291131 -0.52614522 0.212303266
      vertex 5.68046856 -0.621781051 0.290954888
      vertex 5.70649672 -0.544973433 0.243878573
    endloop
  endfacet
  facet normal -0.77115409 -0.121685336 -0.624911232
    outer loop
      vertex 5.63182354 -0.717416942 0.369606525
      vertex 5.59192944 -0.744577885 0.424125612
      vertex 5.68046856 -0.621781051 0.290954888
    endloop
  endfacet
  facet normal -0.771159169 -0.121675025 -0.624906972
    outer loop
      vertex 5.64660597 -0.585812032 0.325737149
      vertex 5.6908617 -0.524441123 0.259174407
      vertex 5.69867897 -0.534707248 0.251526505
    endloop
  endfacet
  facet normal -0.771147707 -0.121696189 -0.624916996
    outer loop
      vertex 5.68046856 -0.621781051 0.290954888
      vertex 5.59192944 -0.744577885 0.424125612
      vertex 5.69867897 -0.534707248 0.251526505
    endloop
  endfacet
  facet normal -0.771152209 -0.121690277 -0.624912592
    outer loop
      vertex 5.69867897 -0.534707248 0.251526505
      vertex 5.59192944 -0.744577885 0.424125612
      vertex 5.64660597 -0.585812032 0.325737149
    endloop
  endfacet
  facet normal -0.771135667 -0.12171261 -0.624928655
    outer loop
      vertex 5.6908617 -0.524441123 0.259174407
      vertex 5.71970463 -0.454917133 0.21004279
      vertex 5.72361374 -0.460050195 0.206218839
    endloop
  endfacet
  facet normal -0.770727395 -0.122277038 -0.625322004
    outer loop
      vertex 5.75147963 -0.389242917 0.158043206
      vertex 5.74738598 -0.397291809 0.164662644
      vertex 5.74378252 -0.403307289 0.170280293
    endloop
  endfacet
  facet normal -0.771193906 -0.121658049 -0.624867408
    outer loop
      vertex 5.73608112 -0.422721654 0.183565006
      vertex 5.74117708 -0.399885237 0.172829598
      vertex 5.74378252 -0.403307289 0.170280293
    endloop
  endfacet
  facet normal -0.77095264 -0.121943586 -0.625109422
    outer loop
      vertex 5.74738598 -0.397291809 0.164662644
      vertex 5.74329185 -0.405340672 0.171282098
      vertex 5.74378252 -0.403307289 0.170280293
    endloop
  endfacet
  facet normal -0.770885844 -0.121995315 -0.625181701
    outer loop
      vertex 5.74329185 -0.405340672 0.171282098
      vertex 5.73608112 -0.422721654 0.183565006
      vertex 5.74378252 -0.403307289 0.170280293
    endloop
  endfacet
  facet normal -0.77118889 -0.121652609 -0.624874658
    outer loop
      vertex 5.74329185 -0.405340672 0.171282098
      vertex 5.74426889 -0.40662393 0.170326114
      vertex 5.73608112 -0.422721654 0.183565006
    endloop
  endfacet
  facet normal -0.771267144 -0.121529266 -0.624802073
    outer loop
      vertex 5.75147963 -0.389242917 0.158043206
      vertex 5.74378252 -0.403307289 0.170280293
      vertex 5.75532436 -0.380616605 0.1516193
    endloop
  endfacet
  facet normal -0.771171894 -0.12166279 -0.624893651
    outer loop
      vertex 5.69389153 -0.492848635 0.249283373
      vertex 5.74117708 -0.399885237 0.172829598
      vertex 5.71970463 -0.454917133 0.21004279
    endloop
  endfacet
  facet normal -0.771154138 -0.121691715 -0.624909931
    outer loop
      vertex 5.69389153 -0.492848635 0.249283373
      vertex 5.71970463 -0.454917133 0.21004279
      vertex 5.6908617 -0.524441123 0.259174407
    endloop
  endfacet
  facet normal -0.771147608 -0.121694683 -0.624917411
    outer loop
      vertex 5.64660597 -0.585812032 0.325737149
      vertex 5.69389153 -0.492848635 0.249283373
      vertex 5.6908617 -0.524441123 0.259174407
    endloop
  endfacet
  facet normal -0.771147025 -0.121695343 -0.624918001
    outer loop
      vertex 5.59932041 -0.67877543 0.402190924
      vertex 5.59192944 -0.744577885 0.424125612
      vertex 5.55203485 -0.771738768 0.478644669
    endloop
  endfacet
  facet normal -0.771076969 -0.121755939 -0.624992639
    outer loop
      vertex 5.75532436 -0.380616605 0.1516193
      vertex 5.75245714 -0.390526205 0.157087207
      vertex 5.75147963 -0.389242917 0.158043206
    endloop
  endfacet
  facet normal -0.771185321 -0.121637107 -0.624882081
    outer loop
      vertex 5.763762 -0.365096331 0.13818486
      vertex 5.76883316 -0.358330727 0.130609423
      vertex 5.76473904 -0.366379589 0.137228861
    endloop
  endfacet
  facet normal -0.771183037 -0.121641104 -0.624884121
    outer loop
      vertex 5.75966787 -0.373145193 0.144804299
      vertex 5.76473904 -0.366379589 0.137228861
      vertex 5.76064491 -0.374428451 0.143848315
    endloop
  endfacet
  facet normal -0.771139095 -0.121718056 -0.624923364
    outer loop
      vertex 5.78325462 -0.323568732 0.106043607
      vertex 5.78520918 -0.326135248 0.104131624
      vertex 5.77702141 -0.342233002 0.117370524
    endloop
  endfacet
  facet normal -0.771139583 -0.121717361 -0.624922898
    outer loop
      vertex 5.76064491 -0.374428451 0.143848315
      vertex 5.76259947 -0.376994997 0.141936332
      vertex 5.7544117 -0.393092722 0.155175224
    endloop
  endfacet
  facet normal -0.771139078 -0.121718023 -0.624923391
    outer loop
      vertex 5.76259947 -0.376994997 0.141936332
      vertex 5.77274179 -0.363463789 0.126785457
      vertex 5.76455402 -0.379561514 0.140024349
    endloop
  endfacet
  facet normal -0.771183482 -0.121640326 -0.624883724
    outer loop
      vertex 5.7544117 -0.393092722 0.155175224
      vertex 5.76455402 -0.379561514 0.140024349
      vertex 5.75636578 -0.395659268 0.153263256
    endloop
  endfacet
  facet normal -0.771136013 -0.121712231 -0.624928301
    outer loop
      vertex 5.8015852 -0.293939769 0.0776538327
      vertex 5.80549431 -0.299072832 0.0738298744
      vertex 5.78911829 -0.331268311 0.100307666
    endloop
  endfacet
  facet normal -0.771161566 -0.121678676 -0.624903304
    outer loop
      vertex 5.78911829 -0.331268311 0.100307666
      vertex 5.79302692 -0.336401373 0.0964837074
      vertex 5.77665091 -0.368596852 0.122961499
    endloop
  endfacet
  facet normal -0.771161889 -0.121678251 -0.624902987
    outer loop
      vertex 5.77665091 -0.368596852 0.122961499
      vertex 5.79693556 -0.341534436 0.0926597416
      vertex 5.78055954 -0.373729914 0.119137533
    endloop
  endfacet
  facet normal -0.771161889 -0.121678251 -0.624902987
    outer loop
      vertex 5.76027489 -0.400792331 0.14943929
      vertex 5.78055954 -0.373729914 0.119137533
      vertex 5.76418352 -0.405925393 0.145615324
    endloop
  endfacet
  facet normal -0.771147415 -0.121692337 -0.624918107
    outer loop
      vertex 5.73143148 -0.470316321 0.198570907
      vertex 5.73924923 -0.480582476 0.19092299
      vertex 5.70649672 -0.544973433 0.243878573
    endloop
  endfacet
  facet normal -0.771084424 -0.121770597 -0.624980586
    outer loop
      vertex 5.75147963 -0.389242917 0.158043206
      vertex 5.75245714 -0.390526205 0.157087207
      vertex 5.74836302 -0.398575068 0.16370666
    endloop
  endfacet
  facet normal -0.771183037 -0.121641104 -0.624884121
    outer loop
      vertex 5.74329185 -0.405340672 0.171282098
      vertex 5.74836302 -0.398575068 0.16370666
      vertex 5.74426889 -0.40662393 0.170326114
    endloop
  endfacet
  facet normal -0.771184683 -0.121638444 -0.624882608
    outer loop
      vertex 5.73608112 -0.422721654 0.183565006
      vertex 5.74622345 -0.409190476 0.168414131
      vertex 5.7380352 -0.4252882 0.181653023
    endloop
  endfacet
  facet normal -0.771139078 -0.121718023 -0.624923391
    outer loop
      vertex 5.74622345 -0.409190476 0.168414131
      vertex 5.75636578 -0.395659268 0.153263256
      vertex 5.74817801 -0.411756992 0.166502148
    endloop
  endfacet
  facet normal -0.771133015 -0.121706102 -0.624933195
    outer loop
      vertex 5.74622345 -0.409190476 0.168414131
      vertex 5.74817801 -0.411756992 0.166502148
      vertex 5.73998976 -0.427854747 0.17974104
    endloop
  endfacet
  facet normal -0.771161881 -0.121678235 -0.624903001
    outer loop
      vertex 5.72361374 -0.460050195 0.206218839
      vertex 5.74389839 -0.432987809 0.175917089
      vertex 5.72752237 -0.465183258 0.202394873
    endloop
  endfacet
  facet normal -0.771161927 -0.121678326 -0.624902926
    outer loop
      vertex 5.76027489 -0.400792331 0.14943929
      vertex 5.76418352 -0.405925393 0.145615324
      vertex 5.7478075 -0.438120872 0.172093123
    endloop
  endfacet
  facet normal -0.771136328 -0.12171179 -0.624927998
    outer loop
      vertex 5.74389839 -0.432987809 0.175917089
      vertex 5.7478075 -0.438120872 0.172093123
      vertex 5.73143148 -0.470316321 0.198570907
    endloop
  endfacet
  facet normal -0.7711499 -0.121694143 -0.624914688
    outer loop
      vertex 5.8047533 -0.351800591 0.085011825
      vertex 5.82640266 -0.334873497 0.0549999997
      vertex 5.77775812 -0.430509359 0.133651629
    endloop
  endfacet
  facet normal -0.771149574 -0.121694424 -0.624915036
    outer loop
      vertex 5.77775812 -0.430509359 0.133651629
      vertex 5.73924923 -0.480582476 0.19092299
      vertex 5.77200127 -0.416191518 0.137967408
    endloop
  endfacet
  facet normal -0.771147154 -0.12169528 -0.624917855
    outer loop
      vertex 5.59192944 -0.744577885 0.424125612
      vertex 5.59932041 -0.67877543 0.402190924
      vertex 5.64660597 -0.585812032 0.325737149
    endloop
  endfacet
  facet normal -0.771138799 -0.121698604 -0.624927518
    outer loop
      vertex 5.74117708 -0.399885237 0.172829598
      vertex 5.73608112 -0.422721654 0.183565006
      vertex 5.71970463 -0.454917133 0.21004279
    endloop
  endfacet
  facet normal -0.521181102 0.684407463 0.509859474
    outer loop
      vertex 5.81973934 -0.273319036 0.083240509
      vertex 5.7994113 -0.313284248 0.116108187
      vertex 5.83516216 -0.270885229 0.0957387909
    endloop
  endfacet
  facet normal -0.52117211 0.684408973 0.509866639
    outer loop
      vertex 5.83516216 -0.270885229 0.0957387909
      vertex 5.81483412 -0.310850441 0.128606483
      vertex 5.83025742 -0.308416605 0.141104758
    endloop
  endfacet
  facet normal -0.521175718 0.684410016 0.509861551
    outer loop
      vertex 5.83025742 -0.308416605 0.141104758
      vertex 5.8100791 -0.348086953 0.173729956
      vertex 5.82535219 -0.345947981 0.186470732
    endloop
  endfacet
  facet normal -0.521171997 0.684409194 0.509866457
    outer loop
      vertex 5.81483412 -0.310850441 0.128606483
      vertex 5.794806 -0.350225925 0.16098918
      vertex 5.83025742 -0.308416605 0.141104758
    endloop
  endfacet
  facet normal -0.521182096 0.684407329 0.509858638
    outer loop
      vertex 5.83025742 -0.308416605 0.141104758
      vertex 5.82535219 -0.345947981 0.186470732
      vertex 5.86600828 -0.266017556 0.12073537
    endloop
  endfacet
  facet normal -0.521175729 0.684409996 0.509861567
    outer loop
      vertex 5.77953291 -0.352364898 0.148248389
      vertex 5.7994113 -0.313284248 0.116108187
      vertex 5.76425982 -0.35450387 0.135507613
    endloop
  endfacet
  facet normal -0.521180463 0.684409249 0.50985773
    outer loop
      vertex 5.7994113 -0.313284248 0.116108187
      vertex 5.77953291 -0.352364898 0.148248389
      vertex 5.81483412 -0.310850441 0.128606483
    endloop
  endfacet
  facet normal -0.521181193 0.684408972 0.509857356
    outer loop
      vertex 5.90666485 -0.186087132 0.0549999997
      vertex 5.85058546 -0.268451393 0.10823708
      vertex 5.86600828 -0.266017556 0.12073537
    endloop
  endfacet
  facet normal -0.521176546 0.684408922 0.509862173
    outer loop
      vertex 5.90666485 -0.186087132 0.0549999997
      vertex 5.86035872 -0.221349195 0.0549999997
      vertex 5.85058546 -0.268451393 0.10823708
    endloop
  endfacet
  facet normal -0.521171424 0.68441085 0.50986482
    outer loop
      vertex 5.83516216 -0.270885229 0.0957387909
      vertex 5.85058546 -0.268451393 0.10823708
      vertex 5.86035872 -0.221349195 0.0549999997
    endloop
  endfacet
  facet normal -0.521178871 0.68440762 0.509861544
    outer loop
      vertex 5.81405258 -0.256611258 0.0549999997
      vertex 5.78915644 -0.305557549 0.0952538103
      vertex 5.81973934 -0.273319036 0.083240509
    endloop
  endfacet
  facet normal -0.521176633 0.684409036 0.509861931
    outer loop
      vertex 5.81973934 -0.273319036 0.083240509
      vertex 5.86035872 -0.221349195 0.0549999997
      vertex 5.81405258 -0.256611258 0.0549999997
    endloop
  endfacet
  facet normal -0.521180074 0.684409486 0.509857811
    outer loop
      vertex 5.86035872 -0.221349195 0.0549999997
      vertex 5.81973934 -0.273319036 0.083240509
      vertex 5.83516216 -0.270885229 0.0957387909
    endloop
  endfacet
  facet normal -0.521182035 0.684407316 0.509858718
    outer loop
      vertex 5.86600828 -0.266017556 0.12073537
      vertex 5.85058546 -0.268451393 0.10823708
      vertex 5.83025742 -0.308416605 0.141104758
    endloop
  endfacet
  facet normal -0.521181345 0.684407515 0.509859156
    outer loop
      vertex 5.7994113 -0.313284248 0.116108187
      vertex 5.81483412 -0.310850441 0.128606483
      vertex 5.83516216 -0.270885229 0.0957387909
    endloop
  endfacet
  facet normal -0.521172453 0.684408828 0.509866483
    outer loop
      vertex 5.83516216 -0.270885229 0.0957387909
      vertex 5.83025742 -0.308416605 0.141104758
      vertex 5.85058546 -0.268451393 0.10823708
    endloop
  endfacet
  facet normal -0.521175718 0.684410016 0.509861551
    outer loop
      vertex 5.794806 -0.350225925 0.16098918
      vertex 5.8100791 -0.348086953 0.173729956
      vertex 5.83025742 -0.308416605 0.141104758
    endloop
  endfacet
  facet normal -0.521176503 0.684410172 0.509860538
    outer loop
      vertex 5.7994113 -0.313284248 0.116108187
      vertex 5.78915644 -0.305557549 0.0952538103
      vertex 5.76425982 -0.35450387 0.135507613
    endloop
  endfacet
  facet normal -0.521176824 0.684408432 0.509862546
    outer loop
      vertex 5.77953291 -0.352364898 0.148248389
      vertex 5.794806 -0.350225925 0.16098918
      vertex 5.81483412 -0.310850441 0.128606483
    endloop
  endfacet
  facet normal -0.521179235 0.684407758 0.509860987
    outer loop
      vertex 5.78915644 -0.305557549 0.0952538103
      vertex 5.7994113 -0.313284248 0.116108187
      vertex 5.81973934 -0.273319036 0.083240509
    endloop
  endfacet
  facet normal 0 0 -1
    outer loop
      vertex 5.86035872 -0.221349195 0.0549999997
      vertex 5.90666485 -0.186087132 0.0549999997
      vertex 5.91901493 -0.264349371 0.0549999997
    endloop
  endfacet
  facet normal -0 0 -1
    outer loop
      vertex 5.91901493 -0.264349371 0.0549999997
      vertex 5.8727088 -0.299611449 0.0549999997
      vertex 5.86035872 -0.221349195 0.0549999997
    endloop
  endfacet
  facet normal 0 0 -1
    outer loop
      vertex 5.81405258 -0.256611258 0.0549999997
      vertex 5.8727088 -0.299611449 0.0549999997
      vertex 5.82640266 -0.334873497 0.0549999997
    endloop
  endfacet
  facet normal 0 0 -1
    outer loop
      vertex 5.8727088 -0.299611449 0.0549999997
      vertex 5.81405258 -0.256611258 0.0549999997
      vertex 5.86035872 -0.221349195 0.0549999997
    endloop
  endfacet
endsolid a27
