solid g1_features
  facet normal -0.882845934 -0.446214142 -0.14654691
    outer loop
      vertex 1.94327076 -0.71569035 2.20458959
      vertex 1.94358168 -0.716116682 2.20401467
      vertex 1.98088396 -0.822439145 2.30303019
    endloop
  endfacet
  facet normal -0.882845934 -0.446214142 -0.14654691
    outer loop
      vertex 1.94327076 -0.71569035 2.20458959
      vertex 1.98088396 -0.822439145 2.30303019
      vertex 1.98057305 -0.822012813 2.30360511
    endloop
  endfacet
  facet normal -0.248681881 0.708816424 -0.660103476
    outer loop
      vertex 1.94515798 -0.715028235 2.20458959
      vertex 1.94358168 -0.716116682 2.20401467
      vertex 1.94327076 -0.71569035 2.20458959
    endloop
  endfacet
  facet normal 0.248681881 -0.708816424 0.660103476
    outer loop
      vertex 1.98246027 -0.821350699 2.30360511
      vertex 1.98057305 -0.822012813 2.30360511
      vertex 1.98088396 -0.822439145 2.30303019
    endloop
  endfacet
  facet normal -0.663173651 -0.621318063 -0.417330292
    outer loop
      vertex 1.94358168 -0.716116682 2.20401467
      vertex 1.94413257 -0.716377307 2.20352727
      vertex 1.98143485 -0.822699771 2.30254279
    endloop
  endfacet
  facet normal -0.663173651 -0.621318063 -0.417330292
    outer loop
      vertex 1.94358168 -0.716116682 2.20401467
      vertex 1.98143485 -0.822699771 2.30254279
      vertex 1.98088396 -0.822439145 2.30303019
    endloop
  endfacet
  facet normal -0.248681881 0.708816424 -0.660103476
    outer loop
      vertex 1.94515798 -0.715028235 2.20458959
      vertex 1.94413257 -0.716377307 2.20352727
      vertex 1.94358168 -0.716116682 2.20401467
    endloop
  endfacet
  facet normal 0.248681881 -0.708816424 0.660103476
    outer loop
      vertex 1.98246027 -0.821350699 2.30360511
      vertex 1.98088396 -0.822439145 2.30303019
      vertex 1.98143485 -0.822699771 2.30254279
    endloop
  endfacet
  facet normal -0.342539192 -0.701831941 -0.624578921
    outer loop
      vertex 1.94413257 -0.716377307 2.20352727
      vertex 1.94483957 -0.716432549 2.2032016
      vertex 1.98214185 -0.822755012 2.30221712
    endloop
  endfacet
  facet normal -0.342539192 -0.701831941 -0.624578921
    outer loop
      vertex 1.94413257 -0.716377307 2.20352727
      vertex 1.98214185 -0.822755012 2.30221712
      vertex 1.98143485 -0.822699771 2.30254279
    endloop
  endfacet
  facet normal -0.248681881 0.708816424 -0.660103476
    outer loop
      vertex 1.94515798 -0.715028235 2.20458959
      vertex 1.94483957 -0.716432549 2.2032016
      vertex 1.94413257 -0.716377307 2.20352727
    endloop
  endfacet
  facet normal 0.248681881 -0.708816424 0.660103476
    outer loop
      vertex 1.98246027 -0.821350699 2.30360511
      vertex 1.98143485 -0.822699771 2.30254279
      vertex 1.98214185 -0.822755012 2.30221712
    endloop
  endfacet
  facet normal 0.0302437543 -0.675498269 -0.73674107
    outer loop
      vertex 1.94483957 -0.716432549 2.2032016
      vertex 1.94559505 -0.716273996 2.20308724
      vertex 1.98289733 -0.82259646 2.30210276
    endloop
  endfacet
  facet normal 0.0302437543 -0.675498269 -0.73674107
    outer loop
      vertex 1.94483957 -0.716432549 2.2032016
      vertex 1.98289733 -0.82259646 2.30210276
      vertex 1.98214185 -0.822755012 2.30221712
    endloop
  endfacet
  facet normal -0.248681881 0.708816424 -0.660103476
    outer loop
      vertex 1.94515798 -0.715028235 2.20458959
      vertex 1.94559505 -0.716273996 2.20308724
      vertex 1.94483957 -0.716432549 2.2032016
    endloop
  endfacet
  facet normal 0.248681881 -0.708816424 0.660103476
    outer loop
      vertex 1.98246027 -0.821350699 2.30360511
      vertex 1.98214185 -0.822755012 2.30221712
      vertex 1.98289733 -0.82259646 2.30210276
    endloop
  endfacet
  facet normal 0.398422363 -0.546326108 -0.73674107
    outer loop
      vertex 1.94559505 -0.716273996 2.20308724
      vertex 1.94628399 -0.715925788 2.2032016
      vertex 1.98358627 -0.822248252 2.30221712
    endloop
  endfacet
  facet normal 0.398422363 -0.546326108 -0.73674107
    outer loop
      vertex 1.94559505 -0.716273996 2.20308724
      vertex 1.98358627 -0.822248252 2.30221712
      vertex 1.98289733 -0.82259646 2.30210276
    endloop
  endfacet
  facet normal -0.248681881 0.708816424 -0.660103476
    outer loop
      vertex 1.94515798 -0.715028235 2.20458959
      vertex 1.94628399 -0.715925788 2.2032016
      vertex 1.94559505 -0.716273996 2.20308724
    endloop
  endfacet
  facet normal 0.248681881 -0.708816424 0.660103476
    outer loop
      vertex 1.98246027 -0.821350699 2.30360511
      vertex 1.98289733 -0.82259646 2.30210276
      vertex 1.98358627 -0.822248252 2.30221712
    endloop
  endfacet
  facet normal 0.705944779 -0.33398075 -0.624578921
    outer loop
      vertex 1.94628399 -0.715925788 2.2032016
      vertex 1.9468015 -0.715440936 2.20352727
      vertex 1.98410378 -0.821763399 2.30254279
    endloop
  endfacet
  facet normal 0.705944779 -0.33398075 -0.624578921
    outer loop
      vertex 1.94628399 -0.715925788 2.2032016
      vertex 1.98410378 -0.821763399 2.30254279
      vertex 1.98358627 -0.822248252 2.30221712
    endloop
  endfacet
  facet normal -0.248681881 0.708816424 -0.660103476
    outer loop
      vertex 1.94515798 -0.715028235 2.20458959
      vertex 1.9468015 -0.715440936 2.20352727
      vertex 1.94628399 -0.715925788 2.2032016
    endloop
  endfacet
  facet normal 0.248681881 -0.708816424 0.660103476
    outer loop
      vertex 1.98246027 -0.821350699 2.30360511
      vertex 1.98358627 -0.822248252 2.30221712
      vertex 1.98410378 -0.821763399 2.30254279
    endloop
  endfacet
  facet normal 0.905993501 -0.0707898503 -0.417330292
    outer loop
      vertex 1.9468015 -0.715440936 2.20352727
      vertex 1.94706881 -0.714893253 2.20401467
      vertex 1.98437109 -0.821215717 2.30303019
    endloop
  endfacet
  facet normal 0.905993501 -0.0707898503 -0.417330292
    outer loop
      vertex 1.9468015 -0.715440936 2.20352727
      vertex 1.98437109 -0.821215717 2.30303019
      vertex 1.98410378 -0.821763399 2.30254279
    endloop
  endfacet
  facet normal -0.248681881 0.708816424 -0.660103476
    outer loop
      vertex 1.94515798 -0.715028235 2.20458959
      vertex 1.94706881 -0.714893253 2.20401467
      vertex 1.9468015 -0.715440936 2.20352727
    endloop
  endfacet
  facet normal 0.248681881 -0.708816424 0.660103476
    outer loop
      vertex 1.98246027 -0.821350699 2.30360511
      vertex 1.98410378 -0.821763399 2.30254279
      vertex 1.98437109 -0.821215717 2.30303019
    endloop
  endfacet
  facet normal 0.968112926 0.203178162 -0.14654691
    outer loop
      vertex 1.94706881 -0.714893253 2.20401467
      vertex 1.94704521 -0.71436612 2.20458959
      vertex 1.98434749 -0.820688584 2.30360511
    endloop
  endfacet
  facet normal 0.968112926 0.203178162 -0.14654691
    outer loop
      vertex 1.94706881 -0.714893253 2.20401467
      vertex 1.98434749 -0.820688584 2.30360511
      vertex 1.98437109 -0.821215717 2.30303019
    endloop
  endfacet
  facet normal -0.248681881 0.708816424 -0.660103476
    outer loop
      vertex 1.94515798 -0.715028235 2.20458959
      vertex 1.94704521 -0.71436612 2.20458959
      vertex 1.94706881 -0.714893253 2.20401467
    endloop
  endfacet
  facet normal 0.248681881 -0.708816424 0.660103476
    outer loop
      vertex 1.98246027 -0.821350699 2.30360511
      vertex 1.98437109 -0.821215717 2.30303019
      vertex 1.98434749 -0.820688584 2.30360511
    endloop
  endfacet
  facet normal 0.882845934 0.446214142 0.14654691
    outer loop
      vertex 1.94704521 -0.71436612 2.20458959
      vertex 1.94673429 -0.713939789 2.20516452
      vertex 1.98403657 -0.820262252 2.30418004
    endloop
  endfacet
  facet normal 0.882845934 0.446214142 0.14654691
    outer loop
      vertex 1.94704521 -0.71436612 2.20458959
      vertex 1.98403657 -0.820262252 2.30418004
      vertex 1.98434749 -0.820688584 2.30360511
    endloop
  endfacet
  facet normal -0.248681881 0.708816424 -0.660103476
    outer loop
      vertex 1.94515798 -0.715028235 2.20458959
      vertex 1.94673429 -0.713939789 2.20516452
      vertex 1.94704521 -0.71436612 2.20458959
    endloop
  endfacet
  facet normal 0.248681881 -0.708816424 0.660103476
    outer loop
      vertex 1.98246027 -0.821350699 2.30360511
      vertex 1.98434749 -0.820688584 2.30360511
      vertex 1.98403657 -0.820262252 2.30418004
    endloop
  endfacet
  facet normal 0.663173651 0.621318063 0.417330292
    outer loop
      vertex 1.94673429 -0.713939789 2.20516452
      vertex 1.9461834 -0.713679163 2.20565191
      vertex 1.98348568 -0.820001627 2.30466744
    endloop
  endfacet
  facet normal 0.663173651 0.621318063 0.417330292
    outer loop
      vertex 1.94673429 -0.713939789 2.20516452
      vertex 1.98348568 -0.820001627 2.30466744
      vertex 1.98403657 -0.820262252 2.30418004
    endloop
  endfacet
  facet normal -0.248681881 0.708816424 -0.660103476
    outer loop
      vertex 1.94515798 -0.715028235 2.20458959
      vertex 1.9461834 -0.713679163 2.20565191
      vertex 1.94673429 -0.713939789 2.20516452
    endloop
  endfacet
  facet normal 0.248681881 -0.708816424 0.660103476
    outer loop
      vertex 1.98246027 -0.821350699 2.30360511
      vertex 1.98403657 -0.820262252 2.30418004
      vertex 1.98348568 -0.820001627 2.30466744
    endloop
  endfacet
  facet normal 0.342539192 0.701831941 0.624578921
    outer loop
      vertex 1.9461834 -0.713679163 2.20565191
      vertex 1.9454764 -0.713623921 2.20597758
      vertex 1.98277868 -0.819946385 2.3049931
    endloop
  endfacet
  facet normal 0.342539192 0.701831941 0.624578921
    outer loop
      vertex 1.9461834 -0.713679163 2.20565191
      vertex 1.98277868 -0.819946385 2.3049931
      vertex 1.98348568 -0.820001627 2.30466744
    endloop
  endfacet
  facet normal -0.248681881 0.708816424 -0.660103476
    outer loop
      vertex 1.94515798 -0.715028235 2.20458959
      vertex 1.9454764 -0.713623921 2.20597758
      vertex 1.9461834 -0.713679163 2.20565191
    endloop
  endfacet
  facet normal 0.248681881 -0.708816424 0.660103476
    outer loop
      vertex 1.98246027 -0.821350699 2.30360511
      vertex 1.98348568 -0.820001627 2.30466744
      vertex 1.98277868 -0.819946385 2.3049931
    endloop
  endfacet
  facet normal -0.0302437543 0.675498269 0.73674107
    outer loop
      vertex 1.9454764 -0.713623921 2.20597758
      vertex 1.94472092 -0.713782474 2.20609194
      vertex 1.9820232 -0.820104937 2.30510746
    endloop
  endfacet
  facet normal -0.0302437543 0.675498269 0.73674107
    outer loop
      vertex 1.9454764 -0.713623921 2.20597758
      vertex 1.9820232 -0.820104937 2.30510746
      vertex 1.98277868 -0.819946385 2.3049931
    endloop
  endfacet
  facet normal -0.248681881 0.708816424 -0.660103476
    outer loop
      vertex 1.94515798 -0.715028235 2.20458959
      vertex 1.94472092 -0.713782474 2.20609194
      vertex 1.9454764 -0.713623921 2.20597758
    endloop
  endfacet
  facet normal 0.248681881 -0.708816424 0.660103476
    outer loop
      vertex 1.98246027 -0.821350699 2.30360511
      vertex 1.98277868 -0.819946385 2.3049931
      vertex 1.9820232 -0.820104937 2.30510746
    endloop
  endfacet
  facet normal -0.398422363 0.546326108 0.73674107
    outer loop
      vertex 1.94472092 -0.713782474 2.20609194
      vertex 1.94403198 -0.714130682 2.20597758
      vertex 1.98133426 -0.820453146 2.3049931
    endloop
  endfacet
  facet normal -0.398422363 0.546326108 0.73674107
    outer loop
      vertex 1.94472092 -0.713782474 2.20609194
      vertex 1.98133426 -0.820453146 2.3049931
      vertex 1.9820232 -0.820104937 2.30510746
    endloop
  endfacet
  facet normal -0.248681881 0.708816424 -0.660103476
    outer loop
      vertex 1.94515798 -0.715028235 2.20458959
      vertex 1.94403198 -0.714130682 2.20597758
      vertex 1.94472092 -0.713782474 2.20609194
    endloop
  endfacet
  facet normal 0.248681881 -0.708816424 0.660103476
    outer loop
      vertex 1.98246027 -0.821350699 2.30360511
      vertex 1.9820232 -0.820104937 2.30510746
      vertex 1.98133426 -0.820453146 2.3049931
    endloop
  endfacet
  facet normal -0.705944779 0.33398075 0.624578921
    outer loop
      vertex 1.94403198 -0.714130682 2.20597758
      vertex 1.94351447 -0.714615535 2.20565191
      vertex 1.98081675 -0.820937998 2.30466744
    endloop
  endfacet
  facet normal -0.705944779 0.33398075 0.624578921
    outer loop
      vertex 1.94403198 -0.714130682 2.20597758
      vertex 1.98081675 -0.820937998 2.30466744
      vertex 1.98133426 -0.820453146 2.3049931
    endloop
  endfacet
  facet normal -0.248681881 0.708816424 -0.660103476
    outer loop
      vertex 1.94515798 -0.715028235 2.20458959
      vertex 1.94351447 -0.714615535 2.20565191
      vertex 1.94403198 -0.714130682 2.20597758
    endloop
  endfacet
  facet normal 0.248681881 -0.708816424 0.660103476
    outer loop
      vertex 1.98246027 -0.821350699 2.30360511
      vertex 1.98133426 -0.820453146 2.3049931
      vertex 1.98081675 -0.820937998 2.30466744
    endloop
  endfacet
  facet normal -0.905993501 0.0707898503 0.417330292
    outer loop
      vertex 1.94351447 -0.714615535 2.20565191
      vertex 1.94324716 -0.715163217 2.20516452
      vertex 1.98054944 -0.821485681 2.30418004
    endloop
  endfacet
  facet normal -0.905993501 0.0707898503 0.417330292
    outer loop
      vertex 1.94351447 -0.714615535 2.20565191
      vertex 1.98054944 -0.821485681 2.30418004
      vertex 1.98081675 -0.820937998 2.30466744
    endloop
  endfacet
  facet normal -0.248681881 0.708816424 -0.660103476
    outer loop
      vertex 1.94515798 -0.715028235 2.20458959
      vertex 1.94324716 -0.715163217 2.20516452
      vertex 1.94351447 -0.714615535 2.20565191
    endloop
  endfacet
  facet normal 0.248681881 -0.708816424 0.660103476
    outer loop
      vertex 1.98246027 -0.821350699 2.30360511
      vertex 1.98081675 -0.820937998 2.30466744
      vertex 1.98054944 -0.821485681 2.30418004
    endloop
  endfacet
  facet normal -0.968112926 -0.203178162 0.14654691
    outer loop
      vertex 1.94324716 -0.715163217 2.20516452
      vertex 1.94327076 -0.71569035 2.20458959
      vertex 1.98057305 -0.822012813 2.30360511
    endloop
  endfacet
  facet normal -0.968112926 -0.203178162 0.14654691
    outer loop
      vertex 1.94324716 -0.715163217 2.20516452
      vertex 1.98057305 -0.822012813 2.30360511
      vertex 1.98054944 -0.821485681 2.30418004
    endloop
  endfacet
  facet normal -0.248681881 0.708816424 -0.660103476
    outer loop
      vertex 1.94515798 -0.715028235 2.20458959
      vertex 1.94327076 -0.71569035 2.20458959
      vertex 1.94324716 -0.715163217 2.20516452
    endloop
  endfacet
  facet normal 0.248681881 -0.708816424 0.660103476
    outer loop
      vertex 1.98246027 -0.821350699 2.30360511
      vertex 1.98054944 -0.821485681 2.30418004
      vertex 1.98057305 -0.822012813 2.30360511
    endloop
  endfacet
  facet normal -0.882845934 -0.446214142 -0.14654691
    outer loop
      vertex 1.92435591 -0.747840686 2.20952117
      vertex 1.92466682 -0.748267017 2.20894625
      vertex 1.96196911 -0.854589481 2.30796177
    endloop
  endfacet
  facet normal -0.882845934 -0.446214142 -0.14654691
    outer loop
      vertex 1.92435591 -0.747840686 2.20952117
      vertex 1.96196911 -0.854589481 2.30796177
      vertex 1.96165819 -0.854163149 2.30853669
    endloop
  endfacet
  facet normal -0.248681881 0.708816424 -0.660103476
    outer loop
      vertex 1.92624313 -0.747178571 2.20952117
      vertex 1.92466682 -0.748267017 2.20894625
      vertex 1.92435591 -0.747840686 2.20952117
    endloop
  endfacet
  facet normal 0.248681881 -0.708816424 0.660103476
    outer loop
      vertex 1.96354541 -0.853501035 2.30853669
      vertex 1.96165819 -0.854163149 2.30853669
      vertex 1.96196911 -0.854589481 2.30796177
    endloop
  endfacet
  facet normal -0.663173651 -0.621318063 -0.417330292
    outer loop
      vertex 1.92466682 -0.748267017 2.20894625
      vertex 1.92521772 -0.748527643 2.20845885
      vertex 1.96252 -0.854850107 2.30747437
    endloop
  endfacet
  facet normal -0.663173651 -0.621318063 -0.417330292
    outer loop
      vertex 1.92466682 -0.748267017 2.20894625
      vertex 1.96252 -0.854850107 2.30747437
      vertex 1.96196911 -0.854589481 2.30796177
    endloop
  endfacet
  facet normal -0.248681881 0.708816424 -0.660103476
    outer loop
      vertex 1.92624313 -0.747178571 2.20952117
      vertex 1.92521772 -0.748527643 2.20845885
      vertex 1.92466682 -0.748267017 2.20894625
    endloop
  endfacet
  facet normal 0.248681881 -0.708816424 0.660103476
    outer loop
      vertex 1.96354541 -0.853501035 2.30853669
      vertex 1.96196911 -0.854589481 2.30796177
      vertex 1.96252 -0.854850107 2.30747437
    endloop
  endfacet
  facet normal -0.342539192 -0.701831941 -0.624578921
    outer loop
      vertex 1.92521772 -0.748527643 2.20845885
      vertex 1.92592472 -0.748582885 2.20813318
      vertex 1.963227 -0.854905348 2.3071487
    endloop
  endfacet
  facet normal -0.342539192 -0.701831941 -0.624578921
    outer loop
      vertex 1.92521772 -0.748527643 2.20845885
      vertex 1.963227 -0.854905348 2.3071487
      vertex 1.96252 -0.854850107 2.30747437
    endloop
  endfacet
  facet normal -0.248681881 0.708816424 -0.660103476
    outer loop
      vertex 1.92624313 -0.747178571 2.20952117
      vertex 1.92592472 -0.748582885 2.20813318
      vertex 1.92521772 -0.748527643 2.20845885
    endloop
  endfacet
  facet normal 0.248681881 -0.708816424 0.660103476
    outer loop
      vertex 1.96354541 -0.853501035 2.30853669
      vertex 1.96252 -0.854850107 2.30747437
      vertex 1.963227 -0.854905348 2.3071487
    endloop
  endfacet
  facet normal 0.0302437543 -0.675498269 -0.73674107
    outer loop
      vertex 1.92592472 -0.748582885 2.20813318
      vertex 1.9266802 -0.748424332 2.20801882
      vertex 1.96398248 -0.854746796 2.30703434
    endloop
  endfacet
  facet normal 0.0302437543 -0.675498269 -0.73674107
    outer loop
      vertex 1.92592472 -0.748582885 2.20813318
      vertex 1.96398248 -0.854746796 2.30703434
      vertex 1.963227 -0.854905348 2.3071487
    endloop
  endfacet
  facet normal -0.248681881 0.708816424 -0.660103476
    outer loop
      vertex 1.92624313 -0.747178571 2.20952117
      vertex 1.9266802 -0.748424332 2.20801882
      vertex 1.92592472 -0.748582885 2.20813318
    endloop
  endfacet
  facet normal 0.248681881 -0.708816424 0.660103476
    outer loop
      vertex 1.96354541 -0.853501035 2.30853669
      vertex 1.963227 -0.854905348 2.3071487
      vertex 1.96398248 -0.854746796 2.30703434
    endloop
  endfacet
  facet normal 0.398422363 -0.546326108 -0.73674107
    outer loop
      vertex 1.9266802 -0.748424332 2.20801882
      vertex 1.92736913 -0.748076124 2.20813318
      vertex 1.96467142 -0.854398588 2.3071487
    endloop
  endfacet
  facet normal 0.398422363 -0.546326108 -0.73674107
    outer loop
      vertex 1.9266802 -0.748424332 2.20801882
      vertex 1.96467142 -0.854398588 2.3071487
      vertex 1.96398248 -0.854746796 2.30703434
    endloop
  endfacet
  facet normal -0.248681881 0.708816424 -0.660103476
    outer loop
      vertex 1.92624313 -0.747178571 2.20952117
      vertex 1.92736913 -0.748076124 2.20813318
      vertex 1.9266802 -0.748424332 2.20801882
    endloop
  endfacet
  facet normal 0.248681881 -0.708816424 0.660103476
    outer loop
      vertex 1.96354541 -0.853501035 2.30853669
      vertex 1.96398248 -0.854746796 2.30703434
      vertex 1.96467142 -0.854398588 2.3071487
    endloop
  endfacet
  facet normal 0.705944779 -0.33398075 -0.624578921
    outer loop
      vertex 1.92736913 -0.748076124 2.20813318
      vertex 1.92788665 -0.747591272 2.20845885
      vertex 1.96518893 -0.853913735 2.30747437
    endloop
  endfacet
  facet normal 0.705944779 -0.33398075 -0.624578921
    outer loop
      vertex 1.92736913 -0.748076124 2.20813318
      vertex 1.96518893 -0.853913735 2.30747437
      vertex 1.96467142 -0.854398588 2.3071487
    endloop
  endfacet
  facet normal -0.248681881 0.708816424 -0.660103476
    outer loop
      vertex 1.92624313 -0.747178571 2.20952117
      vertex 1.92788665 -0.747591272 2.20845885
      vertex 1.92736913 -0.748076124 2.20813318
    endloop
  endfacet
  facet normal 0.248681881 -0.708816424 0.660103476
    outer loop
      vertex 1.96354541 -0.853501035 2.30853669
      vertex 1.96467142 -0.854398588 2.3071487
      vertex 1.96518893 -0.853913735 2.30747437
    endloop
  endfacet
  facet normal 0.905993501 -0.0707898503 -0.417330292
    outer loop
      vertex 1.92788665 -0.747591272 2.20845885
      vertex 1.92815395 -0.747043589 2.20894625
      vertex 1.96545624 -0.853366053 2.30796177
    endloop
  endfacet
  facet normal 0.905993501 -0.0707898503 -0.417330292
    outer loop
      vertex 1.92788665 -0.747591272 2.20845885
      vertex 1.96545624 -0.853366053 2.30796177
      vertex 1.96518893 -0.853913735 2.30747437
    endloop
  endfacet
  facet normal -0.248681881 0.708816424 -0.660103476
    outer loop
      vertex 1.92624313 -0.747178571 2.20952117
      vertex 1.92815395 -0.747043589 2.20894625
      vertex 1.92788665 -0.747591272 2.20845885
    endloop
  endfacet
  facet normal 0.248681881 -0.708816424 0.660103476
    outer loop
      vertex 1.96354541 -0.853501035 2.30853669
      vertex 1.96518893 -0.853913735 2.30747437
      vertex 1.96545624 -0.853366053 2.30796177
    endloop
  endfacet
  facet normal 0.968112926 0.203178162 -0.14654691
    outer loop
      vertex 1.92815395 -0.747043589 2.20894625
      vertex 1.92813035 -0.746516456 2.20952117
      vertex 1.96543263 -0.85283892 2.30853669
    endloop
  endfacet
  facet normal 0.968112926 0.203178162 -0.14654691
    outer loop
      vertex 1.92815395 -0.747043589 2.20894625
      vertex 1.96543263 -0.85283892 2.30853669
      vertex 1.96545624 -0.853366053 2.30796177
    endloop
  endfacet
  facet normal -0.248681881 0.708816424 -0.660103476
    outer loop
      vertex 1.92624313 -0.747178571 2.20952117
      vertex 1.92813035 -0.746516456 2.20952117
      vertex 1.92815395 -0.747043589 2.20894625
    endloop
  endfacet
  facet normal 0.248681881 -0.708816424 0.660103476
    outer loop
      vertex 1.96354541 -0.853501035 2.30853669
      vertex 1.96545624 -0.853366053 2.30796177
      vertex 1.96543263 -0.85283892 2.30853669
    endloop
  endfacet
  facet normal 0.882845934 0.446214142 0.14654691
    outer loop
      vertex 1.92813035 -0.746516456 2.20952117
      vertex 1.92781944 -0.746090125 2.2100961
      vertex 1.96512172 -0.852412588 2.30911162
    endloop
  endfacet
  facet normal 0.882845934 0.446214142 0.14654691
    outer loop
      vertex 1.92813035 -0.746516456 2.20952117
      vertex 1.96512172 -0.852412588 2.30911162
      vertex 1.96543263 -0.85283892 2.30853669
    endloop
  endfacet
  facet normal -0.248681881 0.708816424 -0.660103476
    outer loop
      vertex 1.92624313 -0.747178571 2.20952117
      vertex 1.92781944 -0.746090125 2.2100961
      vertex 1.92813035 -0.746516456 2.20952117
    endloop
  endfacet
  facet normal 0.248681881 -0.708816424 0.660103476
    outer loop
      vertex 1.96354541 -0.853501035 2.30853669
      vertex 1.96543263 -0.85283892 2.30853669
      vertex 1.96512172 -0.852412588 2.30911162
    endloop
  endfacet
  facet normal 0.663173651 0.621318063 0.417330292
    outer loop
      vertex 1.92781944 -0.746090125 2.2100961
      vertex 1.92726855 -0.745829499 2.21058349
      vertex 1.96457083 -0.852151963 2.30959901
    endloop
  endfacet
  facet normal 0.663173651 0.621318063 0.417330292
    outer loop
      vertex 1.92781944 -0.746090125 2.2100961
      vertex 1.96457083 -0.852151963 2.30959901
      vertex 1.96512172 -0.852412588 2.30911162
    endloop
  endfacet
  facet normal -0.248681881 0.708816424 -0.660103476
    outer loop
      vertex 1.92624313 -0.747178571 2.20952117
      vertex 1.92726855 -0.745829499 2.21058349
      vertex 1.92781944 -0.746090125 2.2100961
    endloop
  endfacet
  facet normal 0.248681881 -0.708816424 0.660103476
    outer loop
      vertex 1.96354541 -0.853501035 2.30853669
      vertex 1.96512172 -0.852412588 2.30911162
      vertex 1.96457083 -0.852151963 2.30959901
    endloop
  endfacet
  facet normal 0.342539192 0.701831941 0.624578921
    outer loop
      vertex 1.92726855 -0.745829499 2.21058349
      vertex 1.92656155 -0.745774257 2.21090916
      vertex 1.96386383 -0.852096721 2.30992468
    endloop
  endfacet
  facet normal 0.342539192 0.701831941 0.624578921
    outer loop
      vertex 1.92726855 -0.745829499 2.21058349
      vertex 1.96386383 -0.852096721 2.30992468
      vertex 1.96457083 -0.852151963 2.30959901
    endloop
  endfacet
  facet normal -0.248681881 0.708816424 -0.660103476
    outer loop
      vertex 1.92624313 -0.747178571 2.20952117
      vertex 1.92656155 -0.745774257 2.21090916
      vertex 1.92726855 -0.745829499 2.21058349
    endloop
  endfacet
  facet normal 0.248681881 -0.708816424 0.660103476
    outer loop
      vertex 1.96354541 -0.853501035 2.30853669
      vertex 1.96457083 -0.852151963 2.30959901
      vertex 1.96386383 -0.852096721 2.30992468
    endloop
  endfacet
  facet normal -0.0302437543 0.675498269 0.73674107
    outer loop
      vertex 1.92656155 -0.745774257 2.21090916
      vertex 1.92580607 -0.74593281 2.21102352
      vertex 1.96310835 -0.852255273 2.31003904
    endloop
  endfacet
  facet normal -0.0302437543 0.675498269 0.73674107
    outer loop
      vertex 1.92656155 -0.745774257 2.21090916
      vertex 1.96310835 -0.852255273 2.31003904
      vertex 1.96386383 -0.852096721 2.30992468
    endloop
  endfacet
  facet normal -0.248681881 0.708816424 -0.660103476
    outer loop
      vertex 1.92624313 -0.747178571 2.20952117
      vertex 1.92580607 -0.74593281 2.21102352
      vertex 1.92656155 -0.745774257 2.21090916
    endloop
  endfacet
  facet normal 0.248681881 -0.708816424 0.660103476
    outer loop
      vertex 1.96354541 -0.853501035 2.30853669
      vertex 1.96386383 -0.852096721 2.30992468
      vertex 1.96310835 -0.852255273 2.31003904
    endloop
  endfacet
  facet normal -0.398422363 0.546326108 0.73674107
    outer loop
      vertex 1.92580607 -0.74593281 2.21102352
      vertex 1.92511713 -0.746281018 2.21090916
      vertex 1.96241941 -0.852603482 2.30992468
    endloop
  endfacet
  facet normal -0.398422363 0.546326108 0.73674107
    outer loop
      vertex 1.92580607 -0.74593281 2.21102352
      vertex 1.96241941 -0.852603482 2.30992468
      vertex 1.96310835 -0.852255273 2.31003904
    endloop
  endfacet
  facet normal -0.248681881 0.708816424 -0.660103476
    outer loop
      vertex 1.92624313 -0.747178571 2.20952117
      vertex 1.92511713 -0.746281018 2.21090916
      vertex 1.92580607 -0.74593281 2.21102352
    endloop
  endfacet
  facet normal 0.248681881 -0.708816424 0.660103476
    outer loop
      vertex 1.96354541 -0.853501035 2.30853669
      vertex 1.96310835 -0.852255273 2.31003904
      vertex 1.96241941 -0.852603482 2.30992468
    endloop
  endfacet
  facet normal -0.705944779 0.33398075 0.624578921
    outer loop
      vertex 1.92511713 -0.746281018 2.21090916
      vertex 1.92459961 -0.74676587 2.21058349
      vertex 1.9619019 -0.853088334 2.30959901
    endloop
  endfacet
  facet normal -0.705944779 0.33398075 0.624578921
    outer loop
      vertex 1.92511713 -0.746281018 2.21090916
      vertex 1.9619019 -0.853088334 2.30959901
      vertex 1.96241941 -0.852603482 2.30992468
    endloop
  endfacet
  facet normal -0.248681881 0.708816424 -0.660103476
    outer loop
      vertex 1.92624313 -0.747178571 2.20952117
      vertex 1.92459961 -0.74676587 2.21058349
      vertex 1.92511713 -0.746281018 2.21090916
    endloop
  endfacet
  facet normal 0.248681881 -0.708816424 0.660103476
    outer loop
      vertex 1.96354541 -0.853501035 2.30853669
      vertex 1.96241941 -0.852603482 2.30992468
      vertex 1.9619019 -0.853088334 2.30959901
    endloop
  endfacet
  facet normal -0.905993501 0.0707898503 0.417330292
    outer loop
      vertex 1.92459961 -0.74676587 2.21058349
      vertex 1.92433231 -0.747313553 2.2100961
      vertex 1.96163459 -0.853636017 2.30911162
    endloop
  endfacet
  facet normal -0.905993501 0.0707898503 0.417330292
    outer loop
      vertex 1.92459961 -0.74676587 2.21058349
      vertex 1.96163459 -0.853636017 2.30911162
      vertex 1.9619019 -0.853088334 2.30959901
    endloop
  endfacet
  facet normal -0.248681881 0.708816424 -0.660103476
    outer loop
      vertex 1.92624313 -0.747178571 2.20952117
      vertex 1.92433231 -0.747313553 2.2100961
      vertex 1.92459961 -0.74676587 2.21058349
    endloop
  endfacet
  facet normal 0.248681881 -0.708816424 0.660103476
    outer loop
      vertex 1.96354541 -0.853501035 2.30853669
      vertex 1.9619019 -0.853088334 2.30959901
      vertex 1.96163459 -0.853636017 2.30911162
    endloop
  endfacet
  facet normal -0.968112926 -0.203178162 0.14654691
    outer loop
      vertex 1.92433231 -0.747313553 2.2100961
      vertex 1.92435591 -0.747840686 2.20952117
      vertex 1.96165819 -0.854163149 2.30853669
    endloop
  endfacet
  facet normal -0.968112926 -0.203178162 0.14654691
    outer loop
      vertex 1.92433231 -0.747313553 2.2100961
      vertex 1.96165819 -0.854163149 2.30853669
      vertex 1.96163459 -0.853636017 2.30911162
    endloop
  endfacet
  facet normal -0.248681881 0.708816424 -0.660103476
    outer loop
      vertex 1.92624313 -0.747178571 2.20952117
      vertex 1.92435591 -0.747840686 2.20952117
      vertex 1.92433231 -0.747313553 2.2100961
    endloop
  endfacet
  facet normal 0.248681881 -0.708816424 0.660103476
    outer loop
      vertex 1.96354541 -0.853501035 2.30853669
      vertex 1.96163459 -0.853636017 2.30911162
      vertex 1.96165819 -0.854163149 2.30853669
    endloop
  endfacet
  facet normal -0.801307441 -0.590351563 -0.0969093237
    outer loop
      vertex 1.97364863 -0.606870685 2.29180059
      vertex 1.97327481 -0.606300877 2.2914204
      vertex 2.01628025 -0.647577424 2.18727253
    endloop
  endfacet
  facet normal -0.801307441 -0.590351563 -0.0969093237
    outer loop
      vertex 1.97364863 -0.606870685 2.29180059
      vertex 2.01628025 -0.647577424 2.18727253
      vertex 2.01665406 -0.648147231 2.18765272
    endloop
  endfacet
  facet normal -0.35837861 0.34397122 0.867898941
    outer loop
      vertex 1.97503354 -0.605427765 2.29180059
      vertex 1.97327481 -0.606300877 2.2914204
      vertex 1.97364863 -0.606870685 2.29180059
    endloop
  endfacet
  facet normal 0.35837861 -0.34397122 -0.867898941
    outer loop
      vertex 2.01803898 -0.646704311 2.18765272
      vertex 2.01665406 -0.648147231 2.18765272
      vertex 2.01628025 -0.647577424 2.18727253
    endloop
  endfacet
  facet normal -0.923628954 -0.265984366 -0.275974405
    outer loop
      vertex 1.97327481 -0.606300877 2.2914204
      vertex 1.97316875 -0.605598146 2.29109809
      vertex 2.01617418 -0.646874693 2.18695022
    endloop
  endfacet
  facet normal -0.923628954 -0.265984366 -0.275974405
    outer loop
      vertex 1.97327481 -0.606300877 2.2914204
      vertex 2.01617418 -0.646874693 2.18695022
      vertex 2.01628025 -0.647577424 2.18727253
    endloop
  endfacet
  facet normal -0.35837861 0.34397122 0.867898941
    outer loop
      vertex 1.97503354 -0.605427765 2.29180059
      vertex 1.97316875 -0.605598146 2.29109809
      vertex 1.97327481 -0.606300877 2.2914204
    endloop
  endfacet
  facet normal 0.35837861 -0.34397122 -0.867898941
    outer loop
      vertex 2.01803898 -0.646704311 2.18765272
      vertex 2.01628025 -0.647577424 2.18727253
      vertex 2.01617418 -0.646874693 2.18695022
    endloop
  endfacet
  facet normal -0.905336332 0.0988765405 -0.413024885
    outer loop
      vertex 1.97316875 -0.605598146 2.29109809
      vertex 1.97334658 -0.604869476 2.29088273
      vertex 2.01635201 -0.646146023 2.18673486
    endloop
  endfacet
  facet normal -0.905336332 0.0988765405 -0.413024885
    outer loop
      vertex 1.97316875 -0.605598146 2.29109809
      vertex 2.01635201 -0.646146023 2.18673486
      vertex 2.01617418 -0.646874693 2.18695022
    endloop
  endfacet
  facet normal -0.35837861 0.34397122 0.867898941
    outer loop
      vertex 1.97503354 -0.605427765 2.29180059
      vertex 1.97334658 -0.604869476 2.29088273
      vertex 1.97316875 -0.605598146 2.29109809
    endloop
  endfacet
  facet normal 0.35837861 -0.34397122 -0.867898941
    outer loop
      vertex 2.01803898 -0.646704311 2.18765272
      vertex 2.01617418 -0.646874693 2.18695022
      vertex 2.01635201 -0.646146023 2.18673486
    endloop
  endfacet
  facet normal -0.74921446 0.44868439 -0.48719607
    outer loop
      vertex 1.97334658 -0.604869476 2.29088273
      vertex 1.97378123 -0.604225801 2.29080711
      vertex 2.01678667 -0.645502347 2.18665923
    endloop
  endfacet
  facet normal -0.74921446 0.44868439 -0.48719607
    outer loop
      vertex 1.97334658 -0.604869476 2.29088273
      vertex 2.01678667 -0.645502347 2.18665923
      vertex 2.01635201 -0.646146023 2.18673486
    endloop
  endfacet
  facet normal -0.35837861 0.34397122 0.867898941
    outer loop
      vertex 1.97503354 -0.605427765 2.29180059
      vertex 1.97378123 -0.604225801 2.29080711
      vertex 1.97334658 -0.604869476 2.29088273
    endloop
  endfacet
  facet normal 0.35837861 -0.34397122 -0.867898941
    outer loop
      vertex 2.01803898 -0.646704311 2.18765272
      vertex 2.01635201 -0.646146023 2.18673486
      vertex 2.01678667 -0.645502347 2.18665923
    endloop
  endfacet
  facet normal -0.479031479 0.730184108 -0.48719607
    outer loop
      vertex 1.97378123 -0.604225801 2.29080711
      vertex 1.97440654 -0.603765113 2.29088273
      vertex 2.01741198 -0.64504166 2.18673486
    endloop
  endfacet
  facet normal -0.479031479 0.730184108 -0.48719607
    outer loop
      vertex 1.97378123 -0.604225801 2.29080711
      vertex 2.01741198 -0.64504166 2.18673486
      vertex 2.01678667 -0.645502347 2.18665923
    endloop
  endfacet
  facet normal -0.35837861 0.34397122 0.867898941
    outer loop
      vertex 1.97503354 -0.605427765 2.29180059
      vertex 1.97440654 -0.603765113 2.29088273
      vertex 1.97378123 -0.604225801 2.29080711
    endloop
  endfacet
  facet normal 0.35837861 -0.34397122 -0.867898941
    outer loop
      vertex 2.01803898 -0.646704311 2.18765272
      vertex 2.01678667 -0.645502347 2.18665923
      vertex 2.01741198 -0.64504166 2.18673486
    endloop
  endfacet
  facet normal -0.135920297 0.900519915 -0.413024885
    outer loop
      vertex 1.97440654 -0.603765113 2.29088273
      vertex 1.97512731 -0.603557549 2.29109809
      vertex 2.01813274 -0.644834096 2.18695022
    endloop
  endfacet
  facet normal -0.135920297 0.900519915 -0.413024885
    outer loop
      vertex 1.97440654 -0.603765113 2.29088273
      vertex 2.01813274 -0.644834096 2.18695022
      vertex 2.01741198 -0.64504166 2.18673486
    endloop
  endfacet
  facet normal -0.35837861 0.34397122 0.867898941
    outer loop
      vertex 1.97503354 -0.605427765 2.29180059
      vertex 1.97512731 -0.603557549 2.29109809
      vertex 1.97440654 -0.603765113 2.29088273
    endloop
  endfacet
  facet normal 0.35837861 -0.34397122 -0.867898941
    outer loop
      vertex 2.01803898 -0.646704311 2.18765272
      vertex 2.01741198 -0.64504166 2.18673486
      vertex 2.01813274 -0.644834096 2.18695022
    endloop
  endfacet
  facet normal 0.227883518 0.933759728 -0.275974405
    outer loop
      vertex 1.97512731 -0.603557549 2.29109809
      vertex 1.9758338 -0.603634709 2.2914204
      vertex 2.01883923 -0.644911255 2.18727253
    endloop
  endfacet
  facet normal 0.227883518 0.933759728 -0.275974405
    outer loop
      vertex 1.97512731 -0.603557549 2.29109809
      vertex 2.01883923 -0.644911255 2.18727253
      vertex 2.01813274 -0.644834096 2.18695022
    endloop
  endfacet
  facet normal -0.35837861 0.34397122 0.867898941
    outer loop
      vertex 1.97503354 -0.605427765 2.29180059
      vertex 1.9758338 -0.603634709 2.2914204
      vertex 1.97512731 -0.603557549 2.29109809
    endloop
  endfacet
  facet normal 0.35837861 -0.34397122 -0.867898941
    outer loop
      vertex 2.01803898 -0.646704311 2.18765272
      vertex 2.01813274 -0.644834096 2.18695022
      vertex 2.01883923 -0.644911255 2.18727253
    endloop
  endfacet
  facet normal 0.556994133 0.824843087 -0.0969093237
    outer loop
      vertex 1.9758338 -0.603634709 2.2914204
      vertex 1.97641845 -0.603984845 2.29180059
      vertex 2.01942389 -0.645261391 2.18765272
    endloop
  endfacet
  facet normal 0.556994133 0.824843087 -0.0969093237
    outer loop
      vertex 1.9758338 -0.603634709 2.2914204
      vertex 2.01942389 -0.645261391 2.18765272
      vertex 2.01883923 -0.644911255 2.18727253
    endloop
  endfacet
  facet normal -0.35837861 0.34397122 0.867898941
    outer loop
      vertex 1.97503354 -0.605427765 2.29180059
      vertex 1.97641845 -0.603984845 2.29180059
      vertex 1.9758338 -0.603634709 2.2914204
    endloop
  endfacet
  facet normal 0.35837861 -0.34397122 -0.867898941
    outer loop
      vertex 2.01803898 -0.646704311 2.18765272
      vertex 2.01883923 -0.644911255 2.18727253
      vertex 2.01942389 -0.645261391 2.18765272
    endloop
  endfacet
  facet normal 0.801307441 0.590351563 0.0969093237
    outer loop
      vertex 1.97641845 -0.603984845 2.29180059
      vertex 1.97679227 -0.604554652 2.29218078
      vertex 2.01979771 -0.645831198 2.1880329
    endloop
  endfacet
  facet normal 0.801307441 0.590351563 0.0969093237
    outer loop
      vertex 1.97641845 -0.603984845 2.29180059
      vertex 2.01979771 -0.645831198 2.1880329
      vertex 2.01942389 -0.645261391 2.18765272
    endloop
  endfacet
  facet normal -0.35837861 0.34397122 0.867898941
    outer loop
      vertex 1.97503354 -0.605427765 2.29180059
      vertex 1.97679227 -0.604554652 2.29218078
      vertex 1.97641845 -0.603984845 2.29180059
    endloop
  endfacet
  facet normal 0.35837861 -0.34397122 -0.867898941
    outer loop
      vertex 2.01803898 -0.646704311 2.18765272
      vertex 2.01942389 -0.645261391 2.18765272
      vertex 2.01979771 -0.645831198 2.1880329
    endloop
  endfacet
  facet normal 0.923628954 0.265984366 0.275974405
    outer loop
      vertex 1.97679227 -0.604554652 2.29218078
      vertex 1.97689834 -0.605257383 2.29250309
      vertex 2.01990377 -0.646533929 2.18835521
    endloop
  endfacet
  facet normal 0.923628954 0.265984366 0.275974405
    outer loop
      vertex 1.97679227 -0.604554652 2.29218078
      vertex 2.01990377 -0.646533929 2.18835521
      vertex 2.01979771 -0.645831198 2.1880329
    endloop
  endfacet
  facet normal -0.35837861 0.34397122 0.867898941
    outer loop
      vertex 1.97503354 -0.605427765 2.29180059
      vertex 1.97689834 -0.605257383 2.29250309
      vertex 1.97679227 -0.604554652 2.29218078
    endloop
  endfacet
  facet normal 0.35837861 -0.34397122 -0.867898941
    outer loop
      vertex 2.01803898 -0.646704311 2.18765272
      vertex 2.01979771 -0.645831198 2.1880329
      vertex 2.01990377 -0.646533929 2.18835521
    endloop
  endfacet
  facet normal 0.905336332 -0.0988765405 0.413024885
    outer loop
      vertex 1.97689834 -0.605257383 2.29250309
      vertex 1.97672051 -0.605986053 2.29271845
      vertex 2.01972594 -0.647262599 2.18857057
    endloop
  endfacet
  facet normal 0.905336332 -0.0988765405 0.413024885
    outer loop
      vertex 1.97689834 -0.605257383 2.29250309
      vertex 2.01972594 -0.647262599 2.18857057
      vertex 2.01990377 -0.646533929 2.18835521
    endloop
  endfacet
  facet normal -0.35837861 0.34397122 0.867898941
    outer loop
      vertex 1.97503354 -0.605427765 2.29180059
      vertex 1.97672051 -0.605986053 2.29271845
      vertex 1.97689834 -0.605257383 2.29250309
    endloop
  endfacet
  facet normal 0.35837861 -0.34397122 -0.867898941
    outer loop
      vertex 2.01803898 -0.646704311 2.18765272
      vertex 2.01990377 -0.646533929 2.18835521
      vertex 2.01972594 -0.647262599 2.18857057
    endloop
  endfacet
  facet normal 0.74921446 -0.44868439 0.48719607
    outer loop
      vertex 1.97672051 -0.605986053 2.29271845
      vertex 1.97628585 -0.606629729 2.29279407
      vertex 2.01929128 -0.647906275 2.1886462
    endloop
  endfacet
  facet normal 0.74921446 -0.44868439 0.48719607
    outer loop
      vertex 1.97672051 -0.605986053 2.29271845
      vertex 2.01929128 -0.647906275 2.1886462
      vertex 2.01972594 -0.647262599 2.18857057
    endloop
  endfacet
  facet normal -0.35837861 0.34397122 0.867898941
    outer loop
      vertex 1.97503354 -0.605427765 2.29180059
      vertex 1.97628585 -0.606629729 2.29279407
      vertex 1.97672051 -0.605986053 2.29271845
    endloop
  endfacet
  facet normal 0.35837861 -0.34397122 -0.867898941
    outer loop
      vertex 2.01803898 -0.646704311 2.18765272
      vertex 2.01972594 -0.647262599 2.18857057
      vertex 2.01929128 -0.647906275 2.1886462
    endloop
  endfacet
  facet normal 0.479031479 -0.730184108 0.48719607
    outer loop
      vertex 1.97628585 -0.606629729 2.29279407
      vertex 1.97566054 -0.607090416 2.29271845
      vertex 2.01866597 -0.648366962 2.18857057
    endloop
  endfacet
  facet normal 0.479031479 -0.730184108 0.48719607
    outer loop
      vertex 1.97628585 -0.606629729 2.29279407
      vertex 2.01866597 -0.648366962 2.18857057
      vertex 2.01929128 -0.647906275 2.1886462
    endloop
  endfacet
  facet normal -0.35837861 0.34397122 0.867898941
    outer loop
      vertex 1.97503354 -0.605427765 2.29180059
      vertex 1.97566054 -0.607090416 2.29271845
      vertex 1.97628585 -0.606629729 2.29279407
    endloop
  endfacet
  facet normal 0.35837861 -0.34397122 -0.867898941
    outer loop
      vertex 2.01803898 -0.646704311 2.18765272
      vertex 2.01929128 -0.647906275 2.1886462
      vertex 2.01866597 -0.648366962 2.18857057
    endloop
  endfacet
  facet normal 0.135920297 -0.900519915 0.413024885
    outer loop
      vertex 1.97566054 -0.607090416 2.29271845
      vertex 1.97493978 -0.60729798 2.29250309
      vertex 2.01794521 -0.648574526 2.18835521
    endloop
  endfacet
  facet normal 0.135920297 -0.900519915 0.413024885
    outer loop
      vertex 1.97566054 -0.607090416 2.29271845
      vertex 2.01794521 -0.648574526 2.18835521
      vertex 2.01866597 -0.648366962 2.18857057
    endloop
  endfacet
  facet normal -0.35837861 0.34397122 0.867898941
    outer loop
      vertex 1.97503354 -0.605427765 2.29180059
      vertex 1.97493978 -0.60729798 2.29250309
      vertex 1.97566054 -0.607090416 2.29271845
    endloop
  endfacet
  facet normal 0.35837861 -0.34397122 -0.867898941
    outer loop
      vertex 2.01803898 -0.646704311 2.18765272
      vertex 2.01866597 -0.648366962 2.18857057
      vertex 2.01794521 -0.648574526 2.18835521
    endloop
  endfacet
  facet normal -0.227883518 -0.933759728 0.275974405
    outer loop
      vertex 1.97493978 -0.60729798 2.29250309
      vertex 1.97423329 -0.607220821 2.29218078
      vertex 2.01723872 -0.648497367 2.1880329
    endloop
  endfacet
  facet normal -0.227883518 -0.933759728 0.275974405
    outer loop
      vertex 1.97493978 -0.60729798 2.29250309
      vertex 2.01723872 -0.648497367 2.1880329
      vertex 2.01794521 -0.648574526 2.18835521
    endloop
  endfacet
  facet normal -0.35837861 0.34397122 0.867898941
    outer loop
      vertex 1.97503354 -0.605427765 2.29180059
      vertex 1.97423329 -0.607220821 2.29218078
      vertex 1.97493978 -0.60729798 2.29250309
    endloop
  endfacet
  facet normal 0.35837861 -0.34397122 -0.867898941
    outer loop
      vertex 2.01803898 -0.646704311 2.18765272
      vertex 2.01794521 -0.648574526 2.18835521
      vertex 2.01723872 -0.648497367 2.1880329
    endloop
  endfacet
  facet normal -0.556994133 -0.824843087 0.0969093237
    outer loop
      vertex 1.97423329 -0.607220821 2.29218078
      vertex 1.97364863 -0.606870685 2.29180059
      vertex 2.01665406 -0.648147231 2.18765272
    endloop
  endfacet
  facet normal -0.556994133 -0.824843087 0.0969093237
    outer loop
      vertex 1.97423329 -0.607220821 2.29218078
      vertex 2.01665406 -0.648147231 2.18765272
      vertex 2.01723872 -0.648497367 2.1880329
    endloop
  endfacet
  facet normal -0.35837861 0.34397122 0.867898941
    outer loop
      vertex 1.97503354 -0.605427765 2.29180059
      vertex 1.97364863 -0.606870685 2.29180059
      vertex 1.97423329 -0.607220821 2.29218078
    endloop
  endfacet
  facet normal 0.35837861 -0.34397122 -0.867898941
    outer loop
      vertex 2.01803898 -0.646704311 2.18765272
      vertex 2.01723872 -0.648497367 2.1880329
      vertex 2.01665406 -0.648147231 2.18765272
    endloop
  endfacet
  facet normal -0.801307441 -0.590351563 -0.0969093237
    outer loop
      vertex 1.98412566 -0.631253429 2.30579036
      vertex 1.98375184 -0.630683621 2.30541017
      vertex 2.02675728 -0.671960168 2.2012623
    endloop
  endfacet
  facet normal -0.801307441 -0.590351563 -0.0969093237
    outer loop
      vertex 1.98412566 -0.631253429 2.30579036
      vertex 2.02675728 -0.671960168 2.2012623
      vertex 2.02713109 -0.672529975 2.20164248
    endloop
  endfacet
  facet normal -0.35837861 0.34397122 0.867898941
    outer loop
      vertex 1.98551057 -0.629810509 2.30579036
      vertex 1.98375184 -0.630683621 2.30541017
      vertex 1.98412566 -0.631253429 2.30579036
    endloop
  endfacet
  facet normal 0.35837861 -0.34397122 -0.867898941
    outer loop
      vertex 2.02851601 -0.671087055 2.20164248
      vertex 2.02713109 -0.672529975 2.20164248
      vertex 2.02675728 -0.671960168 2.2012623
    endloop
  endfacet
  facet normal -0.923628954 -0.265984366 -0.275974405
    outer loop
      vertex 1.98375184 -0.630683621 2.30541017
      vertex 1.98364578 -0.62998089 2.30508786
      vertex 2.02665121 -0.671257437 2.20093999
    endloop
  endfacet
  facet normal -0.923628954 -0.265984366 -0.275974405
    outer loop
      vertex 1.98375184 -0.630683621 2.30541017
      vertex 2.02665121 -0.671257437 2.20093999
      vertex 2.02675728 -0.671960168 2.2012623
    endloop
  endfacet
  facet normal -0.35837861 0.34397122 0.867898941
    outer loop
      vertex 1.98551057 -0.629810509 2.30579036
      vertex 1.98364578 -0.62998089 2.30508786
      vertex 1.98375184 -0.630683621 2.30541017
    endloop
  endfacet
  facet normal 0.35837861 -0.34397122 -0.867898941
    outer loop
      vertex 2.02851601 -0.671087055 2.20164248
      vertex 2.02675728 -0.671960168 2.2012623
      vertex 2.02665121 -0.671257437 2.20093999
    endloop
  endfacet
  facet normal -0.905336332 0.0988765405 -0.413024885
    outer loop
      vertex 1.98364578 -0.62998089 2.30508786
      vertex 1.98382361 -0.62925222 2.3048725
      vertex 2.02682904 -0.670528767 2.20072463
    endloop
  endfacet
  facet normal -0.905336332 0.0988765405 -0.413024885
    outer loop
      vertex 1.98364578 -0.62998089 2.30508786
      vertex 2.02682904 -0.670528767 2.20072463
      vertex 2.02665121 -0.671257437 2.20093999
    endloop
  endfacet
  facet normal -0.35837861 0.34397122 0.867898941
    outer loop
      vertex 1.98551057 -0.629810509 2.30579036
      vertex 1.98382361 -0.62925222 2.3048725
      vertex 1.98364578 -0.62998089 2.30508786
    endloop
  endfacet
  facet normal 0.35837861 -0.34397122 -0.867898941
    outer loop
      vertex 2.02851601 -0.671087055 2.20164248
      vertex 2.02665121 -0.671257437 2.20093999
      vertex 2.02682904 -0.670528767 2.20072463
    endloop
  endfacet
  facet normal -0.74921446 0.44868439 -0.48719607
    outer loop
      vertex 1.98382361 -0.62925222 2.3048725
      vertex 1.98425826 -0.628608545 2.30479688
      vertex 2.0272637 -0.669885091 2.200649
    endloop
  endfacet
  facet normal -0.74921446 0.44868439 -0.48719607
    outer loop
      vertex 1.98382361 -0.62925222 2.3048725
      vertex 2.0272637 -0.669885091 2.200649
      vertex 2.02682904 -0.670528767 2.20072463
    endloop
  endfacet
  facet normal -0.35837861 0.34397122 0.867898941
    outer loop
      vertex 1.98551057 -0.629810509 2.30579036
      vertex 1.98425826 -0.628608545 2.30479688
      vertex 1.98382361 -0.62925222 2.3048725
    endloop
  endfacet
  facet normal 0.35837861 -0.34397122 -0.867898941
    outer loop
      vertex 2.02851601 -0.671087055 2.20164248
      vertex 2.02682904 -0.670528767 2.20072463
      vertex 2.0272637 -0.669885091 2.200649
    endloop
  endfacet
  facet normal -0.479031479 0.730184108 -0.48719607
    outer loop
      vertex 1.98425826 -0.628608545 2.30479688
      vertex 1.98488357 -0.628147857 2.3048725
      vertex 2.02788901 -0.669424404 2.20072463
    endloop
  endfacet
  facet normal -0.479031479 0.730184108 -0.48719607
    outer loop
      vertex 1.98425826 -0.628608545 2.30479688
      vertex 2.02788901 -0.669424404 2.20072463
      vertex 2.0272637 -0.669885091 2.200649
    endloop
  endfacet
  facet normal -0.35837861 0.34397122 0.867898941
    outer loop
      vertex 1.98551057 -0.629810509 2.30579036
      vertex 1.98488357 -0.628147857 2.3048725
      vertex 1.98425826 -0.628608545 2.30479688
    endloop
  endfacet
  facet normal 0.35837861 -0.34397122 -0.867898941
    outer loop
      vertex 2.02851601 -0.671087055 2.20164248
      vertex 2.0272637 -0.669885091 2.200649
      vertex 2.02788901 -0.669424404 2.20072463
    endloop
  endfacet
  facet normal -0.135920297 0.900519915 -0.413024885
    outer loop
      vertex 1.98488357 -0.628147857 2.3048725
      vertex 1.98560434 -0.627940293 2.30508786
      vertex 2.02860977 -0.66921684 2.20093999
    endloop
  endfacet
  facet normal -0.135920297 0.900519915 -0.413024885
    outer loop
      vertex 1.98488357 -0.628147857 2.3048725
      vertex 2.02860977 -0.66921684 2.20093999
      vertex 2.02788901 -0.669424404 2.20072463
    endloop
  endfacet
  facet normal -0.35837861 0.34397122 0.867898941
    outer loop
      vertex 1.98551057 -0.629810509 2.30579036
      vertex 1.98560434 -0.627940293 2.30508786
      vertex 1.98488357 -0.628147857 2.3048725
    endloop
  endfacet
  facet normal 0.35837861 -0.34397122 -0.867898941
    outer loop
      vertex 2.02851601 -0.671087055 2.20164248
      vertex 2.02788901 -0.669424404 2.20072463
      vertex 2.02860977 -0.66921684 2.20093999
    endloop
  endfacet
  facet normal 0.227883518 0.933759728 -0.275974405
    outer loop
      vertex 1.98560434 -0.627940293 2.30508786
      vertex 1.98631083 -0.628017453 2.30541017
      vertex 2.02931626 -0.669293999 2.2012623
    endloop
  endfacet
  facet normal 0.227883518 0.933759728 -0.275974405
    outer loop
      vertex 1.98560434 -0.627940293 2.30508786
      vertex 2.02931626 -0.669293999 2.2012623
      vertex 2.02860977 -0.66921684 2.20093999
    endloop
  endfacet
  facet normal -0.35837861 0.34397122 0.867898941
    outer loop
      vertex 1.98551057 -0.629810509 2.30579036
      vertex 1.98631083 -0.628017453 2.30541017
      vertex 1.98560434 -0.627940293 2.30508786
    endloop
  endfacet
  facet normal 0.35837861 -0.34397122 -0.867898941
    outer loop
      vertex 2.02851601 -0.671087055 2.20164248
      vertex 2.02860977 -0.66921684 2.20093999
      vertex 2.02931626 -0.669293999 2.2012623
    endloop
  endfacet
  facet normal 0.556994133 0.824843087 -0.0969093237
    outer loop
      vertex 1.98631083 -0.628017453 2.30541017
      vertex 1.98689548 -0.628367589 2.30579036
      vertex 2.02990092 -0.669644135 2.20164248
    endloop
  endfacet
  facet normal 0.556994133 0.824843087 -0.0969093237
    outer loop
      vertex 1.98631083 -0.628017453 2.30541017
      vertex 2.02990092 -0.669644135 2.20164248
      vertex 2.02931626 -0.669293999 2.2012623
    endloop
  endfacet
  facet normal -0.35837861 0.34397122 0.867898941
    outer loop
      vertex 1.98551057 -0.629810509 2.30579036
      vertex 1.98689548 -0.628367589 2.30579036
      vertex 1.98631083 -0.628017453 2.30541017
    endloop
  endfacet
  facet normal 0.35837861 -0.34397122 -0.867898941
    outer loop
      vertex 2.02851601 -0.671087055 2.20164248
      vertex 2.02931626 -0.669293999 2.2012623
      vertex 2.02990092 -0.669644135 2.20164248
    endloop
  endfacet
  facet normal 0.801307441 0.590351563 0.0969093237
    outer loop
      vertex 1.98689548 -0.628367589 2.30579036
      vertex 1.9872693 -0.628937396 2.30617055
      vertex 2.03027474 -0.670213942 2.20202267
    endloop
  endfacet
  facet normal 0.801307441 0.590351563 0.0969093237
    outer loop
      vertex 1.98689548 -0.628367589 2.30579036
      vertex 2.03027474 -0.670213942 2.20202267
      vertex 2.02990092 -0.669644135 2.20164248
    endloop
  endfacet
  facet normal -0.35837861 0.34397122 0.867898941
    outer loop
      vertex 1.98551057 -0.629810509 2.30579036
      vertex 1.9872693 -0.628937396 2.30617055
      vertex 1.98689548 -0.628367589 2.30579036
    endloop
  endfacet
  facet normal 0.35837861 -0.34397122 -0.867898941
    outer loop
      vertex 2.02851601 -0.671087055 2.20164248
      vertex 2.02990092 -0.669644135 2.20164248
      vertex 2.03027474 -0.670213942 2.20202267
    endloop
  endfacet
  facet normal 0.923628954 0.265984366 0.275974405
    outer loop
      vertex 1.9872693 -0.628937396 2.30617055
      vertex 1.98737537 -0.629640127 2.30649286
      vertex 2.0303808 -0.670916673 2.20234498
    endloop
  endfacet
  facet normal 0.923628954 0.265984366 0.275974405
    outer loop
      vertex 1.9872693 -0.628937396 2.30617055
      vertex 2.0303808 -0.670916673 2.20234498
      vertex 2.03027474 -0.670213942 2.20202267
    endloop
  endfacet
  facet normal -0.35837861 0.34397122 0.867898941
    outer loop
      vertex 1.98551057 -0.629810509 2.30579036
      vertex 1.98737537 -0.629640127 2.30649286
      vertex 1.9872693 -0.628937396 2.30617055
    endloop
  endfacet
  facet normal 0.35837861 -0.34397122 -0.867898941
    outer loop
      vertex 2.02851601 -0.671087055 2.20164248
      vertex 2.03027474 -0.670213942 2.20202267
      vertex 2.0303808 -0.670916673 2.20234498
    endloop
  endfacet
  facet normal 0.905336332 -0.0988765405 0.413024885
    outer loop
      vertex 1.98737537 -0.629640127 2.30649286
      vertex 1.98719754 -0.630368797 2.30670821
      vertex 2.03020297 -0.671645343 2.20256034
    endloop
  endfacet
  facet normal 0.905336332 -0.0988765405 0.413024885
    outer loop
      vertex 1.98737537 -0.629640127 2.30649286
      vertex 2.03020297 -0.671645343 2.20256034
      vertex 2.0303808 -0.670916673 2.20234498
    endloop
  endfacet
  facet normal -0.35837861 0.34397122 0.867898941
    outer loop
      vertex 1.98551057 -0.629810509 2.30579036
      vertex 1.98719754 -0.630368797 2.30670821
      vertex 1.98737537 -0.629640127 2.30649286
    endloop
  endfacet
  facet normal 0.35837861 -0.34397122 -0.867898941
    outer loop
      vertex 2.02851601 -0.671087055 2.20164248
      vertex 2.0303808 -0.670916673 2.20234498
      vertex 2.03020297 -0.671645343 2.20256034
    endloop
  endfacet
  facet normal 0.74921446 -0.44868439 0.48719607
    outer loop
      vertex 1.98719754 -0.630368797 2.30670821
      vertex 1.98676288 -0.631012473 2.30678384
      vertex 2.02976831 -0.672289019 2.20263597
    endloop
  endfacet
  facet normal 0.74921446 -0.44868439 0.48719607
    outer loop
      vertex 1.98719754 -0.630368797 2.30670821
      vertex 2.02976831 -0.672289019 2.20263597
      vertex 2.03020297 -0.671645343 2.20256034
    endloop
  endfacet
  facet normal -0.35837861 0.34397122 0.867898941
    outer loop
      vertex 1.98551057 -0.629810509 2.30579036
      vertex 1.98676288 -0.631012473 2.30678384
      vertex 1.98719754 -0.630368797 2.30670821
    endloop
  endfacet
  facet normal 0.35837861 -0.34397122 -0.867898941
    outer loop
      vertex 2.02851601 -0.671087055 2.20164248
      vertex 2.03020297 -0.671645343 2.20256034
      vertex 2.02976831 -0.672289019 2.20263597
    endloop
  endfacet
  facet normal 0.479031479 -0.730184108 0.48719607
    outer loop
      vertex 1.98676288 -0.631012473 2.30678384
      vertex 1.98613757 -0.63147316 2.30670821
      vertex 2.029143 -0.672749706 2.20256034
    endloop
  endfacet
  facet normal 0.479031479 -0.730184108 0.48719607
    outer loop
      vertex 1.98676288 -0.631012473 2.30678384
      vertex 2.029143 -0.672749706 2.20256034
      vertex 2.02976831 -0.672289019 2.20263597
    endloop
  endfacet
  facet normal -0.35837861 0.34397122 0.867898941
    outer loop
      vertex 1.98551057 -0.629810509 2.30579036
      vertex 1.98613757 -0.63147316 2.30670821
      vertex 1.98676288 -0.631012473 2.30678384
    endloop
  endfacet
  facet normal 0.35837861 -0.34397122 -0.867898941
    outer loop
      vertex 2.02851601 -0.671087055 2.20164248
      vertex 2.02976831 -0.672289019 2.20263597
      vertex 2.029143 -0.672749706 2.20256034
    endloop
  endfacet
  facet normal 0.135920297 -0.900519915 0.413024885
    outer loop
      vertex 1.98613757 -0.63147316 2.30670821
      vertex 1.98541681 -0.631680724 2.30649286
      vertex 2.02842224 -0.67295727 2.20234498
    endloop
  endfacet
  facet normal 0.135920297 -0.900519915 0.413024885
    outer loop
      vertex 1.98613757 -0.63147316 2.30670821
      vertex 2.02842224 -0.67295727 2.20234498
      vertex 2.029143 -0.672749706 2.20256034
    endloop
  endfacet
  facet normal -0.35837861 0.34397122 0.867898941
    outer loop
      vertex 1.98551057 -0.629810509 2.30579036
      vertex 1.98541681 -0.631680724 2.30649286
      vertex 1.98613757 -0.63147316 2.30670821
    endloop
  endfacet
  facet normal 0.35837861 -0.34397122 -0.867898941
    outer loop
      vertex 2.02851601 -0.671087055 2.20164248
      vertex 2.029143 -0.672749706 2.20256034
      vertex 2.02842224 -0.67295727 2.20234498
    endloop
  endfacet
  facet normal -0.227883518 -0.933759728 0.275974405
    outer loop
      vertex 1.98541681 -0.631680724 2.30649286
      vertex 1.98471032 -0.631603565 2.30617055
      vertex 2.02771575 -0.672880111 2.20202267
    endloop
  endfacet
  facet normal -0.227883518 -0.933759728 0.275974405
    outer loop
      vertex 1.98541681 -0.631680724 2.30649286
      vertex 2.02771575 -0.672880111 2.20202267
      vertex 2.02842224 -0.67295727 2.20234498
    endloop
  endfacet
  facet normal -0.35837861 0.34397122 0.867898941
    outer loop
      vertex 1.98551057 -0.629810509 2.30579036
      vertex 1.98471032 -0.631603565 2.30617055
      vertex 1.98541681 -0.631680724 2.30649286
    endloop
  endfacet
  facet normal 0.35837861 -0.34397122 -0.867898941
    outer loop
      vertex 2.02851601 -0.671087055 2.20164248
      vertex 2.02842224 -0.67295727 2.20234498
      vertex 2.02771575 -0.672880111 2.20202267
    endloop
  endfacet
  facet normal -0.556994133 -0.824843087 0.0969093237
    outer loop
      vertex 1.98471032 -0.631603565 2.30617055
      vertex 1.98412566 -0.631253429 2.30579036
      vertex 2.02713109 -0.672529975 2.20164248
    endloop
  endfacet
  facet normal -0.556994133 -0.824843087 0.0969093237
    outer loop
      vertex 1.98471032 -0.631603565 2.30617055
      vertex 2.02713109 -0.672529975 2.20164248
      vertex 2.02771575 -0.672880111 2.20202267
    endloop
  endfacet
  facet normal -0.35837861 0.34397122 0.867898941
    outer loop
      vertex 1.98551057 -0.629810509 2.30579036
      vertex 1.98412566 -0.631253429 2.30579036
      vertex 1.98471032 -0.631603565 2.30617055
    endloop
  endfacet
  facet normal 0.35837861 -0.34397122 -0.867898941
    outer loop
      vertex 2.02851601 -0.671087055 2.20164248
      vertex 2.02771575 -0.672880111 2.20202267
      vertex 2.02713109 -0.672529975 2.20164248
    endloop
  endfacet
  facet normal 0.598758096 0.796767497 -0.0815493577
    outer loop
      vertex 1.79602361 -1.06740701 2.25620152
      vertex 1.79543926 -1.06700063 2.25588159
      vertex 1.76986235 -1.03941184 2.33764149
    endloop
  endfacet
  facet normal 0.598758096 0.796767497 -0.0815493577
    outer loop
      vertex 1.79602361 -1.06740701 2.25620152
      vertex 1.76986235 -1.03941184 2.33764149
      vertex 1.77044669 -1.03981822 2.33796142
    endloop
  endfacet
  facet normal 0.284187957 -0.306542126 -0.908443245
    outer loop
      vertex 1.79455693 -1.06876674 2.25620152
      vertex 1.79543926 -1.06700063 2.25588159
      vertex 1.79602361 -1.06740701 2.25620152
    endloop
  endfacet
  facet normal -0.284187957 0.306542126 0.908443245
    outer loop
      vertex 1.76898001 -1.04117795 2.33796142
      vertex 1.77044669 -1.03981822 2.33796142
      vertex 1.76986235 -1.03941184 2.33764149
    endloop
  endfacet
  facet normal 0.266620733 0.935404327 -0.232232923
    outer loop
      vertex 1.79543926 -1.06700063 2.25588159
      vertex 1.79472059 -1.06686312 2.25561037
      vertex 1.76914367 -1.03927433 2.33737026
    endloop
  endfacet
  facet normal 0.266620733 0.935404327 -0.232232923
    outer loop
      vertex 1.79543926 -1.06700063 2.25588159
      vertex 1.76914367 -1.03927433 2.33737026
      vertex 1.76986235 -1.03941184 2.33764149
    endloop
  endfacet
  facet normal 0.284187957 -0.306542126 -0.908443245
    outer loop
      vertex 1.79455693 -1.06876674 2.25620152
      vertex 1.79472059 -1.06686312 2.25561037
      vertex 1.79543926 -1.06700063 2.25588159
    endloop
  endfacet
  facet normal -0.284187957 0.306542126 0.908443245
    outer loop
      vertex 1.76898001 -1.04117795 2.33796142
      vertex 1.76986235 -1.03941184 2.33764149
      vertex 1.76914367 -1.03927433 2.33737026
    endloop
  endfacet
  facet normal -0.10610722 0.931634327 -0.34756113
    outer loop
      vertex 1.79472059 -1.06686312 2.25561037
      vertex 1.793977 -1.06701542 2.25542915
      vertex 1.76840008 -1.03942663 2.33718904
    endloop
  endfacet
  facet normal -0.10610722 0.931634327 -0.34756113
    outer loop
      vertex 1.79472059 -1.06686312 2.25561037
      vertex 1.76840008 -1.03942663 2.33718904
      vertex 1.76914367 -1.03927433 2.33737026
    endloop
  endfacet
  facet normal 0.284187957 -0.306542126 -0.908443245
    outer loop
      vertex 1.79455693 -1.06876674 2.25620152
      vertex 1.793977 -1.06701542 2.25542915
      vertex 1.79472059 -1.06686312 2.25561037
    endloop
  endfacet
  facet normal -0.284187957 0.306542126 0.908443245
    outer loop
      vertex 1.76898001 -1.04117795 2.33796142
      vertex 1.76914367 -1.03927433 2.33737026
      vertex 1.76840008 -1.03942663 2.33718904
    endloop
  endfacet
  facet normal -0.46268131 0.786031446 -0.409976307
    outer loop
      vertex 1.793977 -1.06701542 2.25542915
      vertex 1.7933217 -1.06743434 2.25536551
      vertex 1.76774478 -1.03984555 2.3371254
    endloop
  endfacet
  facet normal -0.46268131 0.786031446 -0.409976307
    outer loop
      vertex 1.793977 -1.06701542 2.25542915
      vertex 1.76774478 -1.03984555 2.3371254
      vertex 1.76840008 -1.03942663 2.33718904
    endloop
  endfacet
  facet normal 0.284187957 -0.306542126 -0.908443245
    outer loop
      vertex 1.79455693 -1.06876674 2.25620152
      vertex 1.7933217 -1.06743434 2.25536551
      vertex 1.793977 -1.06701542 2.25542915
    endloop
  endfacet
  facet normal -0.284187957 0.306542126 0.908443245
    outer loop
      vertex 1.76898001 -1.04117795 2.33796142
      vertex 1.76840008 -1.03942663 2.33718904
      vertex 1.76774478 -1.03984555 2.3371254
    endloop
  endfacet
  facet normal -0.748816365 0.520762402 -0.409976307
    outer loop
      vertex 1.7933217 -1.06743434 2.25536551
      vertex 1.79285445 -1.06805611 2.25542915
      vertex 1.76727753 -1.04046732 2.33718904
    endloop
  endfacet
  facet normal -0.748816365 0.520762402 -0.409976307
    outer loop
      vertex 1.7933217 -1.06743434 2.25536551
      vertex 1.76727753 -1.04046732 2.33718904
      vertex 1.76774478 -1.03984555 2.3371254
    endloop
  endfacet
  facet normal 0.284187957 -0.306542126 -0.908443245
    outer loop
      vertex 1.79455693 -1.06876674 2.25620152
      vertex 1.79285445 -1.06805611 2.25542915
      vertex 1.7933217 -1.06743434 2.25536551
    endloop
  endfacet
  facet normal -0.284187957 0.306542126 0.908443245
    outer loop
      vertex 1.76898001 -1.04117795 2.33796142
      vertex 1.76774478 -1.03984555 2.3371254
      vertex 1.76727753 -1.04046732 2.33718904
    endloop
  endfacet
  facet normal -0.920950916 0.176212004 -0.34756113
    outer loop
      vertex 1.79285445 -1.06805611 2.25542915
      vertex 1.79264639 -1.06878606 2.25561037
      vertex 1.76706947 -1.04119727 2.33737026
    endloop
  endfacet
  facet normal -0.920950916 0.176212004 -0.34756113
    outer loop
      vertex 1.79285445 -1.06805611 2.25542915
      vertex 1.76706947 -1.04119727 2.33737026
      vertex 1.76727753 -1.04046732 2.33718904
    endloop
  endfacet
  facet normal 0.284187957 -0.306542126 -0.908443245
    outer loop
      vertex 1.79455693 -1.06876674 2.25620152
      vertex 1.79264639 -1.06878606 2.25561037
      vertex 1.79285445 -1.06805611 2.25542915
    endloop
  endfacet
  facet normal -0.284187957 0.306542126 0.908443245
    outer loop
      vertex 1.76898001 -1.04117795 2.33796142
      vertex 1.76727753 -1.04046732 2.33718904
      vertex 1.76706947 -1.04119727 2.33737026
    endloop
  endfacet
  facet normal -0.952879039 -0.195165074 -0.232232923
    outer loop
      vertex 1.79264639 -1.06878606 2.25561037
      vertex 1.79272919 -1.06951307 2.25588159
      vertex 1.76715228 -1.04192428 2.33764149
    endloop
  endfacet
  facet normal -0.952879039 -0.195165074 -0.232232923
    outer loop
      vertex 1.79264639 -1.06878606 2.25561037
      vertex 1.76715228 -1.04192428 2.33764149
      vertex 1.76706947 -1.04119727 2.33737026
    endloop
  endfacet
  facet normal 0.284187957 -0.306542126 -0.908443245
    outer loop
      vertex 1.79455693 -1.06876674 2.25620152
      vertex 1.79272919 -1.06951307 2.25588159
      vertex 1.79264639 -1.06878606 2.25561037
    endloop
  endfacet
  facet normal -0.284187957 0.306542126 0.908443245
    outer loop
      vertex 1.76898001 -1.04117795 2.33796142
      vertex 1.76706947 -1.04119727 2.33737026
      vertex 1.76715228 -1.04192428 2.33764149
    endloop
  endfacet
  facet normal -0.839739966 -0.53683004 -0.0815493577
    outer loop
      vertex 1.79272919 -1.06951307 2.25588159
      vertex 1.79309025 -1.07012646 2.25620152
      vertex 1.76751333 -1.04253767 2.33796142
    endloop
  endfacet
  facet normal -0.839739966 -0.53683004 -0.0815493577
    outer loop
      vertex 1.79272919 -1.06951307 2.25588159
      vertex 1.76751333 -1.04253767 2.33796142
      vertex 1.76715228 -1.04192428 2.33764149
    endloop
  endfacet
  facet normal 0.284187957 -0.306542126 -0.908443245
    outer loop
      vertex 1.79455693 -1.06876674 2.25620152
      vertex 1.79309025 -1.07012646 2.25620152
      vertex 1.79272919 -1.06951307 2.25588159
    endloop
  endfacet
  facet normal -0.284187957 0.306542126 0.908443245
    outer loop
      vertex 1.76898001 -1.04117795 2.33796142
      vertex 1.76715228 -1.04192428 2.33764149
      vertex 1.76751333 -1.04253767 2.33796142
    endloop
  endfacet
  facet normal -0.598758096 -0.796767497 0.0815493577
    outer loop
      vertex 1.79309025 -1.07012646 2.25620152
      vertex 1.7936746 -1.07053284 2.25652145
      vertex 1.76809768 -1.04294405 2.33828135
    endloop
  endfacet
  facet normal -0.598758096 -0.796767497 0.0815493577
    outer loop
      vertex 1.79309025 -1.07012646 2.25620152
      vertex 1.76809768 -1.04294405 2.33828135
      vertex 1.76751333 -1.04253767 2.33796142
    endloop
  endfacet
  facet normal 0.284187957 -0.306542126 -0.908443245
    outer loop
      vertex 1.79455693 -1.06876674 2.25620152
      vertex 1.7936746 -1.07053284 2.25652145
      vertex 1.79309025 -1.07012646 2.25620152
    endloop
  endfacet
  facet normal -0.284187957 0.306542126 0.908443245
    outer loop
      vertex 1.76898001 -1.04117795 2.33796142
      vertex 1.76751333 -1.04253767 2.33796142
      vertex 1.76809768 -1.04294405 2.33828135
    endloop
  endfacet
  facet normal -0.266620733 -0.935404327 0.232232923
    outer loop
      vertex 1.7936746 -1.07053284 2.25652145
      vertex 1.79439327 -1.07067035 2.25679268
      vertex 1.76881636 -1.04308156 2.33855257
    endloop
  endfacet
  facet normal -0.266620733 -0.935404327 0.232232923
    outer loop
      vertex 1.7936746 -1.07053284 2.25652145
      vertex 1.76881636 -1.04308156 2.33855257
      vertex 1.76809768 -1.04294405 2.33828135
    endloop
  endfacet
  facet normal 0.284187957 -0.306542126 -0.908443245
    outer loop
      vertex 1.79455693 -1.06876674 2.25620152
      vertex 1.79439327 -1.07067035 2.25679268
      vertex 1.7936746 -1.07053284 2.25652145
    endloop
  endfacet
  facet normal -0.284187957 0.306542126 0.908443245
    outer loop
      vertex 1.76898001 -1.04117795 2.33796142
      vertex 1.76809768 -1.04294405 2.33828135
      vertex 1.76881636 -1.04308156 2.33855257
    endloop
  endfacet
  facet normal 0.10610722 -0.931634327 0.34756113
    outer loop
      vertex 1.79439327 -1.07067035 2.25679268
      vertex 1.79513686 -1.07051805 2.2569739
      vertex 1.76955995 -1.04292926 2.3387338
    endloop
  endfacet
  facet normal 0.10610722 -0.931634327 0.34756113
    outer loop
      vertex 1.79439327 -1.07067035 2.25679268
      vertex 1.76955995 -1.04292926 2.3387338
      vertex 1.76881636 -1.04308156 2.33855257
    endloop
  endfacet
  facet normal 0.284187957 -0.306542126 -0.908443245
    outer loop
      vertex 1.79455693 -1.06876674 2.25620152
      vertex 1.79513686 -1.07051805 2.2569739
      vertex 1.79439327 -1.07067035 2.25679268
    endloop
  endfacet
  facet normal -0.284187957 0.306542126 0.908443245
    outer loop
      vertex 1.76898001 -1.04117795 2.33796142
      vertex 1.76881636 -1.04308156 2.33855257
      vertex 1.76955995 -1.04292926 2.3387338
    endloop
  endfacet
  facet normal 0.46268131 -0.786031446 0.409976307
    outer loop
      vertex 1.79513686 -1.07051805 2.2569739
      vertex 1.79579216 -1.07009913 2.25703754
      vertex 1.77021525 -1.04251034 2.33879743
    endloop
  endfacet
  facet normal 0.46268131 -0.786031446 0.409976307
    outer loop
      vertex 1.79513686 -1.07051805 2.2569739
      vertex 1.77021525 -1.04251034 2.33879743
      vertex 1.76955995 -1.04292926 2.3387338
    endloop
  endfacet
  facet normal 0.284187957 -0.306542126 -0.908443245
    outer loop
      vertex 1.79455693 -1.06876674 2.25620152
      vertex 1.79579216 -1.07009913 2.25703754
      vertex 1.79513686 -1.07051805 2.2569739
    endloop
  endfacet
  facet normal -0.284187957 0.306542126 0.908443245
    outer loop
      vertex 1.76898001 -1.04117795 2.33796142
      vertex 1.76955995 -1.04292926 2.3387338
      vertex 1.77021525 -1.04251034 2.33879743
    endloop
  endfacet
  facet normal 0.748816365 -0.520762402 0.409976307
    outer loop
      vertex 1.79579216 -1.07009913 2.25703754
      vertex 1.79625941 -1.06947737 2.2569739
      vertex 1.77068249 -1.04188857 2.3387338
    endloop
  endfacet
  facet normal 0.748816365 -0.520762402 0.409976307
    outer loop
      vertex 1.79579216 -1.07009913 2.25703754
      vertex 1.77068249 -1.04188857 2.3387338
      vertex 1.77021525 -1.04251034 2.33879743
    endloop
  endfacet
  facet normal 0.284187957 -0.306542126 -0.908443245
    outer loop
      vertex 1.79455693 -1.06876674 2.25620152
      vertex 1.79625941 -1.06947737 2.2569739
      vertex 1.79579216 -1.07009913 2.25703754
    endloop
  endfacet
  facet normal -0.284187957 0.306542126 0.908443245
    outer loop
      vertex 1.76898001 -1.04117795 2.33796142
      vertex 1.77021525 -1.04251034 2.33879743
      vertex 1.77068249 -1.04188857 2.3387338
    endloop
  endfacet
  facet normal 0.920950916 -0.176212004 0.34756113
    outer loop
      vertex 1.79625941 -1.06947737 2.2569739
      vertex 1.79646747 -1.06874741 2.25679268
      vertex 1.77089055 -1.04115862 2.33855257
    endloop
  endfacet
  facet normal 0.920950916 -0.176212004 0.34756113
    outer loop
      vertex 1.79625941 -1.06947737 2.2569739
      vertex 1.77089055 -1.04115862 2.33855257
      vertex 1.77068249 -1.04188857 2.3387338
    endloop
  endfacet
  facet normal 0.284187957 -0.306542126 -0.908443245
    outer loop
      vertex 1.79455693 -1.06876674 2.25620152
      vertex 1.79646747 -1.06874741 2.25679268
      vertex 1.79625941 -1.06947737 2.2569739
    endloop
  endfacet
  facet normal -0.284187957 0.306542126 0.908443245
    outer loop
      vertex 1.76898001 -1.04117795 2.33796142
      vertex 1.77068249 -1.04188857 2.3387338
      vertex 1.77089055 -1.04115862 2.33855257
    endloop
  endfacet
  facet normal 0.952879039 0.195165074 0.232232923
    outer loop
      vertex 1.79646747 -1.06874741 2.25679268
      vertex 1.79638467 -1.0680204 2.25652145
      vertex 1.77080775 -1.04043161 2.33828135
    endloop
  endfacet
  facet normal 0.952879039 0.195165074 0.232232923
    outer loop
      vertex 1.79646747 -1.06874741 2.25679268
      vertex 1.77080775 -1.04043161 2.33828135
      vertex 1.77089055 -1.04115862 2.33855257
    endloop
  endfacet
  facet normal 0.284187957 -0.306542126 -0.908443245
    outer loop
      vertex 1.79455693 -1.06876674 2.25620152
      vertex 1.79638467 -1.0680204 2.25652145
      vertex 1.79646747 -1.06874741 2.25679268
    endloop
  endfacet
  facet normal -0.284187957 0.306542126 0.908443245
    outer loop
      vertex 1.76898001 -1.04117795 2.33796142
      vertex 1.77089055 -1.04115862 2.33855257
      vertex 1.77080775 -1.04043161 2.33828135
    endloop
  endfacet
  facet normal 0.839739966 0.53683004 0.0815493577
    outer loop
      vertex 1.79638467 -1.0680204 2.25652145
      vertex 1.79602361 -1.06740701 2.25620152
      vertex 1.77044669 -1.03981822 2.33796142
    endloop
  endfacet
  facet normal 0.839739966 0.53683004 0.0815493577
    outer loop
      vertex 1.79638467 -1.0680204 2.25652145
      vertex 1.77044669 -1.03981822 2.33796142
      vertex 1.77080775 -1.04043161 2.33828135
    endloop
  endfacet
  facet normal 0.284187957 -0.306542126 -0.908443245
    outer loop
      vertex 1.79455693 -1.06876674 2.25620152
      vertex 1.79602361 -1.06740701 2.25620152
      vertex 1.79638467 -1.0680204 2.25652145
    endloop
  endfacet
  facet normal -0.284187957 0.306542126 0.908443245
    outer loop
      vertex 1.76898001 -1.04117795 2.33796142
      vertex 1.77080775 -1.04043161 2.33828135
      vertex 1.77044669 -1.03981822 2.33796142
    endloop
  endfacet
  facet normal 0.598758096 0.796767497 -0.0815493577
    outer loop
      vertex 1.76744544 -1.06689752 2.24708951
      vertex 1.7668611 -1.06649114 2.24676958
      vertex 1.74128418 -1.03890235 2.32852947
    endloop
  endfacet
  facet normal 0.598758096 0.796767497 -0.0815493577
    outer loop
      vertex 1.76744544 -1.06689752 2.24708951
      vertex 1.74128418 -1.03890235 2.32852947
      vertex 1.74186853 -1.03930873 2.3288494
    endloop
  endfacet
  facet normal 0.284187957 -0.306542126 -0.908443245
    outer loop
      vertex 1.76597876 -1.06825725 2.24708951
      vertex 1.7668611 -1.06649114 2.24676958
      vertex 1.76744544 -1.06689752 2.24708951
    endloop
  endfacet
  facet normal -0.284187957 0.306542126 0.908443245
    outer loop
      vertex 1.74040185 -1.04066846 2.3288494
      vertex 1.74186853 -1.03930873 2.3288494
      vertex 1.74128418 -1.03890235 2.32852947
    endloop
  endfacet
  facet normal 0.266620733 0.935404327 -0.232232923
    outer loop
      vertex 1.7668611 -1.06649114 2.24676958
      vertex 1.76614242 -1.06635363 2.24649835
      vertex 1.74056551 -1.03876484 2.32825825
    endloop
  endfacet
  facet normal 0.266620733 0.935404327 -0.232232923
    outer loop
      vertex 1.7668611 -1.06649114 2.24676958
      vertex 1.74056551 -1.03876484 2.32825825
      vertex 1.74128418 -1.03890235 2.32852947
    endloop
  endfacet
  facet normal 0.284187957 -0.306542126 -0.908443245
    outer loop
      vertex 1.76597876 -1.06825725 2.24708951
      vertex 1.76614242 -1.06635363 2.24649835
      vertex 1.7668611 -1.06649114 2.24676958
    endloop
  endfacet
  facet normal -0.284187957 0.306542126 0.908443245
    outer loop
      vertex 1.74040185 -1.04066846 2.3288494
      vertex 1.74128418 -1.03890235 2.32852947
      vertex 1.74056551 -1.03876484 2.32825825
    endloop
  endfacet
  facet normal -0.10610722 0.931634327 -0.34756113
    outer loop
      vertex 1.76614242 -1.06635363 2.24649835
      vertex 1.76539883 -1.06650593 2.24631713
      vertex 1.73982192 -1.03891714 2.32807702
    endloop
  endfacet
  facet normal -0.10610722 0.931634327 -0.34756113
    outer loop
      vertex 1.76614242 -1.06635363 2.24649835
      vertex 1.73982192 -1.03891714 2.32807702
      vertex 1.74056551 -1.03876484 2.32825825
    endloop
  endfacet
  facet normal 0.284187957 -0.306542126 -0.908443245
    outer loop
      vertex 1.76597876 -1.06825725 2.24708951
      vertex 1.76539883 -1.06650593 2.24631713
      vertex 1.76614242 -1.06635363 2.24649835
    endloop
  endfacet
  facet normal -0.284187957 0.306542126 0.908443245
    outer loop
      vertex 1.74040185 -1.04066846 2.3288494
      vertex 1.74056551 -1.03876484 2.32825825
      vertex 1.73982192 -1.03891714 2.32807702
    endloop
  endfacet
  facet normal -0.46268131 0.786031446 -0.409976307
    outer loop
      vertex 1.76539883 -1.06650593 2.24631713
      vertex 1.76474353 -1.06692485 2.24625349
      vertex 1.73916662 -1.03933606 2.32801338
    endloop
  endfacet
  facet normal -0.46268131 0.786031446 -0.409976307
    outer loop
      vertex 1.76539883 -1.06650593 2.24631713
      vertex 1.73916662 -1.03933606 2.32801338
      vertex 1.73982192 -1.03891714 2.32807702
    endloop
  endfacet
  facet normal 0.284187957 -0.306542126 -0.908443245
    outer loop
      vertex 1.76597876 -1.06825725 2.24708951
      vertex 1.76474353 -1.06692485 2.24625349
      vertex 1.76539883 -1.06650593 2.24631713
    endloop
  endfacet
  facet normal -0.284187957 0.306542126 0.908443245
    outer loop
      vertex 1.74040185 -1.04066846 2.3288494
      vertex 1.73982192 -1.03891714 2.32807702
      vertex 1.73916662 -1.03933606 2.32801338
    endloop
  endfacet
  facet normal -0.748816365 0.520762402 -0.409976307
    outer loop
      vertex 1.76474353 -1.06692485 2.24625349
      vertex 1.76427628 -1.06754662 2.24631713
      vertex 1.73869937 -1.03995783 2.32807702
    endloop
  endfacet
  facet normal -0.748816365 0.520762402 -0.409976307
    outer loop
      vertex 1.76474353 -1.06692485 2.24625349
      vertex 1.73869937 -1.03995783 2.32807702
      vertex 1.73916662 -1.03933606 2.32801338
    endloop
  endfacet
  facet normal 0.284187957 -0.306542126 -0.908443245
    outer loop
      vertex 1.76597876 -1.06825725 2.24708951
      vertex 1.76427628 -1.06754662 2.24631713
      vertex 1.76474353 -1.06692485 2.24625349
    endloop
  endfacet
  facet normal -0.284187957 0.306542126 0.908443245
    outer loop
      vertex 1.74040185 -1.04066846 2.3288494
      vertex 1.73916662 -1.03933606 2.32801338
      vertex 1.73869937 -1.03995783 2.32807702
    endloop
  endfacet
  facet normal -0.920950916 0.176212004 -0.34756113
    outer loop
      vertex 1.76427628 -1.06754662 2.24631713
      vertex 1.76406822 -1.06827657 2.24649835
      vertex 1.73849131 -1.04068778 2.32825825
    endloop
  endfacet
  facet normal -0.920950916 0.176212004 -0.34756113
    outer loop
      vertex 1.76427628 -1.06754662 2.24631713
      vertex 1.73849131 -1.04068778 2.32825825
      vertex 1.73869937 -1.03995783 2.32807702
    endloop
  endfacet
  facet normal 0.284187957 -0.306542126 -0.908443245
    outer loop
      vertex 1.76597876 -1.06825725 2.24708951
      vertex 1.76406822 -1.06827657 2.24649835
      vertex 1.76427628 -1.06754662 2.24631713
    endloop
  endfacet
  facet normal -0.284187957 0.306542126 0.908443245
    outer loop
      vertex 1.74040185 -1.04066846 2.3288494
      vertex 1.73869937 -1.03995783 2.32807702
      vertex 1.73849131 -1.04068778 2.32825825
    endloop
  endfacet
  facet normal -0.952879039 -0.195165074 -0.232232923
    outer loop
      vertex 1.76406822 -1.06827657 2.24649835
      vertex 1.76415103 -1.06900358 2.24676958
      vertex 1.73857411 -1.04141479 2.32852947
    endloop
  endfacet
  facet normal -0.952879039 -0.195165074 -0.232232923
    outer loop
      vertex 1.76406822 -1.06827657 2.24649835
      vertex 1.73857411 -1.04141479 2.32852947
      vertex 1.73849131 -1.04068778 2.32825825
    endloop
  endfacet
  facet normal 0.284187957 -0.306542126 -0.908443245
    outer loop
      vertex 1.76597876 -1.06825725 2.24708951
      vertex 1.76415103 -1.06900358 2.24676958
      vertex 1.76406822 -1.06827657 2.24649835
    endloop
  endfacet
  facet normal -0.284187957 0.306542126 0.908443245
    outer loop
      vertex 1.74040185 -1.04066846 2.3288494
      vertex 1.73849131 -1.04068778 2.32825825
      vertex 1.73857411 -1.04141479 2.32852947
    endloop
  endfacet
  facet normal -0.839739966 -0.53683004 -0.0815493577
    outer loop
      vertex 1.76415103 -1.06900358 2.24676958
      vertex 1.76451208 -1.06961697 2.24708951
      vertex 1.73893517 -1.04202818 2.3288494
    endloop
  endfacet
  facet normal -0.839739966 -0.53683004 -0.0815493577
    outer loop
      vertex 1.76415103 -1.06900358 2.24676958
      vertex 1.73893517 -1.04202818 2.3288494
      vertex 1.73857411 -1.04141479 2.32852947
    endloop
  endfacet
  facet normal 0.284187957 -0.306542126 -0.908443245
    outer loop
      vertex 1.76597876 -1.06825725 2.24708951
      vertex 1.76451208 -1.06961697 2.24708951
      vertex 1.76415103 -1.06900358 2.24676958
    endloop
  endfacet
  facet normal -0.284187957 0.306542126 0.908443245
    outer loop
      vertex 1.74040185 -1.04066846 2.3288494
      vertex 1.73857411 -1.04141479 2.32852947
      vertex 1.73893517 -1.04202818 2.3288494
    endloop
  endfacet
  facet normal -0.598758096 -0.796767497 0.0815493577
    outer loop
      vertex 1.76451208 -1.06961697 2.24708951
      vertex 1.76509643 -1.07002336 2.24740944
      vertex 1.73951952 -1.04243456 2.32916933
    endloop
  endfacet
  facet normal -0.598758096 -0.796767497 0.0815493577
    outer loop
      vertex 1.76451208 -1.06961697 2.24708951
      vertex 1.73951952 -1.04243456 2.32916933
      vertex 1.73893517 -1.04202818 2.3288494
    endloop
  endfacet
  facet normal 0.284187957 -0.306542126 -0.908443245
    outer loop
      vertex 1.76597876 -1.06825725 2.24708951
      vertex 1.76509643 -1.07002336 2.24740944
      vertex 1.76451208 -1.06961697 2.24708951
    endloop
  endfacet
  facet normal -0.284187957 0.306542126 0.908443245
    outer loop
      vertex 1.74040185 -1.04066846 2.3288494
      vertex 1.73893517 -1.04202818 2.3288494
      vertex 1.73951952 -1.04243456 2.32916933
    endloop
  endfacet
  facet normal -0.266620733 -0.935404327 0.232232923
    outer loop
      vertex 1.76509643 -1.07002336 2.24740944
      vertex 1.76581511 -1.07016086 2.24768066
      vertex 1.74023819 -1.04257207 2.32944055
    endloop
  endfacet
  facet normal -0.266620733 -0.935404327 0.232232923
    outer loop
      vertex 1.76509643 -1.07002336 2.24740944
      vertex 1.74023819 -1.04257207 2.32944055
      vertex 1.73951952 -1.04243456 2.32916933
    endloop
  endfacet
  facet normal 0.284187957 -0.306542126 -0.908443245
    outer loop
      vertex 1.76597876 -1.06825725 2.24708951
      vertex 1.76581511 -1.07016086 2.24768066
      vertex 1.76509643 -1.07002336 2.24740944
    endloop
  endfacet
  facet normal -0.284187957 0.306542126 0.908443245
    outer loop
      vertex 1.74040185 -1.04066846 2.3288494
      vertex 1.73951952 -1.04243456 2.32916933
      vertex 1.74023819 -1.04257207 2.32944055
    endloop
  endfacet
  facet normal 0.10610722 -0.931634327 0.34756113
    outer loop
      vertex 1.76581511 -1.07016086 2.24768066
      vertex 1.7665587 -1.07000857 2.24786189
      vertex 1.74098178 -1.04241977 2.32962178
    endloop
  endfacet
  facet normal 0.10610722 -0.931634327 0.34756113
    outer loop
      vertex 1.76581511 -1.07016086 2.24768066
      vertex 1.74098178 -1.04241977 2.32962178
      vertex 1.74023819 -1.04257207 2.32944055
    endloop
  endfacet
  facet normal 0.284187957 -0.306542126 -0.908443245
    outer loop
      vertex 1.76597876 -1.06825725 2.24708951
      vertex 1.7665587 -1.07000857 2.24786189
      vertex 1.76581511 -1.07016086 2.24768066
    endloop
  endfacet
  facet normal -0.284187957 0.306542126 0.908443245
    outer loop
      vertex 1.74040185 -1.04066846 2.3288494
      vertex 1.74023819 -1.04257207 2.32944055
      vertex 1.74098178 -1.04241977 2.32962178
    endloop
  endfacet
  facet normal 0.46268131 -0.786031446 0.409976307
    outer loop
      vertex 1.7665587 -1.07000857 2.24786189
      vertex 1.767214 -1.06958964 2.24792552
      vertex 1.74163708 -1.04200085 2.32968542
    endloop
  endfacet
  facet normal 0.46268131 -0.786031446 0.409976307
    outer loop
      vertex 1.7665587 -1.07000857 2.24786189
      vertex 1.74163708 -1.04200085 2.32968542
      vertex 1.74098178 -1.04241977 2.32962178
    endloop
  endfacet
  facet normal 0.284187957 -0.306542126 -0.908443245
    outer loop
      vertex 1.76597876 -1.06825725 2.24708951
      vertex 1.767214 -1.06958964 2.24792552
      vertex 1.7665587 -1.07000857 2.24786189
    endloop
  endfacet
  facet normal -0.284187957 0.306542126 0.908443245
    outer loop
      vertex 1.74040185 -1.04066846 2.3288494
      vertex 1.74098178 -1.04241977 2.32962178
      vertex 1.74163708 -1.04200085 2.32968542
    endloop
  endfacet
  facet normal 0.748816365 -0.520762402 0.409976307
    outer loop
      vertex 1.767214 -1.06958964 2.24792552
      vertex 1.76768124 -1.06896788 2.24786189
      vertex 1.74210433 -1.04137909 2.32962178
    endloop
  endfacet
  facet normal 0.748816365 -0.520762402 0.409976307
    outer loop
      vertex 1.767214 -1.06958964 2.24792552
      vertex 1.74210433 -1.04137909 2.32962178
      vertex 1.74163708 -1.04200085 2.32968542
    endloop
  endfacet
  facet normal 0.284187957 -0.306542126 -0.908443245
    outer loop
      vertex 1.76597876 -1.06825725 2.24708951
      vertex 1.76768124 -1.06896788 2.24786189
      vertex 1.767214 -1.06958964 2.24792552
    endloop
  endfacet
  facet normal -0.284187957 0.306542126 0.908443245
    outer loop
      vertex 1.74040185 -1.04066846 2.3288494
      vertex 1.74163708 -1.04200085 2.32968542
      vertex 1.74210433 -1.04137909 2.32962178
    endloop
  endfacet
  facet normal 0.920950916 -0.176212004 0.34756113
    outer loop
      vertex 1.76768124 -1.06896788 2.24786189
      vertex 1.7678893 -1.06823792 2.24768066
      vertex 1.74231239 -1.04064913 2.32944055
    endloop
  endfacet
  facet normal 0.920950916 -0.176212004 0.34756113
    outer loop
      vertex 1.76768124 -1.06896788 2.24786189
      vertex 1.74231239 -1.04064913 2.32944055
      vertex 1.74210433 -1.04137909 2.32962178
    endloop
  endfacet
  facet normal 0.284187957 -0.306542126 -0.908443245
    outer loop
      vertex 1.76597876 -1.06825725 2.24708951
      vertex 1.7678893 -1.06823792 2.24768066
      vertex 1.76768124 -1.06896788 2.24786189
    endloop
  endfacet
  facet normal -0.284187957 0.306542126 0.908443245
    outer loop
      vertex 1.74040185 -1.04066846 2.3288494
      vertex 1.74210433 -1.04137909 2.32962178
      vertex 1.74231239 -1.04064913 2.32944055
    endloop
  endfacet
  facet normal 0.952879039 0.195165074 0.232232923
    outer loop
      vertex 1.7678893 -1.06823792 2.24768066
      vertex 1.7678065 -1.06751091 2.24740944
      vertex 1.74222959 -1.03992212 2.32916933
    endloop
  endfacet
  facet normal 0.952879039 0.195165074 0.232232923
    outer loop
      vertex 1.7678893 -1.06823792 2.24768066
      vertex 1.74222959 -1.03992212 2.32916933
      vertex 1.74231239 -1.04064913 2.32944055
    endloop
  endfacet
  facet normal 0.284187957 -0.306542126 -0.908443245
    outer loop
      vertex 1.76597876 -1.06825725 2.24708951
      vertex 1.7678065 -1.06751091 2.24740944
      vertex 1.7678893 -1.06823792 2.24768066
    endloop
  endfacet
  facet normal -0.284187957 0.306542126 0.908443245
    outer loop
      vertex 1.74040185 -1.04066846 2.3288494
      vertex 1.74231239 -1.04064913 2.32944055
      vertex 1.74222959 -1.03992212 2.32916933
    endloop
  endfacet
  facet normal 0.839739966 0.53683004 0.0815493577
    outer loop
      vertex 1.7678065 -1.06751091 2.24740944
      vertex 1.76744544 -1.06689752 2.24708951
      vertex 1.74186853 -1.03930873 2.3288494
    endloop
  endfacet
  facet normal 0.839739966 0.53683004 0.0815493577
    outer loop
      vertex 1.7678065 -1.06751091 2.24740944
      vertex 1.74186853 -1.03930873 2.3288494
      vertex 1.74222959 -1.03992212 2.32916933
    endloop
  endfacet
  facet normal 0.284187957 -0.306542126 -0.908443245
    outer loop
      vertex 1.76597876 -1.06825725 2.24708951
      vertex 1.76744544 -1.06689752 2.24708951
      vertex 1.7678065 -1.06751091 2.24740944
    endloop
  endfacet
  facet normal -0.284187957 0.306542126 0.908443245
    outer loop
      vertex 1.74040185 -1.04066846 2.3288494
      vertex 1.74222959 -1.03992212 2.32916933
      vertex 1.74186853 -1.03930873 2.3288494
    endloop
  endfacet
endsolid g1_features
