solid e1_features
  facet normal 0.554150495 -0.823171517 -0.123716941
    outer loop
      vertex 4.96959851 -0.675186009 1.03519677
      vertex 4.9703515 -0.674562395 1.0344202
      vertex 5.03346699 -0.644856562 1.11947311
    endloop
  endfacet
  facet normal 0.554150495 -0.823171517 -0.123716941
    outer loop
      vertex 4.96959851 -0.675186009 1.03519677
      vertex 5.03346699 -0.644856562 1.11947311
      vertex 5.03271401 -0.645480177 1.12024969
    endloop
  endfacet
  facet normal -0.573777203 -0.27005302 -0.773208308
    outer loop
      vertex 4.9682358 -0.672290667 1.03519677
      vertex 4.9703515 -0.674562395 1.0344202
      vertex 4.96959851 -0.675186009 1.03519677
    endloop
  endfacet
  facet normal 0.573777203 0.27005302 0.773208308
    outer loop
      vertex 5.03135129 -0.642584835 1.12024969
      vertex 5.03271401 -0.645480177 1.12024969
      vertex 5.03346699 -0.644856562 1.11947311
    endloop
  endfacet
  facet normal 0.742754317 -0.569376354 -0.352316042
    outer loop
      vertex 4.9703515 -0.674562395 1.0344202
      vertex 4.97078238 -0.67359293 1.03376185
      vertex 5.03389788 -0.643887098 1.11881477
    endloop
  endfacet
  facet normal 0.742754317 -0.569376354 -0.352316042
    outer loop
      vertex 4.9703515 -0.674562395 1.0344202
      vertex 5.03389788 -0.643887098 1.11881477
      vertex 5.03346699 -0.644856562 1.11947311
    endloop
  endfacet
  facet normal -0.573777203 -0.27005302 -0.773208308
    outer loop
      vertex 4.9682358 -0.672290667 1.03519677
      vertex 4.97078238 -0.67359293 1.03376185
      vertex 4.9703515 -0.674562395 1.0344202
    endloop
  endfacet
  facet normal 0.573777203 0.27005302 0.773208308
    outer loop
      vertex 5.03135129 -0.642584835 1.12024969
      vertex 5.03346699 -0.644856562 1.11947311
      vertex 5.03389788 -0.643887098 1.11881477
    endloop
  endfacet
  facet normal 0.818280526 -0.228898802 -0.527278218
    outer loop
      vertex 4.97078238 -0.67359293 1.03376185
      vertex 4.97082558 -0.672425208 1.03332196
      vertex 5.03394107 -0.642719376 1.11837487
    endloop
  endfacet
  facet normal 0.818280526 -0.228898802 -0.527278218
    outer loop
      vertex 4.97078238 -0.67359293 1.03376185
      vertex 5.03394107 -0.642719376 1.11837487
      vertex 5.03389788 -0.643887098 1.11881477
    endloop
  endfacet
  facet normal -0.573777203 -0.27005302 -0.773208308
    outer loop
      vertex 4.9682358 -0.672290667 1.03519677
      vertex 4.97082558 -0.672425208 1.03332196
      vertex 4.97078238 -0.67359293 1.03376185
    endloop
  endfacet
  facet normal 0.573777203 0.27005302 0.773208308
    outer loop
      vertex 5.03135129 -0.642584835 1.12024969
      vertex 5.03389788 -0.643887098 1.11881477
      vertex 5.03394107 -0.642719376 1.11837487
    endloop
  endfacet
  facet normal 0.769230943 0.146426518 -0.621967066
    outer loop
      vertex 4.97082558 -0.672425208 1.03332196
      vertex 4.9704745 -0.671237004 1.03316749
      vertex 5.03358999 -0.641531171 1.1182204
    endloop
  endfacet
  facet normal 0.769230943 0.146426518 -0.621967066
    outer loop
      vertex 4.97082558 -0.672425208 1.03332196
      vertex 5.03358999 -0.641531171 1.1182204
      vertex 5.03394107 -0.642719376 1.11837487
    endloop
  endfacet
  facet normal -0.573777203 -0.27005302 -0.773208308
    outer loop
      vertex 4.9682358 -0.672290667 1.03519677
      vertex 4.9704745 -0.671237004 1.03316749
      vertex 4.97082558 -0.672425208 1.03332196
    endloop
  endfacet
  facet normal 0.573777203 0.27005302 0.773208308
    outer loop
      vertex 5.03135129 -0.642584835 1.12024969
      vertex 5.03394107 -0.642719376 1.11837487
      vertex 5.03358999 -0.641531171 1.1182204
    endloop
  endfacet
  facet normal 0.603072922 0.499459728 -0.621967066
    outer loop
      vertex 4.9704745 -0.671237004 1.03316749
      vertex 4.9697826 -0.67020921 1.03332196
      vertex 5.03289809 -0.640503377 1.11837487
    endloop
  endfacet
  facet normal 0.603072922 0.499459728 -0.621967066
    outer loop
      vertex 4.9704745 -0.671237004 1.03316749
      vertex 5.03289809 -0.640503377 1.11837487
      vertex 5.03358999 -0.641531171 1.1182204
    endloop
  endfacet
  facet normal -0.573777203 -0.27005302 -0.773208308
    outer loop
      vertex 4.9682358 -0.672290667 1.03519677
      vertex 4.9697826 -0.67020921 1.03332196
      vertex 4.9704745 -0.671237004 1.03316749
    endloop
  endfacet
  facet normal 0.573777203 0.27005302 0.773208308
    outer loop
      vertex 5.03135129 -0.642584835 1.12024969
      vertex 5.03358999 -0.641531171 1.1182204
      vertex 5.03289809 -0.640503377 1.11837487
    endloop
  endfacet
  facet normal 0.345102516 0.776454721 -0.527278218
    outer loop
      vertex 4.9697826 -0.67020921 1.03332196
      vertex 4.96885521 -0.669498299 1.03376185
      vertex 5.0319707 -0.639792467 1.11881477
    endloop
  endfacet
  facet normal 0.345102516 0.776454721 -0.527278218
    outer loop
      vertex 4.9697826 -0.67020921 1.03332196
      vertex 5.0319707 -0.639792467 1.11881477
      vertex 5.03289809 -0.640503377 1.11837487
    endloop
  endfacet
  facet normal -0.573777203 -0.27005302 -0.773208308
    outer loop
      vertex 4.9682358 -0.672290667 1.03519677
      vertex 4.96885521 -0.669498299 1.03376185
      vertex 4.9697826 -0.67020921 1.03332196
    endloop
  endfacet
  facet normal 0.573777203 0.27005302 0.773208308
    outer loop
      vertex 5.03135129 -0.642584835 1.12024969
      vertex 5.03289809 -0.640503377 1.11837487
      vertex 5.0319707 -0.639792467 1.11881477
    endloop
  endfacet
  facet normal 0.0345933798 0.935241522 -0.352316042
    outer loop
      vertex 4.96885521 -0.669498299 1.03376185
      vertex 4.96783352 -0.669212501 1.0344202
      vertex 5.03094902 -0.639506669 1.11947311
    endloop
  endfacet
  facet normal 0.0345933798 0.935241522 -0.352316042
    outer loop
      vertex 4.96885521 -0.669498299 1.03376185
      vertex 5.03094902 -0.639506669 1.11947311
      vertex 5.0319707 -0.639792467 1.11881477
    endloop
  endfacet
  facet normal -0.573777203 -0.27005302 -0.773208308
    outer loop
      vertex 4.9682358 -0.672290667 1.03519677
      vertex 4.96783352 -0.669212501 1.0344202
      vertex 4.96885521 -0.669498299 1.03376185
    endloop
  endfacet
  facet normal 0.573777203 0.27005302 0.773208308
    outer loop
      vertex 5.03135129 -0.642584835 1.12024969
      vertex 5.0319707 -0.639792467 1.11881477
      vertex 5.03094902 -0.639506669 1.11947311
    endloop
  endfacet
  facet normal -0.281182285 0.951646279 -0.123716941
    outer loop
      vertex 4.96783352 -0.669212501 1.0344202
      vertex 4.96687308 -0.669395326 1.03519677
      vertex 5.02998857 -0.639689494 1.12024969
    endloop
  endfacet
  facet normal -0.281182285 0.951646279 -0.123716941
    outer loop
      vertex 4.96783352 -0.669212501 1.0344202
      vertex 5.02998857 -0.639689494 1.12024969
      vertex 5.03094902 -0.639506669 1.11947311
    endloop
  endfacet
  facet normal -0.573777203 -0.27005302 -0.773208308
    outer loop
      vertex 4.9682358 -0.672290667 1.03519677
      vertex 4.96687308 -0.669395326 1.03519677
      vertex 4.96783352 -0.669212501 1.0344202
    endloop
  endfacet
  facet normal 0.573777203 0.27005302 0.773208308
    outer loop
      vertex 5.03135129 -0.642584835 1.12024969
      vertex 5.03094902 -0.639506669 1.11947311
      vertex 5.02998857 -0.639689494 1.12024969
    endloop
  endfacet
  facet normal -0.554150495 0.823171517 0.123716941
    outer loop
      vertex 4.96687308 -0.669395326 1.03519677
      vertex 4.9661201 -0.67001894 1.03597335
      vertex 5.02923559 -0.640313108 1.12102626
    endloop
  endfacet
  facet normal -0.554150495 0.823171517 0.123716941
    outer loop
      vertex 4.96687308 -0.669395326 1.03519677
      vertex 5.02923559 -0.640313108 1.12102626
      vertex 5.02998857 -0.639689494 1.12024969
    endloop
  endfacet
  facet normal -0.573777203 -0.27005302 -0.773208308
    outer loop
      vertex 4.9682358 -0.672290667 1.03519677
      vertex 4.9661201 -0.67001894 1.03597335
      vertex 4.96687308 -0.669395326 1.03519677
    endloop
  endfacet
  facet normal 0.573777203 0.27005302 0.773208308
    outer loop
      vertex 5.03135129 -0.642584835 1.12024969
      vertex 5.02998857 -0.639689494 1.12024969
      vertex 5.02923559 -0.640313108 1.12102626
    endloop
  endfacet
  facet normal -0.742754317 0.569376354 0.352316042
    outer loop
      vertex 4.9661201 -0.67001894 1.03597335
      vertex 4.96568921 -0.670988405 1.0366317
      vertex 5.0288047 -0.641282572 1.12168461
    endloop
  endfacet
  facet normal -0.742754317 0.569376354 0.352316042
    outer loop
      vertex 4.9661201 -0.67001894 1.03597335
      vertex 5.0288047 -0.641282572 1.12168461
      vertex 5.02923559 -0.640313108 1.12102626
    endloop
  endfacet
  facet normal -0.573777203 -0.27005302 -0.773208308
    outer loop
      vertex 4.9682358 -0.672290667 1.03519677
      vertex 4.96568921 -0.670988405 1.0366317
      vertex 4.9661201 -0.67001894 1.03597335
    endloop
  endfacet
  facet normal 0.573777203 0.27005302 0.773208308
    outer loop
      vertex 5.03135129 -0.642584835 1.12024969
      vertex 5.02923559 -0.640313108 1.12102626
      vertex 5.0288047 -0.641282572 1.12168461
    endloop
  endfacet
  facet normal -0.818280526 0.228898802 0.527278218
    outer loop
      vertex 4.96568921 -0.670988405 1.0366317
      vertex 4.96564602 -0.672156127 1.03707159
      vertex 5.02876151 -0.642450294 1.1221245
    endloop
  endfacet
  facet normal -0.818280526 0.228898802 0.527278218
    outer loop
      vertex 4.96568921 -0.670988405 1.0366317
      vertex 5.02876151 -0.642450294 1.1221245
      vertex 5.0288047 -0.641282572 1.12168461
    endloop
  endfacet
  facet normal -0.573777203 -0.27005302 -0.773208308
    outer loop
      vertex 4.9682358 -0.672290667 1.03519677
      vertex 4.96564602 -0.672156127 1.03707159
      vertex 4.96568921 -0.670988405 1.0366317
    endloop
  endfacet
  facet normal 0.573777203 0.27005302 0.773208308
    outer loop
      vertex 5.03135129 -0.642584835 1.12024969
      vertex 5.0288047 -0.641282572 1.12168461
      vertex 5.02876151 -0.642450294 1.1221245
    endloop
  endfacet
  facet normal -0.769230943 -0.146426518 0.621967066
    outer loop
      vertex 4.96564602 -0.672156127 1.03707159
      vertex 4.96599709 -0.673344331 1.03722606
      vertex 5.02911259 -0.643638499 1.12227897
    endloop
  endfacet
  facet normal -0.769230943 -0.146426518 0.621967066
    outer loop
      vertex 4.96564602 -0.672156127 1.03707159
      vertex 5.02911259 -0.643638499 1.12227897
      vertex 5.02876151 -0.642450294 1.1221245
    endloop
  endfacet
  facet normal -0.573777203 -0.27005302 -0.773208308
    outer loop
      vertex 4.9682358 -0.672290667 1.03519677
      vertex 4.96599709 -0.673344331 1.03722606
      vertex 4.96564602 -0.672156127 1.03707159
    endloop
  endfacet
  facet normal 0.573777203 0.27005302 0.773208308
    outer loop
      vertex 5.03135129 -0.642584835 1.12024969
      vertex 5.02876151 -0.642450294 1.1221245
      vertex 5.02911259 -0.643638499 1.12227897
    endloop
  endfacet
  facet normal -0.603072922 -0.499459728 0.621967066
    outer loop
      vertex 4.96599709 -0.673344331 1.03722606
      vertex 4.96668899 -0.674372125 1.03707159
      vertex 5.02980449 -0.644666293 1.1221245
    endloop
  endfacet
  facet normal -0.603072922 -0.499459728 0.621967066
    outer loop
      vertex 4.96599709 -0.673344331 1.03722606
      vertex 5.02980449 -0.644666293 1.1221245
      vertex 5.02911259 -0.643638499 1.12227897
    endloop
  endfacet
  facet normal -0.573777203 -0.27005302 -0.773208308
    outer loop
      vertex 4.9682358 -0.672290667 1.03519677
      vertex 4.96668899 -0.674372125 1.03707159
      vertex 4.96599709 -0.673344331 1.03722606
    endloop
  endfacet
  facet normal 0.573777203 0.27005302 0.773208308
    outer loop
      vertex 5.03135129 -0.642584835 1.12024969
      vertex 5.02911259 -0.643638499 1.12227897
      vertex 5.02980449 -0.644666293 1.1221245
    endloop
  endfacet
  facet normal -0.345102516 -0.776454721 0.527278218
    outer loop
      vertex 4.96668899 -0.674372125 1.03707159
      vertex 4.96761638 -0.675083036 1.0366317
      vertex 5.03073187 -0.645377204 1.12168461
    endloop
  endfacet
  facet normal -0.345102516 -0.776454721 0.527278218
    outer loop
      vertex 4.96668899 -0.674372125 1.03707159
      vertex 5.03073187 -0.645377204 1.12168461
      vertex 5.02980449 -0.644666293 1.1221245
    endloop
  endfacet
  facet normal -0.573777203 -0.27005302 -0.773208308
    outer loop
      vertex 4.9682358 -0.672290667 1.03519677
      vertex 4.96761638 -0.675083036 1.0366317
      vertex 4.96668899 -0.674372125 1.03707159
    endloop
  endfacet
  facet normal 0.573777203 0.27005302 0.773208308
    outer loop
      vertex 5.03135129 -0.642584835 1.12024969
      vertex 5.02980449 -0.644666293 1.1221245
      vertex 5.03073187 -0.645377204 1.12168461
    endloop
  endfacet
  facet normal -0.0345933798 -0.935241522 0.352316042
    outer loop
      vertex 4.96761638 -0.675083036 1.0366317
      vertex 4.96863807 -0.675368834 1.03597335
      vertex 5.03175356 -0.645663002 1.12102626
    endloop
  endfacet
  facet normal -0.0345933798 -0.935241522 0.352316042
    outer loop
      vertex 4.96761638 -0.675083036 1.0366317
      vertex 5.03175356 -0.645663002 1.12102626
      vertex 5.03073187 -0.645377204 1.12168461
    endloop
  endfacet
  facet normal -0.573777203 -0.27005302 -0.773208308
    outer loop
      vertex 4.9682358 -0.672290667 1.03519677
      vertex 4.96863807 -0.675368834 1.03597335
      vertex 4.96761638 -0.675083036 1.0366317
    endloop
  endfacet
  facet normal 0.573777203 0.27005302 0.773208308
    outer loop
      vertex 5.03135129 -0.642584835 1.12024969
      vertex 5.03073187 -0.645377204 1.12168461
      vertex 5.03175356 -0.645663002 1.12102626
    endloop
  endfacet
  facet normal 0.281182285 -0.951646279 0.123716941
    outer loop
      vertex 4.96863807 -0.675368834 1.03597335
      vertex 4.96959851 -0.675186009 1.03519677
      vertex 5.03271401 -0.645480177 1.12024969
    endloop
  endfacet
  facet normal 0.281182285 -0.951646279 0.123716941
    outer loop
      vertex 4.96863807 -0.675368834 1.03597335
      vertex 5.03271401 -0.645480177 1.12024969
      vertex 5.03175356 -0.645663002 1.12102626
    endloop
  endfacet
  facet normal -0.573777203 -0.27005302 -0.773208308
    outer loop
      vertex 4.9682358 -0.672290667 1.03519677
      vertex 4.96959851 -0.675186009 1.03519677
      vertex 4.96863807 -0.675368834 1.03597335
    endloop
  endfacet
  facet normal 0.573777203 0.27005302 0.773208308
    outer loop
      vertex 5.03135129 -0.642584835 1.12024969
      vertex 5.03175356 -0.645663002 1.12102626
      vertex 5.03271401 -0.645480177 1.12024969
    endloop
  endfacet
  facet normal 0.554150495 -0.823171517 -0.123716941
    outer loop
      vertex 4.98727976 -0.69893653 1.03037117
      vertex 4.98803274 -0.698312915 1.0295946
      vertex 5.05114823 -0.668607083 1.11464751
    endloop
  endfacet
  facet normal 0.554150495 -0.823171517 -0.123716941
    outer loop
      vertex 4.98727976 -0.69893653 1.03037117
      vertex 5.05114823 -0.668607083 1.11464751
      vertex 5.05039525 -0.669230698 1.11542409
    endloop
  endfacet
  facet normal -0.573777203 -0.27005302 -0.773208308
    outer loop
      vertex 4.98591704 -0.696041188 1.03037117
      vertex 4.98803274 -0.698312915 1.0295946
      vertex 4.98727976 -0.69893653 1.03037117
    endloop
  endfacet
  facet normal 0.573777203 0.27005302 0.773208308
    outer loop
      vertex 5.04903253 -0.666335356 1.11542409
      vertex 5.05039525 -0.669230698 1.11542409
      vertex 5.05114823 -0.668607083 1.11464751
    endloop
  endfacet
  facet normal 0.742754317 -0.569376354 -0.352316042
    outer loop
      vertex 4.98803274 -0.698312915 1.0295946
      vertex 4.98846363 -0.697343451 1.02893625
      vertex 5.05157912 -0.667637619 1.11398916
    endloop
  endfacet
  facet normal 0.742754317 -0.569376354 -0.352316042
    outer loop
      vertex 4.98803274 -0.698312915 1.0295946
      vertex 5.05157912 -0.667637619 1.11398916
      vertex 5.05114823 -0.668607083 1.11464751
    endloop
  endfacet
  facet normal -0.573777203 -0.27005302 -0.773208308
    outer loop
      vertex 4.98591704 -0.696041188 1.03037117
      vertex 4.98846363 -0.697343451 1.02893625
      vertex 4.98803274 -0.698312915 1.0295946
    endloop
  endfacet
  facet normal 0.573777203 0.27005302 0.773208308
    outer loop
      vertex 5.04903253 -0.666335356 1.11542409
      vertex 5.05114823 -0.668607083 1.11464751
      vertex 5.05157912 -0.667637619 1.11398916
    endloop
  endfacet
  facet normal 0.818280526 -0.228898802 -0.527278218
    outer loop
      vertex 4.98846363 -0.697343451 1.02893625
      vertex 4.98850682 -0.696175729 1.02849636
      vertex 5.05162231 -0.666469897 1.11354927
    endloop
  endfacet
  facet normal 0.818280526 -0.228898802 -0.527278218
    outer loop
      vertex 4.98846363 -0.697343451 1.02893625
      vertex 5.05162231 -0.666469897 1.11354927
      vertex 5.05157912 -0.667637619 1.11398916
    endloop
  endfacet
  facet normal -0.573777203 -0.27005302 -0.773208308
    outer loop
      vertex 4.98591704 -0.696041188 1.03037117
      vertex 4.98850682 -0.696175729 1.02849636
      vertex 4.98846363 -0.697343451 1.02893625
    endloop
  endfacet
  facet normal 0.573777203 0.27005302 0.773208308
    outer loop
      vertex 5.04903253 -0.666335356 1.11542409
      vertex 5.05157912 -0.667637619 1.11398916
      vertex 5.05162231 -0.666469897 1.11354927
    endloop
  endfacet
  facet normal 0.769230943 0.146426518 -0.621967066
    outer loop
      vertex 4.98850682 -0.696175729 1.02849636
      vertex 4.98815574 -0.694987524 1.02834189
      vertex 5.05127123 -0.665281692 1.1133948
    endloop
  endfacet
  facet normal 0.769230943 0.146426518 -0.621967066
    outer loop
      vertex 4.98850682 -0.696175729 1.02849636
      vertex 5.05127123 -0.665281692 1.1133948
      vertex 5.05162231 -0.666469897 1.11354927
    endloop
  endfacet
  facet normal -0.573777203 -0.27005302 -0.773208308
    outer loop
      vertex 4.98591704 -0.696041188 1.03037117
      vertex 4.98815574 -0.694987524 1.02834189
      vertex 4.98850682 -0.696175729 1.02849636
    endloop
  endfacet
  facet normal 0.573777203 0.27005302 0.773208308
    outer loop
      vertex 5.04903253 -0.666335356 1.11542409
      vertex 5.05162231 -0.666469897 1.11354927
      vertex 5.05127123 -0.665281692 1.1133948
    endloop
  endfacet
  facet normal 0.603072922 0.499459728 -0.621967066
    outer loop
      vertex 4.98815574 -0.694987524 1.02834189
      vertex 4.98746384 -0.69395973 1.02849636
      vertex 5.05057933 -0.664253898 1.11354927
    endloop
  endfacet
  facet normal 0.603072922 0.499459728 -0.621967066
    outer loop
      vertex 4.98815574 -0.694987524 1.02834189
      vertex 5.05057933 -0.664253898 1.11354927
      vertex 5.05127123 -0.665281692 1.1133948
    endloop
  endfacet
  facet normal -0.573777203 -0.27005302 -0.773208308
    outer loop
      vertex 4.98591704 -0.696041188 1.03037117
      vertex 4.98746384 -0.69395973 1.02849636
      vertex 4.98815574 -0.694987524 1.02834189
    endloop
  endfacet
  facet normal 0.573777203 0.27005302 0.773208308
    outer loop
      vertex 5.04903253 -0.666335356 1.11542409
      vertex 5.05127123 -0.665281692 1.1133948
      vertex 5.05057933 -0.664253898 1.11354927
    endloop
  endfacet
  facet normal 0.345102516 0.776454721 -0.527278218
    outer loop
      vertex 4.98746384 -0.69395973 1.02849636
      vertex 4.98653645 -0.69324882 1.02893625
      vertex 5.04965195 -0.663542987 1.11398916
    endloop
  endfacet
  facet normal 0.345102516 0.776454721 -0.527278218
    outer loop
      vertex 4.98746384 -0.69395973 1.02849636
      vertex 5.04965195 -0.663542987 1.11398916
      vertex 5.05057933 -0.664253898 1.11354927
    endloop
  endfacet
  facet normal -0.573777203 -0.27005302 -0.773208308
    outer loop
      vertex 4.98591704 -0.696041188 1.03037117
      vertex 4.98653645 -0.69324882 1.02893625
      vertex 4.98746384 -0.69395973 1.02849636
    endloop
  endfacet
  facet normal 0.573777203 0.27005302 0.773208308
    outer loop
      vertex 5.04903253 -0.666335356 1.11542409
      vertex 5.05057933 -0.664253898 1.11354927
      vertex 5.04965195 -0.663542987 1.11398916
    endloop
  endfacet
  facet normal 0.0345933798 0.935241522 -0.352316042
    outer loop
      vertex 4.98653645 -0.69324882 1.02893625
      vertex 4.98551477 -0.692963022 1.0295946
      vertex 5.04863026 -0.663257189 1.11464751
    endloop
  endfacet
  facet normal 0.0345933798 0.935241522 -0.352316042
    outer loop
      vertex 4.98653645 -0.69324882 1.02893625
      vertex 5.04863026 -0.663257189 1.11464751
      vertex 5.04965195 -0.663542987 1.11398916
    endloop
  endfacet
  facet normal -0.573777203 -0.27005302 -0.773208308
    outer loop
      vertex 4.98591704 -0.696041188 1.03037117
      vertex 4.98551477 -0.692963022 1.0295946
      vertex 4.98653645 -0.69324882 1.02893625
    endloop
  endfacet
  facet normal 0.573777203 0.27005302 0.773208308
    outer loop
      vertex 5.04903253 -0.666335356 1.11542409
      vertex 5.04965195 -0.663542987 1.11398916
      vertex 5.04863026 -0.663257189 1.11464751
    endloop
  endfacet
  facet normal -0.281182285 0.951646279 -0.123716941
    outer loop
      vertex 4.98551477 -0.692963022 1.0295946
      vertex 4.98455432 -0.693145846 1.03037117
      vertex 5.04766981 -0.663440014 1.11542409
    endloop
  endfacet
  facet normal -0.281182285 0.951646279 -0.123716941
    outer loop
      vertex 4.98551477 -0.692963022 1.0295946
      vertex 5.04766981 -0.663440014 1.11542409
      vertex 5.04863026 -0.663257189 1.11464751
    endloop
  endfacet
  facet normal -0.573777203 -0.27005302 -0.773208308
    outer loop
      vertex 4.98591704 -0.696041188 1.03037117
      vertex 4.98455432 -0.693145846 1.03037117
      vertex 4.98551477 -0.692963022 1.0295946
    endloop
  endfacet
  facet normal 0.573777203 0.27005302 0.773208308
    outer loop
      vertex 5.04903253 -0.666335356 1.11542409
      vertex 5.04863026 -0.663257189 1.11464751
      vertex 5.04766981 -0.663440014 1.11542409
    endloop
  endfacet
  facet normal -0.554150495 0.823171517 0.123716941
    outer loop
      vertex 4.98455432 -0.693145846 1.03037117
      vertex 4.98380134 -0.693769461 1.03114775
      vertex 5.04691683 -0.664063629 1.11620066
    endloop
  endfacet
  facet normal -0.554150495 0.823171517 0.123716941
    outer loop
      vertex 4.98455432 -0.693145846 1.03037117
      vertex 5.04691683 -0.664063629 1.11620066
      vertex 5.04766981 -0.663440014 1.11542409
    endloop
  endfacet
  facet normal -0.573777203 -0.27005302 -0.773208308
    outer loop
      vertex 4.98591704 -0.696041188 1.03037117
      vertex 4.98380134 -0.693769461 1.03114775
      vertex 4.98455432 -0.693145846 1.03037117
    endloop
  endfacet
  facet normal 0.573777203 0.27005302 0.773208308
    outer loop
      vertex 5.04903253 -0.666335356 1.11542409
      vertex 5.04766981 -0.663440014 1.11542409
      vertex 5.04691683 -0.664063629 1.11620066
    endloop
  endfacet
  facet normal -0.742754317 0.569376354 0.352316042
    outer loop
      vertex 4.98380134 -0.693769461 1.03114775
      vertex 4.98337045 -0.694738925 1.0318061
      vertex 5.04648594 -0.665033093 1.11685901
    endloop
  endfacet
  facet normal -0.742754317 0.569376354 0.352316042
    outer loop
      vertex 4.98380134 -0.693769461 1.03114775
      vertex 5.04648594 -0.665033093 1.11685901
      vertex 5.04691683 -0.664063629 1.11620066
    endloop
  endfacet
  facet normal -0.573777203 -0.27005302 -0.773208308
    outer loop
      vertex 4.98591704 -0.696041188 1.03037117
      vertex 4.98337045 -0.694738925 1.0318061
      vertex 4.98380134 -0.693769461 1.03114775
    endloop
  endfacet
  facet normal 0.573777203 0.27005302 0.773208308
    outer loop
      vertex 5.04903253 -0.666335356 1.11542409
      vertex 5.04691683 -0.664063629 1.11620066
      vertex 5.04648594 -0.665033093 1.11685901
    endloop
  endfacet
  facet normal -0.818280526 0.228898802 0.527278218
    outer loop
      vertex 4.98337045 -0.694738925 1.0318061
      vertex 4.98332726 -0.695906647 1.03224599
      vertex 5.04644275 -0.666200815 1.1172989
    endloop
  endfacet
  facet normal -0.818280526 0.228898802 0.527278218
    outer loop
      vertex 4.98337045 -0.694738925 1.0318061
      vertex 5.04644275 -0.666200815 1.1172989
      vertex 5.04648594 -0.665033093 1.11685901
    endloop
  endfacet
  facet normal -0.573777203 -0.27005302 -0.773208308
    outer loop
      vertex 4.98591704 -0.696041188 1.03037117
      vertex 4.98332726 -0.695906647 1.03224599
      vertex 4.98337045 -0.694738925 1.0318061
    endloop
  endfacet
  facet normal 0.573777203 0.27005302 0.773208308
    outer loop
      vertex 5.04903253 -0.666335356 1.11542409
      vertex 5.04648594 -0.665033093 1.11685901
      vertex 5.04644275 -0.666200815 1.1172989
    endloop
  endfacet
  facet normal -0.769230943 -0.146426518 0.621967066
    outer loop
      vertex 4.98332726 -0.695906647 1.03224599
      vertex 4.98367834 -0.697094852 1.03240046
      vertex 5.04679383 -0.66738902 1.11745337
    endloop
  endfacet
  facet normal -0.769230943 -0.146426518 0.621967066
    outer loop
      vertex 4.98332726 -0.695906647 1.03224599
      vertex 5.04679383 -0.66738902 1.11745337
      vertex 5.04644275 -0.666200815 1.1172989
    endloop
  endfacet
  facet normal -0.573777203 -0.27005302 -0.773208308
    outer loop
      vertex 4.98591704 -0.696041188 1.03037117
      vertex 4.98367834 -0.697094852 1.03240046
      vertex 4.98332726 -0.695906647 1.03224599
    endloop
  endfacet
  facet normal 0.573777203 0.27005302 0.773208308
    outer loop
      vertex 5.04903253 -0.666335356 1.11542409
      vertex 5.04644275 -0.666200815 1.1172989
      vertex 5.04679383 -0.66738902 1.11745337
    endloop
  endfacet
  facet normal -0.603072922 -0.499459728 0.621967066
    outer loop
      vertex 4.98367834 -0.697094852 1.03240046
      vertex 4.98437024 -0.698122646 1.03224599
      vertex 5.04748573 -0.668416814 1.1172989
    endloop
  endfacet
  facet normal -0.603072922 -0.499459728 0.621967066
    outer loop
      vertex 4.98367834 -0.697094852 1.03240046
      vertex 5.04748573 -0.668416814 1.1172989
      vertex 5.04679383 -0.66738902 1.11745337
    endloop
  endfacet
  facet normal -0.573777203 -0.27005302 -0.773208308
    outer loop
      vertex 4.98591704 -0.696041188 1.03037117
      vertex 4.98437024 -0.698122646 1.03224599
      vertex 4.98367834 -0.697094852 1.03240046
    endloop
  endfacet
  facet normal 0.573777203 0.27005302 0.773208308
    outer loop
      vertex 5.04903253 -0.666335356 1.11542409
      vertex 5.04679383 -0.66738902 1.11745337
      vertex 5.04748573 -0.668416814 1.1172989
    endloop
  endfacet
  facet normal -0.345102516 -0.776454721 0.527278218
    outer loop
      vertex 4.98437024 -0.698122646 1.03224599
      vertex 4.98529762 -0.698833557 1.0318061
      vertex 5.04841312 -0.669127724 1.11685901
    endloop
  endfacet
  facet normal -0.345102516 -0.776454721 0.527278218
    outer loop
      vertex 4.98437024 -0.698122646 1.03224599
      vertex 5.04841312 -0.669127724 1.11685901
      vertex 5.04748573 -0.668416814 1.1172989
    endloop
  endfacet
  facet normal -0.573777203 -0.27005302 -0.773208308
    outer loop
      vertex 4.98591704 -0.696041188 1.03037117
      vertex 4.98529762 -0.698833557 1.0318061
      vertex 4.98437024 -0.698122646 1.03224599
    endloop
  endfacet
  facet normal 0.573777203 0.27005302 0.773208308
    outer loop
      vertex 5.04903253 -0.666335356 1.11542409
      vertex 5.04748573 -0.668416814 1.1172989
      vertex 5.04841312 -0.669127724 1.11685901
    endloop
  endfacet
  facet normal -0.0345933798 -0.935241522 0.352316042
    outer loop
      vertex 4.98529762 -0.698833557 1.0318061
      vertex 4.98631931 -0.699119355 1.03114775
      vertex 5.0494348 -0.669413523 1.11620066
    endloop
  endfacet
  facet normal -0.0345933798 -0.935241522 0.352316042
    outer loop
      vertex 4.98529762 -0.698833557 1.0318061
      vertex 5.0494348 -0.669413523 1.11620066
      vertex 5.04841312 -0.669127724 1.11685901
    endloop
  endfacet
  facet normal -0.573777203 -0.27005302 -0.773208308
    outer loop
      vertex 4.98591704 -0.696041188 1.03037117
      vertex 4.98631931 -0.699119355 1.03114775
      vertex 4.98529762 -0.698833557 1.0318061
    endloop
  endfacet
  facet normal 0.573777203 0.27005302 0.773208308
    outer loop
      vertex 5.04903253 -0.666335356 1.11542409
      vertex 5.04841312 -0.669127724 1.11685901
      vertex 5.0494348 -0.669413523 1.11620066
    endloop
  endfacet
  facet normal 0.281182285 -0.951646279 0.123716941
    outer loop
      vertex 4.98631931 -0.699119355 1.03114775
      vertex 4.98727976 -0.69893653 1.03037117
      vertex 5.05039525 -0.669230698 1.11542409
    endloop
  endfacet
  facet normal 0.281182285 -0.951646279 0.123716941
    outer loop
      vertex 4.98631931 -0.699119355 1.03114775
      vertex 5.05039525 -0.669230698 1.11542409
      vertex 5.0494348 -0.669413523 1.11620066
    endloop
  endfacet
  facet normal -0.573777203 -0.27005302 -0.773208308
    outer loop
      vertex 4.98591704 -0.696041188 1.03037117
      vertex 4.98727976 -0.69893653 1.03037117
      vertex 4.98631931 -0.699119355 1.03114775
    endloop
  endfacet
  facet normal 0.573777203 0.27005302 0.773208308
    outer loop
      vertex 5.04903253 -0.666335356 1.11542409
      vertex 5.0494348 -0.669413523 1.11620066
      vertex 5.05039525 -0.669230698 1.11542409
    endloop
  endfacet
  facet normal -0.150981336 0.980798759 -0.123444039
    outer loop
      vertex 4.61890069 -0.821085713 1.51747957
      vertex 4.61987831 -0.821032746 1.5167047
      vertex 4.55349967 -0.841971559 1.43152582
    endloop
  endfacet
  facet normal -0.150981336 0.980798759 -0.123444039
    outer loop
      vertex 4.61890069 -0.821085713 1.51747957
      vertex 4.55349967 -0.841971559 1.43152582
      vertex 4.55252205 -0.842024525 1.43230068
    endloop
  endfacet
  facet normal 0.603442203 0.190352841 0.774353475
    outer loop
      vertex 4.61986336 -0.824137479 1.51747957
      vertex 4.61987831 -0.821032746 1.5167047
      vertex 4.61890069 -0.821085713 1.51747957
    endloop
  endfacet
  facet normal -0.603442203 -0.190352841 -0.774353475
    outer loop
      vertex 4.55348472 -0.845076292 1.43230068
      vertex 4.55252205 -0.842024525 1.43230068
      vertex 4.55349967 -0.841971559 1.43152582
    endloop
  endfacet
  facet normal 0.160145998 0.922373935 -0.35153888
    outer loop
      vertex 4.61987831 -0.821032746 1.5167047
      vertex 4.62085365 -0.821452447 1.51604781
      vertex 4.55447501 -0.84239126 1.43086893
    endloop
  endfacet
  facet normal 0.160145998 0.922373935 -0.35153888
    outer loop
      vertex 4.61987831 -0.821032746 1.5167047
      vertex 4.55447501 -0.84239126 1.43086893
      vertex 4.55349967 -0.841971559 1.43152582
    endloop
  endfacet
  facet normal 0.603442203 0.190352841 0.774353475
    outer loop
      vertex 4.61986336 -0.824137479 1.51747957
      vertex 4.62085365 -0.821452447 1.51604781
      vertex 4.61987831 -0.821032746 1.5167047
    endloop
  endfacet
  facet normal -0.603442203 -0.190352841 -0.774353475
    outer loop
      vertex 4.55348472 -0.845076292 1.43230068
      vertex 4.55349967 -0.841971559 1.43152582
      vertex 4.55447501 -0.84239126 1.43086893
    endloop
  endfacet
  facet normal 0.446892556 0.72352604 -0.526115113
    outer loop
      vertex 4.62085365 -0.821452447 1.51604781
      vertex 4.62167822 -0.82228092 1.51560888
      vertex 4.55529958 -0.843219732 1.43043
    endloop
  endfacet
  facet normal 0.446892556 0.72352604 -0.526115113
    outer loop
      vertex 4.62085365 -0.821452447 1.51604781
      vertex 4.55529958 -0.843219732 1.43043
      vertex 4.55447501 -0.84239126 1.43086893
    endloop
  endfacet
  facet normal 0.603442203 0.190352841 0.774353475
    outer loop
      vertex 4.61986336 -0.824137479 1.51747957
      vertex 4.62167822 -0.82228092 1.51560888
      vertex 4.62085365 -0.821452447 1.51604781
    endloop
  endfacet
  facet normal -0.603442203 -0.190352841 -0.774353475
    outer loop
      vertex 4.55348472 -0.845076292 1.43230068
      vertex 4.55447501 -0.84239126 1.43086893
      vertex 4.55529958 -0.843219732 1.43043
    endloop
  endfacet
  facet normal 0.665603774 0.414527865 -0.62059509
    outer loop
      vertex 4.62167822 -0.82228092 1.51560888
      vertex 4.6222265 -0.823392037 1.51545475
      vertex 4.55584786 -0.844330849 1.43027587
    endloop
  endfacet
  facet normal 0.665603774 0.414527865 -0.62059509
    outer loop
      vertex 4.62167822 -0.82228092 1.51560888
      vertex 4.55584786 -0.844330849 1.43027587
      vertex 4.55529958 -0.843219732 1.43043
    endloop
  endfacet
  facet normal 0.603442203 0.190352841 0.774353475
    outer loop
      vertex 4.61986336 -0.824137479 1.51747957
      vertex 4.6222265 -0.823392037 1.51545475
      vertex 4.62167822 -0.82228092 1.51560888
    endloop
  endfacet
  facet normal -0.603442203 -0.190352841 -0.774353475
    outer loop
      vertex 4.55348472 -0.845076292 1.43230068
      vertex 4.55529958 -0.843219732 1.43043
      vertex 4.55584786 -0.844330849 1.43027587
    endloop
  endfacet
  facet normal 0.78298285 0.0424215798 -0.62059509
    outer loop
      vertex 4.6222265 -0.823392037 1.51545475
      vertex 4.62241502 -0.82461664 1.51560888
      vertex 4.55603637 -0.845555453 1.43043
    endloop
  endfacet
  facet normal 0.78298285 0.0424215798 -0.62059509
    outer loop
      vertex 4.6222265 -0.823392037 1.51545475
      vertex 4.55603637 -0.845555453 1.43043
      vertex 4.55584786 -0.844330849 1.43027587
    endloop
  endfacet
  facet normal 0.603442203 0.190352841 0.774353475
    outer loop
      vertex 4.61986336 -0.824137479 1.51747957
      vertex 4.62241502 -0.82461664 1.51560888
      vertex 4.6222265 -0.823392037 1.51545475
    endloop
  endfacet
  facet normal -0.603442203 -0.190352841 -0.774353475
    outer loop
      vertex 4.55348472 -0.845076292 1.43230068
      vertex 4.55584786 -0.844330849 1.43027587
      vertex 4.55603637 -0.845555453 1.43043
    endloop
  endfacet
  facet normal 0.781159886 -0.336143006 -0.526115113
    outer loop
      vertex 4.62241502 -0.82461664 1.51560888
      vertex 4.62221506 -0.825768296 1.51604781
      vertex 4.55583642 -0.846707109 1.43086893
    endloop
  endfacet
  facet normal 0.781159886 -0.336143006 -0.526115113
    outer loop
      vertex 4.62241502 -0.82461664 1.51560888
      vertex 4.55583642 -0.846707109 1.43086893
      vertex 4.55603637 -0.845555453 1.43043
    endloop
  endfacet
  facet normal 0.603442203 0.190352841 0.774353475
    outer loop
      vertex 4.61986336 -0.824137479 1.51747957
      vertex 4.62221506 -0.825768296 1.51604781
      vertex 4.62241502 -0.82461664 1.51560888
    endloop
  endfacet
  facet normal -0.603442203 -0.190352841 -0.774353475
    outer loop
      vertex 4.55348472 -0.845076292 1.43230068
      vertex 4.55603637 -0.845555453 1.43043
      vertex 4.55583642 -0.846707109 1.43086893
    endloop
  endfacet
  facet normal 0.66041241 -0.663532867 -0.35153888
    outer loop
      vertex 4.62221506 -0.825768296 1.51604781
      vertex 4.62165708 -0.826671675 1.5167047
      vertex 4.55527844 -0.847610488 1.43152582
    endloop
  endfacet
  facet normal 0.66041241 -0.663532867 -0.35153888
    outer loop
      vertex 4.62221506 -0.825768296 1.51604781
      vertex 4.55527844 -0.847610488 1.43152582
      vertex 4.55583642 -0.846707109 1.43086893
    endloop
  endfacet
  facet normal 0.603442203 0.190352841 0.774353475
    outer loop
      vertex 4.61986336 -0.824137479 1.51747957
      vertex 4.62165708 -0.826671675 1.5167047
      vertex 4.62221506 -0.825768296 1.51604781
    endloop
  endfacet
  facet normal -0.603442203 -0.190352841 -0.774353475
    outer loop
      vertex 4.55348472 -0.845076292 1.43230068
      vertex 4.55583642 -0.846707109 1.43086893
      vertex 4.55527844 -0.847610488 1.43152582
    endloop
  endfacet
  facet normal 0.439123131 -0.889905863 -0.123444039
    outer loop
      vertex 4.62165708 -0.826671675 1.5167047
      vertex 4.62082602 -0.827189245 1.51747957
      vertex 4.55444738 -0.848128058 1.43230068
    endloop
  endfacet
  facet normal 0.439123131 -0.889905863 -0.123444039
    outer loop
      vertex 4.62165708 -0.826671675 1.5167047
      vertex 4.55444738 -0.848128058 1.43230068
      vertex 4.55527844 -0.847610488 1.43152582
    endloop
  endfacet
  facet normal 0.603442203 0.190352841 0.774353475
    outer loop
      vertex 4.61986336 -0.824137479 1.51747957
      vertex 4.62082602 -0.827189245 1.51747957
      vertex 4.62165708 -0.826671675 1.5167047
    endloop
  endfacet
  facet normal -0.603442203 -0.190352841 -0.774353475
    outer loop
      vertex 4.55348472 -0.845076292 1.43230068
      vertex 4.55527844 -0.847610488 1.43152582
      vertex 4.55444738 -0.848128058 1.43230068
    endloop
  endfacet
  facet normal 0.150981336 -0.980798759 0.123444039
    outer loop
      vertex 4.62082602 -0.827189245 1.51747957
      vertex 4.61984841 -0.827242212 1.51825443
      vertex 4.55346977 -0.848181025 1.43307554
    endloop
  endfacet
  facet normal 0.150981336 -0.980798759 0.123444039
    outer loop
      vertex 4.62082602 -0.827189245 1.51747957
      vertex 4.55346977 -0.848181025 1.43307554
      vertex 4.55444738 -0.848128058 1.43230068
    endloop
  endfacet
  facet normal 0.603442203 0.190352841 0.774353475
    outer loop
      vertex 4.61986336 -0.824137479 1.51747957
      vertex 4.61984841 -0.827242212 1.51825443
      vertex 4.62082602 -0.827189245 1.51747957
    endloop
  endfacet
  facet normal -0.603442203 -0.190352841 -0.774353475
    outer loop
      vertex 4.55348472 -0.845076292 1.43230068
      vertex 4.55444738 -0.848128058 1.43230068
      vertex 4.55346977 -0.848181025 1.43307554
    endloop
  endfacet
  facet normal -0.160145998 -0.922373935 0.35153888
    outer loop
      vertex 4.61984841 -0.827242212 1.51825443
      vertex 4.61887307 -0.826822511 1.51891132
      vertex 4.55249443 -0.847761324 1.43373244
    endloop
  endfacet
  facet normal -0.160145998 -0.922373935 0.35153888
    outer loop
      vertex 4.61984841 -0.827242212 1.51825443
      vertex 4.55249443 -0.847761324 1.43373244
      vertex 4.55346977 -0.848181025 1.43307554
    endloop
  endfacet
  facet normal 0.603442203 0.190352841 0.774353475
    outer loop
      vertex 4.61986336 -0.824137479 1.51747957
      vertex 4.61887307 -0.826822511 1.51891132
      vertex 4.61984841 -0.827242212 1.51825443
    endloop
  endfacet
  facet normal -0.603442203 -0.190352841 -0.774353475
    outer loop
      vertex 4.55348472 -0.845076292 1.43230068
      vertex 4.55346977 -0.848181025 1.43307554
      vertex 4.55249443 -0.847761324 1.43373244
    endloop
  endfacet
  facet normal -0.446892556 -0.72352604 0.526115113
    outer loop
      vertex 4.61887307 -0.826822511 1.51891132
      vertex 4.61804849 -0.825994039 1.51935025
      vertex 4.55166985 -0.846932851 1.43417136
    endloop
  endfacet
  facet normal -0.446892556 -0.72352604 0.526115113
    outer loop
      vertex 4.61887307 -0.826822511 1.51891132
      vertex 4.55166985 -0.846932851 1.43417136
      vertex 4.55249443 -0.847761324 1.43373244
    endloop
  endfacet
  facet normal 0.603442203 0.190352841 0.774353475
    outer loop
      vertex 4.61986336 -0.824137479 1.51747957
      vertex 4.61804849 -0.825994039 1.51935025
      vertex 4.61887307 -0.826822511 1.51891132
    endloop
  endfacet
  facet normal -0.603442203 -0.190352841 -0.774353475
    outer loop
      vertex 4.55348472 -0.845076292 1.43230068
      vertex 4.55249443 -0.847761324 1.43373244
      vertex 4.55166985 -0.846932851 1.43417136
    endloop
  endfacet
  facet normal -0.665603774 -0.414527865 0.62059509
    outer loop
      vertex 4.61804849 -0.825994039 1.51935025
      vertex 4.61750021 -0.824882922 1.51950438
      vertex 4.55112157 -0.845821734 1.43432549
    endloop
  endfacet
  facet normal -0.665603774 -0.414527865 0.62059509
    outer loop
      vertex 4.61804849 -0.825994039 1.51935025
      vertex 4.55112157 -0.845821734 1.43432549
      vertex 4.55166985 -0.846932851 1.43417136
    endloop
  endfacet
  facet normal 0.603442203 0.190352841 0.774353475
    outer loop
      vertex 4.61986336 -0.824137479 1.51747957
      vertex 4.61750021 -0.824882922 1.51950438
      vertex 4.61804849 -0.825994039 1.51935025
    endloop
  endfacet
  facet normal -0.603442203 -0.190352841 -0.774353475
    outer loop
      vertex 4.55348472 -0.845076292 1.43230068
      vertex 4.55166985 -0.846932851 1.43417136
      vertex 4.55112157 -0.845821734 1.43432549
    endloop
  endfacet
  facet normal -0.78298285 -0.0424215798 0.62059509
    outer loop
      vertex 4.61750021 -0.824882922 1.51950438
      vertex 4.6173117 -0.823658318 1.51935025
      vertex 4.55093306 -0.84459713 1.43417136
    endloop
  endfacet
  facet normal -0.78298285 -0.0424215798 0.62059509
    outer loop
      vertex 4.61750021 -0.824882922 1.51950438
      vertex 4.55093306 -0.84459713 1.43417136
      vertex 4.55112157 -0.845821734 1.43432549
    endloop
  endfacet
  facet normal 0.603442203 0.190352841 0.774353475
    outer loop
      vertex 4.61986336 -0.824137479 1.51747957
      vertex 4.6173117 -0.823658318 1.51935025
      vertex 4.61750021 -0.824882922 1.51950438
    endloop
  endfacet
  facet normal -0.603442203 -0.190352841 -0.774353475
    outer loop
      vertex 4.55348472 -0.845076292 1.43230068
      vertex 4.55112157 -0.845821734 1.43432549
      vertex 4.55093306 -0.84459713 1.43417136
    endloop
  endfacet
  facet normal -0.781159886 0.336143006 0.526115113
    outer loop
      vertex 4.6173117 -0.823658318 1.51935025
      vertex 4.61751166 -0.822506662 1.51891132
      vertex 4.55113301 -0.843445475 1.43373244
    endloop
  endfacet
  facet normal -0.781159886 0.336143006 0.526115113
    outer loop
      vertex 4.6173117 -0.823658318 1.51935025
      vertex 4.55113301 -0.843445475 1.43373244
      vertex 4.55093306 -0.84459713 1.43417136
    endloop
  endfacet
  facet normal 0.603442203 0.190352841 0.774353475
    outer loop
      vertex 4.61986336 -0.824137479 1.51747957
      vertex 4.61751166 -0.822506662 1.51891132
      vertex 4.6173117 -0.823658318 1.51935025
    endloop
  endfacet
  facet normal -0.603442203 -0.190352841 -0.774353475
    outer loop
      vertex 4.55348472 -0.845076292 1.43230068
      vertex 4.55093306 -0.84459713 1.43417136
      vertex 4.55113301 -0.843445475 1.43373244
    endloop
  endfacet
  facet normal -0.66041241 0.663532867 0.35153888
    outer loop
      vertex 4.61751166 -0.822506662 1.51891132
      vertex 4.61806964 -0.821603283 1.51825443
      vertex 4.55169099 -0.842542096 1.43307554
    endloop
  endfacet
  facet normal -0.66041241 0.663532867 0.35153888
    outer loop
      vertex 4.61751166 -0.822506662 1.51891132
      vertex 4.55169099 -0.842542096 1.43307554
      vertex 4.55113301 -0.843445475 1.43373244
    endloop
  endfacet
  facet normal 0.603442203 0.190352841 0.774353475
    outer loop
      vertex 4.61986336 -0.824137479 1.51747957
      vertex 4.61806964 -0.821603283 1.51825443
      vertex 4.61751166 -0.822506662 1.51891132
    endloop
  endfacet
  facet normal -0.603442203 -0.190352841 -0.774353475
    outer loop
      vertex 4.55348472 -0.845076292 1.43230068
      vertex 4.55113301 -0.843445475 1.43373244
      vertex 4.55169099 -0.842542096 1.43307554
    endloop
  endfacet
  facet normal -0.439123131 0.889905863 0.123444039
    outer loop
      vertex 4.61806964 -0.821603283 1.51825443
      vertex 4.61890069 -0.821085713 1.51747957
      vertex 4.55252205 -0.842024525 1.43230068
    endloop
  endfacet
  facet normal -0.439123131 0.889905863 0.123444039
    outer loop
      vertex 4.61806964 -0.821603283 1.51825443
      vertex 4.55252205 -0.842024525 1.43230068
      vertex 4.55169099 -0.842542096 1.43307554
    endloop
  endfacet
  facet normal 0.603442203 0.190352841 0.774353475
    outer loop
      vertex 4.61986336 -0.824137479 1.51747957
      vertex 4.61890069 -0.821085713 1.51747957
      vertex 4.61806964 -0.821603283 1.51825443
    endloop
  endfacet
  facet normal -0.603442203 -0.190352841 -0.774353475
    outer loop
      vertex 4.55348472 -0.845076292 1.43230068
      vertex 4.55169099 -0.842542096 1.43307554
      vertex 4.55252205 -0.842024525 1.43230068
    endloop
  endfacet
  facet normal -0.150981336 0.980798759 -0.123444039
    outer loop
      vertex 4.62085367 -0.79240307 1.50890683
      vertex 4.62183128 -0.792350103 1.50813196
      vertex 4.55545264 -0.813288915 1.42295308
    endloop
  endfacet
  facet normal -0.150981336 0.980798759 -0.123444039
    outer loop
      vertex 4.62085367 -0.79240307 1.50890683
      vertex 4.55545264 -0.813288915 1.42295308
      vertex 4.55447503 -0.813341882 1.42372794
    endloop
  endfacet
  facet normal 0.603442203 0.190352841 0.774353475
    outer loop
      vertex 4.62181633 -0.795454836 1.50890683
      vertex 4.62183128 -0.792350103 1.50813196
      vertex 4.62085367 -0.79240307 1.50890683
    endloop
  endfacet
  facet normal -0.603442203 -0.190352841 -0.774353475
    outer loop
      vertex 4.55543769 -0.816393648 1.42372794
      vertex 4.55447503 -0.813341882 1.42372794
      vertex 4.55545264 -0.813288915 1.42295308
    endloop
  endfacet
  facet normal 0.160145998 0.922373935 -0.35153888
    outer loop
      vertex 4.62183128 -0.792350103 1.50813196
      vertex 4.62280662 -0.792769804 1.50747507
      vertex 4.55642798 -0.813708616 1.42229619
    endloop
  endfacet
  facet normal 0.160145998 0.922373935 -0.35153888
    outer loop
      vertex 4.62183128 -0.792350103 1.50813196
      vertex 4.55642798 -0.813708616 1.42229619
      vertex 4.55545264 -0.813288915 1.42295308
    endloop
  endfacet
  facet normal 0.603442203 0.190352841 0.774353475
    outer loop
      vertex 4.62181633 -0.795454836 1.50890683
      vertex 4.62280662 -0.792769804 1.50747507
      vertex 4.62183128 -0.792350103 1.50813196
    endloop
  endfacet
  facet normal -0.603442203 -0.190352841 -0.774353475
    outer loop
      vertex 4.55543769 -0.816393648 1.42372794
      vertex 4.55545264 -0.813288915 1.42295308
      vertex 4.55642798 -0.813708616 1.42229619
    endloop
  endfacet
  facet normal 0.446892556 0.72352604 -0.526115113
    outer loop
      vertex 4.62280662 -0.792769804 1.50747507
      vertex 4.6236312 -0.793598276 1.50703615
      vertex 4.55725256 -0.814537089 1.42185726
    endloop
  endfacet
  facet normal 0.446892556 0.72352604 -0.526115113
    outer loop
      vertex 4.62280662 -0.792769804 1.50747507
      vertex 4.55725256 -0.814537089 1.42185726
      vertex 4.55642798 -0.813708616 1.42229619
    endloop
  endfacet
  facet normal 0.603442203 0.190352841 0.774353475
    outer loop
      vertex 4.62181633 -0.795454836 1.50890683
      vertex 4.6236312 -0.793598276 1.50703615
      vertex 4.62280662 -0.792769804 1.50747507
    endloop
  endfacet
  facet normal -0.603442203 -0.190352841 -0.774353475
    outer loop
      vertex 4.55543769 -0.816393648 1.42372794
      vertex 4.55642798 -0.813708616 1.42229619
      vertex 4.55725256 -0.814537089 1.42185726
    endloop
  endfacet
  facet normal 0.665603774 0.414527865 -0.62059509
    outer loop
      vertex 4.6236312 -0.793598276 1.50703615
      vertex 4.62417948 -0.794709393 1.50688202
      vertex 4.55780084 -0.815648206 1.42170313
    endloop
  endfacet
  facet normal 0.665603774 0.414527865 -0.62059509
    outer loop
      vertex 4.6236312 -0.793598276 1.50703615
      vertex 4.55780084 -0.815648206 1.42170313
      vertex 4.55725256 -0.814537089 1.42185726
    endloop
  endfacet
  facet normal 0.603442203 0.190352841 0.774353475
    outer loop
      vertex 4.62181633 -0.795454836 1.50890683
      vertex 4.62417948 -0.794709393 1.50688202
      vertex 4.6236312 -0.793598276 1.50703615
    endloop
  endfacet
  facet normal -0.603442203 -0.190352841 -0.774353475
    outer loop
      vertex 4.55543769 -0.816393648 1.42372794
      vertex 4.55725256 -0.814537089 1.42185726
      vertex 4.55780084 -0.815648206 1.42170313
    endloop
  endfacet
  facet normal 0.78298285 0.0424215798 -0.62059509
    outer loop
      vertex 4.62417948 -0.794709393 1.50688202
      vertex 4.62436799 -0.795933997 1.50703615
      vertex 4.55798935 -0.81687281 1.42185726
    endloop
  endfacet
  facet normal 0.78298285 0.0424215798 -0.62059509
    outer loop
      vertex 4.62417948 -0.794709393 1.50688202
      vertex 4.55798935 -0.81687281 1.42185726
      vertex 4.55780084 -0.815648206 1.42170313
    endloop
  endfacet
  facet normal 0.603442203 0.190352841 0.774353475
    outer loop
      vertex 4.62181633 -0.795454836 1.50890683
      vertex 4.62436799 -0.795933997 1.50703615
      vertex 4.62417948 -0.794709393 1.50688202
    endloop
  endfacet
  facet normal -0.603442203 -0.190352841 -0.774353475
    outer loop
      vertex 4.55543769 -0.816393648 1.42372794
      vertex 4.55780084 -0.815648206 1.42170313
      vertex 4.55798935 -0.81687281 1.42185726
    endloop
  endfacet
  facet normal 0.781159886 -0.336143006 -0.526115113
    outer loop
      vertex 4.62436799 -0.795933997 1.50703615
      vertex 4.62416804 -0.797085653 1.50747507
      vertex 4.55778939 -0.818024465 1.42229619
    endloop
  endfacet
  facet normal 0.781159886 -0.336143006 -0.526115113
    outer loop
      vertex 4.62436799 -0.795933997 1.50703615
      vertex 4.55778939 -0.818024465 1.42229619
      vertex 4.55798935 -0.81687281 1.42185726
    endloop
  endfacet
  facet normal 0.603442203 0.190352841 0.774353475
    outer loop
      vertex 4.62181633 -0.795454836 1.50890683
      vertex 4.62416804 -0.797085653 1.50747507
      vertex 4.62436799 -0.795933997 1.50703615
    endloop
  endfacet
  facet normal -0.603442203 -0.190352841 -0.774353475
    outer loop
      vertex 4.55543769 -0.816393648 1.42372794
      vertex 4.55798935 -0.81687281 1.42185726
      vertex 4.55778939 -0.818024465 1.42229619
    endloop
  endfacet
  facet normal 0.66041241 -0.663532867 -0.35153888
    outer loop
      vertex 4.62416804 -0.797085653 1.50747507
      vertex 4.62361006 -0.797989032 1.50813196
      vertex 4.55723141 -0.818927844 1.42295308
    endloop
  endfacet
  facet normal 0.66041241 -0.663532867 -0.35153888
    outer loop
      vertex 4.62416804 -0.797085653 1.50747507
      vertex 4.55723141 -0.818927844 1.42295308
      vertex 4.55778939 -0.818024465 1.42229619
    endloop
  endfacet
  facet normal 0.603442203 0.190352841 0.774353475
    outer loop
      vertex 4.62181633 -0.795454836 1.50890683
      vertex 4.62361006 -0.797989032 1.50813196
      vertex 4.62416804 -0.797085653 1.50747507
    endloop
  endfacet
  facet normal -0.603442203 -0.190352841 -0.774353475
    outer loop
      vertex 4.55543769 -0.816393648 1.42372794
      vertex 4.55778939 -0.818024465 1.42229619
      vertex 4.55723141 -0.818927844 1.42295308
    endloop
  endfacet
  facet normal 0.439123131 -0.889905863 -0.123444039
    outer loop
      vertex 4.62361006 -0.797989032 1.50813196
      vertex 4.622779 -0.798506602 1.50890683
      vertex 4.55640036 -0.819445415 1.42372794
    endloop
  endfacet
  facet normal 0.439123131 -0.889905863 -0.123444039
    outer loop
      vertex 4.62361006 -0.797989032 1.50813196
      vertex 4.55640036 -0.819445415 1.42372794
      vertex 4.55723141 -0.818927844 1.42295308
    endloop
  endfacet
  facet normal 0.603442203 0.190352841 0.774353475
    outer loop
      vertex 4.62181633 -0.795454836 1.50890683
      vertex 4.622779 -0.798506602 1.50890683
      vertex 4.62361006 -0.797989032 1.50813196
    endloop
  endfacet
  facet normal -0.603442203 -0.190352841 -0.774353475
    outer loop
      vertex 4.55543769 -0.816393648 1.42372794
      vertex 4.55723141 -0.818927844 1.42295308
      vertex 4.55640036 -0.819445415 1.42372794
    endloop
  endfacet
  facet normal 0.150981336 -0.980798759 0.123444039
    outer loop
      vertex 4.622779 -0.798506602 1.50890683
      vertex 4.62180138 -0.798559569 1.50968169
      vertex 4.55542274 -0.819498381 1.42450281
    endloop
  endfacet
  facet normal 0.150981336 -0.980798759 0.123444039
    outer loop
      vertex 4.622779 -0.798506602 1.50890683
      vertex 4.55542274 -0.819498381 1.42450281
      vertex 4.55640036 -0.819445415 1.42372794
    endloop
  endfacet
  facet normal 0.603442203 0.190352841 0.774353475
    outer loop
      vertex 4.62181633 -0.795454836 1.50890683
      vertex 4.62180138 -0.798559569 1.50968169
      vertex 4.622779 -0.798506602 1.50890683
    endloop
  endfacet
  facet normal -0.603442203 -0.190352841 -0.774353475
    outer loop
      vertex 4.55543769 -0.816393648 1.42372794
      vertex 4.55640036 -0.819445415 1.42372794
      vertex 4.55542274 -0.819498381 1.42450281
    endloop
  endfacet
  facet normal -0.160145998 -0.922373935 0.35153888
    outer loop
      vertex 4.62180138 -0.798559569 1.50968169
      vertex 4.62082604 -0.798139868 1.51033858
      vertex 4.5544474 -0.81907868 1.4251597
    endloop
  endfacet
  facet normal -0.160145998 -0.922373935 0.35153888
    outer loop
      vertex 4.62180138 -0.798559569 1.50968169
      vertex 4.5544474 -0.81907868 1.4251597
      vertex 4.55542274 -0.819498381 1.42450281
    endloop
  endfacet
  facet normal 0.603442203 0.190352841 0.774353475
    outer loop
      vertex 4.62181633 -0.795454836 1.50890683
      vertex 4.62082604 -0.798139868 1.51033858
      vertex 4.62180138 -0.798559569 1.50968169
    endloop
  endfacet
  facet normal -0.603442203 -0.190352841 -0.774353475
    outer loop
      vertex 4.55543769 -0.816393648 1.42372794
      vertex 4.55542274 -0.819498381 1.42450281
      vertex 4.5544474 -0.81907868 1.4251597
    endloop
  endfacet
  facet normal -0.446892556 -0.72352604 0.526115113
    outer loop
      vertex 4.62082604 -0.798139868 1.51033858
      vertex 4.62000147 -0.797311395 1.51077751
      vertex 4.55362282 -0.818250208 1.42559863
    endloop
  endfacet
  facet normal -0.446892556 -0.72352604 0.526115113
    outer loop
      vertex 4.62082604 -0.798139868 1.51033858
      vertex 4.55362282 -0.818250208 1.42559863
      vertex 4.5544474 -0.81907868 1.4251597
    endloop
  endfacet
  facet normal 0.603442203 0.190352841 0.774353475
    outer loop
      vertex 4.62181633 -0.795454836 1.50890683
      vertex 4.62000147 -0.797311395 1.51077751
      vertex 4.62082604 -0.798139868 1.51033858
    endloop
  endfacet
  facet normal -0.603442203 -0.190352841 -0.774353475
    outer loop
      vertex 4.55543769 -0.816393648 1.42372794
      vertex 4.5544474 -0.81907868 1.4251597
      vertex 4.55362282 -0.818250208 1.42559863
    endloop
  endfacet
  facet normal -0.665603774 -0.414527865 0.62059509
    outer loop
      vertex 4.62000147 -0.797311395 1.51077751
      vertex 4.61945319 -0.796200278 1.51093164
      vertex 4.55307455 -0.817139091 1.42575275
    endloop
  endfacet
  facet normal -0.665603774 -0.414527865 0.62059509
    outer loop
      vertex 4.62000147 -0.797311395 1.51077751
      vertex 4.55307455 -0.817139091 1.42575275
      vertex 4.55362282 -0.818250208 1.42559863
    endloop
  endfacet
  facet normal 0.603442203 0.190352841 0.774353475
    outer loop
      vertex 4.62181633 -0.795454836 1.50890683
      vertex 4.61945319 -0.796200278 1.51093164
      vertex 4.62000147 -0.797311395 1.51077751
    endloop
  endfacet
  facet normal -0.603442203 -0.190352841 -0.774353475
    outer loop
      vertex 4.55543769 -0.816393648 1.42372794
      vertex 4.55362282 -0.818250208 1.42559863
      vertex 4.55307455 -0.817139091 1.42575275
    endloop
  endfacet
  facet normal -0.78298285 -0.0424215798 0.62059509
    outer loop
      vertex 4.61945319 -0.796200278 1.51093164
      vertex 4.61926468 -0.794975675 1.51077751
      vertex 4.55288603 -0.815914487 1.42559863
    endloop
  endfacet
  facet normal -0.78298285 -0.0424215798 0.62059509
    outer loop
      vertex 4.61945319 -0.796200278 1.51093164
      vertex 4.55288603 -0.815914487 1.42559863
      vertex 4.55307455 -0.817139091 1.42575275
    endloop
  endfacet
  facet normal 0.603442203 0.190352841 0.774353475
    outer loop
      vertex 4.62181633 -0.795454836 1.50890683
      vertex 4.61926468 -0.794975675 1.51077751
      vertex 4.61945319 -0.796200278 1.51093164
    endloop
  endfacet
  facet normal -0.603442203 -0.190352841 -0.774353475
    outer loop
      vertex 4.55543769 -0.816393648 1.42372794
      vertex 4.55307455 -0.817139091 1.42575275
      vertex 4.55288603 -0.815914487 1.42559863
    endloop
  endfacet
  facet normal -0.781159886 0.336143006 0.526115113
    outer loop
      vertex 4.61926468 -0.794975675 1.51077751
      vertex 4.61946463 -0.793824019 1.51033858
      vertex 4.55308599 -0.814762831 1.4251597
    endloop
  endfacet
  facet normal -0.781159886 0.336143006 0.526115113
    outer loop
      vertex 4.61926468 -0.794975675 1.51077751
      vertex 4.55308599 -0.814762831 1.4251597
      vertex 4.55288603 -0.815914487 1.42559863
    endloop
  endfacet
  facet normal 0.603442203 0.190352841 0.774353475
    outer loop
      vertex 4.62181633 -0.795454836 1.50890683
      vertex 4.61946463 -0.793824019 1.51033858
      vertex 4.61926468 -0.794975675 1.51077751
    endloop
  endfacet
  facet normal -0.603442203 -0.190352841 -0.774353475
    outer loop
      vertex 4.55543769 -0.816393648 1.42372794
      vertex 4.55288603 -0.815914487 1.42559863
      vertex 4.55308599 -0.814762831 1.4251597
    endloop
  endfacet
  facet normal -0.66041241 0.663532867 0.35153888
    outer loop
      vertex 4.61946463 -0.793824019 1.51033858
      vertex 4.62002261 -0.79292064 1.50968169
      vertex 4.55364397 -0.813859452 1.42450281
    endloop
  endfacet
  facet normal -0.66041241 0.663532867 0.35153888
    outer loop
      vertex 4.61946463 -0.793824019 1.51033858
      vertex 4.55364397 -0.813859452 1.42450281
      vertex 4.55308599 -0.814762831 1.4251597
    endloop
  endfacet
  facet normal 0.603442203 0.190352841 0.774353475
    outer loop
      vertex 4.62181633 -0.795454836 1.50890683
      vertex 4.62002261 -0.79292064 1.50968169
      vertex 4.61946463 -0.793824019 1.51033858
    endloop
  endfacet
  facet normal -0.603442203 -0.190352841 -0.774353475
    outer loop
      vertex 4.55543769 -0.816393648 1.42372794
      vertex 4.55308599 -0.814762831 1.4251597
      vertex 4.55364397 -0.813859452 1.42450281
    endloop
  endfacet
  facet normal -0.439123131 0.889905863 0.123444039
    outer loop
      vertex 4.62002261 -0.79292064 1.50968169
      vertex 4.62085367 -0.79240307 1.50890683
      vertex 4.55447503 -0.813341882 1.42372794
    endloop
  endfacet
  facet normal -0.439123131 0.889905863 0.123444039
    outer loop
      vertex 4.62002261 -0.79292064 1.50968169
      vertex 4.55447503 -0.813341882 1.42372794
      vertex 4.55364397 -0.813859452 1.42450281
    endloop
  endfacet
  facet normal 0.603442203 0.190352841 0.774353475
    outer loop
      vertex 4.62181633 -0.795454836 1.50890683
      vertex 4.62085367 -0.79240307 1.50890683
      vertex 4.62002261 -0.79292064 1.50968169
    endloop
  endfacet
  facet normal -0.603442203 -0.190352841 -0.774353475
    outer loop
      vertex 4.55543769 -0.816393648 1.42372794
      vertex 4.55364397 -0.813859452 1.42450281
      vertex 4.55447503 -0.813341882 1.42372794
    endloop
  endfacet
  facet normal -0.946023271 0.277028356 -0.168211951
    outer loop
      vertex 4.79717326 -0.680021296 1.27571931
      vertex 4.79716587 -0.680687651 1.27466344
      vertex 4.74855917 -0.800540256 1.350642
    endloop
  endfacet
  facet normal -0.946023271 0.277028356 -0.168211951
    outer loop
      vertex 4.79717326 -0.680021296 1.27571931
      vertex 4.74855917 -0.800540256 1.350642
      vertex 4.74856656 -0.7998739 1.35169787
    endloop
  endfacet
  facet normal 0.324044685 0.799017363 -0.506523736
    outer loop
      vertex 4.80013867 -0.68122393 1.27571931
      vertex 4.79716587 -0.680687651 1.27466344
      vertex 4.79717326 -0.680021296 1.27571931
    endloop
  endfacet
  facet normal -0.324044685 -0.799017363 0.506523736
    outer loop
      vertex 4.75153197 -0.801076535 1.35169787
      vertex 4.74856656 -0.7998739 1.35169787
      vertex 4.74855917 -0.800540256 1.350642
    endloop
  endfacet
  facet normal -0.87627594 0.0517059593 -0.479027109
    outer loop
      vertex 4.79716587 -0.680687651 1.27466344
      vertex 4.79761106 -0.68143565 1.27376831
      vertex 4.74900436 -0.801288255 1.34974687
    endloop
  endfacet
  facet normal -0.87627594 0.0517059593 -0.479027109
    outer loop
      vertex 4.79716587 -0.680687651 1.27466344
      vertex 4.74900436 -0.801288255 1.34974687
      vertex 4.74855917 -0.800540256 1.350642
    endloop
  endfacet
  facet normal 0.324044685 0.799017363 -0.506523736
    outer loop
      vertex 4.80013867 -0.68122393 1.27571931
      vertex 4.79761106 -0.68143565 1.27376831
      vertex 4.79716587 -0.680687651 1.27466344
    endloop
  endfacet
  facet normal -0.324044685 -0.799017363 0.506523736
    outer loop
      vertex 4.75153197 -0.801076535 1.35169787
      vertex 4.74855917 -0.800540256 1.350642
      vertex 4.74900436 -0.801288255 1.34974687
    endloop
  endfacet
  facet normal -0.67312354 -0.181488201 -0.716914732
    outer loop
      vertex 4.79761106 -0.68143565 1.27376831
      vertex 4.79844106 -0.682151417 1.27317021
      vertex 4.74983436 -0.802004021 1.34914877
    endloop
  endfacet
  facet normal -0.67312354 -0.181488201 -0.716914732
    outer loop
      vertex 4.79761106 -0.68143565 1.27376831
      vertex 4.74983436 -0.802004021 1.34914877
      vertex 4.74900436 -0.801288255 1.34974687
    endloop
  endfacet
  facet normal 0.324044685 0.799017363 -0.506523736
    outer loop
      vertex 4.80013867 -0.68122393 1.27571931
      vertex 4.79844106 -0.682151417 1.27317021
      vertex 4.79761106 -0.68143565 1.27376831
    endloop
  endfacet
  facet normal -0.324044685 -0.799017363 0.506523736
    outer loop
      vertex 4.75153197 -0.801076535 1.35169787
      vertex 4.74900436 -0.801288255 1.34974687
      vertex 4.74983436 -0.802004021 1.34914877
    endloop
  endfacet
  facet normal -0.367494183 -0.387052427 -0.845658586
    outer loop
      vertex 4.79844106 -0.682151417 1.27317021
      vertex 4.79952951 -0.682725982 1.27296018
      vertex 4.7509228 -0.802578587 1.34893874
    endloop
  endfacet
  facet normal -0.367494183 -0.387052427 -0.845658586
    outer loop
      vertex 4.79844106 -0.682151417 1.27317021
      vertex 4.7509228 -0.802578587 1.34893874
      vertex 4.74983436 -0.802004021 1.34914877
    endloop
  endfacet
  facet normal 0.324044685 0.799017363 -0.506523736
    outer loop
      vertex 4.80013867 -0.68122393 1.27571931
      vertex 4.79952951 -0.682725982 1.27296018
      vertex 4.79844106 -0.682151417 1.27317021
    endloop
  endfacet
  facet normal -0.324044685 -0.799017363 0.506523736
    outer loop
      vertex 4.75153197 -0.801076535 1.35169787
      vertex 4.74983436 -0.802004021 1.34914877
      vertex 4.7509228 -0.802578587 1.34893874
    endloop
  endfacet
  facet normal -0.00591716788 -0.53369143 -0.845658586
    outer loop
      vertex 4.79952951 -0.682725982 1.27296018
      vertex 4.80071069 -0.683071874 1.27317021
      vertex 4.75210399 -0.802924478 1.34914877
    endloop
  endfacet
  facet normal -0.00591716788 -0.53369143 -0.845658586
    outer loop
      vertex 4.79952951 -0.682725982 1.27296018
      vertex 4.75210399 -0.802924478 1.34914877
      vertex 4.7509228 -0.802578587 1.34893874
    endloop
  endfacet
  facet normal 0.324044685 0.799017363 -0.506523736
    outer loop
      vertex 4.80013867 -0.68122393 1.27571931
      vertex 4.80071069 -0.683071874 1.27317021
      vertex 4.79952951 -0.682725982 1.27296018
    endloop
  endfacet
  facet normal -0.324044685 -0.799017363 0.506523736
    outer loop
      vertex 4.75153197 -0.801076535 1.35169787
      vertex 4.7509228 -0.802578587 1.34893874
      vertex 4.75210399 -0.802924478 1.34914877
    endloop
  endfacet
  facet normal 0.356560682 -0.599080751 -0.716914732
    outer loop
      vertex 4.80071069 -0.683071874 1.27317021
      vertex 4.80180479 -0.683136433 1.27376831
      vertex 4.75319809 -0.802989037 1.34974687
    endloop
  endfacet
  facet normal 0.356560682 -0.599080751 -0.716914732
    outer loop
      vertex 4.80071069 -0.683071874 1.27317021
      vertex 4.75319809 -0.802989037 1.34974687
      vertex 4.75210399 -0.802924478 1.34914877
    endloop
  endfacet
  facet normal 0.324044685 0.799017363 -0.506523736
    outer loop
      vertex 4.80013867 -0.68122393 1.27571931
      vertex 4.80180479 -0.683136433 1.27376831
      vertex 4.80071069 -0.683071874 1.27317021
    endloop
  endfacet
  facet normal -0.324044685 -0.799017363 0.506523736
    outer loop
      vertex 4.75153197 -0.801076535 1.35169787
      vertex 4.75210399 -0.802924478 1.34914877
      vertex 4.75319809 -0.802989037 1.34974687
    endloop
  endfacet
  facet normal 0.664755401 -0.573265458 -0.479027109
    outer loop
      vertex 4.80180479 -0.683136433 1.27376831
      vertex 4.80264524 -0.68290983 1.27466344
      vertex 4.75403853 -0.802762435 1.350642
    endloop
  endfacet
  facet normal 0.664755401 -0.573265458 -0.479027109
    outer loop
      vertex 4.80180479 -0.683136433 1.27376831
      vertex 4.75403853 -0.802762435 1.350642
      vertex 4.75319809 -0.802989037 1.34974687
    endloop
  endfacet
  facet normal 0.324044685 0.799017363 -0.506523736
    outer loop
      vertex 4.80013867 -0.68122393 1.27571931
      vertex 4.80264524 -0.68290983 1.27466344
      vertex 4.80180479 -0.683136433 1.27376831
    endloop
  endfacet
  facet normal -0.324044685 -0.799017363 0.506523736
    outer loop
      vertex 4.75153197 -0.801076535 1.35169787
      vertex 4.75319809 -0.802989037 1.34974687
      vertex 4.75403853 -0.802762435 1.350642
    endloop
  endfacet
  facet normal 0.871747135 -0.460175696 -0.168211951
    outer loop
      vertex 4.80264524 -0.68290983 1.27466344
      vertex 4.80310408 -0.682426565 1.27571931
      vertex 4.75449738 -0.80227917 1.35169787
    endloop
  endfacet
  facet normal 0.871747135 -0.460175696 -0.168211951
    outer loop
      vertex 4.80264524 -0.68290983 1.27466344
      vertex 4.75449738 -0.80227917 1.35169787
      vertex 4.75403853 -0.802762435 1.350642
    endloop
  endfacet
  facet normal 0.324044685 0.799017363 -0.506523736
    outer loop
      vertex 4.80013867 -0.68122393 1.27571931
      vertex 4.80310408 -0.682426565 1.27571931
      vertex 4.80264524 -0.68290983 1.27466344
    endloop
  endfacet
  facet normal -0.324044685 -0.799017363 0.506523736
    outer loop
      vertex 4.75153197 -0.801076535 1.35169787
      vertex 4.75403853 -0.802762435 1.350642
      vertex 4.75449738 -0.80227917 1.35169787
    endloop
  endfacet
  facet normal 0.946023271 -0.277028356 0.168211951
    outer loop
      vertex 4.80310408 -0.682426565 1.27571931
      vertex 4.80311147 -0.68176021 1.27677518
      vertex 4.75450477 -0.801612814 1.35275374
    endloop
  endfacet
  facet normal 0.946023271 -0.277028356 0.168211951
    outer loop
      vertex 4.80310408 -0.682426565 1.27571931
      vertex 4.75450477 -0.801612814 1.35275374
      vertex 4.75449738 -0.80227917 1.35169787
    endloop
  endfacet
  facet normal 0.324044685 0.799017363 -0.506523736
    outer loop
      vertex 4.80013867 -0.68122393 1.27571931
      vertex 4.80311147 -0.68176021 1.27677518
      vertex 4.80310408 -0.682426565 1.27571931
    endloop
  endfacet
  facet normal -0.324044685 -0.799017363 0.506523736
    outer loop
      vertex 4.75153197 -0.801076535 1.35169787
      vertex 4.75449738 -0.80227917 1.35169787
      vertex 4.75450477 -0.801612814 1.35275374
    endloop
  endfacet
  facet normal 0.87627594 -0.0517059593 0.479027109
    outer loop
      vertex 4.80311147 -0.68176021 1.27677518
      vertex 4.80266628 -0.681012211 1.2776703
      vertex 4.75405957 -0.800864815 1.35364886
    endloop
  endfacet
  facet normal 0.87627594 -0.0517059593 0.479027109
    outer loop
      vertex 4.80311147 -0.68176021 1.27677518
      vertex 4.75405957 -0.800864815 1.35364886
      vertex 4.75450477 -0.801612814 1.35275374
    endloop
  endfacet
  facet normal 0.324044685 0.799017363 -0.506523736
    outer loop
      vertex 4.80013867 -0.68122393 1.27571931
      vertex 4.80266628 -0.681012211 1.2776703
      vertex 4.80311147 -0.68176021 1.27677518
    endloop
  endfacet
  facet normal -0.324044685 -0.799017363 0.506523736
    outer loop
      vertex 4.75153197 -0.801076535 1.35169787
      vertex 4.75450477 -0.801612814 1.35275374
      vertex 4.75405957 -0.800864815 1.35364886
    endloop
  endfacet
  facet normal 0.67312354 0.181488201 0.716914732
    outer loop
      vertex 4.80266628 -0.681012211 1.2776703
      vertex 4.80183628 -0.680296444 1.2782684
      vertex 4.75322957 -0.800149049 1.35424696
    endloop
  endfacet
  facet normal 0.67312354 0.181488201 0.716914732
    outer loop
      vertex 4.80266628 -0.681012211 1.2776703
      vertex 4.75322957 -0.800149049 1.35424696
      vertex 4.75405957 -0.800864815 1.35364886
    endloop
  endfacet
  facet normal 0.324044685 0.799017363 -0.506523736
    outer loop
      vertex 4.80013867 -0.68122393 1.27571931
      vertex 4.80183628 -0.680296444 1.2782684
      vertex 4.80266628 -0.681012211 1.2776703
    endloop
  endfacet
  facet normal -0.324044685 -0.799017363 0.506523736
    outer loop
      vertex 4.75153197 -0.801076535 1.35169787
      vertex 4.75405957 -0.800864815 1.35364886
      vertex 4.75322957 -0.800149049 1.35424696
    endloop
  endfacet
  facet normal 0.367494183 0.387052427 0.845658586
    outer loop
      vertex 4.80183628 -0.680296444 1.2782684
      vertex 4.80074783 -0.679721879 1.27847843
      vertex 4.75214113 -0.799574483 1.35445699
    endloop
  endfacet
  facet normal 0.367494183 0.387052427 0.845658586
    outer loop
      vertex 4.80183628 -0.680296444 1.2782684
      vertex 4.75214113 -0.799574483 1.35445699
      vertex 4.75322957 -0.800149049 1.35424696
    endloop
  endfacet
  facet normal 0.324044685 0.799017363 -0.506523736
    outer loop
      vertex 4.80013867 -0.68122393 1.27571931
      vertex 4.80074783 -0.679721879 1.27847843
      vertex 4.80183628 -0.680296444 1.2782684
    endloop
  endfacet
  facet normal -0.324044685 -0.799017363 0.506523736
    outer loop
      vertex 4.75153197 -0.801076535 1.35169787
      vertex 4.75322957 -0.800149049 1.35424696
      vertex 4.75214113 -0.799574483 1.35445699
    endloop
  endfacet
  facet normal 0.00591716788 0.53369143 0.845658586
    outer loop
      vertex 4.80074783 -0.679721879 1.27847843
      vertex 4.79956665 -0.679375987 1.2782684
      vertex 4.75095995 -0.799228592 1.35424696
    endloop
  endfacet
  facet normal 0.00591716788 0.53369143 0.845658586
    outer loop
      vertex 4.80074783 -0.679721879 1.27847843
      vertex 4.75095995 -0.799228592 1.35424696
      vertex 4.75214113 -0.799574483 1.35445699
    endloop
  endfacet
  facet normal 0.324044685 0.799017363 -0.506523736
    outer loop
      vertex 4.80013867 -0.68122393 1.27571931
      vertex 4.79956665 -0.679375987 1.2782684
      vertex 4.80074783 -0.679721879 1.27847843
    endloop
  endfacet
  facet normal -0.324044685 -0.799017363 0.506523736
    outer loop
      vertex 4.75153197 -0.801076535 1.35169787
      vertex 4.75214113 -0.799574483 1.35445699
      vertex 4.75095995 -0.799228592 1.35424696
    endloop
  endfacet
  facet normal -0.356560682 0.599080751 0.716914732
    outer loop
      vertex 4.79956665 -0.679375987 1.2782684
      vertex 4.79847255 -0.679311428 1.2776703
      vertex 4.74986585 -0.799164033 1.35364886
    endloop
  endfacet
  facet normal -0.356560682 0.599080751 0.716914732
    outer loop
      vertex 4.79956665 -0.679375987 1.2782684
      vertex 4.74986585 -0.799164033 1.35364886
      vertex 4.75095995 -0.799228592 1.35424696
    endloop
  endfacet
  facet normal 0.324044685 0.799017363 -0.506523736
    outer loop
      vertex 4.80013867 -0.68122393 1.27571931
      vertex 4.79847255 -0.679311428 1.2776703
      vertex 4.79956665 -0.679375987 1.2782684
    endloop
  endfacet
  facet normal -0.324044685 -0.799017363 0.506523736
    outer loop
      vertex 4.75153197 -0.801076535 1.35169787
      vertex 4.75095995 -0.799228592 1.35424696
      vertex 4.74986585 -0.799164033 1.35364886
    endloop
  endfacet
  facet normal -0.664755401 0.573265458 0.479027109
    outer loop
      vertex 4.79847255 -0.679311428 1.2776703
      vertex 4.7976321 -0.67953803 1.27677518
      vertex 4.7490254 -0.799390635 1.35275374
    endloop
  endfacet
  facet normal -0.664755401 0.573265458 0.479027109
    outer loop
      vertex 4.79847255 -0.679311428 1.2776703
      vertex 4.7490254 -0.799390635 1.35275374
      vertex 4.74986585 -0.799164033 1.35364886
    endloop
  endfacet
  facet normal 0.324044685 0.799017363 -0.506523736
    outer loop
      vertex 4.80013867 -0.68122393 1.27571931
      vertex 4.7976321 -0.67953803 1.27677518
      vertex 4.79847255 -0.679311428 1.2776703
    endloop
  endfacet
  facet normal -0.324044685 -0.799017363 0.506523736
    outer loop
      vertex 4.75153197 -0.801076535 1.35169787
      vertex 4.74986585 -0.799164033 1.35364886
      vertex 4.7490254 -0.799390635 1.35275374
    endloop
  endfacet
  facet normal -0.871747135 0.460175696 0.168211951
    outer loop
      vertex 4.7976321 -0.67953803 1.27677518
      vertex 4.79717326 -0.680021296 1.27571931
      vertex 4.74856656 -0.7998739 1.35169787
    endloop
  endfacet
  facet normal -0.871747135 0.460175696 0.168211951
    outer loop
      vertex 4.7976321 -0.67953803 1.27677518
      vertex 4.74856656 -0.7998739 1.35169787
      vertex 4.7490254 -0.799390635 1.35275374
    endloop
  endfacet
  facet normal 0.324044685 0.799017363 -0.506523736
    outer loop
      vertex 4.80013867 -0.68122393 1.27571931
      vertex 4.79717326 -0.680021296 1.27571931
      vertex 4.7976321 -0.67953803 1.27677518
    endloop
  endfacet
  facet normal -0.324044685 -0.799017363 0.506523736
    outer loop
      vertex 4.75153197 -0.801076535 1.35169787
      vertex 4.7490254 -0.799390635 1.35275374
      vertex 4.74856656 -0.7998739 1.35169787
    endloop
  endfacet
  facet normal -0.946023271 0.277028356 -0.168211951
    outer loop
      vertex 4.7797867 -0.687686987 1.25250412
      vertex 4.77977931 -0.688353343 1.25144825
      vertex 4.73117261 -0.808205947 1.32742681
    endloop
  endfacet
  facet normal -0.946023271 0.277028356 -0.168211951
    outer loop
      vertex 4.7797867 -0.687686987 1.25250412
      vertex 4.73117261 -0.808205947 1.32742681
      vertex 4.73118 -0.807539592 1.32848268
    endloop
  endfacet
  facet normal 0.324044685 0.799017363 -0.506523736
    outer loop
      vertex 4.78275211 -0.688889622 1.25250412
      vertex 4.77977931 -0.688353343 1.25144825
      vertex 4.7797867 -0.687686987 1.25250412
    endloop
  endfacet
  facet normal -0.324044685 -0.799017363 0.506523736
    outer loop
      vertex 4.73414541 -0.808742227 1.32848268
      vertex 4.73118 -0.807539592 1.32848268
      vertex 4.73117261 -0.808205947 1.32742681
    endloop
  endfacet
  facet normal -0.87627594 0.0517059593 -0.479027109
    outer loop
      vertex 4.77977931 -0.688353343 1.25144825
      vertex 4.78022451 -0.689101342 1.25055313
      vertex 4.7316178 -0.808953946 1.32653169
    endloop
  endfacet
  facet normal -0.87627594 0.0517059593 -0.479027109
    outer loop
      vertex 4.77977931 -0.688353343 1.25144825
      vertex 4.7316178 -0.808953946 1.32653169
      vertex 4.73117261 -0.808205947 1.32742681
    endloop
  endfacet
  facet normal 0.324044685 0.799017363 -0.506523736
    outer loop
      vertex 4.78275211 -0.688889622 1.25250412
      vertex 4.78022451 -0.689101342 1.25055313
      vertex 4.77977931 -0.688353343 1.25144825
    endloop
  endfacet
  facet normal -0.324044685 -0.799017363 0.506523736
    outer loop
      vertex 4.73414541 -0.808742227 1.32848268
      vertex 4.73117261 -0.808205947 1.32742681
      vertex 4.7316178 -0.808953946 1.32653169
    endloop
  endfacet
  facet normal -0.67312354 -0.181488201 -0.716914732
    outer loop
      vertex 4.78022451 -0.689101342 1.25055313
      vertex 4.78105451 -0.689817109 1.24995502
      vertex 4.7324478 -0.809669713 1.32593358
    endloop
  endfacet
  facet normal -0.67312354 -0.181488201 -0.716914732
    outer loop
      vertex 4.78022451 -0.689101342 1.25055313
      vertex 4.7324478 -0.809669713 1.32593358
      vertex 4.7316178 -0.808953946 1.32653169
    endloop
  endfacet
  facet normal 0.324044685 0.799017363 -0.506523736
    outer loop
      vertex 4.78275211 -0.688889622 1.25250412
      vertex 4.78105451 -0.689817109 1.24995502
      vertex 4.78022451 -0.689101342 1.25055313
    endloop
  endfacet
  facet normal -0.324044685 -0.799017363 0.506523736
    outer loop
      vertex 4.73414541 -0.808742227 1.32848268
      vertex 4.7316178 -0.808953946 1.32653169
      vertex 4.7324478 -0.809669713 1.32593358
    endloop
  endfacet
  facet normal -0.367494183 -0.387052427 -0.845658586
    outer loop
      vertex 4.78105451 -0.689817109 1.24995502
      vertex 4.78214295 -0.690391674 1.249745
      vertex 4.73353625 -0.810244278 1.32572356
    endloop
  endfacet
  facet normal -0.367494183 -0.387052427 -0.845658586
    outer loop
      vertex 4.78105451 -0.689817109 1.24995502
      vertex 4.73353625 -0.810244278 1.32572356
      vertex 4.7324478 -0.809669713 1.32593358
    endloop
  endfacet
  facet normal 0.324044685 0.799017363 -0.506523736
    outer loop
      vertex 4.78275211 -0.688889622 1.25250412
      vertex 4.78214295 -0.690391674 1.249745
      vertex 4.78105451 -0.689817109 1.24995502
    endloop
  endfacet
  facet normal -0.324044685 -0.799017363 0.506523736
    outer loop
      vertex 4.73414541 -0.808742227 1.32848268
      vertex 4.7324478 -0.809669713 1.32593358
      vertex 4.73353625 -0.810244278 1.32572356
    endloop
  endfacet
  facet normal -0.00591716788 -0.53369143 -0.845658586
    outer loop
      vertex 4.78214295 -0.690391674 1.249745
      vertex 4.78332413 -0.690737565 1.24995502
      vertex 4.73471743 -0.81059017 1.32593358
    endloop
  endfacet
  facet normal -0.00591716788 -0.53369143 -0.845658586
    outer loop
      vertex 4.78214295 -0.690391674 1.249745
      vertex 4.73471743 -0.81059017 1.32593358
      vertex 4.73353625 -0.810244278 1.32572356
    endloop
  endfacet
  facet normal 0.324044685 0.799017363 -0.506523736
    outer loop
      vertex 4.78275211 -0.688889622 1.25250412
      vertex 4.78332413 -0.690737565 1.24995502
      vertex 4.78214295 -0.690391674 1.249745
    endloop
  endfacet
  facet normal -0.324044685 -0.799017363 0.506523736
    outer loop
      vertex 4.73414541 -0.808742227 1.32848268
      vertex 4.73353625 -0.810244278 1.32572356
      vertex 4.73471743 -0.81059017 1.32593358
    endloop
  endfacet
  facet normal 0.356560682 -0.599080751 -0.716914732
    outer loop
      vertex 4.78332413 -0.690737565 1.24995502
      vertex 4.78441823 -0.690802124 1.25055313
      vertex 4.73581153 -0.810654729 1.32653169
    endloop
  endfacet
  facet normal 0.356560682 -0.599080751 -0.716914732
    outer loop
      vertex 4.78332413 -0.690737565 1.24995502
      vertex 4.73581153 -0.810654729 1.32653169
      vertex 4.73471743 -0.81059017 1.32593358
    endloop
  endfacet
  facet normal 0.324044685 0.799017363 -0.506523736
    outer loop
      vertex 4.78275211 -0.688889622 1.25250412
      vertex 4.78441823 -0.690802124 1.25055313
      vertex 4.78332413 -0.690737565 1.24995502
    endloop
  endfacet
  facet normal -0.324044685 -0.799017363 0.506523736
    outer loop
      vertex 4.73414541 -0.808742227 1.32848268
      vertex 4.73471743 -0.81059017 1.32593358
      vertex 4.73581153 -0.810654729 1.32653169
    endloop
  endfacet
  facet normal 0.664755401 -0.573265458 -0.479027109
    outer loop
      vertex 4.78441823 -0.690802124 1.25055313
      vertex 4.78525868 -0.690575522 1.25144825
      vertex 4.73665198 -0.810428127 1.32742681
    endloop
  endfacet
  facet normal 0.664755401 -0.573265458 -0.479027109
    outer loop
      vertex 4.78441823 -0.690802124 1.25055313
      vertex 4.73665198 -0.810428127 1.32742681
      vertex 4.73581153 -0.810654729 1.32653169
    endloop
  endfacet
  facet normal 0.324044685 0.799017363 -0.506523736
    outer loop
      vertex 4.78275211 -0.688889622 1.25250412
      vertex 4.78525868 -0.690575522 1.25144825
      vertex 4.78441823 -0.690802124 1.25055313
    endloop
  endfacet
  facet normal -0.324044685 -0.799017363 0.506523736
    outer loop
      vertex 4.73414541 -0.808742227 1.32848268
      vertex 4.73581153 -0.810654729 1.32653169
      vertex 4.73665198 -0.810428127 1.32742681
    endloop
  endfacet
  facet normal 0.871747135 -0.460175696 -0.168211951
    outer loop
      vertex 4.78525868 -0.690575522 1.25144825
      vertex 4.78571753 -0.690092257 1.25250412
      vertex 4.73711082 -0.809944861 1.32848268
    endloop
  endfacet
  facet normal 0.871747135 -0.460175696 -0.168211951
    outer loop
      vertex 4.78525868 -0.690575522 1.25144825
      vertex 4.73711082 -0.809944861 1.32848268
      vertex 4.73665198 -0.810428127 1.32742681
    endloop
  endfacet
  facet normal 0.324044685 0.799017363 -0.506523736
    outer loop
      vertex 4.78275211 -0.688889622 1.25250412
      vertex 4.78571753 -0.690092257 1.25250412
      vertex 4.78525868 -0.690575522 1.25144825
    endloop
  endfacet
  facet normal -0.324044685 -0.799017363 0.506523736
    outer loop
      vertex 4.73414541 -0.808742227 1.32848268
      vertex 4.73665198 -0.810428127 1.32742681
      vertex 4.73711082 -0.809944861 1.32848268
    endloop
  endfacet
  facet normal 0.946023271 -0.277028356 0.168211951
    outer loop
      vertex 4.78571753 -0.690092257 1.25250412
      vertex 4.78572491 -0.689425901 1.25355999
      vertex 4.73711821 -0.809278506 1.32953855
    endloop
  endfacet
  facet normal 0.946023271 -0.277028356 0.168211951
    outer loop
      vertex 4.78571753 -0.690092257 1.25250412
      vertex 4.73711821 -0.809278506 1.32953855
      vertex 4.73711082 -0.809944861 1.32848268
    endloop
  endfacet
  facet normal 0.324044685 0.799017363 -0.506523736
    outer loop
      vertex 4.78275211 -0.688889622 1.25250412
      vertex 4.78572491 -0.689425901 1.25355999
      vertex 4.78571753 -0.690092257 1.25250412
    endloop
  endfacet
  facet normal -0.324044685 -0.799017363 0.506523736
    outer loop
      vertex 4.73414541 -0.808742227 1.32848268
      vertex 4.73711082 -0.809944861 1.32848268
      vertex 4.73711821 -0.809278506 1.32953855
    endloop
  endfacet
  facet normal 0.87627594 -0.0517059593 0.479027109
    outer loop
      vertex 4.78572491 -0.689425901 1.25355999
      vertex 4.78527972 -0.688677902 1.25445512
      vertex 4.73667302 -0.808530507 1.33043368
    endloop
  endfacet
  facet normal 0.87627594 -0.0517059593 0.479027109
    outer loop
      vertex 4.78572491 -0.689425901 1.25355999
      vertex 4.73667302 -0.808530507 1.33043368
      vertex 4.73711821 -0.809278506 1.32953855
    endloop
  endfacet
  facet normal 0.324044685 0.799017363 -0.506523736
    outer loop
      vertex 4.78275211 -0.688889622 1.25250412
      vertex 4.78527972 -0.688677902 1.25445512
      vertex 4.78572491 -0.689425901 1.25355999
    endloop
  endfacet
  facet normal -0.324044685 -0.799017363 0.506523736
    outer loop
      vertex 4.73414541 -0.808742227 1.32848268
      vertex 4.73711821 -0.809278506 1.32953855
      vertex 4.73667302 -0.808530507 1.33043368
    endloop
  endfacet
  facet normal 0.67312354 0.181488201 0.716914732
    outer loop
      vertex 4.78527972 -0.688677902 1.25445512
      vertex 4.78444972 -0.687962136 1.25505322
      vertex 4.73584302 -0.80781474 1.33103178
    endloop
  endfacet
  facet normal 0.67312354 0.181488201 0.716914732
    outer loop
      vertex 4.78527972 -0.688677902 1.25445512
      vertex 4.73584302 -0.80781474 1.33103178
      vertex 4.73667302 -0.808530507 1.33043368
    endloop
  endfacet
  facet normal 0.324044685 0.799017363 -0.506523736
    outer loop
      vertex 4.78275211 -0.688889622 1.25250412
      vertex 4.78444972 -0.687962136 1.25505322
      vertex 4.78527972 -0.688677902 1.25445512
    endloop
  endfacet
  facet normal -0.324044685 -0.799017363 0.506523736
    outer loop
      vertex 4.73414541 -0.808742227 1.32848268
      vertex 4.73667302 -0.808530507 1.33043368
      vertex 4.73584302 -0.80781474 1.33103178
    endloop
  endfacet
  facet normal 0.367494183 0.387052427 0.845658586
    outer loop
      vertex 4.78444972 -0.687962136 1.25505322
      vertex 4.78336128 -0.68738757 1.25526325
      vertex 4.73475457 -0.807240175 1.33124181
    endloop
  endfacet
  facet normal 0.367494183 0.387052427 0.845658586
    outer loop
      vertex 4.78444972 -0.687962136 1.25505322
      vertex 4.73475457 -0.807240175 1.33124181
      vertex 4.73584302 -0.80781474 1.33103178
    endloop
  endfacet
  facet normal 0.324044685 0.799017363 -0.506523736
    outer loop
      vertex 4.78275211 -0.688889622 1.25250412
      vertex 4.78336128 -0.68738757 1.25526325
      vertex 4.78444972 -0.687962136 1.25505322
    endloop
  endfacet
  facet normal -0.324044685 -0.799017363 0.506523736
    outer loop
      vertex 4.73414541 -0.808742227 1.32848268
      vertex 4.73584302 -0.80781474 1.33103178
      vertex 4.73475457 -0.807240175 1.33124181
    endloop
  endfacet
  facet normal 0.00591716788 0.53369143 0.845658586
    outer loop
      vertex 4.78336128 -0.68738757 1.25526325
      vertex 4.78218009 -0.687041679 1.25505322
      vertex 4.73357339 -0.806894283 1.33103178
    endloop
  endfacet
  facet normal 0.00591716788 0.53369143 0.845658586
    outer loop
      vertex 4.78336128 -0.68738757 1.25526325
      vertex 4.73357339 -0.806894283 1.33103178
      vertex 4.73475457 -0.807240175 1.33124181
    endloop
  endfacet
  facet normal 0.324044685 0.799017363 -0.506523736
    outer loop
      vertex 4.78275211 -0.688889622 1.25250412
      vertex 4.78218009 -0.687041679 1.25505322
      vertex 4.78336128 -0.68738757 1.25526325
    endloop
  endfacet
  facet normal -0.324044685 -0.799017363 0.506523736
    outer loop
      vertex 4.73414541 -0.808742227 1.32848268
      vertex 4.73475457 -0.807240175 1.33124181
      vertex 4.73357339 -0.806894283 1.33103178
    endloop
  endfacet
  facet normal -0.356560682 0.599080751 0.716914732
    outer loop
      vertex 4.78218009 -0.687041679 1.25505322
      vertex 4.78108599 -0.68697712 1.25445512
      vertex 4.73247929 -0.806829725 1.33043368
    endloop
  endfacet
  facet normal -0.356560682 0.599080751 0.716914732
    outer loop
      vertex 4.78218009 -0.687041679 1.25505322
      vertex 4.73247929 -0.806829725 1.33043368
      vertex 4.73357339 -0.806894283 1.33103178
    endloop
  endfacet
  facet normal 0.324044685 0.799017363 -0.506523736
    outer loop
      vertex 4.78275211 -0.688889622 1.25250412
      vertex 4.78108599 -0.68697712 1.25445512
      vertex 4.78218009 -0.687041679 1.25505322
    endloop
  endfacet
  facet normal -0.324044685 -0.799017363 0.506523736
    outer loop
      vertex 4.73414541 -0.808742227 1.32848268
      vertex 4.73357339 -0.806894283 1.33103178
      vertex 4.73247929 -0.806829725 1.33043368
    endloop
  endfacet
  facet normal -0.664755401 0.573265458 0.479027109
    outer loop
      vertex 4.78108599 -0.68697712 1.25445512
      vertex 4.78024555 -0.687203722 1.25355999
      vertex 4.73163884 -0.807056327 1.32953855
    endloop
  endfacet
  facet normal -0.664755401 0.573265458 0.479027109
    outer loop
      vertex 4.78108599 -0.68697712 1.25445512
      vertex 4.73163884 -0.807056327 1.32953855
      vertex 4.73247929 -0.806829725 1.33043368
    endloop
  endfacet
  facet normal 0.324044685 0.799017363 -0.506523736
    outer loop
      vertex 4.78275211 -0.688889622 1.25250412
      vertex 4.78024555 -0.687203722 1.25355999
      vertex 4.78108599 -0.68697712 1.25445512
    endloop
  endfacet
  facet normal -0.324044685 -0.799017363 0.506523736
    outer loop
      vertex 4.73414541 -0.808742227 1.32848268
      vertex 4.73247929 -0.806829725 1.33043368
      vertex 4.73163884 -0.807056327 1.32953855
    endloop
  endfacet
  facet normal -0.871747135 0.460175696 0.168211951
    outer loop
      vertex 4.78024555 -0.687203722 1.25355999
      vertex 4.7797867 -0.687686987 1.25250412
      vertex 4.73118 -0.807539592 1.32848268
    endloop
  endfacet
  facet normal -0.871747135 0.460175696 0.168211951
    outer loop
      vertex 4.78024555 -0.687203722 1.25355999
      vertex 4.73118 -0.807539592 1.32848268
      vertex 4.73163884 -0.807056327 1.32953855
    endloop
  endfacet
  facet normal 0.324044685 0.799017363 -0.506523736
    outer loop
      vertex 4.78275211 -0.688889622 1.25250412
      vertex 4.7797867 -0.687686987 1.25250412
      vertex 4.78024555 -0.687203722 1.25355999
    endloop
  endfacet
  facet normal -0.324044685 -0.799017363 0.506523736
    outer loop
      vertex 4.73414541 -0.808742227 1.32848268
      vertex 4.73163884 -0.807056327 1.32953855
      vertex 4.73118 -0.807539592 1.32848268
    endloop
  endfacet
endsolid e1_features
