solid a18_features
  facet normal 0.0525307846 -0.991963876 -0.115100759
    outer loop
      vertex 3.98406192 0.995964468 1.56223052
      vertex 3.98507094 0.996101735 1.56150803
      vertex 4.04960293 0.989213577 1.65032343
    endloop
  endfacet
  facet normal 0.0525307846 -0.991963876 -0.115100759
    outer loop
      vertex 3.98406192 0.995964468 1.56223052
      vertex 4.04960293 0.989213577 1.65032343
      vertex 4.04859391 0.98907631 1.65104592
    endloop
  endfacet
  facet normal -0.586654479 0.0626196166 -0.807412723
    outer loop
      vertex 3.98440156 0.999146393 1.56223052
      vertex 3.98507094 0.996101735 1.56150803
      vertex 3.98406192 0.995964468 1.56223052
    endloop
  endfacet
  facet normal 0.586654479 -0.0626196166 0.807412723
    outer loop
      vertex 4.04893355 0.992258235 1.65104592
      vertex 4.04859391 0.98907631 1.65104592
      vertex 4.04960293 0.989213577 1.65032343
    endloop
  endfacet
  facet normal 0.357790775 -0.874383518 -0.327779231
    outer loop
      vertex 3.98507094 0.996101735 1.56150803
      vertex 3.98597805 0.996702523 1.56089554
      vertex 4.05051004 0.989814365 1.64971094
    endloop
  endfacet
  facet normal 0.357790775 -0.874383518 -0.327779231
    outer loop
      vertex 3.98507094 0.996101735 1.56150803
      vertex 4.05051004 0.989814365 1.64971094
      vertex 4.04960293 0.989213577 1.65032343
    endloop
  endfacet
  facet normal -0.586654479 0.0626196166 -0.807412723
    outer loop
      vertex 3.98440156 0.999146393 1.56223052
      vertex 3.98597805 0.996702523 1.56089554
      vertex 3.98507094 0.996101735 1.56150803
    endloop
  endfacet
  facet normal 0.586654479 -0.0626196166 0.807412723
    outer loop
      vertex 4.04893355 0.992258235 1.65104592
      vertex 4.04960293 0.989213577 1.65032343
      vertex 4.05051004 0.989814365 1.64971094
    endloop
  endfacet
  facet normal 0.608580364 -0.623686195 -0.490556286
    outer loop
      vertex 3.98597805 0.996702523 1.56089554
      vertex 3.98664515 0.997675368 1.56048628
      vertex 4.05117714 0.99078721 1.64930168
    endloop
  endfacet
  facet normal 0.608580364 -0.623686195 -0.490556286
    outer loop
      vertex 3.98597805 0.996702523 1.56089554
      vertex 4.05117714 0.99078721 1.64930168
      vertex 4.05051004 0.989814365 1.64971094
    endloop
  endfacet
  facet normal -0.586654479 0.0626196166 -0.807412723
    outer loop
      vertex 3.98440156 0.999146393 1.56223052
      vertex 3.98664515 0.997675368 1.56048628
      vertex 3.98597805 0.996702523 1.56089554
    endloop
  endfacet
  facet normal 0.586654479 -0.0626196166 0.807412723
    outer loop
      vertex 4.04893355 0.992258235 1.65104592
      vertex 4.05051004 0.989814365 1.64971094
      vertex 4.05117714 0.99078721 1.64930168
    endloop
  endfacet
  facet normal 0.766719109 -0.278038303 -0.578650594
    outer loop
      vertex 3.98664515 0.997675368 1.56048628
      vertex 3.98697069 0.998872164 1.56034257
      vertex 4.05150268 0.991984006 1.64915797
    endloop
  endfacet
  facet normal 0.766719109 -0.278038303 -0.578650594
    outer loop
      vertex 3.98664515 0.997675368 1.56048628
      vertex 4.05150268 0.991984006 1.64915797
      vertex 4.05117714 0.99078721 1.64930168
    endloop
  endfacet
  facet normal -0.586654479 0.0626196166 -0.807412723
    outer loop
      vertex 3.98440156 0.999146393 1.56223052
      vertex 3.98697069 0.998872164 1.56034257
      vertex 3.98664515 0.997675368 1.56048628
    endloop
  endfacet
  facet normal 0.586654479 -0.0626196166 0.807412723
    outer loop
      vertex 4.04893355 0.992258235 1.65104592
      vertex 4.05117714 0.99078721 1.64930168
      vertex 4.05150268 0.991984006 1.64915797
    endloop
  endfacet
  facet normal 0.80813182 0.1099384 -0.578650594
    outer loop
      vertex 3.98697069 0.998872164 1.56034257
      vertex 3.9869051 1.00011071 1.56048628
      vertex 4.05143709 0.99322255 1.64930168
    endloop
  endfacet
  facet normal 0.80813182 0.1099384 -0.578650594
    outer loop
      vertex 3.98697069 0.998872164 1.56034257
      vertex 4.05143709 0.99322255 1.64930168
      vertex 4.05150268 0.991984006 1.64915797
    endloop
  endfacet
  facet normal -0.586654479 0.0626196166 -0.807412723
    outer loop
      vertex 3.98440156 0.999146393 1.56223052
      vertex 3.9869051 1.00011071 1.56048628
      vertex 3.98697069 0.998872164 1.56034257
    endloop
  endfacet
  facet normal 0.586654479 -0.0626196166 0.807412723
    outer loop
      vertex 4.04893355 0.992258235 1.65104592
      vertex 4.05150268 0.991984006 1.64915797
      vertex 4.05143709 0.99322255 1.64930168
    endloop
  endfacet
  facet normal 0.726513787 0.481177978 -0.490556286
    outer loop
      vertex 3.9869051 1.00011071 1.56048628
      vertex 3.98645837 1.00120244 1.56089554
      vertex 4.05099036 0.994314286 1.64971094
    endloop
  endfacet
  facet normal 0.726513787 0.481177978 -0.490556286
    outer loop
      vertex 3.9869051 1.00011071 1.56048628
      vertex 4.05099036 0.994314286 1.64971094
      vertex 4.05143709 0.99322255 1.64930168
    endloop
  endfacet
  facet normal -0.586654479 0.0626196166 -0.807412723
    outer loop
      vertex 3.98440156 0.999146393 1.56223052
      vertex 3.98645837 1.00120244 1.56089554
      vertex 3.9869051 1.00011071 1.56048628
    endloop
  endfacet
  facet normal 0.586654479 -0.0626196166 0.807412723
    outer loop
      vertex 4.04893355 0.992258235 1.65104592
      vertex 4.05143709 0.99322255 1.64930168
      vertex 4.05099036 0.994314286 1.64971094
    endloop
  endfacet
  facet normal 0.534290616 0.779162572 -0.327779231
    outer loop
      vertex 3.98645837 1.00120244 1.56089554
      vertex 3.98569851 1.00198116 1.56150803
      vertex 4.0502305 0.995093007 1.65032343
    endloop
  endfacet
  facet normal 0.534290616 0.779162572 -0.327779231
    outer loop
      vertex 3.98645837 1.00120244 1.56089554
      vertex 4.0502305 0.995093007 1.65032343
      vertex 4.05099036 0.994314286 1.64971094
    endloop
  endfacet
  facet normal -0.586654479 0.0626196166 -0.807412723
    outer loop
      vertex 3.98440156 0.999146393 1.56223052
      vertex 3.98569851 1.00198116 1.56150803
      vertex 3.98645837 1.00120244 1.56089554
    endloop
  endfacet
  facet normal 0.586654479 -0.0626196166 0.807412723
    outer loop
      vertex 4.04893355 0.992258235 1.65104592
      vertex 4.05099036 0.994314286 1.64971094
      vertex 4.0502305 0.995093007 1.65032343
    endloop
  endfacet
  facet normal 0.260726542 0.958526727 -0.115100759
    outer loop
      vertex 3.98569851 1.00198116 1.56150803
      vertex 3.9847412 1.00232832 1.56223052
      vertex 4.04927319 0.99544016 1.65104592
    endloop
  endfacet
  facet normal 0.260726542 0.958526727 -0.115100759
    outer loop
      vertex 3.98569851 1.00198116 1.56150803
      vertex 4.04927319 0.99544016 1.65104592
      vertex 4.0502305 0.995093007 1.65032343
    endloop
  endfacet
  facet normal -0.586654479 0.0626196166 -0.807412723
    outer loop
      vertex 3.98440156 0.999146393 1.56223052
      vertex 3.9847412 1.00232832 1.56223052
      vertex 3.98569851 1.00198116 1.56150803
    endloop
  endfacet
  facet normal 0.586654479 -0.0626196166 0.807412723
    outer loop
      vertex 4.04893355 0.992258235 1.65104592
      vertex 4.0502305 0.995093007 1.65032343
      vertex 4.04927319 0.99544016 1.65104592
    endloop
  endfacet
  facet normal -0.0525307846 0.991963876 0.115100759
    outer loop
      vertex 3.9847412 1.00232832 1.56223052
      vertex 3.98373218 1.00219105 1.56295302
      vertex 4.04826418 0.995302893 1.65176841
    endloop
  endfacet
  facet normal -0.0525307846 0.991963876 0.115100759
    outer loop
      vertex 3.9847412 1.00232832 1.56223052
      vertex 4.04826418 0.995302893 1.65176841
      vertex 4.04927319 0.99544016 1.65104592
    endloop
  endfacet
  facet normal -0.586654479 0.0626196166 -0.807412723
    outer loop
      vertex 3.98440156 0.999146393 1.56223052
      vertex 3.98373218 1.00219105 1.56295302
      vertex 3.9847412 1.00232832 1.56223052
    endloop
  endfacet
  facet normal 0.586654479 -0.0626196166 0.807412723
    outer loop
      vertex 4.04893355 0.992258235 1.65104592
      vertex 4.04927319 0.99544016 1.65104592
      vertex 4.04826418 0.995302893 1.65176841
    endloop
  endfacet
  facet normal -0.357790775 0.874383518 0.327779231
    outer loop
      vertex 3.98373218 1.00219105 1.56295302
      vertex 3.98282507 1.00159026 1.56356551
      vertex 4.04735707 0.994702105 1.65238091
    endloop
  endfacet
  facet normal -0.357790775 0.874383518 0.327779231
    outer loop
      vertex 3.98373218 1.00219105 1.56295302
      vertex 4.04735707 0.994702105 1.65238091
      vertex 4.04826418 0.995302893 1.65176841
    endloop
  endfacet
  facet normal -0.586654479 0.0626196166 -0.807412723
    outer loop
      vertex 3.98440156 0.999146393 1.56223052
      vertex 3.98282507 1.00159026 1.56356551
      vertex 3.98373218 1.00219105 1.56295302
    endloop
  endfacet
  facet normal 0.586654479 -0.0626196166 0.807412723
    outer loop
      vertex 4.04893355 0.992258235 1.65104592
      vertex 4.04826418 0.995302893 1.65176841
      vertex 4.04735707 0.994702105 1.65238091
    endloop
  endfacet
  facet normal -0.608580364 0.623686195 0.490556286
    outer loop
      vertex 3.98282507 1.00159026 1.56356551
      vertex 3.98215797 1.00061742 1.56397477
      vertex 4.04668996 0.993729259 1.65279017
    endloop
  endfacet
  facet normal -0.608580364 0.623686195 0.490556286
    outer loop
      vertex 3.98282507 1.00159026 1.56356551
      vertex 4.04668996 0.993729259 1.65279017
      vertex 4.04735707 0.994702105 1.65238091
    endloop
  endfacet
  facet normal -0.586654479 0.0626196166 -0.807412723
    outer loop
      vertex 3.98440156 0.999146393 1.56223052
      vertex 3.98215797 1.00061742 1.56397477
      vertex 3.98282507 1.00159026 1.56356551
    endloop
  endfacet
  facet normal 0.586654479 -0.0626196166 0.807412723
    outer loop
      vertex 4.04893355 0.992258235 1.65104592
      vertex 4.04735707 0.994702105 1.65238091
      vertex 4.04668996 0.993729259 1.65279017
    endloop
  endfacet
  facet normal -0.766719109 0.278038303 0.578650594
    outer loop
      vertex 3.98215797 1.00061742 1.56397477
      vertex 3.98183243 0.999420622 1.56411848
      vertex 4.04636443 0.992532464 1.65293388
    endloop
  endfacet
  facet normal -0.766719109 0.278038303 0.578650594
    outer loop
      vertex 3.98215797 1.00061742 1.56397477
      vertex 4.04636443 0.992532464 1.65293388
      vertex 4.04668996 0.993729259 1.65279017
    endloop
  endfacet
  facet normal -0.586654479 0.0626196166 -0.807412723
    outer loop
      vertex 3.98440156 0.999146393 1.56223052
      vertex 3.98183243 0.999420622 1.56411848
      vertex 3.98215797 1.00061742 1.56397477
    endloop
  endfacet
  facet normal 0.586654479 -0.0626196166 0.807412723
    outer loop
      vertex 4.04893355 0.992258235 1.65104592
      vertex 4.04668996 0.993729259 1.65279017
      vertex 4.04636443 0.992532464 1.65293388
    endloop
  endfacet
  facet normal -0.80813182 -0.1099384 0.578650594
    outer loop
      vertex 3.98183243 0.999420622 1.56411848
      vertex 3.98189802 0.998182077 1.56397477
      vertex 4.04643002 0.99129392 1.65279017
    endloop
  endfacet
  facet normal -0.80813182 -0.1099384 0.578650594
    outer loop
      vertex 3.98183243 0.999420622 1.56411848
      vertex 4.04643002 0.99129392 1.65279017
      vertex 4.04636443 0.992532464 1.65293388
    endloop
  endfacet
  facet normal -0.586654479 0.0626196166 -0.807412723
    outer loop
      vertex 3.98440156 0.999146393 1.56223052
      vertex 3.98189802 0.998182077 1.56397477
      vertex 3.98183243 0.999420622 1.56411848
    endloop
  endfacet
  facet normal 0.586654479 -0.0626196166 0.807412723
    outer loop
      vertex 4.04893355 0.992258235 1.65104592
      vertex 4.04636443 0.992532464 1.65293388
      vertex 4.04643002 0.99129392 1.65279017
    endloop
  endfacet
  facet normal -0.726513787 -0.481177978 0.490556286
    outer loop
      vertex 3.98189802 0.998182077 1.56397477
      vertex 3.98234475 0.997090341 1.56356551
      vertex 4.04687675 0.990202184 1.65238091
    endloop
  endfacet
  facet normal -0.726513787 -0.481177978 0.490556286
    outer loop
      vertex 3.98189802 0.998182077 1.56397477
      vertex 4.04687675 0.990202184 1.65238091
      vertex 4.04643002 0.99129392 1.65279017
    endloop
  endfacet
  facet normal -0.586654479 0.0626196166 -0.807412723
    outer loop
      vertex 3.98440156 0.999146393 1.56223052
      vertex 3.98234475 0.997090341 1.56356551
      vertex 3.98189802 0.998182077 1.56397477
    endloop
  endfacet
  facet normal 0.586654479 -0.0626196166 0.807412723
    outer loop
      vertex 4.04893355 0.992258235 1.65104592
      vertex 4.04643002 0.99129392 1.65279017
      vertex 4.04687675 0.990202184 1.65238091
    endloop
  endfacet
  facet normal -0.534290616 -0.779162572 0.327779231
    outer loop
      vertex 3.98234475 0.997090341 1.56356551
      vertex 3.98310461 0.99631162 1.56295302
      vertex 4.04763661 0.989423463 1.65176841
    endloop
  endfacet
  facet normal -0.534290616 -0.779162572 0.327779231
    outer loop
      vertex 3.98234475 0.997090341 1.56356551
      vertex 4.04763661 0.989423463 1.65176841
      vertex 4.04687675 0.990202184 1.65238091
    endloop
  endfacet
  facet normal -0.586654479 0.0626196166 -0.807412723
    outer loop
      vertex 3.98440156 0.999146393 1.56223052
      vertex 3.98310461 0.99631162 1.56295302
      vertex 3.98234475 0.997090341 1.56356551
    endloop
  endfacet
  facet normal 0.586654479 -0.0626196166 0.807412723
    outer loop
      vertex 4.04893355 0.992258235 1.65104592
      vertex 4.04687675 0.990202184 1.65238091
      vertex 4.04763661 0.989423463 1.65176841
    endloop
  endfacet
  facet normal -0.260726542 -0.958526727 0.115100759
    outer loop
      vertex 3.98310461 0.99631162 1.56295302
      vertex 3.98406192 0.995964468 1.56223052
      vertex 4.04859391 0.98907631 1.65104592
    endloop
  endfacet
  facet normal -0.260726542 -0.958526727 0.115100759
    outer loop
      vertex 3.98310461 0.99631162 1.56295302
      vertex 4.04859391 0.98907631 1.65104592
      vertex 4.04763661 0.989423463 1.65176841
    endloop
  endfacet
  facet normal -0.586654479 0.0626196166 -0.807412723
    outer loop
      vertex 3.98440156 0.999146393 1.56223052
      vertex 3.98406192 0.995964468 1.56223052
      vertex 3.98310461 0.99631162 1.56295302
    endloop
  endfacet
  facet normal 0.586654479 -0.0626196166 0.807412723
    outer loop
      vertex 4.04893355 0.992258235 1.65104592
      vertex 4.04763661 0.989423463 1.65176841
      vertex 4.04859391 0.98907631 1.65104592
    endloop
  endfacet
  facet normal 0.0525307846 -0.991963876 -0.115100759
    outer loop
      vertex 3.97477856 1.02308499 1.57107904
      vertex 3.97578757 1.02322226 1.57035655
      vertex 4.04031957 1.0163341 1.65917195
    endloop
  endfacet
  facet normal 0.0525307846 -0.991963876 -0.115100759
    outer loop
      vertex 3.97477856 1.02308499 1.57107904
      vertex 4.04031957 1.0163341 1.65917195
      vertex 4.03931055 1.01619684 1.65989444
    endloop
  endfacet
  facet normal -0.586654479 0.0626196166 -0.807412723
    outer loop
      vertex 3.9751182 1.02626692 1.57107904
      vertex 3.97578757 1.02322226 1.57035655
      vertex 3.97477856 1.02308499 1.57107904
    endloop
  endfacet
  facet normal 0.586654479 -0.0626196166 0.807412723
    outer loop
      vertex 4.03965019 1.01937876 1.65989444
      vertex 4.03931055 1.01619684 1.65989444
      vertex 4.04031957 1.0163341 1.65917195
    endloop
  endfacet
  facet normal 0.357790775 -0.874383518 -0.327779231
    outer loop
      vertex 3.97578757 1.02322226 1.57035655
      vertex 3.97669468 1.02382305 1.56974405
      vertex 4.04122668 1.01693489 1.65855945
    endloop
  endfacet
  facet normal 0.357790775 -0.874383518 -0.327779231
    outer loop
      vertex 3.97578757 1.02322226 1.57035655
      vertex 4.04122668 1.01693489 1.65855945
      vertex 4.04031957 1.0163341 1.65917195
    endloop
  endfacet
  facet normal -0.586654479 0.0626196166 -0.807412723
    outer loop
      vertex 3.9751182 1.02626692 1.57107904
      vertex 3.97669468 1.02382305 1.56974405
      vertex 3.97578757 1.02322226 1.57035655
    endloop
  endfacet
  facet normal 0.586654479 -0.0626196166 0.807412723
    outer loop
      vertex 4.03965019 1.01937876 1.65989444
      vertex 4.04031957 1.0163341 1.65917195
      vertex 4.04122668 1.01693489 1.65855945
    endloop
  endfacet
  facet normal 0.608580364 -0.623686195 -0.490556286
    outer loop
      vertex 3.97669468 1.02382305 1.56974405
      vertex 3.97736179 1.0247959 1.56933479
      vertex 4.04189378 1.01790774 1.65815019
    endloop
  endfacet
  facet normal 0.608580364 -0.623686195 -0.490556286
    outer loop
      vertex 3.97669468 1.02382305 1.56974405
      vertex 4.04189378 1.01790774 1.65815019
      vertex 4.04122668 1.01693489 1.65855945
    endloop
  endfacet
  facet normal -0.586654479 0.0626196166 -0.807412723
    outer loop
      vertex 3.9751182 1.02626692 1.57107904
      vertex 3.97736179 1.0247959 1.56933479
      vertex 3.97669468 1.02382305 1.56974405
    endloop
  endfacet
  facet normal 0.586654479 -0.0626196166 0.807412723
    outer loop
      vertex 4.03965019 1.01937876 1.65989444
      vertex 4.04122668 1.01693489 1.65855945
      vertex 4.04189378 1.01790774 1.65815019
    endloop
  endfacet
  facet normal 0.766719109 -0.278038303 -0.578650594
    outer loop
      vertex 3.97736179 1.0247959 1.56933479
      vertex 3.97768732 1.02599269 1.56919108
      vertex 4.04221932 1.01910453 1.65800648
    endloop
  endfacet
  facet normal 0.766719109 -0.278038303 -0.578650594
    outer loop
      vertex 3.97736179 1.0247959 1.56933479
      vertex 4.04221932 1.01910453 1.65800648
      vertex 4.04189378 1.01790774 1.65815019
    endloop
  endfacet
  facet normal -0.586654479 0.0626196166 -0.807412723
    outer loop
      vertex 3.9751182 1.02626692 1.57107904
      vertex 3.97768732 1.02599269 1.56919108
      vertex 3.97736179 1.0247959 1.56933479
    endloop
  endfacet
  facet normal 0.586654479 -0.0626196166 0.807412723
    outer loop
      vertex 4.03965019 1.01937876 1.65989444
      vertex 4.04189378 1.01790774 1.65815019
      vertex 4.04221932 1.01910453 1.65800648
    endloop
  endfacet
  facet normal 0.80813182 0.1099384 -0.578650594
    outer loop
      vertex 3.97768732 1.02599269 1.56919108
      vertex 3.97762174 1.02723123 1.56933479
      vertex 4.04215373 1.02034308 1.65815019
    endloop
  endfacet
  facet normal 0.80813182 0.1099384 -0.578650594
    outer loop
      vertex 3.97768732 1.02599269 1.56919108
      vertex 4.04215373 1.02034308 1.65815019
      vertex 4.04221932 1.01910453 1.65800648
    endloop
  endfacet
  facet normal -0.586654479 0.0626196166 -0.807412723
    outer loop
      vertex 3.9751182 1.02626692 1.57107904
      vertex 3.97762174 1.02723123 1.56933479
      vertex 3.97768732 1.02599269 1.56919108
    endloop
  endfacet
  facet normal 0.586654479 -0.0626196166 0.807412723
    outer loop
      vertex 4.03965019 1.01937876 1.65989444
      vertex 4.04221932 1.01910453 1.65800648
      vertex 4.04215373 1.02034308 1.65815019
    endloop
  endfacet
  facet normal 0.726513787 0.481177978 -0.490556286
    outer loop
      vertex 3.97762174 1.02723123 1.56933479
      vertex 3.97717501 1.02832297 1.56974405
      vertex 4.041707 1.02143481 1.65855945
    endloop
  endfacet
  facet normal 0.726513787 0.481177978 -0.490556286
    outer loop
      vertex 3.97762174 1.02723123 1.56933479
      vertex 4.041707 1.02143481 1.65855945
      vertex 4.04215373 1.02034308 1.65815019
    endloop
  endfacet
  facet normal -0.586654479 0.0626196166 -0.807412723
    outer loop
      vertex 3.9751182 1.02626692 1.57107904
      vertex 3.97717501 1.02832297 1.56974405
      vertex 3.97762174 1.02723123 1.56933479
    endloop
  endfacet
  facet normal 0.586654479 -0.0626196166 0.807412723
    outer loop
      vertex 4.03965019 1.01937876 1.65989444
      vertex 4.04215373 1.02034308 1.65815019
      vertex 4.041707 1.02143481 1.65855945
    endloop
  endfacet
  facet normal 0.534290616 0.779162572 -0.327779231
    outer loop
      vertex 3.97717501 1.02832297 1.56974405
      vertex 3.97641515 1.02910169 1.57035655
      vertex 4.04094714 1.02221353 1.65917195
    endloop
  endfacet
  facet normal 0.534290616 0.779162572 -0.327779231
    outer loop
      vertex 3.97717501 1.02832297 1.56974405
      vertex 4.04094714 1.02221353 1.65917195
      vertex 4.041707 1.02143481 1.65855945
    endloop
  endfacet
  facet normal -0.586654479 0.0626196166 -0.807412723
    outer loop
      vertex 3.9751182 1.02626692 1.57107904
      vertex 3.97641515 1.02910169 1.57035655
      vertex 3.97717501 1.02832297 1.56974405
    endloop
  endfacet
  facet normal 0.586654479 -0.0626196166 0.807412723
    outer loop
      vertex 4.03965019 1.01937876 1.65989444
      vertex 4.041707 1.02143481 1.65855945
      vertex 4.04094714 1.02221353 1.65917195
    endloop
  endfacet
  facet normal 0.260726542 0.958526727 -0.115100759
    outer loop
      vertex 3.97641515 1.02910169 1.57035655
      vertex 3.97545784 1.02944884 1.57107904
      vertex 4.03998983 1.02256069 1.65989444
    endloop
  endfacet
  facet normal 0.260726542 0.958526727 -0.115100759
    outer loop
      vertex 3.97641515 1.02910169 1.57035655
      vertex 4.03998983 1.02256069 1.65989444
      vertex 4.04094714 1.02221353 1.65917195
    endloop
  endfacet
  facet normal -0.586654479 0.0626196166 -0.807412723
    outer loop
      vertex 3.9751182 1.02626692 1.57107904
      vertex 3.97545784 1.02944884 1.57107904
      vertex 3.97641515 1.02910169 1.57035655
    endloop
  endfacet
  facet normal 0.586654479 -0.0626196166 0.807412723
    outer loop
      vertex 4.03965019 1.01937876 1.65989444
      vertex 4.04094714 1.02221353 1.65917195
      vertex 4.03998983 1.02256069 1.65989444
    endloop
  endfacet
  facet normal -0.0525307846 0.991963876 0.115100759
    outer loop
      vertex 3.97545784 1.02944884 1.57107904
      vertex 3.97444882 1.02931158 1.57180153
      vertex 4.03898081 1.02242342 1.66061693
    endloop
  endfacet
  facet normal -0.0525307846 0.991963876 0.115100759
    outer loop
      vertex 3.97545784 1.02944884 1.57107904
      vertex 4.03898081 1.02242342 1.66061693
      vertex 4.03998983 1.02256069 1.65989444
    endloop
  endfacet
  facet normal -0.586654479 0.0626196166 -0.807412723
    outer loop
      vertex 3.9751182 1.02626692 1.57107904
      vertex 3.97444882 1.02931158 1.57180153
      vertex 3.97545784 1.02944884 1.57107904
    endloop
  endfacet
  facet normal 0.586654479 -0.0626196166 0.807412723
    outer loop
      vertex 4.03965019 1.01937876 1.65989444
      vertex 4.03998983 1.02256069 1.65989444
      vertex 4.03898081 1.02242342 1.66061693
    endloop
  endfacet
  facet normal -0.357790775 0.874383518 0.327779231
    outer loop
      vertex 3.97444882 1.02931158 1.57180153
      vertex 3.97354171 1.02871079 1.57241403
      vertex 4.03807371 1.02182263 1.66122943
    endloop
  endfacet
  facet normal -0.357790775 0.874383518 0.327779231
    outer loop
      vertex 3.97444882 1.02931158 1.57180153
      vertex 4.03807371 1.02182263 1.66122943
      vertex 4.03898081 1.02242342 1.66061693
    endloop
  endfacet
  facet normal -0.586654479 0.0626196166 -0.807412723
    outer loop
      vertex 3.9751182 1.02626692 1.57107904
      vertex 3.97354171 1.02871079 1.57241403
      vertex 3.97444882 1.02931158 1.57180153
    endloop
  endfacet
  facet normal 0.586654479 -0.0626196166 0.807412723
    outer loop
      vertex 4.03965019 1.01937876 1.65989444
      vertex 4.03898081 1.02242342 1.66061693
      vertex 4.03807371 1.02182263 1.66122943
    endloop
  endfacet
  facet normal -0.608580364 0.623686195 0.490556286
    outer loop
      vertex 3.97354171 1.02871079 1.57241403
      vertex 3.97287461 1.02773794 1.57282329
      vertex 4.0374066 1.02084979 1.66163869
    endloop
  endfacet
  facet normal -0.608580364 0.623686195 0.490556286
    outer loop
      vertex 3.97354171 1.02871079 1.57241403
      vertex 4.0374066 1.02084979 1.66163869
      vertex 4.03807371 1.02182263 1.66122943
    endloop
  endfacet
  facet normal -0.586654479 0.0626196166 -0.807412723
    outer loop
      vertex 3.9751182 1.02626692 1.57107904
      vertex 3.97287461 1.02773794 1.57282329
      vertex 3.97354171 1.02871079 1.57241403
    endloop
  endfacet
  facet normal 0.586654479 -0.0626196166 0.807412723
    outer loop
      vertex 4.03965019 1.01937876 1.65989444
      vertex 4.03807371 1.02182263 1.66122943
      vertex 4.0374066 1.02084979 1.66163869
    endloop
  endfacet
  facet normal -0.766719109 0.278038303 0.578650594
    outer loop
      vertex 3.97287461 1.02773794 1.57282329
      vertex 3.97254907 1.02654115 1.572967
      vertex 4.03708106 1.01965299 1.6617824
    endloop
  endfacet
  facet normal -0.766719109 0.278038303 0.578650594
    outer loop
      vertex 3.97287461 1.02773794 1.57282329
      vertex 4.03708106 1.01965299 1.6617824
      vertex 4.0374066 1.02084979 1.66163869
    endloop
  endfacet
  facet normal -0.586654479 0.0626196166 -0.807412723
    outer loop
      vertex 3.9751182 1.02626692 1.57107904
      vertex 3.97254907 1.02654115 1.572967
      vertex 3.97287461 1.02773794 1.57282329
    endloop
  endfacet
  facet normal 0.586654479 -0.0626196166 0.807412723
    outer loop
      vertex 4.03965019 1.01937876 1.65989444
      vertex 4.0374066 1.02084979 1.66163869
      vertex 4.03708106 1.01965299 1.6617824
    endloop
  endfacet
  facet normal -0.80813182 -0.1099384 0.578650594
    outer loop
      vertex 3.97254907 1.02654115 1.572967
      vertex 3.97261466 1.0253026 1.57282329
      vertex 4.03714665 1.01841445 1.66163869
    endloop
  endfacet
  facet normal -0.80813182 -0.1099384 0.578650594
    outer loop
      vertex 3.97254907 1.02654115 1.572967
      vertex 4.03714665 1.01841445 1.66163869
      vertex 4.03708106 1.01965299 1.6617824
    endloop
  endfacet
  facet normal -0.586654479 0.0626196166 -0.807412723
    outer loop
      vertex 3.9751182 1.02626692 1.57107904
      vertex 3.97261466 1.0253026 1.57282329
      vertex 3.97254907 1.02654115 1.572967
    endloop
  endfacet
  facet normal 0.586654479 -0.0626196166 0.807412723
    outer loop
      vertex 4.03965019 1.01937876 1.65989444
      vertex 4.03708106 1.01965299 1.6617824
      vertex 4.03714665 1.01841445 1.66163869
    endloop
  endfacet
  facet normal -0.726513787 -0.481177978 0.490556286
    outer loop
      vertex 3.97261466 1.0253026 1.57282329
      vertex 3.97306139 1.02421087 1.57241403
      vertex 4.03759338 1.01732271 1.66122943
    endloop
  endfacet
  facet normal -0.726513787 -0.481177978 0.490556286
    outer loop
      vertex 3.97261466 1.0253026 1.57282329
      vertex 4.03759338 1.01732271 1.66122943
      vertex 4.03714665 1.01841445 1.66163869
    endloop
  endfacet
  facet normal -0.586654479 0.0626196166 -0.807412723
    outer loop
      vertex 3.9751182 1.02626692 1.57107904
      vertex 3.97306139 1.02421087 1.57241403
      vertex 3.97261466 1.0253026 1.57282329
    endloop
  endfacet
  facet normal 0.586654479 -0.0626196166 0.807412723
    outer loop
      vertex 4.03965019 1.01937876 1.65989444
      vertex 4.03714665 1.01841445 1.66163869
      vertex 4.03759338 1.01732271 1.66122943
    endloop
  endfacet
  facet normal -0.534290616 -0.779162572 0.327779231
    outer loop
      vertex 3.97306139 1.02421087 1.57241403
      vertex 3.97382125 1.02343215 1.57180153
      vertex 4.03835324 1.01654399 1.66061693
    endloop
  endfacet
  facet normal -0.534290616 -0.779162572 0.327779231
    outer loop
      vertex 3.97306139 1.02421087 1.57241403
      vertex 4.03835324 1.01654399 1.66061693
      vertex 4.03759338 1.01732271 1.66122943
    endloop
  endfacet
  facet normal -0.586654479 0.0626196166 -0.807412723
    outer loop
      vertex 3.9751182 1.02626692 1.57107904
      vertex 3.97382125 1.02343215 1.57180153
      vertex 3.97306139 1.02421087 1.57241403
    endloop
  endfacet
  facet normal 0.586654479 -0.0626196166 0.807412723
    outer loop
      vertex 4.03965019 1.01937876 1.65989444
      vertex 4.03759338 1.01732271 1.66122943
      vertex 4.03835324 1.01654399 1.66061693
    endloop
  endfacet
  facet normal -0.260726542 -0.958526727 0.115100759
    outer loop
      vertex 3.97382125 1.02343215 1.57180153
      vertex 3.97477856 1.02308499 1.57107904
      vertex 4.03931055 1.01619684 1.65989444
    endloop
  endfacet
  facet normal -0.260726542 -0.958526727 0.115100759
    outer loop
      vertex 3.97382125 1.02343215 1.57180153
      vertex 4.03931055 1.01619684 1.65989444
      vertex 4.03835324 1.01654399 1.66061693
    endloop
  endfacet
  facet normal -0.586654479 0.0626196166 -0.807412723
    outer loop
      vertex 3.9751182 1.02626692 1.57107904
      vertex 3.97477856 1.02308499 1.57107904
      vertex 3.97382125 1.02343215 1.57180153
    endloop
  endfacet
  facet normal 0.586654479 -0.0626196166 0.807412723
    outer loop
      vertex 4.03965019 1.01937876 1.65989444
      vertex 4.03835324 1.01654399 1.66061693
      vertex 4.03931055 1.01619684 1.65989444
    endloop
  endfacet
  facet normal -0.984653989 0.0185826337 -0.173525815
    outer loop
      vertex 4.21947265 1.02081174 1.4047574
      vertex 4.2196536 1.02022882 1.40366817
      vertex 4.20507004 0.887608657 1.47221896
    endloop
  endfacet
  facet normal -0.984653989 0.0185826337 -0.173525815
    outer loop
      vertex 4.21947265 1.02081174 1.4047574
      vertex 4.20507004 0.887608657 1.47221896
      vertex 4.20488908 0.888191572 1.47330819
    endloop
  endfacet
  facet normal 0.0972237557 0.884134449 -0.45700527
    outer loop
      vertex 4.22265347 1.02046196 1.4047574
      vertex 4.2196536 1.02022882 1.40366817
      vertex 4.21947265 1.02081174 1.4047574
    endloop
  endfacet
  facet normal -0.0972237557 -0.884134449 0.45700527
    outer loop
      vertex 4.20806991 0.887841793 1.47330819
      vertex 4.20488908 0.888191572 1.47330819
      vertex 4.20507004 0.887608657 1.47221896
    endloop
  endfacet
  facet normal -0.854240203 -0.16149258 -0.494159714
    outer loop
      vertex 4.2196536 1.02022882 1.40366817
      vertex 4.22029126 1.0196814 1.40274477
      vertex 4.20570769 0.887061235 1.47129556
    endloop
  endfacet
  facet normal -0.854240203 -0.16149258 -0.494159714
    outer loop
      vertex 4.2196536 1.02022882 1.40366817
      vertex 4.20570769 0.887061235 1.47129556
      vertex 4.20507004 0.887608657 1.47221896
    endloop
  endfacet
  facet normal 0.0972237557 0.884134449 -0.45700527
    outer loop
      vertex 4.22265347 1.02046196 1.4047574
      vertex 4.22029126 1.0196814 1.40274477
      vertex 4.2196536 1.02022882 1.40366817
    endloop
  endfacet
  facet normal -0.0972237557 -0.884134449 0.45700527
    outer loop
      vertex 4.20806991 0.887841793 1.47330819
      vertex 4.20507004 0.887608657 1.47221896
      vertex 4.20570769 0.887061235 1.47129556
    endloop
  endfacet
  facet normal -0.593776089 -0.316982012 -0.739562276
    outer loop
      vertex 4.22029126 1.0196814 1.40274477
      vertex 4.22128854 1.01925281 1.40212777
      vertex 4.20670498 0.886632646 1.47067856
    endloop
  endfacet
  facet normal -0.593776089 -0.316982012 -0.739562276
    outer loop
      vertex 4.22029126 1.0196814 1.40274477
      vertex 4.20670498 0.886632646 1.47067856
      vertex 4.20570769 0.887061235 1.47129556
    endloop
  endfacet
  facet normal 0.0972237557 0.884134449 -0.45700527
    outer loop
      vertex 4.22265347 1.02046196 1.4047574
      vertex 4.22128854 1.01925281 1.40212777
      vertex 4.22029126 1.0196814 1.40274477
    endloop
  endfacet
  facet normal -0.0972237557 -0.884134449 0.45700527
    outer loop
      vertex 4.20806991 0.887841793 1.47330819
      vertex 4.20570769 0.887061235 1.47129556
      vertex 4.20670498 0.886632646 1.47067856
    endloop
  endfacet
  facet normal -0.242914949 -0.424213806 -0.872373185
    outer loop
      vertex 4.22128854 1.01925281 1.40212777
      vertex 4.22249362 1.01900831 1.40191111
      vertex 4.20791006 0.886388138 1.4704619
    endloop
  endfacet
  facet normal -0.242914949 -0.424213806 -0.872373185
    outer loop
      vertex 4.22128854 1.01925281 1.40212777
      vertex 4.20791006 0.886388138 1.4704619
      vertex 4.20670498 0.886632646 1.47067856
    endloop
  endfacet
  facet normal 0.0972237557 0.884134449 -0.45700527
    outer loop
      vertex 4.22265347 1.02046196 1.4047574
      vertex 4.22249362 1.01900831 1.40191111
      vertex 4.22128854 1.01925281 1.40212777
    endloop
  endfacet
  facet normal -0.0972237557 -0.884134449 0.45700527
    outer loop
      vertex 4.20806991 0.887841793 1.47330819
      vertex 4.20670498 0.886632646 1.47067856
      vertex 4.20791006 0.886388138 1.4704619
    endloop
  endfacet
  facet normal 0.14492779 -0.466862894 -0.872373185
    outer loop
      vertex 4.22249362 1.01900831 1.40191111
      vertex 4.22372304 1.0189851 1.40212777
      vertex 4.20913948 0.886364937 1.47067856
    endloop
  endfacet
  facet normal 0.14492779 -0.466862894 -0.872373185
    outer loop
      vertex 4.22249362 1.01900831 1.40191111
      vertex 4.20913948 0.886364937 1.47067856
      vertex 4.20791006 0.886388138 1.4704619
    endloop
  endfacet
  facet normal 0.0972237557 0.884134449 -0.45700527
    outer loop
      vertex 4.22265347 1.02046196 1.4047574
      vertex 4.22372304 1.0189851 1.40212777
      vertex 4.22249362 1.01900831 1.40191111
    endloop
  endfacet
  facet normal -0.0972237557 -0.884134449 0.45700527
    outer loop
      vertex 4.20806991 0.887841793 1.47330819
      vertex 4.20791006 0.886388138 1.4704619
      vertex 4.20913948 0.886364937 1.47067856
    endloop
  endfacet
  facet normal 0.510706587 -0.438436338 -0.739562276
    outer loop
      vertex 4.22372304 1.0189851 1.40212777
      vertex 4.22478962 1.01918674 1.40274477
      vertex 4.21020606 0.886566573 1.47129556
    endloop
  endfacet
  facet normal 0.510706587 -0.438436338 -0.739562276
    outer loop
      vertex 4.22372304 1.0189851 1.40212777
      vertex 4.21020606 0.886566573 1.47129556
      vertex 4.20913948 0.886364937 1.47067856
    endloop
  endfacet
  facet normal 0.0972237557 0.884134449 -0.45700527
    outer loop
      vertex 4.22265347 1.02046196 1.4047574
      vertex 4.22478962 1.01918674 1.40274477
      vertex 4.22372304 1.0189851 1.40212777
    endloop
  endfacet
  facet normal -0.0972237557 -0.884134449 0.45700527
    outer loop
      vertex 4.20806991 0.887841793 1.47330819
      vertex 4.20913948 0.886364937 1.47067856
      vertex 4.21020606 0.886566573 1.47129556
    endloop
  endfacet
  facet normal 0.798734935 -0.343261824 -0.494159714
    outer loop
      vertex 4.22478962 1.01918674 1.40274477
      vertex 4.225531 1.01958252 1.40366817
      vertex 4.21094744 0.886962349 1.47221896
    endloop
  endfacet
  facet normal 0.798734935 -0.343261824 -0.494159714
    outer loop
      vertex 4.22478962 1.01918674 1.40274477
      vertex 4.21094744 0.886962349 1.47221896
      vertex 4.21020606 0.886566573 1.47129556
    endloop
  endfacet
  facet normal 0.0972237557 0.884134449 -0.45700527
    outer loop
      vertex 4.22265347 1.02046196 1.4047574
      vertex 4.225531 1.01958252 1.40366817
      vertex 4.22478962 1.01918674 1.40274477
    endloop
  endfacet
  facet normal -0.0972237557 -0.884134449 0.45700527
    outer loop
      vertex 4.20806991 0.887841793 1.47330819
      vertex 4.21020606 0.886566573 1.47129556
      vertex 4.21094744 0.886962349 1.47221896
    endloop
  endfacet
  facet normal 0.965163131 -0.19582881 -0.173525815
    outer loop
      vertex 4.225531 1.01958252 1.40366817
      vertex 4.2258343 1.02011218 1.4047574
      vertex 4.21125073 0.887492013 1.47330819
    endloop
  endfacet
  facet normal 0.965163131 -0.19582881 -0.173525815
    outer loop
      vertex 4.225531 1.01958252 1.40366817
      vertex 4.21125073 0.887492013 1.47330819
      vertex 4.21094744 0.886962349 1.47221896
    endloop
  endfacet
  facet normal 0.0972237557 0.884134449 -0.45700527
    outer loop
      vertex 4.22265347 1.02046196 1.4047574
      vertex 4.2258343 1.02011218 1.4047574
      vertex 4.225531 1.01958252 1.40366817
    endloop
  endfacet
  facet normal -0.0972237557 -0.884134449 0.45700527
    outer loop
      vertex 4.20806991 0.887841793 1.47330819
      vertex 4.21094744 0.886962349 1.47221896
      vertex 4.21125073 0.887492013 1.47330819
    endloop
  endfacet
  facet normal 0.984653989 -0.0185826337 0.173525815
    outer loop
      vertex 4.2258343 1.02011218 1.4047574
      vertex 4.22565334 1.0206951 1.40584662
      vertex 4.21106978 0.888074928 1.47439742
    endloop
  endfacet
  facet normal 0.984653989 -0.0185826337 0.173525815
    outer loop
      vertex 4.2258343 1.02011218 1.4047574
      vertex 4.21106978 0.888074928 1.47439742
      vertex 4.21125073 0.887492013 1.47330819
    endloop
  endfacet
  facet normal 0.0972237557 0.884134449 -0.45700527
    outer loop
      vertex 4.22265347 1.02046196 1.4047574
      vertex 4.22565334 1.0206951 1.40584662
      vertex 4.2258343 1.02011218 1.4047574
    endloop
  endfacet
  facet normal -0.0972237557 -0.884134449 0.45700527
    outer loop
      vertex 4.20806991 0.887841793 1.47330819
      vertex 4.21125073 0.887492013 1.47330819
      vertex 4.21106978 0.888074928 1.47439742
    endloop
  endfacet
  facet normal 0.854240203 0.16149258 0.494159714
    outer loop
      vertex 4.22565334 1.0206951 1.40584662
      vertex 4.22501569 1.02124252 1.40677003
      vertex 4.21043212 0.88862235 1.47532082
    endloop
  endfacet
  facet normal 0.854240203 0.16149258 0.494159714
    outer loop
      vertex 4.22565334 1.0206951 1.40584662
      vertex 4.21043212 0.88862235 1.47532082
      vertex 4.21106978 0.888074928 1.47439742
    endloop
  endfacet
  facet normal 0.0972237557 0.884134449 -0.45700527
    outer loop
      vertex 4.22265347 1.02046196 1.4047574
      vertex 4.22501569 1.02124252 1.40677003
      vertex 4.22565334 1.0206951 1.40584662
    endloop
  endfacet
  facet normal -0.0972237557 -0.884134449 0.45700527
    outer loop
      vertex 4.20806991 0.887841793 1.47330819
      vertex 4.21106978 0.888074928 1.47439742
      vertex 4.21043212 0.88862235 1.47532082
    endloop
  endfacet
  facet normal 0.593776089 0.316982012 0.739562276
    outer loop
      vertex 4.22501569 1.02124252 1.40677003
      vertex 4.2240184 1.02167111 1.40738702
      vertex 4.20943484 0.889050939 1.47593781
    endloop
  endfacet
  facet normal 0.593776089 0.316982012 0.739562276
    outer loop
      vertex 4.22501569 1.02124252 1.40677003
      vertex 4.20943484 0.889050939 1.47593781
      vertex 4.21043212 0.88862235 1.47532082
    endloop
  endfacet
  facet normal 0.0972237557 0.884134449 -0.45700527
    outer loop
      vertex 4.22265347 1.02046196 1.4047574
      vertex 4.2240184 1.02167111 1.40738702
      vertex 4.22501569 1.02124252 1.40677003
    endloop
  endfacet
  facet normal -0.0972237557 -0.884134449 0.45700527
    outer loop
      vertex 4.20806991 0.887841793 1.47330819
      vertex 4.21043212 0.88862235 1.47532082
      vertex 4.20943484 0.889050939 1.47593781
    endloop
  endfacet
  facet normal 0.242914949 0.424213806 0.872373185
    outer loop
      vertex 4.2240184 1.02167111 1.40738702
      vertex 4.22281332 1.02191561 1.40760368
      vertex 4.20822976 0.889295447 1.47615447
    endloop
  endfacet
  facet normal 0.242914949 0.424213806 0.872373185
    outer loop
      vertex 4.2240184 1.02167111 1.40738702
      vertex 4.20822976 0.889295447 1.47615447
      vertex 4.20943484 0.889050939 1.47593781
    endloop
  endfacet
  facet normal 0.0972237557 0.884134449 -0.45700527
    outer loop
      vertex 4.22265347 1.02046196 1.4047574
      vertex 4.22281332 1.02191561 1.40760368
      vertex 4.2240184 1.02167111 1.40738702
    endloop
  endfacet
  facet normal -0.0972237557 -0.884134449 0.45700527
    outer loop
      vertex 4.20806991 0.887841793 1.47330819
      vertex 4.20943484 0.889050939 1.47593781
      vertex 4.20822976 0.889295447 1.47615447
    endloop
  endfacet
  facet normal -0.14492779 0.466862894 0.872373185
    outer loop
      vertex 4.22281332 1.02191561 1.40760368
      vertex 4.22158391 1.02193882 1.40738702
      vertex 4.20700034 0.889318649 1.47593781
    endloop
  endfacet
  facet normal -0.14492779 0.466862894 0.872373185
    outer loop
      vertex 4.22281332 1.02191561 1.40760368
      vertex 4.20700034 0.889318649 1.47593781
      vertex 4.20822976 0.889295447 1.47615447
    endloop
  endfacet
  facet normal 0.0972237557 0.884134449 -0.45700527
    outer loop
      vertex 4.22265347 1.02046196 1.4047574
      vertex 4.22158391 1.02193882 1.40738702
      vertex 4.22281332 1.02191561 1.40760368
    endloop
  endfacet
  facet normal -0.0972237557 -0.884134449 0.45700527
    outer loop
      vertex 4.20806991 0.887841793 1.47330819
      vertex 4.20822976 0.889295447 1.47615447
      vertex 4.20700034 0.889318649 1.47593781
    endloop
  endfacet
  facet normal -0.510706587 0.438436338 0.739562276
    outer loop
      vertex 4.22158391 1.02193882 1.40738702
      vertex 4.22051732 1.02173718 1.40677003
      vertex 4.20593376 0.889117013 1.47532082
    endloop
  endfacet
  facet normal -0.510706587 0.438436338 0.739562276
    outer loop
      vertex 4.22158391 1.02193882 1.40738702
      vertex 4.20593376 0.889117013 1.47532082
      vertex 4.20700034 0.889318649 1.47593781
    endloop
  endfacet
  facet normal 0.0972237557 0.884134449 -0.45700527
    outer loop
      vertex 4.22265347 1.02046196 1.4047574
      vertex 4.22051732 1.02173718 1.40677003
      vertex 4.22158391 1.02193882 1.40738702
    endloop
  endfacet
  facet normal -0.0972237557 -0.884134449 0.45700527
    outer loop
      vertex 4.20806991 0.887841793 1.47330819
      vertex 4.20700034 0.889318649 1.47593781
      vertex 4.20593376 0.889117013 1.47532082
    endloop
  endfacet
  facet normal -0.798734935 0.343261824 0.494159714
    outer loop
      vertex 4.22051732 1.02173718 1.40677003
      vertex 4.21977594 1.0213414 1.40584662
      vertex 4.20519238 0.888721236 1.47439742
    endloop
  endfacet
  facet normal -0.798734935 0.343261824 0.494159714
    outer loop
      vertex 4.22051732 1.02173718 1.40677003
      vertex 4.20519238 0.888721236 1.47439742
      vertex 4.20593376 0.889117013 1.47532082
    endloop
  endfacet
  facet normal 0.0972237557 0.884134449 -0.45700527
    outer loop
      vertex 4.22265347 1.02046196 1.4047574
      vertex 4.21977594 1.0213414 1.40584662
      vertex 4.22051732 1.02173718 1.40677003
    endloop
  endfacet
  facet normal -0.0972237557 -0.884134449 0.45700527
    outer loop
      vertex 4.20806991 0.887841793 1.47330819
      vertex 4.20593376 0.889117013 1.47532082
      vertex 4.20519238 0.888721236 1.47439742
    endloop
  endfacet
  facet normal -0.965163131 0.19582881 0.173525815
    outer loop
      vertex 4.21977594 1.0213414 1.40584662
      vertex 4.21947265 1.02081174 1.4047574
      vertex 4.20488908 0.888191572 1.47330819
    endloop
  endfacet
  facet normal -0.965163131 0.19582881 0.173525815
    outer loop
      vertex 4.21977594 1.0213414 1.40584662
      vertex 4.20488908 0.888191572 1.47330819
      vertex 4.20519238 0.888721236 1.47439742
    endloop
  endfacet
  facet normal 0.0972237557 0.884134449 -0.45700527
    outer loop
      vertex 4.22265347 1.02046196 1.4047574
      vertex 4.21947265 1.02081174 1.4047574
      vertex 4.21977594 1.0213414 1.40584662
    endloop
  endfacet
  facet normal -0.0972237557 -0.884134449 0.45700527
    outer loop
      vertex 4.20806991 0.887841793 1.47330819
      vertex 4.20519238 0.888721236 1.47439742
      vertex 4.20488908 0.888191572 1.47330819
    endloop
  endfacet
  facet normal -0.984653989 0.0185826337 -0.173525815
    outer loop
      vertex 4.23720258 1.02015665 1.42894873
      vertex 4.23738353 1.01957373 1.4278595
      vertex 4.22279997 0.886953567 1.49641029
    endloop
  endfacet
  facet normal -0.984653989 0.0185826337 -0.173525815
    outer loop
      vertex 4.23720258 1.02015665 1.42894873
      vertex 4.22279997 0.886953567 1.49641029
      vertex 4.22261901 0.887536482 1.49749952
    endloop
  endfacet
  facet normal 0.0972237557 0.884134449 -0.45700527
    outer loop
      vertex 4.2403834 1.01980687 1.42894873
      vertex 4.23738353 1.01957373 1.4278595
      vertex 4.23720258 1.02015665 1.42894873
    endloop
  endfacet
  facet normal -0.0972237557 -0.884134449 0.45700527
    outer loop
      vertex 4.22579984 0.887186702 1.49749952
      vertex 4.22261901 0.887536482 1.49749952
      vertex 4.22279997 0.886953567 1.49641029
    endloop
  endfacet
  facet normal -0.854240203 -0.16149258 -0.494159714
    outer loop
      vertex 4.23738353 1.01957373 1.4278595
      vertex 4.23802119 1.01902631 1.4269361
      vertex 4.22343762 0.886406145 1.49548689
    endloop
  endfacet
  facet normal -0.854240203 -0.16149258 -0.494159714
    outer loop
      vertex 4.23738353 1.01957373 1.4278595
      vertex 4.22343762 0.886406145 1.49548689
      vertex 4.22279997 0.886953567 1.49641029
    endloop
  endfacet
  facet normal 0.0972237557 0.884134449 -0.45700527
    outer loop
      vertex 4.2403834 1.01980687 1.42894873
      vertex 4.23802119 1.01902631 1.4269361
      vertex 4.23738353 1.01957373 1.4278595
    endloop
  endfacet
  facet normal -0.0972237557 -0.884134449 0.45700527
    outer loop
      vertex 4.22579984 0.887186702 1.49749952
      vertex 4.22279997 0.886953567 1.49641029
      vertex 4.22343762 0.886406145 1.49548689
    endloop
  endfacet
  facet normal -0.593776089 -0.316982012 -0.739562276
    outer loop
      vertex 4.23802119 1.01902631 1.4269361
      vertex 4.23901847 1.01859772 1.4263191
      vertex 4.22443491 0.885977556 1.49486989
    endloop
  endfacet
  facet normal -0.593776089 -0.316982012 -0.739562276
    outer loop
      vertex 4.23802119 1.01902631 1.4269361
      vertex 4.22443491 0.885977556 1.49486989
      vertex 4.22343762 0.886406145 1.49548689
    endloop
  endfacet
  facet normal 0.0972237557 0.884134449 -0.45700527
    outer loop
      vertex 4.2403834 1.01980687 1.42894873
      vertex 4.23901847 1.01859772 1.4263191
      vertex 4.23802119 1.01902631 1.4269361
    endloop
  endfacet
  facet normal -0.0972237557 -0.884134449 0.45700527
    outer loop
      vertex 4.22579984 0.887186702 1.49749952
      vertex 4.22343762 0.886406145 1.49548689
      vertex 4.22443491 0.885977556 1.49486989
    endloop
  endfacet
  facet normal -0.242914949 -0.424213806 -0.872373185
    outer loop
      vertex 4.23901847 1.01859772 1.4263191
      vertex 4.24022355 1.01835322 1.42610244
      vertex 4.22563999 0.885733048 1.49465323
    endloop
  endfacet
  facet normal -0.242914949 -0.424213806 -0.872373185
    outer loop
      vertex 4.23901847 1.01859772 1.4263191
      vertex 4.22563999 0.885733048 1.49465323
      vertex 4.22443491 0.885977556 1.49486989
    endloop
  endfacet
  facet normal 0.0972237557 0.884134449 -0.45700527
    outer loop
      vertex 4.2403834 1.01980687 1.42894873
      vertex 4.24022355 1.01835322 1.42610244
      vertex 4.23901847 1.01859772 1.4263191
    endloop
  endfacet
  facet normal -0.0972237557 -0.884134449 0.45700527
    outer loop
      vertex 4.22579984 0.887186702 1.49749952
      vertex 4.22443491 0.885977556 1.49486989
      vertex 4.22563999 0.885733048 1.49465323
    endloop
  endfacet
  facet normal 0.14492779 -0.466862894 -0.872373185
    outer loop
      vertex 4.24022355 1.01835322 1.42610244
      vertex 4.24145297 1.01833001 1.4263191
      vertex 4.22686941 0.885709846 1.49486989
    endloop
  endfacet
  facet normal 0.14492779 -0.466862894 -0.872373185
    outer loop
      vertex 4.24022355 1.01835322 1.42610244
      vertex 4.22686941 0.885709846 1.49486989
      vertex 4.22563999 0.885733048 1.49465323
    endloop
  endfacet
  facet normal 0.0972237557 0.884134449 -0.45700527
    outer loop
      vertex 4.2403834 1.01980687 1.42894873
      vertex 4.24145297 1.01833001 1.4263191
      vertex 4.24022355 1.01835322 1.42610244
    endloop
  endfacet
  facet normal -0.0972237557 -0.884134449 0.45700527
    outer loop
      vertex 4.22579984 0.887186702 1.49749952
      vertex 4.22563999 0.885733048 1.49465323
      vertex 4.22686941 0.885709846 1.49486989
    endloop
  endfacet
  facet normal 0.510706587 -0.438436338 -0.739562276
    outer loop
      vertex 4.24145297 1.01833001 1.4263191
      vertex 4.24251955 1.01853165 1.4269361
      vertex 4.22793599 0.885911482 1.49548689
    endloop
  endfacet
  facet normal 0.510706587 -0.438436338 -0.739562276
    outer loop
      vertex 4.24145297 1.01833001 1.4263191
      vertex 4.22793599 0.885911482 1.49548689
      vertex 4.22686941 0.885709846 1.49486989
    endloop
  endfacet
  facet normal 0.0972237557 0.884134449 -0.45700527
    outer loop
      vertex 4.2403834 1.01980687 1.42894873
      vertex 4.24251955 1.01853165 1.4269361
      vertex 4.24145297 1.01833001 1.4263191
    endloop
  endfacet
  facet normal -0.0972237557 -0.884134449 0.45700527
    outer loop
      vertex 4.22579984 0.887186702 1.49749952
      vertex 4.22686941 0.885709846 1.49486989
      vertex 4.22793599 0.885911482 1.49548689
    endloop
  endfacet
  facet normal 0.798734935 -0.343261824 -0.494159714
    outer loop
      vertex 4.24251955 1.01853165 1.4269361
      vertex 4.24326093 1.01892743 1.4278595
      vertex 4.22867737 0.886307259 1.49641029
    endloop
  endfacet
  facet normal 0.798734935 -0.343261824 -0.494159714
    outer loop
      vertex 4.24251955 1.01853165 1.4269361
      vertex 4.22867737 0.886307259 1.49641029
      vertex 4.22793599 0.885911482 1.49548689
    endloop
  endfacet
  facet normal 0.0972237557 0.884134449 -0.45700527
    outer loop
      vertex 4.2403834 1.01980687 1.42894873
      vertex 4.24326093 1.01892743 1.4278595
      vertex 4.24251955 1.01853165 1.4269361
    endloop
  endfacet
  facet normal -0.0972237557 -0.884134449 0.45700527
    outer loop
      vertex 4.22579984 0.887186702 1.49749952
      vertex 4.22793599 0.885911482 1.49548689
      vertex 4.22867737 0.886307259 1.49641029
    endloop
  endfacet
  facet normal 0.965163131 -0.19582881 -0.173525815
    outer loop
      vertex 4.24326093 1.01892743 1.4278595
      vertex 4.24356423 1.01945709 1.42894873
      vertex 4.22898066 0.886836923 1.49749952
    endloop
  endfacet
  facet normal 0.965163131 -0.19582881 -0.173525815
    outer loop
      vertex 4.24326093 1.01892743 1.4278595
      vertex 4.22898066 0.886836923 1.49749952
      vertex 4.22867737 0.886307259 1.49641029
    endloop
  endfacet
  facet normal 0.0972237557 0.884134449 -0.45700527
    outer loop
      vertex 4.2403834 1.01980687 1.42894873
      vertex 4.24356423 1.01945709 1.42894873
      vertex 4.24326093 1.01892743 1.4278595
    endloop
  endfacet
  facet normal -0.0972237557 -0.884134449 0.45700527
    outer loop
      vertex 4.22579984 0.887186702 1.49749952
      vertex 4.22867737 0.886307259 1.49641029
      vertex 4.22898066 0.886836923 1.49749952
    endloop
  endfacet
  facet normal 0.984653989 -0.0185826337 0.173525815
    outer loop
      vertex 4.24356423 1.01945709 1.42894873
      vertex 4.24338327 1.02004001 1.43003795
      vertex 4.22879971 0.887419838 1.49858874
    endloop
  endfacet
  facet normal 0.984653989 -0.0185826337 0.173525815
    outer loop
      vertex 4.24356423 1.01945709 1.42894873
      vertex 4.22879971 0.887419838 1.49858874
      vertex 4.22898066 0.886836923 1.49749952
    endloop
  endfacet
  facet normal 0.0972237557 0.884134449 -0.45700527
    outer loop
      vertex 4.2403834 1.01980687 1.42894873
      vertex 4.24338327 1.02004001 1.43003795
      vertex 4.24356423 1.01945709 1.42894873
    endloop
  endfacet
  facet normal -0.0972237557 -0.884134449 0.45700527
    outer loop
      vertex 4.22579984 0.887186702 1.49749952
      vertex 4.22898066 0.886836923 1.49749952
      vertex 4.22879971 0.887419838 1.49858874
    endloop
  endfacet
  facet normal 0.854240203 0.16149258 0.494159714
    outer loop
      vertex 4.24338327 1.02004001 1.43003795
      vertex 4.24274562 1.02058743 1.43096136
      vertex 4.22816205 0.88796726 1.49951215
    endloop
  endfacet
  facet normal 0.854240203 0.16149258 0.494159714
    outer loop
      vertex 4.24338327 1.02004001 1.43003795
      vertex 4.22816205 0.88796726 1.49951215
      vertex 4.22879971 0.887419838 1.49858874
    endloop
  endfacet
  facet normal 0.0972237557 0.884134449 -0.45700527
    outer loop
      vertex 4.2403834 1.01980687 1.42894873
      vertex 4.24274562 1.02058743 1.43096136
      vertex 4.24338327 1.02004001 1.43003795
    endloop
  endfacet
  facet normal -0.0972237557 -0.884134449 0.45700527
    outer loop
      vertex 4.22579984 0.887186702 1.49749952
      vertex 4.22879971 0.887419838 1.49858874
      vertex 4.22816205 0.88796726 1.49951215
    endloop
  endfacet
  facet normal 0.593776089 0.316982012 0.739562276
    outer loop
      vertex 4.24274562 1.02058743 1.43096136
      vertex 4.24174833 1.02101602 1.43157835
      vertex 4.22716477 0.888395849 1.50012914
    endloop
  endfacet
  facet normal 0.593776089 0.316982012 0.739562276
    outer loop
      vertex 4.24274562 1.02058743 1.43096136
      vertex 4.22716477 0.888395849 1.50012914
      vertex 4.22816205 0.88796726 1.49951215
    endloop
  endfacet
  facet normal 0.0972237557 0.884134449 -0.45700527
    outer loop
      vertex 4.2403834 1.01980687 1.42894873
      vertex 4.24174833 1.02101602 1.43157835
      vertex 4.24274562 1.02058743 1.43096136
    endloop
  endfacet
  facet normal -0.0972237557 -0.884134449 0.45700527
    outer loop
      vertex 4.22579984 0.887186702 1.49749952
      vertex 4.22816205 0.88796726 1.49951215
      vertex 4.22716477 0.888395849 1.50012914
    endloop
  endfacet
  facet normal 0.242914949 0.424213806 0.872373185
    outer loop
      vertex 4.24174833 1.02101602 1.43157835
      vertex 4.24054325 1.02126052 1.43179501
      vertex 4.22595969 0.888640357 1.5003458
    endloop
  endfacet
  facet normal 0.242914949 0.424213806 0.872373185
    outer loop
      vertex 4.24174833 1.02101602 1.43157835
      vertex 4.22595969 0.888640357 1.5003458
      vertex 4.22716477 0.888395849 1.50012914
    endloop
  endfacet
  facet normal 0.0972237557 0.884134449 -0.45700527
    outer loop
      vertex 4.2403834 1.01980687 1.42894873
      vertex 4.24054325 1.02126052 1.43179501
      vertex 4.24174833 1.02101602 1.43157835
    endloop
  endfacet
  facet normal -0.0972237557 -0.884134449 0.45700527
    outer loop
      vertex 4.22579984 0.887186702 1.49749952
      vertex 4.22716477 0.888395849 1.50012914
      vertex 4.22595969 0.888640357 1.5003458
    endloop
  endfacet
  facet normal -0.14492779 0.466862894 0.872373185
    outer loop
      vertex 4.24054325 1.02126052 1.43179501
      vertex 4.23931384 1.02128373 1.43157835
      vertex 4.22473027 0.888663558 1.50012914
    endloop
  endfacet
  facet normal -0.14492779 0.466862894 0.872373185
    outer loop
      vertex 4.24054325 1.02126052 1.43179501
      vertex 4.22473027 0.888663558 1.50012914
      vertex 4.22595969 0.888640357 1.5003458
    endloop
  endfacet
  facet normal 0.0972237557 0.884134449 -0.45700527
    outer loop
      vertex 4.2403834 1.01980687 1.42894873
      vertex 4.23931384 1.02128373 1.43157835
      vertex 4.24054325 1.02126052 1.43179501
    endloop
  endfacet
  facet normal -0.0972237557 -0.884134449 0.45700527
    outer loop
      vertex 4.22579984 0.887186702 1.49749952
      vertex 4.22595969 0.888640357 1.5003458
      vertex 4.22473027 0.888663558 1.50012914
    endloop
  endfacet
  facet normal -0.510706587 0.438436338 0.739562276
    outer loop
      vertex 4.23931384 1.02128373 1.43157835
      vertex 4.23824725 1.02108209 1.43096136
      vertex 4.22366369 0.888461922 1.49951215
    endloop
  endfacet
  facet normal -0.510706587 0.438436338 0.739562276
    outer loop
      vertex 4.23931384 1.02128373 1.43157835
      vertex 4.22366369 0.888461922 1.49951215
      vertex 4.22473027 0.888663558 1.50012914
    endloop
  endfacet
  facet normal 0.0972237557 0.884134449 -0.45700527
    outer loop
      vertex 4.2403834 1.01980687 1.42894873
      vertex 4.23824725 1.02108209 1.43096136
      vertex 4.23931384 1.02128373 1.43157835
    endloop
  endfacet
  facet normal -0.0972237557 -0.884134449 0.45700527
    outer loop
      vertex 4.22579984 0.887186702 1.49749952
      vertex 4.22473027 0.888663558 1.50012914
      vertex 4.22366369 0.888461922 1.49951215
    endloop
  endfacet
  facet normal -0.798734935 0.343261824 0.494159714
    outer loop
      vertex 4.23824725 1.02108209 1.43096136
      vertex 4.23750587 1.02068631 1.43003795
      vertex 4.22292231 0.888066146 1.49858874
    endloop
  endfacet
  facet normal -0.798734935 0.343261824 0.494159714
    outer loop
      vertex 4.23824725 1.02108209 1.43096136
      vertex 4.22292231 0.888066146 1.49858874
      vertex 4.22366369 0.888461922 1.49951215
    endloop
  endfacet
  facet normal 0.0972237557 0.884134449 -0.45700527
    outer loop
      vertex 4.2403834 1.01980687 1.42894873
      vertex 4.23750587 1.02068631 1.43003795
      vertex 4.23824725 1.02108209 1.43096136
    endloop
  endfacet
  facet normal -0.0972237557 -0.884134449 0.45700527
    outer loop
      vertex 4.22579984 0.887186702 1.49749952
      vertex 4.22366369 0.888461922 1.49951215
      vertex 4.22292231 0.888066146 1.49858874
    endloop
  endfacet
  facet normal -0.965163131 0.19582881 0.173525815
    outer loop
      vertex 4.23750587 1.02068631 1.43003795
      vertex 4.23720258 1.02015665 1.42894873
      vertex 4.22261901 0.887536482 1.49749952
    endloop
  endfacet
  facet normal -0.965163131 0.19582881 0.173525815
    outer loop
      vertex 4.23750587 1.02068631 1.43003795
      vertex 4.22261901 0.887536482 1.49749952
      vertex 4.22292231 0.888066146 1.49858874
    endloop
  endfacet
  facet normal 0.0972237557 0.884134449 -0.45700527
    outer loop
      vertex 4.2403834 1.01980687 1.42894873
      vertex 4.23720258 1.02015665 1.42894873
      vertex 4.23750587 1.02068631 1.43003795
    endloop
  endfacet
  facet normal -0.0972237557 -0.884134449 0.45700527
    outer loop
      vertex 4.22579984 0.887186702 1.49749952
      vertex 4.22292231 0.888066146 1.49858874
      vertex 4.22261901 0.887536482 1.49749952
    endloop
  endfacet
  facet normal 0.162187372 -0.979950887 -0.115721717
    outer loop
      vertex 4.3454601 0.974556831 1.32642635
      vertex 4.3464447 0.974805567 1.32569996
      vertex 4.39982927 0.975084621 1.39815692
    endloop
  endfacet
  facet normal 0.162187372 -0.979950887 -0.115721717
    outer loop
      vertex 4.3454601 0.974556831 1.32642635
      vertex 4.39982927 0.975084621 1.39815692
      vertex 4.39884467 0.974835885 1.3988833
    endloop
  endfacet
  facet normal -0.593161851 -0.00310060229 -0.805077266
    outer loop
      vertex 4.34544337 0.977756787 1.32642635
      vertex 4.3464447 0.974805567 1.32569996
      vertex 4.3454601 0.974556831 1.32642635
    endloop
  endfacet
  facet normal 0.593161851 0.00310060229 0.805077266
    outer loop
      vertex 4.39882794 0.978035842 1.3988833
      vertex 4.39884467 0.974835885 1.3988833
      vertex 4.39982927 0.975084621 1.39815692
    endloop
  endfacet
  facet normal 0.45161709 -0.829120259 -0.32954757
    outer loop
      vertex 4.3464447 0.974805567 1.32569996
      vertex 4.34727686 0.975503599 1.32508416
      vertex 4.40066142 0.975782653 1.39754111
    endloop
  endfacet
  facet normal 0.45161709 -0.829120259 -0.32954757
    outer loop
      vertex 4.3464447 0.974805567 1.32569996
      vertex 4.40066142 0.975782653 1.39754111
      vertex 4.39982927 0.975084621 1.39815692
    endloop
  endfacet
  facet normal -0.593161851 -0.00310060229 -0.805077266
    outer loop
      vertex 4.34544337 0.977756787 1.32642635
      vertex 4.34727686 0.975503599 1.32508416
      vertex 4.3464447 0.974805567 1.32569996
    endloop
  endfacet
  facet normal 0.593161851 0.00310060229 0.805077266
    outer loop
      vertex 4.39882794 0.978035842 1.3988833
      vertex 4.39982927 0.975084621 1.39815692
      vertex 4.40066142 0.975782653 1.39754111
    endloop
  endfacet
  facet normal 0.672292199 -0.552063587 -0.493202792
    outer loop
      vertex 4.34727686 0.975503599 1.32508416
      vertex 4.34782988 0.976544659 1.32467269
      vertex 4.40121445 0.976823713 1.39712965
    endloop
  endfacet
  facet normal 0.672292199 -0.552063587 -0.493202792
    outer loop
      vertex 4.34727686 0.975503599 1.32508416
      vertex 4.40121445 0.976823713 1.39712965
      vertex 4.40066142 0.975782653 1.39754111
    endloop
  endfacet
  facet normal -0.593161851 -0.00310060229 -0.805077266
    outer loop
      vertex 4.34544337 0.977756787 1.32642635
      vertex 4.34782988 0.976544659 1.32467269
      vertex 4.34727686 0.975503599 1.32508416
    endloop
  endfacet
  facet normal 0.593161851 0.00310060229 0.805077266
    outer loop
      vertex 4.39882794 0.978035842 1.3988833
      vertex 4.40066142 0.975782653 1.39754111
      vertex 4.40121445 0.976823713 1.39712965
    endloop
  endfacet
  facet normal 0.790616916 -0.190960239 -0.58177236
    outer loop
      vertex 4.34782988 0.976544659 1.32467269
      vertex 4.34801958 0.977770254 1.32452821
      vertex 4.40140415 0.978049308 1.39698516
    endloop
  endfacet
  facet normal 0.790616916 -0.190960239 -0.58177236
    outer loop
      vertex 4.34782988 0.976544659 1.32467269
      vertex 4.40140415 0.978049308 1.39698516
      vertex 4.40121445 0.976823713 1.39712965
    endloop
  endfacet
  facet normal -0.593161851 -0.00310060229 -0.805077266
    outer loop
      vertex 4.34544337 0.977756787 1.32642635
      vertex 4.34801958 0.977770254 1.32452821
      vertex 4.34782988 0.976544659 1.32467269
    endloop
  endfacet
  facet normal 0.593161851 0.00310060229 0.805077266
    outer loop
      vertex 4.39882794 0.978035842 1.3988833
      vertex 4.40121445 0.976823713 1.39712965
      vertex 4.40140415 0.978049308 1.39698516
    endloop
  endfacet
  facet normal 0.788577374 0.199215074 -0.58177236
    outer loop
      vertex 4.34801958 0.977770254 1.32452821
      vertex 4.34781708 0.978993799 1.32467269
      vertex 4.40120165 0.979272853 1.39712965
    endloop
  endfacet
  facet normal 0.788577374 0.199215074 -0.58177236
    outer loop
      vertex 4.34801958 0.977770254 1.32452821
      vertex 4.40120165 0.979272853 1.39712965
      vertex 4.40140415 0.978049308 1.39698516
    endloop
  endfacet
  facet normal -0.593161851 -0.00310060229 -0.805077266
    outer loop
      vertex 4.34544337 0.977756787 1.32642635
      vertex 4.34781708 0.978993799 1.32467269
      vertex 4.34801958 0.977770254 1.32452821
    endloop
  endfacet
  facet normal 0.593161851 0.00310060229 0.805077266
    outer loop
      vertex 4.39882794 0.978035842 1.3988833
      vertex 4.40140415 0.978049308 1.39698516
      vertex 4.40120165 0.979272853 1.39712965
    endloop
  endfacet
  facet normal 0.666484075 0.559061699 -0.493202792
    outer loop
      vertex 4.34781708 0.978993799 1.32467269
      vertex 4.3472532 0.98002902 1.32508416
      vertex 4.40063777 0.980308075 1.39754111
    endloop
  endfacet
  facet normal 0.666484075 0.559061699 -0.493202792
    outer loop
      vertex 4.34781708 0.978993799 1.32467269
      vertex 4.40063777 0.980308075 1.39754111
      vertex 4.40120165 0.979272853 1.39712965
    endloop
  endfacet
  facet normal -0.593161851 -0.00310060229 -0.805077266
    outer loop
      vertex 4.34544337 0.977756787 1.32642635
      vertex 4.3472532 0.98002902 1.32508416
      vertex 4.34781708 0.978993799 1.32467269
    endloop
  endfacet
  facet normal 0.593161851 0.00310060229 0.805077266
    outer loop
      vertex 4.39882794 0.978035842 1.3988833
      vertex 4.40120165 0.979272853 1.39712965
      vertex 4.40063777 0.980308075 1.39754111
    endloop
  endfacet
  facet normal 0.442924618 0.833796247 -0.32954757
    outer loop
      vertex 4.3472532 0.98002902 1.32508416
      vertex 4.34641379 0.980718315 1.32569996
      vertex 4.39979836 0.980997369 1.39815692
    endloop
  endfacet
  facet normal 0.442924618 0.833796247 -0.32954757
    outer loop
      vertex 4.3472532 0.98002902 1.32508416
      vertex 4.39979836 0.980997369 1.39815692
      vertex 4.40063777 0.980308075 1.39754111
    endloop
  endfacet
  facet normal -0.593161851 -0.00310060229 -0.805077266
    outer loop
      vertex 4.34544337 0.977756787 1.32642635
      vertex 4.34641379 0.980718315 1.32569996
      vertex 4.3472532 0.98002902 1.32508416
    endloop
  endfacet
  facet normal 0.593161851 0.00310060229 0.805077266
    outer loop
      vertex 4.39882794 0.978035842 1.3988833
      vertex 4.40063777 0.980308075 1.39754111
      vertex 4.39979836 0.980997369 1.39815692
    endloop
  endfacet
  facet normal 0.151933903 0.981592876 -0.115721717
    outer loop
      vertex 4.34641379 0.980718315 1.32569996
      vertex 4.34542665 0.980956744 1.32642635
      vertex 4.39881121 0.981235798 1.3988833
    endloop
  endfacet
  facet normal 0.151933903 0.981592876 -0.115721717
    outer loop
      vertex 4.34641379 0.980718315 1.32569996
      vertex 4.39881121 0.981235798 1.3988833
      vertex 4.39979836 0.980997369 1.39815692
    endloop
  endfacet
  facet normal -0.593161851 -0.00310060229 -0.805077266
    outer loop
      vertex 4.34544337 0.977756787 1.32642635
      vertex 4.34542665 0.980956744 1.32642635
      vertex 4.34641379 0.980718315 1.32569996
    endloop
  endfacet
  facet normal 0.593161851 0.00310060229 0.805077266
    outer loop
      vertex 4.39882794 0.978035842 1.3988833
      vertex 4.39979836 0.980997369 1.39815692
      vertex 4.39881121 0.981235798 1.3988833
    endloop
  endfacet
  facet normal -0.162187372 0.979950887 0.115721717
    outer loop
      vertex 4.34542665 0.980956744 1.32642635
      vertex 4.34444204 0.980708008 1.32715274
      vertex 4.39782661 0.980987062 1.39960969
    endloop
  endfacet
  facet normal -0.162187372 0.979950887 0.115721717
    outer loop
      vertex 4.34542665 0.980956744 1.32642635
      vertex 4.39782661 0.980987062 1.39960969
      vertex 4.39881121 0.981235798 1.3988833
    endloop
  endfacet
  facet normal -0.593161851 -0.00310060229 -0.805077266
    outer loop
      vertex 4.34544337 0.977756787 1.32642635
      vertex 4.34444204 0.980708008 1.32715274
      vertex 4.34542665 0.980956744 1.32642635
    endloop
  endfacet
  facet normal 0.593161851 0.00310060229 0.805077266
    outer loop
      vertex 4.39882794 0.978035842 1.3988833
      vertex 4.39881121 0.981235798 1.3988833
      vertex 4.39782661 0.980987062 1.39960969
    endloop
  endfacet
  facet normal -0.45161709 0.829120259 0.32954757
    outer loop
      vertex 4.34444204 0.980708008 1.32715274
      vertex 4.34360989 0.980009976 1.32776854
      vertex 4.39699445 0.98028903 1.4002255
    endloop
  endfacet
  facet normal -0.45161709 0.829120259 0.32954757
    outer loop
      vertex 4.34444204 0.980708008 1.32715274
      vertex 4.39699445 0.98028903 1.4002255
      vertex 4.39782661 0.980987062 1.39960969
    endloop
  endfacet
  facet normal -0.593161851 -0.00310060229 -0.805077266
    outer loop
      vertex 4.34544337 0.977756787 1.32642635
      vertex 4.34360989 0.980009976 1.32776854
      vertex 4.34444204 0.980708008 1.32715274
    endloop
  endfacet
  facet normal 0.593161851 0.00310060229 0.805077266
    outer loop
      vertex 4.39882794 0.978035842 1.3988833
      vertex 4.39782661 0.980987062 1.39960969
      vertex 4.39699445 0.98028903 1.4002255
    endloop
  endfacet
  facet normal -0.672292199 0.552063587 0.493202792
    outer loop
      vertex 4.34360989 0.980009976 1.32776854
      vertex 4.34305686 0.978968916 1.32818001
      vertex 4.39644143 0.97924797 1.40063696
    endloop
  endfacet
  facet normal -0.672292199 0.552063587 0.493202792
    outer loop
      vertex 4.34360989 0.980009976 1.32776854
      vertex 4.39644143 0.97924797 1.40063696
      vertex 4.39699445 0.98028903 1.4002255
    endloop
  endfacet
  facet normal -0.593161851 -0.00310060229 -0.805077266
    outer loop
      vertex 4.34544337 0.977756787 1.32642635
      vertex 4.34305686 0.978968916 1.32818001
      vertex 4.34360989 0.980009976 1.32776854
    endloop
  endfacet
  facet normal 0.593161851 0.00310060229 0.805077266
    outer loop
      vertex 4.39882794 0.978035842 1.3988833
      vertex 4.39699445 0.98028903 1.4002255
      vertex 4.39644143 0.97924797 1.40063696
    endloop
  endfacet
  facet normal -0.790616916 0.190960239 0.58177236
    outer loop
      vertex 4.34305686 0.978968916 1.32818001
      vertex 4.34286716 0.977743321 1.32832449
      vertex 4.39625173 0.978022375 1.40078145
    endloop
  endfacet
  facet normal -0.790616916 0.190960239 0.58177236
    outer loop
      vertex 4.34305686 0.978968916 1.32818001
      vertex 4.39625173 0.978022375 1.40078145
      vertex 4.39644143 0.97924797 1.40063696
    endloop
  endfacet
  facet normal -0.593161851 -0.00310060229 -0.805077266
    outer loop
      vertex 4.34544337 0.977756787 1.32642635
      vertex 4.34286716 0.977743321 1.32832449
      vertex 4.34305686 0.978968916 1.32818001
    endloop
  endfacet
  facet normal 0.593161851 0.00310060229 0.805077266
    outer loop
      vertex 4.39882794 0.978035842 1.3988833
      vertex 4.39644143 0.97924797 1.40063696
      vertex 4.39625173 0.978022375 1.40078145
    endloop
  endfacet
  facet normal -0.788577374 -0.199215074 0.58177236
    outer loop
      vertex 4.34286716 0.977743321 1.32832449
      vertex 4.34306966 0.976519776 1.32818001
      vertex 4.39645423 0.97679883 1.40063696
    endloop
  endfacet
  facet normal -0.788577374 -0.199215074 0.58177236
    outer loop
      vertex 4.34286716 0.977743321 1.32832449
      vertex 4.39645423 0.97679883 1.40063696
      vertex 4.39625173 0.978022375 1.40078145
    endloop
  endfacet
  facet normal -0.593161851 -0.00310060229 -0.805077266
    outer loop
      vertex 4.34544337 0.977756787 1.32642635
      vertex 4.34306966 0.976519776 1.32818001
      vertex 4.34286716 0.977743321 1.32832449
    endloop
  endfacet
  facet normal 0.593161851 0.00310060229 0.805077266
    outer loop
      vertex 4.39882794 0.978035842 1.3988833
      vertex 4.39625173 0.978022375 1.40078145
      vertex 4.39645423 0.97679883 1.40063696
    endloop
  endfacet
  facet normal -0.666484075 -0.559061699 0.493202792
    outer loop
      vertex 4.34306966 0.976519776 1.32818001
      vertex 4.34363354 0.975484554 1.32776854
      vertex 4.39701811 0.975763609 1.4002255
    endloop
  endfacet
  facet normal -0.666484075 -0.559061699 0.493202792
    outer loop
      vertex 4.34306966 0.976519776 1.32818001
      vertex 4.39701811 0.975763609 1.4002255
      vertex 4.39645423 0.97679883 1.40063696
    endloop
  endfacet
  facet normal -0.593161851 -0.00310060229 -0.805077266
    outer loop
      vertex 4.34544337 0.977756787 1.32642635
      vertex 4.34363354 0.975484554 1.32776854
      vertex 4.34306966 0.976519776 1.32818001
    endloop
  endfacet
  facet normal 0.593161851 0.00310060229 0.805077266
    outer loop
      vertex 4.39882794 0.978035842 1.3988833
      vertex 4.39645423 0.97679883 1.40063696
      vertex 4.39701811 0.975763609 1.4002255
    endloop
  endfacet
  facet normal -0.442924618 -0.833796247 0.32954757
    outer loop
      vertex 4.34363354 0.975484554 1.32776854
      vertex 4.34447295 0.97479526 1.32715274
      vertex 4.39785752 0.975074314 1.39960969
    endloop
  endfacet
  facet normal -0.442924618 -0.833796247 0.32954757
    outer loop
      vertex 4.34363354 0.975484554 1.32776854
      vertex 4.39785752 0.975074314 1.39960969
      vertex 4.39701811 0.975763609 1.4002255
    endloop
  endfacet
  facet normal -0.593161851 -0.00310060229 -0.805077266
    outer loop
      vertex 4.34544337 0.977756787 1.32642635
      vertex 4.34447295 0.97479526 1.32715274
      vertex 4.34363354 0.975484554 1.32776854
    endloop
  endfacet
  facet normal 0.593161851 0.00310060229 0.805077266
    outer loop
      vertex 4.39882794 0.978035842 1.3988833
      vertex 4.39701811 0.975763609 1.4002255
      vertex 4.39785752 0.975074314 1.39960969
    endloop
  endfacet
  facet normal -0.151933903 -0.981592876 0.115721717
    outer loop
      vertex 4.34447295 0.97479526 1.32715274
      vertex 4.3454601 0.974556831 1.32642635
      vertex 4.39884467 0.974835885 1.3988833
    endloop
  endfacet
  facet normal -0.151933903 -0.981592876 0.115721717
    outer loop
      vertex 4.34447295 0.97479526 1.32715274
      vertex 4.39884467 0.974835885 1.3988833
      vertex 4.39785752 0.975074314 1.39960969
    endloop
  endfacet
  facet normal -0.593161851 -0.00310060229 -0.805077266
    outer loop
      vertex 4.34544337 0.977756787 1.32642635
      vertex 4.3454601 0.974556831 1.32642635
      vertex 4.34447295 0.97479526 1.32715274
    endloop
  endfacet
  facet normal 0.593161851 0.00310060229 0.805077266
    outer loop
      vertex 4.39882794 0.978035842 1.3988833
      vertex 4.39785752 0.975074314 1.39960969
      vertex 4.39884467 0.974835885 1.3988833
    endloop
  endfacet
  facet normal 0.162187372 -0.979950887 -0.115721717
    outer loop
      vertex 4.33254034 0.949246678 1.3360428
      vertex 4.33352494 0.949495413 1.33531641
      vertex 4.38690951 0.949774468 1.40777336
    endloop
  endfacet
  facet normal 0.162187372 -0.979950887 -0.115721717
    outer loop
      vertex 4.33254034 0.949246678 1.3360428
      vertex 4.38690951 0.949774468 1.40777336
      vertex 4.38592491 0.949525732 1.40849975
    endloop
  endfacet
  facet normal -0.593161851 -0.00310060229 -0.805077266
    outer loop
      vertex 4.33252362 0.952446634 1.3360428
      vertex 4.33352494 0.949495413 1.33531641
      vertex 4.33254034 0.949246678 1.3360428
    endloop
  endfacet
  facet normal 0.593161851 0.00310060229 0.805077266
    outer loop
      vertex 4.38590818 0.952725688 1.40849975
      vertex 4.38592491 0.949525732 1.40849975
      vertex 4.38690951 0.949774468 1.40777336
    endloop
  endfacet
  facet normal 0.45161709 -0.829120259 -0.32954757
    outer loop
      vertex 4.33352494 0.949495413 1.33531641
      vertex 4.3343571 0.950193445 1.33470061
      vertex 4.38774167 0.9504725 1.40715756
    endloop
  endfacet
  facet normal 0.45161709 -0.829120259 -0.32954757
    outer loop
      vertex 4.33352494 0.949495413 1.33531641
      vertex 4.38774167 0.9504725 1.40715756
      vertex 4.38690951 0.949774468 1.40777336
    endloop
  endfacet
  facet normal -0.593161851 -0.00310060229 -0.805077266
    outer loop
      vertex 4.33252362 0.952446634 1.3360428
      vertex 4.3343571 0.950193445 1.33470061
      vertex 4.33352494 0.949495413 1.33531641
    endloop
  endfacet
  facet normal 0.593161851 0.00310060229 0.805077266
    outer loop
      vertex 4.38590818 0.952725688 1.40849975
      vertex 4.38690951 0.949774468 1.40777336
      vertex 4.38774167 0.9504725 1.40715756
    endloop
  endfacet
  facet normal 0.672292199 -0.552063587 -0.493202792
    outer loop
      vertex 4.3343571 0.950193445 1.33470061
      vertex 4.33491013 0.951234505 1.33428914
      vertex 4.38829469 0.951513559 1.4067461
    endloop
  endfacet
  facet normal 0.672292199 -0.552063587 -0.493202792
    outer loop
      vertex 4.3343571 0.950193445 1.33470061
      vertex 4.38829469 0.951513559 1.4067461
      vertex 4.38774167 0.9504725 1.40715756
    endloop
  endfacet
  facet normal -0.593161851 -0.00310060229 -0.805077266
    outer loop
      vertex 4.33252362 0.952446634 1.3360428
      vertex 4.33491013 0.951234505 1.33428914
      vertex 4.3343571 0.950193445 1.33470061
    endloop
  endfacet
  facet normal 0.593161851 0.00310060229 0.805077266
    outer loop
      vertex 4.38590818 0.952725688 1.40849975
      vertex 4.38774167 0.9504725 1.40715756
      vertex 4.38829469 0.951513559 1.4067461
    endloop
  endfacet
  facet normal 0.790616916 -0.190960239 -0.58177236
    outer loop
      vertex 4.33491013 0.951234505 1.33428914
      vertex 4.33509983 0.952460101 1.33414465
      vertex 4.3884844 0.952739155 1.40660161
    endloop
  endfacet
  facet normal 0.790616916 -0.190960239 -0.58177236
    outer loop
      vertex 4.33491013 0.951234505 1.33428914
      vertex 4.3884844 0.952739155 1.40660161
      vertex 4.38829469 0.951513559 1.4067461
    endloop
  endfacet
  facet normal -0.593161851 -0.00310060229 -0.805077266
    outer loop
      vertex 4.33252362 0.952446634 1.3360428
      vertex 4.33509983 0.952460101 1.33414465
      vertex 4.33491013 0.951234505 1.33428914
    endloop
  endfacet
  facet normal 0.593161851 0.00310060229 0.805077266
    outer loop
      vertex 4.38590818 0.952725688 1.40849975
      vertex 4.38829469 0.951513559 1.4067461
      vertex 4.3884844 0.952739155 1.40660161
    endloop
  endfacet
  facet normal 0.788577374 0.199215074 -0.58177236
    outer loop
      vertex 4.33509983 0.952460101 1.33414465
      vertex 4.33489733 0.953683646 1.33428914
      vertex 4.38828189 0.9539627 1.4067461
    endloop
  endfacet
  facet normal 0.788577374 0.199215074 -0.58177236
    outer loop
      vertex 4.33509983 0.952460101 1.33414465
      vertex 4.38828189 0.9539627 1.4067461
      vertex 4.3884844 0.952739155 1.40660161
    endloop
  endfacet
  facet normal -0.593161851 -0.00310060229 -0.805077266
    outer loop
      vertex 4.33252362 0.952446634 1.3360428
      vertex 4.33489733 0.953683646 1.33428914
      vertex 4.33509983 0.952460101 1.33414465
    endloop
  endfacet
  facet normal 0.593161851 0.00310060229 0.805077266
    outer loop
      vertex 4.38590818 0.952725688 1.40849975
      vertex 4.3884844 0.952739155 1.40660161
      vertex 4.38828189 0.9539627 1.4067461
    endloop
  endfacet
  facet normal 0.666484075 0.559061699 -0.493202792
    outer loop
      vertex 4.33489733 0.953683646 1.33428914
      vertex 4.33433345 0.954718867 1.33470061
      vertex 4.38771801 0.954997921 1.40715756
    endloop
  endfacet
  facet normal 0.666484075 0.559061699 -0.493202792
    outer loop
      vertex 4.33489733 0.953683646 1.33428914
      vertex 4.38771801 0.954997921 1.40715756
      vertex 4.38828189 0.9539627 1.4067461
    endloop
  endfacet
  facet normal -0.593161851 -0.00310060229 -0.805077266
    outer loop
      vertex 4.33252362 0.952446634 1.3360428
      vertex 4.33433345 0.954718867 1.33470061
      vertex 4.33489733 0.953683646 1.33428914
    endloop
  endfacet
  facet normal 0.593161851 0.00310060229 0.805077266
    outer loop
      vertex 4.38590818 0.952725688 1.40849975
      vertex 4.38828189 0.9539627 1.4067461
      vertex 4.38771801 0.954997921 1.40715756
    endloop
  endfacet
  facet normal 0.442924618 0.833796247 -0.32954757
    outer loop
      vertex 4.33433345 0.954718867 1.33470061
      vertex 4.33349404 0.955408162 1.33531641
      vertex 4.3868786 0.955687216 1.40777336
    endloop
  endfacet
  facet normal 0.442924618 0.833796247 -0.32954757
    outer loop
      vertex 4.33433345 0.954718867 1.33470061
      vertex 4.3868786 0.955687216 1.40777336
      vertex 4.38771801 0.954997921 1.40715756
    endloop
  endfacet
  facet normal -0.593161851 -0.00310060229 -0.805077266
    outer loop
      vertex 4.33252362 0.952446634 1.3360428
      vertex 4.33349404 0.955408162 1.33531641
      vertex 4.33433345 0.954718867 1.33470061
    endloop
  endfacet
  facet normal 0.593161851 0.00310060229 0.805077266
    outer loop
      vertex 4.38590818 0.952725688 1.40849975
      vertex 4.38771801 0.954997921 1.40715756
      vertex 4.3868786 0.955687216 1.40777336
    endloop
  endfacet
  facet normal 0.151933903 0.981592876 -0.115721717
    outer loop
      vertex 4.33349404 0.955408162 1.33531641
      vertex 4.33250689 0.95564659 1.3360428
      vertex 4.38589146 0.955925645 1.40849975
    endloop
  endfacet
  facet normal 0.151933903 0.981592876 -0.115721717
    outer loop
      vertex 4.33349404 0.955408162 1.33531641
      vertex 4.38589146 0.955925645 1.40849975
      vertex 4.3868786 0.955687216 1.40777336
    endloop
  endfacet
  facet normal -0.593161851 -0.00310060229 -0.805077266
    outer loop
      vertex 4.33252362 0.952446634 1.3360428
      vertex 4.33250689 0.95564659 1.3360428
      vertex 4.33349404 0.955408162 1.33531641
    endloop
  endfacet
  facet normal 0.593161851 0.00310060229 0.805077266
    outer loop
      vertex 4.38590818 0.952725688 1.40849975
      vertex 4.3868786 0.955687216 1.40777336
      vertex 4.38589146 0.955925645 1.40849975
    endloop
  endfacet
  facet normal -0.162187372 0.979950887 0.115721717
    outer loop
      vertex 4.33250689 0.95564659 1.3360428
      vertex 4.33152229 0.955397855 1.33676919
      vertex 4.38490686 0.955676909 1.40922614
    endloop
  endfacet
  facet normal -0.162187372 0.979950887 0.115721717
    outer loop
      vertex 4.33250689 0.95564659 1.3360428
      vertex 4.38490686 0.955676909 1.40922614
      vertex 4.38589146 0.955925645 1.40849975
    endloop
  endfacet
  facet normal -0.593161851 -0.00310060229 -0.805077266
    outer loop
      vertex 4.33252362 0.952446634 1.3360428
      vertex 4.33152229 0.955397855 1.33676919
      vertex 4.33250689 0.95564659 1.3360428
    endloop
  endfacet
  facet normal 0.593161851 0.00310060229 0.805077266
    outer loop
      vertex 4.38590818 0.952725688 1.40849975
      vertex 4.38589146 0.955925645 1.40849975
      vertex 4.38490686 0.955676909 1.40922614
    endloop
  endfacet
  facet normal -0.45161709 0.829120259 0.32954757
    outer loop
      vertex 4.33152229 0.955397855 1.33676919
      vertex 4.33069013 0.954699823 1.33738499
      vertex 4.3840747 0.954978877 1.40984194
    endloop
  endfacet
  facet normal -0.45161709 0.829120259 0.32954757
    outer loop
      vertex 4.33152229 0.955397855 1.33676919
      vertex 4.3840747 0.954978877 1.40984194
      vertex 4.38490686 0.955676909 1.40922614
    endloop
  endfacet
  facet normal -0.593161851 -0.00310060229 -0.805077266
    outer loop
      vertex 4.33252362 0.952446634 1.3360428
      vertex 4.33069013 0.954699823 1.33738499
      vertex 4.33152229 0.955397855 1.33676919
    endloop
  endfacet
  facet normal 0.593161851 0.00310060229 0.805077266
    outer loop
      vertex 4.38590818 0.952725688 1.40849975
      vertex 4.38490686 0.955676909 1.40922614
      vertex 4.3840747 0.954978877 1.40984194
    endloop
  endfacet
  facet normal -0.672292199 0.552063587 0.493202792
    outer loop
      vertex 4.33069013 0.954699823 1.33738499
      vertex 4.33013711 0.953658763 1.33779645
      vertex 4.38352167 0.953937817 1.41025341
    endloop
  endfacet
  facet normal -0.672292199 0.552063587 0.493202792
    outer loop
      vertex 4.33069013 0.954699823 1.33738499
      vertex 4.38352167 0.953937817 1.41025341
      vertex 4.3840747 0.954978877 1.40984194
    endloop
  endfacet
  facet normal -0.593161851 -0.00310060229 -0.805077266
    outer loop
      vertex 4.33252362 0.952446634 1.3360428
      vertex 4.33013711 0.953658763 1.33779645
      vertex 4.33069013 0.954699823 1.33738499
    endloop
  endfacet
  facet normal 0.593161851 0.00310060229 0.805077266
    outer loop
      vertex 4.38590818 0.952725688 1.40849975
      vertex 4.3840747 0.954978877 1.40984194
      vertex 4.38352167 0.953937817 1.41025341
    endloop
  endfacet
  facet normal -0.790616916 0.190960239 0.58177236
    outer loop
      vertex 4.33013711 0.953658763 1.33779645
      vertex 4.3299474 0.952433168 1.33794094
      vertex 4.38333197 0.952712222 1.4103979
    endloop
  endfacet
  facet normal -0.790616916 0.190960239 0.58177236
    outer loop
      vertex 4.33013711 0.953658763 1.33779645
      vertex 4.38333197 0.952712222 1.4103979
      vertex 4.38352167 0.953937817 1.41025341
    endloop
  endfacet
  facet normal -0.593161851 -0.00310060229 -0.805077266
    outer loop
      vertex 4.33252362 0.952446634 1.3360428
      vertex 4.3299474 0.952433168 1.33794094
      vertex 4.33013711 0.953658763 1.33779645
    endloop
  endfacet
  facet normal 0.593161851 0.00310060229 0.805077266
    outer loop
      vertex 4.38590818 0.952725688 1.40849975
      vertex 4.38352167 0.953937817 1.41025341
      vertex 4.38333197 0.952712222 1.4103979
    endloop
  endfacet
  facet normal -0.788577374 -0.199215074 0.58177236
    outer loop
      vertex 4.3299474 0.952433168 1.33794094
      vertex 4.33014991 0.951209622 1.33779645
      vertex 4.38353447 0.951488677 1.41025341
    endloop
  endfacet
  facet normal -0.788577374 -0.199215074 0.58177236
    outer loop
      vertex 4.3299474 0.952433168 1.33794094
      vertex 4.38353447 0.951488677 1.41025341
      vertex 4.38333197 0.952712222 1.4103979
    endloop
  endfacet
  facet normal -0.593161851 -0.00310060229 -0.805077266
    outer loop
      vertex 4.33252362 0.952446634 1.3360428
      vertex 4.33014991 0.951209622 1.33779645
      vertex 4.3299474 0.952433168 1.33794094
    endloop
  endfacet
  facet normal 0.593161851 0.00310060229 0.805077266
    outer loop
      vertex 4.38590818 0.952725688 1.40849975
      vertex 4.38333197 0.952712222 1.4103979
      vertex 4.38353447 0.951488677 1.41025341
    endloop
  endfacet
  facet normal -0.666484075 -0.559061699 0.493202792
    outer loop
      vertex 4.33014991 0.951209622 1.33779645
      vertex 4.33071379 0.950174401 1.33738499
      vertex 4.38409835 0.950453455 1.40984194
    endloop
  endfacet
  facet normal -0.666484075 -0.559061699 0.493202792
    outer loop
      vertex 4.33014991 0.951209622 1.33779645
      vertex 4.38409835 0.950453455 1.40984194
      vertex 4.38353447 0.951488677 1.41025341
    endloop
  endfacet
  facet normal -0.593161851 -0.00310060229 -0.805077266
    outer loop
      vertex 4.33252362 0.952446634 1.3360428
      vertex 4.33071379 0.950174401 1.33738499
      vertex 4.33014991 0.951209622 1.33779645
    endloop
  endfacet
  facet normal 0.593161851 0.00310060229 0.805077266
    outer loop
      vertex 4.38590818 0.952725688 1.40849975
      vertex 4.38353447 0.951488677 1.41025341
      vertex 4.38409835 0.950453455 1.40984194
    endloop
  endfacet
  facet normal -0.442924618 -0.833796247 0.32954757
    outer loop
      vertex 4.33071379 0.950174401 1.33738499
      vertex 4.3315532 0.949485107 1.33676919
      vertex 4.38493776 0.949764161 1.40922614
    endloop
  endfacet
  facet normal -0.442924618 -0.833796247 0.32954757
    outer loop
      vertex 4.33071379 0.950174401 1.33738499
      vertex 4.38493776 0.949764161 1.40922614
      vertex 4.38409835 0.950453455 1.40984194
    endloop
  endfacet
  facet normal -0.593161851 -0.00310060229 -0.805077266
    outer loop
      vertex 4.33252362 0.952446634 1.3360428
      vertex 4.3315532 0.949485107 1.33676919
      vertex 4.33071379 0.950174401 1.33738499
    endloop
  endfacet
  facet normal 0.593161851 0.00310060229 0.805077266
    outer loop
      vertex 4.38590818 0.952725688 1.40849975
      vertex 4.38409835 0.950453455 1.40984194
      vertex 4.38493776 0.949764161 1.40922614
    endloop
  endfacet
  facet normal -0.151933903 -0.981592876 0.115721717
    outer loop
      vertex 4.3315532 0.949485107 1.33676919
      vertex 4.33254034 0.949246678 1.3360428
      vertex 4.38592491 0.949525732 1.40849975
    endloop
  endfacet
  facet normal -0.151933903 -0.981592876 0.115721717
    outer loop
      vertex 4.3315532 0.949485107 1.33676919
      vertex 4.38592491 0.949525732 1.40849975
      vertex 4.38493776 0.949764161 1.40922614
    endloop
  endfacet
  facet normal -0.593161851 -0.00310060229 -0.805077266
    outer loop
      vertex 4.33252362 0.952446634 1.3360428
      vertex 4.33254034 0.949246678 1.3360428
      vertex 4.3315532 0.949485107 1.33676919
    endloop
  endfacet
  facet normal 0.593161851 0.00310060229 0.805077266
    outer loop
      vertex 4.38590818 0.952725688 1.40849975
      vertex 4.38493776 0.949764161 1.40922614
      vertex 4.38592491 0.949525732 1.40849975
    endloop
  endfacet
endsolid a18_features
