solid g17_features
  facet normal -0.950965176 -0.282418735 -0.126114601
    outer loop
      vertex 0.826789926 -1.25629522 1.9066319
      vertex 0.827021089 -1.25685266 1.90613714
      vertex 0.840366868 -1.35289617 2.02058159
    endloop
  endfacet
  facet normal -0.950965176 -0.282418735 -0.126114601
    outer loop
      vertex 0.826789926 -1.25629522 1.9066319
      vertex 0.840366868 -1.35289617 2.02058159
      vertex 0.840135706 -1.35233874 2.02107636
    endloop
  endfacet
  facet normal -0.0889718635 0.640290107 -0.762963031
    outer loop
      vertex 0.828770893 -1.25601995 1.9066319
      vertex 0.827021089 -1.25685266 1.90613714
      vertex 0.826789926 -1.25629522 1.9066319
    endloop
  endfacet
  facet normal 0.0889718635 -0.640290107 0.762963031
    outer loop
      vertex 0.842116672 -1.35206347 2.02107636
      vertex 0.840135706 -1.35233874 2.02107636
      vertex 0.840366868 -1.35289617 2.02058159
    endloop
  endfacet
  facet normal -0.765216868 -0.534283383 -0.359143999
    outer loop
      vertex 0.827021089 -1.25685266 1.90613714
      vertex 0.827518643 -1.25728332 1.9057177
      vertex 0.840864422 -1.35332684 2.02016215
    endloop
  endfacet
  facet normal -0.765216868 -0.534283383 -0.359143999
    outer loop
      vertex 0.827021089 -1.25685266 1.90613714
      vertex 0.840864422 -1.35332684 2.02016215
      vertex 0.840366868 -1.35289617 2.02058159
    endloop
  endfacet
  facet normal -0.0889718635 0.640290107 -0.762963031
    outer loop
      vertex 0.828770893 -1.25601995 1.9066319
      vertex 0.827518643 -1.25728332 1.9057177
      vertex 0.827021089 -1.25685266 1.90613714
    endloop
  endfacet
  facet normal 0.0889718635 -0.640290107 0.762963031
    outer loop
      vertex 0.842116672 -1.35206347 2.02107636
      vertex 0.840366868 -1.35289617 2.02058159
      vertex 0.840864422 -1.35332684 2.02016215
    endloop
  endfacet
  facet normal -0.462971228 -0.704808229 -0.537496979
    outer loop
      vertex 0.827518643 -1.25728332 1.9057177
      vertex 0.828206841 -1.25752165 1.90543743
      vertex 0.84155262 -1.35356517 2.01988189
    endloop
  endfacet
  facet normal -0.462971228 -0.704808229 -0.537496979
    outer loop
      vertex 0.827518643 -1.25728332 1.9057177
      vertex 0.84155262 -1.35356517 2.01988189
      vertex 0.840864422 -1.35332684 2.02016215
    endloop
  endfacet
  facet normal -0.0889718635 0.640290107 -0.762963031
    outer loop
      vertex 0.828770893 -1.25601995 1.9066319
      vertex 0.828206841 -1.25752165 1.90543743
      vertex 0.827518643 -1.25728332 1.9057177
    endloop
  endfacet
  facet normal 0.0889718635 -0.640290107 0.762963031
    outer loop
      vertex 0.842116672 -1.35206347 2.02107636
      vertex 0.840864422 -1.35332684 2.02016215
      vertex 0.84155262 -1.35356517 2.01988189
    endloop
  endfacet
  facet normal -0.0902424162 -0.768032411 -0.634020916
    outer loop
      vertex 0.828206841 -1.25752165 1.90543743
      vertex 0.828980911 -1.25753136 1.90533902
      vertex 0.84232669 -1.35357487 2.01978347
    endloop
  endfacet
  facet normal -0.0902424162 -0.768032411 -0.634020916
    outer loop
      vertex 0.828206841 -1.25752165 1.90543743
      vertex 0.84232669 -1.35357487 2.01978347
      vertex 0.84155262 -1.35356517 2.01988189
    endloop
  endfacet
  facet normal -0.0889718635 0.640290107 -0.762963031
    outer loop
      vertex 0.828770893 -1.25601995 1.9066319
      vertex 0.828980911 -1.25753136 1.90533902
      vertex 0.828206841 -1.25752165 1.90543743
    endloop
  endfacet
  facet normal 0.0889718635 -0.640290107 0.762963031
    outer loop
      vertex 0.842116672 -1.35206347 2.02107636
      vertex 0.84155262 -1.35356517 2.01988189
      vertex 0.84232669 -1.35357487 2.01978347
    endloop
  endfacet
  facet normal 0.296224986 -0.714330621 -0.634020916
    outer loop
      vertex 0.828980911 -1.25753136 1.90533902
      vertex 0.829723007 -1.25731097 1.90543743
      vertex 0.843068787 -1.35335449 2.01988189
    endloop
  endfacet
  facet normal 0.296224986 -0.714330621 -0.634020916
    outer loop
      vertex 0.828980911 -1.25753136 1.90533902
      vertex 0.843068787 -1.35335449 2.01988189
      vertex 0.84232669 -1.35357487 2.01978347
    endloop
  endfacet
  facet normal -0.0889718635 0.640290107 -0.762963031
    outer loop
      vertex 0.828770893 -1.25601995 1.9066319
      vertex 0.829723007 -1.25731097 1.90543743
      vertex 0.828980911 -1.25753136 1.90533902
    endloop
  endfacet
  facet normal 0.0889718635 -0.640290107 0.762963031
    outer loop
      vertex 0.842116672 -1.35206347 2.02107636
      vertex 0.84232669 -1.35357487 2.01978347
      vertex 0.843068787 -1.35335449 2.01988189
    endloop
  endfacet
  facet normal 0.637594819 -0.55187847 -0.537496979
    outer loop
      vertex 0.829723007 -1.25731097 1.90543743
      vertex 0.830320153 -1.25689404 1.9057177
      vertex 0.843665932 -1.35293755 2.02016215
    endloop
  endfacet
  facet normal 0.637594819 -0.55187847 -0.537496979
    outer loop
      vertex 0.829723007 -1.25731097 1.90543743
      vertex 0.843665932 -1.35293755 2.02016215
      vertex 0.843068787 -1.35335449 2.01988189
    endloop
  endfacet
  facet normal -0.0889718635 0.640290107 -0.762963031
    outer loop
      vertex 0.828770893 -1.25601995 1.9066319
      vertex 0.830320153 -1.25689404 1.9057177
      vertex 0.829723007 -1.25731097 1.90543743
    endloop
  endfacet
  facet normal 0.0889718635 -0.640290107 0.762963031
    outer loop
      vertex 0.842116672 -1.35206347 2.02107636
      vertex 0.843068787 -1.35335449 2.01988189
      vertex 0.843665932 -1.35293755 2.02016215
    endloop
  endfacet
  facet normal 0.881896621 -0.305407824 -0.359143999
    outer loop
      vertex 0.830320153 -1.25689404 1.9057177
      vertex 0.830681437 -1.25634403 1.90613714
      vertex 0.844027217 -1.35238755 2.02058159
    endloop
  endfacet
  facet normal 0.881896621 -0.305407824 -0.359143999
    outer loop
      vertex 0.830320153 -1.25689404 1.9057177
      vertex 0.844027217 -1.35238755 2.02058159
      vertex 0.843665932 -1.35293755 2.02016215
    endloop
  endfacet
  facet normal -0.0889718635 0.640290107 -0.762963031
    outer loop
      vertex 0.828770893 -1.25601995 1.9066319
      vertex 0.830681437 -1.25634403 1.90613714
      vertex 0.830320153 -1.25689404 1.9057177
    endloop
  endfacet
  facet normal 0.0889718635 -0.640290107 0.762963031
    outer loop
      vertex 0.842116672 -1.35206347 2.02107636
      vertex 0.843665932 -1.35293755 2.02016215
      vertex 0.844027217 -1.35238755 2.02058159
    endloop
  endfacet
  facet normal 0.991937656 -0.012441605 -0.126114601
    outer loop
      vertex 0.830681437 -1.25634403 1.90613714
      vertex 0.830751859 -1.25574469 1.9066319
      vertex 0.844097639 -1.3517882 2.02107636
    endloop
  endfacet
  facet normal 0.991937656 -0.012441605 -0.126114601
    outer loop
      vertex 0.830681437 -1.25634403 1.90613714
      vertex 0.844097639 -1.3517882 2.02107636
      vertex 0.844027217 -1.35238755 2.02058159
    endloop
  endfacet
  facet normal -0.0889718635 0.640290107 -0.762963031
    outer loop
      vertex 0.828770893 -1.25601995 1.9066319
      vertex 0.830751859 -1.25574469 1.9066319
      vertex 0.830681437 -1.25634403 1.90613714
    endloop
  endfacet
  facet normal 0.0889718635 -0.640290107 0.762963031
    outer loop
      vertex 0.842116672 -1.35206347 2.02107636
      vertex 0.844027217 -1.35238755 2.02058159
      vertex 0.844097639 -1.3517882 2.02107636
    endloop
  endfacet
  facet normal 0.950965176 0.282418735 0.126114601
    outer loop
      vertex 0.830751859 -1.25574469 1.9066319
      vertex 0.830520697 -1.25518725 1.90712667
      vertex 0.843866476 -1.35123077 2.02157112
    endloop
  endfacet
  facet normal 0.950965176 0.282418735 0.126114601
    outer loop
      vertex 0.830751859 -1.25574469 1.9066319
      vertex 0.843866476 -1.35123077 2.02157112
      vertex 0.844097639 -1.3517882 2.02107636
    endloop
  endfacet
  facet normal -0.0889718635 0.640290107 -0.762963031
    outer loop
      vertex 0.828770893 -1.25601995 1.9066319
      vertex 0.830520697 -1.25518725 1.90712667
      vertex 0.830751859 -1.25574469 1.9066319
    endloop
  endfacet
  facet normal 0.0889718635 -0.640290107 0.762963031
    outer loop
      vertex 0.842116672 -1.35206347 2.02107636
      vertex 0.844097639 -1.3517882 2.02107636
      vertex 0.843866476 -1.35123077 2.02157112
    endloop
  endfacet
  facet normal 0.765216868 0.534283383 0.359143999
    outer loop
      vertex 0.830520697 -1.25518725 1.90712667
      vertex 0.830023142 -1.25475659 1.90754611
      vertex 0.843368922 -1.3508001 2.02199056
    endloop
  endfacet
  facet normal 0.765216868 0.534283383 0.359143999
    outer loop
      vertex 0.830520697 -1.25518725 1.90712667
      vertex 0.843368922 -1.3508001 2.02199056
      vertex 0.843866476 -1.35123077 2.02157112
    endloop
  endfacet
  facet normal -0.0889718635 0.640290107 -0.762963031
    outer loop
      vertex 0.828770893 -1.25601995 1.9066319
      vertex 0.830023142 -1.25475659 1.90754611
      vertex 0.830520697 -1.25518725 1.90712667
    endloop
  endfacet
  facet normal 0.0889718635 -0.640290107 0.762963031
    outer loop
      vertex 0.842116672 -1.35206347 2.02107636
      vertex 0.843866476 -1.35123077 2.02157112
      vertex 0.843368922 -1.3508001 2.02199056
    endloop
  endfacet
  facet normal 0.462971228 0.704808229 0.537496979
    outer loop
      vertex 0.830023142 -1.25475659 1.90754611
      vertex 0.829334944 -1.25451826 1.90782637
      vertex 0.842680724 -1.35056177 2.02227083
    endloop
  endfacet
  facet normal 0.462971228 0.704808229 0.537496979
    outer loop
      vertex 0.830023142 -1.25475659 1.90754611
      vertex 0.842680724 -1.35056177 2.02227083
      vertex 0.843368922 -1.3508001 2.02199056
    endloop
  endfacet
  facet normal -0.0889718635 0.640290107 -0.762963031
    outer loop
      vertex 0.828770893 -1.25601995 1.9066319
      vertex 0.829334944 -1.25451826 1.90782637
      vertex 0.830023142 -1.25475659 1.90754611
    endloop
  endfacet
  facet normal 0.0889718635 -0.640290107 0.762963031
    outer loop
      vertex 0.842116672 -1.35206347 2.02107636
      vertex 0.843368922 -1.3508001 2.02199056
      vertex 0.842680724 -1.35056177 2.02227083
    endloop
  endfacet
  facet normal 0.0902424162 0.768032411 0.634020916
    outer loop
      vertex 0.829334944 -1.25451826 1.90782637
      vertex 0.828560875 -1.25450855 1.90792479
      vertex 0.841906654 -1.35055207 2.02236924
    endloop
  endfacet
  facet normal 0.0902424162 0.768032411 0.634020916
    outer loop
      vertex 0.829334944 -1.25451826 1.90782637
      vertex 0.841906654 -1.35055207 2.02236924
      vertex 0.842680724 -1.35056177 2.02227083
    endloop
  endfacet
  facet normal -0.0889718635 0.640290107 -0.762963031
    outer loop
      vertex 0.828770893 -1.25601995 1.9066319
      vertex 0.828560875 -1.25450855 1.90792479
      vertex 0.829334944 -1.25451826 1.90782637
    endloop
  endfacet
  facet normal 0.0889718635 -0.640290107 0.762963031
    outer loop
      vertex 0.842116672 -1.35206347 2.02107636
      vertex 0.842680724 -1.35056177 2.02227083
      vertex 0.841906654 -1.35055207 2.02236924
    endloop
  endfacet
  facet normal -0.296224986 0.714330621 0.634020916
    outer loop
      vertex 0.828560875 -1.25450855 1.90792479
      vertex 0.827818778 -1.25472894 1.90782637
      vertex 0.841164558 -1.35077245 2.02227083
    endloop
  endfacet
  facet normal -0.296224986 0.714330621 0.634020916
    outer loop
      vertex 0.828560875 -1.25450855 1.90792479
      vertex 0.841164558 -1.35077245 2.02227083
      vertex 0.841906654 -1.35055207 2.02236924
    endloop
  endfacet
  facet normal -0.0889718635 0.640290107 -0.762963031
    outer loop
      vertex 0.828770893 -1.25601995 1.9066319
      vertex 0.827818778 -1.25472894 1.90782637
      vertex 0.828560875 -1.25450855 1.90792479
    endloop
  endfacet
  facet normal 0.0889718635 -0.640290107 0.762963031
    outer loop
      vertex 0.842116672 -1.35206347 2.02107636
      vertex 0.841906654 -1.35055207 2.02236924
      vertex 0.841164558 -1.35077245 2.02227083
    endloop
  endfacet
  facet normal -0.637594819 0.55187847 0.537496979
    outer loop
      vertex 0.827818778 -1.25472894 1.90782637
      vertex 0.827221633 -1.25514587 1.90754611
      vertex 0.840567412 -1.35118939 2.02199056
    endloop
  endfacet
  facet normal -0.637594819 0.55187847 0.537496979
    outer loop
      vertex 0.827818778 -1.25472894 1.90782637
      vertex 0.840567412 -1.35118939 2.02199056
      vertex 0.841164558 -1.35077245 2.02227083
    endloop
  endfacet
  facet normal -0.0889718635 0.640290107 -0.762963031
    outer loop
      vertex 0.828770893 -1.25601995 1.9066319
      vertex 0.827221633 -1.25514587 1.90754611
      vertex 0.827818778 -1.25472894 1.90782637
    endloop
  endfacet
  facet normal 0.0889718635 -0.640290107 0.762963031
    outer loop
      vertex 0.842116672 -1.35206347 2.02107636
      vertex 0.841164558 -1.35077245 2.02227083
      vertex 0.840567412 -1.35118939 2.02199056
    endloop
  endfacet
  facet normal -0.881896621 0.305407824 0.359143999
    outer loop
      vertex 0.827221633 -1.25514587 1.90754611
      vertex 0.826860348 -1.25569588 1.90712667
      vertex 0.840206127 -1.35173939 2.02157112
    endloop
  endfacet
  facet normal -0.881896621 0.305407824 0.359143999
    outer loop
      vertex 0.827221633 -1.25514587 1.90754611
      vertex 0.840206127 -1.35173939 2.02157112
      vertex 0.840567412 -1.35118939 2.02199056
    endloop
  endfacet
  facet normal -0.0889718635 0.640290107 -0.762963031
    outer loop
      vertex 0.828770893 -1.25601995 1.9066319
      vertex 0.826860348 -1.25569588 1.90712667
      vertex 0.827221633 -1.25514587 1.90754611
    endloop
  endfacet
  facet normal 0.0889718635 -0.640290107 0.762963031
    outer loop
      vertex 0.842116672 -1.35206347 2.02107636
      vertex 0.840567412 -1.35118939 2.02199056
      vertex 0.840206127 -1.35173939 2.02157112
    endloop
  endfacet
  facet normal -0.991937656 0.012441605 0.126114601
    outer loop
      vertex 0.826860348 -1.25569588 1.90712667
      vertex 0.826789926 -1.25629522 1.9066319
      vertex 0.840135706 -1.35233874 2.02107636
    endloop
  endfacet
  facet normal -0.991937656 0.012441605 0.126114601
    outer loop
      vertex 0.826860348 -1.25569588 1.90712667
      vertex 0.840135706 -1.35233874 2.02107636
      vertex 0.840206127 -1.35173939 2.02157112
    endloop
  endfacet
  facet normal -0.0889718635 0.640290107 -0.762963031
    outer loop
      vertex 0.828770893 -1.25601995 1.9066319
      vertex 0.826789926 -1.25629522 1.9066319
      vertex 0.826860348 -1.25569588 1.90712667
    endloop
  endfacet
  facet normal 0.0889718635 -0.640290107 0.762963031
    outer loop
      vertex 0.842116672 -1.35206347 2.02107636
      vertex 0.840206127 -1.35173939 2.02157112
      vertex 0.840135706 -1.35233874 2.02107636
    endloop
  endfacet
  facet normal -0.950965176 -0.282418735 -0.126114601
    outer loop
      vertex 0.806235518 -1.28271013 1.90522115
      vertex 0.806466681 -1.28326757 1.90472638
      vertex 0.81981246 -1.37931109 2.01917084
    endloop
  endfacet
  facet normal -0.950965176 -0.282418735 -0.126114601
    outer loop
      vertex 0.806235518 -1.28271013 1.90522115
      vertex 0.81981246 -1.37931109 2.01917084
      vertex 0.819581298 -1.37875365 2.0196656
    endloop
  endfacet
  facet normal -0.0889718635 0.640290107 -0.762963031
    outer loop
      vertex 0.808216485 -1.28243487 1.90522115
      vertex 0.806466681 -1.28326757 1.90472638
      vertex 0.806235518 -1.28271013 1.90522115
    endloop
  endfacet
  facet normal 0.0889718635 -0.640290107 0.762963031
    outer loop
      vertex 0.821562265 -1.37847838 2.0196656
      vertex 0.819581298 -1.37875365 2.0196656
      vertex 0.81981246 -1.37931109 2.01917084
    endloop
  endfacet
  facet normal -0.765216868 -0.534283383 -0.359143999
    outer loop
      vertex 0.806466681 -1.28326757 1.90472638
      vertex 0.806964235 -1.28369824 1.90430694
      vertex 0.820310015 -1.37974175 2.0187514
    endloop
  endfacet
  facet normal -0.765216868 -0.534283383 -0.359143999
    outer loop
      vertex 0.806466681 -1.28326757 1.90472638
      vertex 0.820310015 -1.37974175 2.0187514
      vertex 0.81981246 -1.37931109 2.01917084
    endloop
  endfacet
  facet normal -0.0889718635 0.640290107 -0.762963031
    outer loop
      vertex 0.808216485 -1.28243487 1.90522115
      vertex 0.806964235 -1.28369824 1.90430694
      vertex 0.806466681 -1.28326757 1.90472638
    endloop
  endfacet
  facet normal 0.0889718635 -0.640290107 0.762963031
    outer loop
      vertex 0.821562265 -1.37847838 2.0196656
      vertex 0.81981246 -1.37931109 2.01917084
      vertex 0.820310015 -1.37974175 2.0187514
    endloop
  endfacet
  facet normal -0.462971228 -0.704808229 -0.537496979
    outer loop
      vertex 0.806964235 -1.28369824 1.90430694
      vertex 0.807652433 -1.28393656 1.90402668
      vertex 0.820998213 -1.37998008 2.01847113
    endloop
  endfacet
  facet normal -0.462971228 -0.704808229 -0.537496979
    outer loop
      vertex 0.806964235 -1.28369824 1.90430694
      vertex 0.820998213 -1.37998008 2.01847113
      vertex 0.820310015 -1.37974175 2.0187514
    endloop
  endfacet
  facet normal -0.0889718635 0.640290107 -0.762963031
    outer loop
      vertex 0.808216485 -1.28243487 1.90522115
      vertex 0.807652433 -1.28393656 1.90402668
      vertex 0.806964235 -1.28369824 1.90430694
    endloop
  endfacet
  facet normal 0.0889718635 -0.640290107 0.762963031
    outer loop
      vertex 0.821562265 -1.37847838 2.0196656
      vertex 0.820310015 -1.37974175 2.0187514
      vertex 0.820998213 -1.37998008 2.01847113
    endloop
  endfacet
  facet normal -0.0902424162 -0.768032411 -0.634020916
    outer loop
      vertex 0.807652433 -1.28393656 1.90402668
      vertex 0.808426503 -1.28394627 1.90392826
      vertex 0.821772283 -1.37998979 2.01837272
    endloop
  endfacet
  facet normal -0.0902424162 -0.768032411 -0.634020916
    outer loop
      vertex 0.807652433 -1.28393656 1.90402668
      vertex 0.821772283 -1.37998979 2.01837272
      vertex 0.820998213 -1.37998008 2.01847113
    endloop
  endfacet
  facet normal -0.0889718635 0.640290107 -0.762963031
    outer loop
      vertex 0.808216485 -1.28243487 1.90522115
      vertex 0.808426503 -1.28394627 1.90392826
      vertex 0.807652433 -1.28393656 1.90402668
    endloop
  endfacet
  facet normal 0.0889718635 -0.640290107 0.762963031
    outer loop
      vertex 0.821562265 -1.37847838 2.0196656
      vertex 0.820998213 -1.37998008 2.01847113
      vertex 0.821772283 -1.37998979 2.01837272
    endloop
  endfacet
  facet normal 0.296224986 -0.714330621 -0.634020916
    outer loop
      vertex 0.808426503 -1.28394627 1.90392826
      vertex 0.809168599 -1.28372588 1.90402668
      vertex 0.822514379 -1.3797694 2.01847113
    endloop
  endfacet
  facet normal 0.296224986 -0.714330621 -0.634020916
    outer loop
      vertex 0.808426503 -1.28394627 1.90392826
      vertex 0.822514379 -1.3797694 2.01847113
      vertex 0.821772283 -1.37998979 2.01837272
    endloop
  endfacet
  facet normal -0.0889718635 0.640290107 -0.762963031
    outer loop
      vertex 0.808216485 -1.28243487 1.90522115
      vertex 0.809168599 -1.28372588 1.90402668
      vertex 0.808426503 -1.28394627 1.90392826
    endloop
  endfacet
  facet normal 0.0889718635 -0.640290107 0.762963031
    outer loop
      vertex 0.821562265 -1.37847838 2.0196656
      vertex 0.821772283 -1.37998979 2.01837272
      vertex 0.822514379 -1.3797694 2.01847113
    endloop
  endfacet
  facet normal 0.637594819 -0.55187847 -0.537496979
    outer loop
      vertex 0.809168599 -1.28372588 1.90402668
      vertex 0.809765745 -1.28330895 1.90430694
      vertex 0.823111525 -1.37935247 2.0187514
    endloop
  endfacet
  facet normal 0.637594819 -0.55187847 -0.537496979
    outer loop
      vertex 0.809168599 -1.28372588 1.90402668
      vertex 0.823111525 -1.37935247 2.0187514
      vertex 0.822514379 -1.3797694 2.01847113
    endloop
  endfacet
  facet normal -0.0889718635 0.640290107 -0.762963031
    outer loop
      vertex 0.808216485 -1.28243487 1.90522115
      vertex 0.809765745 -1.28330895 1.90430694
      vertex 0.809168599 -1.28372588 1.90402668
    endloop
  endfacet
  facet normal 0.0889718635 -0.640290107 0.762963031
    outer loop
      vertex 0.821562265 -1.37847838 2.0196656
      vertex 0.822514379 -1.3797694 2.01847113
      vertex 0.823111525 -1.37935247 2.0187514
    endloop
  endfacet
  facet normal 0.881896621 -0.305407824 -0.359143999
    outer loop
      vertex 0.809765745 -1.28330895 1.90430694
      vertex 0.81012703 -1.28275894 1.90472638
      vertex 0.823472809 -1.37880246 2.01917084
    endloop
  endfacet
  facet normal 0.881896621 -0.305407824 -0.359143999
    outer loop
      vertex 0.809765745 -1.28330895 1.90430694
      vertex 0.823472809 -1.37880246 2.01917084
      vertex 0.823111525 -1.37935247 2.0187514
    endloop
  endfacet
  facet normal -0.0889718635 0.640290107 -0.762963031
    outer loop
      vertex 0.808216485 -1.28243487 1.90522115
      vertex 0.81012703 -1.28275894 1.90472638
      vertex 0.809765745 -1.28330895 1.90430694
    endloop
  endfacet
  facet normal 0.0889718635 -0.640290107 0.762963031
    outer loop
      vertex 0.821562265 -1.37847838 2.0196656
      vertex 0.823111525 -1.37935247 2.0187514
      vertex 0.823472809 -1.37880246 2.01917084
    endloop
  endfacet
  facet normal 0.991937656 -0.012441605 -0.126114601
    outer loop
      vertex 0.81012703 -1.28275894 1.90472638
      vertex 0.810197452 -1.2821596 1.90522115
      vertex 0.823543231 -1.37820312 2.0196656
    endloop
  endfacet
  facet normal 0.991937656 -0.012441605 -0.126114601
    outer loop
      vertex 0.81012703 -1.28275894 1.90472638
      vertex 0.823543231 -1.37820312 2.0196656
      vertex 0.823472809 -1.37880246 2.01917084
    endloop
  endfacet
  facet normal -0.0889718635 0.640290107 -0.762963031
    outer loop
      vertex 0.808216485 -1.28243487 1.90522115
      vertex 0.810197452 -1.2821596 1.90522115
      vertex 0.81012703 -1.28275894 1.90472638
    endloop
  endfacet
  facet normal 0.0889718635 -0.640290107 0.762963031
    outer loop
      vertex 0.821562265 -1.37847838 2.0196656
      vertex 0.823472809 -1.37880246 2.01917084
      vertex 0.823543231 -1.37820312 2.0196656
    endloop
  endfacet
  facet normal 0.950965176 0.282418735 0.126114601
    outer loop
      vertex 0.810197452 -1.2821596 1.90522115
      vertex 0.809966289 -1.28160217 1.90571591
      vertex 0.823312069 -1.37764568 2.02016037
    endloop
  endfacet
  facet normal 0.950965176 0.282418735 0.126114601
    outer loop
      vertex 0.810197452 -1.2821596 1.90522115
      vertex 0.823312069 -1.37764568 2.02016037
      vertex 0.823543231 -1.37820312 2.0196656
    endloop
  endfacet
  facet normal -0.0889718635 0.640290107 -0.762963031
    outer loop
      vertex 0.808216485 -1.28243487 1.90522115
      vertex 0.809966289 -1.28160217 1.90571591
      vertex 0.810197452 -1.2821596 1.90522115
    endloop
  endfacet
  facet normal 0.0889718635 -0.640290107 0.762963031
    outer loop
      vertex 0.821562265 -1.37847838 2.0196656
      vertex 0.823543231 -1.37820312 2.0196656
      vertex 0.823312069 -1.37764568 2.02016037
    endloop
  endfacet
  facet normal 0.765216868 0.534283383 0.359143999
    outer loop
      vertex 0.809966289 -1.28160217 1.90571591
      vertex 0.809468735 -1.2811715 1.90613536
      vertex 0.822814514 -1.37721502 2.02057981
    endloop
  endfacet
  facet normal 0.765216868 0.534283383 0.359143999
    outer loop
      vertex 0.809966289 -1.28160217 1.90571591
      vertex 0.822814514 -1.37721502 2.02057981
      vertex 0.823312069 -1.37764568 2.02016037
    endloop
  endfacet
  facet normal -0.0889718635 0.640290107 -0.762963031
    outer loop
      vertex 0.808216485 -1.28243487 1.90522115
      vertex 0.809468735 -1.2811715 1.90613536
      vertex 0.809966289 -1.28160217 1.90571591
    endloop
  endfacet
  facet normal 0.0889718635 -0.640290107 0.762963031
    outer loop
      vertex 0.821562265 -1.37847838 2.0196656
      vertex 0.823312069 -1.37764568 2.02016037
      vertex 0.822814514 -1.37721502 2.02057981
    endloop
  endfacet
  facet normal 0.462971228 0.704808229 0.537496979
    outer loop
      vertex 0.809468735 -1.2811715 1.90613536
      vertex 0.808780537 -1.28093317 1.90641562
      vertex 0.822126316 -1.37697669 2.02086007
    endloop
  endfacet
  facet normal 0.462971228 0.704808229 0.537496979
    outer loop
      vertex 0.809468735 -1.2811715 1.90613536
      vertex 0.822126316 -1.37697669 2.02086007
      vertex 0.822814514 -1.37721502 2.02057981
    endloop
  endfacet
  facet normal -0.0889718635 0.640290107 -0.762963031
    outer loop
      vertex 0.808216485 -1.28243487 1.90522115
      vertex 0.808780537 -1.28093317 1.90641562
      vertex 0.809468735 -1.2811715 1.90613536
    endloop
  endfacet
  facet normal 0.0889718635 -0.640290107 0.762963031
    outer loop
      vertex 0.821562265 -1.37847838 2.0196656
      vertex 0.822814514 -1.37721502 2.02057981
      vertex 0.822126316 -1.37697669 2.02086007
    endloop
  endfacet
  facet normal 0.0902424162 0.768032411 0.634020916
    outer loop
      vertex 0.808780537 -1.28093317 1.90641562
      vertex 0.808006467 -1.28092346 1.90651403
      vertex 0.821352247 -1.37696698 2.02095849
    endloop
  endfacet
  facet normal 0.0902424162 0.768032411 0.634020916
    outer loop
      vertex 0.808780537 -1.28093317 1.90641562
      vertex 0.821352247 -1.37696698 2.02095849
      vertex 0.822126316 -1.37697669 2.02086007
    endloop
  endfacet
  facet normal -0.0889718635 0.640290107 -0.762963031
    outer loop
      vertex 0.808216485 -1.28243487 1.90522115
      vertex 0.808006467 -1.28092346 1.90651403
      vertex 0.808780537 -1.28093317 1.90641562
    endloop
  endfacet
  facet normal 0.0889718635 -0.640290107 0.762963031
    outer loop
      vertex 0.821562265 -1.37847838 2.0196656
      vertex 0.822126316 -1.37697669 2.02086007
      vertex 0.821352247 -1.37696698 2.02095849
    endloop
  endfacet
  facet normal -0.296224986 0.714330621 0.634020916
    outer loop
      vertex 0.808006467 -1.28092346 1.90651403
      vertex 0.807264371 -1.28114385 1.90641562
      vertex 0.82061015 -1.37718737 2.02086007
    endloop
  endfacet
  facet normal -0.296224986 0.714330621 0.634020916
    outer loop
      vertex 0.808006467 -1.28092346 1.90651403
      vertex 0.82061015 -1.37718737 2.02086007
      vertex 0.821352247 -1.37696698 2.02095849
    endloop
  endfacet
  facet normal -0.0889718635 0.640290107 -0.762963031
    outer loop
      vertex 0.808216485 -1.28243487 1.90522115
      vertex 0.807264371 -1.28114385 1.90641562
      vertex 0.808006467 -1.28092346 1.90651403
    endloop
  endfacet
  facet normal 0.0889718635 -0.640290107 0.762963031
    outer loop
      vertex 0.821562265 -1.37847838 2.0196656
      vertex 0.821352247 -1.37696698 2.02095849
      vertex 0.82061015 -1.37718737 2.02086007
    endloop
  endfacet
  facet normal -0.637594819 0.55187847 0.537496979
    outer loop
      vertex 0.807264371 -1.28114385 1.90641562
      vertex 0.806667225 -1.28156079 1.90613536
      vertex 0.820013004 -1.3776043 2.02057981
    endloop
  endfacet
  facet normal -0.637594819 0.55187847 0.537496979
    outer loop
      vertex 0.807264371 -1.28114385 1.90641562
      vertex 0.820013004 -1.3776043 2.02057981
      vertex 0.82061015 -1.37718737 2.02086007
    endloop
  endfacet
  facet normal -0.0889718635 0.640290107 -0.762963031
    outer loop
      vertex 0.808216485 -1.28243487 1.90522115
      vertex 0.806667225 -1.28156079 1.90613536
      vertex 0.807264371 -1.28114385 1.90641562
    endloop
  endfacet
  facet normal 0.0889718635 -0.640290107 0.762963031
    outer loop
      vertex 0.821562265 -1.37847838 2.0196656
      vertex 0.82061015 -1.37718737 2.02086007
      vertex 0.820013004 -1.3776043 2.02057981
    endloop
  endfacet
  facet normal -0.881896621 0.305407824 0.359143999
    outer loop
      vertex 0.806667225 -1.28156079 1.90613536
      vertex 0.80630594 -1.28211079 1.90571591
      vertex 0.81965172 -1.37815431 2.02016037
    endloop
  endfacet
  facet normal -0.881896621 0.305407824 0.359143999
    outer loop
      vertex 0.806667225 -1.28156079 1.90613536
      vertex 0.81965172 -1.37815431 2.02016037
      vertex 0.820013004 -1.3776043 2.02057981
    endloop
  endfacet
  facet normal -0.0889718635 0.640290107 -0.762963031
    outer loop
      vertex 0.808216485 -1.28243487 1.90522115
      vertex 0.80630594 -1.28211079 1.90571591
      vertex 0.806667225 -1.28156079 1.90613536
    endloop
  endfacet
  facet normal 0.0889718635 -0.640290107 0.762963031
    outer loop
      vertex 0.821562265 -1.37847838 2.0196656
      vertex 0.820013004 -1.3776043 2.02057981
      vertex 0.81965172 -1.37815431 2.02016037
    endloop
  endfacet
  facet normal -0.991937656 0.012441605 0.126114601
    outer loop
      vertex 0.80630594 -1.28211079 1.90571591
      vertex 0.806235518 -1.28271013 1.90522115
      vertex 0.819581298 -1.37875365 2.0196656
    endloop
  endfacet
  facet normal -0.991937656 0.012441605 0.126114601
    outer loop
      vertex 0.80630594 -1.28211079 1.90571591
      vertex 0.819581298 -1.37875365 2.0196656
      vertex 0.81965172 -1.37815431 2.02016037
    endloop
  endfacet
  facet normal -0.0889718635 0.640290107 -0.762963031
    outer loop
      vertex 0.808216485 -1.28243487 1.90522115
      vertex 0.806235518 -1.28271013 1.90522115
      vertex 0.80630594 -1.28211079 1.90571591
    endloop
  endfacet
  facet normal 0.0889718635 -0.640290107 0.762963031
    outer loop
      vertex 0.821562265 -1.37847838 2.0196656
      vertex 0.81965172 -1.37815431 2.02016037
      vertex 0.819581298 -1.37875365 2.0196656
    endloop
  endfacet
  facet normal 0.446436911 0.885300455 -0.130142955
    outer loop
      vertex 0.913667747 -1.18943989 1.91221575
      vertex 0.913114034 -1.18923572 1.91170518
      vertex 0.853144431 -1.14694779 1.99365258
    endloop
  endfacet
  facet normal 0.446436911 0.885300455 -0.130142955
    outer loop
      vertex 0.913667747 -1.18943989 1.91221575
      vertex 0.853144431 -1.14694779 1.99365258
      vertex 0.853698143 -1.14715196 1.99416315
    endloop
  endfacet
  facet normal 0.545178217 -0.384435715 -0.744976437
    outer loop
      vertex 0.912515173 -1.19107438 1.91221575
      vertex 0.913114034 -1.18923572 1.91170518
      vertex 0.913667747 -1.18943989 1.91221575
    endloop
  endfacet
  facet normal -0.545178217 0.384435715 0.744976437
    outer loop
      vertex 0.852545569 -1.14878646 1.99416315
      vertex 0.853698143 -1.14715196 1.99416315
      vertex 0.853144431 -1.14694779 1.99365258
    endloop
  endfacet
  facet normal 0.140917229 0.91803392 -0.37061578
    outer loop
      vertex 0.913114034 -1.18923572 1.91170518
      vertex 0.91246915 -1.18931147 1.91127234
      vertex 0.852499547 -1.14702354 1.99321974
    endloop
  endfacet
  facet normal 0.140917229 0.91803392 -0.37061578
    outer loop
      vertex 0.913114034 -1.18923572 1.91170518
      vertex 0.852499547 -1.14702354 1.99321974
      vertex 0.853144431 -1.14694779 1.99365258
    endloop
  endfacet
  facet normal 0.545178217 -0.384435715 -0.744976437
    outer loop
      vertex 0.912515173 -1.19107438 1.91221575
      vertex 0.91246915 -1.18931147 1.91127234
      vertex 0.913114034 -1.18923572 1.91170518
    endloop
  endfacet
  facet normal -0.545178217 0.384435715 0.744976437
    outer loop
      vertex 0.852545569 -1.14878646 1.99416315
      vertex 0.853144431 -1.14694779 1.99365258
      vertex 0.852499547 -1.14702354 1.99321974
    endloop
  endfacet
  facet normal -0.186055823 0.811005043 -0.554665712
    outer loop
      vertex 0.91246915 -1.18931147 1.91127234
      vertex 0.911831273 -1.18965561 1.91098312
      vertex 0.851861669 -1.14736768 1.99293053
    endloop
  endfacet
  facet normal -0.186055823 0.811005043 -0.554665712
    outer loop
      vertex 0.91246915 -1.18931147 1.91127234
      vertex 0.851861669 -1.14736768 1.99293053
      vertex 0.852499547 -1.14702354 1.99321974
    endloop
  endfacet
  facet normal 0.545178217 -0.384435715 -0.744976437
    outer loop
      vertex 0.912515173 -1.19107438 1.91221575
      vertex 0.911831273 -1.18965561 1.91098312
      vertex 0.91246915 -1.18931147 1.91127234
    endloop
  endfacet
  facet normal -0.545178217 0.384435715 0.744976437
    outer loop
      vertex 0.852545569 -1.14878646 1.99416315
      vertex 0.852499547 -1.14702354 1.99321974
      vertex 0.851861669 -1.14736768 1.99293053
    endloop
  endfacet
  facet normal -0.484703563 0.580507999 -0.654272817
    outer loop
      vertex 0.911831273 -1.18965561 1.91098312
      vertex 0.911297513 -1.19021574 1.91088156
      vertex 0.851327909 -1.14792782 1.99282897
    endloop
  endfacet
  facet normal -0.484703563 0.580507999 -0.654272817
    outer loop
      vertex 0.911831273 -1.18965561 1.91098312
      vertex 0.851327909 -1.14792782 1.99282897
      vertex 0.851861669 -1.14736768 1.99293053
    endloop
  endfacet
  facet normal 0.545178217 -0.384435715 -0.744976437
    outer loop
      vertex 0.912515173 -1.19107438 1.91221575
      vertex 0.911297513 -1.19021574 1.91088156
      vertex 0.911831273 -1.18965561 1.91098312
    endloop
  endfacet
  facet normal -0.545178217 0.384435715 0.744976437
    outer loop
      vertex 0.852545569 -1.14878646 1.99416315
      vertex 0.851861669 -1.14736768 1.99293053
      vertex 0.851327909 -1.14792782 1.99282897
    endloop
  endfacet
  facet normal -0.709559579 0.261633875 -0.654272817
    outer loop
      vertex 0.911297513 -1.19021574 1.91088156
      vertex 0.910949131 -1.1909066 1.91098312
      vertex 0.850979527 -1.14861867 1.99293053
    endloop
  endfacet
  facet normal -0.709559579 0.261633875 -0.654272817
    outer loop
      vertex 0.911297513 -1.19021574 1.91088156
      vertex 0.850979527 -1.14861867 1.99293053
      vertex 0.851327909 -1.14792782 1.99282897
    endloop
  endfacet
  facet normal 0.545178217 -0.384435715 -0.744976437
    outer loop
      vertex 0.912515173 -1.19107438 1.91221575
      vertex 0.910949131 -1.1909066 1.91098312
      vertex 0.911297513 -1.19021574 1.91088156
    endloop
  endfacet
  facet normal -0.545178217 0.384435715 0.744976437
    outer loop
      vertex 0.852545569 -1.14878646 1.99416315
      vertex 0.851327909 -1.14792782 1.99282897
      vertex 0.850979527 -1.14861867 1.99293053
    endloop
  endfacet
  facet normal -0.826391582 -0.0970716346 -0.554665712
    outer loop
      vertex 0.910949131 -1.1909066 1.91098312
      vertex 0.910839165 -1.191623 1.91127234
      vertex 0.850869561 -1.14933507 1.99321974
    endloop
  endfacet
  facet normal -0.826391582 -0.0970716346 -0.554665712
    outer loop
      vertex 0.910949131 -1.1909066 1.91098312
      vertex 0.850869561 -1.14933507 1.99321974
      vertex 0.850979527 -1.14861867 1.99293053
    endloop
  endfacet
  facet normal 0.545178217 -0.384435715 -0.744976437
    outer loop
      vertex 0.912515173 -1.19107438 1.91221575
      vertex 0.910839165 -1.191623 1.91127234
      vertex 0.910949131 -1.1909066 1.91098312
    endloop
  endfacet
  facet normal -0.545178217 0.384435715 0.744976437
    outer loop
      vertex 0.852545569 -1.14878646 1.99416315
      vertex 0.850979527 -1.14861867 1.99293053
      vertex 0.850869561 -1.14933507 1.99321974
    endloop
  endfacet
  facet normal -0.817412957 -0.440998868 -0.37061578
    outer loop
      vertex 0.910839165 -1.191623 1.91127234
      vertex 0.910984356 -1.19225587 1.91170518
      vertex 0.851014752 -1.14996794 1.99365258
    endloop
  endfacet
  facet normal -0.817412957 -0.440998868 -0.37061578
    outer loop
      vertex 0.910839165 -1.191623 1.91127234
      vertex 0.851014752 -1.14996794 1.99365258
      vertex 0.850869561 -1.14933507 1.99321974
    endloop
  endfacet
  facet normal 0.545178217 -0.384435715 -0.744976437
    outer loop
      vertex 0.912515173 -1.19107438 1.91221575
      vertex 0.910984356 -1.19225587 1.91170518
      vertex 0.910839165 -1.191623 1.91127234
    endloop
  endfacet
  facet normal -0.545178217 0.384435715 0.744976437
    outer loop
      vertex 0.852545569 -1.14878646 1.99416315
      vertex 0.850869561 -1.14933507 1.99321974
      vertex 0.851014752 -1.14996794 1.99365258
    endloop
  endfacet
  facet normal -0.68399062 -0.717788021 -0.130142955
    outer loop
      vertex 0.910984356 -1.19225587 1.91170518
      vertex 0.911362599 -1.19270888 1.91221575
      vertex 0.851392996 -1.15042095 1.99416315
    endloop
  endfacet
  facet normal -0.68399062 -0.717788021 -0.130142955
    outer loop
      vertex 0.910984356 -1.19225587 1.91170518
      vertex 0.851392996 -1.15042095 1.99416315
      vertex 0.851014752 -1.14996794 1.99365258
    endloop
  endfacet
  facet normal 0.545178217 -0.384435715 -0.744976437
    outer loop
      vertex 0.912515173 -1.19107438 1.91221575
      vertex 0.911362599 -1.19270888 1.91221575
      vertex 0.910984356 -1.19225587 1.91170518
    endloop
  endfacet
  facet normal -0.545178217 0.384435715 0.744976437
    outer loop
      vertex 0.852545569 -1.14878646 1.99416315
      vertex 0.851014752 -1.14996794 1.99365258
      vertex 0.851392996 -1.15042095 1.99416315
    endloop
  endfacet
  facet normal -0.446436911 -0.885300455 0.130142955
    outer loop
      vertex 0.911362599 -1.19270888 1.91221575
      vertex 0.911916312 -1.19291305 1.91272631
      vertex 0.851946708 -1.15062512 1.99467372
    endloop
  endfacet
  facet normal -0.446436911 -0.885300455 0.130142955
    outer loop
      vertex 0.911362599 -1.19270888 1.91221575
      vertex 0.851946708 -1.15062512 1.99467372
      vertex 0.851392996 -1.15042095 1.99416315
    endloop
  endfacet
  facet normal 0.545178217 -0.384435715 -0.744976437
    outer loop
      vertex 0.912515173 -1.19107438 1.91221575
      vertex 0.911916312 -1.19291305 1.91272631
      vertex 0.911362599 -1.19270888 1.91221575
    endloop
  endfacet
  facet normal -0.545178217 0.384435715 0.744976437
    outer loop
      vertex 0.852545569 -1.14878646 1.99416315
      vertex 0.851392996 -1.15042095 1.99416315
      vertex 0.851946708 -1.15062512 1.99467372
    endloop
  endfacet
  facet normal -0.140917229 -0.91803392 0.37061578
    outer loop
      vertex 0.911916312 -1.19291305 1.91272631
      vertex 0.912561196 -1.1928373 1.91315915
      vertex 0.852591592 -1.15054937 1.99510656
    endloop
  endfacet
  facet normal -0.140917229 -0.91803392 0.37061578
    outer loop
      vertex 0.911916312 -1.19291305 1.91272631
      vertex 0.852591592 -1.15054937 1.99510656
      vertex 0.851946708 -1.15062512 1.99467372
    endloop
  endfacet
  facet normal 0.545178217 -0.384435715 -0.744976437
    outer loop
      vertex 0.912515173 -1.19107438 1.91221575
      vertex 0.912561196 -1.1928373 1.91315915
      vertex 0.911916312 -1.19291305 1.91272631
    endloop
  endfacet
  facet normal -0.545178217 0.384435715 0.744976437
    outer loop
      vertex 0.852545569 -1.14878646 1.99416315
      vertex 0.851946708 -1.15062512 1.99467372
      vertex 0.852591592 -1.15054937 1.99510656
    endloop
  endfacet
  facet normal 0.186055823 -0.811005043 0.554665712
    outer loop
      vertex 0.912561196 -1.1928373 1.91315915
      vertex 0.913199074 -1.19249316 1.91344837
      vertex 0.85322947 -1.15020523 1.99539578
    endloop
  endfacet
  facet normal 0.186055823 -0.811005043 0.554665712
    outer loop
      vertex 0.912561196 -1.1928373 1.91315915
      vertex 0.85322947 -1.15020523 1.99539578
      vertex 0.852591592 -1.15054937 1.99510656
    endloop
  endfacet
  facet normal 0.545178217 -0.384435715 -0.744976437
    outer loop
      vertex 0.912515173 -1.19107438 1.91221575
      vertex 0.913199074 -1.19249316 1.91344837
      vertex 0.912561196 -1.1928373 1.91315915
    endloop
  endfacet
  facet normal -0.545178217 0.384435715 0.744976437
    outer loop
      vertex 0.852545569 -1.14878646 1.99416315
      vertex 0.852591592 -1.15054937 1.99510656
      vertex 0.85322947 -1.15020523 1.99539578
    endloop
  endfacet
  facet normal 0.484703563 -0.580507999 0.654272817
    outer loop
      vertex 0.913199074 -1.19249316 1.91344837
      vertex 0.913732833 -1.19193303 1.91354993
      vertex 0.85376323 -1.1496451 1.99549734
    endloop
  endfacet
  facet normal 0.484703563 -0.580507999 0.654272817
    outer loop
      vertex 0.913199074 -1.19249316 1.91344837
      vertex 0.85376323 -1.1496451 1.99549734
      vertex 0.85322947 -1.15020523 1.99539578
    endloop
  endfacet
  facet normal 0.545178217 -0.384435715 -0.744976437
    outer loop
      vertex 0.912515173 -1.19107438 1.91221575
      vertex 0.913732833 -1.19193303 1.91354993
      vertex 0.913199074 -1.19249316 1.91344837
    endloop
  endfacet
  facet normal -0.545178217 0.384435715 0.744976437
    outer loop
      vertex 0.852545569 -1.14878646 1.99416315
      vertex 0.85322947 -1.15020523 1.99539578
      vertex 0.85376323 -1.1496451 1.99549734
    endloop
  endfacet
  facet normal 0.709559579 -0.261633875 0.654272817
    outer loop
      vertex 0.913732833 -1.19193303 1.91354993
      vertex 0.914081216 -1.19124217 1.91344837
      vertex 0.854111612 -1.14895424 1.99539578
    endloop
  endfacet
  facet normal 0.709559579 -0.261633875 0.654272817
    outer loop
      vertex 0.913732833 -1.19193303 1.91354993
      vertex 0.854111612 -1.14895424 1.99539578
      vertex 0.85376323 -1.1496451 1.99549734
    endloop
  endfacet
  facet normal 0.545178217 -0.384435715 -0.744976437
    outer loop
      vertex 0.912515173 -1.19107438 1.91221575
      vertex 0.914081216 -1.19124217 1.91344837
      vertex 0.913732833 -1.19193303 1.91354993
    endloop
  endfacet
  facet normal -0.545178217 0.384435715 0.744976437
    outer loop
      vertex 0.852545569 -1.14878646 1.99416315
      vertex 0.85376323 -1.1496451 1.99549734
      vertex 0.854111612 -1.14895424 1.99539578
    endloop
  endfacet
  facet normal 0.826391582 0.0970716346 0.554665712
    outer loop
      vertex 0.914081216 -1.19124217 1.91344837
      vertex 0.914191182 -1.19052577 1.91315915
      vertex 0.854221578 -1.14823784 1.99510656
    endloop
  endfacet
  facet normal 0.826391582 0.0970716346 0.554665712
    outer loop
      vertex 0.914081216 -1.19124217 1.91344837
      vertex 0.854221578 -1.14823784 1.99510656
      vertex 0.854111612 -1.14895424 1.99539578
    endloop
  endfacet
  facet normal 0.545178217 -0.384435715 -0.744976437
    outer loop
      vertex 0.912515173 -1.19107438 1.91221575
      vertex 0.914191182 -1.19052577 1.91315915
      vertex 0.914081216 -1.19124217 1.91344837
    endloop
  endfacet
  facet normal -0.545178217 0.384435715 0.744976437
    outer loop
      vertex 0.852545569 -1.14878646 1.99416315
      vertex 0.854111612 -1.14895424 1.99539578
      vertex 0.854221578 -1.14823784 1.99510656
    endloop
  endfacet
  facet normal 0.817412957 0.440998868 0.37061578
    outer loop
      vertex 0.914191182 -1.19052577 1.91315915
      vertex 0.914045991 -1.1898929 1.91272631
      vertex 0.854076387 -1.14760497 1.99467372
    endloop
  endfacet
  facet normal 0.817412957 0.440998868 0.37061578
    outer loop
      vertex 0.914191182 -1.19052577 1.91315915
      vertex 0.854076387 -1.14760497 1.99467372
      vertex 0.854221578 -1.14823784 1.99510656
    endloop
  endfacet
  facet normal 0.545178217 -0.384435715 -0.744976437
    outer loop
      vertex 0.912515173 -1.19107438 1.91221575
      vertex 0.914045991 -1.1898929 1.91272631
      vertex 0.914191182 -1.19052577 1.91315915
    endloop
  endfacet
  facet normal -0.545178217 0.384435715 0.744976437
    outer loop
      vertex 0.852545569 -1.14878646 1.99416315
      vertex 0.854221578 -1.14823784 1.99510656
      vertex 0.854076387 -1.14760497 1.99467372
    endloop
  endfacet
  facet normal 0.68399062 0.717788021 0.130142955
    outer loop
      vertex 0.914045991 -1.1898929 1.91272631
      vertex 0.913667747 -1.18943989 1.91221575
      vertex 0.853698143 -1.14715196 1.99416315
    endloop
  endfacet
  facet normal 0.68399062 0.717788021 0.130142955
    outer loop
      vertex 0.914045991 -1.1898929 1.91272631
      vertex 0.853698143 -1.14715196 1.99416315
      vertex 0.854076387 -1.14760497 1.99467372
    endloop
  endfacet
  facet normal 0.545178217 -0.384435715 -0.744976437
    outer loop
      vertex 0.912515173 -1.19107438 1.91221575
      vertex 0.913667747 -1.18943989 1.91221575
      vertex 0.914045991 -1.1898929 1.91272631
    endloop
  endfacet
  facet normal -0.545178217 0.384435715 0.744976437
    outer loop
      vertex 0.852545569 -1.14878646 1.99416315
      vertex 0.854076387 -1.14760497 1.99467372
      vertex 0.853698143 -1.14715196 1.99416315
    endloop
  endfacet
  facet normal 0.446436911 0.885300455 -0.130142955
    outer loop
      vertex 0.916947592 -1.2148937 1.92775107
      vertex 0.916393879 -1.21468953 1.9272405
      vertex 0.856424275 -1.1724016 2.00918791
    endloop
  endfacet
  facet normal 0.446436911 0.885300455 -0.130142955
    outer loop
      vertex 0.916947592 -1.2148937 1.92775107
      vertex 0.856424275 -1.1724016 2.00918791
      vertex 0.856977988 -1.17260577 2.00969848
    endloop
  endfacet
  facet normal 0.545178217 -0.384435715 -0.744976437
    outer loop
      vertex 0.915795018 -1.21652819 1.92775107
      vertex 0.916393879 -1.21468953 1.9272405
      vertex 0.916947592 -1.2148937 1.92775107
    endloop
  endfacet
  facet normal -0.545178217 0.384435715 0.744976437
    outer loop
      vertex 0.855825414 -1.17424026 2.00969848
      vertex 0.856977988 -1.17260577 2.00969848
      vertex 0.856424275 -1.1724016 2.00918791
    endloop
  endfacet
  facet normal 0.140917229 0.91803392 -0.37061578
    outer loop
      vertex 0.916393879 -1.21468953 1.9272405
      vertex 0.915748995 -1.21476528 1.92680766
      vertex 0.855779391 -1.17247735 2.00875507
    endloop
  endfacet
  facet normal 0.140917229 0.91803392 -0.37061578
    outer loop
      vertex 0.916393879 -1.21468953 1.9272405
      vertex 0.855779391 -1.17247735 2.00875507
      vertex 0.856424275 -1.1724016 2.00918791
    endloop
  endfacet
  facet normal 0.545178217 -0.384435715 -0.744976437
    outer loop
      vertex 0.915795018 -1.21652819 1.92775107
      vertex 0.915748995 -1.21476528 1.92680766
      vertex 0.916393879 -1.21468953 1.9272405
    endloop
  endfacet
  facet normal -0.545178217 0.384435715 0.744976437
    outer loop
      vertex 0.855825414 -1.17424026 2.00969848
      vertex 0.856424275 -1.1724016 2.00918791
      vertex 0.855779391 -1.17247735 2.00875507
    endloop
  endfacet
  facet normal -0.186055823 0.811005043 -0.554665712
    outer loop
      vertex 0.915748995 -1.21476528 1.92680766
      vertex 0.915111117 -1.21510942 1.92651845
      vertex 0.855141514 -1.17282149 2.00846586
    endloop
  endfacet
  facet normal -0.186055823 0.811005043 -0.554665712
    outer loop
      vertex 0.915748995 -1.21476528 1.92680766
      vertex 0.855141514 -1.17282149 2.00846586
      vertex 0.855779391 -1.17247735 2.00875507
    endloop
  endfacet
  facet normal 0.545178217 -0.384435715 -0.744976437
    outer loop
      vertex 0.915795018 -1.21652819 1.92775107
      vertex 0.915111117 -1.21510942 1.92651845
      vertex 0.915748995 -1.21476528 1.92680766
    endloop
  endfacet
  facet normal -0.545178217 0.384435715 0.744976437
    outer loop
      vertex 0.855825414 -1.17424026 2.00969848
      vertex 0.855779391 -1.17247735 2.00875507
      vertex 0.855141514 -1.17282149 2.00846586
    endloop
  endfacet
  facet normal -0.484703563 0.580507999 -0.654272817
    outer loop
      vertex 0.915111117 -1.21510942 1.92651845
      vertex 0.914577358 -1.21566955 1.92641689
      vertex 0.854607754 -1.17338162 2.0083643
    endloop
  endfacet
  facet normal -0.484703563 0.580507999 -0.654272817
    outer loop
      vertex 0.915111117 -1.21510942 1.92651845
      vertex 0.854607754 -1.17338162 2.0083643
      vertex 0.855141514 -1.17282149 2.00846586
    endloop
  endfacet
  facet normal 0.545178217 -0.384435715 -0.744976437
    outer loop
      vertex 0.915795018 -1.21652819 1.92775107
      vertex 0.914577358 -1.21566955 1.92641689
      vertex 0.915111117 -1.21510942 1.92651845
    endloop
  endfacet
  facet normal -0.545178217 0.384435715 0.744976437
    outer loop
      vertex 0.855825414 -1.17424026 2.00969848
      vertex 0.855141514 -1.17282149 2.00846586
      vertex 0.854607754 -1.17338162 2.0083643
    endloop
  endfacet
  facet normal -0.709559579 0.261633875 -0.654272817
    outer loop
      vertex 0.914577358 -1.21566955 1.92641689
      vertex 0.914228976 -1.2163604 1.92651845
      vertex 0.854259372 -1.17407248 2.00846586
    endloop
  endfacet
  facet normal -0.709559579 0.261633875 -0.654272817
    outer loop
      vertex 0.914577358 -1.21566955 1.92641689
      vertex 0.854259372 -1.17407248 2.00846586
      vertex 0.854607754 -1.17338162 2.0083643
    endloop
  endfacet
  facet normal 0.545178217 -0.384435715 -0.744976437
    outer loop
      vertex 0.915795018 -1.21652819 1.92775107
      vertex 0.914228976 -1.2163604 1.92651845
      vertex 0.914577358 -1.21566955 1.92641689
    endloop
  endfacet
  facet normal -0.545178217 0.384435715 0.744976437
    outer loop
      vertex 0.855825414 -1.17424026 2.00969848
      vertex 0.854607754 -1.17338162 2.0083643
      vertex 0.854259372 -1.17407248 2.00846586
    endloop
  endfacet
  facet normal -0.826391582 -0.0970716346 -0.554665712
    outer loop
      vertex 0.914228976 -1.2163604 1.92651845
      vertex 0.914119009 -1.2170768 1.92680766
      vertex 0.854149405 -1.17478887 2.00875507
    endloop
  endfacet
  facet normal -0.826391582 -0.0970716346 -0.554665712
    outer loop
      vertex 0.914228976 -1.2163604 1.92651845
      vertex 0.854149405 -1.17478887 2.00875507
      vertex 0.854259372 -1.17407248 2.00846586
    endloop
  endfacet
  facet normal 0.545178217 -0.384435715 -0.744976437
    outer loop
      vertex 0.915795018 -1.21652819 1.92775107
      vertex 0.914119009 -1.2170768 1.92680766
      vertex 0.914228976 -1.2163604 1.92651845
    endloop
  endfacet
  facet normal -0.545178217 0.384435715 0.744976437
    outer loop
      vertex 0.855825414 -1.17424026 2.00969848
      vertex 0.854259372 -1.17407248 2.00846586
      vertex 0.854149405 -1.17478887 2.00875507
    endloop
  endfacet
  facet normal -0.817412957 -0.440998868 -0.37061578
    outer loop
      vertex 0.914119009 -1.2170768 1.92680766
      vertex 0.9142642 -1.21770968 1.9272405
      vertex 0.854294596 -1.17542175 2.00918791
    endloop
  endfacet
  facet normal -0.817412957 -0.440998868 -0.37061578
    outer loop
      vertex 0.914119009 -1.2170768 1.92680766
      vertex 0.854294596 -1.17542175 2.00918791
      vertex 0.854149405 -1.17478887 2.00875507
    endloop
  endfacet
  facet normal 0.545178217 -0.384435715 -0.744976437
    outer loop
      vertex 0.915795018 -1.21652819 1.92775107
      vertex 0.9142642 -1.21770968 1.9272405
      vertex 0.914119009 -1.2170768 1.92680766
    endloop
  endfacet
  facet normal -0.545178217 0.384435715 0.744976437
    outer loop
      vertex 0.855825414 -1.17424026 2.00969848
      vertex 0.854149405 -1.17478887 2.00875507
      vertex 0.854294596 -1.17542175 2.00918791
    endloop
  endfacet
  facet normal -0.68399062 -0.717788021 -0.130142955
    outer loop
      vertex 0.9142642 -1.21770968 1.9272405
      vertex 0.914642444 -1.21816269 1.92775107
      vertex 0.85467284 -1.17587476 2.00969848
    endloop
  endfacet
  facet normal -0.68399062 -0.717788021 -0.130142955
    outer loop
      vertex 0.9142642 -1.21770968 1.9272405
      vertex 0.85467284 -1.17587476 2.00969848
      vertex 0.854294596 -1.17542175 2.00918791
    endloop
  endfacet
  facet normal 0.545178217 -0.384435715 -0.744976437
    outer loop
      vertex 0.915795018 -1.21652819 1.92775107
      vertex 0.914642444 -1.21816269 1.92775107
      vertex 0.9142642 -1.21770968 1.9272405
    endloop
  endfacet
  facet normal -0.545178217 0.384435715 0.744976437
    outer loop
      vertex 0.855825414 -1.17424026 2.00969848
      vertex 0.854294596 -1.17542175 2.00918791
      vertex 0.85467284 -1.17587476 2.00969848
    endloop
  endfacet
  facet normal -0.446436911 -0.885300455 0.130142955
    outer loop
      vertex 0.914642444 -1.21816269 1.92775107
      vertex 0.915196157 -1.21836685 1.92826164
      vertex 0.855226553 -1.17607893 2.01020905
    endloop
  endfacet
  facet normal -0.446436911 -0.885300455 0.130142955
    outer loop
      vertex 0.914642444 -1.21816269 1.92775107
      vertex 0.855226553 -1.17607893 2.01020905
      vertex 0.85467284 -1.17587476 2.00969848
    endloop
  endfacet
  facet normal 0.545178217 -0.384435715 -0.744976437
    outer loop
      vertex 0.915795018 -1.21652819 1.92775107
      vertex 0.915196157 -1.21836685 1.92826164
      vertex 0.914642444 -1.21816269 1.92775107
    endloop
  endfacet
  facet normal -0.545178217 0.384435715 0.744976437
    outer loop
      vertex 0.855825414 -1.17424026 2.00969848
      vertex 0.85467284 -1.17587476 2.00969848
      vertex 0.855226553 -1.17607893 2.01020905
    endloop
  endfacet
  facet normal -0.140917229 -0.91803392 0.37061578
    outer loop
      vertex 0.915196157 -1.21836685 1.92826164
      vertex 0.915841041 -1.2182911 1.92869448
      vertex 0.855871437 -1.17600318 2.01064189
    endloop
  endfacet
  facet normal -0.140917229 -0.91803392 0.37061578
    outer loop
      vertex 0.915196157 -1.21836685 1.92826164
      vertex 0.855871437 -1.17600318 2.01064189
      vertex 0.855226553 -1.17607893 2.01020905
    endloop
  endfacet
  facet normal 0.545178217 -0.384435715 -0.744976437
    outer loop
      vertex 0.915795018 -1.21652819 1.92775107
      vertex 0.915841041 -1.2182911 1.92869448
      vertex 0.915196157 -1.21836685 1.92826164
    endloop
  endfacet
  facet normal -0.545178217 0.384435715 0.744976437
    outer loop
      vertex 0.855825414 -1.17424026 2.00969848
      vertex 0.855226553 -1.17607893 2.01020905
      vertex 0.855871437 -1.17600318 2.01064189
    endloop
  endfacet
  facet normal 0.186055823 -0.811005043 0.554665712
    outer loop
      vertex 0.915841041 -1.2182911 1.92869448
      vertex 0.916478918 -1.21794697 1.92898369
      vertex 0.856509314 -1.17565904 2.0109311
    endloop
  endfacet
  facet normal 0.186055823 -0.811005043 0.554665712
    outer loop
      vertex 0.915841041 -1.2182911 1.92869448
      vertex 0.856509314 -1.17565904 2.0109311
      vertex 0.855871437 -1.17600318 2.01064189
    endloop
  endfacet
  facet normal 0.545178217 -0.384435715 -0.744976437
    outer loop
      vertex 0.915795018 -1.21652819 1.92775107
      vertex 0.916478918 -1.21794697 1.92898369
      vertex 0.915841041 -1.2182911 1.92869448
    endloop
  endfacet
  facet normal -0.545178217 0.384435715 0.744976437
    outer loop
      vertex 0.855825414 -1.17424026 2.00969848
      vertex 0.855871437 -1.17600318 2.01064189
      vertex 0.856509314 -1.17565904 2.0109311
    endloop
  endfacet
  facet normal 0.484703563 -0.580507999 0.654272817
    outer loop
      vertex 0.916478918 -1.21794697 1.92898369
      vertex 0.917012678 -1.21738683 1.92908525
      vertex 0.857043074 -1.1750989 2.01103266
    endloop
  endfacet
  facet normal 0.484703563 -0.580507999 0.654272817
    outer loop
      vertex 0.916478918 -1.21794697 1.92898369
      vertex 0.857043074 -1.1750989 2.01103266
      vertex 0.856509314 -1.17565904 2.0109311
    endloop
  endfacet
  facet normal 0.545178217 -0.384435715 -0.744976437
    outer loop
      vertex 0.915795018 -1.21652819 1.92775107
      vertex 0.917012678 -1.21738683 1.92908525
      vertex 0.916478918 -1.21794697 1.92898369
    endloop
  endfacet
  facet normal -0.545178217 0.384435715 0.744976437
    outer loop
      vertex 0.855825414 -1.17424026 2.00969848
      vertex 0.856509314 -1.17565904 2.0109311
      vertex 0.857043074 -1.1750989 2.01103266
    endloop
  endfacet
  facet normal 0.709559579 -0.261633875 0.654272817
    outer loop
      vertex 0.917012678 -1.21738683 1.92908525
      vertex 0.91736106 -1.21669598 1.92898369
      vertex 0.857391456 -1.17440805 2.0109311
    endloop
  endfacet
  facet normal 0.709559579 -0.261633875 0.654272817
    outer loop
      vertex 0.917012678 -1.21738683 1.92908525
      vertex 0.857391456 -1.17440805 2.0109311
      vertex 0.857043074 -1.1750989 2.01103266
    endloop
  endfacet
  facet normal 0.545178217 -0.384435715 -0.744976437
    outer loop
      vertex 0.915795018 -1.21652819 1.92775107
      vertex 0.91736106 -1.21669598 1.92898369
      vertex 0.917012678 -1.21738683 1.92908525
    endloop
  endfacet
  facet normal -0.545178217 0.384435715 0.744976437
    outer loop
      vertex 0.855825414 -1.17424026 2.00969848
      vertex 0.857043074 -1.1750989 2.01103266
      vertex 0.857391456 -1.17440805 2.0109311
    endloop
  endfacet
  facet normal 0.826391582 0.0970716346 0.554665712
    outer loop
      vertex 0.91736106 -1.21669598 1.92898369
      vertex 0.917471026 -1.21597958 1.92869448
      vertex 0.857501423 -1.17369165 2.01064189
    endloop
  endfacet
  facet normal 0.826391582 0.0970716346 0.554665712
    outer loop
      vertex 0.91736106 -1.21669598 1.92898369
      vertex 0.857501423 -1.17369165 2.01064189
      vertex 0.857391456 -1.17440805 2.0109311
    endloop
  endfacet
  facet normal 0.545178217 -0.384435715 -0.744976437
    outer loop
      vertex 0.915795018 -1.21652819 1.92775107
      vertex 0.917471026 -1.21597958 1.92869448
      vertex 0.91736106 -1.21669598 1.92898369
    endloop
  endfacet
  facet normal -0.545178217 0.384435715 0.744976437
    outer loop
      vertex 0.855825414 -1.17424026 2.00969848
      vertex 0.857391456 -1.17440805 2.0109311
      vertex 0.857501423 -1.17369165 2.01064189
    endloop
  endfacet
  facet normal 0.817412957 0.440998868 0.37061578
    outer loop
      vertex 0.917471026 -1.21597958 1.92869448
      vertex 0.917325836 -1.2153467 1.92826164
      vertex 0.857356232 -1.17305877 2.01020905
    endloop
  endfacet
  facet normal 0.817412957 0.440998868 0.37061578
    outer loop
      vertex 0.917471026 -1.21597958 1.92869448
      vertex 0.857356232 -1.17305877 2.01020905
      vertex 0.857501423 -1.17369165 2.01064189
    endloop
  endfacet
  facet normal 0.545178217 -0.384435715 -0.744976437
    outer loop
      vertex 0.915795018 -1.21652819 1.92775107
      vertex 0.917325836 -1.2153467 1.92826164
      vertex 0.917471026 -1.21597958 1.92869448
    endloop
  endfacet
  facet normal -0.545178217 0.384435715 0.744976437
    outer loop
      vertex 0.855825414 -1.17424026 2.00969848
      vertex 0.857501423 -1.17369165 2.01064189
      vertex 0.857356232 -1.17305877 2.01020905
    endloop
  endfacet
  facet normal 0.68399062 0.717788021 0.130142955
    outer loop
      vertex 0.917325836 -1.2153467 1.92826164
      vertex 0.916947592 -1.2148937 1.92775107
      vertex 0.856977988 -1.17260577 2.00969848
    endloop
  endfacet
  facet normal 0.68399062 0.717788021 0.130142955
    outer loop
      vertex 0.917325836 -1.2153467 1.92826164
      vertex 0.856977988 -1.17260577 2.00969848
      vertex 0.857356232 -1.17305877 2.01020905
    endloop
  endfacet
  facet normal 0.545178217 -0.384435715 -0.744976437
    outer loop
      vertex 0.915795018 -1.21652819 1.92775107
      vertex 0.916947592 -1.2148937 1.92775107
      vertex 0.917325836 -1.2153467 1.92826164
    endloop
  endfacet
  facet normal -0.545178217 0.384435715 0.744976437
    outer loop
      vertex 0.855825414 -1.17424026 2.00969848
      vertex 0.857356232 -1.17305877 2.01020905
      vertex 0.856977988 -1.17260577 2.00969848
    endloop
  endfacet
  facet normal 0.440764466 0.888765716 -0.125786276
    outer loop
      vertex 0.703936357 -1.48719918 1.91281431
      vertex 0.703369888 -1.4869881 1.91232083
      vertex 0.655849523 -1.45368492 1.98111555
    endloop
  endfacet
  facet normal 0.440764466 0.888765716 -0.125786276
    outer loop
      vertex 0.703936357 -1.48719918 1.91281431
      vertex 0.655849523 -1.45368492 1.98111555
      vertex 0.656415991 -1.45389601 1.98160903
    endloop
  endfacet
  facet normal 0.528004064 -0.370035277 -0.764385768
    outer loop
      vertex 0.702788532 -1.48883702 1.91281431
      vertex 0.703369888 -1.4869881 1.91232083
      vertex 0.703936357 -1.48719918 1.91281431
    endloop
  endfacet
  facet normal -0.528004064 0.370035277 0.764385768
    outer loop
      vertex 0.655268166 -1.45553384 1.98160903
      vertex 0.656415991 -1.45389601 1.98160903
      vertex 0.655849523 -1.45368492 1.98111555
    endloop
  endfacet
  facet normal 0.129421366 0.924627718 -0.358209007
    outer loop
      vertex 0.703369888 -1.4869881 1.91232083
      vertex 0.702714914 -1.48705849 1.91190248
      vertex 0.655194548 -1.45375532 1.9806972
    endloop
  endfacet
  facet normal 0.129421366 0.924627718 -0.358209007
    outer loop
      vertex 0.703369888 -1.4869881 1.91232083
      vertex 0.655194548 -1.45375532 1.9806972
      vertex 0.655849523 -1.45368492 1.98111555
    endloop
  endfacet
  facet normal 0.528004064 -0.370035277 -0.764385768
    outer loop
      vertex 0.702788532 -1.48883702 1.91281431
      vertex 0.702714914 -1.48705849 1.91190248
      vertex 0.703369888 -1.4869881 1.91232083
    endloop
  endfacet
  facet normal -0.528004064 0.370035277 0.764385768
    outer loop
      vertex 0.655268166 -1.45553384 1.98160903
      vertex 0.655849523 -1.45368492 1.98111555
      vertex 0.655194548 -1.45375532 1.9806972
    endloop
  endfacet
  facet normal -0.201624964 0.819723532 -0.536097664
    outer loop
      vertex 0.702714914 -1.48705849 1.91190248
      vertex 0.702071147 -1.48739965 1.91162295
      vertex 0.654550781 -1.45409648 1.98041767
    endloop
  endfacet
  facet normal -0.201624964 0.819723532 -0.536097664
    outer loop
      vertex 0.702714914 -1.48705849 1.91190248
      vertex 0.654550781 -1.45409648 1.98041767
      vertex 0.655194548 -1.45375532 1.9806972
    endloop
  endfacet
  facet normal 0.528004064 -0.370035277 -0.764385768
    outer loop
      vertex 0.702788532 -1.48883702 1.91281431
      vertex 0.702071147 -1.48739965 1.91162295
      vertex 0.702714914 -1.48705849 1.91190248
    endloop
  endfacet
  facet normal -0.528004064 0.370035277 0.764385768
    outer loop
      vertex 0.655268166 -1.45553384 1.98160903
      vertex 0.655194548 -1.45375532 1.9806972
      vertex 0.654550781 -1.45409648 1.98041767
    endloop
  endfacet
  facet normal -0.50197572 0.590023869 -0.632370311
    outer loop
      vertex 0.702071147 -1.48739965 1.91162295
      vertex 0.701536595 -1.48795964 1.91152479
      vertex 0.65401623 -1.45465646 1.98031951
    endloop
  endfacet
  facet normal -0.50197572 0.590023869 -0.632370311
    outer loop
      vertex 0.702071147 -1.48739965 1.91162295
      vertex 0.65401623 -1.45465646 1.98031951
      vertex 0.654550781 -1.45409648 1.98041767
    endloop
  endfacet
  facet normal 0.528004064 -0.370035277 -0.764385768
    outer loop
      vertex 0.702788532 -1.48883702 1.91281431
      vertex 0.701536595 -1.48795964 1.91152479
      vertex 0.702071147 -1.48739965 1.91162295
    endloop
  endfacet
  facet normal -0.528004064 0.370035277 0.764385768
    outer loop
      vertex 0.655268166 -1.45553384 1.98160903
      vertex 0.654550781 -1.45409648 1.98041767
      vertex 0.65401623 -1.45465646 1.98031951
    endloop
  endfacet
  facet normal -0.725905224 0.27049842 -0.632370311
    outer loop
      vertex 0.701536595 -1.48795964 1.91152479
      vertex 0.70119264 -1.48865319 1.91162295
      vertex 0.653672274 -1.45535002 1.98041767
    endloop
  endfacet
  facet normal -0.725905224 0.27049842 -0.632370311
    outer loop
      vertex 0.701536595 -1.48795964 1.91152479
      vertex 0.653672274 -1.45535002 1.98041767
      vertex 0.65401623 -1.45465646 1.98031951
    endloop
  endfacet
  facet normal 0.528004064 -0.370035277 -0.764385768
    outer loop
      vertex 0.702788532 -1.48883702 1.91281431
      vertex 0.70119264 -1.48865319 1.91162295
      vertex 0.701536595 -1.48795964 1.91152479
    endloop
  endfacet
  facet normal -0.528004064 0.370035277 0.764385768
    outer loop
      vertex 0.655268166 -1.45553384 1.98160903
      vertex 0.65401623 -1.45465646 1.98031951
      vertex 0.653672274 -1.45535002 1.98041767
    endloop
  endfacet
  facet normal -0.839322238 -0.0902079609 -0.536097664
    outer loop
      vertex 0.70119264 -1.48865319 1.91162295
      vertex 0.701091645 -1.48937474 1.91190248
      vertex 0.653571279 -1.45607156 1.9806972
    endloop
  endfacet
  facet normal -0.839322238 -0.0902079609 -0.536097664
    outer loop
      vertex 0.70119264 -1.48865319 1.91162295
      vertex 0.653571279 -1.45607156 1.9806972
      vertex 0.653672274 -1.45535002 1.98041767
    endloop
  endfacet
  facet normal 0.528004064 -0.370035277 -0.764385768
    outer loop
      vertex 0.702788532 -1.48883702 1.91281431
      vertex 0.701091645 -1.48937474 1.91190248
      vertex 0.70119264 -1.48865319 1.91162295
    endloop
  endfacet
  facet normal -0.528004064 0.370035277 0.764385768
    outer loop
      vertex 0.655268166 -1.45553384 1.98160903
      vertex 0.653672274 -1.45535002 1.98041767
      vertex 0.653571279 -1.45607156 1.9806972
    endloop
  endfacet
  facet normal -0.824960049 -0.437180998 -0.358209007
    outer loop
      vertex 0.701091645 -1.48937474 1.91190248
      vertex 0.701248985 -1.49001442 1.91232083
      vertex 0.653728619 -1.45671124 1.98111555
    endloop
  endfacet
  facet normal -0.824960049 -0.437180998 -0.358209007
    outer loop
      vertex 0.701091645 -1.48937474 1.91190248
      vertex 0.653728619 -1.45671124 1.98111555
      vertex 0.653571279 -1.45607156 1.9806972
    endloop
  endfacet
  facet normal 0.528004064 -0.370035277 -0.764385768
    outer loop
      vertex 0.702788532 -1.48883702 1.91281431
      vertex 0.701248985 -1.49001442 1.91232083
      vertex 0.701091645 -1.48937474 1.91190248
    endloop
  endfacet
  facet normal -0.528004064 0.370035277 0.764385768
    outer loop
      vertex 0.655268166 -1.45553384 1.98160903
      vertex 0.653571279 -1.45607156 1.9806972
      vertex 0.653728619 -1.45671124 1.98111555
    endloop
  endfacet
  facet normal -0.685005171 -0.717597191 -0.125786276
    outer loop
      vertex 0.701248985 -1.49001442 1.91232083
      vertex 0.701640707 -1.49047485 1.91281431
      vertex 0.654120342 -1.45717167 1.98160903
    endloop
  endfacet
  facet normal -0.685005171 -0.717597191 -0.125786276
    outer loop
      vertex 0.701248985 -1.49001442 1.91232083
      vertex 0.654120342 -1.45717167 1.98160903
      vertex 0.653728619 -1.45671124 1.98111555
    endloop
  endfacet
  facet normal 0.528004064 -0.370035277 -0.764385768
    outer loop
      vertex 0.702788532 -1.48883702 1.91281431
      vertex 0.701640707 -1.49047485 1.91281431
      vertex 0.701248985 -1.49001442 1.91232083
    endloop
  endfacet
  facet normal -0.528004064 0.370035277 0.764385768
    outer loop
      vertex 0.655268166 -1.45553384 1.98160903
      vertex 0.653728619 -1.45671124 1.98111555
      vertex 0.654120342 -1.45717167 1.98160903
    endloop
  endfacet
  facet normal -0.440764466 -0.888765716 0.125786276
    outer loop
      vertex 0.701640707 -1.49047485 1.91281431
      vertex 0.702207176 -1.49068594 1.91330778
      vertex 0.65468681 -1.45738276 1.9821025
    endloop
  endfacet
  facet normal -0.440764466 -0.888765716 0.125786276
    outer loop
      vertex 0.701640707 -1.49047485 1.91281431
      vertex 0.65468681 -1.45738276 1.9821025
      vertex 0.654120342 -1.45717167 1.98160903
    endloop
  endfacet
  facet normal 0.528004064 -0.370035277 -0.764385768
    outer loop
      vertex 0.702788532 -1.48883702 1.91281431
      vertex 0.702207176 -1.49068594 1.91330778
      vertex 0.701640707 -1.49047485 1.91281431
    endloop
  endfacet
  facet normal -0.528004064 0.370035277 0.764385768
    outer loop
      vertex 0.655268166 -1.45553384 1.98160903
      vertex 0.654120342 -1.45717167 1.98160903
      vertex 0.65468681 -1.45738276 1.9821025
    endloop
  endfacet
  facet normal -0.129421366 -0.924627718 0.358209007
    outer loop
      vertex 0.702207176 -1.49068594 1.91330778
      vertex 0.70286215 -1.49061554 1.91372613
      vertex 0.655341784 -1.45731237 1.98252085
    endloop
  endfacet
  facet normal -0.129421366 -0.924627718 0.358209007
    outer loop
      vertex 0.702207176 -1.49068594 1.91330778
      vertex 0.655341784 -1.45731237 1.98252085
      vertex 0.65468681 -1.45738276 1.9821025
    endloop
  endfacet
  facet normal 0.528004064 -0.370035277 -0.764385768
    outer loop
      vertex 0.702788532 -1.48883702 1.91281431
      vertex 0.70286215 -1.49061554 1.91372613
      vertex 0.702207176 -1.49068594 1.91330778
    endloop
  endfacet
  facet normal -0.528004064 0.370035277 0.764385768
    outer loop
      vertex 0.655268166 -1.45553384 1.98160903
      vertex 0.65468681 -1.45738276 1.9821025
      vertex 0.655341784 -1.45731237 1.98252085
    endloop
  endfacet
  facet normal 0.201624964 -0.819723532 0.536097664
    outer loop
      vertex 0.70286215 -1.49061554 1.91372613
      vertex 0.703505917 -1.49027438 1.91400567
      vertex 0.655985551 -1.45697121 1.98280039
    endloop
  endfacet
  facet normal 0.201624964 -0.819723532 0.536097664
    outer loop
      vertex 0.70286215 -1.49061554 1.91372613
      vertex 0.655985551 -1.45697121 1.98280039
      vertex 0.655341784 -1.45731237 1.98252085
    endloop
  endfacet
  facet normal 0.528004064 -0.370035277 -0.764385768
    outer loop
      vertex 0.702788532 -1.48883702 1.91281431
      vertex 0.703505917 -1.49027438 1.91400567
      vertex 0.70286215 -1.49061554 1.91372613
    endloop
  endfacet
  facet normal -0.528004064 0.370035277 0.764385768
    outer loop
      vertex 0.655268166 -1.45553384 1.98160903
      vertex 0.655341784 -1.45731237 1.98252085
      vertex 0.655985551 -1.45697121 1.98280039
    endloop
  endfacet
  facet normal 0.50197572 -0.590023869 0.632370311
    outer loop
      vertex 0.703505917 -1.49027438 1.91400567
      vertex 0.704040469 -1.4897144 1.91410383
      vertex 0.656520103 -1.45641122 1.98289854
    endloop
  endfacet
  facet normal 0.50197572 -0.590023869 0.632370311
    outer loop
      vertex 0.703505917 -1.49027438 1.91400567
      vertex 0.656520103 -1.45641122 1.98289854
      vertex 0.655985551 -1.45697121 1.98280039
    endloop
  endfacet
  facet normal 0.528004064 -0.370035277 -0.764385768
    outer loop
      vertex 0.702788532 -1.48883702 1.91281431
      vertex 0.704040469 -1.4897144 1.91410383
      vertex 0.703505917 -1.49027438 1.91400567
    endloop
  endfacet
  facet normal -0.528004064 0.370035277 0.764385768
    outer loop
      vertex 0.655268166 -1.45553384 1.98160903
      vertex 0.655985551 -1.45697121 1.98280039
      vertex 0.656520103 -1.45641122 1.98289854
    endloop
  endfacet
  facet normal 0.725905224 -0.27049842 0.632370311
    outer loop
      vertex 0.704040469 -1.4897144 1.91410383
      vertex 0.704384424 -1.48902084 1.91400567
      vertex 0.656864058 -1.45571766 1.98280039
    endloop
  endfacet
  facet normal 0.725905224 -0.27049842 0.632370311
    outer loop
      vertex 0.704040469 -1.4897144 1.91410383
      vertex 0.656864058 -1.45571766 1.98280039
      vertex 0.656520103 -1.45641122 1.98289854
    endloop
  endfacet
  facet normal 0.528004064 -0.370035277 -0.764385768
    outer loop
      vertex 0.702788532 -1.48883702 1.91281431
      vertex 0.704384424 -1.48902084 1.91400567
      vertex 0.704040469 -1.4897144 1.91410383
    endloop
  endfacet
  facet normal -0.528004064 0.370035277 0.764385768
    outer loop
      vertex 0.655268166 -1.45553384 1.98160903
      vertex 0.656520103 -1.45641122 1.98289854
      vertex 0.656864058 -1.45571766 1.98280039
    endloop
  endfacet
  facet normal 0.839322238 0.0902079609 0.536097664
    outer loop
      vertex 0.704384424 -1.48902084 1.91400567
      vertex 0.70448542 -1.4882993 1.91372613
      vertex 0.656965054 -1.45499612 1.98252085
    endloop
  endfacet
  facet normal 0.839322238 0.0902079609 0.536097664
    outer loop
      vertex 0.704384424 -1.48902084 1.91400567
      vertex 0.656965054 -1.45499612 1.98252085
      vertex 0.656864058 -1.45571766 1.98280039
    endloop
  endfacet
  facet normal 0.528004064 -0.370035277 -0.764385768
    outer loop
      vertex 0.702788532 -1.48883702 1.91281431
      vertex 0.70448542 -1.4882993 1.91372613
      vertex 0.704384424 -1.48902084 1.91400567
    endloop
  endfacet
  facet normal -0.528004064 0.370035277 0.764385768
    outer loop
      vertex 0.655268166 -1.45553384 1.98160903
      vertex 0.656864058 -1.45571766 1.98280039
      vertex 0.656965054 -1.45499612 1.98252085
    endloop
  endfacet
  facet normal 0.824960049 0.437180998 0.358209007
    outer loop
      vertex 0.70448542 -1.4882993 1.91372613
      vertex 0.704328079 -1.48765961 1.91330778
      vertex 0.656807713 -1.45435644 1.9821025
    endloop
  endfacet
  facet normal 0.824960049 0.437180998 0.358209007
    outer loop
      vertex 0.70448542 -1.4882993 1.91372613
      vertex 0.656807713 -1.45435644 1.9821025
      vertex 0.656965054 -1.45499612 1.98252085
    endloop
  endfacet
  facet normal 0.528004064 -0.370035277 -0.764385768
    outer loop
      vertex 0.702788532 -1.48883702 1.91281431
      vertex 0.704328079 -1.48765961 1.91330778
      vertex 0.70448542 -1.4882993 1.91372613
    endloop
  endfacet
  facet normal -0.528004064 0.370035277 0.764385768
    outer loop
      vertex 0.655268166 -1.45553384 1.98160903
      vertex 0.656965054 -1.45499612 1.98252085
      vertex 0.656807713 -1.45435644 1.9821025
    endloop
  endfacet
  facet normal 0.685005171 0.717597191 0.125786276
    outer loop
      vertex 0.704328079 -1.48765961 1.91330778
      vertex 0.703936357 -1.48719918 1.91281431
      vertex 0.656415991 -1.45389601 1.98160903
    endloop
  endfacet
  facet normal 0.685005171 0.717597191 0.125786276
    outer loop
      vertex 0.704328079 -1.48765961 1.91330778
      vertex 0.656415991 -1.45389601 1.98160903
      vertex 0.656807713 -1.45435644 1.9821025
    endloop
  endfacet
  facet normal 0.528004064 -0.370035277 -0.764385768
    outer loop
      vertex 0.702788532 -1.48883702 1.91281431
      vertex 0.703936357 -1.48719918 1.91281431
      vertex 0.704328079 -1.48765961 1.91330778
    endloop
  endfacet
  facet normal -0.528004064 0.370035277 0.764385768
    outer loop
      vertex 0.655268166 -1.45553384 1.98160903
      vertex 0.656807713 -1.45435644 1.9821025
      vertex 0.656415991 -1.45389601 1.98160903
    endloop
  endfacet
  facet normal 0.440764466 0.888765716 -0.125786276
    outer loop
      vertex 0.67916308 -1.48760664 1.89589926
      vertex 0.678596611 -1.48739555 1.89540579
      vertex 0.631076246 -1.45409237 1.9642005
    endloop
  endfacet
  facet normal 0.440764466 0.888765716 -0.125786276
    outer loop
      vertex 0.67916308 -1.48760664 1.89589926
      vertex 0.631076246 -1.45409237 1.9642005
      vertex 0.631642714 -1.45430346 1.96469398
    endloop
  endfacet
  facet normal 0.528004064 -0.370035277 -0.764385768
    outer loop
      vertex 0.678015255 -1.48924447 1.89589926
      vertex 0.678596611 -1.48739555 1.89540579
      vertex 0.67916308 -1.48760664 1.89589926
    endloop
  endfacet
  facet normal -0.528004064 0.370035277 0.764385768
    outer loop
      vertex 0.630494889 -1.45594129 1.96469398
      vertex 0.631642714 -1.45430346 1.96469398
      vertex 0.631076246 -1.45409237 1.9642005
    endloop
  endfacet
  facet normal 0.129421366 0.924627718 -0.358209007
    outer loop
      vertex 0.678596611 -1.48739555 1.89540579
      vertex 0.677941637 -1.48746594 1.89498744
      vertex 0.630421271 -1.45416277 1.96378216
    endloop
  endfacet
  facet normal 0.129421366 0.924627718 -0.358209007
    outer loop
      vertex 0.678596611 -1.48739555 1.89540579
      vertex 0.630421271 -1.45416277 1.96378216
      vertex 0.631076246 -1.45409237 1.9642005
    endloop
  endfacet
  facet normal 0.528004064 -0.370035277 -0.764385768
    outer loop
      vertex 0.678015255 -1.48924447 1.89589926
      vertex 0.677941637 -1.48746594 1.89498744
      vertex 0.678596611 -1.48739555 1.89540579
    endloop
  endfacet
  facet normal -0.528004064 0.370035277 0.764385768
    outer loop
      vertex 0.630494889 -1.45594129 1.96469398
      vertex 0.631076246 -1.45409237 1.9642005
      vertex 0.630421271 -1.45416277 1.96378216
    endloop
  endfacet
  facet normal -0.201624964 0.819723532 -0.536097664
    outer loop
      vertex 0.677941637 -1.48746594 1.89498744
      vertex 0.67729787 -1.4878071 1.8947079
      vertex 0.629777504 -1.45450393 1.96350262
    endloop
  endfacet
  facet normal -0.201624964 0.819723532 -0.536097664
    outer loop
      vertex 0.677941637 -1.48746594 1.89498744
      vertex 0.629777504 -1.45450393 1.96350262
      vertex 0.630421271 -1.45416277 1.96378216
    endloop
  endfacet
  facet normal 0.528004064 -0.370035277 -0.764385768
    outer loop
      vertex 0.678015255 -1.48924447 1.89589926
      vertex 0.67729787 -1.4878071 1.8947079
      vertex 0.677941637 -1.48746594 1.89498744
    endloop
  endfacet
  facet normal -0.528004064 0.370035277 0.764385768
    outer loop
      vertex 0.630494889 -1.45594129 1.96469398
      vertex 0.630421271 -1.45416277 1.96378216
      vertex 0.629777504 -1.45450393 1.96350262
    endloop
  endfacet
  facet normal -0.50197572 0.590023869 -0.632370311
    outer loop
      vertex 0.67729787 -1.4878071 1.8947079
      vertex 0.676763318 -1.48836709 1.89460974
      vertex 0.629242953 -1.45506391 1.96340446
    endloop
  endfacet
  facet normal -0.50197572 0.590023869 -0.632370311
    outer loop
      vertex 0.67729787 -1.4878071 1.8947079
      vertex 0.629242953 -1.45506391 1.96340446
      vertex 0.629777504 -1.45450393 1.96350262
    endloop
  endfacet
  facet normal 0.528004064 -0.370035277 -0.764385768
    outer loop
      vertex 0.678015255 -1.48924447 1.89589926
      vertex 0.676763318 -1.48836709 1.89460974
      vertex 0.67729787 -1.4878071 1.8947079
    endloop
  endfacet
  facet normal -0.528004064 0.370035277 0.764385768
    outer loop
      vertex 0.630494889 -1.45594129 1.96469398
      vertex 0.629777504 -1.45450393 1.96350262
      vertex 0.629242953 -1.45506391 1.96340446
    endloop
  endfacet
  facet normal -0.725905224 0.27049842 -0.632370311
    outer loop
      vertex 0.676763318 -1.48836709 1.89460974
      vertex 0.676419363 -1.48906065 1.8947079
      vertex 0.628898997 -1.45575747 1.96350262
    endloop
  endfacet
  facet normal -0.725905224 0.27049842 -0.632370311
    outer loop
      vertex 0.676763318 -1.48836709 1.89460974
      vertex 0.628898997 -1.45575747 1.96350262
      vertex 0.629242953 -1.45506391 1.96340446
    endloop
  endfacet
  facet normal 0.528004064 -0.370035277 -0.764385768
    outer loop
      vertex 0.678015255 -1.48924447 1.89589926
      vertex 0.676419363 -1.48906065 1.8947079
      vertex 0.676763318 -1.48836709 1.89460974
    endloop
  endfacet
  facet normal -0.528004064 0.370035277 0.764385768
    outer loop
      vertex 0.630494889 -1.45594129 1.96469398
      vertex 0.629242953 -1.45506391 1.96340446
      vertex 0.628898997 -1.45575747 1.96350262
    endloop
  endfacet
  facet normal -0.839322238 -0.0902079609 -0.536097664
    outer loop
      vertex 0.676419363 -1.48906065 1.8947079
      vertex 0.676318367 -1.48978219 1.89498744
      vertex 0.628798002 -1.45647902 1.96378216
    endloop
  endfacet
  facet normal -0.839322238 -0.0902079609 -0.536097664
    outer loop
      vertex 0.676419363 -1.48906065 1.8947079
      vertex 0.628798002 -1.45647902 1.96378216
      vertex 0.628898997 -1.45575747 1.96350262
    endloop
  endfacet
  facet normal 0.528004064 -0.370035277 -0.764385768
    outer loop
      vertex 0.678015255 -1.48924447 1.89589926
      vertex 0.676318367 -1.48978219 1.89498744
      vertex 0.676419363 -1.48906065 1.8947079
    endloop
  endfacet
  facet normal -0.528004064 0.370035277 0.764385768
    outer loop
      vertex 0.630494889 -1.45594129 1.96469398
      vertex 0.628898997 -1.45575747 1.96350262
      vertex 0.628798002 -1.45647902 1.96378216
    endloop
  endfacet
  facet normal -0.824960049 -0.437180998 -0.358209007
    outer loop
      vertex 0.676318367 -1.48978219 1.89498744
      vertex 0.676475708 -1.49042187 1.89540579
      vertex 0.628955342 -1.4571187 1.9642005
    endloop
  endfacet
  facet normal -0.824960049 -0.437180998 -0.358209007
    outer loop
      vertex 0.676318367 -1.48978219 1.89498744
      vertex 0.628955342 -1.4571187 1.9642005
      vertex 0.628798002 -1.45647902 1.96378216
    endloop
  endfacet
  facet normal 0.528004064 -0.370035277 -0.764385768
    outer loop
      vertex 0.678015255 -1.48924447 1.89589926
      vertex 0.676475708 -1.49042187 1.89540579
      vertex 0.676318367 -1.48978219 1.89498744
    endloop
  endfacet
  facet normal -0.528004064 0.370035277 0.764385768
    outer loop
      vertex 0.630494889 -1.45594129 1.96469398
      vertex 0.628798002 -1.45647902 1.96378216
      vertex 0.628955342 -1.4571187 1.9642005
    endloop
  endfacet
  facet normal -0.685005171 -0.717597191 -0.125786276
    outer loop
      vertex 0.676475708 -1.49042187 1.89540579
      vertex 0.67686743 -1.4908823 1.89589926
      vertex 0.629347064 -1.45757913 1.96469398
    endloop
  endfacet
  facet normal -0.685005171 -0.717597191 -0.125786276
    outer loop
      vertex 0.676475708 -1.49042187 1.89540579
      vertex 0.629347064 -1.45757913 1.96469398
      vertex 0.628955342 -1.4571187 1.9642005
    endloop
  endfacet
  facet normal 0.528004064 -0.370035277 -0.764385768
    outer loop
      vertex 0.678015255 -1.48924447 1.89589926
      vertex 0.67686743 -1.4908823 1.89589926
      vertex 0.676475708 -1.49042187 1.89540579
    endloop
  endfacet
  facet normal -0.528004064 0.370035277 0.764385768
    outer loop
      vertex 0.630494889 -1.45594129 1.96469398
      vertex 0.628955342 -1.4571187 1.9642005
      vertex 0.629347064 -1.45757913 1.96469398
    endloop
  endfacet
  facet normal -0.440764466 -0.888765716 0.125786276
    outer loop
      vertex 0.67686743 -1.4908823 1.89589926
      vertex 0.677433898 -1.49109339 1.89639274
      vertex 0.629913533 -1.45779021 1.96518746
    endloop
  endfacet
  facet normal -0.440764466 -0.888765716 0.125786276
    outer loop
      vertex 0.67686743 -1.4908823 1.89589926
      vertex 0.629913533 -1.45779021 1.96518746
      vertex 0.629347064 -1.45757913 1.96469398
    endloop
  endfacet
  facet normal 0.528004064 -0.370035277 -0.764385768
    outer loop
      vertex 0.678015255 -1.48924447 1.89589926
      vertex 0.677433898 -1.49109339 1.89639274
      vertex 0.67686743 -1.4908823 1.89589926
    endloop
  endfacet
  facet normal -0.528004064 0.370035277 0.764385768
    outer loop
      vertex 0.630494889 -1.45594129 1.96469398
      vertex 0.629347064 -1.45757913 1.96469398
      vertex 0.629913533 -1.45779021 1.96518746
    endloop
  endfacet
  facet normal -0.129421366 -0.924627718 0.358209007
    outer loop
      vertex 0.677433898 -1.49109339 1.89639274
      vertex 0.678088873 -1.49102299 1.89681109
      vertex 0.630568507 -1.45771982 1.96560581
    endloop
  endfacet
  facet normal -0.129421366 -0.924627718 0.358209007
    outer loop
      vertex 0.677433898 -1.49109339 1.89639274
      vertex 0.630568507 -1.45771982 1.96560581
      vertex 0.629913533 -1.45779021 1.96518746
    endloop
  endfacet
  facet normal 0.528004064 -0.370035277 -0.764385768
    outer loop
      vertex 0.678015255 -1.48924447 1.89589926
      vertex 0.678088873 -1.49102299 1.89681109
      vertex 0.677433898 -1.49109339 1.89639274
    endloop
  endfacet
  facet normal -0.528004064 0.370035277 0.764385768
    outer loop
      vertex 0.630494889 -1.45594129 1.96469398
      vertex 0.629913533 -1.45779021 1.96518746
      vertex 0.630568507 -1.45771982 1.96560581
    endloop
  endfacet
  facet normal 0.201624964 -0.819723532 0.536097664
    outer loop
      vertex 0.678088873 -1.49102299 1.89681109
      vertex 0.67873264 -1.49068184 1.89709062
      vertex 0.631212274 -1.45737866 1.96588534
    endloop
  endfacet
  facet normal 0.201624964 -0.819723532 0.536097664
    outer loop
      vertex 0.678088873 -1.49102299 1.89681109
      vertex 0.631212274 -1.45737866 1.96588534
      vertex 0.630568507 -1.45771982 1.96560581
    endloop
  endfacet
  facet normal 0.528004064 -0.370035277 -0.764385768
    outer loop
      vertex 0.678015255 -1.48924447 1.89589926
      vertex 0.67873264 -1.49068184 1.89709062
      vertex 0.678088873 -1.49102299 1.89681109
    endloop
  endfacet
  facet normal -0.528004064 0.370035277 0.764385768
    outer loop
      vertex 0.630494889 -1.45594129 1.96469398
      vertex 0.630568507 -1.45771982 1.96560581
      vertex 0.631212274 -1.45737866 1.96588534
    endloop
  endfacet
  facet normal 0.50197572 -0.590023869 0.632370311
    outer loop
      vertex 0.67873264 -1.49068184 1.89709062
      vertex 0.679267191 -1.49012185 1.89718878
      vertex 0.631746826 -1.45681868 1.9659835
    endloop
  endfacet
  facet normal 0.50197572 -0.590023869 0.632370311
    outer loop
      vertex 0.67873264 -1.49068184 1.89709062
      vertex 0.631746826 -1.45681868 1.9659835
      vertex 0.631212274 -1.45737866 1.96588534
    endloop
  endfacet
  facet normal 0.528004064 -0.370035277 -0.764385768
    outer loop
      vertex 0.678015255 -1.48924447 1.89589926
      vertex 0.679267191 -1.49012185 1.89718878
      vertex 0.67873264 -1.49068184 1.89709062
    endloop
  endfacet
  facet normal -0.528004064 0.370035277 0.764385768
    outer loop
      vertex 0.630494889 -1.45594129 1.96469398
      vertex 0.631212274 -1.45737866 1.96588534
      vertex 0.631746826 -1.45681868 1.9659835
    endloop
  endfacet
  facet normal 0.725905224 -0.27049842 0.632370311
    outer loop
      vertex 0.679267191 -1.49012185 1.89718878
      vertex 0.679611147 -1.48942829 1.89709062
      vertex 0.632090781 -1.45612512 1.96588534
    endloop
  endfacet
  facet normal 0.725905224 -0.27049842 0.632370311
    outer loop
      vertex 0.679267191 -1.49012185 1.89718878
      vertex 0.632090781 -1.45612512 1.96588534
      vertex 0.631746826 -1.45681868 1.9659835
    endloop
  endfacet
  facet normal 0.528004064 -0.370035277 -0.764385768
    outer loop
      vertex 0.678015255 -1.48924447 1.89589926
      vertex 0.679611147 -1.48942829 1.89709062
      vertex 0.679267191 -1.49012185 1.89718878
    endloop
  endfacet
  facet normal -0.528004064 0.370035277 0.764385768
    outer loop
      vertex 0.630494889 -1.45594129 1.96469398
      vertex 0.631746826 -1.45681868 1.9659835
      vertex 0.632090781 -1.45612512 1.96588534
    endloop
  endfacet
  facet normal 0.839322238 0.0902079609 0.536097664
    outer loop
      vertex 0.679611147 -1.48942829 1.89709062
      vertex 0.679712142 -1.48870675 1.89681109
      vertex 0.632191777 -1.45540357 1.96560581
    endloop
  endfacet
  facet normal 0.839322238 0.0902079609 0.536097664
    outer loop
      vertex 0.679611147 -1.48942829 1.89709062
      vertex 0.632191777 -1.45540357 1.96560581
      vertex 0.632090781 -1.45612512 1.96588534
    endloop
  endfacet
  facet normal 0.528004064 -0.370035277 -0.764385768
    outer loop
      vertex 0.678015255 -1.48924447 1.89589926
      vertex 0.679712142 -1.48870675 1.89681109
      vertex 0.679611147 -1.48942829 1.89709062
    endloop
  endfacet
  facet normal -0.528004064 0.370035277 0.764385768
    outer loop
      vertex 0.630494889 -1.45594129 1.96469398
      vertex 0.632090781 -1.45612512 1.96588534
      vertex 0.632191777 -1.45540357 1.96560581
    endloop
  endfacet
  facet normal 0.824960049 0.437180998 0.358209007
    outer loop
      vertex 0.679712142 -1.48870675 1.89681109
      vertex 0.679554802 -1.48806707 1.89639274
      vertex 0.632034436 -1.45476389 1.96518746
    endloop
  endfacet
  facet normal 0.824960049 0.437180998 0.358209007
    outer loop
      vertex 0.679712142 -1.48870675 1.89681109
      vertex 0.632034436 -1.45476389 1.96518746
      vertex 0.632191777 -1.45540357 1.96560581
    endloop
  endfacet
  facet normal 0.528004064 -0.370035277 -0.764385768
    outer loop
      vertex 0.678015255 -1.48924447 1.89589926
      vertex 0.679554802 -1.48806707 1.89639274
      vertex 0.679712142 -1.48870675 1.89681109
    endloop
  endfacet
  facet normal -0.528004064 0.370035277 0.764385768
    outer loop
      vertex 0.630494889 -1.45594129 1.96469398
      vertex 0.632191777 -1.45540357 1.96560581
      vertex 0.632034436 -1.45476389 1.96518746
    endloop
  endfacet
  facet normal 0.685005171 0.717597191 0.125786276
    outer loop
      vertex 0.679554802 -1.48806707 1.89639274
      vertex 0.67916308 -1.48760664 1.89589926
      vertex 0.631642714 -1.45430346 1.96469398
    endloop
  endfacet
  facet normal 0.685005171 0.717597191 0.125786276
    outer loop
      vertex 0.679554802 -1.48806707 1.89639274
      vertex 0.631642714 -1.45430346 1.96469398
      vertex 0.632034436 -1.45476389 1.96518746
    endloop
  endfacet
  facet normal 0.528004064 -0.370035277 -0.764385768
    outer loop
      vertex 0.678015255 -1.48924447 1.89589926
      vertex 0.67916308 -1.48760664 1.89589926
      vertex 0.679554802 -1.48806707 1.89639274
    endloop
  endfacet
  facet normal -0.528004064 0.370035277 0.764385768
    outer loop
      vertex 0.630494889 -1.45594129 1.96469398
      vertex 0.632034436 -1.45476389 1.96518746
      vertex 0.631642714 -1.45430346 1.96469398
    endloop
  endfacet
endsolid g17_features
