solid beam
  facet normal -0.456621286432647 0.7557834881958022 -0.46934882523255583
    outer loop
      vertex -0.03412306681275368 0.9047051072120667 0.7125425338745117
      vertex -0.007139952853322029 0.9027120471000671 0.6830817461013794
      vertex -0.04194209352135658 0.8635366559028625 0.6538567543029785
    endloop
  endfacet
  facet normal -0.4566220963643196 0.7557831940261586 -0.4693485109590442
    outer loop
      vertex -0.03412306681275368 0.9047051072120667 0.7125425338745117
      vertex -0.04194209352135658 0.8635366559028625 0.6538567543029785
      vertex -0.06892520189285278 0.8655297160148621 0.6833176016807556
    endloop
  endfacet
  facet normal -0.45662206767709396 0.755783191907231 -0.4693485422804816
    outer loop
      vertex -0.061106178909540176 0.9066981673240662 0.7420033812522888
      vertex -0.03412306681275368 0.9047051072120667 0.7125425338745117
      vertex -0.06892520189285278 0.8655297160148621 0.6833176016807556
    endloop
  endfacet
  facet normal -0.45662132544296236 0.7557834614889448 -0.46934883028564256
    outer loop
      vertex -0.061106178909540176 0.9066981673240662 0.7420033812522888
      vertex -0.06892520189285278 0.8655297160148621 0.6833176016807556
      vertex -0.09590831398963928 0.8675227761268616 0.7127783894538879
    endloop
  endfacet
  facet normal -0.6747966760532048 0.050188680665511944 0.7362951462019842
    outer loop
      vertex 0.041681818664073944 0.7445099353790283 0.7959485054016113
      vertex 0.060816049575805664 0.7450907826423645 0.813444972038269
      vertex 0.0515102781355381 0.7605037689208984 0.8038658499717712
    endloop
  endfacet
  facet normal -0.6747966901819937 0.05018786843080776 0.7362951886178519
    outer loop
      vertex 0.031330667436122894 0.6971093416213989 0.7896928787231445
      vertex 0.060816049575805664 0.7450907826423645 0.813444972038269
      vertex 0.041681818664073944 0.7445099353790283 0.7959485054016113
    endloop
  endfacet
  facet normal -0.6747956053092267 0.050187496963249784 0.7362962081960753
    outer loop
      vertex 0.02202489972114563 0.7125222682952881 0.7801138162612915
      vertex 0.031330667436122894 0.6971093416213989 0.7896928787231445
      vertex 0.03185335919260979 0.7285161018371582 0.7880311608314514
    endloop
  endfacet
  facet normal -0.6747956053092267 0.050187496963249784 0.7362962081960753
    outer loop
      vertex 0.041681818664073944 0.7445099353790283 0.7959485054016113
      vertex 0.03185335919260979 0.7285161018371582 0.7880311608314514
      vertex 0.031330667436122894 0.6971093416213989 0.7896928787231445
    endloop
  endfacet
  facet normal -0.6747958929004148 0.050186987037954996 0.7362959793838237
    outer loop
      vertex 0.031330667436122894 0.6971093416213989 0.7896928787231445
      vertex 0.04063643515110016 0.681696355342865 0.7992719411849976
      vertex 0.060816049575805664 0.7450907826423645 0.813444972038269
    endloop
  endfacet
  facet normal -0.6747953621949141 0.050187584430758804 0.7362964250417355
    outer loop
      vertex 0.06959912180900574 0.6982710361480713 0.8246857523918152
      vertex 0.07942758500576019 0.7142648100852966 0.8326030969619751
      vertex 0.07012181729078293 0.7296777963638306 0.8230240345001221
    endloop
  endfacet
  facet normal -0.6747964033967843 0.05018755139029057 0.7362954730597027
    outer loop
      vertex 0.04063643515110016 0.681696355342865 0.7992719411849976
      vertex 0.06959912180900574 0.6982710361480713 0.8246857523918152
      vertex 0.07012181729078293 0.7296777963638306 0.8230240345001221
    endloop
  endfacet
  facet normal -0.6747966760532048 0.050188680665511944 0.7362951462019842
    outer loop
      vertex 0.04994220659136772 0.666283369064331 0.8088510632514954
      vertex 0.05977066606283188 0.6822772026062012 0.8167684078216553
      vertex 0.04063643515110016 0.681696355342865 0.7992719411849976
    endloop
  endfacet
  facet normal -0.6747966788293636 0.05018852107194562 0.7362951545361898
    outer loop
      vertex 0.06959912180900574 0.6982710361480713 0.8246857523918152
      vertex 0.04063643515110016 0.681696355342865 0.7992719411849976
      vertex 0.05977066606283188 0.6822772026062012 0.8167684078216553
    endloop
  endfacet
  facet normal -0.6747958929004148 0.050186987037954996 0.7362959793838237
    outer loop
      vertex 0.060816049575805664 0.7450907826423645 0.813444972038269
      vertex 0.04063643515110016 0.681696355342865 0.7992719411849976
      vertex 0.07012181729078293 0.7296777963638306 0.8230240345001221
    endloop
  endfacet
  facet normal -0.5585073600148279 0.6174284753811875 -0.5539418801622871
    outer loop
      vertex 0.06672096252441406 0.7152099013328552 0.8464677929878235
      vertex 0.046643927693367004 0.7041594982147217 0.8543934226036072
      vertex 0.054014332592487335 0.716154932975769 0.8603324890136719
    endloop
  endfacet
  facet normal -0.5585060408586232 0.6174286316133303 -0.5539430360502029
    outer loop
      vertex 0.06959912180900574 0.6982710361480713 0.8246857523918152
      vertex 0.06672096252441406 0.7152099013328552 0.8464677929878235
      vertex 0.07942758500576019 0.7142648100852966 0.8326030969619751
    endloop
  endfacet
  facet normal -0.5585073118654591 0.6174278656388354 -0.5539426083318477
    outer loop
      vertex 0.046643927693367004 0.7041594982147217 0.8543934226036072
      vertex 0.06672096252441406 0.7152099013328552 0.8464677929878235
      vertex 0.06959912180900574 0.6982710361480713 0.8246857523918152
    endloop
  endfacet
  facet normal -0.5585081278373478 0.6174267587075111 -0.5539430194266894
    outer loop
      vertex 0.06959912180900574 0.6982710361480713 0.8246857523918152
      vertex 0.039273522794246674 0.6921640634536743 0.8484544157981873
      vertex 0.046643927693367004 0.7041594982147217 0.8543934226036072
    endloop
  endfacet
  facet normal -0.5585063124950254 0.6174283975901351 -0.5539430230199556
    outer loop
      vertex 0.03723745793104172 0.6672282814979553 0.8227136731147766
      vertex 0.024532712996006012 0.6681731939315796 0.8365762829780579
      vertex 0.03190311789512634 0.680168628692627 0.8425153493881226
    endloop
  endfacet
  facet normal -0.5585068589364643 0.6174284381702139 -0.5539424268456199
    outer loop
      vertex 0.05977066606283188 0.6822772026062012 0.8167684078216553
      vertex 0.03190311789512634 0.680168628692627 0.8425153493881226
      vertex 0.039273522794246674 0.6921640634536743 0.8484544157981873
    endloop
  endfacet
  facet normal -0.5585070091850419 0.6174271369735171 -0.5539437256796627
    outer loop
      vertex 0.04994220659136772 0.666283369064331 0.8088510632514954
      vertex 0.03723745793104172 0.6672282814979553 0.8227136731147766
      vertex 0.05977066606283188 0.6822772026062012 0.8167684078216553
    endloop
  endfacet
  facet normal -0.5585071934283606 0.6174277610299437 -0.5539428443425608
    outer loop
      vertex 0.03190311789512634 0.680168628692627 0.8425153493881226
      vertex 0.05977066606283188 0.6822772026062012 0.8167684078216553
      vertex 0.03723745793104172 0.6672282814979553 0.8227136731147766
    endloop
  endfacet
  facet normal -0.5585079898905304 0.6174271260808325 -0.5539427490345936
    outer loop
      vertex 0.06959912180900574 0.6982710361480713 0.8246857523918152
      vertex 0.05977066606283188 0.6822772026062012 0.8167684078216553
      vertex 0.039273522794246674 0.6921640634536743 0.8484544157981873
    endloop
  endfacet
  facet normal 0.5585073944677463 -0.6174271656290634 0.5539433052832307
    outer loop
      vertex 0.03185335919260979 0.7285161018371582 0.7880311608314514
      vertex 0.01133646909147501 0.7384044528007507 0.8197386860847473
      vertex 0.02202489972114563 0.7125222682952881 0.7801138162612915
    endloop
  endfacet
  facet normal 0.5585068607633714 -0.6174275514584603 0.5539434133377295
    outer loop
      vertex -0.0034043407067656517 0.714413583278656 0.8078606128692627
      vertex 0.02202489972114563 0.7125222682952881 0.7801138162612915
      vertex 0.01133646909147501 0.7384044528007507 0.8197386860847473
    endloop
  endfacet
  facet normal 0.5585072440747275 -0.6174275659536105 0.5539430107119799
    outer loop
      vertex 0.041681818664073944 0.7445099353790283 0.7959485054016113
      vertex 0.026077277958393097 0.7623953223228455 0.8316167593002319
      vertex 0.01133646909147501 0.7384044528007507 0.8197386860847473
    endloop
  endfacet
  facet normal 0.5585076687551993 -0.6174271860291816 0.5539430059976558
    outer loop
      vertex 0.026077277958393097 0.7623953223228455 0.8316167593002319
      vertex 0.041681818664073944 0.7445099353790283 0.7959485054016113
      vertex 0.0515102781355381 0.7605037689208984 0.8038658499717712
    endloop
  endfacet
  facet normal 0.5585073944677463 -0.6174271656290634 0.5539433052832307
    outer loop
      vertex 0.03185335919260979 0.7285161018371582 0.7880311608314514
      vertex 0.041681818664073944 0.7445099353790283 0.7959485054016113
      vertex 0.01133646909147501 0.7384044528007507 0.8197386860847473
    endloop
  endfacet
  facet normal -0.6745779903857307 0.04982617444837429 0.7365201200422085
    outer loop
      vertex -0.01751445047557354 0.8345467448234558 0.7868101000785828
      vertex -0.061106178909540176 0.9066981673240662 0.7420033812522888
      vertex -0.09590831398963928 0.8675227761268616 0.7127783894538879
    endloop
  endfacet
  facet normal -0.6745781340536493 0.04982562147873483 0.7365200258655256
    outer loop
      vertex -0.01751445047557354 0.8345467448234558 0.7868101000785828
      vertex -0.09590831398963928 0.8675227761268616 0.7127783894538879
      vertex -0.049656327813863754 0.7909681797027588 0.7603194713592529
    endloop
  endfacet
  facet normal -0.6745778128204158 0.0498265255297443 0.7365202589230372
    outer loop
      vertex 0.01133646909147501 0.7384044528007507 0.8197386860847473
      vertex -0.049656327813863754 0.7909681797027588 0.7603194713592529
      vertex -0.0034043407067656517 0.714413583278656 0.8078606128692627
    endloop
  endfacet
  facet normal -0.6745774954037622 0.04982614771799 0.7365205752036885
    outer loop
      vertex 0.01133646909147501 0.7384044528007507 0.8197386860847473
      vertex 0.026077277958393097 0.7623953223228455 0.8316167593002319
      vertex -0.01751445047557354 0.8345467448234558 0.7868101000785828
    endloop
  endfacet
  facet normal -0.6745782074624516 0.049825720568129415 0.7365199519270419
    outer loop
      vertex -0.049656327813863754 0.7909681797027588 0.7603194713592529
      vertex 0.01133646909147501 0.7384044528007507 0.8197386860847473
      vertex -0.01751445047557354 0.8345467448234558 0.7868101000785828
    endloop
  endfacet
  facet normal -0.5800351299095133 -0.6529234145648319 -0.4870834248707859
    outer loop
      vertex -0.00666820490732789 0.7411500215530396 0.7759077548980713
      vertex -0.03191772475838661 0.7829420566558838 0.7499545216560364
      vertex -0.025171944871544838 0.7824438214302063 0.7425892949104309
    endloop
  endfacet
  facet normal -0.5800359585514075 -0.6529232104512066 -0.48708271170453094
    outer loop
      vertex -0.00666820490732789 0.7411500215530396 0.7759077548980713
      vertex -0.025171944871544838 0.7824438214302063 0.7425892949104309
      vertex 7.757315324852243e-05 0.7406517267227173 0.7685425877571106
    endloop
  endfacet
  facet normal -0.5800333346917423 -0.652923404253699 -0.48708557648953016
    outer loop
      vertex 7.757315324852243e-05 0.7406517267227173 0.7685425877571106
      vertex -0.025171944871544838 0.7824438214302063 0.7425892949104309
      vertex -0.018426166847348213 0.7819455862045288 0.7352241277694702
    endloop
  endfacet
  facet normal -0.5800355345051267 -0.6529228623934807 -0.48708368323652124
    outer loop
      vertex 7.757315324852243e-05 0.7406517267227173 0.7685425877571106
      vertex -0.018426166847348213 0.7819455862045288 0.7352241277694702
      vertex 0.006823351141065359 0.7401534914970398 0.7611773610115051
    endloop
  endfacet
  facet normal -0.5800355836999401 -0.6529233059281891 -0.4870830301064431
    outer loop
      vertex 0.1330709457397461 0.5311931371688843 0.890943706035614
      vertex 0.08257190883159637 0.6147772669792175 0.8390371799468994
      vertex 0.09606346487998962 0.6137807369232178 0.8243067860603333
    endloop
  endfacet
  facet normal -0.5800355836999401 -0.6529233059281891 -0.4870830301064431
    outer loop
      vertex 0.1330709457397461 0.5311931371688843 0.890943706035614
      vertex 0.09606346487998962 0.6137807369232178 0.8243067860603333
      vertex 0.14656250178813934 0.5301966071128845 0.8762133121490479
    endloop
  endfacet
  facet normal -0.5800375771625086 -0.6529236305373347 -0.4870802210779994
    outer loop
      vertex 0.06908035278320312 0.6157737970352173 0.8537675738334656
      vertex 0.0623345747590065 0.6162720918655396 0.861132800579071
      vertex 0.03708505257964134 0.6580641269683838 0.8351795077323914
    endloop
  endfacet
  facet normal -0.5800352094820415 -0.6529233981066148 -0.48708335217500004
    outer loop
      vertex 0.05057661235332489 0.657067596912384 0.8204491138458252
      vertex 0.07582613080739975 0.6152755618095398 0.8464023470878601
      vertex 0.06908035278320312 0.6157737970352173 0.8537675738334656
    endloop
  endfacet
  facet normal -0.5800358762927419 -0.6529233488544376 -0.48708262413477366
    outer loop
      vertex 0.08257190883159637 0.6147772669792175 0.8390371799468994
      vertex 0.07582613080739975 0.6152755618095398 0.8464023470878601
      vertex 0.05057661235332489 0.657067596912384 0.8204491138458252
    endloop
  endfacet
  facet normal -0.5800359171057652 -0.6529232813018484 -0.4870826660858517
    outer loop
      vertex 0.07582613080739975 0.6152755618095398 0.8464023470878601
      vertex 0.08257190883159637 0.6147772669792175 0.8390371799468994
      vertex 0.1330709457397461 0.5311931371688843 0.890943706035614
    endloop
  endfacet
  facet normal -0.5800352502953379 -0.6529233305542694 -0.48708339412542556
    outer loop
      vertex 0.11957938969135284 0.532189667224884 0.9056740999221802
      vertex 0.06908035278320312 0.6157737970352173 0.8537675738334656
      vertex 0.07582613080739975 0.6152755618095398 0.8464023470878601
    endloop
  endfacet
  facet normal -0.5800356041064981 -0.652923272151987 -0.4870830510817968
    outer loop
      vertex 0.1330709457397461 0.5311931371688843 0.890943706035614
      vertex 0.11957938969135284 0.532189667224884 0.9056740999221802
      vertex 0.07582613080739975 0.6152755618095398 0.8464023470878601
    endloop
  endfacet
  facet normal -0.5800356283552724 -0.6529232320162818 -0.4870830760064619
    outer loop
      vertex 0.28456807136535645 0.28044071793556213 1.0466632843017578
      vertex 0.23406901955604553 0.3640248775482178 0.9947567582130432
      vertex 0.24756057560443878 0.363028347492218 0.980026364326477
    endloop
  endfacet
  facet normal -0.580037054666746 -0.6529228806814673 -0.48708184845684904
    outer loop
      vertex 0.28456807136535645 0.28044071793556213 1.0466632843017578
      vertex 0.24756057560443878 0.363028347492218 0.980026364326477
      vertex 0.2980596125125885 0.2794441878795624 1.0319328308105469
    endloop
  endfacet
  facet normal -0.5800348075102356 -0.6529235528111695 -0.48708362347856005
    outer loop
      vertex 0.271076500415802 0.2814372479915619 1.0613937377929688
      vertex 0.22057746350765228 0.36502137780189514 1.0094871520996094
      vertex 0.23406901955604553 0.3640248775482178 0.9947567582130432
    endloop
  endfacet
  facet normal -0.5800363160588179 -0.6529231812203536 -0.48708232515459665
    outer loop
      vertex 0.271076500415802 0.2814372479915619 1.0613937377929688
      vertex 0.23406901955604553 0.3640248775482178 0.9947567582130432
      vertex 0.28456807136535645 0.28044071793556213 1.0466632843017578
    endloop
  endfacet
  facet normal -0.5800361726122508 -0.6529232372141536 -0.48708242091777554
    outer loop
      vertex -0.04194209352135658 0.8635366559028625 0.6538567543029785
      vertex 0.025389958173036575 0.752091109752655 0.7230654954910278
      vertex -0.018426166847348213 0.7819455862045288 0.7352241277694702
    endloop
  endfacet
  facet normal -0.580036114216523 -0.6529232596886836 -0.4870824603310005
    outer loop
      vertex -0.04194209352135658 0.8635366559028625 0.6538567543029785
      vertex -0.018426166847348213 0.7819455862045288 0.7352241277694702
      vertex -0.06892520189285278 0.8655297160148621 0.6833176016807556
    endloop
  endfacet
  facet normal -0.5800332962838187 -0.6529234678250428 -0.487085537011158
    outer loop
      vertex -0.018426166847348213 0.7819455862045288 0.7352241277694702
      vertex -0.025171944871544838 0.7824438214302063 0.7425892949104309
      vertex -0.06892520189285278 0.8655297160148621 0.6833176016807556
    endloop
  endfacet
  facet normal -0.5800360761469924 -0.652922822386641 -0.4870830918587332
    outer loop
      vertex 0.025389958173036575 0.752091109752655 0.7230654954910278
      vertex 0.006823351141065359 0.7401534914970398 0.7611773610115051
      vertex -0.018426166847348213 0.7819455862045288 0.7352241277694702
    endloop
  endfacet
  facet normal -0.5800356143689888 -0.6529232909487079 -0.48708301366430207
    outer loop
      vertex 0.09606346487998962 0.6137807369232178 0.8243067860603333
      vertex 0.006823351141065359 0.7401534914970398 0.7611773610115051
      vertex 0.025389958173036575 0.752091109752655 0.7230654954910278
    endloop
  endfacet
  facet normal -0.5800253718270927 -0.6529246366039927 -0.48709340680447194
    outer loop
      vertex 0.02202489972114563 0.7125222682952881 0.7801138162612915
      vertex 0.006823351141065359 0.7401534914970398 0.7611773610115051
      vertex 0.031330667436122894 0.6971093416213989 0.7896928787231445
    endloop
  endfacet
  facet normal -0.5800355935869658 -0.6529232895635394 -0.4870830402690516
    outer loop
      vertex 0.006823351141065359 0.7401534914970398 0.7611773610115051
      vertex 0.09606346487998962 0.6137807369232178 0.8243067860603333
      vertex 0.08257190883159637 0.6147772669792175 0.8390371799468994
    endloop
  endfacet
  facet normal -0.5800582403826943 -0.6529208143128287 -0.48705938857720943
    outer loop
      vertex 0.006823351141065359 0.7401534914970398 0.7611773610115051
      vertex 0.04063643515110016 0.681696355342865 0.7992719411849976
      vertex 0.031330667436122894 0.6971093416213989 0.7896928787231445
    endloop
  endfacet
  facet normal -0.5800328628795678 -0.6529234912556039 -0.4870860217110791
    outer loop
      vertex 0.08257190883159637 0.6147772669792175 0.8390371799468994
      vertex 0.04063643515110016 0.681696355342865 0.7992719411849976
      vertex 0.006823351141065359 0.7401534914970398 0.7611773610115051
    endloop
  endfacet
  facet normal -0.5800351644294527 -0.6529234936231237 -0.4870832777875591
    outer loop
      vertex 0.05057661235332489 0.657067596912384 0.8204491138458252
      vertex 0.03723745793104172 0.6672282814979553 0.8227136731147766
      vertex 0.04994220659136772 0.666283369064331 0.8088510632514954
    endloop
  endfacet
  facet normal -0.5800355315356217 -0.6529232982751543 -0.48708310248425024
    outer loop
      vertex 0.05057661235332489 0.657067596912384 0.8204491138458252
      vertex 0.04994220659136772 0.666283369064331 0.8088510632514954
      vertex 0.08257190883159637 0.6147772669792175 0.8390371799468994
    endloop
  endfacet
  facet normal -0.5800352934325602 -0.6529232614063645 -0.48708343544723387
    outer loop
      vertex 0.006823351141065359 0.7401534914970398 0.7611773610115051
      vertex 0.02202489972114563 0.7125222682952881 0.7801138162612915
      vertex 7.757315324852243e-05 0.7406517267227173 0.7685425877571106
    endloop
  endfacet
  facet normal -0.5800360593526167 -0.6529230701036046 -0.4870827797994619
    outer loop
      vertex -0.049656327813863754 0.7909681797027588 0.7603194713592529
      vertex -0.09590831398963928 0.8675227761268616 0.7127783894538879
      vertex -0.03191772475838661 0.7829420566558838 0.7499545216560364
    endloop
  endfacet
  facet normal -0.5800357533052612 -0.6529230252034525 -0.4870832044392107
    outer loop
      vertex -0.03191772475838661 0.7829420566558838 0.7499545216560364
      vertex -0.09590831398963928 0.8675227761268616 0.7127783894538879
      vertex -0.06892520189285278 0.8655297160148621 0.6833176016807556
    endloop
  endfacet
  facet normal -0.580036004765211 -0.6529233499459455 -0.4870824696818564
    outer loop
      vertex -0.03191772475838661 0.7829420566558838 0.7499545216560364
      vertex -0.00666820490732789 0.7411500215530396 0.7759077548980713
      vertex -0.049656327813863754 0.7909681797027588 0.7603194713592529
    endloop
  endfacet
  facet normal -0.5800352972854605 -0.6529231375315337 -0.4870835969101663
    outer loop
      vertex -0.025171944871544838 0.7824438214302063 0.7425892949104309
      vertex -0.03191772475838661 0.7829420566558838 0.7499545216560364
      vertex -0.06892520189285278 0.8655297160148621 0.6833176016807556
    endloop
  endfacet
  facet normal -0.5800358633238105 -0.6529233680693081 -0.4870826138215493
    outer loop
      vertex 7.757315324852243e-05 0.7406517267227173 0.7685425877571106
      vertex 0.02202489972114563 0.7125222682952881 0.7801138162612915
      vertex -0.00666820490732789 0.7411500215530396 0.7759077548980713
    endloop
  endfacet
  facet normal -0.5800358533730069 -0.65292337764323 -0.48708261283770315
    outer loop
      vertex 0.06908035278320312 0.6157737970352173 0.8537675738334656
      vertex 0.03708505257964134 0.6580641269683838 0.8351795077323914
      vertex 0.03723745793104172 0.6672282814979553 0.8227136731147766
    endloop
  endfacet
  facet normal -0.5800350150501369 -0.6529238635481971 -0.48708295979748933
    outer loop
      vertex 0.024532712996006012 0.6681731939315796 0.8365762829780579
      vertex 0.03723745793104172 0.6672282814979553 0.8227136731147766
      vertex 0.03708505257964134 0.6580641269683838 0.8351795077323914
    endloop
  endfacet
  facet normal -0.5800357974480151 -0.6529233225363532 -0.4870827533047482
    outer loop
      vertex 0.02202489972114563 0.7125222682952881 0.7801138162612915
      vertex -0.0034043407067656517 0.714413583278656 0.8078606128692627
      vertex -0.00666820490732789 0.7411500215530396 0.7759077548980713
    endloop
  endfacet
  facet normal -0.5800349907349407 -0.6529238215828651 -0.4870830450064384
    outer loop
      vertex 0.0623345747590065 0.6162720918655396 0.861132800579071
      vertex 0.024532712996006012 0.6681731939315796 0.8365762829780579
      vertex 0.03708505257964134 0.6580641269683838 0.8351795077323914
    endloop
  endfacet
  facet normal -0.580035130620451 -0.6529234175320024 -0.4870834200467584
    outer loop
      vertex 0.05057661235332489 0.657067596912384 0.8204491138458252
      vertex 0.06908035278320312 0.6157737970352173 0.8537675738334656
      vertex 0.03723745793104172 0.6672282814979553 0.8227136731147766
    endloop
  endfacet
  facet normal -0.5800358497272278 -0.6529232963948667 -0.4870827260908291
    outer loop
      vertex -0.049656327813863754 0.7909681797027588 0.7603194713592529
      vertex -0.00666820490732789 0.7411500215530396 0.7759077548980713
      vertex -0.0034043407067656517 0.714413583278656 0.8078606128692627
    endloop
  endfacet
  facet normal -0.5800353803344813 -0.6529233335567816 -0.487083235245613
    outer loop
      vertex 0.025389958173036575 0.752091109752655 0.7230654954910278
      vertex 0.09272200614213943 0.6406456232070923 0.7922741770744324
      vertex 0.09606346487998962 0.6137807369232178 0.8243067860603333
    endloop
  endfacet
  facet normal -0.580035410017637 -0.6529233187568105 -0.4870832197368988
    outer loop
      vertex 0.14656250178813934 0.5301966071128845 0.8762133121490479
      vertex 0.09606346487998962 0.6137807369232178 0.8243067860603333
      vertex 0.09272200614213943 0.6406456232070923 0.7922741770744324
    endloop
  endfacet
  facet normal -0.5800366687775244 -0.652923058402073 -0.4870820697586348
    outer loop
      vertex 0.14656250178813934 0.5301966071128845 0.8762133121490479
      vertex 0.09272200614213943 0.6406456232070923 0.7922741770744324
      vertex 0.1600540578365326 0.5292000770568848 0.8614828586578369
    endloop
  endfacet
  facet normal -0.5800355836999401 -0.6529233059281891 -0.4870830301064431
    outer loop
      vertex 0.1330709457397461 0.5311931371688843 0.890943706035614
      vertex 0.14656250178813934 0.5301966071128845 0.8762133121490479
      vertex 0.24756057560443878 0.363028347492218 0.980026364326477
    endloop
  endfacet
  facet normal -0.5800355836999401 -0.6529233059281891 -0.4870830301064431
    outer loop
      vertex 0.1330709457397461 0.5311931371688843 0.890943706035614
      vertex 0.24756057560443878 0.363028347492218 0.980026364326477
      vertex 0.23406901955604553 0.3640248775482178 0.9947567582130432
    endloop
  endfacet
  facet normal -0.5800365320005425 -0.6529232847900052 -0.48708192916984044
    outer loop
      vertex 0.14656250178813934 0.5301966071128845 0.8762133121490479
      vertex 0.1600540578365326 0.5292000770568848 0.8614828586578369
      vertex 0.22738610208034515 0.41775456070899963 0.9306915998458862
    endloop
  endfacet
  facet normal -0.5800436077667007 -0.6529230069478194 -0.48707387538976854
    outer loop
      vertex 0.08257190883159637 0.6147772669792175 0.8390371799468994
      vertex 0.04994220659136772 0.666283369064331 0.8088510632514954
      vertex 0.04063643515110016 0.681696355342865 0.7992719411849976
    endloop
  endfacet
  facet normal -0.5800366062110799 -0.652923137145225 -0.487082038711725
    outer loop
      vertex 0.24756057560443878 0.363028347492218 0.980026364326477
      vertex 0.22738610208034515 0.41775456070899963 0.9306915998458862
      vertex 0.2947181463241577 0.3063090443611145 0.9999002814292908
    endloop
  endfacet
  facet normal -0.5800352406169174 -0.6529233279773626 -0.48708340910509385
    outer loop
      vertex 0.2980596125125885 0.2794441878795624 1.0319328308105469
      vertex 0.2947181463241577 0.3063090443611145 0.9999002814292908
      vertex 0.36205020546913147 0.19486354291439056 1.0691089630126953
    endloop
  endfacet
  facet normal -0.5800359782630483 -0.6529229601882877 -0.4870830237027279
    outer loop
      vertex 0.2947181463241577 0.3063090443611145 0.9999002814292908
      vertex 0.2980596125125885 0.2794441878795624 1.0319328308105469
      vertex 0.24756057560443878 0.363028347492218 0.980026364326477
    endloop
  endfacet
  facet normal -0.5800362066631499 -0.6529234697058152 -0.487082068718551
    outer loop
      vertex 0.2980596125125885 0.2794441878795624 1.0319328308105469
      vertex 0.36205020546913147 0.19486354291439056 1.0691089630126953
      vertex 0.3336835205554962 0.19914664328098297 1.0971477031707764
    endloop
  endfacet
  facet normal -0.5800362260578557 -0.6529232584815811 -0.4870823287641982
    outer loop
      vertex 0.22738610208034515 0.41775456070899963 0.9306915998458862
      vertex 0.24756057560443878 0.363028347492218 0.980026364326477
      vertex 0.14656250178813934 0.5301966071128845 0.8762133121490479
    endloop
  endfacet
  facet normal -0.5800349675522722 -0.6529232879158192 -0.4870837879809086
    outer loop
      vertex 0.23406901955604553 0.3640248775482178 0.9947567582130432
      vertex 0.22057746350765228 0.36502137780189514 1.0094871520996094
      vertex 0.11957938969135284 0.532189667224884 0.9056740999221802
    endloop
  endfacet
  facet normal -0.5800355836999401 -0.6529233059281891 -0.4870830301064431
    outer loop
      vertex 0.23406901955604553 0.3640248775482178 0.9947567582130432
      vertex 0.11957938969135284 0.532189667224884 0.9056740999221802
      vertex 0.1330709457397461 0.5311931371688843 0.890943706035614
    endloop
  endfacet
  facet normal -0.5800378755594308 -0.6529231366412346 -0.4870805277929658
    outer loop
      vertex 0.0623345747590065 0.6162720918655396 0.861132800579071
      vertex 0.06908035278320312 0.6157737970352173 0.8537675738334656
      vertex 0.11957938969135284 0.532189667224884 0.9056740999221802
    endloop
  endfacet
  facet normal -0.5800360693592502 -0.65292308384304 -0.4870827494658021
    outer loop
      vertex 0.0623345747590065 0.6162720918655396 0.861132800579071
      vertex 0.11957938969135284 0.532189667224884 0.9056740999221802
      vertex 0.0947287380695343 0.55198734998703 0.908728837966919
    endloop
  endfacet
  facet normal -0.5800361381105653 -0.6529232085725052 -0.4870825003971772
    outer loop
      vertex 0.1649247705936432 0.4358014762401581 0.9808813333511353
      vertex 0.0947287380695343 0.55198734998703 0.908728837966919
      vertex 0.11957938969135284 0.532189667224884 0.9056740999221802
    endloop
  endfacet
  facet normal -0.5800331552103791 -0.6529236363554073 -0.487085479094916
    outer loop
      vertex 0.024532712996006012 0.6681731939315796 0.8365762829780579
      vertex 0.0623345747590065 0.6162720918655396 0.861132800579071
      vertex 0.0947287380695343 0.55198734998703 0.908728837966919
    endloop
  endfacet
  facet normal -0.5800361854495204 -0.6529231979587323 -0.48708245825169244
    outer loop
      vertex 0.1649247705936432 0.4358014762401581 0.9808813333511353
      vertex 0.11957938969135284 0.532189667224884 0.9056740999221802
      vertex 0.22057746350765228 0.36502137780189514 1.0094871520996094
    endloop
  endfacet
  facet normal -0.5800367866175378 -0.652923324345921 -0.4870815729377085
    outer loop
      vertex 0.2980596125125885 0.2794441878795624 1.0319328308105469
      vertex 0.3336835205554962 0.19914664328098297 1.0971477031707764
      vertex 0.28456807136535645 0.28044071793556213 1.0466632843017578
    endloop
  endfacet
  facet normal -0.5800362035668793 -0.652923367412675 -0.48708220952752407
    outer loop
      vertex 0.3336835205554962 0.19914664328098297 1.0971477031707764
      vertex 0.271076500415802 0.2814372479915619 1.0613937377929688
      vertex 0.28456807136535645 0.28044071793556213 1.0466632843017578
    endloop
  endfacet
  facet normal -0.580034657992379 -0.6529233229989033 -0.4870841095865619
    outer loop
      vertex 0.3053168058395386 0.20342974364757538 1.1251863241195679
      vertex 0.23512078821659088 0.31961560249328613 1.0530338287353516
      vertex 0.271076500415802 0.2814372479915619 1.0613937377929688
    endloop
  endfacet
  facet normal -0.5800350591839201 -0.652923534221968 -0.4870833486956838
    outer loop
      vertex 0.22057746350765228 0.36502137780189514 1.0094871520996094
      vertex 0.271076500415802 0.2814372479915619 1.0613937377929688
      vertex 0.23512078821659088 0.31961560249328613 1.0530338287353516
    endloop
  endfacet
  facet normal -0.5800351306768582 -0.6529232023823498 -0.48708370838230386
    outer loop
      vertex 0.3336835205554962 0.19914664328098297 1.0971477031707764
      vertex 0.3053168058395386 0.20342974364757538 1.1251863241195679
      vertex 0.271076500415802 0.2814372479915619 1.0613937377929688
    endloop
  endfacet
  facet normal -0.5800360622222687 -0.6529231735812439 -0.4870826376727888
    outer loop
      vertex 0.1649247705936432 0.4358014762401581 0.9808813333511353
      vertex 0.22057746350765228 0.36502137780189514 1.0094871520996094
      vertex 0.23512078821659088 0.31961560249328613 1.0530338287353516
    endloop
  endfacet
  facet normal 0.580034405220854 0.6529232470474853 0.48708451240524825
    outer loop
      vertex 0.2756805419921875 0.37059539556503296 1.0595788955688477
      vertex 0.32956308126449585 0.2814110219478607 1.114963173866272
      vertex 0.3430546522140503 0.28041449189186096 1.1002328395843506
    endloop
  endfacet
  facet normal 0.580034405220854 0.6529232470474853 0.48708451240524825
    outer loop
      vertex 0.2756805419921875 0.37059539556503296 1.0595788955688477
      vertex 0.3430546522140503 0.28041449189186096 1.1002328395843506
      vertex 0.28917211294174194 0.3695988655090332 1.0448485612869263
    endloop
  endfacet
  facet normal 0.5800362904192744 0.6529231078032529 0.4870824541011398
    outer loop
      vertex 0.28917211294174194 0.3695988655090332 1.0448485612869263
      vertex 0.3430546522140503 0.28041449189186096 1.1002328395843506
      vertex 0.35654619336128235 0.2794179916381836 1.0855023860931396
    endloop
  endfacet
  facet normal 0.5800368714382944 0.6529231839540177 0.4870816601222259
    outer loop
      vertex 0.28917211294174194 0.3695988655090332 1.0448485612869263
      vertex 0.35654619336128235 0.2794179916381836 1.0855023860931396
      vertex 0.302663654088974 0.36860233545303345 1.0301181077957153
    endloop
  endfacet
  facet normal 0.5800375465289634 0.6529236812408632 0.48708018959052324
    outer loop
      vertex 0.006267908029258251 0.8165172338485718 0.782657265663147
      vertex 0.033209171146154404 0.7719250917434692 0.8103494644165039
      vertex 0.03995494917035103 0.771426796913147 0.8029842376708984
    endloop
  endfacet
  facet normal 0.5800334886668392 0.6529231493998227 0.4870857347560001
    outer loop
      vertex 0.006267908029258251 0.8165172338485718 0.782657265663147
      vertex 0.03995494917035103 0.771426796913147 0.8029842376708984
      vertex 0.013013686053454876 0.8160189986228943 0.7752920985221863
    endloop
  endfacet
  facet normal 0.580038035961233 0.6529228135258152 0.4870807699096411
    outer loop
      vertex 0.019759465008974075 0.815520703792572 0.7679268717765808
      vertex 0.013013686053454876 0.8160189986228943 0.7752920985221863
      vertex 0.03995494917035103 0.771426796913147 0.8029842376708984
    endloop
  endfacet
  facet normal 0.5800378184513966 0.6529232311644995 0.48708046909299746
    outer loop
      vertex 0.08034592121839523 0.6832389831542969 0.8730989694595337
      vertex 0.10728719085454941 0.6386467814445496 0.9007911682128906
      vertex 0.11403296887874603 0.6381484866142273 0.8934259414672852
    endloop
  endfacet
  facet normal 0.580036084683003 0.6529230039324956 0.4870828383359227
    outer loop
      vertex 0.08034592121839523 0.6832389831542969 0.8730989694595337
      vertex 0.11403296887874603 0.6381484866142273 0.8934259414672852
      vertex 0.08709169924259186 0.6827406883239746 0.865733802318573
    endloop
  endfacet
  facet normal 0.5800351883815468 0.6529234330312063 0.4870833304866094
    outer loop
      vertex 0.12077874690294266 0.6376502513885498 0.8860607147216797
      vertex 0.11403296887874603 0.6381484866142273 0.8934259414672852
      vertex 0.1679154932498932 0.5489641427993774 0.9488102793693542
    endloop
  endfacet
  facet normal 0.5800359675355518 0.6529231978318402 0.4870827179218538
    outer loop
      vertex 0.18140704929828644 0.5479676127433777 0.9340798258781433
      vertex 0.12752452492713928 0.6371519565582275 0.878695547580719
      vertex 0.12077874690294266 0.6376502513885498 0.8860607147216797
    endloop
  endfacet
  facet normal 0.5800365763122842 0.6529232114469523 0.4870819747164969
    outer loop
      vertex 0.1679154932498932 0.5489641427993774 0.9488102793693542
      vertex 0.18140704929828644 0.5479676127433777 0.9340798258781433
      vertex 0.12077874690294266 0.6376502513885498 0.8860607147216797
    endloop
  endfacet
  facet normal 0.5800354178745402 0.652923053184524 0.4870835663736837
    outer loop
      vertex 0.08709169924259186 0.6827406883239746 0.865733802318573
      vertex 0.11403296887874603 0.6381484866142273 0.8934259414672852
      vertex 0.12077874690294266 0.6376502513885498 0.8860607147216797
    endloop
  endfacet
  facet normal 0.5800354178745402 0.652923053184524 0.4870835663736837
    outer loop
      vertex 0.08709169924259186 0.6827406883239746 0.865733802318573
      vertex 0.12077874690294266 0.6376502513885498 0.8860607147216797
      vertex 0.09383747726678848 0.6822424530982971 0.8583685755729675
    endloop
  endfacet
  facet normal 0.580036084683003 0.6529230039324956 0.4870828383359227
    outer loop
      vertex 0.09383747726678848 0.6822424530982971 0.8583685755729675
      vertex 0.12077874690294266 0.6376502513885498 0.8860607147216797
      vertex 0.12752452492713928 0.6371519565582275 0.878695547580719
    endloop
  endfacet
  facet normal 0.5800378184513966 0.6529232311644995 0.48708046909299746
    outer loop
      vertex 0.09383747726678848 0.6822424530982971 0.8583685755729675
      vertex 0.12752452492713928 0.6371519565582275 0.878695547580719
      vertex 0.10058325529098511 0.6817441582679749 0.8510033488273621
    endloop
  endfacet
  facet normal 0.580035634130052 0.6529232224580724 0.487083081942203
    outer loop
      vertex 0.12752452492713928 0.6371519565582275 0.878695547580719
      vertex 0.18140704929828644 0.5479676127433777 0.9340798258781433
      vertex 0.1948986053466797 0.5469710826873779 0.9193494319915771
    endloop
  endfacet
  facet normal 0.5800344720866987 0.6529230701538103 0.48708466990044674
    outer loop
      vertex 0.12752452492713928 0.6371519565582275 0.878695547580719
      vertex 0.1948986053466797 0.5469710826873779 0.9193494319915771
      vertex 0.14101608097553253 0.6361554861068726 0.8639651536941528
    endloop
  endfacet
  facet normal 0.5800353819074031 0.6529232555743626 0.4870833379060596
    outer loop
      vertex 0.35654619336128235 0.2794179916381836 1.0855023860931396
      vertex 0.3955535888671875 0.193520188331604 1.154194951057434
      vertex 0.42392027378082275 0.1892370879650116 1.1261563301086426
    endloop
  endfacet
  facet normal 0.5800356320716823 0.6529232754977939 0.4870830132948963
    outer loop
      vertex 0.31615522503852844 0.3676058351993561 1.0153876543045044
      vertex 0.302663654088974 0.36860233545303345 1.0301181077957153
      vertex 0.35654619336128235 0.2794179916381836 1.0855023860931396
    endloop
  endfacet
  facet normal 0.580036867837713 0.652923189913556 0.4870816564213045
    outer loop
      vertex 0.28917211294174194 0.3695988655090332 1.0448485612869263
      vertex 0.302663654088974 0.36860233545303345 1.0301181077957153
      vertex 0.1948986053466797 0.5469710826873779 0.9193494319915771
    endloop
  endfacet
  facet normal 0.5800355241888664 0.6529234044287636 0.48708296893660774
    outer loop
      vertex 0.28917211294174194 0.3695988655090332 1.0448485612869263
      vertex 0.1948986053466797 0.5469710826873779 0.9193494319915771
      vertex 0.18140704929828644 0.5479676127433777 0.9340798258781433
    endloop
  endfacet
  facet normal 0.5800355970834378 0.6529232837763046 0.4870830438629814
    outer loop
      vertex 0.31615522503852844 0.3676058351993561 1.0153876543045044
      vertex 0.35654619336128235 0.2794179916381836 1.0855023860931396
      vertex 0.42392027378082275 0.1892370879650116 1.1261563301086426
    endloop
  endfacet
  facet normal 0.5800363403776007 0.6529230251143178 0.48708250545151804
    outer loop
      vertex 0.3430546522140503 0.28041449189186096 1.1002328395843506
      vertex 0.3955535888671875 0.193520188331604 1.154194951057434
      vertex 0.35654619336128235 0.2794179916381836 1.0855023860931396
    endloop
  endfacet
  facet normal 0.5800355988839146 0.6529232807962199 0.48708304571364336
    outer loop
      vertex 0.31615522503852844 0.3676058351993561 1.0153876543045044
      vertex 0.20839016139507294 0.5459745526313782 0.904619038105011
      vertex 0.1948986053466797 0.5469710826873779 0.9193494319915771
    endloop
  endfacet
  facet normal 0.5800356284707257 0.6529232814579499 0.48708300959359413
    outer loop
      vertex 0.31615522503852844 0.3676058351993561 1.0153876543045044
      vertex 0.1948986053466797 0.5469710826873779 0.9193494319915771
      vertex 0.302663654088974 0.36860233545303345 1.0301181077957153
    endloop
  endfacet
  facet normal 0.5800357847238018 0.6529229732005695 0.4870832367334888
    outer loop
      vertex 0.20839016139507294 0.5459745526313782 0.904619038105011
      vertex 0.14101608097553253 0.6361554861068726 0.8639651536941528
      vertex 0.1948986053466797 0.5469710826873779 0.9193494319915771
    endloop
  endfacet
  facet normal 0.5800368637070157 0.6529231146164675 0.4870817622745286
    outer loop
      vertex 0.14101608097553253 0.6361554861068726 0.8639651536941528
      vertex 0.20839016139507294 0.5459745526313782 0.904619038105011
      vertex 0.10062510520219803 0.7243432998657227 0.7938504219055176
    endloop
  endfacet
  facet normal 0.5800366324840304 0.6529231184736644 0.48708203245368314
    outer loop
      vertex 0.18140704929828644 0.5479676127433777 0.9340798258781433
      vertex 0.1679154932498932 0.5489641427993774 0.9488102793693542
      vertex 0.2756805419921875 0.37059539556503296 1.0595788955688477
    endloop
  endfacet
  facet normal 0.5800342534282953 0.6529234982897032 0.48708435638092096
    outer loop
      vertex 0.18140704929828644 0.5479676127433777 0.9340798258781433
      vertex 0.2756805419921875 0.37059539556503296 1.0595788955688477
      vertex 0.28917211294174194 0.3695988655090332 1.0448485612869263
    endloop
  endfacet
  facet normal 0.5800362393338785 0.6529234091206157 0.48708211102618487
    outer loop
      vertex 0.36718690395355225 0.1978032886981964 1.1822336912155151
      vertex 0.3955535888671875 0.193520188331604 1.154194951057434
      vertex 0.32956308126449585 0.2814110219478607 1.114963173866272
    endloop
  endfacet
  facet normal 0.5800344551788695 0.6529231643585274 0.48708456375602743
    outer loop
      vertex 0.32956308126449585 0.2814110219478607 1.114963173866272
      vertex 0.3955535888671875 0.193520188331604 1.154194951057434
      vertex 0.3430546522140503 0.28041449189186096 1.1002328395843506
    endloop
  endfacet
  facet normal 0.5800372311128318 0.652923166660185 0.48708125498872934
    outer loop
      vertex 0.2627960443496704 0.37058717012405396 1.0749332904815674
      vertex 0.36718690395355225 0.1978032886981964 1.1822336912155151
      vertex 0.32956308126449585 0.2814110219478607 1.114963173866272
    endloop
  endfacet
  facet normal 0.5800366128115207 0.6529230839902229 0.4870821021048037
    outer loop
      vertex 0.2627960443496704 0.37058717012405396 1.0749332904815674
      vertex 0.32956308126449585 0.2814110219478607 1.114963173866272
      vertex 0.2756805419921875 0.37059539556503296 1.0595788955688477
    endloop
  endfacet
  facet normal 0.5800365663618904 0.6529231543040356 0.487082063164696
    outer loop
      vertex 0.15840518474578857 0.5433710813522339 0.9676328897476196
      vertex 0.2627960443496704 0.37058717012405396 1.0749332904815674
      vertex 0.2756805419921875 0.37059539556503296 1.0595788955688477
    endloop
  endfacet
  facet normal 0.5800362573732212 0.652923146180792 0.48708244200940226
    outer loop
      vertex 0.15840518474578857 0.5433710813522339 0.9676328897476196
      vertex 0.2756805419921875 0.37059539556503296 1.0595788955688477
      vertex 0.1679154932498932 0.5489641427993774 0.9488102793693542
    endloop
  endfacet
  facet normal 0.5800362024305634 0.6529232030852679 0.48708243115801714
    outer loop
      vertex 0.15840518474578857 0.5433710813522339 0.9676328897476196
      vertex 0.1679154932498932 0.5489641427993774 0.9488102793693542
      vertex 0.10728719085454941 0.6386467814445496 0.9007911682128906
    endloop
  endfacet
  facet normal 0.5800378136462925 0.6529232391177421 0.4870804641539472
    outer loop
      vertex 0.11403296887874603 0.6381484866142273 0.8934259414672852
      vertex 0.10728719085454941 0.6386467814445496 0.9007911682128906
      vertex 0.1679154932498932 0.5489641427993774 0.9488102793693542
    endloop
  endfacet
  facet normal 0.5800351128566602 0.6529233709307811 0.4870835036682588
    outer loop
      vertex 0.054014332592487335 0.716154932975769 0.8603324890136719
      vertex 0.15840518474578857 0.5433710813522339 0.9676328897476196
      vertex 0.10728719085454941 0.6386467814445496 0.9007911682128906
    endloop
  endfacet
  facet normal 0.5800342139526701 0.6529234974067525 0.487084404573214
    outer loop
      vertex 0.12752452492713928 0.6371519565582275 0.878695547580719
      vertex 0.14101608097553253 0.6361554861068726 0.8639651536941528
      vertex 0.10058325529098511 0.6817441582679749 0.8510033488273621
    endloop
  endfacet
  facet normal 0.5800332698167412 0.6529231225693873 0.4870860313332136
    outer loop
      vertex 0.10058325529098511 0.6817441582679749 0.8510033488273621
      vertex 0.14101608097553253 0.6361554861068726 0.8639651536941528
      vertex 0.07012181729078293 0.7296777963638306 0.8230240345001221
    endloop
  endfacet
  facet normal 0.5800354533149951 0.6529234483282317 0.48708299448948034
    outer loop
      vertex 0.10062510520219803 0.7243432998657227 0.7938504219055176
      vertex 0.07012181729078293 0.7296777963638306 0.8230240345001221
      vertex 0.14101608097553253 0.6361554861068726 0.8639651536941528
    endloop
  endfacet
  facet normal 0.5800377855852183 0.652923285563462 0.4870804353106479
    outer loop
      vertex 0.10058325529098511 0.6817441582679749 0.8510033488273621
      vertex 0.07942758500576019 0.7142648100852966 0.8326030969619751
      vertex 0.09383747726678848 0.6822424530982971 0.8583685755729675
    endloop
  endfacet
  facet normal 0.5800222576888341 0.6529234907069129 0.48709865106428646
    outer loop
      vertex 0.10058325529098511 0.6817441582679749 0.8510033488273621
      vertex 0.07012181729078293 0.7296777963638306 0.8230240345001221
      vertex 0.07942758500576019 0.7142648100852966 0.8326030969619751
    endloop
  endfacet
  facet normal 0.5800367051375737 0.6529235497120889 0.48708136786835987
    outer loop
      vertex 0.06672096252441406 0.7152099013328552 0.8464677929878235
      vertex 0.09383747726678848 0.6822424530982971 0.8583685755729675
      vertex 0.07942758500576019 0.7142648100852966 0.8326030969619751
    endloop
  endfacet
  facet normal 0.5800359587617362 0.6529224718539443 0.4870837015251986
    outer loop
      vertex 0.07012181729078293 0.7296777963638306 0.8230240345001221
      vertex 0.10062510520219803 0.7243432998657227 0.7938504219055176
      vertex 0.060816049575805664 0.7450907826423645 0.813444972038269
    endloop
  endfacet
  facet normal 0.5800356374371322 0.6529231881724138 0.48708312396311815
    outer loop
      vertex -0.03412306681275368 0.9047051072120667 0.7125425338745117
      vertex 0.019759465008974075 0.815520703792572 0.7679268717765808
      vertex -0.007139952853322029 0.9027120471000671 0.6830817461013794
    endloop
  endfacet
  facet normal 0.5800358517467924 0.652923556563055 0.48708237493613366
    outer loop
      vertex 0.10062510520219803 0.7243432998657227 0.7938504219055176
      vertex 0.019759465008974075 0.815520703792572 0.7679268717765808
      vertex 0.0515102781355381 0.7605037689208984 0.8038658499717712
    endloop
  endfacet
  facet normal 0.5800358616394556 0.652923583124028 0.4870823275511594
    outer loop
      vertex 0.10062510520219803 0.7243432998657227 0.7938504219055176
      vertex 0.0515102781355381 0.7605037689208984 0.8038658499717712
      vertex 0.060816049575805664 0.7450907826423645 0.813444972038269
    endloop
  endfacet
  facet normal 0.5800341056057441 0.6529237434837815 0.48708420373614014
    outer loop
      vertex 0.019759465008974075 0.815520703792572 0.7679268717765808
      vertex 0.03995494917035103 0.771426796913147 0.8029842376708984
      vertex 0.0515102781355381 0.7605037689208984 0.8038658499717712
    endloop
  endfacet
  facet normal 0.5800363382474076 0.6529256811387091 0.48707894762768345
    outer loop
      vertex 0.0515102781355381 0.7605037689208984 0.8038658499717712
      vertex 0.03995494917035103 0.771426796913147 0.8029842376708984
      vertex 0.033209171146154404 0.7719250917434692 0.8103494644165039
    endloop
  endfacet
  facet normal 0.580035267582577 0.6529233246414742 0.4870833814651579
    outer loop
      vertex 0.019759465008974075 0.815520703792572 0.7679268717765808
      vertex 0.10062510520219803 0.7243432998657227 0.7938504219055176
      vertex -0.007139952853322029 0.9027120471000671 0.6830817461013794
    endloop
  endfacet
  facet normal 0.5800379110763195 0.6529230202312221 0.4870806415434292
    outer loop
      vertex -0.03412306681275368 0.9047051072120667 0.7125425338745117
      vertex 0.013013686053454876 0.8160189986228943 0.7752920985221863
      vertex 0.019759465008974075 0.815520703792572 0.7679268717765808
    endloop
  endfacet
  facet normal 0.5800359911605864 0.65292315872832 0.48708274220566405
    outer loop
      vertex 0.08034592121839523 0.6832389831542969 0.8730989694595337
      vertex 0.08709169924259186 0.6827406883239746 0.865733802318573
      vertex 0.06672096252441406 0.7152099013328552 0.8464677929878235
    endloop
  endfacet
  facet normal 0.5800353366619475 0.6529231876040726 0.48708348289836134
    outer loop
      vertex 0.06672096252441406 0.7152099013328552 0.8464677929878235
      vertex 0.08709169924259186 0.6827406883239746 0.865733802318573
      vertex 0.09383747726678848 0.6822424530982971 0.8583685755729675
    endloop
  endfacet
  facet normal 0.5800353593160508 0.652923327623755 0.48708326822815684
    outer loop
      vertex 0.08034592121839523 0.6832389831542969 0.8730989694595337
      vertex 0.06672096252441406 0.7152099013328552 0.8464677929878235
      vertex 0.054014332592487335 0.716154932975769 0.8603324890136719
    endloop
  endfacet
  facet normal 0.5800356467994073 0.6529233915735153 0.48708284015979403
    outer loop
      vertex 0.10728719085454941 0.6386467814445496 0.9007911682128906
      vertex 0.08034592121839523 0.6832389831542969 0.8730989694595337
      vertex 0.054014332592487335 0.716154932975769 0.8603324890136719
    endloop
  endfacet
  facet normal 0.5800359919591579 0.6529223805405241 0.48708378439571426
    outer loop
      vertex 0.033209171146154404 0.7719250917434692 0.8103494644165039
      vertex 0.026077277958393097 0.7623953223228455 0.8316167593002319
      vertex 0.0515102781355381 0.7605037689208984 0.8038658499717712
    endloop
  endfacet
  facet normal 0.5800372347543056 0.6529231893839595 0.4870812201915165
    outer loop
      vertex -0.01751445047557354 0.8345467448234558 0.7868101000785828
      vertex 0.006267908029258251 0.8165172338485718 0.782657265663147
      vertex -0.061106178909540176 0.9066981673240662 0.7420033812522888
    endloop
  endfacet
  facet normal 0.5800331029326246 0.6529237878524594 0.48708533827117817
    outer loop
      vertex -0.03412306681275368 0.9047051072120667 0.7125425338745117
      vertex 0.006267908029258251 0.8165172338485718 0.782657265663147
      vertex 0.013013686053454876 0.8160189986228943 0.7752920985221863
    endloop
  endfacet
  facet normal 0.5800351181779512 0.6529231261348653 0.48708382547418344
    outer loop
      vertex -0.01751445047557354 0.8345467448234558 0.7868101000785828
      vertex 0.026077277958393097 0.7623953223228455 0.8316167593002319
      vertex 0.033209171146154404 0.7719250917434692 0.8103494644165039
    endloop
  endfacet
  facet normal 0.580037451187566 0.6529236882834172 0.487080293686997
    outer loop
      vertex -0.01751445047557354 0.8345467448234558 0.7868101000785828
      vertex 0.033209171146154404 0.7719250917434692 0.8103494644165039
      vertex 0.006267908029258251 0.8165172338485718 0.782657265663147
    endloop
  endfacet
  facet normal 0.5800362035347458 0.6529230542288208 0.48708262938181973
    outer loop
      vertex 0.006267908029258251 0.8165172338485718 0.782657265663147
      vertex -0.03412306681275368 0.9047051072120667 0.7125425338745117
      vertex -0.061106178909540176 0.9066981673240662 0.7420033812522888
    endloop
  endfacet
  facet normal 0.6745779695002729 -0.049826241214757934 -0.7365201346543744
    outer loop
      vertex -0.007139952853322029 0.9027120471000671 0.6830817461013794
      vertex 0.025389958173036575 0.752091109752655 0.7230654954910278
      vertex -0.04194209352135658 0.8635366559028625 0.6538567543029785
    endloop
  endfacet
  facet normal 0.6745778971058061 -0.049825991887706554 -0.7365202178275316
    outer loop
      vertex 0.10062510520219803 0.7243432998657227 0.7938504219055176
      vertex 0.09272200614213943 0.6406456232070923 0.7922741770744324
      vertex 0.025389958173036575 0.752091109752655 0.7230654954910278
    endloop
  endfacet
  facet normal 0.6745780076466891 -0.04982625434192649 -0.7365200988280476
    outer loop
      vertex 0.20839016139507294 0.5459745526313782 0.904619038105011
      vertex 0.22738610208034515 0.41775456070899963 0.9306915998458862
      vertex 0.1600540578365326 0.5292000770568848 0.8614828586578369
    endloop
  endfacet
  facet normal 0.674577488188585 -0.049826461042464555 -0.7365205606153592
    outer loop
      vertex 0.31615522503852844 0.3676058351993561 1.0153876543045044
      vertex 0.2947181463241577 0.3063090443611145 0.9999002814292908
      vertex 0.22738610208034515 0.41775456070899963 0.9306915998458862
    endloop
  endfacet
  facet normal 0.6745778589522492 -0.04982598762154509 -0.7365202530609304
    outer loop
      vertex 0.1600540578365326 0.5292000770568848 0.8614828586578369
      vertex 0.09272200614213943 0.6406456232070923 0.7922741770744324
      vertex 0.10062510520219803 0.7243432998657227 0.7938504219055176
    endloop
  endfacet
  facet normal 0.6745779562483414 -0.049825928492553524 -0.7365201679476713
    outer loop
      vertex 0.1600540578365326 0.5292000770568848 0.8614828586578369
      vertex 0.10062510520219803 0.7243432998657227 0.7938504219055176
      vertex 0.20839016139507294 0.5459745526313782 0.904619038105011
    endloop
  endfacet
  facet normal 0.6745775015451972 -0.04982642128180793 -0.7365205510719217
    outer loop
      vertex 0.20839016139507294 0.5459745526313782 0.904619038105011
      vertex 0.31615522503852844 0.3676058351993561 1.0153876543045044
      vertex 0.22738610208034515 0.41775456070899963 0.9306915998458862
    endloop
  endfacet
  facet normal 0.6745778467959129 -0.04982597720607222 -0.7365202648995137
    outer loop
      vertex 0.3929852545261383 0.19205030798912048 1.097632646560669
      vertex 0.36205020546913147 0.19486354291439056 1.0691089630126953
      vertex 0.2947181463241577 0.3063090443611145 0.9999002814292908
    endloop
  endfacet
  facet normal 0.6745782188817012 -0.04982589609436432 -0.736519929593752
    outer loop
      vertex 0.3929852545261383 0.19205030798912048 1.097632646560669
      vertex 0.31615522503852844 0.3676058351993561 1.0153876543045044
      vertex 0.42392027378082275 0.1892370879650116 1.1261563301086426
    endloop
  endfacet
  facet normal 0.6745775223563212 -0.04982648124395507 -0.7365205279545526
    outer loop
      vertex 0.2947181463241577 0.3063090443611145 0.9999002814292908
      vertex 0.31615522503852844 0.3676058351993561 1.0153876543045044
      vertex 0.3929852545261383 0.19205030798912048 1.097632646560669
    endloop
  endfacet
  facet normal 0.6745778239393396 -0.04982630686369359 -0.7365202635322333
    outer loop
      vertex -0.007139952853322029 0.9027120471000671 0.6830817461013794
      vertex 0.10062510520219803 0.7243432998657227 0.7938504219055176
      vertex 0.025389958173036575 0.752091109752655 0.7230654954910278
    endloop
  endfacet
  facet normal -0.6745771720840052 0.049827088228441105 0.7365208077045899
    outer loop
      vertex 0.08881063759326935 0.6464640498161316 0.8969169855117798
      vertex 0.0692373514175415 0.6788610219955444 0.876798152923584
      vertex 0.06488708406686783 0.6739640831947327 0.8731450438499451
    endloop
  endfacet
  facet normal -0.6745771720840052 0.049827088228441105 0.7365208077045899
    outer loop
      vertex 0.08881063759326935 0.6464640498161316 0.8969169855117798
      vertex 0.06488708406686783 0.6739640831947327 0.8731450438499451
      vertex 0.08446037024259567 0.6415671110153198 0.8932638764381409
    endloop
  endfacet
  facet normal -0.674576942394167 0.049827346780879155 0.7365210005851257
    outer loop
      vertex 0.08446037024259567 0.6415671110153198 0.8932638764381409
      vertex 0.06488708406686783 0.6739640831947327 0.8731450438499451
      vertex 0.06053681671619415 0.6690672039985657 0.8694919347763062
    endloop
  endfacet
  facet normal -0.674576942394167 0.049827346780879155 0.7365210005851257
    outer loop
      vertex 0.08446037024259567 0.6415671110153198 0.8932638764381409
      vertex 0.06053681671619415 0.6690672039985657 0.8694919347763062
      vertex 0.080110102891922 0.6366702318191528 0.889610767364502
    endloop
  endfacet
  facet normal -0.6745771720840052 0.049827088228441105 0.7365208077045899
    outer loop
      vertex 0.080110102891922 0.6366702318191528 0.889610767364502
      vertex 0.06053681671619415 0.6690672039985657 0.8694919347763062
      vertex 0.05618654936552048 0.6641702651977539 0.8658388257026672
    endloop
  endfacet
  facet normal -0.6745771720840052 0.049827088228441105 0.7365208077045899
    outer loop
      vertex 0.080110102891922 0.6366702318191528 0.889610767364502
      vertex 0.05618654936552048 0.6641702651977539 0.8658388257026672
      vertex 0.07575983554124832 0.6317732930183411 0.885957658290863
    endloop
  endfacet
  facet normal -0.6745769650312933 0.04982674552416545 0.7365210205280224
    outer loop
      vertex 0.080110102891922 0.6366702318191528 0.889610767364502
      vertex 0.07575983554124832 0.6317732930183411 0.885957658290863
      vertex 0.11490640044212341 0.5669793486595154 0.9261952638626099
    endloop
  endfacet
  facet normal -0.6745769691635836 0.049827391088989634 0.7365209730695648
    outer loop
      vertex 0.12360693514347076 0.5767731666564941 0.9335015416145325
      vertex 0.08446037024259567 0.6415671110153198 0.8932638764381409
      vertex 0.080110102891922 0.6366702318191528 0.889610767364502
    endloop
  endfacet
  facet normal -0.6745786567635554 0.04982514432272542 0.7365195793950741
    outer loop
      vertex 0.11490640044212341 0.5669793486595154 0.9261952638626099
      vertex 0.12360693514347076 0.5767731666564941 0.9335015416145325
      vertex 0.080110102891922 0.6366702318191528 0.889610767364502
    endloop
  endfacet
  facet normal -0.6745771988536352 0.049827132536336756 0.7365207801888481
    outer loop
      vertex 0.07140956819057465 0.6268763542175293 0.8823044896125793
      vertex 0.06705930083990097 0.6219794154167175 0.8786513805389404
      vertex 0.10620586574077606 0.5571854710578918 0.918889045715332
    endloop
  endfacet
  facet normal -0.6745803601584104 0.04982292375679603 0.7365181694682582
    outer loop
      vertex 0.11490640044212341 0.5669793486595154 0.9261952638626099
      vertex 0.07575983554124832 0.6317732930183411 0.885957658290863
      vertex 0.07140956819057465 0.6268763542175293 0.8823044896125793
    endloop
  endfacet
  facet normal -0.6745771988536352 0.049827132536336756 0.7365207801888481
    outer loop
      vertex 0.10620586574077606 0.5571854710578918 0.918889045715332
      vertex 0.11490640044212341 0.5669793486595154 0.9261952638626099
      vertex 0.07140956819057465 0.6268763542175293 0.8823044896125793
    endloop
  endfacet
  facet normal -0.6745771720840052 0.049827088228441105 0.7365208077045899
    outer loop
      vertex 0.07575983554124832 0.6317732930183411 0.885957658290863
      vertex 0.05618654936552048 0.6641702651977539 0.8658388257026672
      vertex 0.0518362820148468 0.6592733263969421 0.8621857166290283
    endloop
  endfacet
  facet normal -0.6745800995680745 0.04982249243634747 0.7365184373212639
    outer loop
      vertex 0.07575983554124832 0.6317732930183411 0.885957658290863
      vertex 0.0518362820148468 0.6592733263969421 0.8621857166290283
      vertex 0.07140956819057465 0.6268763542175293 0.8823044896125793
    endloop
  endfacet
  facet normal -0.6745800995680745 0.04982249243634747 0.7365184373212639
    outer loop
      vertex 0.07140956819057465 0.6268763542175293 0.8823044896125793
      vertex 0.0518362820148468 0.6592733263969421 0.8621857166290283
      vertex 0.047486014664173126 0.6543763875961304 0.8585325479507446
    endloop
  endfacet
  facet normal -0.6745771720840052 0.049827088228441105 0.7365208077045899
    outer loop
      vertex 0.07140956819057465 0.6268763542175293 0.8823044896125793
      vertex 0.047486014664173126 0.6543763875961304 0.8585325479507446
      vertex 0.06705930083990097 0.6219794154167175 0.8786513805389404
    endloop
  endfacet
  facet normal -0.6745767480426913 0.049827565554271536 0.7365211637903435
    outer loop
      vertex 0.06705930083990097 0.6219794154167175 0.8786513805389404
      vertex 0.047486014664173126 0.6543763875961304 0.8585325479507446
      vertex 0.04313574358820915 0.6494795083999634 0.8548794388771057
    endloop
  endfacet
  facet normal -0.6745769156247502 0.04982730247277202 0.736521028100682
    outer loop
      vertex 0.06705930083990097 0.6219794154167175 0.8786513805389404
      vertex 0.04313574358820915 0.6494795083999634 0.8548794388771057
      vertex 0.0627090334892273 0.6170825362205505 0.8749982714653015
    endloop
  endfacet
  facet normal -0.6745786800530146 0.04982559046893903 0.7365195278825637
    outer loop
      vertex 0.04313574358820915 0.6494795083999634 0.8548794388771057
      vertex 0.03190311789512634 0.680168628692627 0.8425153493881226
      vertex 0.024532712996006012 0.6681731939315796 0.8365762829780579
    endloop
  endfacet
  facet normal -0.6745791026422716 0.04982484063138418 0.7365191915587839
    outer loop
      vertex 0.0627090334892273 0.6170825362205505 0.8749982714653015
      vertex 0.04313574358820915 0.6494795083999634 0.8548794388771057
      vertex 0.024532712996006012 0.6681731939315796 0.8365762829780579
    endloop
  endfacet
  facet normal -0.6745764980258124 0.049827151732174176 0.7365214207757232
    outer loop
      vertex 0.047486014664173126 0.6543763875961304 0.8585325479507446
      vertex 0.03190311789512634 0.680168628692627 0.8425153493881226
      vertex 0.04313574358820915 0.6494795083999634 0.8548794388771057
    endloop
  endfacet
  facet normal -0.6745803171931941 0.049822852642176715 0.7365182136309497
    outer loop
      vertex 0.03190311789512634 0.680168628692627 0.8425153493881226
      vertex 0.047486014664173126 0.6543763875961304 0.8585325479507446
      vertex 0.0518362820148468 0.6592733263969421 0.8621857166290283
    endloop
  endfacet
  facet normal -0.6745781180400007 0.04982618608641088 0.736520002336456
    outer loop
      vertex 0.0627090334892273 0.6170825362205505 0.8749982714653015
      vertex 0.024532712996006012 0.6681731939315796 0.8365762829780579
      vertex 0.0947287380695343 0.55198734998703 0.908728837966919
    endloop
  endfacet
  facet normal -0.6745787004903396 0.049825613050436715 0.7365195076363645
    outer loop
      vertex 0.039273522794246674 0.6921640634536743 0.8484544157981873
      vertex 0.03190311789512634 0.680168628692627 0.8425153493881226
      vertex 0.0518362820148468 0.6592733263969421 0.8621857166290283
    endloop
  endfacet
  facet normal -0.6745767767523625 0.04982727404808895 0.7365211572163628
    outer loop
      vertex 0.06053681671619415 0.6690672039985657 0.8694919347763062
      vertex 0.046643927693367004 0.7041594982147217 0.8543934226036072
      vertex 0.039273522794246674 0.6921640634536743 0.8484544157981873
    endloop
  endfacet
  facet normal -0.6745782391516983 0.04982510331089192 0.7365199646601938
    outer loop
      vertex 0.0692373514175415 0.6788610219955444 0.876798152923584
      vertex 0.054014332592487335 0.716154932975769 0.8603324890136719
      vertex 0.046643927693367004 0.7041594982147217 0.8543934226036072
    endloop
  endfacet
  facet normal -0.6745770307178263 0.04982685424551751 0.7365209530107864
    outer loop
      vertex 0.039273522794246674 0.6921640634536743 0.8484544157981873
      vertex 0.05618654936552048 0.6641702651977539 0.8658388257026672
      vertex 0.06053681671619415 0.6690672039985657 0.8694919347763062
    endloop
  endfacet
  facet normal -0.6745770895826833 0.04982695167596164 0.7365208925053232
    outer loop
      vertex 0.046643927693367004 0.7041594982147217 0.8543934226036072
      vertex 0.06488708406686783 0.6739640831947327 0.8731450438499451
      vertex 0.0692373514175415 0.6788610219955444 0.876798152923584
    endloop
  endfacet
  facet normal -0.6745768598933856 0.04982721022754387 0.7365210853854217
    outer loop
      vertex 0.046643927693367004 0.7041594982147217 0.8543934226036072
      vertex 0.06053681671619415 0.6690672039985657 0.8694919347763062
      vertex 0.06488708406686783 0.6739640831947327 0.8731450438499451
    endloop
  endfacet
  facet normal -0.6745770307178263 0.04982685424551751 0.7365209530107864
    outer loop
      vertex 0.05618654936552048 0.6641702651977539 0.8658388257026672
      vertex 0.039273522794246674 0.6921640634536743 0.8484544157981873
      vertex 0.0518362820148468 0.6592733263969421 0.8621857166290283
    endloop
  endfacet
  facet normal -0.6745805672091014 0.04982326646045489 0.7365179566467185
    outer loop
      vertex 0.08881063759326935 0.6464640498161316 0.8969169855117798
      vertex 0.054014332592487335 0.716154932975769 0.8603324890136719
      vertex 0.0692373514175415 0.6788610219955444 0.876798152923584
    endloop
  endfacet
  facet normal -0.6745769691635836 0.049827391088989634 0.7365209730695648
    outer loop
      vertex 0.06705930083990097 0.6219794154167175 0.8786513805389404
      vertex 0.0627090334892273 0.6170825362205505 0.8749982714653015
      vertex 0.10620586574077606 0.5571854710578918 0.918889045715332
    endloop
  endfacet
  facet normal -0.6745773017658566 0.04982694828362485 0.7365206983968865
    outer loop
      vertex 0.0947287380695343 0.55198734998703 0.908728837966919
      vertex 0.10620586574077606 0.5571854710578918 0.918889045715332
      vertex 0.0627090334892273 0.6170825362205505 0.8749982714653015
    endloop
  endfacet
  facet normal -0.6745772564603332 0.049826739543666745 0.736520754013692
    outer loop
      vertex 0.1649247705936432 0.4358014762401581 0.9808813333511353
      vertex 0.10620586574077606 0.5571854710578918 0.918889045715332
      vertex 0.0947287380695343 0.55198734998703 0.908728837966919
    endloop
  endfacet
  facet normal -0.6745777484043082 0.04982640809623676 0.7365203258661647
    outer loop
      vertex 0.2627960443496704 0.37058717012405396 1.0749332904815674
      vertex 0.11490640044212341 0.5669793486595154 0.9261952638626099
      vertex 0.1649247705936432 0.4358014762401581 0.9808813333511353
    endloop
  endfacet
  facet normal -0.6745778440047207 0.04982616732950971 0.7365202545939891
    outer loop
      vertex 0.3053168058395386 0.20342974364757538 1.1251863241195679
      vertex 0.3362518548965454 0.2006165236234665 1.1537100076675415
      vertex 0.23512078821659088 0.31961560249328613 1.0530338287353516
    endloop
  endfacet
  facet normal -0.674577844783645 0.049826160320006266 0.7365202543547714
    outer loop
      vertex 0.2627960443496704 0.37058717012405396 1.0749332904815674
      vertex 0.1649247705936432 0.4358014762401581 0.9808813333511353
      vertex 0.23512078821659088 0.31961560249328613 1.0530338287353516
    endloop
  endfacet
  facet normal -0.6745770668048298 0.04982691397508856 0.7365209159180147
    outer loop
      vertex 0.10620586574077606 0.5571854710578918 0.918889045715332
      vertex 0.1649247705936432 0.4358014762401581 0.9808813333511353
      vertex 0.11490640044212341 0.5669793486595154 0.9261952638626099
    endloop
  endfacet
  facet normal -0.6745771988536352 0.049827132536336756 0.7365207801888481
    outer loop
      vertex 0.08881063759326935 0.6464640498161316 0.8969169855117798
      vertex 0.08446037024259567 0.6415671110153198 0.8932638764381409
      vertex 0.12360693514347076 0.5767731666564941 0.9335015416145325
    endloop
  endfacet
  facet normal -0.674577548607141 0.0498268014995888 0.7365204822457424
    outer loop
      vertex 0.15840518474578857 0.5433710813522339 0.9676328897476196
      vertex 0.08881063759326935 0.6464640498161316 0.8969169855117798
      vertex 0.12360693514347076 0.5767731666564941 0.9335015416145325
    endloop
  endfacet
  facet normal -0.6745785447193084 0.04982495887026204 0.7365196945621731
    outer loop
      vertex 0.12360693514347076 0.5767731666564941 0.9335015416145325
      vertex 0.11490640044212341 0.5669793486595154 0.9261952638626099
      vertex 0.15840518474578857 0.5433710813522339 0.9676328897476196
    endloop
  endfacet
  facet normal -0.6745783378094158 0.04982559696798032 0.7365198409038755
    outer loop
      vertex 0.15840518474578857 0.5433710813522339 0.9676328897476196
      vertex 0.11490640044212341 0.5669793486595154 0.9261952638626099
      vertex 0.2627960443496704 0.37058717012405396 1.0749332904815674
    endloop
  endfacet
  facet normal -0.6745778302232514 0.0498261765856524 0.7365202665902315
    outer loop
      vertex 0.3362518548965454 0.2006165236234665 1.1537100076675415
      vertex 0.36718690395355225 0.1978032886981964 1.1822336912155151
      vertex 0.2627960443496704 0.37058717012405396 1.0749332904815674
    endloop
  endfacet
  facet normal -0.6745778471074653 0.049826162561320796 0.7365202520747614
    outer loop
      vertex 0.23512078821659088 0.31961560249328613 1.0530338287353516
      vertex 0.3362518548965454 0.2006165236234665 1.1537100076675415
      vertex 0.2627960443496704 0.37058717012405396 1.0749332904815674
    endloop
  endfacet
  facet normal -0.6745798157781325 0.04982397768292338 0.7365185967730838
    outer loop
      vertex 0.054014332592487335 0.716154932975769 0.8603324890136719
      vertex 0.08881063759326935 0.6464640498161316 0.8969169855117798
      vertex 0.15840518474578857 0.5433710813522339 0.9676328897476196
    endloop
  endfacet
  facet normal -0.11901085912633885 -0.9924028337545306 0.031193444279017598
    outer loop
      vertex 0.3362518548965454 0.2006165236234665 1.1537100076675415
      vertex 0.3929852545261383 0.19205030798912048 1.097632646560669
      vertex 0.3955535888671875 0.193520188331604 1.154194951057434
    endloop
  endfacet
  facet normal -0.11901073404483627 -0.9924028489206717 0.031193438993541545
    outer loop
      vertex 0.3955535888671875 0.193520188331604 1.154194951057434
      vertex 0.3929852545261383 0.19205030798912048 1.097632646560669
      vertex 0.42392027378082275 0.1892370879650116 1.1261563301086426
    endloop
  endfacet
  facet normal -0.11901085797557873 -0.9924028422004798 0.031193179964953285
    outer loop
      vertex 0.3362518548965454 0.2006165236234665 1.1537100076675415
      vertex 0.3955535888671875 0.193520188331604 1.154194951057434
      vertex 0.36718690395355225 0.1978032886981964 1.1822336912155151
    endloop
  endfacet
  facet normal -0.11901061609683877 -0.99240286322186 0.03119343400950033
    outer loop
      vertex 0.3336835205554962 0.19914664328098297 1.0971477031707764
      vertex 0.3362518548965454 0.2006165236234665 1.1537100076675415
      vertex 0.3053168058395386 0.20342974364757538 1.1251863241195679
    endloop
  endfacet
  facet normal -0.11901085797557873 -0.9924028422004798 0.031193179964953285
    outer loop
      vertex 0.3336835205554962 0.19914664328098297 1.0971477031707764
      vertex 0.36205020546913147 0.19486354291439056 1.0691089630126953
      vertex 0.3929852545261383 0.19205030798912048 1.097632646560669
    endloop
  endfacet
  facet normal -0.11901085912633885 -0.9924028337545306 0.031193444279017598
    outer loop
      vertex 0.3362518548965454 0.2006165236234665 1.1537100076675415
      vertex 0.3336835205554962 0.19914664328098297 1.0971477031707764
      vertex 0.3929852545261383 0.19205030798912048 1.097632646560669
    endloop
  endfacet
endsolid beam