solid e14_features
  facet normal 0.106245667 0.984983991 -0.136082311
    outer loop
      vertex 5.08027728 0.717927416 0.848504505
      vertex 5.08116256 0.717713912 0.847650313
      vertex 5.01842097 0.715571879 0.783160741
    endloop
  endfacet
  facet normal 0.106245667 0.984983991 -0.136082311
    outer loop
      vertex 5.08027728 0.717927416 0.848504505
      vertex 5.01842097 0.715571879 0.783160741
      vertex 5.01753569 0.715785383 0.784014934
    endloop
  endfacet
  facet normal 0.697128755 0.0238003654 0.716550795
    outer loop
      vertex 5.08038647 0.714729279 0.848504505
      vertex 5.08116256 0.717713912 0.847650313
      vertex 5.08027728 0.717927416 0.848504505
    endloop
  endfacet
  facet normal -0.697128755 -0.0238003654 -0.716550795
    outer loop
      vertex 5.01764488 0.712587246 0.784014934
      vertex 5.01753569 0.715785383 0.784014934
      vertex 5.01842097 0.715571879 0.783160741
    endloop
  endfacet
  facet normal 0.369492181 0.844568712 -0.387529636
    outer loop
      vertex 5.08116256 0.717713912 0.847650313
      vertex 5.08192969 0.717046025 0.846926164
      vertex 5.0191881 0.714903992 0.782436592
    endloop
  endfacet
  facet normal 0.369492181 0.844568712 -0.387529636
    outer loop
      vertex 5.08116256 0.717713912 0.847650313
      vertex 5.0191881 0.714903992 0.782436592
      vertex 5.01842097 0.715571879 0.783160741
    endloop
  endfacet
  facet normal 0.697128755 0.0238003654 0.716550795
    outer loop
      vertex 5.08038647 0.714729279 0.848504505
      vertex 5.08192969 0.717046025 0.846926164
      vertex 5.08116256 0.717713912 0.847650313
    endloop
  endfacet
  facet normal -0.697128755 -0.0238003654 -0.716550795
    outer loop
      vertex 5.01764488 0.712587246 0.784014934
      vertex 5.01842097 0.715571879 0.783160741
      vertex 5.0191881 0.714903992 0.782436592
    endloop
  endfacet
  facet normal 0.576486861 0.575575503 -0.579979086
    outer loop
      vertex 5.08192969 0.717046025 0.846926164
      vertex 5.08246187 0.716025435 0.846442303
      vertex 5.01972028 0.713883402 0.781952731
    endloop
  endfacet
  facet normal 0.576486861 0.575575503 -0.579979086
    outer loop
      vertex 5.08192969 0.717046025 0.846926164
      vertex 5.01972028 0.713883402 0.781952731
      vertex 5.0191881 0.714903992 0.782436592
    endloop
  endfacet
  facet normal 0.697128755 0.0238003654 0.716550795
    outer loop
      vertex 5.08038647 0.714729279 0.848504505
      vertex 5.08246187 0.716025435 0.846442303
      vertex 5.08192969 0.717046025 0.846926164
    endloop
  endfacet
  facet normal -0.697128755 -0.0238003654 -0.716550795
    outer loop
      vertex 5.01764488 0.712587246 0.784014934
      vertex 5.0191881 0.714903992 0.782436592
      vertex 5.01972028 0.713883402 0.781952731
    endloop
  endfacet
  facet normal 0.695716642 0.21895614 -0.684131978
    outer loop
      vertex 5.08246187 0.716025435 0.846442303
      vertex 5.08267809 0.714807516 0.846272393
      vertex 5.01993651 0.712665483 0.781782822
    endloop
  endfacet
  facet normal 0.695716642 0.21895614 -0.684131978
    outer loop
      vertex 5.08246187 0.716025435 0.846442303
      vertex 5.01993651 0.712665483 0.781782822
      vertex 5.01972028 0.713883402 0.781952731
    endloop
  endfacet
  facet normal 0.697128755 0.0238003654 0.716550795
    outer loop
      vertex 5.08038647 0.714729279 0.848504505
      vertex 5.08267809 0.714807516 0.846272393
      vertex 5.08246187 0.716025435 0.846442303
    endloop
  endfacet
  facet normal -0.697128755 -0.0238003654 -0.716550795
    outer loop
      vertex 5.01764488 0.712587246 0.784014934
      vertex 5.01972028 0.713883402 0.781952731
      vertex 5.01993651 0.712665483 0.781782822
    endloop
  endfacet
  facet normal 0.70902987 -0.170997309 -0.684131978
    outer loop
      vertex 5.08267809 0.714807516 0.846272393
      vertex 5.08254544 0.713577687 0.846442303
      vertex 5.01980385 0.711435654 0.781952731
    endloop
  endfacet
  facet normal 0.70902987 -0.170997309 -0.684131978
    outer loop
      vertex 5.08267809 0.714807516 0.846272393
      vertex 5.01980385 0.711435654 0.781952731
      vertex 5.01993651 0.712665483 0.781782822
    endloop
  endfacet
  facet normal 0.697128755 0.0238003654 0.716550795
    outer loop
      vertex 5.08038647 0.714729279 0.848504505
      vertex 5.08254544 0.713577687 0.846442303
      vertex 5.08267809 0.714807516 0.846272393
    endloop
  endfacet
  facet normal -0.697128755 -0.0238003654 -0.716550795
    outer loop
      vertex 5.01764488 0.712587246 0.784014934
      vertex 5.01993651 0.712665483 0.781782822
      vertex 5.01980385 0.711435654 0.781952731
    endloop
  endfacet
  facet normal 0.614399729 -0.534917969 -0.579979086
    outer loop
      vertex 5.08254544 0.713577687 0.846442303
      vertex 5.0820841 0.712523177 0.846926164
      vertex 5.01934251 0.710381144 0.782436592
    endloop
  endfacet
  facet normal 0.614399729 -0.534917969 -0.579979086
    outer loop
      vertex 5.08254544 0.713577687 0.846442303
      vertex 5.01934251 0.710381144 0.782436592
      vertex 5.01980385 0.711435654 0.781952731
    endloop
  endfacet
  facet normal 0.697128755 0.0238003654 0.716550795
    outer loop
      vertex 5.08038647 0.714729279 0.848504505
      vertex 5.0820841 0.712523177 0.846926164
      vertex 5.08254544 0.713577687 0.846442303
    endloop
  endfacet
  facet normal -0.697128755 -0.0238003654 -0.716550795
    outer loop
      vertex 5.01764488 0.712587246 0.784014934
      vertex 5.01980385 0.711435654 0.781952731
      vertex 5.01934251 0.710381144 0.782436592
    endloop
  endfacet
  facet normal 0.426232798 -0.817402216 -0.387529636
    outer loop
      vertex 5.0820841 0.712523177 0.846926164
      vertex 5.08136431 0.711804526 0.847650313
      vertex 5.01862272 0.709662493 0.783160741
    endloop
  endfacet
  facet normal 0.426232798 -0.817402216 -0.387529636
    outer loop
      vertex 5.0820841 0.712523177 0.846926164
      vertex 5.01862272 0.709662493 0.783160741
      vertex 5.01934251 0.710381144 0.782436592
    endloop
  endfacet
  facet normal 0.697128755 0.0238003654 0.716550795
    outer loop
      vertex 5.08038647 0.714729279 0.848504505
      vertex 5.08136431 0.711804526 0.847650313
      vertex 5.0820841 0.712523177 0.846926164
    endloop
  endfacet
  facet normal -0.697128755 -0.0238003654 -0.716550795
    outer loop
      vertex 5.01764488 0.712587246 0.784014934
      vertex 5.01934251 0.710381144 0.782436592
      vertex 5.01862272 0.709662493 0.783160741
    endloop
  endfacet
  facet normal 0.173175787 -0.975444387 -0.136082311
    outer loop
      vertex 5.08136431 0.711804526 0.847650313
      vertex 5.08049565 0.711531142 0.848504505
      vertex 5.01775407 0.709389109 0.784014934
    endloop
  endfacet
  facet normal 0.173175787 -0.975444387 -0.136082311
    outer loop
      vertex 5.08136431 0.711804526 0.847650313
      vertex 5.01775407 0.709389109 0.784014934
      vertex 5.01862272 0.709662493 0.783160741
    endloop
  endfacet
  facet normal 0.697128755 0.0238003654 0.716550795
    outer loop
      vertex 5.08038647 0.714729279 0.848504505
      vertex 5.08049565 0.711531142 0.848504505
      vertex 5.08136431 0.711804526 0.847650313
    endloop
  endfacet
  facet normal -0.697128755 -0.0238003654 -0.716550795
    outer loop
      vertex 5.01764488 0.712587246 0.784014934
      vertex 5.01862272 0.709662493 0.783160741
      vertex 5.01775407 0.709389109 0.784014934
    endloop
  endfacet
  facet normal -0.106245667 -0.984983991 0.136082311
    outer loop
      vertex 5.08049565 0.711531142 0.848504505
      vertex 5.07961037 0.711744646 0.849358697
      vertex 5.01686879 0.709602613 0.784869126
    endloop
  endfacet
  facet normal -0.106245667 -0.984983991 0.136082311
    outer loop
      vertex 5.08049565 0.711531142 0.848504505
      vertex 5.01686879 0.709602613 0.784869126
      vertex 5.01775407 0.709389109 0.784014934
    endloop
  endfacet
  facet normal 0.697128755 0.0238003654 0.716550795
    outer loop
      vertex 5.08038647 0.714729279 0.848504505
      vertex 5.07961037 0.711744646 0.849358697
      vertex 5.08049565 0.711531142 0.848504505
    endloop
  endfacet
  facet normal -0.697128755 -0.0238003654 -0.716550795
    outer loop
      vertex 5.01764488 0.712587246 0.784014934
      vertex 5.01775407 0.709389109 0.784014934
      vertex 5.01686879 0.709602613 0.784869126
    endloop
  endfacet
  facet normal -0.369492181 -0.844568712 0.387529636
    outer loop
      vertex 5.07961037 0.711744646 0.849358697
      vertex 5.07884325 0.712412532 0.850082847
      vertex 5.01610166 0.7102705 0.785593275
    endloop
  endfacet
  facet normal -0.369492181 -0.844568712 0.387529636
    outer loop
      vertex 5.07961037 0.711744646 0.849358697
      vertex 5.01610166 0.7102705 0.785593275
      vertex 5.01686879 0.709602613 0.784869126
    endloop
  endfacet
  facet normal 0.697128755 0.0238003654 0.716550795
    outer loop
      vertex 5.08038647 0.714729279 0.848504505
      vertex 5.07884325 0.712412532 0.850082847
      vertex 5.07961037 0.711744646 0.849358697
    endloop
  endfacet
  facet normal -0.697128755 -0.0238003654 -0.716550795
    outer loop
      vertex 5.01764488 0.712587246 0.784014934
      vertex 5.01686879 0.709602613 0.784869126
      vertex 5.01610166 0.7102705 0.785593275
    endloop
  endfacet
  facet normal -0.576486861 -0.575575503 0.579979086
    outer loop
      vertex 5.07884325 0.712412532 0.850082847
      vertex 5.07831106 0.713433123 0.850566708
      vertex 5.01556948 0.71129109 0.786077136
    endloop
  endfacet
  facet normal -0.576486861 -0.575575503 0.579979086
    outer loop
      vertex 5.07884325 0.712412532 0.850082847
      vertex 5.01556948 0.71129109 0.786077136
      vertex 5.01610166 0.7102705 0.785593275
    endloop
  endfacet
  facet normal 0.697128755 0.0238003654 0.716550795
    outer loop
      vertex 5.08038647 0.714729279 0.848504505
      vertex 5.07831106 0.713433123 0.850566708
      vertex 5.07884325 0.712412532 0.850082847
    endloop
  endfacet
  facet normal -0.697128755 -0.0238003654 -0.716550795
    outer loop
      vertex 5.01764488 0.712587246 0.784014934
      vertex 5.01610166 0.7102705 0.785593275
      vertex 5.01556948 0.71129109 0.786077136
    endloop
  endfacet
  facet normal -0.695716642 -0.21895614 0.684131978
    outer loop
      vertex 5.07831106 0.713433123 0.850566708
      vertex 5.07809484 0.714651041 0.850736617
      vertex 5.01535325 0.712509009 0.786247045
    endloop
  endfacet
  facet normal -0.695716642 -0.21895614 0.684131978
    outer loop
      vertex 5.07831106 0.713433123 0.850566708
      vertex 5.01535325 0.712509009 0.786247045
      vertex 5.01556948 0.71129109 0.786077136
    endloop
  endfacet
  facet normal 0.697128755 0.0238003654 0.716550795
    outer loop
      vertex 5.08038647 0.714729279 0.848504505
      vertex 5.07809484 0.714651041 0.850736617
      vertex 5.07831106 0.713433123 0.850566708
    endloop
  endfacet
  facet normal -0.697128755 -0.0238003654 -0.716550795
    outer loop
      vertex 5.01764488 0.712587246 0.784014934
      vertex 5.01556948 0.71129109 0.786077136
      vertex 5.01535325 0.712509009 0.786247045
    endloop
  endfacet
  facet normal -0.70902987 0.170997309 0.684131978
    outer loop
      vertex 5.07809484 0.714651041 0.850736617
      vertex 5.0782275 0.715880871 0.850566708
      vertex 5.01548591 0.713738838 0.786077136
    endloop
  endfacet
  facet normal -0.70902987 0.170997309 0.684131978
    outer loop
      vertex 5.07809484 0.714651041 0.850736617
      vertex 5.01548591 0.713738838 0.786077136
      vertex 5.01535325 0.712509009 0.786247045
    endloop
  endfacet
  facet normal 0.697128755 0.0238003654 0.716550795
    outer loop
      vertex 5.08038647 0.714729279 0.848504505
      vertex 5.0782275 0.715880871 0.850566708
      vertex 5.07809484 0.714651041 0.850736617
    endloop
  endfacet
  facet normal -0.697128755 -0.0238003654 -0.716550795
    outer loop
      vertex 5.01764488 0.712587246 0.784014934
      vertex 5.01535325 0.712509009 0.786247045
      vertex 5.01548591 0.713738838 0.786077136
    endloop
  endfacet
  facet normal -0.614399729 0.534917969 0.579979086
    outer loop
      vertex 5.0782275 0.715880871 0.850566708
      vertex 5.07868884 0.716935381 0.850082847
      vertex 5.01594725 0.714793348 0.785593275
    endloop
  endfacet
  facet normal -0.614399729 0.534917969 0.579979086
    outer loop
      vertex 5.0782275 0.715880871 0.850566708
      vertex 5.01594725 0.714793348 0.785593275
      vertex 5.01548591 0.713738838 0.786077136
    endloop
  endfacet
  facet normal 0.697128755 0.0238003654 0.716550795
    outer loop
      vertex 5.08038647 0.714729279 0.848504505
      vertex 5.07868884 0.716935381 0.850082847
      vertex 5.0782275 0.715880871 0.850566708
    endloop
  endfacet
  facet normal -0.697128755 -0.0238003654 -0.716550795
    outer loop
      vertex 5.01764488 0.712587246 0.784014934
      vertex 5.01548591 0.713738838 0.786077136
      vertex 5.01594725 0.714793348 0.785593275
    endloop
  endfacet
  facet normal -0.426232798 0.817402216 0.387529636
    outer loop
      vertex 5.07868884 0.716935381 0.850082847
      vertex 5.07940862 0.717654032 0.849358697
      vertex 5.01666704 0.715511999 0.784869126
    endloop
  endfacet
  facet normal -0.426232798 0.817402216 0.387529636
    outer loop
      vertex 5.07868884 0.716935381 0.850082847
      vertex 5.01666704 0.715511999 0.784869126
      vertex 5.01594725 0.714793348 0.785593275
    endloop
  endfacet
  facet normal 0.697128755 0.0238003654 0.716550795
    outer loop
      vertex 5.08038647 0.714729279 0.848504505
      vertex 5.07940862 0.717654032 0.849358697
      vertex 5.07868884 0.716935381 0.850082847
    endloop
  endfacet
  facet normal -0.697128755 -0.0238003654 -0.716550795
    outer loop
      vertex 5.01764488 0.712587246 0.784014934
      vertex 5.01594725 0.714793348 0.785593275
      vertex 5.01666704 0.715511999 0.784869126
    endloop
  endfacet
  facet normal -0.173175787 0.975444387 0.136082311
    outer loop
      vertex 5.07940862 0.717654032 0.849358697
      vertex 5.08027728 0.717927416 0.848504505
      vertex 5.01753569 0.715785383 0.784014934
    endloop
  endfacet
  facet normal -0.173175787 0.975444387 0.136082311
    outer loop
      vertex 5.07940862 0.717654032 0.849358697
      vertex 5.01753569 0.715785383 0.784014934
      vertex 5.01666704 0.715511999 0.784869126
    endloop
  endfacet
  facet normal 0.697128755 0.0238003654 0.716550795
    outer loop
      vertex 5.08038647 0.714729279 0.848504505
      vertex 5.08027728 0.717927416 0.848504505
      vertex 5.07940862 0.717654032 0.849358697
    endloop
  endfacet
  facet normal -0.697128755 -0.0238003654 -0.716550795
    outer loop
      vertex 5.01764488 0.712587246 0.784014934
      vertex 5.01666704 0.715511999 0.784869126
      vertex 5.01753569 0.715785383 0.784014934
    endloop
  endfacet
  facet normal 0.106245667 0.984983991 -0.136082311
    outer loop
      vertex 5.10178565 0.717205829 0.827603085
      vertex 5.10267093 0.716992325 0.826748893
      vertex 5.03992934 0.714850292 0.762259322
    endloop
  endfacet
  facet normal 0.106245667 0.984983991 -0.136082311
    outer loop
      vertex 5.10178565 0.717205829 0.827603085
      vertex 5.03992934 0.714850292 0.762259322
      vertex 5.03904406 0.715063796 0.763113514
    endloop
  endfacet
  facet normal 0.697128755 0.0238003654 0.716550795
    outer loop
      vertex 5.10189484 0.714007692 0.827603085
      vertex 5.10267093 0.716992325 0.826748893
      vertex 5.10178565 0.717205829 0.827603085
    endloop
  endfacet
  facet normal -0.697128755 -0.0238003654 -0.716550795
    outer loop
      vertex 5.03915325 0.711865659 0.763113514
      vertex 5.03904406 0.715063796 0.763113514
      vertex 5.03992934 0.714850292 0.762259322
    endloop
  endfacet
  facet normal 0.369492181 0.844568712 -0.387529636
    outer loop
      vertex 5.10267093 0.716992325 0.826748893
      vertex 5.10343806 0.716324438 0.826024744
      vertex 5.04069647 0.714182405 0.761535173
    endloop
  endfacet
  facet normal 0.369492181 0.844568712 -0.387529636
    outer loop
      vertex 5.10267093 0.716992325 0.826748893
      vertex 5.04069647 0.714182405 0.761535173
      vertex 5.03992934 0.714850292 0.762259322
    endloop
  endfacet
  facet normal 0.697128755 0.0238003654 0.716550795
    outer loop
      vertex 5.10189484 0.714007692 0.827603085
      vertex 5.10343806 0.716324438 0.826024744
      vertex 5.10267093 0.716992325 0.826748893
    endloop
  endfacet
  facet normal -0.697128755 -0.0238003654 -0.716550795
    outer loop
      vertex 5.03915325 0.711865659 0.763113514
      vertex 5.03992934 0.714850292 0.762259322
      vertex 5.04069647 0.714182405 0.761535173
    endloop
  endfacet
  facet normal 0.576486861 0.575575503 -0.579979086
    outer loop
      vertex 5.10343806 0.716324438 0.826024744
      vertex 5.10397024 0.715303848 0.825540883
      vertex 5.04122865 0.713161815 0.761051312
    endloop
  endfacet
  facet normal 0.576486861 0.575575503 -0.579979086
    outer loop
      vertex 5.10343806 0.716324438 0.826024744
      vertex 5.04122865 0.713161815 0.761051312
      vertex 5.04069647 0.714182405 0.761535173
    endloop
  endfacet
  facet normal 0.697128755 0.0238003654 0.716550795
    outer loop
      vertex 5.10189484 0.714007692 0.827603085
      vertex 5.10397024 0.715303848 0.825540883
      vertex 5.10343806 0.716324438 0.826024744
    endloop
  endfacet
  facet normal -0.697128755 -0.0238003654 -0.716550795
    outer loop
      vertex 5.03915325 0.711865659 0.763113514
      vertex 5.04069647 0.714182405 0.761535173
      vertex 5.04122865 0.713161815 0.761051312
    endloop
  endfacet
  facet normal 0.695716642 0.21895614 -0.684131978
    outer loop
      vertex 5.10397024 0.715303848 0.825540883
      vertex 5.10418646 0.714085929 0.825370974
      vertex 5.04144488 0.711943896 0.760881402
    endloop
  endfacet
  facet normal 0.695716642 0.21895614 -0.684131978
    outer loop
      vertex 5.10397024 0.715303848 0.825540883
      vertex 5.04144488 0.711943896 0.760881402
      vertex 5.04122865 0.713161815 0.761051312
    endloop
  endfacet
  facet normal 0.697128755 0.0238003654 0.716550795
    outer loop
      vertex 5.10189484 0.714007692 0.827603085
      vertex 5.10418646 0.714085929 0.825370974
      vertex 5.10397024 0.715303848 0.825540883
    endloop
  endfacet
  facet normal -0.697128755 -0.0238003654 -0.716550795
    outer loop
      vertex 5.03915325 0.711865659 0.763113514
      vertex 5.04122865 0.713161815 0.761051312
      vertex 5.04144488 0.711943896 0.760881402
    endloop
  endfacet
  facet normal 0.70902987 -0.170997309 -0.684131978
    outer loop
      vertex 5.10418646 0.714085929 0.825370974
      vertex 5.10405381 0.7128561 0.825540883
      vertex 5.04131222 0.710714067 0.761051312
    endloop
  endfacet
  facet normal 0.70902987 -0.170997309 -0.684131978
    outer loop
      vertex 5.10418646 0.714085929 0.825370974
      vertex 5.04131222 0.710714067 0.761051312
      vertex 5.04144488 0.711943896 0.760881402
    endloop
  endfacet
  facet normal 0.697128755 0.0238003654 0.716550795
    outer loop
      vertex 5.10189484 0.714007692 0.827603085
      vertex 5.10405381 0.7128561 0.825540883
      vertex 5.10418646 0.714085929 0.825370974
    endloop
  endfacet
  facet normal -0.697128755 -0.0238003654 -0.716550795
    outer loop
      vertex 5.03915325 0.711865659 0.763113514
      vertex 5.04144488 0.711943896 0.760881402
      vertex 5.04131222 0.710714067 0.761051312
    endloop
  endfacet
  facet normal 0.614399729 -0.534917969 -0.579979086
    outer loop
      vertex 5.10405381 0.7128561 0.825540883
      vertex 5.10359247 0.71180159 0.826024744
      vertex 5.04085088 0.709659557 0.761535173
    endloop
  endfacet
  facet normal 0.614399729 -0.534917969 -0.579979086
    outer loop
      vertex 5.10405381 0.7128561 0.825540883
      vertex 5.04085088 0.709659557 0.761535173
      vertex 5.04131222 0.710714067 0.761051312
    endloop
  endfacet
  facet normal 0.697128755 0.0238003654 0.716550795
    outer loop
      vertex 5.10189484 0.714007692 0.827603085
      vertex 5.10359247 0.71180159 0.826024744
      vertex 5.10405381 0.7128561 0.825540883
    endloop
  endfacet
  facet normal -0.697128755 -0.0238003654 -0.716550795
    outer loop
      vertex 5.03915325 0.711865659 0.763113514
      vertex 5.04131222 0.710714067 0.761051312
      vertex 5.04085088 0.709659557 0.761535173
    endloop
  endfacet
  facet normal 0.426232798 -0.817402216 -0.387529636
    outer loop
      vertex 5.10359247 0.71180159 0.826024744
      vertex 5.10287268 0.711082939 0.826748893
      vertex 5.04013109 0.708940906 0.762259322
    endloop
  endfacet
  facet normal 0.426232798 -0.817402216 -0.387529636
    outer loop
      vertex 5.10359247 0.71180159 0.826024744
      vertex 5.04013109 0.708940906 0.762259322
      vertex 5.04085088 0.709659557 0.761535173
    endloop
  endfacet
  facet normal 0.697128755 0.0238003654 0.716550795
    outer loop
      vertex 5.10189484 0.714007692 0.827603085
      vertex 5.10287268 0.711082939 0.826748893
      vertex 5.10359247 0.71180159 0.826024744
    endloop
  endfacet
  facet normal -0.697128755 -0.0238003654 -0.716550795
    outer loop
      vertex 5.03915325 0.711865659 0.763113514
      vertex 5.04085088 0.709659557 0.761535173
      vertex 5.04013109 0.708940906 0.762259322
    endloop
  endfacet
  facet normal 0.173175787 -0.975444387 -0.136082311
    outer loop
      vertex 5.10287268 0.711082939 0.826748893
      vertex 5.10200402 0.710809555 0.827603085
      vertex 5.03926244 0.708667522 0.763113514
    endloop
  endfacet
  facet normal 0.173175787 -0.975444387 -0.136082311
    outer loop
      vertex 5.10287268 0.711082939 0.826748893
      vertex 5.03926244 0.708667522 0.763113514
      vertex 5.04013109 0.708940906 0.762259322
    endloop
  endfacet
  facet normal 0.697128755 0.0238003654 0.716550795
    outer loop
      vertex 5.10189484 0.714007692 0.827603085
      vertex 5.10200402 0.710809555 0.827603085
      vertex 5.10287268 0.711082939 0.826748893
    endloop
  endfacet
  facet normal -0.697128755 -0.0238003654 -0.716550795
    outer loop
      vertex 5.03915325 0.711865659 0.763113514
      vertex 5.04013109 0.708940906 0.762259322
      vertex 5.03926244 0.708667522 0.763113514
    endloop
  endfacet
  facet normal -0.106245667 -0.984983991 0.136082311
    outer loop
      vertex 5.10200402 0.710809555 0.827603085
      vertex 5.10111874 0.711023059 0.828457278
      vertex 5.03837716 0.708881026 0.763967706
    endloop
  endfacet
  facet normal -0.106245667 -0.984983991 0.136082311
    outer loop
      vertex 5.10200402 0.710809555 0.827603085
      vertex 5.03837716 0.708881026 0.763967706
      vertex 5.03926244 0.708667522 0.763113514
    endloop
  endfacet
  facet normal 0.697128755 0.0238003654 0.716550795
    outer loop
      vertex 5.10189484 0.714007692 0.827603085
      vertex 5.10111874 0.711023059 0.828457278
      vertex 5.10200402 0.710809555 0.827603085
    endloop
  endfacet
  facet normal -0.697128755 -0.0238003654 -0.716550795
    outer loop
      vertex 5.03915325 0.711865659 0.763113514
      vertex 5.03926244 0.708667522 0.763113514
      vertex 5.03837716 0.708881026 0.763967706
    endloop
  endfacet
  facet normal -0.369492181 -0.844568712 0.387529636
    outer loop
      vertex 5.10111874 0.711023059 0.828457278
      vertex 5.10035162 0.711690945 0.829181427
      vertex 5.03761003 0.709548913 0.764691855
    endloop
  endfacet
  facet normal -0.369492181 -0.844568712 0.387529636
    outer loop
      vertex 5.10111874 0.711023059 0.828457278
      vertex 5.03761003 0.709548913 0.764691855
      vertex 5.03837716 0.708881026 0.763967706
    endloop
  endfacet
  facet normal 0.697128755 0.0238003654 0.716550795
    outer loop
      vertex 5.10189484 0.714007692 0.827603085
      vertex 5.10035162 0.711690945 0.829181427
      vertex 5.10111874 0.711023059 0.828457278
    endloop
  endfacet
  facet normal -0.697128755 -0.0238003654 -0.716550795
    outer loop
      vertex 5.03915325 0.711865659 0.763113514
      vertex 5.03837716 0.708881026 0.763967706
      vertex 5.03761003 0.709548913 0.764691855
    endloop
  endfacet
  facet normal -0.576486861 -0.575575503 0.579979086
    outer loop
      vertex 5.10035162 0.711690945 0.829181427
      vertex 5.09981943 0.712711536 0.829665288
      vertex 5.03707785 0.710569503 0.765175716
    endloop
  endfacet
  facet normal -0.576486861 -0.575575503 0.579979086
    outer loop
      vertex 5.10035162 0.711690945 0.829181427
      vertex 5.03707785 0.710569503 0.765175716
      vertex 5.03761003 0.709548913 0.764691855
    endloop
  endfacet
  facet normal 0.697128755 0.0238003654 0.716550795
    outer loop
      vertex 5.10189484 0.714007692 0.827603085
      vertex 5.09981943 0.712711536 0.829665288
      vertex 5.10035162 0.711690945 0.829181427
    endloop
  endfacet
  facet normal -0.697128755 -0.0238003654 -0.716550795
    outer loop
      vertex 5.03915325 0.711865659 0.763113514
      vertex 5.03761003 0.709548913 0.764691855
      vertex 5.03707785 0.710569503 0.765175716
    endloop
  endfacet
  facet normal -0.695716642 -0.21895614 0.684131978
    outer loop
      vertex 5.09981943 0.712711536 0.829665288
      vertex 5.09960321 0.713929454 0.829835197
      vertex 5.03686162 0.711787421 0.765345626
    endloop
  endfacet
  facet normal -0.695716642 -0.21895614 0.684131978
    outer loop
      vertex 5.09981943 0.712711536 0.829665288
      vertex 5.03686162 0.711787421 0.765345626
      vertex 5.03707785 0.710569503 0.765175716
    endloop
  endfacet
  facet normal 0.697128755 0.0238003654 0.716550795
    outer loop
      vertex 5.10189484 0.714007692 0.827603085
      vertex 5.09960321 0.713929454 0.829835197
      vertex 5.09981943 0.712711536 0.829665288
    endloop
  endfacet
  facet normal -0.697128755 -0.0238003654 -0.716550795
    outer loop
      vertex 5.03915325 0.711865659 0.763113514
      vertex 5.03707785 0.710569503 0.765175716
      vertex 5.03686162 0.711787421 0.765345626
    endloop
  endfacet
  facet normal -0.70902987 0.170997309 0.684131978
    outer loop
      vertex 5.09960321 0.713929454 0.829835197
      vertex 5.09973587 0.715159284 0.829665288
      vertex 5.03699428 0.713017251 0.765175716
    endloop
  endfacet
  facet normal -0.70902987 0.170997309 0.684131978
    outer loop
      vertex 5.09960321 0.713929454 0.829835197
      vertex 5.03699428 0.713017251 0.765175716
      vertex 5.03686162 0.711787421 0.765345626
    endloop
  endfacet
  facet normal 0.697128755 0.0238003654 0.716550795
    outer loop
      vertex 5.10189484 0.714007692 0.827603085
      vertex 5.09973587 0.715159284 0.829665288
      vertex 5.09960321 0.713929454 0.829835197
    endloop
  endfacet
  facet normal -0.697128755 -0.0238003654 -0.716550795
    outer loop
      vertex 5.03915325 0.711865659 0.763113514
      vertex 5.03686162 0.711787421 0.765345626
      vertex 5.03699428 0.713017251 0.765175716
    endloop
  endfacet
  facet normal -0.614399729 0.534917969 0.579979086
    outer loop
      vertex 5.09973587 0.715159284 0.829665288
      vertex 5.10019721 0.716213794 0.829181427
      vertex 5.03745562 0.714071761 0.764691855
    endloop
  endfacet
  facet normal -0.614399729 0.534917969 0.579979086
    outer loop
      vertex 5.09973587 0.715159284 0.829665288
      vertex 5.03745562 0.714071761 0.764691855
      vertex 5.03699428 0.713017251 0.765175716
    endloop
  endfacet
  facet normal 0.697128755 0.0238003654 0.716550795
    outer loop
      vertex 5.10189484 0.714007692 0.827603085
      vertex 5.10019721 0.716213794 0.829181427
      vertex 5.09973587 0.715159284 0.829665288
    endloop
  endfacet
  facet normal -0.697128755 -0.0238003654 -0.716550795
    outer loop
      vertex 5.03915325 0.711865659 0.763113514
      vertex 5.03699428 0.713017251 0.765175716
      vertex 5.03745562 0.714071761 0.764691855
    endloop
  endfacet
  facet normal -0.426232798 0.817402216 0.387529636
    outer loop
      vertex 5.10019721 0.716213794 0.829181427
      vertex 5.10091699 0.716932445 0.828457278
      vertex 5.03817541 0.714790412 0.763967706
    endloop
  endfacet
  facet normal -0.426232798 0.817402216 0.387529636
    outer loop
      vertex 5.10019721 0.716213794 0.829181427
      vertex 5.03817541 0.714790412 0.763967706
      vertex 5.03745562 0.714071761 0.764691855
    endloop
  endfacet
  facet normal 0.697128755 0.0238003654 0.716550795
    outer loop
      vertex 5.10189484 0.714007692 0.827603085
      vertex 5.10091699 0.716932445 0.828457278
      vertex 5.10019721 0.716213794 0.829181427
    endloop
  endfacet
  facet normal -0.697128755 -0.0238003654 -0.716550795
    outer loop
      vertex 5.03915325 0.711865659 0.763113514
      vertex 5.03745562 0.714071761 0.764691855
      vertex 5.03817541 0.714790412 0.763967706
    endloop
  endfacet
  facet normal -0.173175787 0.975444387 0.136082311
    outer loop
      vertex 5.10091699 0.716932445 0.828457278
      vertex 5.10178565 0.717205829 0.827603085
      vertex 5.03904406 0.715063796 0.763113514
    endloop
  endfacet
  facet normal -0.173175787 0.975444387 0.136082311
    outer loop
      vertex 5.10091699 0.716932445 0.828457278
      vertex 5.03904406 0.715063796 0.763113514
      vertex 5.03817541 0.714790412 0.763967706
    endloop
  endfacet
  facet normal 0.697128755 0.0238003654 0.716550795
    outer loop
      vertex 5.10189484 0.714007692 0.827603085
      vertex 5.10178565 0.717205829 0.827603085
      vertex 5.10091699 0.716932445 0.828457278
    endloop
  endfacet
  facet normal -0.697128755 -0.0238003654 -0.716550795
    outer loop
      vertex 5.03915325 0.711865659 0.763113514
      vertex 5.03817541 0.714790412 0.763967706
      vertex 5.03904406 0.715063796 0.763113514
    endloop
  endfacet
  facet normal -0.0550177035 -0.989123909 -0.136407275
    outer loop
      vertex 5.099188 0.613333897 0.795716683
      vertex 5.09829488 0.613501656 0.794860451
      vertex 5.2027901 0.622478356 0.687621624
    endloop
  endfacet
  facet normal -0.0550177035 -0.989123909 -0.136407275
    outer loop
      vertex 5.099188 0.613333897 0.795716683
      vertex 5.2027901 0.622478356 0.687621624
      vertex 5.20368323 0.622310597 0.688477856
    endloop
  endfacet
  facet normal -0.696634861 -0.0598446666 0.714925511
    outer loop
      vertex 5.09891411 0.616522155 0.795716683
      vertex 5.09829488 0.613501656 0.794860451
      vertex 5.099188 0.613333897 0.795716683
    endloop
  endfacet
  facet normal 0.696634861 0.0598446666 -0.714925511
    outer loop
      vertex 5.20340934 0.625498855 0.688477856
      vertex 5.20368323 0.622310597 0.688477856
      vertex 5.2027901 0.622478356 0.687621624
    endloop
  endfacet
  facet normal -0.324568227 -0.862414133 -0.388455054
    outer loop
      vertex 5.09829488 0.613501656 0.794860451
      vertex 5.09749602 0.614129258 0.794134572
      vertex 5.20199125 0.623105958 0.686895745
    endloop
  endfacet
  facet normal -0.324568227 -0.862414133 -0.388455054
    outer loop
      vertex 5.09829488 0.613501656 0.794860451
      vertex 5.20199125 0.623105958 0.686895745
      vertex 5.2027901 0.622478356 0.687621624
    endloop
  endfacet
  facet normal -0.696634861 -0.0598446666 0.714925511
    outer loop
      vertex 5.09891411 0.616522155 0.795716683
      vertex 5.09749602 0.614129258 0.794134572
      vertex 5.09829488 0.613501656 0.794860451
    endloop
  endfacet
  facet normal 0.696634861 0.0598446666 -0.714925511
    outer loop
      vertex 5.20340934 0.625498855 0.688477856
      vertex 5.2027901 0.622478356 0.687621624
      vertex 5.20199125 0.623105958 0.686895745
    endloop
  endfacet
  facet normal -0.54470618 -0.604409623 -0.581364072
    outer loop
      vertex 5.09749602 0.614129258 0.794134572
      vertex 5.09691306 0.615121157 0.793649556
      vertex 5.20140829 0.624097857 0.686410729
    endloop
  endfacet
  facet normal -0.54470618 -0.604409623 -0.581364072
    outer loop
      vertex 5.09749602 0.614129258 0.794134572
      vertex 5.20140829 0.624097857 0.686410729
      vertex 5.20199125 0.623105958 0.686895745
    endloop
  endfacet
  facet normal -0.696634861 -0.0598446666 0.714925511
    outer loop
      vertex 5.09891411 0.616522155 0.795716683
      vertex 5.09691306 0.615121157 0.793649556
      vertex 5.09749602 0.614129258 0.794134572
    endloop
  endfacet
  facet normal 0.696634861 0.0598446666 -0.714925511
    outer loop
      vertex 5.20340934 0.625498855 0.688477856
      vertex 5.20199125 0.623105958 0.686895745
      vertex 5.20140829 0.624097857 0.686410729
    endloop
  endfacet
  facet normal -0.681917556 -0.254389227 -0.68576568
    outer loop
      vertex 5.09691306 0.615121157 0.793649556
      vertex 5.09663475 0.616326345 0.793479241
      vertex 5.20112997 0.625303045 0.686240414
    endloop
  endfacet
  facet normal -0.681917556 -0.254389227 -0.68576568
    outer loop
      vertex 5.09691306 0.615121157 0.793649556
      vertex 5.20112997 0.625303045 0.686240414
      vertex 5.20140829 0.624097857 0.686410729
    endloop
  endfacet
  facet normal -0.696634861 -0.0598446666 0.714925511
    outer loop
      vertex 5.09891411 0.616522155 0.795716683
      vertex 5.09663475 0.616326345 0.793479241
      vertex 5.09691306 0.615121157 0.793649556
    endloop
  endfacet
  facet normal 0.696634861 0.0598446666 -0.714925511
    outer loop
      vertex 5.20340934 0.625498855 0.688477856
      vertex 5.20140829 0.624097857 0.686410729
      vertex 5.20112997 0.625303045 0.686240414
    endloop
  endfacet
  facet normal -0.715313164 0.134359623 -0.68576568
    outer loop
      vertex 5.09663475 0.616326345 0.793479241
      vertex 5.09670344 0.617561343 0.793649556
      vertex 5.20119867 0.626538043 0.686410729
    endloop
  endfacet
  facet normal -0.715313164 0.134359623 -0.68576568
    outer loop
      vertex 5.09663475 0.616326345 0.793479241
      vertex 5.20119867 0.626538043 0.686410729
      vertex 5.20112997 0.625303045 0.686240414
    endloop
  endfacet
  facet normal -0.696634861 -0.0598446666 0.714925511
    outer loop
      vertex 5.09891411 0.616522155 0.795716683
      vertex 5.09670344 0.617561343 0.793649556
      vertex 5.09663475 0.616326345 0.793479241
    endloop
  endfacet
  facet normal 0.696634861 0.0598446666 -0.714925511
    outer loop
      vertex 5.20340934 0.625498855 0.688477856
      vertex 5.20112997 0.625303045 0.686240414
      vertex 5.20119867 0.626538043 0.686410729
    endloop
  endfacet
  facet normal -0.639808828 0.502653438 -0.581364072
    outer loop
      vertex 5.09670344 0.617561343 0.793649556
      vertex 5.09710869 0.618638135 0.794134572
      vertex 5.20160392 0.627614835 0.686895745
    endloop
  endfacet
  facet normal -0.639808828 0.502653438 -0.581364072
    outer loop
      vertex 5.09670344 0.617561343 0.793649556
      vertex 5.20160392 0.627614835 0.686895745
      vertex 5.20119867 0.626538043 0.686410729
    endloop
  endfacet
  facet normal -0.696634861 -0.0598446666 0.714925511
    outer loop
      vertex 5.09891411 0.616522155 0.795716683
      vertex 5.09710869 0.618638135 0.794134572
      vertex 5.09670344 0.617561343 0.793649556
    endloop
  endfacet
  facet normal 0.696634861 0.0598446666 -0.714925511
    outer loop
      vertex 5.20340934 0.625498855 0.688477856
      vertex 5.20119867 0.626538043 0.686410729
      vertex 5.20160392 0.627614835 0.686895745
    endloop
  endfacet
  facet normal -0.466899398 0.794422824 -0.388455054
    outer loop
      vertex 5.09710869 0.618638135 0.794134572
      vertex 5.0977888 0.619392787 0.794860451
      vertex 5.20228403 0.628369487 0.687621624
    endloop
  endfacet
  facet normal -0.466899398 0.794422824 -0.388455054
    outer loop
      vertex 5.09710869 0.618638135 0.794134572
      vertex 5.20228403 0.628369487 0.687621624
      vertex 5.20160392 0.627614835 0.686895745
    endloop
  endfacet
  facet normal -0.696634861 -0.0598446666 0.714925511
    outer loop
      vertex 5.09891411 0.616522155 0.795716683
      vertex 5.0977888 0.619392787 0.794860451
      vertex 5.09710869 0.618638135 0.794134572
    endloop
  endfacet
  facet normal 0.696634861 0.0598446666 -0.714925511
    outer loop
      vertex 5.20340934 0.625498855 0.688477856
      vertex 5.20160392 0.627614835 0.686895745
      vertex 5.20228403 0.628369487 0.687621624
    endloop
  endfacet
  facet normal -0.222908767 0.965248536 -0.136407275
    outer loop
      vertex 5.0977888 0.619392787 0.794860451
      vertex 5.09864022 0.619710412 0.795716683
      vertex 5.20313545 0.628687112 0.688477856
    endloop
  endfacet
  facet normal -0.222908767 0.965248536 -0.136407275
    outer loop
      vertex 5.0977888 0.619392787 0.794860451
      vertex 5.20313545 0.628687112 0.688477856
      vertex 5.20228403 0.628369487 0.687621624
    endloop
  endfacet
  facet normal -0.696634861 -0.0598446666 0.714925511
    outer loop
      vertex 5.09891411 0.616522155 0.795716683
      vertex 5.09864022 0.619710412 0.795716683
      vertex 5.0977888 0.619392787 0.794860451
    endloop
  endfacet
  facet normal 0.696634861 0.0598446666 -0.714925511
    outer loop
      vertex 5.20340934 0.625498855 0.688477856
      vertex 5.20228403 0.628369487 0.687621624
      vertex 5.20313545 0.628687112 0.688477856
    endloop
  endfacet
  facet normal 0.0550177035 0.989123909 0.136407275
    outer loop
      vertex 5.09864022 0.619710412 0.795716683
      vertex 5.09953335 0.619542654 0.796572915
      vertex 5.20402858 0.628519354 0.689334088
    endloop
  endfacet
  facet normal 0.0550177035 0.989123909 0.136407275
    outer loop
      vertex 5.09864022 0.619710412 0.795716683
      vertex 5.20402858 0.628519354 0.689334088
      vertex 5.20313545 0.628687112 0.688477856
    endloop
  endfacet
  facet normal -0.696634861 -0.0598446666 0.714925511
    outer loop
      vertex 5.09891411 0.616522155 0.795716683
      vertex 5.09953335 0.619542654 0.796572915
      vertex 5.09864022 0.619710412 0.795716683
    endloop
  endfacet
  facet normal 0.696634861 0.0598446666 -0.714925511
    outer loop
      vertex 5.20340934 0.625498855 0.688477856
      vertex 5.20313545 0.628687112 0.688477856
      vertex 5.20402858 0.628519354 0.689334088
    endloop
  endfacet
  facet normal 0.324568227 0.862414133 0.388455054
    outer loop
      vertex 5.09953335 0.619542654 0.796572915
      vertex 5.1003322 0.618915051 0.797298793
      vertex 5.20482743 0.627891751 0.690059966
    endloop
  endfacet
  facet normal 0.324568227 0.862414133 0.388455054
    outer loop
      vertex 5.09953335 0.619542654 0.796572915
      vertex 5.20482743 0.627891751 0.690059966
      vertex 5.20402858 0.628519354 0.689334088
    endloop
  endfacet
  facet normal -0.696634861 -0.0598446666 0.714925511
    outer loop
      vertex 5.09891411 0.616522155 0.795716683
      vertex 5.1003322 0.618915051 0.797298793
      vertex 5.09953335 0.619542654 0.796572915
    endloop
  endfacet
  facet normal 0.696634861 0.0598446666 -0.714925511
    outer loop
      vertex 5.20340934 0.625498855 0.688477856
      vertex 5.20402858 0.628519354 0.689334088
      vertex 5.20482743 0.627891751 0.690059966
    endloop
  endfacet
  facet normal 0.54470618 0.604409623 0.581364072
    outer loop
      vertex 5.1003322 0.618915051 0.797298793
      vertex 5.10091516 0.617923153 0.797783809
      vertex 5.20541039 0.626899853 0.690544983
    endloop
  endfacet
  facet normal 0.54470618 0.604409623 0.581364072
    outer loop
      vertex 5.1003322 0.618915051 0.797298793
      vertex 5.20541039 0.626899853 0.690544983
      vertex 5.20482743 0.627891751 0.690059966
    endloop
  endfacet
  facet normal -0.696634861 -0.0598446666 0.714925511
    outer loop
      vertex 5.09891411 0.616522155 0.795716683
      vertex 5.10091516 0.617923153 0.797783809
      vertex 5.1003322 0.618915051 0.797298793
    endloop
  endfacet
  facet normal 0.696634861 0.0598446666 -0.714925511
    outer loop
      vertex 5.20340934 0.625498855 0.688477856
      vertex 5.20482743 0.627891751 0.690059966
      vertex 5.20541039 0.626899853 0.690544983
    endloop
  endfacet
  facet normal 0.681917556 0.254389227 0.68576568
    outer loop
      vertex 5.10091516 0.617923153 0.797783809
      vertex 5.10119348 0.616717964 0.797954125
      vertex 5.20568871 0.625694664 0.690715298
    endloop
  endfacet
  facet normal 0.681917556 0.254389227 0.68576568
    outer loop
      vertex 5.10091516 0.617923153 0.797783809
      vertex 5.20568871 0.625694664 0.690715298
      vertex 5.20541039 0.626899853 0.690544983
    endloop
  endfacet
  facet normal -0.696634861 -0.0598446666 0.714925511
    outer loop
      vertex 5.09891411 0.616522155 0.795716683
      vertex 5.10119348 0.616717964 0.797954125
      vertex 5.10091516 0.617923153 0.797783809
    endloop
  endfacet
  facet normal 0.696634861 0.0598446666 -0.714925511
    outer loop
      vertex 5.20340934 0.625498855 0.688477856
      vertex 5.20541039 0.626899853 0.690544983
      vertex 5.20568871 0.625694664 0.690715298
    endloop
  endfacet
  facet normal 0.715313164 -0.134359623 0.68576568
    outer loop
      vertex 5.10119348 0.616717964 0.797954125
      vertex 5.10112478 0.615482966 0.797783809
      vertex 5.20562001 0.624459666 0.690544983
    endloop
  endfacet
  facet normal 0.715313164 -0.134359623 0.68576568
    outer loop
      vertex 5.10119348 0.616717964 0.797954125
      vertex 5.20562001 0.624459666 0.690544983
      vertex 5.20568871 0.625694664 0.690715298
    endloop
  endfacet
  facet normal -0.696634861 -0.0598446666 0.714925511
    outer loop
      vertex 5.09891411 0.616522155 0.795716683
      vertex 5.10112478 0.615482966 0.797783809
      vertex 5.10119348 0.616717964 0.797954125
    endloop
  endfacet
  facet normal 0.696634861 0.0598446666 -0.714925511
    outer loop
      vertex 5.20340934 0.625498855 0.688477856
      vertex 5.20568871 0.625694664 0.690715298
      vertex 5.20562001 0.624459666 0.690544983
    endloop
  endfacet
  facet normal 0.639808828 -0.502653438 0.581364072
    outer loop
      vertex 5.10112478 0.615482966 0.797783809
      vertex 5.10071954 0.614406175 0.797298793
      vertex 5.20521476 0.623382875 0.690059966
    endloop
  endfacet
  facet normal 0.639808828 -0.502653438 0.581364072
    outer loop
      vertex 5.10112478 0.615482966 0.797783809
      vertex 5.20521476 0.623382875 0.690059966
      vertex 5.20562001 0.624459666 0.690544983
    endloop
  endfacet
  facet normal -0.696634861 -0.0598446666 0.714925511
    outer loop
      vertex 5.09891411 0.616522155 0.795716683
      vertex 5.10071954 0.614406175 0.797298793
      vertex 5.10112478 0.615482966 0.797783809
    endloop
  endfacet
  facet normal 0.696634861 0.0598446666 -0.714925511
    outer loop
      vertex 5.20340934 0.625498855 0.688477856
      vertex 5.20562001 0.624459666 0.690544983
      vertex 5.20521476 0.623382875 0.690059966
    endloop
  endfacet
  facet normal 0.466899398 -0.794422824 0.388455054
    outer loop
      vertex 5.10071954 0.614406175 0.797298793
      vertex 5.10003943 0.613651522 0.796572915
      vertex 5.20453466 0.622628222 0.689334088
    endloop
  endfacet
  facet normal 0.466899398 -0.794422824 0.388455054
    outer loop
      vertex 5.10071954 0.614406175 0.797298793
      vertex 5.20453466 0.622628222 0.689334088
      vertex 5.20521476 0.623382875 0.690059966
    endloop
  endfacet
  facet normal -0.696634861 -0.0598446666 0.714925511
    outer loop
      vertex 5.09891411 0.616522155 0.795716683
      vertex 5.10003943 0.613651522 0.796572915
      vertex 5.10071954 0.614406175 0.797298793
    endloop
  endfacet
  facet normal 0.696634861 0.0598446666 -0.714925511
    outer loop
      vertex 5.20340934 0.625498855 0.688477856
      vertex 5.20521476 0.623382875 0.690059966
      vertex 5.20453466 0.622628222 0.689334088
    endloop
  endfacet
  facet normal 0.222908767 -0.965248536 0.136407275
    outer loop
      vertex 5.10003943 0.613651522 0.796572915
      vertex 5.099188 0.613333897 0.795716683
      vertex 5.20368323 0.622310597 0.688477856
    endloop
  endfacet
  facet normal 0.222908767 -0.965248536 0.136407275
    outer loop
      vertex 5.10003943 0.613651522 0.796572915
      vertex 5.20368323 0.622310597 0.688477856
      vertex 5.20453466 0.622628222 0.689334088
    endloop
  endfacet
  facet normal -0.696634861 -0.0598446666 0.714925511
    outer loop
      vertex 5.09891411 0.616522155 0.795716683
      vertex 5.099188 0.613333897 0.795716683
      vertex 5.10003943 0.613651522 0.796572915
    endloop
  endfacet
  facet normal 0.696634861 0.0598446666 -0.714925511
    outer loop
      vertex 5.20340934 0.625498855 0.688477856
      vertex 5.20453466 0.622628222 0.689334088
      vertex 5.20368323 0.622310597 0.688477856
    endloop
  endfacet
  facet normal -0.0550177035 -0.989123909 -0.136407275
    outer loop
      vertex 5.077775 0.612052683 0.77474427
      vertex 5.07688188 0.612220441 0.773888038
      vertex 5.18137711 0.621197141 0.666649211
    endloop
  endfacet
  facet normal -0.0550177035 -0.989123909 -0.136407275
    outer loop
      vertex 5.077775 0.612052683 0.77474427
      vertex 5.18137711 0.621197141 0.666649211
      vertex 5.18227023 0.621029383 0.667505443
    endloop
  endfacet
  facet normal -0.696634861 -0.0598446666 0.714925511
    outer loop
      vertex 5.07750112 0.61524094 0.77474427
      vertex 5.07688188 0.612220441 0.773888038
      vertex 5.077775 0.612052683 0.77474427
    endloop
  endfacet
  facet normal 0.696634861 0.0598446666 -0.714925511
    outer loop
      vertex 5.18199635 0.62421764 0.667505443
      vertex 5.18227023 0.621029383 0.667505443
      vertex 5.18137711 0.621197141 0.666649211
    endloop
  endfacet
  facet normal -0.324568227 -0.862414133 -0.388455054
    outer loop
      vertex 5.07688188 0.612220441 0.773888038
      vertex 5.07608303 0.612848043 0.773162159
      vertex 5.18057826 0.621824743 0.665923332
    endloop
  endfacet
  facet normal -0.324568227 -0.862414133 -0.388455054
    outer loop
      vertex 5.07688188 0.612220441 0.773888038
      vertex 5.18057826 0.621824743 0.665923332
      vertex 5.18137711 0.621197141 0.666649211
    endloop
  endfacet
  facet normal -0.696634861 -0.0598446666 0.714925511
    outer loop
      vertex 5.07750112 0.61524094 0.77474427
      vertex 5.07608303 0.612848043 0.773162159
      vertex 5.07688188 0.612220441 0.773888038
    endloop
  endfacet
  facet normal 0.696634861 0.0598446666 -0.714925511
    outer loop
      vertex 5.18199635 0.62421764 0.667505443
      vertex 5.18137711 0.621197141 0.666649211
      vertex 5.18057826 0.621824743 0.665923332
    endloop
  endfacet
  facet normal -0.54470618 -0.604409623 -0.581364072
    outer loop
      vertex 5.07608303 0.612848043 0.773162159
      vertex 5.07550007 0.613839942 0.772677143
      vertex 5.1799953 0.622816642 0.665438316
    endloop
  endfacet
  facet normal -0.54470618 -0.604409623 -0.581364072
    outer loop
      vertex 5.07608303 0.612848043 0.773162159
      vertex 5.1799953 0.622816642 0.665438316
      vertex 5.18057826 0.621824743 0.665923332
    endloop
  endfacet
  facet normal -0.696634861 -0.0598446666 0.714925511
    outer loop
      vertex 5.07750112 0.61524094 0.77474427
      vertex 5.07550007 0.613839942 0.772677143
      vertex 5.07608303 0.612848043 0.773162159
    endloop
  endfacet
  facet normal 0.696634861 0.0598446666 -0.714925511
    outer loop
      vertex 5.18199635 0.62421764 0.667505443
      vertex 5.18057826 0.621824743 0.665923332
      vertex 5.1799953 0.622816642 0.665438316
    endloop
  endfacet
  facet normal -0.681917556 -0.254389227 -0.68576568
    outer loop
      vertex 5.07550007 0.613839942 0.772677143
      vertex 5.07522175 0.61504513 0.772506828
      vertex 5.17971698 0.62402183 0.665268001
    endloop
  endfacet
  facet normal -0.681917556 -0.254389227 -0.68576568
    outer loop
      vertex 5.07550007 0.613839942 0.772677143
      vertex 5.17971698 0.62402183 0.665268001
      vertex 5.1799953 0.622816642 0.665438316
    endloop
  endfacet
  facet normal -0.696634861 -0.0598446666 0.714925511
    outer loop
      vertex 5.07750112 0.61524094 0.77474427
      vertex 5.07522175 0.61504513 0.772506828
      vertex 5.07550007 0.613839942 0.772677143
    endloop
  endfacet
  facet normal 0.696634861 0.0598446666 -0.714925511
    outer loop
      vertex 5.18199635 0.62421764 0.667505443
      vertex 5.1799953 0.622816642 0.665438316
      vertex 5.17971698 0.62402183 0.665268001
    endloop
  endfacet
  facet normal -0.715313164 0.134359623 -0.68576568
    outer loop
      vertex 5.07522175 0.61504513 0.772506828
      vertex 5.07529044 0.616280129 0.772677143
      vertex 5.17978567 0.625256829 0.665438316
    endloop
  endfacet
  facet normal -0.715313164 0.134359623 -0.68576568
    outer loop
      vertex 5.07522175 0.61504513 0.772506828
      vertex 5.17978567 0.625256829 0.665438316
      vertex 5.17971698 0.62402183 0.665268001
    endloop
  endfacet
  facet normal -0.696634861 -0.0598446666 0.714925511
    outer loop
      vertex 5.07750112 0.61524094 0.77474427
      vertex 5.07529044 0.616280129 0.772677143
      vertex 5.07522175 0.61504513 0.772506828
    endloop
  endfacet
  facet normal 0.696634861 0.0598446666 -0.714925511
    outer loop
      vertex 5.18199635 0.62421764 0.667505443
      vertex 5.17971698 0.62402183 0.665268001
      vertex 5.17978567 0.625256829 0.665438316
    endloop
  endfacet
  facet normal -0.639808828 0.502653438 -0.581364072
    outer loop
      vertex 5.07529044 0.616280129 0.772677143
      vertex 5.07569569 0.61735692 0.773162159
      vertex 5.18019092 0.62633362 0.665923332
    endloop
  endfacet
  facet normal -0.639808828 0.502653438 -0.581364072
    outer loop
      vertex 5.07529044 0.616280129 0.772677143
      vertex 5.18019092 0.62633362 0.665923332
      vertex 5.17978567 0.625256829 0.665438316
    endloop
  endfacet
  facet normal -0.696634861 -0.0598446666 0.714925511
    outer loop
      vertex 5.07750112 0.61524094 0.77474427
      vertex 5.07569569 0.61735692 0.773162159
      vertex 5.07529044 0.616280129 0.772677143
    endloop
  endfacet
  facet normal 0.696634861 0.0598446666 -0.714925511
    outer loop
      vertex 5.18199635 0.62421764 0.667505443
      vertex 5.17978567 0.625256829 0.665438316
      vertex 5.18019092 0.62633362 0.665923332
    endloop
  endfacet
  facet normal -0.466899398 0.794422824 -0.388455054
    outer loop
      vertex 5.07569569 0.61735692 0.773162159
      vertex 5.0763758 0.618111573 0.773888038
      vertex 5.18087103 0.627088273 0.666649211
    endloop
  endfacet
  facet normal -0.466899398 0.794422824 -0.388455054
    outer loop
      vertex 5.07569569 0.61735692 0.773162159
      vertex 5.18087103 0.627088273 0.666649211
      vertex 5.18019092 0.62633362 0.665923332
    endloop
  endfacet
  facet normal -0.696634861 -0.0598446666 0.714925511
    outer loop
      vertex 5.07750112 0.61524094 0.77474427
      vertex 5.0763758 0.618111573 0.773888038
      vertex 5.07569569 0.61735692 0.773162159
    endloop
  endfacet
  facet normal 0.696634861 0.0598446666 -0.714925511
    outer loop
      vertex 5.18199635 0.62421764 0.667505443
      vertex 5.18019092 0.62633362 0.665923332
      vertex 5.18087103 0.627088273 0.666649211
    endloop
  endfacet
  facet normal -0.222908767 0.965248536 -0.136407275
    outer loop
      vertex 5.0763758 0.618111573 0.773888038
      vertex 5.07722723 0.618429198 0.77474427
      vertex 5.18172246 0.627405898 0.667505443
    endloop
  endfacet
  facet normal -0.222908767 0.965248536 -0.136407275
    outer loop
      vertex 5.0763758 0.618111573 0.773888038
      vertex 5.18172246 0.627405898 0.667505443
      vertex 5.18087103 0.627088273 0.666649211
    endloop
  endfacet
  facet normal -0.696634861 -0.0598446666 0.714925511
    outer loop
      vertex 5.07750112 0.61524094 0.77474427
      vertex 5.07722723 0.618429198 0.77474427
      vertex 5.0763758 0.618111573 0.773888038
    endloop
  endfacet
  facet normal 0.696634861 0.0598446666 -0.714925511
    outer loop
      vertex 5.18199635 0.62421764 0.667505443
      vertex 5.18087103 0.627088273 0.666649211
      vertex 5.18172246 0.627405898 0.667505443
    endloop
  endfacet
  facet normal 0.0550177035 0.989123909 0.136407275
    outer loop
      vertex 5.07722723 0.618429198 0.77474427
      vertex 5.07812035 0.618261439 0.775600502
      vertex 5.18261558 0.627238139 0.668361675
    endloop
  endfacet
  facet normal 0.0550177035 0.989123909 0.136407275
    outer loop
      vertex 5.07722723 0.618429198 0.77474427
      vertex 5.18261558 0.627238139 0.668361675
      vertex 5.18172246 0.627405898 0.667505443
    endloop
  endfacet
  facet normal -0.696634861 -0.0598446666 0.714925511
    outer loop
      vertex 5.07750112 0.61524094 0.77474427
      vertex 5.07812035 0.618261439 0.775600502
      vertex 5.07722723 0.618429198 0.77474427
    endloop
  endfacet
  facet normal 0.696634861 0.0598446666 -0.714925511
    outer loop
      vertex 5.18199635 0.62421764 0.667505443
      vertex 5.18172246 0.627405898 0.667505443
      vertex 5.18261558 0.627238139 0.668361675
    endloop
  endfacet
  facet normal 0.324568227 0.862414133 0.388455054
    outer loop
      vertex 5.07812035 0.618261439 0.775600502
      vertex 5.0789192 0.617633837 0.77632638
      vertex 5.18341443 0.626610537 0.669087553
    endloop
  endfacet
  facet normal 0.324568227 0.862414133 0.388455054
    outer loop
      vertex 5.07812035 0.618261439 0.775600502
      vertex 5.18341443 0.626610537 0.669087553
      vertex 5.18261558 0.627238139 0.668361675
    endloop
  endfacet
  facet normal -0.696634861 -0.0598446666 0.714925511
    outer loop
      vertex 5.07750112 0.61524094 0.77474427
      vertex 5.0789192 0.617633837 0.77632638
      vertex 5.07812035 0.618261439 0.775600502
    endloop
  endfacet
  facet normal 0.696634861 0.0598446666 -0.714925511
    outer loop
      vertex 5.18199635 0.62421764 0.667505443
      vertex 5.18261558 0.627238139 0.668361675
      vertex 5.18341443 0.626610537 0.669087553
    endloop
  endfacet
  facet normal 0.54470618 0.604409623 0.581364072
    outer loop
      vertex 5.0789192 0.617633837 0.77632638
      vertex 5.07950216 0.616641938 0.776811396
      vertex 5.18399739 0.625618638 0.66957257
    endloop
  endfacet
  facet normal 0.54470618 0.604409623 0.581364072
    outer loop
      vertex 5.0789192 0.617633837 0.77632638
      vertex 5.18399739 0.625618638 0.66957257
      vertex 5.18341443 0.626610537 0.669087553
    endloop
  endfacet
  facet normal -0.696634861 -0.0598446666 0.714925511
    outer loop
      vertex 5.07750112 0.61524094 0.77474427
      vertex 5.07950216 0.616641938 0.776811396
      vertex 5.0789192 0.617633837 0.77632638
    endloop
  endfacet
  facet normal 0.696634861 0.0598446666 -0.714925511
    outer loop
      vertex 5.18199635 0.62421764 0.667505443
      vertex 5.18341443 0.626610537 0.669087553
      vertex 5.18399739 0.625618638 0.66957257
    endloop
  endfacet
  facet normal 0.681917556 0.254389227 0.68576568
    outer loop
      vertex 5.07950216 0.616641938 0.776811396
      vertex 5.07978048 0.61543675 0.776981712
      vertex 5.18427571 0.62441345 0.669742885
    endloop
  endfacet
  facet normal 0.681917556 0.254389227 0.68576568
    outer loop
      vertex 5.07950216 0.616641938 0.776811396
      vertex 5.18427571 0.62441345 0.669742885
      vertex 5.18399739 0.625618638 0.66957257
    endloop
  endfacet
  facet normal -0.696634861 -0.0598446666 0.714925511
    outer loop
      vertex 5.07750112 0.61524094 0.77474427
      vertex 5.07978048 0.61543675 0.776981712
      vertex 5.07950216 0.616641938 0.776811396
    endloop
  endfacet
  facet normal 0.696634861 0.0598446666 -0.714925511
    outer loop
      vertex 5.18199635 0.62421764 0.667505443
      vertex 5.18399739 0.625618638 0.66957257
      vertex 5.18427571 0.62441345 0.669742885
    endloop
  endfacet
  facet normal 0.715313164 -0.134359623 0.68576568
    outer loop
      vertex 5.07978048 0.61543675 0.776981712
      vertex 5.07971179 0.614201752 0.776811396
      vertex 5.18420702 0.623178452 0.66957257
    endloop
  endfacet
  facet normal 0.715313164 -0.134359623 0.68576568
    outer loop
      vertex 5.07978048 0.61543675 0.776981712
      vertex 5.18420702 0.623178452 0.66957257
      vertex 5.18427571 0.62441345 0.669742885
    endloop
  endfacet
  facet normal -0.696634861 -0.0598446666 0.714925511
    outer loop
      vertex 5.07750112 0.61524094 0.77474427
      vertex 5.07971179 0.614201752 0.776811396
      vertex 5.07978048 0.61543675 0.776981712
    endloop
  endfacet
  facet normal 0.696634861 0.0598446666 -0.714925511
    outer loop
      vertex 5.18199635 0.62421764 0.667505443
      vertex 5.18427571 0.62441345 0.669742885
      vertex 5.18420702 0.623178452 0.66957257
    endloop
  endfacet
  facet normal 0.639808828 -0.502653438 0.581364072
    outer loop
      vertex 5.07971179 0.614201752 0.776811396
      vertex 5.07930654 0.61312496 0.77632638
      vertex 5.18380177 0.62210166 0.669087553
    endloop
  endfacet
  facet normal 0.639808828 -0.502653438 0.581364072
    outer loop
      vertex 5.07971179 0.614201752 0.776811396
      vertex 5.18380177 0.62210166 0.669087553
      vertex 5.18420702 0.623178452 0.66957257
    endloop
  endfacet
  facet normal -0.696634861 -0.0598446666 0.714925511
    outer loop
      vertex 5.07750112 0.61524094 0.77474427
      vertex 5.07930654 0.61312496 0.77632638
      vertex 5.07971179 0.614201752 0.776811396
    endloop
  endfacet
  facet normal 0.696634861 0.0598446666 -0.714925511
    outer loop
      vertex 5.18199635 0.62421764 0.667505443
      vertex 5.18420702 0.623178452 0.66957257
      vertex 5.18380177 0.62210166 0.669087553
    endloop
  endfacet
  facet normal 0.466899398 -0.794422824 0.388455054
    outer loop
      vertex 5.07930654 0.61312496 0.77632638
      vertex 5.07862643 0.612370308 0.775600502
      vertex 5.18312166 0.621347008 0.668361675
    endloop
  endfacet
  facet normal 0.466899398 -0.794422824 0.388455054
    outer loop
      vertex 5.07930654 0.61312496 0.77632638
      vertex 5.18312166 0.621347008 0.668361675
      vertex 5.18380177 0.62210166 0.669087553
    endloop
  endfacet
  facet normal -0.696634861 -0.0598446666 0.714925511
    outer loop
      vertex 5.07750112 0.61524094 0.77474427
      vertex 5.07862643 0.612370308 0.775600502
      vertex 5.07930654 0.61312496 0.77632638
    endloop
  endfacet
  facet normal 0.696634861 0.0598446666 -0.714925511
    outer loop
      vertex 5.18199635 0.62421764 0.667505443
      vertex 5.18380177 0.62210166 0.669087553
      vertex 5.18312166 0.621347008 0.668361675
    endloop
  endfacet
  facet normal 0.222908767 -0.965248536 0.136407275
    outer loop
      vertex 5.07862643 0.612370308 0.775600502
      vertex 5.077775 0.612052683 0.77474427
      vertex 5.18227023 0.621029383 0.667505443
    endloop
  endfacet
  facet normal 0.222908767 -0.965248536 0.136407275
    outer loop
      vertex 5.07862643 0.612370308 0.775600502
      vertex 5.18227023 0.621029383 0.667505443
      vertex 5.18312166 0.621347008 0.668361675
    endloop
  endfacet
  facet normal -0.696634861 -0.0598446666 0.714925511
    outer loop
      vertex 5.07750112 0.61524094 0.77474427
      vertex 5.077775 0.612052683 0.77474427
      vertex 5.07862643 0.612370308 0.775600502
    endloop
  endfacet
  facet normal 0.696634861 0.0598446666 -0.714925511
    outer loop
      vertex 5.18199635 0.62421764 0.667505443
      vertex 5.18312166 0.621347008 0.668361675
      vertex 5.18227023 0.621029383 0.667505443
    endloop
  endfacet
  facet normal 0.192137728 -0.971462984 -0.139078268
    outer loop
      vertex 5.18302978 0.464065693 0.634142672
      vertex 5.18387338 0.464357523 0.633269674
      vertex 5.25504813 0.468394893 0.70339709
    endloop
  endfacet
  facet normal 0.192137728 -0.971462984 -0.139078268
    outer loop
      vertex 5.18302978 0.464065693 0.634142672
      vertex 5.25504813 0.468394893 0.70339709
      vertex 5.25420453 0.468103063 0.704270088
    endloop
  endfacet
  facet normal -0.711747506 -0.0403736981 -0.701274163
    outer loop
      vertex 5.18284855 0.467260557 0.634142672
      vertex 5.18387338 0.464357523 0.633269674
      vertex 5.18302978 0.464065693 0.634142672
    endloop
  endfacet
  facet normal 0.711747506 0.0403736981 0.701274163
    outer loop
      vertex 5.2540233 0.471297927 0.704270088
      vertex 5.25420453 0.468103063 0.704270088
      vertex 5.25504813 0.468394893 0.70339709
    endloop
  endfacet
  facet normal 0.436070946 -0.808070232 -0.396061397
    outer loop
      vertex 5.18387338 0.464357523 0.633269674
      vertex 5.18456095 0.465091314 0.632529582
      vertex 5.2557357 0.469128684 0.702656998
    endloop
  endfacet
  facet normal 0.436070946 -0.808070232 -0.396061397
    outer loop
      vertex 5.18387338 0.464357523 0.633269674
      vertex 5.2557357 0.469128684 0.702656998
      vertex 5.25504813 0.468394893 0.70339709
    endloop
  endfacet
  facet normal -0.711747506 -0.0403736981 -0.701274163
    outer loop
      vertex 5.18284855 0.467260557 0.634142672
      vertex 5.18456095 0.465091314 0.632529582
      vertex 5.18387338 0.464357523 0.633269674
    endloop
  endfacet
  facet normal 0.711747506 0.0403736981 0.701274163
    outer loop
      vertex 5.2540233 0.471297927 0.704270088
      vertex 5.25504813 0.468394893 0.70339709
      vertex 5.2557357 0.469128684 0.702656998
    endloop
  endfacet
  facet normal 0.613616315 -0.521656112 -0.592747769
    outer loop
      vertex 5.18456095 0.465091314 0.632529582
      vertex 5.18498783 0.466155352 0.632035068
      vertex 5.25616258 0.470192722 0.702162485
    endloop
  endfacet
  facet normal 0.613616315 -0.521656112 -0.592747769
    outer loop
      vertex 5.18456095 0.465091314 0.632529582
      vertex 5.25616258 0.470192722 0.702162485
      vertex 5.2557357 0.469128684 0.702656998
    endloop
  endfacet
  facet normal -0.711747506 -0.0403736981 -0.701274163
    outer loop
      vertex 5.18284855 0.467260557 0.634142672
      vertex 5.18498783 0.466155352 0.632035068
      vertex 5.18456095 0.465091314 0.632529582
    endloop
  endfacet
  facet normal 0.711747506 0.0403736981 0.701274163
    outer loop
      vertex 5.2540233 0.471297927 0.704270088
      vertex 5.2557357 0.469128684 0.702656998
      vertex 5.25616258 0.470192722 0.702162485
    endloop
  endfacet
  facet normal 0.697744163 -0.155824579 -0.699193667
    outer loop
      vertex 5.18498783 0.466155352 0.632035068
      vertex 5.18508903 0.467387648 0.631861418
      vertex 5.25626378 0.471425018 0.701988835
    endloop
  endfacet
  facet normal 0.697744163 -0.155824579 -0.699193667
    outer loop
      vertex 5.18498783 0.466155352 0.632035068
      vertex 5.25626378 0.471425018 0.701988835
      vertex 5.25616258 0.470192722 0.702162485
    endloop
  endfacet
  facet normal -0.711747506 -0.0403736981 -0.701274163
    outer loop
      vertex 5.18284855 0.467260557 0.634142672
      vertex 5.18508903 0.467387648 0.631861418
      vertex 5.18498783 0.466155352 0.632035068
    endloop
  endfacet
  facet normal 0.711747506 0.0403736981 0.701274163
    outer loop
      vertex 5.2540233 0.471297927 0.704270088
      vertex 5.25616258 0.470192722 0.702162485
      vertex 5.25626378 0.471425018 0.701988835
    endloop
  endfacet
  facet normal 0.675646787 0.233729835 -0.699193667
    outer loop
      vertex 5.18508903 0.467387648 0.631861418
      vertex 5.18484913 0.468600595 0.632035068
      vertex 5.25602388 0.472637965 0.702162485
    endloop
  endfacet
  facet normal 0.675646787 0.233729835 -0.699193667
    outer loop
      vertex 5.18508903 0.467387648 0.631861418
      vertex 5.25602388 0.472637965 0.702162485
      vertex 5.25626378 0.471425018 0.701988835
    endloop
  endfacet
  facet normal -0.711747506 -0.0403736981 -0.701274163
    outer loop
      vertex 5.18284855 0.467260557 0.634142672
      vertex 5.18484913 0.468600595 0.632035068
      vertex 5.18508903 0.467387648 0.631861418
    endloop
  endfacet
  facet normal 0.711747506 0.0403736981 0.701274163
    outer loop
      vertex 5.2540233 0.471297927 0.704270088
      vertex 5.25626378 0.471425018 0.701988835
      vertex 5.25602388 0.472637965 0.702162485
    endloop
  endfacet
  facet normal 0.550688312 0.587700999 -0.592747769
    outer loop
      vertex 5.18484913 0.468600595 0.632035068
      vertex 5.18430466 0.469609534 0.632529582
      vertex 5.25547941 0.473646904 0.702656998
    endloop
  endfacet
  facet normal 0.550688312 0.587700999 -0.592747769
    outer loop
      vertex 5.18484913 0.468600595 0.632035068
      vertex 5.25547941 0.473646904 0.702656998
      vertex 5.25602388 0.472637965 0.702162485
    endloop
  endfacet
  facet normal -0.711747506 -0.0403736981 -0.701274163
    outer loop
      vertex 5.18284855 0.467260557 0.634142672
      vertex 5.18430466 0.469609534 0.632529582
      vertex 5.18484913 0.468600595 0.632035068
    endloop
  endfacet
  facet normal 0.711747506 0.0403736981 0.701274163
    outer loop
      vertex 5.2540233 0.471297927 0.704270088
      vertex 5.25602388 0.472637965 0.702162485
      vertex 5.25547941 0.473646904 0.702656998
    endloop
  endfacet
  facet normal 0.341892534 0.852200015 -0.396061397
    outer loop
      vertex 5.18430466 0.469609534 0.632529582
      vertex 5.18353851 0.470260862 0.633269674
      vertex 5.25471326 0.474298232 0.70339709
    endloop
  endfacet
  facet normal 0.341892534 0.852200015 -0.396061397
    outer loop
      vertex 5.18430466 0.469609534 0.632529582
      vertex 5.25471326 0.474298232 0.70339709
      vertex 5.25547941 0.473646904 0.702656998
    endloop
  endfacet
  facet normal -0.711747506 -0.0403736981 -0.701274163
    outer loop
      vertex 5.18284855 0.467260557 0.634142672
      vertex 5.18353851 0.470260862 0.633269674
      vertex 5.18430466 0.469609534 0.632529582
    endloop
  endfacet
  facet normal 0.711747506 0.0403736981 0.701274163
    outer loop
      vertex 5.2540233 0.471297927 0.704270088
      vertex 5.25547941 0.473646904 0.702656998
      vertex 5.25471326 0.474298232 0.70339709
    endloop
  endfacet
  facet normal 0.081046717 0.986959303 -0.139078268
    outer loop
      vertex 5.18353851 0.470260862 0.633269674
      vertex 5.18266732 0.470455421 0.634142672
      vertex 5.25384207 0.474492791 0.704270088
    endloop
  endfacet
  facet normal 0.081046717 0.986959303 -0.139078268
    outer loop
      vertex 5.18353851 0.470260862 0.633269674
      vertex 5.25384207 0.474492791 0.704270088
      vertex 5.25471326 0.474298232 0.70339709
    endloop
  endfacet
  facet normal -0.711747506 -0.0403736981 -0.701274163
    outer loop
      vertex 5.18284855 0.467260557 0.634142672
      vertex 5.18266732 0.470455421 0.634142672
      vertex 5.18353851 0.470260862 0.633269674
    endloop
  endfacet
  facet normal 0.711747506 0.0403736981 0.701274163
    outer loop
      vertex 5.2540233 0.471297927 0.704270088
      vertex 5.25471326 0.474298232 0.70339709
      vertex 5.25384207 0.474492791 0.704270088
    endloop
  endfacet
  facet normal -0.192137728 0.971462984 0.139078268
    outer loop
      vertex 5.18266732 0.470455421 0.634142672
      vertex 5.18182373 0.470163591 0.635015669
      vertex 5.25299848 0.474200961 0.705143086
    endloop
  endfacet
  facet normal -0.192137728 0.971462984 0.139078268
    outer loop
      vertex 5.18266732 0.470455421 0.634142672
      vertex 5.25299848 0.474200961 0.705143086
      vertex 5.25384207 0.474492791 0.704270088
    endloop
  endfacet
  facet normal -0.711747506 -0.0403736981 -0.701274163
    outer loop
      vertex 5.18284855 0.467260557 0.634142672
      vertex 5.18182373 0.470163591 0.635015669
      vertex 5.18266732 0.470455421 0.634142672
    endloop
  endfacet
  facet normal 0.711747506 0.0403736981 0.701274163
    outer loop
      vertex 5.2540233 0.471297927 0.704270088
      vertex 5.25384207 0.474492791 0.704270088
      vertex 5.25299848 0.474200961 0.705143086
    endloop
  endfacet
  facet normal -0.436070946 0.808070232 0.396061397
    outer loop
      vertex 5.18182373 0.470163591 0.635015669
      vertex 5.18113615 0.469429801 0.635755761
      vertex 5.2523109 0.473467171 0.705883178
    endloop
  endfacet
  facet normal -0.436070946 0.808070232 0.396061397
    outer loop
      vertex 5.18182373 0.470163591 0.635015669
      vertex 5.2523109 0.473467171 0.705883178
      vertex 5.25299848 0.474200961 0.705143086
    endloop
  endfacet
  facet normal -0.711747506 -0.0403736981 -0.701274163
    outer loop
      vertex 5.18284855 0.467260557 0.634142672
      vertex 5.18113615 0.469429801 0.635755761
      vertex 5.18182373 0.470163591 0.635015669
    endloop
  endfacet
  facet normal 0.711747506 0.0403736981 0.701274163
    outer loop
      vertex 5.2540233 0.471297927 0.704270088
      vertex 5.25299848 0.474200961 0.705143086
      vertex 5.2523109 0.473467171 0.705883178
    endloop
  endfacet
  facet normal -0.613616315 0.521656112 0.592747769
    outer loop
      vertex 5.18113615 0.469429801 0.635755761
      vertex 5.18070927 0.468365763 0.636250275
      vertex 5.25188402 0.472403132 0.706377691
    endloop
  endfacet
  facet normal -0.613616315 0.521656112 0.592747769
    outer loop
      vertex 5.18113615 0.469429801 0.635755761
      vertex 5.25188402 0.472403132 0.706377691
      vertex 5.2523109 0.473467171 0.705883178
    endloop
  endfacet
  facet normal -0.711747506 -0.0403736981 -0.701274163
    outer loop
      vertex 5.18284855 0.467260557 0.634142672
      vertex 5.18070927 0.468365763 0.636250275
      vertex 5.18113615 0.469429801 0.635755761
    endloop
  endfacet
  facet normal 0.711747506 0.0403736981 0.701274163
    outer loop
      vertex 5.2540233 0.471297927 0.704270088
      vertex 5.2523109 0.473467171 0.705883178
      vertex 5.25188402 0.472403132 0.706377691
    endloop
  endfacet
  facet normal -0.697744163 0.155824579 0.699193667
    outer loop
      vertex 5.18070927 0.468365763 0.636250275
      vertex 5.18060808 0.467133467 0.636423925
      vertex 5.25178283 0.471170837 0.706551341
    endloop
  endfacet
  facet normal -0.697744163 0.155824579 0.699193667
    outer loop
      vertex 5.18070927 0.468365763 0.636250275
      vertex 5.25178283 0.471170837 0.706551341
      vertex 5.25188402 0.472403132 0.706377691
    endloop
  endfacet
  facet normal -0.711747506 -0.0403736981 -0.701274163
    outer loop
      vertex 5.18284855 0.467260557 0.634142672
      vertex 5.18060808 0.467133467 0.636423925
      vertex 5.18070927 0.468365763 0.636250275
    endloop
  endfacet
  facet normal 0.711747506 0.0403736981 0.701274163
    outer loop
      vertex 5.2540233 0.471297927 0.704270088
      vertex 5.25188402 0.472403132 0.706377691
      vertex 5.25178283 0.471170837 0.706551341
    endloop
  endfacet
  facet normal -0.675646787 -0.233729835 0.699193667
    outer loop
      vertex 5.18060808 0.467133467 0.636423925
      vertex 5.18084797 0.46592052 0.636250275
      vertex 5.25202272 0.469957889 0.706377691
    endloop
  endfacet
  facet normal -0.675646787 -0.233729835 0.699193667
    outer loop
      vertex 5.18060808 0.467133467 0.636423925
      vertex 5.25202272 0.469957889 0.706377691
      vertex 5.25178283 0.471170837 0.706551341
    endloop
  endfacet
  facet normal -0.711747506 -0.0403736981 -0.701274163
    outer loop
      vertex 5.18284855 0.467260557 0.634142672
      vertex 5.18084797 0.46592052 0.636250275
      vertex 5.18060808 0.467133467 0.636423925
    endloop
  endfacet
  facet normal 0.711747506 0.0403736981 0.701274163
    outer loop
      vertex 5.2540233 0.471297927 0.704270088
      vertex 5.25178283 0.471170837 0.706551341
      vertex 5.25202272 0.469957889 0.706377691
    endloop
  endfacet
  facet normal -0.550688312 -0.587700999 0.592747769
    outer loop
      vertex 5.18084797 0.46592052 0.636250275
      vertex 5.18139244 0.464911581 0.635755761
      vertex 5.25256719 0.468948951 0.705883178
    endloop
  endfacet
  facet normal -0.550688312 -0.587700999 0.592747769
    outer loop
      vertex 5.18084797 0.46592052 0.636250275
      vertex 5.25256719 0.468948951 0.705883178
      vertex 5.25202272 0.469957889 0.706377691
    endloop
  endfacet
  facet normal -0.711747506 -0.0403736981 -0.701274163
    outer loop
      vertex 5.18284855 0.467260557 0.634142672
      vertex 5.18139244 0.464911581 0.635755761
      vertex 5.18084797 0.46592052 0.636250275
    endloop
  endfacet
  facet normal 0.711747506 0.0403736981 0.701274163
    outer loop
      vertex 5.2540233 0.471297927 0.704270088
      vertex 5.25202272 0.469957889 0.706377691
      vertex 5.25256719 0.468948951 0.705883178
    endloop
  endfacet
  facet normal -0.341892534 -0.852200015 0.396061397
    outer loop
      vertex 5.18139244 0.464911581 0.635755761
      vertex 5.18215859 0.464260252 0.635015669
      vertex 5.25333334 0.468297622 0.705143086
    endloop
  endfacet
  facet normal -0.341892534 -0.852200015 0.396061397
    outer loop
      vertex 5.18139244 0.464911581 0.635755761
      vertex 5.25333334 0.468297622 0.705143086
      vertex 5.25256719 0.468948951 0.705883178
    endloop
  endfacet
  facet normal -0.711747506 -0.0403736981 -0.701274163
    outer loop
      vertex 5.18284855 0.467260557 0.634142672
      vertex 5.18215859 0.464260252 0.635015669
      vertex 5.18139244 0.464911581 0.635755761
    endloop
  endfacet
  facet normal 0.711747506 0.0403736981 0.701274163
    outer loop
      vertex 5.2540233 0.471297927 0.704270088
      vertex 5.25256719 0.468948951 0.705883178
      vertex 5.25333334 0.468297622 0.705143086
    endloop
  endfacet
  facet normal -0.081046717 -0.986959303 0.139078268
    outer loop
      vertex 5.18215859 0.464260252 0.635015669
      vertex 5.18302978 0.464065693 0.634142672
      vertex 5.25420453 0.468103063 0.704270088
    endloop
  endfacet
  facet normal -0.081046717 -0.986959303 0.139078268
    outer loop
      vertex 5.18215859 0.464260252 0.635015669
      vertex 5.25420453 0.468103063 0.704270088
      vertex 5.25333334 0.468297622 0.705143086
    endloop
  endfacet
  facet normal -0.711747506 -0.0403736981 -0.701274163
    outer loop
      vertex 5.18284855 0.467260557 0.634142672
      vertex 5.18302978 0.464065693 0.634142672
      vertex 5.18215859 0.464260252 0.635015669
    endloop
  endfacet
  facet normal 0.711747506 0.0403736981 0.701274163
    outer loop
      vertex 5.2540233 0.471297927 0.704270088
      vertex 5.25333334 0.468297622 0.705143086
      vertex 5.25420453 0.468103063 0.704270088
    endloop
  endfacet
  facet normal 0.192137728 -0.971462984 -0.139078268
    outer loop
      vertex 5.17476887 0.436993629 0.644085545
      vertex 5.17561247 0.437285459 0.643212547
      vertex 5.24678722 0.441322829 0.713339963
    endloop
  endfacet
  facet normal 0.192137728 -0.971462984 -0.139078268
    outer loop
      vertex 5.17476887 0.436993629 0.644085545
      vertex 5.24678722 0.441322829 0.713339963
      vertex 5.24594362 0.441030999 0.714212961
    endloop
  endfacet
  facet normal -0.711747506 -0.0403736981 -0.701274163
    outer loop
      vertex 5.17458764 0.440188493 0.644085545
      vertex 5.17561247 0.437285459 0.643212547
      vertex 5.17476887 0.436993629 0.644085545
    endloop
  endfacet
  facet normal 0.711747506 0.0403736981 0.701274163
    outer loop
      vertex 5.24576239 0.444225863 0.714212961
      vertex 5.24594362 0.441030999 0.714212961
      vertex 5.24678722 0.441322829 0.713339963
    endloop
  endfacet
  facet normal 0.436070946 -0.808070232 -0.396061397
    outer loop
      vertex 5.17561247 0.437285459 0.643212547
      vertex 5.17630005 0.438019249 0.642472455
      vertex 5.2474748 0.442056619 0.712599871
    endloop
  endfacet
  facet normal 0.436070946 -0.808070232 -0.396061397
    outer loop
      vertex 5.17561247 0.437285459 0.643212547
      vertex 5.2474748 0.442056619 0.712599871
      vertex 5.24678722 0.441322829 0.713339963
    endloop
  endfacet
  facet normal -0.711747506 -0.0403736981 -0.701274163
    outer loop
      vertex 5.17458764 0.440188493 0.644085545
      vertex 5.17630005 0.438019249 0.642472455
      vertex 5.17561247 0.437285459 0.643212547
    endloop
  endfacet
  facet normal 0.711747506 0.0403736981 0.701274163
    outer loop
      vertex 5.24576239 0.444225863 0.714212961
      vertex 5.24678722 0.441322829 0.713339963
      vertex 5.2474748 0.442056619 0.712599871
    endloop
  endfacet
  facet normal 0.613616315 -0.521656112 -0.592747769
    outer loop
      vertex 5.17630005 0.438019249 0.642472455
      vertex 5.17672693 0.439083288 0.641977942
      vertex 5.24790168 0.443120657 0.712105358
    endloop
  endfacet
  facet normal 0.613616315 -0.521656112 -0.592747769
    outer loop
      vertex 5.17630005 0.438019249 0.642472455
      vertex 5.24790168 0.443120657 0.712105358
      vertex 5.2474748 0.442056619 0.712599871
    endloop
  endfacet
  facet normal -0.711747506 -0.0403736981 -0.701274163
    outer loop
      vertex 5.17458764 0.440188493 0.644085545
      vertex 5.17672693 0.439083288 0.641977942
      vertex 5.17630005 0.438019249 0.642472455
    endloop
  endfacet
  facet normal 0.711747506 0.0403736981 0.701274163
    outer loop
      vertex 5.24576239 0.444225863 0.714212961
      vertex 5.2474748 0.442056619 0.712599871
      vertex 5.24790168 0.443120657 0.712105358
    endloop
  endfacet
  facet normal 0.697744163 -0.155824579 -0.699193667
    outer loop
      vertex 5.17672693 0.439083288 0.641977942
      vertex 5.17682812 0.440315583 0.641804291
      vertex 5.24800287 0.444352953 0.711931708
    endloop
  endfacet
  facet normal 0.697744163 -0.155824579 -0.699193667
    outer loop
      vertex 5.17672693 0.439083288 0.641977942
      vertex 5.24800287 0.444352953 0.711931708
      vertex 5.24790168 0.443120657 0.712105358
    endloop
  endfacet
  facet normal -0.711747506 -0.0403736981 -0.701274163
    outer loop
      vertex 5.17458764 0.440188493 0.644085545
      vertex 5.17682812 0.440315583 0.641804291
      vertex 5.17672693 0.439083288 0.641977942
    endloop
  endfacet
  facet normal 0.711747506 0.0403736981 0.701274163
    outer loop
      vertex 5.24576239 0.444225863 0.714212961
      vertex 5.24790168 0.443120657 0.712105358
      vertex 5.24800287 0.444352953 0.711931708
    endloop
  endfacet
  facet normal 0.675646787 0.233729835 -0.699193667
    outer loop
      vertex 5.17682812 0.440315583 0.641804291
      vertex 5.17658822 0.441528531 0.641977942
      vertex 5.24776297 0.445565901 0.712105358
    endloop
  endfacet
  facet normal 0.675646787 0.233729835 -0.699193667
    outer loop
      vertex 5.17682812 0.440315583 0.641804291
      vertex 5.24776297 0.445565901 0.712105358
      vertex 5.24800287 0.444352953 0.711931708
    endloop
  endfacet
  facet normal -0.711747506 -0.0403736981 -0.701274163
    outer loop
      vertex 5.17458764 0.440188493 0.644085545
      vertex 5.17658822 0.441528531 0.641977942
      vertex 5.17682812 0.440315583 0.641804291
    endloop
  endfacet
  facet normal 0.711747506 0.0403736981 0.701274163
    outer loop
      vertex 5.24576239 0.444225863 0.714212961
      vertex 5.24800287 0.444352953 0.711931708
      vertex 5.24776297 0.445565901 0.712105358
    endloop
  endfacet
  facet normal 0.550688312 0.587700999 -0.592747769
    outer loop
      vertex 5.17658822 0.441528531 0.641977942
      vertex 5.17604375 0.44253747 0.642472455
      vertex 5.2472185 0.446574839 0.712599871
    endloop
  endfacet
  facet normal 0.550688312 0.587700999 -0.592747769
    outer loop
      vertex 5.17658822 0.441528531 0.641977942
      vertex 5.2472185 0.446574839 0.712599871
      vertex 5.24776297 0.445565901 0.712105358
    endloop
  endfacet
  facet normal -0.711747506 -0.0403736981 -0.701274163
    outer loop
      vertex 5.17458764 0.440188493 0.644085545
      vertex 5.17604375 0.44253747 0.642472455
      vertex 5.17658822 0.441528531 0.641977942
    endloop
  endfacet
  facet normal 0.711747506 0.0403736981 0.701274163
    outer loop
      vertex 5.24576239 0.444225863 0.714212961
      vertex 5.24776297 0.445565901 0.712105358
      vertex 5.2472185 0.446574839 0.712599871
    endloop
  endfacet
  facet normal 0.341892534 0.852200015 -0.396061397
    outer loop
      vertex 5.17604375 0.44253747 0.642472455
      vertex 5.1752776 0.443188798 0.643212547
      vertex 5.24645235 0.447226168 0.713339963
    endloop
  endfacet
  facet normal 0.341892534 0.852200015 -0.396061397
    outer loop
      vertex 5.17604375 0.44253747 0.642472455
      vertex 5.24645235 0.447226168 0.713339963
      vertex 5.2472185 0.446574839 0.712599871
    endloop
  endfacet
  facet normal -0.711747506 -0.0403736981 -0.701274163
    outer loop
      vertex 5.17458764 0.440188493 0.644085545
      vertex 5.1752776 0.443188798 0.643212547
      vertex 5.17604375 0.44253747 0.642472455
    endloop
  endfacet
  facet normal 0.711747506 0.0403736981 0.701274163
    outer loop
      vertex 5.24576239 0.444225863 0.714212961
      vertex 5.2472185 0.446574839 0.712599871
      vertex 5.24645235 0.447226168 0.713339963
    endloop
  endfacet
  facet normal 0.081046717 0.986959303 -0.139078268
    outer loop
      vertex 5.1752776 0.443188798 0.643212547
      vertex 5.17440641 0.443383357 0.644085545
      vertex 5.24558117 0.447420727 0.714212961
    endloop
  endfacet
  facet normal 0.081046717 0.986959303 -0.139078268
    outer loop
      vertex 5.1752776 0.443188798 0.643212547
      vertex 5.24558117 0.447420727 0.714212961
      vertex 5.24645235 0.447226168 0.713339963
    endloop
  endfacet
  facet normal -0.711747506 -0.0403736981 -0.701274163
    outer loop
      vertex 5.17458764 0.440188493 0.644085545
      vertex 5.17440641 0.443383357 0.644085545
      vertex 5.1752776 0.443188798 0.643212547
    endloop
  endfacet
  facet normal 0.711747506 0.0403736981 0.701274163
    outer loop
      vertex 5.24576239 0.444225863 0.714212961
      vertex 5.24645235 0.447226168 0.713339963
      vertex 5.24558117 0.447420727 0.714212961
    endloop
  endfacet
  facet normal -0.192137728 0.971462984 0.139078268
    outer loop
      vertex 5.17440641 0.443383357 0.644085545
      vertex 5.17356282 0.443091527 0.644958543
      vertex 5.24473757 0.447128897 0.715085959
    endloop
  endfacet
  facet normal -0.192137728 0.971462984 0.139078268
    outer loop
      vertex 5.17440641 0.443383357 0.644085545
      vertex 5.24473757 0.447128897 0.715085959
      vertex 5.24558117 0.447420727 0.714212961
    endloop
  endfacet
  facet normal -0.711747506 -0.0403736981 -0.701274163
    outer loop
      vertex 5.17458764 0.440188493 0.644085545
      vertex 5.17356282 0.443091527 0.644958543
      vertex 5.17440641 0.443383357 0.644085545
    endloop
  endfacet
  facet normal 0.711747506 0.0403736981 0.701274163
    outer loop
      vertex 5.24576239 0.444225863 0.714212961
      vertex 5.24558117 0.447420727 0.714212961
      vertex 5.24473757 0.447128897 0.715085959
    endloop
  endfacet
  facet normal -0.436070946 0.808070232 0.396061397
    outer loop
      vertex 5.17356282 0.443091527 0.644958543
      vertex 5.17287524 0.442357737 0.645698635
      vertex 5.24404999 0.446395106 0.715826051
    endloop
  endfacet
  facet normal -0.436070946 0.808070232 0.396061397
    outer loop
      vertex 5.17356282 0.443091527 0.644958543
      vertex 5.24404999 0.446395106 0.715826051
      vertex 5.24473757 0.447128897 0.715085959
    endloop
  endfacet
  facet normal -0.711747506 -0.0403736981 -0.701274163
    outer loop
      vertex 5.17458764 0.440188493 0.644085545
      vertex 5.17287524 0.442357737 0.645698635
      vertex 5.17356282 0.443091527 0.644958543
    endloop
  endfacet
  facet normal 0.711747506 0.0403736981 0.701274163
    outer loop
      vertex 5.24576239 0.444225863 0.714212961
      vertex 5.24473757 0.447128897 0.715085959
      vertex 5.24404999 0.446395106 0.715826051
    endloop
  endfacet
  facet normal -0.613616315 0.521656112 0.592747769
    outer loop
      vertex 5.17287524 0.442357737 0.645698635
      vertex 5.17244836 0.441293698 0.646193148
      vertex 5.24362311 0.445331068 0.716320564
    endloop
  endfacet
  facet normal -0.613616315 0.521656112 0.592747769
    outer loop
      vertex 5.17287524 0.442357737 0.645698635
      vertex 5.24362311 0.445331068 0.716320564
      vertex 5.24404999 0.446395106 0.715826051
    endloop
  endfacet
  facet normal -0.711747506 -0.0403736981 -0.701274163
    outer loop
      vertex 5.17458764 0.440188493 0.644085545
      vertex 5.17244836 0.441293698 0.646193148
      vertex 5.17287524 0.442357737 0.645698635
    endloop
  endfacet
  facet normal 0.711747506 0.0403736981 0.701274163
    outer loop
      vertex 5.24576239 0.444225863 0.714212961
      vertex 5.24404999 0.446395106 0.715826051
      vertex 5.24362311 0.445331068 0.716320564
    endloop
  endfacet
  facet normal -0.697744163 0.155824579 0.699193667
    outer loop
      vertex 5.17244836 0.441293698 0.646193148
      vertex 5.17234717 0.440061403 0.646366798
      vertex 5.24352192 0.444098772 0.716494215
    endloop
  endfacet
  facet normal -0.697744163 0.155824579 0.699193667
    outer loop
      vertex 5.17244836 0.441293698 0.646193148
      vertex 5.24352192 0.444098772 0.716494215
      vertex 5.24362311 0.445331068 0.716320564
    endloop
  endfacet
  facet normal -0.711747506 -0.0403736981 -0.701274163
    outer loop
      vertex 5.17458764 0.440188493 0.644085545
      vertex 5.17234717 0.440061403 0.646366798
      vertex 5.17244836 0.441293698 0.646193148
    endloop
  endfacet
  facet normal 0.711747506 0.0403736981 0.701274163
    outer loop
      vertex 5.24576239 0.444225863 0.714212961
      vertex 5.24362311 0.445331068 0.716320564
      vertex 5.24352192 0.444098772 0.716494215
    endloop
  endfacet
  facet normal -0.675646787 -0.233729835 0.699193667
    outer loop
      vertex 5.17234717 0.440061403 0.646366798
      vertex 5.17258707 0.438848455 0.646193148
      vertex 5.24376182 0.442885825 0.716320564
    endloop
  endfacet
  facet normal -0.675646787 -0.233729835 0.699193667
    outer loop
      vertex 5.17234717 0.440061403 0.646366798
      vertex 5.24376182 0.442885825 0.716320564
      vertex 5.24352192 0.444098772 0.716494215
    endloop
  endfacet
  facet normal -0.711747506 -0.0403736981 -0.701274163
    outer loop
      vertex 5.17458764 0.440188493 0.644085545
      vertex 5.17258707 0.438848455 0.646193148
      vertex 5.17234717 0.440061403 0.646366798
    endloop
  endfacet
  facet normal 0.711747506 0.0403736981 0.701274163
    outer loop
      vertex 5.24576239 0.444225863 0.714212961
      vertex 5.24352192 0.444098772 0.716494215
      vertex 5.24376182 0.442885825 0.716320564
    endloop
  endfacet
  facet normal -0.550688312 -0.587700999 0.592747769
    outer loop
      vertex 5.17258707 0.438848455 0.646193148
      vertex 5.17313153 0.437839516 0.645698635
      vertex 5.24430629 0.441876886 0.715826051
    endloop
  endfacet
  facet normal -0.550688312 -0.587700999 0.592747769
    outer loop
      vertex 5.17258707 0.438848455 0.646193148
      vertex 5.24430629 0.441876886 0.715826051
      vertex 5.24376182 0.442885825 0.716320564
    endloop
  endfacet
  facet normal -0.711747506 -0.0403736981 -0.701274163
    outer loop
      vertex 5.17458764 0.440188493 0.644085545
      vertex 5.17313153 0.437839516 0.645698635
      vertex 5.17258707 0.438848455 0.646193148
    endloop
  endfacet
  facet normal 0.711747506 0.0403736981 0.701274163
    outer loop
      vertex 5.24576239 0.444225863 0.714212961
      vertex 5.24376182 0.442885825 0.716320564
      vertex 5.24430629 0.441876886 0.715826051
    endloop
  endfacet
  facet normal -0.341892534 -0.852200015 0.396061397
    outer loop
      vertex 5.17313153 0.437839516 0.645698635
      vertex 5.17389768 0.437188188 0.644958543
      vertex 5.24507243 0.441225558 0.715085959
    endloop
  endfacet
  facet normal -0.341892534 -0.852200015 0.396061397
    outer loop
      vertex 5.17313153 0.437839516 0.645698635
      vertex 5.24507243 0.441225558 0.715085959
      vertex 5.24430629 0.441876886 0.715826051
    endloop
  endfacet
  facet normal -0.711747506 -0.0403736981 -0.701274163
    outer loop
      vertex 5.17458764 0.440188493 0.644085545
      vertex 5.17389768 0.437188188 0.644958543
      vertex 5.17313153 0.437839516 0.645698635
    endloop
  endfacet
  facet normal 0.711747506 0.0403736981 0.701274163
    outer loop
      vertex 5.24576239 0.444225863 0.714212961
      vertex 5.24430629 0.441876886 0.715826051
      vertex 5.24507243 0.441225558 0.715085959
    endloop
  endfacet
  facet normal -0.081046717 -0.986959303 0.139078268
    outer loop
      vertex 5.17389768 0.437188188 0.644958543
      vertex 5.17476887 0.436993629 0.644085545
      vertex 5.24594362 0.441030999 0.714212961
    endloop
  endfacet
  facet normal -0.081046717 -0.986959303 0.139078268
    outer loop
      vertex 5.17389768 0.437188188 0.644958543
      vertex 5.24594362 0.441030999 0.714212961
      vertex 5.24507243 0.441225558 0.715085959
    endloop
  endfacet
  facet normal -0.711747506 -0.0403736981 -0.701274163
    outer loop
      vertex 5.17458764 0.440188493 0.644085545
      vertex 5.17476887 0.436993629 0.644085545
      vertex 5.17389768 0.437188188 0.644958543
    endloop
  endfacet
  facet normal 0.711747506 0.0403736981 0.701274163
    outer loop
      vertex 5.24576239 0.444225863 0.714212961
      vertex 5.24507243 0.441225558 0.715085959
      vertex 5.24594362 0.441030999 0.714212961
    endloop
  endfacet
endsolid e14_features
