solid f4_features
  facet normal 0.0288824279 0.992338544 -0.120125016
    outer loop
      vertex 0.137224991 -0.0245977032 0.947925298
      vertex 0.136231765 -0.0246600718 0.94717127
      vertex 0.0757034783 -0.0133600549 1.02596617
    endloop
  endfacet
  facet normal 0.0288824279 0.992338544 -0.120125016
    outer loop
      vertex 0.137224991 -0.0245977032 0.947925298
      vertex 0.0757034783 -0.0133600549 1.02596617
      vertex 0.0766967051 -0.0132976862 1.0267202
    endloop
  endfacet
  facet normal 0.605282864 -0.11300017 -0.787948993
    outer loop
      vertex 0.13663773 -0.0277433548 0.947925298
      vertex 0.136231765 -0.0246600718 0.94717127
      vertex 0.137224991 -0.0245977032 0.947925298
    endloop
  endfacet
  facet normal -0.605282864 0.11300017 0.787948993
    outer loop
      vertex 0.0761094438 -0.0164433379 1.0267202
      vertex 0.0766967051 -0.0132976862 1.0267202
      vertex 0.0757034783 -0.0133600549 1.02596617
    endloop
  endfacet
  facet normal -0.277735545 0.897685569 -0.342087102
    outer loop
      vertex 0.136231765 -0.0246600718 0.94717127
      vertex 0.135300343 -0.0251918424 0.946532036
      vertex 0.0747720561 -0.0138918254 1.02532694
    endloop
  endfacet
  facet normal -0.277735545 0.897685569 -0.342087102
    outer loop
      vertex 0.136231765 -0.0246600718 0.94717127
      vertex 0.0747720561 -0.0138918254 1.02532694
      vertex 0.0757034783 -0.0133600549 1.02596617
    endloop
  endfacet
  facet normal 0.605282864 -0.11300017 -0.787948993
    outer loop
      vertex 0.13663773 -0.0277433548 0.947925298
      vertex 0.135300343 -0.0251918424 0.946532036
      vertex 0.136231765 -0.0246600718 0.94717127
    endloop
  endfacet
  facet normal -0.605282864 0.11300017 0.787948993
    outer loop
      vertex 0.0761094438 -0.0164433379 1.0267202
      vertex 0.0757034783 -0.0133600549 1.02596617
      vertex 0.0747720561 -0.0138918254 1.02532694
    endloop
  endfacet
  facet normal -0.542070799 0.666368104 -0.511969529
    outer loop
      vertex 0.135300343 -0.0251918424 0.946532036
      vertex 0.134572526 -0.0261120575 0.946104914
      vertex 0.0740442391 -0.0148120406 1.02489981
    endloop
  endfacet
  facet normal -0.542070799 0.666368104 -0.511969529
    outer loop
      vertex 0.135300343 -0.0251918424 0.946532036
      vertex 0.0740442391 -0.0148120406 1.02489981
      vertex 0.0747720561 -0.0138918254 1.02532694
    endloop
  endfacet
  facet normal 0.605282864 -0.11300017 -0.787948993
    outer loop
      vertex 0.13663773 -0.0277433548 0.947925298
      vertex 0.134572526 -0.0261120575 0.946104914
      vertex 0.135300343 -0.0251918424 0.946532036
    endloop
  endfacet
  facet normal -0.605282864 0.11300017 0.787948993
    outer loop
      vertex 0.0761094438 -0.0164433379 1.0267202
      vertex 0.0747720561 -0.0138918254 1.02532694
      vertex 0.0740442391 -0.0148120406 1.02489981
    endloop
  endfacet
  facet normal -0.723880688 0.333602136 -0.603909235
    outer loop
      vertex 0.134572526 -0.0261120575 0.946104914
      vertex 0.134159117 -0.0272806229 0.945954928
      vertex 0.0736308308 -0.015980606 1.02474983
    endloop
  endfacet
  facet normal -0.723880688 0.333602136 -0.603909235
    outer loop
      vertex 0.134572526 -0.0261120575 0.946104914
      vertex 0.0736308308 -0.015980606 1.02474983
      vertex 0.0740442391 -0.0148120406 1.02489981
    endloop
  endfacet
  facet normal 0.605282864 -0.11300017 -0.787948993
    outer loop
      vertex 0.13663773 -0.0277433548 0.947925298
      vertex 0.134159117 -0.0272806229 0.945954928
      vertex 0.134572526 -0.0261120575 0.946104914
    endloop
  endfacet
  facet normal -0.605282864 0.11300017 0.787948993
    outer loop
      vertex 0.0761094438 -0.0164433379 1.0267202
      vertex 0.0740442391 -0.0148120406 1.02489981
      vertex 0.0736308308 -0.015980606 1.02474983
    endloop
  endfacet
  facet normal -0.795486304 -0.0499517336 -0.603909235
    outer loop
      vertex 0.134159117 -0.0272806229 0.945954928
      vertex 0.134123055 -0.0285196351 0.946104914
      vertex 0.0735947688 -0.0172196181 1.02489981
    endloop
  endfacet
  facet normal -0.795486304 -0.0499517336 -0.603909235
    outer loop
      vertex 0.134159117 -0.0272806229 0.945954928
      vertex 0.0735947688 -0.0172196181 1.02489981
      vertex 0.0736308308 -0.015980606 1.02474983
    endloop
  endfacet
  facet normal 0.605282864 -0.11300017 -0.787948993
    outer loop
      vertex 0.13663773 -0.0277433548 0.947925298
      vertex 0.134123055 -0.0285196351 0.946104914
      vertex 0.134159117 -0.0272806229 0.945954928
    endloop
  endfacet
  facet normal -0.605282864 0.11300017 0.787948993
    outer loop
      vertex 0.0761094438 -0.0164433379 1.0267202
      vertex 0.0736308308 -0.015980606 1.02474983
      vertex 0.0735947688 -0.0172196181 1.02489981
    endloop
  endfacet
  facet normal -0.745986341 -0.425900904 -0.511969529
    outer loop
      vertex 0.134123055 -0.0285196351 0.946104914
      vertex 0.13446983 -0.0296404656 0.946532036
      vertex 0.0739415433 -0.0183404486 1.02532694
    endloop
  endfacet
  facet normal -0.745986341 -0.425900904 -0.511969529
    outer loop
      vertex 0.134123055 -0.0285196351 0.946104914
      vertex 0.0739415433 -0.0183404486 1.02532694
      vertex 0.0735947688 -0.0172196181 1.02489981
    endloop
  endfacet
  facet normal 0.605282864 -0.11300017 -0.787948993
    outer loop
      vertex 0.13663773 -0.0277433548 0.947925298
      vertex 0.13446983 -0.0296404656 0.946532036
      vertex 0.134123055 -0.0285196351 0.946104914
    endloop
  endfacet
  facet normal -0.605282864 0.11300017 0.787948993
    outer loop
      vertex 0.0761094438 -0.0164433379 1.0267202
      vertex 0.0735947688 -0.0172196181 1.02489981
      vertex 0.0739415433 -0.0183404486 1.02532694
    endloop
  endfacet
  facet normal -0.58291672 -0.737010523 -0.342087102
    outer loop
      vertex 0.13446983 -0.0296404656 0.946532036
      vertex 0.135146647 -0.0304724782 0.94717127
      vertex 0.074618361 -0.0191724612 1.02596617
    endloop
  endfacet
  facet normal -0.58291672 -0.737010523 -0.342087102
    outer loop
      vertex 0.13446983 -0.0296404656 0.946532036
      vertex 0.074618361 -0.0191724612 1.02596617
      vertex 0.0739415433 -0.0183404486 1.02532694
    endloop
  endfacet
  facet normal 0.605282864 -0.11300017 -0.787948993
    outer loop
      vertex 0.13663773 -0.0277433548 0.947925298
      vertex 0.135146647 -0.0304724782 0.94717127
      vertex 0.13446983 -0.0296404656 0.946532036
    endloop
  endfacet
  facet normal -0.605282864 0.11300017 0.787948993
    outer loop
      vertex 0.0761094438 -0.0164433379 1.0267202
      vertex 0.0739415433 -0.0183404486 1.02532694
      vertex 0.074618361 -0.0191724612 1.02596617
    endloop
  endfacet
  facet normal -0.331103313 -0.935916971 -0.120125016
    outer loop
      vertex 0.135146647 -0.0304724782 0.94717127
      vertex 0.136050469 -0.0308890065 0.947925298
      vertex 0.0755221826 -0.0195889895 1.0267202
    endloop
  endfacet
  facet normal -0.331103313 -0.935916971 -0.120125016
    outer loop
      vertex 0.135146647 -0.0304724782 0.94717127
      vertex 0.0755221826 -0.0195889895 1.0267202
      vertex 0.074618361 -0.0191724612 1.02596617
    endloop
  endfacet
  facet normal 0.605282864 -0.11300017 -0.787948993
    outer loop
      vertex 0.13663773 -0.0277433548 0.947925298
      vertex 0.136050469 -0.0308890065 0.947925298
      vertex 0.135146647 -0.0304724782 0.94717127
    endloop
  endfacet
  facet normal -0.605282864 0.11300017 0.787948993
    outer loop
      vertex 0.0761094438 -0.0164433379 1.0267202
      vertex 0.074618361 -0.0191724612 1.02596617
      vertex 0.0755221826 -0.0195889895 1.0267202
    endloop
  endfacet
  facet normal -0.0288824279 -0.992338544 0.120125016
    outer loop
      vertex 0.136050469 -0.0308890065 0.947925298
      vertex 0.137043696 -0.0308266378 0.948679326
      vertex 0.0765154093 -0.0195266209 1.02747423
    endloop
  endfacet
  facet normal -0.0288824279 -0.992338544 0.120125016
    outer loop
      vertex 0.136050469 -0.0308890065 0.947925298
      vertex 0.0765154093 -0.0195266209 1.02747423
      vertex 0.0755221826 -0.0195889895 1.0267202
    endloop
  endfacet
  facet normal 0.605282864 -0.11300017 -0.787948993
    outer loop
      vertex 0.13663773 -0.0277433548 0.947925298
      vertex 0.137043696 -0.0308266378 0.948679326
      vertex 0.136050469 -0.0308890065 0.947925298
    endloop
  endfacet
  facet normal -0.605282864 0.11300017 0.787948993
    outer loop
      vertex 0.0761094438 -0.0164433379 1.0267202
      vertex 0.0755221826 -0.0195889895 1.0267202
      vertex 0.0765154093 -0.0195266209 1.02747423
    endloop
  endfacet
  facet normal 0.277735545 -0.897685569 0.342087102
    outer loop
      vertex 0.137043696 -0.0308266378 0.948679326
      vertex 0.137975118 -0.0302948673 0.94931856
      vertex 0.0774468315 -0.0189948503 1.02811346
    endloop
  endfacet
  facet normal 0.277735545 -0.897685569 0.342087102
    outer loop
      vertex 0.137043696 -0.0308266378 0.948679326
      vertex 0.0774468315 -0.0189948503 1.02811346
      vertex 0.0765154093 -0.0195266209 1.02747423
    endloop
  endfacet
  facet normal 0.605282864 -0.11300017 -0.787948993
    outer loop
      vertex 0.13663773 -0.0277433548 0.947925298
      vertex 0.137975118 -0.0302948673 0.94931856
      vertex 0.137043696 -0.0308266378 0.948679326
    endloop
  endfacet
  facet normal -0.605282864 0.11300017 0.787948993
    outer loop
      vertex 0.0761094438 -0.0164433379 1.0267202
      vertex 0.0765154093 -0.0195266209 1.02747423
      vertex 0.0774468315 -0.0189948503 1.02811346
    endloop
  endfacet
  facet normal 0.542070799 -0.666368104 0.511969529
    outer loop
      vertex 0.137975118 -0.0302948673 0.94931856
      vertex 0.138702935 -0.0293746521 0.949745682
      vertex 0.0781746485 -0.0180746352 1.02854058
    endloop
  endfacet
  facet normal 0.542070799 -0.666368104 0.511969529
    outer loop
      vertex 0.137975118 -0.0302948673 0.94931856
      vertex 0.0781746485 -0.0180746352 1.02854058
      vertex 0.0774468315 -0.0189948503 1.02811346
    endloop
  endfacet
  facet normal 0.605282864 -0.11300017 -0.787948993
    outer loop
      vertex 0.13663773 -0.0277433548 0.947925298
      vertex 0.138702935 -0.0293746521 0.949745682
      vertex 0.137975118 -0.0302948673 0.94931856
    endloop
  endfacet
  facet normal -0.605282864 0.11300017 0.787948993
    outer loop
      vertex 0.0761094438 -0.0164433379 1.0267202
      vertex 0.0774468315 -0.0189948503 1.02811346
      vertex 0.0781746485 -0.0180746352 1.02854058
    endloop
  endfacet
  facet normal 0.723880688 -0.333602136 0.603909235
    outer loop
      vertex 0.138702935 -0.0293746521 0.949745682
      vertex 0.139116343 -0.0282060867 0.949895668
      vertex 0.0785880569 -0.0169060698 1.02869057
    endloop
  endfacet
  facet normal 0.723880688 -0.333602136 0.603909235
    outer loop
      vertex 0.138702935 -0.0293746521 0.949745682
      vertex 0.0785880569 -0.0169060698 1.02869057
      vertex 0.0781746485 -0.0180746352 1.02854058
    endloop
  endfacet
  facet normal 0.605282864 -0.11300017 -0.787948993
    outer loop
      vertex 0.13663773 -0.0277433548 0.947925298
      vertex 0.139116343 -0.0282060867 0.949895668
      vertex 0.138702935 -0.0293746521 0.949745682
    endloop
  endfacet
  facet normal -0.605282864 0.11300017 0.787948993
    outer loop
      vertex 0.0761094438 -0.0164433379 1.0267202
      vertex 0.0781746485 -0.0180746352 1.02854058
      vertex 0.0785880569 -0.0169060698 1.02869057
    endloop
  endfacet
  facet normal 0.795486304 0.0499517336 0.603909235
    outer loop
      vertex 0.139116343 -0.0282060867 0.949895668
      vertex 0.139152405 -0.0269670746 0.949745682
      vertex 0.0786241188 -0.0156670576 1.02854058
    endloop
  endfacet
  facet normal 0.795486304 0.0499517336 0.603909235
    outer loop
      vertex 0.139116343 -0.0282060867 0.949895668
      vertex 0.0786241188 -0.0156670576 1.02854058
      vertex 0.0785880569 -0.0169060698 1.02869057
    endloop
  endfacet
  facet normal 0.605282864 -0.11300017 -0.787948993
    outer loop
      vertex 0.13663773 -0.0277433548 0.947925298
      vertex 0.139152405 -0.0269670746 0.949745682
      vertex 0.139116343 -0.0282060867 0.949895668
    endloop
  endfacet
  facet normal -0.605282864 0.11300017 0.787948993
    outer loop
      vertex 0.0761094438 -0.0164433379 1.0267202
      vertex 0.0785880569 -0.0169060698 1.02869057
      vertex 0.0786241188 -0.0156670576 1.02854058
    endloop
  endfacet
  facet normal 0.745986341 0.425900904 0.511969529
    outer loop
      vertex 0.139152405 -0.0269670746 0.949745682
      vertex 0.138805631 -0.0258462441 0.94931856
      vertex 0.0782773443 -0.0145462271 1.02811346
    endloop
  endfacet
  facet normal 0.745986341 0.425900904 0.511969529
    outer loop
      vertex 0.139152405 -0.0269670746 0.949745682
      vertex 0.0782773443 -0.0145462271 1.02811346
      vertex 0.0786241188 -0.0156670576 1.02854058
    endloop
  endfacet
  facet normal 0.605282864 -0.11300017 -0.787948993
    outer loop
      vertex 0.13663773 -0.0277433548 0.947925298
      vertex 0.138805631 -0.0258462441 0.94931856
      vertex 0.139152405 -0.0269670746 0.949745682
    endloop
  endfacet
  facet normal -0.605282864 0.11300017 0.787948993
    outer loop
      vertex 0.0761094438 -0.0164433379 1.0267202
      vertex 0.0786241188 -0.0156670576 1.02854058
      vertex 0.0782773443 -0.0145462271 1.02811346
    endloop
  endfacet
  facet normal 0.58291672 0.737010523 0.342087102
    outer loop
      vertex 0.138805631 -0.0258462441 0.94931856
      vertex 0.138128813 -0.0250142315 0.948679326
      vertex 0.0776005266 -0.0137142145 1.02747423
    endloop
  endfacet
  facet normal 0.58291672 0.737010523 0.342087102
    outer loop
      vertex 0.138805631 -0.0258462441 0.94931856
      vertex 0.0776005266 -0.0137142145 1.02747423
      vertex 0.0782773443 -0.0145462271 1.02811346
    endloop
  endfacet
  facet normal 0.605282864 -0.11300017 -0.787948993
    outer loop
      vertex 0.13663773 -0.0277433548 0.947925298
      vertex 0.138128813 -0.0250142315 0.948679326
      vertex 0.138805631 -0.0258462441 0.94931856
    endloop
  endfacet
  facet normal -0.605282864 0.11300017 0.787948993
    outer loop
      vertex 0.0761094438 -0.0164433379 1.0267202
      vertex 0.0782773443 -0.0145462271 1.02811346
      vertex 0.0776005266 -0.0137142145 1.02747423
    endloop
  endfacet
  facet normal 0.331103313 0.935916971 0.120125016
    outer loop
      vertex 0.138128813 -0.0250142315 0.948679326
      vertex 0.137224991 -0.0245977032 0.947925298
      vertex 0.0766967051 -0.0132976862 1.0267202
    endloop
  endfacet
  facet normal 0.331103313 0.935916971 0.120125016
    outer loop
      vertex 0.138128813 -0.0250142315 0.948679326
      vertex 0.0766967051 -0.0132976862 1.0267202
      vertex 0.0776005266 -0.0137142145 1.02747423
    endloop
  endfacet
  facet normal 0.605282864 -0.11300017 -0.787948993
    outer loop
      vertex 0.13663773 -0.0277433548 0.947925298
      vertex 0.137224991 -0.0245977032 0.947925298
      vertex 0.138128813 -0.0250142315 0.948679326
    endloop
  endfacet
  facet normal -0.605282864 0.11300017 0.787948993
    outer loop
      vertex 0.0761094438 -0.0164433379 1.0267202
      vertex 0.0776005266 -0.0137142145 1.02747423
      vertex 0.0766967051 -0.0132976862 1.0267202
    endloop
  endfacet
  facet normal 0.0288824279 0.992338544 -0.120125016
    outer loop
      vertex 0.129898148 0.00287531191 0.938357079
      vertex 0.128904921 0.00281294327 0.937603052
      vertex 0.0683766349 0.0141129602 1.01639795
    endloop
  endfacet
  facet normal 0.0288824279 0.992338544 -0.120125016
    outer loop
      vertex 0.129898148 0.00287531191 0.938357079
      vertex 0.0683766349 0.0141129602 1.01639795
      vertex 0.0693698616 0.0141753289 1.01715198
    endloop
  endfacet
  facet normal 0.605282864 -0.11300017 -0.787948993
    outer loop
      vertex 0.129310887 -0.000270339726 0.938357079
      vertex 0.128904921 0.00281294327 0.937603052
      vertex 0.129898148 0.00287531191 0.938357079
    endloop
  endfacet
  facet normal -0.605282864 0.11300017 0.787948993
    outer loop
      vertex 0.0687826004 0.0110296772 1.01715198
      vertex 0.0693698616 0.0141753289 1.01715198
      vertex 0.0683766349 0.0141129602 1.01639795
    endloop
  endfacet
  facet normal -0.277735545 0.897685569 -0.342087102
    outer loop
      vertex 0.128904921 0.00281294327 0.937603052
      vertex 0.127973499 0.00228117275 0.936963818
      vertex 0.0674452127 0.0135811897 1.01575872
    endloop
  endfacet
  facet normal -0.277735545 0.897685569 -0.342087102
    outer loop
      vertex 0.128904921 0.00281294327 0.937603052
      vertex 0.0674452127 0.0135811897 1.01575872
      vertex 0.0683766349 0.0141129602 1.01639795
    endloop
  endfacet
  facet normal 0.605282864 -0.11300017 -0.787948993
    outer loop
      vertex 0.129310887 -0.000270339726 0.938357079
      vertex 0.127973499 0.00228117275 0.936963818
      vertex 0.128904921 0.00281294327 0.937603052
    endloop
  endfacet
  facet normal -0.605282864 0.11300017 0.787948993
    outer loop
      vertex 0.0687826004 0.0110296772 1.01715198
      vertex 0.0683766349 0.0141129602 1.01639795
      vertex 0.0674452127 0.0135811897 1.01575872
    endloop
  endfacet
  facet normal -0.542070799 0.666368104 -0.511969529
    outer loop
      vertex 0.127973499 0.00228117275 0.936963818
      vertex 0.127245682 0.00136095758 0.936536695
      vertex 0.0667173957 0.0126609745 1.01533159
    endloop
  endfacet
  facet normal -0.542070799 0.666368104 -0.511969529
    outer loop
      vertex 0.127973499 0.00228117275 0.936963818
      vertex 0.0667173957 0.0126609745 1.01533159
      vertex 0.0674452127 0.0135811897 1.01575872
    endloop
  endfacet
  facet normal 0.605282864 -0.11300017 -0.787948993
    outer loop
      vertex 0.129310887 -0.000270339726 0.938357079
      vertex 0.127245682 0.00136095758 0.936536695
      vertex 0.127973499 0.00228117275 0.936963818
    endloop
  endfacet
  facet normal -0.605282864 0.11300017 0.787948993
    outer loop
      vertex 0.0687826004 0.0110296772 1.01715198
      vertex 0.0674452127 0.0135811897 1.01575872
      vertex 0.0667173957 0.0126609745 1.01533159
    endloop
  endfacet
  facet normal -0.723880688 0.333602136 -0.603909235
    outer loop
      vertex 0.127245682 0.00136095758 0.936536695
      vertex 0.126832274 0.000192392181 0.93638671
      vertex 0.0663039873 0.0114924091 1.01518161
    endloop
  endfacet
  facet normal -0.723880688 0.333602136 -0.603909235
    outer loop
      vertex 0.127245682 0.00136095758 0.936536695
      vertex 0.0663039873 0.0114924091 1.01518161
      vertex 0.0667173957 0.0126609745 1.01533159
    endloop
  endfacet
  facet normal 0.605282864 -0.11300017 -0.787948993
    outer loop
      vertex 0.129310887 -0.000270339726 0.938357079
      vertex 0.126832274 0.000192392181 0.93638671
      vertex 0.127245682 0.00136095758 0.936536695
    endloop
  endfacet
  facet normal -0.605282864 0.11300017 0.787948993
    outer loop
      vertex 0.0687826004 0.0110296772 1.01715198
      vertex 0.0667173957 0.0126609745 1.01533159
      vertex 0.0663039873 0.0114924091 1.01518161
    endloop
  endfacet
  facet normal -0.795486304 -0.0499517336 -0.603909235
    outer loop
      vertex 0.126832274 0.000192392181 0.93638671
      vertex 0.126796212 -0.00104661995 0.936536695
      vertex 0.0662679254 0.010253397 1.01533159
    endloop
  endfacet
  facet normal -0.795486304 -0.0499517336 -0.603909235
    outer loop
      vertex 0.126832274 0.000192392181 0.93638671
      vertex 0.0662679254 0.010253397 1.01533159
      vertex 0.0663039873 0.0114924091 1.01518161
    endloop
  endfacet
  facet normal 0.605282864 -0.11300017 -0.787948993
    outer loop
      vertex 0.129310887 -0.000270339726 0.938357079
      vertex 0.126796212 -0.00104661995 0.936536695
      vertex 0.126832274 0.000192392181 0.93638671
    endloop
  endfacet
  facet normal -0.605282864 0.11300017 0.787948993
    outer loop
      vertex 0.0687826004 0.0110296772 1.01715198
      vertex 0.0663039873 0.0114924091 1.01518161
      vertex 0.0662679254 0.010253397 1.01533159
    endloop
  endfacet
  facet normal -0.745986341 -0.425900904 -0.511969529
    outer loop
      vertex 0.126796212 -0.00104661995 0.936536695
      vertex 0.127142986 -0.00216745046 0.936963818
      vertex 0.0666146999 0.00913256651 1.01575872
    endloop
  endfacet
  facet normal -0.745986341 -0.425900904 -0.511969529
    outer loop
      vertex 0.126796212 -0.00104661995 0.936536695
      vertex 0.0666146999 0.00913256651 1.01575872
      vertex 0.0662679254 0.010253397 1.01533159
    endloop
  endfacet
  facet normal 0.605282864 -0.11300017 -0.787948993
    outer loop
      vertex 0.129310887 -0.000270339726 0.938357079
      vertex 0.127142986 -0.00216745046 0.936963818
      vertex 0.126796212 -0.00104661995 0.936536695
    endloop
  endfacet
  facet normal -0.605282864 0.11300017 0.787948993
    outer loop
      vertex 0.0687826004 0.0110296772 1.01715198
      vertex 0.0662679254 0.010253397 1.01533159
      vertex 0.0666146999 0.00913256651 1.01575872
    endloop
  endfacet
  facet normal -0.58291672 -0.737010523 -0.342087102
    outer loop
      vertex 0.127142986 -0.00216745046 0.936963818
      vertex 0.127819804 -0.00299946306 0.937603052
      vertex 0.0672915176 0.00830055391 1.01639795
    endloop
  endfacet
  facet normal -0.58291672 -0.737010523 -0.342087102
    outer loop
      vertex 0.127142986 -0.00216745046 0.936963818
      vertex 0.0672915176 0.00830055391 1.01639795
      vertex 0.0666146999 0.00913256651 1.01575872
    endloop
  endfacet
  facet normal 0.605282864 -0.11300017 -0.787948993
    outer loop
      vertex 0.129310887 -0.000270339726 0.938357079
      vertex 0.127819804 -0.00299946306 0.937603052
      vertex 0.127142986 -0.00216745046 0.936963818
    endloop
  endfacet
  facet normal -0.605282864 0.11300017 0.787948993
    outer loop
      vertex 0.0687826004 0.0110296772 1.01715198
      vertex 0.0666146999 0.00913256651 1.01575872
      vertex 0.0672915176 0.00830055391 1.01639795
    endloop
  endfacet
  facet normal -0.331103313 -0.935916971 -0.120125016
    outer loop
      vertex 0.127819804 -0.00299946306 0.937603052
      vertex 0.128723626 -0.00341599136 0.938357079
      vertex 0.0681953391 0.0078840256 1.01715198
    endloop
  endfacet
  facet normal -0.331103313 -0.935916971 -0.120125016
    outer loop
      vertex 0.127819804 -0.00299946306 0.937603052
      vertex 0.0681953391 0.0078840256 1.01715198
      vertex 0.0672915176 0.00830055391 1.01639795
    endloop
  endfacet
  facet normal 0.605282864 -0.11300017 -0.787948993
    outer loop
      vertex 0.129310887 -0.000270339726 0.938357079
      vertex 0.128723626 -0.00341599136 0.938357079
      vertex 0.127819804 -0.00299946306 0.937603052
    endloop
  endfacet
  facet normal -0.605282864 0.11300017 0.787948993
    outer loop
      vertex 0.0687826004 0.0110296772 1.01715198
      vertex 0.0672915176 0.00830055391 1.01639795
      vertex 0.0681953391 0.0078840256 1.01715198
    endloop
  endfacet
  facet normal -0.0288824279 -0.992338544 0.120125016
    outer loop
      vertex 0.128723626 -0.00341599136 0.938357079
      vertex 0.129716852 -0.00335362273 0.939111107
      vertex 0.0691885659 0.00794639424 1.01790601
    endloop
  endfacet
  facet normal -0.0288824279 -0.992338544 0.120125016
    outer loop
      vertex 0.128723626 -0.00341599136 0.938357079
      vertex 0.0691885659 0.00794639424 1.01790601
      vertex 0.0681953391 0.0078840256 1.01715198
    endloop
  endfacet
  facet normal 0.605282864 -0.11300017 -0.787948993
    outer loop
      vertex 0.129310887 -0.000270339726 0.938357079
      vertex 0.129716852 -0.00335362273 0.939111107
      vertex 0.128723626 -0.00341599136 0.938357079
    endloop
  endfacet
  facet normal -0.605282864 0.11300017 0.787948993
    outer loop
      vertex 0.0687826004 0.0110296772 1.01715198
      vertex 0.0681953391 0.0078840256 1.01715198
      vertex 0.0691885659 0.00794639424 1.01790601
    endloop
  endfacet
  facet normal 0.277735545 -0.897685569 0.342087102
    outer loop
      vertex 0.129716852 -0.00335362273 0.939111107
      vertex 0.130648274 -0.0028218522 0.939750341
      vertex 0.0701199881 0.00847816477 1.01854524
    endloop
  endfacet
  facet normal 0.277735545 -0.897685569 0.342087102
    outer loop
      vertex 0.129716852 -0.00335362273 0.939111107
      vertex 0.0701199881 0.00847816477 1.01854524
      vertex 0.0691885659 0.00794639424 1.01790601
    endloop
  endfacet
  facet normal 0.605282864 -0.11300017 -0.787948993
    outer loop
      vertex 0.129310887 -0.000270339726 0.938357079
      vertex 0.130648274 -0.0028218522 0.939750341
      vertex 0.129716852 -0.00335362273 0.939111107
    endloop
  endfacet
  facet normal -0.605282864 0.11300017 0.787948993
    outer loop
      vertex 0.0687826004 0.0110296772 1.01715198
      vertex 0.0691885659 0.00794639424 1.01790601
      vertex 0.0701199881 0.00847816477 1.01854524
    endloop
  endfacet
  facet normal 0.542070799 -0.666368104 0.511969529
    outer loop
      vertex 0.130648274 -0.0028218522 0.939750341
      vertex 0.131376092 -0.00190163703 0.940177464
      vertex 0.0708478051 0.00939837994 1.01897236
    endloop
  endfacet
  facet normal 0.542070799 -0.666368104 0.511969529
    outer loop
      vertex 0.130648274 -0.0028218522 0.939750341
      vertex 0.0708478051 0.00939837994 1.01897236
      vertex 0.0701199881 0.00847816477 1.01854524
    endloop
  endfacet
  facet normal 0.605282864 -0.11300017 -0.787948993
    outer loop
      vertex 0.129310887 -0.000270339726 0.938357079
      vertex 0.131376092 -0.00190163703 0.940177464
      vertex 0.130648274 -0.0028218522 0.939750341
    endloop
  endfacet
  facet normal -0.605282864 0.11300017 0.787948993
    outer loop
      vertex 0.0687826004 0.0110296772 1.01715198
      vertex 0.0701199881 0.00847816477 1.01854524
      vertex 0.0708478051 0.00939837994 1.01897236
    endloop
  endfacet
  facet normal 0.723880688 -0.333602136 0.603909235
    outer loop
      vertex 0.131376092 -0.00190163703 0.940177464
      vertex 0.1317895 -0.000733071634 0.940327449
      vertex 0.0712612134 0.0105669453 1.01912235
    endloop
  endfacet
  facet normal 0.723880688 -0.333602136 0.603909235
    outer loop
      vertex 0.131376092 -0.00190163703 0.940177464
      vertex 0.0712612134 0.0105669453 1.01912235
      vertex 0.0708478051 0.00939837994 1.01897236
    endloop
  endfacet
  facet normal 0.605282864 -0.11300017 -0.787948993
    outer loop
      vertex 0.129310887 -0.000270339726 0.938357079
      vertex 0.1317895 -0.000733071634 0.940327449
      vertex 0.131376092 -0.00190163703 0.940177464
    endloop
  endfacet
  facet normal -0.605282864 0.11300017 0.787948993
    outer loop
      vertex 0.0687826004 0.0110296772 1.01715198
      vertex 0.0708478051 0.00939837994 1.01897236
      vertex 0.0712612134 0.0105669453 1.01912235
    endloop
  endfacet
  facet normal 0.795486304 0.0499517336 0.603909235
    outer loop
      vertex 0.1317895 -0.000733071634 0.940327449
      vertex 0.131825562 0.000505940501 0.940177464
      vertex 0.0712972754 0.0118059575 1.01897236
    endloop
  endfacet
  facet normal 0.795486304 0.0499517336 0.603909235
    outer loop
      vertex 0.1317895 -0.000733071634 0.940327449
      vertex 0.0712972754 0.0118059575 1.01897236
      vertex 0.0712612134 0.0105669453 1.01912235
    endloop
  endfacet
  facet normal 0.605282864 -0.11300017 -0.787948993
    outer loop
      vertex 0.129310887 -0.000270339726 0.938357079
      vertex 0.131825562 0.000505940501 0.940177464
      vertex 0.1317895 -0.000733071634 0.940327449
    endloop
  endfacet
  facet normal -0.605282864 0.11300017 0.787948993
    outer loop
      vertex 0.0687826004 0.0110296772 1.01715198
      vertex 0.0712612134 0.0105669453 1.01912235
      vertex 0.0712972754 0.0118059575 1.01897236
    endloop
  endfacet
  facet normal 0.745986341 0.425900904 0.511969529
    outer loop
      vertex 0.131825562 0.000505940501 0.940177464
      vertex 0.131478787 0.00162677101 0.939750341
      vertex 0.0709505009 0.012926788 1.01854524
    endloop
  endfacet
  facet normal 0.745986341 0.425900904 0.511969529
    outer loop
      vertex 0.131825562 0.000505940501 0.940177464
      vertex 0.0709505009 0.012926788 1.01854524
      vertex 0.0712972754 0.0118059575 1.01897236
    endloop
  endfacet
  facet normal 0.605282864 -0.11300017 -0.787948993
    outer loop
      vertex 0.129310887 -0.000270339726 0.938357079
      vertex 0.131478787 0.00162677101 0.939750341
      vertex 0.131825562 0.000505940501 0.940177464
    endloop
  endfacet
  facet normal -0.605282864 0.11300017 0.787948993
    outer loop
      vertex 0.0687826004 0.0110296772 1.01715198
      vertex 0.0712972754 0.0118059575 1.01897236
      vertex 0.0709505009 0.012926788 1.01854524
    endloop
  endfacet
  facet normal 0.58291672 0.737010523 0.342087102
    outer loop
      vertex 0.131478787 0.00162677101 0.939750341
      vertex 0.13080197 0.0024587836 0.939111107
      vertex 0.0702736832 0.0137588006 1.01790601
    endloop
  endfacet
  facet normal 0.58291672 0.737010523 0.342087102
    outer loop
      vertex 0.131478787 0.00162677101 0.939750341
      vertex 0.0702736832 0.0137588006 1.01790601
      vertex 0.0709505009 0.012926788 1.01854524
    endloop
  endfacet
  facet normal 0.605282864 -0.11300017 -0.787948993
    outer loop
      vertex 0.129310887 -0.000270339726 0.938357079
      vertex 0.13080197 0.0024587836 0.939111107
      vertex 0.131478787 0.00162677101 0.939750341
    endloop
  endfacet
  facet normal -0.605282864 0.11300017 0.787948993
    outer loop
      vertex 0.0687826004 0.0110296772 1.01715198
      vertex 0.0709505009 0.012926788 1.01854524
      vertex 0.0702736832 0.0137588006 1.01790601
    endloop
  endfacet
  facet normal 0.331103313 0.935916971 0.120125016
    outer loop
      vertex 0.13080197 0.0024587836 0.939111107
      vertex 0.129898148 0.00287531191 0.938357079
      vertex 0.0693698616 0.0141753289 1.01715198
    endloop
  endfacet
  facet normal 0.331103313 0.935916971 0.120125016
    outer loop
      vertex 0.13080197 0.0024587836 0.939111107
      vertex 0.0693698616 0.0141753289 1.01715198
      vertex 0.0702736832 0.0137588006 1.01790601
    endloop
  endfacet
  facet normal 0.605282864 -0.11300017 -0.787948993
    outer loop
      vertex 0.129310887 -0.000270339726 0.938357079
      vertex 0.129898148 0.00287531191 0.938357079
      vertex 0.13080197 0.0024587836 0.939111107
    endloop
  endfacet
  facet normal -0.605282864 0.11300017 0.787948993
    outer loop
      vertex 0.0687826004 0.0110296772 1.01715198
      vertex 0.0702736832 0.0137588006 1.01790601
      vertex 0.0693698616 0.0141753289 1.01715198
    endloop
  endfacet
  facet normal 0.785780662 0.592177008 -0.178536112
    outer loop
      vertex 0.223940808 0.0678665838 1.01442006
      vertex 0.224086286 0.0673356703 1.01329938
      vertex 0.132971558 0.170008342 0.952830969
    endloop
  endfacet
  facet normal 0.785780662 0.592177008 -0.178536112
    outer loop
      vertex 0.223940808 0.0678665838 1.01442006
      vertex 0.132971558 0.170008342 0.952830969
      vertex 0.13282608 0.170539256 0.953951645
    endloop
  endfacet
  facet normal 0.607431516 -0.684484479 0.40312275
    outer loop
      vertex 0.221547364 0.0657425719 1.01442006
      vertex 0.224086286 0.0673356703 1.01329938
      vertex 0.223940808 0.0678665838 1.01442006
    endloop
  endfacet
  facet normal -0.607431516 0.684484479 -0.40312275
    outer loop
      vertex 0.130432637 0.168415244 0.953951645
      vertex 0.13282608 0.170539256 0.953951645
      vertex 0.132971558 0.170008342 0.952830969
    endloop
  endfacet
  facet normal 0.770554964 0.384377664 -0.50842783
    outer loop
      vertex 0.224086286 0.0673356703 1.01329938
      vertex 0.223845236 0.066562222 1.01234932
      vertex 0.132730508 0.169234894 0.951880906
    endloop
  endfacet
  facet normal 0.770554964 0.384377664 -0.50842783
    outer loop
      vertex 0.224086286 0.0673356703 1.01329938
      vertex 0.132730508 0.169234894 0.951880906
      vertex 0.132971558 0.170008342 0.952830969
    endloop
  endfacet
  facet normal 0.607431516 -0.684484479 0.40312275
    outer loop
      vertex 0.221547364 0.0657425719 1.01442006
      vertex 0.223845236 0.066562222 1.01234932
      vertex 0.224086286 0.0673356703 1.01329938
    endloop
  endfacet
  facet normal -0.607431516 0.684484479 -0.40312275
    outer loop
      vertex 0.130432637 0.168415244 0.953951645
      vertex 0.132971558 0.170008342 0.952830969
      vertex 0.132730508 0.169234894 0.951880906
    endloop
  endfacet
  facet normal 0.638019258 0.118060306 -0.76091602
    outer loop
      vertex 0.223845236 0.066562222 1.01234932
      vertex 0.223254356 0.0656639893 1.01171451
      vertex 0.132139628 0.168336661 0.951246094
    endloop
  endfacet
  facet normal 0.638019258 0.118060306 -0.76091602
    outer loop
      vertex 0.223845236 0.066562222 1.01234932
      vertex 0.132139628 0.168336661 0.951246094
      vertex 0.132730508 0.169234894 0.951880906
    endloop
  endfacet
  facet normal 0.607431516 -0.684484479 0.40312275
    outer loop
      vertex 0.221547364 0.0657425719 1.01442006
      vertex 0.223254356 0.0656639893 1.01171451
      vertex 0.223845236 0.066562222 1.01234932
    endloop
  endfacet
  facet normal -0.607431516 0.684484479 -0.40312275
    outer loop
      vertex 0.130432637 0.168415244 0.953951645
      vertex 0.132730508 0.169234894 0.951880906
      vertex 0.132139628 0.168336661 0.951246094
    endloop
  endfacet
  facet normal 0.408350904 -0.166230664 -0.897561644
    outer loop
      vertex 0.223254356 0.0656639893 1.01171451
      vertex 0.222403602 0.0647777202 1.01149159
      vertex 0.131288874 0.167450392 0.951023178
    endloop
  endfacet
  facet normal 0.408350904 -0.166230664 -0.897561644
    outer loop
      vertex 0.223254356 0.0656639893 1.01171451
      vertex 0.131288874 0.167450392 0.951023178
      vertex 0.132139628 0.168336661 0.951246094
    endloop
  endfacet
  facet normal 0.607431516 -0.684484479 0.40312275
    outer loop
      vertex 0.221547364 0.0657425719 1.01442006
      vertex 0.222403602 0.0647777202 1.01149159
      vertex 0.223254356 0.0656639893 1.01171451
    endloop
  endfacet
  facet normal -0.607431516 0.684484479 -0.40312275
    outer loop
      vertex 0.130432637 0.168415244 0.953951645
      vertex 0.132139628 0.168336661 0.951246094
      vertex 0.131288874 0.167450392 0.951023178
    endloop
  endfacet
  facet normal 0.116514826 -0.425214522 -0.897561644
    outer loop
      vertex 0.222403602 0.0647777202 1.01149159
      vertex 0.221422493 0.064038341 1.01171451
      vertex 0.130307766 0.166711013 0.951246094
    endloop
  endfacet
  facet normal 0.116514826 -0.425214522 -0.897561644
    outer loop
      vertex 0.222403602 0.0647777202 1.01149159
      vertex 0.130307766 0.166711013 0.951246094
      vertex 0.131288874 0.167450392 0.951023178
    endloop
  endfacet
  facet normal 0.607431516 -0.684484479 0.40312275
    outer loop
      vertex 0.221547364 0.0657425719 1.01442006
      vertex 0.221422493 0.064038341 1.01171451
      vertex 0.222403602 0.0647777202 1.01149159
    endloop
  endfacet
  facet normal -0.607431516 0.684484479 -0.40312275
    outer loop
      vertex 0.130432637 0.168415244 0.953951645
      vertex 0.131288874 0.167450392 0.951023178
      vertex 0.130307766 0.166711013 0.951246094
    endloop
  endfacet
  facet normal -0.193059577 -0.619463324 -0.76091602
    outer loop
      vertex 0.221422493 0.064038341 1.01171451
      vertex 0.220460395 0.0635584155 1.01234932
      vertex 0.129345668 0.166231087 0.951880906
    endloop
  endfacet
  facet normal -0.193059577 -0.619463324 -0.76091602
    outer loop
      vertex 0.221422493 0.064038341 1.01171451
      vertex 0.129345668 0.166231087 0.951880906
      vertex 0.130307766 0.166711013 0.951246094
    endloop
  endfacet
  facet normal 0.607431516 -0.684484479 0.40312275
    outer loop
      vertex 0.221547364 0.0657425719 1.01442006
      vertex 0.220460395 0.0635584155 1.01234932
      vertex 0.221422493 0.064038341 1.01171451
    endloop
  endfacet
  facet normal -0.607431516 0.684484479 -0.40312275
    outer loop
      vertex 0.130432637 0.168415244 0.953951645
      vertex 0.130307766 0.166711013 0.951246094
      vertex 0.129345668 0.166231087 0.951880906
    endloop
  endfacet
  facet normal -0.473242411 -0.71940445 -0.50842783
    outer loop
      vertex 0.220460395 0.0635584155 1.01234932
      vertex 0.219663778 0.063411008 1.01329938
      vertex 0.128549051 0.16608368 0.952830969
    endloop
  endfacet
  facet normal -0.473242411 -0.71940445 -0.50842783
    outer loop
      vertex 0.220460395 0.0635584155 1.01234932
      vertex 0.128549051 0.16608368 0.952830969
      vertex 0.129345668 0.166231087 0.951880906
    endloop
  endfacet
  facet normal 0.607431516 -0.684484479 0.40312275
    outer loop
      vertex 0.221547364 0.0657425719 1.01442006
      vertex 0.219663778 0.063411008 1.01329938
      vertex 0.220460395 0.0635584155 1.01234932
    endloop
  endfacet
  facet normal -0.607431516 0.684484479 -0.40312275
    outer loop
      vertex 0.130432637 0.168415244 0.953951645
      vertex 0.129345668 0.166231087 0.951880906
      vertex 0.128549051 0.16608368 0.952830969
    endloop
  endfacet
  facet normal -0.681378377 -0.70982277 -0.178536112
    outer loop
      vertex 0.219663778 0.063411008 1.01329938
      vertex 0.21915392 0.0636185599 1.01442006
      vertex 0.128039193 0.166291232 0.953951645
    endloop
  endfacet
  facet normal -0.681378377 -0.70982277 -0.178536112
    outer loop
      vertex 0.219663778 0.063411008 1.01329938
      vertex 0.128039193 0.166291232 0.953951645
      vertex 0.128549051 0.16608368 0.952830969
    endloop
  endfacet
  facet normal 0.607431516 -0.684484479 0.40312275
    outer loop
      vertex 0.221547364 0.0657425719 1.01442006
      vertex 0.21915392 0.0636185599 1.01442006
      vertex 0.219663778 0.063411008 1.01329938
    endloop
  endfacet
  facet normal -0.607431516 0.684484479 -0.40312275
    outer loop
      vertex 0.130432637 0.168415244 0.953951645
      vertex 0.128549051 0.16608368 0.952830969
      vertex 0.128039193 0.166291232 0.953951645
    endloop
  endfacet
  facet normal -0.785780662 -0.592177008 0.178536112
    outer loop
      vertex 0.21915392 0.0636185599 1.01442006
      vertex 0.219008442 0.0641494734 1.01554073
      vertex 0.127893715 0.166822145 0.955072321
    endloop
  endfacet
  facet normal -0.785780662 -0.592177008 0.178536112
    outer loop
      vertex 0.21915392 0.0636185599 1.01442006
      vertex 0.127893715 0.166822145 0.955072321
      vertex 0.128039193 0.166291232 0.953951645
    endloop
  endfacet
  facet normal 0.607431516 -0.684484479 0.40312275
    outer loop
      vertex 0.221547364 0.0657425719 1.01442006
      vertex 0.219008442 0.0641494734 1.01554073
      vertex 0.21915392 0.0636185599 1.01442006
    endloop
  endfacet
  facet normal -0.607431516 0.684484479 -0.40312275
    outer loop
      vertex 0.130432637 0.168415244 0.953951645
      vertex 0.128039193 0.166291232 0.953951645
      vertex 0.127893715 0.166822145 0.955072321
    endloop
  endfacet
  facet normal -0.770554964 -0.384377664 0.50842783
    outer loop
      vertex 0.219008442 0.0641494734 1.01554073
      vertex 0.219249492 0.0649229218 1.0164908
      vertex 0.128134765 0.167595594 0.956022384
    endloop
  endfacet
  facet normal -0.770554964 -0.384377664 0.50842783
    outer loop
      vertex 0.219008442 0.0641494734 1.01554073
      vertex 0.128134765 0.167595594 0.956022384
      vertex 0.127893715 0.166822145 0.955072321
    endloop
  endfacet
  facet normal 0.607431516 -0.684484479 0.40312275
    outer loop
      vertex 0.221547364 0.0657425719 1.01442006
      vertex 0.219249492 0.0649229218 1.0164908
      vertex 0.219008442 0.0641494734 1.01554073
    endloop
  endfacet
  facet normal -0.607431516 0.684484479 -0.40312275
    outer loop
      vertex 0.130432637 0.168415244 0.953951645
      vertex 0.127893715 0.166822145 0.955072321
      vertex 0.128134765 0.167595594 0.956022384
    endloop
  endfacet
  facet normal -0.638019258 -0.118060306 0.76091602
    outer loop
      vertex 0.219249492 0.0649229218 1.0164908
      vertex 0.219840372 0.0658211544 1.01712561
      vertex 0.128725645 0.168493826 0.956657196
    endloop
  endfacet
  facet normal -0.638019258 -0.118060306 0.76091602
    outer loop
      vertex 0.219249492 0.0649229218 1.0164908
      vertex 0.128725645 0.168493826 0.956657196
      vertex 0.128134765 0.167595594 0.956022384
    endloop
  endfacet
  facet normal 0.607431516 -0.684484479 0.40312275
    outer loop
      vertex 0.221547364 0.0657425719 1.01442006
      vertex 0.219840372 0.0658211544 1.01712561
      vertex 0.219249492 0.0649229218 1.0164908
    endloop
  endfacet
  facet normal -0.607431516 0.684484479 -0.40312275
    outer loop
      vertex 0.130432637 0.168415244 0.953951645
      vertex 0.128134765 0.167595594 0.956022384
      vertex 0.128725645 0.168493826 0.956657196
    endloop
  endfacet
  facet normal -0.408350904 0.166230664 0.897561644
    outer loop
      vertex 0.219840372 0.0658211544 1.01712561
      vertex 0.220691127 0.0667074235 1.01734852
      vertex 0.129576399 0.169380095 0.956880112
    endloop
  endfacet
  facet normal -0.408350904 0.166230664 0.897561644
    outer loop
      vertex 0.219840372 0.0658211544 1.01712561
      vertex 0.129576399 0.169380095 0.956880112
      vertex 0.128725645 0.168493826 0.956657196
    endloop
  endfacet
  facet normal 0.607431516 -0.684484479 0.40312275
    outer loop
      vertex 0.221547364 0.0657425719 1.01442006
      vertex 0.220691127 0.0667074235 1.01734852
      vertex 0.219840372 0.0658211544 1.01712561
    endloop
  endfacet
  facet normal -0.607431516 0.684484479 -0.40312275
    outer loop
      vertex 0.130432637 0.168415244 0.953951645
      vertex 0.128725645 0.168493826 0.956657196
      vertex 0.129576399 0.169380095 0.956880112
    endloop
  endfacet
  facet normal -0.116514826 0.425214522 0.897561644
    outer loop
      vertex 0.220691127 0.0667074235 1.01734852
      vertex 0.221672235 0.0674468027 1.01712561
      vertex 0.130557508 0.170119475 0.956657196
    endloop
  endfacet
  facet normal -0.116514826 0.425214522 0.897561644
    outer loop
      vertex 0.220691127 0.0667074235 1.01734852
      vertex 0.130557508 0.170119475 0.956657196
      vertex 0.129576399 0.169380095 0.956880112
    endloop
  endfacet
  facet normal 0.607431516 -0.684484479 0.40312275
    outer loop
      vertex 0.221547364 0.0657425719 1.01442006
      vertex 0.221672235 0.0674468027 1.01712561
      vertex 0.220691127 0.0667074235 1.01734852
    endloop
  endfacet
  facet normal -0.607431516 0.684484479 -0.40312275
    outer loop
      vertex 0.130432637 0.168415244 0.953951645
      vertex 0.129576399 0.169380095 0.956880112
      vertex 0.130557508 0.170119475 0.956657196
    endloop
  endfacet
  facet normal 0.193059577 0.619463324 0.76091602
    outer loop
      vertex 0.221672235 0.0674468027 1.01712561
      vertex 0.222634333 0.0679267282 1.0164908
      vertex 0.131519606 0.1705994 0.956022384
    endloop
  endfacet
  facet normal 0.193059577 0.619463324 0.76091602
    outer loop
      vertex 0.221672235 0.0674468027 1.01712561
      vertex 0.131519606 0.1705994 0.956022384
      vertex 0.130557508 0.170119475 0.956657196
    endloop
  endfacet
  facet normal 0.607431516 -0.684484479 0.40312275
    outer loop
      vertex 0.221547364 0.0657425719 1.01442006
      vertex 0.222634333 0.0679267282 1.0164908
      vertex 0.221672235 0.0674468027 1.01712561
    endloop
  endfacet
  facet normal -0.607431516 0.684484479 -0.40312275
    outer loop
      vertex 0.130432637 0.168415244 0.953951645
      vertex 0.130557508 0.170119475 0.956657196
      vertex 0.131519606 0.1705994 0.956022384
    endloop
  endfacet
  facet normal 0.473242411 0.71940445 0.50842783
    outer loop
      vertex 0.222634333 0.0679267282 1.0164908
      vertex 0.22343095 0.0680741358 1.01554073
      vertex 0.132316222 0.170746808 0.955072321
    endloop
  endfacet
  facet normal 0.473242411 0.71940445 0.50842783
    outer loop
      vertex 0.222634333 0.0679267282 1.0164908
      vertex 0.132316222 0.170746808 0.955072321
      vertex 0.131519606 0.1705994 0.956022384
    endloop
  endfacet
  facet normal 0.607431516 -0.684484479 0.40312275
    outer loop
      vertex 0.221547364 0.0657425719 1.01442006
      vertex 0.22343095 0.0680741358 1.01554073
      vertex 0.222634333 0.0679267282 1.0164908
    endloop
  endfacet
  facet normal -0.607431516 0.684484479 -0.40312275
    outer loop
      vertex 0.130432637 0.168415244 0.953951645
      vertex 0.131519606 0.1705994 0.956022384
      vertex 0.132316222 0.170746808 0.955072321
    endloop
  endfacet
  facet normal 0.681378377 0.70982277 0.178536112
    outer loop
      vertex 0.22343095 0.0680741358 1.01554073
      vertex 0.223940808 0.0678665838 1.01442006
      vertex 0.13282608 0.170539256 0.953951645
    endloop
  endfacet
  facet normal 0.681378377 0.70982277 0.178536112
    outer loop
      vertex 0.22343095 0.0680741358 1.01554073
      vertex 0.13282608 0.170539256 0.953951645
      vertex 0.132316222 0.170746808 0.955072321
    endloop
  endfacet
  facet normal 0.607431516 -0.684484479 0.40312275
    outer loop
      vertex 0.221547364 0.0657425719 1.01442006
      vertex 0.223940808 0.0678665838 1.01442006
      vertex 0.22343095 0.0680741358 1.01554073
    endloop
  endfacet
  facet normal -0.607431516 0.684484479 -0.40312275
    outer loop
      vertex 0.130432637 0.168415244 0.953951645
      vertex 0.132316222 0.170746808 0.955072321
      vertex 0.13282608 0.170539256 0.953951645
    endloop
  endfacet
  facet normal 0.785780662 0.592177008 -0.178536112
    outer loop
      vertex 0.20498994 0.072098877 1.03728821
      vertex 0.205135418 0.0715679634 1.03616753
      vertex 0.11402069 0.174240635 0.97569912
    endloop
  endfacet
  facet normal 0.785780662 0.592177008 -0.178536112
    outer loop
      vertex 0.20498994 0.072098877 1.03728821
      vertex 0.11402069 0.174240635 0.97569912
      vertex 0.113875212 0.174771549 0.976819795
    endloop
  endfacet
  facet normal 0.607431516 -0.684484479 0.40312275
    outer loop
      vertex 0.202596496 0.069974865 1.03728821
      vertex 0.205135418 0.0715679634 1.03616753
      vertex 0.20498994 0.072098877 1.03728821
    endloop
  endfacet
  facet normal -0.607431516 0.684484479 -0.40312275
    outer loop
      vertex 0.111481769 0.172647537 0.976819795
      vertex 0.113875212 0.174771549 0.976819795
      vertex 0.11402069 0.174240635 0.97569912
    endloop
  endfacet
  facet normal 0.770554964 0.384377664 -0.50842783
    outer loop
      vertex 0.205135418 0.0715679634 1.03616753
      vertex 0.204894368 0.0707945151 1.03521747
      vertex 0.11377964 0.173467187 0.974749057
    endloop
  endfacet
  facet normal 0.770554964 0.384377664 -0.50842783
    outer loop
      vertex 0.205135418 0.0715679634 1.03616753
      vertex 0.11377964 0.173467187 0.974749057
      vertex 0.11402069 0.174240635 0.97569912
    endloop
  endfacet
  facet normal 0.607431516 -0.684484479 0.40312275
    outer loop
      vertex 0.202596496 0.069974865 1.03728821
      vertex 0.204894368 0.0707945151 1.03521747
      vertex 0.205135418 0.0715679634 1.03616753
    endloop
  endfacet
  facet normal -0.607431516 0.684484479 -0.40312275
    outer loop
      vertex 0.111481769 0.172647537 0.976819795
      vertex 0.11402069 0.174240635 0.97569912
      vertex 0.11377964 0.173467187 0.974749057
    endloop
  endfacet
  facet normal 0.638019258 0.118060306 -0.76091602
    outer loop
      vertex 0.204894368 0.0707945151 1.03521747
      vertex 0.204303488 0.0698962825 1.03458266
      vertex 0.11318876 0.172568954 0.974114245
    endloop
  endfacet
  facet normal 0.638019258 0.118060306 -0.76091602
    outer loop
      vertex 0.204894368 0.0707945151 1.03521747
      vertex 0.11318876 0.172568954 0.974114245
      vertex 0.11377964 0.173467187 0.974749057
    endloop
  endfacet
  facet normal 0.607431516 -0.684484479 0.40312275
    outer loop
      vertex 0.202596496 0.069974865 1.03728821
      vertex 0.204303488 0.0698962825 1.03458266
      vertex 0.204894368 0.0707945151 1.03521747
    endloop
  endfacet
  facet normal -0.607431516 0.684484479 -0.40312275
    outer loop
      vertex 0.111481769 0.172647537 0.976819795
      vertex 0.11377964 0.173467187 0.974749057
      vertex 0.11318876 0.172568954 0.974114245
    endloop
  endfacet
  facet normal 0.408350904 -0.166230664 -0.897561644
    outer loop
      vertex 0.204303488 0.0698962825 1.03458266
      vertex 0.203452734 0.0690100134 1.03435974
      vertex 0.112338006 0.171682685 0.973891328
    endloop
  endfacet
  facet normal 0.408350904 -0.166230664 -0.897561644
    outer loop
      vertex 0.204303488 0.0698962825 1.03458266
      vertex 0.112338006 0.171682685 0.973891328
      vertex 0.11318876 0.172568954 0.974114245
    endloop
  endfacet
  facet normal 0.607431516 -0.684484479 0.40312275
    outer loop
      vertex 0.202596496 0.069974865 1.03728821
      vertex 0.203452734 0.0690100134 1.03435974
      vertex 0.204303488 0.0698962825 1.03458266
    endloop
  endfacet
  facet normal -0.607431516 0.684484479 -0.40312275
    outer loop
      vertex 0.111481769 0.172647537 0.976819795
      vertex 0.11318876 0.172568954 0.974114245
      vertex 0.112338006 0.171682685 0.973891328
    endloop
  endfacet
  facet normal 0.116514826 -0.425214522 -0.897561644
    outer loop
      vertex 0.203452734 0.0690100134 1.03435974
      vertex 0.202471625 0.0682706342 1.03458266
      vertex 0.111356898 0.170943306 0.974114245
    endloop
  endfacet
  facet normal 0.116514826 -0.425214522 -0.897561644
    outer loop
      vertex 0.203452734 0.0690100134 1.03435974
      vertex 0.111356898 0.170943306 0.974114245
      vertex 0.112338006 0.171682685 0.973891328
    endloop
  endfacet
  facet normal 0.607431516 -0.684484479 0.40312275
    outer loop
      vertex 0.202596496 0.069974865 1.03728821
      vertex 0.202471625 0.0682706342 1.03458266
      vertex 0.203452734 0.0690100134 1.03435974
    endloop
  endfacet
  facet normal -0.607431516 0.684484479 -0.40312275
    outer loop
      vertex 0.111481769 0.172647537 0.976819795
      vertex 0.112338006 0.171682685 0.973891328
      vertex 0.111356898 0.170943306 0.974114245
    endloop
  endfacet
  facet normal -0.193059577 -0.619463324 -0.76091602
    outer loop
      vertex 0.202471625 0.0682706342 1.03458266
      vertex 0.201509527 0.0677907086 1.03521747
      vertex 0.1103948 0.17046338 0.974749057
    endloop
  endfacet
  facet normal -0.193059577 -0.619463324 -0.76091602
    outer loop
      vertex 0.202471625 0.0682706342 1.03458266
      vertex 0.1103948 0.17046338 0.974749057
      vertex 0.111356898 0.170943306 0.974114245
    endloop
  endfacet
  facet normal 0.607431516 -0.684484479 0.40312275
    outer loop
      vertex 0.202596496 0.069974865 1.03728821
      vertex 0.201509527 0.0677907086 1.03521747
      vertex 0.202471625 0.0682706342 1.03458266
    endloop
  endfacet
  facet normal -0.607431516 0.684484479 -0.40312275
    outer loop
      vertex 0.111481769 0.172647537 0.976819795
      vertex 0.111356898 0.170943306 0.974114245
      vertex 0.1103948 0.17046338 0.974749057
    endloop
  endfacet
  facet normal -0.473242411 -0.71940445 -0.50842783
    outer loop
      vertex 0.201509527 0.0677907086 1.03521747
      vertex 0.20071291 0.0676433011 1.03616753
      vertex 0.109598183 0.170315973 0.97569912
    endloop
  endfacet
  facet normal -0.473242411 -0.71940445 -0.50842783
    outer loop
      vertex 0.201509527 0.0677907086 1.03521747
      vertex 0.109598183 0.170315973 0.97569912
      vertex 0.1103948 0.17046338 0.974749057
    endloop
  endfacet
  facet normal 0.607431516 -0.684484479 0.40312275
    outer loop
      vertex 0.202596496 0.069974865 1.03728821
      vertex 0.20071291 0.0676433011 1.03616753
      vertex 0.201509527 0.0677907086 1.03521747
    endloop
  endfacet
  facet normal -0.607431516 0.684484479 -0.40312275
    outer loop
      vertex 0.111481769 0.172647537 0.976819795
      vertex 0.1103948 0.17046338 0.974749057
      vertex 0.109598183 0.170315973 0.97569912
    endloop
  endfacet
  facet normal -0.681378377 -0.70982277 -0.178536112
    outer loop
      vertex 0.20071291 0.0676433011 1.03616753
      vertex 0.200203052 0.0678508531 1.03728821
      vertex 0.109088325 0.170523525 0.976819795
    endloop
  endfacet
  facet normal -0.681378377 -0.70982277 -0.178536112
    outer loop
      vertex 0.20071291 0.0676433011 1.03616753
      vertex 0.109088325 0.170523525 0.976819795
      vertex 0.109598183 0.170315973 0.97569912
    endloop
  endfacet
  facet normal 0.607431516 -0.684484479 0.40312275
    outer loop
      vertex 0.202596496 0.069974865 1.03728821
      vertex 0.200203052 0.0678508531 1.03728821
      vertex 0.20071291 0.0676433011 1.03616753
    endloop
  endfacet
  facet normal -0.607431516 0.684484479 -0.40312275
    outer loop
      vertex 0.111481769 0.172647537 0.976819795
      vertex 0.109598183 0.170315973 0.97569912
      vertex 0.109088325 0.170523525 0.976819795
    endloop
  endfacet
  facet normal -0.785780662 -0.592177008 0.178536112
    outer loop
      vertex 0.200203052 0.0678508531 1.03728821
      vertex 0.200057574 0.0683817666 1.03840888
      vertex 0.108942847 0.171054438 0.977940471
    endloop
  endfacet
  facet normal -0.785780662 -0.592177008 0.178536112
    outer loop
      vertex 0.200203052 0.0678508531 1.03728821
      vertex 0.108942847 0.171054438 0.977940471
      vertex 0.109088325 0.170523525 0.976819795
    endloop
  endfacet
  facet normal 0.607431516 -0.684484479 0.40312275
    outer loop
      vertex 0.202596496 0.069974865 1.03728821
      vertex 0.200057574 0.0683817666 1.03840888
      vertex 0.200203052 0.0678508531 1.03728821
    endloop
  endfacet
  facet normal -0.607431516 0.684484479 -0.40312275
    outer loop
      vertex 0.111481769 0.172647537 0.976819795
      vertex 0.109088325 0.170523525 0.976819795
      vertex 0.108942847 0.171054438 0.977940471
    endloop
  endfacet
  facet normal -0.770554964 -0.384377664 0.50842783
    outer loop
      vertex 0.200057574 0.0683817666 1.03840888
      vertex 0.200298624 0.0691552149 1.03935895
      vertex 0.109183897 0.171827887 0.978890534
    endloop
  endfacet
  facet normal -0.770554964 -0.384377664 0.50842783
    outer loop
      vertex 0.200057574 0.0683817666 1.03840888
      vertex 0.109183897 0.171827887 0.978890534
      vertex 0.108942847 0.171054438 0.977940471
    endloop
  endfacet
  facet normal 0.607431516 -0.684484479 0.40312275
    outer loop
      vertex 0.202596496 0.069974865 1.03728821
      vertex 0.200298624 0.0691552149 1.03935895
      vertex 0.200057574 0.0683817666 1.03840888
    endloop
  endfacet
  facet normal -0.607431516 0.684484479 -0.40312275
    outer loop
      vertex 0.111481769 0.172647537 0.976819795
      vertex 0.108942847 0.171054438 0.977940471
      vertex 0.109183897 0.171827887 0.978890534
    endloop
  endfacet
  facet normal -0.638019258 -0.118060306 0.76091602
    outer loop
      vertex 0.200298624 0.0691552149 1.03935895
      vertex 0.200889504 0.0700534475 1.03999376
      vertex 0.109774777 0.172726119 0.979525346
    endloop
  endfacet
  facet normal -0.638019258 -0.118060306 0.76091602
    outer loop
      vertex 0.200298624 0.0691552149 1.03935895
      vertex 0.109774777 0.172726119 0.979525346
      vertex 0.109183897 0.171827887 0.978890534
    endloop
  endfacet
  facet normal 0.607431516 -0.684484479 0.40312275
    outer loop
      vertex 0.202596496 0.069974865 1.03728821
      vertex 0.200889504 0.0700534475 1.03999376
      vertex 0.200298624 0.0691552149 1.03935895
    endloop
  endfacet
  facet normal -0.607431516 0.684484479 -0.40312275
    outer loop
      vertex 0.111481769 0.172647537 0.976819795
      vertex 0.109183897 0.171827887 0.978890534
      vertex 0.109774777 0.172726119 0.979525346
    endloop
  endfacet
  facet normal -0.408350904 0.166230664 0.897561644
    outer loop
      vertex 0.200889504 0.0700534475 1.03999376
      vertex 0.201740259 0.0709397167 1.04021667
      vertex 0.110625531 0.173612389 0.979748262
    endloop
  endfacet
  facet normal -0.408350904 0.166230664 0.897561644
    outer loop
      vertex 0.200889504 0.0700534475 1.03999376
      vertex 0.110625531 0.173612389 0.979748262
      vertex 0.109774777 0.172726119 0.979525346
    endloop
  endfacet
  facet normal 0.607431516 -0.684484479 0.40312275
    outer loop
      vertex 0.202596496 0.069974865 1.03728821
      vertex 0.201740259 0.0709397167 1.04021667
      vertex 0.200889504 0.0700534475 1.03999376
    endloop
  endfacet
  facet normal -0.607431516 0.684484479 -0.40312275
    outer loop
      vertex 0.111481769 0.172647537 0.976819795
      vertex 0.109774777 0.172726119 0.979525346
      vertex 0.110625531 0.173612389 0.979748262
    endloop
  endfacet
  facet normal -0.116514826 0.425214522 0.897561644
    outer loop
      vertex 0.201740259 0.0709397167 1.04021667
      vertex 0.202721367 0.0716790959 1.03999376
      vertex 0.11160664 0.174351768 0.979525346
    endloop
  endfacet
  facet normal -0.116514826 0.425214522 0.897561644
    outer loop
      vertex 0.201740259 0.0709397167 1.04021667
      vertex 0.11160664 0.174351768 0.979525346
      vertex 0.110625531 0.173612389 0.979748262
    endloop
  endfacet
  facet normal 0.607431516 -0.684484479 0.40312275
    outer loop
      vertex 0.202596496 0.069974865 1.03728821
      vertex 0.202721367 0.0716790959 1.03999376
      vertex 0.201740259 0.0709397167 1.04021667
    endloop
  endfacet
  facet normal -0.607431516 0.684484479 -0.40312275
    outer loop
      vertex 0.111481769 0.172647537 0.976819795
      vertex 0.110625531 0.173612389 0.979748262
      vertex 0.11160664 0.174351768 0.979525346
    endloop
  endfacet
  facet normal 0.193059577 0.619463324 0.76091602
    outer loop
      vertex 0.202721367 0.0716790959 1.03999376
      vertex 0.203683465 0.0721590214 1.03935895
      vertex 0.112568738 0.174831693 0.978890534
    endloop
  endfacet
  facet normal 0.193059577 0.619463324 0.76091602
    outer loop
      vertex 0.202721367 0.0716790959 1.03999376
      vertex 0.112568738 0.174831693 0.978890534
      vertex 0.11160664 0.174351768 0.979525346
    endloop
  endfacet
  facet normal 0.607431516 -0.684484479 0.40312275
    outer loop
      vertex 0.202596496 0.069974865 1.03728821
      vertex 0.203683465 0.0721590214 1.03935895
      vertex 0.202721367 0.0716790959 1.03999376
    endloop
  endfacet
  facet normal -0.607431516 0.684484479 -0.40312275
    outer loop
      vertex 0.111481769 0.172647537 0.976819795
      vertex 0.11160664 0.174351768 0.979525346
      vertex 0.112568738 0.174831693 0.978890534
    endloop
  endfacet
  facet normal 0.473242411 0.71940445 0.50842783
    outer loop
      vertex 0.203683465 0.0721590214 1.03935895
      vertex 0.204480082 0.0723064289 1.03840888
      vertex 0.113365354 0.174979101 0.977940471
    endloop
  endfacet
  facet normal 0.473242411 0.71940445 0.50842783
    outer loop
      vertex 0.203683465 0.0721590214 1.03935895
      vertex 0.113365354 0.174979101 0.977940471
      vertex 0.112568738 0.174831693 0.978890534
    endloop
  endfacet
  facet normal 0.607431516 -0.684484479 0.40312275
    outer loop
      vertex 0.202596496 0.069974865 1.03728821
      vertex 0.204480082 0.0723064289 1.03840888
      vertex 0.203683465 0.0721590214 1.03935895
    endloop
  endfacet
  facet normal -0.607431516 0.684484479 -0.40312275
    outer loop
      vertex 0.111481769 0.172647537 0.976819795
      vertex 0.112568738 0.174831693 0.978890534
      vertex 0.113365354 0.174979101 0.977940471
    endloop
  endfacet
  facet normal 0.681378377 0.70982277 0.178536112
    outer loop
      vertex 0.204480082 0.0723064289 1.03840888
      vertex 0.20498994 0.072098877 1.03728821
      vertex 0.113875212 0.174771549 0.976819795
    endloop
  endfacet
  facet normal 0.681378377 0.70982277 0.178536112
    outer loop
      vertex 0.204480082 0.0723064289 1.03840888
      vertex 0.113875212 0.174771549 0.976819795
      vertex 0.113365354 0.174979101 0.977940471
    endloop
  endfacet
  facet normal 0.607431516 -0.684484479 0.40312275
    outer loop
      vertex 0.202596496 0.069974865 1.03728821
      vertex 0.20498994 0.072098877 1.03728821
      vertex 0.204480082 0.0723064289 1.03840888
    endloop
  endfacet
  facet normal -0.607431516 0.684484479 -0.40312275
    outer loop
      vertex 0.111481769 0.172647537 0.976819795
      vertex 0.113365354 0.174979101 0.977940471
      vertex 0.113875212 0.174771549 0.976819795
    endloop
  endfacet
  facet normal -0.339483378 -0.932679812 -0.121899154
    outer loop
      vertex 0.276708048 0.300393381 1.12211122
      vertex 0.275817266 0.300817619 1.12134605
      vertex 0.33098648 0.28992063 1.0510779
    endloop
  endfacet
  facet normal -0.339483378 -0.932679812 -0.121899154
    outer loop
      vertex 0.276708048 0.300393381 1.12211122
      vertex 0.33098648 0.28992063 1.0510779
      vertex 0.331877262 0.289496391 1.05184306
    endloop
  endfacet
  facet normal -0.612991265 0.121077666 0.780757266
    outer loop
      vertex 0.27732813 0.303532728 1.12211122
      vertex 0.275817266 0.300817619 1.12134605
      vertex 0.276708048 0.300393381 1.12211122
    endloop
  endfacet
  facet normal 0.612991265 -0.121077666 -0.780757266
    outer loop
      vertex 0.332497344 0.292635738 1.05184306
      vertex 0.331877262 0.289496391 1.05184306
      vertex 0.33098648 0.28992063 1.0510779
    endloop
  endfacet
  facet normal -0.58666237 -0.731656672 -0.347139422
    outer loop
      vertex 0.275817266 0.300817619 1.12134605
      vertex 0.2751565 0.301655209 1.12069738
      vertex 0.330325713 0.290758219 1.05042923
    endloop
  endfacet
  facet normal -0.58666237 -0.731656672 -0.347139422
    outer loop
      vertex 0.275817266 0.300817619 1.12134605
      vertex 0.330325713 0.290758219 1.05042923
      vertex 0.33098648 0.28992063 1.0510779
    endloop
  endfacet
  facet normal -0.612991265 0.121077666 0.780757266
    outer loop
      vertex 0.27732813 0.303532728 1.12211122
      vertex 0.2751565 0.301655209 1.12069738
      vertex 0.275817266 0.300817619 1.12134605
    endloop
  endfacet
  facet normal 0.612991265 -0.121077666 -0.780757266
    outer loop
      vertex 0.332497344 0.292635738 1.05184306
      vertex 0.33098648 0.28992063 1.0510779
      vertex 0.330325713 0.290758219 1.05042923
    endloop
  endfacet
  facet normal -0.744527334 -0.419245436 -0.519530859
    outer loop
      vertex 0.2751565 0.301655209 1.12069738
      vertex 0.274826344 0.302778633 1.12026395
      vertex 0.329995558 0.291881643 1.0499958
    endloop
  endfacet
  facet normal -0.744527334 -0.419245436 -0.519530859
    outer loop
      vertex 0.2751565 0.301655209 1.12069738
      vertex 0.329995558 0.291881643 1.0499958
      vertex 0.330325713 0.290758219 1.05042923
    endloop
  endfacet
  facet normal -0.612991265 0.121077666 0.780757266
    outer loop
      vertex 0.27732813 0.303532728 1.12211122
      vertex 0.274826344 0.302778633 1.12026395
      vertex 0.2751565 0.301655209 1.12069738
    endloop
  endfacet
  facet normal 0.612991265 -0.121077666 -0.780757266
    outer loop
      vertex 0.332497344 0.292635738 1.05184306
      vertex 0.330325713 0.290758219 1.05042923
      vertex 0.329995558 0.291881643 1.0499958
    endloop
  endfacet
  facet normal -0.789044761 -0.0430078829 -0.612828433
    outer loop
      vertex 0.274826344 0.302778633 1.12026395
      vertex 0.274877062 0.304016861 1.12011175
      vertex 0.330046276 0.293119871 1.04984359
    endloop
  endfacet
  facet normal -0.789044761 -0.0430078829 -0.612828433
    outer loop
      vertex 0.274826344 0.302778633 1.12026395
      vertex 0.330046276 0.293119871 1.04984359
      vertex 0.329995558 0.291881643 1.0499958
    endloop
  endfacet
  facet normal -0.612991265 0.121077666 0.780757266
    outer loop
      vertex 0.27732813 0.303532728 1.12211122
      vertex 0.274877062 0.304016861 1.12011175
      vertex 0.274826344 0.302778633 1.12026395
    endloop
  endfacet
  facet normal 0.612991265 -0.121077666 -0.780757266
    outer loop
      vertex 0.332497344 0.292635738 1.05184306
      vertex 0.329995558 0.291881643 1.0499958
      vertex 0.330046276 0.293119871 1.04984359
    endloop
  endfacet
  facet normal -0.713437275 0.339777231 -0.612828433
    outer loop
      vertex 0.274877062 0.304016861 1.12011175
      vertex 0.275300934 0.305181385 1.12026395
      vertex 0.330470148 0.294284395 1.0499958
    endloop
  endfacet
  facet normal -0.713437275 0.339777231 -0.612828433
    outer loop
      vertex 0.274877062 0.304016861 1.12011175
      vertex 0.330470148 0.294284395 1.0499958
      vertex 0.330046276 0.293119871 1.04984359
    endloop
  endfacet
  facet normal -0.612991265 0.121077666 0.780757266
    outer loop
      vertex 0.27732813 0.303532728 1.12211122
      vertex 0.275300934 0.305181385 1.12026395
      vertex 0.274877062 0.304016861 1.12011175
    endloop
  endfacet
  facet normal 0.612991265 -0.121077666 -0.780757266
    outer loop
      vertex 0.332497344 0.292635738 1.05184306
      vertex 0.330046276 0.293119871 1.04984359
      vertex 0.330470148 0.294284395 1.0499958
    endloop
  endfacet
  facet normal -0.529215432 0.670834341 -0.519530859
    outer loop
      vertex 0.275300934 0.305181385 1.12026395
      vertex 0.276033428 0.306094915 1.12069738
      vertex 0.331202642 0.295197925 1.05042923
    endloop
  endfacet
  facet normal -0.529215432 0.670834341 -0.519530859
    outer loop
      vertex 0.275300934 0.305181385 1.12026395
      vertex 0.331202642 0.295197925 1.05042923
      vertex 0.330470148 0.294284395 1.0499958
    endloop
  endfacet
  facet normal -0.612991265 0.121077666 0.780757266
    outer loop
      vertex 0.27732813 0.303532728 1.12211122
      vertex 0.276033428 0.306094915 1.12069738
      vertex 0.275300934 0.305181385 1.12026395
    endloop
  endfacet
  facet normal 0.612991265 -0.121077666 -0.780757266
    outer loop
      vertex 0.332497344 0.292635738 1.05184306
      vertex 0.330470148 0.294284395 1.0499958
      vertex 0.331202642 0.295197925 1.05042923
    endloop
  endfacet
  facet normal -0.264425337 0.899763004 -0.347139422
    outer loop
      vertex 0.276033428 0.306094915 1.12069738
      vertex 0.276963028 0.306618376 1.12134605
      vertex 0.332132242 0.295721386 1.0510779
    endloop
  endfacet
  facet normal -0.264425337 0.899763004 -0.347139422
    outer loop
      vertex 0.276033428 0.306094915 1.12069738
      vertex 0.332132242 0.295721386 1.0510779
      vertex 0.331202642 0.295197925 1.05042923
    endloop
  endfacet
  facet normal -0.612991265 0.121077666 0.780757266
    outer loop
      vertex 0.27732813 0.303532728 1.12211122
      vertex 0.276963028 0.306618376 1.12134605
      vertex 0.276033428 0.306094915 1.12069738
    endloop
  endfacet
  facet normal 0.612991265 -0.121077666 -0.780757266
    outer loop
      vertex 0.332497344 0.292635738 1.05184306
      vertex 0.331202642 0.295197925 1.05042923
      vertex 0.332132242 0.295721386 1.0510779
    endloop
  endfacet
  facet normal 0.0406211191 0.991710906 -0.121899154
    outer loop
      vertex 0.276963028 0.306618376 1.12134605
      vertex 0.277948212 0.306672075 1.12211122
      vertex 0.333117426 0.295775085 1.05184306
    endloop
  endfacet
  facet normal 0.0406211191 0.991710906 -0.121899154
    outer loop
      vertex 0.276963028 0.306618376 1.12134605
      vertex 0.333117426 0.295775085 1.05184306
      vertex 0.332132242 0.295721386 1.0510779
    endloop
  endfacet
  facet normal -0.612991265 0.121077666 0.780757266
    outer loop
      vertex 0.27732813 0.303532728 1.12211122
      vertex 0.277948212 0.306672075 1.12211122
      vertex 0.276963028 0.306618376 1.12134605
    endloop
  endfacet
  facet normal 0.612991265 -0.121077666 -0.780757266
    outer loop
      vertex 0.332497344 0.292635738 1.05184306
      vertex 0.332132242 0.295721386 1.0510779
      vertex 0.333117426 0.295775085 1.05184306
    endloop
  endfacet
  facet normal 0.339483378 0.932679812 0.121899154
    outer loop
      vertex 0.277948212 0.306672075 1.12211122
      vertex 0.278838994 0.306247836 1.12287638
      vertex 0.334008208 0.295350846 1.05260823
    endloop
  endfacet
  facet normal 0.339483378 0.932679812 0.121899154
    outer loop
      vertex 0.277948212 0.306672075 1.12211122
      vertex 0.334008208 0.295350846 1.05260823
      vertex 0.333117426 0.295775085 1.05184306
    endloop
  endfacet
  facet normal -0.612991265 0.121077666 0.780757266
    outer loop
      vertex 0.27732813 0.303532728 1.12211122
      vertex 0.278838994 0.306247836 1.12287638
      vertex 0.277948212 0.306672075 1.12211122
    endloop
  endfacet
  facet normal 0.612991265 -0.121077666 -0.780757266
    outer loop
      vertex 0.332497344 0.292635738 1.05184306
      vertex 0.333117426 0.295775085 1.05184306
      vertex 0.334008208 0.295350846 1.05260823
    endloop
  endfacet
  facet normal 0.58666237 0.731656672 0.347139422
    outer loop
      vertex 0.278838994 0.306247836 1.12287638
      vertex 0.279499761 0.305410247 1.12352506
      vertex 0.334668975 0.294513257 1.0532569
    endloop
  endfacet
  facet normal 0.58666237 0.731656672 0.347139422
    outer loop
      vertex 0.278838994 0.306247836 1.12287638
      vertex 0.334668975 0.294513257 1.0532569
      vertex 0.334008208 0.295350846 1.05260823
    endloop
  endfacet
  facet normal -0.612991265 0.121077666 0.780757266
    outer loop
      vertex 0.27732813 0.303532728 1.12211122
      vertex 0.279499761 0.305410247 1.12352506
      vertex 0.278838994 0.306247836 1.12287638
    endloop
  endfacet
  facet normal 0.612991265 -0.121077666 -0.780757266
    outer loop
      vertex 0.332497344 0.292635738 1.05184306
      vertex 0.334008208 0.295350846 1.05260823
      vertex 0.334668975 0.294513257 1.0532569
    endloop
  endfacet
  facet normal 0.744527334 0.419245436 0.519530859
    outer loop
      vertex 0.279499761 0.305410247 1.12352506
      vertex 0.279829917 0.304286823 1.12395849
      vertex 0.334999131 0.293389833 1.05369033
    endloop
  endfacet
  facet normal 0.744527334 0.419245436 0.519530859
    outer loop
      vertex 0.279499761 0.305410247 1.12352506
      vertex 0.334999131 0.293389833 1.05369033
      vertex 0.334668975 0.294513257 1.0532569
    endloop
  endfacet
  facet normal -0.612991265 0.121077666 0.780757266
    outer loop
      vertex 0.27732813 0.303532728 1.12211122
      vertex 0.279829917 0.304286823 1.12395849
      vertex 0.279499761 0.305410247 1.12352506
    endloop
  endfacet
  facet normal 0.612991265 -0.121077666 -0.780757266
    outer loop
      vertex 0.332497344 0.292635738 1.05184306
      vertex 0.334668975 0.294513257 1.0532569
      vertex 0.334999131 0.293389833 1.05369033
    endloop
  endfacet
  facet normal 0.789044761 0.0430078829 0.612828433
    outer loop
      vertex 0.279829917 0.304286823 1.12395849
      vertex 0.279779198 0.303048594 1.12411069
      vertex 0.334948412 0.292151605 1.05384254
    endloop
  endfacet
  facet normal 0.789044761 0.0430078829 0.612828433
    outer loop
      vertex 0.279829917 0.304286823 1.12395849
      vertex 0.334948412 0.292151605 1.05384254
      vertex 0.334999131 0.293389833 1.05369033
    endloop
  endfacet
  facet normal -0.612991265 0.121077666 0.780757266
    outer loop
      vertex 0.27732813 0.303532728 1.12211122
      vertex 0.279779198 0.303048594 1.12411069
      vertex 0.279829917 0.304286823 1.12395849
    endloop
  endfacet
  facet normal 0.612991265 -0.121077666 -0.780757266
    outer loop
      vertex 0.332497344 0.292635738 1.05184306
      vertex 0.334999131 0.293389833 1.05369033
      vertex 0.334948412 0.292151605 1.05384254
    endloop
  endfacet
  facet normal 0.713437275 -0.339777231 0.612828433
    outer loop
      vertex 0.279779198 0.303048594 1.12411069
      vertex 0.279355327 0.301884071 1.12395849
      vertex 0.33452454 0.290987081 1.05369033
    endloop
  endfacet
  facet normal 0.713437275 -0.339777231 0.612828433
    outer loop
      vertex 0.279779198 0.303048594 1.12411069
      vertex 0.33452454 0.290987081 1.05369033
      vertex 0.334948412 0.292151605 1.05384254
    endloop
  endfacet
  facet normal -0.612991265 0.121077666 0.780757266
    outer loop
      vertex 0.27732813 0.303532728 1.12211122
      vertex 0.279355327 0.301884071 1.12395849
      vertex 0.279779198 0.303048594 1.12411069
    endloop
  endfacet
  facet normal 0.612991265 -0.121077666 -0.780757266
    outer loop
      vertex 0.332497344 0.292635738 1.05184306
      vertex 0.334948412 0.292151605 1.05384254
      vertex 0.33452454 0.290987081 1.05369033
    endloop
  endfacet
  facet normal 0.529215432 -0.670834341 0.519530859
    outer loop
      vertex 0.279355327 0.301884071 1.12395849
      vertex 0.278622833 0.30097054 1.12352506
      vertex 0.333792047 0.290073551 1.0532569
    endloop
  endfacet
  facet normal 0.529215432 -0.670834341 0.519530859
    outer loop
      vertex 0.279355327 0.301884071 1.12395849
      vertex 0.333792047 0.290073551 1.0532569
      vertex 0.33452454 0.290987081 1.05369033
    endloop
  endfacet
  facet normal -0.612991265 0.121077666 0.780757266
    outer loop
      vertex 0.27732813 0.303532728 1.12211122
      vertex 0.278622833 0.30097054 1.12352506
      vertex 0.279355327 0.301884071 1.12395849
    endloop
  endfacet
  facet normal 0.612991265 -0.121077666 -0.780757266
    outer loop
      vertex 0.332497344 0.292635738 1.05184306
      vertex 0.33452454 0.290987081 1.05369033
      vertex 0.333792047 0.290073551 1.0532569
    endloop
  endfacet
  facet normal 0.264425337 -0.899763004 0.347139422
    outer loop
      vertex 0.278622833 0.30097054 1.12352506
      vertex 0.277693232 0.30044708 1.12287638
      vertex 0.332862446 0.28955009 1.05260823
    endloop
  endfacet
  facet normal 0.264425337 -0.899763004 0.347139422
    outer loop
      vertex 0.278622833 0.30097054 1.12352506
      vertex 0.332862446 0.28955009 1.05260823
      vertex 0.333792047 0.290073551 1.0532569
    endloop
  endfacet
  facet normal -0.612991265 0.121077666 0.780757266
    outer loop
      vertex 0.27732813 0.303532728 1.12211122
      vertex 0.277693232 0.30044708 1.12287638
      vertex 0.278622833 0.30097054 1.12352506
    endloop
  endfacet
  facet normal 0.612991265 -0.121077666 -0.780757266
    outer loop
      vertex 0.332497344 0.292635738 1.05184306
      vertex 0.333792047 0.290073551 1.0532569
      vertex 0.332862446 0.28955009 1.05260823
    endloop
  endfacet
  facet normal -0.0406211191 -0.991710906 0.121899154
    outer loop
      vertex 0.277693232 0.30044708 1.12287638
      vertex 0.276708048 0.300393381 1.12211122
      vertex 0.331877262 0.289496391 1.05184306
    endloop
  endfacet
  facet normal -0.0406211191 -0.991710906 0.121899154
    outer loop
      vertex 0.277693232 0.30044708 1.12287638
      vertex 0.331877262 0.289496391 1.05184306
      vertex 0.332862446 0.28955009 1.05260823
    endloop
  endfacet
  facet normal -0.612991265 0.121077666 0.780757266
    outer loop
      vertex 0.27732813 0.303532728 1.12211122
      vertex 0.276708048 0.300393381 1.12211122
      vertex 0.277693232 0.30044708 1.12287638
    endloop
  endfacet
  facet normal 0.612991265 -0.121077666 -0.780757266
    outer loop
      vertex 0.332497344 0.292635738 1.05184306
      vertex 0.332862446 0.28955009 1.05260823
      vertex 0.331877262 0.289496391 1.05184306
    endloop
  endfacet
  facet normal -0.339483378 -0.932679812 -0.121899154
    outer loop
      vertex 0.300130934 0.298636552 1.14077353
      vertex 0.299240152 0.299060791 1.14000837
      vertex 0.354409366 0.288163801 1.06974021
    endloop
  endfacet
  facet normal -0.339483378 -0.932679812 -0.121899154
    outer loop
      vertex 0.300130934 0.298636552 1.14077353
      vertex 0.354409366 0.288163801 1.06974021
      vertex 0.355300148 0.287739562 1.07050538
    endloop
  endfacet
  facet normal -0.612991265 0.121077666 0.780757266
    outer loop
      vertex 0.300751016 0.301775899 1.14077353
      vertex 0.299240152 0.299060791 1.14000837
      vertex 0.300130934 0.298636552 1.14077353
    endloop
  endfacet
  facet normal 0.612991265 -0.121077666 -0.780757266
    outer loop
      vertex 0.35592023 0.290878909 1.07050538
      vertex 0.355300148 0.287739562 1.07050538
      vertex 0.354409366 0.288163801 1.06974021
    endloop
  endfacet
  facet normal -0.58666237 -0.731656672 -0.347139422
    outer loop
      vertex 0.299240152 0.299060791 1.14000837
      vertex 0.298579386 0.29989838 1.13935969
      vertex 0.353748599 0.28900139 1.06909154
    endloop
  endfacet
  facet normal -0.58666237 -0.731656672 -0.347139422
    outer loop
      vertex 0.299240152 0.299060791 1.14000837
      vertex 0.353748599 0.28900139 1.06909154
      vertex 0.354409366 0.288163801 1.06974021
    endloop
  endfacet
  facet normal -0.612991265 0.121077666 0.780757266
    outer loop
      vertex 0.300751016 0.301775899 1.14077353
      vertex 0.298579386 0.29989838 1.13935969
      vertex 0.299240152 0.299060791 1.14000837
    endloop
  endfacet
  facet normal 0.612991265 -0.121077666 -0.780757266
    outer loop
      vertex 0.35592023 0.290878909 1.07050538
      vertex 0.354409366 0.288163801 1.06974021
      vertex 0.353748599 0.28900139 1.06909154
    endloop
  endfacet
  facet normal -0.744527334 -0.419245436 -0.519530859
    outer loop
      vertex 0.298579386 0.29989838 1.13935969
      vertex 0.29824923 0.301021804 1.13892626
      vertex 0.353418444 0.290124814 1.06865811
    endloop
  endfacet
  facet normal -0.744527334 -0.419245436 -0.519530859
    outer loop
      vertex 0.298579386 0.29989838 1.13935969
      vertex 0.353418444 0.290124814 1.06865811
      vertex 0.353748599 0.28900139 1.06909154
    endloop
  endfacet
  facet normal -0.612991265 0.121077666 0.780757266
    outer loop
      vertex 0.300751016 0.301775899 1.14077353
      vertex 0.29824923 0.301021804 1.13892626
      vertex 0.298579386 0.29989838 1.13935969
    endloop
  endfacet
  facet normal 0.612991265 -0.121077666 -0.780757266
    outer loop
      vertex 0.35592023 0.290878909 1.07050538
      vertex 0.353748599 0.28900139 1.06909154
      vertex 0.353418444 0.290124814 1.06865811
    endloop
  endfacet
  facet normal -0.789044761 -0.0430078829 -0.612828433
    outer loop
      vertex 0.29824923 0.301021804 1.13892626
      vertex 0.298299949 0.302260033 1.13877406
      vertex 0.353469162 0.291363043 1.06850591
    endloop
  endfacet
  facet normal -0.789044761 -0.0430078829 -0.612828433
    outer loop
      vertex 0.29824923 0.301021804 1.13892626
      vertex 0.353469162 0.291363043 1.06850591
      vertex 0.353418444 0.290124814 1.06865811
    endloop
  endfacet
  facet normal -0.612991265 0.121077666 0.780757266
    outer loop
      vertex 0.300751016 0.301775899 1.14077353
      vertex 0.298299949 0.302260033 1.13877406
      vertex 0.29824923 0.301021804 1.13892626
    endloop
  endfacet
  facet normal 0.612991265 -0.121077666 -0.780757266
    outer loop
      vertex 0.35592023 0.290878909 1.07050538
      vertex 0.353418444 0.290124814 1.06865811
      vertex 0.353469162 0.291363043 1.06850591
    endloop
  endfacet
  facet normal -0.713437275 0.339777231 -0.612828433
    outer loop
      vertex 0.298299949 0.302260033 1.13877406
      vertex 0.29872382 0.303424556 1.13892626
      vertex 0.353893034 0.292527566 1.06865811
    endloop
  endfacet
  facet normal -0.713437275 0.339777231 -0.612828433
    outer loop
      vertex 0.298299949 0.302260033 1.13877406
      vertex 0.353893034 0.292527566 1.06865811
      vertex 0.353469162 0.291363043 1.06850591
    endloop
  endfacet
  facet normal -0.612991265 0.121077666 0.780757266
    outer loop
      vertex 0.300751016 0.301775899 1.14077353
      vertex 0.29872382 0.303424556 1.13892626
      vertex 0.298299949 0.302260033 1.13877406
    endloop
  endfacet
  facet normal 0.612991265 -0.121077666 -0.780757266
    outer loop
      vertex 0.35592023 0.290878909 1.07050538
      vertex 0.353469162 0.291363043 1.06850591
      vertex 0.353893034 0.292527566 1.06865811
    endloop
  endfacet
  facet normal -0.529215432 0.670834341 -0.519530859
    outer loop
      vertex 0.29872382 0.303424556 1.13892626
      vertex 0.299456314 0.304338087 1.13935969
      vertex 0.354625528 0.293441097 1.06909154
    endloop
  endfacet
  facet normal -0.529215432 0.670834341 -0.519530859
    outer loop
      vertex 0.29872382 0.303424556 1.13892626
      vertex 0.354625528 0.293441097 1.06909154
      vertex 0.353893034 0.292527566 1.06865811
    endloop
  endfacet
  facet normal -0.612991265 0.121077666 0.780757266
    outer loop
      vertex 0.300751016 0.301775899 1.14077353
      vertex 0.299456314 0.304338087 1.13935969
      vertex 0.29872382 0.303424556 1.13892626
    endloop
  endfacet
  facet normal 0.612991265 -0.121077666 -0.780757266
    outer loop
      vertex 0.35592023 0.290878909 1.07050538
      vertex 0.353893034 0.292527566 1.06865811
      vertex 0.354625528 0.293441097 1.06909154
    endloop
  endfacet
  facet normal -0.264425337 0.899763004 -0.347139422
    outer loop
      vertex 0.299456314 0.304338087 1.13935969
      vertex 0.300385914 0.304861547 1.14000837
      vertex 0.355555128 0.293964557 1.06974021
    endloop
  endfacet
  facet normal -0.264425337 0.899763004 -0.347139422
    outer loop
      vertex 0.299456314 0.304338087 1.13935969
      vertex 0.355555128 0.293964557 1.06974021
      vertex 0.354625528 0.293441097 1.06909154
    endloop
  endfacet
  facet normal -0.612991265 0.121077666 0.780757266
    outer loop
      vertex 0.300751016 0.301775899 1.14077353
      vertex 0.300385914 0.304861547 1.14000837
      vertex 0.299456314 0.304338087 1.13935969
    endloop
  endfacet
  facet normal 0.612991265 -0.121077666 -0.780757266
    outer loop
      vertex 0.35592023 0.290878909 1.07050538
      vertex 0.354625528 0.293441097 1.06909154
      vertex 0.355555128 0.293964557 1.06974021
    endloop
  endfacet
  facet normal 0.0406211191 0.991710906 -0.121899154
    outer loop
      vertex 0.300385914 0.304861547 1.14000837
      vertex 0.301371098 0.304915246 1.14077353
      vertex 0.356540312 0.294018256 1.07050538
    endloop
  endfacet
  facet normal 0.0406211191 0.991710906 -0.121899154
    outer loop
      vertex 0.300385914 0.304861547 1.14000837
      vertex 0.356540312 0.294018256 1.07050538
      vertex 0.355555128 0.293964557 1.06974021
    endloop
  endfacet
  facet normal -0.612991265 0.121077666 0.780757266
    outer loop
      vertex 0.300751016 0.301775899 1.14077353
      vertex 0.301371098 0.304915246 1.14077353
      vertex 0.300385914 0.304861547 1.14000837
    endloop
  endfacet
  facet normal 0.612991265 -0.121077666 -0.780757266
    outer loop
      vertex 0.35592023 0.290878909 1.07050538
      vertex 0.355555128 0.293964557 1.06974021
      vertex 0.356540312 0.294018256 1.07050538
    endloop
  endfacet
  facet normal 0.339483378 0.932679812 0.121899154
    outer loop
      vertex 0.301371098 0.304915246 1.14077353
      vertex 0.30226188 0.304491008 1.1415387
      vertex 0.357431094 0.293594018 1.07127054
    endloop
  endfacet
  facet normal 0.339483378 0.932679812 0.121899154
    outer loop
      vertex 0.301371098 0.304915246 1.14077353
      vertex 0.357431094 0.293594018 1.07127054
      vertex 0.356540312 0.294018256 1.07050538
    endloop
  endfacet
  facet normal -0.612991265 0.121077666 0.780757266
    outer loop
      vertex 0.300751016 0.301775899 1.14077353
      vertex 0.30226188 0.304491008 1.1415387
      vertex 0.301371098 0.304915246 1.14077353
    endloop
  endfacet
  facet normal 0.612991265 -0.121077666 -0.780757266
    outer loop
      vertex 0.35592023 0.290878909 1.07050538
      vertex 0.356540312 0.294018256 1.07050538
      vertex 0.357431094 0.293594018 1.07127054
    endloop
  endfacet
  facet normal 0.58666237 0.731656672 0.347139422
    outer loop
      vertex 0.30226188 0.304491008 1.1415387
      vertex 0.302922647 0.303653419 1.14218737
      vertex 0.358091861 0.292756429 1.07191922
    endloop
  endfacet
  facet normal 0.58666237 0.731656672 0.347139422
    outer loop
      vertex 0.30226188 0.304491008 1.1415387
      vertex 0.358091861 0.292756429 1.07191922
      vertex 0.357431094 0.293594018 1.07127054
    endloop
  endfacet
  facet normal -0.612991265 0.121077666 0.780757266
    outer loop
      vertex 0.300751016 0.301775899 1.14077353
      vertex 0.302922647 0.303653419 1.14218737
      vertex 0.30226188 0.304491008 1.1415387
    endloop
  endfacet
  facet normal 0.612991265 -0.121077666 -0.780757266
    outer loop
      vertex 0.35592023 0.290878909 1.07050538
      vertex 0.357431094 0.293594018 1.07127054
      vertex 0.358091861 0.292756429 1.07191922
    endloop
  endfacet
  facet normal 0.744527334 0.419245436 0.519530859
    outer loop
      vertex 0.302922647 0.303653419 1.14218737
      vertex 0.303252803 0.302529994 1.1426208
      vertex 0.358422017 0.291633004 1.07235265
    endloop
  endfacet
  facet normal 0.744527334 0.419245436 0.519530859
    outer loop
      vertex 0.302922647 0.303653419 1.14218737
      vertex 0.358422017 0.291633004 1.07235265
      vertex 0.358091861 0.292756429 1.07191922
    endloop
  endfacet
  facet normal -0.612991265 0.121077666 0.780757266
    outer loop
      vertex 0.300751016 0.301775899 1.14077353
      vertex 0.303252803 0.302529994 1.1426208
      vertex 0.302922647 0.303653419 1.14218737
    endloop
  endfacet
  facet normal 0.612991265 -0.121077666 -0.780757266
    outer loop
      vertex 0.35592023 0.290878909 1.07050538
      vertex 0.358091861 0.292756429 1.07191922
      vertex 0.358422017 0.291633004 1.07235265
    endloop
  endfacet
  facet normal 0.789044761 0.0430078829 0.612828433
    outer loop
      vertex 0.303252803 0.302529994 1.1426208
      vertex 0.303202084 0.301291766 1.142773
      vertex 0.358371298 0.290394776 1.07250485
    endloop
  endfacet
  facet normal 0.789044761 0.0430078829 0.612828433
    outer loop
      vertex 0.303252803 0.302529994 1.1426208
      vertex 0.358371298 0.290394776 1.07250485
      vertex 0.358422017 0.291633004 1.07235265
    endloop
  endfacet
  facet normal -0.612991265 0.121077666 0.780757266
    outer loop
      vertex 0.300751016 0.301775899 1.14077353
      vertex 0.303202084 0.301291766 1.142773
      vertex 0.303252803 0.302529994 1.1426208
    endloop
  endfacet
  facet normal 0.612991265 -0.121077666 -0.780757266
    outer loop
      vertex 0.35592023 0.290878909 1.07050538
      vertex 0.358422017 0.291633004 1.07235265
      vertex 0.358371298 0.290394776 1.07250485
    endloop
  endfacet
  facet normal 0.713437275 -0.339777231 0.612828433
    outer loop
      vertex 0.303202084 0.301291766 1.142773
      vertex 0.302778213 0.300127242 1.1426208
      vertex 0.357947427 0.289230252 1.07235265
    endloop
  endfacet
  facet normal 0.713437275 -0.339777231 0.612828433
    outer loop
      vertex 0.303202084 0.301291766 1.142773
      vertex 0.357947427 0.289230252 1.07235265
      vertex 0.358371298 0.290394776 1.07250485
    endloop
  endfacet
  facet normal -0.612991265 0.121077666 0.780757266
    outer loop
      vertex 0.300751016 0.301775899 1.14077353
      vertex 0.302778213 0.300127242 1.1426208
      vertex 0.303202084 0.301291766 1.142773
    endloop
  endfacet
  facet normal 0.612991265 -0.121077666 -0.780757266
    outer loop
      vertex 0.35592023 0.290878909 1.07050538
      vertex 0.358371298 0.290394776 1.07250485
      vertex 0.357947427 0.289230252 1.07235265
    endloop
  endfacet
  facet normal 0.529215432 -0.670834341 0.519530859
    outer loop
      vertex 0.302778213 0.300127242 1.1426208
      vertex 0.302045719 0.299213712 1.14218737
      vertex 0.357214933 0.288316722 1.07191922
    endloop
  endfacet
  facet normal 0.529215432 -0.670834341 0.519530859
    outer loop
      vertex 0.302778213 0.300127242 1.1426208
      vertex 0.357214933 0.288316722 1.07191922
      vertex 0.357947427 0.289230252 1.07235265
    endloop
  endfacet
  facet normal -0.612991265 0.121077666 0.780757266
    outer loop
      vertex 0.300751016 0.301775899 1.14077353
      vertex 0.302045719 0.299213712 1.14218737
      vertex 0.302778213 0.300127242 1.1426208
    endloop
  endfacet
  facet normal 0.612991265 -0.121077666 -0.780757266
    outer loop
      vertex 0.35592023 0.290878909 1.07050538
      vertex 0.357947427 0.289230252 1.07235265
      vertex 0.357214933 0.288316722 1.07191922
    endloop
  endfacet
  facet normal 0.264425337 -0.899763004 0.347139422
    outer loop
      vertex 0.302045719 0.299213712 1.14218737
      vertex 0.301116118 0.298690251 1.1415387
      vertex 0.356285332 0.287793261 1.07127054
    endloop
  endfacet
  facet normal 0.264425337 -0.899763004 0.347139422
    outer loop
      vertex 0.302045719 0.299213712 1.14218737
      vertex 0.356285332 0.287793261 1.07127054
      vertex 0.357214933 0.288316722 1.07191922
    endloop
  endfacet
  facet normal -0.612991265 0.121077666 0.780757266
    outer loop
      vertex 0.300751016 0.301775899 1.14077353
      vertex 0.301116118 0.298690251 1.1415387
      vertex 0.302045719 0.299213712 1.14218737
    endloop
  endfacet
  facet normal 0.612991265 -0.121077666 -0.780757266
    outer loop
      vertex 0.35592023 0.290878909 1.07050538
      vertex 0.357214933 0.288316722 1.07191922
      vertex 0.356285332 0.287793261 1.07127054
    endloop
  endfacet
  facet normal -0.0406211191 -0.991710906 0.121899154
    outer loop
      vertex 0.301116118 0.298690251 1.1415387
      vertex 0.300130934 0.298636552 1.14077353
      vertex 0.355300148 0.287739562 1.07050538
    endloop
  endfacet
  facet normal -0.0406211191 -0.991710906 0.121899154
    outer loop
      vertex 0.301116118 0.298690251 1.1415387
      vertex 0.355300148 0.287739562 1.07050538
      vertex 0.356285332 0.287793261 1.07127054
    endloop
  endfacet
  facet normal -0.612991265 0.121077666 0.780757266
    outer loop
      vertex 0.300751016 0.301775899 1.14077353
      vertex 0.300130934 0.298636552 1.14077353
      vertex 0.301116118 0.298690251 1.1415387
    endloop
  endfacet
  facet normal 0.612991265 -0.121077666 -0.780757266
    outer loop
      vertex 0.35592023 0.290878909 1.07050538
      vertex 0.356285332 0.287793261 1.07127054
      vertex 0.355300148 0.287739562 1.07050538
    endloop
  endfacet
endsolid f4_features
