solid f28_features
  facet normal -0.0551868316 -0.991951844 -0.113955925
    outer loop
      vertex 4.37283902 2.04705717 1.3950456
      vertex 4.37386208 2.04708243 1.3943303
      vertex 4.42521514 2.03583338 1.46738043
    endloop
  endfacet
  facet normal -0.0551868316 -0.991951844 -0.113955925
    outer loop
      vertex 4.37283902 2.04705717 1.3950456
      vertex 4.42521514 2.03583338 1.46738043
      vertex 4.42419208 2.03580813 1.46809574
    endloop
  endfacet
  facet normal -0.570589549 0.124989361 -0.811668175
    outer loop
      vertex 4.37352376 2.05018305 1.3950456
      vertex 4.37386208 2.04708243 1.3943303
      vertex 4.37283902 2.04705717 1.3950456
    endloop
  endfacet
  facet normal 0.570589549 -0.124989361 0.811668175
    outer loop
      vertex 4.42487682 2.03893401 1.46809574
      vertex 4.42419208 2.03580813 1.46809574
      vertex 4.42521514 2.03583338 1.46738043
    endloop
  endfacet
  facet normal 0.262576792 -0.908702831 -0.324519019
    outer loop
      vertex 4.37386208 2.04708243 1.3943303
      vertex 4.37483363 2.04757972 1.39372389
      vertex 4.42618669 2.03633068 1.46677403
    endloop
  endfacet
  facet normal 0.262576792 -0.908702831 -0.324519019
    outer loop
      vertex 4.37386208 2.04708243 1.3943303
      vertex 4.42618669 2.03633068 1.46677403
      vertex 4.42521514 2.03583338 1.46738043
    endloop
  endfacet
  facet normal -0.570589549 0.124989361 -0.811668175
    outer loop
      vertex 4.37352376 2.05018305 1.3950456
      vertex 4.37483363 2.04757972 1.39372389
      vertex 4.37386208 2.04708243 1.3943303
    endloop
  endfacet
  facet normal 0.570589549 -0.124989361 0.811668175
    outer loop
      vertex 4.42487682 2.03893401 1.46809574
      vertex 4.42521514 2.03583338 1.46738043
      vertex 4.42618669 2.03633068 1.46677403
    endloop
  endfacet
  facet normal 0.540365479 -0.687112049 -0.485677033
    outer loop
      vertex 4.37483363 2.04757972 1.39372389
      vertex 4.37560577 2.04847336 1.3933187
      vertex 4.42695883 2.03722431 1.46636884
    endloop
  endfacet
  facet normal 0.540365479 -0.687112049 -0.485677033
    outer loop
      vertex 4.37483363 2.04757972 1.39372389
      vertex 4.42695883 2.03722431 1.46636884
      vertex 4.42618669 2.03633068 1.46677403
    endloop
  endfacet
  facet normal -0.570589549 0.124989361 -0.811668175
    outer loop
      vertex 4.37352376 2.05018305 1.3950456
      vertex 4.37560577 2.04847336 1.3933187
      vertex 4.37483363 2.04757972 1.39372389
    endloop
  endfacet
  facet normal 0.570589549 -0.124989361 0.811668175
    outer loop
      vertex 4.42487682 2.03893401 1.46809574
      vertex 4.42618669 2.03633068 1.46677403
      vertex 4.42695883 2.03722431 1.46636884
    endloop
  endfacet
  facet normal 0.735888421 -0.360914687 -0.572895122
    outer loop
      vertex 4.37560577 2.04847336 1.3933187
      vertex 4.37606094 2.04962727 1.39317642
      vertex 4.427414 2.03837823 1.46622656
    endloop
  endfacet
  facet normal 0.735888421 -0.360914687 -0.572895122
    outer loop
      vertex 4.37560577 2.04847336 1.3933187
      vertex 4.427414 2.03837823 1.46622656
      vertex 4.42695883 2.03722431 1.46636884
    endloop
  endfacet
  facet normal -0.570589549 0.124989361 -0.811668175
    outer loop
      vertex 4.37352376 2.05018305 1.3950456
      vertex 4.37606094 2.04962727 1.39317642
      vertex 4.37560577 2.04847336 1.3933187
    endloop
  endfacet
  facet normal 0.570589549 -0.124989361 0.811668175
    outer loop
      vertex 4.42487682 2.03893401 1.46809574
      vertex 4.42695883 2.03722431 1.46636884
      vertex 4.427414 2.03837823 1.46622656
    endloop
  endfacet
  facet normal 0.819379021 0.020228665 -0.572895122
    outer loop
      vertex 4.37606094 2.04962727 1.39317642
      vertex 4.37612984 2.0508658 1.3933187
      vertex 4.4274829 2.03961676 1.46636884
    endloop
  endfacet
  facet normal 0.819379021 0.020228665 -0.572895122
    outer loop
      vertex 4.37606094 2.04962727 1.39317642
      vertex 4.4274829 2.03961676 1.46636884
      vertex 4.427414 2.03837823 1.46622656
    endloop
  endfacet
  facet normal -0.570589549 0.124989361 -0.811668175
    outer loop
      vertex 4.37352376 2.05018305 1.3950456
      vertex 4.37612984 2.0508658 1.3933187
      vertex 4.37606094 2.04962727 1.39317642
    endloop
  endfacet
  facet normal 0.570589549 -0.124989361 0.811668175
    outer loop
      vertex 4.42487682 2.03893401 1.46809574
      vertex 4.427414 2.03837823 1.46622656
      vertex 4.4274829 2.03961676 1.46636884
    endloop
  endfacet
  facet normal 0.778126593 0.398292386 -0.485677033
    outer loop
      vertex 4.37612984 2.0508658 1.3933187
      vertex 4.37580199 2.05200039 1.39372389
      vertex 4.42715505 2.04075135 1.46677403
    endloop
  endfacet
  facet normal 0.778126593 0.398292386 -0.485677033
    outer loop
      vertex 4.37612984 2.0508658 1.3933187
      vertex 4.42715505 2.04075135 1.46677403
      vertex 4.4274829 2.03961676 1.46636884
    endloop
  endfacet
  facet normal -0.570589549 0.124989361 -0.811668175
    outer loop
      vertex 4.37352376 2.05018305 1.3950456
      vertex 4.37580199 2.05200039 1.39372389
      vertex 4.37612984 2.0508658 1.3933187
    endloop
  endfacet
  facet normal 0.570589549 -0.124989361 0.811668175
    outer loop
      vertex 4.42487682 2.03893401 1.46809574
      vertex 4.4274829 2.03961676 1.46636884
      vertex 4.42715505 2.04075135 1.46677403
    endloop
  endfacet
  facet normal 0.618411445 0.715719702 -0.324519019
    outer loop
      vertex 4.37580199 2.05200039 1.39372389
      vertex 4.37512731 2.0528583 1.3943303
      vertex 4.42648037 2.04160926 1.46738043
    endloop
  endfacet
  facet normal 0.618411445 0.715719702 -0.324519019
    outer loop
      vertex 4.37580199 2.05200039 1.39372389
      vertex 4.42648037 2.04160926 1.46738043
      vertex 4.42715505 2.04075135 1.46677403
    endloop
  endfacet
  facet normal -0.570589549 0.124989361 -0.811668175
    outer loop
      vertex 4.37352376 2.05018305 1.3950456
      vertex 4.37512731 2.0528583 1.3943303
      vertex 4.37580199 2.05200039 1.39372389
    endloop
  endfacet
  facet normal 0.570589549 -0.124989361 0.811668175
    outer loop
      vertex 4.42487682 2.03893401 1.46809574
      vertex 4.42715505 2.04075135 1.46677403
      vertex 4.42648037 2.04160926 1.46738043
    endloop
  endfacet
  facet normal 0.36454876 0.924185181 -0.113955925
    outer loop
      vertex 4.37512731 2.0528583 1.3943303
      vertex 4.37420849 2.05330893 1.3950456
      vertex 4.42556155 2.04205989 1.46809574
    endloop
  endfacet
  facet normal 0.36454876 0.924185181 -0.113955925
    outer loop
      vertex 4.37512731 2.0528583 1.3943303
      vertex 4.42556155 2.04205989 1.46809574
      vertex 4.42648037 2.04160926 1.46738043
    endloop
  endfacet
  facet normal -0.570589549 0.124989361 -0.811668175
    outer loop
      vertex 4.37352376 2.05018305 1.3950456
      vertex 4.37420849 2.05330893 1.3950456
      vertex 4.37512731 2.0528583 1.3943303
    endloop
  endfacet
  facet normal 0.570589549 -0.124989361 0.811668175
    outer loop
      vertex 4.42487682 2.03893401 1.46809574
      vertex 4.42648037 2.04160926 1.46738043
      vertex 4.42556155 2.04205989 1.46809574
    endloop
  endfacet
  facet normal 0.0551868316 0.991951844 0.113955925
    outer loop
      vertex 4.37420849 2.05330893 1.3950456
      vertex 4.37318543 2.05328368 1.39576091
      vertex 4.42453849 2.04203463 1.46881104
    endloop
  endfacet
  facet normal 0.0551868316 0.991951844 0.113955925
    outer loop
      vertex 4.37420849 2.05330893 1.3950456
      vertex 4.42453849 2.04203463 1.46881104
      vertex 4.42556155 2.04205989 1.46809574
    endloop
  endfacet
  facet normal -0.570589549 0.124989361 -0.811668175
    outer loop
      vertex 4.37352376 2.05018305 1.3950456
      vertex 4.37318543 2.05328368 1.39576091
      vertex 4.37420849 2.05330893 1.3950456
    endloop
  endfacet
  facet normal 0.570589549 -0.124989361 0.811668175
    outer loop
      vertex 4.42487682 2.03893401 1.46809574
      vertex 4.42556155 2.04205989 1.46809574
      vertex 4.42453849 2.04203463 1.46881104
    endloop
  endfacet
  facet normal -0.262576792 0.908702831 0.324519019
    outer loop
      vertex 4.37318543 2.05328368 1.39576091
      vertex 4.37221388 2.05278638 1.39636731
      vertex 4.42356694 2.04153733 1.46941745
    endloop
  endfacet
  facet normal -0.262576792 0.908702831 0.324519019
    outer loop
      vertex 4.37318543 2.05328368 1.39576091
      vertex 4.42356694 2.04153733 1.46941745
      vertex 4.42453849 2.04203463 1.46881104
    endloop
  endfacet
  facet normal -0.570589549 0.124989361 -0.811668175
    outer loop
      vertex 4.37352376 2.05018305 1.3950456
      vertex 4.37221388 2.05278638 1.39636731
      vertex 4.37318543 2.05328368 1.39576091
    endloop
  endfacet
  facet normal 0.570589549 -0.124989361 0.811668175
    outer loop
      vertex 4.42487682 2.03893401 1.46809574
      vertex 4.42453849 2.04203463 1.46881104
      vertex 4.42356694 2.04153733 1.46941745
    endloop
  endfacet
  facet normal -0.540365479 0.687112049 0.485677033
    outer loop
      vertex 4.37221388 2.05278638 1.39636731
      vertex 4.37144175 2.05189274 1.3967725
      vertex 4.42279481 2.0406437 1.46982263
    endloop
  endfacet
  facet normal -0.540365479 0.687112049 0.485677033
    outer loop
      vertex 4.37221388 2.05278638 1.39636731
      vertex 4.42279481 2.0406437 1.46982263
      vertex 4.42356694 2.04153733 1.46941745
    endloop
  endfacet
  facet normal -0.570589549 0.124989361 -0.811668175
    outer loop
      vertex 4.37352376 2.05018305 1.3950456
      vertex 4.37144175 2.05189274 1.3967725
      vertex 4.37221388 2.05278638 1.39636731
    endloop
  endfacet
  facet normal 0.570589549 -0.124989361 0.811668175
    outer loop
      vertex 4.42487682 2.03893401 1.46809574
      vertex 4.42356694 2.04153733 1.46941745
      vertex 4.42279481 2.0406437 1.46982263
    endloop
  endfacet
  facet normal -0.735888421 0.360914687 0.572895122
    outer loop
      vertex 4.37144175 2.05189274 1.3967725
      vertex 4.37098658 2.05073883 1.39691478
      vertex 4.42233964 2.03948979 1.46996492
    endloop
  endfacet
  facet normal -0.735888421 0.360914687 0.572895122
    outer loop
      vertex 4.37144175 2.05189274 1.3967725
      vertex 4.42233964 2.03948979 1.46996492
      vertex 4.42279481 2.0406437 1.46982263
    endloop
  endfacet
  facet normal -0.570589549 0.124989361 -0.811668175
    outer loop
      vertex 4.37352376 2.05018305 1.3950456
      vertex 4.37098658 2.05073883 1.39691478
      vertex 4.37144175 2.05189274 1.3967725
    endloop
  endfacet
  facet normal 0.570589549 -0.124989361 0.811668175
    outer loop
      vertex 4.42487682 2.03893401 1.46809574
      vertex 4.42279481 2.0406437 1.46982263
      vertex 4.42233964 2.03948979 1.46996492
    endloop
  endfacet
  facet normal -0.819379021 -0.020228665 0.572895122
    outer loop
      vertex 4.37098658 2.05073883 1.39691478
      vertex 4.37091767 2.0495003 1.3967725
      vertex 4.42227073 2.03825126 1.46982263
    endloop
  endfacet
  facet normal -0.819379021 -0.020228665 0.572895122
    outer loop
      vertex 4.37098658 2.05073883 1.39691478
      vertex 4.42227073 2.03825126 1.46982263
      vertex 4.42233964 2.03948979 1.46996492
    endloop
  endfacet
  facet normal -0.570589549 0.124989361 -0.811668175
    outer loop
      vertex 4.37352376 2.05018305 1.3950456
      vertex 4.37091767 2.0495003 1.3967725
      vertex 4.37098658 2.05073883 1.39691478
    endloop
  endfacet
  facet normal 0.570589549 -0.124989361 0.811668175
    outer loop
      vertex 4.42487682 2.03893401 1.46809574
      vertex 4.42233964 2.03948979 1.46996492
      vertex 4.42227073 2.03825126 1.46982263
    endloop
  endfacet
  facet normal -0.778126593 -0.398292386 0.485677033
    outer loop
      vertex 4.37091767 2.0495003 1.3967725
      vertex 4.37124552 2.04836571 1.39636731
      vertex 4.42259858 2.03711667 1.46941745
    endloop
  endfacet
  facet normal -0.778126593 -0.398292386 0.485677033
    outer loop
      vertex 4.37091767 2.0495003 1.3967725
      vertex 4.42259858 2.03711667 1.46941745
      vertex 4.42227073 2.03825126 1.46982263
    endloop
  endfacet
  facet normal -0.570589549 0.124989361 -0.811668175
    outer loop
      vertex 4.37352376 2.05018305 1.3950456
      vertex 4.37124552 2.04836571 1.39636731
      vertex 4.37091767 2.0495003 1.3967725
    endloop
  endfacet
  facet normal 0.570589549 -0.124989361 0.811668175
    outer loop
      vertex 4.42487682 2.03893401 1.46809574
      vertex 4.42227073 2.03825126 1.46982263
      vertex 4.42259858 2.03711667 1.46941745
    endloop
  endfacet
  facet normal -0.618411445 -0.715719702 0.324519019
    outer loop
      vertex 4.37124552 2.04836571 1.39636731
      vertex 4.37192021 2.0475078 1.39576091
      vertex 4.42327327 2.03625876 1.46881104
    endloop
  endfacet
  facet normal -0.618411445 -0.715719702 0.324519019
    outer loop
      vertex 4.37124552 2.04836571 1.39636731
      vertex 4.42327327 2.03625876 1.46881104
      vertex 4.42259858 2.03711667 1.46941745
    endloop
  endfacet
  facet normal -0.570589549 0.124989361 -0.811668175
    outer loop
      vertex 4.37352376 2.05018305 1.3950456
      vertex 4.37192021 2.0475078 1.39576091
      vertex 4.37124552 2.04836571 1.39636731
    endloop
  endfacet
  facet normal 0.570589549 -0.124989361 0.811668175
    outer loop
      vertex 4.42487682 2.03893401 1.46809574
      vertex 4.42259858 2.03711667 1.46941745
      vertex 4.42327327 2.03625876 1.46881104
    endloop
  endfacet
  facet normal -0.36454876 -0.924185181 0.113955925
    outer loop
      vertex 4.37192021 2.0475078 1.39576091
      vertex 4.37283902 2.04705717 1.3950456
      vertex 4.42419208 2.03580813 1.46809574
    endloop
  endfacet
  facet normal -0.36454876 -0.924185181 0.113955925
    outer loop
      vertex 4.37192021 2.0475078 1.39576091
      vertex 4.42419208 2.03580813 1.46809574
      vertex 4.42327327 2.03625876 1.46881104
    endloop
  endfacet
  facet normal -0.570589549 0.124989361 -0.811668175
    outer loop
      vertex 4.37352376 2.05018305 1.3950456
      vertex 4.37283902 2.04705717 1.3950456
      vertex 4.37192021 2.0475078 1.39576091
    endloop
  endfacet
  facet normal 0.570589549 -0.124989361 0.811668175
    outer loop
      vertex 4.42487682 2.03893401 1.46809574
      vertex 4.42327327 2.03625876 1.46881104
      vertex 4.42419208 2.03580813 1.46809574
    endloop
  endfacet
  facet normal -0.0551868316 -0.991951844 -0.113955925
    outer loop
      vertex 4.35657895 2.02306192 1.40278112
      vertex 4.35760201 2.02308718 1.40206582
      vertex 4.40895507 2.01183814 1.47511595
    endloop
  endfacet
  facet normal -0.0551868316 -0.991951844 -0.113955925
    outer loop
      vertex 4.35657895 2.02306192 1.40278112
      vertex 4.40895507 2.01183814 1.47511595
      vertex 4.40793201 2.01181288 1.47583126
    endloop
  endfacet
  facet normal -0.570589549 0.124989361 -0.811668175
    outer loop
      vertex 4.35726369 2.02618781 1.40278112
      vertex 4.35760201 2.02308718 1.40206582
      vertex 4.35657895 2.02306192 1.40278112
    endloop
  endfacet
  facet normal 0.570589549 -0.124989361 0.811668175
    outer loop
      vertex 4.40861675 2.01493876 1.47583126
      vertex 4.40793201 2.01181288 1.47583126
      vertex 4.40895507 2.01183814 1.47511595
    endloop
  endfacet
  facet normal 0.262576792 -0.908702831 -0.324519019
    outer loop
      vertex 4.35760201 2.02308718 1.40206582
      vertex 4.35857356 2.02358448 1.40145941
      vertex 4.40992662 2.01233544 1.47450955
    endloop
  endfacet
  facet normal 0.262576792 -0.908702831 -0.324519019
    outer loop
      vertex 4.35760201 2.02308718 1.40206582
      vertex 4.40992662 2.01233544 1.47450955
      vertex 4.40895507 2.01183814 1.47511595
    endloop
  endfacet
  facet normal -0.570589549 0.124989361 -0.811668175
    outer loop
      vertex 4.35726369 2.02618781 1.40278112
      vertex 4.35857356 2.02358448 1.40145941
      vertex 4.35760201 2.02308718 1.40206582
    endloop
  endfacet
  facet normal 0.570589549 -0.124989361 0.811668175
    outer loop
      vertex 4.40861675 2.01493876 1.47583126
      vertex 4.40895507 2.01183814 1.47511595
      vertex 4.40992662 2.01233544 1.47450955
    endloop
  endfacet
  facet normal 0.540365479 -0.687112049 -0.485677033
    outer loop
      vertex 4.35857356 2.02358448 1.40145941
      vertex 4.3593457 2.02447811 1.40105423
      vertex 4.41069876 2.01322907 1.47410436
    endloop
  endfacet
  facet normal 0.540365479 -0.687112049 -0.485677033
    outer loop
      vertex 4.35857356 2.02358448 1.40145941
      vertex 4.41069876 2.01322907 1.47410436
      vertex 4.40992662 2.01233544 1.47450955
    endloop
  endfacet
  facet normal -0.570589549 0.124989361 -0.811668175
    outer loop
      vertex 4.35726369 2.02618781 1.40278112
      vertex 4.3593457 2.02447811 1.40105423
      vertex 4.35857356 2.02358448 1.40145941
    endloop
  endfacet
  facet normal 0.570589549 -0.124989361 0.811668175
    outer loop
      vertex 4.40861675 2.01493876 1.47583126
      vertex 4.40992662 2.01233544 1.47450955
      vertex 4.41069876 2.01322907 1.47410436
    endloop
  endfacet
  facet normal 0.735888421 -0.360914687 -0.572895122
    outer loop
      vertex 4.3593457 2.02447811 1.40105423
      vertex 4.35980087 2.02563203 1.40091194
      vertex 4.41115392 2.01438299 1.47396208
    endloop
  endfacet
  facet normal 0.735888421 -0.360914687 -0.572895122
    outer loop
      vertex 4.3593457 2.02447811 1.40105423
      vertex 4.41115392 2.01438299 1.47396208
      vertex 4.41069876 2.01322907 1.47410436
    endloop
  endfacet
  facet normal -0.570589549 0.124989361 -0.811668175
    outer loop
      vertex 4.35726369 2.02618781 1.40278112
      vertex 4.35980087 2.02563203 1.40091194
      vertex 4.3593457 2.02447811 1.40105423
    endloop
  endfacet
  facet normal 0.570589549 -0.124989361 0.811668175
    outer loop
      vertex 4.40861675 2.01493876 1.47583126
      vertex 4.41069876 2.01322907 1.47410436
      vertex 4.41115392 2.01438299 1.47396208
    endloop
  endfacet
  facet normal 0.819379021 0.020228665 -0.572895122
    outer loop
      vertex 4.35980087 2.02563203 1.40091194
      vertex 4.35986977 2.02687056 1.40105423
      vertex 4.41122283 2.01562152 1.47410436
    endloop
  endfacet
  facet normal 0.819379021 0.020228665 -0.572895122
    outer loop
      vertex 4.35980087 2.02563203 1.40091194
      vertex 4.41122283 2.01562152 1.47410436
      vertex 4.41115392 2.01438299 1.47396208
    endloop
  endfacet
  facet normal -0.570589549 0.124989361 -0.811668175
    outer loop
      vertex 4.35726369 2.02618781 1.40278112
      vertex 4.35986977 2.02687056 1.40105423
      vertex 4.35980087 2.02563203 1.40091194
    endloop
  endfacet
  facet normal 0.570589549 -0.124989361 0.811668175
    outer loop
      vertex 4.40861675 2.01493876 1.47583126
      vertex 4.41115392 2.01438299 1.47396208
      vertex 4.41122283 2.01562152 1.47410436
    endloop
  endfacet
  facet normal 0.778126593 0.398292386 -0.485677033
    outer loop
      vertex 4.35986977 2.02687056 1.40105423
      vertex 4.35954192 2.02800515 1.40145941
      vertex 4.41089498 2.0167561 1.47450955
    endloop
  endfacet
  facet normal 0.778126593 0.398292386 -0.485677033
    outer loop
      vertex 4.35986977 2.02687056 1.40105423
      vertex 4.41089498 2.0167561 1.47450955
      vertex 4.41122283 2.01562152 1.47410436
    endloop
  endfacet
  facet normal -0.570589549 0.124989361 -0.811668175
    outer loop
      vertex 4.35726369 2.02618781 1.40278112
      vertex 4.35954192 2.02800515 1.40145941
      vertex 4.35986977 2.02687056 1.40105423
    endloop
  endfacet
  facet normal 0.570589549 -0.124989361 0.811668175
    outer loop
      vertex 4.40861675 2.01493876 1.47583126
      vertex 4.41122283 2.01562152 1.47410436
      vertex 4.41089498 2.0167561 1.47450955
    endloop
  endfacet
  facet normal 0.618411445 0.715719702 -0.324519019
    outer loop
      vertex 4.35954192 2.02800515 1.40145941
      vertex 4.35886723 2.02886306 1.40206582
      vertex 4.41022029 2.01761402 1.47511595
    endloop
  endfacet
  facet normal 0.618411445 0.715719702 -0.324519019
    outer loop
      vertex 4.35954192 2.02800515 1.40145941
      vertex 4.41022029 2.01761402 1.47511595
      vertex 4.41089498 2.0167561 1.47450955
    endloop
  endfacet
  facet normal -0.570589549 0.124989361 -0.811668175
    outer loop
      vertex 4.35726369 2.02618781 1.40278112
      vertex 4.35886723 2.02886306 1.40206582
      vertex 4.35954192 2.02800515 1.40145941
    endloop
  endfacet
  facet normal 0.570589549 -0.124989361 0.811668175
    outer loop
      vertex 4.40861675 2.01493876 1.47583126
      vertex 4.41089498 2.0167561 1.47450955
      vertex 4.41022029 2.01761402 1.47511595
    endloop
  endfacet
  facet normal 0.36454876 0.924185181 -0.113955925
    outer loop
      vertex 4.35886723 2.02886306 1.40206582
      vertex 4.35794842 2.02931369 1.40278112
      vertex 4.40930148 2.01806465 1.47583126
    endloop
  endfacet
  facet normal 0.36454876 0.924185181 -0.113955925
    outer loop
      vertex 4.35886723 2.02886306 1.40206582
      vertex 4.40930148 2.01806465 1.47583126
      vertex 4.41022029 2.01761402 1.47511595
    endloop
  endfacet
  facet normal -0.570589549 0.124989361 -0.811668175
    outer loop
      vertex 4.35726369 2.02618781 1.40278112
      vertex 4.35794842 2.02931369 1.40278112
      vertex 4.35886723 2.02886306 1.40206582
    endloop
  endfacet
  facet normal 0.570589549 -0.124989361 0.811668175
    outer loop
      vertex 4.40861675 2.01493876 1.47583126
      vertex 4.41022029 2.01761402 1.47511595
      vertex 4.40930148 2.01806465 1.47583126
    endloop
  endfacet
  facet normal 0.0551868316 0.991951844 0.113955925
    outer loop
      vertex 4.35794842 2.02931369 1.40278112
      vertex 4.35692536 2.02928843 1.40349643
      vertex 4.40827842 2.01803939 1.47654656
    endloop
  endfacet
  facet normal 0.0551868316 0.991951844 0.113955925
    outer loop
      vertex 4.35794842 2.02931369 1.40278112
      vertex 4.40827842 2.01803939 1.47654656
      vertex 4.40930148 2.01806465 1.47583126
    endloop
  endfacet
  facet normal -0.570589549 0.124989361 -0.811668175
    outer loop
      vertex 4.35726369 2.02618781 1.40278112
      vertex 4.35692536 2.02928843 1.40349643
      vertex 4.35794842 2.02931369 1.40278112
    endloop
  endfacet
  facet normal 0.570589549 -0.124989361 0.811668175
    outer loop
      vertex 4.40861675 2.01493876 1.47583126
      vertex 4.40930148 2.01806465 1.47583126
      vertex 4.40827842 2.01803939 1.47654656
    endloop
  endfacet
  facet normal -0.262576792 0.908702831 0.324519019
    outer loop
      vertex 4.35692536 2.02928843 1.40349643
      vertex 4.35595381 2.02879113 1.40410283
      vertex 4.40730687 2.01754209 1.47715297
    endloop
  endfacet
  facet normal -0.262576792 0.908702831 0.324519019
    outer loop
      vertex 4.35692536 2.02928843 1.40349643
      vertex 4.40730687 2.01754209 1.47715297
      vertex 4.40827842 2.01803939 1.47654656
    endloop
  endfacet
  facet normal -0.570589549 0.124989361 -0.811668175
    outer loop
      vertex 4.35726369 2.02618781 1.40278112
      vertex 4.35595381 2.02879113 1.40410283
      vertex 4.35692536 2.02928843 1.40349643
    endloop
  endfacet
  facet normal 0.570589549 -0.124989361 0.811668175
    outer loop
      vertex 4.40861675 2.01493876 1.47583126
      vertex 4.40827842 2.01803939 1.47654656
      vertex 4.40730687 2.01754209 1.47715297
    endloop
  endfacet
  facet normal -0.540365479 0.687112049 0.485677033
    outer loop
      vertex 4.35595381 2.02879113 1.40410283
      vertex 4.35518167 2.0278975 1.40450802
      vertex 4.40653473 2.01664846 1.47755816
    endloop
  endfacet
  facet normal -0.540365479 0.687112049 0.485677033
    outer loop
      vertex 4.35595381 2.02879113 1.40410283
      vertex 4.40653473 2.01664846 1.47755816
      vertex 4.40730687 2.01754209 1.47715297
    endloop
  endfacet
  facet normal -0.570589549 0.124989361 -0.811668175
    outer loop
      vertex 4.35726369 2.02618781 1.40278112
      vertex 4.35518167 2.0278975 1.40450802
      vertex 4.35595381 2.02879113 1.40410283
    endloop
  endfacet
  facet normal 0.570589549 -0.124989361 0.811668175
    outer loop
      vertex 4.40861675 2.01493876 1.47583126
      vertex 4.40730687 2.01754209 1.47715297
      vertex 4.40653473 2.01664846 1.47755816
    endloop
  endfacet
  facet normal -0.735888421 0.360914687 0.572895122
    outer loop
      vertex 4.35518167 2.0278975 1.40450802
      vertex 4.35472651 2.02674358 1.4046503
      vertex 4.40607957 2.01549454 1.47770044
    endloop
  endfacet
  facet normal -0.735888421 0.360914687 0.572895122
    outer loop
      vertex 4.35518167 2.0278975 1.40450802
      vertex 4.40607957 2.01549454 1.47770044
      vertex 4.40653473 2.01664846 1.47755816
    endloop
  endfacet
  facet normal -0.570589549 0.124989361 -0.811668175
    outer loop
      vertex 4.35726369 2.02618781 1.40278112
      vertex 4.35472651 2.02674358 1.4046503
      vertex 4.35518167 2.0278975 1.40450802
    endloop
  endfacet
  facet normal 0.570589549 -0.124989361 0.811668175
    outer loop
      vertex 4.40861675 2.01493876 1.47583126
      vertex 4.40653473 2.01664846 1.47755816
      vertex 4.40607957 2.01549454 1.47770044
    endloop
  endfacet
  facet normal -0.819379021 -0.020228665 0.572895122
    outer loop
      vertex 4.35472651 2.02674358 1.4046503
      vertex 4.3546576 2.02550505 1.40450802
      vertex 4.40601066 2.01425601 1.47755816
    endloop
  endfacet
  facet normal -0.819379021 -0.020228665 0.572895122
    outer loop
      vertex 4.35472651 2.02674358 1.4046503
      vertex 4.40601066 2.01425601 1.47755816
      vertex 4.40607957 2.01549454 1.47770044
    endloop
  endfacet
  facet normal -0.570589549 0.124989361 -0.811668175
    outer loop
      vertex 4.35726369 2.02618781 1.40278112
      vertex 4.3546576 2.02550505 1.40450802
      vertex 4.35472651 2.02674358 1.4046503
    endloop
  endfacet
  facet normal 0.570589549 -0.124989361 0.811668175
    outer loop
      vertex 4.40861675 2.01493876 1.47583126
      vertex 4.40607957 2.01549454 1.47770044
      vertex 4.40601066 2.01425601 1.47755816
    endloop
  endfacet
  facet normal -0.778126593 -0.398292386 0.485677033
    outer loop
      vertex 4.3546576 2.02550505 1.40450802
      vertex 4.35498545 2.02437047 1.40410283
      vertex 4.40633851 2.01312142 1.47715297
    endloop
  endfacet
  facet normal -0.778126593 -0.398292386 0.485677033
    outer loop
      vertex 4.3546576 2.02550505 1.40450802
      vertex 4.40633851 2.01312142 1.47715297
      vertex 4.40601066 2.01425601 1.47755816
    endloop
  endfacet
  facet normal -0.570589549 0.124989361 -0.811668175
    outer loop
      vertex 4.35726369 2.02618781 1.40278112
      vertex 4.35498545 2.02437047 1.40410283
      vertex 4.3546576 2.02550505 1.40450802
    endloop
  endfacet
  facet normal 0.570589549 -0.124989361 0.811668175
    outer loop
      vertex 4.40861675 2.01493876 1.47583126
      vertex 4.40601066 2.01425601 1.47755816
      vertex 4.40633851 2.01312142 1.47715297
    endloop
  endfacet
  facet normal -0.618411445 -0.715719702 0.324519019
    outer loop
      vertex 4.35498545 2.02437047 1.40410283
      vertex 4.35566014 2.02351255 1.40349643
      vertex 4.4070132 2.01226351 1.47654656
    endloop
  endfacet
  facet normal -0.618411445 -0.715719702 0.324519019
    outer loop
      vertex 4.35498545 2.02437047 1.40410283
      vertex 4.4070132 2.01226351 1.47654656
      vertex 4.40633851 2.01312142 1.47715297
    endloop
  endfacet
  facet normal -0.570589549 0.124989361 -0.811668175
    outer loop
      vertex 4.35726369 2.02618781 1.40278112
      vertex 4.35566014 2.02351255 1.40349643
      vertex 4.35498545 2.02437047 1.40410283
    endloop
  endfacet
  facet normal 0.570589549 -0.124989361 0.811668175
    outer loop
      vertex 4.40861675 2.01493876 1.47583126
      vertex 4.40633851 2.01312142 1.47715297
      vertex 4.4070132 2.01226351 1.47654656
    endloop
  endfacet
  facet normal -0.36454876 -0.924185181 0.113955925
    outer loop
      vertex 4.35566014 2.02351255 1.40349643
      vertex 4.35657895 2.02306192 1.40278112
      vertex 4.40793201 2.01181288 1.47583126
    endloop
  endfacet
  facet normal -0.36454876 -0.924185181 0.113955925
    outer loop
      vertex 4.35566014 2.02351255 1.40349643
      vertex 4.40793201 2.01181288 1.47583126
      vertex 4.4070132 2.01226351 1.47654656
    endloop
  endfacet
  facet normal -0.570589549 0.124989361 -0.811668175
    outer loop
      vertex 4.35726369 2.02618781 1.40278112
      vertex 4.35657895 2.02306192 1.40278112
      vertex 4.35566014 2.02351255 1.40349643
    endloop
  endfacet
  facet normal 0.570589549 -0.124989361 0.811668175
    outer loop
      vertex 4.40861675 2.01493876 1.47583126
      vertex 4.4070132 2.01226351 1.47654656
      vertex 4.40793201 2.01181288 1.47583126
    endloop
  endfacet
  facet normal 0.474740139 0.873910826 -0.104411053
    outer loop
      vertex 4.20925519 2.41304306 1.67638297
      vertex 4.21015422 2.41247637 1.67572758
      vertex 4.16460401 2.42813769 1.59970192
    endloop
  endfacet
  facet normal 0.474740139 0.873910826 -0.104411053
    outer loop
      vertex 4.20925519 2.41304306 1.67638297
      vertex 4.16460401 2.42813769 1.59970192
      vertex 4.16370497 2.42870438 1.60035731
    endloop
  endfacet
  facet normal 0.5061135 -0.174014655 0.844729557
    outer loop
      vertex 4.20821473 2.41001693 1.67638297
      vertex 4.21015422 2.41247637 1.67572758
      vertex 4.20925519 2.41304306 1.67638297
    endloop
  endfacet
  facet normal -0.5061135 0.174014655 -0.844729557
    outer loop
      vertex 4.16266451 2.42567825 1.60035731
      vertex 4.16370497 2.42870438 1.60035731
      vertex 4.16460401 2.42813769 1.59970192
    endloop
  endfacet
  facet normal 0.714153617 0.633699463 -0.297337522
    outer loop
      vertex 4.21015422 2.41247637 1.67572758
      vertex 4.21075799 2.41153525 1.67517196
      vertex 4.16520778 2.42719657 1.5991463
    endloop
  endfacet
  facet normal 0.714153617 0.633699463 -0.297337522
    outer loop
      vertex 4.21015422 2.41247637 1.67572758
      vertex 4.16520778 2.42719657 1.5991463
      vertex 4.16460401 2.42813769 1.59970192
    endloop
  endfacet
  facet normal 0.5061135 -0.174014655 0.844729557
    outer loop
      vertex 4.20821473 2.41001693 1.67638297
      vertex 4.21075799 2.41153525 1.67517196
      vertex 4.21015422 2.41247637 1.67572758
    endloop
  endfacet
  facet normal -0.5061135 0.174014655 -0.844729557
    outer loop
      vertex 4.16266451 2.42567825 1.60035731
      vertex 4.16460401 2.42813769 1.59970192
      vertex 4.16520778 2.42719657 1.5991463
    endloop
  endfacet
  facet normal 0.844843681 0.297013101 -0.444997049
    outer loop
      vertex 4.21075799 2.41153525 1.67517196
      vertex 4.21097457 2.41036298 1.67480072
      vertex 4.16542435 2.4260243 1.59877506
    endloop
  endfacet
  facet normal 0.844843681 0.297013101 -0.444997049
    outer loop
      vertex 4.21075799 2.41153525 1.67517196
      vertex 4.16542435 2.4260243 1.59877506
      vertex 4.16520778 2.42719657 1.5991463
    endloop
  endfacet
  facet normal 0.5061135 -0.174014655 0.844729557
    outer loop
      vertex 4.20821473 2.41001693 1.67638297
      vertex 4.21097457 2.41036298 1.67480072
      vertex 4.21075799 2.41153525 1.67517196
    endloop
  endfacet
  facet normal -0.5061135 0.174014655 -0.844729557
    outer loop
      vertex 4.16266451 2.42567825 1.60035731
      vertex 4.16520778 2.42719657 1.5991463
      vertex 4.16542435 2.4260243 1.59877506
    endloop
  endfacet
  facet normal 0.846913952 -0.0848908132 -0.524909809
    outer loop
      vertex 4.21097457 2.41036298 1.67480072
      vertex 4.21077099 2.40913803 1.67467035
      vertex 4.16522077 2.42479935 1.59864469
    endloop
  endfacet
  facet normal 0.846913952 -0.0848908132 -0.524909809
    outer loop
      vertex 4.21097457 2.41036298 1.67480072
      vertex 4.16522077 2.42479935 1.59864469
      vertex 4.16542435 2.4260243 1.59877506
    endloop
  endfacet
  facet normal 0.5061135 -0.174014655 0.844729557
    outer loop
      vertex 4.20821473 2.41001693 1.67638297
      vertex 4.21077099 2.40913803 1.67467035
      vertex 4.21097457 2.41036298 1.67480072
    endloop
  endfacet
  facet normal -0.5061135 0.174014655 -0.844729557
    outer loop
      vertex 4.16266451 2.42567825 1.60035731
      vertex 4.16542435 2.4260243 1.59877506
      vertex 4.16522077 2.42479935 1.59864469
    endloop
  endfacet
  facet normal 0.720049252 -0.453870871 -0.524909809
    outer loop
      vertex 4.21077099 2.40913803 1.67467035
      vertex 4.21017824 2.40804688 1.67480072
      vertex 4.16462802 2.4237082 1.59877506
    endloop
  endfacet
  facet normal 0.720049252 -0.453870871 -0.524909809
    outer loop
      vertex 4.21077099 2.40913803 1.67467035
      vertex 4.16462802 2.4237082 1.59877506
      vertex 4.16522077 2.42479935 1.59864469
    endloop
  endfacet
  facet normal 0.5061135 -0.174014655 0.844729557
    outer loop
      vertex 4.20821473 2.41001693 1.67638297
      vertex 4.21017824 2.40804688 1.67480072
      vertex 4.21077099 2.40913803 1.67467035
    endloop
  endfacet
  facet normal -0.5061135 0.174014655 -0.844729557
    outer loop
      vertex 4.16266451 2.42567825 1.60035731
      vertex 4.16522077 2.42479935 1.59864469
      vertex 4.16462802 2.4237082 1.59877506
    endloop
  endfacet
  facet normal 0.483563581 -0.753753202 -0.444997049
    outer loop
      vertex 4.21017824 2.40804688 1.67480072
      vertex 4.20928656 2.40725566 1.67517196
      vertex 4.16373634 2.42291698 1.5991463
    endloop
  endfacet
  facet normal 0.483563581 -0.753753202 -0.444997049
    outer loop
      vertex 4.21017824 2.40804688 1.67480072
      vertex 4.16373634 2.42291698 1.5991463
      vertex 4.16462802 2.4237082 1.59877506
    endloop
  endfacet
  facet normal 0.5061135 -0.174014655 0.844729557
    outer loop
      vertex 4.20821473 2.41001693 1.67638297
      vertex 4.20928656 2.40725566 1.67517196
      vertex 4.21017824 2.40804688 1.67480072
    endloop
  endfacet
  facet normal -0.5061135 0.174014655 -0.844729557
    outer loop
      vertex 4.16266451 2.42567825 1.60035731
      vertex 4.16462802 2.4237082 1.59877506
      vertex 4.16373634 2.42291698 1.5991463
    endloop
  endfacet
  facet normal 0.173459737 -0.938883442 -0.297337522
    outer loop
      vertex 4.20928656 2.40725566 1.67517196
      vertex 4.20823171 2.40688481 1.67572758
      vertex 4.16268149 2.42254613 1.59970192
    endloop
  endfacet
  facet normal 0.173459737 -0.938883442 -0.297337522
    outer loop
      vertex 4.20928656 2.40725566 1.67517196
      vertex 4.16268149 2.42254613 1.59970192
      vertex 4.16373634 2.42291698 1.5991463
    endloop
  endfacet
  facet normal 0.5061135 -0.174014655 0.844729557
    outer loop
      vertex 4.20821473 2.41001693 1.67638297
      vertex 4.20823171 2.40688481 1.67572758
      vertex 4.20928656 2.40725566 1.67517196
    endloop
  endfacet
  facet normal -0.5061135 0.174014655 -0.844729557
    outer loop
      vertex 4.16266451 2.42567825 1.60035731
      vertex 4.16373634 2.42291698 1.5991463
      vertex 4.16268149 2.42254613 1.59970192
    endloop
  endfacet
  facet normal -0.163051778 -0.981077188 -0.104411053
    outer loop
      vertex 4.20823171 2.40688481 1.67572758
      vertex 4.20717427 2.40699081 1.67638297
      vertex 4.16162405 2.42265213 1.60035731
    endloop
  endfacet
  facet normal -0.163051778 -0.981077188 -0.104411053
    outer loop
      vertex 4.20823171 2.40688481 1.67572758
      vertex 4.16162405 2.42265213 1.60035731
      vertex 4.16268149 2.42254613 1.59970192
    endloop
  endfacet
  facet normal 0.5061135 -0.174014655 0.844729557
    outer loop
      vertex 4.20821473 2.41001693 1.67638297
      vertex 4.20717427 2.40699081 1.67638297
      vertex 4.20823171 2.40688481 1.67572758
    endloop
  endfacet
  facet normal -0.5061135 0.174014655 -0.844729557
    outer loop
      vertex 4.16266451 2.42567825 1.60035731
      vertex 4.16268149 2.42254613 1.59970192
      vertex 4.16162405 2.42265213 1.60035731
    endloop
  endfacet
  facet normal -0.474740139 -0.873910826 0.104411053
    outer loop
      vertex 4.20717427 2.40699081 1.67638297
      vertex 4.20627523 2.4075575 1.67703836
      vertex 4.16072502 2.42321882 1.6010127
    endloop
  endfacet
  facet normal -0.474740139 -0.873910826 0.104411053
    outer loop
      vertex 4.20717427 2.40699081 1.67638297
      vertex 4.16072502 2.42321882 1.6010127
      vertex 4.16162405 2.42265213 1.60035731
    endloop
  endfacet
  facet normal 0.5061135 -0.174014655 0.844729557
    outer loop
      vertex 4.20821473 2.41001693 1.67638297
      vertex 4.20627523 2.4075575 1.67703836
      vertex 4.20717427 2.40699081 1.67638297
    endloop
  endfacet
  facet normal -0.5061135 0.174014655 -0.844729557
    outer loop
      vertex 4.16266451 2.42567825 1.60035731
      vertex 4.16162405 2.42265213 1.60035731
      vertex 4.16072502 2.42321882 1.6010127
    endloop
  endfacet
  facet normal -0.714153617 -0.633699463 0.297337522
    outer loop
      vertex 4.20627523 2.4075575 1.67703836
      vertex 4.20567146 2.40849862 1.67759397
      vertex 4.16012125 2.42415994 1.60156831
    endloop
  endfacet
  facet normal -0.714153617 -0.633699463 0.297337522
    outer loop
      vertex 4.20627523 2.4075575 1.67703836
      vertex 4.16012125 2.42415994 1.60156831
      vertex 4.16072502 2.42321882 1.6010127
    endloop
  endfacet
  facet normal 0.5061135 -0.174014655 0.844729557
    outer loop
      vertex 4.20821473 2.41001693 1.67638297
      vertex 4.20567146 2.40849862 1.67759397
      vertex 4.20627523 2.4075575 1.67703836
    endloop
  endfacet
  facet normal -0.5061135 0.174014655 -0.844729557
    outer loop
      vertex 4.16266451 2.42567825 1.60035731
      vertex 4.16072502 2.42321882 1.6010127
      vertex 4.16012125 2.42415994 1.60156831
    endloop
  endfacet
  facet normal -0.844843681 -0.297013101 0.444997049
    outer loop
      vertex 4.20567146 2.40849862 1.67759397
      vertex 4.20545489 2.40967089 1.67796522
      vertex 4.15990467 2.42533221 1.60193956
    endloop
  endfacet
  facet normal -0.844843681 -0.297013101 0.444997049
    outer loop
      vertex 4.20567146 2.40849862 1.67759397
      vertex 4.15990467 2.42533221 1.60193956
      vertex 4.16012125 2.42415994 1.60156831
    endloop
  endfacet
  facet normal 0.5061135 -0.174014655 0.844729557
    outer loop
      vertex 4.20821473 2.41001693 1.67638297
      vertex 4.20545489 2.40967089 1.67796522
      vertex 4.20567146 2.40849862 1.67759397
    endloop
  endfacet
  facet normal -0.5061135 0.174014655 -0.844729557
    outer loop
      vertex 4.16266451 2.42567825 1.60035731
      vertex 4.16012125 2.42415994 1.60156831
      vertex 4.15990467 2.42533221 1.60193956
    endloop
  endfacet
  facet normal -0.846913952 0.0848908132 0.524909809
    outer loop
      vertex 4.20545489 2.40967089 1.67796522
      vertex 4.20565847 2.41089584 1.67809559
      vertex 4.16010825 2.42655716 1.60206993
    endloop
  endfacet
  facet normal -0.846913952 0.0848908132 0.524909809
    outer loop
      vertex 4.20545489 2.40967089 1.67796522
      vertex 4.16010825 2.42655716 1.60206993
      vertex 4.15990467 2.42533221 1.60193956
    endloop
  endfacet
  facet normal 0.5061135 -0.174014655 0.844729557
    outer loop
      vertex 4.20821473 2.41001693 1.67638297
      vertex 4.20565847 2.41089584 1.67809559
      vertex 4.20545489 2.40967089 1.67796522
    endloop
  endfacet
  facet normal -0.5061135 0.174014655 -0.844729557
    outer loop
      vertex 4.16266451 2.42567825 1.60035731
      vertex 4.15990467 2.42533221 1.60193956
      vertex 4.16010825 2.42655716 1.60206993
    endloop
  endfacet
  facet normal -0.720049252 0.453870871 0.524909809
    outer loop
      vertex 4.20565847 2.41089584 1.67809559
      vertex 4.20625122 2.41198699 1.67796522
      vertex 4.160701 2.4276483 1.60193956
    endloop
  endfacet
  facet normal -0.720049252 0.453870871 0.524909809
    outer loop
      vertex 4.20565847 2.41089584 1.67809559
      vertex 4.160701 2.4276483 1.60193956
      vertex 4.16010825 2.42655716 1.60206993
    endloop
  endfacet
  facet normal 0.5061135 -0.174014655 0.844729557
    outer loop
      vertex 4.20821473 2.41001693 1.67638297
      vertex 4.20625122 2.41198699 1.67796522
      vertex 4.20565847 2.41089584 1.67809559
    endloop
  endfacet
  facet normal -0.5061135 0.174014655 -0.844729557
    outer loop
      vertex 4.16266451 2.42567825 1.60035731
      vertex 4.16010825 2.42655716 1.60206993
      vertex 4.160701 2.4276483 1.60193956
    endloop
  endfacet
  facet normal -0.483563581 0.753753202 0.444997049
    outer loop
      vertex 4.20625122 2.41198699 1.67796522
      vertex 4.20714289 2.41277821 1.67759397
      vertex 4.16159268 2.42843953 1.60156831
    endloop
  endfacet
  facet normal -0.483563581 0.753753202 0.444997049
    outer loop
      vertex 4.20625122 2.41198699 1.67796522
      vertex 4.16159268 2.42843953 1.60156831
      vertex 4.160701 2.4276483 1.60193956
    endloop
  endfacet
  facet normal 0.5061135 -0.174014655 0.844729557
    outer loop
      vertex 4.20821473 2.41001693 1.67638297
      vertex 4.20714289 2.41277821 1.67759397
      vertex 4.20625122 2.41198699 1.67796522
    endloop
  endfacet
  facet normal -0.5061135 0.174014655 -0.844729557
    outer loop
      vertex 4.16266451 2.42567825 1.60035731
      vertex 4.160701 2.4276483 1.60193956
      vertex 4.16159268 2.42843953 1.60156831
    endloop
  endfacet
  facet normal -0.173459737 0.938883442 0.297337522
    outer loop
      vertex 4.20714289 2.41277821 1.67759397
      vertex 4.20819775 2.41314905 1.67703836
      vertex 4.16264753 2.42881037 1.6010127
    endloop
  endfacet
  facet normal -0.173459737 0.938883442 0.297337522
    outer loop
      vertex 4.20714289 2.41277821 1.67759397
      vertex 4.16264753 2.42881037 1.6010127
      vertex 4.16159268 2.42843953 1.60156831
    endloop
  endfacet
  facet normal 0.5061135 -0.174014655 0.844729557
    outer loop
      vertex 4.20821473 2.41001693 1.67638297
      vertex 4.20819775 2.41314905 1.67703836
      vertex 4.20714289 2.41277821 1.67759397
    endloop
  endfacet
  facet normal -0.5061135 0.174014655 -0.844729557
    outer loop
      vertex 4.16266451 2.42567825 1.60035731
      vertex 4.16159268 2.42843953 1.60156831
      vertex 4.16264753 2.42881037 1.6010127
    endloop
  endfacet
  facet normal 0.163051778 0.981077188 0.104411053
    outer loop
      vertex 4.20819775 2.41314905 1.67703836
      vertex 4.20925519 2.41304306 1.67638297
      vertex 4.16370497 2.42870438 1.60035731
    endloop
  endfacet
  facet normal 0.163051778 0.981077188 0.104411053
    outer loop
      vertex 4.20819775 2.41314905 1.67703836
      vertex 4.16370497 2.42870438 1.60035731
      vertex 4.16264753 2.42881037 1.6010127
    endloop
  endfacet
  facet normal 0.5061135 -0.174014655 0.844729557
    outer loop
      vertex 4.20821473 2.41001693 1.67638297
      vertex 4.20925519 2.41304306 1.67638297
      vertex 4.20819775 2.41314905 1.67703836
    endloop
  endfacet
  facet normal -0.5061135 0.174014655 -0.844729557
    outer loop
      vertex 4.16266451 2.42567825 1.60035731
      vertex 4.16264753 2.42881037 1.6010127
      vertex 4.16370497 2.42870438 1.60035731
    endloop
  endfacet
  facet normal 0.474740139 0.873910826 -0.104411053
    outer loop
      vertex 4.23498688 2.4130121 1.66095964
      vertex 4.23588591 2.41244541 1.66030425
      vertex 4.1903357 2.42810673 1.58427859
    endloop
  endfacet
  facet normal 0.474740139 0.873910826 -0.104411053
    outer loop
      vertex 4.23498688 2.4130121 1.66095964
      vertex 4.1903357 2.42810673 1.58427859
      vertex 4.18943666 2.42867342 1.58493398
    endloop
  endfacet
  facet normal 0.5061135 -0.174014655 0.844729557
    outer loop
      vertex 4.23394642 2.40998597 1.66095964
      vertex 4.23588591 2.41244541 1.66030425
      vertex 4.23498688 2.4130121 1.66095964
    endloop
  endfacet
  facet normal -0.5061135 0.174014655 -0.844729557
    outer loop
      vertex 4.1883962 2.42564729 1.58493398
      vertex 4.18943666 2.42867342 1.58493398
      vertex 4.1903357 2.42810673 1.58427859
    endloop
  endfacet
  facet normal 0.714153617 0.633699463 -0.297337522
    outer loop
      vertex 4.23588591 2.41244541 1.66030425
      vertex 4.23648968 2.41150429 1.65974863
      vertex 4.19093947 2.42716561 1.58372297
    endloop
  endfacet
  facet normal 0.714153617 0.633699463 -0.297337522
    outer loop
      vertex 4.23588591 2.41244541 1.66030425
      vertex 4.19093947 2.42716561 1.58372297
      vertex 4.1903357 2.42810673 1.58427859
    endloop
  endfacet
  facet normal 0.5061135 -0.174014655 0.844729557
    outer loop
      vertex 4.23394642 2.40998597 1.66095964
      vertex 4.23648968 2.41150429 1.65974863
      vertex 4.23588591 2.41244541 1.66030425
    endloop
  endfacet
  facet normal -0.5061135 0.174014655 -0.844729557
    outer loop
      vertex 4.1883962 2.42564729 1.58493398
      vertex 4.1903357 2.42810673 1.58427859
      vertex 4.19093947 2.42716561 1.58372297
    endloop
  endfacet
  facet normal 0.844843681 0.297013101 -0.444997049
    outer loop
      vertex 4.23648968 2.41150429 1.65974863
      vertex 4.23670626 2.41033202 1.65937738
      vertex 4.19115604 2.42599334 1.58335172
    endloop
  endfacet
  facet normal 0.844843681 0.297013101 -0.444997049
    outer loop
      vertex 4.23648968 2.41150429 1.65974863
      vertex 4.19115604 2.42599334 1.58335172
      vertex 4.19093947 2.42716561 1.58372297
    endloop
  endfacet
  facet normal 0.5061135 -0.174014655 0.844729557
    outer loop
      vertex 4.23394642 2.40998597 1.66095964
      vertex 4.23670626 2.41033202 1.65937738
      vertex 4.23648968 2.41150429 1.65974863
    endloop
  endfacet
  facet normal -0.5061135 0.174014655 -0.844729557
    outer loop
      vertex 4.1883962 2.42564729 1.58493398
      vertex 4.19093947 2.42716561 1.58372297
      vertex 4.19115604 2.42599334 1.58335172
    endloop
  endfacet
  facet normal 0.846913952 -0.0848908132 -0.524909809
    outer loop
      vertex 4.23670626 2.41033202 1.65937738
      vertex 4.23650268 2.40910707 1.65924702
      vertex 4.19095246 2.42476839 1.58322136
    endloop
  endfacet
  facet normal 0.846913952 -0.0848908132 -0.524909809
    outer loop
      vertex 4.23670626 2.41033202 1.65937738
      vertex 4.19095246 2.42476839 1.58322136
      vertex 4.19115604 2.42599334 1.58335172
    endloop
  endfacet
  facet normal 0.5061135 -0.174014655 0.844729557
    outer loop
      vertex 4.23394642 2.40998597 1.66095964
      vertex 4.23650268 2.40910707 1.65924702
      vertex 4.23670626 2.41033202 1.65937738
    endloop
  endfacet
  facet normal -0.5061135 0.174014655 -0.844729557
    outer loop
      vertex 4.1883962 2.42564729 1.58493398
      vertex 4.19115604 2.42599334 1.58335172
      vertex 4.19095246 2.42476839 1.58322136
    endloop
  endfacet
  facet normal 0.720049252 -0.453870871 -0.524909809
    outer loop
      vertex 4.23650268 2.40910707 1.65924702
      vertex 4.23590993 2.40801592 1.65937738
      vertex 4.19035971 2.42367724 1.58335172
    endloop
  endfacet
  facet normal 0.720049252 -0.453870871 -0.524909809
    outer loop
      vertex 4.23650268 2.40910707 1.65924702
      vertex 4.19035971 2.42367724 1.58335172
      vertex 4.19095246 2.42476839 1.58322136
    endloop
  endfacet
  facet normal 0.5061135 -0.174014655 0.844729557
    outer loop
      vertex 4.23394642 2.40998597 1.66095964
      vertex 4.23590993 2.40801592 1.65937738
      vertex 4.23650268 2.40910707 1.65924702
    endloop
  endfacet
  facet normal -0.5061135 0.174014655 -0.844729557
    outer loop
      vertex 4.1883962 2.42564729 1.58493398
      vertex 4.19095246 2.42476839 1.58322136
      vertex 4.19035971 2.42367724 1.58335172
    endloop
  endfacet
  facet normal 0.483563581 -0.753753202 -0.444997049
    outer loop
      vertex 4.23590993 2.40801592 1.65937738
      vertex 4.23501825 2.4072247 1.65974863
      vertex 4.18946803 2.42288602 1.58372297
    endloop
  endfacet
  facet normal 0.483563581 -0.753753202 -0.444997049
    outer loop
      vertex 4.23590993 2.40801592 1.65937738
      vertex 4.18946803 2.42288602 1.58372297
      vertex 4.19035971 2.42367724 1.58335172
    endloop
  endfacet
  facet normal 0.5061135 -0.174014655 0.844729557
    outer loop
      vertex 4.23394642 2.40998597 1.66095964
      vertex 4.23501825 2.4072247 1.65974863
      vertex 4.23590993 2.40801592 1.65937738
    endloop
  endfacet
  facet normal -0.5061135 0.174014655 -0.844729557
    outer loop
      vertex 4.1883962 2.42564729 1.58493398
      vertex 4.19035971 2.42367724 1.58335172
      vertex 4.18946803 2.42288602 1.58372297
    endloop
  endfacet
  facet normal 0.173459737 -0.938883442 -0.297337522
    outer loop
      vertex 4.23501825 2.4072247 1.65974863
      vertex 4.2339634 2.40685385 1.66030425
      vertex 4.18841318 2.42251517 1.58427859
    endloop
  endfacet
  facet normal 0.173459737 -0.938883442 -0.297337522
    outer loop
      vertex 4.23501825 2.4072247 1.65974863
      vertex 4.18841318 2.42251517 1.58427859
      vertex 4.18946803 2.42288602 1.58372297
    endloop
  endfacet
  facet normal 0.5061135 -0.174014655 0.844729557
    outer loop
      vertex 4.23394642 2.40998597 1.66095964
      vertex 4.2339634 2.40685385 1.66030425
      vertex 4.23501825 2.4072247 1.65974863
    endloop
  endfacet
  facet normal -0.5061135 0.174014655 -0.844729557
    outer loop
      vertex 4.1883962 2.42564729 1.58493398
      vertex 4.18946803 2.42288602 1.58372297
      vertex 4.18841318 2.42251517 1.58427859
    endloop
  endfacet
  facet normal -0.163051778 -0.981077188 -0.104411053
    outer loop
      vertex 4.2339634 2.40685385 1.66030425
      vertex 4.23290596 2.40695985 1.66095964
      vertex 4.18735574 2.42262117 1.58493398
    endloop
  endfacet
  facet normal -0.163051778 -0.981077188 -0.104411053
    outer loop
      vertex 4.2339634 2.40685385 1.66030425
      vertex 4.18735574 2.42262117 1.58493398
      vertex 4.18841318 2.42251517 1.58427859
    endloop
  endfacet
  facet normal 0.5061135 -0.174014655 0.844729557
    outer loop
      vertex 4.23394642 2.40998597 1.66095964
      vertex 4.23290596 2.40695985 1.66095964
      vertex 4.2339634 2.40685385 1.66030425
    endloop
  endfacet
  facet normal -0.5061135 0.174014655 -0.844729557
    outer loop
      vertex 4.1883962 2.42564729 1.58493398
      vertex 4.18841318 2.42251517 1.58427859
      vertex 4.18735574 2.42262117 1.58493398
    endloop
  endfacet
  facet normal -0.474740139 -0.873910826 0.104411053
    outer loop
      vertex 4.23290596 2.40695985 1.66095964
      vertex 4.23200692 2.40752654 1.66161503
      vertex 4.18645671 2.42318786 1.58558937
    endloop
  endfacet
  facet normal -0.474740139 -0.873910826 0.104411053
    outer loop
      vertex 4.23290596 2.40695985 1.66095964
      vertex 4.18645671 2.42318786 1.58558937
      vertex 4.18735574 2.42262117 1.58493398
    endloop
  endfacet
  facet normal 0.5061135 -0.174014655 0.844729557
    outer loop
      vertex 4.23394642 2.40998597 1.66095964
      vertex 4.23200692 2.40752654 1.66161503
      vertex 4.23290596 2.40695985 1.66095964
    endloop
  endfacet
  facet normal -0.5061135 0.174014655 -0.844729557
    outer loop
      vertex 4.1883962 2.42564729 1.58493398
      vertex 4.18735574 2.42262117 1.58493398
      vertex 4.18645671 2.42318786 1.58558937
    endloop
  endfacet
  facet normal -0.714153617 -0.633699463 0.297337522
    outer loop
      vertex 4.23200692 2.40752654 1.66161503
      vertex 4.23140315 2.40846766 1.66217064
      vertex 4.18585294 2.42412898 1.58614498
    endloop
  endfacet
  facet normal -0.714153617 -0.633699463 0.297337522
    outer loop
      vertex 4.23200692 2.40752654 1.66161503
      vertex 4.18585294 2.42412898 1.58614498
      vertex 4.18645671 2.42318786 1.58558937
    endloop
  endfacet
  facet normal 0.5061135 -0.174014655 0.844729557
    outer loop
      vertex 4.23394642 2.40998597 1.66095964
      vertex 4.23140315 2.40846766 1.66217064
      vertex 4.23200692 2.40752654 1.66161503
    endloop
  endfacet
  facet normal -0.5061135 0.174014655 -0.844729557
    outer loop
      vertex 4.1883962 2.42564729 1.58493398
      vertex 4.18645671 2.42318786 1.58558937
      vertex 4.18585294 2.42412898 1.58614498
    endloop
  endfacet
  facet normal -0.844843681 -0.297013101 0.444997049
    outer loop
      vertex 4.23140315 2.40846766 1.66217064
      vertex 4.23118658 2.40963993 1.66254189
      vertex 4.18563636 2.42530125 1.58651623
    endloop
  endfacet
  facet normal -0.844843681 -0.297013101 0.444997049
    outer loop
      vertex 4.23140315 2.40846766 1.66217064
      vertex 4.18563636 2.42530125 1.58651623
      vertex 4.18585294 2.42412898 1.58614498
    endloop
  endfacet
  facet normal 0.5061135 -0.174014655 0.844729557
    outer loop
      vertex 4.23394642 2.40998597 1.66095964
      vertex 4.23118658 2.40963993 1.66254189
      vertex 4.23140315 2.40846766 1.66217064
    endloop
  endfacet
  facet normal -0.5061135 0.174014655 -0.844729557
    outer loop
      vertex 4.1883962 2.42564729 1.58493398
      vertex 4.18585294 2.42412898 1.58614498
      vertex 4.18563636 2.42530125 1.58651623
    endloop
  endfacet
  facet normal -0.846913952 0.0848908132 0.524909809
    outer loop
      vertex 4.23118658 2.40963993 1.66254189
      vertex 4.23139016 2.41086488 1.66267226
      vertex 4.18583994 2.4265262 1.5866466
    endloop
  endfacet
  facet normal -0.846913952 0.0848908132 0.524909809
    outer loop
      vertex 4.23118658 2.40963993 1.66254189
      vertex 4.18583994 2.4265262 1.5866466
      vertex 4.18563636 2.42530125 1.58651623
    endloop
  endfacet
  facet normal 0.5061135 -0.174014655 0.844729557
    outer loop
      vertex 4.23394642 2.40998597 1.66095964
      vertex 4.23139016 2.41086488 1.66267226
      vertex 4.23118658 2.40963993 1.66254189
    endloop
  endfacet
  facet normal -0.5061135 0.174014655 -0.844729557
    outer loop
      vertex 4.1883962 2.42564729 1.58493398
      vertex 4.18563636 2.42530125 1.58651623
      vertex 4.18583994 2.4265262 1.5866466
    endloop
  endfacet
  facet normal -0.720049252 0.453870871 0.524909809
    outer loop
      vertex 4.23139016 2.41086488 1.66267226
      vertex 4.23198291 2.41195603 1.66254189
      vertex 4.18643269 2.42761734 1.58651623
    endloop
  endfacet
  facet normal -0.720049252 0.453870871 0.524909809
    outer loop
      vertex 4.23139016 2.41086488 1.66267226
      vertex 4.18643269 2.42761734 1.58651623
      vertex 4.18583994 2.4265262 1.5866466
    endloop
  endfacet
  facet normal 0.5061135 -0.174014655 0.844729557
    outer loop
      vertex 4.23394642 2.40998597 1.66095964
      vertex 4.23198291 2.41195603 1.66254189
      vertex 4.23139016 2.41086488 1.66267226
    endloop
  endfacet
  facet normal -0.5061135 0.174014655 -0.844729557
    outer loop
      vertex 4.1883962 2.42564729 1.58493398
      vertex 4.18583994 2.4265262 1.5866466
      vertex 4.18643269 2.42761734 1.58651623
    endloop
  endfacet
  facet normal -0.483563581 0.753753202 0.444997049
    outer loop
      vertex 4.23198291 2.41195603 1.66254189
      vertex 4.23287459 2.41274725 1.66217064
      vertex 4.18732437 2.42840857 1.58614498
    endloop
  endfacet
  facet normal -0.483563581 0.753753202 0.444997049
    outer loop
      vertex 4.23198291 2.41195603 1.66254189
      vertex 4.18732437 2.42840857 1.58614498
      vertex 4.18643269 2.42761734 1.58651623
    endloop
  endfacet
  facet normal 0.5061135 -0.174014655 0.844729557
    outer loop
      vertex 4.23394642 2.40998597 1.66095964
      vertex 4.23287459 2.41274725 1.66217064
      vertex 4.23198291 2.41195603 1.66254189
    endloop
  endfacet
  facet normal -0.5061135 0.174014655 -0.844729557
    outer loop
      vertex 4.1883962 2.42564729 1.58493398
      vertex 4.18643269 2.42761734 1.58651623
      vertex 4.18732437 2.42840857 1.58614498
    endloop
  endfacet
  facet normal -0.173459737 0.938883442 0.297337522
    outer loop
      vertex 4.23287459 2.41274725 1.66217064
      vertex 4.23392944 2.41311809 1.66161503
      vertex 4.18837922 2.42877941 1.58558937
    endloop
  endfacet
  facet normal -0.173459737 0.938883442 0.297337522
    outer loop
      vertex 4.23287459 2.41274725 1.66217064
      vertex 4.18837922 2.42877941 1.58558937
      vertex 4.18732437 2.42840857 1.58614498
    endloop
  endfacet
  facet normal 0.5061135 -0.174014655 0.844729557
    outer loop
      vertex 4.23394642 2.40998597 1.66095964
      vertex 4.23392944 2.41311809 1.66161503
      vertex 4.23287459 2.41274725 1.66217064
    endloop
  endfacet
  facet normal -0.5061135 0.174014655 -0.844729557
    outer loop
      vertex 4.1883962 2.42564729 1.58493398
      vertex 4.18732437 2.42840857 1.58614498
      vertex 4.18837922 2.42877941 1.58558937
    endloop
  endfacet
  facet normal 0.163051778 0.981077188 0.104411053
    outer loop
      vertex 4.23392944 2.41311809 1.66161503
      vertex 4.23498688 2.4130121 1.66095964
      vertex 4.18943666 2.42867342 1.58493398
    endloop
  endfacet
  facet normal 0.163051778 0.981077188 0.104411053
    outer loop
      vertex 4.23392944 2.41311809 1.66161503
      vertex 4.18943666 2.42867342 1.58493398
      vertex 4.18837922 2.42877941 1.58558937
    endloop
  endfacet
  facet normal 0.5061135 -0.174014655 0.844729557
    outer loop
      vertex 4.23394642 2.40998597 1.66095964
      vertex 4.23498688 2.4130121 1.66095964
      vertex 4.23392944 2.41311809 1.66161503
    endloop
  endfacet
  facet normal -0.5061135 0.174014655 -0.844729557
    outer loop
      vertex 4.1883962 2.42564729 1.58493398
      vertex 4.18837922 2.42877941 1.58558937
      vertex 4.18943666 2.42867342 1.58493398
    endloop
  endfacet
  facet normal 0.205601558 0.965771679 -0.15815519
    outer loop
      vertex 4.39399851 2.26873466 1.49343931
      vertex 4.39324127 2.26873329 1.49244656
      vertex 4.21658795 2.3283933 1.62711018
    endloop
  endfacet
  facet normal 0.205601558 0.965771679 -0.15815519
    outer loop
      vertex 4.39399851 2.26873466 1.49343931
      vertex 4.21658795 2.3283933 1.62711018
      vertex 4.21734519 2.32839467 1.62810292
    endloop
  endfacet
  facet normal 0.768057903 -0.259391342 -0.58549397
    outer loop
      vertex 4.39297461 2.26570289 1.49343931
      vertex 4.39324127 2.26873329 1.49244656
      vertex 4.39399851 2.26873466 1.49343931
    endloop
  endfacet
  facet normal -0.768057903 0.259391342 0.58549397
    outer loop
      vertex 4.21632129 2.3253629 1.62810292
      vertex 4.21734519 2.32839467 1.62810292
      vertex 4.21658795 2.3283933 1.62711018
    endloop
  endfacet
  facet normal -0.0421378509 0.89183808 -0.450387877
    outer loop
      vertex 4.39324127 2.26873329 1.49244656
      vertex 4.39244344 2.26827057 1.49160496
      vertex 4.21579012 2.32793058 1.62626857
    endloop
  endfacet
  facet normal -0.0421378509 0.89183808 -0.450387877
    outer loop
      vertex 4.39324127 2.26873329 1.49244656
      vertex 4.21579012 2.32793058 1.62626857
      vertex 4.21658795 2.3283933 1.62711018
    endloop
  endfacet
  facet normal 0.768057903 -0.259391342 -0.58549397
    outer loop
      vertex 4.39297461 2.26570289 1.49343931
      vertex 4.39244344 2.26827057 1.49160496
      vertex 4.39324127 2.26873329 1.49244656
    endloop
  endfacet
  facet normal -0.768057903 0.259391342 0.58549397
    outer loop
      vertex 4.21632129 2.3253629 1.62810292
      vertex 4.21658795 2.3283933 1.62711018
      vertex 4.21579012 2.32793058 1.62626857
    endloop
  endfacet
  facet normal -0.283462154 0.682130219 -0.674053092
    outer loop
      vertex 4.39244344 2.26827057 1.49160496
      vertex 4.39172647 2.26741695 1.49104261
      vertex 4.21507315 2.32707696 1.62570622
    endloop
  endfacet
  facet normal -0.283462154 0.682130219 -0.674053092
    outer loop
      vertex 4.39244344 2.26827057 1.49160496
      vertex 4.21507315 2.32707696 1.62570622
      vertex 4.21579012 2.32793058 1.62626857
    endloop
  endfacet
  facet normal 0.768057903 -0.259391342 -0.58549397
    outer loop
      vertex 4.39297461 2.26570289 1.49343931
      vertex 4.39172647 2.26741695 1.49104261
      vertex 4.39244344 2.26827057 1.49160496
    endloop
  endfacet
  facet normal -0.768057903 0.259391342 0.58549397
    outer loop
      vertex 4.21632129 2.3253629 1.62810292
      vertex 4.21579012 2.32793058 1.62626857
      vertex 4.21507315 2.32707696 1.62570622
    endloop
  endfacet
  facet normal -0.481631914 0.368574215 -0.795099835
    outer loop
      vertex 4.39172647 2.26741695 1.49104261
      vertex 4.39119952 2.26630237 1.49084514
      vertex 4.2145462 2.32596238 1.62550875
    endloop
  endfacet
  facet normal -0.481631914 0.368574215 -0.795099835
    outer loop
      vertex 4.39172647 2.26741695 1.49104261
      vertex 4.2145462 2.32596238 1.62550875
      vertex 4.21507315 2.32707696 1.62570622
    endloop
  endfacet
  facet normal 0.768057903 -0.259391342 -0.58549397
    outer loop
      vertex 4.39297461 2.26570289 1.49343931
      vertex 4.39119952 2.26630237 1.49084514
      vertex 4.39172647 2.26741695 1.49104261
    endloop
  endfacet
  facet normal -0.768057903 0.259391342 0.58549397
    outer loop
      vertex 4.21632129 2.3253629 1.62810292
      vertex 4.21507315 2.32707696 1.62570622
      vertex 4.2145462 2.32596238 1.62550875
    endloop
  endfacet
  facet normal -0.606477581 -0.00109387142 -0.795099835
    outer loop
      vertex 4.39119952 2.26630237 1.49084514
      vertex 4.39094281 2.26509653 1.49104261
      vertex 4.2142895 2.32475654 1.62570622
    endloop
  endfacet
  facet normal -0.606477581 -0.00109387142 -0.795099835
    outer loop
      vertex 4.39119952 2.26630237 1.49084514
      vertex 4.2142895 2.32475654 1.62570622
      vertex 4.2145462 2.32596238 1.62550875
    endloop
  endfacet
  facet normal 0.768057903 -0.259391342 -0.58549397
    outer loop
      vertex 4.39297461 2.26570289 1.49343931
      vertex 4.39094281 2.26509653 1.49104261
      vertex 4.39119952 2.26630237 1.49084514
    endloop
  endfacet
  facet normal -0.768057903 0.259391342 0.58549397
    outer loop
      vertex 4.21632129 2.3253629 1.62810292
      vertex 4.2145462 2.32596238 1.62550875
      vertex 4.2142895 2.32475654 1.62570622
    endloop
  endfacet
  facet normal -0.638992534 -0.370595426 -0.674053092
    outer loop
      vertex 4.39094281 2.26509653 1.49104261
      vertex 4.39099543 2.263983 1.49160496
      vertex 4.21434211 2.32364301 1.62626857
    endloop
  endfacet
  facet normal -0.638992534 -0.370595426 -0.674053092
    outer loop
      vertex 4.39094281 2.26509653 1.49104261
      vertex 4.21434211 2.32364301 1.62626857
      vertex 4.2142895 2.32475654 1.62570622
    endloop
  endfacet
  facet normal 0.768057903 -0.259391342 -0.58549397
    outer loop
      vertex 4.39297461 2.26570289 1.49343931
      vertex 4.39099543 2.263983 1.49160496
      vertex 4.39094281 2.26509653 1.49104261
    endloop
  endfacet
  facet normal -0.768057903 0.259391342 0.58549397
    outer loop
      vertex 4.21632129 2.3253629 1.62810292
      vertex 4.2142895 2.32475654 1.62570622
      vertex 4.21434211 2.32364301 1.62626857
    endloop
  endfacet
  facet normal -0.574226666 -0.683677187 -0.450387877
    outer loop
      vertex 4.39099543 2.263983 1.49160496
      vertex 4.39134935 2.26313131 1.49244656
      vertex 4.21469603 2.32279132 1.62711018
    endloop
  endfacet
  facet normal -0.574226666 -0.683677187 -0.450387877
    outer loop
      vertex 4.39099543 2.263983 1.49160496
      vertex 4.21469603 2.32279132 1.62711018
      vertex 4.21434211 2.32364301 1.62626857
    endloop
  endfacet
  facet normal 0.768057903 -0.259391342 -0.58549397
    outer loop
      vertex 4.39297461 2.26570289 1.49343931
      vertex 4.39134935 2.26313131 1.49244656
      vertex 4.39099543 2.263983 1.49160496
    endloop
  endfacet
  facet normal -0.768057903 0.259391342 0.58549397
    outer loop
      vertex 4.21632129 2.3253629 1.62810292
      vertex 4.21434211 2.32364301 1.62626857
      vertex 4.21469603 2.32279132 1.62711018
    endloop
  endfacet
  facet normal -0.422039994 -0.892675293 -0.15815519
    outer loop
      vertex 4.39134935 2.26313131 1.49244656
      vertex 4.39195071 2.26267112 1.49343931
      vertex 4.21529739 2.32233113 1.62810292
    endloop
  endfacet
  facet normal -0.422039994 -0.892675293 -0.15815519
    outer loop
      vertex 4.39134935 2.26313131 1.49244656
      vertex 4.21529739 2.32233113 1.62810292
      vertex 4.21469603 2.32279132 1.62711018
    endloop
  endfacet
  facet normal 0.768057903 -0.259391342 -0.58549397
    outer loop
      vertex 4.39297461 2.26570289 1.49343931
      vertex 4.39195071 2.26267112 1.49343931
      vertex 4.39134935 2.26313131 1.49244656
    endloop
  endfacet
  facet normal -0.768057903 0.259391342 0.58549397
    outer loop
      vertex 4.21632129 2.3253629 1.62810292
      vertex 4.21469603 2.32279132 1.62711018
      vertex 4.21529739 2.32233113 1.62810292
    endloop
  endfacet
  facet normal -0.205601558 -0.965771679 0.15815519
    outer loop
      vertex 4.39195071 2.26267112 1.49343931
      vertex 4.39270794 2.26267248 1.49443205
      vertex 4.21605462 2.32233249 1.62909566
    endloop
  endfacet
  facet normal -0.205601558 -0.965771679 0.15815519
    outer loop
      vertex 4.39195071 2.26267112 1.49343931
      vertex 4.21605462 2.32233249 1.62909566
      vertex 4.21529739 2.32233113 1.62810292
    endloop
  endfacet
  facet normal 0.768057903 -0.259391342 -0.58549397
    outer loop
      vertex 4.39297461 2.26570289 1.49343931
      vertex 4.39270794 2.26267248 1.49443205
      vertex 4.39195071 2.26267112 1.49343931
    endloop
  endfacet
  facet normal -0.768057903 0.259391342 0.58549397
    outer loop
      vertex 4.21632129 2.3253629 1.62810292
      vertex 4.21529739 2.32233113 1.62810292
      vertex 4.21605462 2.32233249 1.62909566
    endloop
  endfacet
  facet normal 0.0421378509 -0.89183808 0.450387877
    outer loop
      vertex 4.39270794 2.26267248 1.49443205
      vertex 4.39350577 2.2631352 1.49527366
      vertex 4.21685245 2.32279521 1.62993727
    endloop
  endfacet
  facet normal 0.0421378509 -0.89183808 0.450387877
    outer loop
      vertex 4.39270794 2.26267248 1.49443205
      vertex 4.21685245 2.32279521 1.62993727
      vertex 4.21605462 2.32233249 1.62909566
    endloop
  endfacet
  facet normal 0.768057903 -0.259391342 -0.58549397
    outer loop
      vertex 4.39297461 2.26570289 1.49343931
      vertex 4.39350577 2.2631352 1.49527366
      vertex 4.39270794 2.26267248 1.49443205
    endloop
  endfacet
  facet normal -0.768057903 0.259391342 0.58549397
    outer loop
      vertex 4.21632129 2.3253629 1.62810292
      vertex 4.21605462 2.32233249 1.62909566
      vertex 4.21685245 2.32279521 1.62993727
    endloop
  endfacet
  facet normal 0.283462154 -0.682130219 0.674053092
    outer loop
      vertex 4.39350577 2.2631352 1.49527366
      vertex 4.39422274 2.26398882 1.495836
      vertex 4.21756942 2.32364883 1.63049962
    endloop
  endfacet
  facet normal 0.283462154 -0.682130219 0.674053092
    outer loop
      vertex 4.39350577 2.2631352 1.49527366
      vertex 4.21756942 2.32364883 1.63049962
      vertex 4.21685245 2.32279521 1.62993727
    endloop
  endfacet
  facet normal 0.768057903 -0.259391342 -0.58549397
    outer loop
      vertex 4.39297461 2.26570289 1.49343931
      vertex 4.39422274 2.26398882 1.495836
      vertex 4.39350577 2.2631352 1.49527366
    endloop
  endfacet
  facet normal -0.768057903 0.259391342 0.58549397
    outer loop
      vertex 4.21632129 2.3253629 1.62810292
      vertex 4.21685245 2.32279521 1.62993727
      vertex 4.21756942 2.32364883 1.63049962
    endloop
  endfacet
  facet normal 0.481631914 -0.368574215 0.795099835
    outer loop
      vertex 4.39422274 2.26398882 1.495836
      vertex 4.39474969 2.2651034 1.49603347
      vertex 4.21809637 2.32476341 1.63069709
    endloop
  endfacet
  facet normal 0.481631914 -0.368574215 0.795099835
    outer loop
      vertex 4.39422274 2.26398882 1.495836
      vertex 4.21809637 2.32476341 1.63069709
      vertex 4.21756942 2.32364883 1.63049962
    endloop
  endfacet
  facet normal 0.768057903 -0.259391342 -0.58549397
    outer loop
      vertex 4.39297461 2.26570289 1.49343931
      vertex 4.39474969 2.2651034 1.49603347
      vertex 4.39422274 2.26398882 1.495836
    endloop
  endfacet
  facet normal -0.768057903 0.259391342 0.58549397
    outer loop
      vertex 4.21632129 2.3253629 1.62810292
      vertex 4.21756942 2.32364883 1.63049962
      vertex 4.21809637 2.32476341 1.63069709
    endloop
  endfacet
  facet normal 0.606477581 0.00109387142 0.795099835
    outer loop
      vertex 4.39474969 2.2651034 1.49603347
      vertex 4.3950064 2.26630924 1.495836
      vertex 4.21835308 2.32596925 1.63049962
    endloop
  endfacet
  facet normal 0.606477581 0.00109387142 0.795099835
    outer loop
      vertex 4.39474969 2.2651034 1.49603347
      vertex 4.21835308 2.32596925 1.63049962
      vertex 4.21809637 2.32476341 1.63069709
    endloop
  endfacet
  facet normal 0.768057903 -0.259391342 -0.58549397
    outer loop
      vertex 4.39297461 2.26570289 1.49343931
      vertex 4.3950064 2.26630924 1.495836
      vertex 4.39474969 2.2651034 1.49603347
    endloop
  endfacet
  facet normal -0.768057903 0.259391342 0.58549397
    outer loop
      vertex 4.21632129 2.3253629 1.62810292
      vertex 4.21809637 2.32476341 1.63069709
      vertex 4.21835308 2.32596925 1.63049962
    endloop
  endfacet
  facet normal 0.638992534 0.370595426 0.674053092
    outer loop
      vertex 4.3950064 2.26630924 1.495836
      vertex 4.39495379 2.26742277 1.49527366
      vertex 4.21830047 2.32708278 1.62993727
    endloop
  endfacet
  facet normal 0.638992534 0.370595426 0.674053092
    outer loop
      vertex 4.3950064 2.26630924 1.495836
      vertex 4.21830047 2.32708278 1.62993727
      vertex 4.21835308 2.32596925 1.63049962
    endloop
  endfacet
  facet normal 0.768057903 -0.259391342 -0.58549397
    outer loop
      vertex 4.39297461 2.26570289 1.49343931
      vertex 4.39495379 2.26742277 1.49527366
      vertex 4.3950064 2.26630924 1.495836
    endloop
  endfacet
  facet normal -0.768057903 0.259391342 0.58549397
    outer loop
      vertex 4.21632129 2.3253629 1.62810292
      vertex 4.21835308 2.32596925 1.63049962
      vertex 4.21830047 2.32708278 1.62993727
    endloop
  endfacet
  facet normal 0.574226666 0.683677187 0.450387877
    outer loop
      vertex 4.39495379 2.26742277 1.49527366
      vertex 4.39459986 2.26827446 1.49443205
      vertex 4.21794654 2.32793447 1.62909566
    endloop
  endfacet
  facet normal 0.574226666 0.683677187 0.450387877
    outer loop
      vertex 4.39495379 2.26742277 1.49527366
      vertex 4.21794654 2.32793447 1.62909566
      vertex 4.21830047 2.32708278 1.62993727
    endloop
  endfacet
  facet normal 0.768057903 -0.259391342 -0.58549397
    outer loop
      vertex 4.39297461 2.26570289 1.49343931
      vertex 4.39459986 2.26827446 1.49443205
      vertex 4.39495379 2.26742277 1.49527366
    endloop
  endfacet
  facet normal -0.768057903 0.259391342 0.58549397
    outer loop
      vertex 4.21632129 2.3253629 1.62810292
      vertex 4.21830047 2.32708278 1.62993727
      vertex 4.21794654 2.32793447 1.62909566
    endloop
  endfacet
  facet normal 0.422039994 0.892675293 0.15815519
    outer loop
      vertex 4.39459986 2.26827446 1.49443205
      vertex 4.39399851 2.26873466 1.49343931
      vertex 4.21734519 2.32839467 1.62810292
    endloop
  endfacet
  facet normal 0.422039994 0.892675293 0.15815519
    outer loop
      vertex 4.39459986 2.26827446 1.49443205
      vertex 4.21734519 2.32839467 1.62810292
      vertex 4.21794654 2.32793447 1.62909566
    endloop
  endfacet
  facet normal 0.768057903 -0.259391342 -0.58549397
    outer loop
      vertex 4.39297461 2.26570289 1.49343931
      vertex 4.39399851 2.26873466 1.49343931
      vertex 4.39459986 2.26827446 1.49443205
    endloop
  endfacet
  facet normal -0.768057903 0.259391342 0.58549397
    outer loop
      vertex 4.21632129 2.3253629 1.62810292
      vertex 4.21794654 2.32793447 1.62909566
      vertex 4.21734519 2.32839467 1.62810292
    endloop
  endfacet
  facet normal 0.205601558 0.965771679 -0.15815519
    outer loop
      vertex 4.37672957 2.27236371 1.46917794
      vertex 4.37597234 2.27236234 1.4681852
      vertex 4.19931902 2.33202235 1.60284881
    endloop
  endfacet
  facet normal 0.205601558 0.965771679 -0.15815519
    outer loop
      vertex 4.37672957 2.27236371 1.46917794
      vertex 4.19931902 2.33202235 1.60284881
      vertex 4.20007626 2.33202371 1.60384155
    endloop
  endfacet
  facet normal 0.768057903 -0.259391342 -0.58549397
    outer loop
      vertex 4.37570567 2.26933194 1.46917794
      vertex 4.37597234 2.27236234 1.4681852
      vertex 4.37672957 2.27236371 1.46917794
    endloop
  endfacet
  facet normal -0.768057903 0.259391342 0.58549397
    outer loop
      vertex 4.19905235 2.32899194 1.60384155
      vertex 4.20007626 2.33202371 1.60384155
      vertex 4.19931902 2.33202235 1.60284881
    endloop
  endfacet
  facet normal -0.0421378509 0.89183808 -0.450387877
    outer loop
      vertex 4.37597234 2.27236234 1.4681852
      vertex 4.37517451 2.27189962 1.46734359
      vertex 4.19852119 2.33155963 1.6020072
    endloop
  endfacet
  facet normal -0.0421378509 0.89183808 -0.450387877
    outer loop
      vertex 4.37597234 2.27236234 1.4681852
      vertex 4.19852119 2.33155963 1.6020072
      vertex 4.19931902 2.33202235 1.60284881
    endloop
  endfacet
  facet normal 0.768057903 -0.259391342 -0.58549397
    outer loop
      vertex 4.37570567 2.26933194 1.46917794
      vertex 4.37517451 2.27189962 1.46734359
      vertex 4.37597234 2.27236234 1.4681852
    endloop
  endfacet
  facet normal -0.768057903 0.259391342 0.58549397
    outer loop
      vertex 4.19905235 2.32899194 1.60384155
      vertex 4.19931902 2.33202235 1.60284881
      vertex 4.19852119 2.33155963 1.6020072
    endloop
  endfacet
  facet normal -0.283462154 0.682130219 -0.674053092
    outer loop
      vertex 4.37517451 2.27189962 1.46734359
      vertex 4.37445754 2.271046 1.46678124
      vertex 4.19780422 2.33070601 1.60144486
    endloop
  endfacet
  facet normal -0.283462154 0.682130219 -0.674053092
    outer loop
      vertex 4.37517451 2.27189962 1.46734359
      vertex 4.19780422 2.33070601 1.60144486
      vertex 4.19852119 2.33155963 1.6020072
    endloop
  endfacet
  facet normal 0.768057903 -0.259391342 -0.58549397
    outer loop
      vertex 4.37570567 2.26933194 1.46917794
      vertex 4.37445754 2.271046 1.46678124
      vertex 4.37517451 2.27189962 1.46734359
    endloop
  endfacet
  facet normal -0.768057903 0.259391342 0.58549397
    outer loop
      vertex 4.19905235 2.32899194 1.60384155
      vertex 4.19852119 2.33155963 1.6020072
      vertex 4.19780422 2.33070601 1.60144486
    endloop
  endfacet
  facet normal -0.481631914 0.368574215 -0.795099835
    outer loop
      vertex 4.37445754 2.271046 1.46678124
      vertex 4.37393059 2.26993142 1.46658377
      vertex 4.19727727 2.32959143 1.60124739
    endloop
  endfacet
  facet normal -0.481631914 0.368574215 -0.795099835
    outer loop
      vertex 4.37445754 2.271046 1.46678124
      vertex 4.19727727 2.32959143 1.60124739
      vertex 4.19780422 2.33070601 1.60144486
    endloop
  endfacet
  facet normal 0.768057903 -0.259391342 -0.58549397
    outer loop
      vertex 4.37570567 2.26933194 1.46917794
      vertex 4.37393059 2.26993142 1.46658377
      vertex 4.37445754 2.271046 1.46678124
    endloop
  endfacet
  facet normal -0.768057903 0.259391342 0.58549397
    outer loop
      vertex 4.19905235 2.32899194 1.60384155
      vertex 4.19780422 2.33070601 1.60144486
      vertex 4.19727727 2.32959143 1.60124739
    endloop
  endfacet
  facet normal -0.606477581 -0.00109387142 -0.795099835
    outer loop
      vertex 4.37393059 2.26993142 1.46658377
      vertex 4.37367388 2.26872558 1.46678124
      vertex 4.19702056 2.32838559 1.60144486
    endloop
  endfacet
  facet normal -0.606477581 -0.00109387142 -0.795099835
    outer loop
      vertex 4.37393059 2.26993142 1.46658377
      vertex 4.19702056 2.32838559 1.60144486
      vertex 4.19727727 2.32959143 1.60124739
    endloop
  endfacet
  facet normal 0.768057903 -0.259391342 -0.58549397
    outer loop
      vertex 4.37570567 2.26933194 1.46917794
      vertex 4.37367388 2.26872558 1.46678124
      vertex 4.37393059 2.26993142 1.46658377
    endloop
  endfacet
  facet normal -0.768057903 0.259391342 0.58549397
    outer loop
      vertex 4.19905235 2.32899194 1.60384155
      vertex 4.19727727 2.32959143 1.60124739
      vertex 4.19702056 2.32838559 1.60144486
    endloop
  endfacet
  facet normal -0.638992534 -0.370595426 -0.674053092
    outer loop
      vertex 4.37367388 2.26872558 1.46678124
      vertex 4.37372649 2.26761205 1.46734359
      vertex 4.19707317 2.32727206 1.6020072
    endloop
  endfacet
  facet normal -0.638992534 -0.370595426 -0.674053092
    outer loop
      vertex 4.37367388 2.26872558 1.46678124
      vertex 4.19707317 2.32727206 1.6020072
      vertex 4.19702056 2.32838559 1.60144486
    endloop
  endfacet
  facet normal 0.768057903 -0.259391342 -0.58549397
    outer loop
      vertex 4.37570567 2.26933194 1.46917794
      vertex 4.37372649 2.26761205 1.46734359
      vertex 4.37367388 2.26872558 1.46678124
    endloop
  endfacet
  facet normal -0.768057903 0.259391342 0.58549397
    outer loop
      vertex 4.19905235 2.32899194 1.60384155
      vertex 4.19702056 2.32838559 1.60144486
      vertex 4.19707317 2.32727206 1.6020072
    endloop
  endfacet
  facet normal -0.574226666 -0.683677187 -0.450387877
    outer loop
      vertex 4.37372649 2.26761205 1.46734359
      vertex 4.37408042 2.26676036 1.4681852
      vertex 4.1974271 2.32642037 1.60284881
    endloop
  endfacet
  facet normal -0.574226666 -0.683677187 -0.450387877
    outer loop
      vertex 4.37372649 2.26761205 1.46734359
      vertex 4.1974271 2.32642037 1.60284881
      vertex 4.19707317 2.32727206 1.6020072
    endloop
  endfacet
  facet normal 0.768057903 -0.259391342 -0.58549397
    outer loop
      vertex 4.37570567 2.26933194 1.46917794
      vertex 4.37408042 2.26676036 1.4681852
      vertex 4.37372649 2.26761205 1.46734359
    endloop
  endfacet
  facet normal -0.768057903 0.259391342 0.58549397
    outer loop
      vertex 4.19905235 2.32899194 1.60384155
      vertex 4.19707317 2.32727206 1.6020072
      vertex 4.1974271 2.32642037 1.60284881
    endloop
  endfacet
  facet normal -0.422039994 -0.892675293 -0.15815519
    outer loop
      vertex 4.37408042 2.26676036 1.4681852
      vertex 4.37468177 2.26630017 1.46917794
      vertex 4.19802845 2.32596018 1.60384155
    endloop
  endfacet
  facet normal -0.422039994 -0.892675293 -0.15815519
    outer loop
      vertex 4.37408042 2.26676036 1.4681852
      vertex 4.19802845 2.32596018 1.60384155
      vertex 4.1974271 2.32642037 1.60284881
    endloop
  endfacet
  facet normal 0.768057903 -0.259391342 -0.58549397
    outer loop
      vertex 4.37570567 2.26933194 1.46917794
      vertex 4.37468177 2.26630017 1.46917794
      vertex 4.37408042 2.26676036 1.4681852
    endloop
  endfacet
  facet normal -0.768057903 0.259391342 0.58549397
    outer loop
      vertex 4.19905235 2.32899194 1.60384155
      vertex 4.1974271 2.32642037 1.60284881
      vertex 4.19802845 2.32596018 1.60384155
    endloop
  endfacet
  facet normal -0.205601558 -0.965771679 0.15815519
    outer loop
      vertex 4.37468177 2.26630017 1.46917794
      vertex 4.37543901 2.26630153 1.47017068
      vertex 4.19878569 2.32596154 1.6048343
    endloop
  endfacet
  facet normal -0.205601558 -0.965771679 0.15815519
    outer loop
      vertex 4.37468177 2.26630017 1.46917794
      vertex 4.19878569 2.32596154 1.6048343
      vertex 4.19802845 2.32596018 1.60384155
    endloop
  endfacet
  facet normal 0.768057903 -0.259391342 -0.58549397
    outer loop
      vertex 4.37570567 2.26933194 1.46917794
      vertex 4.37543901 2.26630153 1.47017068
      vertex 4.37468177 2.26630017 1.46917794
    endloop
  endfacet
  facet normal -0.768057903 0.259391342 0.58549397
    outer loop
      vertex 4.19905235 2.32899194 1.60384155
      vertex 4.19802845 2.32596018 1.60384155
      vertex 4.19878569 2.32596154 1.6048343
    endloop
  endfacet
  facet normal 0.0421378509 -0.89183808 0.450387877
    outer loop
      vertex 4.37543901 2.26630153 1.47017068
      vertex 4.37623684 2.26676425 1.47101229
      vertex 4.19958352 2.32642426 1.60567591
    endloop
  endfacet
  facet normal 0.0421378509 -0.89183808 0.450387877
    outer loop
      vertex 4.37543901 2.26630153 1.47017068
      vertex 4.19958352 2.32642426 1.60567591
      vertex 4.19878569 2.32596154 1.6048343
    endloop
  endfacet
  facet normal 0.768057903 -0.259391342 -0.58549397
    outer loop
      vertex 4.37570567 2.26933194 1.46917794
      vertex 4.37623684 2.26676425 1.47101229
      vertex 4.37543901 2.26630153 1.47017068
    endloop
  endfacet
  facet normal -0.768057903 0.259391342 0.58549397
    outer loop
      vertex 4.19905235 2.32899194 1.60384155
      vertex 4.19878569 2.32596154 1.6048343
      vertex 4.19958352 2.32642426 1.60567591
    endloop
  endfacet
  facet normal 0.283462154 -0.682130219 0.674053092
    outer loop
      vertex 4.37623684 2.26676425 1.47101229
      vertex 4.37695381 2.26761787 1.47157464
      vertex 4.20030049 2.32727788 1.60623825
    endloop
  endfacet
  facet normal 0.283462154 -0.682130219 0.674053092
    outer loop
      vertex 4.37623684 2.26676425 1.47101229
      vertex 4.20030049 2.32727788 1.60623825
      vertex 4.19958352 2.32642426 1.60567591
    endloop
  endfacet
  facet normal 0.768057903 -0.259391342 -0.58549397
    outer loop
      vertex 4.37570567 2.26933194 1.46917794
      vertex 4.37695381 2.26761787 1.47157464
      vertex 4.37623684 2.26676425 1.47101229
    endloop
  endfacet
  facet normal -0.768057903 0.259391342 0.58549397
    outer loop
      vertex 4.19905235 2.32899194 1.60384155
      vertex 4.19958352 2.32642426 1.60567591
      vertex 4.20030049 2.32727788 1.60623825
    endloop
  endfacet
  facet normal 0.481631914 -0.368574215 0.795099835
    outer loop
      vertex 4.37695381 2.26761787 1.47157464
      vertex 4.37748076 2.26873245 1.47177211
      vertex 4.20082744 2.32839246 1.60643572
    endloop
  endfacet
  facet normal 0.481631914 -0.368574215 0.795099835
    outer loop
      vertex 4.37695381 2.26761787 1.47157464
      vertex 4.20082744 2.32839246 1.60643572
      vertex 4.20030049 2.32727788 1.60623825
    endloop
  endfacet
  facet normal 0.768057903 -0.259391342 -0.58549397
    outer loop
      vertex 4.37570567 2.26933194 1.46917794
      vertex 4.37748076 2.26873245 1.47177211
      vertex 4.37695381 2.26761787 1.47157464
    endloop
  endfacet
  facet normal -0.768057903 0.259391342 0.58549397
    outer loop
      vertex 4.19905235 2.32899194 1.60384155
      vertex 4.20030049 2.32727788 1.60623825
      vertex 4.20082744 2.32839246 1.60643572
    endloop
  endfacet
  facet normal 0.606477581 0.00109387142 0.795099835
    outer loop
      vertex 4.37748076 2.26873245 1.47177211
      vertex 4.37773747 2.26993829 1.47157464
      vertex 4.20108415 2.3295983 1.60623825
    endloop
  endfacet
  facet normal 0.606477581 0.00109387142 0.795099835
    outer loop
      vertex 4.37748076 2.26873245 1.47177211
      vertex 4.20108415 2.3295983 1.60623825
      vertex 4.20082744 2.32839246 1.60643572
    endloop
  endfacet
  facet normal 0.768057903 -0.259391342 -0.58549397
    outer loop
      vertex 4.37570567 2.26933194 1.46917794
      vertex 4.37773747 2.26993829 1.47157464
      vertex 4.37748076 2.26873245 1.47177211
    endloop
  endfacet
  facet normal -0.768057903 0.259391342 0.58549397
    outer loop
      vertex 4.19905235 2.32899194 1.60384155
      vertex 4.20082744 2.32839246 1.60643572
      vertex 4.20108415 2.3295983 1.60623825
    endloop
  endfacet
  facet normal 0.638992534 0.370595426 0.674053092
    outer loop
      vertex 4.37773747 2.26993829 1.47157464
      vertex 4.37768485 2.27105182 1.47101229
      vertex 4.20103153 2.33071183 1.60567591
    endloop
  endfacet
  facet normal 0.638992534 0.370595426 0.674053092
    outer loop
      vertex 4.37773747 2.26993829 1.47157464
      vertex 4.20103153 2.33071183 1.60567591
      vertex 4.20108415 2.3295983 1.60623825
    endloop
  endfacet
  facet normal 0.768057903 -0.259391342 -0.58549397
    outer loop
      vertex 4.37570567 2.26933194 1.46917794
      vertex 4.37768485 2.27105182 1.47101229
      vertex 4.37773747 2.26993829 1.47157464
    endloop
  endfacet
  facet normal -0.768057903 0.259391342 0.58549397
    outer loop
      vertex 4.19905235 2.32899194 1.60384155
      vertex 4.20108415 2.3295983 1.60623825
      vertex 4.20103153 2.33071183 1.60567591
    endloop
  endfacet
  facet normal 0.574226666 0.683677187 0.450387877
    outer loop
      vertex 4.37768485 2.27105182 1.47101229
      vertex 4.37733093 2.27190351 1.47017068
      vertex 4.20067761 2.33156352 1.6048343
    endloop
  endfacet
  facet normal 0.574226666 0.683677187 0.450387877
    outer loop
      vertex 4.37768485 2.27105182 1.47101229
      vertex 4.20067761 2.33156352 1.6048343
      vertex 4.20103153 2.33071183 1.60567591
    endloop
  endfacet
  facet normal 0.768057903 -0.259391342 -0.58549397
    outer loop
      vertex 4.37570567 2.26933194 1.46917794
      vertex 4.37733093 2.27190351 1.47017068
      vertex 4.37768485 2.27105182 1.47101229
    endloop
  endfacet
  facet normal -0.768057903 0.259391342 0.58549397
    outer loop
      vertex 4.19905235 2.32899194 1.60384155
      vertex 4.20103153 2.33071183 1.60567591
      vertex 4.20067761 2.33156352 1.6048343
    endloop
  endfacet
  facet normal 0.422039994 0.892675293 0.15815519
    outer loop
      vertex 4.37733093 2.27190351 1.47017068
      vertex 4.37672957 2.27236371 1.46917794
      vertex 4.20007626 2.33202371 1.60384155
    endloop
  endfacet
  facet normal 0.422039994 0.892675293 0.15815519
    outer loop
      vertex 4.37733093 2.27190351 1.47017068
      vertex 4.20007626 2.33202371 1.60384155
      vertex 4.20067761 2.33156352 1.6048343
    endloop
  endfacet
  facet normal 0.768057903 -0.259391342 -0.58549397
    outer loop
      vertex 4.37570567 2.26933194 1.46917794
      vertex 4.37672957 2.27236371 1.46917794
      vertex 4.37733093 2.27190351 1.47017068
    endloop
  endfacet
  facet normal -0.768057903 0.259391342 0.58549397
    outer loop
      vertex 4.19905235 2.32899194 1.60384155
      vertex 4.20067761 2.33156352 1.6048343
      vertex 4.20007626 2.33202371 1.60384155
    endloop
  endfacet
endsolid f28_features
