solid beam
  facet normal 0.4369257001204055 0.6350463807059279 -0.637033772202538
    outer loop
      vertex 5.62053108215332 0.5095871686935425 0.23674261569976807
      vertex 5.672163963317871 0.42418646812438965 0.18702206015586853
      vertex 5.656741619110107 0.4221831262111664 0.174447163939476
    endloop
  endfacet
  facet normal 0.43692650845273523 0.635046345473434 -0.637033252909248
    outer loop
      vertex 5.62053108215332 0.5095871686935425 0.23674261569976807
      vertex 5.656741619110107 0.4221831262111664 0.174447163939476
      vertex 5.605108737945557 0.5075838565826416 0.22416771948337555
    endloop
  endfacet
  facet normal 0.4369183969004246 0.6350454320630939 -0.6370397269132917
    outer loop
      vertex 5.635953903198242 0.5115904808044434 0.24931751191616058
      vertex 5.687586784362793 0.4261897802352905 0.19959695637226105
      vertex 5.672163963317871 0.42418646812438965 0.18702206015586853
    endloop
  endfacet
  facet normal 0.4369183969004246 0.6350454320630939 -0.6370397269132917
    outer loop
      vertex 5.635953903198242 0.5115904808044434 0.24931751191616058
      vertex 5.672163963317871 0.42418646812438965 0.18702206015586853
      vertex 5.62053108215332 0.5095871686935425 0.23674261569976807
    endloop
  endfacet
  facet normal 0.43692114403963217 0.635045815170532 -0.6370374608494335
    outer loop
      vertex 5.8279194831848145 0.1996353268623352 0.07000000029802322
      vertex 5.847850322723389 0.07857704907655716 -0.03700995072722435
      vertex 5.796217441558838 0.1639777421951294 0.012710602954030037
    endloop
  endfacet
  facet normal 0.43692182674849606 0.6350459476989269 -0.6370368604891943
    outer loop
      vertex 5.692951679229736 0.33477911353111267 0.11215171217918396
      vertex 5.672163963317871 0.42418646812438965 0.18702206015586853
      vertex 5.744584560394287 0.24937842786312103 0.062431156635284424
    endloop
  endfacet
  facet normal 0.4369183969004246 0.6350454320630939 -0.6370397269132917
    outer loop
      vertex 5.656741619110107 0.4221831262111664 0.174447163939476
      vertex 5.692951679229736 0.33477911353111267 0.11215171217918396
      vertex 5.6413187980651855 0.4201798141002655 0.1618722677230835
    endloop
  endfacet
  facet normal 0.4369211048783924 0.6350458451404302 -0.6370374578325215
    outer loop
      vertex 5.8279194831848145 0.1996353268623352 0.07000000029802322
      vertex 5.796217441558838 0.1639777421951294 0.012710602954030037
      vertex 5.744584560394287 0.24937842786312103 0.062431156635284424
    endloop
  endfacet
  facet normal 0.43692165215078244 0.6350458292999047 -0.6370370982687167
    outer loop
      vertex 5.788483142852783 0.2868196666240692 0.12986379861831665
      vertex 5.850649356842041 0.18399681150913239 0.07000000029802322
      vertex 5.8279194831848145 0.1996353268623352 0.07000000029802322
    endloop
  endfacet
  facet normal 0.43692084232442996 0.6350456366663713 -0.6370378457309375
    outer loop
      vertex 5.687586784362793 0.4261897802352905 0.19959695637226105
      vertex 5.726316928863525 0.38964253664016724 0.18972758948802948
      vertex 5.788483142852783 0.2868196666240692 0.12986379861831665
    endloop
  endfacet
  facet normal 0.43692160270212865 0.6350458298460919 -0.6370371316393508
    outer loop
      vertex 5.788483142852783 0.2868196666240692 0.12986379861831665
      vertex 5.8279194831848145 0.1996353268623352 0.07000000029802322
      vertex 5.687586784362793 0.4261897802352905 0.19959695637226105
    endloop
  endfacet
  facet normal 0.4369264868612015 0.6350450794543918 -0.6370345297861754
    outer loop
      vertex 5.656741619110107 0.4221831262111664 0.174447163939476
      vertex 5.672163963317871 0.42418646812438965 0.18702206015586853
      vertex 5.692951679229736 0.33477911353111267 0.11215171217918396
    endloop
  endfacet
  facet normal 0.43692116746192755 0.6350459764331066 -0.6370372840264757
    outer loop
      vertex 5.744584560394287 0.24937842786312103 0.062431156635284424
      vertex 5.672163963317871 0.42418646812438965 0.18702206015586853
      vertex 5.8279194831848145 0.1996353268623352 0.07000000029802322
    endloop
  endfacet
  facet normal 0.43691726429600414 0.6350453548334521 -0.6370405807046756
    outer loop
      vertex 5.6413187980651855 0.4201798141002655 0.1618722677230835
      vertex 5.589685916900635 0.505580484867096 0.21159280836582184
      vertex 5.605108737945557 0.5075838565826416 0.22416771948337555
    endloop
  endfacet
  facet normal 0.43691847550704305 0.6350453020468512 -0.6370398026095582
    outer loop
      vertex 5.6413187980651855 0.4201798141002655 0.1618722677230835
      vertex 5.605108737945557 0.5075838565826416 0.22416771948337555
      vertex 5.656741619110107 0.4221831262111664 0.174447163939476
    endloop
  endfacet
  facet normal 0.4369266637847735 0.6350460885574517 -0.6370334024851355
    outer loop
      vertex 5.570018768310547 0.5931347012519836 0.28538426756858826
      vertex 5.62053108215332 0.5095871686935425 0.23674261569976807
      vertex 5.605108737945557 0.5075838565826416 0.22416771948337555
    endloop
  endfacet
  facet normal 0.43691726404903175 0.6350453552419454 -0.6370405804668491
    outer loop
      vertex 5.589685916900635 0.505580484867096 0.21159280836582184
      vertex 5.538053035736084 0.5909811854362488 0.26131337881088257
      vertex 5.605108737945557 0.5075838565826416 0.22416771948337555
    endloop
  endfacet
  facet normal 0.4369202605827656 0.6350463898372061 -0.6370374939099107
    outer loop
      vertex 5.538053035736084 0.5909811854362488 0.26131337881088257
      vertex 5.570018768310547 0.5931347012519836 0.28538426756858826
      vertex 5.605108737945557 0.5075838565826416 0.22416771948337555
    endloop
  endfacet
  facet normal 0.43692094680067645 0.6350457086534935 -0.6370377023124946
    outer loop
      vertex 5.664150714874268 0.49246540665626526 0.2495913952589035
      vertex 5.726316928863525 0.38964253664016724 0.18972758948802948
      vertex 5.687586784362793 0.4261897802352905 0.19959695637226105
    endloop
  endfacet
  facet normal 0.43692070221713114 0.6350457315149926 -0.6370378472733601
    outer loop
      vertex 5.664150714874268 0.49246540665626526 0.2495913952589035
      vertex 5.687586784362793 0.4261897802352905 0.19959695637226105
      vertex 5.635953903198242 0.5115904808044434 0.24931751191616058
    endloop
  endfacet
  facet normal 0.4369202840642521 0.6350456248133697 -0.6370382404366399
    outer loop
      vertex 5.60198450088501 0.5952882766723633 0.30945518612861633
      vertex 5.635953903198242 0.5115904808044434 0.24931751191616058
      vertex 5.570018768310547 0.5931347012519836 0.28538426756858826
    endloop
  endfacet
  facet normal 0.43692062004586546 0.6350456077935082 -0.6370380269661382
    outer loop
      vertex 5.664150714874268 0.49246540665626526 0.2495913952589035
      vertex 5.635953903198242 0.5115904808044434 0.24931751191616058
      vertex 5.60198450088501 0.5952882766723633 0.30945518612861633
    endloop
  endfacet
  facet normal 0.4369186308307707 0.6350450451395204 -0.6370399521825214
    outer loop
      vertex 5.635953903198242 0.5115904808044434 0.24931751191616058
      vertex 5.62053108215332 0.5095871686935425 0.23674261569976807
      vertex 5.570018768310547 0.5931347012519836 0.28538426756858826
    endloop
  endfacet
  facet normal 0.4369184335019841 0.6350453715237024 -0.6370397621597064
    outer loop
      vertex 5.8279194831848145 0.1996353268623352 0.07000000029802322
      vertex 5.672163963317871 0.42418646812438965 0.18702206015586853
      vertex 5.687586784362793 0.4261897802352905 0.19959695637226105
    endloop
  endfacet
  facet normal -0.4369244354529661 -0.6350465178003615 0.6370345029382178
    outer loop
      vertex 5.615756988525391 0.4360208809375763 0.25431790947914124
      vertex 5.568861961364746 0.5135849714279175 0.29947593808174133
      vertex 5.553439617156982 0.5115815997123718 0.28690105676651
    endloop
  endfacet
  facet normal -0.43691896420566406 -0.635044493732885 0.6370402732143344
    outer loop
      vertex 5.615756988525391 0.4360208809375763 0.25431790947914124
      vertex 5.553439617156982 0.5115815997123718 0.28690105676651
      vertex 5.600334167480469 0.4340175688266754 0.24174301326274872
    endloop
  endfacet
  facet normal -0.43691850742322663 -0.6350459021714895 0.6370391824733069
    outer loop
      vertex 5.6311798095703125 0.43802422285079956 0.26689282059669495
      vertex 5.584284782409668 0.5155882835388184 0.31205084919929504
      vertex 5.568861961364746 0.5135849714279175 0.29947593808174133
    endloop
  endfacet
  facet normal -0.43691786425874896 -0.6350456642305125 0.6370398607886328
    outer loop
      vertex 5.6311798095703125 0.43802422285079956 0.26689282059669495
      vertex 5.568861961364746 0.5135849714279175 0.29947593808174133
      vertex 5.615756988525391 0.4360208809375763 0.25431790947914124
    endloop
  endfacet
  facet normal -0.43691805473664475 -0.6350459980054297 0.6370393974178002
    outer loop
      vertex 5.771864414215088 0.20533205568790436 0.13141869008541107
      vertex 5.724969387054443 0.28289610147476196 0.17657673358917236
      vertex 5.7095465660095215 0.2808927893638611 0.16400183737277985
    endloop
  endfacet
  facet normal -0.43691773315404764 -0.6350458790348429 0.6370397365756646
    outer loop
      vertex 5.771864414215088 0.20533205568790436 0.13141869008541107
      vertex 5.7095465660095215 0.2808927893638611 0.16400183737277985
      vertex 5.756441593170166 0.20332872867584229 0.11884379386901855
    endloop
  endfacet
  facet normal -0.43691773328991657 -0.6350458788101149 0.6370397367065029
    outer loop
      vertex 5.818759441375732 0.12776800990104675 0.08626066148281097
      vertex 5.771864414215088 0.20533205568790436 0.13141869008541107
      vertex 5.756441593170166 0.20332872867584229 0.11884379386901855
    endloop
  endfacet
  facet normal -0.43691789458597635 -0.6350459384821918 0.6370395665952234
    outer loop
      vertex 5.818759441375732 0.12776800990104675 0.08626066148281097
      vertex 5.756441593170166 0.20332872867584229 0.11884379386901855
      vertex 5.8033366203308105 0.12576468288898468 0.07368575781583786
    endloop
  endfacet
  facet normal -0.4369205147104385 -0.6350466447716717 0.6370370654753205
    outer loop
      vertex 5.553439617156982 0.5115815997123718 0.28690105676651
      vertex 5.523087501525879 0.5892958641052246 0.3435550928115845
      vertex 5.491121768951416 0.5871423482894897 0.3194841742515564
    endloop
  endfacet
  facet normal -0.43691585316915516 -0.6350449202179513 0.6370419817836539
    outer loop
      vertex 5.544715881347656 0.49849769473075867 0.26787498593330383
      vertex 5.553439617156982 0.5115815997123718 0.28690105676651
      vertex 5.491121768951416 0.5871423482894897 0.3194841742515564
    endloop
  endfacet
  facet normal -0.4369245118560839 -0.6350463914317646 0.6370345765096405
    outer loop
      vertex 5.568861961364746 0.5135849714279175 0.29947593808174133
      vertex 5.523087501525879 0.5892958641052246 0.3435550928115845
      vertex 5.553439617156982 0.5115815997123718 0.28690105676651
    endloop
  endfacet
  facet normal -0.4369252048955319 -0.6350476894690518 0.637032807182657
    outer loop
      vertex 5.544715881347656 0.49849769473075867 0.26787498593330383
      vertex 5.598310470581055 0.40985307097435 0.21626581251621246
      vertex 5.600334167480469 0.4340175688266754 0.24174301326274872
    endloop
  endfacet
  facet normal -0.43691687957426256 -0.6350442229483848 0.6370419729052172
    outer loop
      vertex 5.544715881347656 0.49849769473075867 0.26787498593330383
      vertex 5.600334167480469 0.4340175688266754 0.24174301326274872
      vertex 5.553439617156982 0.5115815997123718 0.28690105676651
    endloop
  endfacet
  facet normal -0.436927917363988 -0.6350466223762473 0.6370320105273267
    outer loop
      vertex 5.598310470581055 0.40985307097435 0.21626581251621246
      vertex 5.651904582977295 0.3212084472179413 0.1646566241979599
      vertex 5.600334167480469 0.4340175688266754 0.24174301326274872
    endloop
  endfacet
  facet normal -0.43691855281311126 -0.6350451741816951 0.6370398770534204
    outer loop
      vertex 5.600334167480469 0.4340175688266754 0.24174301326274872
      vertex 5.7095465660095215 0.2808927893638611 0.16400183737277985
      vertex 5.615756988525391 0.4360208809375763 0.25431790947914124
    endloop
  endfacet
  facet normal -0.4369200080513171 -0.6350461364823412 0.6370379196745583
    outer loop
      vertex 5.555053234100342 0.5914494395256042 0.36762601137161255
      vertex 5.523087501525879 0.5892958641052246 0.3435550928115845
      vertex 5.584284782409668 0.5155882835388184 0.31205084919929504
    endloop
  endfacet
  facet normal -0.436918670368485 -0.6350456326585556 0.6370393393855122
    outer loop
      vertex 5.584284782409668 0.5155882835388184 0.31205084919929504
      vertex 5.523087501525879 0.5892958641052246 0.3435550928115845
      vertex 5.568861961364746 0.5135849714279175 0.29947593808174133
    endloop
  endfacet
  facet normal -0.4369202469120862 -0.6350461203135145 0.6370377719672791
    outer loop
      vertex 5.616868019104004 0.4892081320285797 0.30810078978538513
      vertex 5.555053234100342 0.5914494395256042 0.36762601137161255
      vertex 5.584284782409668 0.5155882835388184 0.31205084919929504
    endloop
  endfacet
  facet normal -0.43692025604513474 -0.6350461293128646 0.6370377567320498
    outer loop
      vertex 5.584284782409668 0.5155882835388184 0.31205084919929504
      vertex 5.6311798095703125 0.43802422285079956 0.26689282059669495
      vertex 5.616868019104004 0.4892081320285797 0.30810078978538513
    endloop
  endfacet
  facet normal -0.4369222444840048 -0.6350456152329119 0.6370369054054184
    outer loop
      vertex 5.6311798095703125 0.43802422285079956 0.26689282059669495
      vertex 5.724969387054443 0.28289610147476196 0.17657673358917236
      vertex 5.74049711227417 0.284725546836853 0.18905040621757507
    endloop
  endfacet
  facet normal -0.4369165260427425 -0.6350442301017822 0.6370422082446155
    outer loop
      vertex 5.6311798095703125 0.43802422285079956 0.26689282059669495
      vertex 5.74049711227417 0.284725546836853 0.18905040621757507
      vertex 5.678682804107666 0.38696685433387756 0.2485755980014801
    endloop
  endfacet
  facet normal -0.4369202851455535 -0.6350461249125547 0.6370377411597183
    outer loop
      vertex 5.6311798095703125 0.43802422285079956 0.26689282059669495
      vertex 5.678682804107666 0.38696685433387756 0.2485755980014801
      vertex 5.616868019104004 0.4892081320285797 0.30810078978538513
    endloop
  endfacet
  facet normal -0.4369181891024438 -0.6350451269368551 0.6370401736038276
    outer loop
      vertex 5.6311798095703125 0.43802422285079956 0.26689282059669495
      vertex 5.615756988525391 0.4360208809375763 0.25431790947914124
      vertex 5.7095465660095215 0.2808927893638611 0.16400183737277985
    endloop
  endfacet
  facet normal -0.4369185743822952 -0.6350451385060015 0.6370398978240184
    outer loop
      vertex 5.6311798095703125 0.43802422285079956 0.26689282059669495
      vertex 5.7095465660095215 0.2808927893638611 0.16400183737277985
      vertex 5.724969387054443 0.28289610147476196 0.17657673358917236
    endloop
  endfacet
  facet normal -0.4369246216541319 -0.6350466449903642 0.6370342484347886
    outer loop
      vertex 5.651904582977295 0.3212084472179413 0.1646566241979599
      vertex 5.7095465660095215 0.2808927893638611 0.16400183737277985
      vertex 5.600334167480469 0.4340175688266754 0.24174301326274872
    endloop
  endfacet
  facet normal -0.4369229758250123 -0.6350465600382773 0.6370354619483648
    outer loop
      vertex 5.756441593170166 0.20332872867584229 0.11884379386901855
      vertex 5.7095465660095215 0.2808927893638611 0.16400183737277985
      vertex 5.705498695373535 0.2325638085603714 0.11304743587970734
    endloop
  endfacet
  facet normal -0.43692421234520973 -0.6350460735851663 0.6370350987901543
    outer loop
      vertex 5.651904582977295 0.3212084472179413 0.1646566241979599
      vertex 5.705498695373535 0.2325638085603714 0.11304743587970734
      vertex 5.7095465660095215 0.2808927893638611 0.16400183737277985
    endloop
  endfacet
  facet normal -0.4369211579520982 -0.6350457105089955 0.6370375556416772
    outer loop
      vertex 5.705498695373535 0.2325638085603714 0.11304743587970734
      vertex 5.759092807769775 0.1439191848039627 0.06143825501203537
      vertex 5.8033366203308105 0.12576468288898468 0.07368575781583786
    endloop
  endfacet
  facet normal -0.436922993225034 -0.6350466007762007 0.6370354094034879
    outer loop
      vertex 5.705498695373535 0.2325638085603714 0.11304743587970734
      vertex 5.8033366203308105 0.12576468288898468 0.07368575781583786
      vertex 5.756441593170166 0.20332872867584229 0.11884379386901855
    endloop
  endfacet
  facet normal -0.4369211550579523 -0.6350456848821359 0.6370375831733976
    outer loop
      vertex 5.812686920166016 0.05527454987168312 0.009829068556427956
      vertex 5.8033366203308105 0.12576468288898468 0.07368575781583786
      vertex 5.759092807769775 0.1439191848039627 0.06143825501203537
    endloop
  endfacet
  facet normal -0.4369232531426663 -0.6350459742964141 0.6370358556573937
    outer loop
      vertex 5.812686920166016 0.05527454987168312 0.009829068556427956
      vertex 5.866281032562256 -0.03337008133530617 -0.04178011789917946
      vertex 5.855871200561523 0.02985726110637188 0.014109941199421883
    endloop
  endfacet
  facet normal -0.4369229133726708 -0.635045233375405 0.6370368273005219
    outer loop
      vertex 5.812686920166016 0.05527454987168312 0.009829068556427956
      vertex 5.855871200561523 0.02985726110637188 0.014109941199421883
      vertex 5.8033366203308105 0.12576468288898468 0.07368575781583786
    endloop
  endfacet
  facet normal -0.43692238300225844 -0.6350465602314712 0.6370358683542112
    outer loop
      vertex 5.724969387054443 0.28289610147476196 0.17657673358917236
      vertex 5.771864414215088 0.20533205568790436 0.13141869008541107
      vertex 5.802311897277832 0.18248426914215088 0.12952519953250885
    endloop
  endfacet
  facet normal -0.43692179188677155 -0.6350463793798473 0.6370364540675828
    outer loop
      vertex 5.724969387054443 0.28289610147476196 0.17657673358917236
      vertex 5.802311897277832 0.18248426914215088 0.12952519953250885
      vertex 5.74049711227417 0.284725546836853 0.18905040621757507
    endloop
  endfacet
  facet normal -0.43692230914739477 -0.63504647319897 0.6370360057695784
    outer loop
      vertex 5.802311897277832 0.18248426914215088 0.12952519953250885
      vertex 5.771864414215088 0.20533205568790436 0.13141869008541107
      vertex 5.818759441375732 0.12776800990104675 0.08626066148281097
    endloop
  endfacet
  facet normal -0.43691903406588184 -0.6350440537704206 0.6370406638840004
    outer loop
      vertex 5.845461845397949 0.09308460354804993 0.07000000029802322
      vertex 5.818759441375732 0.12776800990104675 0.08626066148281097
      vertex 5.8033366203308105 0.12576468288898468 0.07368575781583786
    endloop
  endfacet
  facet normal -0.4369185510478173 -0.6350459290325797 0.6370391257759791
    outer loop
      vertex 5.845461845397949 0.09308460354804993 0.07000000029802322
      vertex 5.864126682281494 0.08024299144744873 0.07000000029802322
      vertex 5.802311897277832 0.18248426914215088 0.12952519953250885
    endloop
  endfacet
  facet normal -0.43691990977178147 -0.6350450075945961 0.6370391124367463
    outer loop
      vertex 5.845461845397949 0.09308460354804993 0.07000000029802322
      vertex 5.8033366203308105 0.12576468288898468 0.07368575781583786
      vertex 5.855871200561523 0.02985726110637188 0.014109941199421883
    endloop
  endfacet
  facet normal -0.4369255284079375 -0.635046038033694 0.6370342315787688
    outer loop
      vertex 5.818759441375732 0.12776800990104675 0.08626066148281097
      vertex 5.845461845397949 0.09308460354804993 0.07000000029802322
      vertex 5.802311897277832 0.18248426914215088 0.12952519953250885
    endloop
  endfacet
  facet normal -0.7711378128693036 -0.10016923164252918 -0.6287388954051532
    outer loop
      vertex 5.541745662689209 0.544142484664917 0.2642466127872467
      vertex 5.548299312591553 0.5536681413650513 0.25469106435775757
      vertex 5.585814952850342 0.4916169047355652 0.21856461465358734
    endloop
  endfacet
  facet normal -0.7711381816605631 -0.10017004748914761 -0.6287383131090885
    outer loop
      vertex 5.541745662689209 0.544142484664917 0.2642466127872467
      vertex 5.585814952850342 0.4916169047355652 0.21856461465358734
      vertex 5.579261302947998 0.4820912182331085 0.22812019288539886
    endloop
  endfacet
  facet normal -0.7711273841372892 -0.10015435389818231 -0.6287540559144086
    outer loop
      vertex 5.535191535949707 0.5346167683601379 0.2738021910190582
      vertex 5.541745662689209 0.544142484664917 0.2642466127872467
      vertex 5.579261302947998 0.4820912182331085 0.22812019288539886
    endloop
  endfacet
  facet normal -0.7711358433075217 -0.10017306707425949 -0.6287406999704512
    outer loop
      vertex 5.535191535949707 0.5346167683601379 0.2738021910190582
      vertex 5.579261302947998 0.4820912182331085 0.22812019288539886
      vertex 5.572707653045654 0.47256553173065186 0.2376757562160492
    endloop
  endfacet
  facet normal -0.7711298364045039 -0.10016150038071807 -0.6287499099389571
    outer loop
      vertex 5.804356575012207 0.10978377610445023 0.01136160921305418
      vertex 5.796217441558838 0.1639777421951294 0.012710602954030037
      vertex 5.847850322723389 0.07857704907655716 -0.03700995072722435
    endloop
  endfacet
  facet normal -0.7711298288324856 -0.10016149900690106 -0.6287499194445054
    outer loop
      vertex 5.804356575012207 0.10978377610445023 0.01136160921305418
      vertex 5.744584560394287 0.24937842786312103 0.062431156635284424
      vertex 5.796217441558838 0.1639777421951294 0.012710602954030037
    endloop
  endfacet
  facet normal -0.7711310521166524 -0.10016326186536018 -0.628748138314505
    outer loop
      vertex 5.692951679229736 0.33477911353111267 0.11215171217918396
      vertex 5.744584560394287 0.24937842786312103 0.062431156635284424
      vertex 5.654293060302734 0.35798874497413635 0.1558673232793808
    endloop
  endfacet
  facet normal -0.7711305550108447 -0.10016217517767355 -0.628748921106306
    outer loop
      vertex 5.804356575012207 0.10978377610445023 0.01136160921305418
      vertex 5.654293060302734 0.35798874497413635 0.1558673232793808
      vertex 5.744584560394287 0.24937842786312103 0.062431156635284424
    endloop
  endfacet
  facet normal -0.7711369610040866 -0.10017148602884224 -0.6287395810350699
    outer loop
      vertex 5.654293060302734 0.35798874497413635 0.1558673232793808
      vertex 5.804356575012207 0.10978377610445023 0.01136160921305418
      vertex 5.759092807769775 0.1439191848039627 0.06143825501203537
    endloop
  endfacet
  facet normal -0.7711368703765638 -0.10017138557009199 -0.6287397081931494
    outer loop
      vertex 5.654293060302734 0.35798874497413635 0.1558673232793808
      vertex 5.759092807769775 0.1439191848039627 0.06143825501203537
      vertex 5.705498695373535 0.2325638085603714 0.11304743587970734
    endloop
  endfacet
  facet normal -0.7711310475588441 -0.1001632359771467 -0.6287481480285936
    outer loop
      vertex 5.6413187980651855 0.4201798141002655 0.1618722677230835
      vertex 5.692951679229736 0.33477911353111267 0.11215171217918396
      vertex 5.654293060302734 0.35798874497413635 0.1558673232793808
    endloop
  endfacet
  facet normal -0.7711307787659992 -0.10016562333051537 -0.6287480973669447
    outer loop
      vertex 5.804356575012207 0.10978377610445023 0.01136160921305418
      vertex 5.847850322723389 0.07857704907655716 -0.03700995072722435
      vertex 5.866281032562256 -0.03337008133530617 -0.04178011789917946
    endloop
  endfacet
  facet normal -0.7711266769507555 -0.10015704303333399 -0.6287544948751492
    outer loop
      vertex 5.585814952850342 0.4916169047355652 0.21856461465358734
      vertex 5.589685916900635 0.505580484867096 0.21159280836582184
      vertex 5.6413187980651855 0.4201798141002655 0.1618722677230835
    endloop
  endfacet
  facet normal -0.7711268000582645 -0.10015694159000424 -0.6287543600510759
    outer loop
      vertex 5.538053035736084 0.5909811854362488 0.26131337881088257
      vertex 5.589685916900635 0.505580484867096 0.21159280836582184
      vertex 5.585814952850342 0.4916169047355652 0.21856461465358734
    endloop
  endfacet
  facet normal -0.7711368194724549 -0.10016778777111951 -0.6287403438200436
    outer loop
      vertex 5.538053035736084 0.5909811854362488 0.26131337881088257
      vertex 5.585814952850342 0.4916169047355652 0.21856461465358734
      vertex 5.548299312591553 0.5536681413650513 0.25469106435775757
    endloop
  endfacet
  facet normal -0.7711295136393689 -0.1001627264854843 -0.6287501104710079
    outer loop
      vertex 5.654293060302734 0.35798874497413635 0.1558673232793808
      vertex 5.585814952850342 0.4916169047355652 0.21856461465358734
      vertex 5.6413187980651855 0.4201798141002655 0.1618722677230835
    endloop
  endfacet
  facet normal -0.7711371671783667 -0.10017172543128243 -0.6287392900242862
    outer loop
      vertex 5.585814952850342 0.4916169047355652 0.21856461465358734
      vertex 5.654293060302734 0.35798874497413635 0.1558673232793808
      vertex 5.579261302947998 0.4820912182331085 0.22812019288539886
    endloop
  endfacet
  facet normal -0.7711318262511723 -0.10016525820237909 -0.6287468708405493
    outer loop
      vertex 5.51458740234375 0.5890617966651917 0.2903987765312195
      vertex 5.538053035736084 0.5909811854362488 0.26131337881088257
      vertex 5.548299312591553 0.5536681413650513 0.25469106435775757
    endloop
  endfacet
  facet normal -0.7711368942819902 -0.10017132878264484 -0.6287396879210394
    outer loop
      vertex 5.579261302947998 0.4820912182331085 0.22812019288539886
      vertex 5.654293060302734 0.35798874497413635 0.1558673232793808
      vertex 5.572707653045654 0.47256553173065186 0.2376757562160492
    endloop
  endfacet
  facet normal -0.7711369509696807 -0.10017144510355853 -0.6287395998623347
    outer loop
      vertex 5.812686920166016 0.05527454987168312 0.009829068556427956
      vertex 5.759092807769775 0.1439191848039627 0.06143825501203537
      vertex 5.804356575012207 0.10978377610445023 0.01136160921305418
    endloop
  endfacet
  facet normal -0.7711369927293432 -0.10017150515844982 -0.6287395390769024
    outer loop
      vertex 5.651904582977295 0.3212084472179413 0.1646566241979599
      vertex 5.598310470581055 0.40985307097435 0.21626581251621246
      vertex 5.654293060302734 0.35798874497413635 0.1558673232793808
    endloop
  endfacet
  facet normal -0.7711369927293432 -0.10017150515844982 -0.6287395390769024
    outer loop
      vertex 5.654293060302734 0.35798874497413635 0.1558673232793808
      vertex 5.598310470581055 0.40985307097435 0.21626581251621246
      vertex 5.572707653045654 0.47256553173065186 0.2376757562160492
    endloop
  endfacet
  facet normal -0.7711370030500249 -0.10017150159887617 -0.6287395269858993
    outer loop
      vertex 5.651904582977295 0.3212084472179413 0.1646566241979599
      vertex 5.654293060302734 0.35798874497413635 0.1558673232793808
      vertex 5.705498695373535 0.2325638085603714 0.11304743587970734
    endloop
  endfacet
  facet normal -0.7711247422860712 -0.10015872357881006 -0.6287565999059602
    outer loop
      vertex 5.535191535949707 0.5346167683601379 0.2738021910190582
      vertex 5.51458740234375 0.5890617966651917 0.2903987765312195
      vertex 5.541745662689209 0.544142484664917 0.2642466127872467
    endloop
  endfacet
  facet normal -0.771135080901112 -0.10017375027879113 -0.6287415261923757
    outer loop
      vertex 5.548299312591553 0.5536681413650513 0.25469106435775757
      vertex 5.541745662689209 0.544142484664917 0.2642466127872467
      vertex 5.51458740234375 0.5890617966651917 0.2903987765312195
    endloop
  endfacet
  facet normal -0.771131348017101 -0.10016326366735666 -0.6287477751187928
    outer loop
      vertex 5.491121768951416 0.5871423482894897 0.3194841742515564
      vertex 5.535191535949707 0.5346167683601379 0.2738021910190582
      vertex 5.544715881347656 0.49849769473075867 0.26787498593330383
    endloop
  endfacet
  facet normal -0.7711279980103894 -0.10016166425146798 -0.6287521385242878
    outer loop
      vertex 5.572707653045654 0.47256553173065186 0.2376757562160492
      vertex 5.544715881347656 0.49849769473075867 0.26787498593330383
      vertex 5.535191535949707 0.5346167683601379 0.2738021910190582
    endloop
  endfacet
  facet normal -0.7711318285220335 -0.1001643266281432 -0.628747016463216
    outer loop
      vertex 5.51458740234375 0.5890617966651917 0.2903987765312195
      vertex 5.535191535949707 0.5346167683601379 0.2738021910190582
      vertex 5.491121768951416 0.5871423482894897 0.3194841742515564
    endloop
  endfacet
  facet normal -0.7711288938425559 -0.10016442239177242 -0.6287506004514659
    outer loop
      vertex 5.544715881347656 0.49849769473075867 0.26787498593330383
      vertex 5.572707653045654 0.47256553173065186 0.2376757562160492
      vertex 5.598310470581055 0.40985307097435 0.21626581251621246
    endloop
  endfacet
  facet normal -0.7711369473025573 -0.1001714444135889 -0.6287396044699175
    outer loop
      vertex 5.866281032562256 -0.03337008133530617 -0.04178011789917946
      vertex 5.812686920166016 0.05527454987168312 0.009829068556427956
      vertex 5.804356575012207 0.10978377610445023 0.01136160921305418
    endloop
  endfacet
  facet normal 0.7711357991468869 0.10017229209901729 0.6287408776035811
    outer loop
      vertex 5.600241184234619 0.5370742678642273 0.3208671808242798
      vertex 5.638875484466553 0.47317349910736084 0.28366392850875854
      vertex 5.6454291343688965 0.4826991856098175 0.2741083800792694
    endloop
  endfacet
  facet normal 0.771127501081639 0.10015416046859409 0.6287539433008894
    outer loop
      vertex 5.600241184234619 0.5370742678642273 0.3208671808242798
      vertex 5.6454291343688965 0.4826991856098175 0.2741083800792694
      vertex 5.606795310974121 0.5465999841690063 0.31131160259246826
    endloop
  endfacet
  facet normal 0.7711275880255752 0.10015428683417017 0.6287538165407803
    outer loop
      vertex 5.606795310974121 0.5465999841690063 0.31131160259246826
      vertex 5.6454291343688965 0.4826991856098175 0.2741083800792694
      vertex 5.651983261108398 0.49222487211227417 0.2645528018474579
    endloop
  endfacet
  facet normal 0.7711358861041178 0.10017241848952739 0.6287407508157682
    outer loop
      vertex 5.606795310974121 0.5465999841690063 0.31131160259246826
      vertex 5.651983261108398 0.49222487211227417 0.2645528018474579
      vertex 5.613348960876465 0.5561256408691406 0.3017560541629791
    endloop
  endfacet
  facet normal 0.771134626624128 0.10016817522327065 0.6287429715660501
    outer loop
      vertex 5.857388019561768 0.13211989402770996 0.07000000029802322
      vertex 5.850649356842041 0.18399681150913239 0.07000000029802322
      vertex 5.788483142852783 0.2868196666240692 0.12986379861831665
    endloop
  endfacet
  facet normal 0.7711320041354373 0.10016505940714501 0.6287466843427701
    outer loop
      vertex 5.726316928863525 0.38964253664016724 0.18972758948802948
      vertex 5.6454291343688965 0.4826991856098175 0.2741083800792694
      vertex 5.74049711227417 0.284725546836853 0.18905040621757507
    endloop
  endfacet
  facet normal 0.7711325091168767 0.10016513173039937 0.6287460534814846
    outer loop
      vertex 5.74049711227417 0.284725546836853 0.18905040621757507
      vertex 5.788483142852783 0.2868196666240692 0.12986379861831665
      vertex 5.726316928863525 0.38964253664016724 0.18972758948802948
    endloop
  endfacet
  facet normal 0.7711334405522903 0.10016804992828142 0.6287444462065274
    outer loop
      vertex 5.802311897277832 0.18248426914215088 0.12952519953250885
      vertex 5.864126682281494 0.08024299144744873 0.07000000029802322
      vertex 5.857388019561768 0.13211989402770996 0.07000000029802322
    endloop
  endfacet
  facet normal 0.7711334104834743 0.100167955721902 0.6287444980933196
    outer loop
      vertex 5.857388019561768 0.13211989402770996 0.07000000029802322
      vertex 5.74049711227417 0.284725546836853 0.18905040621757507
      vertex 5.802311897277832 0.18248426914215088 0.12952519953250885
    endloop
  endfacet
  facet normal 0.7711324245883185 0.10016601622207082 0.6287460162440324
    outer loop
      vertex 5.788483142852783 0.2868196666240692 0.12986379861831665
      vertex 5.74049711227417 0.284725546836853 0.18905040621757507
      vertex 5.857388019561768 0.13211989402770996 0.07000000029802322
    endloop
  endfacet
  facet normal 0.7711401775836515 0.10017389618851574 0.6287352519452579
    outer loop
      vertex 5.678682804107666 0.38696685433387756 0.2485755980014801
      vertex 5.74049711227417 0.284725546836853 0.18905040621757507
      vertex 5.6454291343688965 0.4826991856098175 0.2741083800792694
    endloop
  endfacet
  facet normal 0.7711358088686091 0.10016982735986295 0.6287412583624928
    outer loop
      vertex 5.651983261108398 0.49222487211227417 0.2645528018474579
      vertex 5.726316928863525 0.38964253664016724 0.18972758948802948
      vertex 5.664150714874268 0.49246540665626526 0.2495913952589035
    endloop
  endfacet
  facet normal 0.7711274506172103 0.10015451411247947 0.628753948860359
    outer loop
      vertex 5.726316928863525 0.38964253664016724 0.18972758948802948
      vertex 5.651983261108398 0.49222487211227417 0.2645528018474579
      vertex 5.6454291343688965 0.4826991856098175 0.2741083800792694
    endloop
  endfacet
  facet normal 0.7711354162231173 0.10017319566357452 0.6287412032919006
    outer loop
      vertex 5.578518867492676 0.5933688282966614 0.33854058384895325
      vertex 5.606795310974121 0.5465999841690063 0.31131160259246826
      vertex 5.613348960876465 0.5561256408691406 0.3017560541629791
    endloop
  endfacet
  facet normal 0.7711356193919676 0.10017203082914315 0.6287411396946534
    outer loop
      vertex 5.613348960876465 0.5561256408691406 0.3017560541629791
      vertex 5.651983261108398 0.49222487211227417 0.2645528018474579
      vertex 5.664150714874268 0.49246540665626526 0.2495913952589035
    endloop
  endfacet
  facet normal 0.7711317848529338 0.10016407904827439 0.6287471094628904
    outer loop
      vertex 5.613348960876465 0.5561256408691406 0.3017560541629791
      vertex 5.664150714874268 0.49246540665626526 0.2495913952589035
      vertex 5.60198450088501 0.5952882766723633 0.30945518612861633
    endloop
  endfacet
  facet normal 0.7711318518822832 0.10016411581240052 0.6287470213974143
    outer loop
      vertex 5.60198450088501 0.5952882766723633 0.30945518612861633
      vertex 5.578518867492676 0.5933688282966614 0.33854058384895325
      vertex 5.613348960876465 0.5561256408691406 0.3017560541629791
    endloop
  endfacet
  facet normal 0.7711336401299449 0.10016839050957622 0.6287441471716948
    outer loop
      vertex 5.678682804107666 0.38696685433387756 0.2485755980014801
      vertex 5.638875484466553 0.47317349910736084 0.28366392850875854
      vertex 5.616868019104004 0.4892081320285797 0.30810078978538513
    endloop
  endfacet
  facet normal 0.7711339101519726 0.10016954649453519 0.6287436318316143
    outer loop
      vertex 5.600241184234619 0.5370742678642273 0.3208671808242798
      vertex 5.616868019104004 0.4892081320285797 0.30810078978538513
      vertex 5.638875484466553 0.47317349910736084 0.28366392850875854
    endloop
  endfacet
  facet normal 0.7711322809317906 0.10016401438587111 0.6287465113438331
    outer loop
      vertex 5.555053234100342 0.5914494395256042 0.36762601137161255
      vertex 5.600241184234619 0.5370742678642273 0.3208671808242798
      vertex 5.578518867492676 0.5933688282966614 0.33854058384895325
    endloop
  endfacet
  facet normal 0.7711352420955812 0.10017048472212145 0.6287418487652343
    outer loop
      vertex 5.616868019104004 0.4892081320285797 0.30810078978538513
      vertex 5.600241184234619 0.5370742678642273 0.3208671808242798
      vertex 5.555053234100342 0.5914494395256042 0.36762601137161255
    endloop
  endfacet
  facet normal 0.771125077602125 0.10015816896108572 0.6287562770131838
    outer loop
      vertex 5.600241184234619 0.5370742678642273 0.3208671808242798
      vertex 5.606795310974121 0.5465999841690063 0.31131160259246826
      vertex 5.578518867492676 0.5933688282966614 0.33854058384895325
    endloop
  endfacet
  facet normal 0.7711364267465358 0.1001712540619807 0.6287402732482107
    outer loop
      vertex 5.678682804107666 0.38696685433387756 0.2485755980014801
      vertex 5.6454291343688965 0.4826991856098175 0.2741083800792694
      vertex 5.638875484466553 0.47317349910736084 0.28366392850875854
    endloop
  endfacet
  facet normal -0.07262945029539634 0.9973328514234207 0.007221247912778643
    outer loop
      vertex 5.578518867492676 0.5933688282966614 0.33854058384895325
      vertex 5.60198450088501 0.5952882766723633 0.30945518612861633
      vertex 5.570018768310547 0.5931347012519836 0.28538426756858826
    endloop
  endfacet
  facet normal -0.07262849516401418 0.9973329302132705 0.007219972466885577
    outer loop
      vertex 5.578518867492676 0.5933688282966614 0.33854058384895325
      vertex 5.523087501525879 0.5892958641052246 0.3435550928115845
      vertex 5.555053234100342 0.5914494395256042 0.36762601137161255
    endloop
  endfacet
  facet normal -0.07262734356401516 0.9973330072852495 0.007220910343917309
    outer loop
      vertex 5.51458740234375 0.5890617966651917 0.2903987765312195
      vertex 5.578518867492676 0.5933688282966614 0.33854058384895325
      vertex 5.570018768310547 0.5931347012519836 0.28538426756858826
    endloop
  endfacet
  facet normal -0.07262829525012238 0.9973329287795144 0.007222181189722418
    outer loop
      vertex 5.578518867492676 0.5933688282966614 0.33854058384895325
      vertex 5.51458740234375 0.5890617966651917 0.2903987765312195
      vertex 5.523087501525879 0.5892958641052246 0.3435550928115845
    endloop
  endfacet
  facet normal -0.07262829905720243 0.9973329284978558 0.007222181799743718
    outer loop
      vertex 5.51458740234375 0.5890617966651917 0.2903987765312195
      vertex 5.491121768951416 0.5871423482894897 0.3194841742515564
      vertex 5.523087501525879 0.5892958641052246 0.3435550928115845
    endloop
  endfacet
  facet normal -0.07262734320281354 0.9973330072826594 0.007220914334607194
    outer loop
      vertex 5.538053035736084 0.5909811854362488 0.26131337881088257
      vertex 5.51458740234375 0.5890617966651917 0.2903987765312195
      vertex 5.570018768310547 0.5931347012519836 0.28538426756858826
    endloop
  endfacet
  facet normal 0.0 0.0 -1.0
    outer loop
      vertex 5.845461845397949 0.09308460354804993 0.07000000029802322
      vertex 5.857388019561768 0.13211989402770996 0.07000000029802322
      vertex 5.864126682281494 0.08024299144744873 0.07000000029802322
    endloop
  endfacet
  facet normal 0.0 0.0 -1.0
    outer loop
      vertex 5.836690425872803 0.14635996520519257 0.07000000029802322
      vertex 5.857388019561768 0.13211989402770996 0.07000000029802322
      vertex 5.845461845397949 0.09308460354804993 0.07000000029802322
    endloop
  endfacet
  facet normal 0.0 0.0 -1.0
    outer loop
      vertex 5.8279194831848145 0.1996353268623352 0.07000000029802322
      vertex 5.850649356842041 0.18399681150913239 0.07000000029802322
      vertex 5.836690425872803 0.14635996520519257 0.07000000029802322
    endloop
  endfacet
  facet normal 0.0 0.0 -1.0
    outer loop
      vertex 5.857388019561768 0.13211989402770996 0.07000000029802322
      vertex 5.836690425872803 0.14635996520519257 0.07000000029802322
      vertex 5.850649356842041 0.18399681150913239 0.07000000029802322
    endloop
  endfacet
  facet normal 0.9867166926725797 0.16245051056460685 4.310994655045349e-06
    outer loop
      vertex 5.847850322723389 0.07857704907655716 -0.03700995072722435
      vertex 5.855871200561523 0.02985726110637188 0.014109941199421883
      vertex 5.866281032562256 -0.03337008133530617 -0.04178011789917946
    endloop
  endfacet
  facet normal 0.9867168570966744 0.1624495118803046 3.3334003928316037e-06
    outer loop
      vertex 5.836690425872803 0.14635996520519257 0.07000000029802322
      vertex 5.855871200561523 0.02985726110637188 0.014109941199421883
      vertex 5.847850322723389 0.07857704907655716 -0.03700995072722435
    endloop
  endfacet
  facet normal 0.9867172166137528 0.1624473281264012 4.754140985012511e-06
    outer loop
      vertex 5.847850322723389 0.07857704907655716 -0.03700995072722435
      vertex 5.8279194831848145 0.1996353268623352 0.07000000029802322
      vertex 5.836690425872803 0.14635996520519257 0.07000000029802322
    endloop
  endfacet
  facet normal 0.9867158009324685 0.16245592658326405 -1.040049613219016e-05
    outer loop
      vertex 5.855871200561523 0.02985726110637188 0.014109941199421883
      vertex 5.836690425872803 0.14635996520519257 0.07000000029802322
      vertex 5.845461845397949 0.09308460354804993 0.07000000029802322
    endloop
  endfacet
endsolid beam