solid e25_blank
  facet normal 0.555436674 0.113883592 0.823723636
    outer loop
      vertex 4.4956561 -0.324986408 1.45795449
      vertex 4.53611091 -0.293900454 1.42637804
      vertex 4.03463335 0.579534985 1.64376778
    endloop
  endfacet
  facet normal 0.555436674 0.113883592 0.823723636
    outer loop
      vertex 4.4956561 -0.324986408 1.45795449
      vertex 4.03463335 0.579534985 1.64376778
      vertex 3.99417854 0.54844903 1.67534423
    endloop
  endfacet
  facet normal -0.674246812 -0.518099235 0.526274092
    outer loop
      vertex 4.4956561 -0.324986408 1.45795449
      vertex 3.99417854 0.54844903 1.67534423
      vertex 3.94974361 0.539338343 1.60944633
    endloop
  endfacet
  facet normal -0.674246812 -0.518099235 0.526274092
    outer loop
      vertex 4.4956561 -0.324986408 1.45795449
      vertex 3.94974361 0.539338343 1.60944633
      vertex 4.45122117 -0.334097095 1.3920566
    endloop
  endfacet
  facet normal -0.48670457 0.847704967 0.210985667
    outer loop
      vertex 3.99417854 0.54844903 1.67534423
      vertex 4.03463335 0.579534985 1.64376778
      vertex 3.99019842 0.570424297 1.57786989
    endloop
  endfacet
  facet normal -0.48670457 0.847704967 0.210985667
    outer loop
      vertex 3.99417854 0.54844903 1.67534423
      vertex 3.99019842 0.570424297 1.57786989
      vertex 3.94974361 0.539338343 1.60944633
    endloop
  endfacet
  facet normal 0.674246812 0.518099235 -0.526274092
    outer loop
      vertex 4.03463335 0.579534985 1.64376778
      vertex 4.53611091 -0.293900454 1.42637804
      vertex 4.49167598 -0.303011141 1.36048015
    endloop
  endfacet
  facet normal 0.674246812 0.518099235 -0.526274092
    outer loop
      vertex 4.03463335 0.579534985 1.64376778
      vertex 4.49167598 -0.303011141 1.36048015
      vertex 3.99019842 0.570424297 1.57786989
    endloop
  endfacet
  facet normal 0.48670457 -0.847704967 -0.210985667
    outer loop
      vertex 4.53611091 -0.293900454 1.42637804
      vertex 4.4956561 -0.324986408 1.45795449
      vertex 4.45122117 -0.334097095 1.3920566
    endloop
  endfacet
  facet normal 0.48670457 -0.847704967 -0.210985667
    outer loop
      vertex 4.53611091 -0.293900454 1.42637804
      vertex 4.45122117 -0.334097095 1.3920566
      vertex 4.49167598 -0.303011141 1.36048015
    endloop
  endfacet
  facet normal -0.555436674 -0.113883592 -0.823723636
    outer loop
      vertex 4.45122117 -0.334097095 1.3920566
      vertex 3.94974361 0.539338343 1.60944633
      vertex 3.99019842 0.570424297 1.57786989
    endloop
  endfacet
  facet normal -0.555436674 -0.113883592 -0.823723636
    outer loop
      vertex 4.45122117 -0.334097095 1.3920566
      vertex 3.99019842 0.570424297 1.57786989
      vertex 4.49167598 -0.303011141 1.36048015
    endloop
  endfacet
endsolid e25_blank
