solid c8_blank
  facet normal 0.0784946978 0.00807794005 -0.996881803
    outer loop
      vertex 2.78835786 -1.45825614 2.52657096
      vertex 2.79450006 -1.51794092 2.52657096
      vertex 1.45052912 -1.65624984 2.41962564
    endloop
  endfacet
  facet normal 0.0784946978 0.00807794005 -0.996881803
    outer loop
      vertex 2.78835786 -1.45825614 2.52657096
      vertex 1.45052912 -1.65624984 2.41962564
      vertex 1.44438692 -1.59656506 2.41962564
    endloop
  endfacet
  facet normal -0.102369994 0.994746392 7.67976038e-16
    outer loop
      vertex 2.78835786 -1.45825614 2.52657096
      vertex 1.44438692 -1.59656506 2.41962564
      vertex 1.43810734 -1.59721129 2.49937619
    endloop
  endfacet
  facet normal -0.102369994 0.994746392 1.04596736e-15
    outer loop
      vertex 2.78835786 -1.45825614 2.52657096
      vertex 1.43810734 -1.59721129 2.49937619
      vertex 2.78207828 -1.45890238 2.60632151
    endloop
  endfacet
  facet normal -0.991644577 -0.102050784 -0.0789092561
    outer loop
      vertex 1.44438692 -1.59656506 2.41962564
      vertex 1.45052912 -1.65624984 2.41962564
      vertex 1.44424954 -1.65689608 2.49937619
    endloop
  endfacet
  facet normal -0.991644577 -0.102050784 -0.0789092561
    outer loop
      vertex 1.44438692 -1.59656506 2.41962564
      vertex 1.44424954 -1.65689608 2.49937619
      vertex 1.43810734 -1.59721129 2.49937619
    endloop
  endfacet
  facet normal 0.102369994 -0.994746392 -1.27996006e-15
    outer loop
      vertex 1.45052912 -1.65624984 2.41962564
      vertex 2.79450006 -1.51794092 2.52657096
      vertex 2.78822048 -1.51858716 2.60632151
    endloop
  endfacet
  facet normal 0.102369994 -0.994746392 -7.659761e-16
    outer loop
      vertex 1.45052912 -1.65624984 2.41962564
      vertex 2.78822048 -1.51858716 2.60632151
      vertex 1.44424954 -1.65689608 2.49937619
    endloop
  endfacet
  facet normal 0.991644577 0.102050784 0.0789092561
    outer loop
      vertex 2.79450006 -1.51794092 2.52657096
      vertex 2.78835786 -1.45825614 2.52657096
      vertex 2.78207828 -1.45890238 2.60632151
    endloop
  endfacet
  facet normal 0.991644577 0.102050784 0.0789092561
    outer loop
      vertex 2.79450006 -1.51794092 2.52657096
      vertex 2.78207828 -1.45890238 2.60632151
      vertex 2.78822048 -1.51858716 2.60632151
    endloop
  endfacet
  facet normal -0.0784946978 -0.00807794005 0.996881803
    outer loop
      vertex 2.78207828 -1.45890238 2.60632151
      vertex 1.43810734 -1.59721129 2.49937619
      vertex 1.44424954 -1.65689608 2.49937619
    endloop
  endfacet
  facet normal -0.0784946978 -0.00807794005 0.996881803
    outer loop
      vertex 2.78207828 -1.45890238 2.60632151
      vertex 1.44424954 -1.65689608 2.49937619
      vertex 2.78822048 -1.51858716 2.60632151
    endloop
  endfacet
endsolid c8_blank
