solid beam
  facet normal -0.24946981194041265 -0.9683825757055096 6.148477938295343e-07
    outer loop
      vertex 5.942202091217041 1.7541052103042603 0.084679014980793
      vertex 5.904493808746338 1.7638194561004639 0.1305905431509018
      vertex 5.893468856811523 1.7666596174240112 0.08188269287347794
    endloop
  endfacet
  facet normal -0.2494720625639191 -0.9683819959080006 1.1580812621943347e-06
    outer loop
      vertex 5.893468856811523 1.7666596174240112 0.08188269287347794
      vertex 5.904493808746338 1.7638194561004639 0.1305905431509018
      vertex 5.874614715576172 1.7715167999267578 0.10483846068382263
    endloop
  endfacet
  facet normal -0.24946968273140774 -0.9683826089902171 -1.7863929195671949e-06
    outer loop
      vertex 5.942202091217041 1.7541052103042603 0.084679014980793
      vertex 5.893468856811523 1.7666596174240112 0.08188269287347794
      vertex 5.912322998046875 1.7618025541305542 0.05892693251371384
    endloop
  endfacet
  facet normal -0.24946961024464345 -0.968382627663707 -1.8760779017124088e-06
    outer loop
      vertex 5.953226566314697 1.751265048980713 0.13338686525821686
      vertex 5.942202091217041 1.7541052103042603 0.084679014980793
      vertex 5.972081184387207 1.7464078664779663 0.11043109744787216
    endloop
  endfacet
  facet normal -0.24947212720342438 -0.9683819792558024 1.101468173430077e-06
    outer loop
      vertex 5.953226566314697 1.751265048980713 0.13338686525821686
      vertex 5.934372425079346 1.7561222314834595 0.15634262561798096
      vertex 5.904493808746338 1.7638194561004639 0.1305905431509018
    endloop
  endfacet
  facet normal -0.24947199799374806 -0.9683820125422189 -1.2997698806601631e-06
    outer loop
      vertex 5.942202091217041 1.7541052103042603 0.084679014980793
      vertex 5.953226566314697 1.751265048980713 0.13338686525821686
      vertex 5.904493808746338 1.7638194561004639 0.1305905431509018
    endloop
  endfacet
  facet normal -0.5981890571225981 0.23802459264612896 0.7651889604760522
    outer loop
      vertex 6.245152950286865 2.5785460472106934 0.14346657693386078
      vertex 6.27794075012207 2.6609463691711426 0.14346657693386078
      vertex 6.263721466064453 2.666604518890381 0.1305905431509018
    endloop
  endfacet
  facet normal -0.5981890571225981 0.23802459264612896 0.7651889604760522
    outer loop
      vertex 6.245152950286865 2.5785460472106934 0.14346657693386078
      vertex 6.263721466064453 2.666604518890381 0.1305905431509018
      vertex 6.230933666229248 2.5842041969299316 0.1305905431509018
    endloop
  endfacet
  facet normal -0.5981892597899108 0.23802467328920324 0.7651887769547896
    outer loop
      vertex 6.230933666229248 2.5842041969299316 0.1305905431509018
      vertex 6.263721466064453 2.666604518890381 0.1305905431509018
      vertex 6.249502182006836 2.672262668609619 0.11771450191736221
    endloop
  endfacet
  facet normal -0.5981779308921683 0.23802362698058677 0.7651979586960297
    outer loop
      vertex 6.230933666229248 2.5842041969299316 0.1305905431509018
      vertex 6.249502182006836 2.672262668609619 0.11771450191736221
      vertex 6.216713905334473 2.58986234664917 0.11771450191736221
    endloop
  endfacet
  facet normal -0.5981890571225981 0.23802459264612896 0.7651889604760522
    outer loop
      vertex 5.950061321258545 1.8369429111480713 0.14346657693386078
      vertex 5.98284912109375 1.9193432331085205 0.14346657693386078
      vertex 5.968629837036133 1.9250013828277588 0.1305905431509018
    endloop
  endfacet
  facet normal -0.5981777282238302 0.2380235463359317 0.7651981422132728
    outer loop
      vertex 5.950061321258545 1.8369429111480713 0.14346657693386078
      vertex 5.968629837036133 1.9250013828277588 0.1305905431509018
      vertex 5.9358415603637695 1.8426010608673096 0.1305905431509018
    endloop
  endfacet
  facet normal -0.5981789395699897 0.23802402834804132 0.7651970453313928
    outer loop
      vertex 5.9358415603637695 1.8426010608673096 0.1305905431509018
      vertex 5.968629837036133 1.9250013828277588 0.1305905431509018
      vertex 5.954410076141357 1.9306594133377075 0.11771450191736221
    endloop
  endfacet
  facet normal -0.5981902684791658 0.2380250746553703 0.7651878635551722
    outer loop
      vertex 5.9358415603637695 1.8426010608673096 0.1305905431509018
      vertex 5.954410076141357 1.9306594133377075 0.11771450191736221
      vertex 5.921622276306152 1.8482590913772583 0.11771450191736221
    endloop
  endfacet
  facet normal -0.5981779664654164 0.23802148064904474 0.7651985985252036
    outer loop
      vertex 6.249502182006836 2.672262668609619 0.11771450191736221
      vertex 6.263847827911377 2.749709367752075 0.10483846068382263
      vertex 6.22059965133667 2.641021251678467 0.10483846068382263
    endloop
  endfacet
  facet normal -0.5981829143104407 0.23802174064037573 0.7651946497523319
    outer loop
      vertex 6.294398307800293 2.743699073791504 0.1305905431509018
      vertex 6.263847827911377 2.749709367752075 0.10483846068382263
      vertex 6.249502182006836 2.672262668609619 0.11771450191736221
    endloop
  endfacet
  facet normal -0.5981800582687586 0.2380244734944179 0.7651960323389619
    outer loop
      vertex 6.216713905334473 2.58986234664917 0.11771450191736221
      vertex 6.249502182006836 2.672262668609619 0.11771450191736221
      vertex 6.22059965133667 2.641021251678467 0.10483846068382263
    endloop
  endfacet
  facet normal -0.5981885869162232 0.23802636428149793 0.7651887769629816
    outer loop
      vertex 6.263721466064453 2.666604518890381 0.1305905431509018
      vertex 6.294398307800293 2.743699073791504 0.1305905431509018
      vertex 6.249502182006836 2.672262668609619 0.11771450191736221
    endloop
  endfacet
  facet normal -0.5981802951200684 0.2380203050277704 0.7651971438293237
    outer loop
      vertex 6.216713905334473 2.58986234664917 0.11771450191736221
      vertex 6.177351474761963 2.5323331356048584 0.10483846068382263
      vertex 6.134103775024414 2.423645257949829 0.10483846068382263
    endloop
  endfacet
  facet normal -0.5981794458057671 0.23801981979309705 0.7651979587016466
    outer loop
      vertex 6.216713905334473 2.58986234664917 0.11771450191736221
      vertex 6.134103775024414 2.423645257949829 0.10483846068382263
      vertex 6.230933666229248 2.5842041969299316 0.1305905431509018
    endloop
  endfacet
  facet normal -0.5981842950368048 0.2380239988560278 0.7651928679358599
    outer loop
      vertex 6.22059965133667 2.641021251678467 0.10483846068382263
      vertex 6.177351474761963 2.5323331356048584 0.10483846068382263
      vertex 6.216713905334473 2.58986234664917 0.11771450191736221
    endloop
  endfacet
  facet normal -0.5981864695787357 0.2380248641297743 0.7651908988408911
    outer loop
      vertex 6.134103775024414 2.423645257949829 0.10483846068382263
      vertex 6.090855598449707 2.3149571418762207 0.10483846068382263
      vertex 6.1513590812683105 2.3014369010925293 0.15634262561798096
    endloop
  endfacet
  facet normal -0.5981856917367311 0.2380251877967381 0.7651914062349212
    outer loop
      vertex 6.134103775024414 2.423645257949829 0.10483846068382263
      vertex 6.1513590812683105 2.3014369010925293 0.15634262561798096
      vertex 6.194756507873535 2.4104998111724854 0.15634262561798096
    endloop
  endfacet
  facet normal -0.598187307455409 0.23802620430752017 0.7651898269463614
    outer loop
      vertex 6.324948310852051 2.7376887798309326 0.15634262561798096
      vertex 6.294398307800293 2.743699073791504 0.1305905431509018
      vertex 6.27794075012207 2.6609463691711426 0.14346657693386078
    endloop
  endfacet
  facet normal -0.5981883842491386 0.2380262836378508 0.7651889604842443
    outer loop
      vertex 6.27794075012207 2.6609463691711426 0.14346657693386078
      vertex 6.294398307800293 2.743699073791504 0.1305905431509018
      vertex 6.263721466064453 2.666604518890381 0.1305905431509018
    endloop
  endfacet
  facet normal -0.5981795789541184 0.2380201401294339 0.7651977549725549
    outer loop
      vertex 6.27794075012207 2.6609463691711426 0.14346657693386078
      vertex 6.281551361083984 2.6286258697509766 0.15634262561798096
      vertex 6.324948310852051 2.7376887798309326 0.15634262561798096
    endloop
  endfacet
  facet normal -0.5981786994684277 0.23802047124607106 0.7651983394977139
    outer loop
      vertex 6.281551361083984 2.6286258697509766 0.15634262561798096
      vertex 6.27794075012207 2.6609463691711426 0.14346657693386078
      vertex 6.245152950286865 2.5785460472106934 0.14346657693386078
    endloop
  endfacet
  facet normal -0.5981889010054122 0.2380249849832182 0.7651889604781787
    outer loop
      vertex 6.194756507873535 2.4104998111724854 0.15634262561798096
      vertex 6.245152950286865 2.5785460472106934 0.14346657693386078
      vertex 6.230933666229248 2.5842041969299316 0.1305905431509018
    endloop
  endfacet
  facet normal -0.5981798501977876 0.23802286337904766 0.7651966958411357
    outer loop
      vertex 6.245152950286865 2.5785460472106934 0.14346657693386078
      vertex 6.194756507873535 2.4104998111724854 0.15634262561798096
      vertex 6.23815393447876 2.5195627212524414 0.15634262561798096
    endloop
  endfacet
  facet normal -0.5981858287588246 0.2380247137032208 0.7651914465926929
    outer loop
      vertex 6.134103775024414 2.423645257949829 0.10483846068382263
      vertex 6.194756507873535 2.4104998111724854 0.15634262561798096
      vertex 6.230933666229248 2.5842041969299316 0.1305905431509018
    endloop
  endfacet
  facet normal -0.5981810153034147 0.23802280665514935 0.7651958026822818
    outer loop
      vertex 6.281551361083984 2.6286258697509766 0.15634262561798096
      vertex 6.245152950286865 2.5785460472106934 0.14346657693386078
      vertex 6.23815393447876 2.5195627212524414 0.15634262561798096
    endloop
  endfacet
  facet normal -0.598186303343671 0.23802543116239983 0.7651908524100294
    outer loop
      vertex 6.107961654663086 2.1923739910125732 0.15634262561798096
      vertex 6.1513590812683105 2.3014369010925293 0.15634262561798096
      vertex 6.090855598449707 2.3149571418762207 0.10483846068382263
    endloop
  endfacet
  facet normal -0.5981870832958971 0.23802510833446866 0.7651903431044538
    outer loop
      vertex 6.107961654663086 2.1923739910125732 0.15634262561798096
      vertex 6.090855598449707 2.3149571418762207 0.10483846068382263
      vertex 6.047607421875 2.2062690258026123 0.10483846068382263
    endloop
  endfacet
  facet normal -0.598185162056444 0.2380243438525169 0.7651920828322026
    outer loop
      vertex 6.047607421875 2.2062690258026123 0.10483846068382263
      vertex 6.004359245300293 2.097580909729004 0.10483846068382263
      vertex 6.0645647048950195 2.083311080932617 0.15634262561798096
    endloop
  endfacet
  facet normal -0.5981876102977048 0.23802333586127283 0.7651904824759603
    outer loop
      vertex 6.047607421875 2.2062690258026123 0.10483846068382263
      vertex 6.0645647048950195 2.083311080932617 0.15634262561798096
      vertex 6.107961654663086 2.1923739910125732 0.15634262561798096
    endloop
  endfacet
  facet normal -0.5981877351317381 0.23802562877386618 0.7651896716401543
    outer loop
      vertex 6.004359245300293 2.097580909729004 0.10483846068382263
      vertex 5.961111068725586 1.988892912864685 0.10483846068382263
      vertex 5.954410076141357 1.9306594133377075 0.11771450191736221
    endloop
  endfacet
  facet normal -0.5981831592337808 0.23802380797259506 0.7651938152176337
    outer loop
      vertex 5.961111068725586 1.988892912864685 0.10483846068382263
      vertex 5.917862892150879 1.8802049160003662 0.10483846068382263
      vertex 5.921622276306152 1.8482590913772583 0.11771450191736221
    endloop
  endfacet
  facet normal -0.5981911914418083 0.23802544191017777 0.7651870277813748
    outer loop
      vertex 5.961111068725586 1.988892912864685 0.10483846068382263
      vertex 5.921622276306152 1.8482590913772583 0.11771450191736221
      vertex 5.954410076141357 1.9306594133377075 0.11771450191736221
    endloop
  endfacet
  facet normal -0.598179104106329 0.23802361484176807 0.7651970453342115
    outer loop
      vertex 5.954410076141357 1.9306594133377075 0.11771450191736221
      vertex 5.968629837036133 1.9250013828277588 0.1305905431509018
      vertex 6.004359245300293 2.097580909729004 0.10483846068382263
    endloop
  endfacet
  facet normal -0.5981834928782647 0.23802367966847132 0.7651935943047617
    outer loop
      vertex 5.921622276306152 1.8482590913772583 0.11771450191736221
      vertex 5.917862892150879 1.8802049160003662 0.10483846068382263
      vertex 5.874614715576172 1.7715167999267578 0.10483846068382263
    endloop
  endfacet
  facet normal -0.5981834628159816 0.23802365608002404 0.765193625143192
    outer loop
      vertex 5.921622276306152 1.8482590913772583 0.11771450191736221
      vertex 5.874614715576172 1.7715167999267578 0.10483846068382263
      vertex 5.904493808746338 1.7638194561004639 0.1305905431509018
    endloop
  endfacet
  facet normal -0.598185222521052 0.23802414330441024 0.7651920979477251
    outer loop
      vertex 5.968629837036133 1.9250013828277588 0.1305905431509018
      vertex 6.0645647048950195 2.083311080932617 0.15634262561798096
      vertex 6.004359245300293 2.097580909729004 0.10483846068382263
    endloop
  endfacet
  facet normal -0.5981882925472469 0.23802651409253267 0.7651889604851645
    outer loop
      vertex 6.0645647048950195 2.083311080932617 0.15634262561798096
      vertex 5.968629837036133 1.9250013828277588 0.1305905431509018
      vertex 5.98284912109375 1.9193432331085205 0.14346657693386078
    endloop
  endfacet
  facet normal -0.5981851560605966 0.23802471447613077 0.7651919722313585
    outer loop
      vertex 5.98284912109375 1.9193432331085205 0.14346657693386078
      vertex 6.021167278289795 1.9742480516433716 0.15634262561798096
      vertex 6.0645647048950195 2.083311080932617 0.15634262561798096
    endloop
  endfacet
  facet normal -0.5981856268128299 0.23802516196274712 0.7651914650250289
    outer loop
      vertex 6.021167278289795 1.9742480516433716 0.15634262561798096
      vertex 5.98284912109375 1.9193432331085205 0.14346657693386078
      vertex 5.97776985168457 1.8651851415634155 0.15634262561798096
    endloop
  endfacet
  facet normal -0.5981792548220589 0.23801970978323647 0.7651981422188833
    outer loop
      vertex 5.950061321258545 1.8369429111480713 0.14346657693386078
      vertex 5.9358415603637695 1.8426010608673096 0.1305905431509018
      vertex 5.904493808746338 1.7638194561004639 0.1305905431509018
    endloop
  endfacet
  facet normal -0.5981906059746069 0.23802422648623708 0.7651878635533637
    outer loop
      vertex 5.921622276306152 1.8482590913772583 0.11771450191736221
      vertex 5.904493808746338 1.7638194561004639 0.1305905431509018
      vertex 5.9358415603637695 1.8426010608673096 0.1305905431509018
    endloop
  endfacet
  facet normal -0.5981912927448307 0.23802741650435041 0.7651863343503545
    outer loop
      vertex 5.934372425079346 1.7561222314834595 0.15634262561798096
      vertex 5.97776985168457 1.8651851415634155 0.15634262561798096
      vertex 5.950061321258545 1.8369429111480713 0.14346657693386078
    endloop
  endfacet
  facet normal -0.5981896261831566 0.23802481908024045 0.765188445174569
    outer loop
      vertex 5.950061321258545 1.8369429111480713 0.14346657693386078
      vertex 5.97776985168457 1.8651851415634155 0.15634262561798096
      vertex 5.98284912109375 1.9193432331085205 0.14346657693386078
    endloop
  endfacet
  facet normal -0.5981886085131046 0.23802723857144034 0.7651884881146672
    outer loop
      vertex 5.904493808746338 1.7638194561004639 0.1305905431509018
      vertex 5.934372425079346 1.7561222314834595 0.15634262561798096
      vertex 5.950061321258545 1.8369429111480713 0.14346657693386078
    endloop
  endfacet
  facet normal 0.5981892603979573 -0.23802760808351375 -0.7651878635567778
    outer loop
      vertex 6.022153377532959 1.9550327062606812 0.084679014980793
      vertex 5.980548858642578 1.8504760265350342 0.084679014980793
      vertex 5.966329574584961 1.856134057044983 0.07180297374725342
    endloop
  endfacet
  facet normal 0.5981791423005847 -0.2380205825459579 -0.7651979587015504
    outer loop
      vertex 6.022153377532959 1.9550327062606812 0.084679014980793
      vertex 5.966329574584961 1.856134057044983 0.07180297374725342
      vertex 6.007933616638184 1.9606908559799194 0.07180297374725342
    endloop
  endfacet
  facet normal 0.5981791423005847 -0.2380205825459579 -0.7651979587015504
    outer loop
      vertex 6.036372661590576 1.9493746757507324 0.09755505621433258
      vertex 5.9947686195373535 1.844817876815796 0.09755505621433258
      vertex 5.980548858642578 1.8504760265350342 0.084679014980793
    endloop
  endfacet
  facet normal 0.5981892603979573 -0.23802760808351375 -0.7651878635567778
    outer loop
      vertex 6.036372661590576 1.9493746757507324 0.09755505621433258
      vertex 5.980548858642578 1.8504760265350342 0.084679014980793
      vertex 6.022153377532959 1.9550327062606812 0.084679014980793
    endloop
  endfacet
  facet normal 0.5981791423005847 -0.2380205825459579 -0.7651979587015504
    outer loop
      vertex 6.313383102416992 2.6869301795959473 0.084679014980793
      vertex 6.2717790603637695 2.5823733806610107 0.084679014980793
      vertex 6.257559299468994 2.588031530380249 0.07180297374725342
    endloop
  endfacet
  facet normal 0.5981883449269233 -0.23802697242103502 -0.7651887769653081
    outer loop
      vertex 6.313383102416992 2.6869301795959473 0.084679014980793
      vertex 6.257559299468994 2.588031530380249 0.07180297374725342
      vertex 6.299163818359375 2.6925883293151855 0.07180297374725342
    endloop
  endfacet
  facet normal 0.5981883449269233 -0.23802697242103502 -0.7651887769653081
    outer loop
      vertex 6.327602863311768 2.681272029876709 0.09755505621433258
      vertex 6.285998344421387 2.5767152309417725 0.09755505621433258
      vertex 6.2717790603637695 2.5823733806610107 0.084679014980793
    endloop
  endfacet
  facet normal 0.5981791423005847 -0.2380205825459579 -0.7651979587015504
    outer loop
      vertex 6.327602863311768 2.681272029876709 0.09755505621433258
      vertex 6.2717790603637695 2.5823733806610107 0.084679014980793
      vertex 6.313383102416992 2.6869301795959473 0.084679014980793
    endloop
  endfacet
  facet normal 0.5981840336146778 -0.23802458232907175 -0.7651928908030607
    outer loop
      vertex 5.966329574584961 1.856134057044983 0.07180297374725342
      vertex 5.912322998046875 1.7618025541305542 0.05892693251371384
      vertex 5.9533233642578125 1.864841341972351 0.05892693251371384
    endloop
  endfacet
  facet normal 0.5981833288989249 -0.2380240824435528 -0.7651935972055081
    outer loop
      vertex 5.942202091217041 1.7541052103042603 0.084679014980793
      vertex 5.912322998046875 1.7618025541305542 0.05892693251371384
      vertex 5.966329574584961 1.856134057044983 0.07180297374725342
    endloop
  endfacet
  facet normal 0.5981849616166531 -0.23802289810145408 -0.765192689245701
    outer loop
      vertex 6.007933616638184 1.9606908559799194 0.07180297374725342
      vertex 5.966329574584961 1.856134057044983 0.07180297374725342
      vertex 5.9533233642578125 1.864841341972351 0.05892693251371384
    endloop
  endfacet
  facet normal 0.5981907670847764 -0.23802698627536392 -0.7651868791211691
    outer loop
      vertex 6.007933616638184 1.9606908559799194 0.07180297374725342
      vertex 5.9533233642578125 1.864841341972351 0.05892693251371384
      vertex 5.99432373046875 1.9678802490234375 0.05892693251371384
    endloop
  endfacet
  facet normal 0.5981902956637846 -0.23802500633700624 -0.7651878635550502
    outer loop
      vertex 5.980548858642578 1.8504760265350342 0.084679014980793
      vertex 5.942202091217041 1.7541052103042603 0.084679014980793
      vertex 5.966329574584961 1.856134057044983 0.07180297374725342
    endloop
  endfacet
  facet normal 0.5981908766754881 -0.23802675450135094 -0.7651868655457728
    outer loop
      vertex 6.007933616638184 1.9606908559799194 0.07180297374725342
      vertex 5.99432373046875 1.9678802490234375 0.05892693251371384
      vertex 6.0353240966796875 2.0709192752838135 0.05892693251371384
    endloop
  endfacet
  facet normal 0.5981779619822974 -0.2380235488470842 -0.765197958696274
    outer loop
      vertex 6.076324462890625 2.1739580631256104 0.05892693251371384
      vertex 6.022153377532959 1.9550327062606812 0.084679014980793
      vertex 6.007933616638184 1.9606908559799194 0.07180297374725342
    endloop
  endfacet
  facet normal 0.5981886401005805 -0.23802641530491425 -0.7651887195141539
    outer loop
      vertex 6.0353240966796875 2.0709192752838135 0.05892693251371384
      vertex 6.076324462890625 2.1739580631256104 0.05892693251371384
      vertex 6.007933616638184 1.9606908559799194 0.07180297374725342
    endloop
  endfacet
  facet normal 0.5981860458485595 -0.23802476140245005 -0.7651912620458834
    outer loop
      vertex 6.188570499420166 2.3732597827911377 0.084679014980793
      vertex 6.022153377532959 1.9550327062606812 0.084679014980793
      vertex 6.076324462890625 2.1739580631256104 0.05892693251371384
    endloop
  endfacet
  facet normal 0.5981787471789909 -0.23801971057481752 -0.7651985388128058
    outer loop
      vertex 6.188570499420166 2.3732597827911377 0.084679014980793
      vertex 6.076324462890625 2.1739580631256104 0.05892693251371384
      vertex 6.117324352264404 2.2769968509674072 0.05892693251371384
    endloop
  endfacet
  facet normal 0.5981834547436242 -0.2380236817807115 -0.765193623459146
    outer loop
      vertex 5.972081184387207 1.7464078664779663 0.11043109744787216
      vertex 5.942202091217041 1.7541052103042603 0.084679014980793
      vertex 5.9947686195373535 1.844817876815796 0.09755505621433258
    endloop
  endfacet
  facet normal 0.5981791471878304 -0.23802057026360474 -0.7651979587015562
    outer loop
      vertex 5.9947686195373535 1.844817876815796 0.09755505621433258
      vertex 5.942202091217041 1.7541052103042603 0.084679014980793
      vertex 5.980548858642578 1.8504760265350342 0.084679014980793
    endloop
  endfacet
  facet normal 0.5981872649358602 -0.23802415134840962 -0.765190498793225
    outer loop
      vertex 5.9947686195373535 1.844817876815796 0.09755505621433258
      vertex 6.0132155418396 1.8497841358184814 0.11043109744787216
      vertex 5.972081184387207 1.7464078664779663 0.11043109744787216
    endloop
  endfacet
  facet normal 0.5981860159614998 -0.238023317634261 -0.7651917345152704
    outer loop
      vertex 5.9947686195373535 1.844817876815796 0.09755505621433258
      vertex 6.036372661590576 1.9493746757507324 0.09755505621433258
      vertex 6.054349899291992 1.9531604051589966 0.11043109744787216
    endloop
  endfacet
  facet normal 0.5981872649358602 -0.23802415134840962 -0.765190498793225
    outer loop
      vertex 5.9947686195373535 1.844817876815796 0.09755505621433258
      vertex 6.054349899291992 1.9531604051589966 0.11043109744787216
      vertex 6.0132155418396 1.8497841358184814 0.11043109744787216
    endloop
  endfacet
  facet normal 0.5981889501182496 -0.23802838785076905 -0.765187863556127
    outer loop
      vertex 6.095484733581543 2.0565366744995117 0.11043109744787216
      vertex 6.036372661590576 1.9493746757507324 0.09755505621433258
      vertex 6.022153377532959 1.9550327062606812 0.084679014980793
    endloop
  endfacet
  facet normal 0.598185991796587 -0.2380264039692862 -0.7651907933527321
    outer loop
      vertex 6.036372661590576 1.9493746757507324 0.09755505621433258
      vertex 6.095484733581543 2.0565366744995117 0.11043109744787216
      vertex 6.054349899291992 1.9531604051589966 0.11043109744787216
    endloop
  endfacet
  facet normal 0.5981825681821712 -0.23802200799016127 -0.7651948371724118
    outer loop
      vertex 6.022153377532959 1.9550327062606812 0.084679014980793
      vertex 6.1366190910339355 2.1599130630493164 0.11043109744787216
      vertex 6.095484733581543 2.0565366744995117 0.11043109744787216
    endloop
  endfacet
  facet normal 0.5981873607898751 -0.23802528463196215 -0.7651900713333369
    outer loop
      vertex 6.188570499420166 2.3732597827911377 0.084679014980793
      vertex 6.1366190910339355 2.1599130630493164 0.11043109744787216
      vertex 6.022153377532959 1.9550327062606812 0.084679014980793
    endloop
  endfacet
  facet normal 0.5981820808178473 -0.2380238052878539 -0.7651946590931749
    outer loop
      vertex 6.188570499420166 2.3732597827911377 0.084679014980793
      vertex 6.158324718475342 2.380035877227783 0.05892693251371384
      vertex 6.199325084686279 2.48307466506958 0.05892693251371384
    endloop
  endfacet
  facet normal 0.5981888735506193 -0.23802595743584898 -0.7651886794425206
    outer loop
      vertex 6.240325450897217 2.586113691329956 0.05892693251371384
      vertex 6.257559299468994 2.588031530380249 0.07180297374725342
      vertex 6.199325084686279 2.48307466506958 0.05892693251371384
    endloop
  endfacet
  facet normal 0.5981853124190009 -0.23802354810749568 -0.7651922128148594
    outer loop
      vertex 6.188570499420166 2.3732597827911377 0.084679014980793
      vertex 6.199325084686279 2.48307466506958 0.05892693251371384
      vertex 6.257559299468994 2.588031530380249 0.07180297374725342
    endloop
  endfacet
  facet normal 0.5981905896871949 -0.23802574877876093 -0.7651874027504608
    outer loop
      vertex 6.1366190910339355 2.1599130630493164 0.11043109744787216
      vertex 6.188570499420166 2.3732597827911377 0.084679014980793
      vertex 6.177753448486328 2.263289213180542 0.11043109744787216
    endloop
  endfacet
  facet normal 0.5981863925872626 -0.23802220198590207 -0.7651917871260903
    outer loop
      vertex 6.299163818359375 2.6925883293151855 0.07180297374725342
      vertex 6.281325817108154 2.689152479171753 0.05892693251371384
      vertex 6.322325706481934 2.792191505432129 0.05892693251371384
    endloop
  endfacet
  facet normal 0.598188782621186 -0.23802714658531138 -0.7651883806192029
    outer loop
      vertex 6.299163818359375 2.6925883293151855 0.07180297374725342
      vertex 6.257559299468994 2.588031530380249 0.07180297374725342
      vertex 6.240325450897217 2.586113691329956 0.05892693251371384
    endloop
  endfacet
  facet normal 0.598186325402318 -0.23802549425878766 -0.7651908155385374
    outer loop
      vertex 6.299163818359375 2.6925883293151855 0.07180297374725342
      vertex 6.240325450897217 2.586113691329956 0.05892693251371384
      vertex 6.281325817108154 2.689152479171753 0.05892693251371384
    endloop
  endfacet
  facet normal 0.5981818266378149 -0.2380216248480693 -0.7651955360461352
    outer loop
      vertex 6.322325706481934 2.792191505432129 0.05892693251371384
      vertex 6.35287618637085 2.7861809730529785 0.084679014980793
      vertex 6.299163818359375 2.6925883293151855 0.07180297374725342
    endloop
  endfacet
  facet normal 0.5981786737363642 -0.2380217601139895 -0.7651979587003894
    outer loop
      vertex 6.2717790603637695 2.5823733806610107 0.084679014980793
      vertex 6.188570499420166 2.3732597827911377 0.084679014980793
      vertex 6.257559299468994 2.588031530380249 0.07180297374725342
    endloop
  endfacet
  facet normal 0.59818856419465 -0.23802642138276145 -0.7651887769632141
    outer loop
      vertex 6.299163818359375 2.6925883293151855 0.07180297374725342
      vertex 6.35287618637085 2.7861809730529785 0.084679014980793
      vertex 6.313383102416992 2.6869301795959473 0.084679014980793
    endloop
  endfacet
  facet normal 0.5981886996173853 -0.2380257334574351 -0.7651888850879315
    outer loop
      vertex 6.285998344421387 2.5767152309417725 0.09755505621433258
      vertex 6.2600226402282715 2.4700419902801514 0.11043109744787216
      vertex 6.188570499420166 2.3732597827911377 0.084679014980793
    endloop
  endfacet
  facet normal 0.5981859546748205 -0.23802611471603752 -0.7651909123499581
    outer loop
      vertex 6.218888282775879 2.3666656017303467 0.11043109744787216
      vertex 6.177753448486328 2.263289213180542 0.11043109744787216
      vertex 6.188570499420166 2.3732597827911377 0.084679014980793
    endloop
  endfacet
  facet normal 0.5981866709404732 -0.2380236405131087 -0.7651911220512432
    outer loop
      vertex 6.2600226402282715 2.4700419902801514 0.11043109744787216
      vertex 6.218888282775879 2.3666656017303467 0.11043109744787216
      vertex 6.188570499420166 2.3732597827911377 0.084679014980793
    endloop
  endfacet
  facet normal 0.5981807422922214 -0.2380245895997877 -0.7651954614976357
    outer loop
      vertex 6.2600226402282715 2.4700419902801514 0.11043109744787216
      vertex 6.285998344421387 2.5767152309417725 0.09755505621433258
      vertex 6.301157474517822 2.573418140411377 0.11043109744787216
    endloop
  endfacet
  facet normal 0.598188813507256 -0.23802579483843014 -0.765188776960506
    outer loop
      vertex 6.285998344421387 2.5767152309417725 0.09755505621433258
      vertex 6.188570499420166 2.3732597827911377 0.084679014980793
      vertex 6.2717790603637695 2.5823733806610107 0.084679014980793
    endloop
  endfacet
  facet normal 0.5981907055906289 -0.2380279117600234 -0.7651866393032146
    outer loop
      vertex 6.285998344421387 2.5767152309417725 0.09755505621433258
      vertex 6.327602863311768 2.681272029876709 0.09755505621433258
      vertex 6.342291831970215 2.6767945289611816 0.11043109744787216
    endloop
  endfacet
  facet normal 0.5981816010480472 -0.23802162315914402 -0.765195712923355
    outer loop
      vertex 6.285998344421387 2.5767152309417725 0.09755505621433258
      vertex 6.342291831970215 2.6767945289611816 0.11043109744787216
      vertex 6.301157474517822 2.573418140411377 0.11043109744787216
    endloop
  endfacet
  facet normal 0.5981784244322103 -0.2380223866493819 -0.7651979586992705
    outer loop
      vertex 6.327602863311768 2.681272029876709 0.09755505621433258
      vertex 6.313383102416992 2.6869301795959473 0.084679014980793
      vertex 6.35287618637085 2.7861809730529785 0.084679014980793
    endloop
  endfacet
  facet normal 0.5981913439421571 -0.23802604890401408 -0.7651867197461151
    outer loop
      vertex 6.327602863311768 2.681272029876709 0.09755505621433258
      vertex 6.383426189422607 2.7801706790924072 0.11043109744787216
      vertex 6.342291831970215 2.6767945289611816 0.11043109744787216
    endloop
  endfacet
  facet normal 0.5981879939461117 -0.23802372283270753 -0.7651900621855887
    outer loop
      vertex 6.327602863311768 2.681272029876709 0.09755505621433258
      vertex 6.35287618637085 2.7861809730529785 0.084679014980793
      vertex 6.383426189422607 2.7801706790924072 0.11043109744787216
    endloop
  endfacet
  facet normal 0.5981822255684541 -0.23802331213034456 -0.76519469933898
    outer loop
      vertex 6.158324718475342 2.380035877227783 0.05892693251371384
      vertex 6.188570499420166 2.3732597827911377 0.084679014980793
      vertex 6.117324352264404 2.2769968509674072 0.05892693251371384
    endloop
  endfacet
  facet normal -0.7109768270660207 0.28290633731685133 -0.6437980705788869
    outer loop
      vertex 5.922277450561523 1.8390594720840454 0.08188269287347794
      vertex 5.913304805755615 1.8426299095153809 0.09336058050394058
      vertex 5.94302225112915 1.9173133373260498 0.09336058050394058
    endloop
  endfacet
  facet normal -0.7109768270660207 0.28290633731685133 -0.6437980705788869
    outer loop
      vertex 5.922277450561523 1.8390594720840454 0.08188269287347794
      vertex 5.94302225112915 1.9173133373260498 0.09336058050394058
      vertex 5.951994895935059 1.9137428998947144 0.08188269287347794
    endloop
  endfacet
  facet normal -0.7109644610028812 0.282901416709742 -0.6438138889574404
    outer loop
      vertex 5.93125057220459 1.8354891538619995 0.07040481269359589
      vertex 5.922277450561523 1.8390594720840454 0.08188269287347794
      vertex 5.951994895935059 1.9137428998947144 0.08188269287347794
    endloop
  endfacet
  facet normal -0.7109795400881941 0.2829028774143967 -0.6437965948392668
    outer loop
      vertex 5.93125057220459 1.8354891538619995 0.07040481269359589
      vertex 5.951994895935059 1.9137428998947144 0.08188269287347794
      vertex 5.960967540740967 1.9101725816726685 0.07040481269359589
    endloop
  endfacet
  facet normal -0.7109691737143046 0.2829023215670222 -0.6438082870544524
    outer loop
      vertex 6.249168395996094 2.6605770587921143 0.08188269287347794
      vertex 6.22059965133667 2.641021251678467 0.10483846068382263
      vertex 6.263847827911377 2.749709367752075 0.10483846068382263
    endloop
  endfacet
  facet normal -0.7109771906604706 0.2829030129700691 -0.6437991298635015
    outer loop
      vertex 6.130299091339111 2.3618433475494385 0.08188269287347794
      vertex 6.134103775024414 2.423645257949829 0.10483846068382263
      vertex 6.177351474761963 2.5323331356048584 0.10483846068382263
    endloop
  endfacet
  facet normal -0.7109691737143046 0.2829023215670222 -0.6438082870544524
    outer loop
      vertex 6.177351474761963 2.5323331356048584 0.10483846068382263
      vertex 6.22059965133667 2.641021251678467 0.10483846068382263
      vertex 6.249168395996094 2.6605770587921143 0.08188269287347794
    endloop
  endfacet
  facet normal -0.7109687862543735 0.2829020029353924 -0.6438088549461916
    outer loop
      vertex 6.249168395996094 2.6605770587921143 0.08188269287347794
      vertex 6.130299091339111 2.3618433475494385 0.08188269287347794
      vertex 6.177351474761963 2.5323331356048584 0.10483846068382263
    endloop
  endfacet
  facet normal -0.7109734426135093 0.28290335425822694 -0.643803119010571
    outer loop
      vertex 6.281325817108154 2.689152479171753 0.05892693251371384
      vertex 6.249168395996094 2.6605770587921143 0.08188269287347794
      vertex 6.293087005615234 2.7709503173828125 0.08188269287347794
    endloop
  endfacet
  facet normal -0.7109764241000373 0.28290617697177944 -0.6437985860540051
    outer loop
      vertex 6.130299091339111 2.3618433475494385 0.08188269287347794
      vertex 6.070864200592041 2.2124764919281006 0.08188269287347794
      vertex 6.047607421875 2.2062690258026123 0.10483846068382263
    endloop
  endfacet
  facet normal -0.7109736090463169 0.28290408643358694 -0.6438026134762365
    outer loop
      vertex 6.130299091339111 2.3618433475494385 0.08188269287347794
      vertex 6.047607421875 2.2062690258026123 0.10483846068382263
      vertex 6.090855598449707 2.3149571418762207 0.10483846068382263
    endloop
  endfacet
  facet normal -0.7109736090463169 0.28290408643358694 -0.6438026134762365
    outer loop
      vertex 6.130299091339111 2.3618433475494385 0.08188269287347794
      vertex 6.090855598449707 2.3149571418762207 0.10483846068382263
      vertex 6.134103775024414 2.423645257949829 0.10483846068382263
    endloop
  endfacet
  facet normal -0.7109756441928005 0.28290473178165754 -0.6438000824015021
    outer loop
      vertex 6.130299091339111 2.3618433475494385 0.08188269287347794
      vertex 6.249168395996094 2.6605770587921143 0.08188269287347794
      vertex 6.240325450897217 2.586113691329956 0.05892693251371384
    endloop
  endfacet
  facet normal -0.7109770406272197 0.2829056144185871 -0.6437981523982518
    outer loop
      vertex 6.130299091339111 2.3618433475494385 0.08188269287347794
      vertex 6.240325450897217 2.586113691329956 0.05892693251371384
      vertex 6.199325084686279 2.48307466506958 0.05892693251371384
    endloop
  endfacet
  facet normal -0.7109704912186364 0.2829021798690596 -0.6438068943725789
    outer loop
      vertex 6.293087005615234 2.7709503173828125 0.08188269287347794
      vertex 6.249168395996094 2.6605770587921143 0.08188269287347794
      vertex 6.263847827911377 2.749709367752075 0.10483846068382263
    endloop
  endfacet
  facet normal -0.7109764991755881 0.28290523644727344 -0.6437989164411021
    outer loop
      vertex 6.004359245300293 2.097580909729004 0.10483846068382263
      vertex 6.047607421875 2.2062690258026123 0.10483846068382263
      vertex 6.070864200592041 2.2124764919281006 0.08188269287347794
    endloop
  endfacet
  facet normal -0.7109737838415086 0.2829028566756282 -0.6438029608310734
    outer loop
      vertex 6.004359245300293 2.097580909729004 0.10483846068382263
      vertex 6.070864200592041 2.2124764919281006 0.08188269287347794
      vertex 6.011429786682129 2.0631096363067627 0.08188269287347794
    endloop
  endfacet
  facet normal -0.7109729305609156 0.28290412674658233 -0.6438033450358713
    outer loop
      vertex 5.94302225112915 1.9173133373260498 0.09336058050394058
      vertex 5.917862892150879 1.8802049160003662 0.10483846068382263
      vertex 5.961111068725586 1.988892912864685 0.10483846068382263
    endloop
  endfacet
  facet normal -0.710972523917765 0.28290409801725913 -0.6438038067292272
    outer loop
      vertex 5.94302225112915 1.9173133373260498 0.09336058050394058
      vertex 5.961111068725586 1.988892912864685 0.10483846068382263
      vertex 6.011429786682129 2.0631096363067627 0.08188269287347794
    endloop
  endfacet
  facet normal -0.7109737746420046 0.2829051227201648 -0.6438019752299527
    outer loop
      vertex 5.94302225112915 1.9173133373260498 0.09336058050394058
      vertex 5.913304805755615 1.8426299095153809 0.09336058050394058
      vertex 5.917862892150879 1.8802049160003662 0.10483846068382263
    endloop
  endfacet
  facet normal -0.7109750418879555 0.2829045115818923 -0.6438008443136987
    outer loop
      vertex 5.893468856811523 1.7666596174240112 0.08188269287347794
      vertex 5.874614715576172 1.7715167999267578 0.10483846068382263
      vertex 5.913304805755615 1.8426299095153809 0.09336058050394058
    endloop
  endfacet
  facet normal -0.7109754239177591 0.28290480859055706 -0.6438002919083703
    outer loop
      vertex 5.913304805755615 1.8426299095153809 0.09336058050394058
      vertex 5.874614715576172 1.7715167999267578 0.10483846068382263
      vertex 5.917862892150879 1.8802049160003662 0.10483846068382263
    endloop
  endfacet
  facet normal -0.7109723537491021 0.2829038972266732 -0.6438040828842434
    outer loop
      vertex 5.961111068725586 1.988892912864685 0.10483846068382263
      vertex 6.004359245300293 2.097580909729004 0.10483846068382263
      vertex 6.011429786682129 2.0631096363067627 0.08188269287347794
    endloop
  endfacet
  facet normal -0.710978516104394 0.28290700940578806 -0.6437959099490049
    outer loop
      vertex 6.070864200592041 2.2124764919281006 0.08188269287347794
      vertex 6.130299091339111 2.3618433475494385 0.08188269287347794
      vertex 6.158324718475342 2.380035877227783 0.05892693251371384
    endloop
  endfacet
  facet normal -0.7109759794476207 0.2829051921635081 -0.6437995098595718
    outer loop
      vertex 6.070864200592041 2.2124764919281006 0.08188269287347794
      vertex 6.158324718475342 2.380035877227783 0.05892693251371384
      vertex 6.117324352264404 2.2769968509674072 0.05892693251371384
    endloop
  endfacet
  facet normal -0.7109739893381211 0.28290505488157136 -0.643801767943435
    outer loop
      vertex 6.281325817108154 2.689152479171753 0.05892693251371384
      vertex 6.240325450897217 2.586113691329956 0.05892693251371384
      vertex 6.249168395996094 2.6605770587921143 0.08188269287347794
    endloop
  endfacet
  facet normal -0.710978491334747 0.2829068462798808 -0.6437960089868056
    outer loop
      vertex 6.199325084686279 2.48307466506958 0.05892693251371384
      vertex 6.158324718475342 2.380035877227783 0.05892693251371384
      vertex 6.130299091339111 2.3618433475494385 0.08188269287347794
    endloop
  endfacet
  facet normal -0.7109731188488132 0.28290141830169885 -0.6438043272588952
    outer loop
      vertex 6.117324352264404 2.2769968509674072 0.05892693251371384
      vertex 6.076324462890625 2.1739580631256104 0.05892693251371384
      vertex 6.070864200592041 2.2124764919281006 0.08188269287347794
    endloop
  endfacet
  facet normal -0.7109762334520849 0.28290594784136125 -0.6437988972825811
    outer loop
      vertex 6.076324462890625 2.1739580631256104 0.05892693251371384
      vertex 6.0353240966796875 2.0709192752838135 0.05892693251371384
      vertex 6.011429786682129 2.0631096363067627 0.08188269287347794
    endloop
  endfacet
  facet normal -0.7109719812630987 0.28290213941348274 -0.643805266656074
    outer loop
      vertex 6.076324462890625 2.1739580631256104 0.05892693251371384
      vertex 6.011429786682129 2.0631096363067627 0.08188269287347794
      vertex 6.070864200592041 2.2124764919281006 0.08188269287347794
    endloop
  endfacet
  facet normal -0.7109767495025522 0.2829065322403524 -0.6437980705799945
    outer loop
      vertex 5.94302225112915 1.9173133373260498 0.09336058050394058
      vertex 6.011429786682129 2.0631096363067627 0.08188269287347794
      vertex 5.951994895935059 1.9137428998947144 0.08188269287347794
    endloop
  endfacet
  facet normal -0.7109779031371265 0.2829069912859641 -0.643796594843634
    outer loop
      vertex 5.960967540740967 1.9101725816726685 0.07040481269359589
      vertex 5.951994895935059 1.9137428998947144 0.08188269287347794
      vertex 6.011429786682129 2.0631096363067627 0.08188269287347794
    endloop
  endfacet
  facet normal -0.7109774682226262 0.282904726033044 -0.6437980705686471
    outer loop
      vertex 5.913304805755615 1.8426299095153809 0.09336058050394058
      vertex 5.922277450561523 1.8390594720840454 0.08188269287347794
      vertex 5.893468856811523 1.7666596174240112 0.08188269287347794
    endloop
  endfacet
  facet normal -0.7109651021284834 0.2828998054460607 -0.6438138889725943
    outer loop
      vertex 5.93125057220459 1.8354891538619995 0.07040481269359589
      vertex 5.893468856811523 1.7666596174240112 0.08188269287347794
      vertex 5.922277450561523 1.8390594720840454 0.08188269287347794
    endloop
  endfacet
  facet normal -0.7109687984618431 0.28290266206951614 -0.6438085518286506
    outer loop
      vertex 5.9533233642578125 1.864841341972351 0.05892693251371384
      vertex 5.960967540740967 1.9101725816726685 0.07040481269359589
      vertex 5.99432373046875 1.9678802490234375 0.05892693251371384
    endloop
  endfacet
  facet normal -0.7109721873359897 0.2829056241481011 -0.6438035078034694
    outer loop
      vertex 6.011429786682129 2.0631096363067627 0.08188269287347794
      vertex 5.99432373046875 1.9678802490234375 0.05892693251371384
      vertex 5.960967540740967 1.9101725816726685 0.07040481269359589
    endloop
  endfacet
  facet normal -0.7109812042031027 0.28290792576265034 -0.6437925386415881
    outer loop
      vertex 5.912322998046875 1.7618025541305542 0.05892693251371384
      vertex 5.93125057220459 1.8354891538619995 0.07040481269359589
      vertex 5.9533233642578125 1.864841341972351 0.05892693251371384
    endloop
  endfacet
  facet normal -0.7109769522697013 0.28290184770642823 -0.6437999051767372
    outer loop
      vertex 5.960967540740967 1.9101725816726685 0.07040481269359589
      vertex 5.9533233642578125 1.864841341972351 0.05892693251371384
      vertex 5.93125057220459 1.8354891538619995 0.07040481269359589
    endloop
  endfacet
  facet normal -0.7109747162317408 0.28290741055550583 -0.643799930049681
    outer loop
      vertex 5.893468856811523 1.7666596174240112 0.08188269287347794
      vertex 5.93125057220459 1.8354891538619995 0.07040481269359589
      vertex 5.912322998046875 1.7618025541305542 0.05892693251371384
    endloop
  endfacet
  facet normal -0.7109762631837174 0.2829053050652337 -0.6437991469047349
    outer loop
      vertex 5.99432373046875 1.9678802490234375 0.05892693251371384
      vertex 6.011429786682129 2.0631096363067627 0.08188269287347794
      vertex 6.0353240966796875 2.0709192752838135 0.05892693251371384
    endloop
  endfacet
  facet normal -0.7109779528675956 0.282902687192583 -0.6437984312775378
    outer loop
      vertex 6.322325706481934 2.792191505432129 0.05892693251371384
      vertex 6.281325817108154 2.689152479171753 0.05892693251371384
      vertex 6.293087005615234 2.7709503173828125 0.08188269287347794
    endloop
  endfacet
  facet normal 0.7109629248052741 -0.2829008054380073 0.6438158539791148
    outer loop
      vertex 5.979155540466309 1.8164271116256714 0.13338686525821686
      vertex 6.008872985839844 1.8911105394363403 0.13338686525821686
      vertex 5.999899864196777 1.8946809768676758 0.1448647379875183
    endloop
  endfacet
  facet normal 0.7109780038974653 -0.2829022661552072 0.6437985599379855
    outer loop
      vertex 5.979155540466309 1.8164271116256714 0.13338686525821686
      vertex 5.999899864196777 1.8946809768676758 0.1448647379875183
      vertex 5.9701828956604 1.8199975490570068 0.1448647379875183
    endloop
  endfacet
  facet normal 0.7109781719851327 -0.28290687247654356 0.6437963501498123
    outer loop
      vertex 5.988128185272217 1.8128567934036255 0.12190897762775421
      vertex 6.017845630645752 1.8875402212142944 0.12190897762775421
      vertex 6.008872985839844 1.8911105394363403 0.13338686525821686
    endloop
  endfacet
  facet normal 0.7109781719851327 -0.28290687247654356 0.6437963501498123
    outer loop
      vertex 5.988128185272217 1.8128567934036255 0.12190897762775421
      vertex 6.008872985839844 1.8911105394363403 0.13338686525821686
      vertex 5.979155540466309 1.8164271116256714 0.13338686525821686
    endloop
  endfacet
  facet normal 0.7109789276287904 -0.28290384683335945 0.6437968452195943
    outer loop
      vertex 6.306046009063721 2.6379446983337402 0.13338686525821686
      vertex 6.324948310852051 2.7376887798309326 0.15634262561798096
      vertex 6.281551361083984 2.6286258697509766 0.15634262561798096
    endloop
  endfacet
  facet normal 0.7109782447348072 -0.28290576656483885 0.6437967557841323
    outer loop
      vertex 6.187176704406738 2.3392109870910645 0.13338686525821686
      vertex 6.306046009063721 2.6379446983337402 0.13338686525821686
      vertex 6.23815393447876 2.5195627212524414 0.15634262561798096
    endloop
  endfacet
  facet normal 0.7109747625483842 -0.28290529799031133 0.6438008072286658
    outer loop
      vertex 6.187176704406738 2.3392109870910645 0.13338686525821686
      vertex 6.23815393447876 2.5195627212524414 0.15634262561798096
      vertex 6.194756507873535 2.4104998111724854 0.15634262561798096
    endloop
  endfacet
  facet normal 0.7109788894637418 -0.2829063216873961 0.6437957998357957
    outer loop
      vertex 6.281551361083984 2.6286258697509766 0.15634262561798096
      vertex 6.23815393447876 2.5195627212524414 0.15634262561798096
      vertex 6.306046009063721 2.6379446983337402 0.13338686525821686
    endloop
  endfacet
  facet normal 0.7109708409506148 -0.2829043216344298 0.6438055670142491
    outer loop
      vertex 6.354187488555908 2.75892972946167 0.13338686525821686
      vertex 6.324948310852051 2.7376887798309326 0.15634262561798096
      vertex 6.306046009063721 2.6379446983337402 0.13338686525821686
    endloop
  endfacet
  facet normal 0.7109747625483842 -0.28290529799031133 0.6438008072286658
    outer loop
      vertex 6.187176704406738 2.3392109870910645 0.13338686525821686
      vertex 6.194756507873535 2.4104998111724854 0.15634262561798096
      vertex 6.1513590812683105 2.3014369010925293 0.15634262561798096
    endloop
  endfacet
  facet normal 0.7109686514568839 -0.2829028663144587 0.6438086244192783
    outer loop
      vertex 6.1513590812683105 2.3014369010925293 0.15634262561798096
      vertex 6.107961654663086 2.1923739910125732 0.15634262561798096
      vertex 6.127742290496826 2.1898441314697266 0.13338686525821686
    endloop
  endfacet
  facet normal 0.7109736297907989 -0.2829027953774667 0.6438031578904463
    outer loop
      vertex 6.1513590812683105 2.3014369010925293 0.15634262561798096
      vertex 6.127742290496826 2.1898441314697266 0.13338686525821686
      vertex 6.187176704406738 2.3392109870910645 0.13338686525821686
    endloop
  endfacet
  facet normal 0.7109746258096066 -0.282904326556209 0.6438013851108646
    outer loop
      vertex 6.306046009063721 2.6379446983337402 0.13338686525821686
      vertex 6.187176704406738 2.3392109870910645 0.13338686525821686
      vertex 6.2600226402282715 2.4700419902801514 0.11043109744787216
    endloop
  endfacet
  facet normal 0.7109655870574049 -0.2829032767428018 0.6438118281208458
    outer loop
      vertex 6.306046009063721 2.6379446983337402 0.13338686525821686
      vertex 6.2600226402282715 2.4700419902801514 0.11043109744787216
      vertex 6.301157474517822 2.573418140411377 0.11043109744787216
    endloop
  endfacet
  facet normal 0.710977199681754 -0.2829046180873058 0.6437984145659004
    outer loop
      vertex 6.342291831970215 2.6767945289611816 0.11043109744787216
      vertex 6.383426189422607 2.7801706790924072 0.11043109744787216
      vertex 6.354187488555908 2.75892972946167 0.13338686525821686
    endloop
  endfacet
  facet normal 0.7109730920821754 -0.28290521738825036 0.6438026874047803
    outer loop
      vertex 6.306046009063721 2.6379446983337402 0.13338686525821686
      vertex 6.342291831970215 2.6767945289611816 0.11043109744787216
      vertex 6.354187488555908 2.75892972946167 0.13338686525821686
    endloop
  endfacet
  facet normal 0.7109714368077495 -0.2829016725226504 0.6438060730743469
    outer loop
      vertex 6.306046009063721 2.6379446983337402 0.13338686525821686
      vertex 6.301157474517822 2.573418140411377 0.11043109744787216
      vertex 6.342291831970215 2.6767945289611816 0.11043109744787216
    endloop
  endfacet
  facet normal 0.7109712910845832 -0.2829016145381445 0.6438062594796917
    outer loop
      vertex 6.2600226402282715 2.4700419902801514 0.11043109744787216
      vertex 6.187176704406738 2.3392109870910645 0.13338686525821686
      vertex 6.218888282775879 2.3666656017303467 0.11043109744787216
    endloop
  endfacet
  facet normal 0.7109724267439024 -0.28290534588041055 0.6438033656965236
    outer loop
      vertex 6.177753448486328 2.263289213180542 0.11043109744787216
      vertex 6.218888282775879 2.3666656017303467 0.11043109744787216
      vertex 6.187176704406738 2.3392109870910645 0.13338686525821686
    endloop
  endfacet
  facet normal 0.7109781299187936 -0.2829049882375083 0.6437972246037648
    outer loop
      vertex 6.177753448486328 2.263289213180542 0.11043109744787216
      vertex 6.127742290496826 2.1898441314697266 0.13338686525821686
      vertex 6.1366190910339355 2.1599130630493164 0.11043109744787216
    endloop
  endfacet
  facet normal 0.7109776217892249 -0.2829043838295084 0.6437980513522732
    outer loop
      vertex 6.127742290496826 2.1898441314697266 0.13338686525821686
      vertex 6.177753448486328 2.263289213180542 0.11043109744787216
      vertex 6.187176704406738 2.3392109870910645 0.13338686525821686
    endloop
  endfacet
  facet normal 0.7109806851292971 -0.2829045461559903 0.6437945970085089
    outer loop
      vertex 6.107961654663086 2.1923739910125732 0.15634262561798096
      vertex 6.0645647048950195 2.083311080932617 0.15634262561798096
      vertex 6.068307399749756 2.0404775142669678 0.13338686525821686
    endloop
  endfacet
  facet normal 0.7109684830502985 -0.2829034687003967 0.6438085456923053
    outer loop
      vertex 6.107961654663086 2.1923739910125732 0.15634262561798096
      vertex 6.068307399749756 2.0404775142669678 0.13338686525821686
      vertex 6.127742290496826 2.1898441314697266 0.13338686525821686
    endloop
  endfacet
  facet normal 0.7109777312923864 -0.2829061700631942 0.6437971454942202
    outer loop
      vertex 6.068307399749756 2.0404775142669678 0.13338686525821686
      vertex 6.0645647048950195 2.083311080932617 0.15634262561798096
      vertex 6.021167278289795 1.9742480516433716 0.15634262561798096
    endloop
  endfacet
  facet normal 0.7109637820377498 -0.2828986510873868 0.6438158539858395
    outer loop
      vertex 5.999899864196777 1.8946809768676758 0.1448647379875183
      vertex 6.008872985839844 1.8911105394363403 0.13338686525821686
      vertex 6.068307399749756 2.0404775142669678 0.13338686525821686
    endloop
  endfacet
  facet normal 0.7109784538015923 -0.2829071029791966 0.6437959376338245
    outer loop
      vertex 6.021167278289795 1.9742480516433716 0.15634262561798096
      vertex 5.999899864196777 1.8946809768676758 0.1448647379875183
      vertex 6.068307399749756 2.0404775142669678 0.13338686525821686
    endloop
  endfacet
  facet normal 0.7109795881878143 -0.2829072181695257 0.6437946342490487
    outer loop
      vertex 5.999899864196777 1.8946809768676758 0.1448647379875183
      vertex 6.021167278289795 1.9742480516433716 0.15634262561798096
      vertex 5.97776985168457 1.8651851415634155 0.15634262561798096
    endloop
  endfacet
  facet normal 0.7109701542983103 -0.2829041337113935 0.6438064078789857
    outer loop
      vertex 6.127742290496826 2.1898441314697266 0.13338686525821686
      vertex 6.068307399749756 2.0404775142669678 0.13338686525821686
      vertex 6.095484733581543 2.0565366744995117 0.11043109744787216
    endloop
  endfacet
  facet normal 0.7109786505551506 -0.2829045429350176 0.6437968453180752
    outer loop
      vertex 6.127742290496826 2.1898441314697266 0.13338686525821686
      vertex 6.095484733581543 2.0565366744995117 0.11043109744787216
      vertex 6.1366190910339355 2.1599130630493164 0.11043109744787216
    endloop
  endfacet
  facet normal 0.7109667172371203 -0.2829020966654537 0.643811098602193
    outer loop
      vertex 5.9701828956604 1.8199975490570068 0.1448647379875183
      vertex 5.97776985168457 1.8651851415634155 0.15634262561798096
      vertex 5.934372425079346 1.7561222314834595 0.15634262561798096
    endloop
  endfacet
  facet normal 0.7109737815272699 -0.28290791866211046 0.6438007390016621
    outer loop
      vertex 5.934372425079346 1.7561222314834595 0.15634262561798096
      vertex 5.953226566314697 1.751265048980713 0.13338686525821686
      vertex 5.9701828956604 1.8199975490570068 0.1448647379875183
    endloop
  endfacet
  facet normal 0.7109753740873415 -0.2829012197385255 0.643801923973375
    outer loop
      vertex 5.999899864196777 1.8946809768676758 0.1448647379875183
      vertex 5.97776985168457 1.8651851415634155 0.15634262561798096
      vertex 5.9701828956604 1.8199975490570068 0.1448647379875183
    endloop
  endfacet
  facet normal 0.7109757101426117 -0.2829080305691884 0.6437985599756122
    outer loop
      vertex 5.9701828956604 1.8199975490570068 0.1448647379875183
      vertex 5.953226566314697 1.751265048980713 0.13338686525821686
      vertex 5.979155540466309 1.8164271116256714 0.13338686525821686
    endloop
  endfacet
  facet normal 0.7109790292420521 -0.28290471808213247 0.6437963501487861
    outer loop
      vertex 6.068307399749756 2.0404775142669678 0.13338686525821686
      vertex 6.008872985839844 1.8911105394363403 0.13338686525821686
      vertex 6.017845630645752 1.8875402212142944 0.12190897762775421
    endloop
  endfacet
  facet normal 0.7109702298119202 -0.2829047979259515 0.6438060326151519
    outer loop
      vertex 6.054349899291992 1.9531604051589966 0.11043109744787216
      vertex 6.095484733581543 2.0565366744995117 0.11043109744787216
      vertex 6.068307399749756 2.0404775142669678 0.13338686525821686
    endloop
  endfacet
  facet normal 0.710976363465051 -0.2829040804769906 0.6437995742802879
    outer loop
      vertex 6.068307399749756 2.0404775142669678 0.13338686525821686
      vertex 6.017845630645752 1.8875402212142944 0.12190897762775421
      vertex 6.054349899291992 1.9531604051589966 0.11043109744787216
    endloop
  endfacet
  facet normal 0.7109695367226173 -0.28290124269214956 0.6438083602561125
    outer loop
      vertex 5.972081184387207 1.7464078664779663 0.11043109744787216
      vertex 6.0132155418396 1.8497841358184814 0.11043109744787216
      vertex 5.988128185272217 1.8128567934036255 0.12190897762775421
    endloop
  endfacet
  facet normal 0.7109723260129983 -0.2829045462930427 0.643803828297405
    outer loop
      vertex 6.017845630645752 1.8875402212142944 0.12190897762775421
      vertex 5.988128185272217 1.8128567934036255 0.12190897762775421
      vertex 6.0132155418396 1.8497841358184814 0.11043109744787216
    endloop
  endfacet
  facet normal 0.7109774376409291 -0.28290871796699935 0.6437963501479389
    outer loop
      vertex 5.953226566314697 1.751265048980713 0.13338686525821686
      vertex 5.988128185272217 1.8128567934036255 0.12190897762775421
      vertex 5.979155540466309 1.8164271116256714 0.13338686525821686
    endloop
  endfacet
  facet normal 0.710968494419431 -0.282901193534239 0.6438095328898683
    outer loop
      vertex 5.988128185272217 1.8128567934036255 0.12190897762775421
      vertex 5.953226566314697 1.751265048980713 0.13338686525821686
      vertex 5.972081184387207 1.7464078664779663 0.11043109744787216
    endloop
  endfacet
  facet normal 0.7109760702874997 -0.28290384245701844 0.6438000026418133
    outer loop
      vertex 6.054349899291992 1.9531604051589966 0.11043109744787216
      vertex 6.017845630645752 1.8875402212142944 0.12190897762775421
      vertex 6.0132155418396 1.8497841358184814 0.11043109744787216
    endloop
  endfacet
  facet normal -0.23765241406179083 0.8449552683101531 0.47913664506643655
    outer loop
      vertex 6.35287618637085 2.7861809730529785 0.084679014980793
      vertex 6.293087005615234 2.7709503173828125 0.08188269287347794
      vertex 6.294398307800293 2.743699073791504 0.1305905431509018
    endloop
  endfacet
  facet normal -0.23765057311102836 0.8449556827228345 0.4791368273618596
    outer loop
      vertex 6.294398307800293 2.743699073791504 0.1305905431509018
      vertex 6.293087005615234 2.7709503173828125 0.08188269287347794
      vertex 6.263847827911377 2.749709367752075 0.10483846068382263
    endloop
  endfacet
  facet normal -0.237652571401694 0.8449562028796391 0.47913491891260096
    outer loop
      vertex 6.354187488555908 2.75892972946167 0.13338686525821686
      vertex 6.294398307800293 2.743699073791504 0.1305905431509018
      vertex 6.324948310852051 2.7376887798309326 0.15634262561798096
    endloop
  endfacet
  facet normal -0.23765414259295575 0.8449548792010791 0.479136473901431
    outer loop
      vertex 6.35287618637085 2.7861809730529785 0.084679014980793
      vertex 6.354187488555908 2.75892972946167 0.13338686525821686
      vertex 6.383426189422607 2.7801706790924072 0.11043109744787216
    endloop
  endfacet
  facet normal -0.2376516688720732 0.8449508420529792 0.4791448202749144
    outer loop
      vertex 6.35287618637085 2.7861809730529785 0.084679014980793
      vertex 6.322325706481934 2.792191505432129 0.05892693251371384
      vertex 6.293087005615234 2.7709503173828125 0.08188269287347794
    endloop
  endfacet
  facet normal -0.23765241406179083 0.8449552683101531 0.47913664506643655
    outer loop
      vertex 6.354187488555908 2.75892972946167 0.13338686525821686
      vertex 6.35287618637085 2.7861809730529785 0.084679014980793
      vertex 6.294398307800293 2.743699073791504 0.1305905431509018
    endloop
  endfacet
endsolid beam