solid beam
  facet normal -0.9790784819575712 -0.04939470688605305 0.19739678087369805
    outer loop
      vertex 3.223125457763672 3.4074056148529053 2.2488601207733154
      vertex 3.222658634185791 3.3785393238067627 2.23932147026062
      vertex 3.2281599044799805 3.3708627223968506 2.2646865844726562
    endloop
  endfacet
  facet normal -0.9790784112195257 -0.049387722723798495 0.19739887924708824
    outer loop
      vertex 3.223592519760132 3.4362716674804688 2.2583987712860107
      vertex 3.223125457763672 3.4074056148529053 2.2488601207733154
      vertex 3.2290937900543213 3.4285950660705566 2.283763885498047
    endloop
  endfacet
  facet normal -0.9790785520417593 -0.04938687988281783 0.19739839165315406
    outer loop
      vertex 3.223125457763672 3.4074056148529053 2.2488601207733154
      vertex 3.2396292686462402 3.38437557220459 2.324955701828003
      vertex 3.2290937900543213 3.4285950660705566 2.283763885498047
    endloop
  endfacet
  facet normal -0.9790807669488968 -0.04940056522874882 0.19738398097576287
    outer loop
      vertex 3.233660936355591 3.3631858825683594 2.2900519371032715
      vertex 3.223125457763672 3.4074056148529053 2.2488601207733154
      vertex 3.2281599044799805 3.3708627223968506 2.2646865844726562
    endloop
  endfacet
  facet normal -0.9790784074602701 -0.04938735170587262 0.19739899071814365
    outer loop
      vertex 3.2396292686462402 3.38437557220459 2.324955701828003
      vertex 3.233660936355591 3.3631858825683594 2.2900519371032715
      vertex 3.2391622066497803 3.3555092811584473 2.3154170513153076
    endloop
  endfacet
  facet normal -0.9790806925117407 -0.0493932100099914 0.1973861908939908
    outer loop
      vertex 3.240096092224121 3.4132416248321533 2.3344945907592773
      vertex 3.2345950603485107 3.4209184646606445 2.309129238128662
      vertex 3.2396292686462402 3.38437557220459 2.324955701828003
    endloop
  endfacet
  facet normal -0.9790787754293678 -0.049388295053391346 0.19739692959985092
    outer loop
      vertex 3.2396292686462402 3.38437557220459 2.324955701828003
      vertex 3.2345950603485107 3.4209184646606445 2.309129238128662
      vertex 3.2290937900543213 3.4285950660705566 2.283763885498047
    endloop
  endfacet
  facet normal -0.9790785482821673 -0.049386508872097334 0.19739850312276902
    outer loop
      vertex 3.233660936355591 3.3631858825683594 2.2900519371032715
      vertex 3.2396292686462402 3.38437557220459 2.324955701828003
      vertex 3.223125457763672 3.4074056148529053 2.2488601207733154
    endloop
  endfacet
  facet normal 0.166554538129556 0.953192833540638 0.2523549244917163
    outer loop
      vertex 4.20063591003418 3.366909980773926 1.875541090965271
      vertex 4.29815149307251 3.3610873222351074 1.8331739902496338
      vertex 4.290842056274414 3.367034912109375 1.8155330419540405
    endloop
  endfacet
  facet normal 0.16655534657277257 0.9531923707909519 0.2523561388077337
    outer loop
      vertex 4.20063591003418 3.366909980773926 1.875541090965271
      vertex 4.290842056274414 3.367034912109375 1.8155330419540405
      vertex 4.193326473236084 3.3728575706481934 1.8579002618789673
    endloop
  endfacet
  facet normal 0.16655598936889052 0.9531916526538441 0.2523584270762194
    outer loop
      vertex 4.207944869995117 3.360962390899658 1.8931820392608643
      vertex 4.305460453033447 3.35513973236084 1.850814938545227
      vertex 4.29815149307251 3.3610873222351074 1.8331739902496338
    endloop
  endfacet
  facet normal 0.16655598936889052 0.9531916526538441 0.2523584270762194
    outer loop
      vertex 4.207944869995117 3.360962390899658 1.8931820392608643
      vertex 4.29815149307251 3.3610873222351074 1.8331739902496338
      vertex 4.20063591003418 3.366909980773926 1.875541090965271
    endloop
  endfacet
  facet normal 0.166555730666778 0.9531918007359351 0.252358038492617
    outer loop
      vertex 3.322993516921997 3.41931414604187 2.256845474243164
      vertex 3.4205093383789062 3.4134914875030518 2.2144782543182373
      vertex 3.4132001399993896 3.4194390773773193 2.1968374252319336
    endloop
  endfacet
  facet normal 0.166555730666778 0.9531918007359351 0.252358038492617
    outer loop
      vertex 3.322993516921997 3.41931414604187 2.256845474243164
      vertex 3.4132001399993896 3.4194390773773193 2.1968374252319336
      vertex 3.3156843185424805 3.4252617359161377 2.2392046451568604
    endloop
  endfacet
  facet normal 0.16655411377279458 0.9531927262466147 0.25235560983640776
    outer loop
      vertex 3.3303027153015137 3.4133665561676025 2.2744863033294678
      vertex 3.427818536758423 3.407543897628784 2.23211932182312
      vertex 3.4205093383789062 3.4134914875030518 2.2144782543182373
    endloop
  endfacet
  facet normal 0.166555730666778 0.9531918007359351 0.252358038492617
    outer loop
      vertex 3.3303027153015137 3.4133665561676025 2.2744863033294678
      vertex 3.4205093383789062 3.4134914875030518 2.2144782543182373
      vertex 3.322993516921997 3.41931414604187 2.256845474243164
    endloop
  endfacet
  facet normal 0.1665558710147928 0.9531920401163129 0.2523570416877742
    outer loop
      vertex 4.290842056274414 3.367034912109375 1.8155330419540405
      vertex 4.3735527992248535 3.367607355117798 1.7587816715240479
      vertex 4.2298078536987305 3.376190423965454 1.821233868598938
    endloop
  endfacet
  facet normal 0.16655396514981632 0.9531928677515542 0.25235517343704617
    outer loop
      vertex 4.290842056274414 3.367034912109375 1.8155330419540405
      vertex 4.29815149307251 3.3610873222351074 1.8331739902496338
      vertex 4.391919136047363 3.3554885387420654 1.7924351692199707
    endloop
  endfacet
  facet normal 0.1665537217708024 0.9531932417367177 0.2523539214510876
    outer loop
      vertex 4.3735527992248535 3.367607355117798 1.7587816715240479
      vertex 4.290842056274414 3.367034912109375 1.8155330419540405
      vertex 4.391919136047363 3.3554885387420654 1.7924351692199707
    endloop
  endfacet
  facet normal 0.16655589274284918 0.9531919263679238 0.25235745699233714
    outer loop
      vertex 4.290842056274414 3.367034912109375 1.8155330419540405
      vertex 4.2298078536987305 3.376190423965454 1.821233868598938
      vertex 4.193326473236084 3.3728575706481934 1.8579002618789673
    endloop
  endfacet
  facet normal 0.16655552817698258 0.9531923599479014 0.25235605990472376
    outer loop
      vertex 4.20063591003418 3.366909980773926 1.875541090965271
      vertex 4.193326473236084 3.3728575706481934 1.8579002618789673
      vertex 4.086062908172607 3.3847734928131104 1.8836859464645386
    endloop
  endfacet
  facet normal 0.16655556918408557 0.9531919786770208 0.25235747296157357
    outer loop
      vertex 4.20063591003418 3.366909980773926 1.875541090965271
      vertex 4.086062908172607 3.3847734928131104 1.8836859464645386
      vertex 3.9423177242279053 3.3933565616607666 1.9461380243301392
    endloop
  endfacet
  facet normal 0.1665557987242961 0.9531919665940035 0.2523573671046038
    outer loop
      vertex 4.2298078536987305 3.376190423965454 1.821233868598938
      vertex 4.086062908172607 3.3847734928131104 1.8836859464645386
      vertex 4.193326473236084 3.3728575706481934 1.8579002618789673
    endloop
  endfacet
  facet normal 0.1665550864732777 0.953192678503518 0.25235514818835825
    outer loop
      vertex 3.9423177242279053 3.3933565616607666 1.9461380243301392
      vertex 3.7985727787017822 3.401939630508423 2.0085902214050293
      vertex 3.810572624206543 3.3902008533477783 2.0450098514556885
    endloop
  endfacet
  facet normal 0.16655564699258857 0.9531915563625387 0.2523590167480474
    outer loop
      vertex 4.391919136047363 3.3554885387420654 1.7924351692199707
      vertex 4.305460453033447 3.35513973236084 1.850814938545227
      vertex 4.410285472869873 3.343369483947754 1.8260886669158936
    endloop
  endfacet
  facet normal 0.16655553860323505 0.9531920194478418 0.2523573391473517
    outer loop
      vertex 4.207944869995117 3.360962390899658 1.8931820392608643
      vertex 4.264011859893799 3.3521034717559814 1.8896393775939941
      vertex 4.305460453033447 3.35513973236084 1.850814938545227
    endloop
  endfacet
  facet normal 0.16655524690669324 0.9531921501572393 0.25235703795707637
    outer loop
      vertex 4.305460453033447 3.35513973236084 1.850814938545227
      vertex 4.264011859893799 3.3521034717559814 1.8896393775939941
      vertex 4.410285472869873 3.343369483947754 1.8260886669158936
    endloop
  endfacet
  facet normal 0.16655541638721674 0.9531916868686403 0.252358676008171
    outer loop
      vertex 4.29815149307251 3.3610873222351074 1.8331739902496338
      vertex 4.305460453033447 3.35513973236084 1.850814938545227
      vertex 4.391919136047363 3.3554885387420654 1.7924351692199707
    endloop
  endfacet
  facet normal 0.1665553856089541 0.953192401177772 0.2523559982675386
    outer loop
      vertex 4.20063591003418 3.366909980773926 1.875541090965271
      vertex 3.810572624206543 3.3902008533477783 2.0450098514556885
      vertex 3.9714646339416504 3.3695716857910156 2.0167407989501953
    endloop
  endfacet
  facet normal 0.1665536213073994 0.9531934729138812 0.25235311455134757
    outer loop
      vertex 4.20063591003418 3.366909980773926 1.875541090965271
      vertex 3.9714646339416504 3.3695716857910156 2.0167407989501953
      vertex 4.117738246917725 3.360837697982788 1.9531900882720947
    endloop
  endfacet
  facet normal 0.1665549697673708 0.9531927395506367 0.2523549946280882
    outer loop
      vertex 3.9423177242279053 3.3933565616607666 1.9461380243301392
      vertex 3.810572624206543 3.3902008533477783 2.0450098514556885
      vertex 4.20063591003418 3.366909980773926 1.875541090965271
    endloop
  endfacet
  facet normal 0.1665579439501789 0.9531915359359301 0.2523575779072059
    outer loop
      vertex 4.207944869995117 3.360962390899658 1.8931820392608643
      vertex 4.20063591003418 3.366909980773926 1.875541090965271
      vertex 4.117738246917725 3.360837697982788 1.9531900882720947
    endloop
  endfacet
  facet normal 0.16655546622565584 0.9531929541881407 0.25235385623453344
    outer loop
      vertex 4.264011859893799 3.3521034717559814 1.8896393775939941
      vertex 4.207944869995117 3.360962390899658 1.8931820392608643
      vertex 4.117738246917725 3.360837697982788 1.9531900882720947
    endloop
  endfacet
  facet normal 0.16655567201942617 0.9531918042377566 0.2523580639728552
    outer loop
      vertex 3.9714646339416504 3.3695716857910156 2.0167407989501953
      vertex 3.810572624206543 3.3902008533477783 2.0450098514556885
      vertex 3.825191020965576 3.378305673599243 2.080291509628296
    endloop
  endfacet
  facet normal 0.16655534849543302 0.953192158254209 0.2523569403251032
    outer loop
      vertex 3.7985727787017822 3.401939630508423 2.0085902214050293
      vertex 3.65482759475708 3.410522699356079 2.07104229927063
      vertex 3.6155409812927246 3.401846170425415 2.129744052886963
    endloop
  endfacet
  facet normal 0.16655433803930114 0.9531927388441572 0.2523554142376673
    outer loop
      vertex 3.7985727787017822 3.401939630508423 2.0085902214050293
      vertex 3.6155409812927246 3.401846170425415 2.129744052886963
      vertex 3.810572624206543 3.3902008533477783 2.0450098514556885
    endloop
  endfacet
  facet normal 0.1665557162429516 0.9531920337100905 0.2523571680345521
    outer loop
      vertex 3.6155409812927246 3.401846170425415 2.129744052886963
      vertex 3.65482759475708 3.410522699356079 2.07104229927063
      vertex 3.511082649230957 3.4191057682037354 2.1334943771362305
    endloop
  endfacet
  facet normal 0.16655547193032746 0.9531918161850064 0.25235815090461167
    outer loop
      vertex 3.4205093383789062 3.4134914875030518 2.2144782543182373
      vertex 3.6155409812927246 3.401846170425415 2.129744052886963
      vertex 3.4132001399993896 3.4194390773773193 2.1968374252319336
    endloop
  endfacet
  facet normal 0.166555702958202 0.9531915745823162 0.2523589109926257
    outer loop
      vertex 3.511082649230957 3.4191057682037354 2.1334943771362305
      vertex 3.4132001399993896 3.4194390773773193 2.1968374252319336
      vertex 3.6155409812927246 3.401846170425415 2.129744052886963
    endloop
  endfacet
  facet normal 0.16655814753320755 0.9531901453168112 0.2523626960571286
    outer loop
      vertex 3.4132001399993896 3.4194390773773193 2.1968374252319336
      vertex 3.511082649230957 3.4191057682037354 2.1334943771362305
      vertex 3.367337465286255 3.4276888370513916 2.19594669342041
    endloop
  endfacet
  facet normal 0.16655551590668283 0.9531917804007687 0.2523582570423869
    outer loop
      vertex 3.810572624206543 3.3902008533477783 2.0450098514556885
      vertex 3.6155409812927246 3.401846170425415 2.129744052886963
      vertex 3.678917169570923 3.3870396614074707 2.1438422203063965
    endloop
  endfacet
  facet normal 0.16655544433240305 0.9531918178328653 0.25235816289494906
    outer loop
      vertex 3.810572624206543 3.3902008533477783 2.0450098514556885
      vertex 3.678917169570923 3.3870396614074707 2.1438422203063965
      vertex 3.825191020965576 3.378305673599243 2.080291509628296
    endloop
  endfacet
  facet normal 0.1665557224762903 0.9531910288479226 0.25236095940980985
    outer loop
      vertex 3.3156843185424805 3.4252617359161377 2.2392046451568604
      vertex 3.367337465286255 3.4276888370513916 2.19594669342041
      vertex 3.223592519760132 3.4362716674804688 2.2583987712860107
    endloop
  endfacet
  facet normal 0.16655472282599634 0.9531927319694523 0.2523551862454331
    outer loop
      vertex 3.223592519760132 3.4362716674804688 2.2583987712860107
      vertex 3.2290937900543213 3.4285950660705566 2.283763885498047
      vertex 3.3156843185424805 3.4252617359161377 2.2392046451568604
    endloop
  endfacet
  facet normal 0.16655607659929075 0.9531917800802944 0.2523578881969235
    outer loop
      vertex 3.2290937900543213 3.4285950660705566 2.283763885498047
      vertex 3.322993516921997 3.41931414604187 2.256845474243164
      vertex 3.3156843185424805 3.4252617359161377 2.2392046451568604
    endloop
  endfacet
  facet normal 0.16655808148022502 0.9531898878251059 0.25236371221233184
    outer loop
      vertex 3.367337465286255 3.4276888370513916 2.19594669342041
      vertex 3.3156843185424805 3.4252617359161377 2.2392046451568604
      vertex 3.4132001399993896 3.4194390773773193 2.1968374252319336
    endloop
  endfacet
  facet normal 0.1665543725072581 0.9531927107973697 0.2523554974266971
    outer loop
      vertex 3.427818536758423 3.407543897628784 2.23211932182312
      vertex 3.6155409812927246 3.401846170425415 2.129744052886963
      vertex 3.4205093383789062 3.4134914875030518 2.2144782543182373
    endloop
  endfacet
  facet normal 0.166555730666778 0.953191800735935 0.25235803849261695
    outer loop
      vertex 3.6155409812927246 3.401846170425415 2.129744052886963
      vertex 3.427818536758423 3.407543897628784 2.23211932182312
      vertex 3.5326435565948486 3.3957736492156982 2.207392930984497
    endloop
  endfacet
  facet normal 0.1665556097176901 0.9531918549335411 0.2523579136066942
    outer loop
      vertex 3.5326435565948486 3.3957736492156982 2.207392930984497
      vertex 3.678917169570923 3.3870396614074707 2.1438422203063965
      vertex 3.6155409812927246 3.401846170425415 2.129744052886963
    endloop
  endfacet
  facet normal 0.16655579662326747 0.9531917028457924 0.2523583647060812
    outer loop
      vertex 3.5326435565948486 3.3957736492156982 2.207392930984497
      vertex 3.427818536758423 3.407543897628784 2.23211932182312
      vertex 3.3863699436187744 3.404507637023926 2.2709436416625977
    endloop
  endfacet
  facet normal 0.16655736656586387 0.95319170305514 0.25235732775072417
    outer loop
      vertex 3.3303027153015137 3.4133665561676025 2.2744863033294678
      vertex 3.322993516921997 3.41931414604187 2.256845474243164
      vertex 3.2345950603485107 3.4209184646606445 2.309129238128662
    endloop
  endfacet
  facet normal 0.1665548163343398 0.9531933032033947 0.25235296686196396
    outer loop
      vertex 3.2290937900543213 3.4285950660705566 2.283763885498047
      vertex 3.2345950603485107 3.4209184646606445 2.309129238128662
      vertex 3.322993516921997 3.41931414604187 2.256845474243164
    endloop
  endfacet
  facet normal 0.1665548144882043 0.953192590458317 0.252355660261788
    outer loop
      vertex 3.240096092224121 3.4132416248321533 2.3344945907592773
      vertex 3.3863699436187744 3.404507637023926 2.2709436416625977
      vertex 3.3303027153015137 3.4133665561676025 2.2744863033294678
    endloop
  endfacet
  facet normal 0.1665548503846009 0.9531921268573891 0.25235738766766935
    outer loop
      vertex 3.3303027153015137 3.4133665561676025 2.2744863033294678
      vertex 3.3863699436187744 3.404507637023926 2.2709436416625977
      vertex 3.427818536758423 3.407543897628784 2.23211932182312
    endloop
  endfacet
  facet normal 0.1665588396480973 0.9531902864399296 0.25236170623064896
    outer loop
      vertex 3.2345950603485107 3.4209184646606445 2.309129238128662
      vertex 3.240096092224121 3.4132416248321533 2.3344945907592773
      vertex 3.3303027153015137 3.4133665561676025 2.2744863033294678
    endloop
  endfacet
  facet normal -0.1665546312414778 -0.9531926953480621 -0.25235538501706634
    outer loop
      vertex 3.4105160236358643 3.356300115585327 2.1993370056152344
      vertex 3.313000202178955 3.3621227741241455 2.241704225540161
      vertex 3.3056910037994385 3.368070363998413 2.2240631580352783
    endloop
  endfacet
  facet normal -0.1665524331046399 -0.9531959576482286 -0.25234451321556545
    outer loop
      vertex 3.4105160236358643 3.356300115585327 2.1993370056152344
      vertex 3.3056910037994385 3.368070363998413 2.2240631580352783
      vertex 3.4032068252563477 3.3622474670410156 2.1816959381103516
    endloop
  endfacet
  facet normal -0.166555730666778 -0.9531918007359351 -0.252358038492617
    outer loop
      vertex 3.417825222015381 3.3503525257110596 2.216977834701538
      vertex 3.3203094005584717 3.356175184249878 2.259345054626465
      vertex 3.313000202178955 3.3621227741241455 2.241704225540161
    endloop
  endfacet
  facet normal -0.166555730666778 -0.9531918007359351 -0.252358038492617
    outer loop
      vertex 3.417825222015381 3.3503525257110596 2.216977834701538
      vertex 3.313000202178955 3.3621227741241455 2.241704225540161
      vertex 3.4105160236358643 3.356300115585327 2.1993370056152344
    endloop
  endfacet
  facet normal -0.16655508783888395 -0.9531923862391218 -0.2523562512218598
    outer loop
      vertex 4.288157939910889 3.303895950317383 1.8180326223373413
      vertex 4.190642356872559 3.309718608856201 1.8603997230529785
      vertex 4.183332920074463 3.3156661987304688 1.8427588939666748
    endloop
  endfacet
  facet normal -0.16655556504161503 -0.9531916779919877 -0.2523586114252634
    outer loop
      vertex 4.288157939910889 3.303895950317383 1.8180326223373413
      vertex 4.183332920074463 3.3156661987304688 1.8427588939666748
      vertex 4.280848979949951 3.3098435401916504 1.800391674041748
    endloop
  endfacet
  facet normal -0.16655479686232919 -0.9531928180923499 -0.2523548120787722
    outer loop
      vertex 4.295467376708984 3.2979483604431152 1.835673451423645
      vertex 4.197951793670654 3.3037710189819336 1.8780406713485718
      vertex 4.190642356872559 3.309718608856201 1.8603997230529785
    endloop
  endfacet
  facet normal -0.16655508783888395 -0.9531923862391218 -0.2523562512218598
    outer loop
      vertex 4.295467376708984 3.2979483604431152 1.835673451423645
      vertex 4.190642356872559 3.309718608856201 1.8603997230529785
      vertex 4.288157939910889 3.303895950317383 1.8180326223373413
    endloop
  endfacet
  facet normal -0.1665549196591458 -0.9531927105910263 -0.25235513708555146
    outer loop
      vertex 3.2281599044799805 3.3708627223968506 2.2646865844726562
      vertex 3.222658634185791 3.3785393238067627 2.23932147026062
      vertex 3.3056910037994385 3.368070363998413 2.2240631580352783
    endloop
  endfacet
  facet normal -0.16655520708705926 -0.9531921432052045 -0.2523570904968903
    outer loop
      vertex 3.3646044731140137 3.3700637817382812 2.1776509284973145
      vertex 3.3056910037994385 3.368070363998413 2.2240631580352783
      vertex 3.222658634185791 3.3785393238067627 2.23932147026062
    endloop
  endfacet
  facet normal -0.16655664986660393 -0.9531905242851881 -0.2523622531167085
    outer loop
      vertex 3.233660936355591 3.3631858825683594 2.2900519371032715
      vertex 3.2281599044799805 3.3708627223968506 2.2646865844726562
      vertex 3.313000202178955 3.3621227741241455 2.241704225540161
    endloop
  endfacet
  facet normal -0.16655497095403227 -0.9531926750633317 -0.25235523742556093
    outer loop
      vertex 3.3056910037994385 3.368070363998413 2.2240631580352783
      vertex 3.313000202178955 3.3621227741241455 2.241704225540161
      vertex 3.2281599044799805 3.3708627223968506 2.2646865844726562
    endloop
  endfacet
  facet normal -0.16655994790396836 -0.9531891210362606 -0.2523653765720413
    outer loop
      vertex 3.4032068252563477 3.3622474670410156 2.1816959381103516
      vertex 3.3646044731140137 3.3700637817382812 2.1776509284973145
      vertex 3.5065505504608154 3.3615880012512207 2.115980386734009
    endloop
  endfacet
  facet normal -0.16654796168774916 -0.9531962246415918 -0.2523464558631093
    outer loop
      vertex 3.4032068252563477 3.3622474670410156 2.1816959381103516
      vertex 3.5065505504608154 3.3615880012512207 2.115980386734009
      vertex 3.4105160236358643 3.356300115585327 2.1993370056152344
    endloop
  endfacet
  facet normal -0.16656025250867038 -0.9531895949704406 -0.25236338546694004
    outer loop
      vertex 3.3056910037994385 3.368070363998413 2.2240631580352783
      vertex 3.3646044731140137 3.3700637817382812 2.1776509284973145
      vertex 3.4032068252563477 3.3622474670410156 2.1816959381103516
    endloop
  endfacet
  facet normal -0.16655275048343354 -0.9531939652396251 -0.25235182966874525
    outer loop
      vertex 3.5065505504608154 3.3615880012512207 2.115980386734009
      vertex 3.648496627807617 3.3531124591827393 2.054309844970703
      vertex 3.4105160236358643 3.356300115585327 2.1993370056152344
    endloop
  endfacet
  facet normal -0.16655342696817918 -0.9531928727140476 -0.25235550989090166
    outer loop
      vertex 3.2391622066497803 3.3555092811584473 2.3154170513153076
      vertex 3.233660936355591 3.3631858825683594 2.2900519371032715
      vertex 3.3203094005584717 3.356175184249878 2.259345054626465
    endloop
  endfacet
  facet normal -0.16655444111203443 -0.9531918777340764 -0.25235859875907385
    outer loop
      vertex 3.3203094005584717 3.356175184249878 2.259345054626465
      vertex 3.233660936355591 3.3631858825683594 2.2900519371032715
      vertex 3.313000202178955 3.3621227741241455 2.241704225540161
    endloop
  endfacet
  facet normal -0.1665573601841413 -0.9531906853254459 -0.2523611760499167
    outer loop
      vertex 3.3203094005584717 3.356175184249878 2.259345054626465
      vertex 3.383636951446533 3.3468825817108154 2.252648115158081
      vertex 3.2391622066497803 3.3555092811584473 2.3154170513153076
    endloop
  endfacet
  facet normal -0.16655742175353652 -0.9531904246643936 -0.25236211995251523
    outer loop
      vertex 3.383636951446533 3.3468825817108154 2.252648115158081
      vertex 3.3203094005584717 3.356175184249878 2.259345054626465
      vertex 3.417825222015381 3.3503525257110596 2.216977834701538
    endloop
  endfacet
  facet normal -0.16655623192956165 -0.9531916637449714 -0.2523582250938519
    outer loop
      vertex 3.4105160236358643 3.356300115585327 2.1993370056152344
      vertex 3.800579309463501 3.3330092430114746 2.0298683643341064
      vertex 3.67258620262146 3.329629421234131 2.1271097660064697
    endloop
  endfacet
  facet normal -0.16655577535098443 -0.9531922382930025 -0.25235635628057446
    outer loop
      vertex 3.4105160236358643 3.356300115585327 2.1993370056152344
      vertex 3.67258620262146 3.329629421234131 2.1271097660064697
      vertex 3.528111457824707 3.3382561206817627 2.1898789405822754
    endloop
  endfacet
  facet normal -0.16655539450170403 -0.9531923451703618 -0.25235620394792707
    outer loop
      vertex 3.648496627807617 3.3531124591827393 2.054309844970703
      vertex 3.800579309463501 3.3330092430114746 2.0298683643341064
      vertex 3.4105160236358643 3.356300115585327 2.1993370056152344
    endloop
  endfacet
  facet normal -0.1665558387432688 -0.9531917942826993 -0.2523579915371305
    outer loop
      vertex 3.417825222015381 3.3503525257110596 2.216977834701538
      vertex 3.4105160236358643 3.356300115585327 2.1993370056152344
      vertex 3.528111457824707 3.3382561206817627 2.1898789405822754
    endloop
  endfacet
  facet normal -0.166556545458547 -0.9531907907212611 -0.2523613156747523
    outer loop
      vertex 3.383636951446533 3.3468825817108154 2.252648115158081
      vertex 3.417825222015381 3.3503525257110596 2.216977834701538
      vertex 3.528111457824707 3.3382561206817627 2.1898789405822754
    endloop
  endfacet
  facet normal -0.1665541393069705 -0.9531927486383803 -0.25235550840614507
    outer loop
      vertex 3.67258620262146 3.329629421234131 2.1271097660064697
      vertex 3.800579309463501 3.3330092430114746 2.0298683643341064
      vertex 3.817060708999634 3.321002960205078 2.064340591430664
    endloop
  endfacet
  facet normal -0.16655574510521085 -0.9531915285017446 -0.25235905722790225
    outer loop
      vertex 3.800579309463501 3.3330092430114746 2.0298683643341064
      vertex 3.648496627807617 3.3531124591827393 2.054309844970703
      vertex 3.790442705154419 3.344636917114258 1.9926393032073975
    endloop
  endfacet
  facet normal -0.1665561508597888 -0.9531914900323137 -0.25235893473532606
    outer loop
      vertex 3.9956107139587402 3.321363925933838 1.9451340436935425
      vertex 3.800579309463501 3.3330092430114746 2.0298683643341064
      vertex 3.790442705154419 3.344636917114258 1.9926393032073975
    endloop
  endfacet
  facet normal -0.1665550613105699 -0.953193140248878 -0.25235342069073463
    outer loop
      vertex 3.9956107139587402 3.321363925933838 1.9451340436935425
      vertex 3.790442705154419 3.344636917114258 1.9926393032073975
      vertex 3.9323885440826416 3.3361611366271973 1.9309688806533813
    endloop
  endfacet
  facet normal -0.16655481543547065 -0.9531924392728441 -0.2523562306905488
    outer loop
      vertex 4.183332920074463 3.3156661987304688 1.8427588939666748
      vertex 3.9956107139587402 3.321363925933838 1.9451340436935425
      vertex 4.074334621429443 3.327685594558716 1.8692983388900757
    endloop
  endfacet
  facet normal -0.16655440273940555 -0.9531926208001785 -0.2523558174090837
    outer loop
      vertex 3.9323885440826416 3.3361611366271973 1.9309688806533813
      vertex 4.074334621429443 3.327685594558716 1.8692983388900757
      vertex 3.9956107139587402 3.321363925933838 1.9451340436935425
    endloop
  endfacet
  facet normal -0.16655500510746388 -0.9531924223446568 -0.2523561694478225
    outer loop
      vertex 3.800579309463501 3.3330092430114746 2.0298683643341064
      vertex 3.9956107139587402 3.321363925933838 1.9451340436935425
      vertex 3.9615354537963867 3.3123762607574463 2.0015716552734375
    endloop
  endfacet
  facet normal -0.1665548637770567 -0.9531927166962825 -0.25235515090714256
    outer loop
      vertex 3.800579309463501 3.3330092430114746 2.0298683643341064
      vertex 3.9615354537963867 3.3123762607574463 2.0015716552734375
      vertex 3.817060708999634 3.321002960205078 2.064340591430664
    endloop
  endfacet
  facet normal -0.16655411661915598 -0.9531935551313381 -0.25235247708967157
    outer loop
      vertex 4.280848979949951 3.3098435401916504 1.800391674041748
      vertex 4.216280460357666 3.3192100524902344 1.80762779712677
      vertex 4.358226776123047 3.310734272003174 1.745957374572754
    endloop
  endfacet
  facet normal -0.16655434594348176 -0.9531926699859996 -0.25235566911068186
    outer loop
      vertex 4.216280460357666 3.3192100524902344 1.80762779712677
      vertex 4.280848979949951 3.3098435401916504 1.800391674041748
      vertex 4.183332920074463 3.3156661987304688 1.8427588939666748
    endloop
  endfacet
  facet normal -0.16655487567755103 -0.9531923989065366 -0.25235634340122587
    outer loop
      vertex 3.9956107139587402 3.321363925933838 1.9451340436935425
      vertex 4.183332920074463 3.3156661987304688 1.8427588939666748
      vertex 4.190642356872559 3.309718608856201 1.8603997230529785
    endloop
  endfacet
  facet normal -0.16655473898704204 -0.9531932136455482 -0.25235335619133437
    outer loop
      vertex 4.280848979949951 3.3098435401916504 1.800391674041748
      vertex 4.358226776123047 3.310734272003174 1.745957374572754
      vertex 4.376593112945557 3.2986154556274414 1.7796108722686768
    endloop
  endfacet
  facet normal -0.16655477896515436 -0.9531924915713472 -0.25235605722049886
    outer loop
      vertex 4.074334621429443 3.327685594558716 1.8692983388900757
      vertex 4.216280460357666 3.3192100524902344 1.80762779712677
      vertex 4.183332920074463 3.3156661987304688 1.8427588939666748
    endloop
  endfacet
  facet normal -0.1665543259684693 -0.9531928462081894 -0.2523550166704035
    outer loop
      vertex 4.197951793670654 3.3037710189819336 1.8780406713485718
      vertex 3.9956107139587402 3.321363925933838 1.9451340436935425
      vertex 4.190642356872559 3.309718608856201 1.8603997230529785
    endloop
  endfacet
  facet normal -0.16655632612535107 -0.9531907544988034 -0.2523615972481299
    outer loop
      vertex 3.9956107139587402 3.321363925933838 1.9451340436935425
      vertex 4.197951793670654 3.3037710189819336 1.8780406713485718
      vertex 4.1060099601745605 3.3037495613098145 1.9388024806976318
    endloop
  endfacet
  facet normal -0.166556256502269 -0.9531920205894328 -0.2523568610214207
    outer loop
      vertex 4.1060099601745605 3.3037495613098145 1.9388024806976318
      vertex 3.9615354537963867 3.3123762607574463 2.0015716552734375
      vertex 3.9956107139587402 3.321363925933838 1.9451340436935425
    endloop
  endfacet
  facet normal -0.1665566743086118 -0.9531905541902821 -0.25236212403147573
    outer loop
      vertex 4.1060099601745605 3.3037495613098145 1.9388024806976318
      vertex 4.197951793670654 3.3037710189819336 1.8780406713485718
      vertex 4.250484466552734 3.2951231002807617 1.8760334253311157
    endloop
  endfacet
  facet normal -0.16655478562971993 -0.9531924042829636 -0.25235638252499437
    outer loop
      vertex 4.295467376708984 3.2979483604431152 1.835673451423645
      vertex 4.288157939910889 3.303895950317383 1.8180326223373413
      vertex 4.376593112945557 3.2986154556274414 1.7796108722686768
    endloop
  endfacet
  facet normal -0.16655568715184815 -0.9531916707003574 -0.25235855837446275
    outer loop
      vertex 4.280848979949951 3.3098435401916504 1.800391674041748
      vertex 4.376593112945557 3.2986154556274414 1.7796108722686768
      vertex 4.288157939910889 3.303895950317383 1.8180326223373413
    endloop
  endfacet
  facet normal -0.16655680947868143 -0.953191222991988 -0.25235950869210455
    outer loop
      vertex 4.394959449768066 3.28649640083313 1.81326425075531
      vertex 4.250484466552734 3.2951231002807617 1.8760334253311157
      vertex 4.295467376708984 3.2979483604431152 1.835673451423645
    endloop
  endfacet
  facet normal -0.16655668865410386 -0.9531912787241166 -0.25235937792930063
    outer loop
      vertex 4.295467376708984 3.2979483604431152 1.835673451423645
      vertex 4.250484466552734 3.2951231002807617 1.8760334253311157
      vertex 4.197951793670654 3.3037710189819336 1.8780406713485718
    endloop
  endfacet
  facet normal -0.16655675393015898 -0.9531913097276156 -0.2523592177432816
    outer loop
      vertex 4.376593112945557 3.2986154556274414 1.7796108722686768
      vertex 4.394959449768066 3.28649640083313 1.81326425075531
      vertex 4.295467376708984 3.2979483604431152 1.835673451423645
    endloop
  endfacet
  facet normal -0.3654616274842457 0.2973848316231109 -0.8820431172890929
    outer loop
      vertex 3.276501178741455 3.3897714614868164 2.220799446105957
      vertex 3.2789995670318604 3.404069185256958 2.2245848178863525
      vertex 3.3521363735198975 3.399702310562134 2.1928093433380127
    endloop
  endfacet
  facet normal -0.36546160169755637 0.297380277551618 -0.8820446633861458
    outer loop
      vertex 3.276501178741455 3.3897714614868164 2.220799446105957
      vertex 3.3521363735198975 3.399702310562134 2.1928093433380127
      vertex 3.349637985229492 3.385404348373413 2.189023971557617
    endloop
  endfacet
  facet normal -0.36546238303826734 0.2973747294984821 -0.8820462101498397
    outer loop
      vertex 3.2789995670318604 3.404069185256958 2.2245848178863525
      vertex 3.2814977169036865 3.4183671474456787 2.228370189666748
      vertex 3.3546347618103027 3.4140002727508545 2.196594715118408
    endloop
  endfacet
  facet normal -0.3654624147545894 0.2973803261013717 -0.882044310139568
    outer loop
      vertex 3.2789995670318604 3.404069185256958 2.2245848178863525
      vertex 3.3546347618103027 3.4140002727508545 2.196594715118408
      vertex 3.3521363735198975 3.399702310562134 2.1928093433380127
    endloop
  endfacet
  facet normal -0.36546042752718927 0.29738121344035795 -0.8820448343504906
    outer loop
      vertex 4.086062908172607 3.3847734928131104 1.8836859464645386
      vertex 4.2298078536987305 3.376190423965454 1.821233868598938
      vertex 4.216280460357666 3.3192100524902344 1.80762779712677
    endloop
  endfacet
  facet normal -0.3654615419681852 0.29737923726558 -0.8820450388645573
    outer loop
      vertex 4.086062908172607 3.3847734928131104 1.8836859464645386
      vertex 4.216280460357666 3.3192100524902344 1.80762779712677
      vertex 4.074334621429443 3.327685594558716 1.8692983388900757
    endloop
  endfacet
  facet normal -0.3654602796806586 0.29737911973577563 -0.8820456014974001
    outer loop
      vertex 3.9423177242279053 3.3933565616607666 1.9461380243301392
      vertex 4.086062908172607 3.3847734928131104 1.8836859464645386
      vertex 4.074334621429443 3.327685594558716 1.8692983388900757
    endloop
  endfacet
  facet normal -0.36546138917741994 0.2973771345722481 -0.8820458110858581
    outer loop
      vertex 3.9423177242279053 3.3933565616607666 1.9461380243301392
      vertex 4.074334621429443 3.327685594558716 1.8692983388900757
      vertex 3.9323885440826416 3.3361611366271973 1.9309688806533813
    endloop
  endfacet
  facet normal -0.3654602082814067 0.29737952835197073 -0.8820454933165693
    outer loop
      vertex 3.65482759475708 3.410522699356079 2.07104229927063
      vertex 3.7985727787017822 3.401939630508423 2.0085902214050293
      vertex 3.790442705154419 3.344636917114258 1.9926393032073975
    endloop
  endfacet
  facet normal -0.3654613267674442 0.29737749174584627 -0.8820457165251291
    outer loop
      vertex 3.65482759475708 3.410522699356079 2.07104229927063
      vertex 3.790442705154419 3.344636917114258 1.9926393032073975
      vertex 3.648496627807617 3.3531124591827393 2.054309844970703
    endloop
  endfacet
  facet normal -0.36546107741978007 0.2973774941259667 -0.8820458190357994
    outer loop
      vertex 3.511082649230957 3.4191057682037354 2.1334943771362305
      vertex 3.65482759475708 3.410522699356079 2.07104229927063
      vertex 3.648496627807617 3.3531124591827393 2.054309844970703
    endloop
  endfacet
  facet normal -0.36546144397700536 0.29737682095279666 -0.8820458941156352
    outer loop
      vertex 3.511082649230957 3.4191057682037354 2.1334943771362305
      vertex 3.648496627807617 3.3531124591827393 2.054309844970703
      vertex 3.5065505504608154 3.3615880012512207 2.115980386734009
    endloop
  endfacet
  facet normal -0.36546175639332057 0.29737715604833515 -0.8820456516952586
    outer loop
      vertex 3.7985727787017822 3.401939630508423 2.0085902214050293
      vertex 3.9423177242279053 3.3933565616607666 1.9461380243301392
      vertex 3.9323885440826416 3.3361611366271973 1.9309688806533813
    endloop
  endfacet
  facet normal -0.36546043907670817 0.2973795339527437 -0.8820453958022276
    outer loop
      vertex 3.7985727787017822 3.401939630508423 2.0085902214050293
      vertex 3.9323885440826416 3.3361611366271973 1.9309688806533813
      vertex 3.790442705154419 3.344636917114258 1.9926393032073975
    endloop
  endfacet
  facet normal -0.3654607227153717 0.29738367955742934 -0.8820438805894196
    outer loop
      vertex 3.3546347618103027 3.4140002727508545 2.196594715118408
      vertex 3.367337465286255 3.4276888370513916 2.19594669342041
      vertex 3.511082649230957 3.4191057682037354 2.1334943771362305
    endloop
  endfacet
  facet normal -0.36546045898550406 0.2973834255951258 -0.8820440754856942
    outer loop
      vertex 3.223592519760132 3.4362716674804688 2.2583987712860107
      vertex 3.367337465286255 3.4276888370513916 2.19594669342041
      vertex 3.3546347618103027 3.4140002727508545 2.196594715118408
    endloop
  endfacet
  facet normal -0.3654615672329836 0.29737939840459116 -0.8820449740688595
    outer loop
      vertex 3.223592519760132 3.4362716674804688 2.2583987712860107
      vertex 3.3546347618103027 3.4140002727508545 2.196594715118408
      vertex 3.2814977169036865 3.4183671474456787 2.228370189666748
    endloop
  endfacet
  facet normal -0.36546102700674177 0.2973802432352011 -0.8820449130699355
    outer loop
      vertex 3.511082649230957 3.4191057682037354 2.1334943771362305
      vertex 3.3521363735198975 3.399702310562134 2.1928093433380127
      vertex 3.3546347618103027 3.4140002727508545 2.196594715118408
    endloop
  endfacet
  facet normal -0.36546103803402663 0.29737683839149276 -0.8820460564320729
    outer loop
      vertex 3.5065505504608154 3.3615880012512207 2.115980386734009
      vertex 3.3521363735198975 3.399702310562134 2.1928093433380127
      vertex 3.511082649230957 3.4191057682037354 2.1334943771362305
    endloop
  endfacet
  facet normal -0.3654610143867498 0.29738078595494355 -0.8820447353214167
    outer loop
      vertex 3.223125457763672 3.4074056148529053 2.2488601207733154
      vertex 3.223592519760132 3.4362716674804688 2.2583987712860107
      vertex 3.2814977169036865 3.4183671474456787 2.228370189666748
    endloop
  endfacet
  facet normal -0.36546193690855505 0.2973761229590825 -0.882045925201671
    outer loop
      vertex 4.2298078536987305 3.376190423965454 1.821233868598938
      vertex 4.3735527992248535 3.367607355117798 1.7587816715240479
      vertex 4.358226776123047 3.310734272003174 1.745957374572754
    endloop
  endfacet
  facet normal -0.3654591341734376 0.2973810476957326 -0.8820454261094435
    outer loop
      vertex 4.2298078536987305 3.376190423965454 1.821233868598938
      vertex 4.358226776123047 3.310734272003174 1.745957374572754
      vertex 4.216280460357666 3.3192100524902344 1.80762779712677
    endloop
  endfacet
  facet normal -0.36545888612941374 0.2973846679262974 -0.882044308315299
    outer loop
      vertex 3.276501178741455 3.3897714614868164 2.220799446105957
      vertex 3.223125457763672 3.4074056148529053 2.2488601207733154
      vertex 3.2789995670318604 3.404069185256958 2.2245848178863525
    endloop
  endfacet
  facet normal -0.3654606409142931 0.29737462549755245 -0.8820469670333347
    outer loop
      vertex 3.2814977169036865 3.4183671474456787 2.228370189666748
      vertex 3.2789995670318604 3.404069185256958 2.2245848178863525
      vertex 3.223125457763672 3.4074056148529053 2.2488601207733154
    endloop
  endfacet
  facet normal -0.36546300811301746 0.29737222867757485 -0.8820467942871946
    outer loop
      vertex 3.349637985229492 3.385404348373413 2.189023971557617
      vertex 3.3646044731140137 3.3700637817382812 2.1776509284973145
      vertex 3.276501178741455 3.3897714614868164 2.220799446105957
    endloop
  endfacet
  facet normal -0.3654626306940463 0.2973756844603265 -0.8820457855791498
    outer loop
      vertex 3.223125457763672 3.4074056148529053 2.2488601207733154
      vertex 3.276501178741455 3.3897714614868164 2.220799446105957
      vertex 3.222658634185791 3.3785393238067627 2.23932147026062
    endloop
  endfacet
  facet normal -0.3654624823860934 0.29737385523057097 -0.8820464637384482
    outer loop
      vertex 3.3646044731140137 3.3700637817382812 2.1776509284973145
      vertex 3.222658634185791 3.3785393238067627 2.23932147026062
      vertex 3.276501178741455 3.3897714614868164 2.220799446105957
    endloop
  endfacet
  facet normal -0.36546156417848247 0.29737371055449097 -0.8820468929593658
    outer loop
      vertex 3.5065505504608154 3.3615880012512207 2.115980386734009
      vertex 3.3646044731140137 3.3700637817382812 2.1776509284973145
      vertex 3.349637985229492 3.385404348373413 2.189023971557617
    endloop
  endfacet
  facet normal -0.365459891034425 0.2973801754027563 -0.8820454066104149
    outer loop
      vertex 3.3521363735198975 3.399702310562134 2.1928093433380127
      vertex 3.5065505504608154 3.3615880012512207 2.115980386734009
      vertex 3.349637985229492 3.385404348373413 2.189023971557617
    endloop
  endfacet
  facet normal 0.36545919012587585 -0.29738013354911247 0.8820457111300133
    outer loop
      vertex 3.3057379722595215 3.365981101989746 2.291363000869751
      vertex 3.3788747787475586 3.3616139888763428 2.2595877647399902
      vertex 3.381373167037964 3.3759119510650635 2.2633731365203857
    endloop
  endfacet
  facet normal 0.36545919012587585 -0.29738013354911247 0.8820457111300133
    outer loop
      vertex 3.3057379722595215 3.365981101989746 2.291363000869751
      vertex 3.381373167037964 3.3759119510650635 2.2633731365203857
      vertex 3.3082363605499268 3.380279064178467 2.2951483726501465
    endloop
  endfacet
  facet normal 0.36545919012587585 -0.29738013354911247 0.8820457111300133
    outer loop
      vertex 3.3082363605499268 3.380279064178467 2.2951483726501465
      vertex 3.381373167037964 3.3759119510650635 2.2633731365203857
      vertex 3.383871555328369 3.390209913253784 2.2671585083007812
    endloop
  endfacet
  facet normal 0.36545921591763436 -0.2973846876193479 0.8820441650339347
    outer loop
      vertex 3.3082363605499268 3.380279064178467 2.2951483726501465
      vertex 3.383871555328369 3.390209913253784 2.2671585083007812
      vertex 3.310734748840332 3.3945767879486084 2.298933744430542
    endloop
  endfacet
  facet normal 0.3654609180065633 -0.297379568450843 0.8820451857347165
    outer loop
      vertex 4.410285472869873 3.343369483947754 1.8260886669158936
      vertex 4.264011859893799 3.3521034717559814 1.8896393775939941
      vertex 4.250484466552734 3.2951231002807617 1.8760334253311157
    endloop
  endfacet
  facet normal 0.3654605787763797 -0.2973776189508686 0.8820459835561552
    outer loop
      vertex 4.410285472869873 3.343369483947754 1.8260886669158936
      vertex 4.250484466552734 3.2951231002807617 1.8760334253311157
      vertex 4.394959449768066 3.28649640083313 1.81326425075531
    endloop
  endfacet
  facet normal 0.36546077756050993 -0.29737802140409836 0.8820457655080325
    outer loop
      vertex 4.264011859893799 3.3521034717559814 1.8896393775939941
      vertex 4.117738246917725 3.360837697982788 1.9531900882720947
      vertex 4.1060099601745605 3.3037495613098145 1.9388024806976318
    endloop
  endfacet
  facet normal 0.36546105634077414 -0.29737958617860366 0.8820451224413228
    outer loop
      vertex 4.264011859893799 3.3521034717559814 1.8896393775939941
      vertex 4.1060099601745605 3.3037495613098145 1.9388024806976318
      vertex 4.250484466552734 3.2951231002807617 1.8760334253311157
    endloop
  endfacet
  facet normal 0.3654606801129131 -0.29738092990829595 0.8820448252885362
    outer loop
      vertex 3.9714646339416504 3.3695716857910156 2.0167407989501953
      vertex 3.825191020965576 3.378305673599243 2.080291509628296
      vertex 3.817060708999634 3.321002960205078 2.064340591430664
    endloop
  endfacet
  facet normal 0.3654599556198392 -0.2973770507322969 0.8820464333220254
    outer loop
      vertex 3.9714646339416504 3.3695716857910156 2.0167407989501953
      vertex 3.817060708999634 3.321002960205078 2.064340591430664
      vertex 3.9615354537963867 3.3123762607574463 2.0015716552734375
    endloop
  endfacet
  facet normal 0.3654607751469116 -0.29737749701124944 0.8820459433047367
    outer loop
      vertex 3.825191020965576 3.378305673599243 2.080291509628296
      vertex 3.678917169570923 3.3870396614074707 2.1438422203063965
      vertex 3.67258620262146 3.329629421234131 2.1271097660064697
    endloop
  endfacet
  facet normal 0.3654614351125208 -0.2973809482327116 0.8820445062884922
    outer loop
      vertex 3.825191020965576 3.378305673599243 2.080291509628296
      vertex 3.67258620262146 3.329629421234131 2.1271097660064697
      vertex 3.817060708999634 3.321002960205078 2.064340591430664
    endloop
  endfacet
  facet normal 0.3654613437513234 -0.29737713191556603 0.8820458308031104
    outer loop
      vertex 4.117738246917725 3.360837697982788 1.9531900882720947
      vertex 3.9714646339416504 3.3695716857910156 2.0167407989501953
      vertex 3.9615354537963867 3.3123762607574463 2.0015716552734375
    endloop
  endfacet
  facet normal 0.36546151858983417 -0.29737809040002244 0.882045435212976
    outer loop
      vertex 4.117738246917725 3.360837697982788 1.9531900882720947
      vertex 3.9615354537963867 3.3123762607574463 2.0015716552734375
      vertex 4.1060099601745605 3.3037495613098145 1.9388024806976318
    endloop
  endfacet
  facet normal 0.36546111174005325 -0.29737749379836764 0.8820458049262102
    outer loop
      vertex 3.528111457824707 3.3382561206817627 2.1898789405822754
      vertex 3.67258620262146 3.329629421234131 2.1271097660064697
      vertex 3.678917169570923 3.3870396614074707 2.1438422203063965
    endloop
  endfacet
  facet normal 0.36546120092703943 -0.2973779493000172 0.8820456144027261
    outer loop
      vertex 3.528111457824707 3.3382561206817627 2.1898789405822754
      vertex 3.678917169570923 3.3870396614074707 2.1438422203063965
      vertex 3.5326435565948486 3.3957736492156982 2.207392930984497
    endloop
  endfacet
  facet normal 0.3654623502462932 -0.29737137168747607 0.8820473557883187
    outer loop
      vertex 3.383871555328369 3.390209913253784 2.2671585083007812
      vertex 3.5326435565948486 3.3957736492156982 2.207392930984497
      vertex 3.3863699436187744 3.404507637023926 2.2709436416625977
    endloop
  endfacet
  facet normal 0.36546155097473393 -0.2973713239544205 0.8820477030460071
    outer loop
      vertex 3.310734748840332 3.3945767879486084 2.298933744430542
      vertex 3.383871555328369 3.390209913253784 2.2671585083007812
      vertex 3.3863699436187744 3.404507637023926 2.2709436416625977
    endloop
  endfacet
  facet normal 0.36546160169755637 -0.297380277551618 0.8820446633861458
    outer loop
      vertex 3.381373167037964 3.3759119510650635 2.2633731365203857
      vertex 3.5326435565948486 3.3957736492156982 2.207392930984497
      vertex 3.383871555328369 3.390209913253784 2.2671585083007812
    endloop
  endfacet
  facet normal 0.3654615987452773 -0.29737975625764795 0.8820448403628286
    outer loop
      vertex 3.3863699436187744 3.404507637023926 2.2709436416625977
      vertex 3.240096092224121 3.4132416248321533 2.3344945907592773
      vertex 3.310734748840332 3.3945767879486084 2.298933744430542
    endloop
  endfacet
  facet normal 0.36545980333245437 -0.2973847565245682 0.8820438984172086
    outer loop
      vertex 3.2396292686462402 3.38437557220459 2.324955701828003
      vertex 3.310734748840332 3.3945767879486084 2.298933744430542
      vertex 3.240096092224121 3.4132416248321533 2.3344945907592773
    endloop
  endfacet
  facet normal 0.36546158841667287 -0.29737793265395224 0.8820454594647739
    outer loop
      vertex 3.528111457824707 3.3382561206817627 2.1898789405822754
      vertex 3.5326435565948486 3.3957736492156982 2.207392930984497
      vertex 3.381373167037964 3.3759119510650635 2.2633731365203857
    endloop
  endfacet
  facet normal 0.3654631063279326 -0.29737138379534866 0.8820470384354667
    outer loop
      vertex 3.383636951446533 3.3468825817108154 2.252648115158081
      vertex 3.528111457824707 3.3382561206817627 2.1898789405822754
      vertex 3.3788747787475586 3.3616139888763428 2.2595877647399902
    endloop
  endfacet
  facet normal 0.36546077947203764 -0.2973802284541692 0.8820450206152954
    outer loop
      vertex 3.3788747787475586 3.3616139888763428 2.2595877647399902
      vertex 3.528111457824707 3.3382561206817627 2.1898789405822754
      vertex 3.381373167037964 3.3759119510650635 2.2633731365203857
    endloop
  endfacet
  facet normal 0.36546051654724415 -0.29737254245168887 0.8820477208410212
    outer loop
      vertex 3.3057379722595215 3.365981101989746 2.291363000869751
      vertex 3.383636951446533 3.3468825817108154 2.252648115158081
      vertex 3.3788747787475586 3.3616139888763428 2.2595877647399902
    endloop
  endfacet
  facet normal 0.3654605900152829 -0.2973802171411304 0.8820451029277218
    outer loop
      vertex 3.3057379722595215 3.365981101989746 2.291363000869751
      vertex 3.3082363605499268 3.380279064178467 2.2951483726501465
      vertex 3.2396292686462402 3.38437557220459 2.324955701828003
    endloop
  endfacet
  facet normal 0.3654598027420015 -0.2973847226610261 0.8820439100790856
    outer loop
      vertex 3.310734748840332 3.3945767879486084 2.298933744430542
      vertex 3.2396292686462402 3.38437557220459 2.324955701828003
      vertex 3.3082363605499268 3.380279064178467 2.2951483726501465
    endloop
  endfacet
  facet normal 0.3654609799449721 -0.2973711884724243 0.8820479853183492
    outer loop
      vertex 3.383636951446533 3.3468825817108154 2.252648115158081
      vertex 3.3057379722595215 3.365981101989746 2.291363000869751
      vertex 3.2391622066497803 3.3555092811584473 2.3154170513153076
    endloop
  endfacet
  facet normal 0.36546120728646914 -0.29737855501932076 0.8820454075518659
    outer loop
      vertex 3.2396292686462402 3.38437557220459 2.324955701828003
      vertex 3.2391622066497803 3.3555092811584473 2.3154170513153076
      vertex 3.3057379722595215 3.365981101989746 2.291363000869751
    endloop
  endfacet
  facet normal 0.8538013332532236 -0.11562130735270083 -0.5075972779882395
    outer loop
      vertex 4.391919136047363 3.3554885387420654 1.7924351692199707
      vertex 4.410285472869873 3.343369483947754 1.8260886669158936
      vertex 4.394959449768066 3.28649640083313 1.81326425075531
    endloop
  endfacet
  facet normal 0.8538003988236137 -0.11562178986806877 -0.5075987398293481
    outer loop
      vertex 4.391919136047363 3.3554885387420654 1.7924351692199707
      vertex 4.394959449768066 3.28649640083313 1.81326425075531
      vertex 4.376593112945557 3.2986154556274414 1.7796108722686768
    endloop
  endfacet
  facet normal 0.8538013940052668 -0.11562247046002325 -0.5075969108646979
    outer loop
      vertex 4.376593112945557 3.2986154556274414 1.7796108722686768
      vertex 4.358226776123047 3.310734272003174 1.745957374572754
      vertex 4.3735527992248535 3.367607355117798 1.7587816715240479
    endloop
  endfacet
  facet normal 0.8538013940052668 -0.11562247046002325 -0.5075969108646979
    outer loop
      vertex 4.376593112945557 3.2986154556274414 1.7796108722686768
      vertex 4.3735527992248535 3.367607355117798 1.7587816715240479
      vertex 4.391919136047363 3.3554885387420654 1.7924351692199707
    endloop
  endfacet
endsolid beam