solid f25_blank
  facet normal 0.43927118 -0.0599897701 0.896349295
    outer loop
      vertex 3.59939985 2.17294341 1.90923608
      vertex 3.55179509 2.14331026 1.93058235
      vertex 4.06412099 1.08856228 1.60891747
    endloop
  endfacet
  facet normal 0.43927118 -0.0599897701 0.896349295
    outer loop
      vertex 3.59939985 2.17294341 1.90923608
      vertex 4.06412099 1.08856228 1.60891747
      vertex 4.11172575 1.11819543 1.5875712
    endloop
  endfacet
  facet normal 0.793412718 0.49388574 -0.355771183
    outer loop
      vertex 3.59939985 2.17294341 1.90923608
      vertex 4.11172575 1.11819543 1.5875712
      vertex 4.07658406 1.12299461 1.51586325
    endloop
  endfacet
  facet normal 0.793412718 0.49388574 -0.355771183
    outer loop
      vertex 3.59939985 2.17294341 1.90923608
      vertex 4.07658406 1.12299461 1.51586325
      vertex 3.56425815 2.17774259 1.83752814
    endloop
  endfacet
  facet normal 0.421351503 -0.867454958 -0.264546418
    outer loop
      vertex 4.11172575 1.11819543 1.5875712
      vertex 4.06412099 1.08856228 1.60891747
      vertex 4.0289793 1.09336147 1.53720953
    endloop
  endfacet
  facet normal 0.421351503 -0.867454958 -0.264546418
    outer loop
      vertex 4.11172575 1.11819543 1.5875712
      vertex 4.0289793 1.09336147 1.53720953
      vertex 4.07658406 1.12299461 1.51586325
    endloop
  endfacet
  facet normal -0.793412718 -0.49388574 0.355771183
    outer loop
      vertex 4.06412099 1.08856228 1.60891747
      vertex 3.55179509 2.14331026 1.93058235
      vertex 3.51665339 2.14810944 1.85887441
    endloop
  endfacet
  facet normal -0.793412718 -0.49388574 0.355771183
    outer loop
      vertex 4.06412099 1.08856228 1.60891747
      vertex 3.51665339 2.14810944 1.85887441
      vertex 4.0289793 1.09336147 1.53720953
    endloop
  endfacet
  facet normal -0.421351503 0.867454958 0.264546418
    outer loop
      vertex 3.55179509 2.14331026 1.93058235
      vertex 3.59939985 2.17294341 1.90923608
      vertex 3.56425815 2.17774259 1.83752814
    endloop
  endfacet
  facet normal -0.421351503 0.867454958 0.264546418
    outer loop
      vertex 3.55179509 2.14331026 1.93058235
      vertex 3.56425815 2.17774259 1.83752814
      vertex 3.51665339 2.14810944 1.85887441
    endloop
  endfacet
  facet normal -0.43927118 0.0599897701 -0.896349295
    outer loop
      vertex 3.56425815 2.17774259 1.83752814
      vertex 4.07658406 1.12299461 1.51586325
      vertex 4.0289793 1.09336147 1.53720953
    endloop
  endfacet
  facet normal -0.43927118 0.0599897701 -0.896349295
    outer loop
      vertex 3.56425815 2.17774259 1.83752814
      vertex 4.0289793 1.09336147 1.53720953
      vertex 3.51665339 2.14810944 1.85887441
    endloop
  endfacet
endsolid f25_blank
