solid e15_blank
  facet normal 0.715868111 0.00764904046 0.698193627
    outer loop
      vertex 5.88111262 0.651775294 0.0291508698
      vertex 5.87827752 0.711665998 0.0314016078
      vertex 5.12981588 0.647369132 0.799514655
    endloop
  endfacet
  facet normal 0.715868111 0.00764904046 0.698193627
    outer loop
      vertex 5.88111262 0.651775294 0.0291508698
      vertex 5.12981588 0.647369132 0.799514655
      vertex 5.13265097 0.587478429 0.797263917
    endloop
  endfacet
  facet normal 0.047251659 -0.998178395 -0.0375123002
    outer loop
      vertex 5.88111262 0.651775294 0.0291508698
      vertex 5.13265097 0.587478429 0.797263917
      vertex 5.07538153 0.586866505 0.741408427
    endloop
  endfacet
  facet normal 0.047251659 -0.998178395 -0.0375123002
    outer loop
      vertex 5.88111262 0.651775294 0.0291508698
      vertex 5.07538153 0.586866505 0.741408427
      vertex 5.82384317 0.651163371 -0.0267046203
    endloop
  endfacet
  facet normal -0.696634861 -0.0598446666 0.714925511
    outer loop
      vertex 5.13265097 0.587478429 0.797263917
      vertex 5.12981588 0.647369132 0.799514655
      vertex 5.07254643 0.646757209 0.743659165
    endloop
  endfacet
  facet normal -0.696634861 -0.0598446666 0.714925511
    outer loop
      vertex 5.13265097 0.587478429 0.797263917
      vertex 5.07254643 0.646757209 0.743659165
      vertex 5.07538153 0.586866505 0.741408427
    endloop
  endfacet
  facet normal -0.047251659 0.998178395 0.0375123002
    outer loop
      vertex 5.12981588 0.647369132 0.799514655
      vertex 5.87827752 0.711665998 0.0314016078
      vertex 5.82100807 0.711054074 -0.0244538823
    endloop
  endfacet
  facet normal -0.047251659 0.998178395 0.0375123002
    outer loop
      vertex 5.12981588 0.647369132 0.799514655
      vertex 5.82100807 0.711054074 -0.0244538823
      vertex 5.07254643 0.646757209 0.743659165
    endloop
  endfacet
  facet normal 0.696634861 0.0598446666 -0.714925511
    outer loop
      vertex 5.87827752 0.711665998 0.0314016078
      vertex 5.88111262 0.651775294 0.0291508698
      vertex 5.82384317 0.651163371 -0.0267046203
    endloop
  endfacet
  facet normal 0.696634861 0.0598446666 -0.714925511
    outer loop
      vertex 5.87827752 0.711665998 0.0314016078
      vertex 5.82384317 0.651163371 -0.0267046203
      vertex 5.82100807 0.711054074 -0.0244538823
    endloop
  endfacet
  facet normal -0.715868111 -0.00764904046 -0.698193627
    outer loop
      vertex 5.82384317 0.651163371 -0.0267046203
      vertex 5.07538153 0.586866505 0.741408427
      vertex 5.07254643 0.646757209 0.743659165
    endloop
  endfacet
  facet normal -0.715868111 -0.00764904046 -0.698193627
    outer loop
      vertex 5.82384317 0.651163371 -0.0267046203
      vertex 5.07254643 0.646757209 0.743659165
      vertex 5.82100807 0.711054074 -0.0244538823
    endloop
  endfacet
endsolid e15_blank
