solid c20_features
  facet normal 0.49987743 -0.853774187 -0.145575386
    outer loop
      vertex -0.382139704 0.776506927 0.371284141
      vertex -0.381482606 0.777047459 0.370370361
      vertex -0.278303195 0.820431325 0.470229508
    endloop
  endfacet
  facet normal 0.49987743 -0.853774187 -0.145575386
    outer loop
      vertex -0.382139704 0.776506927 0.371284141
      vertex -0.278303195 0.820431325 0.470229508
      vertex -0.278960293 0.819890793 0.471143288
    endloop
  endfacet
  facet normal -0.687862742 -0.289225774 -0.665727647
    outer loop
      vertex -0.383380027 0.779456774 0.371284141
      vertex -0.381482606 0.777047459 0.370370361
      vertex -0.382139704 0.776506927 0.371284141
    endloop
  endfacet
  facet normal 0.687862742 0.289225774 0.665727647
    outer loop
      vertex -0.280200616 0.82284064 0.471143288
      vertex -0.278960293 0.819890793 0.471143288
      vertex -0.278303195 0.820431325 0.470229508
    endloop
  endfacet
  facet normal 0.663223987 -0.623113908 -0.414563626
    outer loop
      vertex -0.381482606 0.777047459 0.370370361
      vertex -0.381114374 0.777954788 0.369595695
      vertex -0.277934962 0.821338654 0.469454842
    endloop
  endfacet
  facet normal 0.663223987 -0.623113908 -0.414563626
    outer loop
      vertex -0.381482606 0.777047459 0.370370361
      vertex -0.277934962 0.821338654 0.469454842
      vertex -0.278303195 0.820431325 0.470229508
    endloop
  endfacet
  facet normal -0.687862742 -0.289225774 -0.665727647
    outer loop
      vertex -0.383380027 0.779456774 0.371284141
      vertex -0.381114374 0.777954788 0.369595695
      vertex -0.381482606 0.777047459 0.370370361
    endloop
  endfacet
  facet normal 0.687862742 0.289225774 0.665727647
    outer loop
      vertex -0.280200616 0.82284064 0.471143288
      vertex -0.278303195 0.820431325 0.470229508
      vertex -0.277934962 0.821338654 0.469454842
    endloop
  endfacet
  facet normal 0.725600704 -0.297590186 -0.620438312
    outer loop
      vertex -0.381114374 0.777954788 0.369595695
      vertex -0.381091066 0.77909078 0.36907808
      vertex -0.277911655 0.822474646 0.468937227
    endloop
  endfacet
  facet normal 0.725600704 -0.297590186 -0.620438312
    outer loop
      vertex -0.381114374 0.777954788 0.369595695
      vertex -0.277911655 0.822474646 0.468937227
      vertex -0.277934962 0.821338654 0.469454842
    endloop
  endfacet
  facet normal -0.687862742 -0.289225774 -0.665727647
    outer loop
      vertex -0.383380027 0.779456774 0.371284141
      vertex -0.381091066 0.77909078 0.36907808
      vertex -0.381114374 0.777954788 0.369595695
    endloop
  endfacet
  facet normal 0.687862742 0.289225774 0.665727647
    outer loop
      vertex -0.280200616 0.82284064 0.471143288
      vertex -0.277934962 0.821338654 0.469454842
      vertex -0.277911655 0.822474646 0.468937227
    endloop
  endfacet
  facet normal 0.677511292 0.0732389445 -0.731856889
    outer loop
      vertex -0.381091066 0.77909078 0.36907808
      vertex -0.381416232 0.780282492 0.368896318
      vertex -0.278236821 0.823666358 0.468755465
    endloop
  endfacet
  facet normal 0.677511292 0.0732389445 -0.731856889
    outer loop
      vertex -0.381091066 0.77909078 0.36907808
      vertex -0.278236821 0.823666358 0.468755465
      vertex -0.277911655 0.822474646 0.468937227
    endloop
  endfacet
  facet normal -0.687862742 -0.289225774 -0.665727647
    outer loop
      vertex -0.383380027 0.779456774 0.371284141
      vertex -0.381416232 0.780282492 0.368896318
      vertex -0.381091066 0.77909078 0.36907808
    endloop
  endfacet
  facet normal 0.687862742 0.289225774 0.665727647
    outer loop
      vertex -0.280200616 0.82284064 0.471143288
      vertex -0.277911655 0.822474646 0.468937227
      vertex -0.278236821 0.823666358 0.468755465
    endloop
  endfacet
  facet normal 0.526276927 0.43291811 -0.731856889
    outer loop
      vertex -0.381416232 0.780282492 0.368896318
      vertex -0.382040368 0.781348495 0.36907808
      vertex -0.278860957 0.824732361 0.468937227
    endloop
  endfacet
  facet normal 0.526276927 0.43291811 -0.731856889
    outer loop
      vertex -0.381416232 0.780282492 0.368896318
      vertex -0.278860957 0.824732361 0.468937227
      vertex -0.278236821 0.823666358 0.468755465
    endloop
  endfacet
  facet normal -0.687862742 -0.289225774 -0.665727647
    outer loop
      vertex -0.383380027 0.779456774 0.371284141
      vertex -0.382040368 0.781348495 0.36907808
      vertex -0.381416232 0.780282492 0.368896318
    endloop
  endfacet
  facet normal 0.687862742 0.289225774 0.665727647
    outer loop
      vertex -0.280200616 0.82284064 0.471143288
      vertex -0.278236821 0.823666358 0.468755465
      vertex -0.278860957 0.824732361 0.468937227
    endloop
  endfacet
  facet normal 0.294921671 0.726689417 -0.620438312
    outer loop
      vertex -0.382040368 0.781348495 0.36907808
      vertex -0.382868455 0.782126502 0.369595695
      vertex -0.279689044 0.825510368 0.469454842
    endloop
  endfacet
  facet normal 0.294921671 0.726689417 -0.620438312
    outer loop
      vertex -0.382040368 0.781348495 0.36907808
      vertex -0.279689044 0.825510368 0.469454842
      vertex -0.278860957 0.824732361 0.468937227
    endloop
  endfacet
  facet normal -0.687862742 -0.289225774 -0.665727647
    outer loop
      vertex -0.383380027 0.779456774 0.371284141
      vertex -0.382868455 0.782126502 0.369595695
      vertex -0.382040368 0.781348495 0.36907808
    endloop
  endfacet
  facet normal 0.687862742 0.289225774 0.665727647
    outer loop
      vertex -0.280200616 0.82284064 0.471143288
      vertex -0.278860957 0.824732361 0.468937227
      vertex -0.279689044 0.825510368 0.469454842
    endloop
  endfacet
  facet normal 0.0186672634 0.909828848 -0.414563626
    outer loop
      vertex -0.382868455 0.782126502 0.369595695
      vertex -0.383774424 0.782498066 0.370370361
      vertex -0.280595013 0.825881932 0.470229508
    endloop
  endfacet
  facet normal 0.0186672634 0.909828848 -0.414563626
    outer loop
      vertex -0.382868455 0.782126502 0.369595695
      vertex -0.280595013 0.825881932 0.470229508
      vertex -0.279689044 0.825510368 0.469454842
    endloop
  endfacet
  facet normal -0.687862742 -0.289225774 -0.665727647
    outer loop
      vertex -0.383380027 0.779456774 0.371284141
      vertex -0.383774424 0.782498066 0.370370361
      vertex -0.382868455 0.782126502 0.369595695
    endloop
  endfacet
  facet normal 0.687862742 0.289225774 0.665727647
    outer loop
      vertex -0.280200616 0.82284064 0.471143288
      vertex -0.279689044 0.825510368 0.469454842
      vertex -0.280595013 0.825881932 0.470229508
    endloop
  endfacet
  facet normal -0.260429065 0.954455085 -0.145575386
    outer loop
      vertex -0.383774424 0.782498066 0.370370361
      vertex -0.38462035 0.782406622 0.371284141
      vertex -0.281440939 0.825790488 0.471143288
    endloop
  endfacet
  facet normal -0.260429065 0.954455085 -0.145575386
    outer loop
      vertex -0.383774424 0.782498066 0.370370361
      vertex -0.281440939 0.825790488 0.471143288
      vertex -0.280595013 0.825881932 0.470229508
    endloop
  endfacet
  facet normal -0.687862742 -0.289225774 -0.665727647
    outer loop
      vertex -0.383380027 0.779456774 0.371284141
      vertex -0.38462035 0.782406622 0.371284141
      vertex -0.383774424 0.782498066 0.370370361
    endloop
  endfacet
  facet normal 0.687862742 0.289225774 0.665727647
    outer loop
      vertex -0.280200616 0.82284064 0.471143288
      vertex -0.280595013 0.825881932 0.470229508
      vertex -0.281440939 0.825790488 0.471143288
    endloop
  endfacet
  facet normal -0.49987743 0.853774187 0.145575386
    outer loop
      vertex -0.38462035 0.782406622 0.371284141
      vertex -0.385277448 0.78186609 0.372197922
      vertex -0.282098037 0.825249956 0.472057069
    endloop
  endfacet
  facet normal -0.49987743 0.853774187 0.145575386
    outer loop
      vertex -0.38462035 0.782406622 0.371284141
      vertex -0.282098037 0.825249956 0.472057069
      vertex -0.281440939 0.825790488 0.471143288
    endloop
  endfacet
  facet normal -0.687862742 -0.289225774 -0.665727647
    outer loop
      vertex -0.383380027 0.779456774 0.371284141
      vertex -0.385277448 0.78186609 0.372197922
      vertex -0.38462035 0.782406622 0.371284141
    endloop
  endfacet
  facet normal 0.687862742 0.289225774 0.665727647
    outer loop
      vertex -0.280200616 0.82284064 0.471143288
      vertex -0.281440939 0.825790488 0.471143288
      vertex -0.282098037 0.825249956 0.472057069
    endloop
  endfacet
  facet normal -0.663223987 0.623113908 0.414563626
    outer loop
      vertex -0.385277448 0.78186609 0.372197922
      vertex -0.38564568 0.780958761 0.372972587
      vertex -0.282466269 0.824342627 0.472831735
    endloop
  endfacet
  facet normal -0.663223987 0.623113908 0.414563626
    outer loop
      vertex -0.385277448 0.78186609 0.372197922
      vertex -0.282466269 0.824342627 0.472831735
      vertex -0.282098037 0.825249956 0.472057069
    endloop
  endfacet
  facet normal -0.687862742 -0.289225774 -0.665727647
    outer loop
      vertex -0.383380027 0.779456774 0.371284141
      vertex -0.38564568 0.780958761 0.372972587
      vertex -0.385277448 0.78186609 0.372197922
    endloop
  endfacet
  facet normal 0.687862742 0.289225774 0.665727647
    outer loop
      vertex -0.280200616 0.82284064 0.471143288
      vertex -0.282098037 0.825249956 0.472057069
      vertex -0.282466269 0.824342627 0.472831735
    endloop
  endfacet
  facet normal -0.725600704 0.297590186 0.620438312
    outer loop
      vertex -0.38564568 0.780958761 0.372972587
      vertex -0.385668988 0.779822769 0.373490203
      vertex -0.282489577 0.823206635 0.47334935
    endloop
  endfacet
  facet normal -0.725600704 0.297590186 0.620438312
    outer loop
      vertex -0.38564568 0.780958761 0.372972587
      vertex -0.282489577 0.823206635 0.47334935
      vertex -0.282466269 0.824342627 0.472831735
    endloop
  endfacet
  facet normal -0.687862742 -0.289225774 -0.665727647
    outer loop
      vertex -0.383380027 0.779456774 0.371284141
      vertex -0.385668988 0.779822769 0.373490203
      vertex -0.38564568 0.780958761 0.372972587
    endloop
  endfacet
  facet normal 0.687862742 0.289225774 0.665727647
    outer loop
      vertex -0.280200616 0.82284064 0.471143288
      vertex -0.282466269 0.824342627 0.472831735
      vertex -0.282489577 0.823206635 0.47334935
    endloop
  endfacet
  facet normal -0.677511292 -0.0732389445 0.731856889
    outer loop
      vertex -0.385668988 0.779822769 0.373490203
      vertex -0.385343822 0.778631057 0.373671965
      vertex -0.282164411 0.822014923 0.473531112
    endloop
  endfacet
  facet normal -0.677511292 -0.0732389445 0.731856889
    outer loop
      vertex -0.385668988 0.779822769 0.373490203
      vertex -0.282164411 0.822014923 0.473531112
      vertex -0.282489577 0.823206635 0.47334935
    endloop
  endfacet
  facet normal -0.687862742 -0.289225774 -0.665727647
    outer loop
      vertex -0.383380027 0.779456774 0.371284141
      vertex -0.385343822 0.778631057 0.373671965
      vertex -0.385668988 0.779822769 0.373490203
    endloop
  endfacet
  facet normal 0.687862742 0.289225774 0.665727647
    outer loop
      vertex -0.280200616 0.82284064 0.471143288
      vertex -0.282489577 0.823206635 0.47334935
      vertex -0.282164411 0.822014923 0.473531112
    endloop
  endfacet
  facet normal -0.526276927 -0.43291811 0.731856889
    outer loop
      vertex -0.385343822 0.778631057 0.373671965
      vertex -0.384719686 0.777565053 0.373490203
      vertex -0.281540275 0.82094892 0.47334935
    endloop
  endfacet
  facet normal -0.526276927 -0.43291811 0.731856889
    outer loop
      vertex -0.385343822 0.778631057 0.373671965
      vertex -0.281540275 0.82094892 0.47334935
      vertex -0.282164411 0.822014923 0.473531112
    endloop
  endfacet
  facet normal -0.687862742 -0.289225774 -0.665727647
    outer loop
      vertex -0.383380027 0.779456774 0.371284141
      vertex -0.384719686 0.777565053 0.373490203
      vertex -0.385343822 0.778631057 0.373671965
    endloop
  endfacet
  facet normal 0.687862742 0.289225774 0.665727647
    outer loop
      vertex -0.280200616 0.82284064 0.471143288
      vertex -0.282164411 0.822014923 0.473531112
      vertex -0.281540275 0.82094892 0.47334935
    endloop
  endfacet
  facet normal -0.294921671 -0.726689417 0.620438312
    outer loop
      vertex -0.384719686 0.777565053 0.373490203
      vertex -0.383891599 0.776787047 0.372972587
      vertex -0.280712188 0.820170913 0.472831735
    endloop
  endfacet
  facet normal -0.294921671 -0.726689417 0.620438312
    outer loop
      vertex -0.384719686 0.777565053 0.373490203
      vertex -0.280712188 0.820170913 0.472831735
      vertex -0.281540275 0.82094892 0.47334935
    endloop
  endfacet
  facet normal -0.687862742 -0.289225774 -0.665727647
    outer loop
      vertex -0.383380027 0.779456774 0.371284141
      vertex -0.383891599 0.776787047 0.372972587
      vertex -0.384719686 0.777565053 0.373490203
    endloop
  endfacet
  facet normal 0.687862742 0.289225774 0.665727647
    outer loop
      vertex -0.280200616 0.82284064 0.471143288
      vertex -0.281540275 0.82094892 0.47334935
      vertex -0.280712188 0.820170913 0.472831735
    endloop
  endfacet
  facet normal -0.0186672634 -0.909828848 0.414563626
    outer loop
      vertex -0.383891599 0.776787047 0.372972587
      vertex -0.38298563 0.776415483 0.372197922
      vertex -0.279806219 0.819799349 0.472057069
    endloop
  endfacet
  facet normal -0.0186672634 -0.909828848 0.414563626
    outer loop
      vertex -0.383891599 0.776787047 0.372972587
      vertex -0.279806219 0.819799349 0.472057069
      vertex -0.280712188 0.820170913 0.472831735
    endloop
  endfacet
  facet normal -0.687862742 -0.289225774 -0.665727647
    outer loop
      vertex -0.383380027 0.779456774 0.371284141
      vertex -0.38298563 0.776415483 0.372197922
      vertex -0.383891599 0.776787047 0.372972587
    endloop
  endfacet
  facet normal 0.687862742 0.289225774 0.665727647
    outer loop
      vertex -0.280200616 0.82284064 0.471143288
      vertex -0.280712188 0.820170913 0.472831735
      vertex -0.279806219 0.819799349 0.472057069
    endloop
  endfacet
  facet normal 0.260429065 -0.954455085 0.145575386
    outer loop
      vertex -0.38298563 0.776415483 0.372197922
      vertex -0.382139704 0.776506927 0.371284141
      vertex -0.278960293 0.819890793 0.471143288
    endloop
  endfacet
  facet normal 0.260429065 -0.954455085 0.145575386
    outer loop
      vertex -0.38298563 0.776415483 0.372197922
      vertex -0.278960293 0.819890793 0.471143288
      vertex -0.279806219 0.819799349 0.472057069
    endloop
  endfacet
  facet normal -0.687862742 -0.289225774 -0.665727647
    outer loop
      vertex -0.383380027 0.779456774 0.371284141
      vertex -0.382139704 0.776506927 0.371284141
      vertex -0.38298563 0.776415483 0.372197922
    endloop
  endfacet
  facet normal 0.687862742 0.289225774 0.665727647
    outer loop
      vertex -0.280200616 0.82284064 0.471143288
      vertex -0.279806219 0.819799349 0.472057069
      vertex -0.278960293 0.819890793 0.471143288
    endloop
  endfacet
  facet normal 0.49987743 -0.853774187 -0.145575386
    outer loop
      vertex -0.402860545 0.775873165 0.392969277
      vertex -0.402203447 0.776413697 0.392055497
      vertex -0.299024036 0.819797563 0.491914644
    endloop
  endfacet
  facet normal 0.49987743 -0.853774187 -0.145575386
    outer loop
      vertex -0.402860545 0.775873165 0.392969277
      vertex -0.299024036 0.819797563 0.491914644
      vertex -0.299681133 0.819257031 0.492828424
    endloop
  endfacet
  facet normal -0.687862742 -0.289225774 -0.665727647
    outer loop
      vertex -0.404100868 0.778823013 0.392969277
      vertex -0.402203447 0.776413697 0.392055497
      vertex -0.402860545 0.775873165 0.392969277
    endloop
  endfacet
  facet normal 0.687862742 0.289225774 0.665727647
    outer loop
      vertex -0.300921456 0.822206879 0.492828424
      vertex -0.299681133 0.819257031 0.492828424
      vertex -0.299024036 0.819797563 0.491914644
    endloop
  endfacet
  facet normal 0.663223987 -0.623113908 -0.414563626
    outer loop
      vertex -0.402203447 0.776413697 0.392055497
      vertex -0.401835214 0.777321026 0.391280831
      vertex -0.298655803 0.820704892 0.491139978
    endloop
  endfacet
  facet normal 0.663223987 -0.623113908 -0.414563626
    outer loop
      vertex -0.402203447 0.776413697 0.392055497
      vertex -0.298655803 0.820704892 0.491139978
      vertex -0.299024036 0.819797563 0.491914644
    endloop
  endfacet
  facet normal -0.687862742 -0.289225774 -0.665727647
    outer loop
      vertex -0.404100868 0.778823013 0.392969277
      vertex -0.401835214 0.777321026 0.391280831
      vertex -0.402203447 0.776413697 0.392055497
    endloop
  endfacet
  facet normal 0.687862742 0.289225774 0.665727647
    outer loop
      vertex -0.300921456 0.822206879 0.492828424
      vertex -0.299024036 0.819797563 0.491914644
      vertex -0.298655803 0.820704892 0.491139978
    endloop
  endfacet
  facet normal 0.725600704 -0.297590186 -0.620438312
    outer loop
      vertex -0.401835214 0.777321026 0.391280831
      vertex -0.401811907 0.778457018 0.390763216
      vertex -0.298632495 0.821840884 0.490622363
    endloop
  endfacet
  facet normal 0.725600704 -0.297590186 -0.620438312
    outer loop
      vertex -0.401835214 0.777321026 0.391280831
      vertex -0.298632495 0.821840884 0.490622363
      vertex -0.298655803 0.820704892 0.491139978
    endloop
  endfacet
  facet normal -0.687862742 -0.289225774 -0.665727647
    outer loop
      vertex -0.404100868 0.778823013 0.392969277
      vertex -0.401811907 0.778457018 0.390763216
      vertex -0.401835214 0.777321026 0.391280831
    endloop
  endfacet
  facet normal 0.687862742 0.289225774 0.665727647
    outer loop
      vertex -0.300921456 0.822206879 0.492828424
      vertex -0.298655803 0.820704892 0.491139978
      vertex -0.298632495 0.821840884 0.490622363
    endloop
  endfacet
  facet normal 0.677511292 0.0732389445 -0.731856889
    outer loop
      vertex -0.401811907 0.778457018 0.390763216
      vertex -0.402137073 0.77964873 0.390581454
      vertex -0.298957661 0.823032596 0.490440601
    endloop
  endfacet
  facet normal 0.677511292 0.0732389445 -0.731856889
    outer loop
      vertex -0.401811907 0.778457018 0.390763216
      vertex -0.298957661 0.823032596 0.490440601
      vertex -0.298632495 0.821840884 0.490622363
    endloop
  endfacet
  facet normal -0.687862742 -0.289225774 -0.665727647
    outer loop
      vertex -0.404100868 0.778823013 0.392969277
      vertex -0.402137073 0.77964873 0.390581454
      vertex -0.401811907 0.778457018 0.390763216
    endloop
  endfacet
  facet normal 0.687862742 0.289225774 0.665727647
    outer loop
      vertex -0.300921456 0.822206879 0.492828424
      vertex -0.298632495 0.821840884 0.490622363
      vertex -0.298957661 0.823032596 0.490440601
    endloop
  endfacet
  facet normal 0.526276927 0.43291811 -0.731856889
    outer loop
      vertex -0.402137073 0.77964873 0.390581454
      vertex -0.402761209 0.780714733 0.390763216
      vertex -0.299581797 0.8240986 0.490622363
    endloop
  endfacet
  facet normal 0.526276927 0.43291811 -0.731856889
    outer loop
      vertex -0.402137073 0.77964873 0.390581454
      vertex -0.299581797 0.8240986 0.490622363
      vertex -0.298957661 0.823032596 0.490440601
    endloop
  endfacet
  facet normal -0.687862742 -0.289225774 -0.665727647
    outer loop
      vertex -0.404100868 0.778823013 0.392969277
      vertex -0.402761209 0.780714733 0.390763216
      vertex -0.402137073 0.77964873 0.390581454
    endloop
  endfacet
  facet normal 0.687862742 0.289225774 0.665727647
    outer loop
      vertex -0.300921456 0.822206879 0.492828424
      vertex -0.298957661 0.823032596 0.490440601
      vertex -0.299581797 0.8240986 0.490622363
    endloop
  endfacet
  facet normal 0.294921671 0.726689417 -0.620438312
    outer loop
      vertex -0.402761209 0.780714733 0.390763216
      vertex -0.403589296 0.78149274 0.391280831
      vertex -0.300409884 0.824876606 0.491139978
    endloop
  endfacet
  facet normal 0.294921671 0.726689417 -0.620438312
    outer loop
      vertex -0.402761209 0.780714733 0.390763216
      vertex -0.300409884 0.824876606 0.491139978
      vertex -0.299581797 0.8240986 0.490622363
    endloop
  endfacet
  facet normal -0.687862742 -0.289225774 -0.665727647
    outer loop
      vertex -0.404100868 0.778823013 0.392969277
      vertex -0.403589296 0.78149274 0.391280831
      vertex -0.402761209 0.780714733 0.390763216
    endloop
  endfacet
  facet normal 0.687862742 0.289225774 0.665727647
    outer loop
      vertex -0.300921456 0.822206879 0.492828424
      vertex -0.299581797 0.8240986 0.490622363
      vertex -0.300409884 0.824876606 0.491139978
    endloop
  endfacet
  facet normal 0.0186672634 0.909828848 -0.414563626
    outer loop
      vertex -0.403589296 0.78149274 0.391280831
      vertex -0.404495265 0.781864304 0.392055497
      vertex -0.301315853 0.82524817 0.491914644
    endloop
  endfacet
  facet normal 0.0186672634 0.909828848 -0.414563626
    outer loop
      vertex -0.403589296 0.78149274 0.391280831
      vertex -0.301315853 0.82524817 0.491914644
      vertex -0.300409884 0.824876606 0.491139978
    endloop
  endfacet
  facet normal -0.687862742 -0.289225774 -0.665727647
    outer loop
      vertex -0.404100868 0.778823013 0.392969277
      vertex -0.404495265 0.781864304 0.392055497
      vertex -0.403589296 0.78149274 0.391280831
    endloop
  endfacet
  facet normal 0.687862742 0.289225774 0.665727647
    outer loop
      vertex -0.300921456 0.822206879 0.492828424
      vertex -0.300409884 0.824876606 0.491139978
      vertex -0.301315853 0.82524817 0.491914644
    endloop
  endfacet
  facet normal -0.260429065 0.954455085 -0.145575386
    outer loop
      vertex -0.404495265 0.781864304 0.392055497
      vertex -0.40534119 0.78177286 0.392969277
      vertex -0.302161779 0.825156726 0.492828424
    endloop
  endfacet
  facet normal -0.260429065 0.954455085 -0.145575386
    outer loop
      vertex -0.404495265 0.781864304 0.392055497
      vertex -0.302161779 0.825156726 0.492828424
      vertex -0.301315853 0.82524817 0.491914644
    endloop
  endfacet
  facet normal -0.687862742 -0.289225774 -0.665727647
    outer loop
      vertex -0.404100868 0.778823013 0.392969277
      vertex -0.40534119 0.78177286 0.392969277
      vertex -0.404495265 0.781864304 0.392055497
    endloop
  endfacet
  facet normal 0.687862742 0.289225774 0.665727647
    outer loop
      vertex -0.300921456 0.822206879 0.492828424
      vertex -0.301315853 0.82524817 0.491914644
      vertex -0.302161779 0.825156726 0.492828424
    endloop
  endfacet
  facet normal -0.49987743 0.853774187 0.145575386
    outer loop
      vertex -0.40534119 0.78177286 0.392969277
      vertex -0.405998288 0.781232328 0.393883058
      vertex -0.302818877 0.824616194 0.493742205
    endloop
  endfacet
  facet normal -0.49987743 0.853774187 0.145575386
    outer loop
      vertex -0.40534119 0.78177286 0.392969277
      vertex -0.302818877 0.824616194 0.493742205
      vertex -0.302161779 0.825156726 0.492828424
    endloop
  endfacet
  facet normal -0.687862742 -0.289225774 -0.665727647
    outer loop
      vertex -0.404100868 0.778823013 0.392969277
      vertex -0.405998288 0.781232328 0.393883058
      vertex -0.40534119 0.78177286 0.392969277
    endloop
  endfacet
  facet normal 0.687862742 0.289225774 0.665727647
    outer loop
      vertex -0.300921456 0.822206879 0.492828424
      vertex -0.302161779 0.825156726 0.492828424
      vertex -0.302818877 0.824616194 0.493742205
    endloop
  endfacet
  facet normal -0.663223987 0.623113908 0.414563626
    outer loop
      vertex -0.405998288 0.781232328 0.393883058
      vertex -0.406366521 0.780324999 0.394657723
      vertex -0.30318711 0.823708865 0.49451687
    endloop
  endfacet
  facet normal -0.663223987 0.623113908 0.414563626
    outer loop
      vertex -0.405998288 0.781232328 0.393883058
      vertex -0.30318711 0.823708865 0.49451687
      vertex -0.302818877 0.824616194 0.493742205
    endloop
  endfacet
  facet normal -0.687862742 -0.289225774 -0.665727647
    outer loop
      vertex -0.404100868 0.778823013 0.392969277
      vertex -0.406366521 0.780324999 0.394657723
      vertex -0.405998288 0.781232328 0.393883058
    endloop
  endfacet
  facet normal 0.687862742 0.289225774 0.665727647
    outer loop
      vertex -0.300921456 0.822206879 0.492828424
      vertex -0.302818877 0.824616194 0.493742205
      vertex -0.30318711 0.823708865 0.49451687
    endloop
  endfacet
  facet normal -0.725600704 0.297590186 0.620438312
    outer loop
      vertex -0.406366521 0.780324999 0.394657723
      vertex -0.406389829 0.779189007 0.395175338
      vertex -0.303210417 0.822572873 0.495034485
    endloop
  endfacet
  facet normal -0.725600704 0.297590186 0.620438312
    outer loop
      vertex -0.406366521 0.780324999 0.394657723
      vertex -0.303210417 0.822572873 0.495034485
      vertex -0.30318711 0.823708865 0.49451687
    endloop
  endfacet
  facet normal -0.687862742 -0.289225774 -0.665727647
    outer loop
      vertex -0.404100868 0.778823013 0.392969277
      vertex -0.406389829 0.779189007 0.395175338
      vertex -0.406366521 0.780324999 0.394657723
    endloop
  endfacet
  facet normal 0.687862742 0.289225774 0.665727647
    outer loop
      vertex -0.300921456 0.822206879 0.492828424
      vertex -0.30318711 0.823708865 0.49451687
      vertex -0.303210417 0.822572873 0.495034485
    endloop
  endfacet
  facet normal -0.677511292 -0.0732389445 0.731856889
    outer loop
      vertex -0.406389829 0.779189007 0.395175338
      vertex -0.406064663 0.777997295 0.395357101
      vertex -0.302885251 0.821381161 0.495216248
    endloop
  endfacet
  facet normal -0.677511292 -0.0732389445 0.731856889
    outer loop
      vertex -0.406389829 0.779189007 0.395175338
      vertex -0.302885251 0.821381161 0.495216248
      vertex -0.303210417 0.822572873 0.495034485
    endloop
  endfacet
  facet normal -0.687862742 -0.289225774 -0.665727647
    outer loop
      vertex -0.404100868 0.778823013 0.392969277
      vertex -0.406064663 0.777997295 0.395357101
      vertex -0.406389829 0.779189007 0.395175338
    endloop
  endfacet
  facet normal 0.687862742 0.289225774 0.665727647
    outer loop
      vertex -0.300921456 0.822206879 0.492828424
      vertex -0.303210417 0.822572873 0.495034485
      vertex -0.302885251 0.821381161 0.495216248
    endloop
  endfacet
  facet normal -0.526276927 -0.43291811 0.731856889
    outer loop
      vertex -0.406064663 0.777997295 0.395357101
      vertex -0.405440527 0.776931292 0.395175338
      vertex -0.302261115 0.820315158 0.495034485
    endloop
  endfacet
  facet normal -0.526276927 -0.43291811 0.731856889
    outer loop
      vertex -0.406064663 0.777997295 0.395357101
      vertex -0.302261115 0.820315158 0.495034485
      vertex -0.302885251 0.821381161 0.495216248
    endloop
  endfacet
  facet normal -0.687862742 -0.289225774 -0.665727647
    outer loop
      vertex -0.404100868 0.778823013 0.392969277
      vertex -0.405440527 0.776931292 0.395175338
      vertex -0.406064663 0.777997295 0.395357101
    endloop
  endfacet
  facet normal 0.687862742 0.289225774 0.665727647
    outer loop
      vertex -0.300921456 0.822206879 0.492828424
      vertex -0.302885251 0.821381161 0.495216248
      vertex -0.302261115 0.820315158 0.495034485
    endloop
  endfacet
  facet normal -0.294921671 -0.726689417 0.620438312
    outer loop
      vertex -0.405440527 0.776931292 0.395175338
      vertex -0.40461244 0.776153285 0.394657723
      vertex -0.301433028 0.819537151 0.49451687
    endloop
  endfacet
  facet normal -0.294921671 -0.726689417 0.620438312
    outer loop
      vertex -0.405440527 0.776931292 0.395175338
      vertex -0.301433028 0.819537151 0.49451687
      vertex -0.302261115 0.820315158 0.495034485
    endloop
  endfacet
  facet normal -0.687862742 -0.289225774 -0.665727647
    outer loop
      vertex -0.404100868 0.778823013 0.392969277
      vertex -0.40461244 0.776153285 0.394657723
      vertex -0.405440527 0.776931292 0.395175338
    endloop
  endfacet
  facet normal 0.687862742 0.289225774 0.665727647
    outer loop
      vertex -0.300921456 0.822206879 0.492828424
      vertex -0.302261115 0.820315158 0.495034485
      vertex -0.301433028 0.819537151 0.49451687
    endloop
  endfacet
  facet normal -0.0186672634 -0.909828848 0.414563626
    outer loop
      vertex -0.40461244 0.776153285 0.394657723
      vertex -0.40370647 0.775781721 0.393883058
      vertex -0.300527059 0.819165587 0.493742205
    endloop
  endfacet
  facet normal -0.0186672634 -0.909828848 0.414563626
    outer loop
      vertex -0.40461244 0.776153285 0.394657723
      vertex -0.300527059 0.819165587 0.493742205
      vertex -0.301433028 0.819537151 0.49451687
    endloop
  endfacet
  facet normal -0.687862742 -0.289225774 -0.665727647
    outer loop
      vertex -0.404100868 0.778823013 0.392969277
      vertex -0.40370647 0.775781721 0.393883058
      vertex -0.40461244 0.776153285 0.394657723
    endloop
  endfacet
  facet normal 0.687862742 0.289225774 0.665727647
    outer loop
      vertex -0.300921456 0.822206879 0.492828424
      vertex -0.301433028 0.819537151 0.49451687
      vertex -0.300527059 0.819165587 0.493742205
    endloop
  endfacet
  facet normal 0.260429065 -0.954455085 0.145575386
    outer loop
      vertex -0.40370647 0.775781721 0.393883058
      vertex -0.402860545 0.775873165 0.392969277
      vertex -0.299681133 0.819257031 0.492828424
    endloop
  endfacet
  facet normal 0.260429065 -0.954455085 0.145575386
    outer loop
      vertex -0.40370647 0.775781721 0.393883058
      vertex -0.299681133 0.819257031 0.492828424
      vertex -0.300527059 0.819165587 0.493742205
    endloop
  endfacet
  facet normal -0.687862742 -0.289225774 -0.665727647
    outer loop
      vertex -0.404100868 0.778823013 0.392969277
      vertex -0.402860545 0.775873165 0.392969277
      vertex -0.40370647 0.775781721 0.393883058
    endloop
  endfacet
  facet normal 0.687862742 0.289225774 0.665727647
    outer loop
      vertex -0.300921456 0.822206879 0.492828424
      vertex -0.300527059 0.819165587 0.493742205
      vertex -0.299681133 0.819257031 0.492828424
    endloop
  endfacet
  facet normal -0.192539281 0.971480152 -0.138401371
    outer loop
      vertex -0.217616435 0.605740921 0.48888404
      vertex -0.218464408 0.605449094 0.488015291
      vertex -0.282210963 0.601851655 0.551445845
    endloop
  endfacet
  facet normal -0.192539281 0.971480152 -0.138401371
    outer loop
      vertex -0.217616435 0.605740921 0.48888404
      vertex -0.282210963 0.601851655 0.551445845
      vertex -0.28136299 0.602143482 0.552314594
    endloop
  endfacet
  facet normal 0.708295052 0.0399715395 -0.704783935
    outer loop
      vertex -0.217436135 0.602546004 0.48888404
      vertex -0.218464408 0.605449094 0.488015291
      vertex -0.217616435 0.605740921 0.48888404
    endloop
  endfacet
  facet normal -0.708295052 -0.0399715395 0.704783935
    outer loop
      vertex -0.281182689 0.598948566 0.552314594
      vertex -0.28136299 0.602143482 0.552314594
      vertex -0.282210963 0.601851655 0.551445845
    endloop
  endfacet
  facet normal -0.437783123 0.808086949 -0.394133758
    outer loop
      vertex -0.218464408 0.605449094 0.488015291
      vertex -0.219155837 0.604715297 0.487278801
      vertex -0.282902391 0.601117859 0.550709355
    endloop
  endfacet
  facet normal -0.437783123 0.808086949 -0.394133758
    outer loop
      vertex -0.218464408 0.605449094 0.488015291
      vertex -0.282902391 0.601117859 0.550709355
      vertex -0.282210963 0.601851655 0.551445845
    endloop
  endfacet
  facet normal 0.708295052 0.0399715395 -0.704783935
    outer loop
      vertex -0.217436135 0.602546004 0.48888404
      vertex -0.219155837 0.604715297 0.487278801
      vertex -0.218464408 0.605449094 0.488015291
    endloop
  endfacet
  facet normal -0.708295052 -0.0399715395 0.704783935
    outer loop
      vertex -0.281182689 0.598948566 0.552314594
      vertex -0.282210963 0.601851655 0.551445845
      vertex -0.282902391 0.601117859 0.550709355
    endloop
  endfacet
  facet normal -0.616378454 0.521669834 -0.589862853
    outer loop
      vertex -0.219155837 0.604715297 0.487278801
      vertex -0.219585456 0.603651246 0.486786694
      vertex -0.283332011 0.600053807 0.550217248
    endloop
  endfacet
  facet normal -0.616378454 0.521669834 -0.589862853
    outer loop
      vertex -0.219155837 0.604715297 0.487278801
      vertex -0.283332011 0.600053807 0.550217248
      vertex -0.282902391 0.601117859 0.550709355
    endloop
  endfacet
  facet normal 0.708295052 0.0399715395 -0.704783935
    outer loop
      vertex -0.217436135 0.602546004 0.48888404
      vertex -0.219585456 0.603651246 0.486786694
      vertex -0.219155837 0.604715297 0.487278801
    endloop
  endfacet
  facet normal -0.708295052 -0.0399715395 0.704783935
    outer loop
      vertex -0.281182689 0.598948566 0.552314594
      vertex -0.282902391 0.601117859 0.550709355
      vertex -0.283332011 0.600053807 0.550217248
    endloop
  endfacet
  facet normal -0.701135752 0.155833215 -0.695790677
    outer loop
      vertex -0.219585456 0.603651246 0.486786694
      vertex -0.21968786 0.602418931 0.486613889
      vertex -0.283434415 0.598821493 0.550044443
    endloop
  endfacet
  facet normal -0.701135752 0.155833215 -0.695790677
    outer loop
      vertex -0.219585456 0.603651246 0.486786694
      vertex -0.283434415 0.598821493 0.550044443
      vertex -0.283332011 0.600053807 0.550217248
    endloop
  endfacet
  facet normal 0.708295052 0.0399715395 -0.704783935
    outer loop
      vertex -0.217436135 0.602546004 0.48888404
      vertex -0.21968786 0.602418931 0.486613889
      vertex -0.219585456 0.603651246 0.486786694
    endloop
  endfacet
  facet normal -0.708295052 -0.0399715395 0.704783935
    outer loop
      vertex -0.281182689 0.598948566 0.552314594
      vertex -0.283332011 0.600053807 0.550217248
      vertex -0.283434415 0.598821493 0.550044443
    endloop
  endfacet
  facet normal -0.679151488 -0.233727598 -0.695790677
    outer loop
      vertex -0.21968786 0.602418931 0.486613889
      vertex -0.21944746 0.601205963 0.486786694
      vertex -0.283194015 0.597608524 0.550217248
    endloop
  endfacet
  facet normal -0.679151488 -0.233727598 -0.695790677
    outer loop
      vertex -0.21968786 0.602418931 0.486613889
      vertex -0.283194015 0.597608524 0.550217248
      vertex -0.283434415 0.598821493 0.550044443
    endloop
  endfacet
  facet normal 0.708295052 0.0399715395 -0.704783935
    outer loop
      vertex -0.217436135 0.602546004 0.48888404
      vertex -0.21944746 0.601205963 0.486786694
      vertex -0.21968786 0.602418931 0.486613889
    endloop
  endfacet
  facet normal -0.708295052 -0.0399715395 0.704783935
    outer loop
      vertex -0.281182689 0.598948566 0.552314594
      vertex -0.283434415 0.598821493 0.550044443
      vertex -0.283194015 0.597608524 0.550217248
    endloop
  endfacet
  facet normal -0.553772567 -0.587705503 -0.589862853
    outer loop
      vertex -0.21944746 0.601205963 0.486786694
      vertex -0.218900854 0.600197003 0.487278801
      vertex -0.282647408 0.596599564 0.550709355
    endloop
  endfacet
  facet normal -0.553772567 -0.587705503 -0.589862853
    outer loop
      vertex -0.21944746 0.601205963 0.486786694
      vertex -0.282647408 0.596599564 0.550709355
      vertex -0.283194015 0.597608524 0.550217248
    endloop
  endfacet
  facet normal 0.708295052 0.0399715395 -0.704783935
    outer loop
      vertex -0.217436135 0.602546004 0.48888404
      vertex -0.218900854 0.600197003 0.487278801
      vertex -0.21944746 0.601205963 0.486786694
    endloop
  endfacet
  facet normal -0.708295052 -0.0399715395 0.704783935
    outer loop
      vertex -0.281182689 0.598948566 0.552314594
      vertex -0.283194015 0.597608524 0.550217248
      vertex -0.282647408 0.596599564 0.550709355
    endloop
  endfacet
  facet normal -0.344086792 -0.852210573 -0.394133758
    outer loop
      vertex -0.218900854 0.600197003 0.487278801
      vertex -0.218131257 0.599545657 0.488015291
      vertex -0.281877812 0.595948219 0.551445845
    endloop
  endfacet
  facet normal -0.344086792 -0.852210573 -0.394133758
    outer loop
      vertex -0.218900854 0.600197003 0.487278801
      vertex -0.281877812 0.595948219 0.551445845
      vertex -0.282647408 0.596599564 0.550709355
    endloop
  endfacet
  facet normal 0.708295052 0.0399715395 -0.704783935
    outer loop
      vertex -0.217436135 0.602546004 0.48888404
      vertex -0.218131257 0.599545657 0.488015291
      vertex -0.218900854 0.600197003 0.487278801
    endloop
  endfacet
  facet normal -0.708295052 -0.0399715395 0.704783935
    outer loop
      vertex -0.281182689 0.598948566 0.552314594
      vertex -0.282647408 0.596599564 0.550709355
      vertex -0.281877812 0.595948219 0.551445845
    endloop
  endfacet
  facet normal -0.082016922 -0.986974308 -0.138401371
    outer loop
      vertex -0.218131257 0.599545657 0.488015291
      vertex -0.217255834 0.599351088 0.48888404
      vertex -0.281002389 0.595753649 0.552314594
    endloop
  endfacet
  facet normal -0.082016922 -0.986974308 -0.138401371
    outer loop
      vertex -0.218131257 0.599545657 0.488015291
      vertex -0.281002389 0.595753649 0.552314594
      vertex -0.281877812 0.595948219 0.551445845
    endloop
  endfacet
  facet normal 0.708295052 0.0399715395 -0.704783935
    outer loop
      vertex -0.217436135 0.602546004 0.48888404
      vertex -0.217255834 0.599351088 0.48888404
      vertex -0.218131257 0.599545657 0.488015291
    endloop
  endfacet
  facet normal -0.708295052 -0.0399715395 0.704783935
    outer loop
      vertex -0.281182689 0.598948566 0.552314594
      vertex -0.281877812 0.595948219 0.551445845
      vertex -0.281002389 0.595753649 0.552314594
    endloop
  endfacet
  facet normal 0.192539281 -0.971480152 0.138401371
    outer loop
      vertex -0.217255834 0.599351088 0.48888404
      vertex -0.216407861 0.599642915 0.489752789
      vertex -0.280154415 0.596045476 0.553183343
    endloop
  endfacet
  facet normal 0.192539281 -0.971480152 0.138401371
    outer loop
      vertex -0.217255834 0.599351088 0.48888404
      vertex -0.280154415 0.596045476 0.553183343
      vertex -0.281002389 0.595753649 0.552314594
    endloop
  endfacet
  facet normal 0.708295052 0.0399715395 -0.704783935
    outer loop
      vertex -0.217436135 0.602546004 0.48888404
      vertex -0.216407861 0.599642915 0.489752789
      vertex -0.217255834 0.599351088 0.48888404
    endloop
  endfacet
  facet normal -0.708295052 -0.0399715395 0.704783935
    outer loop
      vertex -0.281182689 0.598948566 0.552314594
      vertex -0.281002389 0.595753649 0.552314594
      vertex -0.280154415 0.596045476 0.553183343
    endloop
  endfacet
  facet normal 0.437783123 -0.808086949 0.394133758
    outer loop
      vertex -0.216407861 0.599642915 0.489752789
      vertex -0.215716433 0.600376711 0.490489278
      vertex -0.279462987 0.596779272 0.553919833
    endloop
  endfacet
  facet normal 0.437783123 -0.808086949 0.394133758
    outer loop
      vertex -0.216407861 0.599642915 0.489752789
      vertex -0.279462987 0.596779272 0.553919833
      vertex -0.280154415 0.596045476 0.553183343
    endloop
  endfacet
  facet normal 0.708295052 0.0399715395 -0.704783935
    outer loop
      vertex -0.217436135 0.602546004 0.48888404
      vertex -0.215716433 0.600376711 0.490489278
      vertex -0.216407861 0.599642915 0.489752789
    endloop
  endfacet
  facet normal -0.708295052 -0.0399715395 0.704783935
    outer loop
      vertex -0.281182689 0.598948566 0.552314594
      vertex -0.280154415 0.596045476 0.553183343
      vertex -0.279462987 0.596779272 0.553919833
    endloop
  endfacet
  facet normal 0.616378454 -0.521669834 0.589862853
    outer loop
      vertex -0.215716433 0.600376711 0.490489278
      vertex -0.215286813 0.601440762 0.490981385
      vertex -0.279033368 0.597843324 0.554411939
    endloop
  endfacet
  facet normal 0.616378454 -0.521669834 0.589862853
    outer loop
      vertex -0.215716433 0.600376711 0.490489278
      vertex -0.279033368 0.597843324 0.554411939
      vertex -0.279462987 0.596779272 0.553919833
    endloop
  endfacet
  facet normal 0.708295052 0.0399715395 -0.704783935
    outer loop
      vertex -0.217436135 0.602546004 0.48888404
      vertex -0.215286813 0.601440762 0.490981385
      vertex -0.215716433 0.600376711 0.490489278
    endloop
  endfacet
  facet normal -0.708295052 -0.0399715395 0.704783935
    outer loop
      vertex -0.281182689 0.598948566 0.552314594
      vertex -0.279462987 0.596779272 0.553919833
      vertex -0.279033368 0.597843324 0.554411939
    endloop
  endfacet
  facet normal 0.701135752 -0.155833215 0.695790677
    outer loop
      vertex -0.215286813 0.601440762 0.490981385
      vertex -0.215184409 0.602673077 0.49115419
      vertex -0.278930963 0.599075638 0.554584744
    endloop
  endfacet
  facet normal 0.701135752 -0.155833215 0.695790677
    outer loop
      vertex -0.215286813 0.601440762 0.490981385
      vertex -0.278930963 0.599075638 0.554584744
      vertex -0.279033368 0.597843324 0.554411939
    endloop
  endfacet
  facet normal 0.708295052 0.0399715395 -0.704783935
    outer loop
      vertex -0.217436135 0.602546004 0.48888404
      vertex -0.215184409 0.602673077 0.49115419
      vertex -0.215286813 0.601440762 0.490981385
    endloop
  endfacet
  facet normal -0.708295052 -0.0399715395 0.704783935
    outer loop
      vertex -0.281182689 0.598948566 0.552314594
      vertex -0.279033368 0.597843324 0.554411939
      vertex -0.278930963 0.599075638 0.554584744
    endloop
  endfacet
  facet normal 0.679151488 0.233727598 0.695790677
    outer loop
      vertex -0.215184409 0.602673077 0.49115419
      vertex -0.215424809 0.603886046 0.490981385
      vertex -0.279171364 0.600288607 0.554411939
    endloop
  endfacet
  facet normal 0.679151488 0.233727598 0.695790677
    outer loop
      vertex -0.215184409 0.602673077 0.49115419
      vertex -0.279171364 0.600288607 0.554411939
      vertex -0.278930963 0.599075638 0.554584744
    endloop
  endfacet
  facet normal 0.708295052 0.0399715395 -0.704783935
    outer loop
      vertex -0.217436135 0.602546004 0.48888404
      vertex -0.215424809 0.603886046 0.490981385
      vertex -0.215184409 0.602673077 0.49115419
    endloop
  endfacet
  facet normal -0.708295052 -0.0399715395 0.704783935
    outer loop
      vertex -0.281182689 0.598948566 0.552314594
      vertex -0.278930963 0.599075638 0.554584744
      vertex -0.279171364 0.600288607 0.554411939
    endloop
  endfacet
  facet normal 0.553772567 0.587705503 0.589862853
    outer loop
      vertex -0.215424809 0.603886046 0.490981385
      vertex -0.215971415 0.604895005 0.490489278
      vertex -0.27971797 0.601297567 0.553919833
    endloop
  endfacet
  facet normal 0.553772567 0.587705503 0.589862853
    outer loop
      vertex -0.215424809 0.603886046 0.490981385
      vertex -0.27971797 0.601297567 0.553919833
      vertex -0.279171364 0.600288607 0.554411939
    endloop
  endfacet
  facet normal 0.708295052 0.0399715395 -0.704783935
    outer loop
      vertex -0.217436135 0.602546004 0.48888404
      vertex -0.215971415 0.604895005 0.490489278
      vertex -0.215424809 0.603886046 0.490981385
    endloop
  endfacet
  facet normal -0.708295052 -0.0399715395 0.704783935
    outer loop
      vertex -0.281182689 0.598948566 0.552314594
      vertex -0.279171364 0.600288607 0.554411939
      vertex -0.27971797 0.601297567 0.553919833
    endloop
  endfacet
  facet normal 0.344086792 0.852210573 0.394133758
    outer loop
      vertex -0.215971415 0.604895005 0.490489278
      vertex -0.216741012 0.605546351 0.489752789
      vertex -0.280487567 0.601948912 0.553183343
    endloop
  endfacet
  facet normal 0.344086792 0.852210573 0.394133758
    outer loop
      vertex -0.215971415 0.604895005 0.490489278
      vertex -0.280487567 0.601948912 0.553183343
      vertex -0.27971797 0.601297567 0.553919833
    endloop
  endfacet
  facet normal 0.708295052 0.0399715395 -0.704783935
    outer loop
      vertex -0.217436135 0.602546004 0.48888404
      vertex -0.216741012 0.605546351 0.489752789
      vertex -0.215971415 0.604895005 0.490489278
    endloop
  endfacet
  facet normal -0.708295052 -0.0399715395 0.704783935
    outer loop
      vertex -0.281182689 0.598948566 0.552314594
      vertex -0.27971797 0.601297567 0.553919833
      vertex -0.280487567 0.601948912 0.553183343
    endloop
  endfacet
  facet normal 0.082016922 0.986974308 0.138401371
    outer loop
      vertex -0.216741012 0.605546351 0.489752789
      vertex -0.217616435 0.605740921 0.48888404
      vertex -0.28136299 0.602143482 0.552314594
    endloop
  endfacet
  facet normal 0.082016922 0.986974308 0.138401371
    outer loop
      vertex -0.216741012 0.605546351 0.489752789
      vertex -0.28136299 0.602143482 0.552314594
      vertex -0.280487567 0.601948912 0.553183343
    endloop
  endfacet
  facet normal 0.708295052 0.0399715395 -0.704783935
    outer loop
      vertex -0.217436135 0.602546004 0.48888404
      vertex -0.217616435 0.605740921 0.48888404
      vertex -0.216741012 0.605546351 0.489752789
    endloop
  endfacet
  facet normal -0.708295052 -0.0399715395 0.704783935
    outer loop
      vertex -0.281182689 0.598948566 0.552314594
      vertex -0.280487567 0.601948912 0.553183343
      vertex -0.28136299 0.602143482 0.552314594
    endloop
  endfacet
  facet normal -0.192539281 0.971480152 -0.138401371
    outer loop
      vertex -0.226351914 0.578952188 0.47858573
      vertex -0.227199887 0.57866036 0.477716981
      vertex -0.290946442 0.575062922 0.541147535
    endloop
  endfacet
  facet normal -0.192539281 0.971480152 -0.138401371
    outer loop
      vertex -0.226351914 0.578952188 0.47858573
      vertex -0.290946442 0.575062922 0.541147535
      vertex -0.290098469 0.575354749 0.542016284
    endloop
  endfacet
  facet normal 0.708295052 0.0399715395 -0.704783935
    outer loop
      vertex -0.226171614 0.575757271 0.47858573
      vertex -0.227199887 0.57866036 0.477716981
      vertex -0.226351914 0.578952188 0.47858573
    endloop
  endfacet
  facet normal -0.708295052 -0.0399715395 0.704783935
    outer loop
      vertex -0.289918168 0.572159833 0.542016284
      vertex -0.290098469 0.575354749 0.542016284
      vertex -0.290946442 0.575062922 0.541147535
    endloop
  endfacet
  facet normal -0.437783123 0.808086949 -0.394133758
    outer loop
      vertex -0.227199887 0.57866036 0.477716981
      vertex -0.227891316 0.577926564 0.476980491
      vertex -0.29163787 0.574329126 0.540411045
    endloop
  endfacet
  facet normal -0.437783123 0.808086949 -0.394133758
    outer loop
      vertex -0.227199887 0.57866036 0.477716981
      vertex -0.29163787 0.574329126 0.540411045
      vertex -0.290946442 0.575062922 0.541147535
    endloop
  endfacet
  facet normal 0.708295052 0.0399715395 -0.704783935
    outer loop
      vertex -0.226171614 0.575757271 0.47858573
      vertex -0.227891316 0.577926564 0.476980491
      vertex -0.227199887 0.57866036 0.477716981
    endloop
  endfacet
  facet normal -0.708295052 -0.0399715395 0.704783935
    outer loop
      vertex -0.289918168 0.572159833 0.542016284
      vertex -0.290946442 0.575062922 0.541147535
      vertex -0.29163787 0.574329126 0.540411045
    endloop
  endfacet
  facet normal -0.616378454 0.521669834 -0.589862853
    outer loop
      vertex -0.227891316 0.577926564 0.476980491
      vertex -0.228320935 0.576862513 0.476488384
      vertex -0.29206749 0.573265074 0.539918938
    endloop
  endfacet
  facet normal -0.616378454 0.521669834 -0.589862853
    outer loop
      vertex -0.227891316 0.577926564 0.476980491
      vertex -0.29206749 0.573265074 0.539918938
      vertex -0.29163787 0.574329126 0.540411045
    endloop
  endfacet
  facet normal 0.708295052 0.0399715395 -0.704783935
    outer loop
      vertex -0.226171614 0.575757271 0.47858573
      vertex -0.228320935 0.576862513 0.476488384
      vertex -0.227891316 0.577926564 0.476980491
    endloop
  endfacet
  facet normal -0.708295052 -0.0399715395 0.704783935
    outer loop
      vertex -0.289918168 0.572159833 0.542016284
      vertex -0.29163787 0.574329126 0.540411045
      vertex -0.29206749 0.573265074 0.539918938
    endloop
  endfacet
  facet normal -0.701135752 0.155833215 -0.695790677
    outer loop
      vertex -0.228320935 0.576862513 0.476488384
      vertex -0.22842334 0.575630198 0.476315579
      vertex -0.292169894 0.57203276 0.539746133
    endloop
  endfacet
  facet normal -0.701135752 0.155833215 -0.695790677
    outer loop
      vertex -0.228320935 0.576862513 0.476488384
      vertex -0.292169894 0.57203276 0.539746133
      vertex -0.29206749 0.573265074 0.539918938
    endloop
  endfacet
  facet normal 0.708295052 0.0399715395 -0.704783935
    outer loop
      vertex -0.226171614 0.575757271 0.47858573
      vertex -0.22842334 0.575630198 0.476315579
      vertex -0.228320935 0.576862513 0.476488384
    endloop
  endfacet
  facet normal -0.708295052 -0.0399715395 0.704783935
    outer loop
      vertex -0.289918168 0.572159833 0.542016284
      vertex -0.29206749 0.573265074 0.539918938
      vertex -0.292169894 0.57203276 0.539746133
    endloop
  endfacet
  facet normal -0.679151488 -0.233727598 -0.695790677
    outer loop
      vertex -0.22842334 0.575630198 0.476315579
      vertex -0.228182939 0.57441723 0.476488384
      vertex -0.291929494 0.570819791 0.539918938
    endloop
  endfacet
  facet normal -0.679151488 -0.233727598 -0.695790677
    outer loop
      vertex -0.22842334 0.575630198 0.476315579
      vertex -0.291929494 0.570819791 0.539918938
      vertex -0.292169894 0.57203276 0.539746133
    endloop
  endfacet
  facet normal 0.708295052 0.0399715395 -0.704783935
    outer loop
      vertex -0.226171614 0.575757271 0.47858573
      vertex -0.228182939 0.57441723 0.476488384
      vertex -0.22842334 0.575630198 0.476315579
    endloop
  endfacet
  facet normal -0.708295052 -0.0399715395 0.704783935
    outer loop
      vertex -0.289918168 0.572159833 0.542016284
      vertex -0.292169894 0.57203276 0.539746133
      vertex -0.291929494 0.570819791 0.539918938
    endloop
  endfacet
  facet normal -0.553772567 -0.587705503 -0.589862853
    outer loop
      vertex -0.228182939 0.57441723 0.476488384
      vertex -0.227636333 0.57340827 0.476980491
      vertex -0.291382888 0.569810831 0.540411045
    endloop
  endfacet
  facet normal -0.553772567 -0.587705503 -0.589862853
    outer loop
      vertex -0.228182939 0.57441723 0.476488384
      vertex -0.291382888 0.569810831 0.540411045
      vertex -0.291929494 0.570819791 0.539918938
    endloop
  endfacet
  facet normal 0.708295052 0.0399715395 -0.704783935
    outer loop
      vertex -0.226171614 0.575757271 0.47858573
      vertex -0.227636333 0.57340827 0.476980491
      vertex -0.228182939 0.57441723 0.476488384
    endloop
  endfacet
  facet normal -0.708295052 -0.0399715395 0.704783935
    outer loop
      vertex -0.289918168 0.572159833 0.542016284
      vertex -0.291929494 0.570819791 0.539918938
      vertex -0.291382888 0.569810831 0.540411045
    endloop
  endfacet
  facet normal -0.344086792 -0.852210573 -0.394133758
    outer loop
      vertex -0.227636333 0.57340827 0.476980491
      vertex -0.226866736 0.572756924 0.477716981
      vertex -0.290613291 0.569159486 0.541147535
    endloop
  endfacet
  facet normal -0.344086792 -0.852210573 -0.394133758
    outer loop
      vertex -0.227636333 0.57340827 0.476980491
      vertex -0.290613291 0.569159486 0.541147535
      vertex -0.291382888 0.569810831 0.540411045
    endloop
  endfacet
  facet normal 0.708295052 0.0399715395 -0.704783935
    outer loop
      vertex -0.226171614 0.575757271 0.47858573
      vertex -0.226866736 0.572756924 0.477716981
      vertex -0.227636333 0.57340827 0.476980491
    endloop
  endfacet
  facet normal -0.708295052 -0.0399715395 0.704783935
    outer loop
      vertex -0.289918168 0.572159833 0.542016284
      vertex -0.291382888 0.569810831 0.540411045
      vertex -0.290613291 0.569159486 0.541147535
    endloop
  endfacet
  facet normal -0.082016922 -0.986974308 -0.138401371
    outer loop
      vertex -0.226866736 0.572756924 0.477716981
      vertex -0.225991313 0.572562355 0.47858573
      vertex -0.289737868 0.568964916 0.542016284
    endloop
  endfacet
  facet normal -0.082016922 -0.986974308 -0.138401371
    outer loop
      vertex -0.226866736 0.572756924 0.477716981
      vertex -0.289737868 0.568964916 0.542016284
      vertex -0.290613291 0.569159486 0.541147535
    endloop
  endfacet
  facet normal 0.708295052 0.0399715395 -0.704783935
    outer loop
      vertex -0.226171614 0.575757271 0.47858573
      vertex -0.225991313 0.572562355 0.47858573
      vertex -0.226866736 0.572756924 0.477716981
    endloop
  endfacet
  facet normal -0.708295052 -0.0399715395 0.704783935
    outer loop
      vertex -0.289918168 0.572159833 0.542016284
      vertex -0.290613291 0.569159486 0.541147535
      vertex -0.289737868 0.568964916 0.542016284
    endloop
  endfacet
  facet normal 0.192539281 -0.971480152 0.138401371
    outer loop
      vertex -0.225991313 0.572562355 0.47858573
      vertex -0.22514334 0.572854182 0.479454479
      vertex -0.288889895 0.569256743 0.542885033
    endloop
  endfacet
  facet normal 0.192539281 -0.971480152 0.138401371
    outer loop
      vertex -0.225991313 0.572562355 0.47858573
      vertex -0.288889895 0.569256743 0.542885033
      vertex -0.289737868 0.568964916 0.542016284
    endloop
  endfacet
  facet normal 0.708295052 0.0399715395 -0.704783935
    outer loop
      vertex -0.226171614 0.575757271 0.47858573
      vertex -0.22514334 0.572854182 0.479454479
      vertex -0.225991313 0.572562355 0.47858573
    endloop
  endfacet
  facet normal -0.708295052 -0.0399715395 0.704783935
    outer loop
      vertex -0.289918168 0.572159833 0.542016284
      vertex -0.289737868 0.568964916 0.542016284
      vertex -0.288889895 0.569256743 0.542885033
    endloop
  endfacet
  facet normal 0.437783123 -0.808086949 0.394133758
    outer loop
      vertex -0.22514334 0.572854182 0.479454479
      vertex -0.224451912 0.573587978 0.480190968
      vertex -0.288198466 0.569990539 0.543621522
    endloop
  endfacet
  facet normal 0.437783123 -0.808086949 0.394133758
    outer loop
      vertex -0.22514334 0.572854182 0.479454479
      vertex -0.288198466 0.569990539 0.543621522
      vertex -0.288889895 0.569256743 0.542885033
    endloop
  endfacet
  facet normal 0.708295052 0.0399715395 -0.704783935
    outer loop
      vertex -0.226171614 0.575757271 0.47858573
      vertex -0.224451912 0.573587978 0.480190968
      vertex -0.22514334 0.572854182 0.479454479
    endloop
  endfacet
  facet normal -0.708295052 -0.0399715395 0.704783935
    outer loop
      vertex -0.289918168 0.572159833 0.542016284
      vertex -0.288889895 0.569256743 0.542885033
      vertex -0.288198466 0.569990539 0.543621522
    endloop
  endfacet
  facet normal 0.616378454 -0.521669834 0.589862853
    outer loop
      vertex -0.224451912 0.573587978 0.480190968
      vertex -0.224022292 0.574652029 0.480683075
      vertex -0.287768847 0.571054591 0.544113629
    endloop
  endfacet
  facet normal 0.616378454 -0.521669834 0.589862853
    outer loop
      vertex -0.224451912 0.573587978 0.480190968
      vertex -0.287768847 0.571054591 0.544113629
      vertex -0.288198466 0.569990539 0.543621522
    endloop
  endfacet
  facet normal 0.708295052 0.0399715395 -0.704783935
    outer loop
      vertex -0.226171614 0.575757271 0.47858573
      vertex -0.224022292 0.574652029 0.480683075
      vertex -0.224451912 0.573587978 0.480190968
    endloop
  endfacet
  facet normal -0.708295052 -0.0399715395 0.704783935
    outer loop
      vertex -0.289918168 0.572159833 0.542016284
      vertex -0.288198466 0.569990539 0.543621522
      vertex -0.287768847 0.571054591 0.544113629
    endloop
  endfacet
  facet normal 0.701135752 -0.155833215 0.695790677
    outer loop
      vertex -0.224022292 0.574652029 0.480683075
      vertex -0.223919888 0.575884344 0.48085588
      vertex -0.287666442 0.572286905 0.544286434
    endloop
  endfacet
  facet normal 0.701135752 -0.155833215 0.695790677
    outer loop
      vertex -0.224022292 0.574652029 0.480683075
      vertex -0.287666442 0.572286905 0.544286434
      vertex -0.287768847 0.571054591 0.544113629
    endloop
  endfacet
  facet normal 0.708295052 0.0399715395 -0.704783935
    outer loop
      vertex -0.226171614 0.575757271 0.47858573
      vertex -0.223919888 0.575884344 0.48085588
      vertex -0.224022292 0.574652029 0.480683075
    endloop
  endfacet
  facet normal -0.708295052 -0.0399715395 0.704783935
    outer loop
      vertex -0.289918168 0.572159833 0.542016284
      vertex -0.287768847 0.571054591 0.544113629
      vertex -0.287666442 0.572286905 0.544286434
    endloop
  endfacet
  facet normal 0.679151488 0.233727598 0.695790677
    outer loop
      vertex -0.223919888 0.575884344 0.48085588
      vertex -0.224160288 0.577097313 0.480683075
      vertex -0.287906843 0.573499874 0.544113629
    endloop
  endfacet
  facet normal 0.679151488 0.233727598 0.695790677
    outer loop
      vertex -0.223919888 0.575884344 0.48085588
      vertex -0.287906843 0.573499874 0.544113629
      vertex -0.287666442 0.572286905 0.544286434
    endloop
  endfacet
  facet normal 0.708295052 0.0399715395 -0.704783935
    outer loop
      vertex -0.226171614 0.575757271 0.47858573
      vertex -0.224160288 0.577097313 0.480683075
      vertex -0.223919888 0.575884344 0.48085588
    endloop
  endfacet
  facet normal -0.708295052 -0.0399715395 0.704783935
    outer loop
      vertex -0.289918168 0.572159833 0.542016284
      vertex -0.287666442 0.572286905 0.544286434
      vertex -0.287906843 0.573499874 0.544113629
    endloop
  endfacet
  facet normal 0.553772567 0.587705503 0.589862853
    outer loop
      vertex -0.224160288 0.577097313 0.480683075
      vertex -0.224706895 0.578106272 0.480190968
      vertex -0.288453449 0.574508834 0.543621522
    endloop
  endfacet
  facet normal 0.553772567 0.587705503 0.589862853
    outer loop
      vertex -0.224160288 0.577097313 0.480683075
      vertex -0.288453449 0.574508834 0.543621522
      vertex -0.287906843 0.573499874 0.544113629
    endloop
  endfacet
  facet normal 0.708295052 0.0399715395 -0.704783935
    outer loop
      vertex -0.226171614 0.575757271 0.47858573
      vertex -0.224706895 0.578106272 0.480190968
      vertex -0.224160288 0.577097313 0.480683075
    endloop
  endfacet
  facet normal -0.708295052 -0.0399715395 0.704783935
    outer loop
      vertex -0.289918168 0.572159833 0.542016284
      vertex -0.287906843 0.573499874 0.544113629
      vertex -0.288453449 0.574508834 0.543621522
    endloop
  endfacet
  facet normal 0.344086792 0.852210573 0.394133758
    outer loop
      vertex -0.224706895 0.578106272 0.480190968
      vertex -0.225476491 0.578757618 0.479454479
      vertex -0.289223046 0.575160179 0.542885033
    endloop
  endfacet
  facet normal 0.344086792 0.852210573 0.394133758
    outer loop
      vertex -0.224706895 0.578106272 0.480190968
      vertex -0.289223046 0.575160179 0.542885033
      vertex -0.288453449 0.574508834 0.543621522
    endloop
  endfacet
  facet normal 0.708295052 0.0399715395 -0.704783935
    outer loop
      vertex -0.226171614 0.575757271 0.47858573
      vertex -0.225476491 0.578757618 0.479454479
      vertex -0.224706895 0.578106272 0.480190968
    endloop
  endfacet
  facet normal -0.708295052 -0.0399715395 0.704783935
    outer loop
      vertex -0.289918168 0.572159833 0.542016284
      vertex -0.288453449 0.574508834 0.543621522
      vertex -0.289223046 0.575160179 0.542885033
    endloop
  endfacet
  facet normal 0.082016922 0.986974308 0.138401371
    outer loop
      vertex -0.225476491 0.578757618 0.479454479
      vertex -0.226351914 0.578952188 0.47858573
      vertex -0.290098469 0.575354749 0.542016284
    endloop
  endfacet
  facet normal 0.082016922 0.986974308 0.138401371
    outer loop
      vertex -0.225476491 0.578757618 0.479454479
      vertex -0.290098469 0.575354749 0.542016284
      vertex -0.289223046 0.575160179 0.542885033
    endloop
  endfacet
  facet normal 0.708295052 0.0399715395 -0.704783935
    outer loop
      vertex -0.226171614 0.575757271 0.47858573
      vertex -0.226351914 0.578952188 0.47858573
      vertex -0.225476491 0.578757618 0.479454479
    endloop
  endfacet
  facet normal -0.708295052 -0.0399715395 0.704783935
    outer loop
      vertex -0.289918168 0.572159833 0.542016284
      vertex -0.289223046 0.575160179 0.542885033
      vertex -0.290098469 0.575354749 0.542016284
    endloop
  endfacet
endsolid c20_features
