solid f18_features
  facet normal 0.0525307846 -0.991963876 -0.115100759
    outer loop
      vertex 3.98406192 0.995964468 1.56223052
      vertex 3.98507094 0.996101735 1.56150803
      vertex 4.04960293 0.989213577 1.65032343
    endloop
  endfacet
  facet normal 0.0525307846 -0.991963876 -0.115100759
    outer loop
      vertex 3.98406192 0.995964468 1.56223052
      vertex 4.04960293 0.989213577 1.65032343
      vertex 4.04859391 0.98907631 1.65104592
    endloop
  endfacet
  facet normal -0.586654479 0.0626196166 -0.807412723
    outer loop
      vertex 3.98440156 0.999146393 1.56223052
      vertex 3.98507094 0.996101735 1.56150803
      vertex 3.98406192 0.995964468 1.56223052
    endloop
  endfacet
  facet normal 0.586654479 -0.0626196166 0.807412723
    outer loop
      vertex 4.04893355 0.992258235 1.65104592
      vertex 4.04859391 0.98907631 1.65104592
      vertex 4.04960293 0.989213577 1.65032343
    endloop
  endfacet
  facet normal 0.357790775 -0.874383518 -0.327779231
    outer loop
      vertex 3.98507094 0.996101735 1.56150803
      vertex 3.98597805 0.996702523 1.56089554
      vertex 4.05051004 0.989814365 1.64971094
    endloop
  endfacet
  facet normal 0.357790775 -0.874383518 -0.327779231
    outer loop
      vertex 3.98507094 0.996101735 1.56150803
      vertex 4.05051004 0.989814365 1.64971094
      vertex 4.04960293 0.989213577 1.65032343
    endloop
  endfacet
  facet normal -0.586654479 0.0626196166 -0.807412723
    outer loop
      vertex 3.98440156 0.999146393 1.56223052
      vertex 3.98597805 0.996702523 1.56089554
      vertex 3.98507094 0.996101735 1.56150803
    endloop
  endfacet
  facet normal 0.586654479 -0.0626196166 0.807412723
    outer loop
      vertex 4.04893355 0.992258235 1.65104592
      vertex 4.04960293 0.989213577 1.65032343
      vertex 4.05051004 0.989814365 1.64971094
    endloop
  endfacet
  facet normal 0.608580364 -0.623686195 -0.490556286
    outer loop
      vertex 3.98597805 0.996702523 1.56089554
      vertex 3.98664515 0.997675368 1.56048628
      vertex 4.05117714 0.99078721 1.64930168
    endloop
  endfacet
  facet normal 0.608580364 -0.623686195 -0.490556286
    outer loop
      vertex 3.98597805 0.996702523 1.56089554
      vertex 4.05117714 0.99078721 1.64930168
      vertex 4.05051004 0.989814365 1.64971094
    endloop
  endfacet
  facet normal -0.586654479 0.0626196166 -0.807412723
    outer loop
      vertex 3.98440156 0.999146393 1.56223052
      vertex 3.98664515 0.997675368 1.56048628
      vertex 3.98597805 0.996702523 1.56089554
    endloop
  endfacet
  facet normal 0.586654479 -0.0626196166 0.807412723
    outer loop
      vertex 4.04893355 0.992258235 1.65104592
      vertex 4.05051004 0.989814365 1.64971094
      vertex 4.05117714 0.99078721 1.64930168
    endloop
  endfacet
  facet normal 0.766719109 -0.278038303 -0.578650594
    outer loop
      vertex 3.98664515 0.997675368 1.56048628
      vertex 3.98697069 0.998872164 1.56034257
      vertex 4.05150268 0.991984006 1.64915797
    endloop
  endfacet
  facet normal 0.766719109 -0.278038303 -0.578650594
    outer loop
      vertex 3.98664515 0.997675368 1.56048628
      vertex 4.05150268 0.991984006 1.64915797
      vertex 4.05117714 0.99078721 1.64930168
    endloop
  endfacet
  facet normal -0.586654479 0.0626196166 -0.807412723
    outer loop
      vertex 3.98440156 0.999146393 1.56223052
      vertex 3.98697069 0.998872164 1.56034257
      vertex 3.98664515 0.997675368 1.56048628
    endloop
  endfacet
  facet normal 0.586654479 -0.0626196166 0.807412723
    outer loop
      vertex 4.04893355 0.992258235 1.65104592
      vertex 4.05117714 0.99078721 1.64930168
      vertex 4.05150268 0.991984006 1.64915797
    endloop
  endfacet
  facet normal 0.80813182 0.1099384 -0.578650594
    outer loop
      vertex 3.98697069 0.998872164 1.56034257
      vertex 3.9869051 1.00011071 1.56048628
      vertex 4.05143709 0.99322255 1.64930168
    endloop
  endfacet
  facet normal 0.80813182 0.1099384 -0.578650594
    outer loop
      vertex 3.98697069 0.998872164 1.56034257
      vertex 4.05143709 0.99322255 1.64930168
      vertex 4.05150268 0.991984006 1.64915797
    endloop
  endfacet
  facet normal -0.586654479 0.0626196166 -0.807412723
    outer loop
      vertex 3.98440156 0.999146393 1.56223052
      vertex 3.9869051 1.00011071 1.56048628
      vertex 3.98697069 0.998872164 1.56034257
    endloop
  endfacet
  facet normal 0.586654479 -0.0626196166 0.807412723
    outer loop
      vertex 4.04893355 0.992258235 1.65104592
      vertex 4.05150268 0.991984006 1.64915797
      vertex 4.05143709 0.99322255 1.64930168
    endloop
  endfacet
  facet normal 0.726513787 0.481177978 -0.490556286
    outer loop
      vertex 3.9869051 1.00011071 1.56048628
      vertex 3.98645837 1.00120244 1.56089554
      vertex 4.05099036 0.994314286 1.64971094
    endloop
  endfacet
  facet normal 0.726513787 0.481177978 -0.490556286
    outer loop
      vertex 3.9869051 1.00011071 1.56048628
      vertex 4.05099036 0.994314286 1.64971094
      vertex 4.05143709 0.99322255 1.64930168
    endloop
  endfacet
  facet normal -0.586654479 0.0626196166 -0.807412723
    outer loop
      vertex 3.98440156 0.999146393 1.56223052
      vertex 3.98645837 1.00120244 1.56089554
      vertex 3.9869051 1.00011071 1.56048628
    endloop
  endfacet
  facet normal 0.586654479 -0.0626196166 0.807412723
    outer loop
      vertex 4.04893355 0.992258235 1.65104592
      vertex 4.05143709 0.99322255 1.64930168
      vertex 4.05099036 0.994314286 1.64971094
    endloop
  endfacet
  facet normal 0.534290616 0.779162572 -0.327779231
    outer loop
      vertex 3.98645837 1.00120244 1.56089554
      vertex 3.98569851 1.00198116 1.56150803
      vertex 4.0502305 0.995093007 1.65032343
    endloop
  endfacet
  facet normal 0.534290616 0.779162572 -0.327779231
    outer loop
      vertex 3.98645837 1.00120244 1.56089554
      vertex 4.0502305 0.995093007 1.65032343
      vertex 4.05099036 0.994314286 1.64971094
    endloop
  endfacet
  facet normal -0.586654479 0.0626196166 -0.807412723
    outer loop
      vertex 3.98440156 0.999146393 1.56223052
      vertex 3.98569851 1.00198116 1.56150803
      vertex 3.98645837 1.00120244 1.56089554
    endloop
  endfacet
  facet normal 0.586654479 -0.0626196166 0.807412723
    outer loop
      vertex 4.04893355 0.992258235 1.65104592
      vertex 4.05099036 0.994314286 1.64971094
      vertex 4.0502305 0.995093007 1.65032343
    endloop
  endfacet
  facet normal 0.260726542 0.958526727 -0.115100759
    outer loop
      vertex 3.98569851 1.00198116 1.56150803
      vertex 3.9847412 1.00232832 1.56223052
      vertex 4.04927319 0.99544016 1.65104592
    endloop
  endfacet
  facet normal 0.260726542 0.958526727 -0.115100759
    outer loop
      vertex 3.98569851 1.00198116 1.56150803
      vertex 4.04927319 0.99544016 1.65104592
      vertex 4.0502305 0.995093007 1.65032343
    endloop
  endfacet
  facet normal -0.586654479 0.0626196166 -0.807412723
    outer loop
      vertex 3.98440156 0.999146393 1.56223052
      vertex 3.9847412 1.00232832 1.56223052
      vertex 3.98569851 1.00198116 1.56150803
    endloop
  endfacet
  facet normal 0.586654479 -0.0626196166 0.807412723
    outer loop
      vertex 4.04893355 0.992258235 1.65104592
      vertex 4.0502305 0.995093007 1.65032343
      vertex 4.04927319 0.99544016 1.65104592
    endloop
  endfacet
  facet normal -0.0525307846 0.991963876 0.115100759
    outer loop
      vertex 3.9847412 1.00232832 1.56223052
      vertex 3.98373218 1.00219105 1.56295302
      vertex 4.04826418 0.995302893 1.65176841
    endloop
  endfacet
  facet normal -0.0525307846 0.991963876 0.115100759
    outer loop
      vertex 3.9847412 1.00232832 1.56223052
      vertex 4.04826418 0.995302893 1.65176841
      vertex 4.04927319 0.99544016 1.65104592
    endloop
  endfacet
  facet normal -0.586654479 0.0626196166 -0.807412723
    outer loop
      vertex 3.98440156 0.999146393 1.56223052
      vertex 3.98373218 1.00219105 1.56295302
      vertex 3.9847412 1.00232832 1.56223052
    endloop
  endfacet
  facet normal 0.586654479 -0.0626196166 0.807412723
    outer loop
      vertex 4.04893355 0.992258235 1.65104592
      vertex 4.04927319 0.99544016 1.65104592
      vertex 4.04826418 0.995302893 1.65176841
    endloop
  endfacet
  facet normal -0.357790775 0.874383518 0.327779231
    outer loop
      vertex 3.98373218 1.00219105 1.56295302
      vertex 3.98282507 1.00159026 1.56356551
      vertex 4.04735707 0.994702105 1.65238091
    endloop
  endfacet
  facet normal -0.357790775 0.874383518 0.327779231
    outer loop
      vertex 3.98373218 1.00219105 1.56295302
      vertex 4.04735707 0.994702105 1.65238091
      vertex 4.04826418 0.995302893 1.65176841
    endloop
  endfacet
  facet normal -0.586654479 0.0626196166 -0.807412723
    outer loop
      vertex 3.98440156 0.999146393 1.56223052
      vertex 3.98282507 1.00159026 1.56356551
      vertex 3.98373218 1.00219105 1.56295302
    endloop
  endfacet
  facet normal 0.586654479 -0.0626196166 0.807412723
    outer loop
      vertex 4.04893355 0.992258235 1.65104592
      vertex 4.04826418 0.995302893 1.65176841
      vertex 4.04735707 0.994702105 1.65238091
    endloop
  endfacet
  facet normal -0.608580364 0.623686195 0.490556286
    outer loop
      vertex 3.98282507 1.00159026 1.56356551
      vertex 3.98215797 1.00061742 1.56397477
      vertex 4.04668996 0.993729259 1.65279017
    endloop
  endfacet
  facet normal -0.608580364 0.623686195 0.490556286
    outer loop
      vertex 3.98282507 1.00159026 1.56356551
      vertex 4.04668996 0.993729259 1.65279017
      vertex 4.04735707 0.994702105 1.65238091
    endloop
  endfacet
  facet normal -0.586654479 0.0626196166 -0.807412723
    outer loop
      vertex 3.98440156 0.999146393 1.56223052
      vertex 3.98215797 1.00061742 1.56397477
      vertex 3.98282507 1.00159026 1.56356551
    endloop
  endfacet
  facet normal 0.586654479 -0.0626196166 0.807412723
    outer loop
      vertex 4.04893355 0.992258235 1.65104592
      vertex 4.04735707 0.994702105 1.65238091
      vertex 4.04668996 0.993729259 1.65279017
    endloop
  endfacet
  facet normal -0.766719109 0.278038303 0.578650594
    outer loop
      vertex 3.98215797 1.00061742 1.56397477
      vertex 3.98183243 0.999420622 1.56411848
      vertex 4.04636443 0.992532464 1.65293388
    endloop
  endfacet
  facet normal -0.766719109 0.278038303 0.578650594
    outer loop
      vertex 3.98215797 1.00061742 1.56397477
      vertex 4.04636443 0.992532464 1.65293388
      vertex 4.04668996 0.993729259 1.65279017
    endloop
  endfacet
  facet normal -0.586654479 0.0626196166 -0.807412723
    outer loop
      vertex 3.98440156 0.999146393 1.56223052
      vertex 3.98183243 0.999420622 1.56411848
      vertex 3.98215797 1.00061742 1.56397477
    endloop
  endfacet
  facet normal 0.586654479 -0.0626196166 0.807412723
    outer loop
      vertex 4.04893355 0.992258235 1.65104592
      vertex 4.04668996 0.993729259 1.65279017
      vertex 4.04636443 0.992532464 1.65293388
    endloop
  endfacet
  facet normal -0.80813182 -0.1099384 0.578650594
    outer loop
      vertex 3.98183243 0.999420622 1.56411848
      vertex 3.98189802 0.998182077 1.56397477
      vertex 4.04643002 0.99129392 1.65279017
    endloop
  endfacet
  facet normal -0.80813182 -0.1099384 0.578650594
    outer loop
      vertex 3.98183243 0.999420622 1.56411848
      vertex 4.04643002 0.99129392 1.65279017
      vertex 4.04636443 0.992532464 1.65293388
    endloop
  endfacet
  facet normal -0.586654479 0.0626196166 -0.807412723
    outer loop
      vertex 3.98440156 0.999146393 1.56223052
      vertex 3.98189802 0.998182077 1.56397477
      vertex 3.98183243 0.999420622 1.56411848
    endloop
  endfacet
  facet normal 0.586654479 -0.0626196166 0.807412723
    outer loop
      vertex 4.04893355 0.992258235 1.65104592
      vertex 4.04636443 0.992532464 1.65293388
      vertex 4.04643002 0.99129392 1.65279017
    endloop
  endfacet
  facet normal -0.726513787 -0.481177978 0.490556286
    outer loop
      vertex 3.98189802 0.998182077 1.56397477
      vertex 3.98234475 0.997090341 1.56356551
      vertex 4.04687675 0.990202184 1.65238091
    endloop
  endfacet
  facet normal -0.726513787 -0.481177978 0.490556286
    outer loop
      vertex 3.98189802 0.998182077 1.56397477
      vertex 4.04687675 0.990202184 1.65238091
      vertex 4.04643002 0.99129392 1.65279017
    endloop
  endfacet
  facet normal -0.586654479 0.0626196166 -0.807412723
    outer loop
      vertex 3.98440156 0.999146393 1.56223052
      vertex 3.98234475 0.997090341 1.56356551
      vertex 3.98189802 0.998182077 1.56397477
    endloop
  endfacet
  facet normal 0.586654479 -0.0626196166 0.807412723
    outer loop
      vertex 4.04893355 0.992258235 1.65104592
      vertex 4.04643002 0.99129392 1.65279017
      vertex 4.04687675 0.990202184 1.65238091
    endloop
  endfacet
  facet normal -0.534290616 -0.779162572 0.327779231
    outer loop
      vertex 3.98234475 0.997090341 1.56356551
      vertex 3.98310461 0.99631162 1.56295302
      vertex 4.04763661 0.989423463 1.65176841
    endloop
  endfacet
  facet normal -0.534290616 -0.779162572 0.327779231
    outer loop
      vertex 3.98234475 0.997090341 1.56356551
      vertex 4.04763661 0.989423463 1.65176841
      vertex 4.04687675 0.990202184 1.65238091
    endloop
  endfacet
  facet normal -0.586654479 0.0626196166 -0.807412723
    outer loop
      vertex 3.98440156 0.999146393 1.56223052
      vertex 3.98310461 0.99631162 1.56295302
      vertex 3.98234475 0.997090341 1.56356551
    endloop
  endfacet
  facet normal 0.586654479 -0.0626196166 0.807412723
    outer loop
      vertex 4.04893355 0.992258235 1.65104592
      vertex 4.04687675 0.990202184 1.65238091
      vertex 4.04763661 0.989423463 1.65176841
    endloop
  endfacet
  facet normal -0.260726542 -0.958526727 0.115100759
    outer loop
      vertex 3.98310461 0.99631162 1.56295302
      vertex 3.98406192 0.995964468 1.56223052
      vertex 4.04859391 0.98907631 1.65104592
    endloop
  endfacet
  facet normal -0.260726542 -0.958526727 0.115100759
    outer loop
      vertex 3.98310461 0.99631162 1.56295302
      vertex 4.04859391 0.98907631 1.65104592
      vertex 4.04763661 0.989423463 1.65176841
    endloop
  endfacet
  facet normal -0.586654479 0.0626196166 -0.807412723
    outer loop
      vertex 3.98440156 0.999146393 1.56223052
      vertex 3.98406192 0.995964468 1.56223052
      vertex 3.98310461 0.99631162 1.56295302
    endloop
  endfacet
  facet normal 0.586654479 -0.0626196166 0.807412723
    outer loop
      vertex 4.04893355 0.992258235 1.65104592
      vertex 4.04763661 0.989423463 1.65176841
      vertex 4.04859391 0.98907631 1.65104592
    endloop
  endfacet
  facet normal 0.0525307846 -0.991963876 -0.115100759
    outer loop
      vertex 3.97477856 1.02308499 1.57107904
      vertex 3.97578757 1.02322226 1.57035655
      vertex 4.04031957 1.0163341 1.65917195
    endloop
  endfacet
  facet normal 0.0525307846 -0.991963876 -0.115100759
    outer loop
      vertex 3.97477856 1.02308499 1.57107904
      vertex 4.04031957 1.0163341 1.65917195
      vertex 4.03931055 1.01619684 1.65989444
    endloop
  endfacet
  facet normal -0.586654479 0.0626196166 -0.807412723
    outer loop
      vertex 3.9751182 1.02626692 1.57107904
      vertex 3.97578757 1.02322226 1.57035655
      vertex 3.97477856 1.02308499 1.57107904
    endloop
  endfacet
  facet normal 0.586654479 -0.0626196166 0.807412723
    outer loop
      vertex 4.03965019 1.01937876 1.65989444
      vertex 4.03931055 1.01619684 1.65989444
      vertex 4.04031957 1.0163341 1.65917195
    endloop
  endfacet
  facet normal 0.357790775 -0.874383518 -0.327779231
    outer loop
      vertex 3.97578757 1.02322226 1.57035655
      vertex 3.97669468 1.02382305 1.56974405
      vertex 4.04122668 1.01693489 1.65855945
    endloop
  endfacet
  facet normal 0.357790775 -0.874383518 -0.327779231
    outer loop
      vertex 3.97578757 1.02322226 1.57035655
      vertex 4.04122668 1.01693489 1.65855945
      vertex 4.04031957 1.0163341 1.65917195
    endloop
  endfacet
  facet normal -0.586654479 0.0626196166 -0.807412723
    outer loop
      vertex 3.9751182 1.02626692 1.57107904
      vertex 3.97669468 1.02382305 1.56974405
      vertex 3.97578757 1.02322226 1.57035655
    endloop
  endfacet
  facet normal 0.586654479 -0.0626196166 0.807412723
    outer loop
      vertex 4.03965019 1.01937876 1.65989444
      vertex 4.04031957 1.0163341 1.65917195
      vertex 4.04122668 1.01693489 1.65855945
    endloop
  endfacet
  facet normal 0.608580364 -0.623686195 -0.490556286
    outer loop
      vertex 3.97669468 1.02382305 1.56974405
      vertex 3.97736179 1.0247959 1.56933479
      vertex 4.04189378 1.01790774 1.65815019
    endloop
  endfacet
  facet normal 0.608580364 -0.623686195 -0.490556286
    outer loop
      vertex 3.97669468 1.02382305 1.56974405
      vertex 4.04189378 1.01790774 1.65815019
      vertex 4.04122668 1.01693489 1.65855945
    endloop
  endfacet
  facet normal -0.586654479 0.0626196166 -0.807412723
    outer loop
      vertex 3.9751182 1.02626692 1.57107904
      vertex 3.97736179 1.0247959 1.56933479
      vertex 3.97669468 1.02382305 1.56974405
    endloop
  endfacet
  facet normal 0.586654479 -0.0626196166 0.807412723
    outer loop
      vertex 4.03965019 1.01937876 1.65989444
      vertex 4.04122668 1.01693489 1.65855945
      vertex 4.04189378 1.01790774 1.65815019
    endloop
  endfacet
  facet normal 0.766719109 -0.278038303 -0.578650594
    outer loop
      vertex 3.97736179 1.0247959 1.56933479
      vertex 3.97768732 1.02599269 1.56919108
      vertex 4.04221932 1.01910453 1.65800648
    endloop
  endfacet
  facet normal 0.766719109 -0.278038303 -0.578650594
    outer loop
      vertex 3.97736179 1.0247959 1.56933479
      vertex 4.04221932 1.01910453 1.65800648
      vertex 4.04189378 1.01790774 1.65815019
    endloop
  endfacet
  facet normal -0.586654479 0.0626196166 -0.807412723
    outer loop
      vertex 3.9751182 1.02626692 1.57107904
      vertex 3.97768732 1.02599269 1.56919108
      vertex 3.97736179 1.0247959 1.56933479
    endloop
  endfacet
  facet normal 0.586654479 -0.0626196166 0.807412723
    outer loop
      vertex 4.03965019 1.01937876 1.65989444
      vertex 4.04189378 1.01790774 1.65815019
      vertex 4.04221932 1.01910453 1.65800648
    endloop
  endfacet
  facet normal 0.80813182 0.1099384 -0.578650594
    outer loop
      vertex 3.97768732 1.02599269 1.56919108
      vertex 3.97762174 1.02723123 1.56933479
      vertex 4.04215373 1.02034308 1.65815019
    endloop
  endfacet
  facet normal 0.80813182 0.1099384 -0.578650594
    outer loop
      vertex 3.97768732 1.02599269 1.56919108
      vertex 4.04215373 1.02034308 1.65815019
      vertex 4.04221932 1.01910453 1.65800648
    endloop
  endfacet
  facet normal -0.586654479 0.0626196166 -0.807412723
    outer loop
      vertex 3.9751182 1.02626692 1.57107904
      vertex 3.97762174 1.02723123 1.56933479
      vertex 3.97768732 1.02599269 1.56919108
    endloop
  endfacet
  facet normal 0.586654479 -0.0626196166 0.807412723
    outer loop
      vertex 4.03965019 1.01937876 1.65989444
      vertex 4.04221932 1.01910453 1.65800648
      vertex 4.04215373 1.02034308 1.65815019
    endloop
  endfacet
  facet normal 0.726513787 0.481177978 -0.490556286
    outer loop
      vertex 3.97762174 1.02723123 1.56933479
      vertex 3.97717501 1.02832297 1.56974405
      vertex 4.041707 1.02143481 1.65855945
    endloop
  endfacet
  facet normal 0.726513787 0.481177978 -0.490556286
    outer loop
      vertex 3.97762174 1.02723123 1.56933479
      vertex 4.041707 1.02143481 1.65855945
      vertex 4.04215373 1.02034308 1.65815019
    endloop
  endfacet
  facet normal -0.586654479 0.0626196166 -0.807412723
    outer loop
      vertex 3.9751182 1.02626692 1.57107904
      vertex 3.97717501 1.02832297 1.56974405
      vertex 3.97762174 1.02723123 1.56933479
    endloop
  endfacet
  facet normal 0.586654479 -0.0626196166 0.807412723
    outer loop
      vertex 4.03965019 1.01937876 1.65989444
      vertex 4.04215373 1.02034308 1.65815019
      vertex 4.041707 1.02143481 1.65855945
    endloop
  endfacet
  facet normal 0.534290616 0.779162572 -0.327779231
    outer loop
      vertex 3.97717501 1.02832297 1.56974405
      vertex 3.97641515 1.02910169 1.57035655
      vertex 4.04094714 1.02221353 1.65917195
    endloop
  endfacet
  facet normal 0.534290616 0.779162572 -0.327779231
    outer loop
      vertex 3.97717501 1.02832297 1.56974405
      vertex 4.04094714 1.02221353 1.65917195
      vertex 4.041707 1.02143481 1.65855945
    endloop
  endfacet
  facet normal -0.586654479 0.0626196166 -0.807412723
    outer loop
      vertex 3.9751182 1.02626692 1.57107904
      vertex 3.97641515 1.02910169 1.57035655
      vertex 3.97717501 1.02832297 1.56974405
    endloop
  endfacet
  facet normal 0.586654479 -0.0626196166 0.807412723
    outer loop
      vertex 4.03965019 1.01937876 1.65989444
      vertex 4.041707 1.02143481 1.65855945
      vertex 4.04094714 1.02221353 1.65917195
    endloop
  endfacet
  facet normal 0.260726542 0.958526727 -0.115100759
    outer loop
      vertex 3.97641515 1.02910169 1.57035655
      vertex 3.97545784 1.02944884 1.57107904
      vertex 4.03998983 1.02256069 1.65989444
    endloop
  endfacet
  facet normal 0.260726542 0.958526727 -0.115100759
    outer loop
      vertex 3.97641515 1.02910169 1.57035655
      vertex 4.03998983 1.02256069 1.65989444
      vertex 4.04094714 1.02221353 1.65917195
    endloop
  endfacet
  facet normal -0.586654479 0.0626196166 -0.807412723
    outer loop
      vertex 3.9751182 1.02626692 1.57107904
      vertex 3.97545784 1.02944884 1.57107904
      vertex 3.97641515 1.02910169 1.57035655
    endloop
  endfacet
  facet normal 0.586654479 -0.0626196166 0.807412723
    outer loop
      vertex 4.03965019 1.01937876 1.65989444
      vertex 4.04094714 1.02221353 1.65917195
      vertex 4.03998983 1.02256069 1.65989444
    endloop
  endfacet
  facet normal -0.0525307846 0.991963876 0.115100759
    outer loop
      vertex 3.97545784 1.02944884 1.57107904
      vertex 3.97444882 1.02931158 1.57180153
      vertex 4.03898081 1.02242342 1.66061693
    endloop
  endfacet
  facet normal -0.0525307846 0.991963876 0.115100759
    outer loop
      vertex 3.97545784 1.02944884 1.57107904
      vertex 4.03898081 1.02242342 1.66061693
      vertex 4.03998983 1.02256069 1.65989444
    endloop
  endfacet
  facet normal -0.586654479 0.0626196166 -0.807412723
    outer loop
      vertex 3.9751182 1.02626692 1.57107904
      vertex 3.97444882 1.02931158 1.57180153
      vertex 3.97545784 1.02944884 1.57107904
    endloop
  endfacet
  facet normal 0.586654479 -0.0626196166 0.807412723
    outer loop
      vertex 4.03965019 1.01937876 1.65989444
      vertex 4.03998983 1.02256069 1.65989444
      vertex 4.03898081 1.02242342 1.66061693
    endloop
  endfacet
  facet normal -0.357790775 0.874383518 0.327779231
    outer loop
      vertex 3.97444882 1.02931158 1.57180153
      vertex 3.97354171 1.02871079 1.57241403
      vertex 4.03807371 1.02182263 1.66122943
    endloop
  endfacet
  facet normal -0.357790775 0.874383518 0.327779231
    outer loop
      vertex 3.97444882 1.02931158 1.57180153
      vertex 4.03807371 1.02182263 1.66122943
      vertex 4.03898081 1.02242342 1.66061693
    endloop
  endfacet
  facet normal -0.586654479 0.0626196166 -0.807412723
    outer loop
      vertex 3.9751182 1.02626692 1.57107904
      vertex 3.97354171 1.02871079 1.57241403
      vertex 3.97444882 1.02931158 1.57180153
    endloop
  endfacet
  facet normal 0.586654479 -0.0626196166 0.807412723
    outer loop
      vertex 4.03965019 1.01937876 1.65989444
      vertex 4.03898081 1.02242342 1.66061693
      vertex 4.03807371 1.02182263 1.66122943
    endloop
  endfacet
  facet normal -0.608580364 0.623686195 0.490556286
    outer loop
      vertex 3.97354171 1.02871079 1.57241403
      vertex 3.97287461 1.02773794 1.57282329
      vertex 4.0374066 1.02084979 1.66163869
    endloop
  endfacet
  facet normal -0.608580364 0.623686195 0.490556286
    outer loop
      vertex 3.97354171 1.02871079 1.57241403
      vertex 4.0374066 1.02084979 1.66163869
      vertex 4.03807371 1.02182263 1.66122943
    endloop
  endfacet
  facet normal -0.586654479 0.0626196166 -0.807412723
    outer loop
      vertex 3.9751182 1.02626692 1.57107904
      vertex 3.97287461 1.02773794 1.57282329
      vertex 3.97354171 1.02871079 1.57241403
    endloop
  endfacet
  facet normal 0.586654479 -0.0626196166 0.807412723
    outer loop
      vertex 4.03965019 1.01937876 1.65989444
      vertex 4.03807371 1.02182263 1.66122943
      vertex 4.0374066 1.02084979 1.66163869
    endloop
  endfacet
  facet normal -0.766719109 0.278038303 0.578650594
    outer loop
      vertex 3.97287461 1.02773794 1.57282329
      vertex 3.97254907 1.02654115 1.572967
      vertex 4.03708106 1.01965299 1.6617824
    endloop
  endfacet
  facet normal -0.766719109 0.278038303 0.578650594
    outer loop
      vertex 3.97287461 1.02773794 1.57282329
      vertex 4.03708106 1.01965299 1.6617824
      vertex 4.0374066 1.02084979 1.66163869
    endloop
  endfacet
  facet normal -0.586654479 0.0626196166 -0.807412723
    outer loop
      vertex 3.9751182 1.02626692 1.57107904
      vertex 3.97254907 1.02654115 1.572967
      vertex 3.97287461 1.02773794 1.57282329
    endloop
  endfacet
  facet normal 0.586654479 -0.0626196166 0.807412723
    outer loop
      vertex 4.03965019 1.01937876 1.65989444
      vertex 4.0374066 1.02084979 1.66163869
      vertex 4.03708106 1.01965299 1.6617824
    endloop
  endfacet
  facet normal -0.80813182 -0.1099384 0.578650594
    outer loop
      vertex 3.97254907 1.02654115 1.572967
      vertex 3.97261466 1.0253026 1.57282329
      vertex 4.03714665 1.01841445 1.66163869
    endloop
  endfacet
  facet normal -0.80813182 -0.1099384 0.578650594
    outer loop
      vertex 3.97254907 1.02654115 1.572967
      vertex 4.03714665 1.01841445 1.66163869
      vertex 4.03708106 1.01965299 1.6617824
    endloop
  endfacet
  facet normal -0.586654479 0.0626196166 -0.807412723
    outer loop
      vertex 3.9751182 1.02626692 1.57107904
      vertex 3.97261466 1.0253026 1.57282329
      vertex 3.97254907 1.02654115 1.572967
    endloop
  endfacet
  facet normal 0.586654479 -0.0626196166 0.807412723
    outer loop
      vertex 4.03965019 1.01937876 1.65989444
      vertex 4.03708106 1.01965299 1.6617824
      vertex 4.03714665 1.01841445 1.66163869
    endloop
  endfacet
  facet normal -0.726513787 -0.481177978 0.490556286
    outer loop
      vertex 3.97261466 1.0253026 1.57282329
      vertex 3.97306139 1.02421087 1.57241403
      vertex 4.03759338 1.01732271 1.66122943
    endloop
  endfacet
  facet normal -0.726513787 -0.481177978 0.490556286
    outer loop
      vertex 3.97261466 1.0253026 1.57282329
      vertex 4.03759338 1.01732271 1.66122943
      vertex 4.03714665 1.01841445 1.66163869
    endloop
  endfacet
  facet normal -0.586654479 0.0626196166 -0.807412723
    outer loop
      vertex 3.9751182 1.02626692 1.57107904
      vertex 3.97306139 1.02421087 1.57241403
      vertex 3.97261466 1.0253026 1.57282329
    endloop
  endfacet
  facet normal 0.586654479 -0.0626196166 0.807412723
    outer loop
      vertex 4.03965019 1.01937876 1.65989444
      vertex 4.03714665 1.01841445 1.66163869
      vertex 4.03759338 1.01732271 1.66122943
    endloop
  endfacet
  facet normal -0.534290616 -0.779162572 0.327779231
    outer loop
      vertex 3.97306139 1.02421087 1.57241403
      vertex 3.97382125 1.02343215 1.57180153
      vertex 4.03835324 1.01654399 1.66061693
    endloop
  endfacet
  facet normal -0.534290616 -0.779162572 0.327779231
    outer loop
      vertex 3.97306139 1.02421087 1.57241403
      vertex 4.03835324 1.01654399 1.66061693
      vertex 4.03759338 1.01732271 1.66122943
    endloop
  endfacet
  facet normal -0.586654479 0.0626196166 -0.807412723
    outer loop
      vertex 3.9751182 1.02626692 1.57107904
      vertex 3.97382125 1.02343215 1.57180153
      vertex 3.97306139 1.02421087 1.57241403
    endloop
  endfacet
  facet normal 0.586654479 -0.0626196166 0.807412723
    outer loop
      vertex 4.03965019 1.01937876 1.65989444
      vertex 4.03759338 1.01732271 1.66122943
      vertex 4.03835324 1.01654399 1.66061693
    endloop
  endfacet
  facet normal -0.260726542 -0.958526727 0.115100759
    outer loop
      vertex 3.97382125 1.02343215 1.57180153
      vertex 3.97477856 1.02308499 1.57107904
      vertex 4.03931055 1.01619684 1.65989444
    endloop
  endfacet
  facet normal -0.260726542 -0.958526727 0.115100759
    outer loop
      vertex 3.97382125 1.02343215 1.57180153
      vertex 4.03931055 1.01619684 1.65989444
      vertex 4.03835324 1.01654399 1.66061693
    endloop
  endfacet
  facet normal -0.586654479 0.0626196166 -0.807412723
    outer loop
      vertex 3.9751182 1.02626692 1.57107904
      vertex 3.97477856 1.02308499 1.57107904
      vertex 3.97382125 1.02343215 1.57180153
    endloop
  endfacet
  facet normal 0.586654479 -0.0626196166 0.807412723
    outer loop
      vertex 4.03965019 1.01937876 1.65989444
      vertex 4.03835324 1.01654399 1.66061693
      vertex 4.03931055 1.01619684 1.65989444
    endloop
  endfacet
  facet normal -0.876585125 0.444635977 -0.184112375
    outer loop
      vertex 4.27643776 1.01324436 1.44879528
      vertex 4.27644077 1.01277177 1.4476396
      vertex 4.20425466 0.89100063 1.49724761
    endloop
  endfacet
  facet normal -0.876585125 0.444635977 -0.184112375
    outer loop
      vertex 4.27643776 1.01324436 1.44879528
      vertex 4.20425466 0.89100063 1.49724761
      vertex 4.20425164 0.891473225 1.49840329
    endloop
  endfacet
  facet normal 0.481240784 0.811807577 -0.33072007
    outer loop
      vertex 4.27919044 1.01161257 1.44879528
      vertex 4.27644077 1.01277177 1.4476396
      vertex 4.27643776 1.01324436 1.44879528
    endloop
  endfacet
  facet normal -0.481240784 -0.811807577 0.33072007
    outer loop
      vertex 4.20700432 0.889841432 1.49840329
      vertex 4.20425164 0.891473225 1.49840329
      vertex 4.20425466 0.89100063 1.49724761
    endloop
  endfacet
  facet normal -0.808935342 0.265941844 -0.524307684
    outer loop
      vertex 4.27644077 1.01277177 1.4476396
      vertex 4.2768624 1.01212269 1.44665987
      vertex 4.20467628 0.890351558 1.49626788
    endloop
  endfacet
  facet normal -0.808935342 0.265941844 -0.524307684
    outer loop
      vertex 4.27644077 1.01277177 1.4476396
      vertex 4.20467628 0.890351558 1.49626788
      vertex 4.20425466 0.89100063 1.49724761
    endloop
  endfacet
  facet normal 0.481240784 0.811807577 -0.33072007
    outer loop
      vertex 4.27919044 1.01161257 1.44879528
      vertex 4.2768624 1.01212269 1.44665987
      vertex 4.27644077 1.01277177 1.4476396
    endloop
  endfacet
  facet normal -0.481240784 -0.811807577 0.33072007
    outer loop
      vertex 4.20700432 0.889841432 1.49840329
      vertex 4.20425466 0.89100063 1.49724761
      vertex 4.20467628 0.890351558 1.49626788
    endloop
  endfacet
  facet normal -0.618132486 0.0467604764 -0.784681902
    outer loop
      vertex 4.2768624 1.01212269 1.44665987
      vertex 4.27763845 1.01139596 1.44600523
      vertex 4.20545233 0.889624823 1.49561324
    endloop
  endfacet
  facet normal -0.618132486 0.0467604764 -0.784681902
    outer loop
      vertex 4.2768624 1.01212269 1.44665987
      vertex 4.20545233 0.889624823 1.49561324
      vertex 4.20467628 0.890351558 1.49626788
    endloop
  endfacet
  facet normal 0.481240784 0.811807577 -0.33072007
    outer loop
      vertex 4.27919044 1.01161257 1.44879528
      vertex 4.27763845 1.01139596 1.44600523
      vertex 4.2768624 1.01212269 1.44665987
    endloop
  endfacet
  facet normal -0.481240784 -0.811807577 0.33072007
    outer loop
      vertex 4.20700432 0.889841432 1.49840329
      vertex 4.20467628 0.890351558 1.49626788
      vertex 4.20545233 0.889624823 1.49561324
    endloop
  endfacet
  facet normal -0.333224563 -0.17953975 -0.925595413
    outer loop
      vertex 4.27763845 1.01139596 1.44600523
      vertex 4.27865077 1.0107022 1.44577535
      vertex 4.20646466 0.888931065 1.49538336
    endloop
  endfacet
  facet normal -0.333224563 -0.17953975 -0.925595413
    outer loop
      vertex 4.27763845 1.01139596 1.44600523
      vertex 4.20646466 0.888931065 1.49538336
      vertex 4.20545233 0.889624823 1.49561324
    endloop
  endfacet
  facet normal 0.481240784 0.811807577 -0.33072007
    outer loop
      vertex 4.27919044 1.01161257 1.44879528
      vertex 4.27865077 1.0107022 1.44577535
      vertex 4.27763845 1.01139596 1.44600523
    endloop
  endfacet
  facet normal -0.481240784 -0.811807577 0.33072007
    outer loop
      vertex 4.20700432 0.889841432 1.49840329
      vertex 4.20545233 0.889624823 1.49561324
      vertex 4.20646466 0.888931065 1.49538336
    endloop
  endfacet
  facet normal 0.0024137795 -0.378506677 -0.925595413
    outer loop
      vertex 4.27865077 1.0107022 1.44577535
      vertex 4.27974526 1.01014704 1.44600523
      vertex 4.20755914 0.888375903 1.49561324
    endloop
  endfacet
  facet normal 0.0024137795 -0.378506677 -0.925595413
    outer loop
      vertex 4.27865077 1.0107022 1.44577535
      vertex 4.20755914 0.888375903 1.49561324
      vertex 4.20646466 0.888931065 1.49538336
    endloop
  endfacet
  facet normal 0.481240784 0.811807577 -0.33072007
    outer loop
      vertex 4.27919044 1.01161257 1.44879528
      vertex 4.27974526 1.01014704 1.44600523
      vertex 4.27865077 1.0107022 1.44577535
    endloop
  endfacet
  facet normal -0.481240784 -0.811807577 0.33072007
    outer loop
      vertex 4.20700432 0.889841432 1.49840329
      vertex 4.20646466 0.888931065 1.49538336
      vertex 4.20755914 0.888375903 1.49561324
    endloop
  endfacet
  facet normal 0.337684646 -0.519849394 -0.784681902
    outer loop
      vertex 4.27974526 1.01014704 1.44600523
      vertex 4.28075528 1.00981499 1.44665987
      vertex 4.20856916 0.888043853 1.49626788
    endloop
  endfacet
  facet normal 0.337684646 -0.519849394 -0.784681902
    outer loop
      vertex 4.27974526 1.01014704 1.44600523
      vertex 4.20856916 0.888043853 1.49626788
      vertex 4.20755914 0.888375903 1.49561324
    endloop
  endfacet
  facet normal 0.481240784 0.811807577 -0.33072007
    outer loop
      vertex 4.27919044 1.01161257 1.44879528
      vertex 4.28075528 1.00981499 1.44665987
      vertex 4.27974526 1.01014704 1.44600523
    endloop
  endfacet
  facet normal -0.481240784 -0.811807577 0.33072007
    outer loop
      vertex 4.20700432 0.889841432 1.49840329
      vertex 4.20755914 0.888375903 1.49561324
      vertex 4.20856916 0.888043853 1.49626788
    endloop
  endfacet
  facet normal 0.621546086 -0.582049753 -0.524307684
    outer loop
      vertex 4.28075528 1.00981499 1.44665987
      vertex 4.28152706 1.00975661 1.4476396
      vertex 4.20934095 0.887985469 1.49724761
    endloop
  endfacet
  facet normal 0.621546086 -0.582049753 -0.524307684
    outer loop
      vertex 4.28075528 1.00981499 1.44665987
      vertex 4.20934095 0.887985469 1.49724761
      vertex 4.20856916 0.888043853 1.49626788
    endloop
  endfacet
  facet normal 0.481240784 0.811807577 -0.33072007
    outer loop
      vertex 4.27919044 1.01161257 1.44879528
      vertex 4.28152706 1.00975661 1.4476396
      vertex 4.28075528 1.00981499 1.44665987
    endloop
  endfacet
  facet normal -0.481240784 -0.811807577 0.33072007
    outer loop
      vertex 4.20700432 0.889841432 1.49840329
      vertex 4.20856916 0.888043853 1.49626788
      vertex 4.20934095 0.887985469 1.49724761
    endloop
  endfacet
  facet normal 0.810782769 -0.555638313 -0.184112375
    outer loop
      vertex 4.28152706 1.00975661 1.4476396
      vertex 4.28194312 1.00998078 1.44879528
      vertex 4.209757 0.888209639 1.49840329
    endloop
  endfacet
  facet normal 0.810782769 -0.555638313 -0.184112375
    outer loop
      vertex 4.28152706 1.00975661 1.4476396
      vertex 4.209757 0.888209639 1.49840329
      vertex 4.20934095 0.887985469 1.49724761
    endloop
  endfacet
  facet normal 0.481240784 0.811807577 -0.33072007
    outer loop
      vertex 4.27919044 1.01161257 1.44879528
      vertex 4.28194312 1.00998078 1.44879528
      vertex 4.28152706 1.00975661 1.4476396
    endloop
  endfacet
  facet normal -0.481240784 -0.811807577 0.33072007
    outer loop
      vertex 4.20700432 0.889841432 1.49840329
      vertex 4.20934095 0.887985469 1.49724761
      vertex 4.209757 0.888209639 1.49840329
    endloop
  endfacet
  facet normal 0.876585125 -0.444635977 0.184112375
    outer loop
      vertex 4.28194312 1.00998078 1.44879528
      vertex 4.28194011 1.01045337 1.44995096
      vertex 4.20975399 0.888682234 1.49955897
    endloop
  endfacet
  facet normal 0.876585125 -0.444635977 0.184112375
    outer loop
      vertex 4.28194312 1.00998078 1.44879528
      vertex 4.20975399 0.888682234 1.49955897
      vertex 4.209757 0.888209639 1.49840329
    endloop
  endfacet
  facet normal 0.481240784 0.811807577 -0.33072007
    outer loop
      vertex 4.27919044 1.01161257 1.44879528
      vertex 4.28194011 1.01045337 1.44995096
      vertex 4.28194312 1.00998078 1.44879528
    endloop
  endfacet
  facet normal -0.481240784 -0.811807577 0.33072007
    outer loop
      vertex 4.20700432 0.889841432 1.49840329
      vertex 4.209757 0.888209639 1.49840329
      vertex 4.20975399 0.888682234 1.49955897
    endloop
  endfacet
  facet normal 0.808935342 -0.265941844 0.524307684
    outer loop
      vertex 4.28194011 1.01045337 1.44995096
      vertex 4.28151848 1.01110244 1.45093069
      vertex 4.20933236 0.889331306 1.50053871
    endloop
  endfacet
  facet normal 0.808935342 -0.265941844 0.524307684
    outer loop
      vertex 4.28194011 1.01045337 1.44995096
      vertex 4.20933236 0.889331306 1.50053871
      vertex 4.20975399 0.888682234 1.49955897
    endloop
  endfacet
  facet normal 0.481240784 0.811807577 -0.33072007
    outer loop
      vertex 4.27919044 1.01161257 1.44879528
      vertex 4.28151848 1.01110244 1.45093069
      vertex 4.28194011 1.01045337 1.44995096
    endloop
  endfacet
  facet normal -0.481240784 -0.811807577 0.33072007
    outer loop
      vertex 4.20700432 0.889841432 1.49840329
      vertex 4.20975399 0.888682234 1.49955897
      vertex 4.20933236 0.889331306 1.50053871
    endloop
  endfacet
  facet normal 0.618132486 -0.0467604764 0.784681902
    outer loop
      vertex 4.28151848 1.01110244 1.45093069
      vertex 4.28074243 1.01182918 1.45158533
      vertex 4.20855632 0.890058041 1.50119334
    endloop
  endfacet
  facet normal 0.618132486 -0.0467604764 0.784681902
    outer loop
      vertex 4.28151848 1.01110244 1.45093069
      vertex 4.20855632 0.890058041 1.50119334
      vertex 4.20933236 0.889331306 1.50053871
    endloop
  endfacet
  facet normal 0.481240784 0.811807577 -0.33072007
    outer loop
      vertex 4.27919044 1.01161257 1.44879528
      vertex 4.28074243 1.01182918 1.45158533
      vertex 4.28151848 1.01110244 1.45093069
    endloop
  endfacet
  facet normal -0.481240784 -0.811807577 0.33072007
    outer loop
      vertex 4.20700432 0.889841432 1.49840329
      vertex 4.20933236 0.889331306 1.50053871
      vertex 4.20855632 0.890058041 1.50119334
    endloop
  endfacet
  facet normal 0.333224563 0.17953975 0.925595413
    outer loop
      vertex 4.28074243 1.01182918 1.45158533
      vertex 4.27973011 1.01252294 1.45181521
      vertex 4.20754399 0.890751799 1.50142322
    endloop
  endfacet
  facet normal 0.333224563 0.17953975 0.925595413
    outer loop
      vertex 4.28074243 1.01182918 1.45158533
      vertex 4.20754399 0.890751799 1.50142322
      vertex 4.20855632 0.890058041 1.50119334
    endloop
  endfacet
  facet normal 0.481240784 0.811807577 -0.33072007
    outer loop
      vertex 4.27919044 1.01161257 1.44879528
      vertex 4.27973011 1.01252294 1.45181521
      vertex 4.28074243 1.01182918 1.45158533
    endloop
  endfacet
  facet normal -0.481240784 -0.811807577 0.33072007
    outer loop
      vertex 4.20700432 0.889841432 1.49840329
      vertex 4.20855632 0.890058041 1.50119334
      vertex 4.20754399 0.890751799 1.50142322
    endloop
  endfacet
  facet normal -0.0024137795 0.378506677 0.925595413
    outer loop
      vertex 4.27973011 1.01252294 1.45181521
      vertex 4.27863562 1.0130781 1.45158533
      vertex 4.2064495 0.891306961 1.50119334
    endloop
  endfacet
  facet normal -0.0024137795 0.378506677 0.925595413
    outer loop
      vertex 4.27973011 1.01252294 1.45181521
      vertex 4.2064495 0.891306961 1.50119334
      vertex 4.20754399 0.890751799 1.50142322
    endloop
  endfacet
  facet normal 0.481240784 0.811807577 -0.33072007
    outer loop
      vertex 4.27919044 1.01161257 1.44879528
      vertex 4.27863562 1.0130781 1.45158533
      vertex 4.27973011 1.01252294 1.45181521
    endloop
  endfacet
  facet normal -0.481240784 -0.811807577 0.33072007
    outer loop
      vertex 4.20700432 0.889841432 1.49840329
      vertex 4.20754399 0.890751799 1.50142322
      vertex 4.2064495 0.891306961 1.50119334
    endloop
  endfacet
  facet normal -0.337684646 0.519849394 0.784681902
    outer loop
      vertex 4.27863562 1.0130781 1.45158533
      vertex 4.2776256 1.01341015 1.45093069
      vertex 4.20543949 0.891639011 1.50053871
    endloop
  endfacet
  facet normal -0.337684646 0.519849394 0.784681902
    outer loop
      vertex 4.27863562 1.0130781 1.45158533
      vertex 4.20543949 0.891639011 1.50053871
      vertex 4.2064495 0.891306961 1.50119334
    endloop
  endfacet
  facet normal 0.481240784 0.811807577 -0.33072007
    outer loop
      vertex 4.27919044 1.01161257 1.44879528
      vertex 4.2776256 1.01341015 1.45093069
      vertex 4.27863562 1.0130781 1.45158533
    endloop
  endfacet
  facet normal -0.481240784 -0.811807577 0.33072007
    outer loop
      vertex 4.20700432 0.889841432 1.49840329
      vertex 4.2064495 0.891306961 1.50119334
      vertex 4.20543949 0.891639011 1.50053871
    endloop
  endfacet
  facet normal -0.621546086 0.582049753 0.524307684
    outer loop
      vertex 4.2776256 1.01341015 1.45093069
      vertex 4.27685382 1.01346853 1.44995096
      vertex 4.2046677 0.891697395 1.49955897
    endloop
  endfacet
  facet normal -0.621546086 0.582049753 0.524307684
    outer loop
      vertex 4.2776256 1.01341015 1.45093069
      vertex 4.2046677 0.891697395 1.49955897
      vertex 4.20543949 0.891639011 1.50053871
    endloop
  endfacet
  facet normal 0.481240784 0.811807577 -0.33072007
    outer loop
      vertex 4.27919044 1.01161257 1.44879528
      vertex 4.27685382 1.01346853 1.44995096
      vertex 4.2776256 1.01341015 1.45093069
    endloop
  endfacet
  facet normal -0.481240784 -0.811807577 0.33072007
    outer loop
      vertex 4.20700432 0.889841432 1.49840329
      vertex 4.20543949 0.891639011 1.50053871
      vertex 4.2046677 0.891697395 1.49955897
    endloop
  endfacet
  facet normal -0.810782769 0.555638313 0.184112375
    outer loop
      vertex 4.27685382 1.01346853 1.44995096
      vertex 4.27643776 1.01324436 1.44879528
      vertex 4.20425164 0.891473225 1.49840329
    endloop
  endfacet
  facet normal -0.810782769 0.555638313 0.184112375
    outer loop
      vertex 4.27685382 1.01346853 1.44995096
      vertex 4.20425164 0.891473225 1.49840329
      vertex 4.2046677 0.891697395 1.49955897
    endloop
  endfacet
  facet normal 0.481240784 0.811807577 -0.33072007
    outer loop
      vertex 4.27919044 1.01161257 1.44879528
      vertex 4.27643776 1.01324436 1.44879528
      vertex 4.27685382 1.01346853 1.44995096
    endloop
  endfacet
  facet normal -0.481240784 -0.811807577 0.33072007
    outer loop
      vertex 4.20700432 0.889841432 1.49840329
      vertex 4.2046677 0.891697395 1.49955897
      vertex 4.20425164 0.891473225 1.49840329
    endloop
  endfacet
  facet normal -0.876585125 0.444635977 -0.184112375
    outer loop
      vertex 4.25870783 1.01389945 1.42460395
      vertex 4.25871084 1.01342686 1.42344827
      vertex 4.18652473 0.891655721 1.47305628
    endloop
  endfacet
  facet normal -0.876585125 0.444635977 -0.184112375
    outer loop
      vertex 4.25870783 1.01389945 1.42460395
      vertex 4.18652473 0.891655721 1.47305628
      vertex 4.18652171 0.892128316 1.47421196
    endloop
  endfacet
  facet normal 0.481240784 0.811807577 -0.33072007
    outer loop
      vertex 4.26146051 1.01226766 1.42460395
      vertex 4.25871084 1.01342686 1.42344827
      vertex 4.25870783 1.01389945 1.42460395
    endloop
  endfacet
  facet normal -0.481240784 -0.811807577 0.33072007
    outer loop
      vertex 4.18927439 0.890496522 1.47421196
      vertex 4.18652171 0.892128316 1.47421196
      vertex 4.18652473 0.891655721 1.47305628
    endloop
  endfacet
  facet normal -0.808935342 0.265941844 -0.524307684
    outer loop
      vertex 4.25871084 1.01342686 1.42344827
      vertex 4.25913247 1.01277778 1.42246854
      vertex 4.18694635 0.891006648 1.47207655
    endloop
  endfacet
  facet normal -0.808935342 0.265941844 -0.524307684
    outer loop
      vertex 4.25871084 1.01342686 1.42344827
      vertex 4.18694635 0.891006648 1.47207655
      vertex 4.18652473 0.891655721 1.47305628
    endloop
  endfacet
  facet normal 0.481240784 0.811807577 -0.33072007
    outer loop
      vertex 4.26146051 1.01226766 1.42460395
      vertex 4.25913247 1.01277778 1.42246854
      vertex 4.25871084 1.01342686 1.42344827
    endloop
  endfacet
  facet normal -0.481240784 -0.811807577 0.33072007
    outer loop
      vertex 4.18927439 0.890496522 1.47421196
      vertex 4.18652473 0.891655721 1.47305628
      vertex 4.18694635 0.891006648 1.47207655
    endloop
  endfacet
  facet normal -0.618132486 0.0467604764 -0.784681902
    outer loop
      vertex 4.25913247 1.01277778 1.42246854
      vertex 4.25990852 1.01205105 1.4218139
      vertex 4.1877224 0.890279913 1.47142191
    endloop
  endfacet
  facet normal -0.618132486 0.0467604764 -0.784681902
    outer loop
      vertex 4.25913247 1.01277778 1.42246854
      vertex 4.1877224 0.890279913 1.47142191
      vertex 4.18694635 0.891006648 1.47207655
    endloop
  endfacet
  facet normal 0.481240784 0.811807577 -0.33072007
    outer loop
      vertex 4.26146051 1.01226766 1.42460395
      vertex 4.25990852 1.01205105 1.4218139
      vertex 4.25913247 1.01277778 1.42246854
    endloop
  endfacet
  facet normal -0.481240784 -0.811807577 0.33072007
    outer loop
      vertex 4.18927439 0.890496522 1.47421196
      vertex 4.18694635 0.891006648 1.47207655
      vertex 4.1877224 0.890279913 1.47142191
    endloop
  endfacet
  facet normal -0.333224563 -0.17953975 -0.925595413
    outer loop
      vertex 4.25990852 1.01205105 1.4218139
      vertex 4.26092084 1.01135729 1.42158402
      vertex 4.18873473 0.889586156 1.47119203
    endloop
  endfacet
  facet normal -0.333224563 -0.17953975 -0.925595413
    outer loop
      vertex 4.25990852 1.01205105 1.4218139
      vertex 4.18873473 0.889586156 1.47119203
      vertex 4.1877224 0.890279913 1.47142191
    endloop
  endfacet
  facet normal 0.481240784 0.811807577 -0.33072007
    outer loop
      vertex 4.26146051 1.01226766 1.42460395
      vertex 4.26092084 1.01135729 1.42158402
      vertex 4.25990852 1.01205105 1.4218139
    endloop
  endfacet
  facet normal -0.481240784 -0.811807577 0.33072007
    outer loop
      vertex 4.18927439 0.890496522 1.47421196
      vertex 4.1877224 0.890279913 1.47142191
      vertex 4.18873473 0.889586156 1.47119203
    endloop
  endfacet
  facet normal 0.0024137795 -0.378506677 -0.925595413
    outer loop
      vertex 4.26092084 1.01135729 1.42158402
      vertex 4.26201533 1.01080213 1.4218139
      vertex 4.18982921 0.889030993 1.47142191
    endloop
  endfacet
  facet normal 0.0024137795 -0.378506677 -0.925595413
    outer loop
      vertex 4.26092084 1.01135729 1.42158402
      vertex 4.18982921 0.889030993 1.47142191
      vertex 4.18873473 0.889586156 1.47119203
    endloop
  endfacet
  facet normal 0.481240784 0.811807577 -0.33072007
    outer loop
      vertex 4.26146051 1.01226766 1.42460395
      vertex 4.26201533 1.01080213 1.4218139
      vertex 4.26092084 1.01135729 1.42158402
    endloop
  endfacet
  facet normal -0.481240784 -0.811807577 0.33072007
    outer loop
      vertex 4.18927439 0.890496522 1.47421196
      vertex 4.18873473 0.889586156 1.47119203
      vertex 4.18982921 0.889030993 1.47142191
    endloop
  endfacet
  facet normal 0.337684646 -0.519849394 -0.784681902
    outer loop
      vertex 4.26201533 1.01080213 1.4218139
      vertex 4.26302535 1.01047008 1.42246854
      vertex 4.19083923 0.888698944 1.47207655
    endloop
  endfacet
  facet normal 0.337684646 -0.519849394 -0.784681902
    outer loop
      vertex 4.26201533 1.01080213 1.4218139
      vertex 4.19083923 0.888698944 1.47207655
      vertex 4.18982921 0.889030993 1.47142191
    endloop
  endfacet
  facet normal 0.481240784 0.811807577 -0.33072007
    outer loop
      vertex 4.26146051 1.01226766 1.42460395
      vertex 4.26302535 1.01047008 1.42246854
      vertex 4.26201533 1.01080213 1.4218139
    endloop
  endfacet
  facet normal -0.481240784 -0.811807577 0.33072007
    outer loop
      vertex 4.18927439 0.890496522 1.47421196
      vertex 4.18982921 0.889030993 1.47142191
      vertex 4.19083923 0.888698944 1.47207655
    endloop
  endfacet
  facet normal 0.621546086 -0.582049753 -0.524307684
    outer loop
      vertex 4.26302535 1.01047008 1.42246854
      vertex 4.26379713 1.0104117 1.42344827
      vertex 4.19161102 0.88864056 1.47305628
    endloop
  endfacet
  facet normal 0.621546086 -0.582049753 -0.524307684
    outer loop
      vertex 4.26302535 1.01047008 1.42246854
      vertex 4.19161102 0.88864056 1.47305628
      vertex 4.19083923 0.888698944 1.47207655
    endloop
  endfacet
  facet normal 0.481240784 0.811807577 -0.33072007
    outer loop
      vertex 4.26146051 1.01226766 1.42460395
      vertex 4.26379713 1.0104117 1.42344827
      vertex 4.26302535 1.01047008 1.42246854
    endloop
  endfacet
  facet normal -0.481240784 -0.811807577 0.33072007
    outer loop
      vertex 4.18927439 0.890496522 1.47421196
      vertex 4.19083923 0.888698944 1.47207655
      vertex 4.19161102 0.88864056 1.47305628
    endloop
  endfacet
  facet normal 0.810782769 -0.555638313 -0.184112375
    outer loop
      vertex 4.26379713 1.0104117 1.42344827
      vertex 4.26421319 1.01063587 1.42460395
      vertex 4.19202707 0.888864729 1.47421196
    endloop
  endfacet
  facet normal 0.810782769 -0.555638313 -0.184112375
    outer loop
      vertex 4.26379713 1.0104117 1.42344827
      vertex 4.19202707 0.888864729 1.47421196
      vertex 4.19161102 0.88864056 1.47305628
    endloop
  endfacet
  facet normal 0.481240784 0.811807577 -0.33072007
    outer loop
      vertex 4.26146051 1.01226766 1.42460395
      vertex 4.26421319 1.01063587 1.42460395
      vertex 4.26379713 1.0104117 1.42344827
    endloop
  endfacet
  facet normal -0.481240784 -0.811807577 0.33072007
    outer loop
      vertex 4.18927439 0.890496522 1.47421196
      vertex 4.19161102 0.88864056 1.47305628
      vertex 4.19202707 0.888864729 1.47421196
    endloop
  endfacet
  facet normal 0.876585125 -0.444635977 0.184112375
    outer loop
      vertex 4.26421319 1.01063587 1.42460395
      vertex 4.26421018 1.01110846 1.42575963
      vertex 4.19202406 0.889337324 1.47536764
    endloop
  endfacet
  facet normal 0.876585125 -0.444635977 0.184112375
    outer loop
      vertex 4.26421319 1.01063587 1.42460395
      vertex 4.19202406 0.889337324 1.47536764
      vertex 4.19202707 0.888864729 1.47421196
    endloop
  endfacet
  facet normal 0.481240784 0.811807577 -0.33072007
    outer loop
      vertex 4.26146051 1.01226766 1.42460395
      vertex 4.26421018 1.01110846 1.42575963
      vertex 4.26421319 1.01063587 1.42460395
    endloop
  endfacet
  facet normal -0.481240784 -0.811807577 0.33072007
    outer loop
      vertex 4.18927439 0.890496522 1.47421196
      vertex 4.19202707 0.888864729 1.47421196
      vertex 4.19202406 0.889337324 1.47536764
    endloop
  endfacet
  facet normal 0.808935342 -0.265941844 0.524307684
    outer loop
      vertex 4.26421018 1.01110846 1.42575963
      vertex 4.26378855 1.01175753 1.42673936
      vertex 4.19160243 0.889986397 1.47634738
    endloop
  endfacet
  facet normal 0.808935342 -0.265941844 0.524307684
    outer loop
      vertex 4.26421018 1.01110846 1.42575963
      vertex 4.19160243 0.889986397 1.47634738
      vertex 4.19202406 0.889337324 1.47536764
    endloop
  endfacet
  facet normal 0.481240784 0.811807577 -0.33072007
    outer loop
      vertex 4.26146051 1.01226766 1.42460395
      vertex 4.26378855 1.01175753 1.42673936
      vertex 4.26421018 1.01110846 1.42575963
    endloop
  endfacet
  facet normal -0.481240784 -0.811807577 0.33072007
    outer loop
      vertex 4.18927439 0.890496522 1.47421196
      vertex 4.19202406 0.889337324 1.47536764
      vertex 4.19160243 0.889986397 1.47634738
    endloop
  endfacet
  facet normal 0.618132486 -0.0467604764 0.784681902
    outer loop
      vertex 4.26378855 1.01175753 1.42673936
      vertex 4.2630125 1.01248427 1.427394
      vertex 4.19082638 0.890713131 1.47700201
    endloop
  endfacet
  facet normal 0.618132486 -0.0467604764 0.784681902
    outer loop
      vertex 4.26378855 1.01175753 1.42673936
      vertex 4.19082638 0.890713131 1.47700201
      vertex 4.19160243 0.889986397 1.47634738
    endloop
  endfacet
  facet normal 0.481240784 0.811807577 -0.33072007
    outer loop
      vertex 4.26146051 1.01226766 1.42460395
      vertex 4.2630125 1.01248427 1.427394
      vertex 4.26378855 1.01175753 1.42673936
    endloop
  endfacet
  facet normal -0.481240784 -0.811807577 0.33072007
    outer loop
      vertex 4.18927439 0.890496522 1.47421196
      vertex 4.19160243 0.889986397 1.47634738
      vertex 4.19082638 0.890713131 1.47700201
    endloop
  endfacet
  facet normal 0.333224563 0.17953975 0.925595413
    outer loop
      vertex 4.2630125 1.01248427 1.427394
      vertex 4.26200018 1.01317803 1.42762388
      vertex 4.18981406 0.891406889 1.47723189
    endloop
  endfacet
  facet normal 0.333224563 0.17953975 0.925595413
    outer loop
      vertex 4.2630125 1.01248427 1.427394
      vertex 4.18981406 0.891406889 1.47723189
      vertex 4.19082638 0.890713131 1.47700201
    endloop
  endfacet
  facet normal 0.481240784 0.811807577 -0.33072007
    outer loop
      vertex 4.26146051 1.01226766 1.42460395
      vertex 4.26200018 1.01317803 1.42762388
      vertex 4.2630125 1.01248427 1.427394
    endloop
  endfacet
  facet normal -0.481240784 -0.811807577 0.33072007
    outer loop
      vertex 4.18927439 0.890496522 1.47421196
      vertex 4.19082638 0.890713131 1.47700201
      vertex 4.18981406 0.891406889 1.47723189
    endloop
  endfacet
  facet normal -0.0024137795 0.378506677 0.925595413
    outer loop
      vertex 4.26200018 1.01317803 1.42762388
      vertex 4.26090569 1.01373319 1.427394
      vertex 4.18871957 0.891962052 1.47700201
    endloop
  endfacet
  facet normal -0.0024137795 0.378506677 0.925595413
    outer loop
      vertex 4.26200018 1.01317803 1.42762388
      vertex 4.18871957 0.891962052 1.47700201
      vertex 4.18981406 0.891406889 1.47723189
    endloop
  endfacet
  facet normal 0.481240784 0.811807577 -0.33072007
    outer loop
      vertex 4.26146051 1.01226766 1.42460395
      vertex 4.26090569 1.01373319 1.427394
      vertex 4.26200018 1.01317803 1.42762388
    endloop
  endfacet
  facet normal -0.481240784 -0.811807577 0.33072007
    outer loop
      vertex 4.18927439 0.890496522 1.47421196
      vertex 4.18981406 0.891406889 1.47723189
      vertex 4.18871957 0.891962052 1.47700201
    endloop
  endfacet
  facet normal -0.337684646 0.519849394 0.784681902
    outer loop
      vertex 4.26090569 1.01373319 1.427394
      vertex 4.25989567 1.01406524 1.42673936
      vertex 4.18770956 0.892294101 1.47634738
    endloop
  endfacet
  facet normal -0.337684646 0.519849394 0.784681902
    outer loop
      vertex 4.26090569 1.01373319 1.427394
      vertex 4.18770956 0.892294101 1.47634738
      vertex 4.18871957 0.891962052 1.47700201
    endloop
  endfacet
  facet normal 0.481240784 0.811807577 -0.33072007
    outer loop
      vertex 4.26146051 1.01226766 1.42460395
      vertex 4.25989567 1.01406524 1.42673936
      vertex 4.26090569 1.01373319 1.427394
    endloop
  endfacet
  facet normal -0.481240784 -0.811807577 0.33072007
    outer loop
      vertex 4.18927439 0.890496522 1.47421196
      vertex 4.18871957 0.891962052 1.47700201
      vertex 4.18770956 0.892294101 1.47634738
    endloop
  endfacet
  facet normal -0.621546086 0.582049753 0.524307684
    outer loop
      vertex 4.25989567 1.01406524 1.42673936
      vertex 4.25912389 1.01412362 1.42575963
      vertex 4.18693777 0.892352485 1.47536764
    endloop
  endfacet
  facet normal -0.621546086 0.582049753 0.524307684
    outer loop
      vertex 4.25989567 1.01406524 1.42673936
      vertex 4.18693777 0.892352485 1.47536764
      vertex 4.18770956 0.892294101 1.47634738
    endloop
  endfacet
  facet normal 0.481240784 0.811807577 -0.33072007
    outer loop
      vertex 4.26146051 1.01226766 1.42460395
      vertex 4.25912389 1.01412362 1.42575963
      vertex 4.25989567 1.01406524 1.42673936
    endloop
  endfacet
  facet normal -0.481240784 -0.811807577 0.33072007
    outer loop
      vertex 4.18927439 0.890496522 1.47421196
      vertex 4.18770956 0.892294101 1.47634738
      vertex 4.18693777 0.892352485 1.47536764
    endloop
  endfacet
  facet normal -0.810782769 0.555638313 0.184112375
    outer loop
      vertex 4.25912389 1.01412362 1.42575963
      vertex 4.25870783 1.01389945 1.42460395
      vertex 4.18652171 0.892128316 1.47421196
    endloop
  endfacet
  facet normal -0.810782769 0.555638313 0.184112375
    outer loop
      vertex 4.25912389 1.01412362 1.42575963
      vertex 4.18652171 0.892128316 1.47421196
      vertex 4.18693777 0.892352485 1.47536764
    endloop
  endfacet
  facet normal 0.481240784 0.811807577 -0.33072007
    outer loop
      vertex 4.26146051 1.01226766 1.42460395
      vertex 4.25870783 1.01389945 1.42460395
      vertex 4.25912389 1.01412362 1.42575963
    endloop
  endfacet
  facet normal -0.481240784 -0.811807577 0.33072007
    outer loop
      vertex 4.18927439 0.890496522 1.47421196
      vertex 4.18693777 0.892352485 1.47536764
      vertex 4.18652171 0.892128316 1.47421196
    endloop
  endfacet
  facet normal 0.162187372 -0.979950887 -0.115721717
    outer loop
      vertex 4.3454601 0.974556831 1.32642635
      vertex 4.3464447 0.974805567 1.32569996
      vertex 4.39982927 0.975084621 1.39815692
    endloop
  endfacet
  facet normal 0.162187372 -0.979950887 -0.115721717
    outer loop
      vertex 4.3454601 0.974556831 1.32642635
      vertex 4.39982927 0.975084621 1.39815692
      vertex 4.39884467 0.974835885 1.3988833
    endloop
  endfacet
  facet normal -0.593161851 -0.00310060229 -0.805077266
    outer loop
      vertex 4.34544337 0.977756787 1.32642635
      vertex 4.3464447 0.974805567 1.32569996
      vertex 4.3454601 0.974556831 1.32642635
    endloop
  endfacet
  facet normal 0.593161851 0.00310060229 0.805077266
    outer loop
      vertex 4.39882794 0.978035842 1.3988833
      vertex 4.39884467 0.974835885 1.3988833
      vertex 4.39982927 0.975084621 1.39815692
    endloop
  endfacet
  facet normal 0.45161709 -0.829120259 -0.32954757
    outer loop
      vertex 4.3464447 0.974805567 1.32569996
      vertex 4.34727686 0.975503599 1.32508416
      vertex 4.40066142 0.975782653 1.39754111
    endloop
  endfacet
  facet normal 0.45161709 -0.829120259 -0.32954757
    outer loop
      vertex 4.3464447 0.974805567 1.32569996
      vertex 4.40066142 0.975782653 1.39754111
      vertex 4.39982927 0.975084621 1.39815692
    endloop
  endfacet
  facet normal -0.593161851 -0.00310060229 -0.805077266
    outer loop
      vertex 4.34544337 0.977756787 1.32642635
      vertex 4.34727686 0.975503599 1.32508416
      vertex 4.3464447 0.974805567 1.32569996
    endloop
  endfacet
  facet normal 0.593161851 0.00310060229 0.805077266
    outer loop
      vertex 4.39882794 0.978035842 1.3988833
      vertex 4.39982927 0.975084621 1.39815692
      vertex 4.40066142 0.975782653 1.39754111
    endloop
  endfacet
  facet normal 0.672292199 -0.552063587 -0.493202792
    outer loop
      vertex 4.34727686 0.975503599 1.32508416
      vertex 4.34782988 0.976544659 1.32467269
      vertex 4.40121445 0.976823713 1.39712965
    endloop
  endfacet
  facet normal 0.672292199 -0.552063587 -0.493202792
    outer loop
      vertex 4.34727686 0.975503599 1.32508416
      vertex 4.40121445 0.976823713 1.39712965
      vertex 4.40066142 0.975782653 1.39754111
    endloop
  endfacet
  facet normal -0.593161851 -0.00310060229 -0.805077266
    outer loop
      vertex 4.34544337 0.977756787 1.32642635
      vertex 4.34782988 0.976544659 1.32467269
      vertex 4.34727686 0.975503599 1.32508416
    endloop
  endfacet
  facet normal 0.593161851 0.00310060229 0.805077266
    outer loop
      vertex 4.39882794 0.978035842 1.3988833
      vertex 4.40066142 0.975782653 1.39754111
      vertex 4.40121445 0.976823713 1.39712965
    endloop
  endfacet
  facet normal 0.790616916 -0.190960239 -0.58177236
    outer loop
      vertex 4.34782988 0.976544659 1.32467269
      vertex 4.34801958 0.977770254 1.32452821
      vertex 4.40140415 0.978049308 1.39698516
    endloop
  endfacet
  facet normal 0.790616916 -0.190960239 -0.58177236
    outer loop
      vertex 4.34782988 0.976544659 1.32467269
      vertex 4.40140415 0.978049308 1.39698516
      vertex 4.40121445 0.976823713 1.39712965
    endloop
  endfacet
  facet normal -0.593161851 -0.00310060229 -0.805077266
    outer loop
      vertex 4.34544337 0.977756787 1.32642635
      vertex 4.34801958 0.977770254 1.32452821
      vertex 4.34782988 0.976544659 1.32467269
    endloop
  endfacet
  facet normal 0.593161851 0.00310060229 0.805077266
    outer loop
      vertex 4.39882794 0.978035842 1.3988833
      vertex 4.40121445 0.976823713 1.39712965
      vertex 4.40140415 0.978049308 1.39698516
    endloop
  endfacet
  facet normal 0.788577374 0.199215074 -0.58177236
    outer loop
      vertex 4.34801958 0.977770254 1.32452821
      vertex 4.34781708 0.978993799 1.32467269
      vertex 4.40120165 0.979272853 1.39712965
    endloop
  endfacet
  facet normal 0.788577374 0.199215074 -0.58177236
    outer loop
      vertex 4.34801958 0.977770254 1.32452821
      vertex 4.40120165 0.979272853 1.39712965
      vertex 4.40140415 0.978049308 1.39698516
    endloop
  endfacet
  facet normal -0.593161851 -0.00310060229 -0.805077266
    outer loop
      vertex 4.34544337 0.977756787 1.32642635
      vertex 4.34781708 0.978993799 1.32467269
      vertex 4.34801958 0.977770254 1.32452821
    endloop
  endfacet
  facet normal 0.593161851 0.00310060229 0.805077266
    outer loop
      vertex 4.39882794 0.978035842 1.3988833
      vertex 4.40140415 0.978049308 1.39698516
      vertex 4.40120165 0.979272853 1.39712965
    endloop
  endfacet
  facet normal 0.666484075 0.559061699 -0.493202792
    outer loop
      vertex 4.34781708 0.978993799 1.32467269
      vertex 4.3472532 0.98002902 1.32508416
      vertex 4.40063777 0.980308075 1.39754111
    endloop
  endfacet
  facet normal 0.666484075 0.559061699 -0.493202792
    outer loop
      vertex 4.34781708 0.978993799 1.32467269
      vertex 4.40063777 0.980308075 1.39754111
      vertex 4.40120165 0.979272853 1.39712965
    endloop
  endfacet
  facet normal -0.593161851 -0.00310060229 -0.805077266
    outer loop
      vertex 4.34544337 0.977756787 1.32642635
      vertex 4.3472532 0.98002902 1.32508416
      vertex 4.34781708 0.978993799 1.32467269
    endloop
  endfacet
  facet normal 0.593161851 0.00310060229 0.805077266
    outer loop
      vertex 4.39882794 0.978035842 1.3988833
      vertex 4.40120165 0.979272853 1.39712965
      vertex 4.40063777 0.980308075 1.39754111
    endloop
  endfacet
  facet normal 0.442924618 0.833796247 -0.32954757
    outer loop
      vertex 4.3472532 0.98002902 1.32508416
      vertex 4.34641379 0.980718315 1.32569996
      vertex 4.39979836 0.980997369 1.39815692
    endloop
  endfacet
  facet normal 0.442924618 0.833796247 -0.32954757
    outer loop
      vertex 4.3472532 0.98002902 1.32508416
      vertex 4.39979836 0.980997369 1.39815692
      vertex 4.40063777 0.980308075 1.39754111
    endloop
  endfacet
  facet normal -0.593161851 -0.00310060229 -0.805077266
    outer loop
      vertex 4.34544337 0.977756787 1.32642635
      vertex 4.34641379 0.980718315 1.32569996
      vertex 4.3472532 0.98002902 1.32508416
    endloop
  endfacet
  facet normal 0.593161851 0.00310060229 0.805077266
    outer loop
      vertex 4.39882794 0.978035842 1.3988833
      vertex 4.40063777 0.980308075 1.39754111
      vertex 4.39979836 0.980997369 1.39815692
    endloop
  endfacet
  facet normal 0.151933903 0.981592876 -0.115721717
    outer loop
      vertex 4.34641379 0.980718315 1.32569996
      vertex 4.34542665 0.980956744 1.32642635
      vertex 4.39881121 0.981235798 1.3988833
    endloop
  endfacet
  facet normal 0.151933903 0.981592876 -0.115721717
    outer loop
      vertex 4.34641379 0.980718315 1.32569996
      vertex 4.39881121 0.981235798 1.3988833
      vertex 4.39979836 0.980997369 1.39815692
    endloop
  endfacet
  facet normal -0.593161851 -0.00310060229 -0.805077266
    outer loop
      vertex 4.34544337 0.977756787 1.32642635
      vertex 4.34542665 0.980956744 1.32642635
      vertex 4.34641379 0.980718315 1.32569996
    endloop
  endfacet
  facet normal 0.593161851 0.00310060229 0.805077266
    outer loop
      vertex 4.39882794 0.978035842 1.3988833
      vertex 4.39979836 0.980997369 1.39815692
      vertex 4.39881121 0.981235798 1.3988833
    endloop
  endfacet
  facet normal -0.162187372 0.979950887 0.115721717
    outer loop
      vertex 4.34542665 0.980956744 1.32642635
      vertex 4.34444204 0.980708008 1.32715274
      vertex 4.39782661 0.980987062 1.39960969
    endloop
  endfacet
  facet normal -0.162187372 0.979950887 0.115721717
    outer loop
      vertex 4.34542665 0.980956744 1.32642635
      vertex 4.39782661 0.980987062 1.39960969
      vertex 4.39881121 0.981235798 1.3988833
    endloop
  endfacet
  facet normal -0.593161851 -0.00310060229 -0.805077266
    outer loop
      vertex 4.34544337 0.977756787 1.32642635
      vertex 4.34444204 0.980708008 1.32715274
      vertex 4.34542665 0.980956744 1.32642635
    endloop
  endfacet
  facet normal 0.593161851 0.00310060229 0.805077266
    outer loop
      vertex 4.39882794 0.978035842 1.3988833
      vertex 4.39881121 0.981235798 1.3988833
      vertex 4.39782661 0.980987062 1.39960969
    endloop
  endfacet
  facet normal -0.45161709 0.829120259 0.32954757
    outer loop
      vertex 4.34444204 0.980708008 1.32715274
      vertex 4.34360989 0.980009976 1.32776854
      vertex 4.39699445 0.98028903 1.4002255
    endloop
  endfacet
  facet normal -0.45161709 0.829120259 0.32954757
    outer loop
      vertex 4.34444204 0.980708008 1.32715274
      vertex 4.39699445 0.98028903 1.4002255
      vertex 4.39782661 0.980987062 1.39960969
    endloop
  endfacet
  facet normal -0.593161851 -0.00310060229 -0.805077266
    outer loop
      vertex 4.34544337 0.977756787 1.32642635
      vertex 4.34360989 0.980009976 1.32776854
      vertex 4.34444204 0.980708008 1.32715274
    endloop
  endfacet
  facet normal 0.593161851 0.00310060229 0.805077266
    outer loop
      vertex 4.39882794 0.978035842 1.3988833
      vertex 4.39782661 0.980987062 1.39960969
      vertex 4.39699445 0.98028903 1.4002255
    endloop
  endfacet
  facet normal -0.672292199 0.552063587 0.493202792
    outer loop
      vertex 4.34360989 0.980009976 1.32776854
      vertex 4.34305686 0.978968916 1.32818001
      vertex 4.39644143 0.97924797 1.40063696
    endloop
  endfacet
  facet normal -0.672292199 0.552063587 0.493202792
    outer loop
      vertex 4.34360989 0.980009976 1.32776854
      vertex 4.39644143 0.97924797 1.40063696
      vertex 4.39699445 0.98028903 1.4002255
    endloop
  endfacet
  facet normal -0.593161851 -0.00310060229 -0.805077266
    outer loop
      vertex 4.34544337 0.977756787 1.32642635
      vertex 4.34305686 0.978968916 1.32818001
      vertex 4.34360989 0.980009976 1.32776854
    endloop
  endfacet
  facet normal 0.593161851 0.00310060229 0.805077266
    outer loop
      vertex 4.39882794 0.978035842 1.3988833
      vertex 4.39699445 0.98028903 1.4002255
      vertex 4.39644143 0.97924797 1.40063696
    endloop
  endfacet
  facet normal -0.790616916 0.190960239 0.58177236
    outer loop
      vertex 4.34305686 0.978968916 1.32818001
      vertex 4.34286716 0.977743321 1.32832449
      vertex 4.39625173 0.978022375 1.40078145
    endloop
  endfacet
  facet normal -0.790616916 0.190960239 0.58177236
    outer loop
      vertex 4.34305686 0.978968916 1.32818001
      vertex 4.39625173 0.978022375 1.40078145
      vertex 4.39644143 0.97924797 1.40063696
    endloop
  endfacet
  facet normal -0.593161851 -0.00310060229 -0.805077266
    outer loop
      vertex 4.34544337 0.977756787 1.32642635
      vertex 4.34286716 0.977743321 1.32832449
      vertex 4.34305686 0.978968916 1.32818001
    endloop
  endfacet
  facet normal 0.593161851 0.00310060229 0.805077266
    outer loop
      vertex 4.39882794 0.978035842 1.3988833
      vertex 4.39644143 0.97924797 1.40063696
      vertex 4.39625173 0.978022375 1.40078145
    endloop
  endfacet
  facet normal -0.788577374 -0.199215074 0.58177236
    outer loop
      vertex 4.34286716 0.977743321 1.32832449
      vertex 4.34306966 0.976519776 1.32818001
      vertex 4.39645423 0.97679883 1.40063696
    endloop
  endfacet
  facet normal -0.788577374 -0.199215074 0.58177236
    outer loop
      vertex 4.34286716 0.977743321 1.32832449
      vertex 4.39645423 0.97679883 1.40063696
      vertex 4.39625173 0.978022375 1.40078145
    endloop
  endfacet
  facet normal -0.593161851 -0.00310060229 -0.805077266
    outer loop
      vertex 4.34544337 0.977756787 1.32642635
      vertex 4.34306966 0.976519776 1.32818001
      vertex 4.34286716 0.977743321 1.32832449
    endloop
  endfacet
  facet normal 0.593161851 0.00310060229 0.805077266
    outer loop
      vertex 4.39882794 0.978035842 1.3988833
      vertex 4.39625173 0.978022375 1.40078145
      vertex 4.39645423 0.97679883 1.40063696
    endloop
  endfacet
  facet normal -0.666484075 -0.559061699 0.493202792
    outer loop
      vertex 4.34306966 0.976519776 1.32818001
      vertex 4.34363354 0.975484554 1.32776854
      vertex 4.39701811 0.975763609 1.4002255
    endloop
  endfacet
  facet normal -0.666484075 -0.559061699 0.493202792
    outer loop
      vertex 4.34306966 0.976519776 1.32818001
      vertex 4.39701811 0.975763609 1.4002255
      vertex 4.39645423 0.97679883 1.40063696
    endloop
  endfacet
  facet normal -0.593161851 -0.00310060229 -0.805077266
    outer loop
      vertex 4.34544337 0.977756787 1.32642635
      vertex 4.34363354 0.975484554 1.32776854
      vertex 4.34306966 0.976519776 1.32818001
    endloop
  endfacet
  facet normal 0.593161851 0.00310060229 0.805077266
    outer loop
      vertex 4.39882794 0.978035842 1.3988833
      vertex 4.39645423 0.97679883 1.40063696
      vertex 4.39701811 0.975763609 1.4002255
    endloop
  endfacet
  facet normal -0.442924618 -0.833796247 0.32954757
    outer loop
      vertex 4.34363354 0.975484554 1.32776854
      vertex 4.34447295 0.97479526 1.32715274
      vertex 4.39785752 0.975074314 1.39960969
    endloop
  endfacet
  facet normal -0.442924618 -0.833796247 0.32954757
    outer loop
      vertex 4.34363354 0.975484554 1.32776854
      vertex 4.39785752 0.975074314 1.39960969
      vertex 4.39701811 0.975763609 1.4002255
    endloop
  endfacet
  facet normal -0.593161851 -0.00310060229 -0.805077266
    outer loop
      vertex 4.34544337 0.977756787 1.32642635
      vertex 4.34447295 0.97479526 1.32715274
      vertex 4.34363354 0.975484554 1.32776854
    endloop
  endfacet
  facet normal 0.593161851 0.00310060229 0.805077266
    outer loop
      vertex 4.39882794 0.978035842 1.3988833
      vertex 4.39701811 0.975763609 1.4002255
      vertex 4.39785752 0.975074314 1.39960969
    endloop
  endfacet
  facet normal -0.151933903 -0.981592876 0.115721717
    outer loop
      vertex 4.34447295 0.97479526 1.32715274
      vertex 4.3454601 0.974556831 1.32642635
      vertex 4.39884467 0.974835885 1.3988833
    endloop
  endfacet
  facet normal -0.151933903 -0.981592876 0.115721717
    outer loop
      vertex 4.34447295 0.97479526 1.32715274
      vertex 4.39884467 0.974835885 1.3988833
      vertex 4.39785752 0.975074314 1.39960969
    endloop
  endfacet
  facet normal -0.593161851 -0.00310060229 -0.805077266
    outer loop
      vertex 4.34544337 0.977756787 1.32642635
      vertex 4.3454601 0.974556831 1.32642635
      vertex 4.34447295 0.97479526 1.32715274
    endloop
  endfacet
  facet normal 0.593161851 0.00310060229 0.805077266
    outer loop
      vertex 4.39882794 0.978035842 1.3988833
      vertex 4.39785752 0.975074314 1.39960969
      vertex 4.39884467 0.974835885 1.3988833
    endloop
  endfacet
  facet normal 0.162187372 -0.979950887 -0.115721717
    outer loop
      vertex 4.33254034 0.949246678 1.3360428
      vertex 4.33352494 0.949495413 1.33531641
      vertex 4.38690951 0.949774468 1.40777336
    endloop
  endfacet
  facet normal 0.162187372 -0.979950887 -0.115721717
    outer loop
      vertex 4.33254034 0.949246678 1.3360428
      vertex 4.38690951 0.949774468 1.40777336
      vertex 4.38592491 0.949525732 1.40849975
    endloop
  endfacet
  facet normal -0.593161851 -0.00310060229 -0.805077266
    outer loop
      vertex 4.33252362 0.952446634 1.3360428
      vertex 4.33352494 0.949495413 1.33531641
      vertex 4.33254034 0.949246678 1.3360428
    endloop
  endfacet
  facet normal 0.593161851 0.00310060229 0.805077266
    outer loop
      vertex 4.38590818 0.952725688 1.40849975
      vertex 4.38592491 0.949525732 1.40849975
      vertex 4.38690951 0.949774468 1.40777336
    endloop
  endfacet
  facet normal 0.45161709 -0.829120259 -0.32954757
    outer loop
      vertex 4.33352494 0.949495413 1.33531641
      vertex 4.3343571 0.950193445 1.33470061
      vertex 4.38774167 0.9504725 1.40715756
    endloop
  endfacet
  facet normal 0.45161709 -0.829120259 -0.32954757
    outer loop
      vertex 4.33352494 0.949495413 1.33531641
      vertex 4.38774167 0.9504725 1.40715756
      vertex 4.38690951 0.949774468 1.40777336
    endloop
  endfacet
  facet normal -0.593161851 -0.00310060229 -0.805077266
    outer loop
      vertex 4.33252362 0.952446634 1.3360428
      vertex 4.3343571 0.950193445 1.33470061
      vertex 4.33352494 0.949495413 1.33531641
    endloop
  endfacet
  facet normal 0.593161851 0.00310060229 0.805077266
    outer loop
      vertex 4.38590818 0.952725688 1.40849975
      vertex 4.38690951 0.949774468 1.40777336
      vertex 4.38774167 0.9504725 1.40715756
    endloop
  endfacet
  facet normal 0.672292199 -0.552063587 -0.493202792
    outer loop
      vertex 4.3343571 0.950193445 1.33470061
      vertex 4.33491013 0.951234505 1.33428914
      vertex 4.38829469 0.951513559 1.4067461
    endloop
  endfacet
  facet normal 0.672292199 -0.552063587 -0.493202792
    outer loop
      vertex 4.3343571 0.950193445 1.33470061
      vertex 4.38829469 0.951513559 1.4067461
      vertex 4.38774167 0.9504725 1.40715756
    endloop
  endfacet
  facet normal -0.593161851 -0.00310060229 -0.805077266
    outer loop
      vertex 4.33252362 0.952446634 1.3360428
      vertex 4.33491013 0.951234505 1.33428914
      vertex 4.3343571 0.950193445 1.33470061
    endloop
  endfacet
  facet normal 0.593161851 0.00310060229 0.805077266
    outer loop
      vertex 4.38590818 0.952725688 1.40849975
      vertex 4.38774167 0.9504725 1.40715756
      vertex 4.38829469 0.951513559 1.4067461
    endloop
  endfacet
  facet normal 0.790616916 -0.190960239 -0.58177236
    outer loop
      vertex 4.33491013 0.951234505 1.33428914
      vertex 4.33509983 0.952460101 1.33414465
      vertex 4.3884844 0.952739155 1.40660161
    endloop
  endfacet
  facet normal 0.790616916 -0.190960239 -0.58177236
    outer loop
      vertex 4.33491013 0.951234505 1.33428914
      vertex 4.3884844 0.952739155 1.40660161
      vertex 4.38829469 0.951513559 1.4067461
    endloop
  endfacet
  facet normal -0.593161851 -0.00310060229 -0.805077266
    outer loop
      vertex 4.33252362 0.952446634 1.3360428
      vertex 4.33509983 0.952460101 1.33414465
      vertex 4.33491013 0.951234505 1.33428914
    endloop
  endfacet
  facet normal 0.593161851 0.00310060229 0.805077266
    outer loop
      vertex 4.38590818 0.952725688 1.40849975
      vertex 4.38829469 0.951513559 1.4067461
      vertex 4.3884844 0.952739155 1.40660161
    endloop
  endfacet
  facet normal 0.788577374 0.199215074 -0.58177236
    outer loop
      vertex 4.33509983 0.952460101 1.33414465
      vertex 4.33489733 0.953683646 1.33428914
      vertex 4.38828189 0.9539627 1.4067461
    endloop
  endfacet
  facet normal 0.788577374 0.199215074 -0.58177236
    outer loop
      vertex 4.33509983 0.952460101 1.33414465
      vertex 4.38828189 0.9539627 1.4067461
      vertex 4.3884844 0.952739155 1.40660161
    endloop
  endfacet
  facet normal -0.593161851 -0.00310060229 -0.805077266
    outer loop
      vertex 4.33252362 0.952446634 1.3360428
      vertex 4.33489733 0.953683646 1.33428914
      vertex 4.33509983 0.952460101 1.33414465
    endloop
  endfacet
  facet normal 0.593161851 0.00310060229 0.805077266
    outer loop
      vertex 4.38590818 0.952725688 1.40849975
      vertex 4.3884844 0.952739155 1.40660161
      vertex 4.38828189 0.9539627 1.4067461
    endloop
  endfacet
  facet normal 0.666484075 0.559061699 -0.493202792
    outer loop
      vertex 4.33489733 0.953683646 1.33428914
      vertex 4.33433345 0.954718867 1.33470061
      vertex 4.38771801 0.954997921 1.40715756
    endloop
  endfacet
  facet normal 0.666484075 0.559061699 -0.493202792
    outer loop
      vertex 4.33489733 0.953683646 1.33428914
      vertex 4.38771801 0.954997921 1.40715756
      vertex 4.38828189 0.9539627 1.4067461
    endloop
  endfacet
  facet normal -0.593161851 -0.00310060229 -0.805077266
    outer loop
      vertex 4.33252362 0.952446634 1.3360428
      vertex 4.33433345 0.954718867 1.33470061
      vertex 4.33489733 0.953683646 1.33428914
    endloop
  endfacet
  facet normal 0.593161851 0.00310060229 0.805077266
    outer loop
      vertex 4.38590818 0.952725688 1.40849975
      vertex 4.38828189 0.9539627 1.4067461
      vertex 4.38771801 0.954997921 1.40715756
    endloop
  endfacet
  facet normal 0.442924618 0.833796247 -0.32954757
    outer loop
      vertex 4.33433345 0.954718867 1.33470061
      vertex 4.33349404 0.955408162 1.33531641
      vertex 4.3868786 0.955687216 1.40777336
    endloop
  endfacet
  facet normal 0.442924618 0.833796247 -0.32954757
    outer loop
      vertex 4.33433345 0.954718867 1.33470061
      vertex 4.3868786 0.955687216 1.40777336
      vertex 4.38771801 0.954997921 1.40715756
    endloop
  endfacet
  facet normal -0.593161851 -0.00310060229 -0.805077266
    outer loop
      vertex 4.33252362 0.952446634 1.3360428
      vertex 4.33349404 0.955408162 1.33531641
      vertex 4.33433345 0.954718867 1.33470061
    endloop
  endfacet
  facet normal 0.593161851 0.00310060229 0.805077266
    outer loop
      vertex 4.38590818 0.952725688 1.40849975
      vertex 4.38771801 0.954997921 1.40715756
      vertex 4.3868786 0.955687216 1.40777336
    endloop
  endfacet
  facet normal 0.151933903 0.981592876 -0.115721717
    outer loop
      vertex 4.33349404 0.955408162 1.33531641
      vertex 4.33250689 0.95564659 1.3360428
      vertex 4.38589146 0.955925645 1.40849975
    endloop
  endfacet
  facet normal 0.151933903 0.981592876 -0.115721717
    outer loop
      vertex 4.33349404 0.955408162 1.33531641
      vertex 4.38589146 0.955925645 1.40849975
      vertex 4.3868786 0.955687216 1.40777336
    endloop
  endfacet
  facet normal -0.593161851 -0.00310060229 -0.805077266
    outer loop
      vertex 4.33252362 0.952446634 1.3360428
      vertex 4.33250689 0.95564659 1.3360428
      vertex 4.33349404 0.955408162 1.33531641
    endloop
  endfacet
  facet normal 0.593161851 0.00310060229 0.805077266
    outer loop
      vertex 4.38590818 0.952725688 1.40849975
      vertex 4.3868786 0.955687216 1.40777336
      vertex 4.38589146 0.955925645 1.40849975
    endloop
  endfacet
  facet normal -0.162187372 0.979950887 0.115721717
    outer loop
      vertex 4.33250689 0.95564659 1.3360428
      vertex 4.33152229 0.955397855 1.33676919
      vertex 4.38490686 0.955676909 1.40922614
    endloop
  endfacet
  facet normal -0.162187372 0.979950887 0.115721717
    outer loop
      vertex 4.33250689 0.95564659 1.3360428
      vertex 4.38490686 0.955676909 1.40922614
      vertex 4.38589146 0.955925645 1.40849975
    endloop
  endfacet
  facet normal -0.593161851 -0.00310060229 -0.805077266
    outer loop
      vertex 4.33252362 0.952446634 1.3360428
      vertex 4.33152229 0.955397855 1.33676919
      vertex 4.33250689 0.95564659 1.3360428
    endloop
  endfacet
  facet normal 0.593161851 0.00310060229 0.805077266
    outer loop
      vertex 4.38590818 0.952725688 1.40849975
      vertex 4.38589146 0.955925645 1.40849975
      vertex 4.38490686 0.955676909 1.40922614
    endloop
  endfacet
  facet normal -0.45161709 0.829120259 0.32954757
    outer loop
      vertex 4.33152229 0.955397855 1.33676919
      vertex 4.33069013 0.954699823 1.33738499
      vertex 4.3840747 0.954978877 1.40984194
    endloop
  endfacet
  facet normal -0.45161709 0.829120259 0.32954757
    outer loop
      vertex 4.33152229 0.955397855 1.33676919
      vertex 4.3840747 0.954978877 1.40984194
      vertex 4.38490686 0.955676909 1.40922614
    endloop
  endfacet
  facet normal -0.593161851 -0.00310060229 -0.805077266
    outer loop
      vertex 4.33252362 0.952446634 1.3360428
      vertex 4.33069013 0.954699823 1.33738499
      vertex 4.33152229 0.955397855 1.33676919
    endloop
  endfacet
  facet normal 0.593161851 0.00310060229 0.805077266
    outer loop
      vertex 4.38590818 0.952725688 1.40849975
      vertex 4.38490686 0.955676909 1.40922614
      vertex 4.3840747 0.954978877 1.40984194
    endloop
  endfacet
  facet normal -0.672292199 0.552063587 0.493202792
    outer loop
      vertex 4.33069013 0.954699823 1.33738499
      vertex 4.33013711 0.953658763 1.33779645
      vertex 4.38352167 0.953937817 1.41025341
    endloop
  endfacet
  facet normal -0.672292199 0.552063587 0.493202792
    outer loop
      vertex 4.33069013 0.954699823 1.33738499
      vertex 4.38352167 0.953937817 1.41025341
      vertex 4.3840747 0.954978877 1.40984194
    endloop
  endfacet
  facet normal -0.593161851 -0.00310060229 -0.805077266
    outer loop
      vertex 4.33252362 0.952446634 1.3360428
      vertex 4.33013711 0.953658763 1.33779645
      vertex 4.33069013 0.954699823 1.33738499
    endloop
  endfacet
  facet normal 0.593161851 0.00310060229 0.805077266
    outer loop
      vertex 4.38590818 0.952725688 1.40849975
      vertex 4.3840747 0.954978877 1.40984194
      vertex 4.38352167 0.953937817 1.41025341
    endloop
  endfacet
  facet normal -0.790616916 0.190960239 0.58177236
    outer loop
      vertex 4.33013711 0.953658763 1.33779645
      vertex 4.3299474 0.952433168 1.33794094
      vertex 4.38333197 0.952712222 1.4103979
    endloop
  endfacet
  facet normal -0.790616916 0.190960239 0.58177236
    outer loop
      vertex 4.33013711 0.953658763 1.33779645
      vertex 4.38333197 0.952712222 1.4103979
      vertex 4.38352167 0.953937817 1.41025341
    endloop
  endfacet
  facet normal -0.593161851 -0.00310060229 -0.805077266
    outer loop
      vertex 4.33252362 0.952446634 1.3360428
      vertex 4.3299474 0.952433168 1.33794094
      vertex 4.33013711 0.953658763 1.33779645
    endloop
  endfacet
  facet normal 0.593161851 0.00310060229 0.805077266
    outer loop
      vertex 4.38590818 0.952725688 1.40849975
      vertex 4.38352167 0.953937817 1.41025341
      vertex 4.38333197 0.952712222 1.4103979
    endloop
  endfacet
  facet normal -0.788577374 -0.199215074 0.58177236
    outer loop
      vertex 4.3299474 0.952433168 1.33794094
      vertex 4.33014991 0.951209622 1.33779645
      vertex 4.38353447 0.951488677 1.41025341
    endloop
  endfacet
  facet normal -0.788577374 -0.199215074 0.58177236
    outer loop
      vertex 4.3299474 0.952433168 1.33794094
      vertex 4.38353447 0.951488677 1.41025341
      vertex 4.38333197 0.952712222 1.4103979
    endloop
  endfacet
  facet normal -0.593161851 -0.00310060229 -0.805077266
    outer loop
      vertex 4.33252362 0.952446634 1.3360428
      vertex 4.33014991 0.951209622 1.33779645
      vertex 4.3299474 0.952433168 1.33794094
    endloop
  endfacet
  facet normal 0.593161851 0.00310060229 0.805077266
    outer loop
      vertex 4.38590818 0.952725688 1.40849975
      vertex 4.38333197 0.952712222 1.4103979
      vertex 4.38353447 0.951488677 1.41025341
    endloop
  endfacet
  facet normal -0.666484075 -0.559061699 0.493202792
    outer loop
      vertex 4.33014991 0.951209622 1.33779645
      vertex 4.33071379 0.950174401 1.33738499
      vertex 4.38409835 0.950453455 1.40984194
    endloop
  endfacet
  facet normal -0.666484075 -0.559061699 0.493202792
    outer loop
      vertex 4.33014991 0.951209622 1.33779645
      vertex 4.38409835 0.950453455 1.40984194
      vertex 4.38353447 0.951488677 1.41025341
    endloop
  endfacet
  facet normal -0.593161851 -0.00310060229 -0.805077266
    outer loop
      vertex 4.33252362 0.952446634 1.3360428
      vertex 4.33071379 0.950174401 1.33738499
      vertex 4.33014991 0.951209622 1.33779645
    endloop
  endfacet
  facet normal 0.593161851 0.00310060229 0.805077266
    outer loop
      vertex 4.38590818 0.952725688 1.40849975
      vertex 4.38353447 0.951488677 1.41025341
      vertex 4.38409835 0.950453455 1.40984194
    endloop
  endfacet
  facet normal -0.442924618 -0.833796247 0.32954757
    outer loop
      vertex 4.33071379 0.950174401 1.33738499
      vertex 4.3315532 0.949485107 1.33676919
      vertex 4.38493776 0.949764161 1.40922614
    endloop
  endfacet
  facet normal -0.442924618 -0.833796247 0.32954757
    outer loop
      vertex 4.33071379 0.950174401 1.33738499
      vertex 4.38493776 0.949764161 1.40922614
      vertex 4.38409835 0.950453455 1.40984194
    endloop
  endfacet
  facet normal -0.593161851 -0.00310060229 -0.805077266
    outer loop
      vertex 4.33252362 0.952446634 1.3360428
      vertex 4.3315532 0.949485107 1.33676919
      vertex 4.33071379 0.950174401 1.33738499
    endloop
  endfacet
  facet normal 0.593161851 0.00310060229 0.805077266
    outer loop
      vertex 4.38590818 0.952725688 1.40849975
      vertex 4.38409835 0.950453455 1.40984194
      vertex 4.38493776 0.949764161 1.40922614
    endloop
  endfacet
  facet normal -0.151933903 -0.981592876 0.115721717
    outer loop
      vertex 4.3315532 0.949485107 1.33676919
      vertex 4.33254034 0.949246678 1.3360428
      vertex 4.38592491 0.949525732 1.40849975
    endloop
  endfacet
  facet normal -0.151933903 -0.981592876 0.115721717
    outer loop
      vertex 4.3315532 0.949485107 1.33676919
      vertex 4.38592491 0.949525732 1.40849975
      vertex 4.38493776 0.949764161 1.40922614
    endloop
  endfacet
  facet normal -0.593161851 -0.00310060229 -0.805077266
    outer loop
      vertex 4.33252362 0.952446634 1.3360428
      vertex 4.33254034 0.949246678 1.3360428
      vertex 4.3315532 0.949485107 1.33676919
    endloop
  endfacet
  facet normal 0.593161851 0.00310060229 0.805077266
    outer loop
      vertex 4.38590818 0.952725688 1.40849975
      vertex 4.38493776 0.949764161 1.40922614
      vertex 4.38592491 0.949525732 1.40849975
    endloop
  endfacet
endsolid f18_features
