solid a23_features
  facet normal 0.0434583539 -0.995276051 -0.0868156264
    outer loop
      vertex 3.86851887 1.50447709 1.63619682
      vertex 3.8696381 1.5045735 1.63565187
      vertex 3.90933648 1.49927656 1.71624953
    endloop
  endfacet
  facet normal 0.0434583539 -0.995276051 -0.0868156264
    outer loop
      vertex 3.86851887 1.50447709 1.63619682
      vertex 3.90933648 1.49927656 1.71624953
      vertex 3.90821724 1.49918016 1.71679447
    endloop
  endfacet
  facet normal -0.441093061 0.0588548002 -0.895529466
    outer loop
      vertex 3.86894209 1.50764898 1.63619682
      vertex 3.8696381 1.5045735 1.63565187
      vertex 3.86851887 1.50447709 1.63619682
    endloop
  endfacet
  facet normal 0.441093061 -0.0588548002 0.895529466
    outer loop
      vertex 3.90864046 1.50235205 1.71679447
      vertex 3.90821724 1.49918016 1.71679447
      vertex 3.90933648 1.49927656 1.71624953
    endloop
  endfacet
  facet normal 0.383190983 -0.889967417 -0.247229987
    outer loop
      vertex 3.8696381 1.5045735 1.63565187
      vertex 3.87065138 1.50513812 1.63518989
      vertex 3.91034975 1.49984118 1.71578755
    endloop
  endfacet
  facet normal 0.383190983 -0.889967417 -0.247229987
    outer loop
      vertex 3.8696381 1.5045735 1.63565187
      vertex 3.91034975 1.49984118 1.71578755
      vertex 3.90933648 1.49927656 1.71624953
    endloop
  endfacet
  facet normal -0.441093061 0.0588548002 -0.895529466
    outer loop
      vertex 3.86894209 1.50764898 1.63619682
      vertex 3.87065138 1.50513812 1.63518989
      vertex 3.8696381 1.5045735 1.63565187
    endloop
  endfacet
  facet normal 0.441093061 -0.0588548002 0.895529466
    outer loop
      vertex 3.90864046 1.50235205 1.71679447
      vertex 3.90933648 1.49927656 1.71624953
      vertex 3.91034975 1.49984118 1.71578755
    endloop
  endfacet
  facet normal 0.664586259 -0.649169311 -0.370005823
    outer loop
      vertex 3.87065138 1.50513812 1.63518989
      vertex 3.87140443 1.50608499 1.63488121
      vertex 3.9111028 1.50078806 1.71547886
    endloop
  endfacet
  facet normal 0.664586259 -0.649169311 -0.370005823
    outer loop
      vertex 3.87065138 1.50513812 1.63518989
      vertex 3.9111028 1.50078806 1.71547886
      vertex 3.91034975 1.49984118 1.71578755
    endloop
  endfacet
  facet normal -0.441093061 0.0588548002 -0.895529466
    outer loop
      vertex 3.86894209 1.50764898 1.63619682
      vertex 3.87140443 1.50608499 1.63488121
      vertex 3.87065138 1.50513812 1.63518989
    endloop
  endfacet
  facet normal 0.441093061 -0.0588548002 0.895529466
    outer loop
      vertex 3.90864046 1.50235205 1.71679447
      vertex 3.91034975 1.49984118 1.71578755
      vertex 3.9111028 1.50078806 1.71547886
    endloop
  endfacet
  facet normal 0.844804301 -0.309541063 -0.436451627
    outer loop
      vertex 3.87140443 1.50608499 1.63488121
      vertex 3.87178261 1.50726997 1.63477281
      vertex 3.91148099 1.50197304 1.71537046
    endloop
  endfacet
  facet normal 0.844804301 -0.309541063 -0.436451627
    outer loop
      vertex 3.87140443 1.50608499 1.63488121
      vertex 3.91148099 1.50197304 1.71537046
      vertex 3.9111028 1.50078806 1.71547886
    endloop
  endfacet
  facet normal -0.441093061 0.0588548002 -0.895529466
    outer loop
      vertex 3.86894209 1.50764898 1.63619682
      vertex 3.87178261 1.50726997 1.63477281
      vertex 3.87140443 1.50608499 1.63488121
    endloop
  endfacet
  facet normal 0.441093061 -0.0588548002 0.895529466
    outer loop
      vertex 3.90864046 1.50235205 1.71679447
      vertex 3.9111028 1.50078806 1.71547886
      vertex 3.91148099 1.50197304 1.71537046
    endloop
  endfacet
  facet normal 0.896408547 0.0772120068 -0.436451627
    outer loop
      vertex 3.87178261 1.50726997 1.63477281
      vertex 3.87172835 1.50851265 1.63488121
      vertex 3.91142672 1.50321572 1.71547886
    endloop
  endfacet
  facet normal 0.896408547 0.0772120068 -0.436451627
    outer loop
      vertex 3.87178261 1.50726997 1.63477281
      vertex 3.91142672 1.50321572 1.71547886
      vertex 3.91148099 1.50197304 1.71537046
    endloop
  endfacet
  facet normal -0.441093061 0.0588548002 -0.895529466
    outer loop
      vertex 3.86894209 1.50764898 1.63619682
      vertex 3.87172835 1.50851265 1.63488121
      vertex 3.87178261 1.50726997 1.63477281
    endloop
  endfacet
  facet normal 0.441093061 -0.0588548002 0.895529466
    outer loop
      vertex 3.90864046 1.50235205 1.71679447
      vertex 3.91148099 1.50197304 1.71537046
      vertex 3.91142672 1.50321572 1.71547886
    endloop
  endfacet
  facet normal 0.811542717 0.452210248 -0.370005823
    outer loop
      vertex 3.87172835 1.50851265 1.63488121
      vertex 3.8712499 1.50962384 1.63518989
      vertex 3.91094828 1.50432691 1.71578755
    endloop
  endfacet
  facet normal 0.811542717 0.452210248 -0.370005823
    outer loop
      vertex 3.87172835 1.50851265 1.63488121
      vertex 3.91094828 1.50432691 1.71578755
      vertex 3.91142672 1.50321572 1.71547886
    endloop
  endfacet
  facet normal -0.441093061 0.0588548002 -0.895529466
    outer loop
      vertex 3.86894209 1.50764898 1.63619682
      vertex 3.8712499 1.50962384 1.63518989
      vertex 3.87172835 1.50851265 1.63488121
    endloop
  endfacet
  facet normal 0.441093061 -0.0588548002 0.895529466
    outer loop
      vertex 3.90864046 1.50235205 1.71679447
      vertex 3.91142672 1.50321572 1.71547886
      vertex 3.91094828 1.50432691 1.71578755
    endloop
  endfacet
  facet normal 0.603126866 0.758363579 -0.247229987
    outer loop
      vertex 3.8712499 1.50962384 1.63518989
      vertex 3.87042012 1.51043438 1.63565187
      vertex 3.91011849 1.50513745 1.71624953
    endloop
  endfacet
  facet normal 0.603126866 0.758363579 -0.247229987
    outer loop
      vertex 3.8712499 1.50962384 1.63518989
      vertex 3.91011849 1.50513745 1.71624953
      vertex 3.91094828 1.50432691 1.71578755
    endloop
  endfacet
  facet normal -0.441093061 0.0588548002 -0.895529466
    outer loop
      vertex 3.86894209 1.50764898 1.63619682
      vertex 3.87042012 1.51043438 1.63565187
      vertex 3.8712499 1.50962384 1.63518989
    endloop
  endfacet
  facet normal 0.441093061 -0.0588548002 0.895529466
    outer loop
      vertex 3.90864046 1.50235205 1.71679447
      vertex 3.91094828 1.50432691 1.71578755
      vertex 3.91011849 1.50513745 1.71624953
    endloop
  endfacet
  facet normal 0.302890416 0.949062929 -0.0868156264
    outer loop
      vertex 3.87042012 1.51043438 1.63565187
      vertex 3.86936531 1.51082087 1.63619682
      vertex 3.90906369 1.50552394 1.71679447
    endloop
  endfacet
  facet normal 0.302890416 0.949062929 -0.0868156264
    outer loop
      vertex 3.87042012 1.51043438 1.63565187
      vertex 3.90906369 1.50552394 1.71679447
      vertex 3.91011849 1.50513745 1.71624953
    endloop
  endfacet
  facet normal -0.441093061 0.0588548002 -0.895529466
    outer loop
      vertex 3.86894209 1.50764898 1.63619682
      vertex 3.86936531 1.51082087 1.63619682
      vertex 3.87042012 1.51043438 1.63565187
    endloop
  endfacet
  facet normal 0.441093061 -0.0588548002 0.895529466
    outer loop
      vertex 3.90864046 1.50235205 1.71679447
      vertex 3.91011849 1.50513745 1.71624953
      vertex 3.90906369 1.50552394 1.71679447
    endloop
  endfacet
  facet normal -0.0434583539 0.995276051 0.0868156264
    outer loop
      vertex 3.86936531 1.51082087 1.63619682
      vertex 3.86824608 1.51072446 1.63674176
      vertex 3.90794445 1.50542753 1.71733941
    endloop
  endfacet
  facet normal -0.0434583539 0.995276051 0.0868156264
    outer loop
      vertex 3.86936531 1.51082087 1.63619682
      vertex 3.90794445 1.50542753 1.71733941
      vertex 3.90906369 1.50552394 1.71679447
    endloop
  endfacet
  facet normal -0.441093061 0.0588548002 -0.895529466
    outer loop
      vertex 3.86894209 1.50764898 1.63619682
      vertex 3.86824608 1.51072446 1.63674176
      vertex 3.86936531 1.51082087 1.63619682
    endloop
  endfacet
  facet normal 0.441093061 -0.0588548002 0.895529466
    outer loop
      vertex 3.90864046 1.50235205 1.71679447
      vertex 3.90906369 1.50552394 1.71679447
      vertex 3.90794445 1.50542753 1.71733941
    endloop
  endfacet
  facet normal -0.383190983 0.889967417 0.247229987
    outer loop
      vertex 3.86824608 1.51072446 1.63674176
      vertex 3.8672328 1.51015984 1.63720374
      vertex 3.90693118 1.50486291 1.7178014
    endloop
  endfacet
  facet normal -0.383190983 0.889967417 0.247229987
    outer loop
      vertex 3.86824608 1.51072446 1.63674176
      vertex 3.90693118 1.50486291 1.7178014
      vertex 3.90794445 1.50542753 1.71733941
    endloop
  endfacet
  facet normal -0.441093061 0.0588548002 -0.895529466
    outer loop
      vertex 3.86894209 1.50764898 1.63619682
      vertex 3.8672328 1.51015984 1.63720374
      vertex 3.86824608 1.51072446 1.63674176
    endloop
  endfacet
  facet normal 0.441093061 -0.0588548002 0.895529466
    outer loop
      vertex 3.90864046 1.50235205 1.71679447
      vertex 3.90794445 1.50542753 1.71733941
      vertex 3.90693118 1.50486291 1.7178014
    endloop
  endfacet
  facet normal -0.664586259 0.649169311 0.370005823
    outer loop
      vertex 3.8672328 1.51015984 1.63720374
      vertex 3.86647975 1.50921297 1.63751243
      vertex 3.90617813 1.50391604 1.71811008
    endloop
  endfacet
  facet normal -0.664586259 0.649169311 0.370005823
    outer loop
      vertex 3.8672328 1.51015984 1.63720374
      vertex 3.90617813 1.50391604 1.71811008
      vertex 3.90693118 1.50486291 1.7178014
    endloop
  endfacet
  facet normal -0.441093061 0.0588548002 -0.895529466
    outer loop
      vertex 3.86894209 1.50764898 1.63619682
      vertex 3.86647975 1.50921297 1.63751243
      vertex 3.8672328 1.51015984 1.63720374
    endloop
  endfacet
  facet normal 0.441093061 -0.0588548002 0.895529466
    outer loop
      vertex 3.90864046 1.50235205 1.71679447
      vertex 3.90693118 1.50486291 1.7178014
      vertex 3.90617813 1.50391604 1.71811008
    endloop
  endfacet
  facet normal -0.844804301 0.309541063 0.436451627
    outer loop
      vertex 3.86647975 1.50921297 1.63751243
      vertex 3.86610157 1.50802799 1.63762083
      vertex 3.90579994 1.50273106 1.71821848
    endloop
  endfacet
  facet normal -0.844804301 0.309541063 0.436451627
    outer loop
      vertex 3.86647975 1.50921297 1.63751243
      vertex 3.90579994 1.50273106 1.71821848
      vertex 3.90617813 1.50391604 1.71811008
    endloop
  endfacet
  facet normal -0.441093061 0.0588548002 -0.895529466
    outer loop
      vertex 3.86894209 1.50764898 1.63619682
      vertex 3.86610157 1.50802799 1.63762083
      vertex 3.86647975 1.50921297 1.63751243
    endloop
  endfacet
  facet normal 0.441093061 -0.0588548002 0.895529466
    outer loop
      vertex 3.90864046 1.50235205 1.71679447
      vertex 3.90617813 1.50391604 1.71811008
      vertex 3.90579994 1.50273106 1.71821848
    endloop
  endfacet
  facet normal -0.896408547 -0.0772120068 0.436451627
    outer loop
      vertex 3.86610157 1.50802799 1.63762083
      vertex 3.86615583 1.50678531 1.63751243
      vertex 3.90585421 1.50148838 1.71811008
    endloop
  endfacet
  facet normal -0.896408547 -0.0772120068 0.436451627
    outer loop
      vertex 3.86610157 1.50802799 1.63762083
      vertex 3.90585421 1.50148838 1.71811008
      vertex 3.90579994 1.50273106 1.71821848
    endloop
  endfacet
  facet normal -0.441093061 0.0588548002 -0.895529466
    outer loop
      vertex 3.86894209 1.50764898 1.63619682
      vertex 3.86615583 1.50678531 1.63751243
      vertex 3.86610157 1.50802799 1.63762083
    endloop
  endfacet
  facet normal 0.441093061 -0.0588548002 0.895529466
    outer loop
      vertex 3.90864046 1.50235205 1.71679447
      vertex 3.90579994 1.50273106 1.71821848
      vertex 3.90585421 1.50148838 1.71811008
    endloop
  endfacet
  facet normal -0.811542717 -0.452210248 0.370005823
    outer loop
      vertex 3.86615583 1.50678531 1.63751243
      vertex 3.86663427 1.50567411 1.63720374
      vertex 3.90633265 1.50037718 1.7178014
    endloop
  endfacet
  facet normal -0.811542717 -0.452210248 0.370005823
    outer loop
      vertex 3.86615583 1.50678531 1.63751243
      vertex 3.90633265 1.50037718 1.7178014
      vertex 3.90585421 1.50148838 1.71811008
    endloop
  endfacet
  facet normal -0.441093061 0.0588548002 -0.895529466
    outer loop
      vertex 3.86894209 1.50764898 1.63619682
      vertex 3.86663427 1.50567411 1.63720374
      vertex 3.86615583 1.50678531 1.63751243
    endloop
  endfacet
  facet normal 0.441093061 -0.0588548002 0.895529466
    outer loop
      vertex 3.90864046 1.50235205 1.71679447
      vertex 3.90585421 1.50148838 1.71811008
      vertex 3.90633265 1.50037718 1.7178014
    endloop
  endfacet
  facet normal -0.603126866 -0.758363579 0.247229987
    outer loop
      vertex 3.86663427 1.50567411 1.63720374
      vertex 3.86746406 1.50486358 1.63674176
      vertex 3.90716244 1.49956664 1.71733941
    endloop
  endfacet
  facet normal -0.603126866 -0.758363579 0.247229987
    outer loop
      vertex 3.86663427 1.50567411 1.63720374
      vertex 3.90716244 1.49956664 1.71733941
      vertex 3.90633265 1.50037718 1.7178014
    endloop
  endfacet
  facet normal -0.441093061 0.0588548002 -0.895529466
    outer loop
      vertex 3.86894209 1.50764898 1.63619682
      vertex 3.86746406 1.50486358 1.63674176
      vertex 3.86663427 1.50567411 1.63720374
    endloop
  endfacet
  facet normal 0.441093061 -0.0588548002 0.895529466
    outer loop
      vertex 3.90864046 1.50235205 1.71679447
      vertex 3.90633265 1.50037718 1.7178014
      vertex 3.90716244 1.49956664 1.71733941
    endloop
  endfacet
  facet normal -0.302890416 -0.949062929 0.0868156264
    outer loop
      vertex 3.86746406 1.50486358 1.63674176
      vertex 3.86851887 1.50447709 1.63619682
      vertex 3.90821724 1.49918016 1.71679447
    endloop
  endfacet
  facet normal -0.302890416 -0.949062929 0.0868156264
    outer loop
      vertex 3.86746406 1.50486358 1.63674176
      vertex 3.90821724 1.49918016 1.71679447
      vertex 3.90716244 1.49956664 1.71733941
    endloop
  endfacet
  facet normal -0.441093061 0.0588548002 -0.895529466
    outer loop
      vertex 3.86894209 1.50764898 1.63619682
      vertex 3.86851887 1.50447709 1.63619682
      vertex 3.86746406 1.50486358 1.63674176
    endloop
  endfacet
  facet normal 0.441093061 -0.0588548002 0.895529466
    outer loop
      vertex 3.90864046 1.50235205 1.71679447
      vertex 3.90716244 1.49956664 1.71733941
      vertex 3.90821724 1.49918016 1.71679447
    endloop
  endfacet
  facet normal 0.0434583539 -0.995276051 -0.0868156264
    outer loop
      vertex 3.84171377 1.50642151 1.64952746
      vertex 3.842833 1.50651792 1.64898251
      vertex 3.88253138 1.50122099 1.72958017
    endloop
  endfacet
  facet normal 0.0434583539 -0.995276051 -0.0868156264
    outer loop
      vertex 3.84171377 1.50642151 1.64952746
      vertex 3.88253138 1.50122099 1.72958017
      vertex 3.88141214 1.50112458 1.73012511
    endloop
  endfacet
  facet normal -0.441093061 0.0588548002 -0.895529466
    outer loop
      vertex 3.84213699 1.5095934 1.64952746
      vertex 3.842833 1.50651792 1.64898251
      vertex 3.84171377 1.50642151 1.64952746
    endloop
  endfacet
  facet normal 0.441093061 -0.0588548002 0.895529466
    outer loop
      vertex 3.88183537 1.50429647 1.73012511
      vertex 3.88141214 1.50112458 1.73012511
      vertex 3.88253138 1.50122099 1.72958017
    endloop
  endfacet
  facet normal 0.383190983 -0.889967417 -0.247229987
    outer loop
      vertex 3.842833 1.50651792 1.64898251
      vertex 3.84384628 1.50708254 1.64852053
      vertex 3.88354465 1.50178561 1.72911819
    endloop
  endfacet
  facet normal 0.383190983 -0.889967417 -0.247229987
    outer loop
      vertex 3.842833 1.50651792 1.64898251
      vertex 3.88354465 1.50178561 1.72911819
      vertex 3.88253138 1.50122099 1.72958017
    endloop
  endfacet
  facet normal -0.441093061 0.0588548002 -0.895529466
    outer loop
      vertex 3.84213699 1.5095934 1.64952746
      vertex 3.84384628 1.50708254 1.64852053
      vertex 3.842833 1.50651792 1.64898251
    endloop
  endfacet
  facet normal 0.441093061 -0.0588548002 0.895529466
    outer loop
      vertex 3.88183537 1.50429647 1.73012511
      vertex 3.88253138 1.50122099 1.72958017
      vertex 3.88354465 1.50178561 1.72911819
    endloop
  endfacet
  facet normal 0.664586259 -0.649169311 -0.370005823
    outer loop
      vertex 3.84384628 1.50708254 1.64852053
      vertex 3.84459933 1.50802941 1.64821185
      vertex 3.88429771 1.50273248 1.7288095
    endloop
  endfacet
  facet normal 0.664586259 -0.649169311 -0.370005823
    outer loop
      vertex 3.84384628 1.50708254 1.64852053
      vertex 3.88429771 1.50273248 1.7288095
      vertex 3.88354465 1.50178561 1.72911819
    endloop
  endfacet
  facet normal -0.441093061 0.0588548002 -0.895529466
    outer loop
      vertex 3.84213699 1.5095934 1.64952746
      vertex 3.84459933 1.50802941 1.64821185
      vertex 3.84384628 1.50708254 1.64852053
    endloop
  endfacet
  facet normal 0.441093061 -0.0588548002 0.895529466
    outer loop
      vertex 3.88183537 1.50429647 1.73012511
      vertex 3.88354465 1.50178561 1.72911819
      vertex 3.88429771 1.50273248 1.7288095
    endloop
  endfacet
  facet normal 0.844804301 -0.309541063 -0.436451627
    outer loop
      vertex 3.84459933 1.50802941 1.64821185
      vertex 3.84497751 1.50921439 1.64810345
      vertex 3.88467589 1.50391746 1.7287011
    endloop
  endfacet
  facet normal 0.844804301 -0.309541063 -0.436451627
    outer loop
      vertex 3.84459933 1.50802941 1.64821185
      vertex 3.88467589 1.50391746 1.7287011
      vertex 3.88429771 1.50273248 1.7288095
    endloop
  endfacet
  facet normal -0.441093061 0.0588548002 -0.895529466
    outer loop
      vertex 3.84213699 1.5095934 1.64952746
      vertex 3.84497751 1.50921439 1.64810345
      vertex 3.84459933 1.50802941 1.64821185
    endloop
  endfacet
  facet normal 0.441093061 -0.0588548002 0.895529466
    outer loop
      vertex 3.88183537 1.50429647 1.73012511
      vertex 3.88429771 1.50273248 1.7288095
      vertex 3.88467589 1.50391746 1.7287011
    endloop
  endfacet
  facet normal 0.896408547 0.0772120068 -0.436451627
    outer loop
      vertex 3.84497751 1.50921439 1.64810345
      vertex 3.84492325 1.51045707 1.64821185
      vertex 3.88462163 1.50516014 1.7288095
    endloop
  endfacet
  facet normal 0.896408547 0.0772120068 -0.436451627
    outer loop
      vertex 3.84497751 1.50921439 1.64810345
      vertex 3.88462163 1.50516014 1.7288095
      vertex 3.88467589 1.50391746 1.7287011
    endloop
  endfacet
  facet normal -0.441093061 0.0588548002 -0.895529466
    outer loop
      vertex 3.84213699 1.5095934 1.64952746
      vertex 3.84492325 1.51045707 1.64821185
      vertex 3.84497751 1.50921439 1.64810345
    endloop
  endfacet
  facet normal 0.441093061 -0.0588548002 0.895529466
    outer loop
      vertex 3.88183537 1.50429647 1.73012511
      vertex 3.88467589 1.50391746 1.7287011
      vertex 3.88462163 1.50516014 1.7288095
    endloop
  endfacet
  facet normal 0.811542717 0.452210248 -0.370005823
    outer loop
      vertex 3.84492325 1.51045707 1.64821185
      vertex 3.84444481 1.51156827 1.64852053
      vertex 3.88414318 1.50627133 1.72911819
    endloop
  endfacet
  facet normal 0.811542717 0.452210248 -0.370005823
    outer loop
      vertex 3.84492325 1.51045707 1.64821185
      vertex 3.88414318 1.50627133 1.72911819
      vertex 3.88462163 1.50516014 1.7288095
    endloop
  endfacet
  facet normal -0.441093061 0.0588548002 -0.895529466
    outer loop
      vertex 3.84213699 1.5095934 1.64952746
      vertex 3.84444481 1.51156827 1.64852053
      vertex 3.84492325 1.51045707 1.64821185
    endloop
  endfacet
  facet normal 0.441093061 -0.0588548002 0.895529466
    outer loop
      vertex 3.88183537 1.50429647 1.73012511
      vertex 3.88462163 1.50516014 1.7288095
      vertex 3.88414318 1.50627133 1.72911819
    endloop
  endfacet
  facet normal 0.603126866 0.758363579 -0.247229987
    outer loop
      vertex 3.84444481 1.51156827 1.64852053
      vertex 3.84361502 1.5123788 1.64898251
      vertex 3.88331339 1.50708187 1.72958017
    endloop
  endfacet
  facet normal 0.603126866 0.758363579 -0.247229987
    outer loop
      vertex 3.84444481 1.51156827 1.64852053
      vertex 3.88331339 1.50708187 1.72958017
      vertex 3.88414318 1.50627133 1.72911819
    endloop
  endfacet
  facet normal -0.441093061 0.0588548002 -0.895529466
    outer loop
      vertex 3.84213699 1.5095934 1.64952746
      vertex 3.84361502 1.5123788 1.64898251
      vertex 3.84444481 1.51156827 1.64852053
    endloop
  endfacet
  facet normal 0.441093061 -0.0588548002 0.895529466
    outer loop
      vertex 3.88183537 1.50429647 1.73012511
      vertex 3.88414318 1.50627133 1.72911819
      vertex 3.88331339 1.50708187 1.72958017
    endloop
  endfacet
  facet normal 0.302890416 0.949062929 -0.0868156264
    outer loop
      vertex 3.84361502 1.5123788 1.64898251
      vertex 3.84256022 1.51276529 1.64952746
      vertex 3.88225859 1.50746836 1.73012511
    endloop
  endfacet
  facet normal 0.302890416 0.949062929 -0.0868156264
    outer loop
      vertex 3.84361502 1.5123788 1.64898251
      vertex 3.88225859 1.50746836 1.73012511
      vertex 3.88331339 1.50708187 1.72958017
    endloop
  endfacet
  facet normal -0.441093061 0.0588548002 -0.895529466
    outer loop
      vertex 3.84213699 1.5095934 1.64952746
      vertex 3.84256022 1.51276529 1.64952746
      vertex 3.84361502 1.5123788 1.64898251
    endloop
  endfacet
  facet normal 0.441093061 -0.0588548002 0.895529466
    outer loop
      vertex 3.88183537 1.50429647 1.73012511
      vertex 3.88331339 1.50708187 1.72958017
      vertex 3.88225859 1.50746836 1.73012511
    endloop
  endfacet
  facet normal -0.0434583539 0.995276051 0.0868156264
    outer loop
      vertex 3.84256022 1.51276529 1.64952746
      vertex 3.84144098 1.51266889 1.6500724
      vertex 3.88113935 1.50737195 1.73067005
    endloop
  endfacet
  facet normal -0.0434583539 0.995276051 0.0868156264
    outer loop
      vertex 3.84256022 1.51276529 1.64952746
      vertex 3.88113935 1.50737195 1.73067005
      vertex 3.88225859 1.50746836 1.73012511
    endloop
  endfacet
  facet normal -0.441093061 0.0588548002 -0.895529466
    outer loop
      vertex 3.84213699 1.5095934 1.64952746
      vertex 3.84144098 1.51266889 1.6500724
      vertex 3.84256022 1.51276529 1.64952746
    endloop
  endfacet
  facet normal 0.441093061 -0.0588548002 0.895529466
    outer loop
      vertex 3.88183537 1.50429647 1.73012511
      vertex 3.88225859 1.50746836 1.73012511
      vertex 3.88113935 1.50737195 1.73067005
    endloop
  endfacet
  facet normal -0.383190983 0.889967417 0.247229987
    outer loop
      vertex 3.84144098 1.51266889 1.6500724
      vertex 3.8404277 1.51210427 1.65053438
      vertex 3.88012608 1.50680733 1.73113204
    endloop
  endfacet
  facet normal -0.383190983 0.889967417 0.247229987
    outer loop
      vertex 3.84144098 1.51266889 1.6500724
      vertex 3.88012608 1.50680733 1.73113204
      vertex 3.88113935 1.50737195 1.73067005
    endloop
  endfacet
  facet normal -0.441093061 0.0588548002 -0.895529466
    outer loop
      vertex 3.84213699 1.5095934 1.64952746
      vertex 3.8404277 1.51210427 1.65053438
      vertex 3.84144098 1.51266889 1.6500724
    endloop
  endfacet
  facet normal 0.441093061 -0.0588548002 0.895529466
    outer loop
      vertex 3.88183537 1.50429647 1.73012511
      vertex 3.88113935 1.50737195 1.73067005
      vertex 3.88012608 1.50680733 1.73113204
    endloop
  endfacet
  facet normal -0.664586259 0.649169311 0.370005823
    outer loop
      vertex 3.8404277 1.51210427 1.65053438
      vertex 3.83967465 1.51115739 1.65084307
      vertex 3.87937303 1.50586046 1.73144072
    endloop
  endfacet
  facet normal -0.664586259 0.649169311 0.370005823
    outer loop
      vertex 3.8404277 1.51210427 1.65053438
      vertex 3.87937303 1.50586046 1.73144072
      vertex 3.88012608 1.50680733 1.73113204
    endloop
  endfacet
  facet normal -0.441093061 0.0588548002 -0.895529466
    outer loop
      vertex 3.84213699 1.5095934 1.64952746
      vertex 3.83967465 1.51115739 1.65084307
      vertex 3.8404277 1.51210427 1.65053438
    endloop
  endfacet
  facet normal 0.441093061 -0.0588548002 0.895529466
    outer loop
      vertex 3.88183537 1.50429647 1.73012511
      vertex 3.88012608 1.50680733 1.73113204
      vertex 3.87937303 1.50586046 1.73144072
    endloop
  endfacet
  facet normal -0.844804301 0.309541063 0.436451627
    outer loop
      vertex 3.83967465 1.51115739 1.65084307
      vertex 3.83929647 1.50997241 1.65095147
      vertex 3.87899485 1.50467548 1.73154912
    endloop
  endfacet
  facet normal -0.844804301 0.309541063 0.436451627
    outer loop
      vertex 3.83967465 1.51115739 1.65084307
      vertex 3.87899485 1.50467548 1.73154912
      vertex 3.87937303 1.50586046 1.73144072
    endloop
  endfacet
  facet normal -0.441093061 0.0588548002 -0.895529466
    outer loop
      vertex 3.84213699 1.5095934 1.64952746
      vertex 3.83929647 1.50997241 1.65095147
      vertex 3.83967465 1.51115739 1.65084307
    endloop
  endfacet
  facet normal 0.441093061 -0.0588548002 0.895529466
    outer loop
      vertex 3.88183537 1.50429647 1.73012511
      vertex 3.87937303 1.50586046 1.73144072
      vertex 3.87899485 1.50467548 1.73154912
    endloop
  endfacet
  facet normal -0.896408547 -0.0772120068 0.436451627
    outer loop
      vertex 3.83929647 1.50997241 1.65095147
      vertex 3.83935073 1.50872973 1.65084307
      vertex 3.87904911 1.5034328 1.73144072
    endloop
  endfacet
  facet normal -0.896408547 -0.0772120068 0.436451627
    outer loop
      vertex 3.83929647 1.50997241 1.65095147
      vertex 3.87904911 1.5034328 1.73144072
      vertex 3.87899485 1.50467548 1.73154912
    endloop
  endfacet
  facet normal -0.441093061 0.0588548002 -0.895529466
    outer loop
      vertex 3.84213699 1.5095934 1.64952746
      vertex 3.83935073 1.50872973 1.65084307
      vertex 3.83929647 1.50997241 1.65095147
    endloop
  endfacet
  facet normal 0.441093061 -0.0588548002 0.895529466
    outer loop
      vertex 3.88183537 1.50429647 1.73012511
      vertex 3.87899485 1.50467548 1.73154912
      vertex 3.87904911 1.5034328 1.73144072
    endloop
  endfacet
  facet normal -0.811542717 -0.452210248 0.370005823
    outer loop
      vertex 3.83935073 1.50872973 1.65084307
      vertex 3.83982918 1.50761854 1.65053438
      vertex 3.87952755 1.50232161 1.73113204
    endloop
  endfacet
  facet normal -0.811542717 -0.452210248 0.370005823
    outer loop
      vertex 3.83935073 1.50872973 1.65084307
      vertex 3.87952755 1.50232161 1.73113204
      vertex 3.87904911 1.5034328 1.73144072
    endloop
  endfacet
  facet normal -0.441093061 0.0588548002 -0.895529466
    outer loop
      vertex 3.84213699 1.5095934 1.64952746
      vertex 3.83982918 1.50761854 1.65053438
      vertex 3.83935073 1.50872973 1.65084307
    endloop
  endfacet
  facet normal 0.441093061 -0.0588548002 0.895529466
    outer loop
      vertex 3.88183537 1.50429647 1.73012511
      vertex 3.87904911 1.5034328 1.73144072
      vertex 3.87952755 1.50232161 1.73113204
    endloop
  endfacet
  facet normal -0.603126866 -0.758363579 0.247229987
    outer loop
      vertex 3.83982918 1.50761854 1.65053438
      vertex 3.84065896 1.506808 1.6500724
      vertex 3.88035734 1.50151107 1.73067005
    endloop
  endfacet
  facet normal -0.603126866 -0.758363579 0.247229987
    outer loop
      vertex 3.83982918 1.50761854 1.65053438
      vertex 3.88035734 1.50151107 1.73067005
      vertex 3.87952755 1.50232161 1.73113204
    endloop
  endfacet
  facet normal -0.441093061 0.0588548002 -0.895529466
    outer loop
      vertex 3.84213699 1.5095934 1.64952746
      vertex 3.84065896 1.506808 1.6500724
      vertex 3.83982918 1.50761854 1.65053438
    endloop
  endfacet
  facet normal 0.441093061 -0.0588548002 0.895529466
    outer loop
      vertex 3.88183537 1.50429647 1.73012511
      vertex 3.87952755 1.50232161 1.73113204
      vertex 3.88035734 1.50151107 1.73067005
    endloop
  endfacet
  facet normal -0.302890416 -0.949062929 0.0868156264
    outer loop
      vertex 3.84065896 1.506808 1.6500724
      vertex 3.84171377 1.50642151 1.64952746
      vertex 3.88141214 1.50112458 1.73012511
    endloop
  endfacet
  facet normal -0.302890416 -0.949062929 0.0868156264
    outer loop
      vertex 3.84065896 1.506808 1.6500724
      vertex 3.88141214 1.50112458 1.73012511
      vertex 3.88035734 1.50151107 1.73067005
    endloop
  endfacet
  facet normal -0.441093061 0.0588548002 -0.895529466
    outer loop
      vertex 3.84213699 1.5095934 1.64952746
      vertex 3.84171377 1.50642151 1.64952746
      vertex 3.84065896 1.506808 1.6500724
    endloop
  endfacet
  facet normal 0.441093061 -0.0588548002 0.895529466
    outer loop
      vertex 3.88183537 1.50429647 1.73012511
      vertex 3.88035734 1.50151107 1.73067005
      vertex 3.88141214 1.50112458 1.73012511
    endloop
  endfacet
  facet normal -0.815827611 -0.549274779 -0.18089369
    outer loop
      vertex 3.97388051 1.72184627 1.63122307
      vertex 3.97378823 1.72235728 1.63008759
      vertex 4.05982117 1.61307393 1.57391391
    endloop
  endfacet
  facet normal -0.815827611 -0.549274779 -0.18089369
    outer loop
      vertex 3.97388051 1.72184627 1.63122307
      vertex 4.05982117 1.61307393 1.57391391
      vertex 4.05991345 1.61256292 1.57504939
    endloop
  endfacet
  facet normal -0.57355296 0.728555651 0.374491209
    outer loop
      vertex 3.97639485 1.72382568 1.63122307
      vertex 3.97378823 1.72235728 1.63008759
      vertex 3.97388051 1.72184627 1.63122307
    endloop
  endfacet
  facet normal 0.57355296 -0.728555651 -0.374491209
    outer loop
      vertex 4.0624278 1.61454233 1.57504939
      vertex 4.05991345 1.61256292 1.57504939
      vertex 4.05982117 1.61307393 1.57391391
    endloop
  endfacet
  facet normal -0.782009591 -0.350841967 -0.515141645
    outer loop
      vertex 3.97378823 1.72235728 1.63008759
      vertex 3.97409278 1.72309184 1.62912498
      vertex 4.06012573 1.61380849 1.5729513
    endloop
  endfacet
  facet normal -0.782009591 -0.350841967 -0.515141645
    outer loop
      vertex 3.97378823 1.72235728 1.63008759
      vertex 4.06012573 1.61380849 1.5729513
      vertex 4.05982117 1.61307393 1.57391391
    endloop
  endfacet
  facet normal -0.57355296 0.728555651 0.374491209
    outer loop
      vertex 3.97639485 1.72382568 1.63122307
      vertex 3.97409278 1.72309184 1.62912498
      vertex 3.97378823 1.72235728 1.63008759
    endloop
  endfacet
  facet normal 0.57355296 -0.728555651 -0.374491209
    outer loop
      vertex 4.0624278 1.61454233 1.57504939
      vertex 4.05982117 1.61307393 1.57391391
      vertex 4.06012573 1.61380849 1.5729513
    endloop
  endfacet
  facet normal -0.629137699 -0.0989966459 -0.770963955
    outer loop
      vertex 3.97409278 1.72309184 1.62912498
      vertex 3.97474781 1.72393812 1.62848179
      vertex 4.06078075 1.61465477 1.57230811
    endloop
  endfacet
  facet normal -0.629137699 -0.0989966459 -0.770963955
    outer loop
      vertex 3.97409278 1.72309184 1.62912498
      vertex 4.06078075 1.61465477 1.57230811
      vertex 4.06012573 1.61380849 1.5729513
    endloop
  endfacet
  facet normal -0.57355296 0.728555651 0.374491209
    outer loop
      vertex 3.97639485 1.72382568 1.63122307
      vertex 3.97474781 1.72393812 1.62848179
      vertex 3.97409278 1.72309184 1.62912498
    endloop
  endfacet
  facet normal 0.57355296 -0.728555651 -0.374491209
    outer loop
      vertex 4.0624278 1.61454233 1.57504939
      vertex 4.06012573 1.61380849 1.5729513
      vertex 4.06078075 1.61465477 1.57230811
    endloop
  endfacet
  facet normal -0.380485296 0.167920017 -0.909413991
    outer loop
      vertex 3.97474781 1.72393812 1.62848179
      vertex 3.97565358 1.72476728 1.62825593
      vertex 4.06168652 1.61548394 1.57208225
    endloop
  endfacet
  facet normal -0.380485296 0.167920017 -0.909413991
    outer loop
      vertex 3.97474781 1.72393812 1.62848179
      vertex 4.06168652 1.61548394 1.57208225
      vertex 4.06078075 1.61465477 1.57230811
    endloop
  endfacet
  facet normal -0.57355296 0.728555651 0.374491209
    outer loop
      vertex 3.97639485 1.72382568 1.63122307
      vertex 3.97565358 1.72476728 1.62825593
      vertex 3.97474781 1.72393812 1.62848179
    endloop
  endfacet
  facet normal 0.57355296 -0.728555651 -0.374491209
    outer loop
      vertex 4.0624278 1.61454233 1.57504939
      vertex 4.06078075 1.61465477 1.57230811
      vertex 4.06168652 1.61548394 1.57208225
    endloop
  endfacet
  facet normal -0.0739074558 0.409272379 -0.909413991
    outer loop
      vertex 3.97565358 1.72476728 1.62825593
      vertex 3.9766722 1.7254531 1.62848179
      vertex 4.06270515 1.61616975 1.57230811
    endloop
  endfacet
  facet normal -0.0739074558 0.409272379 -0.909413991
    outer loop
      vertex 3.97565358 1.72476728 1.62825593
      vertex 4.06270515 1.61616975 1.57230811
      vertex 4.06168652 1.61548394 1.57208225
    endloop
  endfacet
  facet normal -0.57355296 0.728555651 0.374491209
    outer loop
      vertex 3.97639485 1.72382568 1.63122307
      vertex 3.9766722 1.7254531 1.62848179
      vertex 3.97565358 1.72476728 1.62825593
    endloop
  endfacet
  facet normal 0.57355296 -0.728555651 -0.374491209
    outer loop
      vertex 4.0624278 1.61454233 1.57504939
      vertex 4.06168652 1.61548394 1.57208225
      vertex 4.06270515 1.61616975 1.57230811
    endloop
  endfacet
  facet normal 0.243922125 0.588316732 -0.770963955
    outer loop
      vertex 3.9766722 1.7254531 1.62848179
      vertex 3.9776486 1.72589115 1.62912498
      vertex 4.06368155 1.6166078 1.5729513
    endloop
  endfacet
  facet normal 0.243922125 0.588316732 -0.770963955
    outer loop
      vertex 3.9766722 1.7254531 1.62848179
      vertex 4.06368155 1.6166078 1.5729513
      vertex 4.06270515 1.61616975 1.57230811
    endloop
  endfacet
  facet normal -0.57355296 0.728555651 0.374491209
    outer loop
      vertex 3.97639485 1.72382568 1.63122307
      vertex 3.9776486 1.72589115 1.62912498
      vertex 3.9766722 1.7254531 1.62848179
    endloop
  endfacet
  facet normal 0.57355296 -0.728555651 -0.374491209
    outer loop
      vertex 4.0624278 1.61454233 1.57504939
      vertex 4.06270515 1.61616975 1.57230811
      vertex 4.06368155 1.6166078 1.5729513
    endloop
  endfacet
  facet normal 0.524616773 0.677795196 -0.515141645
    outer loop
      vertex 3.9776486 1.72589115 1.62912498
      vertex 3.97843413 1.72601475 1.63008759
      vertex 4.06446708 1.61673141 1.57391391
    endloop
  endfacet
  facet normal 0.524616773 0.677795196 -0.515141645
    outer loop
      vertex 3.9776486 1.72589115 1.62912498
      vertex 4.06446708 1.61673141 1.57391391
      vertex 4.06368155 1.6166078 1.5729513
    endloop
  endfacet
  facet normal -0.57355296 0.728555651 0.374491209
    outer loop
      vertex 3.97639485 1.72382568 1.63122307
      vertex 3.97843413 1.72601475 1.63008759
      vertex 3.9776486 1.72589115 1.62912498
    endloop
  endfacet
  facet normal 0.57355296 -0.728555651 -0.374491209
    outer loop
      vertex 4.0624278 1.61454233 1.57504939
      vertex 4.06368155 1.6166078 1.5729513
      vertex 4.06446708 1.61673141 1.57391391
    endloop
  endfacet
  facet normal 0.725443273 0.664085485 -0.18089369
    outer loop
      vertex 3.97843413 1.72601475 1.63008759
      vertex 3.9789092 1.72580509 1.63122307
      vertex 4.06494214 1.61652174 1.57504939
    endloop
  endfacet
  facet normal 0.725443273 0.664085485 -0.18089369
    outer loop
      vertex 3.97843413 1.72601475 1.63008759
      vertex 4.06494214 1.61652174 1.57504939
      vertex 4.06446708 1.61673141 1.57391391
    endloop
  endfacet
  facet normal -0.57355296 0.728555651 0.374491209
    outer loop
      vertex 3.97639485 1.72382568 1.63122307
      vertex 3.9789092 1.72580509 1.63122307
      vertex 3.97843413 1.72601475 1.63008759
    endloop
  endfacet
  facet normal 0.57355296 -0.728555651 -0.374491209
    outer loop
      vertex 4.0624278 1.61454233 1.57504939
      vertex 4.06446708 1.61673141 1.57391391
      vertex 4.06494214 1.61652174 1.57504939
    endloop
  endfacet
  facet normal 0.815827611 0.549274779 0.18089369
    outer loop
      vertex 3.9789092 1.72580509 1.63122307
      vertex 3.97900148 1.72529408 1.63235854
      vertex 4.06503442 1.61601074 1.57618486
    endloop
  endfacet
  facet normal 0.815827611 0.549274779 0.18089369
    outer loop
      vertex 3.9789092 1.72580509 1.63122307
      vertex 4.06503442 1.61601074 1.57618486
      vertex 4.06494214 1.61652174 1.57504939
    endloop
  endfacet
  facet normal -0.57355296 0.728555651 0.374491209
    outer loop
      vertex 3.97639485 1.72382568 1.63122307
      vertex 3.97900148 1.72529408 1.63235854
      vertex 3.9789092 1.72580509 1.63122307
    endloop
  endfacet
  facet normal 0.57355296 -0.728555651 -0.374491209
    outer loop
      vertex 4.0624278 1.61454233 1.57504939
      vertex 4.06494214 1.61652174 1.57504939
      vertex 4.06503442 1.61601074 1.57618486
    endloop
  endfacet
  facet normal 0.782009591 0.350841967 0.515141645
    outer loop
      vertex 3.97900148 1.72529408 1.63235854
      vertex 3.97869692 1.72455952 1.63332115
      vertex 4.06472987 1.61527618 1.57714747
    endloop
  endfacet
  facet normal 0.782009591 0.350841967 0.515141645
    outer loop
      vertex 3.97900148 1.72529408 1.63235854
      vertex 4.06472987 1.61527618 1.57714747
      vertex 4.06503442 1.61601074 1.57618486
    endloop
  endfacet
  facet normal -0.57355296 0.728555651 0.374491209
    outer loop
      vertex 3.97639485 1.72382568 1.63122307
      vertex 3.97869692 1.72455952 1.63332115
      vertex 3.97900148 1.72529408 1.63235854
    endloop
  endfacet
  facet normal 0.57355296 -0.728555651 -0.374491209
    outer loop
      vertex 4.0624278 1.61454233 1.57504939
      vertex 4.06503442 1.61601074 1.57618486
      vertex 4.06472987 1.61527618 1.57714747
    endloop
  endfacet
  facet normal 0.629137699 0.0989966459 0.770963955
    outer loop
      vertex 3.97869692 1.72455952 1.63332115
      vertex 3.9780419 1.72371324 1.63396435
      vertex 4.06407484 1.6144299 1.57779066
    endloop
  endfacet
  facet normal 0.629137699 0.0989966459 0.770963955
    outer loop
      vertex 3.97869692 1.72455952 1.63332115
      vertex 4.06407484 1.6144299 1.57779066
      vertex 4.06472987 1.61527618 1.57714747
    endloop
  endfacet
  facet normal -0.57355296 0.728555651 0.374491209
    outer loop
      vertex 3.97639485 1.72382568 1.63122307
      vertex 3.9780419 1.72371324 1.63396435
      vertex 3.97869692 1.72455952 1.63332115
    endloop
  endfacet
  facet normal 0.57355296 -0.728555651 -0.374491209
    outer loop
      vertex 4.0624278 1.61454233 1.57504939
      vertex 4.06472987 1.61527618 1.57714747
      vertex 4.06407484 1.6144299 1.57779066
    endloop
  endfacet
  facet normal 0.380485296 -0.167920017 0.909413991
    outer loop
      vertex 3.9780419 1.72371324 1.63396435
      vertex 3.97713612 1.72288408 1.6341902
      vertex 4.06316907 1.61360073 1.57801652
    endloop
  endfacet
  facet normal 0.380485296 -0.167920017 0.909413991
    outer loop
      vertex 3.9780419 1.72371324 1.63396435
      vertex 4.06316907 1.61360073 1.57801652
      vertex 4.06407484 1.6144299 1.57779066
    endloop
  endfacet
  facet normal -0.57355296 0.728555651 0.374491209
    outer loop
      vertex 3.97639485 1.72382568 1.63122307
      vertex 3.97713612 1.72288408 1.6341902
      vertex 3.9780419 1.72371324 1.63396435
    endloop
  endfacet
  facet normal 0.57355296 -0.728555651 -0.374491209
    outer loop
      vertex 4.0624278 1.61454233 1.57504939
      vertex 4.06407484 1.6144299 1.57779066
      vertex 4.06316907 1.61360073 1.57801652
    endloop
  endfacet
  facet normal 0.0739074558 -0.409272379 0.909413991
    outer loop
      vertex 3.97713612 1.72288408 1.6341902
      vertex 3.9761175 1.72219827 1.63396435
      vertex 4.06215044 1.61291492 1.57779066
    endloop
  endfacet
  facet normal 0.0739074558 -0.409272379 0.909413991
    outer loop
      vertex 3.97713612 1.72288408 1.6341902
      vertex 4.06215044 1.61291492 1.57779066
      vertex 4.06316907 1.61360073 1.57801652
    endloop
  endfacet
  facet normal -0.57355296 0.728555651 0.374491209
    outer loop
      vertex 3.97639485 1.72382568 1.63122307
      vertex 3.9761175 1.72219827 1.63396435
      vertex 3.97713612 1.72288408 1.6341902
    endloop
  endfacet
  facet normal 0.57355296 -0.728555651 -0.374491209
    outer loop
      vertex 4.0624278 1.61454233 1.57504939
      vertex 4.06316907 1.61360073 1.57801652
      vertex 4.06215044 1.61291492 1.57779066
    endloop
  endfacet
  facet normal -0.243922125 -0.588316732 0.770963955
    outer loop
      vertex 3.9761175 1.72219827 1.63396435
      vertex 3.9751411 1.72176022 1.63332115
      vertex 4.06117404 1.61247687 1.57714747
    endloop
  endfacet
  facet normal -0.243922125 -0.588316732 0.770963955
    outer loop
      vertex 3.9761175 1.72219827 1.63396435
      vertex 4.06117404 1.61247687 1.57714747
      vertex 4.06215044 1.61291492 1.57779066
    endloop
  endfacet
  facet normal -0.57355296 0.728555651 0.374491209
    outer loop
      vertex 3.97639485 1.72382568 1.63122307
      vertex 3.9751411 1.72176022 1.63332115
      vertex 3.9761175 1.72219827 1.63396435
    endloop
  endfacet
  facet normal 0.57355296 -0.728555651 -0.374491209
    outer loop
      vertex 4.0624278 1.61454233 1.57504939
      vertex 4.06215044 1.61291492 1.57779066
      vertex 4.06117404 1.61247687 1.57714747
    endloop
  endfacet
  facet normal -0.524616773 -0.677795196 0.515141645
    outer loop
      vertex 3.9751411 1.72176022 1.63332115
      vertex 3.97435557 1.72163661 1.63235854
      vertex 4.06038852 1.61235326 1.57618486
    endloop
  endfacet
  facet normal -0.524616773 -0.677795196 0.515141645
    outer loop
      vertex 3.9751411 1.72176022 1.63332115
      vertex 4.06038852 1.61235326 1.57618486
      vertex 4.06117404 1.61247687 1.57714747
    endloop
  endfacet
  facet normal -0.57355296 0.728555651 0.374491209
    outer loop
      vertex 3.97639485 1.72382568 1.63122307
      vertex 3.97435557 1.72163661 1.63235854
      vertex 3.9751411 1.72176022 1.63332115
    endloop
  endfacet
  facet normal 0.57355296 -0.728555651 -0.374491209
    outer loop
      vertex 4.0624278 1.61454233 1.57504939
      vertex 4.06117404 1.61247687 1.57714747
      vertex 4.06038852 1.61235326 1.57618486
    endloop
  endfacet
  facet normal -0.725443273 -0.664085485 0.18089369
    outer loop
      vertex 3.97435557 1.72163661 1.63235854
      vertex 3.97388051 1.72184627 1.63122307
      vertex 4.05991345 1.61256292 1.57504939
    endloop
  endfacet
  facet normal -0.725443273 -0.664085485 0.18089369
    outer loop
      vertex 3.97435557 1.72163661 1.63235854
      vertex 4.05991345 1.61256292 1.57504939
      vertex 4.06038852 1.61235326 1.57618486
    endloop
  endfacet
  facet normal -0.57355296 0.728555651 0.374491209
    outer loop
      vertex 3.97639485 1.72382568 1.63122307
      vertex 3.97388051 1.72184627 1.63122307
      vertex 3.97435557 1.72163661 1.63235854
    endloop
  endfacet
  facet normal 0.57355296 -0.728555651 -0.374491209
    outer loop
      vertex 4.0624278 1.61454233 1.57504939
      vertex 4.06038852 1.61235326 1.57618486
      vertex 4.05991345 1.61256292 1.57504939
    endloop
  endfacet
  facet normal -0.815827611 -0.549274779 -0.18089369
    outer loop
      vertex 3.98794461 1.71935738 1.657605
      vertex 3.98785233 1.71986839 1.65646953
      vertex 4.07388527 1.61058504 1.60029585
    endloop
  endfacet
  facet normal -0.815827611 -0.549274779 -0.18089369
    outer loop
      vertex 3.98794461 1.71935738 1.657605
      vertex 4.07388527 1.61058504 1.60029585
      vertex 4.07397755 1.61007404 1.60143132
    endloop
  endfacet
  facet normal -0.57355296 0.728555651 0.374491209
    outer loop
      vertex 3.99045896 1.72133679 1.657605
      vertex 3.98785233 1.71986839 1.65646953
      vertex 3.98794461 1.71935738 1.657605
    endloop
  endfacet
  facet normal 0.57355296 -0.728555651 -0.374491209
    outer loop
      vertex 4.0764919 1.61205345 1.60143132
      vertex 4.07397755 1.61007404 1.60143132
      vertex 4.07388527 1.61058504 1.60029585
    endloop
  endfacet
  facet normal -0.782009591 -0.350841967 -0.515141645
    outer loop
      vertex 3.98785233 1.71986839 1.65646953
      vertex 3.98815689 1.72060295 1.65550692
      vertex 4.07418983 1.6113196 1.59933324
    endloop
  endfacet
  facet normal -0.782009591 -0.350841967 -0.515141645
    outer loop
      vertex 3.98785233 1.71986839 1.65646953
      vertex 4.07418983 1.6113196 1.59933324
      vertex 4.07388527 1.61058504 1.60029585
    endloop
  endfacet
  facet normal -0.57355296 0.728555651 0.374491209
    outer loop
      vertex 3.99045896 1.72133679 1.657605
      vertex 3.98815689 1.72060295 1.65550692
      vertex 3.98785233 1.71986839 1.65646953
    endloop
  endfacet
  facet normal 0.57355296 -0.728555651 -0.374491209
    outer loop
      vertex 4.0764919 1.61205345 1.60143132
      vertex 4.07388527 1.61058504 1.60029585
      vertex 4.07418983 1.6113196 1.59933324
    endloop
  endfacet
  facet normal -0.629137699 -0.0989966459 -0.770963955
    outer loop
      vertex 3.98815689 1.72060295 1.65550692
      vertex 3.98881191 1.72144923 1.65486372
      vertex 4.07484486 1.61216588 1.59869004
    endloop
  endfacet
  facet normal -0.629137699 -0.0989966459 -0.770963955
    outer loop
      vertex 3.98815689 1.72060295 1.65550692
      vertex 4.07484486 1.61216588 1.59869004
      vertex 4.07418983 1.6113196 1.59933324
    endloop
  endfacet
  facet normal -0.57355296 0.728555651 0.374491209
    outer loop
      vertex 3.99045896 1.72133679 1.657605
      vertex 3.98881191 1.72144923 1.65486372
      vertex 3.98815689 1.72060295 1.65550692
    endloop
  endfacet
  facet normal 0.57355296 -0.728555651 -0.374491209
    outer loop
      vertex 4.0764919 1.61205345 1.60143132
      vertex 4.07418983 1.6113196 1.59933324
      vertex 4.07484486 1.61216588 1.59869004
    endloop
  endfacet
  facet normal -0.380485296 0.167920017 -0.909413991
    outer loop
      vertex 3.98881191 1.72144923 1.65486372
      vertex 3.98971768 1.72227839 1.65463786
      vertex 4.07575063 1.61299505 1.59846418
    endloop
  endfacet
  facet normal -0.380485296 0.167920017 -0.909413991
    outer loop
      vertex 3.98881191 1.72144923 1.65486372
      vertex 4.07575063 1.61299505 1.59846418
      vertex 4.07484486 1.61216588 1.59869004
    endloop
  endfacet
  facet normal -0.57355296 0.728555651 0.374491209
    outer loop
      vertex 3.99045896 1.72133679 1.657605
      vertex 3.98971768 1.72227839 1.65463786
      vertex 3.98881191 1.72144923 1.65486372
    endloop
  endfacet
  facet normal 0.57355296 -0.728555651 -0.374491209
    outer loop
      vertex 4.0764919 1.61205345 1.60143132
      vertex 4.07484486 1.61216588 1.59869004
      vertex 4.07575063 1.61299505 1.59846418
    endloop
  endfacet
  facet normal -0.0739074558 0.409272379 -0.909413991
    outer loop
      vertex 3.98971768 1.72227839 1.65463786
      vertex 3.99073631 1.72296421 1.65486372
      vertex 4.07676925 1.61368086 1.59869004
    endloop
  endfacet
  facet normal -0.0739074558 0.409272379 -0.909413991
    outer loop
      vertex 3.98971768 1.72227839 1.65463786
      vertex 4.07676925 1.61368086 1.59869004
      vertex 4.07575063 1.61299505 1.59846418
    endloop
  endfacet
  facet normal -0.57355296 0.728555651 0.374491209
    outer loop
      vertex 3.99045896 1.72133679 1.657605
      vertex 3.99073631 1.72296421 1.65486372
      vertex 3.98971768 1.72227839 1.65463786
    endloop
  endfacet
  facet normal 0.57355296 -0.728555651 -0.374491209
    outer loop
      vertex 4.0764919 1.61205345 1.60143132
      vertex 4.07575063 1.61299505 1.59846418
      vertex 4.07676925 1.61368086 1.59869004
    endloop
  endfacet
  facet normal 0.243922125 0.588316732 -0.770963955
    outer loop
      vertex 3.99073631 1.72296421 1.65486372
      vertex 3.99171271 1.72340226 1.65550692
      vertex 4.07774565 1.61411891 1.59933324
    endloop
  endfacet
  facet normal 0.243922125 0.588316732 -0.770963955
    outer loop
      vertex 3.99073631 1.72296421 1.65486372
      vertex 4.07774565 1.61411891 1.59933324
      vertex 4.07676925 1.61368086 1.59869004
    endloop
  endfacet
  facet normal -0.57355296 0.728555651 0.374491209
    outer loop
      vertex 3.99045896 1.72133679 1.657605
      vertex 3.99171271 1.72340226 1.65550692
      vertex 3.99073631 1.72296421 1.65486372
    endloop
  endfacet
  facet normal 0.57355296 -0.728555651 -0.374491209
    outer loop
      vertex 4.0764919 1.61205345 1.60143132
      vertex 4.07676925 1.61368086 1.59869004
      vertex 4.07774565 1.61411891 1.59933324
    endloop
  endfacet
  facet normal 0.524616773 0.677795196 -0.515141645
    outer loop
      vertex 3.99171271 1.72340226 1.65550692
      vertex 3.99249824 1.72352587 1.65646953
      vertex 4.07853118 1.61424252 1.60029585
    endloop
  endfacet
  facet normal 0.524616773 0.677795196 -0.515141645
    outer loop
      vertex 3.99171271 1.72340226 1.65550692
      vertex 4.07853118 1.61424252 1.60029585
      vertex 4.07774565 1.61411891 1.59933324
    endloop
  endfacet
  facet normal -0.57355296 0.728555651 0.374491209
    outer loop
      vertex 3.99045896 1.72133679 1.657605
      vertex 3.99249824 1.72352587 1.65646953
      vertex 3.99171271 1.72340226 1.65550692
    endloop
  endfacet
  facet normal 0.57355296 -0.728555651 -0.374491209
    outer loop
      vertex 4.0764919 1.61205345 1.60143132
      vertex 4.07774565 1.61411891 1.59933324
      vertex 4.07853118 1.61424252 1.60029585
    endloop
  endfacet
  facet normal 0.725443273 0.664085485 -0.18089369
    outer loop
      vertex 3.99249824 1.72352587 1.65646953
      vertex 3.9929733 1.7233162 1.657605
      vertex 4.07900625 1.61403286 1.60143132
    endloop
  endfacet
  facet normal 0.725443273 0.664085485 -0.18089369
    outer loop
      vertex 3.99249824 1.72352587 1.65646953
      vertex 4.07900625 1.61403286 1.60143132
      vertex 4.07853118 1.61424252 1.60029585
    endloop
  endfacet
  facet normal -0.57355296 0.728555651 0.374491209
    outer loop
      vertex 3.99045896 1.72133679 1.657605
      vertex 3.9929733 1.7233162 1.657605
      vertex 3.99249824 1.72352587 1.65646953
    endloop
  endfacet
  facet normal 0.57355296 -0.728555651 -0.374491209
    outer loop
      vertex 4.0764919 1.61205345 1.60143132
      vertex 4.07853118 1.61424252 1.60029585
      vertex 4.07900625 1.61403286 1.60143132
    endloop
  endfacet
  facet normal 0.815827611 0.549274779 0.18089369
    outer loop
      vertex 3.9929733 1.7233162 1.657605
      vertex 3.99306558 1.7228052 1.65874048
      vertex 4.07909852 1.61352185 1.60256679
    endloop
  endfacet
  facet normal 0.815827611 0.549274779 0.18089369
    outer loop
      vertex 3.9929733 1.7233162 1.657605
      vertex 4.07909852 1.61352185 1.60256679
      vertex 4.07900625 1.61403286 1.60143132
    endloop
  endfacet
  facet normal -0.57355296 0.728555651 0.374491209
    outer loop
      vertex 3.99045896 1.72133679 1.657605
      vertex 3.99306558 1.7228052 1.65874048
      vertex 3.9929733 1.7233162 1.657605
    endloop
  endfacet
  facet normal 0.57355296 -0.728555651 -0.374491209
    outer loop
      vertex 4.0764919 1.61205345 1.60143132
      vertex 4.07900625 1.61403286 1.60143132
      vertex 4.07909852 1.61352185 1.60256679
    endloop
  endfacet
  facet normal 0.782009591 0.350841967 0.515141645
    outer loop
      vertex 3.99306558 1.7228052 1.65874048
      vertex 3.99276103 1.72207064 1.65970308
      vertex 4.07879397 1.61278729 1.6035294
    endloop
  endfacet
  facet normal 0.782009591 0.350841967 0.515141645
    outer loop
      vertex 3.99306558 1.7228052 1.65874048
      vertex 4.07879397 1.61278729 1.6035294
      vertex 4.07909852 1.61352185 1.60256679
    endloop
  endfacet
  facet normal -0.57355296 0.728555651 0.374491209
    outer loop
      vertex 3.99045896 1.72133679 1.657605
      vertex 3.99276103 1.72207064 1.65970308
      vertex 3.99306558 1.7228052 1.65874048
    endloop
  endfacet
  facet normal 0.57355296 -0.728555651 -0.374491209
    outer loop
      vertex 4.0764919 1.61205345 1.60143132
      vertex 4.07909852 1.61352185 1.60256679
      vertex 4.07879397 1.61278729 1.6035294
    endloop
  endfacet
  facet normal 0.629137699 0.0989966459 0.770963955
    outer loop
      vertex 3.99276103 1.72207064 1.65970308
      vertex 3.992106 1.72122436 1.66034628
      vertex 4.07813894 1.61194101 1.6041726
    endloop
  endfacet
  facet normal 0.629137699 0.0989966459 0.770963955
    outer loop
      vertex 3.99276103 1.72207064 1.65970308
      vertex 4.07813894 1.61194101 1.6041726
      vertex 4.07879397 1.61278729 1.6035294
    endloop
  endfacet
  facet normal -0.57355296 0.728555651 0.374491209
    outer loop
      vertex 3.99045896 1.72133679 1.657605
      vertex 3.992106 1.72122436 1.66034628
      vertex 3.99276103 1.72207064 1.65970308
    endloop
  endfacet
  facet normal 0.57355296 -0.728555651 -0.374491209
    outer loop
      vertex 4.0764919 1.61205345 1.60143132
      vertex 4.07879397 1.61278729 1.6035294
      vertex 4.07813894 1.61194101 1.6041726
    endloop
  endfacet
  facet normal 0.380485296 -0.167920017 0.909413991
    outer loop
      vertex 3.992106 1.72122436 1.66034628
      vertex 3.99120023 1.72039519 1.66057214
      vertex 4.07723317 1.61111185 1.60439846
    endloop
  endfacet
  facet normal 0.380485296 -0.167920017 0.909413991
    outer loop
      vertex 3.992106 1.72122436 1.66034628
      vertex 4.07723317 1.61111185 1.60439846
      vertex 4.07813894 1.61194101 1.6041726
    endloop
  endfacet
  facet normal -0.57355296 0.728555651 0.374491209
    outer loop
      vertex 3.99045896 1.72133679 1.657605
      vertex 3.99120023 1.72039519 1.66057214
      vertex 3.992106 1.72122436 1.66034628
    endloop
  endfacet
  facet normal 0.57355296 -0.728555651 -0.374491209
    outer loop
      vertex 4.0764919 1.61205345 1.60143132
      vertex 4.07813894 1.61194101 1.6041726
      vertex 4.07723317 1.61111185 1.60439846
    endloop
  endfacet
  facet normal 0.0739074558 -0.409272379 0.909413991
    outer loop
      vertex 3.99120023 1.72039519 1.66057214
      vertex 3.9901816 1.71970938 1.66034628
      vertex 4.07621455 1.61042603 1.6041726
    endloop
  endfacet
  facet normal 0.0739074558 -0.409272379 0.909413991
    outer loop
      vertex 3.99120023 1.72039519 1.66057214
      vertex 4.07621455 1.61042603 1.6041726
      vertex 4.07723317 1.61111185 1.60439846
    endloop
  endfacet
  facet normal -0.57355296 0.728555651 0.374491209
    outer loop
      vertex 3.99045896 1.72133679 1.657605
      vertex 3.9901816 1.71970938 1.66034628
      vertex 3.99120023 1.72039519 1.66057214
    endloop
  endfacet
  facet normal 0.57355296 -0.728555651 -0.374491209
    outer loop
      vertex 4.0764919 1.61205345 1.60143132
      vertex 4.07723317 1.61111185 1.60439846
      vertex 4.07621455 1.61042603 1.6041726
    endloop
  endfacet
  facet normal -0.243922125 -0.588316732 0.770963955
    outer loop
      vertex 3.9901816 1.71970938 1.66034628
      vertex 3.9892052 1.71927133 1.65970308
      vertex 4.07523815 1.60998798 1.6035294
    endloop
  endfacet
  facet normal -0.243922125 -0.588316732 0.770963955
    outer loop
      vertex 3.9901816 1.71970938 1.66034628
      vertex 4.07523815 1.60998798 1.6035294
      vertex 4.07621455 1.61042603 1.6041726
    endloop
  endfacet
  facet normal -0.57355296 0.728555651 0.374491209
    outer loop
      vertex 3.99045896 1.72133679 1.657605
      vertex 3.9892052 1.71927133 1.65970308
      vertex 3.9901816 1.71970938 1.66034628
    endloop
  endfacet
  facet normal 0.57355296 -0.728555651 -0.374491209
    outer loop
      vertex 4.0764919 1.61205345 1.60143132
      vertex 4.07621455 1.61042603 1.6041726
      vertex 4.07523815 1.60998798 1.6035294
    endloop
  endfacet
  facet normal -0.524616773 -0.677795196 0.515141645
    outer loop
      vertex 3.9892052 1.71927133 1.65970308
      vertex 3.98841968 1.71914772 1.65874048
      vertex 4.07445262 1.60986437 1.60256679
    endloop
  endfacet
  facet normal -0.524616773 -0.677795196 0.515141645
    outer loop
      vertex 3.9892052 1.71927133 1.65970308
      vertex 4.07445262 1.60986437 1.60256679
      vertex 4.07523815 1.60998798 1.6035294
    endloop
  endfacet
  facet normal -0.57355296 0.728555651 0.374491209
    outer loop
      vertex 3.99045896 1.72133679 1.657605
      vertex 3.98841968 1.71914772 1.65874048
      vertex 3.9892052 1.71927133 1.65970308
    endloop
  endfacet
  facet normal 0.57355296 -0.728555651 -0.374491209
    outer loop
      vertex 4.0764919 1.61205345 1.60143132
      vertex 4.07523815 1.60998798 1.6035294
      vertex 4.07445262 1.60986437 1.60256679
    endloop
  endfacet
  facet normal -0.725443273 -0.664085485 0.18089369
    outer loop
      vertex 3.98841968 1.71914772 1.65874048
      vertex 3.98794461 1.71935738 1.657605
      vertex 4.07397755 1.61007404 1.60143132
    endloop
  endfacet
  facet normal -0.725443273 -0.664085485 0.18089369
    outer loop
      vertex 3.98841968 1.71914772 1.65874048
      vertex 4.07397755 1.61007404 1.60143132
      vertex 4.07445262 1.60986437 1.60256679
    endloop
  endfacet
  facet normal -0.57355296 0.728555651 0.374491209
    outer loop
      vertex 3.99045896 1.72133679 1.657605
      vertex 3.98794461 1.71935738 1.657605
      vertex 3.98841968 1.71914772 1.65874048
    endloop
  endfacet
  facet normal 0.57355296 -0.728555651 -0.374491209
    outer loop
      vertex 4.0764919 1.61205345 1.60143132
      vertex 4.07445262 1.60986437 1.60256679
      vertex 4.07397755 1.61007404 1.60143132
    endloop
  endfacet
  facet normal 0.907301395 -0.195086456 -0.372485508
    outer loop
      vertex 4.11315892 1.81881188 1.66951138
      vertex 4.11293055 1.81758731 1.66959647
      vertex 4.06749658 1.81834276 1.5585326
    endloop
  endfacet
  facet normal 0.907301395 -0.195086456 -0.372485508
    outer loop
      vertex 4.11315892 1.81881188 1.66951138
      vertex 4.06749658 1.81834276 1.5585326
      vertex 4.06772495 1.81956732 1.55844751
    endloop
  endfacet
  facet normal 0.378616421 -0.00629540562 0.925532265
    outer loop
      vertex 4.11019716 1.81881188 1.67072298
      vertex 4.11293055 1.81758731 1.66959647
      vertex 4.11315892 1.81881188 1.66951138
    endloop
  endfacet
  facet normal -0.378616421 0.00629540562 -0.925532265
    outer loop
      vertex 4.06476319 1.81956732 1.55965911
      vertex 4.06772495 1.81956732 1.55844751
      vertex 4.06749658 1.81834276 1.5585326
    endloop
  endfacet
  facet normal 0.768242951 -0.555559224 -0.318051438
    outer loop
      vertex 4.11293055 1.81758731 1.66959647
      vertex 4.11228604 1.81654918 1.66985306
      vertex 4.06685207 1.81730463 1.55878919
    endloop
  endfacet
  facet normal 0.768242951 -0.555559224 -0.318051438
    outer loop
      vertex 4.11293055 1.81758731 1.66959647
      vertex 4.06685207 1.81730463 1.55878919
      vertex 4.06749658 1.81834276 1.5585326
    endloop
  endfacet
  facet normal 0.378616421 -0.00629540562 0.925532265
    outer loop
      vertex 4.11019716 1.81881188 1.67072298
      vertex 4.11228604 1.81654918 1.66985306
      vertex 4.11293055 1.81758731 1.66959647
    endloop
  endfacet
  facet normal -0.378616421 0.00629540562 -0.925532265
    outer loop
      vertex 4.06476319 1.81956732 1.55965911
      vertex 4.06749658 1.81834276 1.5585326
      vertex 4.06685207 1.81730463 1.55878919
    endloop
  endfacet
  facet normal 0.512226482 -0.831453136 -0.21519692
    outer loop
      vertex 4.11228604 1.81654918 1.66985306
      vertex 4.11132353 1.81585552 1.67024209
      vertex 4.06588956 1.81661097 1.55917822
    endloop
  endfacet
  facet normal 0.512226482 -0.831453136 -0.21519692
    outer loop
      vertex 4.11228604 1.81654918 1.66985306
      vertex 4.06588956 1.81661097 1.55917822
      vertex 4.06685207 1.81730463 1.55878919
    endloop
  endfacet
  facet normal 0.378616421 -0.00629540562 0.925532265
    outer loop
      vertex 4.11019716 1.81881188 1.67072298
      vertex 4.11132353 1.81585552 1.67024209
      vertex 4.11228604 1.81654918 1.66985306
    endloop
  endfacet
  facet normal -0.378616421 0.00629540562 -0.925532265
    outer loop
      vertex 4.06476319 1.81956732 1.55965911
      vertex 4.06685207 1.81730463 1.55878919
      vertex 4.06588956 1.81661097 1.55917822
    endloop
  endfacet
  facet normal 0.178228175 -0.980765845 -0.0795806211
    outer loop
      vertex 4.11132353 1.81585552 1.67024209
      vertex 4.11018953 1.81561194 1.67070433
      vertex 4.06475556 1.81636739 1.55964046
    endloop
  endfacet
  facet normal 0.178228175 -0.980765845 -0.0795806211
    outer loop
      vertex 4.11132353 1.81585552 1.67024209
      vertex 4.06475556 1.81636739 1.55964046
      vertex 4.06588956 1.81661097 1.55917822
    endloop
  endfacet
  facet normal 0.378616421 -0.00629540562 0.925532265
    outer loop
      vertex 4.11019716 1.81881188 1.67072298
      vertex 4.11018953 1.81561194 1.67070433
      vertex 4.11132353 1.81585552 1.67024209
    endloop
  endfacet
  facet normal -0.378616421 0.00629540562 -0.925532265
    outer loop
      vertex 4.06476319 1.81956732 1.55965911
      vertex 4.06588956 1.81661097 1.55917822
      vertex 4.06475556 1.81636739 1.55964046
    endloop
  endfacet
  facet normal -0.182903757 -0.980765845 0.0681511056
    outer loop
      vertex 4.11018953 1.81561194 1.67070433
      vertex 4.10905669 1.81585552 1.67116941
      vertex 4.06362272 1.81661097 1.56010554
    endloop
  endfacet
  facet normal -0.182903757 -0.980765845 0.0681511056
    outer loop
      vertex 4.11018953 1.81561194 1.67070433
      vertex 4.06362272 1.81661097 1.56010554
      vertex 4.06475556 1.81636739 1.55964046
    endloop
  endfacet
  facet normal 0.378616421 -0.00629540562 0.925532265
    outer loop
      vertex 4.11019716 1.81881188 1.67072298
      vertex 4.10905669 1.81585552 1.67116941
      vertex 4.11018953 1.81561194 1.67070433
    endloop
  endfacet
  facet normal -0.378616421 0.00629540562 -0.925532265
    outer loop
      vertex 4.06476319 1.81956732 1.55965911
      vertex 4.06475556 1.81636739 1.55964046
      vertex 4.06362272 1.81661097 1.56010554
    endloop
  endfacet
  facet normal -0.516190249 -0.831453136 0.205507444
    outer loop
      vertex 4.10905669 1.81585552 1.67116941
      vertex 4.10809748 1.81654918 1.67156652
      vertex 4.06266351 1.81730463 1.56050265
    endloop
  endfacet
  facet normal -0.516190249 -0.831453136 0.205507444
    outer loop
      vertex 4.10905669 1.81585552 1.67116941
      vertex 4.06266351 1.81730463 1.56050265
      vertex 4.06362272 1.81661097 1.56010554
    endloop
  endfacet
  facet normal 0.378616421 -0.00629540562 0.925532265
    outer loop
      vertex 4.11019716 1.81881188 1.67072298
      vertex 4.10809748 1.81654918 1.67156652
      vertex 4.10905669 1.81585552 1.67116941
    endloop
  endfacet
  facet normal -0.378616421 0.00629540562 -0.925532265
    outer loop
      vertex 4.06476319 1.81956732 1.55965911
      vertex 4.06362272 1.81661097 1.56010554
      vertex 4.06266351 1.81730463 1.56050265
    endloop
  endfacet
  facet normal -0.770891456 -0.555559224 0.311577137
    outer loop
      vertex 4.10809748 1.81654918 1.67156652
      vertex 4.10745793 1.81758731 1.67183521
      vertex 4.06202396 1.81834276 1.56077134
    endloop
  endfacet
  facet normal -0.770891456 -0.555559224 0.311577137
    outer loop
      vertex 4.10809748 1.81654918 1.67156652
      vertex 4.06202396 1.81834276 1.56077134
      vertex 4.06266351 1.81730463 1.56050265
    endloop
  endfacet
  facet normal 0.378616421 -0.00629540562 0.925532265
    outer loop
      vertex 4.11019716 1.81881188 1.67072298
      vertex 4.10745793 1.81758731 1.67183521
      vertex 4.10809748 1.81654918 1.67156652
    endloop
  endfacet
  facet normal -0.378616421 0.00629540562 -0.925532265
    outer loop
      vertex 4.06476319 1.81956732 1.55965911
      vertex 4.06266351 1.81730463 1.56050265
      vertex 4.06202396 1.81834276 1.56077134
    endloop
  endfacet
  facet normal -0.908231426 -0.195086456 0.370212036
    outer loop
      vertex 4.10745793 1.81758731 1.67183521
      vertex 4.10723539 1.81881188 1.67193457
      vertex 4.06180142 1.81956732 1.5608707
    endloop
  endfacet
  facet normal -0.908231426 -0.195086456 0.370212036
    outer loop
      vertex 4.10745793 1.81758731 1.67183521
      vertex 4.06180142 1.81956732 1.5608707
      vertex 4.06202396 1.81834276 1.56077134
    endloop
  endfacet
  facet normal 0.378616421 -0.00629540562 0.925532265
    outer loop
      vertex 4.11019716 1.81881188 1.67072298
      vertex 4.10723539 1.81881188 1.67193457
      vertex 4.10745793 1.81758731 1.67183521
    endloop
  endfacet
  facet normal -0.378616421 0.00629540562 -0.925532265
    outer loop
      vertex 4.06476319 1.81956732 1.55965911
      vertex 4.06202396 1.81834276 1.56077134
      vertex 4.06180142 1.81956732 1.5608707
    endloop
  endfacet
  facet normal -0.907301395 0.195086456 0.372485508
    outer loop
      vertex 4.10723539 1.81881188 1.67193457
      vertex 4.10746376 1.82003644 1.67184948
      vertex 4.06202979 1.82079189 1.56078561
    endloop
  endfacet
  facet normal -0.907301395 0.195086456 0.372485508
    outer loop
      vertex 4.10723539 1.81881188 1.67193457
      vertex 4.06202979 1.82079189 1.56078561
      vertex 4.06180142 1.81956732 1.5608707
    endloop
  endfacet
  facet normal 0.378616421 -0.00629540562 0.925532265
    outer loop
      vertex 4.11019716 1.81881188 1.67072298
      vertex 4.10746376 1.82003644 1.67184948
      vertex 4.10723539 1.81881188 1.67193457
    endloop
  endfacet
  facet normal -0.378616421 0.00629540562 -0.925532265
    outer loop
      vertex 4.06476319 1.81956732 1.55965911
      vertex 4.06180142 1.81956732 1.5608707
      vertex 4.06202979 1.82079189 1.56078561
    endloop
  endfacet
  facet normal -0.768242951 0.555559224 0.318051438
    outer loop
      vertex 4.10746376 1.82003644 1.67184948
      vertex 4.10810827 1.82107457 1.67159289
      vertex 4.0626743 1.82183002 1.56052902
    endloop
  endfacet
  facet normal -0.768242951 0.555559224 0.318051438
    outer loop
      vertex 4.10746376 1.82003644 1.67184948
      vertex 4.0626743 1.82183002 1.56052902
      vertex 4.06202979 1.82079189 1.56078561
    endloop
  endfacet
  facet normal 0.378616421 -0.00629540562 0.925532265
    outer loop
      vertex 4.11019716 1.81881188 1.67072298
      vertex 4.10810827 1.82107457 1.67159289
      vertex 4.10746376 1.82003644 1.67184948
    endloop
  endfacet
  facet normal -0.378616421 0.00629540562 -0.925532265
    outer loop
      vertex 4.06476319 1.81956732 1.55965911
      vertex 4.06202979 1.82079189 1.56078561
      vertex 4.0626743 1.82183002 1.56052902
    endloop
  endfacet
  facet normal -0.512226482 0.831453136 0.21519692
    outer loop
      vertex 4.10810827 1.82107457 1.67159289
      vertex 4.10907079 1.82176823 1.67120386
      vertex 4.06363682 1.82252368 1.56013999
    endloop
  endfacet
  facet normal -0.512226482 0.831453136 0.21519692
    outer loop
      vertex 4.10810827 1.82107457 1.67159289
      vertex 4.06363682 1.82252368 1.56013999
      vertex 4.0626743 1.82183002 1.56052902
    endloop
  endfacet
  facet normal 0.378616421 -0.00629540562 0.925532265
    outer loop
      vertex 4.11019716 1.81881188 1.67072298
      vertex 4.10907079 1.82176823 1.67120386
      vertex 4.10810827 1.82107457 1.67159289
    endloop
  endfacet
  facet normal -0.378616421 0.00629540562 -0.925532265
    outer loop
      vertex 4.06476319 1.81956732 1.55965911
      vertex 4.0626743 1.82183002 1.56052902
      vertex 4.06363682 1.82252368 1.56013999
    endloop
  endfacet
  facet normal -0.178228175 0.980765845 0.0795806211
    outer loop
      vertex 4.10907079 1.82176823 1.67120386
      vertex 4.11020478 1.82201181 1.67074162
      vertex 4.06477081 1.82276726 1.55967775
    endloop
  endfacet
  facet normal -0.178228175 0.980765845 0.0795806211
    outer loop
      vertex 4.10907079 1.82176823 1.67120386
      vertex 4.06477081 1.82276726 1.55967775
      vertex 4.06363682 1.82252368 1.56013999
    endloop
  endfacet
  facet normal 0.378616421 -0.00629540562 0.925532265
    outer loop
      vertex 4.11019716 1.81881188 1.67072298
      vertex 4.11020478 1.82201181 1.67074162
      vertex 4.10907079 1.82176823 1.67120386
    endloop
  endfacet
  facet normal -0.378616421 0.00629540562 -0.925532265
    outer loop
      vertex 4.06476319 1.81956732 1.55965911
      vertex 4.06363682 1.82252368 1.56013999
      vertex 4.06477081 1.82276726 1.55967775
    endloop
  endfacet
  facet normal 0.182903757 0.980765845 -0.0681511056
    outer loop
      vertex 4.11020478 1.82201181 1.67074162
      vertex 4.11133762 1.82176823 1.67027655
      vertex 4.06590365 1.82252368 1.55921267
    endloop
  endfacet
  facet normal 0.182903757 0.980765845 -0.0681511056
    outer loop
      vertex 4.11020478 1.82201181 1.67074162
      vertex 4.06590365 1.82252368 1.55921267
      vertex 4.06477081 1.82276726 1.55967775
    endloop
  endfacet
  facet normal 0.378616421 -0.00629540562 0.925532265
    outer loop
      vertex 4.11019716 1.81881188 1.67072298
      vertex 4.11133762 1.82176823 1.67027655
      vertex 4.11020478 1.82201181 1.67074162
    endloop
  endfacet
  facet normal -0.378616421 0.00629540562 -0.925532265
    outer loop
      vertex 4.06476319 1.81956732 1.55965911
      vertex 4.06477081 1.82276726 1.55967775
      vertex 4.06590365 1.82252368 1.55921267
    endloop
  endfacet
  facet normal 0.516190249 0.831453136 -0.205507444
    outer loop
      vertex 4.11133762 1.82176823 1.67027655
      vertex 4.11229683 1.82107457 1.66987943
      vertex 4.06686286 1.82183002 1.55881556
    endloop
  endfacet
  facet normal 0.516190249 0.831453136 -0.205507444
    outer loop
      vertex 4.11133762 1.82176823 1.67027655
      vertex 4.06686286 1.82183002 1.55881556
      vertex 4.06590365 1.82252368 1.55921267
    endloop
  endfacet
  facet normal 0.378616421 -0.00629540562 0.925532265
    outer loop
      vertex 4.11019716 1.81881188 1.67072298
      vertex 4.11229683 1.82107457 1.66987943
      vertex 4.11133762 1.82176823 1.67027655
    endloop
  endfacet
  facet normal -0.378616421 0.00629540562 -0.925532265
    outer loop
      vertex 4.06476319 1.81956732 1.55965911
      vertex 4.06590365 1.82252368 1.55921267
      vertex 4.06686286 1.82183002 1.55881556
    endloop
  endfacet
  facet normal 0.770891456 0.555559224 -0.311577137
    outer loop
      vertex 4.11229683 1.82107457 1.66987943
      vertex 4.11293639 1.82003644 1.66961074
      vertex 4.06750242 1.82079189 1.55854687
    endloop
  endfacet
  facet normal 0.770891456 0.555559224 -0.311577137
    outer loop
      vertex 4.11229683 1.82107457 1.66987943
      vertex 4.06750242 1.82079189 1.55854687
      vertex 4.06686286 1.82183002 1.55881556
    endloop
  endfacet
  facet normal 0.378616421 -0.00629540562 0.925532265
    outer loop
      vertex 4.11019716 1.81881188 1.67072298
      vertex 4.11293639 1.82003644 1.66961074
      vertex 4.11229683 1.82107457 1.66987943
    endloop
  endfacet
  facet normal -0.378616421 0.00629540562 -0.925532265
    outer loop
      vertex 4.06476319 1.81956732 1.55965911
      vertex 4.06686286 1.82183002 1.55881556
      vertex 4.06750242 1.82079189 1.55854687
    endloop
  endfacet
  facet normal 0.908231426 0.195086456 -0.370212036
    outer loop
      vertex 4.11293639 1.82003644 1.66961074
      vertex 4.11315892 1.81881188 1.66951138
      vertex 4.06772495 1.81956732 1.55844751
    endloop
  endfacet
  facet normal 0.908231426 0.195086456 -0.370212036
    outer loop
      vertex 4.11293639 1.82003644 1.66961074
      vertex 4.06772495 1.81956732 1.55844751
      vertex 4.06750242 1.82079189 1.55854687
    endloop
  endfacet
  facet normal 0.378616421 -0.00629540562 0.925532265
    outer loop
      vertex 4.11019716 1.81881188 1.67072298
      vertex 4.11315892 1.81881188 1.66951138
      vertex 4.11293639 1.82003644 1.66961074
    endloop
  endfacet
  facet normal -0.378616421 0.00629540562 -0.925532265
    outer loop
      vertex 4.06476319 1.81956732 1.55965911
      vertex 4.06750242 1.82079189 1.55854687
      vertex 4.06772495 1.81956732 1.55844751
    endloop
  endfacet
  facet normal 0.907301395 -0.195086456 -0.372485508
    outer loop
      vertex 4.12286482 1.79073203 1.6653499
      vertex 4.12263645 1.78950747 1.66543499
      vertex 4.07720248 1.79026292 1.55437112
    endloop
  endfacet
  facet normal 0.907301395 -0.195086456 -0.372485508
    outer loop
      vertex 4.12286482 1.79073203 1.6653499
      vertex 4.07720248 1.79026292 1.55437112
      vertex 4.07743085 1.79148748 1.55428602
    endloop
  endfacet
  facet normal 0.378616421 -0.00629540562 0.925532265
    outer loop
      vertex 4.11990306 1.79073203 1.66656149
      vertex 4.12263645 1.78950747 1.66543499
      vertex 4.12286482 1.79073203 1.6653499
    endloop
  endfacet
  facet normal -0.378616421 0.00629540562 -0.925532265
    outer loop
      vertex 4.07446909 1.79148748 1.55549762
      vertex 4.07743085 1.79148748 1.55428602
      vertex 4.07720248 1.79026292 1.55437112
    endloop
  endfacet
  facet normal 0.768242951 -0.555559224 -0.318051438
    outer loop
      vertex 4.12263645 1.78950747 1.66543499
      vertex 4.12199195 1.78846934 1.66569158
      vertex 4.07655798 1.78922479 1.55462771
    endloop
  endfacet
  facet normal 0.768242951 -0.555559224 -0.318051438
    outer loop
      vertex 4.12263645 1.78950747 1.66543499
      vertex 4.07655798 1.78922479 1.55462771
      vertex 4.07720248 1.79026292 1.55437112
    endloop
  endfacet
  facet normal 0.378616421 -0.00629540562 0.925532265
    outer loop
      vertex 4.11990306 1.79073203 1.66656149
      vertex 4.12199195 1.78846934 1.66569158
      vertex 4.12263645 1.78950747 1.66543499
    endloop
  endfacet
  facet normal -0.378616421 0.00629540562 -0.925532265
    outer loop
      vertex 4.07446909 1.79148748 1.55549762
      vertex 4.07720248 1.79026292 1.55437112
      vertex 4.07655798 1.78922479 1.55462771
    endloop
  endfacet
  facet normal 0.512226482 -0.831453136 -0.21519692
    outer loop
      vertex 4.12199195 1.78846934 1.66569158
      vertex 4.12102943 1.78777568 1.66608061
      vertex 4.07559546 1.78853113 1.55501674
    endloop
  endfacet
  facet normal 0.512226482 -0.831453136 -0.21519692
    outer loop
      vertex 4.12199195 1.78846934 1.66569158
      vertex 4.07559546 1.78853113 1.55501674
      vertex 4.07655798 1.78922479 1.55462771
    endloop
  endfacet
  facet normal 0.378616421 -0.00629540562 0.925532265
    outer loop
      vertex 4.11990306 1.79073203 1.66656149
      vertex 4.12102943 1.78777568 1.66608061
      vertex 4.12199195 1.78846934 1.66569158
    endloop
  endfacet
  facet normal -0.378616421 0.00629540562 -0.925532265
    outer loop
      vertex 4.07446909 1.79148748 1.55549762
      vertex 4.07655798 1.78922479 1.55462771
      vertex 4.07559546 1.78853113 1.55501674
    endloop
  endfacet
  facet normal 0.178228175 -0.980765845 -0.0795806211
    outer loop
      vertex 4.12102943 1.78777568 1.66608061
      vertex 4.11989543 1.7875321 1.66654285
      vertex 4.07446146 1.78828755 1.55547898
    endloop
  endfacet
  facet normal 0.178228175 -0.980765845 -0.0795806211
    outer loop
      vertex 4.12102943 1.78777568 1.66608061
      vertex 4.07446146 1.78828755 1.55547898
      vertex 4.07559546 1.78853113 1.55501674
    endloop
  endfacet
  facet normal 0.378616421 -0.00629540562 0.925532265
    outer loop
      vertex 4.11990306 1.79073203 1.66656149
      vertex 4.11989543 1.7875321 1.66654285
      vertex 4.12102943 1.78777568 1.66608061
    endloop
  endfacet
  facet normal -0.378616421 0.00629540562 -0.925532265
    outer loop
      vertex 4.07446909 1.79148748 1.55549762
      vertex 4.07559546 1.78853113 1.55501674
      vertex 4.07446146 1.78828755 1.55547898
    endloop
  endfacet
  facet normal -0.182903757 -0.980765845 0.0681511056
    outer loop
      vertex 4.11989543 1.7875321 1.66654285
      vertex 4.11876259 1.78777568 1.66700792
      vertex 4.07332862 1.78853113 1.55594405
    endloop
  endfacet
  facet normal -0.182903757 -0.980765845 0.0681511056
    outer loop
      vertex 4.11989543 1.7875321 1.66654285
      vertex 4.07332862 1.78853113 1.55594405
      vertex 4.07446146 1.78828755 1.55547898
    endloop
  endfacet
  facet normal 0.378616421 -0.00629540562 0.925532265
    outer loop
      vertex 4.11990306 1.79073203 1.66656149
      vertex 4.11876259 1.78777568 1.66700792
      vertex 4.11989543 1.7875321 1.66654285
    endloop
  endfacet
  facet normal -0.378616421 0.00629540562 -0.925532265
    outer loop
      vertex 4.07446909 1.79148748 1.55549762
      vertex 4.07446146 1.78828755 1.55547898
      vertex 4.07332862 1.78853113 1.55594405
    endloop
  endfacet
  facet normal -0.516190249 -0.831453136 0.205507444
    outer loop
      vertex 4.11876259 1.78777568 1.66700792
      vertex 4.11780338 1.78846934 1.66740504
      vertex 4.07236941 1.78922479 1.55634117
    endloop
  endfacet
  facet normal -0.516190249 -0.831453136 0.205507444
    outer loop
      vertex 4.11876259 1.78777568 1.66700792
      vertex 4.07236941 1.78922479 1.55634117
      vertex 4.07332862 1.78853113 1.55594405
    endloop
  endfacet
  facet normal 0.378616421 -0.00629540562 0.925532265
    outer loop
      vertex 4.11990306 1.79073203 1.66656149
      vertex 4.11780338 1.78846934 1.66740504
      vertex 4.11876259 1.78777568 1.66700792
    endloop
  endfacet
  facet normal -0.378616421 0.00629540562 -0.925532265
    outer loop
      vertex 4.07446909 1.79148748 1.55549762
      vertex 4.07332862 1.78853113 1.55594405
      vertex 4.07236941 1.78922479 1.55634117
    endloop
  endfacet
  facet normal -0.770891456 -0.555559224 0.311577137
    outer loop
      vertex 4.11780338 1.78846934 1.66740504
      vertex 4.11716383 1.78950747 1.66767373
      vertex 4.07172986 1.79026292 1.55660986
    endloop
  endfacet
  facet normal -0.770891456 -0.555559224 0.311577137
    outer loop
      vertex 4.11780338 1.78846934 1.66740504
      vertex 4.07172986 1.79026292 1.55660986
      vertex 4.07236941 1.78922479 1.55634117
    endloop
  endfacet
  facet normal 0.378616421 -0.00629540562 0.925532265
    outer loop
      vertex 4.11990306 1.79073203 1.66656149
      vertex 4.11716383 1.78950747 1.66767373
      vertex 4.11780338 1.78846934 1.66740504
    endloop
  endfacet
  facet normal -0.378616421 0.00629540562 -0.925532265
    outer loop
      vertex 4.07446909 1.79148748 1.55549762
      vertex 4.07236941 1.78922479 1.55634117
      vertex 4.07172986 1.79026292 1.55660986
    endloop
  endfacet
  facet normal -0.908231426 -0.195086456 0.370212036
    outer loop
      vertex 4.11716383 1.78950747 1.66767373
      vertex 4.1169413 1.79073203 1.66777309
      vertex 4.07150733 1.79148748 1.55670922
    endloop
  endfacet
  facet normal -0.908231426 -0.195086456 0.370212036
    outer loop
      vertex 4.11716383 1.78950747 1.66767373
      vertex 4.07150733 1.79148748 1.55670922
      vertex 4.07172986 1.79026292 1.55660986
    endloop
  endfacet
  facet normal 0.378616421 -0.00629540562 0.925532265
    outer loop
      vertex 4.11990306 1.79073203 1.66656149
      vertex 4.1169413 1.79073203 1.66777309
      vertex 4.11716383 1.78950747 1.66767373
    endloop
  endfacet
  facet normal -0.378616421 0.00629540562 -0.925532265
    outer loop
      vertex 4.07446909 1.79148748 1.55549762
      vertex 4.07172986 1.79026292 1.55660986
      vertex 4.07150733 1.79148748 1.55670922
    endloop
  endfacet
  facet normal -0.907301395 0.195086456 0.372485508
    outer loop
      vertex 4.1169413 1.79073203 1.66777309
      vertex 4.11716967 1.7919566 1.667688
      vertex 4.0717357 1.79271205 1.55662413
    endloop
  endfacet
  facet normal -0.907301395 0.195086456 0.372485508
    outer loop
      vertex 4.1169413 1.79073203 1.66777309
      vertex 4.0717357 1.79271205 1.55662413
      vertex 4.07150733 1.79148748 1.55670922
    endloop
  endfacet
  facet normal 0.378616421 -0.00629540562 0.925532265
    outer loop
      vertex 4.11990306 1.79073203 1.66656149
      vertex 4.11716967 1.7919566 1.667688
      vertex 4.1169413 1.79073203 1.66777309
    endloop
  endfacet
  facet normal -0.378616421 0.00629540562 -0.925532265
    outer loop
      vertex 4.07446909 1.79148748 1.55549762
      vertex 4.07150733 1.79148748 1.55670922
      vertex 4.0717357 1.79271205 1.55662413
    endloop
  endfacet
  facet normal -0.768242951 0.555559224 0.318051438
    outer loop
      vertex 4.11716967 1.7919566 1.667688
      vertex 4.11781417 1.79299473 1.66743141
      vertex 4.0723802 1.79375018 1.55636753
    endloop
  endfacet
  facet normal -0.768242951 0.555559224 0.318051438
    outer loop
      vertex 4.11716967 1.7919566 1.667688
      vertex 4.0723802 1.79375018 1.55636753
      vertex 4.0717357 1.79271205 1.55662413
    endloop
  endfacet
  facet normal 0.378616421 -0.00629540562 0.925532265
    outer loop
      vertex 4.11990306 1.79073203 1.66656149
      vertex 4.11781417 1.79299473 1.66743141
      vertex 4.11716967 1.7919566 1.667688
    endloop
  endfacet
  facet normal -0.378616421 0.00629540562 -0.925532265
    outer loop
      vertex 4.07446909 1.79148748 1.55549762
      vertex 4.0717357 1.79271205 1.55662413
      vertex 4.0723802 1.79375018 1.55636753
    endloop
  endfacet
  facet normal -0.512226482 0.831453136 0.21519692
    outer loop
      vertex 4.11781417 1.79299473 1.66743141
      vertex 4.11877669 1.79368839 1.66704238
      vertex 4.07334272 1.79444384 1.55597851
    endloop
  endfacet
  facet normal -0.512226482 0.831453136 0.21519692
    outer loop
      vertex 4.11781417 1.79299473 1.66743141
      vertex 4.07334272 1.79444384 1.55597851
      vertex 4.0723802 1.79375018 1.55636753
    endloop
  endfacet
  facet normal 0.378616421 -0.00629540562 0.925532265
    outer loop
      vertex 4.11990306 1.79073203 1.66656149
      vertex 4.11877669 1.79368839 1.66704238
      vertex 4.11781417 1.79299473 1.66743141
    endloop
  endfacet
  facet normal -0.378616421 0.00629540562 -0.925532265
    outer loop
      vertex 4.07446909 1.79148748 1.55549762
      vertex 4.0723802 1.79375018 1.55636753
      vertex 4.07334272 1.79444384 1.55597851
    endloop
  endfacet
  facet normal -0.178228175 0.980765845 0.0795806211
    outer loop
      vertex 4.11877669 1.79368839 1.66704238
      vertex 4.11991069 1.79393197 1.66658014
      vertex 4.07447672 1.79468742 1.55551627
    endloop
  endfacet
  facet normal -0.178228175 0.980765845 0.0795806211
    outer loop
      vertex 4.11877669 1.79368839 1.66704238
      vertex 4.07447672 1.79468742 1.55551627
      vertex 4.07334272 1.79444384 1.55597851
    endloop
  endfacet
  facet normal 0.378616421 -0.00629540562 0.925532265
    outer loop
      vertex 4.11990306 1.79073203 1.66656149
      vertex 4.11991069 1.79393197 1.66658014
      vertex 4.11877669 1.79368839 1.66704238
    endloop
  endfacet
  facet normal -0.378616421 0.00629540562 -0.925532265
    outer loop
      vertex 4.07446909 1.79148748 1.55549762
      vertex 4.07334272 1.79444384 1.55597851
      vertex 4.07447672 1.79468742 1.55551627
    endloop
  endfacet
  facet normal 0.182903757 0.980765845 -0.0681511056
    outer loop
      vertex 4.11991069 1.79393197 1.66658014
      vertex 4.12104352 1.79368839 1.66611506
      vertex 4.07560955 1.79444384 1.55505119
    endloop
  endfacet
  facet normal 0.182903757 0.980765845 -0.0681511056
    outer loop
      vertex 4.11991069 1.79393197 1.66658014
      vertex 4.07560955 1.79444384 1.55505119
      vertex 4.07447672 1.79468742 1.55551627
    endloop
  endfacet
  facet normal 0.378616421 -0.00629540562 0.925532265
    outer loop
      vertex 4.11990306 1.79073203 1.66656149
      vertex 4.12104352 1.79368839 1.66611506
      vertex 4.11991069 1.79393197 1.66658014
    endloop
  endfacet
  facet normal -0.378616421 0.00629540562 -0.925532265
    outer loop
      vertex 4.07446909 1.79148748 1.55549762
      vertex 4.07447672 1.79468742 1.55551627
      vertex 4.07560955 1.79444384 1.55505119
    endloop
  endfacet
  facet normal 0.516190249 0.831453136 -0.205507444
    outer loop
      vertex 4.12104352 1.79368839 1.66611506
      vertex 4.12200273 1.79299473 1.66571795
      vertex 4.07656876 1.79375018 1.55465408
    endloop
  endfacet
  facet normal 0.516190249 0.831453136 -0.205507444
    outer loop
      vertex 4.12104352 1.79368839 1.66611506
      vertex 4.07656876 1.79375018 1.55465408
      vertex 4.07560955 1.79444384 1.55505119
    endloop
  endfacet
  facet normal 0.378616421 -0.00629540562 0.925532265
    outer loop
      vertex 4.11990306 1.79073203 1.66656149
      vertex 4.12200273 1.79299473 1.66571795
      vertex 4.12104352 1.79368839 1.66611506
    endloop
  endfacet
  facet normal -0.378616421 0.00629540562 -0.925532265
    outer loop
      vertex 4.07446909 1.79148748 1.55549762
      vertex 4.07560955 1.79444384 1.55505119
      vertex 4.07656876 1.79375018 1.55465408
    endloop
  endfacet
  facet normal 0.770891456 0.555559224 -0.311577137
    outer loop
      vertex 4.12200273 1.79299473 1.66571795
      vertex 4.12264229 1.7919566 1.66544926
      vertex 4.07720832 1.79271205 1.55438539
    endloop
  endfacet
  facet normal 0.770891456 0.555559224 -0.311577137
    outer loop
      vertex 4.12200273 1.79299473 1.66571795
      vertex 4.07720832 1.79271205 1.55438539
      vertex 4.07656876 1.79375018 1.55465408
    endloop
  endfacet
  facet normal 0.378616421 -0.00629540562 0.925532265
    outer loop
      vertex 4.11990306 1.79073203 1.66656149
      vertex 4.12264229 1.7919566 1.66544926
      vertex 4.12200273 1.79299473 1.66571795
    endloop
  endfacet
  facet normal -0.378616421 0.00629540562 -0.925532265
    outer loop
      vertex 4.07446909 1.79148748 1.55549762
      vertex 4.07656876 1.79375018 1.55465408
      vertex 4.07720832 1.79271205 1.55438539
    endloop
  endfacet
  facet normal 0.908231426 0.195086456 -0.370212036
    outer loop
      vertex 4.12264229 1.7919566 1.66544926
      vertex 4.12286482 1.79073203 1.6653499
      vertex 4.07743085 1.79148748 1.55428602
    endloop
  endfacet
  facet normal 0.908231426 0.195086456 -0.370212036
    outer loop
      vertex 4.12264229 1.7919566 1.66544926
      vertex 4.07743085 1.79148748 1.55428602
      vertex 4.07720832 1.79271205 1.55438539
    endloop
  endfacet
  facet normal 0.378616421 -0.00629540562 0.925532265
    outer loop
      vertex 4.11990306 1.79073203 1.66656149
      vertex 4.12286482 1.79073203 1.6653499
      vertex 4.12264229 1.7919566 1.66544926
    endloop
  endfacet
  facet normal -0.378616421 0.00629540562 -0.925532265
    outer loop
      vertex 4.07446909 1.79148748 1.55549762
      vertex 4.07720832 1.79271205 1.55438539
      vertex 4.07743085 1.79148748 1.55428602
    endloop
  endfacet
endsolid a23_features
