solid b18_blank
  facet normal -0.552608376 -0.239488035 0.79829159
    outer loop
      vertex 1.06470264 2.79480456 1.90045714
      vertex 1.04940879 2.85243426 1.9071591
      vertex 0.148157848 2.69142949 1.23497672
    endloop
  endfacet
  facet normal -0.552608376 -0.239488035 0.79829159
    outer loop
      vertex 1.06470264 2.79480456 1.90045714
      vertex 0.148157848 2.69142949 1.23497672
      vertex 0.163451694 2.63379979 1.22827476
    endloop
  endfacet
  facet normal 0.254897437 -0.96049496 -0.111699275
    outer loop
      vertex 1.06470264 2.79480456 1.90045714
      vertex 0.163451694 2.63379979 1.22827476
      vertex 0.207660365 2.65295883 1.16441144
    endloop
  endfacet
  facet normal 0.254897437 -0.96049496 -0.111699275
    outer loop
      vertex 1.06470264 2.79480456 1.90045714
      vertex 0.207660365 2.65295883 1.16441144
      vertex 1.10891131 2.8139636 1.83659381
    endloop
  endfacet
  facet normal -0.793505689 -0.141756526 -0.591822447
    outer loop
      vertex 0.163451694 2.63379979 1.22827476
      vertex 0.148157848 2.69142949 1.23497672
      vertex 0.192366518 2.71058853 1.17111339
    endloop
  endfacet
  facet normal -0.793505689 -0.141756526 -0.591822447
    outer loop
      vertex 0.163451694 2.63379979 1.22827476
      vertex 0.192366518 2.71058853 1.17111339
      vertex 0.207660365 2.65295883 1.16441144
    endloop
  endfacet
  facet normal -0.254897437 0.96049496 0.111699275
    outer loop
      vertex 0.148157848 2.69142949 1.23497672
      vertex 1.04940879 2.85243426 1.9071591
      vertex 1.09361746 2.8715933 1.84329577
    endloop
  endfacet
  facet normal -0.254897437 0.96049496 0.111699275
    outer loop
      vertex 0.148157848 2.69142949 1.23497672
      vertex 1.09361746 2.8715933 1.84329577
      vertex 0.192366518 2.71058853 1.17111339
    endloop
  endfacet
  facet normal 0.793505689 0.141756526 0.591822447
    outer loop
      vertex 1.04940879 2.85243426 1.9071591
      vertex 1.06470264 2.79480456 1.90045714
      vertex 1.10891131 2.8139636 1.83659381
    endloop
  endfacet
  facet normal 0.793505689 0.141756526 0.591822447
    outer loop
      vertex 1.04940879 2.85243426 1.9071591
      vertex 1.10891131 2.8139636 1.83659381
      vertex 1.09361746 2.8715933 1.84329577
    endloop
  endfacet
  facet normal 0.552608376 0.239488035 -0.79829159
    outer loop
      vertex 1.10891131 2.8139636 1.83659381
      vertex 0.207660365 2.65295883 1.16441144
      vertex 0.192366518 2.71058853 1.17111339
    endloop
  endfacet
  facet normal 0.552608376 0.239488035 -0.79829159
    outer loop
      vertex 1.10891131 2.8139636 1.83659381
      vertex 0.192366518 2.71058853 1.17111339
      vertex 1.09361746 2.8715933 1.84329577
    endloop
  endfacet
endsolid b18_blank
