solid beam
  facet normal -0.9704631154275858 -0.034113902257185864 0.23882542424828074
    outer loop
      vertex 3.336021661758423 -2.0680460929870605 2.770604372024536
      vertex 3.3443169593811035 -2.08746600151062 2.8015382289886475
      vertex 3.340203285217285 -2.059879779815674 2.7887628078460693
    endloop
  endfacet
  facet normal -0.9704627807195169 -0.034108683599231075 0.23882752969720725
    outer loop
      vertex 3.327590227127075 -2.120130777359009 2.728904962539673
      vertex 3.340067148208618 -2.1313846111297607 2.7779970169067383
      vertex 3.3443169593811035 -2.08746600151062 2.8015382289886475
    endloop
  endfacet
  facet normal -0.9704625201935351 -0.0341129234489736 0.23882798276872225
    outer loop
      vertex 3.3443169593811035 -2.08746600151062 2.8015382289886475
      vertex 3.3442490100860596 -2.123218297958374 2.7961554527282715
      vertex 3.348430633544922 -2.1150519847869873 2.8143136501312256
    endloop
  endfacet
  facet normal -0.970460080603938 -0.034114389030647195 0.23883768633794805
    outer loop
      vertex 3.3443169593811035 -2.08746600151062 2.8015382289886475
      vertex 3.340067148208618 -2.1313846111297607 2.7779970169067383
      vertex 3.3442490100860596 -2.123218297958374 2.7961554527282715
    endloop
  endfacet
  facet normal -0.9704628350452319 -0.034111397865996686 0.23882692128735933
    outer loop
      vertex 3.3318400382995605 -2.076212167739868 2.752446174621582
      vertex 3.3443169593811035 -2.08746600151062 2.8015382289886475
      vertex 3.336021661758423 -2.0680460929870605 2.770604372024536
    endloop
  endfacet
  facet normal -0.970460080603938 -0.034114389030647195 0.23883768633794805
    outer loop
      vertex 3.327590227127075 -2.120130777359009 2.728904962539673
      vertex 3.3318400382995605 -2.076212167739868 2.752446174621582
      vertex 3.327658176422119 -2.084378480911255 2.734287738800049
    endloop
  endfacet
  facet normal -0.9704634302737081 -0.034112376702810254 0.23882436277958194
    outer loop
      vertex 3.327590227127075 -2.120130777359009 2.728904962539673
      vertex 3.327658176422119 -2.084378480911255 2.734287738800049
      vertex 3.323476552963257 -2.0925445556640625 2.7161293029785156
    endloop
  endfacet
  facet normal -0.9704612244207644 -0.03410080842500698 0.2388349780926399
    outer loop
      vertex 3.3317036628723145 -2.147716999053955 2.741680383682251
      vertex 3.335885524749756 -2.1395506858825684 2.759838581085205
      vertex 3.327590227127075 -2.120130777359009 2.728904962539673
    endloop
  endfacet
  facet normal -0.9704629275328078 -0.03411601967055599 0.23882588529363896
    outer loop
      vertex 3.327590227127075 -2.120130777359009 2.728904962539673
      vertex 3.335885524749756 -2.1395506858825684 2.759838581085205
      vertex 3.340067148208618 -2.1313846111297607 2.7779970169067383
    endloop
  endfacet
  facet normal -0.9704627807195169 -0.034108683599231075 0.23882752969720725
    outer loop
      vertex 3.3318400382995605 -2.076212167739868 2.752446174621582
      vertex 3.327590227127075 -2.120130777359009 2.728904962539673
      vertex 3.3443169593811035 -2.08746600151062 2.8015382289886475
    endloop
  endfacet
  facet normal -0.3231950984630815 0.88868891247627 -0.3252336777936496
    outer loop
      vertex 4.307751655578613 -1.9069463014602661 2.245164155960083
      vertex 4.406365394592285 -1.8905974626541138 2.1918411254882812
      vertex 4.3989386558532715 -1.8993016481399536 2.1754374504089355
    endloop
  endfacet
  facet normal -0.3231930885056516 0.8886906761896909 -0.3252308558481007
    outer loop
      vertex 4.307751655578613 -1.9069463014602661 2.245164155960083
      vertex 4.3989386558532715 -1.8993016481399536 2.1754374504089355
      vertex 4.300324440002441 -1.915650486946106 2.2287607192993164
    endloop
  endfacet
  facet normal -0.32319451017878537 0.8886890100070441 -0.3252339958906428
    outer loop
      vertex 4.300324440002441 -1.915650486946106 2.2287607192993164
      vertex 4.3989386558532715 -1.8993016481399536 2.1754374504089355
      vertex 4.391511917114258 -1.9080058336257935 2.15903377532959
    endloop
  endfacet
  facet normal -0.32319451017878537 0.8886890100070441 -0.3252339958906428
    outer loop
      vertex 4.300324440002441 -1.915650486946106 2.2287607192993164
      vertex 4.391511917114258 -1.9080058336257935 2.15903377532959
      vertex 4.292897701263428 -1.9243546724319458 2.2123570442199707
    endloop
  endfacet
  facet normal -0.323197765919476 0.888688470237261 -0.32523223544417673
    outer loop
      vertex 3.3746323585510254 -2.057908535003662 2.7599363327026367
      vertex 3.4239394664764404 -2.049733877182007 2.7332746982574463
      vertex 3.4202260971069336 -2.0540859699249268 2.7250728607177734
    endloop
  endfacet
  facet normal -0.323197765919476 0.888688470237261 -0.32523223544417673
    outer loop
      vertex 3.3746323585510254 -2.057908535003662 2.7599363327026367
      vertex 3.4202260971069336 -2.0540859699249268 2.7250728607177734
      vertex 3.3709189891815186 -2.062260627746582 2.751734495162964
    endloop
  endfacet
  facet normal -0.32319951289925897 0.8886831429648334 -0.32524505572233875
    outer loop
      vertex 3.4165124893188477 -2.058438301086426 2.7168710231781006
      vertex 3.4202260971069336 -2.0540859699249268 2.7250728607177734
      vertex 3.5188400745391846 -2.0377371311187744 2.6717498302459717
    endloop
  endfacet
  facet normal -0.32319613431891214 0.8886887407422339 -0.32523311768529056
    outer loop
      vertex 3.511413097381592 -2.0464413166046143 2.655346155166626
      vertex 3.412799119949341 -2.0627903938293457 2.7086691856384277
      vertex 3.4165124893188477 -2.058438301086426 2.7168710231781006
    endloop
  endfacet
  facet normal -0.32319440761626994 0.8886904665781286 -0.32523011776081934
    outer loop
      vertex 3.5188400745391846 -2.0377371311187744 2.6717498302459717
      vertex 3.511413097381592 -2.0464413166046143 2.655346155166626
      vertex 3.4165124893188477 -2.058438301086426 2.7168710231781006
    endloop
  endfacet
  facet normal -0.3232027723317732 0.8886826026168407 -0.32524329318713785
    outer loop
      vertex 3.3709189891815186 -2.062260627746582 2.751734495162964
      vertex 3.4202260971069336 -2.0540859699249268 2.7250728607177734
      vertex 3.4165124893188477 -2.058438301086426 2.7168710231781006
    endloop
  endfacet
  facet normal -0.3231956942178192 0.8886888137065438 -0.32523335565700756
    outer loop
      vertex 3.3709189891815186 -2.062260627746582 2.751734495162964
      vertex 3.4165124893188477 -2.058438301086426 2.7168710231781006
      vertex 3.3672056198120117 -2.066612720489502 2.743532657623291
    endloop
  endfacet
  facet normal -0.3231956942178192 0.8886888137065438 -0.32523335565700756
    outer loop
      vertex 3.3672056198120117 -2.066612720489502 2.743532657623291
      vertex 3.4165124893188477 -2.058438301086426 2.7168710231781006
      vertex 3.412799119949341 -2.0627903938293457 2.7086691856384277
    endloop
  endfacet
  facet normal -0.3231956942178192 0.8886888137065438 -0.32523335565700756
    outer loop
      vertex 3.3672056198120117 -2.066612720489502 2.743532657623291
      vertex 3.412799119949341 -2.0627903938293457 2.7086691856384277
      vertex 3.363492250442505 -2.070964813232422 2.735330820083618
    endloop
  endfacet
  facet normal -0.3232000682562622 0.8886841301041137 -0.3252418066304544
    outer loop
      vertex 3.412799119949341 -2.0627903938293457 2.7086691856384277
      vertex 3.511413097381592 -2.0464413166046143 2.655346155166626
      vertex 3.503986358642578 -2.055145740509033 2.6389424800872803
    endloop
  endfacet
  facet normal -0.3231965419361539 0.8886872244854526 -0.32523685571726735
    outer loop
      vertex 3.412799119949341 -2.0627903938293457 2.7086691856384277
      vertex 3.503986358642578 -2.055145740509033 2.6389424800872803
      vertex 3.405372381210327 -2.0714945793151855 2.692265748977661
    endloop
  endfacet
  facet normal -0.32319331866939616 0.8886892075442863 -0.3252346401627149
    outer loop
      vertex 3.356065273284912 -2.0796689987182617 2.7189271450042725
      vertex 3.405372381210327 -2.0714945793151855 2.692265748977661
      vertex 3.4016590118408203 -2.0758466720581055 2.6840639114379883
    endloop
  endfacet
  facet normal -0.3231973896773633 0.8886856352147877 -0.3252403558426105
    outer loop
      vertex 3.356065273284912 -2.0796689987182617 2.7189271450042725
      vertex 3.4016590118408203 -2.0758466720581055 2.6840639114379883
      vertex 3.3523519039154053 -2.0840210914611816 2.7107255458831787
    endloop
  endfacet
  facet normal -0.32319426098915466 0.8886898607866501 -0.3252319187882373
    outer loop
      vertex 4.4885077476501465 -1.8844523429870605 2.127005100250244
      vertex 4.4703288078308105 -1.902411937713623 2.0959959030151367
      vertex 4.391511917114258 -1.9080058336257935 2.15903377532959
    endloop
  endfacet
  facet normal -0.32319614904036564 0.8886870892592773 -0.32523761564331866
    outer loop
      vertex 4.279186725616455 -1.9341007471084595 2.1993515491485596
      vertex 4.292897701263428 -1.9243546724319458 2.2123570442199707
      vertex 4.391511917114258 -1.9080058336257935 2.15903377532959
    endloop
  endfacet
  facet normal -0.3231946989606609 0.8886889787092261 -0.3252338938125613
    outer loop
      vertex 4.4885077476501465 -1.8844523429870605 2.127005100250244
      vertex 4.391511917114258 -1.9080058336257935 2.15903377532959
      vertex 4.3989386558532715 -1.8993016481399536 2.1754374504089355
    endloop
  endfacet
  facet normal -0.32319493623357076 0.8886892876288555 -0.32523281391442616
    outer loop
      vertex 4.279186725616455 -1.9341007471084595 2.1993515491485596
      vertex 4.391511917114258 -1.9080058336257935 2.15903377532959
      vertex 4.4703288078308105 -1.902411937713623 2.0959959030151367
    endloop
  endfacet
  facet normal -0.3231965422605489 0.8886870960941913 -0.325237206214939
    outer loop
      vertex 4.292897701263428 -1.9243546724319458 2.2123570442199707
      vertex 4.279186725616455 -1.9341007471084595 2.1993515491485596
      vertex 4.0880446434021 -1.965789556503296 2.3027069568634033
    endloop
  endfacet
  facet normal -0.323195290829042 0.8886888720459698 -0.32523359710766814
    outer loop
      vertex 4.0880446434021 -1.965789556503296 2.3027069568634033
      vertex 3.896902561187744 -1.9974783658981323 2.406062602996826
      vertex 3.9234447479248047 -1.963186264038086 2.473388671875
    endloop
  endfacet
  facet normal -0.32319420871255067 0.8886896431913606 -0.32523256531147143
    outer loop
      vertex 4.0880446434021 -1.965789556503296 2.3027069568634033
      vertex 3.9234447479248047 -1.963186264038086 2.473388671875
      vertex 4.11785888671875 -1.9309550523757935 2.3682639598846436
    endloop
  endfacet
  facet normal -0.32319516389937536 0.8886890208065954 -0.3252333167587082
    outer loop
      vertex 3.896902561187744 -1.9974783658981323 2.406062602996826
      vertex 3.7057604789733887 -2.0291671752929688 2.509418249130249
      vertex 3.7290310859680176 -1.9954174757003784 2.5785133838653564
    endloop
  endfacet
  facet normal -0.32319539946222076 0.8886888519566963 -0.32523354404849525
    outer loop
      vertex 3.896902561187744 -1.9974783658981323 2.406062602996826
      vertex 3.7290310859680176 -1.9954174757003784 2.5785133838653564
      vertex 3.9234447479248047 -1.963186264038086 2.473388671875
    endloop
  endfacet
  facet normal -0.323195298923782 0.8886888792420918 -0.32523356940051856
    outer loop
      vertex 4.300324440002441 -1.915650486946106 2.2287607192993164
      vertex 4.292897701263428 -1.9243546724319458 2.2123570442199707
      vertex 4.0880446434021 -1.965789556503296 2.3027069568634033
    endloop
  endfacet
  facet normal -0.3231944862943655 0.8886891590114541 -0.32523361247637955
    outer loop
      vertex 3.7057604789733887 -2.0291671752929688 2.509418249130249
      vertex 3.511413097381592 -2.0464413166046143 2.655346155166626
      vertex 3.7290310859680176 -1.9954174757003784 2.5785133838653564
    endloop
  endfacet
  facet normal -0.32319562784279915 0.8886885842960291 -0.3252340484715865
    outer loop
      vertex 4.312272548675537 -1.898723840713501 2.263139247894287
      vertex 4.506686210632324 -1.8664926290512085 2.1580145359039307
      vertex 4.406365394592285 -1.8905974626541138 2.1918411254882812
    endloop
  endfacet
  facet normal -0.3231946148099125 0.8886894793138411 -0.3252326095500979
    outer loop
      vertex 4.312272548675537 -1.898723840713501 2.263139247894287
      vertex 4.406365394592285 -1.8905974626541138 2.1918411254882812
      vertex 4.307751655578613 -1.9069463014602661 2.245164155960083
    endloop
  endfacet
  facet normal -0.32319599195895277 0.8886878705271223 -0.32523563697669605
    outer loop
      vertex 4.406365394592285 -1.8905974626541138 2.1918411254882812
      vertex 4.506686210632324 -1.8664926290512085 2.1580145359039307
      vertex 4.4885077476501465 -1.8844523429870605 2.127005100250244
    endloop
  endfacet
  facet normal -0.32319376896391344 0.8886905633851944 -0.3252304878897523
    outer loop
      vertex 4.307751655578613 -1.9069463014602661 2.245164155960083
      vertex 4.300324440002441 -1.915650486946106 2.2287607192993164
      vertex 4.11785888671875 -1.9309550523757935 2.3682639598846436
    endloop
  endfacet
  facet normal -0.3231946989606609 0.8886889787092261 -0.3252338938125613
    outer loop
      vertex 4.3989386558532715 -1.8993016481399536 2.1754374504089355
      vertex 4.406365394592285 -1.8905974626541138 2.1918411254882812
      vertex 4.4885077476501465 -1.8844523429870605 2.127005100250244
    endloop
  endfacet
  facet normal -0.3231949259400164 0.8886894069203503 -0.32523249818273564
    outer loop
      vertex 4.307751655578613 -1.9069463014602661 2.245164155960083
      vertex 4.11785888671875 -1.9309550523757935 2.3682639598846436
      vertex 4.312272548675537 -1.898723840713501 2.263139247894287
    endloop
  endfacet
  facet normal -0.3231949586251529 0.8886895193598239 -0.3252321584642128
    outer loop
      vertex 4.11785888671875 -1.9309550523757935 2.3682639598846436
      vertex 4.300324440002441 -1.915650486946106 2.2287607192993164
      vertex 4.0880446434021 -1.965789556503296 2.3027069568634033
    endloop
  endfacet
  facet normal -0.3231939543688866 0.8886902434332082 -0.3252311779120003
    outer loop
      vertex 3.5346171855926514 -2.027648687362671 2.683638095855713
      vertex 3.7290310859680176 -1.9954174757003784 2.5785133838653564
      vertex 3.5188400745391846 -2.0377371311187744 2.6717498302459717
    endloop
  endfacet
  facet normal -0.3231937006638569 0.8886906204943542 -0.3252303997115907
    outer loop
      vertex 3.5146186351776123 -2.0608558654785156 2.612773895263672
      vertex 3.503986358642578 -2.055145740509033 2.6389424800872803
      vertex 3.7057604789733887 -2.0291671752929688 2.509418249130249
    endloop
  endfacet
  facet normal -0.32319510219729264 0.8886889118571795 -0.32523367577448686
    outer loop
      vertex 3.405372381210327 -2.0714945793151855 2.692265748977661
      vertex 3.503986358642578 -2.055145740509033 2.6389424800872803
      vertex 3.4016590118408203 -2.0758466720581055 2.6840639114379883
    endloop
  endfacet
  facet normal -0.3231940150662741 0.8886904713178667 -0.32523049490195244
    outer loop
      vertex 3.4016590118408203 -2.0758466720581055 2.6840639114379883
      vertex 3.503986358642578 -2.055145740509033 2.6389424800872803
      vertex 3.5146186351776123 -2.0608558654785156 2.612773895263672
    endloop
  endfacet
  facet normal -0.3232001553423233 0.8886841156661615 -0.3252417595410383
    outer loop
      vertex 3.7057604789733887 -2.0291671752929688 2.509418249130249
      vertex 3.503986358642578 -2.055145740509033 2.6389424800872803
      vertex 3.511413097381592 -2.0464413166046143 2.655346155166626
    endloop
  endfacet
  facet normal -0.3231892235967189 0.8886923117457088 -0.32523022736980933
    outer loop
      vertex 3.327658176422119 -2.084378480911255 2.734287738800049
      vertex 3.3523519039154053 -2.0840210914611816 2.7107255458831787
      vertex 3.323476552963257 -2.0925445556640625 2.7161293029785156
    endloop
  endfacet
  facet normal -0.3231885527377553 0.8886959919272047 -0.32522083775766414
    outer loop
      vertex 3.4016590118408203 -2.0758466720581055 2.6840639114379883
      vertex 3.323476552963257 -2.0925445556640625 2.7161293029785156
      vertex 3.3523519039154053 -2.0840210914611816 2.7107255458831787
    endloop
  endfacet
  facet normal -0.3231942635135483 0.8886904904682339 -0.32523019568186595
    outer loop
      vertex 3.356065273284912 -2.0796689987182617 2.7189271450042725
      vertex 3.363492250442505 -2.070964813232422 2.735330820083618
      vertex 3.412799119949341 -2.0627903938293457 2.7086691856384277
    endloop
  endfacet
  facet normal -0.32319475839823947 0.8886875201699246 -0.32523782012265007
    outer loop
      vertex 3.356065273284912 -2.0796689987182617 2.7189271450042725
      vertex 3.412799119949341 -2.0627903938293457 2.7086691856384277
      vertex 3.405372381210327 -2.0714945793151855 2.692265748977661
    endloop
  endfacet
  facet normal -0.3231983128141486 0.8886854821735745 -0.3252398566719786
    outer loop
      vertex 3.3523519039154053 -2.0840210914611816 2.7107255458831787
      vertex 3.327658176422119 -2.084378480911255 2.734287738800049
      vertex 3.356065273284912 -2.0796689987182617 2.7189271450042725
    endloop
  endfacet
  facet normal -0.32319400258539943 0.888690533726206 -0.32523033677420066
    outer loop
      vertex 3.327658176422119 -2.084378480911255 2.734287738800049
      vertex 3.363492250442505 -2.070964813232422 2.735330820083618
      vertex 3.356065273284912 -2.0796689987182617 2.7189271450042725
    endloop
  endfacet
  facet normal -0.3231884338031137 0.8886961764696912 -0.32522045166938957
    outer loop
      vertex 3.4016590118408203 -2.0758466720581055 2.6840639114379883
      vertex 3.5146186351776123 -2.0608558654785156 2.612773895263672
      vertex 3.323476552963257 -2.0925445556640625 2.7161293029785156
    endloop
  endfacet
  facet normal -0.3231930794844801 0.8886892471979184 -0.32523476949449215
    outer loop
      vertex 3.3318400382995605 -2.076212167739868 2.752446174621582
      vertex 3.3672056198120117 -2.066612720489502 2.743532657623291
      vertex 3.363492250442505 -2.070964813232422 2.735330820083618
    endloop
  endfacet
  facet normal -0.3231945064429093 0.8886890106264081 -0.3252339979107044
    outer loop
      vertex 3.4239394664764404 -2.049733877182007 2.7332746982574463
      vertex 3.5188400745391846 -2.0377371311187744 2.6717498302459717
      vertex 3.4202260971069336 -2.0540859699249268 2.7250728607177734
    endloop
  endfacet
  facet normal -0.32319175789507204 0.8886924022305633 -0.32522746170390276
    outer loop
      vertex 3.5346171855926514 -2.027648687362671 2.683638095855713
      vertex 3.4239394664764404 -2.049733877182007 2.7332746982574463
      vertex 3.340203285217285 -2.059879779815674 2.7887628078460693
    endloop
  endfacet
  facet normal -0.323194080033356 0.8886890813199396 -0.325234228478668
    outer loop
      vertex 3.3709189891815186 -2.062260627746582 2.751734495162964
      vertex 3.3672056198120117 -2.066612720489502 2.743532657623291
      vertex 3.336021661758423 -2.0680460929870605 2.770604372024536
    endloop
  endfacet
  facet normal -0.3231927901961641 0.8886901141590685 -0.32523268802683436
    outer loop
      vertex 3.3318400382995605 -2.076212167739868 2.752446174621582
      vertex 3.336021661758423 -2.0680460929870605 2.770604372024536
      vertex 3.3672056198120117 -2.066612720489502 2.743532657623291
    endloop
  endfacet
  facet normal -0.3231947619432524 0.8886873162438215 -0.3252383738118835
    outer loop
      vertex 3.340203285217285 -2.059879779815674 2.7887628078460693
      vertex 3.3746323585510254 -2.057908535003662 2.7599363327026367
      vertex 3.336021661758423 -2.0680460929870605 2.770604372024536
    endloop
  endfacet
  facet normal -0.323194080033356 0.8886890813199396 -0.325234228478668
    outer loop
      vertex 3.3709189891815186 -2.062260627746582 2.751734495162964
      vertex 3.336021661758423 -2.0680460929870605 2.770604372024536
      vertex 3.3746323585510254 -2.057908535003662 2.7599363327026367
    endloop
  endfacet
  facet normal -0.32320809247811344 0.8886763670410291 -0.3252550439569191
    outer loop
      vertex 3.4239394664764404 -2.049733877182007 2.7332746982574463
      vertex 3.3746323585510254 -2.057908535003662 2.7599363327026367
      vertex 3.340203285217285 -2.059879779815674 2.7887628078460693
    endloop
  endfacet
  facet normal -0.32319328739457437 0.8886890035311875 -0.32523522869737403
    outer loop
      vertex 3.3318400382995605 -2.076212167739868 2.752446174621582
      vertex 3.363492250442505 -2.070964813232422 2.735330820083618
      vertex 3.327658176422119 -2.084378480911255 2.734287738800049
    endloop
  endfacet
  facet normal -0.3231933310717535 0.8886901854072177 -0.3252319558586285
    outer loop
      vertex 3.5188400745391846 -2.0377371311187744 2.6717498302459717
      vertex 3.4239394664764404 -2.049733877182007 2.7332746982574463
      vertex 3.5346171855926514 -2.027648687362671 2.683638095855713
    endloop
  endfacet
  facet normal -0.3231937175788812 0.8886905809759136 -0.3252304908864411
    outer loop
      vertex 3.7290310859680176 -1.9954174757003784 2.5785133838653564
      vertex 3.511413097381592 -2.0464413166046143 2.655346155166626
      vertex 3.5188400745391846 -2.0377371311187744 2.6717498302459717
    endloop
  endfacet
  facet normal 0.32319451017878537 -0.8886890100070441 0.3252339958906428
    outer loop
      vertex 3.443331241607666 -2.103055238723755 2.752788782119751
      vertex 3.394024133682251 -2.111229658126831 2.7794504165649414
      vertex 3.390310764312744 -2.115581750869751 2.7712485790252686
    endloop
  endfacet
  facet normal 0.32319283281714667 -0.8886921672018874 0.32522703572987344
    outer loop
      vertex 3.443331241607666 -2.103055238723755 2.752788782119751
      vertex 3.390310764312744 -2.115581750869751 2.7712485790252686
      vertex 3.43961763381958 -2.107407331466675 2.744586944580078
    endloop
  endfacet
  facet normal 0.3231956942178192 -0.8886888137065438 0.32523335565700756
    outer loop
      vertex 3.43961763381958 -2.107407331466675 2.744586944580078
      vertex 3.390310764312744 -2.115581750869751 2.7712485790252686
      vertex 3.3865973949432373 -2.119933843612671 2.7630467414855957
    endloop
  endfacet
  facet normal 0.3231956942178192 -0.8886888137065438 0.32523335565700756
    outer loop
      vertex 3.43961763381958 -2.107407331466675 2.744586944580078
      vertex 3.3865973949432373 -2.119933843612671 2.7630467414855957
      vertex 3.4359042644500732 -2.1117594242095947 2.7363851070404053
    endloop
  endfacet
  facet normal 0.3232035620792082 -0.8886795923671841 0.3252507333879619
    outer loop
      vertex 3.4359042644500732 -2.1117594242095947 2.7363851070404053
      vertex 3.3865973949432373 -2.119933843612671 2.7630467414855957
      vertex 3.3828840255737305 -2.12428617477417 2.754844903945923
    endloop
  endfacet
  facet normal 0.3231989499680738 -0.8886882739303809 0.32523159520282613
    outer loop
      vertex 3.4359042644500732 -2.1117594242095947 2.7363851070404053
      vertex 3.3828840255737305 -2.12428617477417 2.754844903945923
      vertex 3.4321908950805664 -2.1161115169525146 2.7281832695007324
    endloop
  endfacet
  facet normal 0.32319510219729264 -0.8886889118571795 0.32523367577448686
    outer loop
      vertex 3.4359042644500732 -2.1117594242095947 2.7363851070404053
      vertex 3.4321908950805664 -2.1161115169525146 2.7281832695007324
      vertex 3.5308048725128174 -2.0997626781463623 2.6748600006103516
    endloop
  endfacet
  facet normal 0.32319510219729264 -0.8886889118571795 0.32523367577448686
    outer loop
      vertex 3.538231611251831 -2.0910584926605225 2.6912636756896973
      vertex 3.43961763381958 -2.107407331466675 2.744586944580078
      vertex 3.4359042644500732 -2.1117594242095947 2.7363851070404053
    endloop
  endfacet
  facet normal 0.32319510219729264 -0.8886889118571795 0.32523367577448686
    outer loop
      vertex 3.5308048725128174 -2.0997626781463623 2.6748600006103516
      vertex 3.538231611251831 -2.0910584926605225 2.6912636756896973
      vertex 3.4359042644500732 -2.1117594242095947 2.7363851070404053
    endloop
  endfacet
  facet normal 0.3232045941526259 -0.8886794212609944 0.3252501753202611
    outer loop
      vertex 3.4284775257110596 -2.1204636096954346 2.7199814319610596
      vertex 3.4247641563415527 -2.1248159408569336 2.7117795944213867
      vertex 3.5233778953552246 -2.108466863632202 2.658456563949585
    endloop
  endfacet
  facet normal 0.32319510219729264 -0.8886889118571795 0.32523367577448686
    outer loop
      vertex 3.5308048725128174 -2.0997626781463623 2.6748600006103516
      vertex 3.4321908950805664 -2.1161115169525146 2.7281832695007324
      vertex 3.4284775257110596 -2.1204636096954346 2.7199814319610596
    endloop
  endfacet
  facet normal 0.32319510935449014 -0.8886889015903073 0.3252336967159956
    outer loop
      vertex 3.5233778953552246 -2.108466863632202 2.658456563949585
      vertex 3.5308048725128174 -2.0997626781463623 2.6748600006103516
      vertex 3.4284775257110596 -2.1204636096954346 2.7199814319610596
    endloop
  endfacet
  facet normal 0.3231960885508623 -0.8886916274574693 0.32522527520538397
    outer loop
      vertex 3.4321908950805664 -2.1161115169525146 2.7281832695007324
      vertex 3.3828840255737305 -2.12428617477417 2.754844903945923
      vertex 3.3791704177856445 -2.12863826751709 2.74664306640625
    endloop
  endfacet
  facet normal 0.323197765919476 -0.888688470237261 0.32523223544417673
    outer loop
      vertex 3.4321908950805664 -2.1161115169525146 2.7281832695007324
      vertex 3.3791704177856445 -2.12863826751709 2.74664306640625
      vertex 3.4284775257110596 -2.1204636096954346 2.7199814319610596
    endloop
  endfacet
  facet normal 0.323197765919476 -0.888688470237261 0.32523223544417673
    outer loop
      vertex 3.4284775257110596 -2.1204636096954346 2.7199814319610596
      vertex 3.3791704177856445 -2.12863826751709 2.74664306640625
      vertex 3.3754570484161377 -2.1329903602600098 2.738441228866577
    endloop
  endfacet
  facet normal 0.32320237801308815 -0.8886797886704262 0.3252513736410215
    outer loop
      vertex 3.4284775257110596 -2.1204636096954346 2.7199814319610596
      vertex 3.3754570484161377 -2.1329903602600098 2.738441228866577
      vertex 3.4247641563415527 -2.1248159408569336 2.7117795944213867
    endloop
  endfacet
  facet normal 0.32319451017878537 -0.8886890100070441 0.3252339958906428
    outer loop
      vertex 3.4247641563415527 -2.1248159408569336 2.7117795944213867
      vertex 3.3754570484161377 -2.1329903602600098 2.738441228866577
      vertex 3.371743679046631 -2.1373424530029297 2.7302393913269043
    endloop
  endfacet
  facet normal 0.32319283281714667 -0.8886921672018874 0.32522703572987344
    outer loop
      vertex 3.4247641563415527 -2.1248159408569336 2.7117795944213867
      vertex 3.371743679046631 -2.1373424530029297 2.7302393913269043
      vertex 3.421050548553467 -2.1291680335998535 2.703577756881714
    endloop
  endfacet
  facet normal 0.3231950984630815 -0.88868891247627 0.3252336777936496
    outer loop
      vertex 4.425756931304932 -1.9439188241958618 2.211355209350586
      vertex 4.32714319229126 -1.9602676630020142 2.2646782398223877
      vertex 4.319716453552246 -1.968971848487854 2.248274564743042
    endloop
  endfacet
  facet normal 0.3231950984630815 -0.88868891247627 0.3252336777936496
    outer loop
      vertex 4.425756931304932 -1.9439188241958618 2.211355209350586
      vertex 4.319716453552246 -1.968971848487854 2.248274564743042
      vertex 4.418330192565918 -1.9526230096817017 2.1949515342712402
    endloop
  endfacet
  facet normal 0.32319653819876404 -0.8886872251050613 0.32523685773817357
    outer loop
      vertex 4.418330192565918 -1.9526230096817017 2.1949515342712402
      vertex 4.319716453552246 -1.968971848487854 2.248274564743042
      vertex 4.312289714813232 -1.9776760339736938 2.2318711280822754
    endloop
  endfacet
  facet normal 0.3231956942178192 -0.8886888137065438 0.32523335565700756
    outer loop
      vertex 4.418330192565918 -1.9526230096817017 2.1949515342712402
      vertex 4.312289714813232 -1.9776760339736938 2.2318711280822754
      vertex 4.410903453826904 -1.9613271951675415 2.1785478591918945
    endloop
  endfacet
  facet normal 0.3231959239758972 -0.8886870290328625 0.3252380038588827
    outer loop
      vertex 3.335885524749756 -2.1395506858825684 2.759838581085205
      vertex 3.3317036628723145 -2.147716999053955 2.741680383682251
      vertex 3.371743679046631 -2.1373424530029297 2.7302393913269043
    endloop
  endfacet
  facet normal 0.32319474857995073 -0.888689921980559 0.3252312670401335
    outer loop
      vertex 3.421050548553467 -2.1291680335998535 2.703577756881714
      vertex 3.371743679046631 -2.1373424530029297 2.7302393913269043
      vertex 3.3317036628723145 -2.147716999053955 2.741680383682251
    endloop
  endfacet
  facet normal 0.3231932931943572 -0.8886892117677075 0.32523465393754886
    outer loop
      vertex 3.3791704177856445 -2.12863826751709 2.74664306640625
      vertex 3.335885524749756 -2.1395506858825684 2.759838581085205
      vertex 3.3754570484161377 -2.1329903602600098 2.738441228866577
    endloop
  endfacet
  facet normal 0.3231932931943572 -0.8886892117677075 0.32523465393754886
    outer loop
      vertex 3.371743679046631 -2.1373424530029297 2.7302393913269043
      vertex 3.3754570484161377 -2.1329903602600098 2.738441228866577
      vertex 3.335885524749756 -2.1395506858825684 2.759838581085205
    endloop
  endfacet
  facet normal 0.32319386494938435 -0.8886919960936162 0.3252264776094084
    outer loop
      vertex 3.5233778953552246 -2.108466863632202 2.658456563949585
      vertex 3.4247641563415527 -2.1248159408569336 2.7117795944213867
      vertex 3.421050548553467 -2.1291680335998535 2.703577756881714
    endloop
  endfacet
  facet normal 0.3231922330007244 -0.8886915897602616 0.3252292096620233
    outer loop
      vertex 3.340067148208618 -2.1313846111297607 2.7779970169067383
      vertex 3.335885524749756 -2.1395506858825684 2.759838581085205
      vertex 3.3791704177856445 -2.12863826751709 2.74664306640625
    endloop
  endfacet
  facet normal 0.32319621488841693 -0.8886886251658939 0.3252333534288165
    outer loop
      vertex 3.5256597995758057 -2.1155614852905273 2.636803150177002
      vertex 3.5233778953552246 -2.108466863632202 2.658456563949585
      vertex 3.421050548553467 -2.1291680335998535 2.703577756881714
    endloop
  endfacet
  facet normal 0.3231943524650821 -0.8886905108834098 0.3252300515027176
    outer loop
      vertex 3.5256597995758057 -2.1155614852905273 2.636803150177002
      vertex 3.421050548553467 -2.1291680335998535 2.703577756881714
      vertex 3.3317036628723145 -2.147716999053955 2.741680383682251
    endloop
  endfacet
  facet normal 0.32319123972795144 -0.8886924313037573 0.3252278971836927
    outer loop
      vertex 3.3828840255737305 -2.12428617477417 2.754844903945923
      vertex 3.340067148208618 -2.1313846111297607 2.7779970169067383
      vertex 3.3791704177856445 -2.12863826751709 2.74664306640625
    endloop
  endfacet
  facet normal 0.32319814655031426 -0.8886878377771174 0.32523358537130476
    outer loop
      vertex 3.3442490100860596 -2.123218297958374 2.7961554527282715
      vertex 3.340067148208618 -2.1313846111297607 2.7779970169067383
      vertex 3.3865973949432373 -2.119933843612671 2.7630467414855957
    endloop
  endfacet
  facet normal 0.3232019689020734 -0.888679856495472 0.32525159485698224
    outer loop
      vertex 3.3865973949432373 -2.119933843612671 2.7630467414855957
      vertex 3.340067148208618 -2.1313846111297607 2.7779970169067383
      vertex 3.3828840255737305 -2.12428617477417 2.754844903945923
    endloop
  endfacet
  facet normal 0.32319916838443674 -0.8886849170944847 0.32524055049205836
    outer loop
      vertex 3.3442490100860596 -2.123218297958374 2.7961554527282715
      vertex 3.394024133682251 -2.111229658126831 2.7794504165649414
      vertex 3.348430633544922 -2.1150519847869873 2.8143136501312256
    endloop
  endfacet
  facet normal 0.323197330065639 -0.8886885424983044 0.3252324711197849
    outer loop
      vertex 3.3865973949432373 -2.119933843612671 2.7630467414855957
      vertex 3.390310764312744 -2.115581750869751 2.7712485790252686
      vertex 3.3442490100860596 -2.123218297958374 2.7961554527282715
    endloop
  endfacet
  facet normal 0.323197330065639 -0.8886885424983044 0.3252324711197849
    outer loop
      vertex 3.390310764312744 -2.115581750869751 2.7712485790252686
      vertex 3.394024133682251 -2.111229658126831 2.7794504165649414
      vertex 3.3442490100860596 -2.123218297958374 2.7961554527282715
    endloop
  endfacet
  facet normal 0.3231922408071029 -0.8886922653455112 0.3252273558560951
    outer loop
      vertex 3.538231611251831 -2.0910584926605225 2.6912636756896973
      vertex 3.443331241607666 -2.103055238723755 2.752788782119751
      vertex 3.43961763381958 -2.107407331466675 2.744586944580078
    endloop
  endfacet
  facet normal 0.3231939675056533 -0.8886905395418951 0.3252303557429566
    outer loop
      vertex 3.545658588409424 -2.0823543071746826 2.707667350769043
      vertex 3.443331241607666 -2.103055238723755 2.752788782119751
      vertex 3.538231611251831 -2.0910584926605225 2.6912636756896973
    endloop
  endfacet
  facet normal 0.32319452823551986 -0.8886889888446639 0.3252340357725011
    outer loop
      vertex 3.348430633544922 -2.1150519847869873 2.8143136501312256
      vertex 3.394024133682251 -2.111229658126831 2.7794504165649414
      vertex 3.443331241607666 -2.103055238723755 2.752788782119751
    endloop
  endfacet
  facet normal 0.3231948043202674 -0.8886889612418214 0.3252338368425349
    outer loop
      vertex 3.538231611251831 -2.0910584926605225 2.6912636756896973
      vertex 3.5308048725128174 -2.0997626781463623 2.6748600006103516
      vertex 3.7428863048553467 -2.049656629562378 2.6010210514068604
    endloop
  endfacet
  facet normal 0.3231962440569293 -0.8886872738697419 0.3252370167884651
    outer loop
      vertex 3.545658588409424 -2.0823543071746826 2.707667350769043
      vertex 3.348430633544922 -2.1150519847869873 2.8143136501312256
      vertex 3.443331241607666 -2.103055238723755 2.752788782119751
    endloop
  endfacet
  facet normal 0.32319503444686887 -0.8886889140086399 0.3252337372214505
    outer loop
      vertex 3.5308048725128174 -2.0997626781463623 2.6748600006103516
      vertex 3.5233778953552246 -2.108466863632202 2.658456563949585
      vertex 3.719615936279297 -2.0834062099456787 2.531925916671753
    endloop
  endfacet
  facet normal 0.3231946477973047 -0.8886892558597276 0.32523318735126006
    outer loop
      vertex 3.7428863048553467 -2.049656629562378 2.6010210514068604
      vertex 3.5308048725128174 -2.0997626781463623 2.6748600006103516
      vertex 3.719615936279297 -2.0834062099456787 2.531925916671753
    endloop
  endfacet
  facet normal 0.3231954859798745 -0.8886883496165129 0.325234830696393
    outer loop
      vertex 3.913572072982788 -2.05125093460083 2.427048683166504
      vertex 4.107528209686279 -2.0190956592559814 2.322171449661255
      vertex 4.1373419761657715 -1.984261155128479 2.387728214263916
    endloop
  endfacet
  facet normal 0.32319533204883627 -0.8886893498110411 0.32523225066753697
    outer loop
      vertex 3.913572072982788 -2.05125093460083 2.427048683166504
      vertex 4.1373419761657715 -1.984261155128479 2.387728214263916
      vertex 3.9401142597198486 -2.0169589519500732 2.4943747520446777
    endloop
  endfacet
  facet normal 0.32319450151792845 -0.8886895033992249 0.3252326563194671
    outer loop
      vertex 3.719615936279297 -2.0834062099456787 2.531925916671753
      vertex 3.913572072982788 -2.05125093460083 2.427048683166504
      vertex 3.9401142597198486 -2.0169589519500732 2.4943747520446777
    endloop
  endfacet
  facet normal 0.3231945329516337 -0.8886892792838602 0.32523323747136984
    outer loop
      vertex 3.719615936279297 -2.0834062099456787 2.531925916671753
      vertex 3.9401142597198486 -2.0169589519500732 2.4943747520446777
      vertex 3.7428863048553467 -2.049656629562378 2.6010210514068604
    endloop
  endfacet
  facet normal 0.3231947341795942 -0.8886893442531453 0.32523285997804086
    outer loop
      vertex 4.301484107971191 -1.9869403839111328 2.217294216156006
      vertex 4.495440483093262 -1.9547849893569946 2.112416982650757
      vertex 4.410903453826904 -1.9613271951675415 2.1785478591918945
    endloop
  endfacet
  facet normal 0.32319384810308766 -0.8886909773188836 0.3252292781720703
    outer loop
      vertex 4.301484107971191 -1.9869403839111328 2.217294216156006
      vertex 4.410903453826904 -1.9613271951675415 2.1785478591918945
      vertex 4.312289714813232 -1.9776760339736938 2.2318711280822754
    endloop
  endfacet
  facet normal 0.32319614344114145 -0.8886881284227666 0.3252347817580607
    outer loop
      vertex 4.495440483093262 -1.9547849893569946 2.112416982650757
      vertex 4.5136189460754395 -1.9368253946304321 2.1434261798858643
      vertex 4.410903453826904 -1.9613271951675415 2.1785478591918945
    endloop
  endfacet
  facet normal 0.3231960586042828 -0.8886873046151909 0.32523711706760045
    outer loop
      vertex 4.107528209686279 -2.0190956592559814 2.322171449661255
      vertex 4.312289714813232 -1.9776760339736938 2.2318711280822754
      vertex 4.319716453552246 -1.968971848487854 2.248274564743042
    endloop
  endfacet
  facet normal 0.3231934786835 -0.8886910050093557 0.3252295696149404
    outer loop
      vertex 4.107528209686279 -2.0190956592559814 2.322171449661255
      vertex 4.301484107971191 -1.9869403839111328 2.217294216156006
      vertex 4.312289714813232 -1.9776760339736938 2.2318711280822754
    endloop
  endfacet
  facet normal 0.32319579635628853 -0.8886887967730404 0.32523330042864695
    outer loop
      vertex 4.418330192565918 -1.9526230096817017 2.1949515342712402
      vertex 4.410903453826904 -1.9613271951675415 2.1785478591918945
      vertex 4.5136189460754395 -1.9368253946304321 2.1434261798858643
    endloop
  endfacet
  facet normal 0.32319366963275226 -0.8886905889246361 0.32523051681245824
    outer loop
      vertex 3.545658588409424 -2.0823543071746826 2.707667350769043
      vertex 3.538231611251831 -2.0910584926605225 2.6912636756896973
      vertex 3.7428863048553467 -2.049656629562378 2.6010210514068604
    endloop
  endfacet
  facet normal 0.3231948043202674 -0.8886889612418214 0.3252338368425349
    outer loop
      vertex 4.32714319229126 -1.9602676630020142 2.2646782398223877
      vertex 4.334569931030273 -1.9515634775161743 2.2810819149017334
      vertex 4.1373419761657715 -1.984261155128479 2.387728214263916
    endloop
  endfacet
  facet normal 0.32319521128919093 -0.8886888937709488 0.32523361678630713
    outer loop
      vertex 4.531797885894775 -1.91886568069458 2.174435615539551
      vertex 4.334569931030273 -1.9515634775161743 2.2810819149017334
      vertex 4.32714319229126 -1.9602676630020142 2.2646782398223877
    endloop
  endfacet
  facet normal 0.3231956437824516 -0.8886882733638354 0.32523488223997693
    outer loop
      vertex 4.531797885894775 -1.91886568069458 2.174435615539551
      vertex 4.32714319229126 -1.9602676630020142 2.2646782398223877
      vertex 4.425756931304932 -1.9439188241958618 2.211355209350586
    endloop
  endfacet
  facet normal 0.32319579635628853 -0.8886887967730404 0.32523330042864695
    outer loop
      vertex 4.5136189460754395 -1.9368253946304321 2.1434261798858643
      vertex 4.425756931304932 -1.9439188241958618 2.211355209350586
      vertex 4.418330192565918 -1.9526230096817017 2.1949515342712402
    endloop
  endfacet
  facet normal 0.32319499535306395 -0.8886894938814687 0.3252321915853839
    outer loop
      vertex 4.425756931304932 -1.9439188241958618 2.211355209350586
      vertex 4.5136189460754395 -1.9368253946304321 2.1434261798858643
      vertex 4.531797885894775 -1.91886568069458 2.174435615539551
    endloop
  endfacet
  facet normal 0.3231948043202674 -0.8886889612418214 0.3252338368425349
    outer loop
      vertex 4.1373419761657715 -1.984261155128479 2.387728214263916
      vertex 4.319716453552246 -1.968971848487854 2.248274564743042
      vertex 4.32714319229126 -1.9602676630020142 2.2646782398223877
    endloop
  endfacet
  facet normal 0.32319550489292775 -0.8886883464934121 0.3252348204356514
    outer loop
      vertex 4.319716453552246 -1.968971848487854 2.248274564743042
      vertex 4.1373419761657715 -1.984261155128479 2.387728214263916
      vertex 4.107528209686279 -2.0190956592559814 2.322171449661255
    endloop
  endfacet
  facet normal 0.32319482487852264 -0.8886891244237881 0.3252333705243391
    outer loop
      vertex 3.719615936279297 -2.0834062099456787 2.531925916671753
      vertex 3.5233778953552246 -2.108466863632202 2.658456563949585
      vertex 3.5256597995758057 -2.1155614852905273 2.636803150177002
    endloop
  endfacet
  facet normal -0.3713420235902167 -0.4352103103742525 -0.8201811307631198
    outer loop
      vertex 3.387835741043091 -2.124276876449585 2.7038283348083496
      vertex 3.3829879760742188 -2.1109466552734375 2.6989498138427734
      vertex 3.4569482803344727 -2.0986850261688232 2.6589574813842773
    endloop
  endfacet
  facet normal -0.37133920902849105 -0.4352154053552035 -0.8201797015164425
    outer loop
      vertex 3.387835741043091 -2.124276876449585 2.7038283348083496
      vertex 3.4569482803344727 -2.0986850261688232 2.6589574813842773
      vertex 3.461796283721924 -2.1120152473449707 2.6638360023498535
    endloop
  endfacet
  facet normal -0.37134144473218306 -0.43520925785926695 -0.8201819513362879
    outer loop
      vertex 3.3829879760742188 -2.1109466552734375 2.6989498138427734
      vertex 3.3781399726867676 -2.097616195678711 2.6940712928771973
      vertex 3.4521005153656006 -2.0853545665740967 2.654078960418701
    endloop
  endfacet
  facet normal -0.37134425926951925 -0.4352041629018403 -0.8201833805317447
    outer loop
      vertex 3.3829879760742188 -2.1109466552734375 2.6989498138427734
      vertex 3.4521005153656006 -2.0853545665740967 2.654078960418701
      vertex 3.4569482803344727 -2.0986850261688232 2.6589574813842773
    endloop
  endfacet
  facet normal -0.3713420111884295 -0.4352076979933477 -0.8201825225727889
    outer loop
      vertex 4.0880446434021 -1.965789556503296 2.3027069568634033
      vertex 4.279186725616455 -1.9341007471084595 2.1993515491485596
      vertex 4.301484107971191 -1.9869403839111328 2.217294216156006
    endloop
  endfacet
  facet normal -0.37134160011105616 -0.4352119855760563 -0.8201804335863584
    outer loop
      vertex 4.0880446434021 -1.965789556503296 2.3027069568634033
      vertex 4.301484107971191 -1.9869403839111328 2.217294216156006
      vertex 4.107528209686279 -2.0190956592559814 2.322171449661255
    endloop
  endfacet
  facet normal -0.3713413449398483 -0.43521178979565367 -0.8201806530034271
    outer loop
      vertex 3.7057604789733887 -2.0291671752929688 2.509418249130249
      vertex 3.896902561187744 -1.9974783658981323 2.406062602996826
      vertex 3.913572072982788 -2.05125093460083 2.427048683166504
    endloop
  endfacet
  facet normal -0.3713413578544831 -0.43521164340966606 -0.8201807248329154
    outer loop
      vertex 3.7057604789733887 -2.0291671752929688 2.509418249130249
      vertex 3.913572072982788 -2.05125093460083 2.427048683166504
      vertex 3.719615936279297 -2.0834062099456787 2.531925916671753
    endloop
  endfacet
  facet normal -0.37134122878022396 -0.43521163626189374 -0.8201807870648022
    outer loop
      vertex 3.719615936279297 -2.0834062099456787 2.531925916671753
      vertex 3.4569482803344727 -2.0986850261688232 2.6589574813842773
      vertex 3.7057604789733887 -2.0291671752929688 2.509418249130249
    endloop
  endfacet
  facet normal -0.3713412924987142 -0.4352119339923986 -0.8201806002314249
    outer loop
      vertex 3.896902561187744 -1.9974783658981323 2.406062602996826
      vertex 4.0880446434021 -1.965789556503296 2.3027069568634033
      vertex 4.107528209686279 -2.0190956592559814 2.322171449661255
    endloop
  endfacet
  facet normal -0.37134130617412525 -0.4352117855146868 -0.8201806728264284
    outer loop
      vertex 3.896902561187744 -1.9974783658981323 2.406062602996826
      vertex 4.107528209686279 -2.0190956592559814 2.322171449661255
      vertex 3.913572072982788 -2.05125093460083 2.427048683166504
    endloop
  endfacet
  facet normal -0.37134121289341404 -0.4352104926299746 -0.8201814011007704
    outer loop
      vertex 3.323476552963257 -2.0925445556640625 2.7161293029785156
      vertex 3.5146186351776123 -2.0608558654785156 2.612773895263672
      vertex 3.4521005153656006 -2.0853545665740967 2.654078960418701
    endloop
  endfacet
  facet normal -0.3713417291484702 -0.43520847579716004 -0.8201822375468375
    outer loop
      vertex 3.323476552963257 -2.0925445556640625 2.7161293029785156
      vertex 3.4521005153656006 -2.0853545665740967 2.654078960418701
      vertex 3.3781399726867676 -2.097616195678711 2.6940712928771973
    endloop
  endfacet
  facet normal -0.3713447808633901 -0.4352042493686753 -0.820183098495067
    outer loop
      vertex 3.5146186351776123 -2.0608558654785156 2.612773895263672
      vertex 3.4569482803344727 -2.0986850261688232 2.6589574813842773
      vertex 3.4521005153656006 -2.0853545665740967 2.654078960418701
    endloop
  endfacet
  facet normal -0.3713445897087626 -0.43520449034070896 -0.8201830571776733
    outer loop
      vertex 3.4569482803344727 -2.0986850261688232 2.6589574813842773
      vertex 3.5146186351776123 -2.0608558654785156 2.612773895263672
      vertex 3.7057604789733887 -2.0291671752929688 2.509418249130249
    endloop
  endfacet
  facet normal -0.3713411577849174 -0.43521404477296416 -0.8201795411782188
    outer loop
      vertex 3.327590227127075 -2.120130777359009 2.728904962539673
      vertex 3.323476552963257 -2.0925445556640625 2.7161293029785156
      vertex 3.3781399726867676 -2.097616195678711 2.6940712928771973
    endloop
  endfacet
  facet normal -0.3713419614814479 -0.4352100944958842 -0.8201812734341076
    outer loop
      vertex 4.279186725616455 -1.9341007471084595 2.1993515491485596
      vertex 4.4703288078308105 -1.902411937713623 2.0959959030151367
      vertex 4.495440483093262 -1.9547849893569946 2.112416982650757
    endloop
  endfacet
  facet normal -0.37134219586585304 -0.4352077399682044 -0.820182416686248
    outer loop
      vertex 4.279186725616455 -1.9341007471084595 2.1993515491485596
      vertex 4.495440483093262 -1.9547849893569946 2.112416982650757
      vertex 4.301484107971191 -1.9869403839111328 2.217294216156006
    endloop
  endfacet
  facet normal -0.3713409062579767 -0.4352128851593087 -0.8201802703862212
    outer loop
      vertex 3.5256597995758057 -2.1155614852905273 2.636803150177002
      vertex 3.4569482803344727 -2.0986850261688232 2.6589574813842773
      vertex 3.719615936279297 -2.0834062099456787 2.531925916671753
    endloop
  endfacet
  facet normal -0.371343540468605 -0.43521056183703016 -0.8201803105523432
    outer loop
      vertex 3.387835741043091 -2.124276876449585 2.7038283348083496
      vertex 3.327590227127075 -2.120130777359009 2.728904962539673
      vertex 3.3829879760742188 -2.1109466552734375 2.6989498138427734
    endloop
  endfacet
  facet normal -0.3713438685528768 -0.4352096597025836 -0.8201806407065123
    outer loop
      vertex 3.3781399726867676 -2.097616195678711 2.6940712928771973
      vertex 3.3829879760742188 -2.1109466552734375 2.6989498138427734
      vertex 3.327590227127075 -2.120130777359009 2.728904962539673
    endloop
  endfacet
  facet normal -0.3713414459946025 -0.43521021933090603 -0.8201814405828642
    outer loop
      vertex 3.5256597995758057 -2.1155614852905273 2.636803150177002
      vertex 3.3317036628723145 -2.147716999053955 2.741680383682251
      vertex 3.387835741043091 -2.124276876449585 2.7038283348083496
    endloop
  endfacet
  facet normal -0.3713423666398857 -0.4352067228769956 -0.8201828790586614
    outer loop
      vertex 3.5256597995758057 -2.1155614852905273 2.636803150177002
      vertex 3.387835741043091 -2.124276876449585 2.7038283348083496
      vertex 3.461796283721924 -2.1120152473449707 2.6638360023498535
    endloop
  endfacet
  facet normal -0.37134417120823077 -0.43520563174812577 -0.820182641004055
    outer loop
      vertex 3.327590227127075 -2.120130777359009 2.728904962539673
      vertex 3.387835741043091 -2.124276876449585 2.7038283348083496
      vertex 3.3317036628723145 -2.147716999053955 2.741680383682251
    endloop
  endfacet
  facet normal -0.37134109043222197 -0.4352157172765639 -0.8201786841853759
    outer loop
      vertex 3.461796283721924 -2.1120152473449707 2.6638360023498535
      vertex 3.4569482803344727 -2.0986850261688232 2.6589574813842773
      vertex 3.5256597995758057 -2.1155614852905273 2.636803150177002
    endloop
  endfacet
  facet normal 0.37134144473218306 0.43520925785926695 0.8201819513362879
    outer loop
      vertex 3.4175431728363037 -2.0894601345062256 2.7694427967071533
      vertex 3.4915037155151367 -2.0771985054016113 2.7294504642486572
      vertex 3.4866557121276855 -2.0638680458068848 2.724571943283081
    endloop
  endfacet
  facet normal 0.37134144473218306 0.43520925785926695 0.8201819513362879
    outer loop
      vertex 3.4175431728363037 -2.0894601345062256 2.7694427967071533
      vertex 3.4866557121276855 -2.0638680458068848 2.724571943283081
      vertex 3.4126951694488525 -2.076129674911499 2.764564275741577
    endloop
  endfacet
  facet normal 0.37133920902849105 0.4352154053552035 0.8201797015164425
    outer loop
      vertex 3.4126951694488525 -2.076129674911499 2.764564275741577
      vertex 3.4866557121276855 -2.0638680458068848 2.724571943283081
      vertex 3.4818077087402344 -2.0505378246307373 2.719693422317505
    endloop
  endfacet
  facet normal 0.3713420235902167 0.4352103103742525 0.8201811307631198
    outer loop
      vertex 3.4126951694488525 -2.076129674911499 2.764564275741577
      vertex 3.4818077087402344 -2.0505378246307373 2.719693422317505
      vertex 3.4078474044799805 -2.0627994537353516 2.759685754776001
    endloop
  endfacet
  facet normal 0.3713428500772573 0.4352078886620992 0.820182041587584
    outer loop
      vertex 4.506686210632324 -1.8664926290512085 2.1580145359039307
      vertex 4.312272548675537 -1.898723840713501 2.263139247894287
      vertex 4.334569931030273 -1.9515634775161743 2.2810819149017334
    endloop
  endfacet
  facet normal 0.37134148517815907 0.435209956665385 0.8201815622196056
    outer loop
      vertex 4.506686210632324 -1.8664926290512085 2.1580145359039307
      vertex 4.334569931030273 -1.9515634775161743 2.2810819149017334
      vertex 4.531797885894775 -1.91886568069458 2.174435615539551
    endloop
  endfacet
  facet normal 0.3713410040425616 0.43521095285095446 0.8201812514531326
    outer loop
      vertex 4.11785888671875 -1.9309550523757935 2.3682639598846436
      vertex 3.9234447479248047 -1.963186264038086 2.473388671875
      vertex 3.9401142597198486 -2.0169589519500732 2.4943747520446777
    endloop
  endfacet
  facet normal 0.37134389404734935 0.43520651465777355 0.82018229800038
    outer loop
      vertex 4.11785888671875 -1.9309550523757935 2.3682639598846436
      vertex 3.9401142597198486 -2.0169589519500732 2.4943747520446777
      vertex 4.1373419761657715 -1.984261155128479 2.387728214263916
    endloop
  endfacet
  facet normal 0.3713422384274906 0.43520957051714865 0.8201814260820223
    outer loop
      vertex 3.9234447479248047 -1.963186264038086 2.473388671875
      vertex 3.7290310859680176 -1.9954174757003784 2.5785133838653564
      vertex 3.7428863048553467 -2.049656629562378 2.6010210514068604
    endloop
  endfacet
  facet normal 0.37134132145862314 0.4352109879037674 0.8201810891414105
    outer loop
      vertex 3.9234447479248047 -1.963186264038086 2.473388671875
      vertex 3.7428863048553467 -2.049656629562378 2.6010210514068604
      vertex 3.9401142597198486 -2.0169589519500732 2.4943747520446777
    endloop
  endfacet
  facet normal 0.3713433810516457 0.4352064286361306 0.8201825759078991
    outer loop
      vertex 4.312272548675537 -1.898723840713501 2.263139247894287
      vertex 4.11785888671875 -1.9309550523757935 2.3682639598846436
      vertex 4.1373419761657715 -1.984261155128479 2.387728214263916
    endloop
  endfacet
  facet normal 0.3713424792305095 0.43520780437339635 0.8201822542163578
    outer loop
      vertex 4.312272548675537 -1.898723840713501 2.263139247894287
      vertex 4.1373419761657715 -1.984261155128479 2.387728214263916
      vertex 4.334569931030273 -1.9515634775161743 2.2810819149017334
    endloop
  endfacet
  facet normal 0.3713421135813605 0.43520956360400287 0.8201814862751666
    outer loop
      vertex 3.7428863048553467 -2.049656629562378 2.6010210514068604
      vertex 3.7290310859680176 -1.9954174757003784 2.5785133838653564
      vertex 3.4866557121276855 -2.0638680458068848 2.724571943283081
    endloop
  endfacet
  facet normal 0.37133805762351946 0.43521521446080946 0.8201803241130716
    outer loop
      vertex 3.4866557121276855 -2.0638680458068848 2.724571943283081
      vertex 3.5346171855926514 -2.027648687362671 2.683638095855713
      vertex 3.4818077087402344 -2.0505378246307373 2.719693422317505
    endloop
  endfacet
  facet normal 0.3713434910335974 0.4352062753366155 0.820182607456785
    outer loop
      vertex 3.4078474044799805 -2.0627994537353516 2.759685754776001
      vertex 3.4818077087402344 -2.0505378246307373 2.719693422317505
      vertex 3.5346171855926514 -2.027648687362671 2.683638095855713
    endloop
  endfacet
  facet normal 0.37134257093006745 0.43520823977188666 0.8201819816660835
    outer loop
      vertex 3.340203285217285 -2.059879779815674 2.7887628078460693
      vertex 3.4078474044799805 -2.0627994537353516 2.759685754776001
      vertex 3.5346171855926514 -2.027648687362671 2.683638095855713
    endloop
  endfacet
  facet normal 0.37134256374303326 0.43520828619943885 0.8201819602844838
    outer loop
      vertex 3.3443169593811035 -2.08746600151062 2.8015382289886475
      vertex 3.4078474044799805 -2.0627994537353516 2.759685754776001
      vertex 3.340203285217285 -2.059879779815674 2.7887628078460693
    endloop
  endfacet
  facet normal 0.37134190924126453 0.43521036325307405 0.8201811544763632
    outer loop
      vertex 3.7428863048553467 -2.049656629562378 2.6010210514068604
      vertex 3.4866557121276855 -2.0638680458068848 2.724571943283081
      vertex 3.545658588409424 -2.0823543071746826 2.707667350769043
    endloop
  endfacet
  facet normal 0.3713418852146064 0.435208046660176 0.8201823945973823
    outer loop
      vertex 3.4915037155151367 -2.0771985054016113 2.7294504642486572
      vertex 3.4175431728363037 -2.0894601345062256 2.7694427967071533
      vertex 3.545658588409424 -2.0823543071746826 2.707667350769043
    endloop
  endfacet
  facet normal 0.3713417588645704 0.43520930993919055 0.8201817814762902
    outer loop
      vertex 3.4866557121276855 -2.0638680458068848 2.724571943283081
      vertex 3.4915037155151367 -2.0771985054016113 2.7294504642486572
      vertex 3.545658588409424 -2.0823543071746826 2.707667350769043
    endloop
  endfacet
  facet normal 0.3713414437326067 0.4352113600483839 0.8201808363107609
    outer loop
      vertex 3.348430633544922 -2.1150519847869873 2.8143136501312256
      vertex 3.4175431728363037 -2.0894601345062256 2.7694427967071533
      vertex 3.3443169593811035 -2.08746600151062 2.8015382289886475
    endloop
  endfacet
  facet normal 0.3713417940043822 0.43520931576500743 0.8201817624752218
    outer loop
      vertex 3.4126951694488525 -2.076129674911499 2.764564275741577
      vertex 3.3443169593811035 -2.08746600151062 2.8015382289886475
      vertex 3.4175431728363037 -2.0894601345062256 2.7694427967071533
    endloop
  endfacet
  facet normal 0.37134068973083484 0.43521272496052293 0.8201804534263568
    outer loop
      vertex 3.545658588409424 -2.0823543071746826 2.707667350769043
      vertex 3.4175431728363037 -2.0894601345062256 2.7694427967071533
      vertex 3.348430633544922 -2.1150519847869873 2.8143136501312256
    endloop
  endfacet
  facet normal 0.3713414659092225 0.43521021792356857 0.8201814323131864
    outer loop
      vertex 3.3443169593811035 -2.08746600151062 2.8015382289886475
      vertex 3.4126951694488525 -2.076129674911499 2.764564275741577
      vertex 3.4078474044799805 -2.0627994537353516 2.759685754776001
    endloop
  endfacet
  facet normal 0.37134108252954096 0.43521174295806286 0.8201807966644877
    outer loop
      vertex 3.5346171855926514 -2.027648687362671 2.683638095855713
      vertex 3.4866557121276855 -2.0638680458068848 2.724571943283081
      vertex 3.7290310859680176 -1.9954174757003784 2.5785133838653564
    endloop
  endfacet
  facet normal 0.7912600340231158 0.1979880791008734 -0.5785397817710409
    outer loop
      vertex 4.4703288078308105 -1.902411937713623 2.0959959030151367
      vertex 4.4885077476501465 -1.8844523429870605 2.127005100250244
      vertex 4.5136189460754395 -1.9368253946304321 2.1434261798858643
    endloop
  endfacet
  facet normal 0.7912616704660732 0.19799781422689536 -0.578534211963831
    outer loop
      vertex 4.4703288078308105 -1.902411937713623 2.0959959030151367
      vertex 4.5136189460754395 -1.9368253946304321 2.1434261798858643
      vertex 4.495440483093262 -1.9547849893569946 2.112416982650757
    endloop
  endfacet
  facet normal 0.791261309186787 0.1979893765400747 -0.5785375937320618
    outer loop
      vertex 4.531797885894775 -1.91886568069458 2.174435615539551
      vertex 4.5136189460754395 -1.9368253946304321 2.1434261798858643
      vertex 4.4885077476501465 -1.8844523429870605 2.127005100250244
    endloop
  endfacet
  facet normal 0.7912629455833395 0.1979991116482192 -0.5785320239479343
    outer loop
      vertex 4.531797885894775 -1.91886568069458 2.174435615539551
      vertex 4.4885077476501465 -1.8844523429870605 2.127005100250244
      vertex 4.506686210632324 -1.8664926290512085 2.1580145359039307
    endloop
  endfacet
endsolid beam