solid a10_features
  facet normal -0.039558895 0.989109937 -0.141762573
    outer loop
      vertex 0.089517142 0.453785125 0.802084809
      vertex 0.0886563937 0.453623164 0.801194961
      vertex 0.0163247646 0.460576715 0.869895642
    endloop
  endfacet
  facet normal -0.039558895 0.989109937 -0.141762573
    outer loop
      vertex 0.089517142 0.453785125 0.802084809
      vertex 0.0163247646 0.460576715 0.869895642
      vertex 0.0171855128 0.460738676 0.87078549
    endloop
  endfacet
  facet normal 0.723316291 -0.069535506 -0.687006809
    outer loop
      vertex 0.089210924 0.45059981 0.802084809
      vertex 0.0886563937 0.453623164 0.801194961
      vertex 0.089517142 0.453785125 0.802084809
    endloop
  endfacet
  facet normal -0.723316291 0.069535506 0.687006809
    outer loop
      vertex 0.0168792948 0.457553361 0.87078549
      vertex 0.0171855128 0.460738676 0.87078549
      vertex 0.0163247646 0.460576715 0.869895642
    endloop
  endfacet
  facet normal -0.300363027 0.864178105 -0.403705653
    outer loop
      vertex 0.0886563937 0.453623164 0.801194961
      vertex 0.0878800677 0.453000925 0.800440585
      vertex 0.0155484386 0.459954475 0.869141266
    endloop
  endfacet
  facet normal -0.300363027 0.864178105 -0.403705653
    outer loop
      vertex 0.0886563937 0.453623164 0.801194961
      vertex 0.0155484386 0.459954475 0.869141266
      vertex 0.0163247646 0.460576715 0.869895642
    endloop
  endfacet
  facet normal 0.723316291 -0.069535506 -0.687006809
    outer loop
      vertex 0.089210924 0.45059981 0.802084809
      vertex 0.0878800677 0.453000925 0.800440585
      vertex 0.0886563937 0.453623164 0.801194961
    endloop
  endfacet
  facet normal -0.723316291 0.069535506 0.687006809
    outer loop
      vertex 0.0168792948 0.457553361 0.87078549
      vertex 0.0163247646 0.460576715 0.869895642
      vertex 0.0155484386 0.459954475 0.869141266
    endloop
  endfacet
  facet normal -0.515439611 0.607682991 -0.604188207
    outer loop
      vertex 0.0878800677 0.453000925 0.800440585
      vertex 0.0873063525 0.452013138 0.799936527
      vertex 0.0149747233 0.458966688 0.868637208
    endloop
  endfacet
  facet normal -0.515439611 0.607682991 -0.604188207
    outer loop
      vertex 0.0878800677 0.453000925 0.800440585
      vertex 0.0149747233 0.458966688 0.868637208
      vertex 0.0155484386 0.459954475 0.869141266
    endloop
  endfacet
  facet normal 0.723316291 -0.069535506 -0.687006809
    outer loop
      vertex 0.089210924 0.45059981 0.802084809
      vertex 0.0873063525 0.452013138 0.799936527
      vertex 0.0878800677 0.453000925 0.800440585
    endloop
  endfacet
  facet normal -0.723316291 0.069535506 0.687006809
    outer loop
      vertex 0.0168792948 0.457553361 0.87078549
      vertex 0.0155484386 0.459954475 0.869141266
      vertex 0.0149747233 0.458966688 0.868637208
    endloop
  endfacet
  facet normal -0.652045187 0.25867365 -0.712688583
    outer loop
      vertex 0.0873063525 0.452013138 0.799936527
      vertex 0.087022591 0.450810184 0.799759526
      vertex 0.0146909618 0.457763735 0.868460207
    endloop
  endfacet
  facet normal -0.652045187 0.25867365 -0.712688583
    outer loop
      vertex 0.0873063525 0.452013138 0.799936527
      vertex 0.0146909618 0.457763735 0.868460207
      vertex 0.0149747233 0.458966688 0.868637208
    endloop
  endfacet
  facet normal 0.723316291 -0.069535506 -0.687006809
    outer loop
      vertex 0.089210924 0.45059981 0.802084809
      vertex 0.087022591 0.450810184 0.799759526
      vertex 0.0873063525 0.452013138 0.799936527
    endloop
  endfacet
  facet normal -0.723316291 0.069535506 0.687006809
    outer loop
      vertex 0.0168792948 0.457553361 0.87078549
      vertex 0.0149747233 0.458966688 0.868637208
      vertex 0.0146909618 0.457763735 0.868460207
    endloop
  endfacet
  facet normal -0.689382794 -0.129716409 -0.712688583
    outer loop
      vertex 0.087022591 0.450810184 0.799759526
      vertex 0.0870719834 0.449575203 0.799936527
      vertex 0.0147403542 0.456528754 0.868637208
    endloop
  endfacet
  facet normal -0.689382794 -0.129716409 -0.712688583
    outer loop
      vertex 0.087022591 0.450810184 0.799759526
      vertex 0.0147403542 0.456528754 0.868637208
      vertex 0.0146909618 0.457763735 0.868460207
    endloop
  endfacet
  facet normal 0.723316291 -0.069535506 -0.687006809
    outer loop
      vertex 0.089210924 0.45059981 0.802084809
      vertex 0.0870719834 0.449575203 0.799936527
      vertex 0.087022591 0.450810184 0.799759526
    endloop
  endfacet
  facet normal -0.723316291 0.069535506 0.687006809
    outer loop
      vertex 0.0168792948 0.457553361 0.87078549
      vertex 0.0146909618 0.457763735 0.868460207
      vertex 0.0147403542 0.456528754 0.868637208
    endloop
  endfacet
  facet normal -0.62176812 -0.498358321 -0.604188207
    outer loop
      vertex 0.0870719834 0.449575203 0.799936527
      vertex 0.08744701 0.448496209 0.800440585
      vertex 0.0151153809 0.45544976 0.869141266
    endloop
  endfacet
  facet normal -0.62176812 -0.498358321 -0.604188207
    outer loop
      vertex 0.0870719834 0.449575203 0.799936527
      vertex 0.0151153809 0.45544976 0.869141266
      vertex 0.0147403542 0.456528754 0.868637208
    endloop
  endfacet
  facet normal 0.723316291 -0.069535506 -0.687006809
    outer loop
      vertex 0.089210924 0.45059981 0.802084809
      vertex 0.08744701 0.448496209 0.800440585
      vertex 0.0870719834 0.449575203 0.799936527
    endloop
  endfacet
  facet normal -0.723316291 0.069535506 0.687006809
    outer loop
      vertex 0.0168792948 0.457553361 0.87078549
      vertex 0.0147403542 0.456528754 0.868637208
      vertex 0.0151153809 0.45544976 0.869141266
    endloop
  endfacet
  facet normal -0.459494885 -0.791129696 -0.403705653
    outer loop
      vertex 0.08744701 0.448496209 0.800440585
      vertex 0.0880905766 0.44773747 0.801194961
      vertex 0.0157589475 0.45469102 0.869895642
    endloop
  endfacet
  facet normal -0.459494885 -0.791129696 -0.403705653
    outer loop
      vertex 0.08744701 0.448496209 0.800440585
      vertex 0.0157589475 0.45469102 0.869895642
      vertex 0.0151153809 0.45544976 0.869141266
    endloop
  endfacet
  facet normal 0.723316291 -0.069535506 -0.687006809
    outer loop
      vertex 0.089210924 0.45059981 0.802084809
      vertex 0.0880905766 0.44773747 0.801194961
      vertex 0.08744701 0.448496209 0.800440585
    endloop
  endfacet
  facet normal -0.723316291 0.069535506 0.687006809
    outer loop
      vertex 0.0168792948 0.457553361 0.87078549
      vertex 0.0151153809 0.45544976 0.869141266
      vertex 0.0157589475 0.45469102 0.869895642
    endloop
  endfacet
  facet normal -0.22726772 -0.963458746 -0.141762573
    outer loop
      vertex 0.0880905766 0.44773747 0.801194961
      vertex 0.088904706 0.447414496 0.802084809
      vertex 0.0165730768 0.454368046 0.87078549
    endloop
  endfacet
  facet normal -0.22726772 -0.963458746 -0.141762573
    outer loop
      vertex 0.0880905766 0.44773747 0.801194961
      vertex 0.0165730768 0.454368046 0.87078549
      vertex 0.0157589475 0.45469102 0.869895642
    endloop
  endfacet
  facet normal 0.723316291 -0.069535506 -0.687006809
    outer loop
      vertex 0.089210924 0.45059981 0.802084809
      vertex 0.088904706 0.447414496 0.802084809
      vertex 0.0880905766 0.44773747 0.801194961
    endloop
  endfacet
  facet normal -0.723316291 0.069535506 0.687006809
    outer loop
      vertex 0.0168792948 0.457553361 0.87078549
      vertex 0.0157589475 0.45469102 0.869895642
      vertex 0.0165730768 0.454368046 0.87078549
    endloop
  endfacet
  facet normal 0.039558895 -0.989109937 0.141762573
    outer loop
      vertex 0.088904706 0.447414496 0.802084809
      vertex 0.0897654542 0.447576457 0.802974656
      vertex 0.017433825 0.454530007 0.871675337
    endloop
  endfacet
  facet normal 0.039558895 -0.989109937 0.141762573
    outer loop
      vertex 0.088904706 0.447414496 0.802084809
      vertex 0.017433825 0.454530007 0.871675337
      vertex 0.0165730768 0.454368046 0.87078549
    endloop
  endfacet
  facet normal 0.723316291 -0.069535506 -0.687006809
    outer loop
      vertex 0.089210924 0.45059981 0.802084809
      vertex 0.0897654542 0.447576457 0.802974656
      vertex 0.088904706 0.447414496 0.802084809
    endloop
  endfacet
  facet normal -0.723316291 0.069535506 0.687006809
    outer loop
      vertex 0.0168792948 0.457553361 0.87078549
      vertex 0.0165730768 0.454368046 0.87078549
      vertex 0.017433825 0.454530007 0.871675337
    endloop
  endfacet
  facet normal 0.300363027 -0.864178105 0.403705653
    outer loop
      vertex 0.0897654542 0.447576457 0.802974656
      vertex 0.0905417802 0.448198696 0.803729032
      vertex 0.0182101511 0.455152246 0.872429713
    endloop
  endfacet
  facet normal 0.300363027 -0.864178105 0.403705653
    outer loop
      vertex 0.0897654542 0.447576457 0.802974656
      vertex 0.0182101511 0.455152246 0.872429713
      vertex 0.017433825 0.454530007 0.871675337
    endloop
  endfacet
  facet normal 0.723316291 -0.069535506 -0.687006809
    outer loop
      vertex 0.089210924 0.45059981 0.802084809
      vertex 0.0905417802 0.448198696 0.803729032
      vertex 0.0897654542 0.447576457 0.802974656
    endloop
  endfacet
  facet normal -0.723316291 0.069535506 0.687006809
    outer loop
      vertex 0.0168792948 0.457553361 0.87078549
      vertex 0.017433825 0.454530007 0.871675337
      vertex 0.0182101511 0.455152246 0.872429713
    endloop
  endfacet
  facet normal 0.515439611 -0.607682991 0.604188207
    outer loop
      vertex 0.0905417802 0.448198696 0.803729032
      vertex 0.0911154954 0.449186483 0.80423309
      vertex 0.0187838663 0.456140034 0.872933771
    endloop
  endfacet
  facet normal 0.515439611 -0.607682991 0.604188207
    outer loop
      vertex 0.0905417802 0.448198696 0.803729032
      vertex 0.0187838663 0.456140034 0.872933771
      vertex 0.0182101511 0.455152246 0.872429713
    endloop
  endfacet
  facet normal 0.723316291 -0.069535506 -0.687006809
    outer loop
      vertex 0.089210924 0.45059981 0.802084809
      vertex 0.0911154954 0.449186483 0.80423309
      vertex 0.0905417802 0.448198696 0.803729032
    endloop
  endfacet
  facet normal -0.723316291 0.069535506 0.687006809
    outer loop
      vertex 0.0168792948 0.457553361 0.87078549
      vertex 0.0182101511 0.455152246 0.872429713
      vertex 0.0187838663 0.456140034 0.872933771
    endloop
  endfacet
  facet normal 0.652045187 -0.25867365 0.712688583
    outer loop
      vertex 0.0911154954 0.449186483 0.80423309
      vertex 0.0913992569 0.450389436 0.804410092
      vertex 0.0190676278 0.457342987 0.873110773
    endloop
  endfacet
  facet normal 0.652045187 -0.25867365 0.712688583
    outer loop
      vertex 0.0911154954 0.449186483 0.80423309
      vertex 0.0190676278 0.457342987 0.873110773
      vertex 0.0187838663 0.456140034 0.872933771
    endloop
  endfacet
  facet normal 0.723316291 -0.069535506 -0.687006809
    outer loop
      vertex 0.089210924 0.45059981 0.802084809
      vertex 0.0913992569 0.450389436 0.804410092
      vertex 0.0911154954 0.449186483 0.80423309
    endloop
  endfacet
  facet normal -0.723316291 0.069535506 0.687006809
    outer loop
      vertex 0.0168792948 0.457553361 0.87078549
      vertex 0.0187838663 0.456140034 0.872933771
      vertex 0.0190676278 0.457342987 0.873110773
    endloop
  endfacet
  facet normal 0.689382794 0.129716409 0.712688583
    outer loop
      vertex 0.0913992569 0.450389436 0.804410092
      vertex 0.0913498646 0.451624417 0.80423309
      vertex 0.0190182354 0.458577968 0.872933771
    endloop
  endfacet
  facet normal 0.689382794 0.129716409 0.712688583
    outer loop
      vertex 0.0913992569 0.450389436 0.804410092
      vertex 0.0190182354 0.458577968 0.872933771
      vertex 0.0190676278 0.457342987 0.873110773
    endloop
  endfacet
  facet normal 0.723316291 -0.069535506 -0.687006809
    outer loop
      vertex 0.089210924 0.45059981 0.802084809
      vertex 0.0913498646 0.451624417 0.80423309
      vertex 0.0913992569 0.450389436 0.804410092
    endloop
  endfacet
  facet normal -0.723316291 0.069535506 0.687006809
    outer loop
      vertex 0.0168792948 0.457553361 0.87078549
      vertex 0.0190676278 0.457342987 0.873110773
      vertex 0.0190182354 0.458577968 0.872933771
    endloop
  endfacet
  facet normal 0.62176812 0.498358321 0.604188207
    outer loop
      vertex 0.0913498646 0.451624417 0.80423309
      vertex 0.0909748379 0.452703411 0.803729032
      vertex 0.0186432087 0.459656962 0.872429713
    endloop
  endfacet
  facet normal 0.62176812 0.498358321 0.604188207
    outer loop
      vertex 0.0913498646 0.451624417 0.80423309
      vertex 0.0186432087 0.459656962 0.872429713
      vertex 0.0190182354 0.458577968 0.872933771
    endloop
  endfacet
  facet normal 0.723316291 -0.069535506 -0.687006809
    outer loop
      vertex 0.089210924 0.45059981 0.802084809
      vertex 0.0909748379 0.452703411 0.803729032
      vertex 0.0913498646 0.451624417 0.80423309
    endloop
  endfacet
  facet normal -0.723316291 0.069535506 0.687006809
    outer loop
      vertex 0.0168792948 0.457553361 0.87078549
      vertex 0.0190182354 0.458577968 0.872933771
      vertex 0.0186432087 0.459656962 0.872429713
    endloop
  endfacet
  facet normal 0.459494885 0.791129696 0.403705653
    outer loop
      vertex 0.0909748379 0.452703411 0.803729032
      vertex 0.0903312713 0.453462151 0.802974656
      vertex 0.0179996422 0.460415702 0.871675337
    endloop
  endfacet
  facet normal 0.459494885 0.791129696 0.403705653
    outer loop
      vertex 0.0909748379 0.452703411 0.803729032
      vertex 0.0179996422 0.460415702 0.871675337
      vertex 0.0186432087 0.459656962 0.872429713
    endloop
  endfacet
  facet normal 0.723316291 -0.069535506 -0.687006809
    outer loop
      vertex 0.089210924 0.45059981 0.802084809
      vertex 0.0903312713 0.453462151 0.802974656
      vertex 0.0909748379 0.452703411 0.803729032
    endloop
  endfacet
  facet normal -0.723316291 0.069535506 0.687006809
    outer loop
      vertex 0.0168792948 0.457553361 0.87078549
      vertex 0.0186432087 0.459656962 0.872429713
      vertex 0.0179996422 0.460415702 0.871675337
    endloop
  endfacet
  facet normal 0.22726772 0.963458746 0.141762573
    outer loop
      vertex 0.0903312713 0.453462151 0.802974656
      vertex 0.089517142 0.453785125 0.802084809
      vertex 0.0171855128 0.460738676 0.87078549
    endloop
  endfacet
  facet normal 0.22726772 0.963458746 0.141762573
    outer loop
      vertex 0.0903312713 0.453462151 0.802974656
      vertex 0.0171855128 0.460738676 0.87078549
      vertex 0.0179996422 0.460415702 0.871675337
    endloop
  endfacet
  facet normal 0.723316291 -0.069535506 -0.687006809
    outer loop
      vertex 0.089210924 0.45059981 0.802084809
      vertex 0.089517142 0.453785125 0.802084809
      vertex 0.0903312713 0.453462151 0.802974656
    endloop
  endfacet
  facet normal -0.723316291 0.069535506 0.687006809
    outer loop
      vertex 0.0168792948 0.457553361 0.87078549
      vertex 0.0179996422 0.460415702 0.871675337
      vertex 0.0171855128 0.460738676 0.87078549
    endloop
  endfacet
  facet normal -0.039558895 0.989109937 -0.141762573
    outer loop
      vertex 0.0688484604 0.45361061 0.780341416
      vertex 0.0679877121 0.453448649 0.779451568
      vertex -0.00434391701 0.460402199 0.848152249
    endloop
  endfacet
  facet normal -0.039558895 0.989109937 -0.141762573
    outer loop
      vertex 0.0688484604 0.45361061 0.780341416
      vertex -0.00434391701 0.460402199 0.848152249
      vertex -0.00348316878 0.460564161 0.849042097
    endloop
  endfacet
  facet normal 0.723316291 -0.069535506 -0.687006809
    outer loop
      vertex 0.0685422423 0.450425295 0.780341416
      vertex 0.0679877121 0.453448649 0.779451568
      vertex 0.0688484604 0.45361061 0.780341416
    endloop
  endfacet
  facet normal -0.723316291 0.069535506 0.687006809
    outer loop
      vertex -0.0037893868 0.457378846 0.849042097
      vertex -0.00348316878 0.460564161 0.849042097
      vertex -0.00434391701 0.460402199 0.848152249
    endloop
  endfacet
  facet normal -0.300363027 0.864178105 -0.403705653
    outer loop
      vertex 0.0679877121 0.453448649 0.779451568
      vertex 0.0672113861 0.45282641 0.778697192
      vertex -0.00512024305 0.45977996 0.847397873
    endloop
  endfacet
  facet normal -0.300363027 0.864178105 -0.403705653
    outer loop
      vertex 0.0679877121 0.453448649 0.779451568
      vertex -0.00512024305 0.45977996 0.847397873
      vertex -0.00434391701 0.460402199 0.848152249
    endloop
  endfacet
  facet normal 0.723316291 -0.069535506 -0.687006809
    outer loop
      vertex 0.0685422423 0.450425295 0.780341416
      vertex 0.0672113861 0.45282641 0.778697192
      vertex 0.0679877121 0.453448649 0.779451568
    endloop
  endfacet
  facet normal -0.723316291 0.069535506 0.687006809
    outer loop
      vertex -0.0037893868 0.457378846 0.849042097
      vertex -0.00434391701 0.460402199 0.848152249
      vertex -0.00512024305 0.45977996 0.847397873
    endloop
  endfacet
  facet normal -0.515439611 0.607682991 -0.604188207
    outer loop
      vertex 0.0672113861 0.45282641 0.778697192
      vertex 0.0666376709 0.451838622 0.778193134
      vertex -0.00569395828 0.458792173 0.846893815
    endloop
  endfacet
  facet normal -0.515439611 0.607682991 -0.604188207
    outer loop
      vertex 0.0672113861 0.45282641 0.778697192
      vertex -0.00569395828 0.458792173 0.846893815
      vertex -0.00512024305 0.45977996 0.847397873
    endloop
  endfacet
  facet normal 0.723316291 -0.069535506 -0.687006809
    outer loop
      vertex 0.0685422423 0.450425295 0.780341416
      vertex 0.0666376709 0.451838622 0.778193134
      vertex 0.0672113861 0.45282641 0.778697192
    endloop
  endfacet
  facet normal -0.723316291 0.069535506 0.687006809
    outer loop
      vertex -0.0037893868 0.457378846 0.849042097
      vertex -0.00512024305 0.45977996 0.847397873
      vertex -0.00569395828 0.458792173 0.846893815
    endloop
  endfacet
  facet normal -0.652045187 0.25867365 -0.712688583
    outer loop
      vertex 0.0666376709 0.451838622 0.778193134
      vertex 0.0663539094 0.450635669 0.778016132
      vertex -0.00597771977 0.45758922 0.846716813
    endloop
  endfacet
  facet normal -0.652045187 0.25867365 -0.712688583
    outer loop
      vertex 0.0666376709 0.451838622 0.778193134
      vertex -0.00597771977 0.45758922 0.846716813
      vertex -0.00569395828 0.458792173 0.846893815
    endloop
  endfacet
  facet normal 0.723316291 -0.069535506 -0.687006809
    outer loop
      vertex 0.0685422423 0.450425295 0.780341416
      vertex 0.0663539094 0.450635669 0.778016132
      vertex 0.0666376709 0.451838622 0.778193134
    endloop
  endfacet
  facet normal -0.723316291 0.069535506 0.687006809
    outer loop
      vertex -0.0037893868 0.457378846 0.849042097
      vertex -0.00569395828 0.458792173 0.846893815
      vertex -0.00597771977 0.45758922 0.846716813
    endloop
  endfacet
  facet normal -0.689382794 -0.129716409 -0.712688583
    outer loop
      vertex 0.0663539094 0.450635669 0.778016132
      vertex 0.0664033017 0.449400688 0.778193134
      vertex -0.0059283274 0.456354239 0.846893815
    endloop
  endfacet
  facet normal -0.689382794 -0.129716409 -0.712688583
    outer loop
      vertex 0.0663539094 0.450635669 0.778016132
      vertex -0.0059283274 0.456354239 0.846893815
      vertex -0.00597771977 0.45758922 0.846716813
    endloop
  endfacet
  facet normal 0.723316291 -0.069535506 -0.687006809
    outer loop
      vertex 0.0685422423 0.450425295 0.780341416
      vertex 0.0664033017 0.449400688 0.778193134
      vertex 0.0663539094 0.450635669 0.778016132
    endloop
  endfacet
  facet normal -0.723316291 0.069535506 0.687006809
    outer loop
      vertex -0.0037893868 0.457378846 0.849042097
      vertex -0.00597771977 0.45758922 0.846716813
      vertex -0.0059283274 0.456354239 0.846893815
    endloop
  endfacet
  facet normal -0.62176812 -0.498358321 -0.604188207
    outer loop
      vertex 0.0664033017 0.449400688 0.778193134
      vertex 0.0667783284 0.448321694 0.778697192
      vertex -0.00555330071 0.455275245 0.847397873
    endloop
  endfacet
  facet normal -0.62176812 -0.498358321 -0.604188207
    outer loop
      vertex 0.0664033017 0.449400688 0.778193134
      vertex -0.00555330071 0.455275245 0.847397873
      vertex -0.0059283274 0.456354239 0.846893815
    endloop
  endfacet
  facet normal 0.723316291 -0.069535506 -0.687006809
    outer loop
      vertex 0.0685422423 0.450425295 0.780341416
      vertex 0.0667783284 0.448321694 0.778697192
      vertex 0.0664033017 0.449400688 0.778193134
    endloop
  endfacet
  facet normal -0.723316291 0.069535506 0.687006809
    outer loop
      vertex -0.0037893868 0.457378846 0.849042097
      vertex -0.0059283274 0.456354239 0.846893815
      vertex -0.00555330071 0.455275245 0.847397873
    endloop
  endfacet
  facet normal -0.459494885 -0.791129696 -0.403705653
    outer loop
      vertex 0.0667783284 0.448321694 0.778697192
      vertex 0.067421895 0.447562955 0.779451568
      vertex -0.00490973412 0.454516505 0.848152249
    endloop
  endfacet
  facet normal -0.459494885 -0.791129696 -0.403705653
    outer loop
      vertex 0.0667783284 0.448321694 0.778697192
      vertex -0.00490973412 0.454516505 0.848152249
      vertex -0.00555330071 0.455275245 0.847397873
    endloop
  endfacet
  facet normal 0.723316291 -0.069535506 -0.687006809
    outer loop
      vertex 0.0685422423 0.450425295 0.780341416
      vertex 0.067421895 0.447562955 0.779451568
      vertex 0.0667783284 0.448321694 0.778697192
    endloop
  endfacet
  facet normal -0.723316291 0.069535506 0.687006809
    outer loop
      vertex -0.0037893868 0.457378846 0.849042097
      vertex -0.00555330071 0.455275245 0.847397873
      vertex -0.00490973412 0.454516505 0.848152249
    endloop
  endfacet
  facet normal -0.22726772 -0.963458746 -0.141762573
    outer loop
      vertex 0.067421895 0.447562955 0.779451568
      vertex 0.0682360243 0.44723998 0.780341416
      vertex -0.00409560481 0.454193531 0.849042097
    endloop
  endfacet
  facet normal -0.22726772 -0.963458746 -0.141762573
    outer loop
      vertex 0.067421895 0.447562955 0.779451568
      vertex -0.00409560481 0.454193531 0.849042097
      vertex -0.00490973412 0.454516505 0.848152249
    endloop
  endfacet
  facet normal 0.723316291 -0.069535506 -0.687006809
    outer loop
      vertex 0.0685422423 0.450425295 0.780341416
      vertex 0.0682360243 0.44723998 0.780341416
      vertex 0.067421895 0.447562955 0.779451568
    endloop
  endfacet
  facet normal -0.723316291 0.069535506 0.687006809
    outer loop
      vertex -0.0037893868 0.457378846 0.849042097
      vertex -0.00490973412 0.454516505 0.848152249
      vertex -0.00409560481 0.454193531 0.849042097
    endloop
  endfacet
  facet normal 0.039558895 -0.989109937 0.141762573
    outer loop
      vertex 0.0682360243 0.44723998 0.780341416
      vertex 0.0690967726 0.447401941 0.781231263
      vertex -0.00323485658 0.454355492 0.849931944
    endloop
  endfacet
  facet normal 0.039558895 -0.989109937 0.141762573
    outer loop
      vertex 0.0682360243 0.44723998 0.780341416
      vertex -0.00323485658 0.454355492 0.849931944
      vertex -0.00409560481 0.454193531 0.849042097
    endloop
  endfacet
  facet normal 0.723316291 -0.069535506 -0.687006809
    outer loop
      vertex 0.0685422423 0.450425295 0.780341416
      vertex 0.0690967726 0.447401941 0.781231263
      vertex 0.0682360243 0.44723998 0.780341416
    endloop
  endfacet
  facet normal -0.723316291 0.069535506 0.687006809
    outer loop
      vertex -0.0037893868 0.457378846 0.849042097
      vertex -0.00409560481 0.454193531 0.849042097
      vertex -0.00323485658 0.454355492 0.849931944
    endloop
  endfacet
  facet normal 0.300363027 -0.864178105 0.403705653
    outer loop
      vertex 0.0690967726 0.447401941 0.781231263
      vertex 0.0698730986 0.448024181 0.781985639
      vertex -0.00245853054 0.454977731 0.85068632
    endloop
  endfacet
  facet normal 0.300363027 -0.864178105 0.403705653
    outer loop
      vertex 0.0690967726 0.447401941 0.781231263
      vertex -0.00245853054 0.454977731 0.85068632
      vertex -0.00323485658 0.454355492 0.849931944
    endloop
  endfacet
  facet normal 0.723316291 -0.069535506 -0.687006809
    outer loop
      vertex 0.0685422423 0.450425295 0.780341416
      vertex 0.0698730986 0.448024181 0.781985639
      vertex 0.0690967726 0.447401941 0.781231263
    endloop
  endfacet
  facet normal -0.723316291 0.069535506 0.687006809
    outer loop
      vertex -0.0037893868 0.457378846 0.849042097
      vertex -0.00323485658 0.454355492 0.849931944
      vertex -0.00245853054 0.454977731 0.85068632
    endloop
  endfacet
  facet normal 0.515439611 -0.607682991 0.604188207
    outer loop
      vertex 0.0698730986 0.448024181 0.781985639
      vertex 0.0704468138 0.449011968 0.782489697
      vertex -0.00188481531 0.455965518 0.851190378
    endloop
  endfacet
  facet normal 0.515439611 -0.607682991 0.604188207
    outer loop
      vertex 0.0698730986 0.448024181 0.781985639
      vertex -0.00188481531 0.455965518 0.851190378
      vertex -0.00245853054 0.454977731 0.85068632
    endloop
  endfacet
  facet normal 0.723316291 -0.069535506 -0.687006809
    outer loop
      vertex 0.0685422423 0.450425295 0.780341416
      vertex 0.0704468138 0.449011968 0.782489697
      vertex 0.0698730986 0.448024181 0.781985639
    endloop
  endfacet
  facet normal -0.723316291 0.069535506 0.687006809
    outer loop
      vertex -0.0037893868 0.457378846 0.849042097
      vertex -0.00245853054 0.454977731 0.85068632
      vertex -0.00188481531 0.455965518 0.851190378
    endloop
  endfacet
  facet normal 0.652045187 -0.25867365 0.712688583
    outer loop
      vertex 0.0704468138 0.449011968 0.782489697
      vertex 0.0707305753 0.450214921 0.782666699
      vertex -0.00160105382 0.457168472 0.85136738
    endloop
  endfacet
  facet normal 0.652045187 -0.25867365 0.712688583
    outer loop
      vertex 0.0704468138 0.449011968 0.782489697
      vertex -0.00160105382 0.457168472 0.85136738
      vertex -0.00188481531 0.455965518 0.851190378
    endloop
  endfacet
  facet normal 0.723316291 -0.069535506 -0.687006809
    outer loop
      vertex 0.0685422423 0.450425295 0.780341416
      vertex 0.0707305753 0.450214921 0.782666699
      vertex 0.0704468138 0.449011968 0.782489697
    endloop
  endfacet
  facet normal -0.723316291 0.069535506 0.687006809
    outer loop
      vertex -0.0037893868 0.457378846 0.849042097
      vertex -0.00188481531 0.455965518 0.851190378
      vertex -0.00160105382 0.457168472 0.85136738
    endloop
  endfacet
  facet normal 0.689382794 0.129716409 0.712688583
    outer loop
      vertex 0.0707305753 0.450214921 0.782666699
      vertex 0.070681183 0.451449902 0.782489697
      vertex -0.00165044619 0.458403453 0.851190378
    endloop
  endfacet
  facet normal 0.689382794 0.129716409 0.712688583
    outer loop
      vertex 0.0707305753 0.450214921 0.782666699
      vertex -0.00165044619 0.458403453 0.851190378
      vertex -0.00160105382 0.457168472 0.85136738
    endloop
  endfacet
  facet normal 0.723316291 -0.069535506 -0.687006809
    outer loop
      vertex 0.0685422423 0.450425295 0.780341416
      vertex 0.070681183 0.451449902 0.782489697
      vertex 0.0707305753 0.450214921 0.782666699
    endloop
  endfacet
  facet normal -0.723316291 0.069535506 0.687006809
    outer loop
      vertex -0.0037893868 0.457378846 0.849042097
      vertex -0.00160105382 0.457168472 0.85136738
      vertex -0.00165044619 0.458403453 0.851190378
    endloop
  endfacet
  facet normal 0.62176812 0.498358321 0.604188207
    outer loop
      vertex 0.070681183 0.451449902 0.782489697
      vertex 0.0703061563 0.452528896 0.781985639
      vertex -0.00202547288 0.459482447 0.85068632
    endloop
  endfacet
  facet normal 0.62176812 0.498358321 0.604188207
    outer loop
      vertex 0.070681183 0.451449902 0.782489697
      vertex -0.00202547288 0.459482447 0.85068632
      vertex -0.00165044619 0.458403453 0.851190378
    endloop
  endfacet
  facet normal 0.723316291 -0.069535506 -0.687006809
    outer loop
      vertex 0.0685422423 0.450425295 0.780341416
      vertex 0.0703061563 0.452528896 0.781985639
      vertex 0.070681183 0.451449902 0.782489697
    endloop
  endfacet
  facet normal -0.723316291 0.069535506 0.687006809
    outer loop
      vertex -0.0037893868 0.457378846 0.849042097
      vertex -0.00165044619 0.458403453 0.851190378
      vertex -0.00202547288 0.459482447 0.85068632
    endloop
  endfacet
  facet normal 0.459494885 0.791129696 0.403705653
    outer loop
      vertex 0.0703061563 0.452528896 0.781985639
      vertex 0.0696625897 0.453287636 0.781231263
      vertex -0.00266903947 0.460241186 0.849931944
    endloop
  endfacet
  facet normal 0.459494885 0.791129696 0.403705653
    outer loop
      vertex 0.0703061563 0.452528896 0.781985639
      vertex -0.00266903947 0.460241186 0.849931944
      vertex -0.00202547288 0.459482447 0.85068632
    endloop
  endfacet
  facet normal 0.723316291 -0.069535506 -0.687006809
    outer loop
      vertex 0.0685422423 0.450425295 0.780341416
      vertex 0.0696625897 0.453287636 0.781231263
      vertex 0.0703061563 0.452528896 0.781985639
    endloop
  endfacet
  facet normal -0.723316291 0.069535506 0.687006809
    outer loop
      vertex -0.0037893868 0.457378846 0.849042097
      vertex -0.00202547288 0.459482447 0.85068632
      vertex -0.00266903947 0.460241186 0.849931944
    endloop
  endfacet
  facet normal 0.22726772 0.963458746 0.141762573
    outer loop
      vertex 0.0696625897 0.453287636 0.781231263
      vertex 0.0688484604 0.45361061 0.780341416
      vertex -0.00348316878 0.460564161 0.849042097
    endloop
  endfacet
  facet normal 0.22726772 0.963458746 0.141762573
    outer loop
      vertex 0.0696625897 0.453287636 0.781231263
      vertex -0.00348316878 0.460564161 0.849042097
      vertex -0.00266903947 0.460241186 0.849931944
    endloop
  endfacet
  facet normal 0.723316291 -0.069535506 -0.687006809
    outer loop
      vertex 0.0685422423 0.450425295 0.780341416
      vertex 0.0688484604 0.45361061 0.780341416
      vertex 0.0696625897 0.453287636 0.781231263
    endloop
  endfacet
  facet normal -0.723316291 0.069535506 0.687006809
    outer loop
      vertex -0.0037893868 0.457378846 0.849042097
      vertex -0.00266903947 0.460241186 0.849931944
      vertex -0.00348316878 0.460564161 0.849042097
    endloop
  endfacet
  facet normal -0.881664669 -0.436666761 -0.17885623
    outer loop
      vertex 0.129880752 0.725131696 0.908714341
      vertex 0.130288581 0.724768102 0.907591655
      vertex 0.181371683 0.597089904 0.967498204
    endloop
  endfacet
  facet normal -0.881664669 -0.436666761 -0.17885623
    outer loop
      vertex 0.129880752 0.725131696 0.908714341
      vertex 0.181371683 0.597089904 0.967498204
      vertex 0.180963853 0.597453498 0.968620889
    endloop
  endfacet
  facet normal -0.340554009 0.851187985 -0.39937699
    outer loop
      vertex 0.132851783 0.726320383 0.908714341
      vertex 0.130288581 0.724768102 0.907591655
      vertex 0.129880752 0.725131696 0.908714341
    endloop
  endfacet
  facet normal 0.340554009 -0.851187985 0.39937699
    outer loop
      vertex 0.183934884 0.598642185 0.968620889
      vertex 0.180963853 0.597453498 0.968620889
      vertex 0.181371683 0.597089904 0.967498204
    endloop
  endfacet
  facet normal -0.689554166 -0.514867339 -0.509339451
    outer loop
      vertex 0.130288581 0.724768102 0.907591655
      vertex 0.131086635 0.724640829 0.906639889
      vertex 0.182169736 0.596962631 0.966546437
    endloop
  endfacet
  facet normal -0.689554166 -0.514867339 -0.509339451
    outer loop
      vertex 0.130288581 0.724768102 0.907591655
      vertex 0.182169736 0.596962631 0.966546437
      vertex 0.181371683 0.597089904 0.967498204
    endloop
  endfacet
  facet normal -0.340554009 0.851187985 -0.39937699
    outer loop
      vertex 0.132851783 0.726320383 0.908714341
      vertex 0.131086635 0.724640829 0.906639889
      vertex 0.130288581 0.724768102 0.907591655
    endloop
  endfacet
  facet normal 0.340554009 -0.851187985 0.39937699
    outer loop
      vertex 0.183934884 0.598642185 0.968620889
      vertex 0.181371683 0.597089904 0.967498204
      vertex 0.182169736 0.596962631 0.966546437
    endloop
  endfacet
  facet normal -0.392465291 -0.514684031 -0.762280357
    outer loop
      vertex 0.131086635 0.724640829 0.906639889
      vertex 0.132153416 0.724769253 0.906003939
      vertex 0.183236517 0.597091055 0.965910487
    endloop
  endfacet
  facet normal -0.392465291 -0.514684031 -0.762280357
    outer loop
      vertex 0.131086635 0.724640829 0.906639889
      vertex 0.183236517 0.597091055 0.965910487
      vertex 0.182169736 0.596962631 0.966546437
    endloop
  endfacet
  facet normal -0.340554009 0.851187985 -0.39937699
    outer loop
      vertex 0.132851783 0.726320383 0.908714341
      vertex 0.132153416 0.724769253 0.906003939
      vertex 0.131086635 0.724640829 0.906639889
    endloop
  endfacet
  facet normal 0.340554009 -0.851187985 0.39937699
    outer loop
      vertex 0.183934884 0.598642185 0.968620889
      vertex 0.182169736 0.596962631 0.966546437
      vertex 0.183236517 0.597091055 0.965910487
    endloop
  endfacet
  facet normal -0.0356271343 -0.436144745 -0.89917099
    outer loop
      vertex 0.132153416 0.724769253 0.906003939
      vertex 0.133326517 0.725133822 0.905780623
      vertex 0.184409618 0.597455624 0.965687171
    endloop
  endfacet
  facet normal -0.0356271343 -0.436144745 -0.89917099
    outer loop
      vertex 0.132153416 0.724769253 0.906003939
      vertex 0.184409618 0.597455624 0.965687171
      vertex 0.183236517 0.597091055 0.965910487
    endloop
  endfacet
  facet normal -0.340554009 0.851187985 -0.39937699
    outer loop
      vertex 0.132851783 0.726320383 0.908714341
      vertex 0.133326517 0.725133822 0.905780623
      vertex 0.132153416 0.724769253 0.906003939
    endloop
  endfacet
  facet normal 0.340554009 -0.851187985 0.39937699
    outer loop
      vertex 0.183934884 0.598642185 0.968620889
      vertex 0.183236517 0.597091055 0.965910487
      vertex 0.184409618 0.597455624 0.965687171
    endloop
  endfacet
  facet normal 0.326634931 -0.291206376 -0.89917099
    outer loop
      vertex 0.133326517 0.725133822 0.905780623
      vertex 0.134427344 0.725679034 0.906003939
      vertex 0.185510445 0.598000837 0.965910487
    endloop
  endfacet
  facet normal 0.326634931 -0.291206376 -0.89917099
    outer loop
      vertex 0.133326517 0.725133822 0.905780623
      vertex 0.185510445 0.598000837 0.965910487
      vertex 0.184409618 0.597455624 0.965687171
    endloop
  endfacet
  facet normal -0.340554009 0.851187985 -0.39937699
    outer loop
      vertex 0.132851783 0.726320383 0.908714341
      vertex 0.134427344 0.725679034 0.906003939
      vertex 0.133326517 0.725133822 0.905780623
    endloop
  endfacet
  facet normal 0.340554009 -0.851187985 0.39937699
    outer loop
      vertex 0.183934884 0.598642185 0.968620889
      vertex 0.184409618 0.597455624 0.965687171
      vertex 0.185510445 0.598000837 0.965910487
    endloop
  endfacet
  facet normal 0.639169789 -0.101934475 -0.762280357
    outer loop
      vertex 0.134427344 0.725679034 0.906003939
      vertex 0.135288306 0.726321886 0.906639889
      vertex 0.186371408 0.598643689 0.966546437
    endloop
  endfacet
  facet normal 0.639169789 -0.101934475 -0.762280357
    outer loop
      vertex 0.134427344 0.725679034 0.906003939
      vertex 0.186371408 0.598643689 0.966546437
      vertex 0.185510445 0.598000837 0.965910487
    endloop
  endfacet
  facet normal -0.340554009 0.851187985 -0.39937699
    outer loop
      vertex 0.132851783 0.726320383 0.908714341
      vertex 0.135288306 0.726321886 0.906639889
      vertex 0.134427344 0.725679034 0.906003939
    endloop
  endfacet
  facet normal 0.340554009 -0.851187985 0.39937699
    outer loop
      vertex 0.183934884 0.598642185 0.968620889
      vertex 0.185510445 0.598000837 0.965910487
      vertex 0.186371408 0.598643689 0.966546437
    endloop
  endfacet
  facet normal 0.854396841 0.102856025 -0.509339451
    outer loop
      vertex 0.135288306 0.726321886 0.906639889
      vertex 0.13577833 0.72696451 0.907591655
      vertex 0.186861431 0.599286312 0.967498204
    endloop
  endfacet
  facet normal 0.854396841 0.102856025 -0.509339451
    outer loop
      vertex 0.135288306 0.726321886 0.906639889
      vertex 0.186861431 0.599286312 0.967498204
      vertex 0.186371408 0.598643689 0.966546437
    endloop
  endfacet
  facet normal -0.340554009 0.851187985 -0.39937699
    outer loop
      vertex 0.132851783 0.726320383 0.908714341
      vertex 0.13577833 0.72696451 0.907591655
      vertex 0.135288306 0.726321886 0.906639889
    endloop
  endfacet
  facet normal 0.340554009 -0.851187985 0.39937699
    outer loop
      vertex 0.183934884 0.598642185 0.968620889
      vertex 0.186371408 0.598643689 0.966546437
      vertex 0.186861431 0.599286312 0.967498204
    endloop
  endfacet
  facet normal 0.939549719 0.291987628 -0.17885623
    outer loop
      vertex 0.13577833 0.72696451 0.907591655
      vertex 0.135822813 0.72750907 0.908714341
      vertex 0.186905914 0.599830873 0.968620889
    endloop
  endfacet
  facet normal 0.939549719 0.291987628 -0.17885623
    outer loop
      vertex 0.13577833 0.72696451 0.907591655
      vertex 0.186905914 0.599830873 0.968620889
      vertex 0.186861431 0.599286312 0.967498204
    endloop
  endfacet
  facet normal -0.340554009 0.851187985 -0.39937699
    outer loop
      vertex 0.132851783 0.726320383 0.908714341
      vertex 0.135822813 0.72750907 0.908714341
      vertex 0.13577833 0.72696451 0.907591655
    endloop
  endfacet
  facet normal 0.340554009 -0.851187985 0.39937699
    outer loop
      vertex 0.183934884 0.598642185 0.968620889
      vertex 0.186861431 0.599286312 0.967498204
      vertex 0.186905914 0.599830873 0.968620889
    endloop
  endfacet
  facet normal 0.881664669 0.436666761 0.17885623
    outer loop
      vertex 0.135822813 0.72750907 0.908714341
      vertex 0.135414984 0.727872664 0.909837026
      vertex 0.186498085 0.600194466 0.969743574
    endloop
  endfacet
  facet normal 0.881664669 0.436666761 0.17885623
    outer loop
      vertex 0.135822813 0.72750907 0.908714341
      vertex 0.186498085 0.600194466 0.969743574
      vertex 0.186905914 0.599830873 0.968620889
    endloop
  endfacet
  facet normal -0.340554009 0.851187985 -0.39937699
    outer loop
      vertex 0.132851783 0.726320383 0.908714341
      vertex 0.135414984 0.727872664 0.909837026
      vertex 0.135822813 0.72750907 0.908714341
    endloop
  endfacet
  facet normal 0.340554009 -0.851187985 0.39937699
    outer loop
      vertex 0.183934884 0.598642185 0.968620889
      vertex 0.186905914 0.599830873 0.968620889
      vertex 0.186498085 0.600194466 0.969743574
    endloop
  endfacet
  facet normal 0.689554166 0.514867339 0.509339451
    outer loop
      vertex 0.135414984 0.727872664 0.909837026
      vertex 0.134616931 0.727999937 0.910788792
      vertex 0.185700032 0.60032174 0.970695341
    endloop
  endfacet
  facet normal 0.689554166 0.514867339 0.509339451
    outer loop
      vertex 0.135414984 0.727872664 0.909837026
      vertex 0.185700032 0.60032174 0.970695341
      vertex 0.186498085 0.600194466 0.969743574
    endloop
  endfacet
  facet normal -0.340554009 0.851187985 -0.39937699
    outer loop
      vertex 0.132851783 0.726320383 0.908714341
      vertex 0.134616931 0.727999937 0.910788792
      vertex 0.135414984 0.727872664 0.909837026
    endloop
  endfacet
  facet normal 0.340554009 -0.851187985 0.39937699
    outer loop
      vertex 0.183934884 0.598642185 0.968620889
      vertex 0.186498085 0.600194466 0.969743574
      vertex 0.185700032 0.60032174 0.970695341
    endloop
  endfacet
  facet normal 0.392465291 0.514684031 0.762280357
    outer loop
      vertex 0.134616931 0.727999937 0.910788792
      vertex 0.133550149 0.727871514 0.911424742
      vertex 0.184633251 0.600193316 0.971331291
    endloop
  endfacet
  facet normal 0.392465291 0.514684031 0.762280357
    outer loop
      vertex 0.134616931 0.727999937 0.910788792
      vertex 0.184633251 0.600193316 0.971331291
      vertex 0.185700032 0.60032174 0.970695341
    endloop
  endfacet
  facet normal -0.340554009 0.851187985 -0.39937699
    outer loop
      vertex 0.132851783 0.726320383 0.908714341
      vertex 0.133550149 0.727871514 0.911424742
      vertex 0.134616931 0.727999937 0.910788792
    endloop
  endfacet
  facet normal 0.340554009 -0.851187985 0.39937699
    outer loop
      vertex 0.183934884 0.598642185 0.968620889
      vertex 0.185700032 0.60032174 0.970695341
      vertex 0.184633251 0.600193316 0.971331291
    endloop
  endfacet
  facet normal 0.0356271343 0.436144745 0.89917099
    outer loop
      vertex 0.133550149 0.727871514 0.911424742
      vertex 0.132377048 0.727506944 0.911648058
      vertex 0.18346015 0.599828747 0.971554607
    endloop
  endfacet
  facet normal 0.0356271343 0.436144745 0.89917099
    outer loop
      vertex 0.133550149 0.727871514 0.911424742
      vertex 0.18346015 0.599828747 0.971554607
      vertex 0.184633251 0.600193316 0.971331291
    endloop
  endfacet
  facet normal -0.340554009 0.851187985 -0.39937699
    outer loop
      vertex 0.132851783 0.726320383 0.908714341
      vertex 0.132377048 0.727506944 0.911648058
      vertex 0.133550149 0.727871514 0.911424742
    endloop
  endfacet
  facet normal 0.340554009 -0.851187985 0.39937699
    outer loop
      vertex 0.183934884 0.598642185 0.968620889
      vertex 0.184633251 0.600193316 0.971331291
      vertex 0.18346015 0.599828747 0.971554607
    endloop
  endfacet
  facet normal -0.326634931 0.291206376 0.89917099
    outer loop
      vertex 0.132377048 0.727506944 0.911648058
      vertex 0.131276221 0.726961732 0.911424742
      vertex 0.182359322 0.599283534 0.971331291
    endloop
  endfacet
  facet normal -0.326634931 0.291206376 0.89917099
    outer loop
      vertex 0.132377048 0.727506944 0.911648058
      vertex 0.182359322 0.599283534 0.971331291
      vertex 0.18346015 0.599828747 0.971554607
    endloop
  endfacet
  facet normal -0.340554009 0.851187985 -0.39937699
    outer loop
      vertex 0.132851783 0.726320383 0.908714341
      vertex 0.131276221 0.726961732 0.911424742
      vertex 0.132377048 0.727506944 0.911648058
    endloop
  endfacet
  facet normal 0.340554009 -0.851187985 0.39937699
    outer loop
      vertex 0.183934884 0.598642185 0.968620889
      vertex 0.18346015 0.599828747 0.971554607
      vertex 0.182359322 0.599283534 0.971331291
    endloop
  endfacet
  facet normal -0.639169789 0.101934475 0.762280357
    outer loop
      vertex 0.131276221 0.726961732 0.911424742
      vertex 0.130415259 0.72631888 0.910788792
      vertex 0.18149836 0.598640682 0.970695341
    endloop
  endfacet
  facet normal -0.639169789 0.101934475 0.762280357
    outer loop
      vertex 0.131276221 0.726961732 0.911424742
      vertex 0.18149836 0.598640682 0.970695341
      vertex 0.182359322 0.599283534 0.971331291
    endloop
  endfacet
  facet normal -0.340554009 0.851187985 -0.39937699
    outer loop
      vertex 0.132851783 0.726320383 0.908714341
      vertex 0.130415259 0.72631888 0.910788792
      vertex 0.131276221 0.726961732 0.911424742
    endloop
  endfacet
  facet normal 0.340554009 -0.851187985 0.39937699
    outer loop
      vertex 0.183934884 0.598642185 0.968620889
      vertex 0.182359322 0.599283534 0.971331291
      vertex 0.18149836 0.598640682 0.970695341
    endloop
  endfacet
  facet normal -0.854396841 -0.102856025 0.509339451
    outer loop
      vertex 0.130415259 0.72631888 0.910788792
      vertex 0.129925235 0.725676257 0.909837026
      vertex 0.181008337 0.597998059 0.969743574
    endloop
  endfacet
  facet normal -0.854396841 -0.102856025 0.509339451
    outer loop
      vertex 0.130415259 0.72631888 0.910788792
      vertex 0.181008337 0.597998059 0.969743574
      vertex 0.18149836 0.598640682 0.970695341
    endloop
  endfacet
  facet normal -0.340554009 0.851187985 -0.39937699
    outer loop
      vertex 0.132851783 0.726320383 0.908714341
      vertex 0.129925235 0.725676257 0.909837026
      vertex 0.130415259 0.72631888 0.910788792
    endloop
  endfacet
  facet normal 0.340554009 -0.851187985 0.39937699
    outer loop
      vertex 0.183934884 0.598642185 0.968620889
      vertex 0.18149836 0.598640682 0.970695341
      vertex 0.181008337 0.597998059 0.969743574
    endloop
  endfacet
  facet normal -0.939549719 -0.291987628 0.17885623
    outer loop
      vertex 0.129925235 0.725676257 0.909837026
      vertex 0.129880752 0.725131696 0.908714341
      vertex 0.180963853 0.597453498 0.968620889
    endloop
  endfacet
  facet normal -0.939549719 -0.291987628 0.17885623
    outer loop
      vertex 0.129925235 0.725676257 0.909837026
      vertex 0.180963853 0.597453498 0.968620889
      vertex 0.181008337 0.597998059 0.969743574
    endloop
  endfacet
  facet normal -0.340554009 0.851187985 -0.39937699
    outer loop
      vertex 0.132851783 0.726320383 0.908714341
      vertex 0.129880752 0.725131696 0.908714341
      vertex 0.129925235 0.725676257 0.909837026
    endloop
  endfacet
  facet normal 0.340554009 -0.851187985 0.39937699
    outer loop
      vertex 0.183934884 0.598642185 0.968620889
      vertex 0.181008337 0.597998059 0.969743574
      vertex 0.180963853 0.597453498 0.968620889
    endloop
  endfacet
  facet normal -0.881664669 -0.436666761 -0.17885623
    outer loop
      vertex 0.150972343 0.723586611 0.887436241
      vertex 0.151380172 0.723223017 0.886313556
      vertex 0.202463274 0.59554482 0.946220105
    endloop
  endfacet
  facet normal -0.881664669 -0.436666761 -0.17885623
    outer loop
      vertex 0.150972343 0.723586611 0.887436241
      vertex 0.202463274 0.59554482 0.946220105
      vertex 0.202055444 0.595908413 0.94734279
    endloop
  endfacet
  facet normal -0.340554009 0.851187985 -0.39937699
    outer loop
      vertex 0.153943373 0.724775299 0.887436241
      vertex 0.151380172 0.723223017 0.886313556
      vertex 0.150972343 0.723586611 0.887436241
    endloop
  endfacet
  facet normal 0.340554009 -0.851187985 0.39937699
    outer loop
      vertex 0.205026475 0.597097101 0.94734279
      vertex 0.202055444 0.595908413 0.94734279
      vertex 0.202463274 0.59554482 0.946220105
    endloop
  endfacet
  facet normal -0.689554166 -0.514867339 -0.509339451
    outer loop
      vertex 0.151380172 0.723223017 0.886313556
      vertex 0.152178226 0.723095744 0.88536179
      vertex 0.203261327 0.595417546 0.945268338
    endloop
  endfacet
  facet normal -0.689554166 -0.514867339 -0.509339451
    outer loop
      vertex 0.151380172 0.723223017 0.886313556
      vertex 0.203261327 0.595417546 0.945268338
      vertex 0.202463274 0.59554482 0.946220105
    endloop
  endfacet
  facet normal -0.340554009 0.851187985 -0.39937699
    outer loop
      vertex 0.153943373 0.724775299 0.887436241
      vertex 0.152178226 0.723095744 0.88536179
      vertex 0.151380172 0.723223017 0.886313556
    endloop
  endfacet
  facet normal 0.340554009 -0.851187985 0.39937699
    outer loop
      vertex 0.205026475 0.597097101 0.94734279
      vertex 0.202463274 0.59554482 0.946220105
      vertex 0.203261327 0.595417546 0.945268338
    endloop
  endfacet
  facet normal -0.392465291 -0.514684031 -0.762280357
    outer loop
      vertex 0.152178226 0.723095744 0.88536179
      vertex 0.153245007 0.723224168 0.88472584
      vertex 0.204328108 0.59554597 0.944632388
    endloop
  endfacet
  facet normal -0.392465291 -0.514684031 -0.762280357
    outer loop
      vertex 0.152178226 0.723095744 0.88536179
      vertex 0.204328108 0.59554597 0.944632388
      vertex 0.203261327 0.595417546 0.945268338
    endloop
  endfacet
  facet normal -0.340554009 0.851187985 -0.39937699
    outer loop
      vertex 0.153943373 0.724775299 0.887436241
      vertex 0.153245007 0.723224168 0.88472584
      vertex 0.152178226 0.723095744 0.88536179
    endloop
  endfacet
  facet normal 0.340554009 -0.851187985 0.39937699
    outer loop
      vertex 0.205026475 0.597097101 0.94734279
      vertex 0.203261327 0.595417546 0.945268338
      vertex 0.204328108 0.59554597 0.944632388
    endloop
  endfacet
  facet normal -0.0356271343 -0.436144745 -0.89917099
    outer loop
      vertex 0.153245007 0.723224168 0.88472584
      vertex 0.154418108 0.723588737 0.884502524
      vertex 0.205501209 0.59591054 0.944409072
    endloop
  endfacet
  facet normal -0.0356271343 -0.436144745 -0.89917099
    outer loop
      vertex 0.153245007 0.723224168 0.88472584
      vertex 0.205501209 0.59591054 0.944409072
      vertex 0.204328108 0.59554597 0.944632388
    endloop
  endfacet
  facet normal -0.340554009 0.851187985 -0.39937699
    outer loop
      vertex 0.153943373 0.724775299 0.887436241
      vertex 0.154418108 0.723588737 0.884502524
      vertex 0.153245007 0.723224168 0.88472584
    endloop
  endfacet
  facet normal 0.340554009 -0.851187985 0.39937699
    outer loop
      vertex 0.205026475 0.597097101 0.94734279
      vertex 0.204328108 0.59554597 0.944632388
      vertex 0.205501209 0.59591054 0.944409072
    endloop
  endfacet
  facet normal 0.326634931 -0.291206376 -0.89917099
    outer loop
      vertex 0.154418108 0.723588737 0.884502524
      vertex 0.155518935 0.72413395 0.88472584
      vertex 0.206602036 0.596455752 0.944632388
    endloop
  endfacet
  facet normal 0.326634931 -0.291206376 -0.89917099
    outer loop
      vertex 0.154418108 0.723588737 0.884502524
      vertex 0.206602036 0.596455752 0.944632388
      vertex 0.205501209 0.59591054 0.944409072
    endloop
  endfacet
  facet normal -0.340554009 0.851187985 -0.39937699
    outer loop
      vertex 0.153943373 0.724775299 0.887436241
      vertex 0.155518935 0.72413395 0.88472584
      vertex 0.154418108 0.723588737 0.884502524
    endloop
  endfacet
  facet normal 0.340554009 -0.851187985 0.39937699
    outer loop
      vertex 0.205026475 0.597097101 0.94734279
      vertex 0.205501209 0.59591054 0.944409072
      vertex 0.206602036 0.596455752 0.944632388
    endloop
  endfacet
  facet normal 0.639169789 -0.101934475 -0.762280357
    outer loop
      vertex 0.155518935 0.72413395 0.88472584
      vertex 0.156379897 0.724776802 0.88536179
      vertex 0.207462999 0.597098604 0.945268338
    endloop
  endfacet
  facet normal 0.639169789 -0.101934475 -0.762280357
    outer loop
      vertex 0.155518935 0.72413395 0.88472584
      vertex 0.207462999 0.597098604 0.945268338
      vertex 0.206602036 0.596455752 0.944632388
    endloop
  endfacet
  facet normal -0.340554009 0.851187985 -0.39937699
    outer loop
      vertex 0.153943373 0.724775299 0.887436241
      vertex 0.156379897 0.724776802 0.88536179
      vertex 0.155518935 0.72413395 0.88472584
    endloop
  endfacet
  facet normal 0.340554009 -0.851187985 0.39937699
    outer loop
      vertex 0.205026475 0.597097101 0.94734279
      vertex 0.206602036 0.596455752 0.944632388
      vertex 0.207462999 0.597098604 0.945268338
    endloop
  endfacet
  facet normal 0.854396841 0.102856025 -0.509339451
    outer loop
      vertex 0.156379897 0.724776802 0.88536179
      vertex 0.156869921 0.725419425 0.886313556
      vertex 0.207953022 0.597741227 0.946220105
    endloop
  endfacet
  facet normal 0.854396841 0.102856025 -0.509339451
    outer loop
      vertex 0.156379897 0.724776802 0.88536179
      vertex 0.207953022 0.597741227 0.946220105
      vertex 0.207462999 0.597098604 0.945268338
    endloop
  endfacet
  facet normal -0.340554009 0.851187985 -0.39937699
    outer loop
      vertex 0.153943373 0.724775299 0.887436241
      vertex 0.156869921 0.725419425 0.886313556
      vertex 0.156379897 0.724776802 0.88536179
    endloop
  endfacet
  facet normal 0.340554009 -0.851187985 0.39937699
    outer loop
      vertex 0.205026475 0.597097101 0.94734279
      vertex 0.207462999 0.597098604 0.945268338
      vertex 0.207953022 0.597741227 0.946220105
    endloop
  endfacet
  facet normal 0.939549719 0.291987628 -0.17885623
    outer loop
      vertex 0.156869921 0.725419425 0.886313556
      vertex 0.156914404 0.725963986 0.887436241
      vertex 0.207997505 0.598285788 0.94734279
    endloop
  endfacet
  facet normal 0.939549719 0.291987628 -0.17885623
    outer loop
      vertex 0.156869921 0.725419425 0.886313556
      vertex 0.207997505 0.598285788 0.94734279
      vertex 0.207953022 0.597741227 0.946220105
    endloop
  endfacet
  facet normal -0.340554009 0.851187985 -0.39937699
    outer loop
      vertex 0.153943373 0.724775299 0.887436241
      vertex 0.156914404 0.725963986 0.887436241
      vertex 0.156869921 0.725419425 0.886313556
    endloop
  endfacet
  facet normal 0.340554009 -0.851187985 0.39937699
    outer loop
      vertex 0.205026475 0.597097101 0.94734279
      vertex 0.207953022 0.597741227 0.946220105
      vertex 0.207997505 0.598285788 0.94734279
    endloop
  endfacet
  facet normal 0.881664669 0.436666761 0.17885623
    outer loop
      vertex 0.156914404 0.725963986 0.887436241
      vertex 0.156506575 0.72632758 0.888558927
      vertex 0.207589676 0.598649382 0.948465475
    endloop
  endfacet
  facet normal 0.881664669 0.436666761 0.17885623
    outer loop
      vertex 0.156914404 0.725963986 0.887436241
      vertex 0.207589676 0.598649382 0.948465475
      vertex 0.207997505 0.598285788 0.94734279
    endloop
  endfacet
  facet normal -0.340554009 0.851187985 -0.39937699
    outer loop
      vertex 0.153943373 0.724775299 0.887436241
      vertex 0.156506575 0.72632758 0.888558927
      vertex 0.156914404 0.725963986 0.887436241
    endloop
  endfacet
  facet normal 0.340554009 -0.851187985 0.39937699
    outer loop
      vertex 0.205026475 0.597097101 0.94734279
      vertex 0.207997505 0.598285788 0.94734279
      vertex 0.207589676 0.598649382 0.948465475
    endloop
  endfacet
  facet normal 0.689554166 0.514867339 0.509339451
    outer loop
      vertex 0.156506575 0.72632758 0.888558927
      vertex 0.155708521 0.726454853 0.889510693
      vertex 0.206791623 0.598776655 0.949417242
    endloop
  endfacet
  facet normal 0.689554166 0.514867339 0.509339451
    outer loop
      vertex 0.156506575 0.72632758 0.888558927
      vertex 0.206791623 0.598776655 0.949417242
      vertex 0.207589676 0.598649382 0.948465475
    endloop
  endfacet
  facet normal -0.340554009 0.851187985 -0.39937699
    outer loop
      vertex 0.153943373 0.724775299 0.887436241
      vertex 0.155708521 0.726454853 0.889510693
      vertex 0.156506575 0.72632758 0.888558927
    endloop
  endfacet
  facet normal 0.340554009 -0.851187985 0.39937699
    outer loop
      vertex 0.205026475 0.597097101 0.94734279
      vertex 0.207589676 0.598649382 0.948465475
      vertex 0.206791623 0.598776655 0.949417242
    endloop
  endfacet
  facet normal 0.392465291 0.514684031 0.762280357
    outer loop
      vertex 0.155708521 0.726454853 0.889510693
      vertex 0.15464174 0.726326429 0.890146643
      vertex 0.205724842 0.598648231 0.950053192
    endloop
  endfacet
  facet normal 0.392465291 0.514684031 0.762280357
    outer loop
      vertex 0.155708521 0.726454853 0.889510693
      vertex 0.205724842 0.598648231 0.950053192
      vertex 0.206791623 0.598776655 0.949417242
    endloop
  endfacet
  facet normal -0.340554009 0.851187985 -0.39937699
    outer loop
      vertex 0.153943373 0.724775299 0.887436241
      vertex 0.15464174 0.726326429 0.890146643
      vertex 0.155708521 0.726454853 0.889510693
    endloop
  endfacet
  facet normal 0.340554009 -0.851187985 0.39937699
    outer loop
      vertex 0.205026475 0.597097101 0.94734279
      vertex 0.206791623 0.598776655 0.949417242
      vertex 0.205724842 0.598648231 0.950053192
    endloop
  endfacet
  facet normal 0.0356271343 0.436144745 0.89917099
    outer loop
      vertex 0.15464174 0.726326429 0.890146643
      vertex 0.153468639 0.72596186 0.890369959
      vertex 0.20455174 0.598283662 0.950276508
    endloop
  endfacet
  facet normal 0.0356271343 0.436144745 0.89917099
    outer loop
      vertex 0.15464174 0.726326429 0.890146643
      vertex 0.20455174 0.598283662 0.950276508
      vertex 0.205724842 0.598648231 0.950053192
    endloop
  endfacet
  facet normal -0.340554009 0.851187985 -0.39937699
    outer loop
      vertex 0.153943373 0.724775299 0.887436241
      vertex 0.153468639 0.72596186 0.890369959
      vertex 0.15464174 0.726326429 0.890146643
    endloop
  endfacet
  facet normal 0.340554009 -0.851187985 0.39937699
    outer loop
      vertex 0.205026475 0.597097101 0.94734279
      vertex 0.205724842 0.598648231 0.950053192
      vertex 0.20455174 0.598283662 0.950276508
    endloop
  endfacet
  facet normal -0.326634931 0.291206376 0.89917099
    outer loop
      vertex 0.153468639 0.72596186 0.890369959
      vertex 0.152367812 0.725416647 0.890146643
      vertex 0.203450913 0.597738449 0.950053192
    endloop
  endfacet
  facet normal -0.326634931 0.291206376 0.89917099
    outer loop
      vertex 0.153468639 0.72596186 0.890369959
      vertex 0.203450913 0.597738449 0.950053192
      vertex 0.20455174 0.598283662 0.950276508
    endloop
  endfacet
  facet normal -0.340554009 0.851187985 -0.39937699
    outer loop
      vertex 0.153943373 0.724775299 0.887436241
      vertex 0.152367812 0.725416647 0.890146643
      vertex 0.153468639 0.72596186 0.890369959
    endloop
  endfacet
  facet normal 0.340554009 -0.851187985 0.39937699
    outer loop
      vertex 0.205026475 0.597097101 0.94734279
      vertex 0.20455174 0.598283662 0.950276508
      vertex 0.203450913 0.597738449 0.950053192
    endloop
  endfacet
  facet normal -0.639169789 0.101934475 0.762280357
    outer loop
      vertex 0.152367812 0.725416647 0.890146643
      vertex 0.15150685 0.724773795 0.889510693
      vertex 0.202589951 0.597095597 0.949417242
    endloop
  endfacet
  facet normal -0.639169789 0.101934475 0.762280357
    outer loop
      vertex 0.152367812 0.725416647 0.890146643
      vertex 0.202589951 0.597095597 0.949417242
      vertex 0.203450913 0.597738449 0.950053192
    endloop
  endfacet
  facet normal -0.340554009 0.851187985 -0.39937699
    outer loop
      vertex 0.153943373 0.724775299 0.887436241
      vertex 0.15150685 0.724773795 0.889510693
      vertex 0.152367812 0.725416647 0.890146643
    endloop
  endfacet
  facet normal 0.340554009 -0.851187985 0.39937699
    outer loop
      vertex 0.205026475 0.597097101 0.94734279
      vertex 0.203450913 0.597738449 0.950053192
      vertex 0.202589951 0.597095597 0.949417242
    endloop
  endfacet
  facet normal -0.854396841 -0.102856025 0.509339451
    outer loop
      vertex 0.15150685 0.724773795 0.889510693
      vertex 0.151016826 0.724131172 0.888558927
      vertex 0.202099928 0.596452974 0.948465475
    endloop
  endfacet
  facet normal -0.854396841 -0.102856025 0.509339451
    outer loop
      vertex 0.15150685 0.724773795 0.889510693
      vertex 0.202099928 0.596452974 0.948465475
      vertex 0.202589951 0.597095597 0.949417242
    endloop
  endfacet
  facet normal -0.340554009 0.851187985 -0.39937699
    outer loop
      vertex 0.153943373 0.724775299 0.887436241
      vertex 0.151016826 0.724131172 0.888558927
      vertex 0.15150685 0.724773795 0.889510693
    endloop
  endfacet
  facet normal 0.340554009 -0.851187985 0.39937699
    outer loop
      vertex 0.205026475 0.597097101 0.94734279
      vertex 0.202589951 0.597095597 0.949417242
      vertex 0.202099928 0.596452974 0.948465475
    endloop
  endfacet
  facet normal -0.939549719 -0.291987628 0.17885623
    outer loop
      vertex 0.151016826 0.724131172 0.888558927
      vertex 0.150972343 0.723586611 0.887436241
      vertex 0.202055444 0.595908413 0.94734279
    endloop
  endfacet
  facet normal -0.939549719 -0.291987628 0.17885623
    outer loop
      vertex 0.151016826 0.724131172 0.888558927
      vertex 0.202055444 0.595908413 0.94734279
      vertex 0.202099928 0.596452974 0.948465475
    endloop
  endfacet
  facet normal -0.340554009 0.851187985 -0.39937699
    outer loop
      vertex 0.153943373 0.724775299 0.887436241
      vertex 0.150972343 0.723586611 0.887436241
      vertex 0.151016826 0.724131172 0.888558927
    endloop
  endfacet
  facet normal 0.340554009 -0.851187985 0.39937699
    outer loop
      vertex 0.205026475 0.597097101 0.94734279
      vertex 0.202099928 0.596452974 0.948465475
      vertex 0.202055444 0.595908413 0.94734279
    endloop
  endfacet
  facet normal -0.200775109 -0.970221992 -0.135494065
    outer loop
      vertex 0.194396754 0.865601083 1.00504717
      vertex 0.193532454 0.865898713 1.00419667
      vertex 0.255919473 0.862031389 0.939444035
    endloop
  endfacet
  facet normal -0.200775109 -0.970221992 -0.135494065
    outer loop
      vertex 0.194396754 0.865601083 1.00504717
      vertex 0.255919473 0.862031389 0.939444035
      vertex 0.256783773 0.861733759 0.940294535
    endloop
  endfacet
  facet normal -0.693189097 0.0429702659 0.719473719
    outer loop
      vertex 0.194594739 0.868794952 1.00504717
      vertex 0.193532454 0.865898713 1.00419667
      vertex 0.194396754 0.865601083 1.00504717
    endloop
  endfacet
  facet normal 0.693189097 -0.0429702659 -0.719473719
    outer loop
      vertex 0.256981758 0.864927628 0.940294535
      vertex 0.256783773 0.861733759 0.940294535
      vertex 0.255919473 0.862031389 0.939444035
    endloop
  endfacet
  facet normal -0.450395821 -0.805145915 -0.385854453
    outer loop
      vertex 0.193532454 0.865898713 1.00419667
      vertex 0.192829878 0.866637269 1.00347565
      vertex 0.255216897 0.862769945 0.938723016
    endloop
  endfacet
  facet normal -0.450395821 -0.805145915 -0.385854453
    outer loop
      vertex 0.193532454 0.865898713 1.00419667
      vertex 0.255216897 0.862769945 0.938723016
      vertex 0.255919473 0.862031389 0.939444035
    endloop
  endfacet
  facet normal -0.693189097 0.0429702659 0.719473719
    outer loop
      vertex 0.194594739 0.868794952 1.00504717
      vertex 0.192829878 0.866637269 1.00347565
      vertex 0.193532454 0.865898713 1.00419667
    endloop
  endfacet
  facet normal 0.693189097 -0.0429702659 -0.719473719
    outer loop
      vertex 0.256981758 0.864927628 0.940294535
      vertex 0.255919473 0.862031389 0.939444035
      vertex 0.255216897 0.862769945 0.938723016
    endloop
  endfacet
  facet normal -0.631447853 -0.517493672 -0.577471998
    outer loop
      vertex 0.192829878 0.866637269 1.00347565
      vertex 0.192395986 0.867704313 1.00299388
      vertex 0.254783005 0.863836989 0.938241247
    endloop
  endfacet
  facet normal -0.631447853 -0.517493672 -0.577471998
    outer loop
      vertex 0.192829878 0.866637269 1.00347565
      vertex 0.254783005 0.863836989 0.938241247
      vertex 0.255216897 0.862769945 0.938723016
    endloop
  endfacet
  facet normal -0.693189097 0.0429702659 0.719473719
    outer loop
      vertex 0.194594739 0.868794952 1.00504717
      vertex 0.192395986 0.867704313 1.00299388
      vertex 0.192829878 0.866637269 1.00347565
    endloop
  endfacet
  facet normal 0.693189097 -0.0429702659 -0.719473719
    outer loop
      vertex 0.256981758 0.864927628 0.940294535
      vertex 0.255216897 0.862769945 0.938723016
      vertex 0.254783005 0.863836989 0.938241247
    endloop
  endfacet
  facet normal -0.716367673 -0.151057708 -0.681174666
    outer loop
      vertex 0.192395986 0.867704313 1.00299388
      vertex 0.192296834 0.868937397 1.00282471
      vertex 0.254683853 0.865070073 0.938072072
    endloop
  endfacet
  facet normal -0.716367673 -0.151057708 -0.681174666
    outer loop
      vertex 0.192395986 0.867704313 1.00299388
      vertex 0.254683853 0.865070073 0.938072072
      vertex 0.254783005 0.863836989 0.938241247
    endloop
  endfacet
  facet normal -0.693189097 0.0429702659 0.719473719
    outer loop
      vertex 0.194594739 0.868794952 1.00504717
      vertex 0.192296834 0.868937397 1.00282471
      vertex 0.192395986 0.867704313 1.00299388
    endloop
  endfacet
  facet normal 0.693189097 -0.0429702659 -0.719473719
    outer loop
      vertex 0.256981758 0.864927628 0.940294535
      vertex 0.254783005 0.863836989 0.938241247
      vertex 0.254683853 0.865070073 0.938072072
    endloop
  endfacet
  facet normal -0.692227009 0.238375423 -0.681174666
    outer loop
      vertex 0.192296834 0.868937397 1.00282471
      vertex 0.192547518 0.870148795 1.00299388
      vertex 0.254934536 0.866281471 0.938241247
    endloop
  endfacet
  facet normal -0.692227009 0.238375423 -0.681174666
    outer loop
      vertex 0.192296834 0.868937397 1.00282471
      vertex 0.254934536 0.866281471 0.938241247
      vertex 0.254683853 0.865070073 0.938072072
    endloop
  endfacet
  facet normal -0.693189097 0.0429702659 0.719473719
    outer loop
      vertex 0.194594739 0.868794952 1.00504717
      vertex 0.192547518 0.870148795 1.00299388
      vertex 0.192296834 0.868937397 1.00282471
    endloop
  endfacet
  facet normal 0.693189097 -0.0429702659 -0.719473719
    outer loop
      vertex 0.256981758 0.864927628 0.940294535
      vertex 0.254683853 0.865070073 0.938072072
      vertex 0.254934536 0.866281471 0.938241247
    endloop
  endfacet
  facet normal -0.562701058 0.591518056 -0.577471998
    outer loop
      vertex 0.192547518 0.870148795 1.00299388
      vertex 0.193109872 0.871154083 1.00347565
      vertex 0.255496891 0.867286759 0.938723016
    endloop
  endfacet
  facet normal -0.562701058 0.591518056 -0.577471998
    outer loop
      vertex 0.192547518 0.870148795 1.00299388
      vertex 0.255496891 0.867286759 0.938723016
      vertex 0.254934536 0.866281471 0.938241247
    endloop
  endfacet
  facet normal -0.693189097 0.0429702659 0.719473719
    outer loop
      vertex 0.194594739 0.868794952 1.00504717
      vertex 0.193109872 0.871154083 1.00347565
      vertex 0.192547518 0.870148795 1.00299388
    endloop
  endfacet
  facet normal 0.693189097 -0.0429702659 -0.719473719
    outer loop
      vertex 0.256981758 0.864927628 0.940294535
      vertex 0.254934536 0.866281471 0.938241247
      vertex 0.255496891 0.867286759 0.938723016
    endloop
  endfacet
  facet normal -0.347508971 0.854607428 -0.385854453
    outer loop
      vertex 0.193109872 0.871154083 1.00347565
      vertex 0.193898284 0.871800214 1.00419667
      vertex 0.256285303 0.86793289 0.939444035
    endloop
  endfacet
  facet normal -0.347508971 0.854607428 -0.385854453
    outer loop
      vertex 0.193109872 0.871154083 1.00347565
      vertex 0.256285303 0.86793289 0.939444035
      vertex 0.255496891 0.867286759 0.938723016
    endloop
  endfacet
  facet normal -0.693189097 0.0429702659 0.719473719
    outer loop
      vertex 0.194594739 0.868794952 1.00504717
      vertex 0.193898284 0.871800214 1.00419667
      vertex 0.193109872 0.871154083 1.00347565
    endloop
  endfacet
  facet normal 0.693189097 -0.0429702659 -0.719473719
    outer loop
      vertex 0.256981758 0.864927628 0.940294535
      vertex 0.255496891 0.867286759 0.938723016
      vertex 0.256285303 0.86793289 0.939444035
    endloop
  endfacet
  facet normal -0.0794117943 0.987590566 -0.135494065
    outer loop
      vertex 0.193898284 0.871800214 1.00419667
      vertex 0.194792725 0.871988821 1.00504717
      vertex 0.257179744 0.868121497 0.940294535
    endloop
  endfacet
  facet normal -0.0794117943 0.987590566 -0.135494065
    outer loop
      vertex 0.193898284 0.871800214 1.00419667
      vertex 0.257179744 0.868121497 0.940294535
      vertex 0.256285303 0.86793289 0.939444035
    endloop
  endfacet
  facet normal -0.693189097 0.0429702659 0.719473719
    outer loop
      vertex 0.194594739 0.868794952 1.00504717
      vertex 0.194792725 0.871988821 1.00504717
      vertex 0.193898284 0.871800214 1.00419667
    endloop
  endfacet
  facet normal 0.693189097 -0.0429702659 -0.719473719
    outer loop
      vertex 0.256981758 0.864927628 0.940294535
      vertex 0.256285303 0.86793289 0.939444035
      vertex 0.257179744 0.868121497 0.940294535
    endloop
  endfacet
  facet normal 0.200775109 0.970221992 0.135494065
    outer loop
      vertex 0.194792725 0.871988821 1.00504717
      vertex 0.195657024 0.871691191 1.00589767
      vertex 0.258044043 0.867823867 0.941145035
    endloop
  endfacet
  facet normal 0.200775109 0.970221992 0.135494065
    outer loop
      vertex 0.194792725 0.871988821 1.00504717
      vertex 0.258044043 0.867823867 0.941145035
      vertex 0.257179744 0.868121497 0.940294535
    endloop
  endfacet
  facet normal -0.693189097 0.0429702659 0.719473719
    outer loop
      vertex 0.194594739 0.868794952 1.00504717
      vertex 0.195657024 0.871691191 1.00589767
      vertex 0.194792725 0.871988821 1.00504717
    endloop
  endfacet
  facet normal 0.693189097 -0.0429702659 -0.719473719
    outer loop
      vertex 0.256981758 0.864927628 0.940294535
      vertex 0.257179744 0.868121497 0.940294535
      vertex 0.258044043 0.867823867 0.941145035
    endloop
  endfacet
  facet normal 0.450395821 0.805145915 0.385854453
    outer loop
      vertex 0.195657024 0.871691191 1.00589767
      vertex 0.196359601 0.870952635 1.00661869
      vertex 0.258746619 0.867085311 0.941866054
    endloop
  endfacet
  facet normal 0.450395821 0.805145915 0.385854453
    outer loop
      vertex 0.195657024 0.871691191 1.00589767
      vertex 0.258746619 0.867085311 0.941866054
      vertex 0.258044043 0.867823867 0.941145035
    endloop
  endfacet
  facet normal -0.693189097 0.0429702659 0.719473719
    outer loop
      vertex 0.194594739 0.868794952 1.00504717
      vertex 0.196359601 0.870952635 1.00661869
      vertex 0.195657024 0.871691191 1.00589767
    endloop
  endfacet
  facet normal 0.693189097 -0.0429702659 -0.719473719
    outer loop
      vertex 0.256981758 0.864927628 0.940294535
      vertex 0.258044043 0.867823867 0.941145035
      vertex 0.258746619 0.867085311 0.941866054
    endloop
  endfacet
  facet normal 0.631447853 0.517493672 0.577471998
    outer loop
      vertex 0.196359601 0.870952635 1.00661869
      vertex 0.196793493 0.86988559 1.00710046
      vertex 0.259180511 0.866018266 0.942347823
    endloop
  endfacet
  facet normal 0.631447853 0.517493672 0.577471998
    outer loop
      vertex 0.196359601 0.870952635 1.00661869
      vertex 0.259180511 0.866018266 0.942347823
      vertex 0.258746619 0.867085311 0.941866054
    endloop
  endfacet
  facet normal -0.693189097 0.0429702659 0.719473719
    outer loop
      vertex 0.194594739 0.868794952 1.00504717
      vertex 0.196793493 0.86988559 1.00710046
      vertex 0.196359601 0.870952635 1.00661869
    endloop
  endfacet
  facet normal 0.693189097 -0.0429702659 -0.719473719
    outer loop
      vertex 0.256981758 0.864927628 0.940294535
      vertex 0.258746619 0.867085311 0.941866054
      vertex 0.259180511 0.866018266 0.942347823
    endloop
  endfacet
  facet normal 0.716367673 0.151057708 0.681174666
    outer loop
      vertex 0.196793493 0.86988559 1.00710046
      vertex 0.196892644 0.868652507 1.00726963
      vertex 0.259279663 0.864785183 0.942516998
    endloop
  endfacet
  facet normal 0.716367673 0.151057708 0.681174666
    outer loop
      vertex 0.196793493 0.86988559 1.00710046
      vertex 0.259279663 0.864785183 0.942516998
      vertex 0.259180511 0.866018266 0.942347823
    endloop
  endfacet
  facet normal -0.693189097 0.0429702659 0.719473719
    outer loop
      vertex 0.194594739 0.868794952 1.00504717
      vertex 0.196892644 0.868652507 1.00726963
      vertex 0.196793493 0.86988559 1.00710046
    endloop
  endfacet
  facet normal 0.693189097 -0.0429702659 -0.719473719
    outer loop
      vertex 0.256981758 0.864927628 0.940294535
      vertex 0.259180511 0.866018266 0.942347823
      vertex 0.259279663 0.864785183 0.942516998
    endloop
  endfacet
  facet normal 0.692227009 -0.238375423 0.681174666
    outer loop
      vertex 0.196892644 0.868652507 1.00726963
      vertex 0.196641961 0.867441109 1.00710046
      vertex 0.25902898 0.863573785 0.942347823
    endloop
  endfacet
  facet normal 0.692227009 -0.238375423 0.681174666
    outer loop
      vertex 0.196892644 0.868652507 1.00726963
      vertex 0.25902898 0.863573785 0.942347823
      vertex 0.259279663 0.864785183 0.942516998
    endloop
  endfacet
  facet normal -0.693189097 0.0429702659 0.719473719
    outer loop
      vertex 0.194594739 0.868794952 1.00504717
      vertex 0.196641961 0.867441109 1.00710046
      vertex 0.196892644 0.868652507 1.00726963
    endloop
  endfacet
  facet normal 0.693189097 -0.0429702659 -0.719473719
    outer loop
      vertex 0.256981758 0.864927628 0.940294535
      vertex 0.259279663 0.864785183 0.942516998
      vertex 0.25902898 0.863573785 0.942347823
    endloop
  endfacet
  facet normal 0.562701058 -0.591518056 0.577471998
    outer loop
      vertex 0.196641961 0.867441109 1.00710046
      vertex 0.196079607 0.866435821 1.00661869
      vertex 0.258466625 0.862568497 0.941866054
    endloop
  endfacet
  facet normal 0.562701058 -0.591518056 0.577471998
    outer loop
      vertex 0.196641961 0.867441109 1.00710046
      vertex 0.258466625 0.862568497 0.941866054
      vertex 0.25902898 0.863573785 0.942347823
    endloop
  endfacet
  facet normal -0.693189097 0.0429702659 0.719473719
    outer loop
      vertex 0.194594739 0.868794952 1.00504717
      vertex 0.196079607 0.866435821 1.00661869
      vertex 0.196641961 0.867441109 1.00710046
    endloop
  endfacet
  facet normal 0.693189097 -0.0429702659 -0.719473719
    outer loop
      vertex 0.256981758 0.864927628 0.940294535
      vertex 0.25902898 0.863573785 0.942347823
      vertex 0.258466625 0.862568497 0.941866054
    endloop
  endfacet
  facet normal 0.347508971 -0.854607428 0.385854453
    outer loop
      vertex 0.196079607 0.866435821 1.00661869
      vertex 0.195291195 0.86578969 1.00589767
      vertex 0.257678214 0.861922366 0.941145035
    endloop
  endfacet
  facet normal 0.347508971 -0.854607428 0.385854453
    outer loop
      vertex 0.196079607 0.866435821 1.00661869
      vertex 0.257678214 0.861922366 0.941145035
      vertex 0.258466625 0.862568497 0.941866054
    endloop
  endfacet
  facet normal -0.693189097 0.0429702659 0.719473719
    outer loop
      vertex 0.194594739 0.868794952 1.00504717
      vertex 0.195291195 0.86578969 1.00589767
      vertex 0.196079607 0.866435821 1.00661869
    endloop
  endfacet
  facet normal 0.693189097 -0.0429702659 -0.719473719
    outer loop
      vertex 0.256981758 0.864927628 0.940294535
      vertex 0.258466625 0.862568497 0.941866054
      vertex 0.257678214 0.861922366 0.941145035
    endloop
  endfacet
  facet normal 0.0794117943 -0.987590566 0.135494065
    outer loop
      vertex 0.195291195 0.86578969 1.00589767
      vertex 0.194396754 0.865601083 1.00504717
      vertex 0.256783773 0.861733759 0.940294535
    endloop
  endfacet
  facet normal 0.0794117943 -0.987590566 0.135494065
    outer loop
      vertex 0.195291195 0.86578969 1.00589767
      vertex 0.256783773 0.861733759 0.940294535
      vertex 0.257678214 0.861922366 0.941145035
    endloop
  endfacet
  facet normal -0.693189097 0.0429702659 0.719473719
    outer loop
      vertex 0.194594739 0.868794952 1.00504717
      vertex 0.194396754 0.865601083 1.00504717
      vertex 0.195291195 0.86578969 1.00589767
    endloop
  endfacet
  facet normal 0.693189097 -0.0429702659 -0.719473719
    outer loop
      vertex 0.256981758 0.864927628 0.940294535
      vertex 0.257678214 0.861922366 0.941145035
      vertex 0.256783773 0.861733759 0.940294535
    endloop
  endfacet
  facet normal -0.200775109 -0.970221992 -0.135494065
    outer loop
      vertex 0.204859061 0.839993279 1.01665667
      vertex 0.203994762 0.84029091 1.01580617
      vertex 0.266381781 0.836423586 0.951053537
    endloop
  endfacet
  facet normal -0.200775109 -0.970221992 -0.135494065
    outer loop
      vertex 0.204859061 0.839993279 1.01665667
      vertex 0.266381781 0.836423586 0.951053537
      vertex 0.26724608 0.836125955 0.951904037
    endloop
  endfacet
  facet normal -0.693189097 0.0429702659 0.719473719
    outer loop
      vertex 0.205057047 0.843187149 1.01665667
      vertex 0.203994762 0.84029091 1.01580617
      vertex 0.204859061 0.839993279 1.01665667
    endloop
  endfacet
  facet normal 0.693189097 -0.0429702659 -0.719473719
    outer loop
      vertex 0.267444066 0.839319825 0.951904037
      vertex 0.26724608 0.836125955 0.951904037
      vertex 0.266381781 0.836423586 0.951053537
    endloop
  endfacet
  facet normal -0.450395821 -0.805145915 -0.385854453
    outer loop
      vertex 0.203994762 0.84029091 1.01580617
      vertex 0.203292186 0.841029466 1.01508515
      vertex 0.265679205 0.837162142 0.950332518
    endloop
  endfacet
  facet normal -0.450395821 -0.805145915 -0.385854453
    outer loop
      vertex 0.203994762 0.84029091 1.01580617
      vertex 0.265679205 0.837162142 0.950332518
      vertex 0.266381781 0.836423586 0.951053537
    endloop
  endfacet
  facet normal -0.693189097 0.0429702659 0.719473719
    outer loop
      vertex 0.205057047 0.843187149 1.01665667
      vertex 0.203292186 0.841029466 1.01508515
      vertex 0.203994762 0.84029091 1.01580617
    endloop
  endfacet
  facet normal 0.693189097 -0.0429702659 -0.719473719
    outer loop
      vertex 0.267444066 0.839319825 0.951904037
      vertex 0.266381781 0.836423586 0.951053537
      vertex 0.265679205 0.837162142 0.950332518
    endloop
  endfacet
  facet normal -0.631447853 -0.517493672 -0.577471998
    outer loop
      vertex 0.203292186 0.841029466 1.01508515
      vertex 0.202858294 0.84209651 1.01460338
      vertex 0.265245312 0.838229186 0.949850749
    endloop
  endfacet
  facet normal -0.631447853 -0.517493672 -0.577471998
    outer loop
      vertex 0.203292186 0.841029466 1.01508515
      vertex 0.265245312 0.838229186 0.949850749
      vertex 0.265679205 0.837162142 0.950332518
    endloop
  endfacet
  facet normal -0.693189097 0.0429702659 0.719473719
    outer loop
      vertex 0.205057047 0.843187149 1.01665667
      vertex 0.202858294 0.84209651 1.01460338
      vertex 0.203292186 0.841029466 1.01508515
    endloop
  endfacet
  facet normal 0.693189097 -0.0429702659 -0.719473719
    outer loop
      vertex 0.267444066 0.839319825 0.951904037
      vertex 0.265679205 0.837162142 0.950332518
      vertex 0.265245312 0.838229186 0.949850749
    endloop
  endfacet
  facet normal -0.716367673 -0.151057708 -0.681174666
    outer loop
      vertex 0.202858294 0.84209651 1.01460338
      vertex 0.202759142 0.843329594 1.01443421
      vertex 0.265146161 0.83946227 0.949681574
    endloop
  endfacet
  facet normal -0.716367673 -0.151057708 -0.681174666
    outer loop
      vertex 0.202858294 0.84209651 1.01460338
      vertex 0.265146161 0.83946227 0.949681574
      vertex 0.265245312 0.838229186 0.949850749
    endloop
  endfacet
  facet normal -0.693189097 0.0429702659 0.719473719
    outer loop
      vertex 0.205057047 0.843187149 1.01665667
      vertex 0.202759142 0.843329594 1.01443421
      vertex 0.202858294 0.84209651 1.01460338
    endloop
  endfacet
  facet normal 0.693189097 -0.0429702659 -0.719473719
    outer loop
      vertex 0.267444066 0.839319825 0.951904037
      vertex 0.265245312 0.838229186 0.949850749
      vertex 0.265146161 0.83946227 0.949681574
    endloop
  endfacet
  facet normal -0.692227009 0.238375423 -0.681174666
    outer loop
      vertex 0.202759142 0.843329594 1.01443421
      vertex 0.203009825 0.844540992 1.01460338
      vertex 0.265396844 0.840673668 0.949850749
    endloop
  endfacet
  facet normal -0.692227009 0.238375423 -0.681174666
    outer loop
      vertex 0.202759142 0.843329594 1.01443421
      vertex 0.265396844 0.840673668 0.949850749
      vertex 0.265146161 0.83946227 0.949681574
    endloop
  endfacet
  facet normal -0.693189097 0.0429702659 0.719473719
    outer loop
      vertex 0.205057047 0.843187149 1.01665667
      vertex 0.203009825 0.844540992 1.01460338
      vertex 0.202759142 0.843329594 1.01443421
    endloop
  endfacet
  facet normal 0.693189097 -0.0429702659 -0.719473719
    outer loop
      vertex 0.267444066 0.839319825 0.951904037
      vertex 0.265146161 0.83946227 0.949681574
      vertex 0.265396844 0.840673668 0.949850749
    endloop
  endfacet
  facet normal -0.562701058 0.591518056 -0.577471998
    outer loop
      vertex 0.203009825 0.844540992 1.01460338
      vertex 0.20357218 0.84554628 1.01508515
      vertex 0.265959198 0.841678956 0.950332518
    endloop
  endfacet
  facet normal -0.562701058 0.591518056 -0.577471998
    outer loop
      vertex 0.203009825 0.844540992 1.01460338
      vertex 0.265959198 0.841678956 0.950332518
      vertex 0.265396844 0.840673668 0.949850749
    endloop
  endfacet
  facet normal -0.693189097 0.0429702659 0.719473719
    outer loop
      vertex 0.205057047 0.843187149 1.01665667
      vertex 0.20357218 0.84554628 1.01508515
      vertex 0.203009825 0.844540992 1.01460338
    endloop
  endfacet
  facet normal 0.693189097 -0.0429702659 -0.719473719
    outer loop
      vertex 0.267444066 0.839319825 0.951904037
      vertex 0.265396844 0.840673668 0.949850749
      vertex 0.265959198 0.841678956 0.950332518
    endloop
  endfacet
  facet normal -0.347508971 0.854607428 -0.385854453
    outer loop
      vertex 0.20357218 0.84554628 1.01508515
      vertex 0.204360592 0.846192411 1.01580617
      vertex 0.26674761 0.842325087 0.951053537
    endloop
  endfacet
  facet normal -0.347508971 0.854607428 -0.385854453
    outer loop
      vertex 0.20357218 0.84554628 1.01508515
      vertex 0.26674761 0.842325087 0.951053537
      vertex 0.265959198 0.841678956 0.950332518
    endloop
  endfacet
  facet normal -0.693189097 0.0429702659 0.719473719
    outer loop
      vertex 0.205057047 0.843187149 1.01665667
      vertex 0.204360592 0.846192411 1.01580617
      vertex 0.20357218 0.84554628 1.01508515
    endloop
  endfacet
  facet normal 0.693189097 -0.0429702659 -0.719473719
    outer loop
      vertex 0.267444066 0.839319825 0.951904037
      vertex 0.265959198 0.841678956 0.950332518
      vertex 0.26674761 0.842325087 0.951053537
    endloop
  endfacet
  facet normal -0.0794117943 0.987590566 -0.135494065
    outer loop
      vertex 0.204360592 0.846192411 1.01580617
      vertex 0.205255033 0.846381018 1.01665667
      vertex 0.267642051 0.842513694 0.951904037
    endloop
  endfacet
  facet normal -0.0794117943 0.987590566 -0.135494065
    outer loop
      vertex 0.204360592 0.846192411 1.01580617
      vertex 0.267642051 0.842513694 0.951904037
      vertex 0.26674761 0.842325087 0.951053537
    endloop
  endfacet
  facet normal -0.693189097 0.0429702659 0.719473719
    outer loop
      vertex 0.205057047 0.843187149 1.01665667
      vertex 0.205255033 0.846381018 1.01665667
      vertex 0.204360592 0.846192411 1.01580617
    endloop
  endfacet
  facet normal 0.693189097 -0.0429702659 -0.719473719
    outer loop
      vertex 0.267444066 0.839319825 0.951904037
      vertex 0.26674761 0.842325087 0.951053537
      vertex 0.267642051 0.842513694 0.951904037
    endloop
  endfacet
  facet normal 0.200775109 0.970221992 0.135494065
    outer loop
      vertex 0.205255033 0.846381018 1.01665667
      vertex 0.206119332 0.846083388 1.01750717
      vertex 0.268506351 0.842216064 0.952754537
    endloop
  endfacet
  facet normal 0.200775109 0.970221992 0.135494065
    outer loop
      vertex 0.205255033 0.846381018 1.01665667
      vertex 0.268506351 0.842216064 0.952754537
      vertex 0.267642051 0.842513694 0.951904037
    endloop
  endfacet
  facet normal -0.693189097 0.0429702659 0.719473719
    outer loop
      vertex 0.205057047 0.843187149 1.01665667
      vertex 0.206119332 0.846083388 1.01750717
      vertex 0.205255033 0.846381018 1.01665667
    endloop
  endfacet
  facet normal 0.693189097 -0.0429702659 -0.719473719
    outer loop
      vertex 0.267444066 0.839319825 0.951904037
      vertex 0.267642051 0.842513694 0.951904037
      vertex 0.268506351 0.842216064 0.952754537
    endloop
  endfacet
  facet normal 0.450395821 0.805145915 0.385854453
    outer loop
      vertex 0.206119332 0.846083388 1.01750717
      vertex 0.206821908 0.845344831 1.01822819
      vertex 0.269208927 0.841477507 0.953475556
    endloop
  endfacet
  facet normal 0.450395821 0.805145915 0.385854453
    outer loop
      vertex 0.206119332 0.846083388 1.01750717
      vertex 0.269208927 0.841477507 0.953475556
      vertex 0.268506351 0.842216064 0.952754537
    endloop
  endfacet
  facet normal -0.693189097 0.0429702659 0.719473719
    outer loop
      vertex 0.205057047 0.843187149 1.01665667
      vertex 0.206821908 0.845344831 1.01822819
      vertex 0.206119332 0.846083388 1.01750717
    endloop
  endfacet
  facet normal 0.693189097 -0.0429702659 -0.719473719
    outer loop
      vertex 0.267444066 0.839319825 0.951904037
      vertex 0.268506351 0.842216064 0.952754537
      vertex 0.269208927 0.841477507 0.953475556
    endloop
  endfacet
  facet normal 0.631447853 0.517493672 0.577471998
    outer loop
      vertex 0.206821908 0.845344831 1.01822819
      vertex 0.2072558 0.844277787 1.01870996
      vertex 0.269642819 0.840410463 0.953957325
    endloop
  endfacet
  facet normal 0.631447853 0.517493672 0.577471998
    outer loop
      vertex 0.206821908 0.845344831 1.01822819
      vertex 0.269642819 0.840410463 0.953957325
      vertex 0.269208927 0.841477507 0.953475556
    endloop
  endfacet
  facet normal -0.693189097 0.0429702659 0.719473719
    outer loop
      vertex 0.205057047 0.843187149 1.01665667
      vertex 0.2072558 0.844277787 1.01870996
      vertex 0.206821908 0.845344831 1.01822819
    endloop
  endfacet
  facet normal 0.693189097 -0.0429702659 -0.719473719
    outer loop
      vertex 0.267444066 0.839319825 0.951904037
      vertex 0.269208927 0.841477507 0.953475556
      vertex 0.269642819 0.840410463 0.953957325
    endloop
  endfacet
  facet normal 0.716367673 0.151057708 0.681174666
    outer loop
      vertex 0.2072558 0.844277787 1.01870996
      vertex 0.207354952 0.843044703 1.01887913
      vertex 0.269741971 0.839177379 0.9541265
    endloop
  endfacet
  facet normal 0.716367673 0.151057708 0.681174666
    outer loop
      vertex 0.2072558 0.844277787 1.01870996
      vertex 0.269741971 0.839177379 0.9541265
      vertex 0.269642819 0.840410463 0.953957325
    endloop
  endfacet
  facet normal -0.693189097 0.0429702659 0.719473719
    outer loop
      vertex 0.205057047 0.843187149 1.01665667
      vertex 0.207354952 0.843044703 1.01887913
      vertex 0.2072558 0.844277787 1.01870996
    endloop
  endfacet
  facet normal 0.693189097 -0.0429702659 -0.719473719
    outer loop
      vertex 0.267444066 0.839319825 0.951904037
      vertex 0.269642819 0.840410463 0.953957325
      vertex 0.269741971 0.839177379 0.9541265
    endloop
  endfacet
  facet normal 0.692227009 -0.238375423 0.681174666
    outer loop
      vertex 0.207354952 0.843044703 1.01887913
      vertex 0.207104269 0.841833306 1.01870996
      vertex 0.269491287 0.837965982 0.953957325
    endloop
  endfacet
  facet normal 0.692227009 -0.238375423 0.681174666
    outer loop
      vertex 0.207354952 0.843044703 1.01887913
      vertex 0.269491287 0.837965982 0.953957325
      vertex 0.269741971 0.839177379 0.9541265
    endloop
  endfacet
  facet normal -0.693189097 0.0429702659 0.719473719
    outer loop
      vertex 0.205057047 0.843187149 1.01665667
      vertex 0.207104269 0.841833306 1.01870996
      vertex 0.207354952 0.843044703 1.01887913
    endloop
  endfacet
  facet normal 0.693189097 -0.0429702659 -0.719473719
    outer loop
      vertex 0.267444066 0.839319825 0.951904037
      vertex 0.269741971 0.839177379 0.9541265
      vertex 0.269491287 0.837965982 0.953957325
    endloop
  endfacet
  facet normal 0.562701058 -0.591518056 0.577471998
    outer loop
      vertex 0.207104269 0.841833306 1.01870996
      vertex 0.206541914 0.840828018 1.01822819
      vertex 0.268928933 0.836960694 0.953475556
    endloop
  endfacet
  facet normal 0.562701058 -0.591518056 0.577471998
    outer loop
      vertex 0.207104269 0.841833306 1.01870996
      vertex 0.268928933 0.836960694 0.953475556
      vertex 0.269491287 0.837965982 0.953957325
    endloop
  endfacet
  facet normal -0.693189097 0.0429702659 0.719473719
    outer loop
      vertex 0.205057047 0.843187149 1.01665667
      vertex 0.206541914 0.840828018 1.01822819
      vertex 0.207104269 0.841833306 1.01870996
    endloop
  endfacet
  facet normal 0.693189097 -0.0429702659 -0.719473719
    outer loop
      vertex 0.267444066 0.839319825 0.951904037
      vertex 0.269491287 0.837965982 0.953957325
      vertex 0.268928933 0.836960694 0.953475556
    endloop
  endfacet
  facet normal 0.347508971 -0.854607428 0.385854453
    outer loop
      vertex 0.206541914 0.840828018 1.01822819
      vertex 0.205753502 0.840181887 1.01750717
      vertex 0.268140521 0.836314563 0.952754537
    endloop
  endfacet
  facet normal 0.347508971 -0.854607428 0.385854453
    outer loop
      vertex 0.206541914 0.840828018 1.01822819
      vertex 0.268140521 0.836314563 0.952754537
      vertex 0.268928933 0.836960694 0.953475556
    endloop
  endfacet
  facet normal -0.693189097 0.0429702659 0.719473719
    outer loop
      vertex 0.205057047 0.843187149 1.01665667
      vertex 0.205753502 0.840181887 1.01750717
      vertex 0.206541914 0.840828018 1.01822819
    endloop
  endfacet
  facet normal 0.693189097 -0.0429702659 -0.719473719
    outer loop
      vertex 0.267444066 0.839319825 0.951904037
      vertex 0.268928933 0.836960694 0.953475556
      vertex 0.268140521 0.836314563 0.952754537
    endloop
  endfacet
  facet normal 0.0794117943 -0.987590566 0.135494065
    outer loop
      vertex 0.205753502 0.840181887 1.01750717
      vertex 0.204859061 0.839993279 1.01665667
      vertex 0.26724608 0.836125955 0.951904037
    endloop
  endfacet
  facet normal 0.0794117943 -0.987590566 0.135494065
    outer loop
      vertex 0.205753502 0.840181887 1.01750717
      vertex 0.26724608 0.836125955 0.951904037
      vertex 0.268140521 0.836314563 0.952754537
    endloop
  endfacet
  facet normal -0.693189097 0.0429702659 0.719473719
    outer loop
      vertex 0.205057047 0.843187149 1.01665667
      vertex 0.204859061 0.839993279 1.01665667
      vertex 0.205753502 0.840181887 1.01750717
    endloop
  endfacet
  facet normal 0.693189097 -0.0429702659 -0.719473719
    outer loop
      vertex 0.267444066 0.839319825 0.951904037
      vertex 0.268140521 0.836314563 0.952754537
      vertex 0.26724608 0.836125955 0.951904037
    endloop
  endfacet
endsolid a10_features
