solid a10_blank
  facet normal -0.496458044 0.089061634 0.863479841
    outer loop
      vertex 1.34614866 1.0545226 1.7634393
      vertex 1.30255058 1.08461614 1.73526864
      vertex 0.788636449 0.153397921 1.53584188
    endloop
  endfacet
  facet normal -0.496458044 0.089061634 0.863479841
    outer loop
      vertex 1.34614866 1.0545226 1.7634393
      vertex 0.788636449 0.153397921 1.53584188
      vertex 0.83223453 0.12330438 1.56401254
    endloop
  endfacet
  facet normal 0.726634683 -0.501559011 0.469511018
    outer loop
      vertex 1.34614866 1.0545226 1.7634393
      vertex 0.83223453 0.12330438 1.56401254
      vertex 0.871951173 0.11617945 1.49493415
    endloop
  endfacet
  facet normal 0.726634683 -0.501559011 0.469511018
    outer loop
      vertex 1.34614866 1.0545226 1.7634393
      vertex 0.871951173 0.11617945 1.49493415
      vertex 1.3858653 1.04739767 1.69436091
    endloop
  endfacet
  facet normal -0.474901513 -0.860526922 -0.184287733
    outer loop
      vertex 0.83223453 0.12330438 1.56401254
      vertex 0.788636449 0.153397921 1.53584188
      vertex 0.828353092 0.14627299 1.46676349
    endloop
  endfacet
  facet normal -0.474901513 -0.860526922 -0.184287733
    outer loop
      vertex 0.83223453 0.12330438 1.56401254
      vertex 0.828353092 0.14627299 1.46676349
      vertex 0.871951173 0.11617945 1.49493415
    endloop
  endfacet
  facet normal -0.726634683 0.501559011 -0.469511018
    outer loop
      vertex 0.788636449 0.153397921 1.53584188
      vertex 1.30255058 1.08461614 1.73526864
      vertex 1.34226722 1.07749121 1.66619025
    endloop
  endfacet
  facet normal -0.726634683 0.501559011 -0.469511018
    outer loop
      vertex 0.788636449 0.153397921 1.53584188
      vertex 1.34226722 1.07749121 1.66619025
      vertex 0.828353092 0.14627299 1.46676349
    endloop
  endfacet
  facet normal 0.474901513 0.860526922 0.184287733
    outer loop
      vertex 1.30255058 1.08461614 1.73526864
      vertex 1.34614866 1.0545226 1.7634393
      vertex 1.3858653 1.04739767 1.69436091
    endloop
  endfacet
  facet normal 0.474901513 0.860526922 0.184287733
    outer loop
      vertex 1.30255058 1.08461614 1.73526864
      vertex 1.3858653 1.04739767 1.69436091
      vertex 1.34226722 1.07749121 1.66619025
    endloop
  endfacet
  facet normal 0.496458044 -0.089061634 -0.863479841
    outer loop
      vertex 1.3858653 1.04739767 1.69436091
      vertex 0.871951173 0.11617945 1.49493415
      vertex 0.828353092 0.14627299 1.46676349
    endloop
  endfacet
  facet normal 0.496458044 -0.089061634 -0.863479841
    outer loop
      vertex 1.3858653 1.04739767 1.69436091
      vertex 0.828353092 0.14627299 1.46676349
      vertex 1.34226722 1.07749121 1.66619025
    endloop
  endfacet
endsolid a10_blank
